<?xml version="1.0" encoding="UTF-8" standalone="no"?>
<!-- Created with Inkscape (http://www.inkscape.org/) -->

<svg
   version="1.1"
   id="svg1"
   width="549.44"
   height="225.27998"
   viewBox="0 0 549.44 225.27998"
   sodipodi:docname="ts-3.pdf"
   xmlns:inkscape="http://www.inkscape.org/namespaces/inkscape"
   xmlns:sodipodi="http://sodipodi.sourceforge.net/DTD/sodipodi-0.dtd"
   xmlns="http://www.w3.org/2000/svg"
   xmlns:svg="http://www.w3.org/2000/svg">
  <defs
     id="defs1">
    <clipPath
       clipPathUnits="userSpaceOnUse"
       id="clipPath2">
      <path
         d="M 0,0 H 1716.6666 V 702.81647 H 0 Z"
         transform="scale(0.33436894)"
         clip-rule="evenodd"
         id="path2" />
    </clipPath>
    <clipPath
       clipPathUnits="userSpaceOnUse"
       id="clipPath4">
      <path
         d="M 0,0 H 1716.6666 V 699.82574 H 0 Z"
         transform="matrix(0.33436894,0,0,0.33436894,-0.49999999,-0.49999999)"
         clip-rule="evenodd"
         id="path4" />
    </clipPath>
    <clipPath
       clipPathUnits="userSpaceOnUse"
       id="clipPath5">
      <path
         d="M 0,0 H 1716.6666 V 699.82574 H 0 Z"
         transform="matrix(0.33436559,0,0,0.33436559,-21.53125,-111)"
         clip-rule="evenodd"
         id="path5" />
    </clipPath>
    <clipPath
       clipPathUnits="userSpaceOnUse"
       id="clipPath6">
      <path
         d="M 0,0 H 1716.6666 V 699.82574 H 0 Z"
         transform="matrix(0.33436559,0,0,0.33436559,-45.984375,-135)"
         clip-rule="evenodd"
         id="path6" />
    </clipPath>
    <clipPath
       clipPathUnits="userSpaceOnUse"
       id="clipPath8">
      <path
         d="M 0,0 H 1716.6666 V 699.82574 H 0 Z"
         transform="matrix(0.33436894,0,0,0.33436894,-0.49999999,-0.49999999)"
         clip-rule="evenodd"
         id="path8" />
    </clipPath>
    <clipPath
       clipPathUnits="userSpaceOnUse"
       id="clipPath10">
      <path
         d="M 0,0 H 1716.6666 V 699.82574 H 0 Z"
         transform="matrix(0.33436894,0,0,0.33436894,-0.49999999,-0.49999999)"
         clip-rule="evenodd"
         id="path10" />
    </clipPath>
    <clipPath
       clipPathUnits="userSpaceOnUse"
       id="clipPath11">
      <path
         d="M 0,0 H 1716.6666 V 699.82574 H 0 Z"
         transform="matrix(0.33436559,0,0,0.33436559,-208.45313,-21)"
         clip-rule="evenodd"
         id="path11" />
    </clipPath>
    <clipPath
       clipPathUnits="userSpaceOnUse"
       id="clipPath12">
      <path
         d="M 0,0 H 1716.6666 V 699.82574 H 0 Z"
         transform="matrix(0.33436559,0,0,0.33436559,-333.42188,-41)"
         clip-rule="evenodd"
         id="path12" />
    </clipPath>
    <clipPath
       clipPathUnits="userSpaceOnUse"
       id="clipPath14">
      <path
         d="M 0,0 H 1716.6666 V 699.82574 H 0 Z"
         transform="matrix(0.33436894,0,0,0.33436894,-0.49999999,-0.49999999)"
         clip-rule="evenodd"
         id="path14" />
    </clipPath>
    <clipPath
       clipPathUnits="userSpaceOnUse"
       id="clipPath15">
      <path
         d="M 0,0 H 1716.6666 V 699.82574 H 0 Z"
         transform="matrix(0.33436559,0,0,0.33436559,-199.125,-81)"
         clip-rule="evenodd"
         id="path15" />
    </clipPath>
    <clipPath
       clipPathUnits="userSpaceOnUse"
       id="clipPath16">
      <path
         d="M 0,0 H 1716.6666 V 699.82574 H 0 Z"
         transform="matrix(0.33436559,0,0,0.33436559,-340.53125,-101)"
         clip-rule="evenodd"
         id="path16" />
    </clipPath>
    <clipPath
       clipPathUnits="userSpaceOnUse"
       id="clipPath18">
      <path
         d="M 0,0 H 1716.6666 V 699.82574 H 0 Z"
         transform="matrix(0.33436894,0,0,0.33436894,-0.49999999,-0.49999999)"
         clip-rule="evenodd"
         id="path18" />
    </clipPath>
    <clipPath
       clipPathUnits="userSpaceOnUse"
       id="clipPath19">
      <path
         d="M 0,0 H 1716.6666 V 699.82574 H 0 Z"
         transform="matrix(0.33436559,0,0,0.33436559,-219,-141)"
         clip-rule="evenodd"
         id="path19" />
    </clipPath>
    <clipPath
       clipPathUnits="userSpaceOnUse"
       id="clipPath20">
      <path
         d="M 0,0 H 1716.6666 V 699.82574 H 0 Z"
         transform="matrix(0.33436559,0,0,0.33436559,-348.96875,-161)"
         clip-rule="evenodd"
         id="path20" />
    </clipPath>
    <clipPath
       clipPathUnits="userSpaceOnUse"
       id="clipPath22">
      <path
         d="M 0,0 H 1716.6666 V 699.82574 H 0 Z"
         transform="matrix(0.33436894,0,0,0.33436894,-0.49999999,-0.49999999)"
         clip-rule="evenodd"
         id="path22" />
    </clipPath>
    <clipPath
       clipPathUnits="userSpaceOnUse"
       id="clipPath23">
      <path
         d="M 0,0 H 1716.6666 V 699.82574 H 0 Z"
         transform="matrix(0.33436559,0,0,0.33436559,-206.39063,-201)"
         clip-rule="evenodd"
         id="path23" />
    </clipPath>
    <clipPath
       clipPathUnits="userSpaceOnUse"
       id="clipPath24">
      <path
         d="M 0,0 H 1716.6666 V 699.82574 H 0 Z"
         transform="matrix(0.33436559,0,0,0.33436559,-361.875,-221)"
         clip-rule="evenodd"
         id="path24" />
    </clipPath>
  </defs>
  <sodipodi:namedview
     id="namedview1"
     pagecolor="#ffffff"
     bordercolor="#000000"
     borderopacity="0.25"
     inkscape:showpageshadow="2"
     inkscape:pageopacity="0.0"
     inkscape:pagecheckerboard="0"
     inkscape:deskcolor="#d1d1d1">
    <inkscape:page
       x="0"
       y="0"
       inkscape:label="1"
       id="page1"
       width="549.44"
       height="225.27998"
       margin="0"
       bleed="0" />
  </sodipodi:namedview>
  <g
     id="g1"
     inkscape:groupmode="layer"
     inkscape:label="1">
    <path
       id="path1"
       d="M 0,0 H 574 V 235 H 0 Z"
       style="fill:#ffffff;fill-opacity:1;fill-rule:nonzero;stroke:none"
       transform="scale(0.95702665)"
       clip-path="url(#clipPath2)" />
    <path
       id="path3"
       d="m 1,91 h 140 v 50 H 1 Z"
       style="fill:#dae8fc;fill-opacity:1;fill-rule:nonzero;stroke:#6c8ebf;stroke-width:1;stroke-linecap:butt;stroke-linejoin:miter;stroke-miterlimit:10;stroke-dasharray:none;stroke-opacity:1"
       transform="matrix(0.95702665,0,0,0.95702665,0.47851332,0.47851332)"
       clip-path="url(#clipPath4)" />
    <text
       id="text4"
       xml:space="preserve"
       transform="matrix(0.95703625,0,0,0.95703625,20.606187,106.23102)"
       clip-path="url(#clipPath5)"><tspan
         style="font-variant:normal;font-weight:normal;font-size:20px;font-family:Helvetica;writing-mode:lr-tb;fill:#000000;fill-opacity:1;fill-rule:nonzero;stroke:none"
         x="0 18.876953 30 40 45.556641 56.679688 67.802734 73.359375 87.802734"
         y="0"
         sodipodi:role="line"
         id="tspan4">Why do we</tspan></text>
    <text
       id="text5"
       xml:space="preserve"
       transform="matrix(0.95703625,0,0,0.95703625,44.008714,129.19989)"
       clip-path="url(#clipPath6)"><tspan
         style="font-variant:normal;font-weight:normal;font-size:20px;font-family:Helvetica;writing-mode:lr-tb;fill:#000000;fill-opacity:1;fill-rule:nonzero;stroke:none"
         x="0 10 21.123047 27.783203 38.90625"
         y="0"
         sodipodi:role="line"
         id="tspan5">care?</tspan></text>
    <path
       id="path7"
       d="m 181,1 h -10 c -6.66667,0 -10,3.333333 -10,10 v 95 c 0,6.66666 -3.33333,10 -10,10 h -5 c -3.33333,0 -1.66667,0 5,0 h 5 c 3.33333,0 5,3.33334 5,10 v 95 c 0,6.66667 3.33333,10 10,10 h 10"
       style="fill:none;stroke:#000000;stroke-width:1;stroke-linecap:butt;stroke-linejoin:miter;stroke-miterlimit:10;stroke-dasharray:none;stroke-opacity:1"
       transform="matrix(0.95702665,0,0,0.95702665,0.47851332,0.47851332)"
       clip-path="url(#clipPath8)" />
    <path
       id="path9"
       d="M 191,1 H 571 V 51 H 191 Z"
       style="fill:#ffffff;fill-opacity:1;fill-rule:nonzero;stroke:#000000;stroke-width:1;stroke-linecap:butt;stroke-linejoin:miter;stroke-miterlimit:10;stroke-dasharray:none;stroke-opacity:1"
       transform="matrix(0.95702665,0,0,0.95702665,0.47851332,0.47851332)"
       clip-path="url(#clipPath10)" />
    <text
       id="text10"
       xml:space="preserve"
       transform="matrix(0.95703625,0,0,0.95703625,199.4972,20.097761)"
       clip-path="url(#clipPath11)"><tspan
         style="font-variant:normal;font-weight:normal;font-size:16px;font-family:Helvetica;writing-mode:lr-tb;fill:#000000;fill-opacity:1;fill-rule:nonzero;stroke:none"
         x="0 9.7734375 20.445312 24.890625 32.890625 41.789062 50.6875 55.132812 64.03125 72.929688 77.375 81.820312 89.820312 98.71875 107.61719 112.0625 115.61719 124.51562 128.96094 137.85938 143.1875 152.08594 160.98438 168.98438 177.88281 182.32812 193.88281 202.78125 211.67969 220.57812 225.02344 233.92188 241.92188 246.36719 251.69531 260.59375 268.59375 273.03906 276.59375 285.49219 294.39062 298.83594 306.83594 315.73438 319.28906 328.1875 337.08594"
         y="0"
         sodipodi:role="line"
         id="tspan10">TS can do type inference when extracting values</tspan></text>
    <text
       id="text11"
       xml:space="preserve"
       transform="matrix(0.95703625,0,0,0.95703625,319.09683,39.238486)"
       clip-path="url(#clipPath12)"><tspan
         style="font-variant:normal;font-weight:normal;font-size:16px;font-family:Helvetica;writing-mode:lr-tb;fill:#000000;fill-opacity:1;fill-rule:nonzero;stroke:none"
         x="0 4.4453125 9.7734375 18.671875 32 36.445312 45.34375 54.242188 58.6875 67.585938 72.914062 78.242188 87.140625"
         y="0"
         sodipodi:role="line"
         id="tspan11">from an array</tspan></text>
    <path
       id="path13"
       d="m 191,61 h 380 v 50 H 191 Z"
       style="fill:#ffffff;fill-opacity:1;fill-rule:nonzero;stroke:#000000;stroke-width:1;stroke-linecap:butt;stroke-linejoin:miter;stroke-miterlimit:10;stroke-dasharray:none;stroke-opacity:1"
       transform="matrix(0.95702665,0,0,0.95702665,0.47851332,0.47851332)"
       clip-path="url(#clipPath14)" />
    <text
       id="text14"
       xml:space="preserve"
       transform="matrix(0.95703625,0,0,0.95703625,190.56984,77.519936)"
       clip-path="url(#clipPath15)"><tspan
         style="font-variant:normal;font-weight:normal;font-size:16px;font-family:Helvetica;writing-mode:lr-tb;fill:#000000;fill-opacity:1;fill-rule:nonzero;stroke:none"
         x="0 9.7734375 20.445312 24.890625 32.890625 41.789062 50.6875 55.132812 64.03125 69.359375 78.257812 86.257812 95.15625 104.05469 108.5 112.94531 121.84375 129.84375 134.28906 138.73438 144.0625 152.96094 166.28906 170.73438 179.63281 188.53125 197.42969 200.98438 209.88281 218.78125 223.22656 226.78125 235.67969 243.67969 252.57812 265.90625 274.80469 283.70312 288.14844 291.70312 300.60156 304.15625 313.05469 317.5 325.5 334.39844 337.95312 346.85156 355.75"
         y="0"
         sodipodi:role="line"
         id="tspan14">TS can prevent us from adding incompatible values</tspan></text>
    <text
       id="text15"
       xml:space="preserve"
       transform="matrix(0.95703625,0,0,0.95703625,325.90075,96.660661)"
       clip-path="url(#clipPath16)"><tspan
         style="font-variant:normal;font-weight:normal;font-size:16px;font-family:Helvetica;writing-mode:lr-tb;fill:#000000;fill-opacity:1;fill-rule:nonzero;stroke:none"
         x="0 4.4453125 13.34375 17.789062 22.234375 31.132812 40.03125 44.476562 53.375 58.703125 64.03125 72.929688"
         y="0"
         sodipodi:role="line"
         id="tspan15">to the array</tspan></text>
    <path
       id="path17"
       d="m 191,121 h 380 v 50 H 191 Z"
       style="fill:#ffffff;fill-opacity:1;fill-rule:nonzero;stroke:#000000;stroke-width:1;stroke-linecap:butt;stroke-linejoin:miter;stroke-miterlimit:10;stroke-dasharray:none;stroke-opacity:1"
       transform="matrix(0.95702665,0,0,0.95702665,0.47851332,0.47851332)"
       clip-path="url(#clipPath18)" />
    <text
       id="text18"
       xml:space="preserve"
       transform="matrix(0.95703625,0,0,0.95703625,209.59094,134.94211)"
       clip-path="url(#clipPath19)"><tspan
         style="font-variant:normal;font-weight:normal;font-size:16px;font-family:Helvetica;writing-mode:lr-tb;fill:#000000;fill-opacity:1;fill-rule:nonzero;stroke:none"
         x="0 14.820312 23.71875 28.164062 36.164062 45.0625 53.960938 58.40625 67.304688 76.203125 80.648438 85.09375 93.992188 102.89062 106.44531 115.34375 119.78906 131.34375 134.89844 139.34375 148.24219 152.6875 155.74219 169.07031 177.96875 186.86719 189.92188 194.36719 198.8125 201.86719 206.3125 215.21094 220.53906 231.21094 240.10938 248.10938 257.00781 260.0625 264.50781 268.95312 272.00781 277.33594 286.23438 295.13281 304.03125 312.03125 320.92969"
         y="0"
         sodipodi:role="line"
         id="tspan18">We can get help with 'map', 'forEach', 'reduce'</tspan></text>
    <text
       id="text19"
       xml:space="preserve"
       transform="matrix(0.95703625,0,0,0.95703625,333.97574,154.08284)"
       clip-path="url(#clipPath20)"><tspan
         style="font-variant:normal;font-weight:normal;font-size:16px;font-family:Helvetica;writing-mode:lr-tb;fill:#000000;fill-opacity:1;fill-rule:nonzero;stroke:none"
         x="0 4.4453125 13.34375 22.242188 30.242188 34.6875 38.242188 47.140625 56.039062"
         y="0"
         sodipodi:role="line"
         id="tspan19">functions</tspan></text>
    <path
       id="path21"
       d="m 191,181 h 380 v 50 H 191 Z"
       style="fill:#ffffff;fill-opacity:1;fill-rule:nonzero;stroke:#000000;stroke-width:1;stroke-linecap:butt;stroke-linejoin:miter;stroke-miterlimit:10;stroke-dasharray:none;stroke-opacity:1"
       transform="matrix(0.95702665,0,0,0.95702665,0.47851332,0.47851332)"
       clip-path="url(#clipPath22)" />
    <text
       id="text22"
       xml:space="preserve"
       transform="matrix(0.95703625,0,0,0.95703625,197.52331,192.36429)"
       clip-path="url(#clipPath23)"><tspan
         style="font-variant:normal;font-weight:normal;font-size:16px;font-family:Helvetica;writing-mode:lr-tb;fill:#000000;fill-opacity:1;fill-rule:nonzero;stroke:none"
         x="0 9.7734375 13.328125 22.226562 30.226562 33.78125 42.679688 46.234375 55.132812 59.578125 64.90625 69.351562 78.25 83.578125 88.90625 97.804688 105.80469 113.80469 118.25 126.25 135.14844 144.04688 148.49219 156.49219 160.9375 164.49219 168.04688 171.60156 176.04688 184.04688 192.94531 201.84375 206.28906 215.1875 218.74219 227.64062 232.08594 245.41406 254.3125 257.86719 262.3125 265.86719 274.76562 278.32031 287.21875 291.66406 300.5625 304.11719 308.28125 312.72656 321.625 326.95312 335.85156 344.75"
         y="0"
         sodipodi:role="line"
         id="tspan22">Flexible - arrays can still contain multiple different</tspan></text>
    <text
       id="text23"
       xml:space="preserve"
       transform="matrix(0.95703625,0,0,0.95703625,346.32749,211.50501)"
       clip-path="url(#clipPath24)"><tspan
         style="font-variant:normal;font-weight:normal;font-size:16px;font-family:Helvetica;writing-mode:lr-tb;fill:#000000;fill-opacity:1;fill-rule:nonzero;stroke:none"
         x="0 4.4453125 12.445312 21.34375 30.242188"
         y="0"
         sodipodi:role="line"
         id="tspan23">types</tspan></text>
  </g>
</svg>
