<?xml version="1.0" encoding="UTF-8" standalone="no"?>
<!-- Created with Inkscape (http://www.inkscape.org/) -->

<svg
   version="1.1"
   id="svg1"
   width="626.56"
   height="101.44"
   viewBox="0 0 626.56 101.44"
   sodipodi:docname="ts-4.pdf"
   xmlns:inkscape="http://www.inkscape.org/namespaces/inkscape"
   xmlns:sodipodi="http://sodipodi.sourceforge.net/DTD/sodipodi-0.dtd"
   xmlns="http://www.w3.org/2000/svg"
   xmlns:svg="http://www.w3.org/2000/svg">
  <defs
     id="defs1">
    <clipPath
       clipPathUnits="userSpaceOnUse"
       id="clipPath2">
      <path
         d="M 0,0 H 1958.3333 V 314.41132 H 0 Z"
         transform="scale(0.33395747)"
         clip-rule="evenodd"
         id="path2" />
    </clipPath>
    <clipPath
       clipPathUnits="userSpaceOnUse"
       id="clipPath4">
      <path
         d="M 0,0 H 1958.3333 V 311.4169 H 0 Z"
         transform="matrix(0.33395747,0,0,0.33395747,-0.5,-0.5)"
         clip-rule="evenodd"
         id="path4" />
    </clipPath>
    <clipPath
       clipPathUnits="userSpaceOnUse"
       id="clipPath6">
      <path
         d="M 0,0 H 1958.3333 V 311.4169 H 0 Z"
         transform="matrix(0.33395747,0,0,0.33395747,-0.5,-0.5)"
         clip-rule="evenodd"
         id="path6" />
    </clipPath>
    <clipPath
       clipPathUnits="userSpaceOnUse"
       id="clipPath8">
      <path
         d="M 0,0 H 1958.3333 V 311.4169 H 0 Z"
         transform="matrix(0.33395747,0,0,0.33395747,-0.5,-0.5)"
         clip-rule="evenodd"
         id="path8" />
    </clipPath>
    <clipPath
       clipPathUnits="userSpaceOnUse"
       id="clipPath9">
      <path
         d="M 0,0 H 1958.3333 V 311.4169 H 0 Z"
         transform="matrix(0.33395411,0,0,0.33395411,-9.28125,-46)"
         clip-rule="evenodd"
         id="path9" />
    </clipPath>
    <clipPath
       clipPathUnits="userSpaceOnUse"
       id="clipPath10">
      <path
         d="M 0,0 H 1958.3333 V 311.4169 H 0 Z"
         transform="matrix(0.33395411,0,0,0.33395411,-62.640625,-69.999999)"
         clip-rule="evenodd"
         id="path10" />
    </clipPath>
    <clipPath
       clipPathUnits="userSpaceOnUse"
       id="clipPath12">
      <path
         d="M 0,0 H 1958.3333 V 311.4169 H 0 Z"
         transform="matrix(0.33395747,0,0,0.33395747,-0.5,-0.5)"
         clip-rule="evenodd"
         id="path12" />
    </clipPath>
    <clipPath
       clipPathUnits="userSpaceOnUse"
       id="clipPath13">
      <path
         d="M 0,0 H 1958.3333 V 311.4169 H 0 Z"
         transform="matrix(0.33395411,0,0,0.33395411,-246.4375,-46)"
         clip-rule="evenodd"
         id="path13" />
    </clipPath>
    <clipPath
       clipPathUnits="userSpaceOnUse"
       id="clipPath14">
      <path
         d="M 0,0 H 1958.3333 V 311.4169 H 0 Z"
         transform="matrix(0.33395411,0,0,0.33395411,-279.82813,-69.999999)"
         clip-rule="evenodd"
         id="path14" />
    </clipPath>
  </defs>
  <sodipodi:namedview
     id="namedview1"
     pagecolor="#ffffff"
     bordercolor="#000000"
     borderopacity="0.25"
     inkscape:showpageshadow="2"
     inkscape:pageopacity="0.0"
     inkscape:pagecheckerboard="0"
     inkscape:deskcolor="#d1d1d1">
    <inkscape:page
       x="0"
       y="0"
       inkscape:label="1"
       id="page1"
       width="626.56"
       height="101.44"
       margin="0"
       bleed="0" />
  </sodipodi:namedview>
  <g
     id="g1"
     inkscape:groupmode="layer"
     inkscape:label="1">
    <path
       id="path1"
       d="M 0,0 H 654 V 105 H 0 Z"
       style="fill:#ffffff;fill-opacity:1;fill-rule:nonzero;stroke:none"
       transform="scale(0.95820582)"
       clip-path="url(#clipPath2)" />
    <path
       id="path3"
       d="m 191,51 h 43.63"
       style="fill:none;stroke:#000000;stroke-width:1;stroke-linecap:butt;stroke-linejoin:miter;stroke-miterlimit:10;stroke-dasharray:none;stroke-opacity:1"
       transform="matrix(0.95820582,0,0,0.95820582,0.47910291,0.47910291)"
       clip-path="url(#clipPath4)" />
    <path
       id="path5"
       d="m 239.88,51 -7,3.5 1.75,-3.5 -1.75,-3.5 z"
       style="fill:#000000;fill-opacity:1;fill-rule:nonzero;stroke:#000000;stroke-width:1;stroke-linecap:butt;stroke-linejoin:miter;stroke-miterlimit:10;stroke-dasharray:none;stroke-opacity:1"
       transform="matrix(0.95820582,0,0,0.95820582,0.47910291,0.47910291)"
       clip-path="url(#clipPath6)" />
    <path
       id="path7"
       d="M 1,11 H 191 V 91 H 1 Z"
       style="fill:#ffffff;fill-opacity:1;fill-rule:nonzero;stroke:#000000;stroke-width:1;stroke-linecap:butt;stroke-linejoin:miter;stroke-miterlimit:10;stroke-dasharray:none;stroke-opacity:1"
       transform="matrix(0.95820582,0,0,0.95820582,0.47910291,0.47910291)"
       clip-path="url(#clipPath8)" />
    <text
       id="text8"
       xml:space="preserve"
       transform="matrix(0.95821545,0,0,0.95821545,8.8934371,44.077911)"
       clip-path="url(#clipPath9)"><tspan
         style="font-variant:normal;font-weight:normal;font-size:20px;font-family:Helvetica;writing-mode:lr-tb;fill:#000000;fill-opacity:1;fill-rule:nonzero;stroke:none"
         x="0 18.876953 30 41.123047 47.783203 58.90625 64.462891 70.019531 81.142578 86.699219 97.822266 107.82227 118.94531 124.50195 130.05859 140.05859 151.18164 162.30469"
         y="0"
         sodipodi:role="line"
         id="tspan8">Where to use typed</tspan></text>
    <text
       id="text9"
       xml:space="preserve"
       transform="matrix(0.95821545,0,0,0.95821545,60.023215,67.075081)"
       clip-path="url(#clipPath10)"><tspan
         style="font-variant:normal;font-weight:normal;font-size:20px;font-family:Helvetica;writing-mode:lr-tb;fill:#000000;fill-opacity:1;fill-rule:nonzero;stroke:none"
         x="0 11.123047 17.783203 24.443359 35.566406 45.566406 55.566406"
         y="0"
         sodipodi:role="line"
         id="tspan9">arrays?</tspan></text>
    <path
       id="path11"
       d="M 241,1 H 651 V 101 H 241 Z"
       style="fill:#dae8fc;fill-opacity:1;fill-rule:nonzero;stroke:#6c8ebf;stroke-width:1;stroke-linecap:butt;stroke-linejoin:miter;stroke-miterlimit:10;stroke-dasharray:none;stroke-opacity:1"
       transform="matrix(0.95820582,0,0,0.95820582,0.47910291,0.47910291)"
       clip-path="url(#clipPath12)" />
    <text
       id="text12"
       xml:space="preserve"
       transform="matrix(0.95821545,0,0,0.95821545,236.14022,44.077911)"
       clip-path="url(#clipPath13)"><tspan
         style="font-style:oblique;font-variant:normal;font-weight:normal;font-size:20px;font-family:Helvetica;writing-mode:lr-tb;fill:#000000;fill-opacity:1;fill-rule:nonzero;stroke:none"
         x="0 13.339844 24.462891 34.462891 40.019531 45.576172 50.019531 66.679688 77.802734 83.359375 97.802734 108.92578 114.48242 125.60547 136.72852 147.85156 158.97461 164.53125 170.08789 181.21094 186.76758 193.42773 204.55078 215.67383 222.33398 233.45703 243.45703 254.58008 265.70312 271.25977 276.81641 287.93945 293.49609 303.49609 314.61914 319.0625 323.50586 334.62891 344.62891 350.18555 354.62891 365.75195 376.875 382.43164 393.55469"
         y="0"
         sodipodi:role="line"
         id="tspan12">Any time we need to represent a collection of</tspan></text>
    <text
       id="text13"
       xml:space="preserve"
       transform="matrix(0.95821545,0,0,0.95821545,268.13564,67.075081)"
       clip-path="url(#clipPath14)"><tspan
         style="font-style:oblique;font-variant:normal;font-weight:normal;font-size:20px;font-family:Helvetica;writing-mode:lr-tb;fill:#000000;fill-opacity:1;fill-rule:nonzero;stroke:none"
         x="0 6.6601562 17.783203 27.783203 38.90625 45.566406 56.689453 66.689453 72.246094 86.689453 91.132812 96.689453 107.8125 113.36914 123.36914 134.49219 151.15234 162.27539 167.83203 178.95508 185.61523 196.73828 201.18164 206.73828 213.39844 224.52148 231.18164 241.18164 246.73828 256.73828 267.86133 274.52148 280.07812 285.63477 296.75781 303.41797 314.54102 325.66406"
         y="0"
         sodipodi:role="line"
         id="tspan13">records with some arbitrary sort order</tspan></text>
  </g>
</svg>
