<?xml version="1.0" encoding="UTF-8" standalone="no"?>
<!-- Created with Inkscape (http://www.inkscape.org/) -->

<svg
   version="1.1"
   id="svg1"
   width="261.44"
   height="147.84"
   viewBox="0 0 261.44 147.84"
   sodipodi:docname="ts-7.pdf"
   xmlns:inkscape="http://www.inkscape.org/namespaces/inkscape"
   xmlns:sodipodi="http://sodipodi.sourceforge.net/DTD/sodipodi-0.dtd"
   xmlns="http://www.w3.org/2000/svg"
   xmlns:svg="http://www.w3.org/2000/svg">
  <defs
     id="defs1">
    <clipPath
       clipPathUnits="userSpaceOnUse"
       id="clipPath2">
      <path
         d="M 0,0 H 816.66663 V 461.98294 H 0 Z"
         transform="scale(0.33551024)"
         clip-rule="evenodd"
         id="path2" />
    </clipPath>
    <clipPath
       clipPathUnits="userSpaceOnUse"
       id="clipPath4">
      <path
         d="M 0,0 H 816.66663 V 453.04132 H 0 Z"
         transform="matrix(0.33551024,0,0,0.33551024,-0.50000001,-0.50000001)"
         clip-rule="evenodd"
         id="path4" />
    </clipPath>
    <clipPath
       clipPathUnits="userSpaceOnUse"
       id="clipPath6">
      <path
         d="M 0,0 H 816.66663 V 453.04132 H 0 Z"
         transform="matrix(-0.33551024,0,0,-0.33551024,512.49999,190.5)"
         clip-rule="evenodd"
         id="path6" />
    </clipPath>
    <clipPath
       clipPathUnits="userSpaceOnUse"
       id="clipPath8">
      <path
         d="M 0,0 H 816.66663 V 453.04132 H 0 Z"
         transform="matrix(0.33551024,0,0,0.33551024,-0.50000001,-0.50000001)"
         clip-rule="evenodd"
         id="path8" />
    </clipPath>
    <clipPath
       clipPathUnits="userSpaceOnUse"
       id="clipPath10">
      <path
         d="M 0,0 H 816.66663 V 453.04132 H 0 Z"
         transform="matrix(0.33551024,0,0,0.33551024,-0.50000001,-0.50000001)"
         clip-rule="evenodd"
         id="path10" />
    </clipPath>
    <clipPath
       clipPathUnits="userSpaceOnUse"
       id="clipPath12">
      <path
         d="M 0,0 H 816.66663 V 453.04132 H 0 Z"
         transform="matrix(0.33551024,0,0,0.33551024,-0.50000001,-0.50000001)"
         clip-rule="evenodd"
         id="path12" />
    </clipPath>
    <clipPath
       clipPathUnits="userSpaceOnUse"
       id="clipPath13">
      <path
         d="M 0,0 H 816.66663 V 453.04132 H 0 Z"
         transform="matrix(0.33550688,0,0,0.33550688,-68.65625,-60)"
         clip-rule="evenodd"
         id="path13" />
    </clipPath>
    <clipPath
       clipPathUnits="userSpaceOnUse"
       id="clipPath15">
      <path
         d="M 0,0 H 816.66663 V 453.04132 H 0 Z"
         transform="matrix(0.33551024,0,0,0.33551024,-0.50000001,-0.50000001)"
         clip-rule="evenodd"
         id="path15" />
    </clipPath>
    <clipPath
       clipPathUnits="userSpaceOnUse"
       id="clipPath16">
      <path
         d="M 0,0 H 816.66663 V 453.04132 H 0 Z"
         transform="matrix(0.33550688,0,0,0.33550688,-174.20313,-60)"
         clip-rule="evenodd"
         id="path16" />
    </clipPath>
    <clipPath
       clipPathUnits="userSpaceOnUse"
       id="clipPath18">
      <path
         d="M 0,0 H 816.66663 V 453.04132 H 0 Z"
         transform="matrix(0.33551024,0,0,0.33551024,-0.50000001,-0.50000001)"
         clip-rule="evenodd"
         id="path18" />
    </clipPath>
    <clipPath
       clipPathUnits="userSpaceOnUse"
       id="clipPath20">
      <path
         d="M 0,0 H 816.66663 V 453.04132 H 0 Z"
         transform="matrix(0.33551024,0,0,0.33551024,-0.50000001,-0.50000001)"
         clip-rule="evenodd"
         id="path20" />
    </clipPath>
    <clipPath
       clipPathUnits="userSpaceOnUse"
       id="clipPath22">
      <path
         d="M 0,0 H 816.66663 V 453.04132 H 0 Z"
         transform="matrix(0.33551024,0,0,0.33551024,-0.50000001,-0.50000001)"
         clip-rule="evenodd"
         id="path22" />
    </clipPath>
    <clipPath
       clipPathUnits="userSpaceOnUse"
       id="clipPath23">
      <path
         d="M 0,0 H 816.66663 V 453.04132 H 0 Z"
         transform="matrix(0.33550688,0,0,0.33550688,-45.968749,-100)"
         clip-rule="evenodd"
         id="path23" />
    </clipPath>
    <clipPath
       clipPathUnits="userSpaceOnUse"
       id="clipPath25">
      <path
         d="M 0,0 H 816.66663 V 453.04132 H 0 Z"
         transform="matrix(0.33551024,0,0,0.33551024,-0.50000001,-0.50000001)"
         clip-rule="evenodd"
         id="path25" />
    </clipPath>
    <clipPath
       clipPathUnits="userSpaceOnUse"
       id="clipPath26">
      <path
         d="M 0,0 H 816.66663 V 453.04132 H 0 Z"
         transform="matrix(0.33550688,0,0,0.33550688,-182.20313,-100)"
         clip-rule="evenodd"
         id="path26" />
    </clipPath>
    <clipPath
       clipPathUnits="userSpaceOnUse"
       id="clipPath28">
      <path
         d="M 0,0 H 816.66663 V 453.04132 H 0 Z"
         transform="matrix(0.33551024,0,0,0.33551024,-0.50000001,-0.50000001)"
         clip-rule="evenodd"
         id="path28" />
    </clipPath>
    <clipPath
       clipPathUnits="userSpaceOnUse"
       id="clipPath30">
      <path
         d="M 0,0 H 816.66663 V 453.04132 H 0 Z"
         transform="matrix(0.33551024,0,0,0.33551024,-0.50000001,-0.50000001)"
         clip-rule="evenodd"
         id="path30" />
    </clipPath>
    <clipPath
       clipPathUnits="userSpaceOnUse"
       id="clipPath32">
      <path
         d="M 0,0 H 816.66663 V 453.04132 H 0 Z"
         transform="matrix(0.33551024,0,0,0.33551024,-0.50000001,-0.50000001)"
         clip-rule="evenodd"
         id="path32" />
    </clipPath>
    <clipPath
       clipPathUnits="userSpaceOnUse"
       id="clipPath33">
      <path
         d="M 0,0 H 816.66663 V 453.04132 H 0 Z"
         transform="matrix(0.33550688,0,0,0.33550688,-65.984375,-140)"
         clip-rule="evenodd"
         id="path33" />
    </clipPath>
    <clipPath
       clipPathUnits="userSpaceOnUse"
       id="clipPath35">
      <path
         d="M 0,0 H 816.66663 V 453.04132 H 0 Z"
         transform="matrix(0.33551024,0,0,0.33551024,-0.50000001,-0.50000001)"
         clip-rule="evenodd"
         id="path35" />
    </clipPath>
    <clipPath
       clipPathUnits="userSpaceOnUse"
       id="clipPath36">
      <path
         d="M 0,0 H 816.66663 V 453.04132 H 0 Z"
         transform="matrix(0.33550688,0,0,0.33550688,-187.09375,-140)"
         clip-rule="evenodd"
         id="path36" />
    </clipPath>
    <clipPath
       clipPathUnits="userSpaceOnUse"
       id="clipPath37">
      <path
         d="M 0,0 H 816.66663 V 453.04132 H 0 Z"
         transform="matrix(0.33550688,0,0,0.33550688,-41.890624,-14.999999)"
         clip-rule="evenodd"
         id="path37" />
    </clipPath>
  </defs>
  <sodipodi:namedview
     id="namedview1"
     pagecolor="#ffffff"
     bordercolor="#000000"
     borderopacity="0.25"
     inkscape:showpageshadow="2"
     inkscape:pageopacity="0.0"
     inkscape:pagecheckerboard="0"
     inkscape:deskcolor="#d1d1d1">
    <inkscape:page
       x="0"
       y="0"
       inkscape:label="1"
       id="page1"
       width="261.44"
       height="147.84"
       margin="0"
       bleed="0" />
  </sodipodi:namedview>
  <g
     id="g1"
     inkscape:groupmode="layer"
     inkscape:label="1">
    <path
       id="path1"
       d="M 0,0 H 274 V 155 H 0 Z"
       style="fill:#ffffff;fill-opacity:1;fill-rule:nonzero;stroke:none"
       transform="scale(0.95377116)"
       clip-path="url(#clipPath2)" />
    <path
       id="path3"
       d="m 31,40 h -7.5 c -5,0 -7.5,3.333332 -7.5,10 v 35 c 0,6.666664 -2.5,10 -7.5,10 H 4.75 c -2.5,0 -1.25,0 3.75,0 h 3.75 c 2.5,0 3.75,3.333336 3.75,10 v 35 c 0,6.66667 2.5,10 7.5,10 H 31"
       style="fill:none;stroke:#000000;stroke-width:1;stroke-linecap:butt;stroke-linejoin:miter;stroke-miterlimit:10;stroke-dasharray:none;stroke-opacity:1"
       transform="matrix(0.95377116,0,0,0.95377116,0.47688559,0.47688559)"
       clip-path="url(#clipPath4)" />
    <path
       id="path5"
       d="m 271,40 h -7.5 c -5,0 -7.5,3.333332 -7.5,10 v 35 c 0,6.666664 -2.5,10 -7.5,10 h -3.75 c -2.5,0 -1.25,0 3.75,0 h 3.75 c 2.5,0 3.75,3.333336 3.75,10 v 35 c 0,6.66667 2.5,10 7.5,10 h 7.5"
       style="fill:none;stroke:#000000;stroke-width:1;stroke-linecap:butt;stroke-linejoin:miter;stroke-miterlimit:10;stroke-dasharray:none;stroke-opacity:1"
       transform="matrix(-0.95377116,0,0,-0.95377116,488.80771,181.69341)"
       clip-path="url(#clipPath6)" />
    <path
       id="path7"
       d="m 131,55 h 20 -10 13.63"
       style="fill:none;stroke:#000000;stroke-width:1;stroke-linecap:butt;stroke-linejoin:miter;stroke-miterlimit:10;stroke-dasharray:none;stroke-opacity:1"
       transform="matrix(0.95377116,0,0,0.95377116,0.47688559,0.47688559)"
       clip-path="url(#clipPath8)" />
    <path
       id="path9"
       d="m 159.88,55 -7,3.5 1.75,-3.5 -1.75,-3.5 z"
       style="fill:#000000;fill-opacity:1;fill-rule:nonzero;stroke:#000000;stroke-width:1;stroke-linecap:butt;stroke-linejoin:miter;stroke-miterlimit:10;stroke-dasharray:none;stroke-opacity:1"
       transform="matrix(0.95377116,0,0,0.95377116,0.47688559,0.47688559)"
       clip-path="url(#clipPath10)" />
    <path
       id="path11"
       d="m 41,40 h 90 V 70 H 41 Z"
       style="fill:#ffffff;fill-opacity:1;fill-rule:nonzero;stroke:#000000;stroke-width:1;stroke-linecap:butt;stroke-linejoin:miter;stroke-miterlimit:10;stroke-dasharray:none;stroke-opacity:1"
       transform="matrix(0.95377116,0,0,0.95377116,0.47688559,0.47688559)"
       clip-path="url(#clipPath12)" />
    <text
       id="text12"
       xml:space="preserve"
       transform="matrix(0.9537807,0,0,0.9537807,65.483006,57.226842)"
       clip-path="url(#clipPath13)"><tspan
         style="font-variant:normal;font-weight:normal;font-size:16px;font-family:Helvetica;writing-mode:lr-tb;fill:#000000;fill-opacity:1;fill-rule:nonzero;stroke:none"
         x="0 8 16.898438 20.453125 29.351562"
         y="0"
         sodipodi:role="line"
         id="tspan12">color</tspan></text>
    <path
       id="path14"
       d="m 161,40 h 70 v 30 h -70 z"
       style="fill:#ffffff;fill-opacity:1;fill-rule:nonzero;stroke:#000000;stroke-width:1;stroke-linecap:butt;stroke-linejoin:miter;stroke-miterlimit:10;stroke-dasharray:none;stroke-opacity:1"
       transform="matrix(0.95377116,0,0,0.95377116,0.47688559,0.47688559)"
       clip-path="url(#clipPath15)" />
    <text
       id="text15"
       xml:space="preserve"
       transform="matrix(0.9537807,0,0,0.9537807,166.15158,57.226842)"
       clip-path="url(#clipPath16)"><tspan
         style="font-variant:normal;font-weight:normal;font-size:16px;font-family:Helvetica;writing-mode:lr-tb;fill:#000000;fill-opacity:1;fill-rule:nonzero;stroke:none"
         x="0 8.8984375 14.226562 23.125 34.679688"
         y="0"
         sodipodi:role="line"
         id="tspan15">brown</tspan></text>
    <path
       id="path17"
       d="m 131,95 h 20 -10 13.63"
       style="fill:none;stroke:#000000;stroke-width:1;stroke-linecap:butt;stroke-linejoin:miter;stroke-miterlimit:10;stroke-dasharray:none;stroke-opacity:1"
       transform="matrix(0.95377116,0,0,0.95377116,0.47688559,0.47688559)"
       clip-path="url(#clipPath18)" />
    <path
       id="path19"
       d="m 159.88,95 -7,3.5 1.75,-3.5 -1.75,-3.5 z"
       style="fill:#000000;fill-opacity:1;fill-rule:nonzero;stroke:#000000;stroke-width:1;stroke-linecap:butt;stroke-linejoin:miter;stroke-miterlimit:10;stroke-dasharray:none;stroke-opacity:1"
       transform="matrix(0.95377116,0,0,0.95377116,0.47688559,0.47688559)"
       clip-path="url(#clipPath20)" />
    <path
       id="path21"
       d="m 41,80 h 90 v 30 H 41 Z"
       style="fill:#ffffff;fill-opacity:1;fill-rule:nonzero;stroke:#000000;stroke-width:1;stroke-linecap:butt;stroke-linejoin:miter;stroke-miterlimit:10;stroke-dasharray:none;stroke-opacity:1"
       transform="matrix(0.95377116,0,0,0.95377116,0.47688559,0.47688559)"
       clip-path="url(#clipPath22)" />
    <text
       id="text22"
       xml:space="preserve"
       transform="matrix(0.9537807,0,0,0.9537807,43.844106,95.37807)"
       clip-path="url(#clipPath23)"><tspan
         style="font-variant:normal;font-weight:normal;font-size:16px;font-family:Helvetica;writing-mode:lr-tb;fill:#000000;fill-opacity:1;fill-rule:nonzero;stroke:none"
         x="0 8 16.898438 22.226562 31.125 40.023438 48.921875 57.820312 62.265625 71.164062"
         y="0"
         sodipodi:role="line"
         id="tspan22">carbonated</tspan></text>
    <path
       id="path24"
       d="m 161,80 h 70 v 30 h -70 z"
       style="fill:#ffffff;fill-opacity:1;fill-rule:nonzero;stroke:#000000;stroke-width:1;stroke-linecap:butt;stroke-linejoin:miter;stroke-miterlimit:10;stroke-dasharray:none;stroke-opacity:1"
       transform="matrix(0.95377116,0,0,0.95377116,0.47688559,0.47688559)"
       clip-path="url(#clipPath25)" />
    <text
       id="text25"
       xml:space="preserve"
       transform="matrix(0.9537807,0,0,0.9537807,173.78183,95.37807)"
       clip-path="url(#clipPath26)"><tspan
         style="font-variant:normal;font-weight:normal;font-size:16px;font-family:Helvetica;writing-mode:lr-tb;fill:#000000;fill-opacity:1;fill-rule:nonzero;stroke:none"
         x="0 4.4453125 9.7734375 18.671875"
         y="0"
         sodipodi:role="line"
         id="tspan25">true</tspan></text>
    <path
       id="path27"
       d="m 131,135 h 20 -10 13.63"
       style="fill:none;stroke:#000000;stroke-width:1;stroke-linecap:butt;stroke-linejoin:miter;stroke-miterlimit:10;stroke-dasharray:none;stroke-opacity:1"
       transform="matrix(0.95377116,0,0,0.95377116,0.47688559,0.47688559)"
       clip-path="url(#clipPath28)" />
    <path
       id="path29"
       d="m 159.88,135 -7,3.5 1.75,-3.5 -1.75,-3.5 z"
       style="fill:#000000;fill-opacity:1;fill-rule:nonzero;stroke:#000000;stroke-width:1;stroke-linecap:butt;stroke-linejoin:miter;stroke-miterlimit:10;stroke-dasharray:none;stroke-opacity:1"
       transform="matrix(0.95377116,0,0,0.95377116,0.47688559,0.47688559)"
       clip-path="url(#clipPath30)" />
    <path
       id="path31"
       d="m 41,120 h 90 v 30 H 41 Z"
       style="fill:#ffffff;fill-opacity:1;fill-rule:nonzero;stroke:#000000;stroke-width:1;stroke-linecap:butt;stroke-linejoin:miter;stroke-miterlimit:10;stroke-dasharray:none;stroke-opacity:1"
       transform="matrix(0.95377116,0,0,0.95377116,0.47688559,0.47688559)"
       clip-path="url(#clipPath32)" />
    <text
       id="text32"
       xml:space="preserve"
       transform="matrix(0.9537807,0,0,0.9537807,62.934623,133.5293)"
       clip-path="url(#clipPath33)"><tspan
         style="font-variant:normal;font-weight:normal;font-size:16px;font-family:Helvetica;writing-mode:lr-tb;fill:#000000;fill-opacity:1;fill-rule:nonzero;stroke:none"
         x="0 8 16.898438 25.796875 34.695312"
         y="0"
         sodipodi:role="line"
         id="tspan32">sugar</tspan></text>
    <path
       id="path34"
       d="m 161,120 h 70 v 30 h -70 z"
       style="fill:#ffffff;fill-opacity:1;fill-rule:nonzero;stroke:#000000;stroke-width:1;stroke-linecap:butt;stroke-linejoin:miter;stroke-miterlimit:10;stroke-dasharray:none;stroke-opacity:1"
       transform="matrix(0.95377116,0,0,0.95377116,0.47688559,0.47688559)"
       clip-path="url(#clipPath35)" />
    <text
       id="text35"
       xml:space="preserve"
       transform="matrix(0.9537807,0,0,0.9537807,178.44641,133.5293)"
       clip-path="url(#clipPath36)"><tspan
         style="font-variant:normal;font-weight:normal;font-size:16px;font-family:Helvetica;writing-mode:lr-tb;fill:#000000;fill-opacity:1;fill-rule:nonzero;stroke:none"
         x="0 8.8984375"
         y="0"
         sodipodi:role="line"
         id="tspan35">40</tspan></text>
    <text
       id="text36"
       xml:space="preserve"
       transform="matrix(0.9537807,0,0,0.9537807,39.954469,14.30671)"
       clip-path="url(#clipPath37)"><tspan
         style="font-style:oblique;font-variant:normal;font-weight:normal;font-size:16px;font-family:Helvetica;writing-mode:lr-tb;fill:#000000;fill-opacity:1;fill-rule:nonzero;stroke:none"
         x="0 12.445312 21.34375 24.898438 33.796875 41.796875 46.242188 50.6875 56.015625 64.914062 73.8125 79.140625 88.039062 96.039062 104.9375 113.83594 118.28125 121.83594 130.73438 139.63281 144.07812 152.97656 157.42188 160.47656 169.375 174.70312 178.25781 187.15625 195.15625"
         y="0"
         sodipodi:role="line"
         id="tspan36">Object representing a 'drink'</tspan></text>
  </g>
</svg>
