<?xml version="1.0" encoding="UTF-8" standalone="no"?>
<!-- Created with Inkscape (http://www.inkscape.org/) -->

<svg
   version="1.1"
   id="svg1"
   width="299.84"
   height="196.15999"
   viewBox="0 0 299.84 196.15999"
   sodipodi:docname="ts-8.pdf"
   xmlns:inkscape="http://www.inkscape.org/namespaces/inkscape"
   xmlns:sodipodi="http://sodipodi.sourceforge.net/DTD/sodipodi-0.dtd"
   xmlns="http://www.w3.org/2000/svg"
   xmlns:svg="http://www.w3.org/2000/svg">
  <defs
     id="defs1">
    <clipPath
       clipPathUnits="userSpaceOnUse"
       id="clipPath2">
      <path
         d="M 0,0 H 937.49994 V 612.06207 H 0 Z"
         transform="scale(0.33493334)"
         clip-rule="evenodd"
         id="path2" />
    </clipPath>
    <clipPath
       clipPathUnits="userSpaceOnUse"
       id="clipPath4">
      <path
         d="M 0,0 H 937.49994 V 603.10504 H 0 Z"
         transform="matrix(0.33493334,0,0,0.33493334,-0.5,-0.5)"
         clip-rule="evenodd"
         id="path4" />
    </clipPath>
    <clipPath
       clipPathUnits="userSpaceOnUse"
       id="clipPath6">
      <path
         d="M 0,0 H 937.49994 V 603.10504 H 0 Z"
         transform="matrix(-0.33493334,0,0,-0.33493334,552.49999,170.5)"
         clip-rule="evenodd"
         id="path6" />
    </clipPath>
    <clipPath
       clipPathUnits="userSpaceOnUse"
       id="clipPath8">
      <path
         d="M 0,0 H 937.49994 V 603.10504 H 0 Z"
         transform="matrix(0.33493334,0,0,0.33493334,-0.5,-0.5)"
         clip-rule="evenodd"
         id="path8" />
    </clipPath>
    <clipPath
       clipPathUnits="userSpaceOnUse"
       id="clipPath10">
      <path
         d="M 0,0 H 937.49994 V 603.10504 H 0 Z"
         transform="matrix(0.33493334,0,0,0.33493334,-0.5,-0.5)"
         clip-rule="evenodd"
         id="path10" />
    </clipPath>
    <clipPath
       clipPathUnits="userSpaceOnUse"
       id="clipPath12">
      <path
         d="M 0,0 H 937.49994 V 603.10504 H 0 Z"
         transform="matrix(0.33493334,0,0,0.33493334,-0.5,-0.5)"
         clip-rule="evenodd"
         id="path12" />
    </clipPath>
    <clipPath
       clipPathUnits="userSpaceOnUse"
       id="clipPath13">
      <path
         d="M 0,0 H 937.49994 V 603.10504 H 0 Z"
         transform="matrix(0.33493,0,0,0.33493,-88.65625,-50)"
         clip-rule="evenodd"
         id="path13" />
    </clipPath>
    <clipPath
       clipPathUnits="userSpaceOnUse"
       id="clipPath15">
      <path
         d="M 0,0 H 937.49994 V 603.10504 H 0 Z"
         transform="matrix(0.33493334,0,0,0.33493334,-0.5,-0.5)"
         clip-rule="evenodd"
         id="path15" />
    </clipPath>
    <clipPath
       clipPathUnits="userSpaceOnUse"
       id="clipPath16">
      <path
         d="M 0,0 H 937.49994 V 603.10504 H 0 Z"
         transform="matrix(0.33493,0,0,0.33493,-194.20313,-50)"
         clip-rule="evenodd"
         id="path16" />
    </clipPath>
    <clipPath
       clipPathUnits="userSpaceOnUse"
       id="clipPath18">
      <path
         d="M 0,0 H 937.49994 V 603.10504 H 0 Z"
         transform="matrix(0.33493334,0,0,0.33493334,-0.5,-0.5)"
         clip-rule="evenodd"
         id="path18" />
    </clipPath>
    <clipPath
       clipPathUnits="userSpaceOnUse"
       id="clipPath20">
      <path
         d="M 0,0 H 937.49994 V 603.10504 H 0 Z"
         transform="matrix(0.33493334,0,0,0.33493334,-0.5,-0.5)"
         clip-rule="evenodd"
         id="path20" />
    </clipPath>
    <clipPath
       clipPathUnits="userSpaceOnUse"
       id="clipPath22">
      <path
         d="M 0,0 H 937.49994 V 603.10504 H 0 Z"
         transform="matrix(0.33493334,0,0,0.33493334,-0.5,-0.5)"
         clip-rule="evenodd"
         id="path22" />
    </clipPath>
    <clipPath
       clipPathUnits="userSpaceOnUse"
       id="clipPath23">
      <path
         d="M 0,0 H 937.49994 V 603.10504 H 0 Z"
         transform="matrix(0.33493,0,0,0.33493,-65.96875,-90)"
         clip-rule="evenodd"
         id="path23" />
    </clipPath>
    <clipPath
       clipPathUnits="userSpaceOnUse"
       id="clipPath25">
      <path
         d="M 0,0 H 937.49994 V 603.10504 H 0 Z"
         transform="matrix(0.33493334,0,0,0.33493334,-0.5,-0.5)"
         clip-rule="evenodd"
         id="path25" />
    </clipPath>
    <clipPath
       clipPathUnits="userSpaceOnUse"
       id="clipPath26">
      <path
         d="M 0,0 H 937.49994 V 603.10504 H 0 Z"
         transform="matrix(0.33493,0,0,0.33493,-202.20313,-90)"
         clip-rule="evenodd"
         id="path26" />
    </clipPath>
    <clipPath
       clipPathUnits="userSpaceOnUse"
       id="clipPath28">
      <path
         d="M 0,0 H 937.49994 V 603.10504 H 0 Z"
         transform="matrix(0.33493334,0,0,0.33493334,-0.5,-0.5)"
         clip-rule="evenodd"
         id="path28" />
    </clipPath>
    <clipPath
       clipPathUnits="userSpaceOnUse"
       id="clipPath30">
      <path
         d="M 0,0 H 937.49994 V 603.10504 H 0 Z"
         transform="matrix(0.33493334,0,0,0.33493334,-0.5,-0.5)"
         clip-rule="evenodd"
         id="path30" />
    </clipPath>
    <clipPath
       clipPathUnits="userSpaceOnUse"
       id="clipPath32">
      <path
         d="M 0,0 H 937.49994 V 603.10504 H 0 Z"
         transform="matrix(0.33493334,0,0,0.33493334,-0.5,-0.5)"
         clip-rule="evenodd"
         id="path32" />
    </clipPath>
    <clipPath
       clipPathUnits="userSpaceOnUse"
       id="clipPath33">
      <path
         d="M 0,0 H 937.49994 V 603.10504 H 0 Z"
         transform="matrix(0.33493,0,0,0.33493,-85.984375,-130)"
         clip-rule="evenodd"
         id="path33" />
    </clipPath>
    <clipPath
       clipPathUnits="userSpaceOnUse"
       id="clipPath35">
      <path
         d="M 0,0 H 937.49994 V 603.10504 H 0 Z"
         transform="matrix(0.33493334,0,0,0.33493334,-0.5,-0.5)"
         clip-rule="evenodd"
         id="path35" />
    </clipPath>
    <clipPath
       clipPathUnits="userSpaceOnUse"
       id="clipPath36">
      <path
         d="M 0,0 H 937.49994 V 603.10504 H 0 Z"
         transform="matrix(0.33493,0,0,0.33493,-207.09375,-130)"
         clip-rule="evenodd"
         id="path36" />
    </clipPath>
    <clipPath
       clipPathUnits="userSpaceOnUse"
       id="clipPath37">
      <path
         d="M 0,0 H 937.49994 V 603.10504 H 0 Z"
         transform="matrix(0.33493,0,0,0.33493,-61.890625,-15)"
         clip-rule="evenodd"
         id="path37" />
    </clipPath>
    <clipPath
       clipPathUnits="userSpaceOnUse"
       id="clipPath39">
      <path
         d="M 0,0 H 937.49994 V 603.10504 H 0 Z"
         transform="matrix(0.33493334,0,0,0.33493334,-0.5,-0.5)"
         clip-rule="evenodd"
         id="path39" />
    </clipPath>
    <clipPath
       clipPathUnits="userSpaceOnUse"
       id="clipPath40">
      <path
         d="M 0,0 H 937.49994 V 603.10504 H 0 Z"
         transform="matrix(0.33493,0,0,0.33493,-23.765625,-190)"
         clip-rule="evenodd"
         id="path40" />
    </clipPath>
    <clipPath
       clipPathUnits="userSpaceOnUse"
       id="clipPath42">
      <path
         d="M 0,0 H 937.49994 V 603.10504 H 0 Z"
         transform="matrix(0.33493334,0,0,0.33493334,-0.5,-0.5)"
         clip-rule="evenodd"
         id="path42" />
    </clipPath>
    <clipPath
       clipPathUnits="userSpaceOnUse"
       id="clipPath43">
      <path
         d="M 0,0 H 937.49994 V 603.10504 H 0 Z"
         transform="matrix(0.33493,0,0,0.33493,-283.76563,-190)"
         clip-rule="evenodd"
         id="path43" />
    </clipPath>
    <clipPath
       clipPathUnits="userSpaceOnUse"
       id="clipPath45">
      <path
         d="M 0,0 H 937.49994 V 603.10504 H 0 Z"
         transform="matrix(0.33493334,0,0,0.33493334,-0.5,-0.5)"
         clip-rule="evenodd"
         id="path45" />
    </clipPath>
    <clipPath
       clipPathUnits="userSpaceOnUse"
       id="clipPath46">
      <path
         d="M 0,0 H 937.49994 V 603.10504 H 0 Z"
         transform="matrix(0.33493,0,0,0.33493,-64.203125,-190)"
         clip-rule="evenodd"
         id="path46" />
    </clipPath>
    <clipPath
       clipPathUnits="userSpaceOnUse"
       id="clipPath48">
      <path
         d="M 0,0 H 937.49994 V 603.10504 H 0 Z"
         transform="matrix(0.33493334,0,0,0.33493334,-0.5,-0.5)"
         clip-rule="evenodd"
         id="path48" />
    </clipPath>
    <clipPath
       clipPathUnits="userSpaceOnUse"
       id="clipPath49">
      <path
         d="M 0,0 H 937.49994 V 603.10504 H 0 Z"
         transform="matrix(0.33493,0,0,0.33493,-142.20312,-190)"
         clip-rule="evenodd"
         id="path49" />
    </clipPath>
    <clipPath
       clipPathUnits="userSpaceOnUse"
       id="clipPath51">
      <path
         d="M 0,0 H 937.49994 V 603.10504 H 0 Z"
         transform="matrix(0.33493334,0,0,0.33493334,-0.5,-0.5)"
         clip-rule="evenodd"
         id="path51" />
    </clipPath>
    <clipPath
       clipPathUnits="userSpaceOnUse"
       id="clipPath52">
      <path
         d="M 0,0 H 937.49994 V 603.10504 H 0 Z"
         transform="matrix(0.33493,0,0,0.33493,-217.09375,-190)"
         clip-rule="evenodd"
         id="path52" />
    </clipPath>
  </defs>
  <sodipodi:namedview
     id="namedview1"
     pagecolor="#ffffff"
     bordercolor="#000000"
     borderopacity="0.25"
     inkscape:showpageshadow="2"
     inkscape:pageopacity="0.0"
     inkscape:pagecheckerboard="0"
     inkscape:deskcolor="#d1d1d1">
    <inkscape:page
       x="0"
       y="0"
       inkscape:label="1"
       id="page1"
       width="299.84"
       height="196.15999"
       margin="0"
       bleed="0" />
  </sodipodi:namedview>
  <g
     id="g1"
     inkscape:groupmode="layer"
     inkscape:label="1">
    <path
       id="path1"
       d="M 0,0 H 314 V 205 H 0 Z"
       style="fill:#ffffff;fill-opacity:1;fill-rule:nonzero;stroke:none"
       transform="scale(0.95541394)"
       clip-path="url(#clipPath2)" />
    <path
       id="path3"
       d="m 51,30 h -7.5 c -5,0 -7.5,3.333332 -7.5,10 v 35 c 0,6.666664 -2.5,10 -7.5,10 h -3.75 c -2.5,0 -1.25,0 3.75,0 h 3.75 c 2.5,0 3.75,3.333336 3.75,10 v 35 c 0,6.66667 2.5,10 7.5,10 H 51"
       style="fill:none;stroke:#000000;stroke-width:1;stroke-linecap:butt;stroke-linejoin:miter;stroke-miterlimit:10;stroke-dasharray:none;stroke-opacity:1"
       transform="matrix(0.95541394,0,0,0.95541394,0.47770697,0.47770697)"
       clip-path="url(#clipPath4)" />
    <path
       id="path5"
       d="m 291,30 h -7.5 c -5,0 -7.5,3.333332 -7.5,10 v 35 c 0,6.666664 -2.5,10 -7.5,10 h -3.75 c -2.5,0 -1.25,0 3.75,0 h 3.75 c 2.5,0 3.75,3.333336 3.75,10 v 35 c 0,6.66667 2.5,10 7.5,10 h 7.5"
       style="fill:none;stroke:#000000;stroke-width:1;stroke-linecap:butt;stroke-linejoin:miter;stroke-miterlimit:10;stroke-dasharray:none;stroke-opacity:1"
       transform="matrix(-0.95541394,0,0,-0.95541394,527.86619,162.89808)"
       clip-path="url(#clipPath6)" />
    <path
       id="path7"
       d="m 151,45 h 20 -10 13.63"
       style="fill:none;stroke:#000000;stroke-width:1;stroke-linecap:butt;stroke-linejoin:miter;stroke-miterlimit:10;stroke-dasharray:none;stroke-opacity:1"
       transform="matrix(0.95541394,0,0,0.95541394,0.47770697,0.47770697)"
       clip-path="url(#clipPath8)" />
    <path
       id="path9"
       d="m 179.88,45 -7,3.5 1.75,-3.5 -1.75,-3.5 z"
       style="fill:#000000;fill-opacity:1;fill-rule:nonzero;stroke:#000000;stroke-width:1;stroke-linecap:butt;stroke-linejoin:miter;stroke-miterlimit:10;stroke-dasharray:none;stroke-opacity:1"
       transform="matrix(0.95541394,0,0,0.95541394,0.47770697,0.47770697)"
       clip-path="url(#clipPath10)" />
    <path
       id="path11"
       d="m 61,30 h 90 V 60 H 61 Z"
       style="fill:#ffffff;fill-opacity:1;fill-rule:nonzero;stroke:#000000;stroke-width:1;stroke-linecap:butt;stroke-linejoin:miter;stroke-miterlimit:10;stroke-dasharray:none;stroke-opacity:1"
       transform="matrix(0.95541394,0,0,0.95541394,0.47770697,0.47770697)"
       clip-path="url(#clipPath12)" />
    <text
       id="text12"
       xml:space="preserve"
       transform="matrix(0.95542348,0,0,0.95542348,84.704263,47.771174)"
       clip-path="url(#clipPath13)"><tspan
         style="font-variant:normal;font-weight:normal;font-size:16px;font-family:Helvetica;writing-mode:lr-tb;fill:#000000;fill-opacity:1;fill-rule:nonzero;stroke:none"
         x="0 8 16.898438 20.453125 29.351562"
         y="0"
         sodipodi:role="line"
         id="tspan12">color</tspan></text>
    <path
       id="path14"
       d="m 181,30 h 70 v 30 h -70 z"
       style="fill:#ffffff;fill-opacity:1;fill-rule:nonzero;stroke:#000000;stroke-width:1;stroke-linecap:butt;stroke-linejoin:miter;stroke-miterlimit:10;stroke-dasharray:none;stroke-opacity:1"
       transform="matrix(0.95541394,0,0,0.95541394,0.47770697,0.47770697)"
       clip-path="url(#clipPath15)" />
    <text
       id="text15"
       xml:space="preserve"
       transform="matrix(0.95542348,0,0,0.95542348,185.54623,47.771174)"
       clip-path="url(#clipPath16)"><tspan
         style="font-variant:normal;font-weight:normal;font-size:16px;font-family:Helvetica;writing-mode:lr-tb;fill:#000000;fill-opacity:1;fill-rule:nonzero;stroke:none"
         x="0 8.8984375 14.226562 23.125 34.679688"
         y="0"
         sodipodi:role="line"
         id="tspan15">brown</tspan></text>
    <path
       id="path17"
       d="m 151,85 h 20 -10 13.63"
       style="fill:none;stroke:#000000;stroke-width:1;stroke-linecap:butt;stroke-linejoin:miter;stroke-miterlimit:10;stroke-dasharray:none;stroke-opacity:1"
       transform="matrix(0.95541394,0,0,0.95541394,0.47770697,0.47770697)"
       clip-path="url(#clipPath18)" />
    <path
       id="path19"
       d="m 179.88,85 -7,3.5 1.75,-3.5 -1.75,-3.5 z"
       style="fill:#000000;fill-opacity:1;fill-rule:nonzero;stroke:#000000;stroke-width:1;stroke-linecap:butt;stroke-linejoin:miter;stroke-miterlimit:10;stroke-dasharray:none;stroke-opacity:1"
       transform="matrix(0.95541394,0,0,0.95541394,0.47770697,0.47770697)"
       clip-path="url(#clipPath20)" />
    <path
       id="path21"
       d="m 61,70 h 90 v 30 H 61 Z"
       style="fill:#ffffff;fill-opacity:1;fill-rule:nonzero;stroke:#000000;stroke-width:1;stroke-linecap:butt;stroke-linejoin:miter;stroke-miterlimit:10;stroke-dasharray:none;stroke-opacity:1"
       transform="matrix(0.95541394,0,0,0.95541394,0.47770697,0.47770697)"
       clip-path="url(#clipPath22)" />
    <text
       id="text22"
       xml:space="preserve"
       transform="matrix(0.95542348,0,0,0.95542348,63.028093,85.988113)"
       clip-path="url(#clipPath23)"><tspan
         style="font-variant:normal;font-weight:normal;font-size:16px;font-family:Helvetica;writing-mode:lr-tb;fill:#000000;fill-opacity:1;fill-rule:nonzero;stroke:none"
         x="0 8 16.898438 22.226562 31.125 40.023438 48.921875 57.820312 62.265625 71.164062"
         y="0"
         sodipodi:role="line"
         id="tspan22">carbonated</tspan></text>
    <path
       id="path24"
       d="m 181,70 h 70 v 30 h -70 z"
       style="fill:#ffffff;fill-opacity:1;fill-rule:nonzero;stroke:#000000;stroke-width:1;stroke-linecap:butt;stroke-linejoin:miter;stroke-miterlimit:10;stroke-dasharray:none;stroke-opacity:1"
       transform="matrix(0.95541394,0,0,0.95541394,0.47770697,0.47770697)"
       clip-path="url(#clipPath25)" />
    <text
       id="text25"
       xml:space="preserve"
       transform="matrix(0.95542348,0,0,0.95542348,193.18962,85.988113)"
       clip-path="url(#clipPath26)"><tspan
         style="font-variant:normal;font-weight:normal;font-size:16px;font-family:Helvetica;writing-mode:lr-tb;fill:#000000;fill-opacity:1;fill-rule:nonzero;stroke:none"
         x="0 4.4453125 9.7734375 18.671875"
         y="0"
         sodipodi:role="line"
         id="tspan25">true</tspan></text>
    <path
       id="path27"
       d="m 151,125 h 20 -10 13.63"
       style="fill:none;stroke:#000000;stroke-width:1;stroke-linecap:butt;stroke-linejoin:miter;stroke-miterlimit:10;stroke-dasharray:none;stroke-opacity:1"
       transform="matrix(0.95541394,0,0,0.95541394,0.47770697,0.47770697)"
       clip-path="url(#clipPath28)" />
    <path
       id="path29"
       d="m 179.88,125 -7,3.5 1.75,-3.5 -1.75,-3.5 z"
       style="fill:#000000;fill-opacity:1;fill-rule:nonzero;stroke:#000000;stroke-width:1;stroke-linecap:butt;stroke-linejoin:miter;stroke-miterlimit:10;stroke-dasharray:none;stroke-opacity:1"
       transform="matrix(0.95541394,0,0,0.95541394,0.47770697,0.47770697)"
       clip-path="url(#clipPath30)" />
    <path
       id="path31"
       d="m 61,110 h 90 v 30 H 61 Z"
       style="fill:#ffffff;fill-opacity:1;fill-rule:nonzero;stroke:#000000;stroke-width:1;stroke-linecap:butt;stroke-linejoin:miter;stroke-miterlimit:10;stroke-dasharray:none;stroke-opacity:1"
       transform="matrix(0.95541394,0,0,0.95541394,0.47770697,0.47770697)"
       clip-path="url(#clipPath32)" />
    <text
       id="text32"
       xml:space="preserve"
       transform="matrix(0.95542348,0,0,0.95542348,82.151491,124.20505)"
       clip-path="url(#clipPath33)"><tspan
         style="font-variant:normal;font-weight:normal;font-size:16px;font-family:Helvetica;writing-mode:lr-tb;fill:#000000;fill-opacity:1;fill-rule:nonzero;stroke:none"
         x="0 8 16.898438 25.796875 34.695312"
         y="0"
         sodipodi:role="line"
         id="tspan32">sugar</tspan></text>
    <path
       id="path34"
       d="m 181,110 h 70 v 30 h -70 z"
       style="fill:#ffffff;fill-opacity:1;fill-rule:nonzero;stroke:#000000;stroke-width:1;stroke-linecap:butt;stroke-linejoin:miter;stroke-miterlimit:10;stroke-dasharray:none;stroke-opacity:1"
       transform="matrix(0.95541394,0,0,0.95541394,0.47770697,0.47770697)"
       clip-path="url(#clipPath35)" />
    <text
       id="text35"
       xml:space="preserve"
       transform="matrix(0.95542348,0,0,0.95542348,197.86223,124.20505)"
       clip-path="url(#clipPath36)"><tspan
         style="font-variant:normal;font-weight:normal;font-size:16px;font-family:Helvetica;writing-mode:lr-tb;fill:#000000;fill-opacity:1;fill-rule:nonzero;stroke:none"
         x="0 8.8984375"
         y="0"
         sodipodi:role="line"
         id="tspan35">40</tspan></text>
    <text
       id="text36"
       xml:space="preserve"
       transform="matrix(0.95542348,0,0,0.95542348,59.131756,14.331352)"
       clip-path="url(#clipPath37)"><tspan
         style="font-style:oblique;font-variant:normal;font-weight:normal;font-size:16px;font-family:Helvetica;writing-mode:lr-tb;fill:#000000;fill-opacity:1;fill-rule:nonzero;stroke:none"
         x="0 12.445312 21.34375 24.898438 33.796875 41.796875 46.242188 50.6875 56.015625 64.914062 73.8125 79.140625 88.039062 96.039062 104.9375 113.83594 118.28125 121.83594 130.73438 139.63281 144.07812 152.97656 157.42188 160.47656 169.375 174.70312 178.25781 187.15625 195.15625"
         y="0"
         sodipodi:role="line"
         id="tspan36">Object representing a 'drink'</tspan></text>
    <path
       id="path38"
       d="m 1,170 h 50 v 30 H 1 Z"
       style="fill:#ffffff;fill-opacity:1;fill-rule:nonzero;stroke:#000000;stroke-width:1;stroke-linecap:butt;stroke-linejoin:miter;stroke-miterlimit:10;stroke-dasharray:none;stroke-opacity:1"
       transform="matrix(0.95541394,0,0,0.95541394,0.47770697,0.47770697)"
       clip-path="url(#clipPath39)" />
    <text
       id="text39"
       xml:space="preserve"
       transform="matrix(0.95542348,0,0,0.95542348,22.706236,181.53046)"
       clip-path="url(#clipPath40)"><tspan
         style="font-variant:normal;font-weight:normal;font-size:16px;font-family:Helvetica;writing-mode:lr-tb;fill:#000000;fill-opacity:1;fill-rule:nonzero;stroke:none"
         x="0"
         y="0"
         id="tspan39">[</tspan></text>
    <path
       id="path41"
       d="m 261,170 h 50 v 30 h -50 z"
       style="fill:#ffffff;fill-opacity:1;fill-rule:nonzero;stroke:#000000;stroke-width:1;stroke-linecap:butt;stroke-linejoin:miter;stroke-miterlimit:10;stroke-dasharray:none;stroke-opacity:1"
       transform="matrix(0.95541394,0,0,0.95541394,0.47770697,0.47770697)"
       clip-path="url(#clipPath42)" />
    <text
       id="text42"
       xml:space="preserve"
       transform="matrix(0.95542348,0,0,0.95542348,271.11635,181.53046)"
       clip-path="url(#clipPath43)"><tspan
         style="font-variant:normal;font-weight:normal;font-size:16px;font-family:Helvetica;writing-mode:lr-tb;fill:#000000;fill-opacity:1;fill-rule:nonzero;stroke:none"
         x="0"
         y="0"
         id="tspan42">]</tspan></text>
    <path
       id="path44"
       d="m 51,170 h 70 v 30 H 51 Z"
       style="fill:#ffffff;fill-opacity:1;fill-rule:nonzero;stroke:#000000;stroke-width:1;stroke-linecap:butt;stroke-linejoin:miter;stroke-miterlimit:10;stroke-dasharray:none;stroke-opacity:1"
       transform="matrix(0.95541394,0,0,0.95541394,0.47770697,0.47770697)"
       clip-path="url(#clipPath45)" />
    <text
       id="text45"
       xml:space="preserve"
       transform="matrix(0.95542348,0,0,0.95542348,61.341173,181.53046)"
       clip-path="url(#clipPath46)"><tspan
         style="font-variant:normal;font-weight:normal;font-size:16px;font-family:Helvetica;writing-mode:lr-tb;fill:#000000;fill-opacity:1;fill-rule:nonzero;stroke:none"
         x="0 8.8984375 14.226562 23.125 34.679688"
         y="0"
         sodipodi:role="line"
         id="tspan45">brown</tspan></text>
    <path
       id="path47"
       d="m 121,170 h 70 v 30 h -70 z"
       style="fill:#ffffff;fill-opacity:1;fill-rule:nonzero;stroke:#000000;stroke-width:1;stroke-linecap:butt;stroke-linejoin:miter;stroke-miterlimit:10;stroke-dasharray:none;stroke-opacity:1"
       transform="matrix(0.95541394,0,0,0.95541394,0.47770697,0.47770697)"
       clip-path="url(#clipPath48)" />
    <text
       id="text48"
       xml:space="preserve"
       transform="matrix(0.95542348,0,0,0.95542348,135.8642,181.53046)"
       clip-path="url(#clipPath49)"><tspan
         style="font-variant:normal;font-weight:normal;font-size:16px;font-family:Helvetica;writing-mode:lr-tb;fill:#000000;fill-opacity:1;fill-rule:nonzero;stroke:none"
         x="0 4.4453125 9.7734375 18.671875"
         y="0"
         sodipodi:role="line"
         id="tspan48">true</tspan></text>
    <path
       id="path50"
       d="m 191,170 h 70 v 30 h -70 z"
       style="fill:#ffffff;fill-opacity:1;fill-rule:nonzero;stroke:#000000;stroke-width:1;stroke-linecap:butt;stroke-linejoin:miter;stroke-miterlimit:10;stroke-dasharray:none;stroke-opacity:1"
       transform="matrix(0.95541394,0,0,0.95541394,0.47770697,0.47770697)"
       clip-path="url(#clipPath51)" />
    <text
       id="text51"
       xml:space="preserve"
       transform="matrix(0.95542348,0,0,0.95542348,207.41647,181.53046)"
       clip-path="url(#clipPath52)"><tspan
         style="font-variant:normal;font-weight:normal;font-size:16px;font-family:Helvetica;writing-mode:lr-tb;fill:#000000;fill-opacity:1;fill-rule:nonzero;stroke:none"
         x="0 8.8984375"
         y="0"
         sodipodi:role="line"
         id="tspan51">40</tspan></text>
  </g>
</svg>
