<?xml version="1.0" encoding="UTF-8" standalone="no"?>
<!-- Created with Inkscape (http://www.inkscape.org/) -->

<svg
   version="1.1"
   id="svg1"
   width="513.27997"
   height="497.28"
   viewBox="0 0 513.27997 497.28"
   sodipodi:docname="ts-16.pdf"
   xmlns:inkscape="http://www.inkscape.org/namespaces/inkscape"
   xmlns:sodipodi="http://sodipodi.sourceforge.net/DTD/sodipodi-0.dtd"
   xmlns="http://www.w3.org/2000/svg"
   xmlns:svg="http://www.w3.org/2000/svg">
  <defs
     id="defs1">
    <clipPath
       clipPathUnits="userSpaceOnUse"
       id="clipPath2">
      <path
         d="M 0,0 H 1604.1666 V 1553.2882 H 0 Z"
         transform="scale(0.33412988)"
         clip-rule="evenodd"
         id="path2" />
    </clipPath>
    <clipPath
       clipPathUnits="userSpaceOnUse"
       id="clipPath4">
      <path
         d="M 0,0 H 1604.1666 V 1550.2953 H 0 Z"
         transform="matrix(0.33412988,0,0,0.33412988,-0.5,-0.5)"
         clip-rule="evenodd"
         id="path4" />
    </clipPath>
    <clipPath
       clipPathUnits="userSpaceOnUse"
       id="clipPath5">
      <path
         d="M 0,0 H 1604.1666 V 1550.2953 H 0 Z"
         transform="matrix(0.33412653,0,0,0.33412653,-7.9375,-156)"
         clip-rule="evenodd"
         id="path5" />
    </clipPath>
    <clipPath
       clipPathUnits="userSpaceOnUse"
       id="clipPath6">
      <path
         d="M 0,0 H 1604.1666 V 1550.2953 H 0 Z"
         transform="matrix(0.33412653,0,0,0.33412653,-80.46875,-178.00001)"
         clip-rule="evenodd"
         id="path6" />
    </clipPath>
    <clipPath
       clipPathUnits="userSpaceOnUse"
       id="clipPath7">
      <path
         d="M 0,0 H 1604.1666 V 1550.2953 H 0 Z"
         transform="matrix(0.33412653,0,0,0.33412653,-9.9843751,-18)"
         clip-rule="evenodd"
         id="path7" />
    </clipPath>
    <clipPath
       clipPathUnits="userSpaceOnUse"
       id="clipPath8">
      <path
         d="M 0,0 H 1604.1666 V 1550.2953 H 0 Z"
         transform="matrix(0.33412653,0,0,0.33412653,-74.96875,-40)"
         clip-rule="evenodd"
         id="path8" />
    </clipPath>
    <clipPath
       clipPathUnits="userSpaceOnUse"
       id="clipPath10">
      <path
         d="M 0,0 H 1604.1666 V 1550.2953 H 0 Z"
         transform="matrix(0.33412988,0,0,0.33412988,-0.5,-0.5)"
         clip-rule="evenodd"
         id="path10" />
    </clipPath>
    <clipPath
       clipPathUnits="userSpaceOnUse"
       id="clipPath11">
      <path
         d="M 0,0 H 1604.1666 V 1550.2953 H 0 Z"
         transform="matrix(0.33412653,0,0,0.33412653,-308.3125,-87.000001)"
         clip-rule="evenodd"
         id="path11" />
    </clipPath>
    <clipPath
       clipPathUnits="userSpaceOnUse"
       id="clipPath13">
      <path
         d="M 0,0 H 1604.1666 V 1550.2953 H 0 Z"
         transform="matrix(0.33412988,0,0,0.33412988,-0.5,-0.5)"
         clip-rule="evenodd"
         id="path13" />
    </clipPath>
    <clipPath
       clipPathUnits="userSpaceOnUse"
       id="clipPath14">
      <path
         d="M 0,0 H 1604.1666 V 1550.2953 H 0 Z"
         transform="matrix(0.33412653,0,0,0.33412653,-461.48438,-87.000001)"
         clip-rule="evenodd"
         id="path14" />
    </clipPath>
    <clipPath
       clipPathUnits="userSpaceOnUse"
       id="clipPath16">
      <path
         d="M 0,0 H 1604.1666 V 1550.2953 H 0 Z"
         transform="matrix(0.33412988,0,0,0.33412988,-0.5,-0.5)"
         clip-rule="evenodd"
         id="path16" />
    </clipPath>
    <clipPath
       clipPathUnits="userSpaceOnUse"
       id="clipPath17">
      <path
         d="M 0,0 H 1604.1666 V 1550.2953 H 0 Z"
         transform="matrix(0.33412653,0,0,0.33412653,-4.9218751,-236)"
         clip-rule="evenodd"
         id="path17" />
    </clipPath>
    <clipPath
       clipPathUnits="userSpaceOnUse"
       id="clipPath18">
      <path
         d="M 0,0 H 1604.1666 V 1550.2953 H 0 Z"
         transform="matrix(0.33412653,0,0,0.33412653,-53.453125,-258)"
         clip-rule="evenodd"
         id="path18" />
    </clipPath>
    <clipPath
       clipPathUnits="userSpaceOnUse"
       id="clipPath20">
      <path
         d="M 0,0 H 1604.1666 V 1550.2953 H 0 Z"
         transform="matrix(0.33412988,0,0,0.33412988,-0.5,-0.5)"
         clip-rule="evenodd"
         id="path20" />
    </clipPath>
    <clipPath
       clipPathUnits="userSpaceOnUse"
       id="clipPath21">
      <path
         d="M 0,0 H 1604.1666 V 1550.2953 H 0 Z"
         transform="matrix(0.33412653,0,0,0.33412653,-308.3125,-247)"
         clip-rule="evenodd"
         id="path21" />
    </clipPath>
    <clipPath
       clipPathUnits="userSpaceOnUse"
       id="clipPath23">
      <path
         d="M 0,0 H 1604.1666 V 1550.2953 H 0 Z"
         transform="matrix(0.33412988,0,0,0.33412988,-0.5,-0.5)"
         clip-rule="evenodd"
         id="path23" />
    </clipPath>
    <clipPath
       clipPathUnits="userSpaceOnUse"
       id="clipPath24">
      <path
         d="M 0,0 H 1604.1666 V 1550.2953 H 0 Z"
         transform="matrix(0.33412653,0,0,0.33412653,-461.48438,-247)"
         clip-rule="evenodd"
         id="path24" />
    </clipPath>
    <clipPath
       clipPathUnits="userSpaceOnUse"
       id="clipPath26">
      <path
         d="M 0,0 H 1604.1666 V 1550.2953 H 0 Z"
         transform="matrix(0.33412988,0,0,0.33412988,-0.5,-0.5)"
         clip-rule="evenodd"
         id="path26" />
    </clipPath>
    <clipPath
       clipPathUnits="userSpaceOnUse"
       id="clipPath27">
      <path
         d="M 0,0 H 1604.1666 V 1550.2953 H 0 Z"
         transform="matrix(0.33412653,0,0,0.33412653,-16.953126,-76.000001)"
         clip-rule="evenodd"
         id="path27" />
    </clipPath>
    <clipPath
       clipPathUnits="userSpaceOnUse"
       id="clipPath28">
      <path
         d="M 0,0 H 1604.1666 V 1550.2953 H 0 Z"
         transform="matrix(0.33412653,0,0,0.33412653,-93.984375,-98)"
         clip-rule="evenodd"
         id="path28" />
    </clipPath>
    <clipPath
       clipPathUnits="userSpaceOnUse"
       id="clipPath30">
      <path
         d="M 0,0 H 1604.1666 V 1550.2953 H 0 Z"
         transform="matrix(0.33412988,0,0,0.33412988,-0.5,-0.5)"
         clip-rule="evenodd"
         id="path30" />
    </clipPath>
    <clipPath
       clipPathUnits="userSpaceOnUse"
       id="clipPath31">
      <path
         d="M 0,0 H 1604.1666 V 1550.2953 H 0 Z"
         transform="matrix(0.33412653,0,0,0.33412653,-308.3125,-167)"
         clip-rule="evenodd"
         id="path31" />
    </clipPath>
    <clipPath
       clipPathUnits="userSpaceOnUse"
       id="clipPath33">
      <path
         d="M 0,0 H 1604.1666 V 1550.2953 H 0 Z"
         transform="matrix(0.33412988,0,0,0.33412988,-0.5,-0.5)"
         clip-rule="evenodd"
         id="path33" />
    </clipPath>
    <clipPath
       clipPathUnits="userSpaceOnUse"
       id="clipPath34">
      <path
         d="M 0,0 H 1604.1666 V 1550.2953 H 0 Z"
         transform="matrix(0.33412653,0,0,0.33412653,-461.48438,-167)"
         clip-rule="evenodd"
         id="path34" />
    </clipPath>
    <clipPath
       clipPathUnits="userSpaceOnUse"
       id="clipPath36">
      <path
         d="M 0,0 H 1604.1666 V 1550.2953 H 0 Z"
         transform="matrix(0.33412988,0,0,0.33412988,-0.5,-0.5)"
         clip-rule="evenodd"
         id="path36" />
    </clipPath>
    <clipPath
       clipPathUnits="userSpaceOnUse"
       id="clipPath37">
      <path
         d="M 0,0 H 1604.1666 V 1550.2953 H 0 Z"
         transform="matrix(0.33412653,0,0,0.33412653,-30.4375,-316)"
         clip-rule="evenodd"
         id="path37" />
    </clipPath>
    <clipPath
       clipPathUnits="userSpaceOnUse"
       id="clipPath38">
      <path
         d="M 0,0 H 1604.1666 V 1550.2953 H 0 Z"
         transform="matrix(0.33412653,0,0,0.33412653,-59.953125,-338)"
         clip-rule="evenodd"
         id="path38" />
    </clipPath>
    <clipPath
       clipPathUnits="userSpaceOnUse"
       id="clipPath40">
      <path
         d="M 0,0 H 1604.1666 V 1550.2953 H 0 Z"
         transform="matrix(0.33412988,0,0,0.33412988,-0.5,-0.5)"
         clip-rule="evenodd"
         id="path40" />
    </clipPath>
    <clipPath
       clipPathUnits="userSpaceOnUse"
       id="clipPath41">
      <path
         d="M 0,0 H 1604.1666 V 1550.2953 H 0 Z"
         transform="matrix(0.33412653,0,0,0.33412653,-308.3125,-327)"
         clip-rule="evenodd"
         id="path41" />
    </clipPath>
    <clipPath
       clipPathUnits="userSpaceOnUse"
       id="clipPath43">
      <path
         d="M 0,0 H 1604.1666 V 1550.2953 H 0 Z"
         transform="matrix(0.33412988,0,0,0.33412988,-0.5,-0.5)"
         clip-rule="evenodd"
         id="path43" />
    </clipPath>
    <clipPath
       clipPathUnits="userSpaceOnUse"
       id="clipPath44">
      <path
         d="M 0,0 H 1604.1666 V 1550.2953 H 0 Z"
         transform="matrix(0.33412653,0,0,0.33412653,-461.48438,-327)"
         clip-rule="evenodd"
         id="path44" />
    </clipPath>
    <clipPath
       clipPathUnits="userSpaceOnUse"
       id="clipPath46">
      <path
         d="M 0,0 H 1604.1666 V 1550.2953 H 0 Z"
         transform="matrix(0.33412988,0,0,0.33412988,-0.5,-0.5)"
         clip-rule="evenodd"
         id="path46" />
    </clipPath>
    <clipPath
       clipPathUnits="userSpaceOnUse"
       id="clipPath47">
      <path
         d="M 0,0 H 1604.1666 V 1550.2953 H 0 Z"
         transform="matrix(0.33412653,0,0,0.33412653,-23.453125,-396)"
         clip-rule="evenodd"
         id="path47" />
    </clipPath>
    <clipPath
       clipPathUnits="userSpaceOnUse"
       id="clipPath48">
      <path
         d="M 0,0 H 1604.1666 V 1550.2953 H 0 Z"
         transform="matrix(0.33412653,0,0,0.33412653,-97.968751,-418)"
         clip-rule="evenodd"
         id="path48" />
    </clipPath>
    <clipPath
       clipPathUnits="userSpaceOnUse"
       id="clipPath50">
      <path
         d="M 0,0 H 1604.1666 V 1550.2953 H 0 Z"
         transform="matrix(0.33412988,0,0,0.33412988,-0.5,-0.5)"
         clip-rule="evenodd"
         id="path50" />
    </clipPath>
    <clipPath
       clipPathUnits="userSpaceOnUse"
       id="clipPath51">
      <path
         d="M 0,0 H 1604.1666 V 1550.2953 H 0 Z"
         transform="matrix(0.33412653,0,0,0.33412653,-308.3125,-407)"
         clip-rule="evenodd"
         id="path51" />
    </clipPath>
    <clipPath
       clipPathUnits="userSpaceOnUse"
       id="clipPath53">
      <path
         d="M 0,0 H 1604.1666 V 1550.2953 H 0 Z"
         transform="matrix(0.33412988,0,0,0.33412988,-0.5,-0.5)"
         clip-rule="evenodd"
         id="path53" />
    </clipPath>
    <clipPath
       clipPathUnits="userSpaceOnUse"
       id="clipPath54">
      <path
         d="M 0,0 H 1604.1666 V 1550.2953 H 0 Z"
         transform="matrix(0.33412653,0,0,0.33412653,-461.48438,-407)"
         clip-rule="evenodd"
         id="path54" />
    </clipPath>
    <clipPath
       clipPathUnits="userSpaceOnUse"
       id="clipPath56">
      <path
         d="M 0,0 H 1604.1666 V 1550.2953 H 0 Z"
         transform="matrix(0.33412988,0,0,0.33412988,-0.5,-0.5)"
         clip-rule="evenodd"
         id="path56" />
    </clipPath>
    <clipPath
       clipPathUnits="userSpaceOnUse"
       id="clipPath57">
      <path
         d="M 0,0 H 1604.1666 V 1550.2953 H 0 Z"
         transform="matrix(0.33412653,0,0,0.33412653,-18,-476)"
         clip-rule="evenodd"
         id="path57" />
    </clipPath>
    <clipPath
       clipPathUnits="userSpaceOnUse"
       id="clipPath58">
      <path
         d="M 0,0 H 1604.1666 V 1550.2953 H 0 Z"
         transform="matrix(0.33412653,0,0,0.33412653,-81.46875,-498)"
         clip-rule="evenodd"
         id="path58" />
    </clipPath>
    <clipPath
       clipPathUnits="userSpaceOnUse"
       id="clipPath60">
      <path
         d="M 0,0 H 1604.1666 V 1550.2953 H 0 Z"
         transform="matrix(0.33412988,0,0,0.33412988,-0.5,-0.5)"
         clip-rule="evenodd"
         id="path60" />
    </clipPath>
    <clipPath
       clipPathUnits="userSpaceOnUse"
       id="clipPath61">
      <path
         d="M 0,0 H 1604.1666 V 1550.2953 H 0 Z"
         transform="matrix(0.33412653,0,0,0.33412653,-308.3125,-487)"
         clip-rule="evenodd"
         id="path61" />
    </clipPath>
    <clipPath
       clipPathUnits="userSpaceOnUse"
       id="clipPath63">
      <path
         d="M 0,0 H 1604.1666 V 1550.2953 H 0 Z"
         transform="matrix(0.33412988,0,0,0.33412988,-0.5,-0.5)"
         clip-rule="evenodd"
         id="path63" />
    </clipPath>
    <clipPath
       clipPathUnits="userSpaceOnUse"
       id="clipPath64">
      <path
         d="M 0,0 H 1604.1666 V 1550.2953 H 0 Z"
         transform="matrix(0.33412653,0,0,0.33412653,-461.48438,-487)"
         clip-rule="evenodd"
         id="path64" />
    </clipPath>
  </defs>
  <sodipodi:namedview
     id="namedview1"
     pagecolor="#ffffff"
     bordercolor="#000000"
     borderopacity="0.25"
     inkscape:showpageshadow="2"
     inkscape:pageopacity="0.0"
     inkscape:pagecheckerboard="0"
     inkscape:deskcolor="#d1d1d1">
    <inkscape:page
       x="0"
       y="0"
       inkscape:label="1"
       id="page1"
       width="513.27997"
       height="497.28"
       margin="0"
       bleed="0" />
  </sodipodi:namedview>
  <g
     id="g1"
     inkscape:groupmode="layer"
     inkscape:label="1">
    <path
       id="path1"
       d="M 0,0 H 536 V 519 H 0 Z"
       style="fill:#ffffff;fill-opacity:1;fill-rule:nonzero;stroke:none"
       transform="scale(0.95771138)"
       clip-path="url(#clipPath2)" />
    <path
       id="path3"
       d="m 3,125 h 240 v 70 H 3 Z"
       style="fill:#ffffff;fill-opacity:1;fill-rule:nonzero;stroke:#000000;stroke-width:1;stroke-linecap:butt;stroke-linejoin:miter;stroke-miterlimit:10;stroke-dasharray:none;stroke-opacity:1"
       transform="matrix(0.95771138,0,0,0.95771138,0.47885569,0.47885569)"
       clip-path="url(#clipPath4)" />
    <text
       id="text4"
       xml:space="preserve"
       transform="matrix(0.95772098,0,0,0.95772098,7.6019103,149.40447)"
       clip-path="url(#clipPath5)"><tspan
         style="font-variant:normal;font-weight:normal;font-size:18px;font-family:Helvetica;writing-mode:lr-tb;fill:#000000;fill-opacity:1;fill-rule:nonzero;stroke:none"
         x="0 5.0009766 10.001953 15.00293 20.003906 30.014648 40.025391 45.026367 54.026367 64.037109 69.038086 74.039062 84.049805 89.050781 94.051758 109.0459 119.05664 128.05664 132.05566 142.06641 147.06738 156.06738 166.07812 171.0791 181.08984 191.10059 201.11133 207.10547 211.10449 221.11523"
         y="0"
         sodipodi:role="line"
         id="tspan4">...the set of movie categories</tspan></text>
    <g
       id="g5" />
    <text
       id="text5"
       xml:space="preserve"
       transform="matrix(0.95772098,0,0,0.95772098,77.06661,170.47434)"
       clip-path="url(#clipPath6)"><tspan
         style="font-variant:normal;font-weight:normal;font-size:18px;font-family:Helvetica;writing-mode:lr-tb;fill:#000000;fill-opacity:1;fill-rule:nonzero;stroke:none"
         x="0 10.010742 20.021484 25.022461 38.021484 48.032227 53.033203 62.033203 66.032227 75.032227"
         y="0"
         sodipodi:role="line"
         id="tspan5">on Netﬂix?</tspan></text>
    <text
       id="text6"
       xml:space="preserve"
       transform="matrix(0.95772098,0,0,0.95772098,9.5622455,17.238978)"
       clip-path="url(#clipPath7)"><tspan
         style="font-variant:normal;font-weight:700;font-size:18px;font-family:Helvetica;writing-mode:lr-tb;fill:#000000;fill-opacity:1;fill-rule:nonzero;stroke:none"
         x="0 12.005859 23.000977 33.996094 44.991211 49.992188 60.987305 65.988281 79.989258 90 95.000977 105.99609 116.00684 126.01758 131.01855 141.0293 152.02441 157.02539 167.03613 178.03125 189.02637 205.03125 210.03223 216.02637"
         y="0"
         sodipodi:role="line"
         id="tspan6">Should we use an enum to</tspan></text>
    <text
       id="text7"
       xml:space="preserve"
       transform="matrix(0.95772098,0,0,0.95772098,71.799145,38.308839)"
       clip-path="url(#clipPath8)"><tspan
         style="font-variant:normal;font-weight:700;font-size:18px;font-family:Helvetica;writing-mode:lr-tb;fill:#000000;fill-opacity:1;fill-rule:nonzero;stroke:none"
         x="0 7.0048828 17.015625 28.010742 35.015625 45.026367 55.037109 65.047852 76.042969 82.037109 87.038086 92.039062"
         y="0"
         sodipodi:role="line"
         id="tspan7">represent...</tspan></text>
    <path
       id="path9"
       d="m 263,50 h 120 v 60 H 263 Z"
       style="fill:#d5e8d4;fill-opacity:1;fill-rule:nonzero;stroke:#82b366;stroke-width:1;stroke-linecap:butt;stroke-linejoin:miter;stroke-miterlimit:10;stroke-dasharray:none;stroke-opacity:1"
       transform="matrix(0.95771138,0,0,0.95771138,0.47885569,0.47885569)"
       clip-path="url(#clipPath10)" />
    <text
       id="text10"
       xml:space="preserve"
       transform="matrix(0.95772098,0,0,0.95772098,295.27735,83.321726)"
       clip-path="url(#clipPath11)"><tspan
         style="font-variant:normal;font-weight:normal;font-size:18px;font-family:Helvetica;writing-mode:lr-tb;fill:#000000;fill-opacity:1;fill-rule:nonzero;stroke:none"
         x="0 10.353516 20.364258"
         y="0"
         sodipodi:role="line"
         id="tspan10">Yes</tspan></text>
    <path
       id="path12"
       d="m 413,50 h 120 v 60 H 413 Z"
       style="fill:#f8cecc;fill-opacity:1;fill-rule:nonzero;stroke:#b85450;stroke-width:1;stroke-linecap:butt;stroke-linejoin:miter;stroke-miterlimit:10;stroke-dasharray:none;stroke-opacity:1"
       transform="matrix(0.95771138,0,0,0.95771138,0.47885569,0.47885569)"
       clip-path="url(#clipPath13)" />
    <text
       id="text13"
       xml:space="preserve"
       transform="matrix(0.95772098,0,0,0.95772098,441.97327,83.321726)"
       clip-path="url(#clipPath14)"><tspan
         style="font-variant:normal;font-weight:normal;font-size:18px;font-family:Helvetica;writing-mode:lr-tb;fill:#000000;fill-opacity:1;fill-rule:nonzero;stroke:none"
         x="0 12.999023"
         y="0"
         sodipodi:role="line"
         id="tspan13">No</tspan></text>
    <path
       id="path15"
       d="m 3,205 h 240 v 70 H 3 Z"
       style="fill:#ffffff;fill-opacity:1;fill-rule:nonzero;stroke:#000000;stroke-width:1;stroke-linecap:butt;stroke-linejoin:miter;stroke-miterlimit:10;stroke-dasharray:none;stroke-opacity:1"
       transform="matrix(0.95771138,0,0,0.95771138,0.47885569,0.47885569)"
       clip-path="url(#clipPath16)" />
    <text
       id="text16"
       xml:space="preserve"
       transform="matrix(0.95772098,0,0,0.95772098,4.713783,226.02215)"
       clip-path="url(#clipPath17)"><tspan
         style="font-variant:normal;font-weight:normal;font-size:18px;font-family:Helvetica;writing-mode:lr-tb;fill:#000000;fill-opacity:1;fill-rule:nonzero;stroke:none"
         x="0 5.0009766 10.001953 15.00293 20.003906 30.014648 40.025391 45.026367 50.027344 54.026367 59.027344 63.026367 73.037109 82.037109 87.038086 97.048828 102.0498 107.05078 117.06152 121.06055 125.05957 130.06055 140.07129 144.07031 154.08105 164.0918 169.09277 179.10352 189.11426 198.11426 203.11523 212.11523 217.11621 227.12695"
         y="0"
         sodipodi:role="line"
         id="tspan16">...the titles of all blog posts by</tspan></text>
    <text
       id="text17"
       xml:space="preserve"
       transform="matrix(0.95772098,0,0,0.95772098,51.193179,247.09201)"
       clip-path="url(#clipPath18)"><tspan
         style="font-variant:normal;font-weight:normal;font-size:18px;font-family:Helvetica;writing-mode:lr-tb;fill:#000000;fill-opacity:1;fill-rule:nonzero;stroke:none"
         x="0 10.010742 15.011719 25.022461 35.033203 41.027344 46.02832 50.027344 59.027344 69.038086 73.037109 83.047852 89.041992 94.042969 104.05371 113.05371 123.06445 129.05859"
         y="0"
         sodipodi:role="line"
         id="tspan17">a particular user?</tspan></text>
    <path
       id="path19"
       d="m 263,210 h 120 v 60 H 263 Z"
       style="fill:#d5e8d4;fill-opacity:1;fill-rule:nonzero;stroke:#82b366;stroke-width:1;stroke-linecap:butt;stroke-linejoin:miter;stroke-miterlimit:10;stroke-dasharray:none;stroke-opacity:1"
       transform="matrix(0.95771138,0,0,0.95771138,0.47885569,0.47885569)"
       clip-path="url(#clipPath20)" />
    <text
       id="text20"
       xml:space="preserve"
       transform="matrix(0.95772098,0,0,0.95772098,295.27735,236.55708)"
       clip-path="url(#clipPath21)"><tspan
         style="font-variant:normal;font-weight:normal;font-size:18px;font-family:Helvetica;writing-mode:lr-tb;fill:#000000;fill-opacity:1;fill-rule:nonzero;stroke:none"
         x="0 10.353516 20.364258"
         y="0"
         sodipodi:role="line"
         id="tspan20">Yes</tspan></text>
    <path
       id="path22"
       d="m 413,210 h 120 v 60 H 413 Z"
       style="fill:#f8cecc;fill-opacity:1;fill-rule:nonzero;stroke:#b85450;stroke-width:1;stroke-linecap:butt;stroke-linejoin:miter;stroke-miterlimit:10;stroke-dasharray:none;stroke-opacity:1"
       transform="matrix(0.95771138,0,0,0.95771138,0.47885569,0.47885569)"
       clip-path="url(#clipPath23)" />
    <text
       id="text23"
       xml:space="preserve"
       transform="matrix(0.95772098,0,0,0.95772098,441.97327,236.55708)"
       clip-path="url(#clipPath24)"><tspan
         style="font-variant:normal;font-weight:normal;font-size:18px;font-family:Helvetica;writing-mode:lr-tb;fill:#000000;fill-opacity:1;fill-rule:nonzero;stroke:none"
         x="0 12.999023"
         y="0"
         sodipodi:role="line"
         id="tspan23">No</tspan></text>
    <path
       id="path25"
       d="m 3,45 h 240 v 70 H 3 Z"
       style="fill:#ffffff;fill-opacity:1;fill-rule:nonzero;stroke:#000000;stroke-width:1;stroke-linecap:butt;stroke-linejoin:miter;stroke-miterlimit:10;stroke-dasharray:none;stroke-opacity:1"
       transform="matrix(0.95771138,0,0,0.95771138,0.47885569,0.47885569)"
       clip-path="url(#clipPath26)" />
    <text
       id="text26"
       xml:space="preserve"
       transform="matrix(0.95772098,0,0,0.95772098,16.236364,72.786795)"
       clip-path="url(#clipPath27)"><tspan
         style="font-variant:normal;font-weight:normal;font-size:18px;font-family:Helvetica;writing-mode:lr-tb;fill:#000000;fill-opacity:1;fill-rule:nonzero;stroke:none"
         x="0 5.0009766 10.001953 15.00293 25.013672 31.007812 35.006836 50.000977 60.011719 66.005859 75.005859 80.006836 89.006836 99.017578 103.0166 113.02734 119.02148 128.02148 133.02246 143.0332 153.04395 158.04492 168.05566 173.05664 182.05664 192.06738 196.06641 206.07715"
         y="0"
         sodipodi:role="line"
         id="tspan26">...primary colors on a color</tspan></text>
    <text
       id="text27"
       xml:space="preserve"
       transform="matrix(0.95772098,0,0,0.95772098,90.010808,93.856656)"
       clip-path="url(#clipPath28)"><tspan
         style="font-variant:normal;font-weight:normal;font-size:18px;font-family:Helvetica;writing-mode:lr-tb;fill:#000000;fill-opacity:1;fill-rule:nonzero;stroke:none"
         x="0 10.010742 14.009766 23.009766 32.009766 42.020508 48.014648"
         y="0"
         sodipodi:role="line"
         id="tspan27">picker?</tspan></text>
    <path
       id="path29"
       d="m 263,130 h 120 v 60 H 263 Z"
       style="fill:#d5e8d4;fill-opacity:1;fill-rule:nonzero;stroke:#82b366;stroke-width:1;stroke-linecap:butt;stroke-linejoin:miter;stroke-miterlimit:10;stroke-dasharray:none;stroke-opacity:1"
       transform="matrix(0.95771138,0,0,0.95771138,0.47885569,0.47885569)"
       clip-path="url(#clipPath30)" />
    <text
       id="text30"
       xml:space="preserve"
       transform="matrix(0.95772098,0,0,0.95772098,295.27735,159.9394)"
       clip-path="url(#clipPath31)"><tspan
         style="font-variant:normal;font-weight:normal;font-size:18px;font-family:Helvetica;writing-mode:lr-tb;fill:#000000;fill-opacity:1;fill-rule:nonzero;stroke:none"
         x="0 10.353516 20.364258"
         y="0"
         sodipodi:role="line"
         id="tspan30">Yes</tspan></text>
    <path
       id="path32"
       d="m 413,130 h 120 v 60 H 413 Z"
       style="fill:#f8cecc;fill-opacity:1;fill-rule:nonzero;stroke:#b85450;stroke-width:1;stroke-linecap:butt;stroke-linejoin:miter;stroke-miterlimit:10;stroke-dasharray:none;stroke-opacity:1"
       transform="matrix(0.95771138,0,0,0.95771138,0.47885569,0.47885569)"
       clip-path="url(#clipPath33)" />
    <text
       id="text33"
       xml:space="preserve"
       transform="matrix(0.95772098,0,0,0.95772098,441.97327,159.9394)"
       clip-path="url(#clipPath34)"><tspan
         style="font-variant:normal;font-weight:normal;font-size:18px;font-family:Helvetica;writing-mode:lr-tb;fill:#000000;fill-opacity:1;fill-rule:nonzero;stroke:none"
         x="0 12.999023"
         y="0"
         sodipodi:role="line"
         id="tspan33">No</tspan></text>
    <path
       id="path35"
       d="m 3,285 h 240 v 70 H 3 Z"
       style="fill:#ffffff;fill-opacity:1;fill-rule:nonzero;stroke:#000000;stroke-width:1;stroke-linecap:butt;stroke-linejoin:miter;stroke-miterlimit:10;stroke-dasharray:none;stroke-opacity:1"
       transform="matrix(0.95771138,0,0,0.95771138,0.47885569,0.47885569)"
       clip-path="url(#clipPath36)" />
    <text
       id="text36"
       xml:space="preserve"
       transform="matrix(0.95772098,0,0,0.95772098,29.150632,302.63983)"
       clip-path="url(#clipPath37)"><tspan
         style="font-variant:normal;font-weight:normal;font-size:18px;font-family:Helvetica;writing-mode:lr-tb;fill:#000000;fill-opacity:1;fill-rule:nonzero;stroke:none"
         x="0 5.0009766 10.001953 15.00293 24.00293 28.001953 37.001953 47.012695 56.012695 61.013672 71.024414 76.025391 81.026367 91.037109 96.038086 106.04883 112.04297 116.04199 126.05273 135.05273 140.05371 150.06445 160.0752 165.07617 175.08691"
         y="0"
         sodipodi:role="line"
         id="tspan36">...sizes of a drink on an</tspan></text>
    <text
       id="text37"
       xml:space="preserve"
       transform="matrix(0.95772098,0,0,0.95772098,57.418366,323.70969)"
       clip-path="url(#clipPath38)"><tspan
         style="font-variant:normal;font-weight:normal;font-size:18px;font-family:Helvetica;writing-mode:lr-tb;fill:#000000;fill-opacity:1;fill-rule:nonzero;stroke:none"
         x="0 10.010742 16.004883 26.015625 36.026367 42.020508 46.019531 56.030273 66.041016 71.041992 86.036133 96.046875 106.05762 116.06836"
         y="0"
         sodipodi:role="line"
         id="tspan37">ordering menu?</tspan></text>
    <path
       id="path39"
       d="m 263,290 h 120 v 60 H 263 Z"
       style="fill:#d5e8d4;fill-opacity:1;fill-rule:nonzero;stroke:#82b366;stroke-width:1;stroke-linecap:butt;stroke-linejoin:miter;stroke-miterlimit:10;stroke-dasharray:none;stroke-opacity:1"
       transform="matrix(0.95771138,0,0,0.95771138,0.47885569,0.47885569)"
       clip-path="url(#clipPath40)" />
    <text
       id="text40"
       xml:space="preserve"
       transform="matrix(0.95772098,0,0,0.95772098,295.27735,313.17476)"
       clip-path="url(#clipPath41)"><tspan
         style="font-variant:normal;font-weight:normal;font-size:18px;font-family:Helvetica;writing-mode:lr-tb;fill:#000000;fill-opacity:1;fill-rule:nonzero;stroke:none"
         x="0 10.353516 20.364258"
         y="0"
         sodipodi:role="line"
         id="tspan40">Yes</tspan></text>
    <path
       id="path42"
       d="m 413,290 h 120 v 60 H 413 Z"
       style="fill:#f8cecc;fill-opacity:1;fill-rule:nonzero;stroke:#b85450;stroke-width:1;stroke-linecap:butt;stroke-linejoin:miter;stroke-miterlimit:10;stroke-dasharray:none;stroke-opacity:1"
       transform="matrix(0.95771138,0,0,0.95771138,0.47885569,0.47885569)"
       clip-path="url(#clipPath43)" />
    <text
       id="text43"
       xml:space="preserve"
       transform="matrix(0.95772098,0,0,0.95772098,441.97327,313.17476)"
       clip-path="url(#clipPath44)"><tspan
         style="font-variant:normal;font-weight:normal;font-size:18px;font-family:Helvetica;writing-mode:lr-tb;fill:#000000;fill-opacity:1;fill-rule:nonzero;stroke:none"
         x="0 12.999023"
         y="0"
         sodipodi:role="line"
         id="tspan43">No</tspan></text>
    <path
       id="path45"
       d="m 3,365 h 240 v 70 H 3 Z"
       style="fill:#ffffff;fill-opacity:1;fill-rule:nonzero;stroke:#000000;stroke-width:1;stroke-linecap:butt;stroke-linejoin:miter;stroke-miterlimit:10;stroke-dasharray:none;stroke-opacity:1"
       transform="matrix(0.95771138,0,0,0.95771138,0.47885569,0.47885569)"
       clip-path="url(#clipPath46)" />
    <text
       id="text46"
       xml:space="preserve"
       transform="matrix(0.95772098,0,0,0.95772098,22.46155,379.25751)"
       clip-path="url(#clipPath47)"><tspan
         style="font-variant:normal;font-weight:normal;font-size:18px;font-family:Helvetica;writing-mode:lr-tb;fill:#000000;fill-opacity:1;fill-rule:nonzero;stroke:none"
         x="0 5.0009766 10.001953 15.00293 25.013672 29.012695 33.011719 38.012695 47.012695 57.023438 67.03418 73.02832 82.02832 87.029297 96.029297 100.02832 110.03906 119.03906 129.0498 134.05078 139.05176 149.0625 159.07324 164.07422 173.07422 183.08496 193.0957"
         y="0"
         sodipodi:role="line"
         id="tspan46">...all years since the year</tspan></text>
    <text
       id="text47"
       xml:space="preserve"
       transform="matrix(0.95772098,0,0,0.95772098,93.826728,400.32737)"
       clip-path="url(#clipPath48)"><tspan
         style="font-variant:normal;font-weight:normal;font-size:18px;font-family:Helvetica;writing-mode:lr-tb;fill:#000000;fill-opacity:1;fill-rule:nonzero;stroke:none"
         x="0 10.010742 20.021484 30.032227 40.042969"
         y="0"
         sodipodi:role="line"
         id="tspan47">1750?</tspan></text>
    <path
       id="path49"
       d="m 263,370 h 120 v 60 H 263 Z"
       style="fill:#d5e8d4;fill-opacity:1;fill-rule:nonzero;stroke:#82b366;stroke-width:1;stroke-linecap:butt;stroke-linejoin:miter;stroke-miterlimit:10;stroke-dasharray:none;stroke-opacity:1"
       transform="matrix(0.95771138,0,0,0.95771138,0.47885569,0.47885569)"
       clip-path="url(#clipPath50)" />
    <text
       id="text50"
       xml:space="preserve"
       transform="matrix(0.95772098,0,0,0.95772098,295.27735,389.79244)"
       clip-path="url(#clipPath51)"><tspan
         style="font-variant:normal;font-weight:normal;font-size:18px;font-family:Helvetica;writing-mode:lr-tb;fill:#000000;fill-opacity:1;fill-rule:nonzero;stroke:none"
         x="0 10.353516 20.364258"
         y="0"
         sodipodi:role="line"
         id="tspan50">Yes</tspan></text>
    <path
       id="path52"
       d="m 413,370 h 120 v 60 H 413 Z"
       style="fill:#f8cecc;fill-opacity:1;fill-rule:nonzero;stroke:#b85450;stroke-width:1;stroke-linecap:butt;stroke-linejoin:miter;stroke-miterlimit:10;stroke-dasharray:none;stroke-opacity:1"
       transform="matrix(0.95771138,0,0,0.95771138,0.47885569,0.47885569)"
       clip-path="url(#clipPath53)" />
    <text
       id="text53"
       xml:space="preserve"
       transform="matrix(0.95772098,0,0,0.95772098,441.97327,389.79244)"
       clip-path="url(#clipPath54)"><tspan
         style="font-variant:normal;font-weight:normal;font-size:18px;font-family:Helvetica;writing-mode:lr-tb;fill:#000000;fill-opacity:1;fill-rule:nonzero;stroke:none"
         x="0 12.999023"
         y="0"
         sodipodi:role="line"
         id="tspan53">No</tspan></text>
    <path
       id="path55"
       d="m 3,445 h 240 v 70 H 3 Z"
       style="fill:#ffffff;fill-opacity:1;fill-rule:nonzero;stroke:#000000;stroke-width:1;stroke-linecap:butt;stroke-linejoin:miter;stroke-miterlimit:10;stroke-dasharray:none;stroke-opacity:1"
       transform="matrix(0.95771138,0,0,0.95771138,0.47885569,0.47885569)"
       clip-path="url(#clipPath56)" />
    <text
       id="text56"
       xml:space="preserve"
       transform="matrix(0.95772098,0,0,0.95772098,17.238978,455.87519)"
       clip-path="url(#clipPath57)"><tspan
         style="font-variant:normal;font-weight:normal;font-size:18px;font-family:Helvetica;writing-mode:lr-tb;fill:#000000;fill-opacity:1;fill-rule:nonzero;stroke:none"
         x="0 5.0009766 10.001953 15.00293 20.003906 30.014648 40.025391 45.026367 48.462891 54.457031 64.467773 74.478516 84.489258 87.925781 92.926758 101.92676 106.92773 116.93848 121.93945 131.9502 140.9502 145.95117 155.96191 160.96289 165.96387 175.97461 180.97559 185.97656 195.9873 204.9873"
         y="0"
         sodipodi:role="line"
         id="tspan56">...the 'read' status of a text</tspan></text>
    <text
       id="text57"
       xml:space="preserve"
       transform="matrix(0.95772098,0,0,0.95772098,78.024331,476.94505)"
       clip-path="url(#clipPath58)"><tspan
         style="font-variant:normal;font-weight:normal;font-size:18px;font-family:Helvetica;writing-mode:lr-tb;fill:#000000;fill-opacity:1;fill-rule:nonzero;stroke:none"
         x="0 14.994141 25.004883 34.004883 43.004883 53.015625 63.026367 73.037109"
         y="0"
         sodipodi:role="line"
         id="tspan57">message?</tspan></text>
    <path
       id="path59"
       d="m 263,450 h 120 v 60 H 263 Z"
       style="fill:#d5e8d4;fill-opacity:1;fill-rule:nonzero;stroke:#82b366;stroke-width:1;stroke-linecap:butt;stroke-linejoin:miter;stroke-miterlimit:10;stroke-dasharray:none;stroke-opacity:1"
       transform="matrix(0.95771138,0,0,0.95771138,0.47885569,0.47885569)"
       clip-path="url(#clipPath60)" />
    <text
       id="text60"
       xml:space="preserve"
       transform="matrix(0.95772098,0,0,0.95772098,295.27735,466.41012)"
       clip-path="url(#clipPath61)"><tspan
         style="font-variant:normal;font-weight:normal;font-size:18px;font-family:Helvetica;writing-mode:lr-tb;fill:#000000;fill-opacity:1;fill-rule:nonzero;stroke:none"
         x="0 10.353516 20.364258"
         y="0"
         sodipodi:role="line"
         id="tspan60">Yes</tspan></text>
    <path
       id="path62"
       d="m 413,450 h 120 v 60 H 413 Z"
       style="fill:#f8cecc;fill-opacity:1;fill-rule:nonzero;stroke:#b85450;stroke-width:1;stroke-linecap:butt;stroke-linejoin:miter;stroke-miterlimit:10;stroke-dasharray:none;stroke-opacity:1"
       transform="matrix(0.95771138,0,0,0.95771138,0.47885569,0.47885569)"
       clip-path="url(#clipPath63)" />
    <text
       id="text63"
       xml:space="preserve"
       transform="matrix(0.95772098,0,0,0.95772098,441.97327,466.41012)"
       clip-path="url(#clipPath64)"><tspan
         style="font-variant:normal;font-weight:normal;font-size:18px;font-family:Helvetica;writing-mode:lr-tb;fill:#000000;fill-opacity:1;fill-rule:nonzero;stroke:none"
         x="0 12.999023"
         y="0"
         sodipodi:role="line"
         id="tspan63">No</tspan></text>
  </g>
</svg>
