<?xml version="1.0" encoding="UTF-8" standalone="no"?>
<!-- Created with Inkscape (http://www.inkscape.org/) -->

<svg
   version="1.1"
   id="svg1"
   width="501.44"
   height="291.84"
   viewBox="0 0 501.44 291.84"
   sodipodi:docname="ts-11.pdf"
   xmlns:inkscape="http://www.inkscape.org/namespaces/inkscape"
   xmlns:sodipodi="http://sodipodi.sourceforge.net/DTD/sodipodi-0.dtd"
   xmlns="http://www.w3.org/2000/svg"
   xmlns:svg="http://www.w3.org/2000/svg">
  <defs
     id="defs1">
    <clipPath
       clipPathUnits="userSpaceOnUse"
       id="clipPath2">
      <path
         d="M 0,0 H 1566.6665 V 911.89563 H 0 Z"
         transform="scale(0.33446811)"
         clip-rule="evenodd"
         id="path2" />
    </clipPath>
    <clipPath
       clipPathUnits="userSpaceOnUse"
       id="clipPath4">
      <path
         d="M 0,0 H 1566.6665 V 908.90576 H 0 Z"
         transform="matrix(0.33446811,0,0,0.33446811,-0.5,-0.5)"
         clip-rule="evenodd"
         id="path4" />
    </clipPath>
    <clipPath
       clipPathUnits="userSpaceOnUse"
       id="clipPath6">
      <path
         d="M 0,0 H 1566.6665 V 908.90576 H 0 Z"
         transform="matrix(0.33446811,0,0,0.33446811,-0.5,-0.5)"
         clip-rule="evenodd"
         id="path6" />
    </clipPath>
    <clipPath
       clipPathUnits="userSpaceOnUse"
       id="clipPath8">
      <path
         d="M 0,0 H 1566.6665 V 908.90576 H 0 Z"
         transform="matrix(0.33446811,0,0,0.33446811,-0.5,-0.5)"
         clip-rule="evenodd"
         id="path8" />
    </clipPath>
    <clipPath
       clipPathUnits="userSpaceOnUse"
       id="clipPath9">
      <path
         d="M 0,0 H 1566.6665 V 908.90576 H 0 Z"
         transform="matrix(0.33446475,0,0,0.33446475,-128.45313,-27.000001)"
         clip-rule="evenodd"
         id="path9" />
    </clipPath>
    <clipPath
       clipPathUnits="userSpaceOnUse"
       id="clipPath10">
      <path
         d="M 0,0 H 1566.6665 V 908.90576 H 0 Z"
         transform="matrix(0.33446475,0,0,0.33446475,-93.046876,-50)"
         clip-rule="evenodd"
         id="path10" />
    </clipPath>
    <clipPath
       clipPathUnits="userSpaceOnUse"
       id="clipPath11">
      <path
         d="M 1566.6665,0 H 0 v 908.90576 h 1566.6665 z m -449.7362,149.49258 h -36.4919 v 8.67058 h 36.4919 z"
         transform="scale(0.33446475)"
         clip-rule="evenodd"
         id="path11" />
    </clipPath>
    <clipPath
       clipPathUnits="userSpaceOnUse"
       id="clipPath12">
      <path
         d="M 1566.6665,0 H 0 V 908.90576 H 1566.6665 Z M 1022.15,149.49258 h -36.49192 v 8.67058 H 1022.15 Z"
         transform="scale(0.31999999)"
         clip-rule="evenodd"
         id="path12" />
    </clipPath>
    <clipPath
       clipPathUnits="userSpaceOnUse"
       id="clipPath13">
      <path
         d="M 1566.6665,0 H 0 V 908.90576 H 1566.6665 Z M 876.38739,149.49258 H 860.0332 v 8.67058 h 16.35419 z"
         transform="scale(0.31999999)"
         clip-rule="evenodd"
         id="path13" />
    </clipPath>
    <clipPath
       clipPathUnits="userSpaceOnUse"
       id="clipPath14">
      <path
         d="M 1566.6665,0 H 0 V 908.90576 H 1566.6665 Z M 418.46277,149.49258 h -16.35428 v 8.67058 h 16.35428 z"
         transform="scale(0.31999999)"
         clip-rule="evenodd"
         id="path14" />
    </clipPath>
    <clipPath
       clipPathUnits="userSpaceOnUse"
       id="clipPath15">
      <path
         d="M 0,0 H 1566.6665 V 908.90576 H 0 Z"
         transform="scale(0.31999999)"
         id="path15" />
    </clipPath>
    <clipPath
       clipPathUnits="userSpaceOnUse"
       id="clipPath20">
      <path
         d="M 0,0 H 1566.6665 V 911.89563 H 0 Z"
         transform="scale(0.31999999)"
         id="path20" />
    </clipPath>
    <clipPath
       clipPathUnits="userSpaceOnUse"
       id="clipPath21">
      <path
         d="M 0,0 H 1566.6665 V 908.90576 H 0 Z"
         transform="matrix(0.33446475,0,0,0.33446475,-114.17188,-50)"
         clip-rule="evenodd"
         id="path21" />
    </clipPath>
    <clipPath
       clipPathUnits="userSpaceOnUse"
       id="clipPath23">
      <path
         d="M 0,0 H 1566.6665 V 908.90576 H 0 Z"
         transform="matrix(0.33446811,0,0,0.33446811,-0.5,-0.5)"
         clip-rule="evenodd"
         id="path23" />
    </clipPath>
    <clipPath
       clipPathUnits="userSpaceOnUse"
       id="clipPath25">
      <path
         d="M 0,0 H 1566.6665 V 908.90576 H 0 Z"
         transform="matrix(0.33446811,0,0,0.33446811,-0.5,-0.5)"
         clip-rule="evenodd"
         id="path25" />
    </clipPath>
    <clipPath
       clipPathUnits="userSpaceOnUse"
       id="clipPath27">
      <path
         d="M 0,0 H 1566.6665 V 908.90576 H 0 Z"
         transform="matrix(0.33446811,0,0,0.33446811,-0.5,-0.5)"
         clip-rule="evenodd"
         id="path27" />
    </clipPath>
    <clipPath
       clipPathUnits="userSpaceOnUse"
       id="clipPath28">
      <path
         d="M 0,0 H 1566.6665 V 908.90576 H 0 Z"
         transform="matrix(0.33446475,0,0,0.33446475,-63.484376,-118.00001)"
         clip-rule="evenodd"
         id="path28" />
    </clipPath>
    <clipPath
       clipPathUnits="userSpaceOnUse"
       id="clipPath30">
      <path
         d="M 0,0 H 1566.6665 V 908.90576 H 0 Z"
         transform="matrix(0.33446811,0,0,0.33446811,-0.5,-0.5)"
         clip-rule="evenodd"
         id="path30" />
    </clipPath>
    <clipPath
       clipPathUnits="userSpaceOnUse"
       id="clipPath32">
      <path
         d="M 0,0 H 1566.6665 V 908.90576 H 0 Z"
         transform="matrix(0.33446811,0,0,0.33446811,-0.5,-0.5)"
         clip-rule="evenodd"
         id="path32" />
    </clipPath>
    <clipPath
       clipPathUnits="userSpaceOnUse"
       id="clipPath34">
      <path
         d="M 0,0 H 1566.6665 V 908.90576 H 0 Z"
         transform="matrix(0.33446811,0,0,0.33446811,-0.5,-0.5)"
         clip-rule="evenodd"
         id="path34" />
    </clipPath>
    <clipPath
       clipPathUnits="userSpaceOnUse"
       id="clipPath35">
      <path
         d="M 0,0 H 1566.6665 V 908.90576 H 0 Z"
         transform="matrix(0.33446475,0,0,0.33446475,-173.32813,-198.00001)"
         clip-rule="evenodd"
         id="path35" />
    </clipPath>
    <clipPath
       clipPathUnits="userSpaceOnUse"
       id="clipPath37">
      <path
         d="M 0,0 H 1566.6665 V 908.90576 H 0 Z"
         transform="matrix(0.33446811,0,0,0.33446811,-0.5,-0.5)"
         clip-rule="evenodd"
         id="path37" />
    </clipPath>
    <clipPath
       clipPathUnits="userSpaceOnUse"
       id="clipPath38">
      <path
         d="M 0,0 H 1566.6665 V 908.90576 H 0 Z"
         transform="matrix(0.33446475,0,0,0.33446475,-60.15625,-278.00001)"
         clip-rule="evenodd"
         id="path38" />
    </clipPath>
  </defs>
  <sodipodi:namedview
     id="namedview1"
     pagecolor="#ffffff"
     bordercolor="#000000"
     borderopacity="0.25"
     inkscape:showpageshadow="2"
     inkscape:pageopacity="0.0"
     inkscape:pagecheckerboard="0"
     inkscape:deskcolor="#d1d1d1">
    <inkscape:page
       x="0"
       y="0"
       inkscape:label="1"
       id="page1"
       width="501.44"
       height="291.84"
       margin="0"
       bleed="0" />
  </sodipodi:namedview>
  <g
     id="g1"
     inkscape:groupmode="layer"
     inkscape:label="1">
    <path
       id="path1"
       d="M 0,0 H 524 V 305 H 0 Z"
       style="fill:#ffffff;fill-opacity:1;fill-rule:nonzero;stroke:none"
       transform="scale(0.9567429)"
       clip-path="url(#clipPath2)" />
    <path
       id="path3"
       d="M 261,61 V 74.629997"
       style="fill:none;stroke:#000000;stroke-width:1;stroke-linecap:butt;stroke-linejoin:miter;stroke-miterlimit:10;stroke-dasharray:none;stroke-opacity:1"
       transform="matrix(0.9567429,0,0,0.9567429,0.47837145,0.47837145)"
       clip-path="url(#clipPath4)" />
    <path
       id="path5"
       d="m 261,79.879997 -3.5,-7 3.5,1.75 3.5,-1.75 z"
       style="fill:#000000;fill-opacity:1;fill-rule:nonzero;stroke:#000000;stroke-width:1;stroke-linecap:butt;stroke-linejoin:miter;stroke-miterlimit:10;stroke-dasharray:none;stroke-opacity:1"
       transform="matrix(0.9567429,0,0,0.9567429,0.47837145,0.47837145)"
       clip-path="url(#clipPath6)" />
    <path
       id="path7"
       d="M 1,1 H 521.01001 V 61 H 1 Z"
       style="fill:#ffffff;fill-opacity:1;fill-rule:nonzero;stroke:#000000;stroke-width:1;stroke-linecap:butt;stroke-linejoin:miter;stroke-miterlimit:10;stroke-dasharray:none;stroke-opacity:1"
       transform="matrix(0.9567429,0,0,0.9567429,0.47837145,0.47837145)"
       clip-path="url(#clipPath8)" />
    <text
       id="text8"
       xml:space="preserve"
       transform="matrix(0.9567525,0,0,0.9567525,122.89785,25.832318)"
       clip-path="url(#clipPath9)"><tspan
         style="font-variant:normal;font-weight:normal;font-size:19px;font-family:Helvetica;writing-mode:lr-tb;fill:#000000;fill-opacity:1;fill-rule:nonzero;stroke:none"
         x="0 14.778809 25.345703 35.912598 46.479492 52.806641 63.373535 68.652344 79.219238 84.498047 95.064941 100.34375 115.12256 125.68945 136.25635 146.82324 151.04443 161.61133 166.89014 180.61133 191.17822 200.67822 205.95703 218.62988 224.95703 235.52393 239.74512 250.31201 259.81201"
         y="0"
         sodipodi:role="line"
         id="tspan8">Generate a Google Dev Project</tspan></text>
    <text
       id="text9"
       xml:space="preserve"
       transform="matrix(0.9567525,0,0,0.9567525,89.022831,47.837625)"
       clip-path="url(#clipPath10)"><tspan
         style="font-variant:normal;font-weight:normal;font-size:19px;font-family:Helvetica;writing-mode:lr-tb;fill:#000000;fill-opacity:1;fill-rule:nonzero;stroke:none"
         x="0 10.566895 15.845703"
         y="0"
         sodipodi:role="line"
         id="tspan9">at </tspan></text>
    <g
       id="g20"
       clip-path="url(#clipPath20)">
      <g
         clip-path="url(#clipPath15)"
         id="g19">
        <g
           clip-path="url(#clipPath14)"
           id="g18">
          <g
             clip-path="url(#clipPath13)"
             id="g17">
            <g
               clip-path="url(#clipPath12)"
               id="g16">
              <path
                 d="M 114.17187,51 H 428.9375 v 1 H 114.17187 Z"
                 style="fill:#0000ee;fill-opacity:1;fill-rule:nonzero;stroke:none"
                 transform="scale(0.9567525)"
                 clip-path="url(#clipPath11)"
                 id="path16" />
            </g>
          </g>
        </g>
      </g>
    </g>
    <text
       id="text20"
       xml:space="preserve"
       transform="matrix(0.9567525,0,0,0.9567525,109.23423,47.837625)"
       clip-path="url(#clipPath21)"><tspan
         style="font-variant:normal;font-weight:normal;font-size:19px;font-family:Helvetica;writing-mode:lr-tb;fill:#0000ee;fill-opacity:1;fill-rule:nonzero;stroke:none"
         x="0 10.566895 15.845703 21.124512 31.691406 36.970215 42.249023 47.527832 57.027832 67.594727 78.161621 87.661621 98.228516 102.44971 113.0166 118.29541 128.8623 139.4292 148.9292 159.49609 163.71729 174.28418 184.85107 195.41797 201.74512 211.24512 216.52393 227.09082 237.65771 248.22461 258.7915 263.0127 273.57959 278.8584 288.3584 298.92529"
         y="0"
         sodipodi:role="line"
         id="tspan20">http://console.developers.google.com</tspan></text>
    <path
       id="path22"
       d="m 261,141 v 13.63"
       style="fill:none;stroke:#000000;stroke-width:1;stroke-linecap:butt;stroke-linejoin:miter;stroke-miterlimit:10;stroke-dasharray:none;stroke-opacity:1"
       transform="matrix(0.9567429,0,0,0.9567429,0.47837145,0.47837145)"
       clip-path="url(#clipPath23)" />
    <path
       id="path24"
       d="m 261,159.88 -3.5,-7 3.5,1.75 3.5,-1.75 z"
       style="fill:#000000;fill-opacity:1;fill-rule:nonzero;stroke:#000000;stroke-width:1;stroke-linecap:butt;stroke-linejoin:miter;stroke-miterlimit:10;stroke-dasharray:none;stroke-opacity:1"
       transform="matrix(0.9567429,0,0,0.9567429,0.47837145,0.47837145)"
       clip-path="url(#clipPath25)" />
    <path
       id="path26"
       d="m 1,81 h 520.01001 v 60 H 1 Z"
       style="fill:#ffffff;fill-opacity:1;fill-rule:nonzero;stroke:#000000;stroke-width:1;stroke-linecap:butt;stroke-linejoin:miter;stroke-miterlimit:10;stroke-dasharray:none;stroke-opacity:1"
       transform="matrix(0.9567429,0,0,0.9567429,0.47837145,0.47837145)"
       clip-path="url(#clipPath27)" />
    <text
       id="text27"
       xml:space="preserve"
       transform="matrix(0.9567525,0,0,0.9567525,60.738835,112.8968)"
       clip-path="url(#clipPath28)"><tspan
         style="font-variant:normal;font-weight:normal;font-size:19px;font-family:Helvetica;writing-mode:lr-tb;fill:#000000;fill-opacity:1;fill-rule:nonzero;stroke:none"
         x="0 12.672852 23.239746 33.806641 44.373535 48.594727 59.161621 64.44043 79.219238 89.786133 100.35303 110.91992 115.14111 125.70801 130.98682 146.81396 157.38086 167.94775 177.44775 182.72656 192.22656 202.79346 213.36035 223.92725 234.49414 240.82129 246.1001 251.37891 255.6001 266.16699 275.66699 279.88818 290.45508 301.02197 306.30078 311.57959 322.14648 332.71338 337.99219 348.55908 354.88623 365.45312 369.67432 380.24121 389.74121"
         y="0"
         sodipodi:role="line"
         id="tspan27">Enable Google Maps support inside the project</tspan></text>
    <path
       id="path29"
       d="m 261,221 v 13.63"
       style="fill:none;stroke:#000000;stroke-width:1;stroke-linecap:butt;stroke-linejoin:miter;stroke-miterlimit:10;stroke-dasharray:none;stroke-opacity:1"
       transform="matrix(0.9567429,0,0,0.9567429,0.47837145,0.47837145)"
       clip-path="url(#clipPath30)" />
    <path
       id="path31"
       d="m 261,239.88 -3.5,-7 3.5,1.75 3.5,-1.75 z"
       style="fill:#000000;fill-opacity:1;fill-rule:nonzero;stroke:#000000;stroke-width:1;stroke-linecap:butt;stroke-linejoin:miter;stroke-miterlimit:10;stroke-dasharray:none;stroke-opacity:1"
       transform="matrix(0.9567429,0,0,0.9567429,0.47837145,0.47837145)"
       clip-path="url(#clipPath32)" />
    <path
       id="path33"
       d="m 1,161 h 520.01001 v 60 H 1 Z"
       style="fill:#ffffff;fill-opacity:1;fill-rule:nonzero;stroke:#000000;stroke-width:1;stroke-linecap:butt;stroke-linejoin:miter;stroke-miterlimit:10;stroke-dasharray:none;stroke-opacity:1"
       transform="matrix(0.9567429,0,0,0.9567429,0.47837145,0.47837145)"
       clip-path="url(#clipPath34)" />
    <text
       id="text34"
       xml:space="preserve"
       transform="matrix(0.9567525,0,0,0.9567525,165.83212,189.437)"
       clip-path="url(#clipPath35)"><tspan
         style="font-variant:normal;font-weight:normal;font-size:19px;font-family:Helvetica;writing-mode:lr-tb;fill:#000000;fill-opacity:1;fill-rule:nonzero;stroke:none"
         x="0 14.778809 25.345703 35.912598 46.479492 52.806641 63.373535 68.652344 79.219238 84.498047 95.064941 105.63184 109.87158 122.54443 135.21729 140.49609 145.7749 155.2749 165.8418"
         y="0"
         sodipodi:role="line"
         id="tspan34">Generate an API key</tspan></text>
    <path
       id="path36"
       d="m 1,241 h 520.01001 v 60 H 1 Z"
       style="fill:#ffffff;fill-opacity:1;fill-rule:nonzero;stroke:#000000;stroke-width:1;stroke-linecap:butt;stroke-linejoin:miter;stroke-miterlimit:10;stroke-dasharray:none;stroke-opacity:1"
       transform="matrix(0.9567429,0,0,0.9567429,0.47837145,0.47837145)"
       clip-path="url(#clipPath37)" />
    <g
       id="g37" />
    <text
       id="text37"
       xml:space="preserve"
       transform="matrix(0.9567525,0,0,0.9567525,57.554643,265.9772)"
       clip-path="url(#clipPath38)"><tspan
         style="font-variant:normal;font-weight:normal;font-size:19px;font-family:Helvetica;writing-mode:lr-tb;fill:#000000;fill-opacity:1;fill-rule:nonzero;stroke:none"
         x="0 12.672852 23.239746 33.806641 39.085449 44.364258 54.931152 65.498047 70.776855 81.34375 91.910645 102.47754 113.04443 117.26562 127.83252 133.11133 148.93848 159.50537 170.07227 179.57227 184.85107 194.35107 203.85107 210.17822 214.39941 224.96631 230.24512 235.52393 240.80273 251.36963 261.93652 267.21533 272.49414 283.06104 288.33984 298.90674 309.47363 315.80078 321.07959 334.80078 346.40674 362.23389 372.10498 377.38379 386.88379 391.10498"
         y="0"
         sodipodi:role="line"
         id="tspan37">Add the google maps script tag to our HTML ﬁle</tspan></text>
  </g>
</svg>
