<?xml version="1.0" encoding="UTF-8" standalone="no"?>
<!-- Created with Inkscape (http://www.inkscape.org/) -->

<svg
   version="1.1"
   id="svg1"
   width="712"
   height="349.44"
   viewBox="0 0 712 349.44"
   sodipodi:docname="ts-19.pdf"
   xmlns:inkscape="http://www.inkscape.org/namespaces/inkscape"
   xmlns:sodipodi="http://sodipodi.sourceforge.net/DTD/sodipodi-0.dtd"
   xmlns="http://www.w3.org/2000/svg"
   xmlns:svg="http://www.w3.org/2000/svg">
  <defs
     id="defs1">
    <clipPath
       clipPathUnits="userSpaceOnUse"
       id="clipPath2">
      <path
         d="M 0,0 H 2224.9998 V 1091.5657 H 0 Z"
         transform="scale(0.33438207)"
         clip-rule="evenodd"
         id="path2" />
    </clipPath>
    <clipPath
       clipPathUnits="userSpaceOnUse"
       id="clipPath4">
      <path
         d="M 0,0 H 2224.9998 V 1088.5752 H 0 Z"
         transform="matrix(0.33438207,0,0,0.33438207,-0.50000001,-0.50000001)"
         clip-rule="evenodd"
         id="path4" />
    </clipPath>
    <clipPath
       clipPathUnits="userSpaceOnUse"
       id="clipPath5">
      <path
         d="M 0,0 H 2224.9998 V 1088.5752 H 0 Z"
         transform="matrix(0.3343787,0,0,0.3343787,-43.640625,-324)"
         clip-rule="evenodd"
         id="path5" />
    </clipPath>
    <clipPath
       clipPathUnits="userSpaceOnUse"
       id="clipPath7">
      <path
         d="M 0,0 H 2224.9998 V 1088.5752 H 0 Z"
         transform="matrix(0.33438207,0,0,0.33438207,-0.50000001,-0.50000001)"
         clip-rule="evenodd"
         id="path7" />
    </clipPath>
    <clipPath
       clipPathUnits="userSpaceOnUse"
       id="clipPath9">
      <path
         d="M 0,0 H 2224.9998 V 1088.5752 H 0 Z"
         transform="matrix(0.33438207,0,0,0.33438207,-0.50000001,-0.50000001)"
         clip-rule="evenodd"
         id="path9" />
    </clipPath>
    <clipPath
       clipPathUnits="userSpaceOnUse"
       id="clipPath11">
      <path
         d="M 0,0 H 2224.9998 V 1088.5752 H 0 Z"
         transform="matrix(0.33438207,0,0,0.33438207,-0.50000001,-0.50000001)"
         clip-rule="evenodd"
         id="path11" />
    </clipPath>
    <clipPath
       clipPathUnits="userSpaceOnUse"
       id="clipPath12">
      <path
         d="M 0,0 H 2224.9998 V 1088.5752 H 0 Z"
         transform="matrix(0.3343787,0,0,0.3343787,-42.296875,-149)"
         clip-rule="evenodd"
         id="path12" />
    </clipPath>
    <clipPath
       clipPathUnits="userSpaceOnUse"
       id="clipPath14">
      <path
         d="M 0,0 H 2224.9998 V 1088.5752 H 0 Z"
         transform="matrix(0.33438207,0,0,0.33438207,-0.50000001,-0.50000001)"
         clip-rule="evenodd"
         id="path14" />
    </clipPath>
    <clipPath
       clipPathUnits="userSpaceOnUse"
       id="clipPath16">
      <path
         d="M 0,0 H 2224.9998 V 1088.5752 H 0 Z"
         transform="matrix(0.33438207,0,0,0.33438207,-0.50000001,-0.50000001)"
         clip-rule="evenodd"
         id="path16" />
    </clipPath>
    <clipPath
       clipPathUnits="userSpaceOnUse"
       id="clipPath18">
      <path
         d="M 0,0 H 2224.9998 V 1088.5752 H 0 Z"
         transform="matrix(0.33438207,0,0,0.33438207,-0.50000001,-0.50000001)"
         clip-rule="evenodd"
         id="path18" />
    </clipPath>
    <clipPath
       clipPathUnits="userSpaceOnUse"
       id="clipPath19">
      <path
         d="M 0,0 H 2224.9998 V 1088.5752 H 0 Z"
         transform="matrix(0.3343787,0,0,0.3343787,-574.3125,-54)"
         clip-rule="evenodd"
         id="path19" />
    </clipPath>
    <clipPath
       clipPathUnits="userSpaceOnUse"
       id="clipPath21">
      <path
         d="M 0,0 H 2224.9998 V 1088.5752 H 0 Z"
         transform="matrix(0.33438207,0,0,0.33438207,-0.50000001,-0.50000001)"
         clip-rule="evenodd"
         id="path21" />
    </clipPath>
    <clipPath
       clipPathUnits="userSpaceOnUse"
       id="clipPath23">
      <path
         d="M 0,0 H 2224.9998 V 1088.5752 H 0 Z"
         transform="matrix(0.33438207,0,0,0.33438207,-0.50000001,-0.50000001)"
         clip-rule="evenodd"
         id="path23" />
    </clipPath>
    <clipPath
       clipPathUnits="userSpaceOnUse"
       id="clipPath25">
      <path
         d="M 0,0 H 2224.9998 V 1088.5752 H 0 Z"
         transform="matrix(0.33438207,0,0,0.33438207,-0.50000001,-0.50000001)"
         clip-rule="evenodd"
         id="path25" />
    </clipPath>
    <clipPath
       clipPathUnits="userSpaceOnUse"
       id="clipPath26">
      <path
         d="M 0,0 H 2224.9998 V 1088.5752 H 0 Z"
         transform="matrix(0.3343787,0,0,0.3343787,-546.3125,-314.00001)"
         clip-rule="evenodd"
         id="path26" />
    </clipPath>
    <clipPath
       clipPathUnits="userSpaceOnUse"
       id="clipPath28">
      <path
         d="M 0,0 H 2224.9998 V 1088.5752 H 0 Z"
         transform="matrix(0.33438207,0,0,0.33438207,-0.50000001,-0.50000001)"
         clip-rule="evenodd"
         id="path28" />
    </clipPath>
    <clipPath
       clipPathUnits="userSpaceOnUse"
       id="clipPath30">
      <path
         d="M 0,0 H 2224.9998 V 1088.5752 H 0 Z"
         transform="matrix(0.33438207,0,0,0.33438207,-0.50000001,-0.50000001)"
         clip-rule="evenodd"
         id="path30" />
    </clipPath>
    <clipPath
       clipPathUnits="userSpaceOnUse"
       id="clipPath32">
      <path
         d="M 0,0 H 2224.9998 V 1088.5752 H 0 Z"
         transform="matrix(0.33438207,0,0,0.33438207,-0.50000001,-0.50000001)"
         clip-rule="evenodd"
         id="path32" />
    </clipPath>
    <clipPath
       clipPathUnits="userSpaceOnUse"
       id="clipPath34">
      <path
         d="M 0,0 H 2224.9998 V 1088.5752 H 0 Z"
         transform="matrix(0.33438207,0,0,0.33438207,-0.50000001,-0.50000001)"
         clip-rule="evenodd"
         id="path34" />
    </clipPath>
    <clipPath
       clipPathUnits="userSpaceOnUse"
       id="clipPath35">
      <path
         d="M 0,0 H 2224.9998 V 1088.5752 H 0 Z"
         transform="matrix(0.3343787,0,0,0.3343787,-485.4375,-167)"
         clip-rule="evenodd"
         id="path35" />
    </clipPath>
    <clipPath
       clipPathUnits="userSpaceOnUse"
       id="clipPath36">
      <path
         d="M 0,0 H 2224.9998 V 1088.5752 H 0 Z"
         transform="matrix(0.3343787,0,0,0.3343787,-494.54688,-186)"
         clip-rule="evenodd"
         id="path36" />
    </clipPath>
    <clipPath
       clipPathUnits="userSpaceOnUse"
       id="clipPath37">
      <path
         d="M 0,0 H 2224.9998 V 1088.5752 H 0 Z"
         transform="matrix(0.3343787,0,0,0.3343787,-533.84375,-205)"
         clip-rule="evenodd"
         id="path37" />
    </clipPath>
    <clipPath
       clipPathUnits="userSpaceOnUse"
       id="clipPath38">
      <path
         d="M 0,0 H 2224.9998 V 1088.5752 H 0 Z"
         transform="matrix(0.3343787,0,0,0.3343787,-153,-210)"
         clip-rule="evenodd"
         id="path38" />
    </clipPath>
    <clipPath
       clipPathUnits="userSpaceOnUse"
       id="clipPath39">
      <path
         d="M 0,0 H 2224.9998 V 1088.5752 H 0 Z"
         transform="matrix(0.3343787,0,0,0.3343787,-153,-229.00001)"
         clip-rule="evenodd"
         id="path39" />
    </clipPath>
    <clipPath
       clipPathUnits="userSpaceOnUse"
       id="clipPath40">
      <path
         d="M 0,0 H 2224.9998 V 1088.5752 H 0 Z"
         transform="matrix(0.3343787,0,0,0.3343787,-153,-248)"
         clip-rule="evenodd"
         id="path40" />
    </clipPath>
  </defs>
  <sodipodi:namedview
     id="namedview1"
     pagecolor="#ffffff"
     bordercolor="#000000"
     borderopacity="0.25"
     inkscape:showpageshadow="2"
     inkscape:pageopacity="0.0"
     inkscape:pagecheckerboard="0"
     inkscape:deskcolor="#d1d1d1">
    <inkscape:page
       x="0"
       y="0"
       inkscape:label="1"
       id="page1"
       width="712"
       height="349.44"
       margin="0"
       bleed="0" />
  </sodipodi:namedview>
  <g
     id="g1"
     inkscape:groupmode="layer"
     inkscape:label="1">
    <path
       id="path1"
       d="M 0,0 H 744 V 365 H 0 Z"
       style="fill:#ffffff;fill-opacity:1;fill-rule:nonzero;stroke:none"
       transform="scale(0.95698908)"
       clip-path="url(#clipPath2)" />
    <path
       id="path3"
       d="m 1,271 h 300 v 90 H 1 Z"
       style="fill:#dae8fc;fill-opacity:1;fill-rule:nonzero;stroke:#6c8ebf;stroke-width:1;stroke-linecap:butt;stroke-linejoin:miter;stroke-miterlimit:10;stroke-dasharray:none;stroke-opacity:1"
       transform="matrix(0.95698908,0,0,0.95698908,0.47849455,0.47849455)"
       clip-path="url(#clipPath4)" />
    <text
       id="text4"
       xml:space="preserve"
       transform="matrix(0.95699871,0,0,0.95699871,41.764022,310.06758)"
       clip-path="url(#clipPath5)"><tspan
         style="font-variant:normal;font-weight:700;font-size:24px;font-family:Helvetica;writing-mode:lr-tb;fill:#000000;fill-opacity:1;fill-rule:nonzero;stroke:none"
         x="0 13.347656 28.007812 42.667969 62.660156 76.007812 85.347656 98.695312 112.04297 121.38281 128.05078 149.39062 162.73828 170.73047 185.39062 200.05078"
         y="0"
         sodipodi:role="line"
         id="tspan4">addMarker method</tspan></text>
    <path
       id="path6"
       d="m 151,181 v 83.63"
       style="fill:none;stroke:#000000;stroke-width:1;stroke-linecap:butt;stroke-linejoin:miter;stroke-miterlimit:10;stroke-dasharray:none;stroke-opacity:1"
       transform="matrix(0.95698908,0,0,0.95698908,0.47849455,0.47849455)"
       clip-path="url(#clipPath7)" />
    <path
       id="path8"
       d="m 151,269.88 -3.5,-7 3.5,1.75 3.5,-1.75 z"
       style="fill:#000000;fill-opacity:1;fill-rule:nonzero;stroke:#000000;stroke-width:1;stroke-linecap:butt;stroke-linejoin:miter;stroke-miterlimit:10;stroke-dasharray:none;stroke-opacity:1"
       transform="matrix(0.95698908,0,0,0.95698908,0.47849455,0.47849455)"
       clip-path="url(#clipPath9)" />
    <path
       id="path10"
       d="m 1,101 h 300 v 80 H 1 Z"
       style="fill:#d5e8d4;fill-opacity:1;fill-rule:nonzero;stroke:#82b366;stroke-width:1;stroke-linecap:butt;stroke-linejoin:miter;stroke-miterlimit:10;stroke-dasharray:none;stroke-opacity:1"
       transform="matrix(0.95698908,0,0,0.95698908,0.47849455,0.47849455)"
       clip-path="url(#clipPath11)" />
    <text
       id="text11"
       xml:space="preserve"
       transform="matrix(0.95699871,0,0,0.95699871,40.478055,142.59281)"
       clip-path="url(#clipPath12)"><tspan
         style="font-variant:normal;font-weight:700;font-size:24px;font-family:Helvetica;writing-mode:lr-tb;fill:#000000;fill-opacity:1;fill-rule:nonzero;stroke:none"
         x="0 6.6679688 21.328125 29.320312 42.667969 52.007812 60 73.347656 86.695312 100.04297 106.71094 126.70312 140.05078 154.71094 169.37109 182.71875 197.37891 204.04688"
         y="0"
         sodipodi:role="line"
         id="tspan11">interface Mappable</tspan></text>
    <path
       id="path13"
       d="m 461,46 h -80 v 95 h -73.63"
       style="fill:none;stroke:#000000;stroke-width:1;stroke-linecap:butt;stroke-linejoin:miter;stroke-miterlimit:10;stroke-dasharray:none;stroke-opacity:1"
       transform="matrix(0.95698908,0,0,0.95698908,0.47849455,0.47849455)"
       clip-path="url(#clipPath14)" />
    <path
       id="path15"
       d="m 302.12,141 7,-3.5 -1.75,3.5 1.75,3.5 z"
       style="fill:#000000;fill-opacity:1;fill-rule:nonzero;stroke:#000000;stroke-width:1;stroke-linecap:butt;stroke-linejoin:miter;stroke-miterlimit:10;stroke-dasharray:none;stroke-opacity:1"
       transform="matrix(0.95698908,0,0,0.95698908,0.47849455,0.47849455)"
       clip-path="url(#clipPath16)" />
    <path
       id="path17"
       d="M 461,1 H 741 V 91 H 461 Z"
       style="fill:#dae8fc;fill-opacity:1;fill-rule:nonzero;stroke:#6c8ebf;stroke-width:1;stroke-linecap:butt;stroke-linejoin:miter;stroke-miterlimit:10;stroke-dasharray:none;stroke-opacity:1"
       transform="matrix(0.95698908,0,0,0.95698908,0.47849455,0.47849455)"
       clip-path="url(#clipPath18)" />
    <text
       id="text18"
       xml:space="preserve"
       transform="matrix(0.95699871,0,0,0.95699871,549.61632,51.67793)"
       clip-path="url(#clipPath19)"><tspan
         style="font-variant:normal;font-weight:700;font-size:24px;font-family:Helvetica;writing-mode:lr-tb;fill:#000000;fill-opacity:1;fill-rule:nonzero;stroke:none"
         x="0 17.332031 30.679688 44.027344"
         y="0"
         sodipodi:role="line"
         id="tspan18">User</tspan></text>
    <path
       id="path20"
       d="M 461,306 H 381 V 141 h -73.63"
       style="fill:none;stroke:#000000;stroke-width:1;stroke-linecap:butt;stroke-linejoin:miter;stroke-miterlimit:10;stroke-dasharray:none;stroke-opacity:1"
       transform="matrix(0.95698908,0,0,0.95698908,0.47849455,0.47849455)"
       clip-path="url(#clipPath21)" />
    <path
       id="path22"
       d="m 302.12,141 7,-3.5 -1.75,3.5 1.75,3.5 z"
       style="fill:#000000;fill-opacity:1;fill-rule:nonzero;stroke:#000000;stroke-width:1;stroke-linecap:butt;stroke-linejoin:miter;stroke-miterlimit:10;stroke-dasharray:none;stroke-opacity:1"
       transform="matrix(0.95698908,0,0,0.95698908,0.47849455,0.47849455)"
       clip-path="url(#clipPath23)" />
    <path
       id="path24"
       d="m 461,261 h 280 v 90 H 461 Z"
       style="fill:#dae8fc;fill-opacity:1;fill-rule:nonzero;stroke:#6c8ebf;stroke-width:1;stroke-linecap:butt;stroke-linejoin:miter;stroke-miterlimit:10;stroke-dasharray:none;stroke-opacity:1"
       transform="matrix(0.95698908,0,0,0.95698908,0.47849455,0.47849455)"
       clip-path="url(#clipPath25)" />
    <text
       id="text25"
       xml:space="preserve"
       transform="matrix(0.95699871,0,0,0.95699871,522.82036,300.4976)"
       clip-path="url(#clipPath26)"><tspan
         style="font-variant:normal;font-weight:700;font-size:24px;font-family:Helvetica;writing-mode:lr-tb;fill:#000000;fill-opacity:1;fill-rule:nonzero;stroke:none"
         x="0 17.332031 31.992188 53.332031 67.992188 81.339844 96"
         y="0"
         sodipodi:role="line"
         id="tspan25">Company</tspan></text>
    <path
       id="path27"
       d="M 601.01001,151 V 97.370003"
       style="fill:none;stroke:#000000;stroke-width:1;stroke-linecap:butt;stroke-linejoin:miter;stroke-miterlimit:10;stroke-dasharray:none;stroke-opacity:1"
       transform="matrix(0.95698908,0,0,0.95698908,0.47849455,0.47849455)"
       clip-path="url(#clipPath28)" />
    <path
       id="path29"
       d="m 601.01001,92.120003 3.5,7 -3.5,-1.75 -3.5,1.75 z"
       style="fill:#000000;fill-opacity:1;fill-rule:nonzero;stroke:#000000;stroke-width:1;stroke-linecap:butt;stroke-linejoin:miter;stroke-miterlimit:10;stroke-dasharray:none;stroke-opacity:1"
       transform="matrix(0.95698908,0,0,0.95698908,0.47849455,0.47849455)"
       clip-path="url(#clipPath30)" />
    <path
       id="path31"
       d="m 601.01001,211 v 43.63"
       style="fill:none;stroke:#000000;stroke-width:1;stroke-linecap:butt;stroke-linejoin:miter;stroke-miterlimit:10;stroke-dasharray:none;stroke-opacity:1"
       transform="matrix(0.95698908,0,0,0.95698908,0.47849455,0.47849455)"
       clip-path="url(#clipPath32)" />
    <path
       id="path33"
       d="m 601.01001,259.88 -3.5,-7 3.5,1.75 3.5,-1.75 z"
       style="fill:#000000;fill-opacity:1;fill-rule:nonzero;stroke:#000000;stroke-width:1;stroke-linecap:butt;stroke-linejoin:miter;stroke-miterlimit:10;stroke-dasharray:none;stroke-opacity:1"
       transform="matrix(0.95698908,0,0,0.95698908,0.47849455,0.47849455)"
       clip-path="url(#clipPath34)" />
    <text
       id="text34"
       xml:space="preserve"
       transform="matrix(0.95699871,0,0,0.95699871,464.56306,159.81878)"
       clip-path="url(#clipPath35)"><tspan
         style="font-style:oblique;font-variant:normal;font-weight:normal;font-size:16px;font-family:Helvetica;writing-mode:lr-tb;fill:#000000;fill-opacity:1;fill-rule:nonzero;stroke:none"
         x="0 13.328125 22.226562 30.226562 34.671875 39.117188 47.117188 56.015625 60.460938 64.015625 72.015625 76.460938 84.460938 88.90625 92.460938 101.35938 105.80469 114.70312 120.03125 124.47656 133.375 141.375 150.27344 154.71875 157.77344 171.10156 180 188.89844 197.79688 206.69531 215.59375 219.14844 228.04688"
         y="0"
         sodipodi:role="line"
         id="tspan34">Must satisfy interface 'Mappable'</tspan></text>
    <text
       id="text35"
       xml:space="preserve"
       transform="matrix(0.95699871,0,0,0.95699871,473.28073,178.00176)"
       clip-path="url(#clipPath36)"><tspan
         style="font-style:oblique;font-variant:normal;font-weight:normal;font-size:16px;font-family:Helvetica;writing-mode:lr-tb;fill:#000000;fill-opacity:1;fill-rule:nonzero;stroke:none"
         x="0 4.4453125 13.34375 17.789062 29.34375 38.242188 43.570312 51.570312 56.015625 67.570312 71.125 75.570312 84.46875 88.914062 93.359375 102.25781 111.15625 115.60156 127.15625 136.05469 144.05469 148.5 157.39844 170.72656 184.05469 192.95312 201.85156 204.90625"
         y="0"
         sodipodi:role="line"
         id="tspan35">to work with the CustomMap's</tspan></text>
    <text
       id="text36"
       xml:space="preserve"
       transform="matrix(0.95699871,0,0,0.95699871,510.88778,196.18474)"
       clip-path="url(#clipPath37)"><tspan
         style="font-style:oblique;font-variant:normal;font-weight:normal;font-size:16px;font-family:Helvetica;writing-mode:lr-tb;fill:#000000;fill-opacity:1;fill-rule:nonzero;stroke:none"
         x="0 8.8984375 17.796875 26.695312 40.023438 48.921875 54.25 62.25 71.148438 76.476562 80.921875 94.25 103.14844 107.59375 116.49219 125.39062"
         y="0"
         sodipodi:role="line"
         id="tspan36">addMarker method</tspan></text>
    <text
       id="text37"
       xml:space="preserve"
       transform="matrix(0.95699871,0,0,0.95699871,146.4208,200.96973)"
       clip-path="url(#clipPath38)"><tspan
         style="font-style:oblique;font-variant:normal;font-weight:normal;font-size:16px;font-family:Helvetica;writing-mode:lr-tb;fill:#000000;fill-opacity:1;fill-rule:nonzero;stroke:none"
         x="0 13.328125 22.226562 31.125 40.023438 48.921875 57.820312 61.375 70.273438 74.71875 78.273438 86.273438 90.71875"
         y="0"
         sodipodi:role="line"
         id="tspan37">Mappable is a</tspan></text>
    <text
       id="text38"
       xml:space="preserve"
       transform="matrix(0.95699871,0,0,0.95699871,146.4208,219.15271)"
       clip-path="url(#clipPath39)"><tspan
         style="font-style:oblique;font-variant:normal;font-weight:normal;font-size:16px;font-family:Helvetica;writing-mode:lr-tb;fill:#000000;fill-opacity:1;fill-rule:nonzero;stroke:none"
         x="0 8.8984375 17.796875 22.242188 31.140625 39.140625 48.039062 56.9375 65.835938 74.734375 80.0625 84.507812 88.953125 97.851562 102.29688 106.74219 115.64062"
         y="0"
         sodipodi:role="line"
         id="tspan38">gatekeeper to the</tspan></text>
    <text
       id="text39"
       xml:space="preserve"
       transform="matrix(0.95699871,0,0,0.95699871,146.4208,237.33568)"
       clip-path="url(#clipPath40)"><tspan
         style="font-style:oblique;font-variant:normal;font-weight:normal;font-size:16px;font-family:Helvetica;writing-mode:lr-tb;fill:#000000;fill-opacity:1;fill-rule:nonzero;stroke:none"
         x="0 3.0546875 11.953125 20.851562 29.75 43.078125 51.976562 57.304688 65.304688 74.203125 79.53125 82.585938 87.03125 91.476562 100.375 109.27344 117.27344 121.71875 125.27344 134.17188"
         y="0"
         sodipodi:role="line"
         id="tspan39">'addMarker' function</tspan></text>
  </g>
</svg>
