<?xml version="1.0" encoding="UTF-8" standalone="no"?>
<!-- Created with Inkscape (http://www.inkscape.org/) -->

<svg
   version="1.1"
   id="svg1"
   width="712"
   height="305.28"
   viewBox="0 0 712 305.28"
   sodipodi:docname="ts-21.pdf"
   xmlns:inkscape="http://www.inkscape.org/namespaces/inkscape"
   xmlns:sodipodi="http://sodipodi.sourceforge.net/DTD/sodipodi-0.dtd"
   xmlns="http://www.w3.org/2000/svg"
   xmlns:svg="http://www.w3.org/2000/svg">
  <defs
     id="defs1">
    <clipPath
       clipPathUnits="userSpaceOnUse"
       id="clipPath2">
      <path
         d="M 0,0 H 2225 V 952.28796 H 0 Z"
         transform="scale(0.3339326)"
         clip-rule="evenodd"
         id="path2" />
    </clipPath>
    <clipPath
       clipPathUnits="userSpaceOnUse"
       id="clipPath4">
      <path
         d="M 0,0 H 2225 V 949.29333 H 0 Z"
         transform="matrix(0.3339326,0,0,0.3339326,-0.49999999,-0.49999999)"
         clip-rule="evenodd"
         id="path4" />
    </clipPath>
    <clipPath
       clipPathUnits="userSpaceOnUse"
       id="clipPath6">
      <path
         d="M 0,0 H 2225 V 949.29333 H 0 Z"
         transform="matrix(0.3339326,0,0,0.3339326,-0.49999999,-0.49999999)"
         clip-rule="evenodd"
         id="path6" />
    </clipPath>
    <clipPath
       clipPathUnits="userSpaceOnUse"
       id="clipPath8">
      <path
         d="M 0,0 H 2225 V 949.29333 H 0 Z"
         transform="matrix(0.3339326,0,0,0.3339326,-0.49999999,-0.49999999)"
         clip-rule="evenodd"
         id="path8" />
    </clipPath>
    <clipPath
       clipPathUnits="userSpaceOnUse"
       id="clipPath10">
      <path
         d="M 0,0 H 2225 V 949.29333 H 0 Z"
         transform="matrix(0.3339326,0,0,0.3339326,-0.49999999,-0.49999999)"
         clip-rule="evenodd"
         id="path10" />
    </clipPath>
    <clipPath
       clipPathUnits="userSpaceOnUse"
       id="clipPath12">
      <path
         d="M 0,0 H 2225 V 949.29333 H 0 Z"
         transform="matrix(0.3339326,0,0,0.3339326,-0.49999999,-0.49999999)"
         clip-rule="evenodd"
         id="path12" />
    </clipPath>
    <clipPath
       clipPathUnits="userSpaceOnUse"
       id="clipPath14">
      <path
         d="M 0,0 H 2225 V 949.29333 H 0 Z"
         transform="matrix(0.3339326,0,0,0.3339326,-0.49999999,-0.49999999)"
         clip-rule="evenodd"
         id="path14" />
    </clipPath>
    <clipPath
       clipPathUnits="userSpaceOnUse"
       id="clipPath15">
      <path
         d="M 0,0 H 2225 V 949.29333 H 0 Z"
         transform="matrix(0.33392925,0,0,0.33392925,-79.890624,-24)"
         clip-rule="evenodd"
         id="path15" />
    </clipPath>
    <clipPath
       clipPathUnits="userSpaceOnUse"
       id="clipPath16">
      <path
         d="M 0,0 H 2225 V 949.29333 H 0 Z"
         transform="matrix(0.33392925,0,0,0.33392925,-23,-147)"
         clip-rule="evenodd"
         id="path16" />
    </clipPath>
    <clipPath
       clipPathUnits="userSpaceOnUse"
       id="clipPath17">
      <path
         d="M 0,0 H 2225 V 949.29333 H 0 Z"
         transform="matrix(0.33392925,0,0,0.33392925,-23,-169)"
         clip-rule="evenodd"
         id="path17" />
    </clipPath>
    <clipPath
       clipPathUnits="userSpaceOnUse"
       id="clipPath18">
      <path
         d="M 0,0 H 2225 V 949.29333 H 0 Z"
         transform="matrix(0.33392925,0,0,0.33392925,-23,-215)"
         clip-rule="evenodd"
         id="path18" />
    </clipPath>
    <clipPath
       clipPathUnits="userSpaceOnUse"
       id="clipPath19">
      <path
         d="M 0,0 H 2225 V 949.29333 H 0 Z"
         transform="matrix(0.33392925,0,0,0.33392925,-23,-238)"
         clip-rule="evenodd"
         id="path19" />
    </clipPath>
    <clipPath
       clipPathUnits="userSpaceOnUse"
       id="clipPath20">
      <path
         d="M 0,0 H 2225 V 949.29333 H 0 Z"
         transform="matrix(0.33392925,0,0,0.33392925,-23,-65.999999)"
         clip-rule="evenodd"
         id="path20" />
    </clipPath>
    <clipPath
       clipPathUnits="userSpaceOnUse"
       id="clipPath21">
      <path
         d="M 0,0 H 2225 V 949.29333 H 0 Z"
         transform="matrix(0.33392925,0,0,0.33392925,-23,-89)"
         clip-rule="evenodd"
         id="path21" />
    </clipPath>
    <clipPath
       clipPathUnits="userSpaceOnUse"
       id="clipPath23">
      <path
         d="M 0,0 H 2225 V 949.29333 H 0 Z"
         transform="matrix(0.3339326,0,0,0.3339326,-0.49999999,-0.49999999)"
         clip-rule="evenodd"
         id="path23" />
    </clipPath>
    <clipPath
       clipPathUnits="userSpaceOnUse"
       id="clipPath24">
      <path
         d="M 0,0 H 2225 V 949.29333 H 0 Z"
         transform="matrix(0.33392925,0,0,0.33392925,-544.29688,-24)"
         clip-rule="evenodd"
         id="path24" />
    </clipPath>
    <clipPath
       clipPathUnits="userSpaceOnUse"
       id="clipPath25">
      <path
         d="M 0,0 H 2225 V 949.29333 H 0 Z"
         transform="matrix(0.33392925,0,0,0.33392925,-503,-64)"
         clip-rule="evenodd"
         id="path25" />
    </clipPath>
    <clipPath
       clipPathUnits="userSpaceOnUse"
       id="clipPath26">
      <path
         d="M 0,0 H 2225 V 949.29333 H 0 Z"
         transform="matrix(0.33392925,0,0,0.33392925,-503,-110)"
         clip-rule="evenodd"
         id="path26" />
    </clipPath>
    <clipPath
       clipPathUnits="userSpaceOnUse"
       id="clipPath28">
      <path
         d="M 0,0 H 2225 V 949.29333 H 0 Z"
         transform="matrix(0.3339326,0,0,0.3339326,-0.49999999,-0.49999999)"
         clip-rule="evenodd"
         id="path28" />
    </clipPath>
    <clipPath
       clipPathUnits="userSpaceOnUse"
       id="clipPath29">
      <path
         d="M 0,0 H 2225 V 949.29333 H 0 Z"
         transform="matrix(0.33392925,0,0,0.33392925,-515.375,-193.99999)"
         clip-rule="evenodd"
         id="path29" />
    </clipPath>
    <clipPath
       clipPathUnits="userSpaceOnUse"
       id="clipPath30">
      <path
         d="M 0,0 H 2225 V 949.29333 H 0 Z"
         transform="matrix(0.33392925,0,0,0.33392925,-503,-234)"
         clip-rule="evenodd"
         id="path30" />
    </clipPath>
    <clipPath
       clipPathUnits="userSpaceOnUse"
       id="clipPath31">
      <path
         d="M 0,0 H 2225 V 949.29333 H 0 Z"
         transform="matrix(0.33392925,0,0,0.33392925,-503,-280)"
         clip-rule="evenodd"
         id="path31" />
    </clipPath>
  </defs>
  <sodipodi:namedview
     id="namedview1"
     pagecolor="#ffffff"
     bordercolor="#000000"
     borderopacity="0.25"
     inkscape:showpageshadow="2"
     inkscape:pageopacity="0.0"
     inkscape:pagecheckerboard="0"
     inkscape:deskcolor="#d1d1d1">
    <inkscape:page
       x="0"
       y="0"
       inkscape:label="1"
       id="page1"
       width="712"
       height="305.28"
       margin="0"
       bleed="0" />
  </sodipodi:namedview>
  <g
     id="g1"
     inkscape:groupmode="layer"
     inkscape:label="1">
    <path
       id="path1"
       d="M 0,0 H 743 V 318 H 0 Z"
       style="fill:#ffffff;fill-opacity:1;fill-rule:nonzero;stroke:none"
       transform="scale(0.95827718)"
       clip-path="url(#clipPath2)" />
    <path
       id="path3"
       d="M 1,35 H 331 V 305 H 1 Z"
       style="fill:#d5e8d4;fill-opacity:1;fill-rule:nonzero;stroke:#82b366;stroke-width:1;stroke-linecap:butt;stroke-linejoin:miter;stroke-miterlimit:10;stroke-dasharray:none;stroke-opacity:1"
       transform="matrix(0.95827718,0,0,0.95827718,0.47913858,0.47913858)"
       clip-path="url(#clipPath4)" />
    <path
       id="path5"
       d="m 331,70 h 75 68.64001"
       style="fill:none;stroke:#000000;stroke-width:1;stroke-linecap:butt;stroke-linejoin:miter;stroke-miterlimit:10;stroke-dasharray:none;stroke-opacity:1"
       transform="matrix(0.95827718,0,0,0.95827718,0.47913858,0.47913858)"
       clip-path="url(#clipPath6)" />
    <path
       id="path7"
       d="m 479.89001,70 -7,3.5 1.75,-3.5 -1.75,-3.5 z"
       style="fill:#000000;fill-opacity:1;fill-rule:nonzero;stroke:#000000;stroke-width:1;stroke-linecap:butt;stroke-linejoin:miter;stroke-miterlimit:10;stroke-dasharray:none;stroke-opacity:1"
       transform="matrix(0.95827718,0,0,0.95827718,0.47913858,0.47913858)"
       clip-path="url(#clipPath8)" />
    <path
       id="path9"
       d="m 331,70 h 75 v 190 h 68.64001"
       style="fill:none;stroke:#000000;stroke-width:1;stroke-linecap:butt;stroke-linejoin:miter;stroke-miterlimit:10;stroke-dasharray:none;stroke-opacity:1"
       transform="matrix(0.95827718,0,0,0.95827718,0.47913858,0.47913858)"
       clip-path="url(#clipPath10)" />
    <path
       id="path11"
       d="m 479.89001,260 -7,3.5 1.75,-3.5 -1.75,-3.5 z"
       style="fill:#000000;fill-opacity:1;fill-rule:nonzero;stroke:#000000;stroke-width:1;stroke-linecap:butt;stroke-linejoin:miter;stroke-miterlimit:10;stroke-dasharray:none;stroke-opacity:1"
       transform="matrix(0.95827718,0,0,0.95827718,0.47913858,0.47913858)"
       clip-path="url(#clipPath12)" />
    <path
       id="path13"
       d="m 1,35 h 330 v 70 H 1 Z"
       style="fill:#dae8fc;fill-opacity:1;fill-rule:nonzero;stroke:#6c8ebf;stroke-width:1;stroke-linecap:butt;stroke-linejoin:miter;stroke-miterlimit:10;stroke-dasharray:none;stroke-opacity:1"
       transform="matrix(0.95827718,0,0,0.95827718,0.47913858,0.47913858)"
       clip-path="url(#clipPath14)" />
    <text
       id="text14"
       xml:space="preserve"
       transform="matrix(0.95828678,0,0,0.95828678,76.558129,22.998883)"
       clip-path="url(#clipPath15)"><tspan
         style="font-variant:normal;font-weight:700;font-size:25px;font-family:Helvetica;writing-mode:lr-tb;fill:#000000;fill-opacity:1;fill-rule:nonzero;stroke:none"
         x="0 18.054199 33.325195 47.229004 55.554199 70.825195 93.054199 113.87939 127.7832 143.0542 150 158.3252"
         y="0"
         sodipodi:role="line"
         id="tspan14">CustomMap.ts</tspan></text>
    <text
       id="text15"
       xml:space="preserve"
       transform="matrix(0.95828678,0,0,0.95828678,22.040596,140.86816)"
       clip-path="url(#clipPath16)"><tspan
         style="font-variant:normal;font-weight:normal;font-size:19px;font-family:Helvetica;writing-mode:lr-tb;fill:#000000;fill-opacity:1;fill-rule:nonzero;stroke:none"
         x="0 9.5 13.721191 24.288086 33.788086 43.288086 48.566895 62.288086 72.85498 82.35498 87.633789 98.200684 114.02783 129.85498 140.42188 150.98877 156.26758"
         y="0"
         sodipodi:role="line"
         id="tspan15">class CustomMap {</tspan></text>
    <text
       id="text16"
       xml:space="preserve"
       transform="matrix(0.95828678,0,0,0.95828678,22.040596,161.95047)"
       clip-path="url(#clipPath17)"><tspan
         style="font-variant:normal;font-weight:normal;font-size:19px;font-family:Helvetica;writing-mode:lr-tb;fill:#000000;fill-opacity:1;fill-rule:nonzero;stroke:none"
         x="0 5.2788086 10.557617 21.124512 31.691406 42.258301 58.085449 68.652344 74.979492 84.479492 95.046387 101.37354 107.70068 123.52783 134.09473 144.66162 155.22852 165.79541 176.3623 180.5835 191.15039 196.4292 201.70801 217.53516 228.10205 238.66895 249.23584 259.80273 270.36963 274.59082 285.15771 291.48486 296.76367"
         y="0"
         sodipodi:role="line"
         id="tspan16">  addMarker(mappable: Mappable) {</tspan></text>
    <text
       id="text17"
       xml:space="preserve"
       transform="matrix(0.95828678,0,0,0.95828678,22.040596,206.03166)"
       clip-path="url(#clipPath18)"><tspan
         style="font-variant:normal;font-weight:normal;font-size:19px;font-family:Helvetica;writing-mode:lr-tb;fill:#000000;fill-opacity:1;fill-rule:nonzero;stroke:none"
         x="0 5.2788086 10.557617"
         y="0"
         sodipodi:role="line"
         id="tspan17">  }</tspan></text>
    <text
       id="text18"
       xml:space="preserve"
       transform="matrix(0.95828678,0,0,0.95828678,22.040596,228.07225)"
       clip-path="url(#clipPath19)"><tspan
         style="font-variant:normal;font-weight:normal;font-size:19px;font-family:Helvetica;writing-mode:lr-tb;fill:#000000;fill-opacity:1;fill-rule:nonzero;stroke:none"
         x="0"
         y="0"
         id="tspan18">}</tspan></text>
    <text
       id="text19"
       xml:space="preserve"
       transform="matrix(0.95828678,0,0,0.95828678,22.040596,63.246927)"
       clip-path="url(#clipPath20)"><tspan
         style="font-style:oblique;font-variant:normal;font-weight:normal;font-size:19px;font-family:Helvetica;writing-mode:lr-tb;fill:#000000;fill-opacity:1;fill-rule:nonzero;stroke:none"
         x="0 5.2788086 15.845703 25.345703 30.624512 36.95166 47.518555 57.018555 62.297363 66.518555 77.085449 87.652344 97.152344 102.43115 112.99805 123.56494 128.84375 139.41064 149.97754 163.69873 168.97754 174.25635 184.82324 190.10205 200.66895 211.23584 216.51465 227.08154"
         y="0"
         sodipodi:role="line"
         id="tspan19">Instructions on how to be an</tspan></text>
    <text
       id="text20"
       xml:space="preserve"
       transform="matrix(0.95828678,0,0,0.95828678,22.040596,85.287523)"
       clip-path="url(#clipPath21)"><tspan
         style="font-style:oblique;font-variant:normal;font-weight:normal;font-size:19px;font-family:Helvetica;writing-mode:lr-tb;fill:#000000;fill-opacity:1;fill-rule:nonzero;stroke:none"
         x="0 10.566895 16.894043 27.460938 38.027832 53.85498 64.421875 74.98877 80.267578 85.546387 90.825195 101.39209 106.6709 110.29834 120.86523 131.43213 141.99902 157.82617 168.39307 174.72021 184.22021 194.78711 201.11426"
         y="0"
         sodipodi:role="line"
         id="tspan20">argument to 'addMarker'</tspan></text>
    <path
       id="path22"
       d="M 481,35 H 691 V 145 H 481 Z"
       style="fill:#d5e8d4;fill-opacity:1;fill-rule:nonzero;stroke:#82b366;stroke-width:1;stroke-linecap:butt;stroke-linejoin:miter;stroke-miterlimit:10;stroke-dasharray:none;stroke-opacity:1"
       transform="matrix(0.95827718,0,0,0.95827718,0.47913858,0.47913858)"
       clip-path="url(#clipPath23)" />
    <text
       id="text23"
       xml:space="preserve"
       transform="matrix(0.95828678,0,0,0.95828678,521.5925,22.998883)"
       clip-path="url(#clipPath24)"><tspan
         style="font-variant:normal;font-weight:700;font-size:25px;font-family:Helvetica;writing-mode:lr-tb;fill:#000000;fill-opacity:1;fill-rule:nonzero;stroke:none"
         x="0 18.054199 31.958008 45.861816 54.223633 61.169434 69.494629"
         y="0"
         sodipodi:role="line"
         id="tspan23">User.ts</tspan></text>
    <text
       id="text24"
       xml:space="preserve"
       transform="matrix(0.95828678,0,0,0.95828678,482.01825,61.330354)"
       clip-path="url(#clipPath25)"><tspan
         style="font-variant:normal;font-weight:normal;font-size:19px;font-family:Helvetica;writing-mode:lr-tb;fill:#000000;fill-opacity:1;fill-rule:nonzero;stroke:none"
         x="0 9.5 13.721191 24.288086 33.788086 43.288086 48.566895 62.288086 71.788086 82.35498 88.682129 93.960938"
         y="0"
         sodipodi:role="line"
         id="tspan24">class User {</tspan></text>
    <text
       id="text25"
       xml:space="preserve"
       transform="matrix(0.95828678,0,0,0.95828678,482.01825,105.41155)"
       clip-path="url(#clipPath26)"><tspan
         style="font-variant:normal;font-weight:normal;font-size:19px;font-family:Helvetica;writing-mode:lr-tb;fill:#000000;fill-opacity:1;fill-rule:nonzero;stroke:none"
         x="0"
         y="0"
         id="tspan25">}</tspan></text>
    <path
       id="path27"
       d="M 481,205 H 691 V 315 H 481 Z"
       style="fill:#d5e8d4;fill-opacity:1;fill-rule:nonzero;stroke:#82b366;stroke-width:1;stroke-linecap:butt;stroke-linejoin:miter;stroke-miterlimit:10;stroke-dasharray:none;stroke-opacity:1"
       transform="matrix(0.95827718,0,0,0.95827718,0.47913858,0.47913858)"
       clip-path="url(#clipPath28)" />
    <text
       id="text28"
       xml:space="preserve"
       transform="matrix(0.95828678,0,0,0.95828678,493.87705,185.90763)"
       clip-path="url(#clipPath29)"><tspan
         style="font-variant:normal;font-weight:700;font-size:25px;font-family:Helvetica;writing-mode:lr-tb;fill:#000000;fill-opacity:1;fill-rule:nonzero;stroke:none"
         x="0 18.054199 33.325195 55.554199 70.825195 84.729004 100 112.06055 119.00635 127.33154"
         y="0"
         sodipodi:role="line"
         id="tspan28">Company.ts</tspan></text>
    <text
       id="text29"
       xml:space="preserve"
       transform="matrix(0.95828678,0,0,0.95828678,482.01825,224.23911)"
       clip-path="url(#clipPath30)"><tspan
         style="font-variant:normal;font-weight:normal;font-size:19px;font-family:Helvetica;writing-mode:lr-tb;fill:#000000;fill-opacity:1;fill-rule:nonzero;stroke:none"
         x="0 9.5 13.721191 24.288086 33.788086 43.288086 48.566895 62.288086 72.85498 88.682129 99.249023 109.81592 120.38281 129.88281 135.16162"
         y="0"
         sodipodi:role="line"
         id="tspan29">class Company {</tspan></text>
    <text
       id="text30"
       xml:space="preserve"
       transform="matrix(0.95828678,0,0,0.95828678,482.01825,268.3203)"
       clip-path="url(#clipPath31)"><tspan
         style="font-variant:normal;font-weight:normal;font-size:19px;font-family:Helvetica;writing-mode:lr-tb;fill:#000000;fill-opacity:1;fill-rule:nonzero;stroke:none"
         x="0"
         y="0"
         id="tspan30">}</tspan></text>
  </g>
</svg>
