<?xml version="1.0" encoding="UTF-8" standalone="no"?>
<!-- Created with Inkscape (http://www.inkscape.org/) -->

<svg
   version="1.1"
   id="svg1"
   width="488"
   height="293.44"
   viewBox="0 0 488 293.44"
   sodipodi:docname="ts-22.pdf"
   xmlns:inkscape="http://www.inkscape.org/namespaces/inkscape"
   xmlns:sodipodi="http://sodipodi.sourceforge.net/DTD/sodipodi-0.dtd"
   xmlns="http://www.w3.org/2000/svg"
   xmlns:svg="http://www.w3.org/2000/svg">
  <defs
     id="defs1">
    <clipPath
       clipPathUnits="userSpaceOnUse"
       id="clipPath2">
      <path
         d="M 0,0 H 1525 V 913.80151 H 0 Z"
         transform="scale(0.33377051)"
         clip-rule="evenodd"
         id="path2" />
    </clipPath>
    <clipPath
       clipPathUnits="userSpaceOnUse"
       id="clipPath4">
      <path
         d="M 0,0 H 1525 V 913.80151 H 0 Z"
         transform="matrix(0.33377051,0,0,0.33377051,-0.50000001,-0.50000001)"
         clip-rule="evenodd"
         id="path4" />
    </clipPath>
    <clipPath
       clipPathUnits="userSpaceOnUse"
       id="clipPath5">
      <path
         d="M 0,0 H 1525 V 913.80151 H 0 Z"
         transform="matrix(0.33376715,0,0,0.33376715,-244.46875,-19)"
         clip-rule="evenodd"
         id="path5" />
    </clipPath>
    <clipPath
       clipPathUnits="userSpaceOnUse"
       id="clipPath7">
      <path
         d="M 0,0 H 1525 V 913.80151 H 0 Z"
         transform="matrix(0.33377051,0,0,0.33377051,-0.50000001,-0.50000001)"
         clip-rule="evenodd"
         id="path7" />
    </clipPath>
    <clipPath
       clipPathUnits="userSpaceOnUse"
       id="clipPath9">
      <path
         d="M 0,0 H 1525 V 913.80151 H 0 Z"
         transform="matrix(0.33377051,0,0,0.33377051,-0.50000001,-0.50000001)"
         clip-rule="evenodd"
         id="path9" />
    </clipPath>
    <clipPath
       clipPathUnits="userSpaceOnUse"
       id="clipPath11">
      <path
         d="M 0,0 H 1525 V 913.80151 H 0 Z"
         transform="matrix(0.33377051,0,0,0.33377051,-0.50000001,-0.50000001)"
         clip-rule="evenodd"
         id="path11" />
    </clipPath>
    <clipPath
       clipPathUnits="userSpaceOnUse"
       id="clipPath12">
      <path
         d="M 0,0 H 1525 V 913.80151 H 0 Z"
         transform="matrix(0.33376715,0,0,0.33376715,-120.48438,-198)"
         clip-rule="evenodd"
         id="path12" />
    </clipPath>
    <clipPath
       clipPathUnits="userSpaceOnUse"
       id="clipPath13">
      <path
         d="M 0,0 H 1525 V 913.80151 H 0 Z"
         transform="matrix(0.33376715,0,0,0.33376715,-91.9375,-221)"
         clip-rule="evenodd"
         id="path13" />
    </clipPath>
    <clipPath
       clipPathUnits="userSpaceOnUse"
       id="clipPath14">
      <path
         d="M 0,0 H 1525 V 913.80151 H 0 Z"
         transform="matrix(0.33376715,0,0,0.33376715,-3.234375,-51)"
         clip-rule="evenodd"
         id="path14" />
    </clipPath>
    <clipPath
       clipPathUnits="userSpaceOnUse"
       id="clipPath15">
      <path
         d="M 0,0 H 1525 V 913.80151 H 0 Z"
         transform="matrix(0.33376715,0,0,0.33376715,-1.15625,-74.000001)"
         clip-rule="evenodd"
         id="path15" />
    </clipPath>
    <clipPath
       clipPathUnits="userSpaceOnUse"
       id="clipPath16">
      <path
         d="M 0,0 H 1525 V 913.80151 H 0 Z"
         transform="matrix(0.33376715,0,0,0.33376715,-124.70312,-97.000001)"
         clip-rule="evenodd"
         id="path16" />
    </clipPath>
  </defs>
  <sodipodi:namedview
     id="namedview1"
     pagecolor="#ffffff"
     bordercolor="#000000"
     borderopacity="0.25"
     inkscape:showpageshadow="2"
     inkscape:pageopacity="0.0"
     inkscape:pagecheckerboard="0"
     inkscape:deskcolor="#d1d1d1">
    <inkscape:page
       x="0"
       y="0"
       inkscape:label="1"
       id="page1"
       width="488"
       height="293.44"
       margin="0"
       bleed="0" />
  </sodipodi:namedview>
  <g
     id="g1"
     inkscape:groupmode="layer"
     inkscape:label="1">
    <path
       id="path1"
       d="M 0,0 H 509 V 305 H 0 Z"
       style="fill:#ffffff;fill-opacity:1;fill-rule:nonzero;stroke:none"
       transform="scale(0.95874255)"
       clip-path="url(#clipPath2)" />
    <path
       id="path3"
       d="M 220,32 H 470 V 302 H 220 Z"
       style="fill:#d5e8d4;fill-opacity:1;fill-rule:nonzero;stroke:#82b366;stroke-width:1;stroke-linecap:butt;stroke-linejoin:miter;stroke-miterlimit:10;stroke-dasharray:none;stroke-opacity:1"
       transform="matrix(0.95874255,0,0,0.95874255,0.47937128,0.47937128)"
       clip-path="url(#clipPath4)" />
    <text
       id="text4"
       xml:space="preserve"
       transform="matrix(0.95875218,0,0,0.95875218,234.38495,18.216291)"
       clip-path="url(#clipPath5)"><tspan
         style="font-variant:normal;font-weight:700;font-size:19px;font-family:Helvetica;writing-mode:lr-tb;fill:#000000;fill-opacity:1;fill-rule:nonzero;stroke:none"
         x="0 10.205078 20.771973 32.37793 37.656738 48.223633 58.790527 64.069336 69.348145 79.553223 90.120117 101.72607 112.29297 122.85986 133.42676 140.8208 146.09961 157.70557 164.03271 169.31152 180.91748 186.19629 191.4751"
         y="0"
         sodipodi:role="line"
         id="tspan4">Typical Typescript File</tspan></text>
    <path
       id="path6"
       d="m 220,32 h 250 v 70 H 220 Z"
       style="fill:#dae8fc;fill-opacity:1;fill-rule:nonzero;stroke:#6c8ebf;stroke-width:1;stroke-linecap:butt;stroke-linejoin:miter;stroke-miterlimit:10;stroke-dasharray:none;stroke-opacity:1"
       transform="matrix(0.95874255,0,0,0.95874255,0.47937128,0.47937128)"
       clip-path="url(#clipPath7)" />
    <path
       id="path8"
       d="m 210,32 h -10 c -6.66667,0 -10,3.333332 -10,10 v 15 c 0,6.666668 -3.33333,10 -10,10 h -5 c -3.33333,0 -1.66667,0 5,0 h 5 c 3.33333,0 5,3.333336 5,10 v 15 c 0,6.666664 3.33333,10 10,10 h 10"
       style="fill:none;stroke:#000000;stroke-width:1;stroke-linecap:butt;stroke-linejoin:miter;stroke-miterlimit:10;stroke-dasharray:none;stroke-opacity:1"
       transform="matrix(0.95874255,0,0,0.95874255,0.47937128,0.47937128)"
       clip-path="url(#clipPath9)" />
    <path
       id="path10"
       d="m 210,102 h -10 c -6.66667,0 -10,3.33334 -10,10 v 80 c 0,6.66667 -3.33333,10 -10,10 h -5 c -3.33333,0 -1.66667,0 5,0 h 5 c 3.33333,0 5,3.33333 5,10 v 80 c 0,6.66666 3.33333,10 10,10 h 10"
       style="fill:none;stroke:#000000;stroke-width:1;stroke-linecap:butt;stroke-linejoin:miter;stroke-miterlimit:10;stroke-dasharray:none;stroke-opacity:1"
       transform="matrix(0.95874255,0,0,0.95874255,0.47937128,0.47937128)"
       clip-path="url(#clipPath11)" />
    <text
       id="text11"
       xml:space="preserve"
       transform="matrix(0.95875218,0,0,0.95875218,115.51466,189.83293)"
       clip-path="url(#clipPath12)"><tspan
         style="font-variant:normal;font-weight:normal;font-size:19px;font-family:Helvetica;writing-mode:lr-tb;fill:#000000;fill-opacity:1;fill-rule:nonzero;stroke:none"
         x="0 13.721191 17.942383 28.509277 38.009277"
         y="0"
         sodipodi:role="line"
         id="tspan11">Class</tspan></text>
    <g
       id="g12" />
    <text
       id="text12"
       xml:space="preserve"
       transform="matrix(0.95875218,0,0,0.95875218,88.145279,211.88423)"
       clip-path="url(#clipPath13)"><tspan
         style="font-variant:normal;font-weight:normal;font-size:19px;font-family:Helvetica;writing-mode:lr-tb;fill:#000000;fill-opacity:1;fill-rule:nonzero;stroke:none"
         x="0 10.566895 21.133789 30.633789 41.200684 45.421875 50.700684 54.921875 65.48877"
         y="0"
         sodipodi:role="line"
         id="tspan12">deﬁnition</tspan></text>
    <g
       id="g13" />
    <text
       id="text13"
       xml:space="preserve"
       transform="matrix(0.95875218,0,0,0.95875218,3.1009641,48.896361)"
       clip-path="url(#clipPath14)"><tspan
         style="font-variant:normal;font-weight:normal;font-size:19px;font-family:Helvetica;writing-mode:lr-tb;fill:#000000;fill-opacity:1;fill-rule:nonzero;stroke:none"
         x="0 5.2788086 15.845703 21.124512 31.691406 38.018555 43.297363 53.864258 63.364258 73.931152 79.209961 89.776855 100.34375 109.84375 120.41064 124.63184 129.91064 134.13184 144.69873 155.26562"
         y="0"
         sodipodi:role="line"
         id="tspan13">Interface deﬁnitions</tspan></text>
    <text
       id="text14"
       xml:space="preserve"
       transform="matrix(0.95875218,0,0,0.95875218,1.1085572,70.947662)"
       clip-path="url(#clipPath15)"><tspan
         style="font-variant:normal;font-weight:normal;font-size:19px;font-family:Helvetica;writing-mode:lr-tb;fill:#000000;fill-opacity:1;fill-rule:nonzero;stroke:none"
         x="0 5.2788086 15.845703 22.172852 27.45166 41.172852 51.739746 58.066895 67.566895 71.788086 82.35498 92.921875 98.200684 111.92188 116.14307 121.42188 131.98877 137.26758 142.54639 153.11328 157.33447"
         y="0"
         sodipodi:role="line"
         id="tspan14">for working with this</tspan></text>
    <text
       id="text15"
       xml:space="preserve"
       transform="matrix(0.95875218,0,0,0.95875218,119.55939,92.998962)"
       clip-path="url(#clipPath16)"><tspan
         style="font-variant:normal;font-weight:normal;font-size:19px;font-family:Helvetica;writing-mode:lr-tb;fill:#000000;fill-opacity:1;fill-rule:nonzero;stroke:none"
         x="0 9.5 13.721191 24.288086 33.788086"
         y="0"
         sodipodi:role="line"
         id="tspan15">class</tspan></text>
  </g>
</svg>
