<?xml version="1.0" encoding="UTF-8" standalone="no"?>
<!-- Created with Inkscape (http://www.inkscape.org/) -->

<svg
   version="1.1"
   id="svg1"
   width="290.56"
   height="252.16"
   viewBox="0 0 290.56 252.16"
   sodipodi:docname="ts-4.pdf"
   xmlns:inkscape="http://www.inkscape.org/namespaces/inkscape"
   xmlns:sodipodi="http://sodipodi.sourceforge.net/DTD/sodipodi-0.dtd"
   xmlns="http://www.w3.org/2000/svg"
   xmlns:svg="http://www.w3.org/2000/svg">
  <defs
     id="defs1">
    <clipPath
       clipPathUnits="userSpaceOnUse"
       id="clipPath2">
      <path
         d="M 0,0 H 908.33325 V 785.82782 H 0 Z"
         transform="scale(0.33467892)"
         clip-rule="evenodd"
         id="path2" />
    </clipPath>
    <clipPath
       clipPathUnits="userSpaceOnUse"
       id="clipPath4">
      <path
         d="M 0,0 H 908.33325 V 782.83984 H 0 Z"
         transform="matrix(0.33467892,0,0,0.33467892,-0.49999999,-0.49999999)"
         clip-rule="evenodd"
         id="path4" />
    </clipPath>
    <clipPath
       clipPathUnits="userSpaceOnUse"
       id="clipPath5">
      <path
         d="M 0,0 H 908.33325 V 782.83984 H 0 Z"
         transform="matrix(0.33467558,0,0,0.33467558,-87.265626,-52)"
         clip-rule="evenodd"
         id="path5" />
    </clipPath>
    <clipPath
       clipPathUnits="userSpaceOnUse"
       id="clipPath7">
      <path
         d="M 0,0 H 908.33325 V 782.83984 H 0 Z"
         transform="matrix(0.33467892,0,0,0.33467892,-0.49999999,-0.49999999)"
         clip-rule="evenodd"
         id="path7" />
    </clipPath>
    <clipPath
       clipPathUnits="userSpaceOnUse"
       id="clipPath8">
      <path
         d="M 0,0 H 908.33325 V 782.83984 H 0 Z"
         transform="matrix(0.33467558,0,0,0.33467558,-35.921875,-160.00001)"
         clip-rule="evenodd"
         id="path8" />
    </clipPath>
    <clipPath
       clipPathUnits="userSpaceOnUse"
       id="clipPath10">
      <path
         d="M 0,0 H 908.33325 V 782.83984 H 0 Z"
         transform="matrix(0.33467892,0,0,0.33467892,-0.49999999,-0.49999999)"
         clip-rule="evenodd"
         id="path10" />
    </clipPath>
    <clipPath
       clipPathUnits="userSpaceOnUse"
       id="clipPath12">
      <path
         d="M 0,0 H 908.33325 V 782.83984 H 0 Z"
         transform="matrix(0.33467892,0,0,0.33467892,-0.49999999,-0.49999999)"
         clip-rule="evenodd"
         id="path12" />
    </clipPath>
    <clipPath
       clipPathUnits="userSpaceOnUse"
       id="clipPath14">
      <path
         d="M 0,0 H 908.33325 V 782.83984 H 0 Z"
         transform="matrix(0.33467892,0,0,0.33467892,-0.49999999,-0.49999999)"
         clip-rule="evenodd"
         id="path14" />
    </clipPath>
    <clipPath
       clipPathUnits="userSpaceOnUse"
       id="clipPath15">
      <path
         d="M 0,0 H 908.33325 V 782.83984 H 0 Z"
         transform="matrix(0.33467558,0,0,0.33467558,-219.48438,-110)"
         clip-rule="evenodd"
         id="path15" />
    </clipPath>
    <clipPath
       clipPathUnits="userSpaceOnUse"
       id="clipPath17">
      <path
         d="M 0,0 H 908.33325 V 782.83984 H 0 Z"
         transform="matrix(0.33467892,0,0,0.33467892,-0.49999999,-0.49999999)"
         clip-rule="evenodd"
         id="path17" />
    </clipPath>
    <clipPath
       clipPathUnits="userSpaceOnUse"
       id="clipPath19">
      <path
         d="M 0,0 H 908.33325 V 782.83984 H 0 Z"
         transform="matrix(0.33467892,0,0,0.33467892,-0.49999999,-0.49999999)"
         clip-rule="evenodd"
         id="path19" />
    </clipPath>
    <clipPath
       clipPathUnits="userSpaceOnUse"
       id="clipPath21">
      <path
         d="M 0,0 H 908.33325 V 782.83984 H 0 Z"
         transform="matrix(0.33467892,0,0,0.33467892,-0.49999999,-0.49999999)"
         clip-rule="evenodd"
         id="path21" />
    </clipPath>
    <clipPath
       clipPathUnits="userSpaceOnUse"
       id="clipPath22">
      <path
         d="M 0,0 H 908.33325 V 782.83984 H 0 Z"
         transform="matrix(0.33467558,0,0,0.33467558,-218.59375,-160.00001)"
         clip-rule="evenodd"
         id="path22" />
    </clipPath>
    <clipPath
       clipPathUnits="userSpaceOnUse"
       id="clipPath24">
      <path
         d="M 0,0 H 908.33325 V 782.83984 H 0 Z"
         transform="matrix(0.33467892,0,0,0.33467892,-0.49999999,-0.49999999)"
         clip-rule="evenodd"
         id="path24" />
    </clipPath>
    <clipPath
       clipPathUnits="userSpaceOnUse"
       id="clipPath26">
      <path
         d="M 0,0 H 908.33325 V 782.83984 H 0 Z"
         transform="matrix(0.33467892,0,0,0.33467892,-0.49999999,-0.49999999)"
         clip-rule="evenodd"
         id="path26" />
    </clipPath>
    <clipPath
       clipPathUnits="userSpaceOnUse"
       id="clipPath28">
      <path
         d="M 0,0 H 908.33325 V 782.83984 H 0 Z"
         transform="matrix(0.33467892,0,0,0.33467892,-0.49999999,-0.49999999)"
         clip-rule="evenodd"
         id="path28" />
    </clipPath>
    <clipPath
       clipPathUnits="userSpaceOnUse"
       id="clipPath29">
      <path
         d="M 0,0 H 908.33325 V 782.83984 H 0 Z"
         transform="matrix(0.33467558,0,0,0.33467558,-201.40625,-210)"
         clip-rule="evenodd"
         id="path29" />
    </clipPath>
  </defs>
  <sodipodi:namedview
     id="namedview1"
     pagecolor="#ffffff"
     bordercolor="#000000"
     borderopacity="0.25"
     inkscape:showpageshadow="2"
     inkscape:pageopacity="0.0"
     inkscape:pagecheckerboard="0"
     inkscape:deskcolor="#d1d1d1">
    <inkscape:page
       x="0"
       y="0"
       inkscape:label="1"
       id="page1"
       width="290.56"
       height="252.16"
       margin="0"
       bleed="0" />
  </sodipodi:namedview>
  <g
     id="g1"
     inkscape:groupmode="layer"
     inkscape:label="1">
    <path
       id="path1"
       d="M 0,0 H 304 V 263 H 0 Z"
       style="fill:#ffffff;fill-opacity:1;fill-rule:nonzero;stroke:none"
       transform="scale(0.95614025)"
       clip-path="url(#clipPath2)" />
    <path
       id="path3"
       d="M 1,20 H 301 V 240 H 1 Z"
       style="fill:#dae8fc;fill-opacity:1;fill-rule:nonzero;stroke:#6c8ebf;stroke-width:1;stroke-linecap:butt;stroke-linejoin:miter;stroke-miterlimit:10;stroke-dasharray:none;stroke-opacity:1"
       transform="matrix(0.95614025,0,0,0.95614025,0.47807012,0.47807012)"
       clip-path="url(#clipPath4)" />
    <text
       id="text4"
       xml:space="preserve"
       transform="matrix(0.95614978,0,0,0.95614978,83.439009,49.719789)"
       clip-path="url(#clipPath5)"><tspan
         style="font-variant:normal;font-weight:700;font-size:24px;font-family:Helvetica;writing-mode:lr-tb;fill:#000000;fill-opacity:1;fill-rule:nonzero;stroke:none"
         x="0 5.7070312 19.054688 28.394531 41.742188 47.449219 54.117188 68.777344 83.4375 90.105469 104.76562 118.11328"
         y="0"
         sodipodi:role="line"
         id="tspan4">'src' Folder</tspan></text>
    <path
       id="path6"
       d="m 11,135 h 105 v 40 H 11 Z"
       style="fill:#ffffff;fill-opacity:1;fill-rule:nonzero;stroke:#000000;stroke-width:1;stroke-linecap:butt;stroke-linejoin:miter;stroke-miterlimit:10;stroke-dasharray:none;stroke-opacity:1"
       transform="matrix(0.95614025,0,0,0.95614025,0.47807012,0.47807012)"
       clip-path="url(#clipPath7)" />
    <text
       id="text7"
       xml:space="preserve"
       transform="matrix(0.95614978,0,0,0.95614978,34.346693,152.98397)"
       clip-path="url(#clipPath8)"><tspan
         style="font-variant:normal;font-weight:normal;font-size:16px;font-family:Helvetica;writing-mode:lr-tb;fill:#000000;fill-opacity:1;fill-rule:nonzero;stroke:none"
         x="0 3.5546875 12.453125 21.351562 30.25 38.25 42.695312 47.140625"
         y="0"
         sodipodi:role="line"
         id="tspan7">index.ts</tspan></text>
    <path
       id="path9"
       d="m 191,105 h -37.5 v 50 h -31.13"
       style="fill:none;stroke:#000000;stroke-width:1;stroke-linecap:butt;stroke-linejoin:miter;stroke-miterlimit:10;stroke-dasharray:none;stroke-opacity:1"
       transform="matrix(0.95614025,0,0,0.95614025,0.47807012,0.47807012)"
       clip-path="url(#clipPath10)" />
    <path
       id="path11"
       d="m 117.12,155 7,-3.5 -1.75,3.5 1.75,3.5 z"
       style="fill:#000000;fill-opacity:1;fill-rule:nonzero;stroke:#000000;stroke-width:1;stroke-linecap:butt;stroke-linejoin:miter;stroke-miterlimit:10;stroke-dasharray:none;stroke-opacity:1"
       transform="matrix(0.95614025,0,0,0.95614025,0.47807012,0.47807012)"
       clip-path="url(#clipPath12)" />
    <path
       id="path13"
       d="m 191,85 h 105 v 40 H 191 Z"
       style="fill:#ffffff;fill-opacity:1;fill-rule:nonzero;stroke:#000000;stroke-width:1;stroke-linecap:butt;stroke-linejoin:miter;stroke-miterlimit:10;stroke-dasharray:none;stroke-opacity:1"
       transform="matrix(0.95614025,0,0,0.95614025,0.47807012,0.47807012)"
       clip-path="url(#clipPath14)" />
    <text
       id="text14"
       xml:space="preserve"
       transform="matrix(0.95614978,0,0,0.95614978,209.85994,105.17648)"
       clip-path="url(#clipPath15)"><tspan
         style="font-variant:normal;font-weight:normal;font-size:16px;font-family:Helvetica;writing-mode:lr-tb;fill:#000000;fill-opacity:1;fill-rule:nonzero;stroke:none"
         x="0 13.328125 22.226562 31.125 35.570312 40.015625"
         y="0"
         sodipodi:role="line"
         id="tspan14">Map.ts</tspan></text>
    <path
       id="path16"
       d="M 191,155 H 122.37"
       style="fill:none;stroke:#000000;stroke-width:1;stroke-linecap:butt;stroke-linejoin:miter;stroke-miterlimit:10;stroke-dasharray:none;stroke-opacity:1"
       transform="matrix(0.95614025,0,0,0.95614025,0.47807012,0.47807012)"
       clip-path="url(#clipPath17)" />
    <path
       id="path18"
       d="m 117.12,155 7,-3.5 -1.75,3.5 1.75,3.5 z"
       style="fill:#000000;fill-opacity:1;fill-rule:nonzero;stroke:#000000;stroke-width:1;stroke-linecap:butt;stroke-linejoin:miter;stroke-miterlimit:10;stroke-dasharray:none;stroke-opacity:1"
       transform="matrix(0.95614025,0,0,0.95614025,0.47807012,0.47807012)"
       clip-path="url(#clipPath19)" />
    <path
       id="path20"
       d="m 191,135 h 105 v 40 H 191 Z"
       style="fill:#ffffff;fill-opacity:1;fill-rule:nonzero;stroke:#000000;stroke-width:1;stroke-linecap:butt;stroke-linejoin:miter;stroke-miterlimit:10;stroke-dasharray:none;stroke-opacity:1"
       transform="matrix(0.95614025,0,0,0.95614025,0.47807012,0.47807012)"
       clip-path="url(#clipPath21)" />
    <text
       id="text21"
       xml:space="preserve"
       transform="matrix(0.95614978,0,0,0.95614978,209.00837,152.98397)"
       clip-path="url(#clipPath22)"><tspan
         style="font-variant:normal;font-weight:normal;font-size:16px;font-family:Helvetica;writing-mode:lr-tb;fill:#000000;fill-opacity:1;fill-rule:nonzero;stroke:none"
         x="0 11.554688 19.554688 28.453125 32.90625 37.351562 41.796875"
         y="0"
         sodipodi:role="line"
         id="tspan21">User.ts</tspan></text>
    <path
       id="path23"
       d="M 191,205 H 153.5 V 155 H 122.37"
       style="fill:none;stroke:#000000;stroke-width:1;stroke-linecap:butt;stroke-linejoin:miter;stroke-miterlimit:10;stroke-dasharray:none;stroke-opacity:1"
       transform="matrix(0.95614025,0,0,0.95614025,0.47807012,0.47807012)"
       clip-path="url(#clipPath24)" />
    <path
       id="path25"
       d="m 117.12,155 7,-3.5 -1.75,3.5 1.75,3.5 z"
       style="fill:#000000;fill-opacity:1;fill-rule:nonzero;stroke:#000000;stroke-width:1;stroke-linecap:butt;stroke-linejoin:miter;stroke-miterlimit:10;stroke-dasharray:none;stroke-opacity:1"
       transform="matrix(0.95614025,0,0,0.95614025,0.47807012,0.47807012)"
       clip-path="url(#clipPath26)" />
    <path
       id="path27"
       d="m 191,185 h 105 v 40 H 191 Z"
       style="fill:#ffffff;fill-opacity:1;fill-rule:nonzero;stroke:#000000;stroke-width:1;stroke-linecap:butt;stroke-linejoin:miter;stroke-miterlimit:10;stroke-dasharray:none;stroke-opacity:1"
       transform="matrix(0.95614025,0,0,0.95614025,0.47807012,0.47807012)"
       clip-path="url(#clipPath28)" />
    <text
       id="text28"
       xml:space="preserve"
       transform="matrix(0.95614978,0,0,0.95614978,192.57454,200.79145)"
       clip-path="url(#clipPath29)"><tspan
         style="font-variant:normal;font-weight:normal;font-size:16px;font-family:Helvetica;writing-mode:lr-tb;fill:#000000;fill-opacity:1;fill-rule:nonzero;stroke:none"
         x="0 11.554688 20.453125 33.78125 42.679688 51.578125 60.476562 67.296875 71.742188 76.1875"
         y="0"
         sodipodi:role="line"
         id="tspan28">Company.ts</tspan></text>
  </g>
</svg>
