<?xml version="1.0" encoding="UTF-8" standalone="no"?>
<!-- Created with Inkscape (http://www.inkscape.org/) -->

<svg
   version="1.1"
   id="svg1"
   width="558.71997"
   height="264"
   viewBox="0 0 558.71997 264"
   sodipodi:docname="ts-6.pdf"
   xmlns:inkscape="http://www.inkscape.org/namespaces/inkscape"
   xmlns:sodipodi="http://sodipodi.sourceforge.net/DTD/sodipodi-0.dtd"
   xmlns="http://www.w3.org/2000/svg"
   xmlns:svg="http://www.w3.org/2000/svg">
  <defs
     id="defs1">
    <clipPath
       clipPathUnits="userSpaceOnUse"
       id="clipPath2">
      <path
         d="M 0,0 H 1745.8333 V 822.09613 H 0 Z"
         transform="scale(0.33451077)"
         clip-rule="evenodd"
         id="path2" />
    </clipPath>
    <clipPath
       clipPathUnits="userSpaceOnUse"
       id="clipPath4">
      <path
         d="M 0,0 H 1745.8333 V 819.10669 H 0 Z"
         transform="matrix(0.33451077,0,0,0.33451077,-0.50000001,-0.50000001)"
         clip-rule="evenodd"
         id="path4" />
    </clipPath>
    <clipPath
       clipPathUnits="userSpaceOnUse"
       id="clipPath5">
      <path
         d="M 0,0 H 1745.8333 V 819.10669 H 0 Z"
         transform="matrix(0.3345074,0,0,0.3345074,-44.28125,-143.99999)"
         clip-rule="evenodd"
         id="path5" />
    </clipPath>
    <clipPath
       clipPathUnits="userSpaceOnUse"
       id="clipPath7">
      <path
         d="M 0,0 H 1745.8333 V 819.10669 H 0 Z"
         transform="matrix(0.33451077,0,0,0.33451077,-0.50000001,-0.50000001)"
         clip-rule="evenodd"
         id="path7" />
    </clipPath>
    <clipPath
       clipPathUnits="userSpaceOnUse"
       id="clipPath9">
      <path
         d="M 0,0 H 1745.8333 V 819.10669 H 0 Z"
         transform="matrix(0.33451077,0,0,0.33451077,-0.50000001,-0.50000001)"
         clip-rule="evenodd"
         id="path9" />
    </clipPath>
    <clipPath
       clipPathUnits="userSpaceOnUse"
       id="clipPath11">
      <path
         d="M 0,0 H 1745.8333 V 819.10669 H 0 Z"
         transform="matrix(0.33451077,0,0,0.33451077,-0.50000001,-0.50000001)"
         clip-rule="evenodd"
         id="path11" />
    </clipPath>
    <clipPath
       clipPathUnits="userSpaceOnUse"
       id="clipPath12">
      <path
         d="M 0,0 H 1745.8333 V 819.10669 H 0 Z"
         transform="matrix(0.3345074,0,0,0.3345074,-421.96875,-48.999999)"
         clip-rule="evenodd"
         id="path12" />
    </clipPath>
    <clipPath
       clipPathUnits="userSpaceOnUse"
       id="clipPath14">
      <path
         d="M 0,0 H 1745.8333 V 819.10669 H 0 Z"
         transform="matrix(0.33451077,0,0,0.33451077,-0.50000001,-0.50000001)"
         clip-rule="evenodd"
         id="path14" />
    </clipPath>
    <clipPath
       clipPathUnits="userSpaceOnUse"
       id="clipPath16">
      <path
         d="M 0,0 H 1745.8333 V 819.10669 H 0 Z"
         transform="matrix(0.33451077,0,0,0.33451077,-0.50000001,-0.50000001)"
         clip-rule="evenodd"
         id="path16" />
    </clipPath>
    <clipPath
       clipPathUnits="userSpaceOnUse"
       id="clipPath18">
      <path
         d="M 0,0 H 1745.8333 V 819.10669 H 0 Z"
         transform="matrix(0.33451077,0,0,0.33451077,-0.50000001,-0.50000001)"
         clip-rule="evenodd"
         id="path18" />
    </clipPath>
    <clipPath
       clipPathUnits="userSpaceOnUse"
       id="clipPath19">
      <path
         d="M 0,0 H 1745.8333 V 819.10669 H 0 Z"
         transform="matrix(0.3345074,0,0,0.3345074,-421.96875,-143.99999)"
         clip-rule="evenodd"
         id="path19" />
    </clipPath>
    <clipPath
       clipPathUnits="userSpaceOnUse"
       id="clipPath21">
      <path
         d="M 0,0 H 1745.8333 V 819.10669 H 0 Z"
         transform="matrix(0.33451077,0,0,0.33451077,-0.50000001,-0.50000001)"
         clip-rule="evenodd"
         id="path21" />
    </clipPath>
    <clipPath
       clipPathUnits="userSpaceOnUse"
       id="clipPath23">
      <path
         d="M 0,0 H 1745.8333 V 819.10669 H 0 Z"
         transform="matrix(0.33451077,0,0,0.33451077,-0.50000001,-0.50000001)"
         clip-rule="evenodd"
         id="path23" />
    </clipPath>
    <clipPath
       clipPathUnits="userSpaceOnUse"
       id="clipPath25">
      <path
         d="M 0,0 H 1745.8333 V 819.10669 H 0 Z"
         transform="matrix(0.33451077,0,0,0.33451077,-0.50000001,-0.50000001)"
         clip-rule="evenodd"
         id="path25" />
    </clipPath>
    <clipPath
       clipPathUnits="userSpaceOnUse"
       id="clipPath26">
      <path
         d="M 0,0 H 1745.8333 V 819.10669 H 0 Z"
         transform="matrix(0.3345074,0,0,0.3345074,-421.96875,-239)"
         clip-rule="evenodd"
         id="path26" />
    </clipPath>
  </defs>
  <sodipodi:namedview
     id="namedview1"
     pagecolor="#ffffff"
     bordercolor="#000000"
     borderopacity="0.25"
     inkscape:showpageshadow="2"
     inkscape:pageopacity="0.0"
     inkscape:pagecheckerboard="0"
     inkscape:deskcolor="#d1d1d1">
    <inkscape:page
       x="0"
       y="0"
       inkscape:label="1"
       id="page1"
       width="558.71997"
       height="264"
       margin="0"
       bleed="0" />
  </sodipodi:namedview>
  <g
     id="g1"
     inkscape:groupmode="layer"
     inkscape:label="1">
    <path
       id="path1"
       d="M 0,0 H 584 V 275 H 0 Z"
       style="fill:#ffffff;fill-opacity:1;fill-rule:nonzero;stroke:none"
       transform="scale(0.95662089)"
       clip-path="url(#clipPath2)" />
    <path
       id="path3"
       d="M 1,81 H 261 V 191 H 1 Z"
       style="fill:#dae8fc;fill-opacity:1;fill-rule:nonzero;stroke:#6c8ebf;stroke-width:1;stroke-linecap:butt;stroke-linejoin:miter;stroke-miterlimit:10;stroke-dasharray:none;stroke-opacity:1"
       transform="matrix(0.95662089,0,0,0.95662089,0.47831045,0.47831045)"
       clip-path="url(#clipPath4)" />
    <text
       id="text4"
       xml:space="preserve"
       transform="matrix(0.95663052,0,0,0.95663052,42.360795,137.75479)"
       clip-path="url(#clipPath5)"><tspan
         style="font-variant:normal;font-weight:normal;font-size:24px;font-family:Helvetica;writing-mode:lr-tb;fill:#000000;fill-opacity:1;fill-rule:nonzero;stroke:none"
         x="0 13.347656 25.347656 38.695312 52.042969 64.042969 76.042969 84.035156 89.367188 102.71484 109.38281 116.05078 133.38281 146.73047 160.07812"
         y="0"
         sodipodi:role="line"
         id="tspan4">Typescript Code</tspan></text>
    <path
       id="path6"
       d="m 371,41 h -55 v 95 h -48.63"
       style="fill:none;stroke:#000000;stroke-width:1;stroke-linecap:butt;stroke-linejoin:miter;stroke-miterlimit:10;stroke-dasharray:none;stroke-opacity:1"
       transform="matrix(0.95662089,0,0,0.95662089,0.47831045,0.47831045)"
       clip-path="url(#clipPath7)" />
    <path
       id="path8"
       d="m 262.12,136 7,-3.5 -1.75,3.5 1.75,3.5 z"
       style="fill:#000000;fill-opacity:1;fill-rule:nonzero;stroke:#000000;stroke-width:1;stroke-linecap:butt;stroke-linejoin:miter;stroke-miterlimit:10;stroke-dasharray:none;stroke-opacity:1"
       transform="matrix(0.95662089,0,0,0.95662089,0.47831045,0.47831045)"
       clip-path="url(#clipPath9)" />
    <path
       id="path10"
       d="M 371,1 H 581 V 81 H 371 Z"
       style="fill:#f8cecc;fill-opacity:1;fill-rule:nonzero;stroke:#b85450;stroke-width:1;stroke-linecap:butt;stroke-linejoin:miter;stroke-miterlimit:10;stroke-dasharray:none;stroke-opacity:1"
       transform="matrix(0.95662089,0,0,0.95662089,0.47831045,0.47831045)"
       clip-path="url(#clipPath11)" />
    <text
       id="text11"
       xml:space="preserve"
       transform="matrix(0.95663052,0,0,0.95663052,403.66818,46.874895)"
       clip-path="url(#clipPath12)"><tspan
         style="font-variant:normal;font-weight:normal;font-size:24px;font-family:Helvetica;writing-mode:lr-tb;fill:#000000;fill-opacity:1;fill-rule:nonzero;stroke:none"
         x="0 12 28.007812 34.675781 48.023438 53.355469 66.703125 74.695312 88.042969 96.035156"
         y="0"
         sodipodi:role="line"
         id="tspan11">JS Library</tspan></text>
    <path
       id="path13"
       d="M 371,136 H 267.37"
       style="fill:none;stroke:#000000;stroke-width:1;stroke-linecap:butt;stroke-linejoin:miter;stroke-miterlimit:10;stroke-dasharray:none;stroke-opacity:1"
       transform="matrix(0.95662089,0,0,0.95662089,0.47831045,0.47831045)"
       clip-path="url(#clipPath14)" />
    <path
       id="path15"
       d="m 262.12,136 7,-3.5 -1.75,3.5 1.75,3.5 z"
       style="fill:#000000;fill-opacity:1;fill-rule:nonzero;stroke:#000000;stroke-width:1;stroke-linecap:butt;stroke-linejoin:miter;stroke-miterlimit:10;stroke-dasharray:none;stroke-opacity:1"
       transform="matrix(0.95662089,0,0,0.95662089,0.47831045,0.47831045)"
       clip-path="url(#clipPath16)" />
    <path
       id="path17"
       d="m 371,96 h 210 v 80 H 371 Z"
       style="fill:#f8cecc;fill-opacity:1;fill-rule:nonzero;stroke:#b85450;stroke-width:1;stroke-linecap:butt;stroke-linejoin:miter;stroke-miterlimit:10;stroke-dasharray:none;stroke-opacity:1"
       transform="matrix(0.95662089,0,0,0.95662089,0.47831045,0.47831045)"
       clip-path="url(#clipPath18)" />
    <text
       id="text18"
       xml:space="preserve"
       transform="matrix(0.95663052,0,0,0.95663052,403.66818,137.75479)"
       clip-path="url(#clipPath19)"><tspan
         style="font-variant:normal;font-weight:normal;font-size:24px;font-family:Helvetica;writing-mode:lr-tb;fill:#000000;fill-opacity:1;fill-rule:nonzero;stroke:none"
         x="0 12 28.007812 34.675781 48.023438 53.355469 66.703125 74.695312 88.042969 96.035156"
         y="0"
         sodipodi:role="line"
         id="tspan18">JS Library</tspan></text>
    <path
       id="path20"
       d="M 371,231 H 316 V 136 H 267.37"
       style="fill:none;stroke:#000000;stroke-width:1;stroke-linecap:butt;stroke-linejoin:miter;stroke-miterlimit:10;stroke-dasharray:none;stroke-opacity:1"
       transform="matrix(0.95662089,0,0,0.95662089,0.47831045,0.47831045)"
       clip-path="url(#clipPath21)" />
    <path
       id="path22"
       d="m 262.12,136 7,-3.5 -1.75,3.5 1.75,3.5 z"
       style="fill:#000000;fill-opacity:1;fill-rule:nonzero;stroke:#000000;stroke-width:1;stroke-linecap:butt;stroke-linejoin:miter;stroke-miterlimit:10;stroke-dasharray:none;stroke-opacity:1"
       transform="matrix(0.95662089,0,0,0.95662089,0.47831045,0.47831045)"
       clip-path="url(#clipPath23)" />
    <path
       id="path24"
       d="m 371,191 h 210 v 80 H 371 Z"
       style="fill:#f8cecc;fill-opacity:1;fill-rule:nonzero;stroke:#b85450;stroke-width:1;stroke-linecap:butt;stroke-linejoin:miter;stroke-miterlimit:10;stroke-dasharray:none;stroke-opacity:1"
       transform="matrix(0.95662089,0,0,0.95662089,0.47831045,0.47831045)"
       clip-path="url(#clipPath25)" />
    <text
       id="text25"
       xml:space="preserve"
       transform="matrix(0.95663052,0,0,0.95663052,403.66818,228.63469)"
       clip-path="url(#clipPath26)"><tspan
         style="font-variant:normal;font-weight:normal;font-size:24px;font-family:Helvetica;writing-mode:lr-tb;fill:#000000;fill-opacity:1;fill-rule:nonzero;stroke:none"
         x="0 12 28.007812 34.675781 48.023438 53.355469 66.703125 74.695312 88.042969 96.035156"
         y="0"
         sodipodi:role="line"
         id="tspan25">JS Library</tspan></text>
  </g>
</svg>
