<?xml version="1.0" encoding="UTF-8" standalone="no"?>
<!-- Created with Inkscape (http://www.inkscape.org/) -->

<svg
   version="1.1"
   id="svg1"
   width="626.56"
   height="264"
   viewBox="0 0 626.56 264"
   sodipodi:docname="ts-7.pdf"
   xmlns:inkscape="http://www.inkscape.org/namespaces/inkscape"
   xmlns:sodipodi="http://sodipodi.sourceforge.net/DTD/sodipodi-0.dtd"
   xmlns="http://www.w3.org/2000/svg"
   xmlns:svg="http://www.w3.org/2000/svg">
  <defs
     id="defs1">
    <clipPath
       clipPathUnits="userSpaceOnUse"
       id="clipPath2">
      <path
         d="M 0,0 H 1958.3333 V 823.45819 H 0 Z"
         transform="scale(0.33395747)"
         clip-rule="evenodd"
         id="path2" />
    </clipPath>
    <clipPath
       clipPathUnits="userSpaceOnUse"
       id="clipPath4">
      <path
         d="M 0,0 H 1958.3333 V 820.46381 H 0 Z"
         transform="matrix(0.33395747,0,0,0.33395747,-0.5,-0.5)"
         clip-rule="evenodd"
         id="path4" />
    </clipPath>
    <clipPath
       clipPathUnits="userSpaceOnUse"
       id="clipPath6">
      <path
         d="M 0,0 H 1958.3333 V 820.46381 H 0 Z"
         transform="matrix(0.33395747,0,0,0.33395747,-0.5,-0.5)"
         clip-rule="evenodd"
         id="path6" />
    </clipPath>
    <clipPath
       clipPathUnits="userSpaceOnUse"
       id="clipPath8">
      <path
         d="M 0,0 H 1958.3333 V 820.46381 H 0 Z"
         transform="matrix(0.33395747,0,0,0.33395747,-0.5,-0.5)"
         clip-rule="evenodd"
         id="path8" />
    </clipPath>
    <clipPath
       clipPathUnits="userSpaceOnUse"
       id="clipPath10">
      <path
         d="M 0,0 H 1958.3333 V 820.46381 H 0 Z"
         transform="matrix(0.33395747,0,0,0.33395747,-0.5,-0.5)"
         clip-rule="evenodd"
         id="path10" />
    </clipPath>
    <clipPath
       clipPathUnits="userSpaceOnUse"
       id="clipPath12">
      <path
         d="M 0,0 H 1958.3333 V 820.46381 H 0 Z"
         transform="matrix(0.33395747,0,0,0.33395747,-0.5,-0.5)"
         clip-rule="evenodd"
         id="path12" />
    </clipPath>
    <clipPath
       clipPathUnits="userSpaceOnUse"
       id="clipPath14">
      <path
         d="M 0,0 H 1958.3333 V 820.46381 H 0 Z"
         transform="matrix(0.33395747,0,0,0.33395747,-0.5,-0.5)"
         clip-rule="evenodd"
         id="path14" />
    </clipPath>
    <clipPath
       clipPathUnits="userSpaceOnUse"
       id="clipPath16">
      <path
         d="M 0,0 H 1958.3333 V 820.46381 H 0 Z"
         transform="matrix(0.33395747,0,0,0.33395747,-0.5,-0.5)"
         clip-rule="evenodd"
         id="path16" />
    </clipPath>
    <clipPath
       clipPathUnits="userSpaceOnUse"
       id="clipPath17">
      <path
         d="M 0,0 H 1958.3333 V 820.46381 H 0 Z"
         transform="matrix(0.33395411,0,0,0.33395411,-26.296875,-130)"
         clip-rule="evenodd"
         id="path17" />
    </clipPath>
    <clipPath
       clipPathUnits="userSpaceOnUse"
       id="clipPath18">
      <path
         d="M 0,0 H 1958.3333 V 820.46381 H 0 Z"
         transform="matrix(0.33395411,0,0,0.33395411,-52.3125,-159)"
         clip-rule="evenodd"
         id="path18" />
    </clipPath>
    <clipPath
       clipPathUnits="userSpaceOnUse"
       id="clipPath20">
      <path
         d="M 0,0 H 1958.3333 V 820.46381 H 0 Z"
         transform="matrix(0.33395747,0,0,0.33395747,-0.5,-0.5)"
         clip-rule="evenodd"
         id="path20" />
    </clipPath>
    <clipPath
       clipPathUnits="userSpaceOnUse"
       id="clipPath21">
      <path
         d="M 0,0 H 1958.3333 V 820.46381 H 0 Z"
         transform="matrix(0.33395411,0,0,0.33395411,-491.96875,-49)"
         clip-rule="evenodd"
         id="path21" />
    </clipPath>
    <clipPath
       clipPathUnits="userSpaceOnUse"
       id="clipPath23">
      <path
         d="M 0,0 H 1958.3333 V 820.46381 H 0 Z"
         transform="matrix(0.33395747,0,0,0.33395747,-0.5,-0.5)"
         clip-rule="evenodd"
         id="path23" />
    </clipPath>
    <clipPath
       clipPathUnits="userSpaceOnUse"
       id="clipPath24">
      <path
         d="M 0,0 H 1958.3333 V 820.46381 H 0 Z"
         transform="matrix(0.33395411,0,0,0.33395411,-491.96875,-143.99999)"
         clip-rule="evenodd"
         id="path24" />
    </clipPath>
    <clipPath
       clipPathUnits="userSpaceOnUse"
       id="clipPath26">
      <path
         d="M 0,0 H 1958.3333 V 820.46381 H 0 Z"
         transform="matrix(0.33395747,0,0,0.33395747,-0.5,-0.5)"
         clip-rule="evenodd"
         id="path26" />
    </clipPath>
    <clipPath
       clipPathUnits="userSpaceOnUse"
       id="clipPath27">
      <path
         d="M 0,0 H 1958.3333 V 820.46381 H 0 Z"
         transform="matrix(0.33395411,0,0,0.33395411,-491.96875,-239)"
         clip-rule="evenodd"
         id="path27" />
    </clipPath>
    <clipPath
       clipPathUnits="userSpaceOnUse"
       id="clipPath29">
      <path
         d="M 0,0 H 1958.3333 V 820.46381 H 0 Z"
         transform="matrix(0.33395747,0,0,0.33395747,-0.5,-0.5)"
         clip-rule="evenodd"
         id="path29" />
    </clipPath>
    <clipPath
       clipPathUnits="userSpaceOnUse"
       id="clipPath31">
      <path
         d="M 0,0 H 1958.3333 V 820.46381 H 0 Z"
         transform="matrix(0.33395747,0,0,0.33395747,-0.5,-0.5)"
         clip-rule="evenodd"
         id="path31" />
    </clipPath>
    <clipPath
       clipPathUnits="userSpaceOnUse"
       id="clipPath33">
      <path
         d="M 0,0 H 1958.3333 V 820.46381 H 0 Z"
         transform="matrix(0.33395747,0,0,0.33395747,-0.5,-0.5)"
         clip-rule="evenodd"
         id="path33" />
    </clipPath>
    <clipPath
       clipPathUnits="userSpaceOnUse"
       id="clipPath34">
      <path
         d="M 0,0 H 1958.3333 V 820.46381 H 0 Z"
         transform="matrix(0.33395411,0,0,0.33395411,-289.96875,-35)"
         clip-rule="evenodd"
         id="path34" />
    </clipPath>
    <clipPath
       clipPathUnits="userSpaceOnUse"
       id="clipPath35">
      <path
         d="M 0,0 H 1958.3333 V 820.46381 H 0 Z"
         transform="matrix(0.33395411,0,0,0.33395411,-249.28124,-64)"
         clip-rule="evenodd"
         id="path35" />
    </clipPath>
    <clipPath
       clipPathUnits="userSpaceOnUse"
       id="clipPath37">
      <path
         d="M 0,0 H 1958.3333 V 820.46381 H 0 Z"
         transform="matrix(0.33395747,0,0,0.33395747,-0.5,-0.5)"
         clip-rule="evenodd"
         id="path37" />
    </clipPath>
    <clipPath
       clipPathUnits="userSpaceOnUse"
       id="clipPath39">
      <path
         d="M 0,0 H 1958.3333 V 820.46381 H 0 Z"
         transform="matrix(0.33395747,0,0,0.33395747,-0.5,-0.5)"
         clip-rule="evenodd"
         id="path39" />
    </clipPath>
    <clipPath
       clipPathUnits="userSpaceOnUse"
       id="clipPath41">
      <path
         d="M 0,0 H 1958.3333 V 820.46381 H 0 Z"
         transform="matrix(0.33395747,0,0,0.33395747,-0.5,-0.5)"
         clip-rule="evenodd"
         id="path41" />
    </clipPath>
    <clipPath
       clipPathUnits="userSpaceOnUse"
       id="clipPath42">
      <path
         d="M 0,0 H 1958.3333 V 820.46381 H 0 Z"
         transform="matrix(0.33395411,0,0,0.33395411,-289.96875,-130)"
         clip-rule="evenodd"
         id="path42" />
    </clipPath>
    <clipPath
       clipPathUnits="userSpaceOnUse"
       id="clipPath43">
      <path
         d="M 0,0 H 1958.3333 V 820.46381 H 0 Z"
         transform="matrix(0.33395411,0,0,0.33395411,-249.28124,-159)"
         clip-rule="evenodd"
         id="path43" />
    </clipPath>
    <clipPath
       clipPathUnits="userSpaceOnUse"
       id="clipPath45">
      <path
         d="M 0,0 H 1958.3333 V 820.46381 H 0 Z"
         transform="matrix(0.33395747,0,0,0.33395747,-0.5,-0.5)"
         clip-rule="evenodd"
         id="path45" />
    </clipPath>
    <clipPath
       clipPathUnits="userSpaceOnUse"
       id="clipPath47">
      <path
         d="M 0,0 H 1958.3333 V 820.46381 H 0 Z"
         transform="matrix(0.33395747,0,0,0.33395747,-0.5,-0.5)"
         clip-rule="evenodd"
         id="path47" />
    </clipPath>
    <clipPath
       clipPathUnits="userSpaceOnUse"
       id="clipPath49">
      <path
         d="M 0,0 H 1958.3333 V 820.46381 H 0 Z"
         transform="matrix(0.33395747,0,0,0.33395747,-0.5,-0.5)"
         clip-rule="evenodd"
         id="path49" />
    </clipPath>
    <clipPath
       clipPathUnits="userSpaceOnUse"
       id="clipPath50">
      <path
         d="M 0,0 H 1958.3333 V 820.46381 H 0 Z"
         transform="matrix(0.33395411,0,0,0.33395411,-289.96875,-225)"
         clip-rule="evenodd"
         id="path50" />
    </clipPath>
    <clipPath
       clipPathUnits="userSpaceOnUse"
       id="clipPath51">
      <path
         d="M 0,0 H 1958.3333 V 820.46381 H 0 Z"
         transform="matrix(0.33395411,0,0,0.33395411,-249.28124,-254)"
         clip-rule="evenodd"
         id="path51" />
    </clipPath>
  </defs>
  <sodipodi:namedview
     id="namedview1"
     pagecolor="#ffffff"
     bordercolor="#000000"
     borderopacity="0.25"
     inkscape:showpageshadow="2"
     inkscape:pageopacity="0.0"
     inkscape:pagecheckerboard="0"
     inkscape:deskcolor="#d1d1d1">
    <inkscape:page
       x="0"
       y="0"
       inkscape:label="1"
       id="page1"
       width="626.56"
       height="264"
       margin="0"
       bleed="0" />
  </sodipodi:namedview>
  <g
     id="g1"
     inkscape:groupmode="layer"
     inkscape:label="1">
    <path
       id="path1"
       d="M 0,0 H 654 V 275 H 0 Z"
       style="fill:#ffffff;fill-opacity:1;fill-rule:nonzero;stroke:none"
       transform="scale(0.95820582)"
       clip-path="url(#clipPath2)" />
    <path
       id="path3"
       d="m 161,136 h 73.63"
       style="fill:none;stroke:#000000;stroke-width:1;stroke-linecap:butt;stroke-linejoin:miter;stroke-miterlimit:10;stroke-dasharray:none;stroke-opacity:1"
       transform="matrix(0.95820582,0,0,0.95820582,0.47910291,0.47910291)"
       clip-path="url(#clipPath4)" />
    <path
       id="path5"
       d="m 239.88,136 -7,3.5 1.75,-3.5 -1.75,-3.5 z"
       style="fill:#000000;fill-opacity:1;fill-rule:nonzero;stroke:#000000;stroke-width:1;stroke-linecap:butt;stroke-linejoin:miter;stroke-miterlimit:10;stroke-dasharray:none;stroke-opacity:1"
       transform="matrix(0.95820582,0,0,0.95820582,0.47910291,0.47910291)"
       clip-path="url(#clipPath6)" />
    <path
       id="path7"
       d="m 161,136 h 40 V 41 h 33.63"
       style="fill:none;stroke:#000000;stroke-width:1;stroke-linecap:butt;stroke-linejoin:miter;stroke-miterlimit:10;stroke-dasharray:none;stroke-opacity:1"
       transform="matrix(0.95820582,0,0,0.95820582,0.47910291,0.47910291)"
       clip-path="url(#clipPath8)" />
    <path
       id="path9"
       d="m 239.88,41 -7,3.5 1.75,-3.5 -1.75,-3.5 z"
       style="fill:#000000;fill-opacity:1;fill-rule:nonzero;stroke:#000000;stroke-width:1;stroke-linecap:butt;stroke-linejoin:miter;stroke-miterlimit:10;stroke-dasharray:none;stroke-opacity:1"
       transform="matrix(0.95820582,0,0,0.95820582,0.47910291,0.47910291)"
       clip-path="url(#clipPath10)" />
    <path
       id="path11"
       d="m 161,136 h 40 v 95 h 33.63"
       style="fill:none;stroke:#000000;stroke-width:1;stroke-linecap:butt;stroke-linejoin:miter;stroke-miterlimit:10;stroke-dasharray:none;stroke-opacity:1"
       transform="matrix(0.95820582,0,0,0.95820582,0.47910291,0.47910291)"
       clip-path="url(#clipPath12)" />
    <path
       id="path13"
       d="m 239.88,231 -7,3.5 1.75,-3.5 -1.75,-3.5 z"
       style="fill:#000000;fill-opacity:1;fill-rule:nonzero;stroke:#000000;stroke-width:1;stroke-linecap:butt;stroke-linejoin:miter;stroke-miterlimit:10;stroke-dasharray:none;stroke-opacity:1"
       transform="matrix(0.95820582,0,0,0.95820582,0.47910291,0.47910291)"
       clip-path="url(#clipPath14)" />
    <path
       id="path15"
       d="M 1,81 H 161 V 191 H 1 Z"
       style="fill:#dae8fc;fill-opacity:1;fill-rule:nonzero;stroke:#6c8ebf;stroke-width:1;stroke-linecap:butt;stroke-linejoin:miter;stroke-miterlimit:10;stroke-dasharray:none;stroke-opacity:1"
       transform="matrix(0.95820582,0,0,0.95820582,0.47910291,0.47910291)"
       clip-path="url(#clipPath16)" />
    <text
       id="text16"
       xml:space="preserve"
       transform="matrix(0.95821545,0,0,0.95821545,25.198072,124.56801)"
       clip-path="url(#clipPath17)"><tspan
         style="font-variant:normal;font-weight:normal;font-size:24px;font-family:Helvetica;writing-mode:lr-tb;fill:#000000;fill-opacity:1;fill-rule:nonzero;stroke:none"
         x="0 13.347656 25.347656 38.695312 52.042969 64.042969 76.042969 84.035156 89.367188 102.71484"
         y="0"
         sodipodi:role="line"
         id="tspan16">Typescript</tspan></text>
    <text
       id="text17"
       xml:space="preserve"
       transform="matrix(0.95821545,0,0,0.95821545,50.126646,152.35626)"
       clip-path="url(#clipPath18)"><tspan
         style="font-variant:normal;font-weight:normal;font-size:24px;font-family:Helvetica;writing-mode:lr-tb;fill:#000000;fill-opacity:1;fill-rule:nonzero;stroke:none"
         x="0 17.332031 30.679688 44.027344"
         y="0"
         sodipodi:role="line"
         id="tspan17">Code</tspan></text>
    <path
       id="path19"
       d="M 441,1 H 651 V 81 H 441 Z"
       style="fill:#f8cecc;fill-opacity:1;fill-rule:nonzero;stroke:#b85450;stroke-width:1;stroke-linecap:butt;stroke-linejoin:miter;stroke-miterlimit:10;stroke-dasharray:none;stroke-opacity:1"
       transform="matrix(0.95820582,0,0,0.95820582,0.47910291,0.47910291)"
       clip-path="url(#clipPath20)" />
    <text
       id="text20"
       xml:space="preserve"
       transform="matrix(0.95821545,0,0,0.95821545,471.41206,46.952557)"
       clip-path="url(#clipPath21)"><tspan
         style="font-variant:normal;font-weight:normal;font-size:24px;font-family:Helvetica;writing-mode:lr-tb;fill:#000000;fill-opacity:1;fill-rule:nonzero;stroke:none"
         x="0 12 28.007812 34.675781 48.023438 53.355469 66.703125 74.695312 88.042969 96.035156"
         y="0"
         sodipodi:role="line"
         id="tspan20">JS Library</tspan></text>
    <path
       id="path22"
       d="m 441,96 h 210 v 80 H 441 Z"
       style="fill:#f8cecc;fill-opacity:1;fill-rule:nonzero;stroke:#b85450;stroke-width:1;stroke-linecap:butt;stroke-linejoin:miter;stroke-miterlimit:10;stroke-dasharray:none;stroke-opacity:1"
       transform="matrix(0.95820582,0,0,0.95820582,0.47910291,0.47910291)"
       clip-path="url(#clipPath23)" />
    <text
       id="text23"
       xml:space="preserve"
       transform="matrix(0.95821545,0,0,0.95821545,471.41206,137.98302)"
       clip-path="url(#clipPath24)"><tspan
         style="font-variant:normal;font-weight:normal;font-size:24px;font-family:Helvetica;writing-mode:lr-tb;fill:#000000;fill-opacity:1;fill-rule:nonzero;stroke:none"
         x="0 12 28.007812 34.675781 48.023438 53.355469 66.703125 74.695312 88.042969 96.035156"
         y="0"
         sodipodi:role="line"
         id="tspan23">JS Library</tspan></text>
    <path
       id="path25"
       d="m 441,191 h 210 v 80 H 441 Z"
       style="fill:#f8cecc;fill-opacity:1;fill-rule:nonzero;stroke:#b85450;stroke-width:1;stroke-linecap:butt;stroke-linejoin:miter;stroke-miterlimit:10;stroke-dasharray:none;stroke-opacity:1"
       transform="matrix(0.95820582,0,0,0.95820582,0.47910291,0.47910291)"
       clip-path="url(#clipPath26)" />
    <text
       id="text26"
       xml:space="preserve"
       transform="matrix(0.95821545,0,0,0.95821545,471.41206,229.01349)"
       clip-path="url(#clipPath27)"><tspan
         style="font-variant:normal;font-weight:normal;font-size:24px;font-family:Helvetica;writing-mode:lr-tb;fill:#000000;fill-opacity:1;fill-rule:nonzero;stroke:none"
         x="0 12 28.007812 34.675781 48.023438 53.355469 66.703125 74.695312 88.042969 96.035156"
         y="0"
         sodipodi:role="line"
         id="tspan26">JS Library</tspan></text>
    <path
       id="path28"
       d="m 391,41 h 43.64001"
       style="fill:none;stroke:#000000;stroke-width:1;stroke-linecap:butt;stroke-linejoin:miter;stroke-miterlimit:10;stroke-dasharray:none;stroke-opacity:1"
       transform="matrix(0.95820582,0,0,0.95820582,0.47910291,0.47910291)"
       clip-path="url(#clipPath29)" />
    <path
       id="path30"
       d="m 439.89001,41 -7,3.5 1.75,-3.5 -1.75,-3.5 z"
       style="fill:#000000;fill-opacity:1;fill-rule:nonzero;stroke:#000000;stroke-width:1;stroke-linecap:butt;stroke-linejoin:miter;stroke-miterlimit:10;stroke-dasharray:none;stroke-opacity:1"
       transform="matrix(0.95820582,0,0,0.95820582,0.47910291,0.47910291)"
       clip-path="url(#clipPath31)" />
    <path
       id="path32"
       d="M 241,1 H 391 V 81 H 241 Z"
       style="fill:#d5e8d4;fill-opacity:1;fill-rule:nonzero;stroke:#82b366;stroke-width:1;stroke-linecap:butt;stroke-linejoin:miter;stroke-miterlimit:10;stroke-dasharray:none;stroke-opacity:1"
       transform="matrix(0.95820582,0,0,0.95820582,0.47910291,0.47910291)"
       clip-path="url(#clipPath33)" />
    <text
       id="text33"
       xml:space="preserve"
       transform="matrix(0.95821545,0,0,0.95821545,277.85254,33.537541)"
       clip-path="url(#clipPath34)"><tspan
         style="font-variant:normal;font-weight:normal;font-size:24px;font-family:Helvetica;writing-mode:lr-tb;fill:#000000;fill-opacity:1;fill-rule:nonzero;stroke:none"
         x="0 13.347656 25.347656 38.695312"
         y="0"
         sodipodi:role="line"
         id="tspan33">Type</tspan></text>
    <g
       id="g34" />
    <g
       id="g35" />
    <text
       id="text35"
       xml:space="preserve"
       transform="matrix(0.95821545,0,0,0.95821545,238.86514,61.325789)"
       clip-path="url(#clipPath35)"><tspan
         style="font-variant:normal;font-weight:normal;font-size:24px;font-family:Helvetica;writing-mode:lr-tb;fill:#000000;fill-opacity:1;fill-rule:nonzero;stroke:none"
         x="0 13.347656 26.695312 38.695312 52.042969 57.375 64.042969 69.375 82.722656 96.070312 102.73828 114.73828 120.07031"
         y="0"
         sodipodi:role="line"
         id="tspan35">deﬁnition ﬁle</tspan></text>
    <path
       id="path36"
       d="m 391,136 h 43.64001"
       style="fill:none;stroke:#000000;stroke-width:1;stroke-linecap:butt;stroke-linejoin:miter;stroke-miterlimit:10;stroke-dasharray:none;stroke-opacity:1"
       transform="matrix(0.95820582,0,0,0.95820582,0.47910291,0.47910291)"
       clip-path="url(#clipPath37)" />
    <path
       id="path38"
       d="m 439.89001,136 -7,3.5 1.75,-3.5 -1.75,-3.5 z"
       style="fill:#000000;fill-opacity:1;fill-rule:nonzero;stroke:#000000;stroke-width:1;stroke-linecap:butt;stroke-linejoin:miter;stroke-miterlimit:10;stroke-dasharray:none;stroke-opacity:1"
       transform="matrix(0.95820582,0,0,0.95820582,0.47910291,0.47910291)"
       clip-path="url(#clipPath39)" />
    <path
       id="path40"
       d="m 241,96 h 150 v 80 H 241 Z"
       style="fill:#d5e8d4;fill-opacity:1;fill-rule:nonzero;stroke:#82b366;stroke-width:1;stroke-linecap:butt;stroke-linejoin:miter;stroke-miterlimit:10;stroke-dasharray:none;stroke-opacity:1"
       transform="matrix(0.95820582,0,0,0.95820582,0.47910291,0.47910291)"
       clip-path="url(#clipPath41)" />
    <text
       id="text41"
       xml:space="preserve"
       transform="matrix(0.95821545,0,0,0.95821545,277.85254,124.56801)"
       clip-path="url(#clipPath42)"><tspan
         style="font-variant:normal;font-weight:normal;font-size:24px;font-family:Helvetica;writing-mode:lr-tb;fill:#000000;fill-opacity:1;fill-rule:nonzero;stroke:none"
         x="0 13.347656 25.347656 38.695312"
         y="0"
         sodipodi:role="line"
         id="tspan41">Type</tspan></text>
    <g
       id="g42" />
    <g
       id="g43" />
    <text
       id="text43"
       xml:space="preserve"
       transform="matrix(0.95821545,0,0,0.95821545,238.86514,152.35626)"
       clip-path="url(#clipPath43)"><tspan
         style="font-variant:normal;font-weight:normal;font-size:24px;font-family:Helvetica;writing-mode:lr-tb;fill:#000000;fill-opacity:1;fill-rule:nonzero;stroke:none"
         x="0 13.347656 26.695312 38.695312 52.042969 57.375 64.042969 69.375 82.722656 96.070312 102.73828 114.73828 120.07031"
         y="0"
         sodipodi:role="line"
         id="tspan43">deﬁnition ﬁle</tspan></text>
    <path
       id="path44"
       d="m 391,231 h 43.64001"
       style="fill:none;stroke:#000000;stroke-width:1;stroke-linecap:butt;stroke-linejoin:miter;stroke-miterlimit:10;stroke-dasharray:none;stroke-opacity:1"
       transform="matrix(0.95820582,0,0,0.95820582,0.47910291,0.47910291)"
       clip-path="url(#clipPath45)" />
    <path
       id="path46"
       d="m 439.89001,231 -7,3.5 1.75,-3.5 -1.75,-3.5 z"
       style="fill:#000000;fill-opacity:1;fill-rule:nonzero;stroke:#000000;stroke-width:1;stroke-linecap:butt;stroke-linejoin:miter;stroke-miterlimit:10;stroke-dasharray:none;stroke-opacity:1"
       transform="matrix(0.95820582,0,0,0.95820582,0.47910291,0.47910291)"
       clip-path="url(#clipPath47)" />
    <path
       id="path48"
       d="m 241,191 h 150 v 80 H 241 Z"
       style="fill:#d5e8d4;fill-opacity:1;fill-rule:nonzero;stroke:#82b366;stroke-width:1;stroke-linecap:butt;stroke-linejoin:miter;stroke-miterlimit:10;stroke-dasharray:none;stroke-opacity:1"
       transform="matrix(0.95820582,0,0,0.95820582,0.47910291,0.47910291)"
       clip-path="url(#clipPath49)" />
    <text
       id="text49"
       xml:space="preserve"
       transform="matrix(0.95821545,0,0,0.95821545,277.85254,215.59848)"
       clip-path="url(#clipPath50)"><tspan
         style="font-variant:normal;font-weight:normal;font-size:24px;font-family:Helvetica;writing-mode:lr-tb;fill:#000000;fill-opacity:1;fill-rule:nonzero;stroke:none"
         x="0 13.347656 25.347656 38.695312"
         y="0"
         sodipodi:role="line"
         id="tspan49">Type</tspan></text>
    <g
       id="g50" />
    <g
       id="g51" />
    <text
       id="text51"
       xml:space="preserve"
       transform="matrix(0.95821545,0,0,0.95821545,238.86514,243.38672)"
       clip-path="url(#clipPath51)"><tspan
         style="font-variant:normal;font-weight:normal;font-size:24px;font-family:Helvetica;writing-mode:lr-tb;fill:#000000;fill-opacity:1;fill-rule:nonzero;stroke:none"
         x="0 13.347656 26.695312 38.695312 52.042969 57.375 64.042969 69.375 82.722656 96.070312 102.73828 114.73828 120.07031"
         y="0"
         sodipodi:role="line"
         id="tspan51">deﬁnition ﬁle</tspan></text>
  </g>
</svg>
