<?xml version="1.0" encoding="UTF-8" standalone="no"?>
<!-- Created with Inkscape (http://www.inkscape.org/) -->

<svg
   version="1.1"
   id="svg1"
   width="634.56"
   height="310.72"
   viewBox="0 0 634.56 310.72"
   sodipodi:docname="ts-9.pdf"
   xmlns:inkscape="http://www.inkscape.org/namespaces/inkscape"
   xmlns:sodipodi="http://sodipodi.sourceforge.net/DTD/sodipodi-0.dtd"
   xmlns="http://www.w3.org/2000/svg"
   xmlns:svg="http://www.w3.org/2000/svg">
  <defs
     id="defs1">
    <clipPath
       clipPathUnits="userSpaceOnUse"
       id="clipPath2">
      <path
         d="M 0,0 H 1983.3333 V 969.23077 H 0 Z"
         transform="scale(0.33428572)"
         clip-rule="evenodd"
         id="path2" />
    </clipPath>
    <clipPath
       clipPathUnits="userSpaceOnUse"
       id="clipPath3">
      <path
         d="M 0,0 H 1983.3333 V 963.24786 H 0 Z"
         transform="matrix(0.33428236,0,0,0.33428236,-118.48437,-23)"
         clip-rule="evenodd"
         id="path3" />
    </clipPath>
    <clipPath
       clipPathUnits="userSpaceOnUse"
       id="clipPath5">
      <path
         d="M 0,0 H 1983.3333 V 963.24786 H 0 Z"
         transform="matrix(0.33428572,0,0,0.33428572,-0.50000001,-0.50000001)"
         clip-rule="evenodd"
         id="path5" />
    </clipPath>
    <clipPath
       clipPathUnits="userSpaceOnUse"
       id="clipPath6">
      <path
         d="M 0,0 H 1983.3333 V 963.24786 H 0 Z"
         transform="matrix(0.33428236,0,0,0.33428236,-11.125,-51.000001)"
         clip-rule="evenodd"
         id="path6" />
    </clipPath>
    <clipPath
       clipPathUnits="userSpaceOnUse"
       id="clipPath7">
      <path
         d="M 0,0 H 1983.3333 V 963.24786 H 0 Z"
         transform="matrix(0.33428236,0,0,0.33428236,-181.625,-73)"
         clip-rule="evenodd"
         id="path7" />
    </clipPath>
    <clipPath
       clipPathUnits="userSpaceOnUse"
       id="clipPath9">
      <path
         d="M 0,0 H 1983.3333 V 963.24786 H 0 Z"
         transform="matrix(0.33428572,0,0,0.33428572,-0.50000001,-0.50000001)"
         clip-rule="evenodd"
         id="path9" />
    </clipPath>
    <clipPath
       clipPathUnits="userSpaceOnUse"
       id="clipPath10">
      <path
         d="M 0,0 H 1983.3333 V 963.24786 H 0 Z"
         transform="matrix(0.33428236,0,0,0.33428236,-8.703125,-111)"
         clip-rule="evenodd"
         id="path10" />
    </clipPath>
    <clipPath
       clipPathUnits="userSpaceOnUse"
       id="clipPath11">
      <path
         d="M 0,0 H 1983.3333 V 963.24786 H 0 Z"
         transform="matrix(0.33428236,0,0,0.33428236,-62.578125,-133)"
         clip-rule="evenodd"
         id="path11" />
    </clipPath>
    <clipPath
       clipPathUnits="userSpaceOnUse"
       id="clipPath13">
      <path
         d="M 0,0 H 1983.3333 V 963.24786 H 0 Z"
         transform="matrix(-0.33428572,0,0,-0.33428572,1002.52,110.5)"
         clip-rule="evenodd"
         id="path13" />
    </clipPath>
    <clipPath
       clipPathUnits="userSpaceOnUse"
       id="clipPath14">
      <path
         d="M 0,0 H 1983.3333 V 963.24786 H 0 Z"
         transform="matrix(0.33428236,0,0,0.33428236,-513,-47)"
         clip-rule="evenodd"
         id="path14" />
    </clipPath>
    <clipPath
       clipPathUnits="userSpaceOnUse"
       id="clipPath15">
      <path
         d="M 0,0 H 1983.3333 V 963.24786 H 0 Z"
         transform="matrix(0.33428236,0,0,0.33428236,-513,-61)"
         clip-rule="evenodd"
         id="path15" />
    </clipPath>
    <clipPath
       clipPathUnits="userSpaceOnUse"
       id="clipPath16">
      <path
         d="M 0,0 H 1983.3333 V 963.24786 H 0 Z"
         transform="matrix(0.33428236,0,0,0.33428236,-513,-76.000001)"
         clip-rule="evenodd"
         id="path16" />
    </clipPath>
    <clipPath
       clipPathUnits="userSpaceOnUse"
       id="clipPath18">
      <path
         d="M 0,0 H 1983.3333 V 963.24786 H 0 Z"
         transform="matrix(0.33428572,0,0,0.33428572,-0.50000001,-0.50000001)"
         clip-rule="evenodd"
         id="path18" />
    </clipPath>
    <clipPath
       clipPathUnits="userSpaceOnUse"
       id="clipPath19">
      <path
         d="M 0,0 H 1983.3333 V 963.24786 H 0 Z"
         transform="matrix(0.33428236,0,0,0.33428236,-78.921875,-182)"
         clip-rule="evenodd"
         id="path19" />
    </clipPath>
    <clipPath
       clipPathUnits="userSpaceOnUse"
       id="clipPath21">
      <path
         d="M 0,0 H 1983.3333 V 963.24786 H 0 Z"
         transform="matrix(0.33428572,0,0,0.33428572,-0.50000001,-0.50000001)"
         clip-rule="evenodd"
         id="path21" />
    </clipPath>
    <clipPath
       clipPathUnits="userSpaceOnUse"
       id="clipPath22">
      <path
         d="M 0,0 H 1983.3333 V 963.24786 H 0 Z"
         transform="matrix(0.33428236,0,0,0.33428236,-20.140625,-231)"
         clip-rule="evenodd"
         id="path22" />
    </clipPath>
    <clipPath
       clipPathUnits="userSpaceOnUse"
       id="clipPath23">
      <path
         d="M 0,0 H 1983.3333 V 963.24786 H 0 Z"
         transform="matrix(0.33428236,0,0,0.33428236,-135.20313,-231)"
         clip-rule="evenodd"
         id="path23" />
    </clipPath>
    <clipPath
       clipPathUnits="userSpaceOnUse"
       id="clipPath24">
      <path
         d="M 0,0 H 1983.3333 V 963.24786 H 0 Z"
         transform="matrix(0.33428236,0,0,0.33428236,-217.20411,-231)"
         clip-rule="evenodd"
         id="path24" />
    </clipPath>
    <clipPath
       clipPathUnits="userSpaceOnUse"
       id="clipPath25">
      <path
         d="M 0,0 H 1983.3333 V 963.24786 H 0 Z"
         transform="matrix(0.33428236,0,0,0.33428236,-204.96875,-253)"
         clip-rule="evenodd"
         id="path25" />
    </clipPath>
    <clipPath
       clipPathUnits="userSpaceOnUse"
       id="clipPath27">
      <path
         d="M 0,0 H 1983.3333 V 963.24786 H 0 Z"
         transform="matrix(-0.33428572,0,0,-0.33428572,1002.52,350.50001)"
         clip-rule="evenodd"
         id="path27" />
    </clipPath>
    <clipPath
       clipPathUnits="userSpaceOnUse"
       id="clipPath28">
      <path
         d="M 0,0 H 1983.3333 V 963.24786 H 0 Z"
         transform="matrix(0.33428236,0,0,0.33428236,-513,-168)"
         clip-rule="evenodd"
         id="path28" />
    </clipPath>
    <clipPath
       clipPathUnits="userSpaceOnUse"
       id="clipPath29">
      <path
         d="M 0,0 H 1983.3333 V 963.24786 H 0 Z"
         transform="matrix(0.33428236,0,0,0.33428236,-513,-182)"
         clip-rule="evenodd"
         id="path29" />
    </clipPath>
    <clipPath
       clipPathUnits="userSpaceOnUse"
       id="clipPath30">
      <path
         d="M 0,0 H 1983.3333 V 963.24786 H 0 Z"
         transform="matrix(0.33428236,0,0,0.33428236,-513,-197)"
         clip-rule="evenodd"
         id="path30" />
    </clipPath>
    <clipPath
       clipPathUnits="userSpaceOnUse"
       id="clipPath32">
      <path
         d="M 0,0 H 1983.3333 V 963.24786 H 0 Z"
         transform="matrix(0.33428572,0,0,0.33428572,-0.50000001,-0.50000001)"
         clip-rule="evenodd"
         id="path32" />
    </clipPath>
    <clipPath
       clipPathUnits="userSpaceOnUse"
       id="clipPath33">
      <path
         d="M 0,0 H 1983.3333 V 963.24786 H 0 Z"
         transform="matrix(0.33428236,0,0,0.33428236,-33.046875,-291)"
         clip-rule="evenodd"
         id="path33" />
    </clipPath>
    <clipPath
       clipPathUnits="userSpaceOnUse"
       id="clipPath34">
      <path
         d="M 0,0 H 1983.3333 V 963.24786 H 0 Z"
         transform="matrix(0.33428236,0,0,0.33428236,-208.82813,-291)"
         clip-rule="evenodd"
         id="path34" />
    </clipPath>
    <clipPath
       clipPathUnits="userSpaceOnUse"
       id="clipPath35">
      <path
         d="M 0,0 H 1983.3333 V 963.24786 H 0 Z"
         transform="matrix(0.33428236,0,0,0.33428236,-281.85938,-291)"
         clip-rule="evenodd"
         id="path35" />
    </clipPath>
    <clipPath
       clipPathUnits="userSpaceOnUse"
       id="clipPath36">
      <path
         d="M 0,0 H 1983.3333 V 963.24786 H 0 Z"
         transform="matrix(0.33428236,0,0,0.33428236,-119.92188,-313)"
         clip-rule="evenodd"
         id="path36" />
    </clipPath>
  </defs>
  <sodipodi:namedview
     id="namedview1"
     pagecolor="#ffffff"
     bordercolor="#000000"
     borderopacity="0.25"
     inkscape:showpageshadow="2"
     inkscape:pageopacity="0.0"
     inkscape:pagecheckerboard="0"
     inkscape:deskcolor="#d1d1d1">
    <inkscape:page
       x="0"
       y="0"
       inkscape:label="1"
       id="page1"
       width="634.56"
       height="310.72"
       margin="0"
       bleed="0" />
  </sodipodi:namedview>
  <g
     id="g1"
     inkscape:groupmode="layer"
     inkscape:label="1">
    <path
       id="path1"
       d="M 0,0 H 663 V 324 H 0 Z"
       style="fill:#ffffff;fill-opacity:1;fill-rule:nonzero;stroke:none"
       transform="scale(0.95726489)"
       clip-path="url(#clipPath2)" />
    <text
       id="text2"
       xml:space="preserve"
       transform="matrix(0.95727452,0,0,0.95727452,113.42207,22.017314)"
       clip-path="url(#clipPath3)"><tspan
         style="font-variant:normal;font-weight:700;font-size:24px;font-family:Helvetica;writing-mode:lr-tb;fill:#000000;fill-opacity:1;fill-rule:nonzero;stroke:none"
         x="0 17.332031 24 37.347656 50.695312 64.042969 77.390625 90.738281 97.40625 104.07422 118.73438 125.40234 138.29297 151.64062 166.30078 179.64844 192.99609 206.34375 215.68359 222.35156 237.01172"
         y="0"
         sodipodi:role="line"
         id="tspan2">Classes in Typescript</tspan></text>
    <path
       id="path4"
       d="M 1,30 H 481 V 80 H 1 Z"
       style="fill:#ffffff;fill-opacity:1;fill-rule:nonzero;stroke:#000000;stroke-width:1;stroke-linecap:butt;stroke-linejoin:miter;stroke-miterlimit:10;stroke-dasharray:none;stroke-opacity:1"
       transform="matrix(0.95726489,0,0,0.95726489,0.47863245,0.47863245)"
       clip-path="url(#clipPath5)" />
    <text
       id="text5"
       xml:space="preserve"
       transform="matrix(0.95727452,0,0,0.95727452,10.649679,48.821001)"
       clip-path="url(#clipPath6)"><tspan
         style="font-variant:normal;font-weight:normal;font-size:18px;font-family:Helvetica;writing-mode:lr-tb;fill:#000000;fill-opacity:1;fill-rule:nonzero;stroke:none"
         x="0 12.999023 16.998047 27.008789 36.008789 45.008789 55.019531 64.019531 69.020508 79.532227 84.533203 88.532227 98.542969 103.54395 113.55469 119.54883 124.5498 134.56055 143.56055 153.57129 162.57129 167.57227 171.57129 180.57129 185.57227 195.58301 200.58398 205.58496 210.58594 220.59668 230.60742 235.6084 245.61914 255.62988 264.62988 269.63086 274.63184 287.63086 297.6416 306.6416 315.6416 320.64258 325.64355 335.6543 340.65527 350.66602 360.67676 365.67773 370.67871 379.67871 389.68945 399.7002 409.71094 414.71191 420.70605 430.7168 440.72754 449.72754"
         y="0"
         sodipodi:role="line"
         id="tspan5">Classes + interfaces is of the best ways to get code reuse</tspan></text>
    <text
       id="text6"
       xml:space="preserve"
       transform="matrix(0.95727452,0,0,0.95727452,173.86498,69.88104)"
       clip-path="url(#clipPath7)"><tspan
         style="font-variant:normal;font-weight:normal;font-size:18px;font-family:Helvetica;writing-mode:lr-tb;fill:#000000;fill-opacity:1;fill-rule:nonzero;stroke:none"
         x="0 12.999023 16.998047 21.999023 32.009766 36.694336 46.705078 55.705078 65.71582 75.726562 84.726562 93.726562 99.720703 103.71973 113.73047"
         y="0"
         sodipodi:role="line"
         id="tspan6">with Typescript</tspan></text>
    <path
       id="path8"
       d="m 1,90 h 480 v 50 H 1 Z"
       style="fill:#ffffff;fill-opacity:1;fill-rule:nonzero;stroke:#000000;stroke-width:1;stroke-linecap:butt;stroke-linejoin:miter;stroke-miterlimit:10;stroke-dasharray:none;stroke-opacity:1"
       transform="matrix(0.95726489,0,0,0.95726489,0.47863245,0.47863245)"
       clip-path="url(#clipPath9)" />
    <text
       id="text9"
       xml:space="preserve"
       transform="matrix(0.95727452,0,0,0.95727452,8.3312798,106.25747)"
       clip-path="url(#clipPath10)"><tspan
         style="font-variant:normal;font-weight:normal;font-size:18px;font-family:Helvetica;writing-mode:lr-tb;fill:#000000;fill-opacity:1;fill-rule:nonzero;stroke:none"
         x="0 16.672852 26.683594 31.68457 44.683594 48.682617 52.681641 56.680664 61.681641 71.692383 81.703125 86.704102 96.714844 105.71484 109.71387 119.72461 129.73535 134.73633 143.73633 147.73535 157.74609 166.74609 175.74609 185.75684 194.75684 199.75781 209.76855 219.7793 229.79004 238.79004 242.78906 246.78809 255.78809 260.78906 265.79004 275.80078 280.80176 295.7959 305.80664 315.81738 325.82812 329.82715 334.82812 344.83887 348.83789 353.52246 358.52344 368.53418 374.52832 384.53906 394.5498 399.55078 404.55176 410.5459 420.55664 429.55664 439.56738 445.56152 455.57227"
         y="0"
         sodipodi:role="line"
         id="tspan9">We will be using classes heavily to model different records</tspan></text>
    <text
       id="text10"
       xml:space="preserve"
       transform="matrix(0.95727452,0,0,0.95727452,59.904445,127.31751)"
       clip-path="url(#clipPath11)"><tspan
         style="font-variant:normal;font-weight:normal;font-size:18px;font-family:Helvetica;writing-mode:lr-tb;fill:#000000;fill-opacity:1;fill-rule:nonzero;stroke:none"
         x="0 5.9941406 18.993164 27.993164 38.003906 43.998047 52.998047 57.999023 63 75.999023 86.009766 101.00391 111.01465 121.02539 131.03613 135.03516 145.0459 154.0459 159.04688 164.04785 176.05371 180.05273 190.06348 200.07422 205.0752 217.08105 227.0918 236.0918 241.09277 250.09277 255.09375 259.77832 269.78906 282.78809 292.79883 302.80957 307.81055 316.81055 321.81152 326.8125 336.82324 341.82422 350.82422"
         y="0"
         sodipodi:role="line"
         id="tspan10">(Users, Companies, Blog Posts, Tweets, etc)</tspan></text>
    <path
       id="path12"
       d="m 511.01001,30 h -5 c -3.33334,0 -5,3.333332 -5,10 v 7.5 c 0,5 -1.67001,7.5 -5.01001,7.5 h -2.5 c -1.66666,0 -0.83334,0 2.5,0 h 2.5 c 1.67334,0 2.51001,3.333332 2.51001,10 v 7.5 c 0,5 1.66666,7.5 5,7.5 h 5"
       style="fill:none;stroke:#000000;stroke-width:1;stroke-linecap:butt;stroke-linejoin:miter;stroke-miterlimit:10;stroke-dasharray:none;stroke-opacity:1"
       transform="matrix(-0.95726489,0,0,-0.95726489,959.67724,105.77777)"
       clip-path="url(#clipPath13)" />
    <text
       id="text13"
       xml:space="preserve"
       transform="matrix(0.95727452,0,0,0.95727452,491.08183,44.991902)"
       clip-path="url(#clipPath14)"><tspan
         style="font-style:oblique;font-variant:normal;font-weight:normal;font-size:12px;font-family:Helvetica;writing-mode:lr-tb;fill:#000000;fill-opacity:1;fill-rule:nonzero;stroke:none"
         x="0 11.115234 17.789062 21.123047 29.789062 32.455078 35.121094 37.787109 41.121094 47.794922 50.460938 56.460938 62.460938 69.134766 75.134766 81.134766 84.46875 86.759766 89.425781 96.099609 102.77344 109.44727 113.44336 116.10938 119.44336 126.11719 132.79102 138.79102"
         y="0"
         sodipodi:role="line"
         id="tspan13">We will discuss 'inheritance</tspan></text>
    <text
       id="text14"
       xml:space="preserve"
       transform="matrix(0.95727452,0,0,0.95727452,491.08183,58.393746)"
       clip-path="url(#clipPath15)"><tspan
         style="font-style:oblique;font-variant:normal;font-weight:normal;font-size:12px;font-family:Helvetica;writing-mode:lr-tb;fill:#000000;fill-opacity:1;fill-rule:nonzero;stroke:none"
         x="0 6 12 15.333984 21.333984 28.007812 38.003906 44.677734 51.351562 57.351562 60.017578 63.351562 66.017578 72.691406 79.365234 81.65625 84.990234 91.664062 94.998047 98.332031 105.00586 109.00195 115.67578 122.34961"
         y="0"
         sodipodi:role="line"
         id="tspan14">vs composition' at great</tspan></text>
    <text
       id="text15"
       xml:space="preserve"
       transform="matrix(0.95727452,0,0,0.95727452,491.08183,72.752864)"
       clip-path="url(#clipPath16)"><tspan
         style="font-style:oblique;font-variant:normal;font-weight:normal;font-size:12px;font-family:Helvetica;writing-mode:lr-tb;fill:#000000;fill-opacity:1;fill-rule:nonzero;stroke:none"
         x="0 2.6660156 9.3398438 16.013672 22.6875 26.021484 32.695312"
         y="0"
         sodipodi:role="line"
         id="tspan15">length!</tspan></text>
    <path
       id="path17"
       d="m 1,150 h 480 v 50 H 1 Z"
       style="fill:#ffffff;fill-opacity:1;fill-rule:nonzero;stroke:#000000;stroke-width:1;stroke-linecap:butt;stroke-linejoin:miter;stroke-miterlimit:10;stroke-dasharray:none;stroke-opacity:1"
       transform="matrix(0.95726489,0,0,0.95726489,0.47863245,0.47863245)"
       clip-path="url(#clipPath18)" />
    <text
       id="text18"
       xml:space="preserve"
       transform="matrix(0.95727452,0,0,0.95727452,75.5499,174.22396)"
       clip-path="url(#clipPath19)"><tspan
         style="font-variant:normal;font-weight:normal;font-size:18px;font-family:Helvetica;writing-mode:lr-tb;fill:#000000;fill-opacity:1;fill-rule:nonzero;stroke:none"
         x="0 12.005859 22.016602 32.027344 42.038086 51.038086 61.048828 66.049805 75.049805 85.060547 91.054688 100.05469 105.05566 114.05566 118.05469 133.04883 137.04785 141.04688 151.05762 157.05176 161.05078 170.05078 175.05176 180.05273 190.06348 195.06445 207.07031 219.07617 229.08691 239.09766 249.1084 259.11914 264.12012 273.12012 277.11914 287.12988 296.12988 305.12988 315.14062"
         y="0"
         sodipodi:role="line"
         id="tspan18">Behave very similarly to ES2015 classes</tspan></text>
    <path
       id="path20"
       d="m 1,210 h 480 v 50 H 1 Z"
       style="fill:#ffffff;fill-opacity:1;fill-rule:nonzero;stroke:#000000;stroke-width:1;stroke-linecap:butt;stroke-linejoin:miter;stroke-miterlimit:10;stroke-dasharray:none;stroke-opacity:1"
       transform="matrix(0.95726489,0,0,0.95726489,0.47863245,0.47863245)"
       clip-path="url(#clipPath21)" />
    <text
       id="text21"
       xml:space="preserve"
       transform="matrix(0.95727452,0,0,0.95727452,19.280107,221.13041)"
       clip-path="url(#clipPath22)"><tspan
         style="font-variant:normal;font-weight:normal;font-size:18px;font-family:Helvetica;writing-mode:lr-tb;fill:#000000;fill-opacity:1;fill-rule:nonzero;stroke:none"
         x="0 12.999023 16.998047 27.008789 36.008789 45.008789 55.019531 64.019531 69.020508 79.03125 85.025391 95.036133 100.03711 110.04785"
         y="0"
         sodipodi:role="line"
         id="tspan21">Classes are a </tspan></text>
    <text
       id="text22"
       xml:space="preserve"
       transform="matrix(0.95727452,0,0,0.95727452,129.42651,221.13041)"
       clip-path="url(#clipPath23)"><tspan
         style="font-style:oblique;font-variant:normal;font-weight:700;font-size:18px;font-family:Helvetica;writing-mode:lr-tb;fill:#000000;fill-opacity:1;fill-rule:nonzero;stroke:none"
         x="0 10.995117 15.996094 26.991211 37.001953 47.99707 55.001953 60.00293 70.998047"
         y="0"
         sodipodi:role="line"
         id="tspan22">blueprint</tspan></text>
    <text
       id="text23"
       xml:space="preserve"
       transform="matrix(0.95727452,0,0,0.95727452,207.92396,221.13041)"
       clip-path="url(#clipPath24)"><tspan
         style="font-variant:normal;font-weight:normal;font-size:18px;font-family:Helvetica;writing-mode:lr-tb;fill:#000000;fill-opacity:1;fill-rule:nonzero;stroke:none"
         x="0 10.010742 15.011719 20.012695 25.013672 35.024414 45.035156 50.036133 59.036133 64.037109 70.03125 80.041992 89.041992 94.042969 104.05371 110.04785 120.05859 125.05957 135.07031 140.07129 145.07227 154.07227 164.08301 179.07715 189.08789 194.08887 204.09961 214.11035 219.11133 229.12207 234.12305"
         y="0"
         sodipodi:role="line"
         id="tspan23">of the structure of some data +</tspan></text>
    <text
       id="text24"
       xml:space="preserve"
       transform="matrix(0.95727452,0,0,0.95727452,196.21136,242.19045)"
       clip-path="url(#clipPath25)"><tspan
         style="font-variant:normal;font-weight:normal;font-size:18px;font-family:Helvetica;writing-mode:lr-tb;fill:#000000;fill-opacity:1;fill-rule:nonzero;stroke:none"
         x="0 5.0009766 15.011719 25.022461 34.022461 39.023438 43.022461 53.033203 63.043945"
         y="0"
         sodipodi:role="line"
         id="tspan24">functions</tspan></text>
    <path
       id="path26"
       d="m 511.01001,150 h -5 c -3.33334,0 -5,3.33333 -5,10 v 7.5 c 0,5 -1.67001,7.5 -5.01001,7.5 h -2.5 c -1.66666,0 -0.83334,0 2.5,0 h 2.5 c 1.67334,0 2.51001,3.33333 2.51001,10 v 7.5 c 0,5 1.66666,7.5 5,7.5 h 5"
       style="fill:none;stroke:#000000;stroke-width:1;stroke-linecap:butt;stroke-linejoin:miter;stroke-miterlimit:10;stroke-dasharray:none;stroke-opacity:1"
       transform="matrix(-0.95726489,0,0,-0.95726489,959.67724,335.52135)"
       clip-path="url(#clipPath27)" />
    <text
       id="text27"
       xml:space="preserve"
       transform="matrix(0.95727452,0,0,0.95727452,491.08183,160.82212)"
       clip-path="url(#clipPath28)"><tspan
         style="font-style:oblique;font-variant:normal;font-weight:normal;font-size:12px;font-family:Helvetica;writing-mode:lr-tb;fill:#000000;fill-opacity:1;fill-rule:nonzero;stroke:none"
         x="0 8.6660156 11.332031 18.005859 24.005859 30.005859 36.679688 42.679688 46.013672 52.6875 59.361328 66.035156 68.326172 71.660156 74.994141 81.667969 87.667969 91.001953 97.675781 104.34961 107.01562 109.68164 115.68164 119.01562 125.68945 131.68945 134.35547 140.35547"
         y="0"
         sodipodi:role="line"
         id="tspan27">Classes don't actually exist</tspan></text>
    <text
       id="text28"
       xml:space="preserve"
       transform="matrix(0.95727452,0,0,0.95727452,491.08183,174.22396)"
       clip-path="url(#clipPath29)"><tspan
         style="font-style:oblique;font-variant:normal;font-weight:normal;font-size:12px;font-family:Helvetica;writing-mode:lr-tb;fill:#000000;fill-opacity:1;fill-rule:nonzero;stroke:none"
         x="0 2.6660156 9.3398438 12.673828 18.673828 26.677734 30.011719 34.007812 37.341797 46.007812 52.681641 56.015625 62.689453 66.685547 73.359375 76.693359 82.693359 86.027344 88.693359 91.359375 94.025391 97.359375 104.0332 110.0332 112.69922 119.37305"
         y="0"
         sodipodi:role="line"
         id="tspan28">in JS - we are still using</tspan></text>
    <text
       id="text29"
       xml:space="preserve"
       transform="matrix(0.95727452,0,0,0.95727452,491.08183,188.58308)"
       clip-path="url(#clipPath30)"><tspan
         style="font-style:oblique;font-variant:normal;font-weight:normal;font-size:12px;font-family:Helvetica;writing-mode:lr-tb;fill:#000000;fill-opacity:1;fill-rule:nonzero;stroke:none"
         x="0 2.2910156 8.9648438 12.960938 19.634766 22.96875 29.642578 32.976562 38.976562 45.650391 52.324219 54.990234 58.324219 60.990234 67.664062 74.337891 81.011719 85.007812 87.673828 91.007812 97.681641 104.35547 110.35547 117.0293"
         y="0"
         sodipodi:role="line"
         id="tspan29">'prototypal inheritance'</tspan></text>
    <path
       id="path31"
       d="m 1,270 h 480 v 50 H 1 Z"
       style="fill:#ffffff;fill-opacity:1;fill-rule:nonzero;stroke:#000000;stroke-width:1;stroke-linecap:butt;stroke-linejoin:miter;stroke-miterlimit:10;stroke-dasharray:none;stroke-opacity:1"
       transform="matrix(0.95726489,0,0,0.95726489,0.47863245,0.47863245)"
       clip-path="url(#clipPath32)" />
    <text
       id="text32"
       xml:space="preserve"
       transform="matrix(0.95727452,0,0,0.95727452,31.634931,278.56689)"
       clip-path="url(#clipPath33)"><tspan
         style="font-variant:normal;font-weight:normal;font-size:18px;font-family:Helvetica;writing-mode:lr-tb;fill:#000000;fill-opacity:1;fill-rule:nonzero;stroke:none"
         x="0 16.672852 26.683594 31.68457 41.695312 51.706055 60.706055 70.716797 75.717773 80.71875 90.729492 95.730469 104.73047 110.72461 120.73535 130.74609 135.74707 145.75781 150.75879 160.76953 170.78027"
         y="0"
         sodipodi:role="line"
         id="tspan32">We have to create an </tspan></text>
    <text
       id="text33"
       xml:space="preserve"
       transform="matrix(0.95727452,0,0,0.95727452,199.90585,278.56689)"
       clip-path="url(#clipPath34)"><tspan
         style="font-style:oblique;font-variant:normal;font-weight:700;font-size:18px;font-family:Helvetica;writing-mode:lr-tb;fill:#000000;fill-opacity:1;fill-rule:nonzero;stroke:none"
         x="0 5.0009766 15.996094 26.006836 32.000977 42.011719 53.006836 63.017578"
         y="0"
         sodipodi:role="line"
         id="tspan33">instance</tspan></text>
    <text
       id="text34"
       xml:space="preserve"
       transform="matrix(0.95727452,0,0,0.95727452,269.8168,278.56689)"
       clip-path="url(#clipPath35)"><tspan
         style="font-variant:normal;font-weight:normal;font-size:18px;font-family:Helvetica;writing-mode:lr-tb;fill:#000000;fill-opacity:1;fill-rule:nonzero;stroke:none"
         x="0 5.0009766 15.011719 20.012695 25.013672 35.024414 40.025391 49.025391 53.024414 63.035156 72.035156 81.035156 86.036133 91.037109 101.04785 106.04883 116.05957 125.05957 130.06055 140.07129 150.08203 154.08105 158.08008"
         y="0"
         sodipodi:role="line"
         id="tspan34"> of a class to actually</tspan></text>
    <text
       id="text35"
       xml:space="preserve"
       transform="matrix(0.95727452,0,0,0.95727452,114.79816,299.62692)"
       clip-path="url(#clipPath36)"><tspan
         style="font-variant:normal;font-weight:normal;font-size:18px;font-family:Helvetica;writing-mode:lr-tb;fill:#000000;fill-opacity:1;fill-rule:nonzero;stroke:none"
         x="0 5.9941406 16.004883 26.015625 32.009766 42.020508 51.020508 61.03125 71.041992 76.042969 81.043945 91.054688 101.06543 106.06641 110.06543 120.07617 130.08691 134.08594 143.08594 147.08496 157.0957 167.10645 177.11719 181.11621 186.11719 192.11133 202.12207 211.12207 221.13281 227.12695 237.1377"
         y="0"
         sodipodi:role="line"
         id="tspan35">represent an individual record.</tspan></text>
  </g>
</svg>
