<?xml version="1.0" encoding="UTF-8" standalone="no"?>
<!-- Created with Inkscape (http://www.inkscape.org/) -->

<svg
   version="1.1"
   id="svg1"
   width="530.56"
   height="234.56"
   viewBox="0 0 530.56 234.56"
   sodipodi:docname="ts-10.pdf"
   xmlns:inkscape="http://www.inkscape.org/namespaces/inkscape"
   xmlns:sodipodi="http://sodipodi.sourceforge.net/DTD/sodipodi-0.dtd"
   xmlns="http://www.w3.org/2000/svg"
   xmlns:svg="http://www.w3.org/2000/svg">
  <defs
     id="defs1">
    <clipPath
       clipPathUnits="userSpaceOnUse"
       id="clipPath2">
      <path
         d="M 0,0 H 1658.3334 V 730.38507 H 0 Z"
         transform="scale(0.33407035)"
         clip-rule="evenodd"
         id="path2" />
    </clipPath>
    <clipPath
       clipPathUnits="userSpaceOnUse"
       id="clipPath4">
      <path
         d="M 0,0 H 1658.3334 V 730.38507 H 0 Z"
         transform="matrix(0.33407035,0,0,0.33407035,-0.5,-0.5)"
         clip-rule="evenodd"
         id="path4" />
    </clipPath>
    <clipPath
       clipPathUnits="userSpaceOnUse"
       id="clipPath5">
      <path
         d="M 0,0 H 1658.3334 V 730.38507 H 0 Z"
         transform="matrix(0.334067,0,0,0.334067,-185.04688,-213)"
         clip-rule="evenodd"
         id="path5" />
    </clipPath>
    <clipPath
       clipPathUnits="userSpaceOnUse"
       id="clipPath6">
      <path
         d="M 0,0 H 1658.3334 V 730.38507 H 0 Z"
         transform="matrix(0.334067,0,0,0.334067,-240.6875,-229)"
         clip-rule="evenodd"
         id="path6" />
    </clipPath>
    <clipPath
       clipPathUnits="userSpaceOnUse"
       id="clipPath8">
      <path
         d="M 0,0 H 1658.3334 V 730.38507 H 0 Z"
         transform="matrix(0.33407035,0,0,0.33407035,-0.5,-0.5)"
         clip-rule="evenodd"
         id="path8" />
    </clipPath>
    <clipPath
       clipPathUnits="userSpaceOnUse"
       id="clipPath9">
      <path
         d="M 0,0 H 1658.3334 V 730.38507 H 0 Z"
         transform="matrix(0.334067,0,0,0.334067,-31.75,-128)"
         clip-rule="evenodd"
         id="path9" />
    </clipPath>
    <clipPath
       clipPathUnits="userSpaceOnUse"
       id="clipPath11">
      <path
         d="M 0,0 H 1658.3334 V 730.38507 H 0 Z"
         transform="matrix(0.33407035,0,0,0.33407035,-0.5,-0.5)"
         clip-rule="evenodd"
         id="path11" />
    </clipPath>
    <clipPath
       clipPathUnits="userSpaceOnUse"
       id="clipPath13">
      <path
         d="M 0,0 H 1658.3334 V 730.38507 H 0 Z"
         transform="matrix(0.33407035,0,0,0.33407035,-0.5,-0.5)"
         clip-rule="evenodd"
         id="path13" />
    </clipPath>
    <clipPath
       clipPathUnits="userSpaceOnUse"
       id="clipPath14">
      <path
         d="M 0,0 H 1658.3334 V 730.38507 H 0 Z"
         transform="matrix(0.334067,0,0,0.334067,-212.15625,-31)"
         clip-rule="evenodd"
         id="path14" />
    </clipPath>
    <clipPath
       clipPathUnits="userSpaceOnUse"
       id="clipPath16">
      <path
         d="M 0,0 H 1658.3334 V 730.38507 H 0 Z"
         transform="matrix(0.33407035,0,0,0.33407035,-0.5,-0.5)"
         clip-rule="evenodd"
         id="path16" />
    </clipPath>
    <clipPath
       clipPathUnits="userSpaceOnUse"
       id="clipPath17">
      <path
         d="M 0,0 H 1658.3334 V 730.38507 H 0 Z"
         transform="matrix(0.334067,0,0,0.334067,-172.03125,-86)"
         clip-rule="evenodd"
         id="path17" />
    </clipPath>
    <clipPath
       clipPathUnits="userSpaceOnUse"
       id="clipPath18">
      <path
         d="M 0,0 H 1658.3334 V 730.38507 H 0 Z"
         transform="matrix(0.334067,0,0,0.334067,-321.375,-102)"
         clip-rule="evenodd"
         id="path18" />
    </clipPath>
    <clipPath
       clipPathUnits="userSpaceOnUse"
       id="clipPath20">
      <path
         d="M 0,0 H 1658.3334 V 730.38507 H 0 Z"
         transform="matrix(0.33407035,0,0,0.33407035,-0.5,-0.5)"
         clip-rule="evenodd"
         id="path20" />
    </clipPath>
    <clipPath
       clipPathUnits="userSpaceOnUse"
       id="clipPath21">
      <path
         d="M 0,0 H 1658.3334 V 730.38507 H 0 Z"
         transform="matrix(0.334067,0,0,0.334067,-187.92188,-150)"
         clip-rule="evenodd"
         id="path21" />
    </clipPath>
    <clipPath
       clipPathUnits="userSpaceOnUse"
       id="clipPath22">
      <path
         d="M 0,0 H 1658.3334 V 730.38507 H 0 Z"
         transform="matrix(0.334067,0,0,0.334067,-298.84375,-166)"
         clip-rule="evenodd"
         id="path22" />
    </clipPath>
  </defs>
  <sodipodi:namedview
     id="namedview1"
     pagecolor="#ffffff"
     bordercolor="#000000"
     borderopacity="0.25"
     inkscape:showpageshadow="2"
     inkscape:pageopacity="0.0"
     inkscape:pagecheckerboard="0"
     inkscape:deskcolor="#d1d1d1">
    <inkscape:page
       x="0"
       y="0"
       inkscape:label="1"
       id="page1"
       width="530.56"
       height="234.56"
       margin="0"
       bleed="0" />
  </sodipodi:namedview>
  <g
     id="g1"
     inkscape:groupmode="layer"
     inkscape:label="1">
    <path
       id="path1"
       d="M 0,0 H 554 V 244 H 0 Z"
       style="fill:#ffffff;fill-opacity:1;fill-rule:nonzero;stroke:none"
       transform="scale(0.95788204)"
       clip-path="url(#clipPath2)" />
    <path
       id="path3"
       d="m 171,191 h 380 v 50 H 171 Z"
       style="fill:#ffffff;fill-opacity:1;fill-rule:nonzero;stroke:#000000;stroke-width:1;stroke-linecap:butt;stroke-linejoin:miter;stroke-miterlimit:10;stroke-dasharray:none;stroke-opacity:1"
       transform="matrix(0.95788204,0,0,0.95788204,0.47894102,0.47894102)"
       clip-path="url(#clipPath4)" />
    <g
       id="g4" />
    <text
       id="text4"
       xml:space="preserve"
       transform="matrix(0.95789164,0,0,0.95789164,177.25486,204.03092)"
       clip-path="url(#clipPath5)"><tspan
         style="font-variant:normal;font-weight:normal;font-size:13px;font-family:Helvetica;writing-mode:lr-tb;fill:#000000;fill-opacity:1;fill-rule:nonzero;stroke:none"
         x="0 9.3881836 15.888184 23.118164 26.72998 36.118164 43.348145 50.578125 57.808105 65.038086 71.538086 78.768066 83.097168 86.708984 96.097168 103.32715 106.93896 114.16895 121.39893 127.89893 135.12891 138.74072 145.9707 149.58252 156.08252 166.91162 174.1416 177.02979 179.91797 183.52979 190.02979 196.52979 203.75977 210.98975 214.60156 221.10156 228.33154 231.94336 235.55518 242.78516 246.39697 250.00879 256.50879 263.73877 266.62695 273.85693 281.08691 287.58691 291.19873 294.81055 302.04053 309.27051 312.88232 316.49414 323.72412 328.05322 335.2832 338.89502 346.125 349.01318"
         y="0"
         sodipodi:role="line"
         id="tspan4">Use whenever we have a small ﬁxed set of values that are all</tspan></text>
    <text
       id="text5"
       xml:space="preserve"
       transform="matrix(0.95789164,0,0,0.95789164,230.55254,219.35719)"
       clip-path="url(#clipPath6)"><tspan
         style="font-variant:normal;font-weight:normal;font-size:13px;font-family:Helvetica;writing-mode:lr-tb;fill:#000000;fill-opacity:1;fill-rule:nonzero;stroke:none"
         x="0 6.5 9.3881836 16.618164 23.118164 30.348145 33.236328 39.736328 43.348145 47.677246 54.907227 57.79541 65.025391 68.637207 75.867188 83.097168 86.708984 93.938965 101.16895 108.39893 112.01074 118.51074 125.74072 132.9707 142.35889 149.58887 153.20068 160.43066 164.04248 167.6543 174.1543 181.38428 192.21338 199.44336 202.33154 205.21973 212.44971 216.06152 219.67334 222.56152 233.39062"
         y="0"
         sodipodi:role="line"
         id="tspan5">closely related and known at compile time</tspan></text>
    <path
       id="path7"
       d="m 1,91 h 130 v 60 H 1 Z"
       style="fill:#dae8fc;fill-opacity:1;fill-rule:nonzero;stroke:#6c8ebf;stroke-width:1;stroke-linecap:butt;stroke-linejoin:miter;stroke-miterlimit:10;stroke-dasharray:none;stroke-opacity:1"
       transform="matrix(0.95788204,0,0,0.95788204,0.47894102,0.47894102)"
       clip-path="url(#clipPath8)" />
    <text
       id="text8"
       xml:space="preserve"
       transform="matrix(0.95789164,0,0,0.95789164,30.41306,122.61013)"
       clip-path="url(#clipPath9)"><tspan
         style="font-variant:normal;font-weight:normal;font-size:22px;font-family:Helvetica;writing-mode:lr-tb;fill:#000000;fill-opacity:1;fill-rule:nonzero;stroke:none"
         x="0 14.673828 26.90918 39.144531 57.470703"
         y="0"
         sodipodi:role="line"
         id="tspan8">Enums</tspan></text>
    <path
       id="path10"
       d="m 161,1 h -7.5 c -5,0 -7.5,3.333333 -7.5,10 v 100 c 0,6.66666 -2.5,10 -7.5,10 h -3.75 c -2.5,0 -1.25,0 3.75,0 h 3.75 c 2.5,0 3.75,3.33334 3.75,10 v 100 c 0,6.66667 2.5,10 7.5,10 h 7.5"
       style="fill:none;stroke:#000000;stroke-width:1;stroke-linecap:butt;stroke-linejoin:miter;stroke-miterlimit:10;stroke-dasharray:none;stroke-opacity:1"
       transform="matrix(0.95788204,0,0,0.95788204,0.47894102,0.47894102)"
       clip-path="url(#clipPath11)" />
    <path
       id="path12"
       d="M 171,1 H 551 V 51 H 171 Z"
       style="fill:#ffffff;fill-opacity:1;fill-rule:nonzero;stroke:#000000;stroke-width:1;stroke-linecap:butt;stroke-linejoin:miter;stroke-miterlimit:10;stroke-dasharray:none;stroke-opacity:1"
       transform="matrix(0.95788204,0,0,0.95788204,0.47894102,0.47894102)"
       clip-path="url(#clipPath13)" />
    <text
       id="text13"
       xml:space="preserve"
       transform="matrix(0.95789164,0,0,0.95789164,203.2227,29.694641)"
       clip-path="url(#clipPath14)"><tspan
         style="font-variant:normal;font-weight:normal;font-size:13px;font-family:Helvetica;writing-mode:lr-tb;fill:#000000;fill-opacity:1;fill-rule:nonzero;stroke:none"
         x="0 7.940918 15.170898 18.059082 20.947266 28.177246 37.56543 41.177246 48.407227 55.637207 62.867188 67.196289 71.525391 74.413574 81.643555 88.873535 96.103516 99.715332 102.60352 109.10352 116.3335 119.22168 122.8335 129.3335 135.8335 143.06348 146.67529 153.90527 160.40527 164.01709 168.34619 175.57617 178.46436 185.69434 192.19434 195.80615 203.03613 209.53613 213.14795 220.37793 227.60791 231.93701 242.76611 249.99609 252.88428 256.49609 263.72607 270.95605 273.84424 281.07422 287.57422 291.18604"
         y="0"
         sodipodi:role="line"
         id="tspan13">Follow near-identical syntax rules as normal objects</tspan></text>
    <path
       id="path15"
       d="m 171,64 h 380 v 50 H 171 Z"
       style="fill:#ffffff;fill-opacity:1;fill-rule:nonzero;stroke:#000000;stroke-width:1;stroke-linecap:butt;stroke-linejoin:miter;stroke-miterlimit:10;stroke-dasharray:none;stroke-opacity:1"
       transform="matrix(0.95788204,0,0,0.95788204,0.47894102,0.47894102)"
       clip-path="url(#clipPath16)" />
    <text
       id="text16"
       xml:space="preserve"
       transform="matrix(0.95789164,0,0,0.95789164,164.7873,82.378681)"
       clip-path="url(#clipPath17)"><tspan
         style="font-variant:normal;font-weight:normal;font-size:13px;font-family:Helvetica;writing-mode:lr-tb;fill:#000000;fill-opacity:1;fill-rule:nonzero;stroke:none"
         x="0 9.3881836 13.717285 20.947266 28.177246 31.789062 39.019043 45.519043 49.130859 56.36084 63.59082 67.202637 74.432617 81.662598 84.550781 91.780762 98.280762 101.89258 105.50439 114.89258 117.78076 121.39258 128.62256 132.23438 135.84619 143.07617 150.30615 153.91797 160.41797 167.64795 178.47705 185.70703 189.31885 195.81885 203.04883 209.54883 216.04883 219.66064 226.89062 234.12061 241.35059 244.9624 251.4624 258.69238 261.58057 268.81055 276.04053 282.54053 286.15234 295.54053 302.77051 310.00049 317.23047 320.84229 327.34229 334.57227 341.80225 348.30225 355.53223 359.86133 363.47314 370.70312"
         y="0"
         sodipodi:role="line"
         id="tspan16">Creates an object with the same keys and values when converted</tspan></text>
    <text
       id="text17"
       xml:space="preserve"
       transform="matrix(0.95789164,0,0,0.95789164,307.84243,97.704947)"
       clip-path="url(#clipPath18)"><tspan
         style="font-variant:normal;font-weight:normal;font-size:13px;font-family:Helvetica;writing-mode:lr-tb;fill:#000000;fill-opacity:1;fill-rule:nonzero;stroke:none"
         x="0 3.6118164 7.940918 15.170898 26 29.383301 37.324219 45.995117 49.606934 53.21875 60.44873 64.060547 70.560547"
         y="0"
         sodipodi:role="line"
         id="tspan17">from TS to JS</tspan></text>
    <path
       id="path19"
       d="m 171,128 h 380 v 50 H 171 Z"
       style="fill:#ffffff;fill-opacity:1;fill-rule:nonzero;stroke:#000000;stroke-width:1;stroke-linecap:butt;stroke-linejoin:miter;stroke-miterlimit:10;stroke-dasharray:none;stroke-opacity:1"
       transform="matrix(0.95788204,0,0,0.95788204,0.47894102,0.47894102)"
       clip-path="url(#clipPath20)" />
    <text
       id="text20"
       xml:space="preserve"
       transform="matrix(0.95789164,0,0,0.95789164,180.0088,143.68375)"
       clip-path="url(#clipPath21)"><tspan
         style="font-variant:normal;font-weight:normal;font-size:13px;font-family:Helvetica;writing-mode:lr-tb;fill:#000000;fill-opacity:1;fill-rule:nonzero;stroke:none"
         x="0 8.6708984 13 15.888184 26.717285 33.947266 38.276367 44.776367 48.388184 55.618164 62.848145 70.078125 72.966309 76.578125 79.466309 85.966309 89.578125 93.189941 100.41992 104.03174 110.53174 113.41992 120.6499 127.87988 135.10986 137.99805 141.60986 145.22168 152.45166 156.06348 163.29346 166.90527 174.13525 181.36523 185.69434 189.30615 196.53613 203.76611 210.99609 213.88428 221.11426 228.34424 235.57422 239.90332 246.40332 250.01514 253.62695 260.85693 268.08691 271.69873 275.31055 278.92236 286.15234 293.38232 299.88232 307.1123 310.72412 317.9541 322.2832 329.51318 333.125 340.35498 343.24316"
         y="0"
         sodipodi:role="line"
         id="tspan20">Primary goal is to signal to other engineers that these are all</tspan></text>
    <text
       id="text21"
       xml:space="preserve"
       transform="matrix(0.95789164,0,0,0.95789164,286.25993,159.01001)"
       clip-path="url(#clipPath22)"><tspan
         style="font-variant:normal;font-weight:normal;font-size:13px;font-family:Helvetica;writing-mode:lr-tb;fill:#000000;fill-opacity:1;fill-rule:nonzero;stroke:none"
         x="0 6.5 9.3881836 16.618164 23.118164 30.348145 33.236328 39.736328 43.348145 47.677246 54.907227 57.79541 65.025391 68.637207 75.867188 83.097168 86.708984 93.208984 100.43896 103.32715 110.55713 117.78711"
         y="0"
         sodipodi:role="line"
         id="tspan21">closely related values</tspan></text>
  </g>
</svg>
