<?xml version="1.0" encoding="UTF-8" standalone="no"?>
<!-- Created with Inkscape (http://www.inkscape.org/) -->

<svg
   version="1.1"
   id="svg1"
   width="981.43994"
   height="196.15999"
   viewBox="0 0 981.43994 196.15999"
   sodipodi:docname="ts-19.pdf"
   xmlns:inkscape="http://www.inkscape.org/namespaces/inkscape"
   xmlns:sodipodi="http://sodipodi.sourceforge.net/DTD/sodipodi-0.dtd"
   xmlns="http://www.w3.org/2000/svg"
   xmlns:svg="http://www.w3.org/2000/svg">
  <defs
     id="defs1">
    <clipPath
       clipPathUnits="userSpaceOnUse"
       id="clipPath2">
      <path
         d="M 0,0 H 3066.6665 V 610.93744 H 0 Z"
         transform="scale(0.33391306)"
         clip-rule="evenodd"
         id="path2" />
    </clipPath>
    <clipPath
       clipPathUnits="userSpaceOnUse"
       id="clipPath4">
      <path
         d="M 0,0 H 3066.6665 V 610.93744 H 0 Z"
         transform="matrix(0.33391306,0,0,0.33391306,-0.5,-0.5)"
         clip-rule="evenodd"
         id="path4" />
    </clipPath>
    <clipPath
       clipPathUnits="userSpaceOnUse"
       id="clipPath6">
      <path
         d="M 0,0 H 3066.6665 V 610.93744 H 0 Z"
         transform="matrix(0.33391306,0,0,0.33391306,-0.5,-0.5)"
         clip-rule="evenodd"
         id="path6" />
    </clipPath>
    <clipPath
       clipPathUnits="userSpaceOnUse"
       id="clipPath8">
      <path
         d="M 0,0 H 3066.6665 V 610.93744 H 0 Z"
         transform="matrix(0.33391306,0,0,0.33391306,-0.5,-0.5)"
         clip-rule="evenodd"
         id="path8" />
    </clipPath>
    <clipPath
       clipPathUnits="userSpaceOnUse"
       id="clipPath10">
      <path
         d="M 0,0 H 3066.6665 V 610.93744 H 0 Z"
         transform="matrix(0.33391306,0,0,0.33391306,-0.5,-0.5)"
         clip-rule="evenodd"
         id="path10" />
    </clipPath>
    <clipPath
       clipPathUnits="userSpaceOnUse"
       id="clipPath12">
      <path
         d="M 0,0 H 3066.6665 V 610.93744 H 0 Z"
         transform="matrix(0.33391306,0,0,0.33391306,-0.5,-0.5)"
         clip-rule="evenodd"
         id="path12" />
    </clipPath>
    <clipPath
       clipPathUnits="userSpaceOnUse"
       id="clipPath13">
      <path
         d="M 0,0 H 3066.6665 V 610.93744 H 0 Z"
         transform="matrix(0.33390972,0,0,0.33390972,-29.21875,-108)"
         clip-rule="evenodd"
         id="path13" />
    </clipPath>
    <clipPath
       clipPathUnits="userSpaceOnUse"
       id="clipPath15">
      <path
         d="M 0,0 H 3066.6665 V 610.93744 H 0 Z"
         transform="matrix(0.33391306,0,0,0.33391306,-0.5,-0.5)"
         clip-rule="evenodd"
         id="path15" />
    </clipPath>
    <clipPath
       clipPathUnits="userSpaceOnUse"
       id="clipPath16">
      <path
         d="M 0,0 H 3066.6665 V 610.93744 H 0 Z"
         transform="matrix(0.33390972,0,0,0.33390972,-208.42188,-45)"
         clip-rule="evenodd"
         id="path16" />
    </clipPath>
    <clipPath
       clipPathUnits="userSpaceOnUse"
       id="clipPath17">
      <path
         d="M 0,0 H 3066.6665 V 610.93744 H 0 Z"
         transform="matrix(0.33390972,0,0,0.33390972,-272.625,-71.999999)"
         clip-rule="evenodd"
         id="path17" />
    </clipPath>
    <clipPath
       clipPathUnits="userSpaceOnUse"
       id="clipPath19">
      <path
         d="M 0,0 H 3066.6665 V 610.93744 H 0 Z"
         transform="matrix(0.33391306,0,0,0.33391306,-0.5,-0.5)"
         clip-rule="evenodd"
         id="path19" />
    </clipPath>
    <clipPath
       clipPathUnits="userSpaceOnUse"
       id="clipPath20">
      <path
         d="M 0,0 H 3066.6665 V 610.93744 H 0 Z"
         transform="matrix(0.33390972,0,0,0.33390972,-218.20313,-145)"
         clip-rule="evenodd"
         id="path20" />
    </clipPath>
    <clipPath
       clipPathUnits="userSpaceOnUse"
       id="clipPath21">
      <path
         d="M 0,0 H 3066.6665 V 610.93744 H 0 Z"
         transform="matrix(0.33390972,0,0,0.33390972,-226.15625,-172)"
         clip-rule="evenodd"
         id="path21" />
    </clipPath>
    <clipPath
       clipPathUnits="userSpaceOnUse"
       id="clipPath23">
      <path
         d="M 0,0 H 3066.6665 V 610.93744 H 0 Z"
         transform="matrix(0.33391306,0,0,0.33391306,-0.5,-0.5)"
         clip-rule="evenodd"
         id="path23" />
    </clipPath>
    <clipPath
       clipPathUnits="userSpaceOnUse"
       id="clipPath25">
      <path
         d="M 0,0 H 3066.6665 V 610.93744 H 0 Z"
         transform="matrix(0.33391306,0,0,0.33391306,-0.5,-0.5)"
         clip-rule="evenodd"
         id="path25" />
    </clipPath>
    <clipPath
       clipPathUnits="userSpaceOnUse"
       id="clipPath27">
      <path
         d="M 0,0 H 3066.6665 V 610.93744 H 0 Z"
         transform="matrix(0.33391306,0,0,0.33391306,-0.5,-0.5)"
         clip-rule="evenodd"
         id="path27" />
    </clipPath>
    <clipPath
       clipPathUnits="userSpaceOnUse"
       id="clipPath29">
      <path
         d="M 0,0 H 3066.6665 V 610.93744 H 0 Z"
         transform="matrix(0.33391306,0,0,0.33391306,-0.5,-0.5)"
         clip-rule="evenodd"
         id="path29" />
    </clipPath>
    <clipPath
       clipPathUnits="userSpaceOnUse"
       id="clipPath31">
      <path
         d="M 0,0 H 3066.6665 V 610.93744 H 0 Z"
         transform="matrix(0.33391306,0,0,0.33391306,-0.5,-0.5)"
         clip-rule="evenodd"
         id="path31" />
    </clipPath>
    <clipPath
       clipPathUnits="userSpaceOnUse"
       id="clipPath32">
      <path
         d="M 0,0 H 3066.6665 V 610.93744 H 0 Z"
         transform="matrix(0.33390972,0,0,0.33390972,-553.875,-108)"
         clip-rule="evenodd"
         id="path32" />
    </clipPath>
    <clipPath
       clipPathUnits="userSpaceOnUse"
       id="clipPath34">
      <path
         d="M 0,0 H 3066.6665 V 610.93744 H 0 Z"
         transform="matrix(0.33391306,0,0,0.33391306,-0.5,-0.5)"
         clip-rule="evenodd"
         id="path34" />
    </clipPath>
    <clipPath
       clipPathUnits="userSpaceOnUse"
       id="clipPath35">
      <path
         d="M 0,0 H 3066.6665 V 610.93744 H 0 Z"
         transform="matrix(0.33390972,0,0,0.33390972,-732.07813,-45)"
         clip-rule="evenodd"
         id="path35" />
    </clipPath>
    <clipPath
       clipPathUnits="userSpaceOnUse"
       id="clipPath36">
      <path
         d="M 0,0 H 3066.6665 V 610.93744 H 0 Z"
         transform="matrix(0.33390972,0,0,0.33390972,-802.59375,-71.999999)"
         clip-rule="evenodd"
         id="path36" />
    </clipPath>
    <clipPath
       clipPathUnits="userSpaceOnUse"
       id="clipPath38">
      <path
         d="M 0,0 H 3066.6665 V 610.93744 H 0 Z"
         transform="matrix(0.33391306,0,0,0.33391306,-0.5,-0.5)"
         clip-rule="evenodd"
         id="path38" />
    </clipPath>
    <clipPath
       clipPathUnits="userSpaceOnUse"
       id="clipPath39">
      <path
         d="M 0,0 H 3066.6665 V 610.93744 H 0 Z"
         transform="matrix(0.33390972,0,0,0.33390972,-722.32813,-131.99999)"
         clip-rule="evenodd"
         id="path39" />
    </clipPath>
    <clipPath
       clipPathUnits="userSpaceOnUse"
       id="clipPath40">
      <path
         d="M 0,0 H 3066.6665 V 610.93744 H 0 Z"
         transform="matrix(0.33390972,0,0,0.33390972,-728.40625,-158)"
         clip-rule="evenodd"
         id="path40" />
    </clipPath>
    <clipPath
       clipPathUnits="userSpaceOnUse"
       id="clipPath41">
      <path
         d="M 0,0 H 3066.6665 V 610.93744 H 0 Z"
         transform="matrix(0.33390972,0,0,0.33390972,-840.3125,-185)"
         clip-rule="evenodd"
         id="path41" />
    </clipPath>
  </defs>
  <sodipodi:namedview
     id="namedview1"
     pagecolor="#ffffff"
     bordercolor="#000000"
     borderopacity="0.25"
     inkscape:showpageshadow="2"
     inkscape:pageopacity="0.0"
     inkscape:pagecheckerboard="0"
     inkscape:deskcolor="#d1d1d1">
    <inkscape:page
       x="0"
       y="0"
       inkscape:label="1"
       id="page1"
       width="981.43994"
       height="196.15999"
       margin="0"
       bleed="0" />
  </sodipodi:namedview>
  <g
     id="g1"
     inkscape:groupmode="layer"
     inkscape:label="1">
    <path
       id="path1"
       d="M 0,0 H 1024 V 204 H 0 Z"
       style="fill:#ffffff;fill-opacity:1;fill-rule:nonzero;stroke:none"
       transform="scale(0.95833324)"
       clip-path="url(#clipPath2)" />
    <path
       id="path3"
       d="m 121,101 h 35 V 51 h 28.63"
       style="fill:none;stroke:#000000;stroke-width:1;stroke-linecap:butt;stroke-linejoin:miter;stroke-miterlimit:10;stroke-dasharray:none;stroke-opacity:1"
       transform="matrix(0.95833324,0,0,0.95833324,0.47916662,0.47916662)"
       clip-path="url(#clipPath4)" />
    <path
       id="path5"
       d="m 189.88,51 -7,3.5 1.75,-3.5 -1.75,-3.5 z"
       style="fill:#000000;fill-opacity:1;fill-rule:nonzero;stroke:#000000;stroke-width:1;stroke-linecap:butt;stroke-linejoin:miter;stroke-miterlimit:10;stroke-dasharray:none;stroke-opacity:1"
       transform="matrix(0.95833324,0,0,0.95833324,0.47916662,0.47916662)"
       clip-path="url(#clipPath6)" />
    <path
       id="path7"
       d="m 121,101 h 35 v 50 h 28.63"
       style="fill:none;stroke:#000000;stroke-width:1;stroke-linecap:butt;stroke-linejoin:miter;stroke-miterlimit:10;stroke-dasharray:none;stroke-opacity:1"
       transform="matrix(0.95833324,0,0,0.95833324,0.47916662,0.47916662)"
       clip-path="url(#clipPath8)" />
    <path
       id="path9"
       d="m 189.88,151 -7,3.5 1.75,-3.5 -1.75,-3.5 z"
       style="fill:#000000;fill-opacity:1;fill-rule:nonzero;stroke:#000000;stroke-width:1;stroke-linecap:butt;stroke-linejoin:miter;stroke-miterlimit:10;stroke-dasharray:none;stroke-opacity:1"
       transform="matrix(0.95833324,0,0,0.95833324,0.47916662,0.47916662)"
       clip-path="url(#clipPath10)" />
    <path
       id="path11"
       d="m 1,71 h 120 v 60 H 1 Z"
       style="fill:#ffffff;fill-opacity:1;fill-rule:nonzero;stroke:#000000;stroke-width:1;stroke-linecap:butt;stroke-linejoin:miter;stroke-miterlimit:10;stroke-dasharray:none;stroke-opacity:1"
       transform="matrix(0.95833324,0,0,0.95833324,0.47916662,0.47916662)"
       clip-path="url(#clipPath12)" />
    <text
       id="text12"
       xml:space="preserve"
       transform="matrix(0.95834284,0,0,0.95834284,28.00158,103.50103)"
       clip-path="url(#clipPath13)"><tspan
         style="font-variant:normal;font-weight:normal;font-size:22px;font-family:Helvetica;writing-mode:lr-tb;fill:#000000;fill-opacity:1;fill-rule:nonzero;stroke:none"
         x="0 14.673828 22 29.326172 41.561523 52.561523"
         y="0"
         sodipodi:role="line"
         id="tspan12">Arrays</tspan></text>
    <path
       id="path14"
       d="M 191,1 H 501 V 101 H 191 Z"
       style="fill:#dae8fc;fill-opacity:1;fill-rule:nonzero;stroke:#6c8ebf;stroke-width:1;stroke-linecap:butt;stroke-linejoin:miter;stroke-miterlimit:10;stroke-dasharray:none;stroke-opacity:1"
       transform="matrix(0.95833324,0,0,0.95833324,0.47916662,0.47916662)"
       clip-path="url(#clipPath15)" />
    <text
       id="text15"
       xml:space="preserve"
       transform="matrix(0.95834284,0,0,0.95834284,199.73962,43.125428)"
       clip-path="url(#clipPath16)"><tspan
         style="font-variant:normal;font-weight:normal;font-size:22px;font-family:Helvetica;writing-mode:lr-tb;fill:#000000;fill-opacity:1;fill-rule:nonzero;stroke:none"
         x="0 14.673828 19.561523 24.449219 30.561523 42.796875 47.68457 59.919922 78.246094 90.481445 102.7168 108.8291 119.8291 125.94141 138.17676 145.50293 157.73828 163.85059 176.08594 187.08594 199.32129 211.55664 216.44434 221.33203 232.33203 238.44434 250.67969 262.91504"
         y="0"
         sodipodi:role="line"
         id="tspan15">All elements are usually one</tspan></text>
    <text
       id="text16"
       xml:space="preserve"
       transform="matrix(0.95834284,0,0,0.95834284,261.26822,69.000684)"
       clip-path="url(#clipPath17)"><tspan
         style="font-variant:normal;font-weight:normal;font-size:22px;font-family:Helvetica;writing-mode:lr-tb;fill:#000000;fill-opacity:1;fill-rule:nonzero;stroke:none"
         x="0 11 23.235352 35.470703 46.470703 51.358398 62.358398 68.470703 80.706055 92.941406 99.053711 105.16602 111.27832 122.27832 134.51367"
         y="0"
         sodipodi:role="line"
         id="tspan16">consistent type</tspan></text>
    <path
       id="path18"
       d="M 191,101 H 501 V 201 H 191 Z"
       style="fill:#dae8fc;fill-opacity:1;fill-rule:nonzero;stroke:#6c8ebf;stroke-width:1;stroke-linecap:butt;stroke-linejoin:miter;stroke-miterlimit:10;stroke-dasharray:none;stroke-opacity:1"
       transform="matrix(0.95833324,0,0,0.95833324,0.47916662,0.47916662)"
       clip-path="url(#clipPath19)" />
    <text
       id="text19"
       xml:space="preserve"
       transform="matrix(0.95834284,0,0,0.95834284,209.11341,138.95971)"
       clip-path="url(#clipPath20)"><tspan
         style="font-variant:normal;font-weight:normal;font-size:22px;font-family:Helvetica;writing-mode:lr-tb;fill:#000000;fill-opacity:1;fill-rule:nonzero;stroke:none"
         x="0 13.438477 25.673828 37.90918 44.021484 56.256836 63.583008 75.818359 88.053711 95.379883 101.49219 113.72754 119.83984 125.95215 138.1875 143.0752 155.31055 173.63672 185.87207 198.10742 204.21973 215.21973 221.33203 226.21973 237.21973 243.33203"
         y="0"
         sodipodi:role="line"
         id="tspan19">The order of elements is a</tspan></text>
    <text
       id="text20"
       xml:space="preserve"
       transform="matrix(0.95834284,0,0,0.95834284,216.73522,164.83497)"
       clip-path="url(#clipPath21)"><tspan
         style="font-variant:normal;font-weight:normal;font-size:22px;font-family:Helvetica;writing-mode:lr-tb;fill:#000000;fill-opacity:1;fill-rule:nonzero;stroke:none"
         x="0 7.3261719 19.561523 30.561523 42.796875 47.68457 53.796875 59.90918 72.144531 78.256836 84.369141 90.481445 102.7168 114.95215 121.06445 132.06445 144.2998 151.62598 157.73828 169.97363 182.20898 188.32129 200.55664 207.88281 220.11816 232.35352"
         y="0"
         sodipodi:role="line"
         id="tspan20">result of the sorted order</tspan></text>
    <path
       id="path22"
       d="M 641.01001,101 H 676 V 51 h 28.64001"
       style="fill:none;stroke:#000000;stroke-width:1;stroke-linecap:butt;stroke-linejoin:miter;stroke-miterlimit:10;stroke-dasharray:none;stroke-opacity:1"
       transform="matrix(0.95833324,0,0,0.95833324,0.47916662,0.47916662)"
       clip-path="url(#clipPath23)" />
    <path
       id="path24"
       d="m 709.89001,51 -7,3.5 1.75,-3.5 -1.75,-3.5 z"
       style="fill:#000000;fill-opacity:1;fill-rule:nonzero;stroke:#000000;stroke-width:1;stroke-linecap:butt;stroke-linejoin:miter;stroke-miterlimit:10;stroke-dasharray:none;stroke-opacity:1"
       transform="matrix(0.95833324,0,0,0.95833324,0.47916662,0.47916662)"
       clip-path="url(#clipPath25)" />
    <path
       id="path26"
       d="M 641.01001,101 H 676 v 50 h 28.64001"
       style="fill:none;stroke:#000000;stroke-width:1;stroke-linecap:butt;stroke-linejoin:miter;stroke-miterlimit:10;stroke-dasharray:none;stroke-opacity:1"
       transform="matrix(0.95833324,0,0,0.95833324,0.47916662,0.47916662)"
       clip-path="url(#clipPath27)" />
    <path
       id="path28"
       d="m 709.89001,151 -7,3.5 1.75,-3.5 -1.75,-3.5 z"
       style="fill:#000000;fill-opacity:1;fill-rule:nonzero;stroke:#000000;stroke-width:1;stroke-linecap:butt;stroke-linejoin:miter;stroke-miterlimit:10;stroke-dasharray:none;stroke-opacity:1"
       transform="matrix(0.95833324,0,0,0.95833324,0.47916662,0.47916662)"
       clip-path="url(#clipPath29)" />
    <path
       id="path30"
       d="m 521.01001,71 h 120 v 60 h -120 z"
       style="fill:#ffffff;fill-opacity:1;fill-rule:nonzero;stroke:#000000;stroke-width:1;stroke-linecap:butt;stroke-linejoin:miter;stroke-miterlimit:10;stroke-dasharray:none;stroke-opacity:1"
       transform="matrix(0.95833324,0,0,0.95833324,0.47916662,0.47916662)"
       clip-path="url(#clipPath31)" />
    <text
       id="text31"
       xml:space="preserve"
       transform="matrix(0.95834284,0,0,0.95834284,530.80214,103.50103)"
       clip-path="url(#clipPath32)"><tspan
         style="font-variant:normal;font-weight:normal;font-size:22px;font-family:Helvetica;writing-mode:lr-tb;fill:#000000;fill-opacity:1;fill-rule:nonzero;stroke:none"
         x="0 12.632812 24.868164 37.103516 41.991211"
         y="0"
         sodipodi:role="line"
         id="tspan31">Tuple</tspan></text>
    <path
       id="path33"
       d="M 711.01001,1 H 1021.01 V 101 H 711.01001 Z"
       style="fill:#dae8fc;fill-opacity:1;fill-rule:nonzero;stroke:#6c8ebf;stroke-width:1;stroke-linecap:butt;stroke-linejoin:miter;stroke-miterlimit:10;stroke-dasharray:none;stroke-opacity:1"
       transform="matrix(0.95833324,0,0,0.95833324,0.47916662,0.47916662)"
       clip-path="url(#clipPath34)" />
    <text
       id="text34"
       xml:space="preserve"
       transform="matrix(0.95834284,0,0,0.95834284,701.58183,43.125428)"
       clip-path="url(#clipPath35)"><tspan
         style="font-variant:normal;font-weight:normal;font-size:22px;font-family:Helvetica;writing-mode:lr-tb;fill:#000000;fill-opacity:1;fill-rule:nonzero;stroke:none"
         x="0 14.673828 26.90918 37.90918 50.144531 56.256836 68.492188 73.379883 85.615234 103.94141 116.17676 128.41211 134.52441 140.63672 158.96289 163.85059 176.08594 188.32129 194.43359 200.5459 212.78125 225.0166 231.12891 243.36426 249.47656 255.58887"
         y="0"
         sodipodi:role="line"
         id="tspan34">Each element might be of a</tspan></text>
    <text
       id="text35"
       xml:space="preserve"
       transform="matrix(0.95834284,0,0,0.95834284,769.15997,69.000684)"
       clip-path="url(#clipPath36)"><tspan
         style="font-variant:normal;font-weight:normal;font-size:22px;font-family:Helvetica;writing-mode:lr-tb;fill:#000000;fill-opacity:1;fill-rule:nonzero;stroke:none"
         x="0 12.235352 17.123047 22.848633 28.960938 41.196289 48.522461 60.757812 72.993164 79.105469 85.217773 91.330078 102.33008 114.56543"
         y="0"
         sodipodi:role="line"
         id="tspan35">different type</tspan></text>
    <path
       id="path37"
       d="M 711.01001,101 H 1021.01 V 201 H 711.01001 Z"
       style="fill:#dae8fc;fill-opacity:1;fill-rule:nonzero;stroke:#6c8ebf;stroke-width:1;stroke-linecap:butt;stroke-linejoin:miter;stroke-miterlimit:10;stroke-dasharray:none;stroke-opacity:1"
       transform="matrix(0.95833324,0,0,0.95833324,0.47916662,0.47916662)"
       clip-path="url(#clipPath38)" />
    <text
       id="text38"
       xml:space="preserve"
       transform="matrix(0.95834284,0,0,0.95834284,692.23799,126.50125)"
       clip-path="url(#clipPath39)"><tspan
         style="font-variant:normal;font-weight:normal;font-size:22px;font-family:Helvetica;writing-mode:lr-tb;fill:#000000;fill-opacity:1;fill-rule:nonzero;stroke:none"
         x="0 13.438477 25.673828 37.90918 44.021484 56.256836 63.583008 75.818359 88.053711 95.379883 101.49219 113.72754 119.83984 125.95215 138.1875 143.0752 155.31055 173.63672 185.87207 198.10742 204.21973 215.21973 221.33203 232.33203 244.56738 251.89355 259.21973 264.10742 276.34277"
         y="0"
         sodipodi:role="line"
         id="tspan38">The order of elements carries</tspan></text>
    <text
       id="text39"
       xml:space="preserve"
       transform="matrix(0.95834284,0,0,0.95834284,698.06291,151.41817)"
       clip-path="url(#clipPath40)"><tspan
         style="font-variant:normal;font-weight:normal;font-size:22px;font-family:Helvetica;writing-mode:lr-tb;fill:#000000;fill-opacity:1;fill-rule:nonzero;stroke:none"
         x="0 18.326172 30.561523 42.796875 55.032227 59.919922 72.155273 84.390625 90.50293 102.73828 114.97363 125.97363 138.20898 150.44434 162.67969 168.79199 173.67969 185.91504 196.91504 203.02734 209.13965 220.13965 232.375 239.70117 245.81348 250.70117 262.93652"
         y="0"
         sodipodi:role="line"
         id="tspan39">meaning beyond just sorting</tspan></text>
    <text
       id="text40"
       xml:space="preserve"
       transform="matrix(0.95834284,0,0,0.95834284,805.30747,177.29343)"
       clip-path="url(#clipPath41)"><tspan
         style="font-variant:normal;font-weight:normal;font-size:22px;font-family:Helvetica;writing-mode:lr-tb;fill:#000000;fill-opacity:1;fill-rule:nonzero;stroke:none"
         x="0 12.235352 19.561523 31.796875 44.032227"
         y="0"
         sodipodi:role="line"
         id="tspan40">order</tspan></text>
  </g>
</svg>
