<?xml version="1.0" encoding="UTF-8" standalone="no"?>
<!-- Created with Inkscape (http://www.inkscape.org/) -->

<svg
   version="1.1"
   id="svg1"
   width="616"
   height="244.16"
   viewBox="0 0 616 244.16"
   sodipodi:docname="ts-14.pdf"
   xmlns:inkscape="http://www.inkscape.org/namespaces/inkscape"
   xmlns:sodipodi="http://sodipodi.sourceforge.net/DTD/sodipodi-0.dtd"
   xmlns="http://www.w3.org/2000/svg"
   xmlns:svg="http://www.w3.org/2000/svg">
  <defs
     id="defs1">
    <clipPath
       clipPathUnits="userSpaceOnUse"
       id="clipPath2">
      <path
         d="M 0,0 H 1924.9999 V 762.22821 H 0 Z"
         transform="scale(0.33454547)"
         clip-rule="evenodd"
         id="path2" />
    </clipPath>
    <clipPath
       clipPathUnits="userSpaceOnUse"
       id="clipPath4">
      <path
         d="M 0,0 H 1924.9999 V 756.24994 H 0 Z"
         transform="matrix(0.33454547,0,0,0.33454547,-0.49999999,-0.49999999)"
         clip-rule="evenodd"
         id="path4" />
    </clipPath>
    <clipPath
       clipPathUnits="userSpaceOnUse"
       id="clipPath5">
      <path
         d="M 0,0 H 1924.9999 V 756.24994 H 0 Z"
         transform="matrix(0.33454211,0,0,0.33454211,-19.484375,-40)"
         clip-rule="evenodd"
         id="path5" />
    </clipPath>
    <clipPath
       clipPathUnits="userSpaceOnUse"
       id="clipPath6">
      <path
         d="M 0,0 H 1924.9999 V 756.24994 H 0 Z"
         transform="matrix(0.33454211,0,0,0.33454211,-143,-18)"
         clip-rule="evenodd"
         id="path6" />
    </clipPath>
    <clipPath
       clipPathUnits="userSpaceOnUse"
       id="clipPath7">
      <path
         d="M 0,0 H 1924.9999 V 756.24994 H 0 Z"
         transform="matrix(0.33454211,0,0,0.33454211,-143,-40)"
         clip-rule="evenodd"
         id="path7" />
    </clipPath>
    <clipPath
       clipPathUnits="userSpaceOnUse"
       id="clipPath8">
      <path
         d="M 0,0 H 1924.9999 V 756.24994 H 0 Z"
         transform="matrix(0.33454211,0,0,0.33454211,-143,-61)"
         clip-rule="evenodd"
         id="path8" />
    </clipPath>
    <clipPath
       clipPathUnits="userSpaceOnUse"
       id="clipPath10">
      <path
         d="M 0,0 H 1924.9999 V 756.24994 H 0 Z"
         transform="matrix(0.33454547,0,0,0.33454547,-0.49999999,-0.49999999)"
         clip-rule="evenodd"
         id="path10" />
    </clipPath>
    <clipPath
       clipPathUnits="userSpaceOnUse"
       id="clipPath11">
      <path
         d="M 0,0 H 1924.9999 V 756.24994 H 0 Z"
         transform="matrix(0.33454211,0,0,0.33454211,-8.4375,-150)"
         clip-rule="evenodd"
         id="path11" />
    </clipPath>
    <clipPath
       clipPathUnits="userSpaceOnUse"
       id="clipPath13">
      <path
         d="M 0,0 H 1924.9999 V 756.24994 H 0 Z"
         transform="matrix(0.33454547,0,0,0.33454547,-0.49999999,-0.49999999)"
         clip-rule="evenodd"
         id="path13" />
    </clipPath>
    <clipPath
       clipPathUnits="userSpaceOnUse"
       id="clipPath15">
      <path
         d="M 0,0 H 1924.9999 V 756.24994 H 0 Z"
         transform="matrix(0.33454547,0,0,0.33454547,-0.49999999,-0.49999999)"
         clip-rule="evenodd"
         id="path15" />
    </clipPath>
    <clipPath
       clipPathUnits="userSpaceOnUse"
       id="clipPath17">
      <path
         d="M 0,0 H 1924.9999 V 756.24994 H 0 Z"
         transform="matrix(0.33454547,0,0,0.33454547,-0.49999999,-0.49999999)"
         clip-rule="evenodd"
         id="path17" />
    </clipPath>
    <clipPath
       clipPathUnits="userSpaceOnUse"
       id="clipPath18">
      <path
         d="M 0,0 H 1924.9999 V 756.24994 H 0 Z"
         transform="matrix(0.33454211,0,0,0.33454211,-88.46875,-194.99999)"
         clip-rule="evenodd"
         id="path18" />
    </clipPath>
    <clipPath
       clipPathUnits="userSpaceOnUse"
       id="clipPath20">
      <path
         d="M 0,0 H 1924.9999 V 756.24994 H 0 Z"
         transform="matrix(0.33454547,0,0,0.33454547,-0.49999999,-0.49999999)"
         clip-rule="evenodd"
         id="path20" />
    </clipPath>
    <clipPath
       clipPathUnits="userSpaceOnUse"
       id="clipPath21">
      <path
         d="M 0,0 H 1924.9999 V 756.24994 H 0 Z"
         transform="matrix(0.33454211,0,0,0.33454211,-261.46875,-193)"
         clip-rule="evenodd"
         id="path21" />
    </clipPath>
    <clipPath
       clipPathUnits="userSpaceOnUse"
       id="clipPath23">
      <path
         d="M 0,0 H 1924.9999 V 756.24994 H 0 Z"
         transform="matrix(0.33454547,0,0,0.33454547,-0.49999999,-0.49999999)"
         clip-rule="evenodd"
         id="path23" />
    </clipPath>
    <clipPath
       clipPathUnits="userSpaceOnUse"
       id="clipPath24">
      <path
         d="M 0,0 H 1924.9999 V 756.24994 H 0 Z"
         transform="matrix(0.33454211,0,0,0.33454211,-257.5,-218)"
         clip-rule="evenodd"
         id="path24" />
    </clipPath>
    <clipPath
       clipPathUnits="userSpaceOnUse"
       id="clipPath26">
      <path
         d="M 0,0 H 1924.9999 V 756.24994 H 0 Z"
         transform="matrix(0.33454547,0,0,0.33454547,-0.49999999,-0.49999999)"
         clip-rule="evenodd"
         id="path26" />
    </clipPath>
    <clipPath
       clipPathUnits="userSpaceOnUse"
       id="clipPath27">
      <path
         d="M 0,0 H 1924.9999 V 756.24994 H 0 Z"
         transform="matrix(0.33454211,0,0,0.33454211,-264.48438,-243)"
         clip-rule="evenodd"
         id="path27" />
    </clipPath>
  </defs>
  <sodipodi:namedview
     id="namedview1"
     pagecolor="#ffffff"
     bordercolor="#000000"
     borderopacity="0.25"
     inkscape:showpageshadow="2"
     inkscape:pageopacity="0.0"
     inkscape:pagecheckerboard="0"
     inkscape:deskcolor="#d1d1d1">
    <inkscape:page
       x="0"
       y="0"
       inkscape:label="1"
       id="page1"
       width="616"
       height="244.16"
       margin="0"
       bleed="0" />
  </sodipodi:namedview>
  <g
     id="g1"
     inkscape:groupmode="layer"
     inkscape:label="1">
    <path
       id="path1"
       d="M 0,0 H 644 V 255 H 0 Z"
       style="fill:#ffffff;fill-opacity:1;fill-rule:nonzero;stroke:none"
       transform="scale(0.95652166)"
       clip-path="url(#clipPath2)" />
    <path
       id="path3"
       d="M 1,3 H 121 V 63 H 1 Z"
       style="fill:#ffffff;fill-opacity:1;fill-rule:nonzero;stroke:#000000;stroke-width:1;stroke-linecap:butt;stroke-linejoin:miter;stroke-miterlimit:10;stroke-dasharray:none;stroke-opacity:1"
       transform="matrix(0.95652166,0,0,0.95652166,0.47826082,0.47826082)"
       clip-path="url(#clipPath4)" />
    <text
       id="text4"
       xml:space="preserve"
       transform="matrix(0.95653126,0,0,0.95653126,18.637414,38.26125)"
       clip-path="url(#clipPath5)"><tspan
         style="font-variant:normal;font-weight:700;font-size:18px;font-family:Helvetica;writing-mode:lr-tb;fill:#000000;fill-opacity:1;fill-rule:nonzero;stroke:none"
         x="0 14.000977 24.996094 30.990234 35.991211 46.986328 57.981445 62.982422 72.993164"
         y="0"
         sodipodi:role="line"
         id="tspan4">Option #1</tspan></text>
    <text
       id="text5"
       xml:space="preserve"
       transform="matrix(0.95653126,0,0,0.95653126,136.78397,17.217563)"
       clip-path="url(#clipPath6)"><tspan
         style="font-variant:normal;font-weight:normal;font-size:18px;font-family:Helvetica;writing-mode:lr-tb;fill:#000000;fill-opacity:1;fill-rule:nonzero;stroke:none"
         x="0 10.335938 20.34668 26.34082 36.351562 41.352539 44.789062 54.799805 64.810547 69.811523 79.822266 83.258789 88.259766 92.258789 102.26953 107.27051 117.28125 122.28223 132.29297 142.30371 147.30469 157.31543 163.30957 169.30371 179.31445 188.31445 193.31543 203.32617"
         y="0"
         sodipodi:role="line"
         id="tspan5">Turn 'data' into an array of</tspan></text>
    <text
       id="text6"
       xml:space="preserve"
       transform="matrix(0.95653126,0,0,0.95653126,136.78397,38.26125)"
       clip-path="url(#clipPath7)"><tspan
         style="font-variant:normal;font-weight:normal;font-size:18px;font-family:Helvetica;writing-mode:lr-tb;fill:#000000;fill-opacity:1;fill-rule:nonzero;stroke:none"
         x="0 10.010742 20.021484 24.020508 34.03125 43.03125 48.032227 57.032227 62.033203 67.03418 80.033203 90.043945 100.05469 106.04883 116.05957 121.06055 131.07129 141.08203 150.08203 160.09277 165.09375 175.10449 185.11523 189.11426 199.125 208.125"
         y="0"
         sodipodi:role="line"
         id="tspan6">objects, where each object</tspan></text>
    <text
       id="text7"
       xml:space="preserve"
       transform="matrix(0.95653126,0,0,0.95653126,136.78397,58.348407)"
       clip-path="url(#clipPath8)"><tspan
         style="font-variant:normal;font-weight:normal;font-size:18px;font-family:Helvetica;writing-mode:lr-tb;fill:#000000;fill-opacity:1;fill-rule:nonzero;stroke:none"
         x="0 5.9941406 16.004883 26.015625 32.009766 42.020508 51.020508 61.03125 71.041992 76.042969 85.042969 90.043945 100.05469 105.05566 114.05566 118.05469 128.06543 138.07617 142.0752 152.08594 157.08691 172.08105 182.0918 187.09277 196.09277"
         y="0"
         sodipodi:role="line"
         id="tspan7">represents a single match</tspan></text>
    <path
       id="path9"
       d="m 1,113 h 190 v 60 H 1 Z"
       style="fill:#ffffff;fill-opacity:1;fill-rule:nonzero;stroke:#000000;stroke-width:1;stroke-linecap:butt;stroke-linejoin:miter;stroke-miterlimit:10;stroke-dasharray:none;stroke-opacity:1"
       transform="matrix(0.95652166,0,0,0.95652166,0.47826082,0.47826082)"
       clip-path="url(#clipPath10)" />
    <text
       id="text10"
       xml:space="preserve"
       transform="matrix(0.95653126,0,0,0.95653126,8.0707325,143.47969)"
       clip-path="url(#clipPath11)"><tspan
         style="font-variant:normal;font-weight:700;font-size:18px;font-family:Helvetica;writing-mode:lr-tb;fill:#000000;fill-opacity:1;fill-rule:nonzero;stroke:none"
         x="0 10.010742 15.011719 25.022461 35.033203 45.043945 50.044922 63.043945 73.054688 83.06543 94.060547 99.061523 104.0625 114.07324 127.07227 137.08301 147.09375 158.08887 168.09961"
         y="0"
         sodipodi:role="line"
         id="tspan10">class CsvFileReader</tspan></text>
    <path
       id="path12"
       d="m 191,188 h 30 23.63"
       style="fill:none;stroke:#000000;stroke-width:1;stroke-linecap:butt;stroke-linejoin:miter;stroke-miterlimit:10;stroke-dasharray:none;stroke-opacity:1"
       transform="matrix(0.95652166,0,0,0.95652166,0.47826082,0.47826082)"
       clip-path="url(#clipPath13)" />
    <path
       id="path14"
       d="m 249.88,188 -7,3.5 1.75,-3.5 -1.75,-3.5 z"
       style="fill:#000000;fill-opacity:1;fill-rule:nonzero;stroke:#000000;stroke-width:1;stroke-linecap:butt;stroke-linejoin:miter;stroke-miterlimit:10;stroke-dasharray:none;stroke-opacity:1"
       transform="matrix(0.95652166,0,0,0.95652166,0.47826082,0.47826082)"
       clip-path="url(#clipPath15)" />
    <path
       id="path16"
       d="m 21,173 h 170 v 30 H 21 Z"
       style="fill:#dae8fc;fill-opacity:1;fill-rule:nonzero;stroke:#6c8ebf;stroke-width:1;stroke-linecap:butt;stroke-linejoin:miter;stroke-miterlimit:10;stroke-dasharray:none;stroke-opacity:1"
       transform="matrix(0.95652166,0,0,0.95652166,0.47826082,0.47826082)"
       clip-path="url(#clipPath17)" />
    <text
       id="text17"
       xml:space="preserve"
       transform="matrix(0.95653126,0,0,0.95653126,84.623125,186.52359)"
       clip-path="url(#clipPath18)"><tspan
         style="font-variant:normal;font-weight:normal;font-size:18px;font-family:Helvetica;writing-mode:lr-tb;fill:#000000;fill-opacity:1;fill-rule:nonzero;stroke:none"
         x="0 10.010742 20.021484 25.022461"
         y="0"
         sodipodi:role="line"
         id="tspan17">data</tspan></text>
    <path
       id="path19"
       d="m 251,175.5 h 390 v 25 H 251 Z"
       style="fill:#ffffff;fill-opacity:1;fill-rule:nonzero;stroke:#000000;stroke-width:1;stroke-linecap:butt;stroke-linejoin:miter;stroke-miterlimit:10;stroke-dasharray:none;stroke-opacity:1"
       transform="matrix(0.95652166,0,0,0.95652166,0.47826082,0.47826082)"
       clip-path="url(#clipPath20)" />
    <text
       id="text20"
       xml:space="preserve"
       transform="matrix(0.95653126,0,0,0.95653126,250.10303,184.61053)"
       clip-path="url(#clipPath21)"><tspan
         style="font-variant:normal;font-weight:normal;font-size:13px;font-family:Helvetica;writing-mode:lr-tb;fill:#000000;fill-opacity:1;fill-rule:nonzero;stroke:none"
         x="0 4.3417969 7.9536133 15.183594 22.413574 26.025391 33.255371 36.867188 40.479004 49.867188 57.097168 60.708984 67.938965 72.268066 76.597168 80.208984 83.820801 91.050781 98.280762 109.10986 116.33984 122.83984 130.06982 137.2998 148.12891 151.74072 155.35254 157.83447 168.66357 175.89355 183.12354 186.73535 196.12354 203.35352 206.2417 209.85352 217.0835 224.31348 226.79541 230.40723 234.01904 241.24902 250.63721 257.86719 264.36719 270.86719 278.09717 285.32715 296.15625 299.76807 303.37988 305.86182 313.0918 320.32178 323.20996 329.70996 336.93994 343.43994 347.05176 354.28174 358.61084 361.09277 364.70459"
         y="0"
         sodipodi:role="line"
         id="tspan20">{ date: Date(), homeTeam: 'Man United', awayTeam: 'Leicester' }</tspan></text>
    <path
       id="path22"
       d="m 251,200.5 h 390 v 25 H 251 Z"
       style="fill:#ffffff;fill-opacity:1;fill-rule:nonzero;stroke:#000000;stroke-width:1;stroke-linecap:butt;stroke-linejoin:miter;stroke-miterlimit:10;stroke-dasharray:none;stroke-opacity:1"
       transform="matrix(0.95652166,0,0,0.95652166,0.47826082,0.47826082)"
       clip-path="url(#clipPath23)" />
    <text
       id="text23"
       xml:space="preserve"
       transform="matrix(0.95653126,0,0,0.95653126,246.3068,208.52381)"
       clip-path="url(#clipPath24)"><tspan
         style="font-variant:normal;font-weight:normal;font-size:13px;font-family:Helvetica;writing-mode:lr-tb;fill:#000000;fill-opacity:1;fill-rule:nonzero;stroke:none"
         x="0 4.3417969 7.9536133 15.183594 22.413574 26.025391 33.255371 36.867188 40.479004 49.867188 57.097168 60.708984 67.938965 72.268066 76.597168 80.208984 83.820801 91.050781 98.280762 109.10986 116.33984 122.83984 130.06982 137.2998 148.12891 151.74072 155.35254 157.83447 165.77539 173.00537 175.89355 183.12354 190.35352 201.18262 203.66455 207.27637 210.88818 218.11816 227.50635 234.73633 241.23633 247.73633 254.96631 262.19629 273.02539 276.63721 280.24902 282.73096 292.11914 296.44824 302.94824 309.44824 313.06006 320.29004 323.17822 326.79004 335.46094 342.69092 345.5791 352.80908 359.30908 366.53906 369.021 372.63281"
         y="0"
         sodipodi:role="line"
         id="tspan23">{ date: Date(), homeTeam: 'Fulham', awayTeam: 'Crystal Palace' }</tspan></text>
    <path
       id="path25"
       d="m 251,225.5 h 390 v 25 H 251 Z"
       style="fill:#ffffff;fill-opacity:1;fill-rule:nonzero;stroke:#000000;stroke-width:1;stroke-linecap:butt;stroke-linejoin:miter;stroke-miterlimit:10;stroke-dasharray:none;stroke-opacity:1"
       transform="matrix(0.95652166,0,0,0.95652166,0.47826082,0.47826082)"
       clip-path="url(#clipPath26)" />
    <text
       id="text26"
       xml:space="preserve"
       transform="matrix(0.95653126,0,0,0.95653126,252.98758,232.4371)"
       clip-path="url(#clipPath27)"><tspan
         style="font-variant:normal;font-weight:normal;font-size:13px;font-family:Helvetica;writing-mode:lr-tb;fill:#000000;fill-opacity:1;fill-rule:nonzero;stroke:none"
         x="0 4.3417969 7.9536133 15.183594 22.413574 26.025391 33.255371 36.867188 40.479004 49.867188 57.097168 60.708984 67.938965 72.268066 76.597168 80.208984 83.820801 91.050781 98.280762 109.10986 116.33984 122.83984 130.06982 137.2998 148.12891 151.74072 155.35254 157.83447 165.06445 167.95264 174.45264 181.68262 186.01172 193.2417 200.47168 207.70166 210.58984 213.07178 216.68359 220.29541 227.52539 236.91357 244.14355 250.64355 257.14355 264.37354 271.60352 282.43262 286.04443 289.65625 292.13818 304.17969 311.40967 317.90967 321.52148 325.1333 334.52148 341.75146 352.58057 355.0625 358.67432"
         y="0"
         sodipodi:role="line"
         id="tspan26">{ date: Date(), homeTeam: 'Liverpool', awayTeam: 'West Ham' }</tspan></text>
  </g>
</svg>
