<?xml version="1.0" encoding="UTF-8" standalone="no"?>
<!-- Created with Inkscape (http://www.inkscape.org/) -->

<svg
   version="1.1"
   id="svg1"
   width="712"
   height="378.55997"
   viewBox="0 0 712 378.55997"
   sodipodi:docname="ts-20.pdf"
   xmlns:inkscape="http://www.inkscape.org/namespaces/inkscape"
   xmlns:sodipodi="http://sodipodi.sourceforge.net/DTD/sodipodi-0.dtd"
   xmlns="http://www.w3.org/2000/svg"
   xmlns:svg="http://www.w3.org/2000/svg">
  <defs
     id="defs1">
    <clipPath
       clipPathUnits="userSpaceOnUse"
       id="clipPath2">
      <path
         d="M 0,0 H 2224.9998 V 1181.2835 H 0 Z"
         transform="scale(0.33438207)"
         clip-rule="evenodd"
         id="path2" />
    </clipPath>
    <clipPath
       clipPathUnits="userSpaceOnUse"
       id="clipPath4">
      <path
         d="M 0,0 H 2224.9998 V 1178.2929 H 0 Z"
         transform="matrix(0.33438207,0,0,0.33438207,-0.50000001,-0.50000001)"
         clip-rule="evenodd"
         id="path4" />
    </clipPath>
    <clipPath
       clipPathUnits="userSpaceOnUse"
       id="clipPath5">
      <path
         d="M 0,0 H 2224.9998 V 1178.2929 H 0 Z"
         transform="matrix(0.3343787,0,0,0.3343787,-79.953126,-248)"
         clip-rule="evenodd"
         id="path5" />
    </clipPath>
    <clipPath
       clipPathUnits="userSpaceOnUse"
       id="clipPath7">
      <path
         d="M 0,0 H 2224.9998 V 1178.2929 H 0 Z"
         transform="matrix(0.33438207,0,0,0.33438207,-0.50000001,-0.50000001)"
         clip-rule="evenodd"
         id="path7" />
    </clipPath>
    <clipPath
       clipPathUnits="userSpaceOnUse"
       id="clipPath8">
      <path
         d="M 0,0 H 2224.9998 V 1178.2929 H 0 Z"
         transform="matrix(0.3343787,0,0,0.3343787,-72.453125,-288)"
         clip-rule="evenodd"
         id="path8" />
    </clipPath>
    <clipPath
       clipPathUnits="userSpaceOnUse"
       id="clipPath10">
      <path
         d="M 0,0 H 2224.9998 V 1178.2929 H 0 Z"
         transform="matrix(0.33438207,0,0,0.33438207,-0.50000001,-0.50000001)"
         clip-rule="evenodd"
         id="path10" />
    </clipPath>
    <clipPath
       clipPathUnits="userSpaceOnUse"
       id="clipPath11">
      <path
         d="M 0,0 H 2224.9998 V 1178.2929 H 0 Z"
         transform="matrix(0.3343787,0,0,0.3343787,-38.921875,-328)"
         clip-rule="evenodd"
         id="path11" />
    </clipPath>
    <clipPath
       clipPathUnits="userSpaceOnUse"
       id="clipPath13">
      <path
         d="M 0,0 H 2224.9998 V 1178.2929 H 0 Z"
         transform="matrix(0.33438207,0,0,0.33438207,-0.50000001,-0.50000001)"
         clip-rule="evenodd"
         id="path13" />
    </clipPath>
    <clipPath
       clipPathUnits="userSpaceOnUse"
       id="clipPath14">
      <path
         d="M 0,0 H 2224.9998 V 1178.2929 H 0 Z"
         transform="matrix(0.3343787,0,0,0.3343787,-10.9375,-368)"
         clip-rule="evenodd"
         id="path14" />
    </clipPath>
    <clipPath
       clipPathUnits="userSpaceOnUse"
       id="clipPath16">
      <path
         d="M 0,0 H 2224.9998 V 1178.2929 H 0 Z"
         transform="matrix(0.33438207,0,0,0.33438207,-0.50000001,-0.50000001)"
         clip-rule="evenodd"
         id="path16" />
    </clipPath>
    <clipPath
       clipPathUnits="userSpaceOnUse"
       id="clipPath17">
      <path
         d="M 0,0 H 2224.9998 V 1178.2929 H 0 Z"
         transform="matrix(0.3343787,0,0,0.3343787,-68.796875,-28)"
         clip-rule="evenodd"
         id="path17" />
    </clipPath>
    <clipPath
       clipPathUnits="userSpaceOnUse"
       id="clipPath19">
      <path
         d="M 0,0 H 2224.9998 V 1178.2929 H 0 Z"
         transform="matrix(0.33438207,0,0,0.33438207,-0.50000001,-0.50000001)"
         clip-rule="evenodd"
         id="path19" />
    </clipPath>
    <clipPath
       clipPathUnits="userSpaceOnUse"
       id="clipPath20">
      <path
         d="M 0,0 H 2224.9998 V 1178.2929 H 0 Z"
         transform="matrix(0.3343787,0,0,0.3343787,-49.640625,-128.00001)"
         clip-rule="evenodd"
         id="path20" />
    </clipPath>
    <clipPath
       clipPathUnits="userSpaceOnUse"
       id="clipPath22">
      <path
         d="M 0,0 H 2224.9998 V 1178.2929 H 0 Z"
         transform="matrix(0.33438207,0,0,0.33438207,-0.50000001,-0.50000001)"
         clip-rule="evenodd"
         id="path22" />
    </clipPath>
    <clipPath
       clipPathUnits="userSpaceOnUse"
       id="clipPath23">
      <path
         d="M 0,0 H 2224.9998 V 1178.2929 H 0 Z"
         transform="matrix(0.3343787,0,0,0.3343787,-12.453125,-68)"
         clip-rule="evenodd"
         id="path23" />
    </clipPath>
    <clipPath
       clipPathUnits="userSpaceOnUse"
       id="clipPath25">
      <path
         d="M 0,0 H 2224.9998 V 1178.2929 H 0 Z"
         transform="matrix(0.33438207,0,0,0.33438207,-0.50000001,-0.50000001)"
         clip-rule="evenodd"
         id="path25" />
    </clipPath>
    <clipPath
       clipPathUnits="userSpaceOnUse"
       id="clipPath26">
      <path
         d="M 0,0 H 2224.9998 V 1178.2929 H 0 Z"
         transform="matrix(0.3343787,0,0,0.3343787,-50.453125,-168)"
         clip-rule="evenodd"
         id="path26" />
    </clipPath>
    <clipPath
       clipPathUnits="userSpaceOnUse"
       id="clipPath28">
      <path
         d="M 0,0 H 2224.9998 V 1178.2929 H 0 Z"
         transform="matrix(0.33438207,0,0,0.33438207,-0.50000001,-0.50000001)"
         clip-rule="evenodd"
         id="path28" />
    </clipPath>
    <clipPath
       clipPathUnits="userSpaceOnUse"
       id="clipPath29">
      <path
         d="M 0,0 H 2224.9998 V 1178.2929 H 0 Z"
         transform="matrix(0.3343787,0,0,0.3343787,-512.53126,-128.00001)"
         clip-rule="evenodd"
         id="path29" />
    </clipPath>
    <clipPath
       clipPathUnits="userSpaceOnUse"
       id="clipPath31">
      <path
         d="M 0,0 H 2224.9998 V 1178.2929 H 0 Z"
         transform="matrix(0.33438207,0,0,0.33438207,-0.50000001,-0.50000001)"
         clip-rule="evenodd"
         id="path31" />
    </clipPath>
    <clipPath
       clipPathUnits="userSpaceOnUse"
       id="clipPath32">
      <path
         d="M 0,0 H 2224.9998 V 1178.2929 H 0 Z"
         transform="matrix(0.3343787,0,0,0.3343787,-501.46875,-168)"
         clip-rule="evenodd"
         id="path32" />
    </clipPath>
    <clipPath
       clipPathUnits="userSpaceOnUse"
       id="clipPath34">
      <path
         d="M 0,0 H 2224.9998 V 1178.2929 H 0 Z"
         transform="matrix(0.33438207,0,0,0.33438207,-0.50000001,-0.50000001)"
         clip-rule="evenodd"
         id="path34" />
    </clipPath>
    <clipPath
       clipPathUnits="userSpaceOnUse"
       id="clipPath35">
      <path
         d="M 0,0 H 2224.9998 V 1178.2929 H 0 Z"
         transform="matrix(0.3343787,0,0,0.3343787,-506.46875,-238)"
         clip-rule="evenodd"
         id="path35" />
    </clipPath>
    <clipPath
       clipPathUnits="userSpaceOnUse"
       id="clipPath37">
      <path
         d="M 0,0 H 2224.9998 V 1178.2929 H 0 Z"
         transform="matrix(0.33438207,0,0,0.33438207,-0.50000001,-0.50000001)"
         clip-rule="evenodd"
         id="path37" />
    </clipPath>
    <clipPath
       clipPathUnits="userSpaceOnUse"
       id="clipPath38">
      <path
         d="M 0,0 H 2224.9998 V 1178.2929 H 0 Z"
         transform="matrix(0.3343787,0,0,0.3343787,-500.45313,-278)"
         clip-rule="evenodd"
         id="path38" />
    </clipPath>
    <clipPath
       clipPathUnits="userSpaceOnUse"
       id="clipPath40">
      <path
         d="M 0,0 H 2224.9998 V 1178.2929 H 0 Z"
         transform="matrix(0.33438207,0,0,0.33438207,-0.50000001,-0.50000001)"
         clip-rule="evenodd"
         id="path40" />
    </clipPath>
    <clipPath
       clipPathUnits="userSpaceOnUse"
       id="clipPath41">
      <path
         d="M 0,0 H 2224.9998 V 1178.2929 H 0 Z"
         transform="matrix(0.3343787,0,0,0.3343787,-521.96875,-338)"
         clip-rule="evenodd"
         id="path41" />
    </clipPath>
    <clipPath
       clipPathUnits="userSpaceOnUse"
       id="clipPath43">
      <path
         d="M 0,0 H 2224.9998 V 1178.2929 H 0 Z"
         transform="matrix(0.33438207,0,0,0.33438207,-0.50000001,-0.50000001)"
         clip-rule="evenodd"
         id="path43" />
    </clipPath>
    <clipPath
       clipPathUnits="userSpaceOnUse"
       id="clipPath44">
      <path
         d="M 0,0 H 2224.9998 V 1178.2929 H 0 Z"
         transform="matrix(0.3343787,0,0,0.3343787,-500.45313,-378)"
         clip-rule="evenodd"
         id="path44" />
    </clipPath>
    <clipPath
       clipPathUnits="userSpaceOnUse"
       id="clipPath46">
      <path
         d="M 0,0 H 2224.9998 V 1178.2929 H 0 Z"
         transform="matrix(0.33438207,0,0,0.33438207,-0.50000001,-0.50000001)"
         clip-rule="evenodd"
         id="path46" />
    </clipPath>
    <clipPath
       clipPathUnits="userSpaceOnUse"
       id="clipPath47">
      <path
         d="M 0,0 H 2224.9998 V 1178.2929 H 0 Z"
         transform="matrix(0.3343787,0,0,0.3343787,-474.07813,-28)"
         clip-rule="evenodd"
         id="path47" />
    </clipPath>
    <clipPath
       clipPathUnits="userSpaceOnUse"
       id="clipPath49">
      <path
         d="M 0,0 H 2224.9998 V 1178.2929 H 0 Z"
         transform="matrix(0.33438207,0,0,0.33438207,-0.50000001,-0.50000001)"
         clip-rule="evenodd"
         id="path49" />
    </clipPath>
    <clipPath
       clipPathUnits="userSpaceOnUse"
       id="clipPath50">
      <path
         d="M 0,0 H 2224.9998 V 1178.2929 H 0 Z"
         transform="matrix(0.3343787,0,0,0.3343787,-501.46875,-68)"
         clip-rule="evenodd"
         id="path50" />
    </clipPath>
  </defs>
  <sodipodi:namedview
     id="namedview1"
     pagecolor="#ffffff"
     bordercolor="#000000"
     borderopacity="0.25"
     inkscape:showpageshadow="2"
     inkscape:pageopacity="0.0"
     inkscape:pagecheckerboard="0"
     inkscape:deskcolor="#d1d1d1">
    <inkscape:page
       x="0"
       y="0"
       inkscape:label="1"
       id="page1"
       width="712"
       height="378.55997"
       margin="0"
       bleed="0" />
  </sodipodi:namedview>
  <g
     id="g1"
     inkscape:groupmode="layer"
     inkscape:label="1">
    <path
       id="path1"
       d="M 0,0 H 744 V 395 H 0 Z"
       style="fill:#ffffff;fill-opacity:1;fill-rule:nonzero;stroke:none"
       transform="scale(0.95698908)"
       clip-path="url(#clipPath2)" />
    <path
       id="path3"
       d="m 1,221 h 290 v 40 H 1 Z"
       style="fill:#dae8fc;fill-opacity:1;fill-rule:nonzero;stroke:#6c8ebf;stroke-width:1;stroke-linecap:butt;stroke-linejoin:miter;stroke-miterlimit:10;stroke-dasharray:none;stroke-opacity:1"
       transform="matrix(0.95698908,0,0,0.95698908,0.47849455,0.47849455)"
       clip-path="url(#clipPath4)" />
    <text
       id="text4"
       xml:space="preserve"
       transform="matrix(0.95699871,0,0,0.95699871,76.515038,237.33568)"
       clip-path="url(#clipPath5)"><tspan
         style="font-variant:normal;font-weight:700;font-size:18px;font-family:Helvetica;writing-mode:lr-tb;fill:#000000;fill-opacity:1;fill-rule:nonzero;stroke:none"
         x="0 10.010742 15.011719 25.022461 35.033203 45.043945 50.044922 62.050781 73.045898 89.050781 105.05566 115.06641 122.07129"
         y="0"
         sodipodi:role="line"
         id="tspan4">class Summary</tspan></text>
    <path
       id="path6"
       d="m 1,261 h 290 v 40 H 1 Z"
       style="fill:#ffffff;fill-opacity:1;fill-rule:nonzero;stroke:#000000;stroke-width:1;stroke-linecap:butt;stroke-linejoin:miter;stroke-miterlimit:10;stroke-dasharray:none;stroke-opacity:1"
       transform="matrix(0.95698908,0,0,0.95698908,0.47849455,0.47849455)"
       clip-path="url(#clipPath7)" />
    <text
       id="text7"
       xml:space="preserve"
       transform="matrix(0.95699871,0,0,0.95699871,69.337547,275.61563)"
       clip-path="url(#clipPath8)"><tspan
         style="font-variant:normal;font-weight:normal;font-size:18px;font-family:Helvetica;writing-mode:lr-tb;fill:#000000;fill-opacity:1;fill-rule:nonzero;stroke:none"
         x="0 10.010742 20.021484 30.032227 34.03125 43.03125 52.03125 62.041992 68.036133 73.037109 77.053711 89.05957 99.070312 109.08105 113.08008 122.08008 131.08008 141.09082"
         y="0"
         sodipodi:role="line"
         id="tspan7">analyzer: Analyzer</tspan></text>
    <path
       id="path9"
       d="m 1,301 h 290 v 40 H 1 Z"
       style="fill:#ffffff;fill-opacity:1;fill-rule:nonzero;stroke:#000000;stroke-width:1;stroke-linecap:butt;stroke-linejoin:miter;stroke-miterlimit:10;stroke-dasharray:none;stroke-opacity:1"
       transform="matrix(0.95698908,0,0,0.95698908,0.47849455,0.47849455)"
       clip-path="url(#clipPath10)" />
    <text
       id="text10"
       xml:space="preserve"
       transform="matrix(0.95699871,0,0,0.95699871,37.248184,313.89558)"
       clip-path="url(#clipPath11)"><tspan
         style="font-variant:normal;font-weight:normal;font-size:18px;font-family:Helvetica;writing-mode:lr-tb;fill:#000000;fill-opacity:1;fill-rule:nonzero;stroke:none"
         x="0 10.010742 20.021484 25.022461 35.033203 45.043945 50.044922 59.044922 69.055664 75.049805 85.060547 95.071289 100.07227 105.07324 110.07422 124.0752 134.08594 139.08691 149.09766 159.1084 164.10938 173.10938 183.12012 189.11426 199.125 209.13574"
         y="0"
         sodipodi:role="line"
         id="tspan10">outputTarget: OutputTarget</tspan></text>
    <path
       id="path12"
       d="m 1,341 h 290 v 40 H 1 Z"
       style="fill:#ffffff;fill-opacity:1;fill-rule:nonzero;stroke:#000000;stroke-width:1;stroke-linecap:butt;stroke-linejoin:miter;stroke-miterlimit:10;stroke-dasharray:none;stroke-opacity:1"
       transform="matrix(0.95698908,0,0,0.95698908,0.47849455,0.47849455)"
       clip-path="url(#clipPath13)" />
    <text
       id="text13"
       xml:space="preserve"
       transform="matrix(0.95699871,0,0,0.95699871,10.467173,352.17553)"
       clip-path="url(#clipPath14)"><tspan
         style="font-variant:normal;font-weight:normal;font-size:18px;font-family:Helvetica;writing-mode:lr-tb;fill:#000000;fill-opacity:1;fill-rule:nonzero;stroke:none"
         x="0 10.010742 20.021484 24.020508 28.019531 38.030273 50.036133 60.046875 70.057617 82.063477 88.057617 92.056641 102.06738 107.06836 120.06738 130.07812 140.08887 150.09961 156.09375 161.09473 167.08887 182.08301 192.09375 197.09473 206.09473 216.10547 229.10449 239.11523 244.11621 254.12695 259.12793 264.12891"
         y="0"
         sodipodi:role="line"
         id="tspan13">buildAndPrintReport(MatchData[])</tspan></text>
    <path
       id="path15"
       d="M 1,1 H 291 V 41 H 1 Z"
       style="fill:#d5e8d4;fill-opacity:1;fill-rule:nonzero;stroke:#82b366;stroke-width:1;stroke-linecap:butt;stroke-linejoin:miter;stroke-miterlimit:10;stroke-dasharray:none;stroke-opacity:1"
       transform="matrix(0.95698908,0,0,0.95698908,0.47849455,0.47849455)"
       clip-path="url(#clipPath16)" />
    <text
       id="text16"
       xml:space="preserve"
       transform="matrix(0.95699871,0,0,0.95699871,65.838521,26.795964)"
       clip-path="url(#clipPath17)"><tspan
         style="font-variant:normal;font-weight:700;font-size:18px;font-family:Helvetica;writing-mode:lr-tb;fill:#000000;fill-opacity:1;fill-rule:nonzero;stroke:none"
         x="0 5.0009766 15.996094 21.990234 32.000977 39.005859 45 55.010742 65.021484 75.032227 79.374023 92.373047 103.36816 113.37891 118.37988 128.39062 137.39062 147.40137"
         y="0"
         sodipodi:role="line"
         id="tspan16">interface Analyzer</tspan></text>
    <path
       id="path18"
       d="m 1,101 h 290 v 40 H 1 Z"
       style="fill:#d5e8d4;fill-opacity:1;fill-rule:nonzero;stroke:#82b366;stroke-width:1;stroke-linecap:butt;stroke-linejoin:miter;stroke-miterlimit:10;stroke-dasharray:none;stroke-opacity:1"
       transform="matrix(0.95698908,0,0,0.95698908,0.47849455,0.47849455)"
       clip-path="url(#clipPath19)" />
    <text
       id="text19"
       xml:space="preserve"
       transform="matrix(0.95699871,0,0,0.95699871,47.506014,122.49584)"
       clip-path="url(#clipPath20)"><tspan
         style="font-variant:normal;font-weight:700;font-size:18px;font-family:Helvetica;writing-mode:lr-tb;fill:#000000;fill-opacity:1;fill-rule:nonzero;stroke:none"
         x="0 5.0009766 15.996094 21.990234 32.000977 39.005859 45 55.010742 65.021484 75.032227 80.033203 94.03418 105.0293 111.02344 122.01855 133.01367 139.00781 148.67578 158.68652 165.69141 176.68652 186.69727"
         y="0"
         sodipodi:role="line"
         id="tspan19">interface OutputTarget</tspan></text>
    <path
       id="path21"
       d="M 1,41 H 291 V 81 H 1 Z"
       style="fill:#ffffff;fill-opacity:1;fill-rule:nonzero;stroke:#000000;stroke-width:1;stroke-linecap:butt;stroke-linejoin:miter;stroke-miterlimit:10;stroke-dasharray:none;stroke-opacity:1"
       transform="matrix(0.95698908,0,0,0.95698908,0.47849455,0.47849455)"
       clip-path="url(#clipPath22)" />
    <text
       id="text22"
       xml:space="preserve"
       transform="matrix(0.95699871,0,0,0.95699871,11.917625,65.075912)"
       clip-path="url(#clipPath23)"><tspan
         style="font-variant:normal;font-weight:normal;font-size:18px;font-family:Helvetica;writing-mode:lr-tb;fill:#000000;fill-opacity:1;fill-rule:nonzero;stroke:none"
         x="0 5.9941406 16.004883 26.015625 32.009766 47.003906 57.014648 62.015625 71.015625 81.026367 91.037109 100.03711 105.03809 110.03906 125.0332 135.04395 140.04492 149.04492 159.05566 172.05469 182.06543 187.06641 197.07715 202.07812 207.0791 213.07324 218.07422 223.0752 232.0752 237.07617 243.07031 247.06934 257.08008"
         y="0"
         sodipodi:role="line"
         id="tspan22">run(matches: MatchData[]): string</tspan></text>
    <path
       id="path24"
       d="m 1,141 h 290 v 40 H 1 Z"
       style="fill:#ffffff;fill-opacity:1;fill-rule:nonzero;stroke:#000000;stroke-width:1;stroke-linecap:butt;stroke-linejoin:miter;stroke-miterlimit:10;stroke-dasharray:none;stroke-opacity:1"
       transform="matrix(0.95698908,0,0,0.95698908,0.47849455,0.47849455)"
       clip-path="url(#clipPath25)" />
    <text
       id="text25"
       xml:space="preserve"
       transform="matrix(0.95699871,0,0,0.95699871,48.283576,160.77578)"
       clip-path="url(#clipPath26)"><tspan
         style="font-variant:normal;font-weight:normal;font-size:18px;font-family:Helvetica;writing-mode:lr-tb;fill:#000000;fill-opacity:1;fill-rule:nonzero;stroke:none"
         x="0 10.010742 16.004883 20.003906 30.014648 35.015625 41.009766 47.003906 57.014648 67.025391 77.036133 83.030273 88.03125 93.032227 98.033203 107.0332 112.03418 118.02832 122.02734 132.03809 142.04883 148.04297 153.04395 158.04492 167.04492 177.05566 181.05469"
         y="0"
         sodipodi:role="line"
         id="tspan25">print(report: string): void</tspan></text>
    <path
       id="path27"
       d="m 451,101 h 290 v 40 H 451 Z"
       style="fill:#fff2cc;fill-opacity:1;fill-rule:nonzero;stroke:#d6b656;stroke-width:1;stroke-linecap:butt;stroke-linejoin:miter;stroke-miterlimit:10;stroke-dasharray:none;stroke-opacity:1"
       transform="matrix(0.95698908,0,0,0.95698908,0.47849455,0.47849455)"
       clip-path="url(#clipPath28)" />
    <text
       id="text28"
       xml:space="preserve"
       transform="matrix(0.95699871,0,0,0.95699871,490.49175,122.49584)"
       clip-path="url(#clipPath29)"><tspan
         style="font-variant:normal;font-weight:700;font-size:18px;font-family:Helvetica;writing-mode:lr-tb;fill:#000000;fill-opacity:1;fill-rule:nonzero;stroke:none"
         x="0 10.010742 15.011719 25.022461 35.033203 45.043945 50.044922 66.875977 71.876953 82.87207 92.882812 105.88184 116.87695 126.8877 131.88867 141.89941 151.91016 156.91113"
         y="0"
         sodipodi:role="line"
         id="tspan28">class WinsAnalysis</tspan></text>
    <path
       id="path30"
       d="m 451,141 h 290 v 40 H 451 Z"
       style="fill:#ffffff;fill-opacity:1;fill-rule:nonzero;stroke:#000000;stroke-width:1;stroke-linecap:butt;stroke-linejoin:miter;stroke-miterlimit:10;stroke-dasharray:none;stroke-opacity:1"
       transform="matrix(0.95698908,0,0,0.95698908,0.47849455,0.47849455)"
       clip-path="url(#clipPath31)" />
    <text
       id="text31"
       xml:space="preserve"
       transform="matrix(0.95699871,0,0,0.95699871,479.90495,160.77578)"
       clip-path="url(#clipPath32)"><tspan
         style="font-variant:normal;font-weight:normal;font-size:18px;font-family:Helvetica;writing-mode:lr-tb;fill:#000000;fill-opacity:1;fill-rule:nonzero;stroke:none"
         x="0 5.9941406 16.004883 26.015625 32.009766 47.003906 57.014648 62.015625 71.015625 81.026367 94.025391 104.03613 109.03711 119.04785 124.04883 129.0498 135.04395 140.04492 145.0459 154.0459 159.04688 165.04102 169.04004 179.05078"
         y="0"
         sodipodi:role="line"
         id="tspan31">run(MatchData[]): string</tspan></text>
    <path
       id="path33"
       d="m 451,211 h 290 v 40 H 451 Z"
       style="fill:#e1d5e7;fill-opacity:1;fill-rule:nonzero;stroke:#9673a6;stroke-width:1;stroke-linecap:butt;stroke-linejoin:miter;stroke-miterlimit:10;stroke-dasharray:none;stroke-opacity:1"
       transform="matrix(0.95698908,0,0,0.95698908,0.47849455,0.47849455)"
       clip-path="url(#clipPath34)" />
    <text
       id="text34"
       xml:space="preserve"
       transform="matrix(0.95699871,0,0,0.95699871,484.68994,227.76569)"
       clip-path="url(#clipPath35)"><tspan
         style="font-variant:normal;font-weight:700;font-size:18px;font-family:Helvetica;writing-mode:lr-tb;fill:#000000;fill-opacity:1;fill-rule:nonzero;stroke:none"
         x="0 10.010742 15.011719 25.022461 35.033203 45.043945 50.044922 63.043945 74.039062 85.03418 95.044922 106.04004 111.04102 121.05176 134.05078 144.06152 155.05664 166.05176 173.05664"
         y="0"
         sodipodi:role="line"
         id="tspan34">class ConsoleReport</tspan></text>
    <path
       id="path36"
       d="m 451,251 h 290 v 40 H 451 Z"
       style="fill:#ffffff;fill-opacity:1;fill-rule:nonzero;stroke:#000000;stroke-width:1;stroke-linecap:butt;stroke-linejoin:miter;stroke-miterlimit:10;stroke-dasharray:none;stroke-opacity:1"
       transform="matrix(0.95698908,0,0,0.95698908,0.47849455,0.47849455)"
       clip-path="url(#clipPath37)" />
    <text
       id="text37"
       xml:space="preserve"
       transform="matrix(0.95699871,0,0,0.95699871,478.933,266.04564)"
       clip-path="url(#clipPath38)"><tspan
         style="font-variant:normal;font-weight:normal;font-size:18px;font-family:Helvetica;writing-mode:lr-tb;fill:#000000;fill-opacity:1;fill-rule:nonzero;stroke:none"
         x="0 10.010742 16.004883 20.003906 30.014648 35.015625 41.009766 47.003906 57.014648 67.025391 77.036133 83.030273 88.03125 93.032227 98.033203 107.0332 112.03418 118.02832 122.02734 132.03809 142.04883 148.04297 153.04395 158.04492 167.04492 177.05566 181.05469"
         y="0"
         sodipodi:role="line"
         id="tspan37">print(report: string): void</tspan></text>
    <path
       id="path39"
       d="m 451,311 h 290 v 40 H 451 Z"
       style="fill:#e1d5e7;fill-opacity:1;fill-rule:nonzero;stroke:#9673a6;stroke-width:1;stroke-linecap:butt;stroke-linejoin:miter;stroke-miterlimit:10;stroke-dasharray:none;stroke-opacity:1"
       transform="matrix(0.95698908,0,0,0.95698908,0.47849455,0.47849455)"
       clip-path="url(#clipPath40)" />
    <text
       id="text40"
       xml:space="preserve"
       transform="matrix(0.95699871,0,0,0.95699871,499.52342,323.46556)"
       clip-path="url(#clipPath41)"><tspan
         style="font-variant:normal;font-weight:700;font-size:18px;font-family:Helvetica;writing-mode:lr-tb;fill:#000000;fill-opacity:1;fill-rule:nonzero;stroke:none"
         x="0 10.010742 15.011719 25.022461 35.033203 45.043945 50.044922 63.043945 69.038086 85.042969 90.043945 103.04297 113.05371 124.04883 135.04395 142.04883"
         y="0"
         sodipodi:role="line"
         id="tspan40">class HtmlReport</tspan></text>
    <path
       id="path42"
       d="m 451,351 h 290 v 40 H 451 Z"
       style="fill:#ffffff;fill-opacity:1;fill-rule:nonzero;stroke:#000000;stroke-width:1;stroke-linecap:butt;stroke-linejoin:miter;stroke-miterlimit:10;stroke-dasharray:none;stroke-opacity:1"
       transform="matrix(0.95698908,0,0,0.95698908,0.47849455,0.47849455)"
       clip-path="url(#clipPath43)" />
    <text
       id="text43"
       xml:space="preserve"
       transform="matrix(0.95699871,0,0,0.95699871,478.933,361.74551)"
       clip-path="url(#clipPath44)"><tspan
         style="font-variant:normal;font-weight:normal;font-size:18px;font-family:Helvetica;writing-mode:lr-tb;fill:#000000;fill-opacity:1;fill-rule:nonzero;stroke:none"
         x="0 10.010742 16.004883 20.003906 30.014648 35.015625 41.009766 47.003906 57.014648 67.025391 77.036133 83.030273 88.03125 93.032227 98.033203 107.0332 112.03418 118.02832 122.02734 132.03809 142.04883 148.04297 153.04395 158.04492 167.04492 177.05566 181.05469"
         y="0"
         sodipodi:role="line"
         id="tspan43">print(report: string): void</tspan></text>
    <path
       id="path45"
       d="M 451,1 H 741 V 41 H 451 Z"
       style="fill:#fff2cc;fill-opacity:1;fill-rule:nonzero;stroke:#d6b656;stroke-width:1;stroke-linecap:butt;stroke-linejoin:miter;stroke-miterlimit:10;stroke-dasharray:none;stroke-opacity:1"
       transform="matrix(0.95698908,0,0,0.95698908,0.47849455,0.47849455)"
       clip-path="url(#clipPath46)" />
    <text
       id="text46"
       xml:space="preserve"
       transform="matrix(0.95699871,0,0,0.95699871,453.69216,26.795964)"
       clip-path="url(#clipPath47)"><tspan
         style="font-variant:normal;font-weight:700;font-size:18px;font-family:Helvetica;writing-mode:lr-tb;fill:#000000;fill-opacity:1;fill-rule:nonzero;stroke:none"
         x="0 10.010742 15.011719 25.022461 35.033203 45.043945 49.385742 61.725586 71.736328 81.74707 88.751953 98.762695 109.75781 119.76855 133.76953 144.76465 154.77539 159.77637 169.78711 182.78613 193.78125 203.79199 208.79297 218.80371 228.81445 233.81543"
         y="0"
         sodipodi:role="line"
         id="tspan46">class AverageGoalsAnalysis</tspan></text>
    <path
       id="path48"
       d="M 451,41 H 741 V 81 H 451 Z"
       style="fill:#ffffff;fill-opacity:1;fill-rule:nonzero;stroke:#000000;stroke-width:1;stroke-linecap:butt;stroke-linejoin:miter;stroke-miterlimit:10;stroke-dasharray:none;stroke-opacity:1"
       transform="matrix(0.95698908,0,0,0.95698908,0.47849455,0.47849455)"
       clip-path="url(#clipPath49)" />
    <text
       id="text49"
       xml:space="preserve"
       transform="matrix(0.95699871,0,0,0.95699871,479.90495,65.075912)"
       clip-path="url(#clipPath50)"><tspan
         style="font-variant:normal;font-weight:normal;font-size:18px;font-family:Helvetica;writing-mode:lr-tb;fill:#000000;fill-opacity:1;fill-rule:nonzero;stroke:none"
         x="0 5.9941406 16.004883 26.015625 32.009766 47.003906 57.014648 62.015625 71.015625 81.026367 94.025391 104.03613 109.03711 119.04785 124.04883 129.0498 135.04395 140.04492 145.0459 154.0459 159.04688 165.04102 169.04004 179.05078"
         y="0"
         sodipodi:role="line"
         id="tspan49">run(MatchData[]): string</tspan></text>
  </g>
</svg>
