<?xml version="1.0" encoding="UTF-8" standalone="no"?>
<!-- Created with Inkscape (http://www.inkscape.org/) -->

<svg
   version="1.1"
   id="svg1"
   width="482.55997"
   height="282.56"
   viewBox="0 0 482.55997 282.56"
   sodipodi:docname="ts-3.pdf"
   xmlns:inkscape="http://www.inkscape.org/namespaces/inkscape"
   xmlns:sodipodi="http://sodipodi.sourceforge.net/DTD/sodipodi-0.dtd"
   xmlns="http://www.w3.org/2000/svg"
   xmlns:svg="http://www.w3.org/2000/svg">
  <defs
     id="defs1">
    <clipPath
       clipPathUnits="userSpaceOnUse"
       id="clipPath2">
      <path
         d="M 0,0 H 1508.3333 V 882.85376 H 0 Z"
         transform="scale(0.33414367)"
         clip-rule="evenodd"
         id="path2" />
    </clipPath>
    <clipPath
       clipPathUnits="userSpaceOnUse"
       id="clipPath3">
      <path
         d="M 0,0 H 1508.3333 V 879.86102 H 0 Z"
         transform="matrix(0.33414032,0,0,0.33414032,-213.42188,-25.000001)"
         clip-rule="evenodd"
         id="path3" />
    </clipPath>
    <clipPath
       clipPathUnits="userSpaceOnUse"
       id="clipPath5">
      <path
         d="M 0,0 H 1508.3333 V 879.86102 H 0 Z"
         transform="matrix(0.33414367,0,0,0.33414367,-0.5,-0.5)"
         clip-rule="evenodd"
         id="path5" />
    </clipPath>
    <clipPath
       clipPathUnits="userSpaceOnUse"
       id="clipPath6">
      <path
         d="M 0,0 H 1508.3333 V 879.86102 H 0 Z"
         transform="matrix(0.33414032,0,0,0.33414032,-171.625,-54)"
         clip-rule="evenodd"
         id="path6" />
    </clipPath>
    <clipPath
       clipPathUnits="userSpaceOnUse"
       id="clipPath8">
      <path
         d="M 0,0 H 1508.3333 V 879.86102 H 0 Z"
         transform="matrix(0.33414367,0,0,0.33414367,-0.5,-0.5)"
         clip-rule="evenodd"
         id="path8" />
    </clipPath>
    <clipPath
       clipPathUnits="userSpaceOnUse"
       id="clipPath9">
      <path
         d="M 0,0 H 1508.3333 V 879.86102 H 0 Z"
         transform="matrix(0.33414032,0,0,0.33414032,-53.734375,-144)"
         clip-rule="evenodd"
         id="path9" />
    </clipPath>
    <clipPath
       clipPathUnits="userSpaceOnUse"
       id="clipPath11">
      <path
         d="M 0,0 H 1508.3333 V 879.86102 H 0 Z"
         transform="matrix(0.33414367,0,0,0.33414367,-0.5,-0.5)"
         clip-rule="evenodd"
         id="path11" />
    </clipPath>
    <clipPath
       clipPathUnits="userSpaceOnUse"
       id="clipPath12">
      <path
         d="M 0,0 H 1508.3333 V 879.86102 H 0 Z"
         transform="matrix(0.33414032,0,0,0.33414032,-137.89063,-189)"
         clip-rule="evenodd"
         id="path12" />
    </clipPath>
    <clipPath
       clipPathUnits="userSpaceOnUse"
       id="clipPath14">
      <path
         d="M 0,0 H 1508.3333 V 879.86102 H 0 Z"
         transform="matrix(0.33414367,0,0,0.33414367,-0.5,-0.5)"
         clip-rule="evenodd"
         id="path14" />
    </clipPath>
    <clipPath
       clipPathUnits="userSpaceOnUse"
       id="clipPath15">
      <path
         d="M 0,0 H 1508.3333 V 879.86102 H 0 Z"
         transform="matrix(0.33414032,0,0,0.33414032,-186.01563,-234)"
         clip-rule="evenodd"
         id="path15" />
    </clipPath>
    <clipPath
       clipPathUnits="userSpaceOnUse"
       id="clipPath17">
      <path
         d="M 0,0 H 1508.3333 V 879.86102 H 0 Z"
         transform="matrix(0.33414367,0,0,0.33414367,-0.5,-0.5)"
         clip-rule="evenodd"
         id="path17" />
    </clipPath>
    <clipPath
       clipPathUnits="userSpaceOnUse"
       id="clipPath18">
      <path
         d="M 0,0 H 1508.3333 V 879.86102 H 0 Z"
         transform="matrix(0.33414032,0,0,0.33414032,-101.3125,-279)"
         clip-rule="evenodd"
         id="path18" />
    </clipPath>
    <clipPath
       clipPathUnits="userSpaceOnUse"
       id="clipPath20">
      <path
         d="M 0,0 H 1508.3333 V 879.86102 H 0 Z"
         transform="matrix(0.33414367,0,0,0.33414367,-0.5,-0.5)"
         clip-rule="evenodd"
         id="path20" />
    </clipPath>
    <clipPath
       clipPathUnits="userSpaceOnUse"
       id="clipPath21">
      <path
         d="M 0,0 H 1508.3333 V 879.86102 H 0 Z"
         transform="matrix(0.33414032,0,0,0.33414032,-163.4375,-98)"
         clip-rule="evenodd"
         id="path21" />
    </clipPath>
  </defs>
  <sodipodi:namedview
     id="namedview1"
     pagecolor="#ffffff"
     bordercolor="#000000"
     borderopacity="0.25"
     inkscape:showpageshadow="2"
     inkscape:pageopacity="0.0"
     inkscape:pagecheckerboard="0"
     inkscape:deskcolor="#d1d1d1">
    <inkscape:page
       x="0"
       y="0"
       inkscape:label="1"
       id="page1"
       width="482.55997"
       height="282.56"
       margin="0"
       bleed="0" />
  </sodipodi:namedview>
  <g
     id="g1"
     inkscape:groupmode="layer"
     inkscape:label="1">
    <path
       id="path1"
       d="M 0,0 H 504 V 295 H 0 Z"
       style="fill:#ffffff;fill-opacity:1;fill-rule:nonzero;stroke:none"
       transform="scale(0.95767186)"
       clip-path="url(#clipPath2)" />
    <text
       id="text2"
       xml:space="preserve"
       transform="matrix(0.95768146,0,0,0.95768146,204.39018,23.942037)"
       clip-path="url(#clipPath3)"><tspan
         style="font-variant:normal;font-weight:normal;font-size:26px;font-family:Helvetica;writing-mode:lr-tb;fill:#000000;fill-opacity:1;fill-rule:nonzero;stroke:none"
         x="0 7.2236328 20.223633 33.223633 47.683594 62.143555"
         y="0"
         sodipodi:role="line"
         id="tspan2">Issues</tspan></text>
    <path
       id="path4"
       d="M 1,31 H 501.01001 V 66 H 1 Z"
       style="fill:#ffffff;fill-opacity:1;fill-rule:nonzero;stroke:#000000;stroke-width:1;stroke-linecap:butt;stroke-linejoin:miter;stroke-miterlimit:10;stroke-dasharray:none;stroke-opacity:1"
       transform="matrix(0.95767186,0,0,0.95767186,0.47883593,0.47883593)"
       clip-path="url(#clipPath5)" />
    <text
       id="text5"
       xml:space="preserve"
       transform="matrix(0.95768146,0,0,0.95768146,164.36208,51.714799)"
       clip-path="url(#clipPath6)"><tspan
         style="font-variant:normal;font-weight:normal;font-size:14px;font-family:Helvetica;writing-mode:lr-tb;fill:#000000;fill-opacity:1;fill-rule:nonzero;stroke:none"
         x="0 11.662109 19.448242 27.234375 30.344727 37.344727 41.234375 48.234375 52.124023 56.786133 59.896484 67.682617 75.46875 79.358398 86.358398 94.144531 105.80664 113.59277 121.37891 126.04102 129.15137 136.15137 143.9375 151.72363"
         y="0"
         sodipodi:role="line"
         id="tspan5">Magic string comparisons</tspan></text>
    <path
       id="path7"
       d="m 1,121 h 500.01001 v 35 H 1 Z"
       style="fill:#ffffff;fill-opacity:1;fill-rule:nonzero;stroke:#000000;stroke-width:1;stroke-linecap:butt;stroke-linejoin:miter;stroke-miterlimit:10;stroke-dasharray:none;stroke-opacity:1"
       transform="matrix(0.95767186,0,0,0.95767186,0.47883593,0.47883593)"
       clip-path="url(#clipPath8)" />
    <text
       id="text8"
       xml:space="preserve"
       transform="matrix(0.95768146,0,0,0.95768146,51.460415,137.90613)"
       clip-path="url(#clipPath9)"><tspan
         style="font-variant:normal;font-weight:normal;font-size:14px;font-family:Helvetica;writing-mode:lr-tb;fill:#000000;fill-opacity:1;fill-rule:nonzero;stroke:none"
         x="0 10.110352 17.896484 21.786133 29.572266 33.461914 41.248047 45.910156 50.572266 58.358398 65.358398 69.248047 72.358398 79.358398 83.248047 91.03418 94.144531 97.254883 101.14453 108.14453 112.03418 116.69629 119.80664 127.59277 135.37891 142.37891 146.26855 150.1582 157.94434 164.94434 172.73047 180.5166 184.40625 188.2959 196.08203 203.86816 211.6543 219.44043 227.22656 231.11621 234.22656 238.11621 242.00586 253.66797 256.77832 264.56445 272.35059 276.24023 280.12988 287.91602 295.70215 302.70215 310.48828 314.37793 322.16406 329.9502 341.6123 349.39844 357.18457 361.84668 368.84668 372.73633 375.84668 383.63281 387.52246 390.63281"
         y="0"
         sodipodi:role="line"
         id="tspan8">Data array is all strings, even though it might have numbers in it</tspan></text>
    <path
       id="path10"
       d="m 1,166 h 500.01001 v 35 H 1 Z"
       style="fill:#ffffff;fill-opacity:1;fill-rule:nonzero;stroke:#000000;stroke-width:1;stroke-linecap:butt;stroke-linejoin:miter;stroke-miterlimit:10;stroke-dasharray:none;stroke-opacity:1"
       transform="matrix(0.95767186,0,0,0.95767186,0.47883593,0.47883593)"
       clip-path="url(#clipPath11)" />
    <g
       id="g11" />
    <text
       id="text11"
       xml:space="preserve"
       transform="matrix(0.95768146,0,0,0.95768146,132.0553,181.0018)"
       clip-path="url(#clipPath12)"><tspan
         style="font-variant:normal;font-weight:normal;font-size:14px;font-family:Helvetica;writing-mode:lr-tb;fill:#000000;fill-opacity:1;fill-rule:nonzero;stroke:none"
         x="0 8.3056641 16.091797 20.753906 23.864258 31.650391 39.436523 42.546875 50.333008 54.222656 62.008789 69.794922 81.457031 89.243164 97.029297 100.91895 108.70508 112.59473 116.48438 124.27051 128.93262 132.82227 140.6084 144.49805 151.49805 159.28418 167.07031 174.07031 177.18066 184.18066 191.18066 195.07031 198.95996 206.74609 214.53223"
         y="0"
         sodipodi:role="line"
         id="tspan11">Variable named after a speciﬁc team</tspan></text>
    <path
       id="path13"
       d="m 1,211 h 500.01001 v 35 H 1 Z"
       style="fill:#ffffff;fill-opacity:1;fill-rule:nonzero;stroke:#000000;stroke-width:1;stroke-linecap:butt;stroke-linejoin:miter;stroke-miterlimit:10;stroke-dasharray:none;stroke-opacity:1"
       transform="matrix(0.95767186,0,0,0.95767186,0.47883593,0.47883593)"
       clip-path="url(#clipPath14)" />
    <g
       id="g14" />
    <text
       id="text14"
       xml:space="preserve"
       transform="matrix(0.95768146,0,0,0.95768146,178.14372,224.09746)"
       clip-path="url(#clipPath15)"><tspan
         style="font-variant:normal;font-weight:normal;font-size:14px;font-family:Helvetica;writing-mode:lr-tb;fill:#000000;fill-opacity:1;fill-rule:nonzero;stroke:none"
         x="0 9.3378906 17.124023 24.910156 28.020508 35.020508 42.020508 45.130859 52.130859 56.020508 59.910156 66.910156 74.696289 82.482422 86.37207 89.482422 96.482422 100.37207 107.37207 114.37207 122.1582"
         y="0"
         sodipodi:role="line"
         id="tspan14">Analysis type is ﬁxed</tspan></text>
    <path
       id="path16"
       d="m 1,256 h 500.01001 v 35 H 1 Z"
       style="fill:#ffffff;fill-opacity:1;fill-rule:nonzero;stroke:#000000;stroke-width:1;stroke-linecap:butt;stroke-linejoin:miter;stroke-miterlimit:10;stroke-dasharray:none;stroke-opacity:1"
       transform="matrix(0.95767186,0,0,0.95767186,0.47883593,0.47883593)"
       clip-path="url(#clipPath17)" />
    <text
       id="text17"
       xml:space="preserve"
       transform="matrix(0.95768146,0,0,0.95768146,97.025103,267.19313)"
       clip-path="url(#clipPath18)"><tspan
         style="font-variant:normal;font-weight:normal;font-size:14px;font-family:Helvetica;writing-mode:lr-tb;fill:#000000;fill-opacity:1;fill-rule:nonzero;stroke:none"
         x="0 10.110352 17.896484 21.786133 29.572266 37.358398 40.46875 43.579102 46.689453 50.579102 57.579102 61.46875 65.358398 73.144531 77.03418 84.820312 92.606445 96.496094 104.28223 112.06836 115.95801 119.84766 123.7373 131.52344 139.30957 143.19922 147.86133 155.64746 163.43359 171.21973 175.88184 179.77148 183.66113 186.77148 194.55762 198.44727 206.2334 209.34375 212.9873 216.87695 224.66309 229.3252 237.11133 244.89746 248.78711 252.67676 256.56641 264.35254 269.01465 280.67676 288.46289 292.35254"
         y="0"
         sodipodi:role="line"
         id="tspan17">No ability to output the report in different formats</tspan></text>
    <path
       id="path19"
       d="m 1,76 h 500.01001 v 35 H 1 Z"
       style="fill:#ffffff;fill-opacity:1;fill-rule:nonzero;stroke:#000000;stroke-width:1;stroke-linecap:butt;stroke-linejoin:miter;stroke-miterlimit:10;stroke-dasharray:none;stroke-opacity:1"
       transform="matrix(0.95767186,0,0,0.95767186,0.47883593,0.47883593)"
       clip-path="url(#clipPath20)" />
    <text
       id="text20"
       xml:space="preserve"
       transform="matrix(0.95768146,0,0,0.95768146,156.52106,93.852783)"
       clip-path="url(#clipPath21)"><tspan
         style="font-variant:normal;font-weight:normal;font-size:14px;font-family:Helvetica;writing-mode:lr-tb;fill:#000000;fill-opacity:1;fill-rule:nonzero;stroke:none"
         x="0 9.3378906 17.124023 24.910156 29.572266 36.572266 44.358398 48.248047 56.03418 59.923828 63.813477 71.599609 79.385742 83.275391 91.061523 94.951172 98.061523 105.06152 108.95117 116.7373 124.52344 129.18555 136.97168 143.97168 151.75781 159.54395 167.33008"
         y="0"
         sodipodi:role="line"
         id="tspan20">Source of data is hardcoded</tspan></text>
  </g>
</svg>
