<?xml version="1.0" encoding="UTF-8" standalone="no"?>
<!-- Created with Inkscape (http://www.inkscape.org/) -->

<svg
   version="1.1"
   id="svg1"
   width="482.55997"
   height="273.28"
   viewBox="0 0 482.55997 273.28"
   sodipodi:docname="ts-4.pdf"
   xmlns:inkscape="http://www.inkscape.org/namespaces/inkscape"
   xmlns:sodipodi="http://sodipodi.sourceforge.net/DTD/sodipodi-0.dtd"
   xmlns="http://www.w3.org/2000/svg"
   xmlns:svg="http://www.w3.org/2000/svg">
  <defs
     id="defs1">
    <clipPath
       clipPathUnits="userSpaceOnUse"
       id="clipPath2">
      <path
         d="M 0,0 H 1508.3333 V 852.92651 H 0 Z"
         transform="scale(0.33414367)"
         clip-rule="evenodd"
         id="path2" />
    </clipPath>
    <clipPath
       clipPathUnits="userSpaceOnUse"
       id="clipPath4">
      <path
         d="M 0,0 H 1508.3333 V 849.93378 H 0 Z"
         transform="matrix(0.33414367,0,0,0.33414367,-0.5,-0.5)"
         clip-rule="evenodd"
         id="path4" />
    </clipPath>
    <clipPath
       clipPathUnits="userSpaceOnUse"
       id="clipPath6">
      <path
         d="M 0,0 H 1508.3333 V 849.93378 H 0 Z"
         transform="matrix(0.33414367,0,0,0.33414367,-0.5,-0.5)"
         clip-rule="evenodd"
         id="path6" />
    </clipPath>
    <clipPath
       clipPathUnits="userSpaceOnUse"
       id="clipPath8">
      <path
         d="M 0,0 H 1508.3333 V 849.93378 H 0 Z"
         transform="matrix(0.33414367,0,0,0.33414367,-0.5,-0.5)"
         clip-rule="evenodd"
         id="path8" />
    </clipPath>
    <clipPath
       clipPathUnits="userSpaceOnUse"
       id="clipPath10">
      <path
         d="M 0,0 H 1508.3333 V 849.93378 H 0 Z"
         transform="matrix(0.33414367,0,0,0.33414367,-0.5,-0.5)"
         clip-rule="evenodd"
         id="path10" />
    </clipPath>
    <clipPath
       clipPathUnits="userSpaceOnUse"
       id="clipPath12">
      <path
         d="M 0,0 H 1508.3333 V 849.93378 H 0 Z"
         transform="matrix(0.33414367,0,0,0.33414367,-0.5,-0.5)"
         clip-rule="evenodd"
         id="path12" />
    </clipPath>
    <clipPath
       clipPathUnits="userSpaceOnUse"
       id="clipPath14">
      <path
         d="M 0,0 H 1508.3333 V 849.93378 H 0 Z"
         transform="matrix(0.33414367,0,0,0.33414367,-0.5,-0.5)"
         clip-rule="evenodd"
         id="path14" />
    </clipPath>
    <clipPath
       clipPathUnits="userSpaceOnUse"
       id="clipPath16">
      <path
         d="M 0,0 H 1508.3333 V 849.93378 H 0 Z"
         transform="matrix(0.33414367,0,0,0.33414367,-0.5,-0.5)"
         clip-rule="evenodd"
         id="path16" />
    </clipPath>
    <clipPath
       clipPathUnits="userSpaceOnUse"
       id="clipPath17">
      <path
         d="M 0,0 H 1508.3333 V 849.93378 H 0 Z"
         transform="matrix(0.33414032,0,0,0.33414032,-33.6875,-149)"
         clip-rule="evenodd"
         id="path17" />
    </clipPath>
    <clipPath
       clipPathUnits="userSpaceOnUse"
       id="clipPath19">
      <path
         d="M 0,0 H 1508.3333 V 849.93378 H 0 Z"
         transform="matrix(0.33414367,0,0,0.33414367,-0.5,-0.5)"
         clip-rule="evenodd"
         id="path19" />
    </clipPath>
    <clipPath
       clipPathUnits="userSpaceOnUse"
       id="clipPath20">
      <path
         d="M 0,0 H 1508.3333 V 849.93378 H 0 Z"
         transform="matrix(0.33414032,0,0,0.33414032,-354.75,-49)"
         clip-rule="evenodd"
         id="path20" />
    </clipPath>
    <clipPath
       clipPathUnits="userSpaceOnUse"
       id="clipPath22">
      <path
         d="M 0,0 H 1508.3333 V 849.93378 H 0 Z"
         transform="matrix(0.33414367,0,0,0.33414367,-0.5,-0.5)"
         clip-rule="evenodd"
         id="path22" />
    </clipPath>
    <clipPath
       clipPathUnits="userSpaceOnUse"
       id="clipPath23">
      <path
         d="M 0,0 H 1508.3333 V 849.93378 H 0 Z"
         transform="matrix(0.33414032,0,0,0.33414032,-354.75,-149)"
         clip-rule="evenodd"
         id="path23" />
    </clipPath>
    <clipPath
       clipPathUnits="userSpaceOnUse"
       id="clipPath25">
      <path
         d="M 0,0 H 1508.3333 V 849.93378 H 0 Z"
         transform="matrix(0.33414367,0,0,0.33414367,-0.5,-0.5)"
         clip-rule="evenodd"
         id="path25" />
    </clipPath>
    <clipPath
       clipPathUnits="userSpaceOnUse"
       id="clipPath26">
      <path
         d="M 0,0 H 1508.3333 V 849.93378 H 0 Z"
         transform="matrix(0.33414032,0,0,0.33414032,-354.75,-249)"
         clip-rule="evenodd"
         id="path26" />
    </clipPath>
  </defs>
  <sodipodi:namedview
     id="namedview1"
     pagecolor="#ffffff"
     bordercolor="#000000"
     borderopacity="0.25"
     inkscape:showpageshadow="2"
     inkscape:pageopacity="0.0"
     inkscape:pagecheckerboard="0"
     inkscape:deskcolor="#d1d1d1">
    <inkscape:page
       x="0"
       y="0"
       inkscape:label="1"
       id="page1"
       width="482.55997"
       height="273.28"
       margin="0"
       bleed="0" />
  </sodipodi:namedview>
  <g
     id="g1"
     inkscape:groupmode="layer"
     inkscape:label="1">
    <path
       id="path1"
       d="M 0,0 H 504 V 285 H 0 Z"
       style="fill:#ffffff;fill-opacity:1;fill-rule:nonzero;stroke:none"
       transform="scale(0.95767186)"
       clip-path="url(#clipPath2)" />
    <path
       id="path3"
       d="m 181,141 h 70 V 41 h 63.64001"
       style="fill:none;stroke:#000000;stroke-width:1;stroke-linecap:butt;stroke-linejoin:miter;stroke-miterlimit:10;stroke-dasharray:none;stroke-opacity:1"
       transform="matrix(0.95767186,0,0,0.95767186,0.47883593,0.47883593)"
       clip-path="url(#clipPath4)" />
    <path
       id="path5"
       d="m 319.89001,41 -7,3.5 1.75,-3.5 -1.75,-3.5 z"
       style="fill:#000000;fill-opacity:1;fill-rule:nonzero;stroke:#000000;stroke-width:1;stroke-linecap:butt;stroke-linejoin:miter;stroke-miterlimit:10;stroke-dasharray:none;stroke-opacity:1"
       transform="matrix(0.95767186,0,0,0.95767186,0.47883593,0.47883593)"
       clip-path="url(#clipPath6)" />
    <path
       id="path7"
       d="M 181,141 H 314.64001"
       style="fill:none;stroke:#000000;stroke-width:1;stroke-linecap:butt;stroke-linejoin:miter;stroke-miterlimit:10;stroke-dasharray:none;stroke-opacity:1"
       transform="matrix(0.95767186,0,0,0.95767186,0.47883593,0.47883593)"
       clip-path="url(#clipPath8)" />
    <path
       id="path9"
       d="m 319.89001,141 -7,3.5 1.75,-3.5 -1.75,-3.5 z"
       style="fill:#000000;fill-opacity:1;fill-rule:nonzero;stroke:#000000;stroke-width:1;stroke-linecap:butt;stroke-linejoin:miter;stroke-miterlimit:10;stroke-dasharray:none;stroke-opacity:1"
       transform="matrix(0.95767186,0,0,0.95767186,0.47883593,0.47883593)"
       clip-path="url(#clipPath10)" />
    <path
       id="path11"
       d="m 181,141 h 70 v 100 h 63.64001"
       style="fill:none;stroke:#000000;stroke-width:1;stroke-linecap:butt;stroke-linejoin:miter;stroke-miterlimit:10;stroke-dasharray:none;stroke-opacity:1"
       transform="matrix(0.95767186,0,0,0.95767186,0.47883593,0.47883593)"
       clip-path="url(#clipPath12)" />
    <path
       id="path13"
       d="m 319.89001,241 -7,3.5 1.75,-3.5 -1.75,-3.5 z"
       style="fill:#000000;fill-opacity:1;fill-rule:nonzero;stroke:#000000;stroke-width:1;stroke-linecap:butt;stroke-linejoin:miter;stroke-miterlimit:10;stroke-dasharray:none;stroke-opacity:1"
       transform="matrix(0.95767186,0,0,0.95767186,0.47883593,0.47883593)"
       clip-path="url(#clipPath14)" />
    <path
       id="path15"
       d="m 1,101 h 180 v 80 H 1 Z"
       style="fill:#dae8fc;fill-opacity:1;fill-rule:nonzero;stroke:#6c8ebf;stroke-width:1;stroke-linecap:butt;stroke-linejoin:miter;stroke-miterlimit:10;stroke-dasharray:none;stroke-opacity:1"
       transform="matrix(0.95767186,0,0,0.95767186,0.47883593,0.47883593)"
       clip-path="url(#clipPath16)" />
    <text
       id="text16"
       xml:space="preserve"
       transform="matrix(0.95768146,0,0,0.95768146,32.261894,142.69454)"
       clip-path="url(#clipPath17)"><tspan
         style="font-variant:normal;font-weight:700;font-size:23px;font-family:Helvetica;writing-mode:lr-tb;fill:#000000;fill-opacity:1;fill-rule:nonzero;stroke:none"
         x="0 12.353516 25.14502 39.194336 51.98584 64.777344 77.568848 86.519531 92.909668 106.95898"
         y="0"
         sodipodi:role="line"
         id="tspan16">Typescript</tspan></text>
    <path
       id="path18"
       d="M 321,1 H 501 V 81 H 321 Z"
       style="fill:#fff2cc;fill-opacity:1;fill-rule:nonzero;stroke:#d6b656;stroke-width:1;stroke-linecap:butt;stroke-linejoin:miter;stroke-miterlimit:10;stroke-dasharray:none;stroke-opacity:1"
       transform="matrix(0.95767186,0,0,0.95767186,0.47883593,0.47883593)"
       clip-path="url(#clipPath19)" />
    <text
       id="text19"
       xml:space="preserve"
       transform="matrix(0.95768146,0,0,0.95768146,339.7375,46.926392)"
       clip-path="url(#clipPath20)"><tspan
         style="font-variant:normal;font-weight:700;font-size:23px;font-family:Helvetica;writing-mode:lr-tb;fill:#000000;fill-opacity:1;fill-rule:nonzero;stroke:none"
         x="0 12.791504 28.132324 34.522461 48.571777 54.961914 69.01123 77.961914 90.753418 99.704102"
         y="0"
         sodipodi:role="line"
         id="tspan19">JS Library</tspan></text>
    <path
       id="path21"
       d="m 321,101 h 180 v 80 H 321 Z"
       style="fill:#fff2cc;fill-opacity:1;fill-rule:nonzero;stroke:#d6b656;stroke-width:1;stroke-linecap:butt;stroke-linejoin:miter;stroke-miterlimit:10;stroke-dasharray:none;stroke-opacity:1"
       transform="matrix(0.95767186,0,0,0.95767186,0.47883593,0.47883593)"
       clip-path="url(#clipPath22)" />
    <text
       id="text22"
       xml:space="preserve"
       transform="matrix(0.95768146,0,0,0.95768146,339.7375,142.69454)"
       clip-path="url(#clipPath23)"><tspan
         style="font-variant:normal;font-weight:700;font-size:23px;font-family:Helvetica;writing-mode:lr-tb;fill:#000000;fill-opacity:1;fill-rule:nonzero;stroke:none"
         x="0 12.791504 28.132324 34.522461 48.571777 54.961914 69.01123 77.961914 90.753418 99.704102"
         y="0"
         sodipodi:role="line"
         id="tspan22">JS Library</tspan></text>
    <path
       id="path24"
       d="m 321,201 h 180 v 80 H 321 Z"
       style="fill:#fff2cc;fill-opacity:1;fill-rule:nonzero;stroke:#d6b656;stroke-width:1;stroke-linecap:butt;stroke-linejoin:miter;stroke-miterlimit:10;stroke-dasharray:none;stroke-opacity:1"
       transform="matrix(0.95767186,0,0,0.95767186,0.47883593,0.47883593)"
       clip-path="url(#clipPath25)" />
    <text
       id="text25"
       xml:space="preserve"
       transform="matrix(0.95768146,0,0,0.95768146,339.7375,238.46268)"
       clip-path="url(#clipPath26)"><tspan
         style="font-variant:normal;font-weight:700;font-size:23px;font-family:Helvetica;writing-mode:lr-tb;fill:#000000;fill-opacity:1;fill-rule:nonzero;stroke:none"
         x="0 12.791504 28.132324 34.522461 48.571777 54.961914 69.01123 77.961914 90.753418 99.704102"
         y="0"
         sodipodi:role="line"
         id="tspan25">JS Library</tspan></text>
  </g>
</svg>
