<?xml version="1.0" encoding="UTF-8" standalone="no"?>
<!-- Created with Inkscape (http://www.inkscape.org/) -->

<svg
   version="1.1"
   id="svg1"
   width="808"
   height="209.27998"
   viewBox="0 0 808 209.27998"
   sodipodi:docname="ts-7.pdf"
   xmlns:inkscape="http://www.inkscape.org/namespaces/inkscape"
   xmlns:sodipodi="http://sodipodi.sourceforge.net/DTD/sodipodi-0.dtd"
   xmlns="http://www.w3.org/2000/svg"
   xmlns:svg="http://www.w3.org/2000/svg">
  <defs
     id="defs1">
    <clipPath
       clipPathUnits="userSpaceOnUse"
       id="clipPath2">
      <path
         d="M 0,0 H 2525 V 652.19196 H 0 Z"
         transform="scale(0.33425743)"
         clip-rule="evenodd"
         id="path2" />
    </clipPath>
    <clipPath
       clipPathUnits="userSpaceOnUse"
       id="clipPath4">
      <path
         d="M 0,0 H 2525 V 649.20026 H 0 Z"
         transform="matrix(0.33425743,0,0,0.33425743,-0.50000001,-0.50000001)"
         clip-rule="evenodd"
         id="path4" />
    </clipPath>
    <clipPath
       clipPathUnits="userSpaceOnUse"
       id="clipPath6">
      <path
         d="M 0,0 H 2525 V 649.20026 H 0 Z"
         transform="matrix(0.33425743,0,0,0.33425743,-0.50000001,-0.50000001)"
         clip-rule="evenodd"
         id="path6" />
    </clipPath>
    <clipPath
       clipPathUnits="userSpaceOnUse"
       id="clipPath8">
      <path
         d="M 0,0 H 2525 V 649.20026 H 0 Z"
         transform="matrix(0.33425743,0,0,0.33425743,-0.50000001,-0.50000001)"
         clip-rule="evenodd"
         id="path8" />
    </clipPath>
    <clipPath
       clipPathUnits="userSpaceOnUse"
       id="clipPath9">
      <path
         d="M 0,0 H 2525 V 649.20026 H 0 Z"
         transform="matrix(0.33425407,0,0,0.33425407,-67.640625,-83)"
         clip-rule="evenodd"
         id="path9" />
    </clipPath>
    <clipPath
       clipPathUnits="userSpaceOnUse"
       id="clipPath11">
      <path
         d="M 0,0 H 2525 V 649.20026 H 0 Z"
         transform="matrix(0.33425743,0,0,0.33425743,-0.50000001,-0.50000001)"
         clip-rule="evenodd"
         id="path11" />
    </clipPath>
    <clipPath
       clipPathUnits="userSpaceOnUse"
       id="clipPath13">
      <path
         d="M 0,0 H 2525 V 649.20026 H 0 Z"
         transform="matrix(0.33425743,0,0,0.33425743,-0.50000001,-0.50000001)"
         clip-rule="evenodd"
         id="path13" />
    </clipPath>
    <clipPath
       clipPathUnits="userSpaceOnUse"
       id="clipPath15">
      <path
         d="M 0,0 H 2525 V 649.20026 H 0 Z"
         transform="matrix(0.33425743,0,0,0.33425743,-0.50000001,-0.50000001)"
         clip-rule="evenodd"
         id="path15" />
    </clipPath>
    <clipPath
       clipPathUnits="userSpaceOnUse"
       id="clipPath17">
      <path
         d="M 0,0 H 2525 V 649.20026 H 0 Z"
         transform="matrix(0.33425743,0,0,0.33425743,-0.50000001,-0.50000001)"
         clip-rule="evenodd"
         id="path17" />
    </clipPath>
    <clipPath
       clipPathUnits="userSpaceOnUse"
       id="clipPath19">
      <path
         d="M 0,0 H 2525 V 649.20026 H 0 Z"
         transform="matrix(0.33425743,0,0,0.33425743,-0.50000001,-0.50000001)"
         clip-rule="evenodd"
         id="path19" />
    </clipPath>
    <clipPath
       clipPathUnits="userSpaceOnUse"
       id="clipPath21">
      <path
         d="M 0,0 H 2525 V 649.20026 H 0 Z"
         transform="matrix(0.33425743,0,0,0.33425743,-0.50000001,-0.50000001)"
         clip-rule="evenodd"
         id="path21" />
    </clipPath>
    <clipPath
       clipPathUnits="userSpaceOnUse"
       id="clipPath23">
      <path
         d="M 0,0 H 2525 V 649.20026 H 0 Z"
         transform="matrix(0.33425743,0,0,0.33425743,-0.50000001,-0.50000001)"
         clip-rule="evenodd"
         id="path23" />
    </clipPath>
    <clipPath
       clipPathUnits="userSpaceOnUse"
       id="clipPath25">
      <path
         d="M 0,0 H 2525 V 649.20026 H 0 Z"
         transform="matrix(0.33425743,0,0,0.33425743,-0.50000001,-0.50000001)"
         clip-rule="evenodd"
         id="path25" />
    </clipPath>
    <clipPath
       clipPathUnits="userSpaceOnUse"
       id="clipPath27">
      <path
         d="M 0,0 H 2525 V 649.20026 H 0 Z"
         transform="matrix(0.33425743,0,0,0.33425743,-0.50000001,-0.50000001)"
         clip-rule="evenodd"
         id="path27" />
    </clipPath>
    <clipPath
       clipPathUnits="userSpaceOnUse"
       id="clipPath29">
      <path
         d="M 0,0 H 2525 V 649.20026 H 0 Z"
         transform="matrix(0.33425743,0,0,0.33425743,-0.50000001,-0.50000001)"
         clip-rule="evenodd"
         id="path29" />
    </clipPath>
    <clipPath
       clipPathUnits="userSpaceOnUse"
       id="clipPath31">
      <path
         d="M 0,0 H 2525 V 649.20026 H 0 Z"
         transform="matrix(0.33425743,0,0,0.33425743,-0.50000001,-0.50000001)"
         clip-rule="evenodd"
         id="path31" />
    </clipPath>
    <clipPath
       clipPathUnits="userSpaceOnUse"
       id="clipPath33">
      <path
         d="M 0,0 H 2525 V 649.20026 H 0 Z"
         transform="matrix(0.33425743,0,0,0.33425743,-0.50000001,-0.50000001)"
         clip-rule="evenodd"
         id="path33" />
    </clipPath>
    <clipPath
       clipPathUnits="userSpaceOnUse"
       id="clipPath35">
      <path
         d="M 0,0 H 2525 V 649.20026 H 0 Z"
         transform="matrix(0.33425743,0,0,0.33425743,-0.50000001,-0.50000001)"
         clip-rule="evenodd"
         id="path35" />
    </clipPath>
    <clipPath
       clipPathUnits="userSpaceOnUse"
       id="clipPath37">
      <path
         d="M 0,0 H 2525 V 649.20026 H 0 Z"
         transform="matrix(0.33425743,0,0,0.33425743,-0.50000001,-0.50000001)"
         clip-rule="evenodd"
         id="path37" />
    </clipPath>
    <clipPath
       clipPathUnits="userSpaceOnUse"
       id="clipPath39">
      <path
         d="M 0,0 H 2525 V 649.20026 H 0 Z"
         transform="matrix(0.33425743,0,0,0.33425743,-0.50000001,-0.50000001)"
         clip-rule="evenodd"
         id="path39" />
    </clipPath>
    <clipPath
       clipPathUnits="userSpaceOnUse"
       id="clipPath41">
      <path
         d="M 0,0 H 2525 V 649.20026 H 0 Z"
         transform="matrix(0.33425743,0,0,0.33425743,-0.50000001,-0.50000001)"
         clip-rule="evenodd"
         id="path41" />
    </clipPath>
    <clipPath
       clipPathUnits="userSpaceOnUse"
       id="clipPath43">
      <path
         d="M 0,0 H 2525 V 649.20026 H 0 Z"
         transform="matrix(0.33425743,0,0,0.33425743,-0.50000001,-0.50000001)"
         clip-rule="evenodd"
         id="path43" />
    </clipPath>
    <clipPath
       clipPathUnits="userSpaceOnUse"
       id="clipPath45">
      <path
         d="M 0,0 H 2525 V 649.20026 H 0 Z"
         transform="matrix(0.33425743,0,0,0.33425743,-0.50000001,-0.50000001)"
         clip-rule="evenodd"
         id="path45" />
    </clipPath>
    <clipPath
       clipPathUnits="userSpaceOnUse"
       id="clipPath47">
      <path
         d="M 0,0 H 2525 V 649.20026 H 0 Z"
         transform="matrix(0.33425743,0,0,0.33425743,-0.50000001,-0.50000001)"
         clip-rule="evenodd"
         id="path47" />
    </clipPath>
    <clipPath
       clipPathUnits="userSpaceOnUse"
       id="clipPath48">
      <path
         d="M 0,0 H 2525 V 649.20026 H 0 Z"
         transform="matrix(0.33425407,0,0,0.33425407,-302.32813,-83)"
         clip-rule="evenodd"
         id="path48" />
    </clipPath>
    <clipPath
       clipPathUnits="userSpaceOnUse"
       id="clipPath50">
      <path
         d="M 0,0 H 2525 V 649.20026 H 0 Z"
         transform="matrix(0.33425743,0,0,0.33425743,-0.50000001,-0.50000001)"
         clip-rule="evenodd"
         id="path50" />
    </clipPath>
    <clipPath
       clipPathUnits="userSpaceOnUse"
       id="clipPath52">
      <path
         d="M 0,0 H 2525 V 649.20026 H 0 Z"
         transform="matrix(0.33425743,0,0,0.33425743,-0.50000001,-0.50000001)"
         clip-rule="evenodd"
         id="path52" />
    </clipPath>
    <clipPath
       clipPathUnits="userSpaceOnUse"
       id="clipPath54">
      <path
         d="M 0,0 H 2525 V 649.20026 H 0 Z"
         transform="matrix(0.33425743,0,0,0.33425743,-0.50000001,-0.50000001)"
         clip-rule="evenodd"
         id="path54" />
    </clipPath>
    <clipPath
       clipPathUnits="userSpaceOnUse"
       id="clipPath56">
      <path
         d="M 0,0 H 2525 V 649.20026 H 0 Z"
         transform="matrix(0.33425743,0,0,0.33425743,-0.50000001,-0.50000001)"
         clip-rule="evenodd"
         id="path56" />
    </clipPath>
    <clipPath
       clipPathUnits="userSpaceOnUse"
       id="clipPath58">
      <path
         d="M 0,0 H 2525 V 649.20026 H 0 Z"
         transform="matrix(0.33425743,0,0,0.33425743,-0.50000001,-0.50000001)"
         clip-rule="evenodd"
         id="path58" />
    </clipPath>
    <clipPath
       clipPathUnits="userSpaceOnUse"
       id="clipPath59">
      <path
         d="M 0,0 H 2525 V 649.20026 H 0 Z"
         transform="matrix(0.33425407,0,0,0.33425407,-448.29688,-83)"
         clip-rule="evenodd"
         id="path59" />
    </clipPath>
    <clipPath
       clipPathUnits="userSpaceOnUse"
       id="clipPath61">
      <path
         d="M 0,0 H 2525 V 649.20026 H 0 Z"
         transform="matrix(0.33425743,0,0,0.33425743,-0.50000001,-0.50000001)"
         clip-rule="evenodd"
         id="path61" />
    </clipPath>
    <clipPath
       clipPathUnits="userSpaceOnUse"
       id="clipPath62">
      <path
         d="M 0,0 H 2525 V 649.20026 H 0 Z"
         transform="matrix(0.33425407,0,0,0.33425407,-585.64063,-83)"
         clip-rule="evenodd"
         id="path62" />
    </clipPath>
    <clipPath
       clipPathUnits="userSpaceOnUse"
       id="clipPath64">
      <path
         d="M 0,0 H 2525 V 649.20026 H 0 Z"
         transform="matrix(0.33425743,0,0,0.33425743,-0.50000001,-0.50000001)"
         clip-rule="evenodd"
         id="path64" />
    </clipPath>
    <clipPath
       clipPathUnits="userSpaceOnUse"
       id="clipPath65">
      <path
         d="M 0,0 H 2525 V 649.20026 H 0 Z"
         transform="matrix(0.33425407,0,0,0.33425407,-742.32813,-83)"
         clip-rule="evenodd"
         id="path65" />
    </clipPath>
    <clipPath
       clipPathUnits="userSpaceOnUse"
       id="clipPath67">
      <path
         d="M 0,0 H 2525 V 649.20026 H 0 Z"
         transform="matrix(0,-0.33425743,0.33425743,0,300.5,361.49998)"
         clip-rule="evenodd"
         id="path67" />
    </clipPath>
    <clipPath
       clipPathUnits="userSpaceOnUse"
       id="clipPath68">
      <path
         d="M 0,0 H 2525 V 649.20026 H 0 Z"
         transform="matrix(0.33425407,0,0,0.33425407,-290.51563,-15)"
         clip-rule="evenodd"
         id="path68" />
    </clipPath>
    <clipPath
       clipPathUnits="userSpaceOnUse"
       id="clipPath70">
      <path
         d="M 0,0 H 2525 V 649.20026 H 0 Z"
         transform="matrix(0,-0.33425743,0.33425743,0,600.50999,661.51004)"
         clip-rule="evenodd"
         id="path70" />
    </clipPath>
    <clipPath
       clipPathUnits="userSpaceOnUse"
       id="clipPath71">
      <path
         d="M 0,0 H 2525 V 649.20026 H 0 Z"
         transform="matrix(0.33425407,0,0,0.33425407,-586.64063,-15)"
         clip-rule="evenodd"
         id="path71" />
    </clipPath>
  </defs>
  <sodipodi:namedview
     id="namedview1"
     pagecolor="#ffffff"
     bordercolor="#000000"
     borderopacity="0.25"
     inkscape:showpageshadow="2"
     inkscape:pageopacity="0.0"
     inkscape:pagecheckerboard="0"
     inkscape:deskcolor="#d1d1d1">
    <inkscape:page
       x="0"
       y="0"
       inkscape:label="1"
       id="page1"
       width="808"
       height="209.27998"
       margin="0"
       bleed="0" />
  </sodipodi:namedview>
  <g
     id="g1"
     inkscape:groupmode="layer"
     inkscape:label="1">
    <path
       id="path1"
       d="M 0,0 H 844 V 218 H 0 Z"
       style="fill:#ffffff;fill-opacity:1;fill-rule:nonzero;stroke:none"
       transform="scale(0.95734591)"
       clip-path="url(#clipPath2)" />
    <path
       id="path3"
       d="m 241,75 h 20 -10 13.63"
       style="fill:none;stroke:#000000;stroke-width:1;stroke-linecap:butt;stroke-linejoin:miter;stroke-miterlimit:10;stroke-dasharray:none;stroke-opacity:1"
       transform="matrix(0.95734591,0,0,0.95734591,0.47867296,0.47867296)"
       clip-path="url(#clipPath4)" />
    <path
       id="path5"
       d="m 269.88,75 -7,3.5 1.75,-3.5 -1.75,-3.5 z"
       style="fill:#000000;fill-opacity:1;fill-rule:nonzero;stroke:#000000;stroke-width:1;stroke-linecap:butt;stroke-linejoin:miter;stroke-miterlimit:10;stroke-dasharray:none;stroke-opacity:1"
       transform="matrix(0.95734591,0,0,0.95734591,0.47867296,0.47867296)"
       clip-path="url(#clipPath6)" />
    <path
       id="path7"
       d="M 1,55 H 241 V 95 H 1 Z"
       style="fill:#dae8fc;fill-opacity:1;fill-rule:nonzero;stroke:#6c8ebf;stroke-width:1;stroke-linecap:butt;stroke-linejoin:miter;stroke-miterlimit:10;stroke-dasharray:none;stroke-opacity:1"
       transform="matrix(0.95734591,0,0,0.95734591,0.47867296,0.47867296)"
       clip-path="url(#clipPath8)" />
    <text
       id="text8"
       xml:space="preserve"
       transform="matrix(0.95735554,0,0,0.95735554,64.756127,79.46051)"
       clip-path="url(#clipPath9)"><tspan
         style="font-variant:normal;font-weight:normal;font-size:24px;font-family:Helvetica;writing-mode:lr-tb;fill:#000000;fill-opacity:1;fill-rule:nonzero;stroke:none"
         x="0 17.332031 33.339844 49.347656 56.015625 73.347656 86.695312 93.363281"
         y="0"
         sodipodi:role="line"
         id="tspan8">CSV Data</tspan></text>
    <path
       id="path10"
       d="m 1,95 h 60 v 30 H 1 Z"
       style="fill:#ffffff;fill-opacity:1;fill-rule:nonzero;stroke:#000000;stroke-width:1;stroke-linecap:butt;stroke-linejoin:miter;stroke-miterlimit:10;stroke-dasharray:none;stroke-opacity:1"
       transform="matrix(0.95734591,0,0,0.95734591,0.47867296,0.47867296)"
       clip-path="url(#clipPath11)" />
    <path
       id="path12"
       d="m 61,95 h 60 v 30 H 61 Z"
       style="fill:#ffffff;fill-opacity:1;fill-rule:nonzero;stroke:#000000;stroke-width:1;stroke-linecap:butt;stroke-linejoin:miter;stroke-miterlimit:10;stroke-dasharray:none;stroke-opacity:1"
       transform="matrix(0.95734591,0,0,0.95734591,0.47867296,0.47867296)"
       clip-path="url(#clipPath13)" />
    <path
       id="path14"
       d="m 121,95 h 60 v 30 h -60 z"
       style="fill:#ffffff;fill-opacity:1;fill-rule:nonzero;stroke:#000000;stroke-width:1;stroke-linecap:butt;stroke-linejoin:miter;stroke-miterlimit:10;stroke-dasharray:none;stroke-opacity:1"
       transform="matrix(0.95734591,0,0,0.95734591,0.47867296,0.47867296)"
       clip-path="url(#clipPath15)" />
    <path
       id="path16"
       d="m 181,95 h 60 v 30 h -60 z"
       style="fill:#ffffff;fill-opacity:1;fill-rule:nonzero;stroke:#000000;stroke-width:1;stroke-linecap:butt;stroke-linejoin:miter;stroke-miterlimit:10;stroke-dasharray:none;stroke-opacity:1"
       transform="matrix(0.95734591,0,0,0.95734591,0.47867296,0.47867296)"
       clip-path="url(#clipPath17)" />
    <path
       id="path18"
       d="m 1,125 h 60 v 30 H 1 Z"
       style="fill:#ffffff;fill-opacity:1;fill-rule:nonzero;stroke:#000000;stroke-width:1;stroke-linecap:butt;stroke-linejoin:miter;stroke-miterlimit:10;stroke-dasharray:none;stroke-opacity:1"
       transform="matrix(0.95734591,0,0,0.95734591,0.47867296,0.47867296)"
       clip-path="url(#clipPath19)" />
    <path
       id="path20"
       d="m 61,125 h 60 v 30 H 61 Z"
       style="fill:#ffffff;fill-opacity:1;fill-rule:nonzero;stroke:#000000;stroke-width:1;stroke-linecap:butt;stroke-linejoin:miter;stroke-miterlimit:10;stroke-dasharray:none;stroke-opacity:1"
       transform="matrix(0.95734591,0,0,0.95734591,0.47867296,0.47867296)"
       clip-path="url(#clipPath21)" />
    <path
       id="path22"
       d="m 121,125 h 60 v 30 h -60 z"
       style="fill:#ffffff;fill-opacity:1;fill-rule:nonzero;stroke:#000000;stroke-width:1;stroke-linecap:butt;stroke-linejoin:miter;stroke-miterlimit:10;stroke-dasharray:none;stroke-opacity:1"
       transform="matrix(0.95734591,0,0,0.95734591,0.47867296,0.47867296)"
       clip-path="url(#clipPath23)" />
    <path
       id="path24"
       d="m 181,125 h 60 v 30 h -60 z"
       style="fill:#ffffff;fill-opacity:1;fill-rule:nonzero;stroke:#000000;stroke-width:1;stroke-linecap:butt;stroke-linejoin:miter;stroke-miterlimit:10;stroke-dasharray:none;stroke-opacity:1"
       transform="matrix(0.95734591,0,0,0.95734591,0.47867296,0.47867296)"
       clip-path="url(#clipPath25)" />
    <path
       id="path26"
       d="m 1,155 h 60 v 30 H 1 Z"
       style="fill:#ffffff;fill-opacity:1;fill-rule:nonzero;stroke:#000000;stroke-width:1;stroke-linecap:butt;stroke-linejoin:miter;stroke-miterlimit:10;stroke-dasharray:none;stroke-opacity:1"
       transform="matrix(0.95734591,0,0,0.95734591,0.47867296,0.47867296)"
       clip-path="url(#clipPath27)" />
    <path
       id="path28"
       d="m 61,155 h 60 v 30 H 61 Z"
       style="fill:#ffffff;fill-opacity:1;fill-rule:nonzero;stroke:#000000;stroke-width:1;stroke-linecap:butt;stroke-linejoin:miter;stroke-miterlimit:10;stroke-dasharray:none;stroke-opacity:1"
       transform="matrix(0.95734591,0,0,0.95734591,0.47867296,0.47867296)"
       clip-path="url(#clipPath29)" />
    <path
       id="path30"
       d="m 121,155 h 60 v 30 h -60 z"
       style="fill:#ffffff;fill-opacity:1;fill-rule:nonzero;stroke:#000000;stroke-width:1;stroke-linecap:butt;stroke-linejoin:miter;stroke-miterlimit:10;stroke-dasharray:none;stroke-opacity:1"
       transform="matrix(0.95734591,0,0,0.95734591,0.47867296,0.47867296)"
       clip-path="url(#clipPath31)" />
    <path
       id="path32"
       d="m 181,155 h 60 v 30 h -60 z"
       style="fill:#ffffff;fill-opacity:1;fill-rule:nonzero;stroke:#000000;stroke-width:1;stroke-linecap:butt;stroke-linejoin:miter;stroke-miterlimit:10;stroke-dasharray:none;stroke-opacity:1"
       transform="matrix(0.95734591,0,0,0.95734591,0.47867296,0.47867296)"
       clip-path="url(#clipPath33)" />
    <path
       id="path34"
       d="m 1,185 h 60 v 30 H 1 Z"
       style="fill:#ffffff;fill-opacity:1;fill-rule:nonzero;stroke:#000000;stroke-width:1;stroke-linecap:butt;stroke-linejoin:miter;stroke-miterlimit:10;stroke-dasharray:none;stroke-opacity:1"
       transform="matrix(0.95734591,0,0,0.95734591,0.47867296,0.47867296)"
       clip-path="url(#clipPath35)" />
    <path
       id="path36"
       d="m 61,185 h 60 v 30 H 61 Z"
       style="fill:#ffffff;fill-opacity:1;fill-rule:nonzero;stroke:#000000;stroke-width:1;stroke-linecap:butt;stroke-linejoin:miter;stroke-miterlimit:10;stroke-dasharray:none;stroke-opacity:1"
       transform="matrix(0.95734591,0,0,0.95734591,0.47867296,0.47867296)"
       clip-path="url(#clipPath37)" />
    <path
       id="path38"
       d="m 121,185 h 60 v 30 h -60 z"
       style="fill:#ffffff;fill-opacity:1;fill-rule:nonzero;stroke:#000000;stroke-width:1;stroke-linecap:butt;stroke-linejoin:miter;stroke-miterlimit:10;stroke-dasharray:none;stroke-opacity:1"
       transform="matrix(0.95734591,0,0,0.95734591,0.47867296,0.47867296)"
       clip-path="url(#clipPath39)" />
    <path
       id="path40"
       d="m 181,185 h 60 v 30 h -60 z"
       style="fill:#ffffff;fill-opacity:1;fill-rule:nonzero;stroke:#000000;stroke-width:1;stroke-linecap:butt;stroke-linejoin:miter;stroke-miterlimit:10;stroke-dasharray:none;stroke-opacity:1"
       transform="matrix(0.95734591,0,0,0.95734591,0.47867296,0.47867296)"
       clip-path="url(#clipPath41)" />
    <path
       id="path42"
       d="m 391,75 h 20 -10 13.64001"
       style="fill:none;stroke:#000000;stroke-width:1;stroke-linecap:butt;stroke-linejoin:miter;stroke-miterlimit:10;stroke-dasharray:none;stroke-opacity:1"
       transform="matrix(0.95734591,0,0,0.95734591,0.47867296,0.47867296)"
       clip-path="url(#clipPath43)" />
    <path
       id="path44"
       d="m 419.89001,75 -7,3.5 1.75,-3.5 -1.75,-3.5 z"
       style="fill:#000000;fill-opacity:1;fill-rule:nonzero;stroke:#000000;stroke-width:1;stroke-linecap:butt;stroke-linejoin:miter;stroke-miterlimit:10;stroke-dasharray:none;stroke-opacity:1"
       transform="matrix(0.95734591,0,0,0.95734591,0.47867296,0.47867296)"
       clip-path="url(#clipPath45)" />
    <path
       id="path46"
       d="m 271,45 h 120 v 60 H 271 Z"
       style="fill:#ffffff;fill-opacity:1;fill-rule:nonzero;stroke:#000000;stroke-width:1;stroke-linecap:butt;stroke-linejoin:miter;stroke-miterlimit:10;stroke-dasharray:none;stroke-opacity:1"
       transform="matrix(0.95734591,0,0,0.95734591,0.47867296,0.47867296)"
       clip-path="url(#clipPath47)" />
    <text
       id="text47"
       xml:space="preserve"
       transform="matrix(0.95735554,0,0,0.95735554,289.43551,79.46051)"
       clip-path="url(#clipPath48)"><tspan
         style="font-variant:normal;font-weight:700;font-size:24px;font-family:Helvetica;writing-mode:lr-tb;fill:#000000;fill-opacity:1;fill-rule:nonzero;stroke:none"
         x="0 14.660156 29.320312 42.667969"
         y="0"
         sodipodi:role="line"
         id="tspan47">Load</tspan></text>
    <path
       id="path49"
       d="M 521.01001,75 546.5,75.5 564.64001,75.129997"
       style="fill:none;stroke:#000000;stroke-width:1;stroke-linecap:butt;stroke-linejoin:miter;stroke-miterlimit:10;stroke-dasharray:none;stroke-opacity:1"
       transform="matrix(0.95734591,0,0,0.95734591,0.47867296,0.47867296)"
       clip-path="url(#clipPath50)" />
    <path
       id="path51"
       d="m 569.89001,75.019997 -6.92999,3.640007 1.67999,-3.530007 -1.82,-3.459999 z"
       style="fill:#000000;fill-opacity:1;fill-rule:nonzero;stroke:#000000;stroke-width:1;stroke-linecap:butt;stroke-linejoin:miter;stroke-miterlimit:10;stroke-dasharray:none;stroke-opacity:1"
       transform="matrix(0.95734591,0,0,0.95734591,0.47867296,0.47867296)"
       clip-path="url(#clipPath52)" />
    <path
       id="path53"
       d="M 671.01001,75 696.5,75.5 714.64001,75.129997"
       style="fill:none;stroke:#000000;stroke-width:1;stroke-linecap:butt;stroke-linejoin:miter;stroke-miterlimit:10;stroke-dasharray:none;stroke-opacity:1"
       transform="matrix(0.95734591,0,0,0.95734591,0.47867296,0.47867296)"
       clip-path="url(#clipPath54)" />
    <path
       id="path55"
       d="m 719.89001,75.019997 -6.92999,3.640007 1.67999,-3.530007 -1.82,-3.459999 z"
       style="fill:#000000;fill-opacity:1;fill-rule:nonzero;stroke:#000000;stroke-width:1;stroke-linecap:butt;stroke-linejoin:miter;stroke-miterlimit:10;stroke-dasharray:none;stroke-opacity:1"
       transform="matrix(0.95734591,0,0,0.95734591,0.47867296,0.47867296)"
       clip-path="url(#clipPath56)" />
    <path
       id="path57"
       d="m 421,45 h 120 v 60 H 421 Z"
       style="fill:#ffffff;fill-opacity:1;fill-rule:nonzero;stroke:#000000;stroke-width:1;stroke-linecap:butt;stroke-linejoin:miter;stroke-miterlimit:10;stroke-dasharray:none;stroke-opacity:1"
       transform="matrix(0.95734591,0,0,0.95734591,0.47867296,0.47867296)"
       clip-path="url(#clipPath58)" />
    <text
       id="text58"
       xml:space="preserve"
       transform="matrix(0.95735554,0,0,0.95735554,429.1795,79.46051)"
       clip-path="url(#clipPath59)"><tspan
         style="font-variant:normal;font-weight:700;font-size:24px;font-family:Helvetica;writing-mode:lr-tb;fill:#000000;fill-opacity:1;fill-rule:nonzero;stroke:none"
         x="0 16.007812 29.355469 38.695312 52.042969"
         y="0"
         sodipodi:role="line"
         id="tspan58">Parse</tspan></text>
    <path
       id="path60"
       d="m 571.01001,45 h 120 v 60 h -120 z"
       style="fill:#ffffff;fill-opacity:1;fill-rule:nonzero;stroke:#000000;stroke-width:1;stroke-linecap:butt;stroke-linejoin:miter;stroke-miterlimit:10;stroke-dasharray:none;stroke-opacity:1"
       transform="matrix(0.95734591,0,0,0.95734591,0.47867296,0.47867296)"
       clip-path="url(#clipPath61)" />
    <text
       id="text61"
       xml:space="preserve"
       transform="matrix(0.95735554,0,0,0.95735554,560.6663,79.46051)"
       clip-path="url(#clipPath62)"><tspan
         style="font-variant:normal;font-weight:700;font-size:24px;font-family:Helvetica;writing-mode:lr-tb;fill:#000000;fill-opacity:1;fill-rule:nonzero;stroke:none"
         x="0 17.332031 31.992188 45.339844 52.007812 65.355469 77.355469"
         y="0"
         sodipodi:role="line"
         id="tspan61">Analyze</tspan></text>
    <path
       id="path63"
       d="m 721.01001,45 h 120 v 60 h -120 z"
       style="fill:#ffffff;fill-opacity:1;fill-rule:nonzero;stroke:#000000;stroke-width:1;stroke-linecap:butt;stroke-linejoin:miter;stroke-miterlimit:10;stroke-dasharray:none;stroke-opacity:1"
       transform="matrix(0.95734591,0,0,0.95734591,0.47867296,0.47867296)"
       clip-path="url(#clipPath64)" />
    <text
       id="text64"
       xml:space="preserve"
       transform="matrix(0.95735554,0,0,0.95735554,710.67195,79.46051)"
       clip-path="url(#clipPath65)"><tspan
         style="font-variant:normal;font-weight:700;font-size:24px;font-family:Helvetica;writing-mode:lr-tb;fill:#000000;fill-opacity:1;fill-rule:nonzero;stroke:none"
         x="0 17.332031 30.679688 45.339844 60 69.339844"
         y="0"
         sodipodi:role="line"
         id="tspan64">Report</tspan></text>
    <path
       id="path66"
       d="m 341,-30 h -5 c -3.33334,0 -5,3.333332 -5,10 v 40 c 0,6.666668 -1.66666,10 -5,10 h -2.5 c -1.66666,0 -0.83334,0 2.5,0 h 2.5 c 1.66666,0 2.5,3.333332 2.5,10 v 40 c 0,6.666664 1.66666,10 5,10 h 5"
       style="fill:none;stroke:#000000;stroke-width:1;stroke-linecap:butt;stroke-linejoin:miter;stroke-miterlimit:10;stroke-dasharray:none;stroke-opacity:1"
       transform="matrix(0,0.95734591,-0.95734591,0,346.08053,-287.68245)"
       clip-path="url(#clipPath67)" />
    <text
       id="text67"
       xml:space="preserve"
       transform="matrix(0.95735554,0,0,0.95735554,278.12675,14.360333)"
       clip-path="url(#clipPath68)"><tspan
         style="font-variant:normal;font-weight:normal;font-size:14px;font-family:Helvetica;writing-mode:lr-tb;fill:#000000;fill-opacity:1;fill-rule:nonzero;stroke:none"
         x="0 10.110352 17.896484 25.682617 33.46875 37.358398 46.696289 50.585938 58.37207 62.261719 70.047852 73.158203"
         y="0"
         sodipodi:role="line"
         id="tspan67">Node Std Lib</tspan></text>
    <path
       id="path69"
       d="m 641.01001,-180 h -5 c -3.33331,0 -5,3.33333 -5,10 V 20 c 0,6.666668 -1.66669,10 -5,10 h -2.5 c -1.66669,0 -0.83331,0 2.5,0 h 2.5 c 1.66669,0 2.5,3.333332 2.5,10 v 190 c 0,6.66667 1.66669,10 5,10 h 5"
       style="fill:none;stroke:#000000;stroke-width:1;stroke-linecap:butt;stroke-linejoin:miter;stroke-miterlimit:10;stroke-dasharray:none;stroke-opacity:1"
       transform="matrix(0,0.95734591,-0.95734591,0,633.29393,-574.89578)"
       clip-path="url(#clipPath70)" />
    <text
       id="text70"
       xml:space="preserve"
       transform="matrix(0.95735554,0,0,0.95735554,561.62366,14.360333)"
       clip-path="url(#clipPath71)"><tspan
         style="font-variant:normal;font-weight:normal;font-size:14px;font-family:Helvetica;writing-mode:lr-tb;fill:#000000;fill-opacity:1;fill-rule:nonzero;stroke:none"
         x="0 10.110352 17.896484 25.682617 33.46875 37.358398 47.46875 55.254883 59.144531 69.254883 73.916992 77.027344 80.916992"
         y="0"
         sodipodi:role="line"
         id="tspan70">Code we write</tspan></text>
  </g>
</svg>
