<?xml version="1.0" encoding="UTF-8" standalone="no"?>
<!-- Created with Inkscape (http://www.inkscape.org/) -->

<svg
   version="1.1"
   id="svg1"
   width="601.27997"
   height="393.28"
   viewBox="0 0 601.27997 393.28"
   sodipodi:docname="ts-8.pdf"
   xmlns:inkscape="http://www.inkscape.org/namespaces/inkscape"
   xmlns:sodipodi="http://sodipodi.sourceforge.net/DTD/sodipodi-0.dtd"
   xmlns="http://www.w3.org/2000/svg"
   xmlns:svg="http://www.w3.org/2000/svg">
  <defs
     id="defs1">
    <clipPath
       clipPathUnits="userSpaceOnUse"
       id="clipPath2">
      <path
         d="M 0,0 H 1879.1666 V 1226.8445 H 0 Z"
         transform="scale(0.33419069)"
         clip-rule="evenodd"
         id="path2" />
    </clipPath>
    <clipPath
       clipPathUnits="userSpaceOnUse"
       id="clipPath4">
      <path
         d="M 0,0 H 1879.1666 V 1223.8522 H 0 Z"
         transform="matrix(0.33419069,0,0,0.33419069,-0.50000001,-0.50000001)"
         clip-rule="evenodd"
         id="path4" />
    </clipPath>
    <clipPath
       clipPathUnits="userSpaceOnUse"
       id="clipPath6">
      <path
         d="M 0,0 H 1879.1666 V 1223.8522 H 0 Z"
         transform="matrix(0.33419069,0,0,0.33419069,-0.50000001,-0.50000001)"
         clip-rule="evenodd"
         id="path6" />
    </clipPath>
    <clipPath
       clipPathUnits="userSpaceOnUse"
       id="clipPath8">
      <path
         d="M 0,0 H 1879.1666 V 1223.8522 H 0 Z"
         transform="matrix(0.33419069,0,0,0.33419069,-0.50000001,-0.50000001)"
         clip-rule="evenodd"
         id="path8" />
    </clipPath>
    <clipPath
       clipPathUnits="userSpaceOnUse"
       id="clipPath9">
      <path
         d="M 0,0 H 1879.1666 V 1223.8522 H 0 Z"
         transform="matrix(0.33418733,0,0,0.33418733,-3,-41.000001)"
         clip-rule="evenodd"
         id="path9" />
    </clipPath>
    <clipPath
       clipPathUnits="userSpaceOnUse"
       id="clipPath10">
      <path
         d="M 0,0 H 1879.1666 V 1223.8522 H 0 Z"
         transform="matrix(0.33418733,0,0,0.33418733,-3,-61)"
         clip-rule="evenodd"
         id="path10" />
    </clipPath>
    <clipPath
       clipPathUnits="userSpaceOnUse"
       id="clipPath12">
      <path
         d="M 0,0 H 1879.1666 V 1223.8522 H 0 Z"
         transform="matrix(0.33419069,0,0,0.33419069,-0.50000001,-0.50000001)"
         clip-rule="evenodd"
         id="path12" />
    </clipPath>
    <clipPath
       clipPathUnits="userSpaceOnUse"
       id="clipPath14">
      <path
         d="M 0,0 H 1879.1666 V 1223.8522 H 0 Z"
         transform="matrix(0.33419069,0,0,0.33419069,-0.50000001,-0.50000001)"
         clip-rule="evenodd"
         id="path14" />
    </clipPath>
    <clipPath
       clipPathUnits="userSpaceOnUse"
       id="clipPath16">
      <path
         d="M 0,0 H 1879.1666 V 1223.8522 H 0 Z"
         transform="matrix(0.33419069,0,0,0.33419069,-0.50000001,-0.50000001)"
         clip-rule="evenodd"
         id="path16" />
    </clipPath>
    <clipPath
       clipPathUnits="userSpaceOnUse"
       id="clipPath17">
      <path
         d="M 0,0 H 1879.1666 V 1223.8522 H 0 Z"
         transform="matrix(0.33418733,0,0,0.33418733,-3,-177)"
         clip-rule="evenodd"
         id="path17" />
    </clipPath>
    <clipPath
       clipPathUnits="userSpaceOnUse"
       id="clipPath18">
      <path
         d="M 0,0 H 1879.1666 V 1223.8522 H 0 Z"
         transform="matrix(0.33418733,0,0,0.33418733,-3,-196)"
         clip-rule="evenodd"
         id="path18" />
    </clipPath>
    <clipPath
       clipPathUnits="userSpaceOnUse"
       id="clipPath19">
      <path
         d="M 0,0 H 1879.1666 V 1223.8522 H 0 Z"
         transform="matrix(0.33418733,0,0,0.33418733,-3,-216)"
         clip-rule="evenodd"
         id="path19" />
    </clipPath>
    <clipPath
       clipPathUnits="userSpaceOnUse"
       id="clipPath20">
      <path
         d="M 0,0 H 1879.1666 V 1223.8522 H 0 Z"
         transform="matrix(0.33418733,0,0,0.33418733,-3,-235)"
         clip-rule="evenodd"
         id="path20" />
    </clipPath>
    <clipPath
       clipPathUnits="userSpaceOnUse"
       id="clipPath22">
      <path
         d="M 0,0 H 1879.1666 V 1223.8522 H 0 Z"
         transform="matrix(0.33419069,0,0,0.33419069,-0.50000001,-0.50000001)"
         clip-rule="evenodd"
         id="path22" />
    </clipPath>
    <clipPath
       clipPathUnits="userSpaceOnUse"
       id="clipPath23">
      <path
         d="M 0,0 H 1879.1666 V 1223.8522 H 0 Z"
         transform="matrix(0.33418733,0,0,0.33418733,-3,-337)"
         clip-rule="evenodd"
         id="path23" />
    </clipPath>
    <clipPath
       clipPathUnits="userSpaceOnUse"
       id="clipPath24">
      <path
         d="M 0,0 H 1879.1666 V 1223.8522 H 0 Z"
         transform="matrix(0.33418733,0,0,0.33418733,-3,-356)"
         clip-rule="evenodd"
         id="path24" />
    </clipPath>
    <clipPath
       clipPathUnits="userSpaceOnUse"
       id="clipPath25">
      <path
         d="M 0,0 H 1879.1666 V 1223.8522 H 0 Z"
         transform="matrix(0.33418733,0,0,0.33418733,-3,-376.00001)"
         clip-rule="evenodd"
         id="path25" />
    </clipPath>
    <clipPath
       clipPathUnits="userSpaceOnUse"
       id="clipPath26">
      <path
         d="M 0,0 H 1879.1666 V 1223.8522 H 0 Z"
         transform="matrix(0.33418733,0,0,0.33418733,-3,-395)"
         clip-rule="evenodd"
         id="path26" />
    </clipPath>
    <clipPath
       clipPathUnits="userSpaceOnUse"
       id="clipPath27">
      <path
         d="M 0,0 H 1879.1666 V 1223.8522 H 0 Z"
         transform="matrix(0.33418733,0,0,0.33418733,-518,-54)"
         clip-rule="evenodd"
         id="path27" />
    </clipPath>
    <clipPath
       clipPathUnits="userSpaceOnUse"
       id="clipPath28">
      <path
         d="M 0,0 H 1879.1666 V 1223.8522 H 0 Z"
         transform="matrix(0.33418733,0,0,0.33418733,-518,-209)"
         clip-rule="evenodd"
         id="path28" />
    </clipPath>
    <clipPath
       clipPathUnits="userSpaceOnUse"
       id="clipPath29">
      <path
         d="M 0,0 H 1879.1666 V 1223.8522 H 0 Z"
         transform="matrix(0.33418733,0,0,0.33418733,-523.00001,-369)"
         clip-rule="evenodd"
         id="path29" />
    </clipPath>
    <clipPath
       clipPathUnits="userSpaceOnUse"
       id="clipPath31">
      <path
         d="M 0,0 H 1879.1666 V 1223.8522 H 0 Z"
         transform="matrix(0.33419069,0,0,0.33419069,-0.50000001,-0.50000001)"
         clip-rule="evenodd"
         id="path31" />
    </clipPath>
    <clipPath
       clipPathUnits="userSpaceOnUse"
       id="clipPath32">
      <path
         d="M 0,0 H 1879.1666 V 1223.8522 H 0 Z"
         transform="matrix(0.33418733,0,0,0.33418733,-284.48438,-129)"
         clip-rule="evenodd"
         id="path32" />
    </clipPath>
    <clipPath
       clipPathUnits="userSpaceOnUse"
       id="clipPath34">
      <path
         d="M 0,0 H 1879.1666 V 1223.8522 H 0 Z"
         transform="matrix(0.33419069,0,0,0.33419069,-0.50000001,-0.50000001)"
         clip-rule="evenodd"
         id="path34" />
    </clipPath>
    <clipPath
       clipPathUnits="userSpaceOnUse"
       id="clipPath35">
      <path
         d="M 0,0 H 1879.1666 V 1223.8522 H 0 Z"
         transform="matrix(0.33418733,0,0,0.33418733,-277.09375,-286)"
         clip-rule="evenodd"
         id="path35" />
    </clipPath>
  </defs>
  <sodipodi:namedview
     id="namedview1"
     pagecolor="#ffffff"
     bordercolor="#000000"
     borderopacity="0.25"
     inkscape:showpageshadow="2"
     inkscape:pageopacity="0.0"
     inkscape:pagecheckerboard="0"
     inkscape:deskcolor="#d1d1d1">
    <inkscape:page
       x="0"
       y="0"
       inkscape:label="1"
       id="page1"
       width="601.27997"
       height="393.28"
       margin="0"
       bleed="0" />
  </sodipodi:namedview>
  <g
     id="g1"
     inkscape:groupmode="layer"
     inkscape:label="1">
    <path
       id="path1"
       d="M 0,0 H 628 V 410 H 0 Z"
       style="fill:#ffffff;fill-opacity:1;fill-rule:nonzero;stroke:none"
       transform="scale(0.95753711)"
       clip-path="url(#clipPath2)" />
    <path
       id="path3"
       d="m 256,91 v 58.63"
       style="fill:none;stroke:#000000;stroke-width:1;stroke-linecap:butt;stroke-linejoin:miter;stroke-miterlimit:10;stroke-dasharray:none;stroke-opacity:1"
       transform="matrix(0.95753711,0,0,0.95753711,0.47876856,0.47876856)"
       clip-path="url(#clipPath4)" />
    <path
       id="path5"
       d="m 256,154.88 -3.5,-7 3.5,1.75 3.5,-1.75 z"
       style="fill:#000000;fill-opacity:1;fill-rule:nonzero;stroke:#000000;stroke-width:1;stroke-linecap:butt;stroke-linejoin:miter;stroke-miterlimit:10;stroke-dasharray:none;stroke-opacity:1"
       transform="matrix(0.95753711,0,0,0.95753711,0.47876856,0.47876856)"
       clip-path="url(#clipPath6)" />
    <path
       id="path7"
       d="M 1,1 H 511.01001 V 91 H 1 Z"
       style="fill:#ffffff;fill-opacity:1;fill-rule:nonzero;stroke:#000000;stroke-width:1;stroke-linecap:butt;stroke-linejoin:miter;stroke-miterlimit:10;stroke-dasharray:none;stroke-opacity:1"
       transform="matrix(0.95753711,0,0,0.95753711,0.47876856,0.47876856)"
       clip-path="url(#clipPath8)" />
    <text
       id="text8"
       xml:space="preserve"
       transform="matrix(0.95754674,0,0,0.95754674,2.8726402,39.259417)"
       clip-path="url(#clipPath9)"><tspan
         style="font-variant:normal;font-weight:normal;font-size:16px;font-family:Helvetica;writing-mode:lr-tb;fill:#000000;fill-opacity:1;fill-rule:nonzero;stroke:none"
         x="0 5.6796875 14.578125 23.476562 27.921875 36.820312 45.71875 50.164062 59.0625 67.960938 76.859375 85.757812 90.203125 103.53125 112.42969 121.32812 125.77344 137.32812 146.22656 149.78125 154.22656 163.125 172.02344 176.46875 185.36719 194.26562 197.82031 205.82031 214.71875 222.71875 227.16406 236.0625 240.51562 244.96094 253.85938 258.30469 267.20312 271.64844 283.20312 287.64844 297.44531 301.89062 315.21875 324.11719 329.44531 334.77344 338.32812 347.22656 356.125"
         y="0"
         sodipodi:role="line"
         id="tspan8">&quot;10/08/2018,Man United,Leicester,2,1,H,A Marriner</tspan></text>
    <text
       id="text9"
       xml:space="preserve"
       transform="matrix(0.95754674,0,0,0.95754674,2.8726402,58.410351)"
       clip-path="url(#clipPath10)"><tspan
         style="font-variant:normal;font-weight:normal;font-size:16px;font-family:Helvetica;writing-mode:lr-tb;fill:#000000;fill-opacity:1;fill-rule:nonzero;stroke:none"
         x="0 7.71875 16.617188 21.0625 29.960938 38.859375 43.304688 52.203125 61.101562 70 78.898438 83.34375 94.015625 102.91406 111.8125 117.14062 126.03906 134.9375 148.26562 157.16406 166.0625 170.50781 179.40625 183.85156 195.40625 204.30469 209.63281 218.53125 222.08594 226.25 230.69531 235.14062 244.03906 248.48438 257.38281 261.82812 273.38281 277.82812 288.5 292.94531 302.71875 308.04688 311.60156 320.5 329.39844 338.29688"
         y="0"
         sodipodi:role="line"
         id="tspan9">11/08/2018,Bournemouth,Cardiff,2,0,H,K Friend&quot;</tspan></text>
    <path
       id="path11"
       d="m 256,246 v 63.64001"
       style="fill:none;stroke:#000000;stroke-width:1;stroke-linecap:butt;stroke-linejoin:miter;stroke-miterlimit:10;stroke-dasharray:none;stroke-opacity:1"
       transform="matrix(0.95753711,0,0,0.95753711,0.47876856,0.47876856)"
       clip-path="url(#clipPath12)" />
    <path
       id="path13"
       d="m 256,314.89001 -3.5,-7 3.5,1.75 3.5,-1.75 z"
       style="fill:#000000;fill-opacity:1;fill-rule:nonzero;stroke:#000000;stroke-width:1;stroke-linecap:butt;stroke-linejoin:miter;stroke-miterlimit:10;stroke-dasharray:none;stroke-opacity:1"
       transform="matrix(0.95753711,0,0,0.95753711,0.47876856,0.47876856)"
       clip-path="url(#clipPath14)" />
    <path
       id="path15"
       d="m 1,156 h 510.01001 v 90 H 1 Z"
       style="fill:#ffffff;fill-opacity:1;fill-rule:nonzero;stroke:#000000;stroke-width:1;stroke-linecap:butt;stroke-linejoin:miter;stroke-miterlimit:10;stroke-dasharray:none;stroke-opacity:1"
       transform="matrix(0.95753711,0,0,0.95753711,0.47876856,0.47876856)"
       clip-path="url(#clipPath16)" />
    <text
       id="text16"
       xml:space="preserve"
       transform="matrix(0.95754674,0,0,0.95754674,2.8726402,169.48577)"
       clip-path="url(#clipPath17)"><tspan
         style="font-variant:normal;font-weight:normal;font-size:16px;font-family:Helvetica;writing-mode:lr-tb;fill:#000000;fill-opacity:1;fill-rule:nonzero;stroke:none"
         x="0"
         y="0"
         id="tspan16">[</tspan></text>
    <text
       id="text17"
       xml:space="preserve"
       transform="matrix(0.95754674,0,0,0.95754674,2.8726402,187.67916)"
       clip-path="url(#clipPath18)"><tspan
         style="font-variant:normal;font-weight:normal;font-size:16px;font-family:Helvetica;writing-mode:lr-tb;fill:#000000;fill-opacity:1;fill-rule:nonzero;stroke:none"
         x="0 4.4453125 8.890625 14.570312 23.46875 32.367188 36.8125 45.710938 54.609375 59.054688 67.953125 76.851562 85.75 94.648438 99.09375 112.42188 121.32031 130.21875 134.66406 146.21875 155.11719 158.67188 163.11719 172.01562 180.91406 185.35938 194.25781 203.15625 206.71094 214.71094 223.60938 231.60938 236.05469 244.95312 249.40625 253.85156 262.75 267.19531 276.09375 280.53906 292.09375 296.53906 306.33594 310.78125 324.10938 333.00781 338.33594 343.66406 347.21875 356.11719 365.01562 370.34375 376.02344"
         y="0"
         sodipodi:role="line"
         id="tspan17">  &quot;10/08/2018,Man United,Leicester,2,1,H,A Marriner&quot;,</tspan></text>
    <text
       id="text18"
       xml:space="preserve"
       transform="matrix(0.95754674,0,0,0.95754674,2.8726402,206.8301)"
       clip-path="url(#clipPath19)"><tspan
         style="font-variant:normal;font-weight:normal;font-size:16px;font-family:Helvetica;writing-mode:lr-tb;fill:#000000;fill-opacity:1;fill-rule:nonzero;stroke:none"
         x="0 4.4453125 8.890625 14.570312 22.289062 31.1875 35.632812 44.53125 53.429688 57.875 66.773438 75.671875 84.570312 93.46875 97.914062 108.58594 117.48438 126.38281 131.71094 140.60938 149.50781 162.83594 171.73438 180.63281 185.07812 193.97656 198.42188 209.97656 218.875 224.20312 233.10156 236.65625 240.82031 245.26562 249.71094 258.60938 263.05469 271.95312 276.39844 287.95312 292.39844 303.07031 307.51562 317.28906 322.61719 326.17188 335.07031 343.96875 352.86719"
         y="0"
         sodipodi:role="line"
         id="tspan18">  &quot;11/08/2018,Bournemouth,Cardiff,2,0,H,K Friend&quot;</tspan></text>
    <text
       id="text19"
       xml:space="preserve"
       transform="matrix(0.95754674,0,0,0.95754674,2.8726402,225.02348)"
       clip-path="url(#clipPath20)"><tspan
         style="font-variant:normal;font-weight:normal;font-size:16px;font-family:Helvetica;writing-mode:lr-tb;fill:#000000;fill-opacity:1;fill-rule:nonzero;stroke:none"
         x="0"
         y="0"
         id="tspan19">]</tspan></text>
    <path
       id="path21"
       d="m 1,316 h 510.01001 v 90 H 1 Z"
       style="fill:#ffffff;fill-opacity:1;fill-rule:nonzero;stroke:#000000;stroke-width:1;stroke-linecap:butt;stroke-linejoin:miter;stroke-miterlimit:10;stroke-dasharray:none;stroke-opacity:1"
       transform="matrix(0.95753711,0,0,0.95753711,0.47876856,0.47876856)"
       clip-path="url(#clipPath22)" />
    <text
       id="text22"
       xml:space="preserve"
       transform="matrix(0.95754674,0,0,0.95754674,2.8726402,322.69325)"
       clip-path="url(#clipPath23)"><tspan
         style="font-variant:normal;font-weight:normal;font-size:16px;font-family:Helvetica;writing-mode:lr-tb;fill:#000000;fill-opacity:1;fill-rule:nonzero;stroke:none"
         x="0"
         y="0"
         id="tspan22">[</tspan></text>
    <text
       id="text23"
       xml:space="preserve"
       transform="matrix(0.95754674,0,0,0.95754674,2.8726402,340.88664)"
       clip-path="url(#clipPath24)"><tspan
         style="font-variant:normal;font-weight:normal;font-size:16px;font-family:Helvetica;writing-mode:lr-tb;fill:#000000;fill-opacity:1;fill-rule:nonzero;stroke:none"
         x="0 4.4453125 8.890625 13.335938 19.015625 27.914062 36.8125 41.257812 50.15625 59.054688 63.5 72.398438 81.296875 90.195312 99.09375 104.77344 109.21875 113.66406 119.34375 132.67188 141.57031 150.46875 154.91406 166.46875 175.36719 178.92188 183.36719 192.26562 201.16406 206.84375 211.28906 215.73438 221.41406 230.3125 239.21094 242.76562 250.76562 259.66406 267.66406 272.10938 281.00781 286.33594 292.01562 296.46094 300.90625 306.58594 315.48438 321.16406 325.60938 330.05469 335.73438 344.63281 350.3125 354.75781 359.20312 364.88281 376.4375 382.11719 386.5625 391.00781 396.6875 406.48438 410.92969 424.25781 433.15625 438.48438 443.8125 447.36719 456.26562 465.16406 470.49219 476.17188 480.61719"
         y="0"
         sodipodi:role="line"
         id="tspan23">  [&quot;10/08/2018&quot;, &quot;Man United&quot;, &quot;Leicester&quot;, &quot;2&quot;, &quot;1&quot;, &quot;H&quot;, &quot;A Marriner&quot;],</tspan></text>
    <text
       id="text24"
       xml:space="preserve"
       transform="matrix(0.95754674,0,0,0.95754674,2.8726402,360.03758)"
       clip-path="url(#clipPath25)"><tspan
         style="font-variant:normal;font-weight:normal;font-size:16px;font-family:Helvetica;writing-mode:lr-tb;fill:#000000;fill-opacity:1;fill-rule:nonzero;stroke:none"
         x="0 4.4453125 8.890625 13.335938 19.015625 26.734375 35.632812 40.078125 48.976562 57.875 62.320312 71.21875 80.117188 89.015625 97.914062 103.59375 108.03906 112.48438 118.16406 128.83594 137.73438 146.63281 151.96094 160.85938 169.75781 183.08594 191.98438 200.88281 205.32812 214.22656 219.90625 224.35156 228.79688 234.47656 246.03125 254.92969 260.25781 269.15625 272.71094 276.875 281.32031 287 291.44531 295.89062 301.57031 310.46875 316.14844 320.59375 325.03906 330.71875 339.61719 345.29688 349.74219 354.1875 359.86719 371.42188 377.10156 381.54688 385.99219 391.67188 402.34375 406.78906 416.5625 421.89062 425.44531 434.34375 443.24219 452.14062 457.82031"
         y="0"
         sodipodi:role="line"
         id="tspan24">  [&quot;11/08/2018&quot;, &quot;Bournemouth&quot;, &quot;Cardiff&quot;, &quot;2&quot;, &quot;0&quot;, &quot;H&quot;, &quot;K Friend&quot;]</tspan></text>
    <text
       id="text25"
       xml:space="preserve"
       transform="matrix(0.95754674,0,0,0.95754674,2.8726402,378.23096)"
       clip-path="url(#clipPath26)"><tspan
         style="font-variant:normal;font-weight:normal;font-size:16px;font-family:Helvetica;writing-mode:lr-tb;fill:#000000;fill-opacity:1;fill-rule:nonzero;stroke:none"
         x="0"
         y="0"
         id="tspan25">]</tspan></text>
    <text
       id="text26"
       xml:space="preserve"
       transform="matrix(0.95754674,0,0,0.95754674,496.00921,51.707524)"
       clip-path="url(#clipPath27)"><tspan
         style="font-variant:normal;font-weight:700;font-size:23px;font-family:Helvetica;writing-mode:lr-tb;fill:#000000;fill-opacity:1;fill-rule:nonzero;stroke:none"
         x="0 12.791504 20.450684 29.401367 35.791504 49.84082"
         y="0"
         sodipodi:role="line"
         id="tspan26">string</tspan></text>
    <text
       id="text27"
       xml:space="preserve"
       transform="matrix(0.95754674,0,0,0.95754674,496.00921,200.12727)"
       clip-path="url(#clipPath28)"><tspan
         style="font-variant:normal;font-weight:700;font-size:23px;font-family:Helvetica;writing-mode:lr-tb;fill:#000000;fill-opacity:1;fill-rule:nonzero;stroke:none"
         x="0 12.791504 20.450684 29.401367 35.791504 49.84082 63.890137 71.549316"
         y="0"
         sodipodi:role="line"
         id="tspan27">string[]</tspan></text>
    <text
       id="text28"
       xml:space="preserve"
       transform="matrix(0.95754674,0,0,0.95754674,500.79695,353.33475)"
       clip-path="url(#clipPath29)"><tspan
         style="font-variant:normal;font-weight:700;font-size:23px;font-family:Helvetica;writing-mode:lr-tb;fill:#000000;fill-opacity:1;fill-rule:nonzero;stroke:none"
         x="0 12.791504 20.450684 29.401367 35.791504 49.84082 63.890137 71.549316 79.208496 86.867676"
         y="0"
         sodipodi:role="line"
         id="tspan28">string[][]</tspan></text>
    <path
       id="path30"
       d="m 266,108.5 h 100 v 30 H 266 Z"
       style="fill:#dae8fc;fill-opacity:1;fill-rule:nonzero;stroke:#6c8ebf;stroke-width:1;stroke-linecap:butt;stroke-linejoin:miter;stroke-miterlimit:10;stroke-dasharray:none;stroke-opacity:1"
       transform="matrix(0.95753711,0,0,0.95753711,0.47876856,0.47876856)"
       clip-path="url(#clipPath31)" />
    <text
       id="text31"
       xml:space="preserve"
       transform="matrix(0.95754674,0,0,0.95754674,272.40709,123.52353)"
       clip-path="url(#clipPath32)"><tspan
         style="font-variant:normal;font-weight:normal;font-size:16px;font-family:Helvetica;writing-mode:lr-tb;fill:#000000;fill-opacity:1;fill-rule:nonzero;stroke:none"
         x="0 4.4453125 12.445312 21.34375 24.898438 28.453125 32.898438 38.226562 41.28125 45.726562 54.625 57.679688"
         y="0"
         sodipodi:role="line"
         id="tspan31">.split('\n')</tspan></text>
    <path
       id="path33"
       d="m 266,266 h 100 v 30 H 266 Z"
       style="fill:#dae8fc;fill-opacity:1;fill-rule:nonzero;stroke:#6c8ebf;stroke-width:1;stroke-linecap:butt;stroke-linejoin:miter;stroke-miterlimit:10;stroke-dasharray:none;stroke-opacity:1"
       transform="matrix(0.95753711,0,0,0.95753711,0.47876856,0.47876856)"
       clip-path="url(#clipPath34)" />
    <text
       id="text34"
       xml:space="preserve"
       transform="matrix(0.95754674,0,0,0.95754674,265.33022,273.85837)"
       clip-path="url(#clipPath35)"><tspan
         style="font-variant:normal;font-weight:normal;font-size:16px;font-family:Helvetica;writing-mode:lr-tb;fill:#000000;fill-opacity:1;fill-rule:nonzero;stroke:none"
         x="0 13.328125 22.226562 31.125 35.570312 44.914062 49.359375 57.359375 66.257812 69.8125 73.367188"
         y="0"
         sodipodi:role="line"
         id="tspan34">map + split</tspan></text>
  </g>
</svg>
