<?xml version="1.0" encoding="UTF-8" standalone="no"?>
<!-- Created with Inkscape (http://www.inkscape.org/) -->

<svg
   version="1.1"
   id="svg1"
   width="808"
   height="129.28"
   viewBox="0 0 808 129.28"
   sodipodi:docname="ts-9.pdf"
   xmlns:inkscape="http://www.inkscape.org/namespaces/inkscape"
   xmlns:sodipodi="http://sodipodi.sourceforge.net/DTD/sodipodi-0.dtd"
   xmlns="http://www.w3.org/2000/svg"
   xmlns:svg="http://www.w3.org/2000/svg">
  <defs
     id="defs1">
    <clipPath
       clipPathUnits="userSpaceOnUse"
       id="clipPath2">
      <path
         d="M 0,0 H 2525 V 403.88034 H 0 Z"
         transform="scale(0.33425743)"
         clip-rule="evenodd"
         id="path2" />
    </clipPath>
    <clipPath
       clipPathUnits="userSpaceOnUse"
       id="clipPath4">
      <path
         d="M 0,0 H 2525 V 400.88861 H 0 Z"
         transform="matrix(0.33425743,0,0,0.33425743,-0.50000001,-0.50000001)"
         clip-rule="evenodd"
         id="path4" />
    </clipPath>
    <clipPath
       clipPathUnits="userSpaceOnUse"
       id="clipPath5">
      <path
         d="M 0,0 H 2525 V 400.88861 H 0 Z"
         transform="matrix(0.33425407,0,0,0.33425407,-15.921875,-38.000001)"
         clip-rule="evenodd"
         id="path5" />
    </clipPath>
    <clipPath
       clipPathUnits="userSpaceOnUse"
       id="clipPath6">
      <path
         d="M 0,0 H 2525 V 400.88861 H 0 Z"
         transform="matrix(0.33425407,0,0,0.33425407,-35.953126,-38.000001)"
         clip-rule="evenodd"
         id="path6" />
    </clipPath>
    <clipPath
       clipPathUnits="userSpaceOnUse"
       id="clipPath7">
      <path
         d="M 0,0 H 2525 V 400.88861 H 0 Z"
         transform="matrix(0.33425407,0,0,0.33425407,-40.96875,-38.000001)"
         clip-rule="evenodd"
         id="path7" />
    </clipPath>
    <clipPath
       clipPathUnits="userSpaceOnUse"
       id="clipPath8">
      <path
         d="M 0,0 H 2525 V 400.88861 H 0 Z"
         transform="matrix(0.33425407,0,0,0.33425407,-61,-38.000001)"
         clip-rule="evenodd"
         id="path8" />
    </clipPath>
    <clipPath
       clipPathUnits="userSpaceOnUse"
       id="clipPath9">
      <path
         d="M 0,0 H 2525 V 400.88861 H 0 Z"
         transform="matrix(0.33425407,0,0,0.33425407,-66.015626,-38.000001)"
         clip-rule="evenodd"
         id="path9" />
    </clipPath>
    <clipPath
       clipPathUnits="userSpaceOnUse"
       id="clipPath11">
      <path
         d="M 0,0 H 2525 V 400.88861 H 0 Z"
         transform="matrix(0.33425743,0,0,0.33425743,-0.50000001,-0.50000001)"
         clip-rule="evenodd"
         id="path11" />
    </clipPath>
    <clipPath
       clipPathUnits="userSpaceOnUse"
       id="clipPath12">
      <path
         d="M 0,0 H 2525 V 400.88861 H 0 Z"
         transform="matrix(0.33425407,0,0,0.33425407,-134.96875,-38.000001)"
         clip-rule="evenodd"
         id="path12" />
    </clipPath>
    <clipPath
       clipPathUnits="userSpaceOnUse"
       id="clipPath13">
      <path
         d="M 0,0 H 2525 V 400.88861 H 0 Z"
         transform="matrix(0.33425407,0,0,0.33425407,-174.98536,-38.000001)"
         clip-rule="evenodd"
         id="path13" />
    </clipPath>
    <clipPath
       clipPathUnits="userSpaceOnUse"
       id="clipPath15">
      <path
         d="M 0,0 H 2525 V 400.88861 H 0 Z"
         transform="matrix(0.33425743,0,0,0.33425743,-0.50000001,-0.50000001)"
         clip-rule="evenodd"
         id="path15" />
    </clipPath>
    <clipPath
       clipPathUnits="userSpaceOnUse"
       id="clipPath16">
      <path
         d="M 0,0 H 2525 V 400.88861 H 0 Z"
         transform="matrix(0.33425407,0,0,0.33425407,-264.46875,-38.000001)"
         clip-rule="evenodd"
         id="path16" />
    </clipPath>
    <clipPath
       clipPathUnits="userSpaceOnUse"
       id="clipPath18">
      <path
         d="M 0,0 H 2525 V 400.88861 H 0 Z"
         transform="matrix(0.33425743,0,0,0.33425743,-0.50000001,-0.50000001)"
         clip-rule="evenodd"
         id="path18" />
    </clipPath>
    <clipPath
       clipPathUnits="userSpaceOnUse"
       id="clipPath19">
      <path
         d="M 0,0 H 2525 V 400.88861 H 0 Z"
         transform="matrix(0.33425407,0,0,0.33425407,-415.98438,-38.000001)"
         clip-rule="evenodd"
         id="path19" />
    </clipPath>
    <clipPath
       clipPathUnits="userSpaceOnUse"
       id="clipPath21">
      <path
         d="M 0,0 H 2525 V 400.88861 H 0 Z"
         transform="matrix(0.33425743,0,0,0.33425743,-0.50000001,-0.50000001)"
         clip-rule="evenodd"
         id="path21" />
    </clipPath>
    <clipPath
       clipPathUnits="userSpaceOnUse"
       id="clipPath22">
      <path
         d="M 0,0 H 2525 V 400.88861 H 0 Z"
         transform="matrix(0.33425407,0,0,0.33425407,-535.98438,-38.000001)"
         clip-rule="evenodd"
         id="path22" />
    </clipPath>
    <clipPath
       clipPathUnits="userSpaceOnUse"
       id="clipPath24">
      <path
         d="M 0,0 H 2525 V 400.88861 H 0 Z"
         transform="matrix(0.33425743,0,0,0.33425743,-0.50000001,-0.50000001)"
         clip-rule="evenodd"
         id="path24" />
    </clipPath>
    <clipPath
       clipPathUnits="userSpaceOnUse"
       id="clipPath25">
      <path
         d="M 0,0 H 2525 V 400.88861 H 0 Z"
         transform="matrix(0.33425407,0,0,0.33425407,-654.5,-38.000001)"
         clip-rule="evenodd"
         id="path25" />
    </clipPath>
    <clipPath
       clipPathUnits="userSpaceOnUse"
       id="clipPath27">
      <path
         d="M 0,0 H 2525 V 400.88861 H 0 Z"
         transform="matrix(0.33425743,0,0,0.33425743,-0.50000001,-0.50000001)"
         clip-rule="evenodd"
         id="path27" />
    </clipPath>
    <clipPath
       clipPathUnits="userSpaceOnUse"
       id="clipPath28">
      <path
         d="M 0,0 H 2525 V 400.88861 H 0 Z"
         transform="matrix(0.33425407,0,0,0.33425407,-739.46876,-38.000001)"
         clip-rule="evenodd"
         id="path28" />
    </clipPath>
    <clipPath
       clipPathUnits="userSpaceOnUse"
       id="clipPath29">
      <path
         d="M 0,0 H 2525 V 400.88861 H 0 Z"
         transform="matrix(0.33425407,0,0,0.33425407,-755.49317,-38.000001)"
         clip-rule="evenodd"
         id="path29" />
    </clipPath>
    <clipPath
       clipPathUnits="userSpaceOnUse"
       id="clipPath31">
      <path
         d="M 0,0 H 2525 V 400.88861 H 0 Z"
         transform="matrix(0,0.33425743,-0.33425743,0,142.5,19.5)"
         clip-rule="evenodd"
         id="path31" />
    </clipPath>
    <clipPath
       clipPathUnits="userSpaceOnUse"
       id="clipPath33">
      <path
         d="M 0,0 H 2525 V 400.88861 H 0 Z"
         transform="matrix(0,0.33425743,-0.33425743,0,262.50001,-100.5)"
         clip-rule="evenodd"
         id="path33" />
    </clipPath>
    <clipPath
       clipPathUnits="userSpaceOnUse"
       id="clipPath35">
      <path
         d="M 0,0 H 2525 V 400.88861 H 0 Z"
         transform="matrix(0,0.33425743,-0.33425743,0,382.50002,-220.50001)"
         clip-rule="evenodd"
         id="path35" />
    </clipPath>
    <clipPath
       clipPathUnits="userSpaceOnUse"
       id="clipPath37">
      <path
         d="M 0,0 H 2525 V 400.88861 H 0 Z"
         transform="matrix(0,0.33425743,-0.33425743,0,502.49999,-340.50001)"
         clip-rule="evenodd"
         id="path37" />
    </clipPath>
    <clipPath
       clipPathUnits="userSpaceOnUse"
       id="clipPath39">
      <path
         d="M 0,0 H 2525 V 400.88861 H 0 Z"
         transform="matrix(0,0.33425743,-0.33425743,0,622.51005,-460.50999)"
         clip-rule="evenodd"
         id="path39" />
    </clipPath>
    <clipPath
       clipPathUnits="userSpaceOnUse"
       id="clipPath41">
      <path
         d="M 0,0 H 2525 V 400.88861 H 0 Z"
         transform="matrix(0,0.33425743,-0.33425743,0,742.51004,-580.51)"
         clip-rule="evenodd"
         id="path41" />
    </clipPath>
    <clipPath
       clipPathUnits="userSpaceOnUse"
       id="clipPath43">
      <path
         d="M 0,0 H 2525 V 400.88861 H 0 Z"
         transform="matrix(0,0.33425743,-0.33425743,0,862.51003,-700.50999)"
         clip-rule="evenodd"
         id="path43" />
    </clipPath>
    <clipPath
       clipPathUnits="userSpaceOnUse"
       id="clipPath45">
      <path
         d="M 0,0 H 2525 V 400.88861 H 0 Z"
         transform="matrix(0.33425743,0,0,0.33425743,-0.50000001,-0.50000001)"
         clip-rule="evenodd"
         id="path45" />
    </clipPath>
    <clipPath
       clipPathUnits="userSpaceOnUse"
       id="clipPath46">
      <path
         d="M 0,0 H 2525 V 400.88861 H 0 Z"
         transform="matrix(0.33425407,0,0,0.33425407,-55.984375,-123)"
         clip-rule="evenodd"
         id="path46" />
    </clipPath>
    <clipPath
       clipPathUnits="userSpaceOnUse"
       id="clipPath48">
      <path
         d="M 0,0 H 2525 V 400.88861 H 0 Z"
         transform="matrix(0.33425743,0,0,0.33425743,-0.50000001,-0.50000001)"
         clip-rule="evenodd"
         id="path48" />
    </clipPath>
    <clipPath
       clipPathUnits="userSpaceOnUse"
       id="clipPath49">
      <path
         d="M 0,0 H 2525 V 400.88861 H 0 Z"
         transform="matrix(0.33425407,0,0,0.33425407,-175.98438,-123)"
         clip-rule="evenodd"
         id="path49" />
    </clipPath>
    <clipPath
       clipPathUnits="userSpaceOnUse"
       id="clipPath51">
      <path
         d="M 0,0 H 2525 V 400.88861 H 0 Z"
         transform="matrix(0.33425743,0,0,0.33425743,-0.50000001,-0.50000001)"
         clip-rule="evenodd"
         id="path51" />
    </clipPath>
    <clipPath
       clipPathUnits="userSpaceOnUse"
       id="clipPath52">
      <path
         d="M 0,0 H 2525 V 400.88861 H 0 Z"
         transform="matrix(0.33425407,0,0,0.33425407,-295.98438,-123)"
         clip-rule="evenodd"
         id="path52" />
    </clipPath>
    <clipPath
       clipPathUnits="userSpaceOnUse"
       id="clipPath54">
      <path
         d="M 0,0 H 2525 V 400.88861 H 0 Z"
         transform="matrix(0.33425743,0,0,0.33425743,-0.50000001,-0.50000001)"
         clip-rule="evenodd"
         id="path54" />
    </clipPath>
    <clipPath
       clipPathUnits="userSpaceOnUse"
       id="clipPath55">
      <path
         d="M 0,0 H 2525 V 400.88861 H 0 Z"
         transform="matrix(0.33425407,0,0,0.33425407,-656.54689,-121)"
         clip-rule="evenodd"
         id="path55" />
    </clipPath>
    <clipPath
       clipPathUnits="userSpaceOnUse"
       id="clipPath57">
      <path
         d="M 0,0 H 2525 V 400.88861 H 0 Z"
         transform="matrix(0.33425743,0,0,0.33425743,-0.50000001,-0.50000001)"
         clip-rule="evenodd"
         id="path57" />
    </clipPath>
    <clipPath
       clipPathUnits="userSpaceOnUse"
       id="clipPath58">
      <path
         d="M 0,0 H 2525 V 400.88861 H 0 Z"
         transform="matrix(0.33425407,0,0,0.33425407,-775.98439,-123)"
         clip-rule="evenodd"
         id="path58" />
    </clipPath>
    <clipPath
       clipPathUnits="userSpaceOnUse"
       id="clipPath60">
      <path
         d="M 0,0 H 2525 V 400.88861 H 0 Z"
         transform="matrix(0.33425743,0,0,0.33425743,-0.50000001,-0.50000001)"
         clip-rule="evenodd"
         id="path60" />
    </clipPath>
    <clipPath
       clipPathUnits="userSpaceOnUse"
       id="clipPath61">
      <path
         d="M 0,0 H 2525 V 400.88861 H 0 Z"
         transform="matrix(0.33425407,0,0,0.33425407,-415.98438,-123)"
         clip-rule="evenodd"
         id="path61" />
    </clipPath>
    <clipPath
       clipPathUnits="userSpaceOnUse"
       id="clipPath63">
      <path
         d="M 0,0 H 2525 V 400.88861 H 0 Z"
         transform="matrix(0.33425743,0,0,0.33425743,-0.50000001,-0.50000001)"
         clip-rule="evenodd"
         id="path63" />
    </clipPath>
    <clipPath
       clipPathUnits="userSpaceOnUse"
       id="clipPath64">
      <path
         d="M 0,0 H 2525 V 400.88861 H 0 Z"
         transform="matrix(0.33425407,0,0,0.33425407,-535.98438,-123)"
         clip-rule="evenodd"
         id="path64" />
    </clipPath>
  </defs>
  <sodipodi:namedview
     id="namedview1"
     pagecolor="#ffffff"
     bordercolor="#000000"
     borderopacity="0.25"
     inkscape:showpageshadow="2"
     inkscape:pageopacity="0.0"
     inkscape:pagecheckerboard="0"
     inkscape:deskcolor="#d1d1d1">
    <inkscape:page
       x="0"
       y="0"
       inkscape:label="1"
       id="page1"
       width="808"
       height="129.28"
       margin="0"
       bleed="0" />
  </sodipodi:namedview>
  <g
     id="g1"
     inkscape:groupmode="layer"
     inkscape:label="1">
    <path
       id="path1"
       d="M 0,0 H 844 V 135 H 0 Z"
       style="fill:#ffffff;fill-opacity:1;fill-rule:nonzero;stroke:none"
       transform="scale(0.95734591)"
       clip-path="url(#clipPath2)" />
    <path
       id="path3"
       d="M 1,1 H 121 V 61 H 1 Z"
       style="fill:#ffffff;fill-opacity:1;fill-rule:nonzero;stroke:#000000;stroke-width:1;stroke-linecap:butt;stroke-linejoin:miter;stroke-miterlimit:10;stroke-dasharray:none;stroke-opacity:1"
       transform="matrix(0.95734591,0,0,0.95734591,0.47867296,0.47867296)"
       clip-path="url(#clipPath4)" />
    <text
       id="text4"
       xml:space="preserve"
       transform="matrix(0.95735554,0,0,0.95735554,15.242895,36.379511)"
       clip-path="url(#clipPath5)"><tspan
         style="font-variant:normal;font-weight:normal;font-size:18px;font-family:Helvetica;writing-mode:lr-tb;fill:#000000;fill-opacity:1;fill-rule:nonzero;stroke:none"
         x="0 10.010742"
         y="0"
         sodipodi:role="line"
         id="tspan4">10</tspan></text>
    <text
       id="text5"
       xml:space="preserve"
       transform="matrix(0.95735554,0,0,0.95735554,34.419924,36.379511)"
       clip-path="url(#clipPath6)"><tspan
         style="font-variant:normal;font-weight:normal;font-size:18px;font-family:Helvetica;writing-mode:lr-tb;fill:#000000;fill-opacity:1;fill-rule:nonzero;stroke:none"
         x="0"
         y="0"
         id="tspan5">/</tspan></text>
    <text
       id="text6"
       xml:space="preserve"
       transform="matrix(0.95735554,0,0,0.95735554,39.22166,36.379511)"
       clip-path="url(#clipPath7)"><tspan
         style="font-variant:normal;font-weight:normal;font-size:18px;font-family:Helvetica;writing-mode:lr-tb;fill:#000000;fill-opacity:1;fill-rule:nonzero;stroke:none"
         x="0 10.010742"
         y="0"
         sodipodi:role="line"
         id="tspan6">08</tspan></text>
    <text
       id="text7"
       xml:space="preserve"
       transform="matrix(0.95735554,0,0,0.95735554,58.398688,36.379511)"
       clip-path="url(#clipPath8)"><tspan
         style="font-variant:normal;font-weight:normal;font-size:18px;font-family:Helvetica;writing-mode:lr-tb;fill:#000000;fill-opacity:1;fill-rule:nonzero;stroke:none"
         x="0"
         y="0"
         id="tspan7">/</tspan></text>
    <text
       id="text8"
       xml:space="preserve"
       transform="matrix(0.95735554,0,0,0.95735554,63.200425,36.379511)"
       clip-path="url(#clipPath9)"><tspan
         style="font-variant:normal;font-weight:normal;font-size:18px;font-family:Helvetica;writing-mode:lr-tb;fill:#000000;fill-opacity:1;fill-rule:nonzero;stroke:none"
         x="0 10.010742 20.021484 30.032227"
         y="0"
         sodipodi:role="line"
         id="tspan8">2018</tspan></text>
    <path
       id="path10"
       d="M 121,1 H 241 V 61 H 121 Z"
       style="fill:#ffffff;fill-opacity:1;fill-rule:nonzero;stroke:#000000;stroke-width:1;stroke-linecap:butt;stroke-linejoin:miter;stroke-miterlimit:10;stroke-dasharray:none;stroke-opacity:1"
       transform="matrix(0.95734591,0,0,0.95734591,0.47867296,0.47867296)"
       clip-path="url(#clipPath11)" />
    <text
       id="text11"
       xml:space="preserve"
       transform="matrix(0.95735554,0,0,0.95735554,129.21308,36.379511)"
       clip-path="url(#clipPath12)"><tspan
         style="font-variant:normal;font-weight:normal;font-size:18px;font-family:Helvetica;writing-mode:lr-tb;fill:#000000;fill-opacity:1;fill-rule:nonzero;stroke:none"
         x="0 14.994141 25.004883"
         y="0"
         sodipodi:role="line"
         id="tspan11">Man</tspan></text>
    <text
       id="text12"
       xml:space="preserve"
       transform="matrix(0.95735554,0,0,0.95735554,167.5232,36.379511)"
       clip-path="url(#clipPath13)"><tspan
         style="font-variant:normal;font-weight:normal;font-size:18px;font-family:Helvetica;writing-mode:lr-tb;fill:#000000;fill-opacity:1;fill-rule:nonzero;stroke:none"
         x="0 12.999023 23.009766 27.008789 32.009766 42.020508"
         y="0"
         sodipodi:role="line"
         id="tspan12">United</tspan></text>
    <path
       id="path14"
       d="M 241,1 H 361 V 61 H 241 Z"
       style="fill:#ffffff;fill-opacity:1;fill-rule:nonzero;stroke:#000000;stroke-width:1;stroke-linecap:butt;stroke-linejoin:miter;stroke-miterlimit:10;stroke-dasharray:none;stroke-opacity:1"
       transform="matrix(0.95734591,0,0,0.95734591,0.47867296,0.47867296)"
       clip-path="url(#clipPath15)" />
    <text
       id="text15"
       xml:space="preserve"
       transform="matrix(0.95735554,0,0,0.95735554,253.19062,36.379511)"
       clip-path="url(#clipPath16)"><tspan
         style="font-variant:normal;font-weight:normal;font-size:18px;font-family:Helvetica;writing-mode:lr-tb;fill:#000000;fill-opacity:1;fill-rule:nonzero;stroke:none"
         x="0 10.010742 20.021484 24.020508 33.020508 43.03125 52.03125 57.032227 67.042969"
         y="0"
         sodipodi:role="line"
         id="tspan15">Leicester</tspan></text>
    <path
       id="path17"
       d="M 361,1 H 481 V 61 H 361 Z"
       style="fill:#ffffff;fill-opacity:1;fill-rule:nonzero;stroke:#000000;stroke-width:1;stroke-linecap:butt;stroke-linejoin:miter;stroke-miterlimit:10;stroke-dasharray:none;stroke-opacity:1"
       transform="matrix(0.95734591,0,0,0.95734591,0.47867296,0.47867296)"
       clip-path="url(#clipPath18)" />
    <text
       id="text18"
       xml:space="preserve"
       transform="matrix(0.95735554,0,0,0.95735554,398.24495,36.379511)"
       clip-path="url(#clipPath19)"><tspan
         style="font-variant:normal;font-weight:normal;font-size:18px;font-family:Helvetica;writing-mode:lr-tb;fill:#000000;fill-opacity:1;fill-rule:nonzero;stroke:none"
         x="0"
         y="0"
         id="tspan18">2</tspan></text>
    <path
       id="path20"
       d="M 481,1 H 601 V 61 H 481 Z"
       style="fill:#ffffff;fill-opacity:1;fill-rule:nonzero;stroke:#000000;stroke-width:1;stroke-linecap:butt;stroke-linejoin:miter;stroke-miterlimit:10;stroke-dasharray:none;stroke-opacity:1"
       transform="matrix(0.95734591,0,0,0.95734591,0.47867296,0.47867296)"
       clip-path="url(#clipPath21)" />
    <text
       id="text21"
       xml:space="preserve"
       transform="matrix(0.95735554,0,0,0.95735554,513.12762,36.379511)"
       clip-path="url(#clipPath22)"><tspan
         style="font-variant:normal;font-weight:normal;font-size:18px;font-family:Helvetica;writing-mode:lr-tb;fill:#000000;fill-opacity:1;fill-rule:nonzero;stroke:none"
         x="0"
         y="0"
         id="tspan21">1</tspan></text>
    <path
       id="path23"
       d="m 601.01001,1 h 120 v 60 h -120 z"
       style="fill:#ffffff;fill-opacity:1;fill-rule:nonzero;stroke:#000000;stroke-width:1;stroke-linecap:butt;stroke-linejoin:miter;stroke-miterlimit:10;stroke-dasharray:none;stroke-opacity:1"
       transform="matrix(0.95734591,0,0,0.95734591,0.47867296,0.47867296)"
       clip-path="url(#clipPath24)" />
    <text
       id="text24"
       xml:space="preserve"
       transform="matrix(0.95735554,0,0,0.95735554,626.5892,36.379511)"
       clip-path="url(#clipPath25)"><tspan
         style="font-variant:normal;font-weight:normal;font-size:18px;font-family:Helvetica;writing-mode:lr-tb;fill:#000000;fill-opacity:1;fill-rule:nonzero;stroke:none"
         x="0"
         y="0"
         id="tspan24">H</tspan></text>
    <path
       id="path26"
       d="m 721.01001,1 h 120 v 60 h -120 z"
       style="fill:#ffffff;fill-opacity:1;fill-rule:nonzero;stroke:#000000;stroke-width:1;stroke-linecap:butt;stroke-linejoin:miter;stroke-miterlimit:10;stroke-dasharray:none;stroke-opacity:1"
       transform="matrix(0.95734591,0,0,0.95734591,0.47867296,0.47867296)"
       clip-path="url(#clipPath27)" />
    <text
       id="text27"
       xml:space="preserve"
       transform="matrix(0.95735554,0,0,0.95735554,707.93451,36.379511)"
       clip-path="url(#clipPath28)"><tspan
         style="font-variant:normal;font-weight:normal;font-size:18px;font-family:Helvetica;writing-mode:lr-tb;fill:#000000;fill-opacity:1;fill-rule:nonzero;stroke:none"
         x="0"
         y="0"
         id="tspan27">A</tspan></text>
    <text
       id="text28"
       xml:space="preserve"
       transform="matrix(0.95735554,0,0,0.95735554,723.27557,36.379511)"
       clip-path="url(#clipPath29)"><tspan
         style="font-variant:normal;font-weight:normal;font-size:18px;font-family:Helvetica;writing-mode:lr-tb;fill:#000000;fill-opacity:1;fill-rule:nonzero;stroke:none"
         x="0 14.994141 25.004883 30.999023 36.993164 40.992188 51.00293 61.013672"
         y="0"
         sodipodi:role="line"
         id="tspan28">Marriner</tspan></text>
    <path
       id="path30"
       d="m 71,21 h -5 c -3.333332,0 -5,3.333332 -5,10 v 40 c 0,6.666664 -1.666668,10 -5,10 h -2.5 c -1.666668,0 -0.833332,0 2.5,0 h 2.5 c 1.666668,0 2.5,3.333336 2.5,10 v 40 c 0,6.66667 1.666668,10 5,10 h 5"
       style="fill:none;stroke:#000000;stroke-width:1;stroke-linecap:butt;stroke-linejoin:miter;stroke-miterlimit:10;stroke-dasharray:none;stroke-opacity:1"
       transform="matrix(0,-0.95734591,0.95734591,0,-18.668245,136.42179)"
       clip-path="url(#clipPath31)" />
    <path
       id="path32"
       d="m 191,21 h -5 c -3.33333,0 -5,3.333332 -5,10 v 40 c 0,6.666664 -1.66667,10 -5,10 h -2.5 c -1.66667,0 -0.83333,0 2.5,0 h 2.5 c 1.66667,0 2.5,3.333336 2.5,10 v 40 c 0,6.66667 1.66667,10 5,10 h 5"
       style="fill:none;stroke:#000000;stroke-width:1;stroke-linecap:butt;stroke-linejoin:miter;stroke-miterlimit:10;stroke-dasharray:none;stroke-opacity:1"
       transform="matrix(0,-0.95734591,0.95734591,0,96.213266,251.30331)"
       clip-path="url(#clipPath33)" />
    <path
       id="path34"
       d="m 311,21 h -5 c -3.33334,0 -5,3.333332 -5,10 v 40 c 0,6.666664 -1.66666,10 -5,10 h -2.5 c -1.66666,0 -0.83334,0 2.5,0 h 2.5 c 1.66666,0 2.5,3.333336 2.5,10 v 40 c 0,6.66667 1.66666,10 5,10 h 5"
       style="fill:none;stroke:#000000;stroke-width:1;stroke-linecap:butt;stroke-linejoin:miter;stroke-miterlimit:10;stroke-dasharray:none;stroke-opacity:1"
       transform="matrix(0,-0.95734591,0.95734591,0,211.09478,366.18483)"
       clip-path="url(#clipPath35)" />
    <path
       id="path36"
       d="m 431,21 h -5 c -3.33334,0 -5,3.333332 -5,10 v 40 c 0,6.666664 -1.66666,10 -5,10 h -2.5 c -1.66666,0 -0.83334,0 2.5,0 h 2.5 c 1.66666,0 2.5,3.333336 2.5,10 v 40 c 0,6.66667 1.66666,10 5,10 h 5"
       style="fill:none;stroke:#000000;stroke-width:1;stroke-linecap:butt;stroke-linejoin:miter;stroke-miterlimit:10;stroke-dasharray:none;stroke-opacity:1"
       transform="matrix(0,-0.95734591,0.95734591,0,325.97629,481.06631)"
       clip-path="url(#clipPath37)" />
    <path
       id="path38"
       d="m 551.01001,21 h -5 c -3.33331,0 -5,3.333332 -5,10 v 40 c 0,6.666664 -1.66669,10 -5,10 h -2.5 c -1.66669,0 -0.83331,0 2.5,0 h 2.5 c 1.66669,0 2.5,3.333336 2.5,10 v 40 c 0,6.66667 1.66669,10 5,10 h 5"
       style="fill:none;stroke:#000000;stroke-width:1;stroke-linecap:butt;stroke-linejoin:miter;stroke-miterlimit:10;stroke-dasharray:none;stroke-opacity:1"
       transform="matrix(0,-0.95734591,0.95734591,0,440.86736,595.95745)"
       clip-path="url(#clipPath39)" />
    <path
       id="path40"
       d="m 671.01001,21 h -5 c -3.33331,0 -5,3.333332 -5,10 v 40 c 0,6.666664 -1.66669,10 -5,10 h -2.5 c -1.66669,0 -0.83331,0 2.5,0 h 2.5 c 1.66669,0 2.5,3.333336 2.5,10 v 40 c 0,6.66667 1.66669,10 5,10 h 5"
       style="fill:none;stroke:#000000;stroke-width:1;stroke-linecap:butt;stroke-linejoin:miter;stroke-miterlimit:10;stroke-dasharray:none;stroke-opacity:1"
       transform="matrix(0,-0.95734591,0.95734591,0,555.74887,710.83895)"
       clip-path="url(#clipPath41)" />
    <path
       id="path42"
       d="m 791.01001,21 h -5 c -3.33331,0 -5,3.333332 -5,10 v 40 c 0,6.666664 -1.66669,10 -5,10 h -2.5 c -1.66669,0 -0.83331,0 2.5,0 h 2.5 c 1.66669,0 2.5,3.333336 2.5,10 v 40 c 0,6.66667 1.66669,10 5,10 h 5"
       style="fill:none;stroke:#000000;stroke-width:1;stroke-linecap:butt;stroke-linejoin:miter;stroke-miterlimit:10;stroke-dasharray:none;stroke-opacity:1"
       transform="matrix(0,-0.95734591,0.95734591,0,670.63037,825.72045)"
       clip-path="url(#clipPath43)" />
    <path
       id="path44"
       d="m 11,101 h 100 v 30 H 11 Z"
       style="fill:#dae8fc;fill-opacity:1;fill-rule:nonzero;stroke:#6c8ebf;stroke-width:1;stroke-linecap:butt;stroke-linejoin:miter;stroke-miterlimit:10;stroke-dasharray:none;stroke-opacity:1"
       transform="matrix(0.95734591,0,0,0.95734591,0.47867296,0.47867296)"
       clip-path="url(#clipPath45)" />
    <text
       id="text45"
       xml:space="preserve"
       transform="matrix(0.95735554,0,0,0.95735554,53.596952,117.75473)"
       clip-path="url(#clipPath46)"><tspan
         style="font-variant:normal;font-weight:normal;font-size:18px;font-family:Helvetica;writing-mode:lr-tb;fill:#000000;fill-opacity:1;fill-rule:nonzero;stroke:none"
         x="0"
         y="0"
         id="tspan45">0</tspan></text>
    <path
       id="path47"
       d="m 131,101 h 100 v 30 H 131 Z"
       style="fill:#dae8fc;fill-opacity:1;fill-rule:nonzero;stroke:#6c8ebf;stroke-width:1;stroke-linecap:butt;stroke-linejoin:miter;stroke-miterlimit:10;stroke-dasharray:none;stroke-opacity:1"
       transform="matrix(0.95734591,0,0,0.95734591,0.47867296,0.47867296)"
       clip-path="url(#clipPath48)" />
    <text
       id="text48"
       xml:space="preserve"
       transform="matrix(0.95735554,0,0,0.95735554,168.47962,117.75473)"
       clip-path="url(#clipPath49)"><tspan
         style="font-variant:normal;font-weight:normal;font-size:18px;font-family:Helvetica;writing-mode:lr-tb;fill:#000000;fill-opacity:1;fill-rule:nonzero;stroke:none"
         x="0"
         y="0"
         id="tspan48">1</tspan></text>
    <path
       id="path50"
       d="m 251,101 h 100 v 30 H 251 Z"
       style="fill:#dae8fc;fill-opacity:1;fill-rule:nonzero;stroke:#6c8ebf;stroke-width:1;stroke-linecap:butt;stroke-linejoin:miter;stroke-miterlimit:10;stroke-dasharray:none;stroke-opacity:1"
       transform="matrix(0.95734591,0,0,0.95734591,0.47867296,0.47867296)"
       clip-path="url(#clipPath51)" />
    <text
       id="text51"
       xml:space="preserve"
       transform="matrix(0.95735554,0,0,0.95735554,283.36229,117.75473)"
       clip-path="url(#clipPath52)"><tspan
         style="font-variant:normal;font-weight:normal;font-size:18px;font-family:Helvetica;writing-mode:lr-tb;fill:#000000;fill-opacity:1;fill-rule:nonzero;stroke:none"
         x="0"
         y="0"
         id="tspan51">2</tspan></text>
    <path
       id="path53"
       d="m 611.01001,101 h 100 v 30 h -100 z"
       style="fill:#dae8fc;fill-opacity:1;fill-rule:nonzero;stroke:#6c8ebf;stroke-width:1;stroke-linecap:butt;stroke-linejoin:miter;stroke-miterlimit:10;stroke-dasharray:none;stroke-opacity:1"
       transform="matrix(0.95734591,0,0,0.95734591,0.47867296,0.47867296)"
       clip-path="url(#clipPath54)" />
    <text
       id="text54"
       xml:space="preserve"
       transform="matrix(0.95735554,0,0,0.95735554,628.5488,115.84002)"
       clip-path="url(#clipPath55)"><tspan
         style="font-variant:normal;font-weight:normal;font-size:16px;font-family:Helvetica;writing-mode:lr-tb;fill:#000000;fill-opacity:1;fill-rule:nonzero;stroke:none"
         x="0"
         y="0"
         id="tspan54">5</tspan></text>
    <path
       id="path56"
       d="m 731.01001,101 h 100 v 30 h -100 z"
       style="fill:#dae8fc;fill-opacity:1;fill-rule:nonzero;stroke:#6c8ebf;stroke-width:1;stroke-linecap:butt;stroke-linejoin:miter;stroke-miterlimit:10;stroke-dasharray:none;stroke-opacity:1"
       transform="matrix(0.95734591,0,0,0.95734591,0.47867296,0.47867296)"
       clip-path="url(#clipPath57)" />
    <text
       id="text57"
       xml:space="preserve"
       transform="matrix(0.95735554,0,0,0.95735554,742.89295,117.75473)"
       clip-path="url(#clipPath58)"><tspan
         style="font-variant:normal;font-weight:normal;font-size:18px;font-family:Helvetica;writing-mode:lr-tb;fill:#000000;fill-opacity:1;fill-rule:nonzero;stroke:none"
         x="0"
         y="0"
         id="tspan57">6</tspan></text>
    <path
       id="path59"
       d="m 371,101 h 100 v 30 H 371 Z"
       style="fill:#dae8fc;fill-opacity:1;fill-rule:nonzero;stroke:#6c8ebf;stroke-width:1;stroke-linecap:butt;stroke-linejoin:miter;stroke-miterlimit:10;stroke-dasharray:none;stroke-opacity:1"
       transform="matrix(0.95734591,0,0,0.95734591,0.47867296,0.47867296)"
       clip-path="url(#clipPath60)" />
    <text
       id="text60"
       xml:space="preserve"
       transform="matrix(0.95735554,0,0,0.95735554,398.24495,117.75473)"
       clip-path="url(#clipPath61)"><tspan
         style="font-variant:normal;font-weight:normal;font-size:18px;font-family:Helvetica;writing-mode:lr-tb;fill:#000000;fill-opacity:1;fill-rule:nonzero;stroke:none"
         x="0"
         y="0"
         id="tspan60">3</tspan></text>
    <path
       id="path62"
       d="m 491,101 h 100 v 30 H 491 Z"
       style="fill:#dae8fc;fill-opacity:1;fill-rule:nonzero;stroke:#6c8ebf;stroke-width:1;stroke-linecap:butt;stroke-linejoin:miter;stroke-miterlimit:10;stroke-dasharray:none;stroke-opacity:1"
       transform="matrix(0.95734591,0,0,0.95734591,0.47867296,0.47867296)"
       clip-path="url(#clipPath63)" />
    <text
       id="text63"
       xml:space="preserve"
       transform="matrix(0.95735554,0,0,0.95735554,513.12762,117.75473)"
       clip-path="url(#clipPath64)"><tspan
         style="font-variant:normal;font-weight:normal;font-size:18px;font-family:Helvetica;writing-mode:lr-tb;fill:#000000;fill-opacity:1;fill-rule:nonzero;stroke:none"
         x="0"
         y="0"
         id="tspan63">4</tspan></text>
  </g>
</svg>
