<?xml version="1.0" encoding="UTF-8" standalone="no"?>
<!-- Created with Inkscape (http://www.inkscape.org/) -->

<svg
   version="1.1"
   id="svg1"
   width="722.56"
   height="384"
   viewBox="0 0 722.56 384"
   sodipodi:docname="ts-14.pdf"
   xmlns:inkscape="http://www.inkscape.org/namespaces/inkscape"
   xmlns:sodipodi="http://sodipodi.sourceforge.net/DTD/sodipodi-0.dtd"
   xmlns="http://www.w3.org/2000/svg"
   xmlns:svg="http://www.w3.org/2000/svg">
  <defs
     id="defs1">
    <clipPath
       clipPathUnits="userSpaceOnUse"
       id="clipPath2">
      <path
         d="M 0,0 H 2258.3333 V 1198.0548 H 0 Z"
         transform="scale(0.33387454)"
         clip-rule="evenodd"
         id="path2" />
    </clipPath>
    <clipPath
       clipPathUnits="userSpaceOnUse"
       id="clipPath4">
      <path
         d="M 0,0 H 2258.3333 V 1195.0597 H 0 Z"
         transform="matrix(0.33387454,0,0,0.33387454,-0.5,-0.5)"
         clip-rule="evenodd"
         id="path4" />
    </clipPath>
    <clipPath
       clipPathUnits="userSpaceOnUse"
       id="clipPath6">
      <path
         d="M 0,0 H 2258.3333 V 1195.0597 H 0 Z"
         transform="matrix(0.33387454,0,0,0.33387454,-0.5,-0.5)"
         clip-rule="evenodd"
         id="path6" />
    </clipPath>
    <clipPath
       clipPathUnits="userSpaceOnUse"
       id="clipPath8">
      <path
         d="M 0,0 H 2258.3333 V 1195.0597 H 0 Z"
         transform="matrix(0.33387454,0,0,0.33387454,-0.5,-0.5)"
         clip-rule="evenodd"
         id="path8" />
    </clipPath>
    <clipPath
       clipPathUnits="userSpaceOnUse"
       id="clipPath9">
      <path
         d="M 0,0 H 2258.3333 V 1195.0597 H 0 Z"
         transform="matrix(0.3338712,0,0,0.3338712,-106.48437,-43)"
         clip-rule="evenodd"
         id="path9" />
    </clipPath>
    <clipPath
       clipPathUnits="userSpaceOnUse"
       id="clipPath11">
      <path
         d="M 0,0 H 2258.3333 V 1195.0597 H 0 Z"
         transform="matrix(0.33387454,0,0,0.33387454,-0.5,-0.5)"
         clip-rule="evenodd"
         id="path11" />
    </clipPath>
    <clipPath
       clipPathUnits="userSpaceOnUse"
       id="clipPath12">
      <path
         d="M 0,0 H 2258.3333 V 1195.0597 H 0 Z"
         transform="matrix(0.3338712,0,0,0.3338712,-88.9375,-83)"
         clip-rule="evenodd"
         id="path12" />
    </clipPath>
    <clipPath
       clipPathUnits="userSpaceOnUse"
       id="clipPath14">
      <path
         d="M 0,0 H 2258.3333 V 1195.0597 H 0 Z"
         transform="matrix(0.33387454,0,0,0.33387454,-0.5,-0.5)"
         clip-rule="evenodd"
         id="path14" />
    </clipPath>
    <clipPath
       clipPathUnits="userSpaceOnUse"
       id="clipPath15">
      <path
         d="M 0,0 H 2258.3333 V 1195.0597 H 0 Z"
         transform="matrix(0.3338712,0,0,0.3338712,-71.953125,-123)"
         clip-rule="evenodd"
         id="path15" />
    </clipPath>
    <clipPath
       clipPathUnits="userSpaceOnUse"
       id="clipPath17">
      <path
         d="M 0,0 H 2258.3333 V 1195.0597 H 0 Z"
         transform="matrix(0.33387454,0,0,0.33387454,-0.5,-0.5)"
         clip-rule="evenodd"
         id="path17" />
    </clipPath>
    <clipPath
       clipPathUnits="userSpaceOnUse"
       id="clipPath18">
      <path
         d="M 0,0 H 2258.3333 V 1195.0597 H 0 Z"
         transform="matrix(0.3338712,0,0,0.3338712,-85.953125,-263)"
         clip-rule="evenodd"
         id="path18" />
    </clipPath>
    <clipPath
       clipPathUnits="userSpaceOnUse"
       id="clipPath20">
      <path
         d="M 0,0 H 2258.3333 V 1195.0597 H 0 Z"
         transform="matrix(0.33387454,0,0,0.33387454,-0.5,-0.5)"
         clip-rule="evenodd"
         id="path20" />
    </clipPath>
    <clipPath
       clipPathUnits="userSpaceOnUse"
       id="clipPath22">
      <path
         d="M 0,0 H 2258.3333 V 1195.0597 H 0 Z"
         transform="matrix(0.33387454,0,0,0.33387454,-0.5,-0.5)"
         clip-rule="evenodd"
         id="path22" />
    </clipPath>
    <clipPath
       clipPathUnits="userSpaceOnUse"
       id="clipPath24">
      <path
         d="M 0,0 H 2258.3333 V 1195.0597 H 0 Z"
         transform="matrix(0.33387454,0,0,0.33387454,-0.5,-0.5)"
         clip-rule="evenodd"
         id="path24" />
    </clipPath>
    <clipPath
       clipPathUnits="userSpaceOnUse"
       id="clipPath25">
      <path
         d="M 0,0 H 2258.3333 V 1195.0597 H 0 Z"
         transform="matrix(0.3338712,0,0,0.3338712,-96.96875,-223)"
         clip-rule="evenodd"
         id="path25" />
    </clipPath>
    <clipPath
       clipPathUnits="userSpaceOnUse"
       id="clipPath27">
      <path
         d="M 0,0 H 2258.3333 V 1195.0597 H 0 Z"
         transform="matrix(0.33387454,0,0,0.33387454,-0.5,-0.5)"
         clip-rule="evenodd"
         id="path27" />
    </clipPath>
    <clipPath
       clipPathUnits="userSpaceOnUse"
       id="clipPath28">
      <path
         d="M 0,0 H 2258.3333 V 1195.0597 H 0 Z"
         transform="matrix(0.3338712,0,0,0.3338712,-86.46875,-343)"
         clip-rule="evenodd"
         id="path28" />
    </clipPath>
    <clipPath
       clipPathUnits="userSpaceOnUse"
       id="clipPath30">
      <path
         d="M 0,0 H 2258.3333 V 1195.0597 H 0 Z"
         transform="matrix(0.33387454,0,0,0.33387454,-0.5,-0.5)"
         clip-rule="evenodd"
         id="path30" />
    </clipPath>
    <clipPath
       clipPathUnits="userSpaceOnUse"
       id="clipPath31">
      <path
         d="M 0,0 H 2258.3333 V 1195.0597 H 0 Z"
         transform="matrix(0.3338712,0,0,0.3338712,-491.5625,-183)"
         clip-rule="evenodd"
         id="path31" />
    </clipPath>
    <clipPath
       clipPathUnits="userSpaceOnUse"
       id="clipPath33">
      <path
         d="M 0,0 H 2258.3333 V 1195.0597 H 0 Z"
         transform="matrix(0.33387454,0,0,0.33387454,-0.5,-0.5)"
         clip-rule="evenodd"
         id="path33" />
    </clipPath>
    <clipPath
       clipPathUnits="userSpaceOnUse"
       id="clipPath34">
      <path
         d="M 0,0 H 2258.3333 V 1195.0597 H 0 Z"
         transform="matrix(0.3338712,0,0,0.3338712,-89.46875,-303)"
         clip-rule="evenodd"
         id="path34" />
    </clipPath>
    <clipPath
       clipPathUnits="userSpaceOnUse"
       id="clipPath36">
      <path
         d="M 0,0 H 2258.3333 V 1195.0597 H 0 Z"
         transform="matrix(0.33387454,0,0,0.33387454,-0.5,-0.5)"
         clip-rule="evenodd"
         id="path36" />
    </clipPath>
    <clipPath
       clipPathUnits="userSpaceOnUse"
       id="clipPath37">
      <path
         d="M 0,0 H 2258.3333 V 1195.0597 H 0 Z"
         transform="matrix(0.3338712,0,0,0.3338712,-509.03125,-43)"
         clip-rule="evenodd"
         id="path37" />
    </clipPath>
    <clipPath
       clipPathUnits="userSpaceOnUse"
       id="clipPath39">
      <path
         d="M 0,0 H 2258.3333 V 1195.0597 H 0 Z"
         transform="matrix(0.33387454,0,0,0.33387454,-0.5,-0.5)"
         clip-rule="evenodd"
         id="path39" />
    </clipPath>
    <clipPath
       clipPathUnits="userSpaceOnUse"
       id="clipPath40">
      <path
         d="M 0,0 H 2258.3333 V 1195.0597 H 0 Z"
         transform="matrix(0.3338712,0,0,0.3338712,-508.9375,-223)"
         clip-rule="evenodd"
         id="path40" />
    </clipPath>
    <clipPath
       clipPathUnits="userSpaceOnUse"
       id="clipPath42">
      <path
         d="M 0,0 H 2258.3333 V 1195.0597 H 0 Z"
         transform="matrix(0.33387454,0,0,0.33387454,-0.5,-0.5)"
         clip-rule="evenodd"
         id="path42" />
    </clipPath>
    <clipPath
       clipPathUnits="userSpaceOnUse"
       id="clipPath43">
      <path
         d="M 0,0 H 2258.3333 V 1195.0597 H 0 Z"
         transform="matrix(0.3338712,0,0,0.3338712,-491.95313,-263)"
         clip-rule="evenodd"
         id="path43" />
    </clipPath>
    <clipPath
       clipPathUnits="userSpaceOnUse"
       id="clipPath45">
      <path
         d="M 0,0 H 2258.3333 V 1195.0597 H 0 Z"
         transform="matrix(0.33387454,0,0,0.33387454,-0.5,-0.5)"
         clip-rule="evenodd"
         id="path45" />
    </clipPath>
    <clipPath
       clipPathUnits="userSpaceOnUse"
       id="clipPath46">
      <path
         d="M 0,0 H 2258.3333 V 1195.0597 H 0 Z"
         transform="matrix(0.3338712,0,0,0.3338712,-505.95313,-303)"
         clip-rule="evenodd"
         id="path46" />
    </clipPath>
    <clipPath
       clipPathUnits="userSpaceOnUse"
       id="clipPath48">
      <path
         d="M 0,0 H 2258.3333 V 1195.0597 H 0 Z"
         transform="matrix(0.33387454,0,0,0.33387454,-0.5,-0.5)"
         clip-rule="evenodd"
         id="path48" />
    </clipPath>
    <clipPath
       clipPathUnits="userSpaceOnUse"
       id="clipPath49">
      <path
         d="M 0,0 H 2258.3333 V 1195.0597 H 0 Z"
         transform="matrix(0.3338712,0,0,0.3338712,-506.46875,-383)"
         clip-rule="evenodd"
         id="path49" />
    </clipPath>
    <clipPath
       clipPathUnits="userSpaceOnUse"
       id="clipPath51">
      <path
         d="M 0,0 H 2258.3333 V 1195.0597 H 0 Z"
         transform="matrix(0.33387454,0,0,0.33387454,-0.5,-0.5)"
         clip-rule="evenodd"
         id="path51" />
    </clipPath>
    <clipPath
       clipPathUnits="userSpaceOnUse"
       id="clipPath52">
      <path
         d="M 0,0 H 2258.3333 V 1195.0597 H 0 Z"
         transform="matrix(0.3338712,0,0,0.3338712,-509.46875,-343)"
         clip-rule="evenodd"
         id="path52" />
    </clipPath>
  </defs>
  <sodipodi:namedview
     id="namedview1"
     pagecolor="#ffffff"
     bordercolor="#000000"
     borderopacity="0.25"
     inkscape:showpageshadow="2"
     inkscape:pageopacity="0.0"
     inkscape:pagecheckerboard="0"
     inkscape:deskcolor="#d1d1d1">
    <inkscape:page
       x="0"
       y="0"
       inkscape:label="1"
       id="page1"
       width="722.56"
       height="384"
       margin="0"
       bleed="0" />
  </sodipodi:namedview>
  <g
     id="g1"
     inkscape:groupmode="layer"
     inkscape:label="1">
    <path
       id="path1"
       d="M 0,0 H 754 V 400 H 0 Z"
       style="fill:#ffffff;fill-opacity:1;fill-rule:nonzero;stroke:none"
       transform="scale(0.9584438)"
       clip-path="url(#clipPath2)" />
    <path
       id="path3"
       d="m 291,36 h 65 v 140 h 58.64001"
       style="fill:none;stroke:#000000;stroke-width:1;stroke-linecap:butt;stroke-linejoin:miter;stroke-miterlimit:10;stroke-dasharray:none;stroke-opacity:1"
       transform="matrix(0.9584438,0,0,0.9584438,0.4792219,0.4792219)"
       clip-path="url(#clipPath4)" />
    <path
       id="path5"
       d="m 419.89001,176 -7,3.5 1.75,-3.5 -1.75,-3.5 z"
       style="fill:#000000;fill-opacity:1;fill-rule:nonzero;stroke:#000000;stroke-width:1;stroke-linecap:butt;stroke-linejoin:miter;stroke-miterlimit:10;stroke-dasharray:none;stroke-opacity:1"
       transform="matrix(0.9584438,0,0,0.9584438,0.4792219,0.4792219)"
       clip-path="url(#clipPath6)" />
    <path
       id="path7"
       d="M 1,16 H 291 V 56 H 1 Z"
       style="fill:#dae8fc;fill-opacity:1;fill-rule:nonzero;stroke:#6c8ebf;stroke-width:1;stroke-linecap:butt;stroke-linejoin:miter;stroke-miterlimit:10;stroke-dasharray:none;stroke-opacity:1"
       transform="matrix(0.9584438,0,0,0.9584438,0.4792219,0.4792219)"
       clip-path="url(#clipPath8)" />
    <text
       id="text8"
       xml:space="preserve"
       transform="matrix(0.9584534,0,0,0.9584534,102.06031,41.213496)"
       clip-path="url(#clipPath9)"><tspan
         style="font-variant:normal;font-weight:700;font-size:18px;font-family:Helvetica;writing-mode:lr-tb;fill:#000000;fill-opacity:1;fill-rule:nonzero;stroke:none"
         x="0 10.995117 21.990234 32.000977 42.996094 53.006836 64.001953 69.00293"
         y="0"
         sodipodi:role="line"
         id="tspan8">openable</tspan></text>
    <path
       id="path10"
       d="M 1,56 H 291 V 96 H 1 Z"
       style="fill:#ffffff;fill-opacity:1;fill-rule:nonzero;stroke:#000000;stroke-width:1;stroke-linecap:butt;stroke-linejoin:miter;stroke-miterlimit:10;stroke-dasharray:none;stroke-opacity:1"
       transform="matrix(0.9584438,0,0,0.9584438,0.4792219,0.4792219)"
       clip-path="url(#clipPath11)" />
    <text
       id="text11"
       xml:space="preserve"
       transform="matrix(0.9584534,0,0,0.9584534,85.242449,79.551632)"
       clip-path="url(#clipPath12)"><tspan
         style="font-variant:normal;font-weight:normal;font-size:18px;font-family:Helvetica;writing-mode:lr-tb;fill:#000000;fill-opacity:1;fill-rule:nonzero;stroke:none"
         x="0 10.010742 20.021484 30.032227 40.042969 45.043945 50.044922 60.055664 70.066406 80.077148 84.076172 94.086914 104.09766"
         y="0"
         sodipodi:role="line"
         id="tspan11">open: boolean</tspan></text>
    <path
       id="path13"
       d="m 1,96 h 290 v 40 H 1 Z"
       style="fill:#ffffff;fill-opacity:1;fill-rule:nonzero;stroke:#000000;stroke-width:1;stroke-linecap:butt;stroke-linejoin:miter;stroke-miterlimit:10;stroke-dasharray:none;stroke-opacity:1"
       transform="matrix(0.9584438,0,0,0.9584438,0.4792219,0.4792219)"
       clip-path="url(#clipPath14)" />
    <text
       id="text14"
       xml:space="preserve"
       transform="matrix(0.9584534,0,0,0.9584534,68.963717,117.88977)"
       clip-path="url(#clipPath15)"><tspan
         style="font-variant:normal;font-weight:normal;font-size:18px;font-family:Helvetica;writing-mode:lr-tb;fill:#000000;fill-opacity:1;fill-rule:nonzero;stroke:none"
         x="0 5.0009766 15.011719 25.022461 35.033203 39.032227 49.042969 63.043945 73.054688 83.06543 93.076172 99.070312 105.06445 110.06543 115.06641 124.06641 134.07715 138.07617"
         y="0"
         sodipodi:role="line"
         id="tspan14">toggleOpen(): void</tspan></text>
    <path
       id="path16"
       d="m 1,236 h 290 v 40 H 1 Z"
       style="fill:#ffffff;fill-opacity:1;fill-rule:nonzero;stroke:#000000;stroke-width:1;stroke-linecap:butt;stroke-linejoin:miter;stroke-miterlimit:10;stroke-dasharray:none;stroke-opacity:1"
       transform="matrix(0.9584438,0,0,0.9584438,0.4792219,0.4792219)"
       clip-path="url(#clipPath17)" />
    <text
       id="text17"
       xml:space="preserve"
       transform="matrix(0.9584534,0,0,0.9584534,82.382065,252.07324)"
       clip-path="url(#clipPath18)"><tspan
         style="font-variant:normal;font-weight:normal;font-size:18px;font-family:Helvetica;writing-mode:lr-tb;fill:#000000;fill-opacity:1;fill-rule:nonzero;stroke:none"
         x="0 10.010742 20.021484 24.020508 34.03125 44.041992 49.042969 54.043945 59.044922 69.055664 79.066406 94.060547 104.07129 114.08203"
         y="0"
         sodipodi:role="line"
         id="tspan17">height: number</tspan></text>
    <path
       id="path19"
       d="m 291,216 h 65 v -40 h 58.64001"
       style="fill:none;stroke:#000000;stroke-width:1;stroke-linecap:butt;stroke-linejoin:miter;stroke-miterlimit:10;stroke-dasharray:none;stroke-opacity:1"
       transform="matrix(0.9584438,0,0,0.9584438,0.4792219,0.4792219)"
       clip-path="url(#clipPath20)" />
    <path
       id="path21"
       d="m 419.89001,176 -7,3.5 1.75,-3.5 -1.75,-3.5 z"
       style="fill:#000000;fill-opacity:1;fill-rule:nonzero;stroke:#000000;stroke-width:1;stroke-linecap:butt;stroke-linejoin:miter;stroke-miterlimit:10;stroke-dasharray:none;stroke-opacity:1"
       transform="matrix(0.9584438,0,0,0.9584438,0.4792219,0.4792219)"
       clip-path="url(#clipPath22)" />
    <path
       id="path23"
       d="m 1,196 h 290 v 40 H 1 Z"
       style="fill:#dae8fc;fill-opacity:1;fill-rule:nonzero;stroke:#6c8ebf;stroke-width:1;stroke-linecap:butt;stroke-linejoin:miter;stroke-miterlimit:10;stroke-dasharray:none;stroke-opacity:1"
       transform="matrix(0.9584438,0,0,0.9584438,0.4792219,0.4792219)"
       clip-path="url(#clipPath24)" />
    <text
       id="text24"
       xml:space="preserve"
       transform="matrix(0.9584534,0,0,0.9584534,92.940028,213.73511)"
       clip-path="url(#clipPath25)"><tspan
         style="font-variant:normal;font-weight:700;font-size:18px;font-family:Helvetica;writing-mode:lr-tb;fill:#000000;fill-opacity:1;fill-rule:nonzero;stroke:none"
         x="0 7.0048828 17.015625 27.026367 33.020508 43.03125 54.026367 65.021484 76.016602 81.017578 91.02832"
         y="0"
         sodipodi:role="line"
         id="tspan24">rectangular</tspan></text>
    <path
       id="path26"
       d="m 1,316 h 290 v 40 H 1 Z"
       style="fill:#ffffff;fill-opacity:1;fill-rule:nonzero;stroke:#000000;stroke-width:1;stroke-linecap:butt;stroke-linejoin:miter;stroke-miterlimit:10;stroke-dasharray:none;stroke-opacity:1"
       transform="matrix(0.9584438,0,0,0.9584438,0.4792219,0.4792219)"
       clip-path="url(#clipPath27)" />
    <text
       id="text27"
       xml:space="preserve"
       transform="matrix(0.9584534,0,0,0.9584534,82.876267,328.74952)"
       clip-path="url(#clipPath28)"><tspan
         style="font-variant:normal;font-weight:normal;font-size:18px;font-family:Helvetica;writing-mode:lr-tb;fill:#000000;fill-opacity:1;fill-rule:nonzero;stroke:none"
         x="0 10.010742 16.004883 26.015625 36.026367 42.020508 48.014648 53.015625 58.016602 68.027344 78.038086 93.032227 103.04297 113.05371"
         y="0"
         sodipodi:role="line"
         id="tspan27">area(): number</tspan></text>
    <path
       id="path29"
       d="m 421,156 h 290 v 40 H 421 Z"
       style="fill:#dae8fc;fill-opacity:1;fill-rule:nonzero;stroke:#6c8ebf;stroke-width:1;stroke-linecap:butt;stroke-linejoin:miter;stroke-miterlimit:10;stroke-dasharray:none;stroke-opacity:1"
       transform="matrix(0.9584438,0,0,0.9584438,0.4792219,0.4792219)"
       clip-path="url(#clipPath30)" />
    <text
       id="text30"
       xml:space="preserve"
       transform="matrix(0.9584534,0,0,0.9584534,471.13975,175.39697)"
       clip-path="url(#clipPath31)"><tspan
         style="font-variant:normal;font-weight:700;font-size:18px;font-family:Helvetica;writing-mode:lr-tb;fill:#000000;fill-opacity:1;fill-rule:nonzero;stroke:none"
         x="0 7.0048828 17.015625 27.026367 33.020508 43.03125 54.026367 65.021484 70.022461 80.033203 96.864258 101.86523 112.86035 123.85547 134.85059"
         y="0"
         sodipodi:role="line"
         id="tspan30">rectangleWindow</tspan></text>
    <path
       id="path32"
       d="m 1,276 h 290 v 40 H 1 Z"
       style="fill:#ffffff;fill-opacity:1;fill-rule:nonzero;stroke:#000000;stroke-width:1;stroke-linecap:butt;stroke-linejoin:miter;stroke-miterlimit:10;stroke-dasharray:none;stroke-opacity:1"
       transform="matrix(0.9584438,0,0,0.9584438,0.4792219,0.4792219)"
       clip-path="url(#clipPath33)" />
    <text
       id="text33"
       xml:space="preserve"
       transform="matrix(0.9584534,0,0,0.9584534,85.751628,290.41138)"
       clip-path="url(#clipPath34)"><tspan
         style="font-variant:normal;font-weight:normal;font-size:18px;font-family:Helvetica;writing-mode:lr-tb;fill:#000000;fill-opacity:1;fill-rule:nonzero;stroke:none"
         x="0 12.999023 16.998047 27.008789 32.009766 42.020508 47.021484 52.022461 62.033203 72.043945 87.038086 97.048828 107.05957"
         y="0"
         sodipodi:role="line"
         id="tspan33">width: number</tspan></text>
    <path
       id="path35"
       d="M 481,1 H 751 V 71 H 481 Z"
       style="fill:#fff2cc;fill-opacity:1;fill-rule:nonzero;stroke:#d6b656;stroke-width:1;stroke-linecap:butt;stroke-linejoin:miter;stroke-miterlimit:10;stroke-dasharray:none;stroke-opacity:1"
       transform="matrix(0.9584438,0,0,0.9584438,0.4792219,0.4792219)"
       clip-path="url(#clipPath36)" />
    <text
       id="text36"
       xml:space="preserve"
       transform="matrix(0.9584534,0,0,0.9584534,487.88273,41.213496)"
       clip-path="url(#clipPath37)"><tspan
         style="font-variant:normal;font-weight:700;font-size:22px;font-family:Helvetica;writing-mode:lr-tb;fill:#000000;fill-opacity:1;fill-rule:nonzero;stroke:none"
         x="0 18.326172 31.764648 37.876953 45.203125 51.31543 64.753906 70.866211 83.101562 89.213867 95.326172 108.76465 122.20312 134.43848 143 149.1123 156.43848 168.67383 182.1123 194.34766 206.58301"
         y="0"
         sodipodi:role="line"
         id="tspan36">Multiple Inheritance!</tspan></text>
    <path
       id="path38"
       d="m 421,196 h 290 v 40 H 421 Z"
       style="fill:#ffffff;fill-opacity:1;fill-rule:nonzero;stroke:#000000;stroke-width:1;stroke-linecap:butt;stroke-linejoin:miter;stroke-miterlimit:10;stroke-dasharray:none;stroke-opacity:1"
       transform="matrix(0.9584438,0,0,0.9584438,0.4792219,0.4792219)"
       clip-path="url(#clipPath39)" />
    <text
       id="text39"
       xml:space="preserve"
       transform="matrix(0.9584534,0,0,0.9584534,487.79288,213.73511)"
       clip-path="url(#clipPath40)"><tspan
         style="font-variant:normal;font-weight:normal;font-size:18px;font-family:Helvetica;writing-mode:lr-tb;fill:#000000;fill-opacity:1;fill-rule:nonzero;stroke:none"
         x="0 10.010742 20.021484 30.032227 40.042969 45.043945 50.044922 60.055664 70.066406 80.077148 84.076172 94.086914 104.09766"
         y="0"
         sodipodi:role="line"
         id="tspan39">open: boolean</tspan></text>
    <path
       id="path41"
       d="m 421,236 h 290 v 40 H 421 Z"
       style="fill:#ffffff;fill-opacity:1;fill-rule:nonzero;stroke:#000000;stroke-width:1;stroke-linecap:butt;stroke-linejoin:miter;stroke-miterlimit:10;stroke-dasharray:none;stroke-opacity:1"
       transform="matrix(0.9584438,0,0,0.9584438,0.4792219,0.4792219)"
       clip-path="url(#clipPath42)" />
    <text
       id="text42"
       xml:space="preserve"
       transform="matrix(0.9584534,0,0,0.9584534,471.51415,252.07324)"
       clip-path="url(#clipPath43)"><tspan
         style="font-variant:normal;font-weight:normal;font-size:18px;font-family:Helvetica;writing-mode:lr-tb;fill:#000000;fill-opacity:1;fill-rule:nonzero;stroke:none"
         x="0 5.0009766 15.011719 25.022461 35.033203 39.032227 49.042969 63.043945 73.054688 83.06543 93.076172 99.070312 105.06445 110.06543 115.06641 124.06641 134.07715 138.07617"
         y="0"
         sodipodi:role="line"
         id="tspan42">toggleOpen(): void</tspan></text>
    <path
       id="path44"
       d="m 421,276 h 290 v 40 H 421 Z"
       style="fill:#ffffff;fill-opacity:1;fill-rule:nonzero;stroke:#000000;stroke-width:1;stroke-linecap:butt;stroke-linejoin:miter;stroke-miterlimit:10;stroke-dasharray:none;stroke-opacity:1"
       transform="matrix(0.9584438,0,0,0.9584438,0.4792219,0.4792219)"
       clip-path="url(#clipPath45)" />
    <text
       id="text45"
       xml:space="preserve"
       transform="matrix(0.9584534,0,0,0.9584534,484.9325,290.41138)"
       clip-path="url(#clipPath46)"><tspan
         style="font-variant:normal;font-weight:normal;font-size:18px;font-family:Helvetica;writing-mode:lr-tb;fill:#000000;fill-opacity:1;fill-rule:nonzero;stroke:none"
         x="0 10.010742 20.021484 24.020508 34.03125 44.041992 49.042969 54.043945 59.044922 69.055664 79.066406 94.060547 104.07129 114.08203"
         y="0"
         sodipodi:role="line"
         id="tspan45">height: number</tspan></text>
    <path
       id="path47"
       d="m 421,356 h 290 v 40 H 421 Z"
       style="fill:#ffffff;fill-opacity:1;fill-rule:nonzero;stroke:#000000;stroke-width:1;stroke-linecap:butt;stroke-linejoin:miter;stroke-miterlimit:10;stroke-dasharray:none;stroke-opacity:1"
       transform="matrix(0.9584438,0,0,0.9584438,0.4792219,0.4792219)"
       clip-path="url(#clipPath48)" />
    <text
       id="text48"
       xml:space="preserve"
       transform="matrix(0.9584534,0,0,0.9584534,485.4267,367.08765)"
       clip-path="url(#clipPath49)"><tspan
         style="font-variant:normal;font-weight:normal;font-size:18px;font-family:Helvetica;writing-mode:lr-tb;fill:#000000;fill-opacity:1;fill-rule:nonzero;stroke:none"
         x="0 10.010742 16.004883 26.015625 36.026367 42.020508 48.014648 53.015625 58.016602 68.027344 78.038086 93.032227 103.04297 113.05371"
         y="0"
         sodipodi:role="line"
         id="tspan48">area(): number</tspan></text>
    <path
       id="path50"
       d="m 421,316 h 290 v 40 H 421 Z"
       style="fill:#ffffff;fill-opacity:1;fill-rule:nonzero;stroke:#000000;stroke-width:1;stroke-linecap:butt;stroke-linejoin:miter;stroke-miterlimit:10;stroke-dasharray:none;stroke-opacity:1"
       transform="matrix(0.9584438,0,0,0.9584438,0.4792219,0.4792219)"
       clip-path="url(#clipPath51)" />
    <text
       id="text51"
       xml:space="preserve"
       transform="matrix(0.9584534,0,0,0.9584534,488.30206,328.74952)"
       clip-path="url(#clipPath52)"><tspan
         style="font-variant:normal;font-weight:normal;font-size:18px;font-family:Helvetica;writing-mode:lr-tb;fill:#000000;fill-opacity:1;fill-rule:nonzero;stroke:none"
         x="0 12.999023 16.998047 27.008789 32.009766 42.020508 47.021484 52.022461 62.033203 72.043945 87.038086 97.048828 107.05957"
         y="0"
         sodipodi:role="line"
         id="tspan51">width: number</tspan></text>
  </g>
</svg>
