<?xml version="1.0" encoding="UTF-8" standalone="no"?>
<!-- Created with Inkscape (http://www.inkscape.org/) -->

<svg
   version="1.1"
   id="svg1"
   width="693.44"
   height="378.55997"
   viewBox="0 0 693.44 378.55997"
   sodipodi:docname="ts-12.pdf"
   xmlns:inkscape="http://www.inkscape.org/namespaces/inkscape"
   xmlns:sodipodi="http://sodipodi.sourceforge.net/DTD/sodipodi-0.dtd"
   xmlns="http://www.w3.org/2000/svg"
   xmlns:svg="http://www.w3.org/2000/svg">
  <defs
     id="defs1">
    <clipPath
       clipPathUnits="userSpaceOnUse"
       id="clipPath2">
      <path
         d="M 0,0 H 2166.6665 V 1182.0902 H 0 Z"
         transform="scale(0.33415387)"
         clip-rule="evenodd"
         id="path2" />
    </clipPath>
    <clipPath
       clipPathUnits="userSpaceOnUse"
       id="clipPath4">
      <path
         d="M 0,0 H 2166.6665 V 1179.0975 H 0 Z"
         transform="matrix(0.33415387,0,0,0.33415387,-0.5,-0.5)"
         clip-rule="evenodd"
         id="path4" />
    </clipPath>
    <clipPath
       clipPathUnits="userSpaceOnUse"
       id="clipPath5">
      <path
         d="M 0,0 H 2166.6665 V 1179.0975 H 0 Z"
         transform="matrix(0.33415051,0,0,0.33415051,-86.5625,-218)"
         clip-rule="evenodd"
         id="path5" />
    </clipPath>
    <clipPath
       clipPathUnits="userSpaceOnUse"
       id="clipPath7">
      <path
         d="M 0,0 H 2166.6665 V 1179.0975 H 0 Z"
         transform="matrix(0.33415387,0,0,0.33415387,-0.5,-0.5)"
         clip-rule="evenodd"
         id="path7" />
    </clipPath>
    <clipPath
       clipPathUnits="userSpaceOnUse"
       id="clipPath8">
      <path
         d="M 0,0 H 2166.6665 V 1179.0975 H 0 Z"
         transform="matrix(0.33415051,0,0,0.33415051,-88.9375,-258)"
         clip-rule="evenodd"
         id="path8" />
    </clipPath>
    <clipPath
       clipPathUnits="userSpaceOnUse"
       id="clipPath10">
      <path
         d="M 0,0 H 2166.6665 V 1179.0975 H 0 Z"
         transform="matrix(0.33415387,0,0,0.33415387,-0.5,-0.5)"
         clip-rule="evenodd"
         id="path10" />
    </clipPath>
    <clipPath
       clipPathUnits="userSpaceOnUse"
       id="clipPath11">
      <path
         d="M 0,0 H 2166.6665 V 1179.0975 H 0 Z"
         transform="matrix(0.33415051,0,0,0.33415051,-71.953125,-298)"
         clip-rule="evenodd"
         id="path11" />
    </clipPath>
    <clipPath
       clipPathUnits="userSpaceOnUse"
       id="clipPath13">
      <path
         d="M 0,0 H 2166.6665 V 1179.0975 H 0 Z"
         transform="matrix(0.33415387,0,0,0.33415387,-0.5,-0.5)"
         clip-rule="evenodd"
         id="path13" />
    </clipPath>
    <clipPath
       clipPathUnits="userSpaceOnUse"
       id="clipPath14">
      <path
         d="M 0,0 H 2166.6665 V 1179.0975 H 0 Z"
         transform="matrix(0.33415051,0,0,0.33415051,-102.79687,-28)"
         clip-rule="evenodd"
         id="path14" />
    </clipPath>
    <clipPath
       clipPathUnits="userSpaceOnUse"
       id="clipPath16">
      <path
         d="M 0,0 H 2166.6665 V 1179.0975 H 0 Z"
         transform="matrix(0.33415387,0,0,0.33415387,-0.5,-0.5)"
         clip-rule="evenodd"
         id="path16" />
    </clipPath>
    <clipPath
       clipPathUnits="userSpaceOnUse"
       id="clipPath17">
      <path
         d="M 0,0 H 2166.6665 V 1179.0975 H 0 Z"
         transform="matrix(0.33415051,0,0,0.33415051,-99.46875,-68)"
         clip-rule="evenodd"
         id="path17" />
    </clipPath>
    <clipPath
       clipPathUnits="userSpaceOnUse"
       id="clipPath19">
      <path
         d="M 0,0 H 2166.6665 V 1179.0975 H 0 Z"
         transform="matrix(0.33415387,0,0,0.33415387,-0.5,-0.5)"
         clip-rule="evenodd"
         id="path19" />
    </clipPath>
    <clipPath
       clipPathUnits="userSpaceOnUse"
       id="clipPath20">
      <path
         d="M 0,0 H 2166.6665 V 1179.0975 H 0 Z"
         transform="matrix(0.33415051,0,0,0.33415051,-515.95312,-68)"
         clip-rule="evenodd"
         id="path20" />
    </clipPath>
    <clipPath
       clipPathUnits="userSpaceOnUse"
       id="clipPath22">
      <path
         d="M 0,0 H 2166.6665 V 1179.0975 H 0 Z"
         transform="matrix(0.33415387,0,0,0.33415387,-0.5,-0.5)"
         clip-rule="evenodd"
         id="path22" />
    </clipPath>
    <clipPath
       clipPathUnits="userSpaceOnUse"
       id="clipPath23">
      <path
         d="M 0,0 H 2166.6665 V 1179.0975 H 0 Z"
         transform="matrix(0.33415051,0,0,0.33415051,-507.95313,-28)"
         clip-rule="evenodd"
         id="path23" />
    </clipPath>
    <clipPath
       clipPathUnits="userSpaceOnUse"
       id="clipPath25">
      <path
         d="M 0,0 H 2166.6665 V 1179.0975 H 0 Z"
         transform="matrix(0.33415387,0,0,0.33415387,-0.5,-0.5)"
         clip-rule="evenodd"
         id="path25" />
    </clipPath>
    <clipPath
       clipPathUnits="userSpaceOnUse"
       id="clipPath26">
      <path
         d="M 0,0 H 2166.6665 V 1179.0975 H 0 Z"
         transform="matrix(0.33415051,0,0,0.33415051,-519.46875,-108)"
         clip-rule="evenodd"
         id="path26" />
    </clipPath>
    <clipPath
       clipPathUnits="userSpaceOnUse"
       id="clipPath28">
      <path
         d="M 0,0 H 2166.6665 V 1179.0975 H 0 Z"
         transform="matrix(0.33415387,0,0,0.33415387,-0.5,-0.5)"
         clip-rule="evenodd"
         id="path28" />
    </clipPath>
    <clipPath
       clipPathUnits="userSpaceOnUse"
       id="clipPath29">
      <path
         d="M 0,0 H 2166.6665 V 1179.0975 H 0 Z"
         transform="matrix(0.33415051,0,0,0.33415051,-516.46875,-148)"
         clip-rule="evenodd"
         id="path29" />
    </clipPath>
    <clipPath
       clipPathUnits="userSpaceOnUse"
       id="clipPath31">
      <path
         d="M 0,0 H 2166.6665 V 1179.0975 H 0 Z"
         transform="matrix(0.33415387,0,0,0.33415387,-0.5,-0.5)"
         clip-rule="evenodd"
         id="path31" />
    </clipPath>
    <clipPath
       clipPathUnits="userSpaceOnUse"
       id="clipPath32">
      <path
         d="M 0,0 H 2166.6665 V 1179.0975 H 0 Z"
         transform="matrix(0.33415051,0,0,0.33415051,-515.96875,-248)"
         clip-rule="evenodd"
         id="path32" />
    </clipPath>
    <clipPath
       clipPathUnits="userSpaceOnUse"
       id="clipPath34">
      <path
         d="M 0,0 H 2166.6665 V 1179.0975 H 0 Z"
         transform="matrix(0.33415387,0,0,0.33415387,-0.5,-0.5)"
         clip-rule="evenodd"
         id="path34" />
    </clipPath>
    <clipPath
       clipPathUnits="userSpaceOnUse"
       id="clipPath35">
      <path
         d="M 0,0 H 2166.6665 V 1179.0975 H 0 Z"
         transform="matrix(0.33415051,0,0,0.33415051,-525.95313,-208)"
         clip-rule="evenodd"
         id="path35" />
    </clipPath>
    <clipPath
       clipPathUnits="userSpaceOnUse"
       id="clipPath37">
      <path
         d="M 0,0 H 2166.6665 V 1179.0975 H 0 Z"
         transform="matrix(0.33415387,0,0,0.33415387,-0.5,-0.5)"
         clip-rule="evenodd"
         id="path37" />
    </clipPath>
    <clipPath
       clipPathUnits="userSpaceOnUse"
       id="clipPath38">
      <path
         d="M 0,0 H 2166.6665 V 1179.0975 H 0 Z"
         transform="matrix(0.33415051,0,0,0.33415051,-516.46875,-288)"
         clip-rule="evenodd"
         id="path38" />
    </clipPath>
    <clipPath
       clipPathUnits="userSpaceOnUse"
       id="clipPath40">
      <path
         d="M 0,0 H 2166.6665 V 1179.0975 H 0 Z"
         transform="matrix(0.33415387,0,0,0.33415387,-0.5,-0.5)"
         clip-rule="evenodd"
         id="path40" />
    </clipPath>
    <clipPath
       clipPathUnits="userSpaceOnUse"
       id="clipPath42">
      <path
         d="M 0,0 H 2166.6665 V 1179.0975 H 0 Z"
         transform="matrix(0.33415387,0,0,0.33415387,-0.5,-0.5)"
         clip-rule="evenodd"
         id="path42" />
    </clipPath>
    <clipPath
       clipPathUnits="userSpaceOnUse"
       id="clipPath44">
      <path
         d="M 0,0 H 2166.6665 V 1179.0975 H 0 Z"
         transform="matrix(0.33415387,0,0,0.33415387,-0.5,-0.5)"
         clip-rule="evenodd"
         id="path44" />
    </clipPath>
    <clipPath
       clipPathUnits="userSpaceOnUse"
       id="clipPath46">
      <path
         d="M 0,0 H 2166.6665 V 1179.0975 H 0 Z"
         transform="matrix(0.33415387,0,0,0.33415387,-0.5,-0.5)"
         clip-rule="evenodd"
         id="path46" />
    </clipPath>
    <clipPath
       clipPathUnits="userSpaceOnUse"
       id="clipPath48">
      <path
         d="M 0,0 H 2166.6665 V 1179.0975 H 0 Z"
         transform="matrix(0.33415387,0,0,0.33415387,-0.5,-0.5)"
         clip-rule="evenodd"
         id="path48" />
    </clipPath>
    <clipPath
       clipPathUnits="userSpaceOnUse"
       id="clipPath49">
      <path
         d="M 0,0 H 2166.6665 V 1179.0975 H 0 Z"
         transform="matrix(0.33415051,0,0,0.33415051,-69.4375,-378)"
         clip-rule="evenodd"
         id="path49" />
    </clipPath>
    <clipPath
       clipPathUnits="userSpaceOnUse"
       id="clipPath51">
      <path
         d="M 0,0 H 2166.6665 V 1179.0975 H 0 Z"
         transform="matrix(0.33415387,0,0,0.33415387,-0.5,-0.5)"
         clip-rule="evenodd"
         id="path51" />
    </clipPath>
    <clipPath
       clipPathUnits="userSpaceOnUse"
       id="clipPath53">
      <path
         d="M 0,0 H 2166.6665 V 1179.0975 H 0 Z"
         transform="matrix(0.33415387,0,0,0.33415387,-0.5,-0.5)"
         clip-rule="evenodd"
         id="path53" />
    </clipPath>
    <clipPath
       clipPathUnits="userSpaceOnUse"
       id="clipPath55">
      <path
         d="M 0,0 H 2166.6665 V 1179.0975 H 0 Z"
         transform="matrix(0.33415387,0,0,0.33415387,-0.5,-0.5)"
         clip-rule="evenodd"
         id="path55" />
    </clipPath>
    <clipPath
       clipPathUnits="userSpaceOnUse"
       id="clipPath57">
      <path
         d="M 0,0 H 2166.6665 V 1179.0975 H 0 Z"
         transform="matrix(0.33415387,0,0,0.33415387,-0.5,-0.5)"
         clip-rule="evenodd"
         id="path57" />
    </clipPath>
    <clipPath
       clipPathUnits="userSpaceOnUse"
       id="clipPath59">
      <path
         d="M 0,0 H 2166.6665 V 1179.0975 H 0 Z"
         transform="matrix(0.33415387,0,0,0.33415387,-0.5,-0.5)"
         clip-rule="evenodd"
         id="path59" />
    </clipPath>
    <clipPath
       clipPathUnits="userSpaceOnUse"
       id="clipPath60">
      <path
         d="M 0,0 H 2166.6665 V 1179.0975 H 0 Z"
         transform="matrix(0.33415051,0,0,0.33415051,-69.4375,-148)"
         clip-rule="evenodd"
         id="path60" />
    </clipPath>
    <clipPath
       clipPathUnits="userSpaceOnUse"
       id="clipPath62">
      <path
         d="M 0,0 H 2166.6665 V 1179.0975 H 0 Z"
         transform="matrix(0.33415387,0,0,0.33415387,-0.5,-0.5)"
         clip-rule="evenodd"
         id="path62" />
    </clipPath>
    <clipPath
       clipPathUnits="userSpaceOnUse"
       id="clipPath64">
      <path
         d="M 0,0 H 2166.6665 V 1179.0975 H 0 Z"
         transform="matrix(0.33415387,0,0,0.33415387,-0.5,-0.5)"
         clip-rule="evenodd"
         id="path64" />
    </clipPath>
    <clipPath
       clipPathUnits="userSpaceOnUse"
       id="clipPath66">
      <path
         d="M 0,0 H 2166.6665 V 1179.0975 H 0 Z"
         transform="matrix(0.33415387,0,0,0.33415387,-0.5,-0.5)"
         clip-rule="evenodd"
         id="path66" />
    </clipPath>
    <clipPath
       clipPathUnits="userSpaceOnUse"
       id="clipPath67">
      <path
         d="M 0,0 H 2166.6665 V 1179.0975 H 0 Z"
         transform="matrix(0.33415051,0,0,0.33415051,-86.46875,-108)"
         clip-rule="evenodd"
         id="path67" />
    </clipPath>
    <clipPath
       clipPathUnits="userSpaceOnUse"
       id="clipPath69">
      <path
         d="M 0,0 H 2166.6665 V 1179.0975 H 0 Z"
         transform="matrix(0.33415387,0,0,0.33415387,-0.5,-0.5)"
         clip-rule="evenodd"
         id="path69" />
    </clipPath>
    <clipPath
       clipPathUnits="userSpaceOnUse"
       id="clipPath71">
      <path
         d="M 0,0 H 2166.6665 V 1179.0975 H 0 Z"
         transform="matrix(0.33415387,0,0,0.33415387,-0.5,-0.5)"
         clip-rule="evenodd"
         id="path71" />
    </clipPath>
    <clipPath
       clipPathUnits="userSpaceOnUse"
       id="clipPath73">
      <path
         d="M 0,0 H 2166.6665 V 1179.0975 H 0 Z"
         transform="matrix(0.33415387,0,0,0.33415387,-0.5,-0.5)"
         clip-rule="evenodd"
         id="path73" />
    </clipPath>
    <clipPath
       clipPathUnits="userSpaceOnUse"
       id="clipPath74">
      <path
         d="M 0,0 H 2166.6665 V 1179.0975 H 0 Z"
         transform="matrix(0.33415051,0,0,0.33415051,-86.46875,-338)"
         clip-rule="evenodd"
         id="path74" />
    </clipPath>
  </defs>
  <sodipodi:namedview
     id="namedview1"
     pagecolor="#ffffff"
     bordercolor="#000000"
     borderopacity="0.25"
     inkscape:showpageshadow="2"
     inkscape:pageopacity="0.0"
     inkscape:pagecheckerboard="0"
     inkscape:deskcolor="#d1d1d1">
    <inkscape:page
       x="0"
       y="0"
       inkscape:label="1"
       id="page1"
       width="693.44"
       height="378.55997"
       margin="0"
       bleed="0" />
  </sodipodi:namedview>
  <g
     id="g1"
     inkscape:groupmode="layer"
     inkscape:label="1">
    <path
       id="path1"
       d="M 0,0 H 724 V 395 H 0 Z"
       style="fill:#ffffff;fill-opacity:1;fill-rule:nonzero;stroke:none"
       transform="scale(0.95764262)"
       clip-path="url(#clipPath2)" />
    <path
       id="path3"
       d="m 1,191 h 290 v 40 H 1 Z"
       style="fill:#dae8fc;fill-opacity:1;fill-rule:nonzero;stroke:#6c8ebf;stroke-width:1;stroke-linecap:butt;stroke-linejoin:miter;stroke-miterlimit:10;stroke-dasharray:none;stroke-opacity:1"
       transform="matrix(0.95764262,0,0,0.95764262,0.47882131,0.47882131)"
       clip-path="url(#clipPath4)" />
    <text
       id="text4"
       xml:space="preserve"
       transform="matrix(0.95765225,0,0,0.95765225,82.896773,208.76819)"
       clip-path="url(#clipPath5)"><tspan
         style="font-variant:normal;font-weight:700;font-size:18px;font-family:Helvetica;writing-mode:lr-tb;fill:#000000;fill-opacity:1;fill-rule:nonzero;stroke:none"
         x="0 10.010742 15.011719 25.022461 35.033203 45.043945 50.044922 66.875977 71.876953 82.87207 93.867188 104.8623"
         y="0"
         sodipodi:role="line"
         id="tspan4">class Window</tspan></text>
    <path
       id="path6"
       d="m 1,231 h 290 v 40 H 1 Z"
       style="fill:#ffffff;fill-opacity:1;fill-rule:nonzero;stroke:#000000;stroke-width:1;stroke-linecap:butt;stroke-linejoin:miter;stroke-miterlimit:10;stroke-dasharray:none;stroke-opacity:1"
       transform="matrix(0.95764262,0,0,0.95764262,0.47882131,0.47882131)"
       clip-path="url(#clipPath7)" />
    <text
       id="text7"
       xml:space="preserve"
       transform="matrix(0.95765225,0,0,0.95765225,85.171197,247.07428)"
       clip-path="url(#clipPath8)"><tspan
         style="font-variant:normal;font-weight:normal;font-size:18px;font-family:Helvetica;writing-mode:lr-tb;fill:#000000;fill-opacity:1;fill-rule:nonzero;stroke:none"
         x="0 10.010742 20.021484 30.032227 40.042969 45.043945 50.044922 60.055664 70.066406 80.077148 84.076172 94.086914 104.09766"
         y="0"
         sodipodi:role="line"
         id="tspan7">open: boolean</tspan></text>
    <path
       id="path9"
       d="m 1,271 h 290 v 40 H 1 Z"
       style="fill:#ffffff;fill-opacity:1;fill-rule:nonzero;stroke:#000000;stroke-width:1;stroke-linecap:butt;stroke-linejoin:miter;stroke-miterlimit:10;stroke-dasharray:none;stroke-opacity:1"
       transform="matrix(0.95764262,0,0,0.95764262,0.47882131,0.47882131)"
       clip-path="url(#clipPath10)" />
    <text
       id="text10"
       xml:space="preserve"
       transform="matrix(0.95765225,0,0,0.95765225,68.906072,285.38037)"
       clip-path="url(#clipPath11)"><tspan
         style="font-variant:normal;font-weight:normal;font-size:18px;font-family:Helvetica;writing-mode:lr-tb;fill:#000000;fill-opacity:1;fill-rule:nonzero;stroke:none"
         x="0 5.0009766 15.011719 25.022461 35.033203 39.032227 49.042969 63.043945 73.054688 83.06543 93.076172 99.070312 105.06445 110.06543 115.06641 124.06641 134.07715 138.07617"
         y="0"
         sodipodi:role="line"
         id="tspan10">toggleOpen(): void</tspan></text>
    <path
       id="path12"
       d="M 1,1 H 291 V 41 H 1 Z"
       style="fill:#dae8fc;fill-opacity:1;fill-rule:nonzero;stroke:#6c8ebf;stroke-width:1;stroke-linecap:butt;stroke-linejoin:miter;stroke-miterlimit:10;stroke-dasharray:none;stroke-opacity:1"
       transform="matrix(0.95764262,0,0,0.95764262,0.47882131,0.47882131)"
       clip-path="url(#clipPath13)" />
    <text
       id="text13"
       xml:space="preserve"
       transform="matrix(0.95765225,0,0,0.95765225,98.443658,26.814263)"
       clip-path="url(#clipPath14)"><tspan
         style="font-variant:normal;font-weight:700;font-size:18px;font-family:Helvetica;writing-mode:lr-tb;fill:#000000;fill-opacity:1;fill-rule:nonzero;stroke:none"
         x="0 10.010742 15.011719 25.022461 35.033203 45.043945 50.044922 66.375 76.385742 81.386719"
         y="0"
         sodipodi:role="line"
         id="tspan13">class Wall</tspan></text>
    <path
       id="path15"
       d="M 1,41 H 291 V 81 H 1 Z"
       style="fill:#ffffff;fill-opacity:1;fill-rule:nonzero;stroke:#000000;stroke-width:1;stroke-linecap:butt;stroke-linejoin:miter;stroke-miterlimit:10;stroke-dasharray:none;stroke-opacity:1"
       transform="matrix(0.95764262,0,0,0.95764262,0.47882131,0.47882131)"
       clip-path="url(#clipPath16)" />
    <text
       id="text16"
       xml:space="preserve"
       transform="matrix(0.95765225,0,0,0.95765225,95.256472,65.120353)"
       clip-path="url(#clipPath17)"><tspan
         style="font-variant:normal;font-weight:normal;font-size:18px;font-family:Helvetica;writing-mode:lr-tb;fill:#000000;fill-opacity:1;fill-rule:nonzero;stroke:none"
         x="0 9 19.010742 23.009766 33.020508 39.014648 44.015625 49.016602 58.016602 63.017578 69.011719 73.010742 83.021484"
         y="0"
         sodipodi:role="line"
         id="tspan16">color: string</tspan></text>
    <path
       id="path18"
       d="M 431,41 H 721 V 81 H 431 Z"
       style="fill:#ffffff;fill-opacity:1;fill-rule:nonzero;stroke:#000000;stroke-width:1;stroke-linecap:butt;stroke-linejoin:miter;stroke-miterlimit:10;stroke-dasharray:none;stroke-opacity:1"
       transform="matrix(0.95764262,0,0,0.95764262,0.47882131,0.47882131)"
       clip-path="url(#clipPath19)" />
    <text
       id="text19"
       xml:space="preserve"
       transform="matrix(0.95765225,0,0,0.95765225,494.10367,65.120353)"
       clip-path="url(#clipPath20)"><tspan
         style="font-variant:normal;font-weight:normal;font-size:18px;font-family:Helvetica;writing-mode:lr-tb;fill:#000000;fill-opacity:1;fill-rule:nonzero;stroke:none"
         x="0 10.010742 20.021484 24.020508 34.03125 44.041992 49.042969 54.043945 59.044922 69.055664 79.066406 94.060547 104.07129 114.08203"
         y="0"
         sodipodi:role="line"
         id="tspan19">height: number</tspan></text>
    <path
       id="path21"
       d="M 431,1 H 721 V 41 H 431 Z"
       style="fill:#dae8fc;fill-opacity:1;fill-rule:nonzero;stroke:#6c8ebf;stroke-width:1;stroke-linecap:butt;stroke-linejoin:miter;stroke-miterlimit:10;stroke-dasharray:none;stroke-opacity:1"
       transform="matrix(0.95764262,0,0,0.95764262,0.47882131,0.47882131)"
       clip-path="url(#clipPath22)" />
    <text
       id="text22"
       xml:space="preserve"
       transform="matrix(0.95765225,0,0,0.95765225,486.44246,26.814263)"
       clip-path="url(#clipPath23)"><tspan
         style="font-variant:normal;font-weight:700;font-size:18px;font-family:Helvetica;writing-mode:lr-tb;fill:#000000;fill-opacity:1;fill-rule:nonzero;stroke:none"
         x="0 10.010742 15.011719 25.022461 35.033203 45.043945 50.044922 63.043945 73.054688 83.06543 89.05957 99.070312 110.06543 121.06055 126.06152"
         y="0"
         sodipodi:role="line"
         id="tspan22">class Rectangle</tspan></text>
    <path
       id="path24"
       d="m 431,81 h 290 v 40 H 431 Z"
       style="fill:#ffffff;fill-opacity:1;fill-rule:nonzero;stroke:#000000;stroke-width:1;stroke-linecap:butt;stroke-linejoin:miter;stroke-miterlimit:10;stroke-dasharray:none;stroke-opacity:1"
       transform="matrix(0.95764262,0,0,0.95764262,0.47882131,0.47882131)"
       clip-path="url(#clipPath25)" />
    <text
       id="text25"
       xml:space="preserve"
       transform="matrix(0.95765225,0,0,0.95765225,497.47042,103.42644)"
       clip-path="url(#clipPath26)"><tspan
         style="font-variant:normal;font-weight:normal;font-size:18px;font-family:Helvetica;writing-mode:lr-tb;fill:#000000;fill-opacity:1;fill-rule:nonzero;stroke:none"
         x="0 12.999023 16.998047 27.008789 32.009766 42.020508 47.021484 52.022461 62.033203 72.043945 87.038086 97.048828 107.05957"
         y="0"
         sodipodi:role="line"
         id="tspan25">width: number</tspan></text>
    <path
       id="path27"
       d="m 431,121 h 290 v 40 H 431 Z"
       style="fill:#ffffff;fill-opacity:1;fill-rule:nonzero;stroke:#000000;stroke-width:1;stroke-linecap:butt;stroke-linejoin:miter;stroke-miterlimit:10;stroke-dasharray:none;stroke-opacity:1"
       transform="matrix(0.95764262,0,0,0.95764262,0.47882131,0.47882131)"
       clip-path="url(#clipPath28)" />
    <text
       id="text28"
       xml:space="preserve"
       transform="matrix(0.95765225,0,0,0.95765225,494.59746,141.73253)"
       clip-path="url(#clipPath29)"><tspan
         style="font-variant:normal;font-weight:normal;font-size:18px;font-family:Helvetica;writing-mode:lr-tb;fill:#000000;fill-opacity:1;fill-rule:nonzero;stroke:none"
         x="0 10.010742 16.004883 26.015625 36.026367 42.020508 48.014648 53.015625 58.016602 68.027344 78.038086 93.032227 103.04297 113.05371"
         y="0"
         sodipodi:role="line"
         id="tspan28">area(): number</tspan></text>
    <path
       id="path30"
       d="m 431,221 h 290 v 40 H 431 Z"
       style="fill:#ffffff;fill-opacity:1;fill-rule:nonzero;stroke:#000000;stroke-width:1;stroke-linecap:butt;stroke-linejoin:miter;stroke-miterlimit:10;stroke-dasharray:none;stroke-opacity:1"
       transform="matrix(0.95764262,0,0,0.95764262,0.47882131,0.47882131)"
       clip-path="url(#clipPath31)" />
    <text
       id="text31"
       xml:space="preserve"
       transform="matrix(0.95765225,0,0,0.95765225,494.11863,237.49776)"
       clip-path="url(#clipPath32)"><tspan
         style="font-variant:normal;font-weight:normal;font-size:18px;font-family:Helvetica;writing-mode:lr-tb;fill:#000000;fill-opacity:1;fill-rule:nonzero;stroke:none"
         x="0 5.9941406 16.004883 26.015625 30.014648 40.025391 49.025391 54.026367 59.027344 69.038086 79.048828 94.042969 104.05371 114.06445"
         y="0"
         sodipodi:role="line"
         id="tspan31">radius: number</tspan></text>
    <path
       id="path33"
       d="m 431,181 h 290 v 40 H 431 Z"
       style="fill:#dae8fc;fill-opacity:1;fill-rule:nonzero;stroke:#6c8ebf;stroke-width:1;stroke-linecap:butt;stroke-linejoin:miter;stroke-miterlimit:10;stroke-dasharray:none;stroke-opacity:1"
       transform="matrix(0.95764262,0,0,0.95764262,0.47882131,0.47882131)"
       clip-path="url(#clipPath34)" />
    <text
       id="text34"
       xml:space="preserve"
       transform="matrix(0.95765225,0,0,0.95765225,503.6802,199.19167)"
       clip-path="url(#clipPath35)"><tspan
         style="font-variant:normal;font-weight:700;font-size:18px;font-family:Helvetica;writing-mode:lr-tb;fill:#000000;fill-opacity:1;fill-rule:nonzero;stroke:none"
         x="0 10.010742 15.011719 25.022461 35.033203 45.043945 50.044922 63.043945 68.044922 75.049805 85.060547 90.061523"
         y="0"
         sodipodi:role="line"
         id="tspan34">class Circle</tspan></text>
    <path
       id="path36"
       d="m 431,261 h 290 v 40 H 431 Z"
       style="fill:#ffffff;fill-opacity:1;fill-rule:nonzero;stroke:#000000;stroke-width:1;stroke-linecap:butt;stroke-linejoin:miter;stroke-miterlimit:10;stroke-dasharray:none;stroke-opacity:1"
       transform="matrix(0.95764262,0,0,0.95764262,0.47882131,0.47882131)"
       clip-path="url(#clipPath37)" />
    <text
       id="text37"
       xml:space="preserve"
       transform="matrix(0.95765225,0,0,0.95765225,494.59746,275.80385)"
       clip-path="url(#clipPath38)"><tspan
         style="font-variant:normal;font-weight:normal;font-size:18px;font-family:Helvetica;writing-mode:lr-tb;fill:#000000;fill-opacity:1;fill-rule:nonzero;stroke:none"
         x="0 10.010742 16.004883 26.015625 36.026367 42.020508 48.014648 53.015625 58.016602 68.027344 78.038086 93.032227 103.04297 113.05371"
         y="0"
         sodipodi:role="line"
         id="tspan37">area(): number</tspan></text>
    <path
       id="path39"
       d="m 291,371 h 70 V 201 h 63.64001"
       style="fill:none;stroke:#000000;stroke-width:1;stroke-linecap:butt;stroke-linejoin:miter;stroke-miterlimit:10;stroke-dasharray:none;stroke-opacity:1"
       transform="matrix(0.95764262,0,0,0.95764262,0.47882131,0.47882131)"
       clip-path="url(#clipPath40)" />
    <path
       id="path41"
       d="m 429.89001,201 -7,3.5 1.75,-3.5 -1.75,-3.5 z"
       style="fill:#000000;fill-opacity:1;fill-rule:nonzero;stroke:#000000;stroke-width:1;stroke-linecap:butt;stroke-linejoin:miter;stroke-miterlimit:10;stroke-dasharray:none;stroke-opacity:1"
       transform="matrix(0.95764262,0,0,0.95764262,0.47882131,0.47882131)"
       clip-path="url(#clipPath42)" />
    <path
       id="path43"
       d="m 291,371 h 70 V 21 h 63.64001"
       style="fill:none;stroke:#000000;stroke-width:1;stroke-linecap:butt;stroke-linejoin:miter;stroke-miterlimit:10;stroke-dasharray:none;stroke-opacity:1"
       transform="matrix(0.95764262,0,0,0.95764262,0.47882131,0.47882131)"
       clip-path="url(#clipPath44)" />
    <path
       id="path45"
       d="m 429.89001,21 -7,3.5 1.75,-3.5 -1.75,-3.5 z"
       style="fill:#000000;fill-opacity:1;fill-rule:nonzero;stroke:#000000;stroke-width:1;stroke-linecap:butt;stroke-linejoin:miter;stroke-miterlimit:10;stroke-dasharray:none;stroke-opacity:1"
       transform="matrix(0.95764262,0,0,0.95764262,0.47882131,0.47882131)"
       clip-path="url(#clipPath46)" />
    <path
       id="path47"
       d="m 1,351 h 290 v 40 H 1 Z"
       style="fill:#ffffff;fill-opacity:1;fill-rule:nonzero;stroke:#000000;stroke-width:1;stroke-linecap:butt;stroke-linejoin:miter;stroke-miterlimit:10;stroke-dasharray:none;stroke-opacity:1"
       transform="matrix(0.95764262,0,0,0.95764262,0.47882131,0.47882131)"
       clip-path="url(#clipPath48)" />
    <text
       id="text48"
       xml:space="preserve"
       transform="matrix(0.95765225,0,0,0.95765225,66.496978,361.99255)"
       clip-path="url(#clipPath49)"><tspan
         style="font-variant:normal;font-weight:normal;font-size:18px;font-family:Helvetica;writing-mode:lr-tb;fill:#000000;fill-opacity:1;fill-rule:nonzero;stroke:none"
         x="0 10.010742 14.009766 29.003906 39.014648 49.025391 58.025391 62.024414 72.035156 82.045898 91.045898 96.046875 101.04785 113.05371 123.06445 133.0752 143.08594"
         y="0"
         sodipodi:role="line"
         id="tspan48">dimensions: Shape</tspan></text>
    <path
       id="path50"
       d="m 291,141 h 70 V 21 h 63.64001"
       style="fill:none;stroke:#000000;stroke-width:1;stroke-linecap:butt;stroke-linejoin:miter;stroke-miterlimit:10;stroke-dasharray:none;stroke-opacity:1"
       transform="matrix(0.95764262,0,0,0.95764262,0.47882131,0.47882131)"
       clip-path="url(#clipPath51)" />
    <path
       id="path52"
       d="m 429.89001,21 -7,3.5 1.75,-3.5 -1.75,-3.5 z"
       style="fill:#000000;fill-opacity:1;fill-rule:nonzero;stroke:#000000;stroke-width:1;stroke-linecap:butt;stroke-linejoin:miter;stroke-miterlimit:10;stroke-dasharray:none;stroke-opacity:1"
       transform="matrix(0.95764262,0,0,0.95764262,0.47882131,0.47882131)"
       clip-path="url(#clipPath53)" />
    <path
       id="path54"
       d="m 291,141 h 70 v 60 h 63.64001"
       style="fill:none;stroke:#000000;stroke-width:1;stroke-linecap:butt;stroke-linejoin:miter;stroke-miterlimit:10;stroke-dasharray:none;stroke-opacity:1"
       transform="matrix(0.95764262,0,0,0.95764262,0.47882131,0.47882131)"
       clip-path="url(#clipPath55)" />
    <path
       id="path56"
       d="m 429.89001,201 -7,3.5 1.75,-3.5 -1.75,-3.5 z"
       style="fill:#000000;fill-opacity:1;fill-rule:nonzero;stroke:#000000;stroke-width:1;stroke-linecap:butt;stroke-linejoin:miter;stroke-miterlimit:10;stroke-dasharray:none;stroke-opacity:1"
       transform="matrix(0.95764262,0,0,0.95764262,0.47882131,0.47882131)"
       clip-path="url(#clipPath57)" />
    <path
       id="path58"
       d="m 1,121 h 290 v 40 H 1 Z"
       style="fill:#ffffff;fill-opacity:1;fill-rule:nonzero;stroke:#000000;stroke-width:1;stroke-linecap:butt;stroke-linejoin:miter;stroke-miterlimit:10;stroke-dasharray:none;stroke-opacity:1"
       transform="matrix(0.95764262,0,0,0.95764262,0.47882131,0.47882131)"
       clip-path="url(#clipPath59)" />
    <text
       id="text59"
       xml:space="preserve"
       transform="matrix(0.95765225,0,0,0.95765225,66.496978,141.73253)"
       clip-path="url(#clipPath60)"><tspan
         style="font-variant:normal;font-weight:normal;font-size:18px;font-family:Helvetica;writing-mode:lr-tb;fill:#000000;fill-opacity:1;fill-rule:nonzero;stroke:none"
         x="0 10.010742 14.009766 29.003906 39.014648 49.025391 58.025391 62.024414 72.035156 82.045898 91.045898 96.046875 101.04785 113.05371 123.06445 133.0752 143.08594"
         y="0"
         sodipodi:role="line"
         id="tspan59">dimensions: Shape</tspan></text>
    <path
       id="path61"
       d="m 291,101 h 30 v 30 h -23.63"
       style="fill:none;stroke:#000000;stroke-width:1;stroke-linecap:butt;stroke-linejoin:miter;stroke-miterlimit:10;stroke-dasharray:none;stroke-opacity:1"
       transform="matrix(0.95764262,0,0,0.95764262,0.47882131,0.47882131)"
       clip-path="url(#clipPath62)" />
    <path
       id="path63"
       d="m 292.12,131 7,-3.5 -1.75,3.5 1.75,3.5 z"
       style="fill:#000000;fill-opacity:1;fill-rule:nonzero;stroke:#000000;stroke-width:1;stroke-linecap:butt;stroke-linejoin:miter;stroke-miterlimit:10;stroke-dasharray:none;stroke-opacity:1"
       transform="matrix(0.95764262,0,0,0.95764262,0.47882131,0.47882131)"
       clip-path="url(#clipPath64)" />
    <path
       id="path65"
       d="m 1,81 h 290 v 40 H 1 Z"
       style="fill:#ffffff;fill-opacity:1;fill-rule:nonzero;stroke:#000000;stroke-width:1;stroke-linecap:butt;stroke-linejoin:miter;stroke-miterlimit:10;stroke-dasharray:none;stroke-opacity:1"
       transform="matrix(0.95764262,0,0,0.95764262,0.47882131,0.47882131)"
       clip-path="url(#clipPath66)" />
    <text
       id="text66"
       xml:space="preserve"
       transform="matrix(0.95765225,0,0,0.95765225,82.806993,103.42644)"
       clip-path="url(#clipPath67)"><tspan
         style="font-variant:normal;font-weight:normal;font-size:18px;font-family:Helvetica;writing-mode:lr-tb;fill:#000000;fill-opacity:1;fill-rule:nonzero;stroke:none"
         x="0 10.010742 16.004883 26.015625 36.026367 42.020508 48.014648 53.015625 58.016602 68.027344 78.038086 93.032227 103.04297 113.05371"
         y="0"
         sodipodi:role="line"
         id="tspan66">area(): number</tspan></text>
    <path
       id="path68"
       d="m 291,331 h 30 v 30 h -23.63"
       style="fill:none;stroke:#000000;stroke-width:1;stroke-linecap:butt;stroke-linejoin:miter;stroke-miterlimit:10;stroke-dasharray:none;stroke-opacity:1"
       transform="matrix(0.95764262,0,0,0.95764262,0.47882131,0.47882131)"
       clip-path="url(#clipPath69)" />
    <path
       id="path70"
       d="m 292.12,361 7,-3.5 -1.75,3.5 1.75,3.5 z"
       style="fill:#000000;fill-opacity:1;fill-rule:nonzero;stroke:#000000;stroke-width:1;stroke-linecap:butt;stroke-linejoin:miter;stroke-miterlimit:10;stroke-dasharray:none;stroke-opacity:1"
       transform="matrix(0.95764262,0,0,0.95764262,0.47882131,0.47882131)"
       clip-path="url(#clipPath71)" />
    <path
       id="path72"
       d="m 1,311 h 290 v 40 H 1 Z"
       style="fill:#ffffff;fill-opacity:1;fill-rule:nonzero;stroke:#000000;stroke-width:1;stroke-linecap:butt;stroke-linejoin:miter;stroke-miterlimit:10;stroke-dasharray:none;stroke-opacity:1"
       transform="matrix(0.95764262,0,0,0.95764262,0.47882131,0.47882131)"
       clip-path="url(#clipPath73)" />
    <text
       id="text73"
       xml:space="preserve"
       transform="matrix(0.95765225,0,0,0.95765225,82.806993,323.68646)"
       clip-path="url(#clipPath74)"><tspan
         style="font-variant:normal;font-weight:normal;font-size:18px;font-family:Helvetica;writing-mode:lr-tb;fill:#000000;fill-opacity:1;fill-rule:nonzero;stroke:none"
         x="0 10.010742 16.004883 26.015625 36.026367 42.020508 48.014648 53.015625 58.016602 68.027344 78.038086 93.032227 103.04297 113.05371"
         y="0"
         sodipodi:role="line"
         id="tspan73">area(): number</tspan></text>
  </g>
</svg>
