<?xml version="1.0" encoding="UTF-8" standalone="no"?>
<!-- Created with Inkscape (http://www.inkscape.org/) -->

<svg
   version="1.1"
   id="svg1"
   width="729.27997"
   height="360"
   viewBox="0 0 729.27997 360"
   sodipodi:docname="ts-11.pdf"
   xmlns:inkscape="http://www.inkscape.org/namespaces/inkscape"
   xmlns:sodipodi="http://sodipodi.sourceforge.net/DTD/sodipodi-0.dtd"
   xmlns="http://www.w3.org/2000/svg"
   xmlns:svg="http://www.w3.org/2000/svg">
  <defs
     id="defs1">
    <clipPath
       clipPathUnits="userSpaceOnUse"
       id="clipPath2">
      <path
         d="M 0,0 H 2279.1665 V 1124.6281 H 0 Z"
         transform="scale(0.33433275)"
         clip-rule="evenodd"
         id="path2" />
    </clipPath>
    <clipPath
       clipPathUnits="userSpaceOnUse"
       id="clipPath4">
      <path
         d="M 0,0 H 2279.1665 V 1118.646 H 0 Z"
         transform="matrix(0.33433275,0,0,0.33433275,-0.50000001,-0.50000001)"
         clip-rule="evenodd"
         id="path4" />
    </clipPath>
    <clipPath
       clipPathUnits="userSpaceOnUse"
       id="clipPath5">
      <path
         d="M 0,0 H 2279.1665 V 1118.646 H 0 Z"
         transform="matrix(0.33432939,0,0,0.33432939,-463.54688,-128)"
         clip-rule="evenodd"
         id="path5" />
    </clipPath>
    <clipPath
       clipPathUnits="userSpaceOnUse"
       id="clipPath7">
      <path
         d="M 0,0 H 2279.1665 V 1118.646 H 0 Z"
         transform="matrix(0.33433275,0,0,0.33433275,-0.50000001,-0.50000001)"
         clip-rule="evenodd"
         id="path7" />
    </clipPath>
    <clipPath
       clipPathUnits="userSpaceOnUse"
       id="clipPath9">
      <path
         d="M 0,0 H 2279.1665 V 1118.646 H 0 Z"
         transform="matrix(0.33433275,0,0,0.33433275,-0.50000001,-0.50000001)"
         clip-rule="evenodd"
         id="path9" />
    </clipPath>
    <clipPath
       clipPathUnits="userSpaceOnUse"
       id="clipPath11">
      <path
         d="M 0,0 H 2279.1665 V 1118.646 H 0 Z"
         transform="matrix(0.33433275,0,0,0.33433275,-0.50000001,-0.50000001)"
         clip-rule="evenodd"
         id="path11" />
    </clipPath>
    <clipPath
       clipPathUnits="userSpaceOnUse"
       id="clipPath12">
      <path
         d="M 0,0 H 2279.1665 V 1118.646 H 0 Z"
         transform="matrix(0.33432939,0,0,0.33432939,-508.9375,-168)"
         clip-rule="evenodd"
         id="path12" />
    </clipPath>
    <clipPath
       clipPathUnits="userSpaceOnUse"
       id="clipPath14">
      <path
         d="M 0,0 H 2279.1665 V 1118.646 H 0 Z"
         transform="matrix(0.33433275,0,0,0.33433275,-0.50000001,-0.50000001)"
         clip-rule="evenodd"
         id="path14" />
    </clipPath>
    <clipPath
       clipPathUnits="userSpaceOnUse"
       id="clipPath16">
      <path
         d="M 0,0 H 2279.1665 V 1118.646 H 0 Z"
         transform="matrix(0.33433275,0,0,0.33433275,-0.50000001,-0.50000001)"
         clip-rule="evenodd"
         id="path16" />
    </clipPath>
    <clipPath
       clipPathUnits="userSpaceOnUse"
       id="clipPath18">
      <path
         d="M 0,0 H 2279.1665 V 1118.646 H 0 Z"
         transform="matrix(0.33433275,0,0,0.33433275,-0.50000001,-0.50000001)"
         clip-rule="evenodd"
         id="path18" />
    </clipPath>
    <clipPath
       clipPathUnits="userSpaceOnUse"
       id="clipPath19">
      <path
         d="M 0,0 H 2279.1665 V 1118.646 H 0 Z"
         transform="matrix(0.33432939,0,0,0.33432939,-491.95313,-208)"
         clip-rule="evenodd"
         id="path19" />
    </clipPath>
    <clipPath
       clipPathUnits="userSpaceOnUse"
       id="clipPath21">
      <path
         d="M 0,0 H 2279.1665 V 1118.646 H 0 Z"
         transform="matrix(0.33433275,0,0,0.33433275,-0.50000001,-0.50000001)"
         clip-rule="evenodd"
         id="path21" />
    </clipPath>
    <clipPath
       clipPathUnits="userSpaceOnUse"
       id="clipPath22">
      <path
         d="M 0,0 H 2279.1665 V 1118.646 H 0 Z"
         transform="matrix(0.33432939,0,0,0.33432939,-522.79688,-28)"
         clip-rule="evenodd"
         id="path22" />
    </clipPath>
    <clipPath
       clipPathUnits="userSpaceOnUse"
       id="clipPath24">
      <path
         d="M 0,0 H 2279.1665 V 1118.646 H 0 Z"
         transform="matrix(0.33433275,0,0,0.33433275,-0.50000001,-0.50000001)"
         clip-rule="evenodd"
         id="path24" />
    </clipPath>
    <clipPath
       clipPathUnits="userSpaceOnUse"
       id="clipPath25">
      <path
         d="M 0,0 H 2279.1665 V 1118.646 H 0 Z"
         transform="matrix(0.33432939,0,0,0.33432939,-519.46875,-68.000001)"
         clip-rule="evenodd"
         id="path25" />
    </clipPath>
    <clipPath
       clipPathUnits="userSpaceOnUse"
       id="clipPath27">
      <path
         d="M 0,0 H 2279.1665 V 1118.646 H 0 Z"
         transform="matrix(0.33433275,0,0,0.33433275,-0.50000001,-0.50000001)"
         clip-rule="evenodd"
         id="path27" />
    </clipPath>
    <clipPath
       clipPathUnits="userSpaceOnUse"
       id="clipPath28">
      <path
         d="M 0,0 H 2279.1665 V 1118.646 H 0 Z"
         transform="matrix(0.33432939,0,0,0.33432939,-85.953125,-68.000001)"
         clip-rule="evenodd"
         id="path28" />
    </clipPath>
    <clipPath
       clipPathUnits="userSpaceOnUse"
       id="clipPath30">
      <path
         d="M 0,0 H 2279.1665 V 1118.646 H 0 Z"
         transform="matrix(0.33433275,0,0,0.33433275,-0.50000001,-0.50000001)"
         clip-rule="evenodd"
         id="path30" />
    </clipPath>
    <clipPath
       clipPathUnits="userSpaceOnUse"
       id="clipPath32">
      <path
         d="M 0,0 H 2279.1665 V 1118.646 H 0 Z"
         transform="matrix(0.33433275,0,0,0.33433275,-0.50000001,-0.50000001)"
         clip-rule="evenodd"
         id="path32" />
    </clipPath>
    <clipPath
       clipPathUnits="userSpaceOnUse"
       id="clipPath34">
      <path
         d="M 0,0 H 2279.1665 V 1118.646 H 0 Z"
         transform="matrix(0.33433275,0,0,0.33433275,-0.50000001,-0.50000001)"
         clip-rule="evenodd"
         id="path34" />
    </clipPath>
    <clipPath
       clipPathUnits="userSpaceOnUse"
       id="clipPath36">
      <path
         d="M 0,0 H 2279.1665 V 1118.646 H 0 Z"
         transform="matrix(0.33433275,0,0,0.33433275,-0.50000001,-0.50000001)"
         clip-rule="evenodd"
         id="path36" />
    </clipPath>
    <clipPath
       clipPathUnits="userSpaceOnUse"
       id="clipPath38">
      <path
         d="M 0,0 H 2279.1665 V 1118.646 H 0 Z"
         transform="matrix(0.33433275,0,0,0.33433275,-0.50000001,-0.50000001)"
         clip-rule="evenodd"
         id="path38" />
    </clipPath>
    <clipPath
       clipPathUnits="userSpaceOnUse"
       id="clipPath39">
      <path
         d="M 0,0 H 2279.1665 V 1118.646 H 0 Z"
         transform="matrix(0.33432939,0,0,0.33432939,-77.953125,-28)"
         clip-rule="evenodd"
         id="path39" />
    </clipPath>
    <clipPath
       clipPathUnits="userSpaceOnUse"
       id="clipPath41">
      <path
         d="M 0,0 H 2279.1665 V 1118.646 H 0 Z"
         transform="matrix(0.33433275,0,0,0.33433275,-0.50000001,-0.50000001)"
         clip-rule="evenodd"
         id="path41" />
    </clipPath>
    <clipPath
       clipPathUnits="userSpaceOnUse"
       id="clipPath42">
      <path
         d="M 0,0 H 2279.1665 V 1118.646 H 0 Z"
         transform="matrix(0.33432939,0,0,0.33432939,-89.46875,-108.00001)"
         clip-rule="evenodd"
         id="path42" />
    </clipPath>
    <clipPath
       clipPathUnits="userSpaceOnUse"
       id="clipPath44">
      <path
         d="M 0,0 H 2279.1665 V 1118.646 H 0 Z"
         transform="matrix(0.33433275,0,0,0.33433275,-0.50000001,-0.50000001)"
         clip-rule="evenodd"
         id="path44" />
    </clipPath>
    <clipPath
       clipPathUnits="userSpaceOnUse"
       id="clipPath45">
      <path
         d="M 0,0 H 2279.1665 V 1118.646 H 0 Z"
         transform="matrix(0.33432939,0,0,0.33432939,-86.468751,-148)"
         clip-rule="evenodd"
         id="path45" />
    </clipPath>
    <clipPath
       clipPathUnits="userSpaceOnUse"
       id="clipPath47">
      <path
         d="M 0,0 H 2279.1665 V 1118.646 H 0 Z"
         transform="matrix(0.33433275,0,0,0.33433275,-0.50000001,-0.50000001)"
         clip-rule="evenodd"
         id="path47" />
    </clipPath>
    <clipPath
       clipPathUnits="userSpaceOnUse"
       id="clipPath48">
      <path
         d="M 0,0 H 2279.1665 V 1118.646 H 0 Z"
         transform="matrix(0.33432939,0,0,0.33432939,-85.968751,-318)"
         clip-rule="evenodd"
         id="path48" />
    </clipPath>
    <clipPath
       clipPathUnits="userSpaceOnUse"
       id="clipPath50">
      <path
         d="M 0,0 H 2279.1665 V 1118.646 H 0 Z"
         transform="matrix(0.33433275,0,0,0.33433275,-0.50000001,-0.50000001)"
         clip-rule="evenodd"
         id="path50" />
    </clipPath>
    <clipPath
       clipPathUnits="userSpaceOnUse"
       id="clipPath52">
      <path
         d="M 0,0 H 2279.1665 V 1118.646 H 0 Z"
         transform="matrix(0.33433275,0,0,0.33433275,-0.50000001,-0.50000001)"
         clip-rule="evenodd"
         id="path52" />
    </clipPath>
    <clipPath
       clipPathUnits="userSpaceOnUse"
       id="clipPath54">
      <path
         d="M 0,0 H 2279.1665 V 1118.646 H 0 Z"
         transform="matrix(0.33433275,0,0,0.33433275,-0.50000001,-0.50000001)"
         clip-rule="evenodd"
         id="path54" />
    </clipPath>
    <clipPath
       clipPathUnits="userSpaceOnUse"
       id="clipPath55">
      <path
         d="M 0,0 H 2279.1665 V 1118.646 H 0 Z"
         transform="matrix(0.33432939,0,0,0.33432939,-95.953125,-278)"
         clip-rule="evenodd"
         id="path55" />
    </clipPath>
    <clipPath
       clipPathUnits="userSpaceOnUse"
       id="clipPath57">
      <path
         d="M 0,0 H 2279.1665 V 1118.646 H 0 Z"
         transform="matrix(0.33433275,0,0,0.33433275,-0.50000001,-0.50000001)"
         clip-rule="evenodd"
         id="path57" />
    </clipPath>
    <clipPath
       clipPathUnits="userSpaceOnUse"
       id="clipPath58">
      <path
         d="M 0,0 H 2279.1665 V 1118.646 H 0 Z"
         transform="matrix(0.33432939,0,0,0.33432939,-86.468751,-358)"
         clip-rule="evenodd"
         id="path58" />
    </clipPath>
    <clipPath
       clipPathUnits="userSpaceOnUse"
       id="clipPath60">
      <path
         d="M 0,0 H 2279.1665 V 1118.646 H 0 Z"
         transform="matrix(0.33433275,0,0,0.33433275,-0.50000001,-0.50000001)"
         clip-rule="evenodd"
         id="path60" />
    </clipPath>
    <clipPath
       clipPathUnits="userSpaceOnUse"
       id="clipPath61">
      <path
         d="M 0,0 H 2279.1665 V 1118.646 H 0 Z"
         transform="matrix(0.33432939,0,0,0.33432939,-481.54689,-278)"
         clip-rule="evenodd"
         id="path61" />
    </clipPath>
    <clipPath
       clipPathUnits="userSpaceOnUse"
       id="clipPath63">
      <path
         d="M 0,0 H 2279.1665 V 1118.646 H 0 Z"
         transform="matrix(0.33433275,0,0,0.33433275,-0.50000001,-0.50000001)"
         clip-rule="evenodd"
         id="path63" />
    </clipPath>
    <clipPath
       clipPathUnits="userSpaceOnUse"
       id="clipPath64">
      <path
         d="M 0,0 H 2279.1665 V 1118.646 H 0 Z"
         transform="matrix(0.33432939,0,0,0.33432939,-508.9375,-318)"
         clip-rule="evenodd"
         id="path64" />
    </clipPath>
    <clipPath
       clipPathUnits="userSpaceOnUse"
       id="clipPath66">
      <path
         d="M 0,0 H 2279.1665 V 1118.646 H 0 Z"
         transform="matrix(0.33433275,0,0,0.33433275,-0.50000001,-0.50000001)"
         clip-rule="evenodd"
         id="path66" />
    </clipPath>
    <clipPath
       clipPathUnits="userSpaceOnUse"
       id="clipPath67">
      <path
         d="M 0,0 H 2279.1665 V 1118.646 H 0 Z"
         transform="matrix(0.33432939,0,0,0.33432939,-491.95313,-358)"
         clip-rule="evenodd"
         id="path67" />
    </clipPath>
  </defs>
  <sodipodi:namedview
     id="namedview1"
     pagecolor="#ffffff"
     bordercolor="#000000"
     borderopacity="0.25"
     inkscape:showpageshadow="2"
     inkscape:pageopacity="0.0"
     inkscape:pagecheckerboard="0"
     inkscape:deskcolor="#d1d1d1">
    <inkscape:page
       x="0"
       y="0"
       inkscape:label="1"
       id="page1"
       width="729.27997"
       height="360"
       margin="0"
       bleed="0" />
  </sodipodi:namedview>
  <g
     id="g1"
     inkscape:groupmode="layer"
     inkscape:label="1">
    <path
       id="path1"
       d="M 0,0 H 762 V 376 H 0 Z"
       style="fill:#ffffff;fill-opacity:1;fill-rule:nonzero;stroke:none"
       transform="scale(0.95713023)"
       clip-path="url(#clipPath2)" />
    <path
       id="path3"
       d="m 421,101 h 290 v 40 H 421 Z"
       style="fill:#dae8fc;fill-opacity:1;fill-rule:nonzero;stroke:#6c8ebf;stroke-width:1;stroke-linecap:butt;stroke-linejoin:miter;stroke-miterlimit:10;stroke-dasharray:none;stroke-opacity:1"
       transform="matrix(0.95713023,0,0,0.95713023,0.47856512,0.47856512)"
       clip-path="url(#clipPath4)" />
    <text
       id="text4"
       xml:space="preserve"
       transform="matrix(0.95713986,0,0,0.95713986,443.6792,122.5139)"
       clip-path="url(#clipPath5)"><tspan
         style="font-variant:normal;font-weight:700;font-size:18px;font-family:Helvetica;writing-mode:lr-tb;fill:#000000;fill-opacity:1;fill-rule:nonzero;stroke:none"
         x="0 10.010742 15.011719 25.022461 35.033203 45.043945 50.044922 63.043945 73.054688 83.06543 89.05957 99.070312 110.06543 121.06055 126.06152 136.07227 152.90332 157.9043 168.89941 179.89453 190.88965"
         y="0"
         sodipodi:role="line"
         id="tspan4">class RectangleWindow</tspan></text>
    <path
       id="path6"
       d="M 711.01001,161 H 751 v 150 h -33.62"
       style="fill:none;stroke:#000000;stroke-width:1;stroke-linecap:butt;stroke-linejoin:miter;stroke-miterlimit:10;stroke-dasharray:none;stroke-opacity:1"
       transform="matrix(0.95713023,0,0,0.95713023,0.47856512,0.47856512)"
       clip-path="url(#clipPath7)" />
    <path
       id="path8"
       d="m 712.13,311 6.99,-3.5 -1.74,3.5 1.75,3.5 z"
       style="fill:#000000;fill-opacity:1;fill-rule:nonzero;stroke:#000000;stroke-width:1;stroke-linecap:butt;stroke-linejoin:miter;stroke-miterlimit:10;stroke-dasharray:none;stroke-opacity:1"
       transform="matrix(0.95713023,0,0,0.95713023,0.47856512,0.47856512)"
       clip-path="url(#clipPath9)" />
    <path
       id="path10"
       d="m 421,141 h 290 v 40 H 421 Z"
       style="fill:#ffffff;fill-opacity:1;fill-rule:nonzero;stroke:#000000;stroke-width:1;stroke-linecap:butt;stroke-linejoin:miter;stroke-miterlimit:10;stroke-dasharray:none;stroke-opacity:1"
       transform="matrix(0.95713023,0,0,0.95713023,0.47856512,0.47856512)"
       clip-path="url(#clipPath11)" />
    <text
       id="text11"
       xml:space="preserve"
       transform="matrix(0.95713986,0,0,0.95713986,487.12437,160.7995)"
       clip-path="url(#clipPath12)"><tspan
         style="font-variant:normal;font-weight:normal;font-size:18px;font-family:Helvetica;writing-mode:lr-tb;fill:#000000;fill-opacity:1;fill-rule:nonzero;stroke:none"
         x="0 10.010742 20.021484 30.032227 40.042969 45.043945 50.044922 60.055664 70.066406 80.077148 84.076172 94.086914 104.09766"
         y="0"
         sodipodi:role="line"
         id="tspan11">open: boolean</tspan></text>
    <path
       id="path13"
       d="M 711.01001,201 H 751 v 150 h -33.62"
       style="fill:none;stroke:#000000;stroke-width:1;stroke-linecap:butt;stroke-linejoin:miter;stroke-miterlimit:10;stroke-dasharray:none;stroke-opacity:1"
       transform="matrix(0.95713023,0,0,0.95713023,0.47856512,0.47856512)"
       clip-path="url(#clipPath14)" />
    <path
       id="path15"
       d="m 712.13,351 6.99,-3.5 -1.74,3.5 1.75,3.5 z"
       style="fill:#000000;fill-opacity:1;fill-rule:nonzero;stroke:#000000;stroke-width:1;stroke-linecap:butt;stroke-linejoin:miter;stroke-miterlimit:10;stroke-dasharray:none;stroke-opacity:1"
       transform="matrix(0.95713023,0,0,0.95713023,0.47856512,0.47856512)"
       clip-path="url(#clipPath16)" />
    <path
       id="path17"
       d="m 421,181 h 290 v 40 H 421 Z"
       style="fill:#ffffff;fill-opacity:1;fill-rule:nonzero;stroke:#000000;stroke-width:1;stroke-linecap:butt;stroke-linejoin:miter;stroke-miterlimit:10;stroke-dasharray:none;stroke-opacity:1"
       transform="matrix(0.95713023,0,0,0.95713023,0.47856512,0.47856512)"
       clip-path="url(#clipPath18)" />
    <text
       id="text18"
       xml:space="preserve"
       transform="matrix(0.95713986,0,0,0.95713986,470.86795,199.08509)"
       clip-path="url(#clipPath19)"><tspan
         style="font-variant:normal;font-weight:normal;font-size:18px;font-family:Helvetica;writing-mode:lr-tb;fill:#000000;fill-opacity:1;fill-rule:nonzero;stroke:none"
         x="0 5.0009766 15.011719 25.022461 35.033203 39.032227 49.042969 63.043945 73.054688 83.06543 93.076172 99.070312 105.06445 110.06543 115.06641 124.06641 134.07715 138.07617"
         y="0"
         sodipodi:role="line"
         id="tspan18">toggleOpen(): void</tspan></text>
    <path
       id="path20"
       d="M 421,1 H 711 V 41 H 421 Z"
       style="fill:#dae8fc;fill-opacity:1;fill-rule:nonzero;stroke:#6c8ebf;stroke-width:1;stroke-linecap:butt;stroke-linejoin:miter;stroke-miterlimit:10;stroke-dasharray:none;stroke-opacity:1"
       transform="matrix(0.95713023,0,0,0.95713023,0.47856512,0.47856512)"
       clip-path="url(#clipPath21)" />
    <text
       id="text21"
       xml:space="preserve"
       transform="matrix(0.95713986,0,0,0.95713986,500.38973,26.799916)"
       clip-path="url(#clipPath22)"><tspan
         style="font-variant:normal;font-weight:700;font-size:18px;font-family:Helvetica;writing-mode:lr-tb;fill:#000000;fill-opacity:1;fill-rule:nonzero;stroke:none"
         x="0 10.010742 15.011719 25.022461 35.033203 45.043945 50.044922 66.375 76.385742 81.386719"
         y="0"
         sodipodi:role="line"
         id="tspan21">class Wall</tspan></text>
    <path
       id="path23"
       d="M 421,41 H 711 V 81 H 421 Z"
       style="fill:#ffffff;fill-opacity:1;fill-rule:nonzero;stroke:#000000;stroke-width:1;stroke-linecap:butt;stroke-linejoin:miter;stroke-miterlimit:10;stroke-dasharray:none;stroke-opacity:1"
       transform="matrix(0.95713023,0,0,0.95713023,0.47856512,0.47856512)"
       clip-path="url(#clipPath24)" />
    <text
       id="text24"
       xml:space="preserve"
       transform="matrix(0.95713986,0,0,0.95713986,497.20425,65.085511)"
       clip-path="url(#clipPath25)"><tspan
         style="font-variant:normal;font-weight:normal;font-size:18px;font-family:Helvetica;writing-mode:lr-tb;fill:#000000;fill-opacity:1;fill-rule:nonzero;stroke:none"
         x="0 9 19.010742 23.009766 33.020508 39.014648 44.015625 49.016602 58.016602 63.017578 69.011719 73.010742 83.021484"
         y="0"
         sodipodi:role="line"
         id="tspan24">color: string</tspan></text>
    <path
       id="path26"
       d="M 1,41 H 291 V 81 H 1 Z"
       style="fill:#ffffff;fill-opacity:1;fill-rule:nonzero;stroke:#000000;stroke-width:1;stroke-linecap:butt;stroke-linejoin:miter;stroke-miterlimit:10;stroke-dasharray:none;stroke-opacity:1"
       transform="matrix(0.95713023,0,0,0.95713023,0.47856512,0.47856512)"
       clip-path="url(#clipPath27)" />
    <text
       id="text27"
       xml:space="preserve"
       transform="matrix(0.95713986,0,0,0.95713986,82.269162,65.085511)"
       clip-path="url(#clipPath28)"><tspan
         style="font-variant:normal;font-weight:normal;font-size:18px;font-family:Helvetica;writing-mode:lr-tb;fill:#000000;fill-opacity:1;fill-rule:nonzero;stroke:none"
         x="0 10.010742 20.021484 24.020508 34.03125 44.041992 49.042969 54.043945 59.044922 69.055664 79.066406 94.060547 104.07129 114.08203"
         y="0"
         sodipodi:role="line"
         id="tspan27">height: number</tspan></text>
    <path
       id="path29"
       d="M 291,21 H 414.64001"
       style="fill:none;stroke:#000000;stroke-width:1;stroke-linecap:butt;stroke-linejoin:miter;stroke-miterlimit:10;stroke-dasharray:none;stroke-opacity:1"
       transform="matrix(0.95713023,0,0,0.95713023,0.47856512,0.47856512)"
       clip-path="url(#clipPath30)" />
    <path
       id="path31"
       d="m 419.89001,21 -7,3.5 1.75,-3.5 -1.75,-3.5 z"
       style="fill:#000000;fill-opacity:1;fill-rule:nonzero;stroke:#000000;stroke-width:1;stroke-linecap:butt;stroke-linejoin:miter;stroke-miterlimit:10;stroke-dasharray:none;stroke-opacity:1"
       transform="matrix(0.95713023,0,0,0.95713023,0.47856512,0.47856512)"
       clip-path="url(#clipPath32)" />
    <path
       id="path33"
       d="m 291,21 h 65 v 100 h 58.64001"
       style="fill:none;stroke:#000000;stroke-width:1;stroke-linecap:butt;stroke-linejoin:miter;stroke-miterlimit:10;stroke-dasharray:none;stroke-opacity:1"
       transform="matrix(0.95713023,0,0,0.95713023,0.47856512,0.47856512)"
       clip-path="url(#clipPath34)" />
    <path
       id="path35"
       d="m 419.89001,121 -7,3.5 1.75,-3.5 -1.75,-3.5 z"
       style="fill:#000000;fill-opacity:1;fill-rule:nonzero;stroke:#000000;stroke-width:1;stroke-linecap:butt;stroke-linejoin:miter;stroke-miterlimit:10;stroke-dasharray:none;stroke-opacity:1"
       transform="matrix(0.95713023,0,0,0.95713023,0.47856512,0.47856512)"
       clip-path="url(#clipPath36)" />
    <path
       id="path37"
       d="M 1,1 H 291 V 41 H 1 Z"
       style="fill:#dae8fc;fill-opacity:1;fill-rule:nonzero;stroke:#6c8ebf;stroke-width:1;stroke-linecap:butt;stroke-linejoin:miter;stroke-miterlimit:10;stroke-dasharray:none;stroke-opacity:1"
       transform="matrix(0.95713023,0,0,0.95713023,0.47856512,0.47856512)"
       clip-path="url(#clipPath38)" />
    <text
       id="text38"
       xml:space="preserve"
       transform="matrix(0.95713986,0,0,0.95713986,74.612043,26.799916)"
       clip-path="url(#clipPath39)"><tspan
         style="font-variant:normal;font-weight:700;font-size:18px;font-family:Helvetica;writing-mode:lr-tb;fill:#000000;fill-opacity:1;fill-rule:nonzero;stroke:none"
         x="0 10.010742 15.011719 25.022461 35.033203 45.043945 50.044922 63.043945 73.054688 83.06543 89.05957 99.070312 110.06543 121.06055 126.06152"
         y="0"
         sodipodi:role="line"
         id="tspan38">class Rectangle</tspan></text>
    <path
       id="path40"
       d="m 1,81 h 290 v 40 H 1 Z"
       style="fill:#ffffff;fill-opacity:1;fill-rule:nonzero;stroke:#000000;stroke-width:1;stroke-linecap:butt;stroke-linejoin:miter;stroke-miterlimit:10;stroke-dasharray:none;stroke-opacity:1"
       transform="matrix(0.95713023,0,0,0.95713023,0.47856512,0.47856512)"
       clip-path="url(#clipPath41)" />
    <text
       id="text41"
       xml:space="preserve"
       transform="matrix(0.95713986,0,0,0.95713986,85.634107,103.37111)"
       clip-path="url(#clipPath42)"><tspan
         style="font-variant:normal;font-weight:normal;font-size:18px;font-family:Helvetica;writing-mode:lr-tb;fill:#000000;fill-opacity:1;fill-rule:nonzero;stroke:none"
         x="0 12.999023 16.998047 27.008789 32.009766 42.020508 47.021484 52.022461 62.033203 72.043945 87.038086 97.048828 107.05957"
         y="0"
         sodipodi:role="line"
         id="tspan41">width: number</tspan></text>
    <path
       id="path43"
       d="m 1,121 h 290 v 40 H 1 Z"
       style="fill:#ffffff;fill-opacity:1;fill-rule:nonzero;stroke:#000000;stroke-width:1;stroke-linecap:butt;stroke-linejoin:miter;stroke-miterlimit:10;stroke-dasharray:none;stroke-opacity:1"
       transform="matrix(0.95713023,0,0,0.95713023,0.47856512,0.47856512)"
       clip-path="url(#clipPath44)" />
    <text
       id="text44"
       xml:space="preserve"
       transform="matrix(0.95713986,0,0,0.95713986,82.762688,141.6567)"
       clip-path="url(#clipPath45)"><tspan
         style="font-variant:normal;font-weight:normal;font-size:18px;font-family:Helvetica;writing-mode:lr-tb;fill:#000000;fill-opacity:1;fill-rule:nonzero;stroke:none"
         x="0 10.010742 16.004883 26.015625 36.026367 42.020508 48.014648 53.015625 58.016602 68.027344 78.038086 93.032227 103.04297 113.05371"
         y="0"
         sodipodi:role="line"
         id="tspan44">area(): number</tspan></text>
    <path
       id="path46"
       d="m 1,291 h 290 v 40 H 1 Z"
       style="fill:#ffffff;fill-opacity:1;fill-rule:nonzero;stroke:#000000;stroke-width:1;stroke-linecap:butt;stroke-linejoin:miter;stroke-miterlimit:10;stroke-dasharray:none;stroke-opacity:1"
       transform="matrix(0.95713023,0,0,0.95713023,0.47856512,0.47856512)"
       clip-path="url(#clipPath47)" />
    <text
       id="text47"
       xml:space="preserve"
       transform="matrix(0.95713986,0,0,0.95713986,82.284118,304.37048)"
       clip-path="url(#clipPath48)"><tspan
         style="font-variant:normal;font-weight:normal;font-size:18px;font-family:Helvetica;writing-mode:lr-tb;fill:#000000;fill-opacity:1;fill-rule:nonzero;stroke:none"
         x="0 5.9941406 16.004883 26.015625 30.014648 40.025391 49.025391 54.026367 59.027344 69.038086 79.048828 94.042969 104.05371 114.06445"
         y="0"
         sodipodi:role="line"
         id="tspan47">radius: number</tspan></text>
    <path
       id="path49"
       d="M 291,271 H 414.64001"
       style="fill:none;stroke:#000000;stroke-width:1;stroke-linecap:butt;stroke-linejoin:miter;stroke-miterlimit:10;stroke-dasharray:none;stroke-opacity:1"
       transform="matrix(0.95713023,0,0,0.95713023,0.47856512,0.47856512)"
       clip-path="url(#clipPath50)" />
    <path
       id="path51"
       d="m 419.89001,271 -7,3.5 1.75,-3.5 -1.75,-3.5 z"
       style="fill:#000000;fill-opacity:1;fill-rule:nonzero;stroke:#000000;stroke-width:1;stroke-linecap:butt;stroke-linejoin:miter;stroke-miterlimit:10;stroke-dasharray:none;stroke-opacity:1"
       transform="matrix(0.95713023,0,0,0.95713023,0.47856512,0.47856512)"
       clip-path="url(#clipPath52)" />
    <path
       id="path53"
       d="m 1,251 h 290 v 40 H 1 Z"
       style="fill:#dae8fc;fill-opacity:1;fill-rule:nonzero;stroke:#6c8ebf;stroke-width:1;stroke-linecap:butt;stroke-linejoin:miter;stroke-miterlimit:10;stroke-dasharray:none;stroke-opacity:1"
       transform="matrix(0.95713023,0,0,0.95713023,0.47856512,0.47856512)"
       clip-path="url(#clipPath54)" />
    <text
       id="text54"
       xml:space="preserve"
       transform="matrix(0.95713986,0,0,0.95713986,91.840561,266.08488)"
       clip-path="url(#clipPath55)"><tspan
         style="font-variant:normal;font-weight:700;font-size:18px;font-family:Helvetica;writing-mode:lr-tb;fill:#000000;fill-opacity:1;fill-rule:nonzero;stroke:none"
         x="0 10.010742 15.011719 25.022461 35.033203 45.043945 50.044922 63.043945 68.044922 75.049805 85.060547 90.061523"
         y="0"
         sodipodi:role="line"
         id="tspan54">class Circle</tspan></text>
    <path
       id="path56"
       d="m 1,331 h 290 v 40 H 1 Z"
       style="fill:#ffffff;fill-opacity:1;fill-rule:nonzero;stroke:#000000;stroke-width:1;stroke-linecap:butt;stroke-linejoin:miter;stroke-miterlimit:10;stroke-dasharray:none;stroke-opacity:1"
       transform="matrix(0.95713023,0,0,0.95713023,0.47856512,0.47856512)"
       clip-path="url(#clipPath57)" />
    <text
       id="text57"
       xml:space="preserve"
       transform="matrix(0.95713986,0,0,0.95713986,82.762688,342.65607)"
       clip-path="url(#clipPath58)"><tspan
         style="font-variant:normal;font-weight:normal;font-size:18px;font-family:Helvetica;writing-mode:lr-tb;fill:#000000;fill-opacity:1;fill-rule:nonzero;stroke:none"
         x="0 10.010742 16.004883 26.015625 36.026367 42.020508 48.014648 53.015625 58.016602 68.027344 78.038086 93.032227 103.04297 113.05371"
         y="0"
         sodipodi:role="line"
         id="tspan57">area(): number</tspan></text>
    <path
       id="path59"
       d="m 421,251 h 290 v 40 H 421 Z"
       style="fill:#dae8fc;fill-opacity:1;fill-rule:nonzero;stroke:#6c8ebf;stroke-width:1;stroke-linecap:butt;stroke-linejoin:miter;stroke-miterlimit:10;stroke-dasharray:none;stroke-opacity:1"
       transform="matrix(0.95713023,0,0,0.95713023,0.47856512,0.47856512)"
       clip-path="url(#clipPath60)" />
    <text
       id="text60"
       xml:space="preserve"
       transform="matrix(0.95713986,0,0,0.95713986,460.90772,266.08488)"
       clip-path="url(#clipPath61)"><tspan
         style="font-variant:normal;font-weight:700;font-size:18px;font-family:Helvetica;writing-mode:lr-tb;fill:#000000;fill-opacity:1;fill-rule:nonzero;stroke:none"
         x="0 10.010742 15.011719 25.022461 35.033203 45.043945 50.044922 63.043945 68.044922 75.049805 85.060547 90.061523 100.07227 116.90332 121.9043 132.89941 143.89453 154.88965"
         y="0"
         sodipodi:role="line"
         id="tspan60">class CircleWindow</tspan></text>
    <path
       id="path62"
       d="m 421,291 h 290 v 40 H 421 Z"
       style="fill:#ffffff;fill-opacity:1;fill-rule:nonzero;stroke:#000000;stroke-width:1;stroke-linecap:butt;stroke-linejoin:miter;stroke-miterlimit:10;stroke-dasharray:none;stroke-opacity:1"
       transform="matrix(0.95713023,0,0,0.95713023,0.47856512,0.47856512)"
       clip-path="url(#clipPath63)" />
    <text
       id="text63"
       xml:space="preserve"
       transform="matrix(0.95713986,0,0,0.95713986,487.12437,304.37048)"
       clip-path="url(#clipPath64)"><tspan
         style="font-variant:normal;font-weight:normal;font-size:18px;font-family:Helvetica;writing-mode:lr-tb;fill:#000000;fill-opacity:1;fill-rule:nonzero;stroke:none"
         x="0 10.010742 20.021484 30.032227 40.042969 45.043945 50.044922 60.055664 70.066406 80.077148 84.076172 94.086914 104.09766"
         y="0"
         sodipodi:role="line"
         id="tspan63">open: boolean</tspan></text>
    <path
       id="path65"
       d="m 421,331 h 290 v 40 H 421 Z"
       style="fill:#ffffff;fill-opacity:1;fill-rule:nonzero;stroke:#000000;stroke-width:1;stroke-linecap:butt;stroke-linejoin:miter;stroke-miterlimit:10;stroke-dasharray:none;stroke-opacity:1"
       transform="matrix(0.95713023,0,0,0.95713023,0.47856512,0.47856512)"
       clip-path="url(#clipPath66)" />
    <text
       id="text66"
       xml:space="preserve"
       transform="matrix(0.95713986,0,0,0.95713986,470.86795,342.65607)"
       clip-path="url(#clipPath67)"><tspan
         style="font-variant:normal;font-weight:normal;font-size:18px;font-family:Helvetica;writing-mode:lr-tb;fill:#000000;fill-opacity:1;fill-rule:nonzero;stroke:none"
         x="0 5.0009766 15.011719 25.022461 35.033203 39.032227 49.042969 63.043945 73.054688 83.06543 93.076172 99.070312 105.06445 110.06543 115.06641 124.06641 134.07715 138.07617"
         y="0"
         sodipodi:role="line"
         id="tspan66">toggleOpen(): void</tspan></text>
  </g>
</svg>
