<?xml version="1.0" encoding="UTF-8" standalone="no"?>
<!-- Created with Inkscape (http://www.inkscape.org/) -->

<svg
   version="1.1"
   id="svg1"
   width="501.44"
   height="138.56"
   viewBox="0 0 501.44 138.56"
   sodipodi:docname="ts-1.pdf"
   xmlns:inkscape="http://www.inkscape.org/namespaces/inkscape"
   xmlns:sodipodi="http://sodipodi.sourceforge.net/DTD/sodipodi-0.dtd"
   xmlns="http://www.w3.org/2000/svg"
   xmlns:svg="http://www.w3.org/2000/svg">
  <defs
     id="defs1">
    <clipPath
       clipPathUnits="userSpaceOnUse"
       id="clipPath2">
      <path
         d="M 0,0 H 1566.6665 V 430.53433 H 0 Z"
         transform="scale(0.33446811)"
         clip-rule="evenodd"
         id="path2" />
    </clipPath>
    <clipPath
       clipPathUnits="userSpaceOnUse"
       id="clipPath4">
      <path
         d="M 0,0 H 1566.6665 V 430.53433 H 0 Z"
         transform="matrix(0.33446811,0,0,0.33446811,-0.5,-0.5)"
         clip-rule="evenodd"
         id="path4" />
    </clipPath>
    <clipPath
       clipPathUnits="userSpaceOnUse"
       id="clipPath5">
      <path
         d="M 0,0 H 1566.6665 V 430.53433 H 0 Z"
         transform="matrix(0.33446475,0,0,0.33446475,-22.46875,-78)"
         clip-rule="evenodd"
         id="path5" />
    </clipPath>
    <clipPath
       clipPathUnits="userSpaceOnUse"
       id="clipPath7">
      <path
         d="M 0,0 H 1566.6665 V 430.53433 H 0 Z"
         transform="matrix(0.33446811,0,0,0.33446811,-0.5,-0.5)"
         clip-rule="evenodd"
         id="path7" />
    </clipPath>
    <clipPath
       clipPathUnits="userSpaceOnUse"
       id="clipPath9">
      <path
         d="M 0,0 H 1566.6665 V 430.53433 H 0 Z"
         transform="matrix(0.33446811,0,0,0.33446811,-0.5,-0.5)"
         clip-rule="evenodd"
         id="path9" />
    </clipPath>
    <clipPath
       clipPathUnits="userSpaceOnUse"
       id="clipPath10">
      <path
         d="M 0,0 H 1566.6665 V 430.53433 H 0 Z"
         transform="matrix(0.33446475,0,0,0.33446475,-177.51563,-18)"
         clip-rule="evenodd"
         id="path10" />
    </clipPath>
    <clipPath
       clipPathUnits="userSpaceOnUse"
       id="clipPath11">
      <path
         d="M 0,0 H 1566.6665 V 430.53433 H 0 Z"
         transform="matrix(0.33446475,0,0,0.33446475,-314.46875,-35.000001)"
         clip-rule="evenodd"
         id="path11" />
    </clipPath>
    <clipPath
       clipPathUnits="userSpaceOnUse"
       id="clipPath13">
      <path
         d="M 0,0 H 1566.6665 V 430.53433 H 0 Z"
         transform="matrix(0.33446811,0,0,0.33446811,-0.5,-0.5)"
         clip-rule="evenodd"
         id="path13" />
    </clipPath>
    <clipPath
       clipPathUnits="userSpaceOnUse"
       id="clipPath14">
      <path
         d="M 0,0 H 1566.6665 V 430.53433 H 0 Z"
         transform="matrix(0.33446475,0,0,0.33446475,-247.15625,-68)"
         clip-rule="evenodd"
         id="path14" />
    </clipPath>
    <clipPath
       clipPathUnits="userSpaceOnUse"
       id="clipPath15">
      <path
         d="M 0,0 H 1566.6665 V 430.53433 H 0 Z"
         transform="matrix(0.33446475,0,0,0.33446475,-199.29688,-85.000001)"
         clip-rule="evenodd"
         id="path15" />
    </clipPath>
    <clipPath
       clipPathUnits="userSpaceOnUse"
       id="clipPath17">
      <path
         d="M 0,0 H 1566.6665 V 430.53433 H 0 Z"
         transform="matrix(0.33446811,0,0,0.33446811,-0.5,-0.5)"
         clip-rule="evenodd"
         id="path17" />
    </clipPath>
    <clipPath
       clipPathUnits="userSpaceOnUse"
       id="clipPath18">
      <path
         d="M 0,0 H 1566.6665 V 430.53433 H 0 Z"
         transform="matrix(0.33446475,0,0,0.33446475,-219.14063,-126.00001)"
         clip-rule="evenodd"
         id="path18" />
    </clipPath>
  </defs>
  <sodipodi:namedview
     id="namedview1"
     pagecolor="#ffffff"
     bordercolor="#000000"
     borderopacity="0.25"
     inkscape:showpageshadow="2"
     inkscape:pageopacity="0.0"
     inkscape:pagecheckerboard="0"
     inkscape:deskcolor="#d1d1d1">
    <inkscape:page
       x="0"
       y="0"
       inkscape:label="1"
       id="page1"
       width="501.44"
       height="138.56"
       margin="0"
       bleed="0" />
  </sodipodi:namedview>
  <g
     id="g1"
     inkscape:groupmode="layer"
     inkscape:label="1">
    <path
       id="path1"
       d="M 0,0 H 524 V 144 H 0 Z"
       style="fill:#ffffff;fill-opacity:1;fill-rule:nonzero;stroke:none"
       transform="scale(0.9567429)"
       clip-path="url(#clipPath2)" />
    <path
       id="path3"
       d="m 1,41 h 120 v 60 H 1 Z"
       style="fill:#dae8fc;fill-opacity:1;fill-rule:nonzero;stroke:#6c8ebf;stroke-width:1;stroke-linecap:butt;stroke-linejoin:miter;stroke-miterlimit:10;stroke-dasharray:none;stroke-opacity:1"
       transform="matrix(0.9567429,0,0,0.9567429,0.47837145,0.47837145)"
       clip-path="url(#clipPath4)" />
    <text
       id="text4"
       xml:space="preserve"
       transform="matrix(0.9567525,0,0,0.9567525,21.497033,74.626695)"
       clip-path="url(#clipPath5)"><tspan
         style="font-variant:normal;font-weight:700;font-size:18px;font-family:Helvetica;writing-mode:lr-tb;fill:#000000;fill-opacity:1;fill-rule:nonzero;stroke:none"
         x="0 14.000977 24.011719 35.006836 45.017578 52.022461 57.023438 67.03418"
         y="0"
         sodipodi:role="line"
         id="tspan4">Generics</tspan></text>
    <path
       id="path6"
       d="m 161,1 h -10 c -6.66667,0 -10,3.333333 -10,10 v 50 c 0,6.666664 -3.33333,10 -10,10 h -5 c -3.33334,0 -1.66666,0 5,0 h 5 c 3.33333,0 5,3.333336 5,10 v 50 c 0,6.66667 3.33333,10 10,10 h 10"
       style="fill:none;stroke:#000000;stroke-width:1;stroke-linecap:butt;stroke-linejoin:miter;stroke-miterlimit:10;stroke-dasharray:none;stroke-opacity:1"
       transform="matrix(0.9567429,0,0,0.9567429,0.47837145,0.47837145)"
       clip-path="url(#clipPath7)" />
    <path
       id="path8"
       d="M 171,1 H 521 V 41 H 171 Z"
       style="fill:#ffffff;fill-opacity:1;fill-rule:nonzero;stroke:#000000;stroke-width:1;stroke-linecap:butt;stroke-linejoin:miter;stroke-miterlimit:10;stroke-dasharray:none;stroke-opacity:1"
       transform="matrix(0.9567429,0,0,0.9567429,0.47837145,0.47837145)"
       clip-path="url(#clipPath9)" />
    <text
       id="text9"
       xml:space="preserve"
       transform="matrix(0.9567525,0,0,0.9567525,169.83852,17.221545)"
       clip-path="url(#clipPath10)"><tspan
         style="font-variant:normal;font-weight:normal;font-size:14px;font-family:Helvetica;writing-mode:lr-tb;fill:#000000;fill-opacity:1;fill-rule:nonzero;stroke:none"
         x="0 7.7861328 10.896484 17.896484 25.682617 29.572266 33.461914 41.248047 49.03418 56.03418 59.923828 63.03418 70.820312 78.606445 82.496094 90.282227 94.944336 102.73047 110.5166 122.17871 129.96484 137.75098 141.64062 148.64062 152.53027 156.41992 164.20605 171.99219 175.88184 179.77148 183.66113 191.44727 196.10938 199.99902 203.88867 210.88867 218.6748 226.46094 233.46094 237.35059 240.46094 248.24707 252.13672 259.13672 262.24707 270.0332 277.0332 284.0332 287.92285 291.8125 299.59863 307.38477 314.38477 318.27441 321.38477 329.1709"
         y="0"
         sodipodi:role="line"
         id="tspan9">Like function arguments, but for types in class/function</tspan></text>
    <g
       id="g10" />
    <text
       id="text10"
       xml:space="preserve"
       transform="matrix(0.9567525,0,0,0.9567525,300.86876,33.486338)"
       clip-path="url(#clipPath11)"><tspan
         style="font-variant:normal;font-weight:normal;font-size:14px;font-family:Helvetica;writing-mode:lr-tb;fill:#000000;fill-opacity:1;fill-rule:nonzero;stroke:none"
         x="0 7.7861328 15.572266 22.572266 30.358398 33.46875 37.358398 40.46875 48.254883 56.041016"
         y="0"
         sodipodi:role="line"
         id="tspan10">deﬁnitions</tspan></text>
    <path
       id="path12"
       d="M 171,51 H 521 V 91 H 171 Z"
       style="fill:#ffffff;fill-opacity:1;fill-rule:nonzero;stroke:#000000;stroke-width:1;stroke-linecap:butt;stroke-linejoin:miter;stroke-miterlimit:10;stroke-dasharray:none;stroke-opacity:1"
       transform="matrix(0.9567429,0,0,0.9567429,0.47837145,0.47837145)"
       clip-path="url(#clipPath13)" />
    <g
       id="g13" />
    <text
       id="text13"
       xml:space="preserve"
       transform="matrix(0.9567525,0,0,0.9567525,236.46736,65.05917)"
       clip-path="url(#clipPath14)"><tspan
         style="font-variant:normal;font-weight:normal;font-size:14px;font-family:Helvetica;writing-mode:lr-tb;fill:#000000;fill-opacity:1;fill-rule:nonzero;stroke:none"
         x="0 9.3378906 12.448242 15.558594 23.344727 33.455078 40.455078 44.344727 52.130859 59.130859 63.020508 66.910156 74.696289 78.585938 86.37207 94.158203 101.1582 108.94434 116.73047 120.62012 124.50977 132.2959 140.08203 143.97168 147.86133 154.86133 162.64746 170.43359 174.32324 182.10938 185.99902 189.88867"
         y="0"
         sodipodi:role="line"
         id="tspan13">Allows us to deﬁne the type of a</tspan></text>
    <text
       id="text14"
       xml:space="preserve"
       transform="matrix(0.9567525,0,0,0.9567525,190.67779,81.323963)"
       clip-path="url(#clipPath15)"><tspan
         style="font-variant:normal;font-weight:normal;font-size:14px;font-family:Helvetica;writing-mode:lr-tb;fill:#000000;fill-opacity:1;fill-rule:nonzero;stroke:none"
         x="0 7.7861328 12.448242 20.234375 28.020508 35.806641 40.46875 44.358398 51.358398 55.248047 63.03418 67.696289 75.482422 83.268555 94.930664 102.7168 110.50293 114.39258 118.28223 122.94434 130.73047 134.62012 142.40625 147.06836 154.85449 158.74414 165.74414 173.53027 176.64062 184.42676 192.21289 196.10254 203.88867 207.77832 211.66797 219.4541 223.34375 227.2334 235.01953 238.90918 246.69531 251.35742 259.14355 263.0332 270.81934 278.60547 281.71582 289.50195"
         y="0"
         sodipodi:role="line"
         id="tspan14">property/argument/return value at a future point</tspan></text>
    <path
       id="path16"
       d="m 171,101 h 350 v 40 H 171 Z"
       style="fill:#ffffff;fill-opacity:1;fill-rule:nonzero;stroke:#000000;stroke-width:1;stroke-linecap:butt;stroke-linejoin:miter;stroke-miterlimit:10;stroke-dasharray:none;stroke-opacity:1"
       transform="matrix(0.9567429,0,0,0.9567429,0.47837145,0.47837145)"
       clip-path="url(#clipPath17)" />
    <text
       id="text17"
       xml:space="preserve"
       transform="matrix(0.9567525,0,0,0.9567525,209.66335,120.55082)"
       clip-path="url(#clipPath18)"><tspan
         style="font-variant:normal;font-weight:normal;font-size:14px;font-family:Helvetica;writing-mode:lr-tb;fill:#000000;fill-opacity:1;fill-rule:nonzero;stroke:none"
         x="0 10.110352 17.110352 24.896484 32.682617 36.572266 44.358398 52.144531 59.930664 66.930664 70.041016 73.151367 80.151367 84.041016 94.151367 101.9375 109.72363 117.50977 121.39941 131.50977 136.17188 139.28223 143.17188 146.28223 154.06836 161.85449 165.74414 170.40625 178.19238 185.97852 192.97852 200.76465 208.55078 211.66113 219.44727 223.33691 230.33691 238.12305 245.90918"
         y="0"
         sodipodi:role="line"
         id="tspan17">Used heavily when writing reusable code</tspan></text>
  </g>
</svg>
