<?xml version="1.0" encoding="UTF-8" standalone="no"?>
<!-- Created with Inkscape (http://www.inkscape.org/) -->

<svg
   version="1.1"
   id="svg1"
   width="521.27997"
   height="234.56"
   viewBox="0 0 521.27997 234.56"
   sodipodi:docname="ts-8.pdf"
   xmlns:inkscape="http://www.inkscape.org/namespaces/inkscape"
   xmlns:sodipodi="http://sodipodi.sourceforge.net/DTD/sodipodi-0.dtd"
   xmlns="http://www.w3.org/2000/svg"
   xmlns:svg="http://www.w3.org/2000/svg">
  <defs
     id="defs1">
    <clipPath
       clipPathUnits="userSpaceOnUse"
       id="clipPath2">
      <path
         d="M 0,0 H 1629.1666 V 730.72913 H 0 Z"
         transform="scale(0.33391306)"
         clip-rule="evenodd"
         id="path2" />
    </clipPath>
    <clipPath
       clipPathUnits="userSpaceOnUse"
       id="clipPath4">
      <path
         d="M 0,0 H 1629.1666 V 730.72913 H 0 Z"
         transform="matrix(0.33391306,0,0,0.33391306,-0.5,-0.5)"
         clip-rule="evenodd"
         id="path4" />
    </clipPath>
    <clipPath
       clipPathUnits="userSpaceOnUse"
       id="clipPath5">
      <path
         d="M 0,0 H 1629.1666 V 730.72913 H 0 Z"
         transform="matrix(0.33390972,0,0,0.33390972,-335.95313,-148)"
         clip-rule="evenodd"
         id="path5" />
    </clipPath>
    <clipPath
       clipPathUnits="userSpaceOnUse"
       id="clipPath7">
      <path
         d="M 0,0 H 1629.1666 V 730.72913 H 0 Z"
         transform="matrix(0.33391306,0,0,0.33391306,-0.5,-0.5)"
         clip-rule="evenodd"
         id="path7" />
    </clipPath>
    <clipPath
       clipPathUnits="userSpaceOnUse"
       id="clipPath8">
      <path
         d="M 0,0 H 1629.1666 V 730.72913 H 0 Z"
         transform="matrix(0.33390972,0,0,0.33390972,-336.5625,-28.000001)"
         clip-rule="evenodd"
         id="path8" />
    </clipPath>
    <clipPath
       clipPathUnits="userSpaceOnUse"
       id="clipPath10">
      <path
         d="M 0,0 H 1629.1666 V 730.72913 H 0 Z"
         transform="matrix(0.33391306,0,0,0.33391306,-0.5,-0.5)"
         clip-rule="evenodd"
         id="path10" />
    </clipPath>
    <clipPath
       clipPathUnits="userSpaceOnUse"
       id="clipPath11">
      <path
         d="M 0,0 H 1629.1666 V 730.72913 H 0 Z"
         transform="matrix(0.33390972,0,0,0.33390972,-338.9375,-68)"
         clip-rule="evenodd"
         id="path11" />
    </clipPath>
    <clipPath
       clipPathUnits="userSpaceOnUse"
       id="clipPath13">
      <path
         d="M 0,0 H 1629.1666 V 730.72913 H 0 Z"
         transform="matrix(0.33391306,0,0,0.33391306,-0.5,-0.5)"
         clip-rule="evenodd"
         id="path13" />
    </clipPath>
    <clipPath
       clipPathUnits="userSpaceOnUse"
       id="clipPath14">
      <path
         d="M 0,0 H 1629.1666 V 730.72913 H 0 Z"
         transform="matrix(0.33390972,0,0,0.33390972,-34.3125,-130)"
         clip-rule="evenodd"
         id="path14" />
    </clipPath>
    <clipPath
       clipPathUnits="userSpaceOnUse"
       id="clipPath16">
      <path
         d="M 0,0 H 1629.1666 V 730.72913 H 0 Z"
         transform="matrix(0.33391306,0,0,0.33391306,-0.5,-0.5)"
         clip-rule="evenodd"
         id="path16" />
    </clipPath>
    <clipPath
       clipPathUnits="userSpaceOnUse"
       id="clipPath17">
      <path
         d="M 0,0 H 1629.1666 V 730.72913 H 0 Z"
         transform="matrix(0.33390972,0,0,0.33390972,-339.46875,-188)"
         clip-rule="evenodd"
         id="path17" />
    </clipPath>
    <clipPath
       clipPathUnits="userSpaceOnUse"
       id="clipPath19">
      <path
         d="M 0,0 H 1629.1666 V 730.72913 H 0 Z"
         transform="matrix(0.33391306,0,0,0.33391306,-0.5,-0.5)"
         clip-rule="evenodd"
         id="path19" />
    </clipPath>
    <clipPath
       clipPathUnits="userSpaceOnUse"
       id="clipPath20">
      <path
         d="M 0,0 H 1629.1666 V 730.72913 H 0 Z"
         transform="matrix(0.33390972,0,0,0.33390972,-336.46875,-228)"
         clip-rule="evenodd"
         id="path20" />
    </clipPath>
    <clipPath
       clipPathUnits="userSpaceOnUse"
       id="clipPath22">
      <path
         d="M 0,0 H 1629.1666 V 730.72913 H 0 Z"
         transform="matrix(0.33391306,0,0,0.33391306,-0.5,-0.5)"
         clip-rule="evenodd"
         id="path22" />
    </clipPath>
    <clipPath
       clipPathUnits="userSpaceOnUse"
       id="clipPath23">
      <path
         d="M 0,0 H 1629.1666 V 730.72913 H 0 Z"
         transform="matrix(0.33390972,0,0,0.33390972,-321.95313,-108)"
         clip-rule="evenodd"
         id="path23" />
    </clipPath>
  </defs>
  <sodipodi:namedview
     id="namedview1"
     pagecolor="#ffffff"
     bordercolor="#000000"
     borderopacity="0.25"
     inkscape:showpageshadow="2"
     inkscape:pageopacity="0.0"
     inkscape:pagecheckerboard="0"
     inkscape:deskcolor="#d1d1d1">
    <inkscape:page
       x="0"
       y="0"
       inkscape:label="1"
       id="page1"
       width="521.27997"
       height="234.56"
       margin="0"
       bleed="0" />
  </sodipodi:namedview>
  <g
     id="g1"
     inkscape:groupmode="layer"
     inkscape:label="1">
    <path
       id="path1"
       d="M 0,0 H 544 V 244 H 0 Z"
       style="fill:#ffffff;fill-opacity:1;fill-rule:nonzero;stroke:none"
       transform="scale(0.95833324)"
       clip-path="url(#clipPath2)" />
    <path
       id="path3"
       d="m 251,121 h 290 v 40 H 251 Z"
       style="fill:#ffffff;fill-opacity:1;fill-rule:nonzero;stroke:#000000;stroke-width:1;stroke-linecap:butt;stroke-linejoin:miter;stroke-miterlimit:10;stroke-dasharray:none;stroke-opacity:1"
       transform="matrix(0.95833324,0,0,0.95833324,0.47916662,0.47916662)"
       clip-path="url(#clipPath4)" />
    <text
       id="text4"
       xml:space="preserve"
       transform="matrix(0.95834284,0,0,0.95834284,321.95828,141.83474)"
       clip-path="url(#clipPath5)"><tspan
         style="font-variant:normal;font-weight:normal;font-size:18px;font-family:Helvetica;writing-mode:lr-tb;fill:#000000;fill-opacity:1;fill-rule:nonzero;stroke:none"
         x="0 10.010742 20.021484 24.020508 34.03125 44.041992 49.042969 54.043945 59.044922 69.055664 79.066406 94.060547 104.07129 114.08203"
         y="0"
         sodipodi:role="line"
         id="tspan4">height: number</tspan></text>
    <path
       id="path6"
       d="M 251,1 H 541 V 41 H 251 Z"
       style="fill:#dae8fc;fill-opacity:1;fill-rule:nonzero;stroke:#6c8ebf;stroke-width:1;stroke-linecap:butt;stroke-linejoin:miter;stroke-miterlimit:10;stroke-dasharray:none;stroke-opacity:1"
       transform="matrix(0.95833324,0,0,0.95833324,0.47916662,0.47916662)"
       clip-path="url(#clipPath7)" />
    <text
       id="text7"
       xml:space="preserve"
       transform="matrix(0.95834284,0,0,0.95834284,322.54226,26.8336)"
       clip-path="url(#clipPath8)"><tspan
         style="font-variant:normal;font-weight:700;font-size:18px;font-family:Helvetica;writing-mode:lr-tb;fill:#000000;fill-opacity:1;fill-rule:nonzero;stroke:none"
         x="0 10.010742 15.011719 25.022461 35.033203 45.043945 50.044922 66.875977 71.876953 82.87207 93.867188 104.8623"
         y="0"
         sodipodi:role="line"
         id="tspan7">class Window</tspan></text>
    <path
       id="path9"
       d="M 251,41 H 541 V 81 H 251 Z"
       style="fill:#ffffff;fill-opacity:1;fill-rule:nonzero;stroke:#000000;stroke-width:1;stroke-linecap:butt;stroke-linejoin:miter;stroke-miterlimit:10;stroke-dasharray:none;stroke-opacity:1"
       transform="matrix(0.95833324,0,0,0.95833324,0.47916662,0.47916662)"
       clip-path="url(#clipPath10)" />
    <text
       id="text10"
       xml:space="preserve"
       transform="matrix(0.95834284,0,0,0.95834284,324.81833,65.167313)"
       clip-path="url(#clipPath11)"><tspan
         style="font-variant:normal;font-weight:normal;font-size:18px;font-family:Helvetica;writing-mode:lr-tb;fill:#000000;fill-opacity:1;fill-rule:nonzero;stroke:none"
         x="0 10.010742 20.021484 30.032227 40.042969 45.043945 50.044922 60.055664 70.066406 80.077148 84.076172 94.086914 104.09766"
         y="0"
         sodipodi:role="line"
         id="tspan10">open: boolean</tspan></text>
    <path
       id="path12"
       d="m 1,91 h 200 v 60 H 1 Z"
       style="fill:#fff2cc;fill-opacity:1;fill-rule:nonzero;stroke:#d6b656;stroke-width:1;stroke-linecap:butt;stroke-linejoin:miter;stroke-miterlimit:10;stroke-dasharray:none;stroke-opacity:1"
       transform="matrix(0.95833324,0,0,0.95833324,0.47916662,0.47916662)"
       clip-path="url(#clipPath13)" />
    <text
       id="text13"
       xml:space="preserve"
       transform="matrix(0.95834284,0,0,0.95834284,32.883139,124.58457)"
       clip-path="url(#clipPath14)"><tspan
         style="font-variant:normal;font-weight:700;font-size:25px;font-family:Helvetica;writing-mode:lr-tb;fill:#000000;fill-opacity:1;fill-rule:nonzero;stroke:none"
         x="0 6.9458008 22.216797 37.487793 51.391602 61.120605 68.066406 76.391602 90.29541 105.56641 119.47021"
         y="0"
         sodipodi:role="line"
         id="tspan13">Inheritance</tspan></text>
    <path
       id="path15"
       d="m 251,161 h 290 v 40 H 251 Z"
       style="fill:#ffffff;fill-opacity:1;fill-rule:nonzero;stroke:#000000;stroke-width:1;stroke-linecap:butt;stroke-linejoin:miter;stroke-miterlimit:10;stroke-dasharray:none;stroke-opacity:1"
       transform="matrix(0.95833324,0,0,0.95833324,0.47916662,0.47916662)"
       clip-path="url(#clipPath16)" />
    <text
       id="text16"
       xml:space="preserve"
       transform="matrix(0.95834284,0,0,0.95834284,325.32745,180.16845)"
       clip-path="url(#clipPath17)"><tspan
         style="font-variant:normal;font-weight:normal;font-size:18px;font-family:Helvetica;writing-mode:lr-tb;fill:#000000;fill-opacity:1;fill-rule:nonzero;stroke:none"
         x="0 12.999023 16.998047 27.008789 32.009766 42.020508 47.021484 52.022461 62.033203 72.043945 87.038086 97.048828 107.05957"
         y="0"
         sodipodi:role="line"
         id="tspan16">width: number</tspan></text>
    <path
       id="path18"
       d="m 251,201 h 290 v 40 H 251 Z"
       style="fill:#ffffff;fill-opacity:1;fill-rule:nonzero;stroke:#000000;stroke-width:1;stroke-linecap:butt;stroke-linejoin:miter;stroke-miterlimit:10;stroke-dasharray:none;stroke-opacity:1"
       transform="matrix(0.95833324,0,0,0.95833324,0.47916662,0.47916662)"
       clip-path="url(#clipPath19)" />
    <text
       id="text19"
       xml:space="preserve"
       transform="matrix(0.95834284,0,0,0.95834284,322.45242,218.50217)"
       clip-path="url(#clipPath20)"><tspan
         style="font-variant:normal;font-weight:normal;font-size:18px;font-family:Helvetica;writing-mode:lr-tb;fill:#000000;fill-opacity:1;fill-rule:nonzero;stroke:none"
         x="0 10.010742 16.004883 26.015625 36.026367 42.020508 48.014648 53.015625 58.016602 68.027344 78.038086 93.032227 103.04297 113.05371"
         y="0"
         sodipodi:role="line"
         id="tspan19">area(): number</tspan></text>
    <path
       id="path21"
       d="m 251,81 h 290 v 40 H 251 Z"
       style="fill:#ffffff;fill-opacity:1;fill-rule:nonzero;stroke:#000000;stroke-width:1;stroke-linecap:butt;stroke-linejoin:miter;stroke-miterlimit:10;stroke-dasharray:none;stroke-opacity:1"
       transform="matrix(0.95833324,0,0,0.95833324,0.47916662,0.47916662)"
       clip-path="url(#clipPath22)" />
    <text
       id="text22"
       xml:space="preserve"
       transform="matrix(0.95834284,0,0,0.95834284,308.54148,103.50103)"
       clip-path="url(#clipPath23)"><tspan
         style="font-variant:normal;font-weight:normal;font-size:18px;font-family:Helvetica;writing-mode:lr-tb;fill:#000000;fill-opacity:1;fill-rule:nonzero;stroke:none"
         x="0 5.0009766 15.011719 25.022461 35.033203 39.032227 49.042969 63.043945 73.054688 83.06543 93.076172 99.070312 105.06445 110.06543 115.06641 124.06641 134.07715 138.07617"
         y="0"
         sodipodi:role="line"
         id="tspan22">toggleOpen(): void</tspan></text>
  </g>
</svg>
