<?xml version="1.0" encoding="UTF-8" standalone="no"?>
<!-- Created with Inkscape (http://www.inkscape.org/) -->

<svg
   version="1.1"
   id="svg1"
   width="549.44"
   height="244.16"
   viewBox="0 0 549.44 244.16"
   sodipodi:docname="ts-14.pdf"
   xmlns:inkscape="http://www.inkscape.org/namespaces/inkscape"
   xmlns:sodipodi="http://sodipodi.sourceforge.net/DTD/sodipodi-0.dtd"
   xmlns="http://www.w3.org/2000/svg"
   xmlns:svg="http://www.w3.org/2000/svg">
  <defs
     id="defs1">
    <clipPath
       clipPathUnits="userSpaceOnUse"
       id="clipPath2">
      <path
         d="M 0,0 H 1716.6666 V 759.63989 H 0 Z"
         transform="scale(0.33436894)"
         clip-rule="evenodd"
         id="path2" />
    </clipPath>
    <clipPath
       clipPathUnits="userSpaceOnUse"
       id="clipPath4">
      <path
         d="M 0,0 H 1716.6666 V 759.63989 H 0 Z"
         transform="matrix(0.33436894,0,0,0.33436894,-0.49999999,-0.49999999)"
         clip-rule="evenodd"
         id="path4" />
    </clipPath>
    <clipPath
       clipPathUnits="userSpaceOnUse"
       id="clipPath6">
      <path
         d="M 0,0 H 1716.6666 V 759.63989 H 0 Z"
         transform="matrix(0.33436894,0,0,0.33436894,-0.49999999,-0.49999999)"
         clip-rule="evenodd"
         id="path6" />
    </clipPath>
    <clipPath
       clipPathUnits="userSpaceOnUse"
       id="clipPath8">
      <path
         d="M 0,0 H 1716.6666 V 759.63989 H 0 Z"
         transform="matrix(0.33436894,0,0,0.33436894,-0.49999999,-0.49999999)"
         clip-rule="evenodd"
         id="path8" />
    </clipPath>
    <clipPath
       clipPathUnits="userSpaceOnUse"
       id="clipPath9">
      <path
         d="M 0,0 H 1716.6666 V 759.63989 H 0 Z"
         transform="matrix(0.33436559,0,0,0.33436559,-38.453124,-57.999999)"
         clip-rule="evenodd"
         id="path9" />
    </clipPath>
    <clipPath
       clipPathUnits="userSpaceOnUse"
       id="clipPath11">
      <path
         d="M 0,0 H 1716.6666 V 759.63989 H 0 Z"
         transform="matrix(0.33436894,0,0,0.33436894,-0.49999999,-0.49999999)"
         clip-rule="evenodd"
         id="path11" />
    </clipPath>
    <clipPath
       clipPathUnits="userSpaceOnUse"
       id="clipPath12">
      <path
         d="M 0,0 H 1716.6666 V 759.63989 H 0 Z"
         transform="matrix(0.33436559,0,0,0.33436559,-380.60938,-57.999999)"
         clip-rule="evenodd"
         id="path12" />
    </clipPath>
    <clipPath
       clipPathUnits="userSpaceOnUse"
       id="clipPath14">
      <path
         d="M 0,0 H 1716.6666 V 759.63989 H 0 Z"
         transform="matrix(0.33436894,0,0,0.33436894,-0.49999999,-0.49999999)"
         clip-rule="evenodd"
         id="path14" />
    </clipPath>
    <clipPath
       clipPathUnits="userSpaceOnUse"
       id="clipPath15">
      <path
         d="M 0,0 H 1716.6666 V 759.63989 H 0 Z"
         transform="matrix(0.33436559,0,0,0.33436559,-237.98438,-23)"
         clip-rule="evenodd"
         id="path15" />
    </clipPath>
    <clipPath
       clipPathUnits="userSpaceOnUse"
       id="clipPath17">
      <path
         d="M 0,0 H 1716.6666 V 759.63989 H 0 Z"
         transform="matrix(0.33436894,0,0,0.33436894,-0.49999999,-0.49999999)"
         clip-rule="evenodd"
         id="path17" />
    </clipPath>
    <clipPath
       clipPathUnits="userSpaceOnUse"
       id="clipPath18">
      <path
         d="M 0,0 H 1716.6666 V 759.63989 H 0 Z"
         transform="matrix(0.33436559,0,0,0.33436559,-413.04688,-88)"
         clip-rule="evenodd"
         id="path18" />
    </clipPath>
    <clipPath
       clipPathUnits="userSpaceOnUse"
       id="clipPath20">
      <path
         d="M 0,0 H 1716.6666 V 759.63989 H 0 Z"
         transform="matrix(0.33436894,0,0,0.33436894,-0.49999999,-0.49999999)"
         clip-rule="evenodd"
         id="path20" />
    </clipPath>
    <clipPath
       clipPathUnits="userSpaceOnUse"
       id="clipPath21">
      <path
         d="M 0,0 H 1716.6666 V 759.63989 H 0 Z"
         transform="matrix(0.33436559,0,0,0.33436559,-49.71875,-88)"
         clip-rule="evenodd"
         id="path21" />
    </clipPath>
    <clipPath
       clipPathUnits="userSpaceOnUse"
       id="clipPath23">
      <path
         d="M 0,0 H 1716.6666 V 759.63989 H 0 Z"
         transform="matrix(0.33436894,0,0,0.33436894,-0.49999999,-0.49999999)"
         clip-rule="evenodd"
         id="path23" />
    </clipPath>
    <clipPath
       clipPathUnits="userSpaceOnUse"
       id="clipPath24">
      <path
         d="M 0,0 H 1716.6666 V 759.63989 H 0 Z"
         transform="matrix(0.33436559,0,0,0.33436559,-421.39063,-131.99999)"
         clip-rule="evenodd"
         id="path24" />
    </clipPath>
    <clipPath
       clipPathUnits="userSpaceOnUse"
       id="clipPath26">
      <path
         d="M 0,0 H 1716.6666 V 759.63989 H 0 Z"
         transform="matrix(0.33436894,0,0,0.33436894,-0.49999999,-0.49999999)"
         clip-rule="evenodd"
         id="path26" />
    </clipPath>
    <clipPath
       clipPathUnits="userSpaceOnUse"
       id="clipPath27">
      <path
         d="M 0,0 H 1716.6666 V 759.63989 H 0 Z"
         transform="matrix(0.33436559,0,0,0.33436559,-3.453125,-107.99999)"
         clip-rule="evenodd"
         id="path27" />
    </clipPath>
    <clipPath
       clipPathUnits="userSpaceOnUse"
       id="clipPath29">
      <path
         d="M 0,0 H 1716.6666 V 759.63989 H 0 Z"
         transform="matrix(0.33436894,0,0,0.33436894,-0.49999999,-0.49999999)"
         clip-rule="evenodd"
         id="path29" />
    </clipPath>
    <clipPath
       clipPathUnits="userSpaceOnUse"
       id="clipPath30">
      <path
         d="M 0,0 H 1716.6666 V 759.63989 H 0 Z"
         transform="matrix(0.33436559,0,0,0.33436559,-405.96875,-154)"
         clip-rule="evenodd"
         id="path30" />
    </clipPath>
    <clipPath
       clipPathUnits="userSpaceOnUse"
       id="clipPath32">
      <path
         d="M 0,0 H 1716.6666 V 759.63989 H 0 Z"
         transform="matrix(0.33436894,0,0,0.33436894,-0.49999999,-0.49999999)"
         clip-rule="evenodd"
         id="path32" />
    </clipPath>
    <clipPath
       clipPathUnits="userSpaceOnUse"
       id="clipPath33">
      <path
         d="M 0,0 H 1716.6666 V 759.63989 H 0 Z"
         transform="matrix(0.33436559,0,0,0.33436559,-408.46875,-176)"
         clip-rule="evenodd"
         id="path33" />
    </clipPath>
    <clipPath
       clipPathUnits="userSpaceOnUse"
       id="clipPath35">
      <path
         d="M 0,0 H 1716.6666 V 759.63989 H 0 Z"
         transform="matrix(0.33436894,0,0,0.33436894,-0.49999999,-0.49999999)"
         clip-rule="evenodd"
         id="path35" />
    </clipPath>
    <clipPath
       clipPathUnits="userSpaceOnUse"
       id="clipPath36">
      <path
         d="M 0,0 H 1716.6666 V 759.63989 H 0 Z"
         transform="matrix(0.33436559,0,0,0.33436559,-27.21875,-130)"
         clip-rule="evenodd"
         id="path36" />
    </clipPath>
    <clipPath
       clipPathUnits="userSpaceOnUse"
       id="clipPath38">
      <path
         d="M 0,0 H 1716.6666 V 759.63989 H 0 Z"
         transform="matrix(0.33436894,0,0,0.33436894,-0.49999999,-0.49999999)"
         clip-rule="evenodd"
         id="path38" />
    </clipPath>
    <clipPath
       clipPathUnits="userSpaceOnUse"
       id="clipPath39">
      <path
         d="M 0,0 H 1716.6666 V 759.63989 H 0 Z"
         transform="matrix(0.33436559,0,0,0.33436559,-33.875,-152)"
         clip-rule="evenodd"
         id="path39" />
    </clipPath>
    <clipPath
       clipPathUnits="userSpaceOnUse"
       id="clipPath41">
      <path
         d="M 0,0 H 1716.6666 V 759.63989 H 0 Z"
         transform="matrix(0.33436894,0,0,0.33436894,-0.49999999,-0.49999999)"
         clip-rule="evenodd"
         id="path41" />
    </clipPath>
    <clipPath
       clipPathUnits="userSpaceOnUse"
       id="clipPath42">
      <path
         d="M 0,0 H 1716.6666 V 759.63989 H 0 Z"
         transform="matrix(0.33436559,0,0,0.33436559,-425.5625,-110)"
         clip-rule="evenodd"
         id="path42" />
    </clipPath>
    <clipPath
       clipPathUnits="userSpaceOnUse"
       id="clipPath44">
      <path
         d="M 0,0 H 1716.6666 V 759.63989 H 0 Z"
         transform="matrix(0.33436894,0,0,0.33436894,-0.49999999,-0.49999999)"
         clip-rule="evenodd"
         id="path44" />
    </clipPath>
    <clipPath
       clipPathUnits="userSpaceOnUse"
       id="clipPath45">
      <path
         d="M 0,0 H 1716.6666 V 759.63989 H 0 Z"
         transform="matrix(0.33436559,0,0,0.33436559,-380.96875,-198)"
         clip-rule="evenodd"
         id="path45" />
    </clipPath>
    <clipPath
       clipPathUnits="userSpaceOnUse"
       id="clipPath47">
      <path
         d="M 0,0 H 1716.6666 V 759.63989 H 0 Z"
         transform="matrix(0.33436894,0,0,0.33436894,-0.49999999,-0.49999999)"
         clip-rule="evenodd"
         id="path47" />
    </clipPath>
    <clipPath
       clipPathUnits="userSpaceOnUse"
       id="clipPath48">
      <path
         d="M 0,0 H 1716.6666 V 759.63989 H 0 Z"
         transform="matrix(0.33436559,0,0,0.33436559,-365.95313,-223)"
         clip-rule="evenodd"
         id="path48" />
    </clipPath>
    <clipPath
       clipPathUnits="userSpaceOnUse"
       id="clipPath49">
      <path
         d="M 0,0 H 1716.6666 V 759.63989 H 0 Z"
         transform="matrix(0.33436559,0,0,0.33436559,-436.79688,-241)"
         clip-rule="evenodd"
         id="path49" />
    </clipPath>
  </defs>
  <sodipodi:namedview
     id="namedview1"
     pagecolor="#ffffff"
     bordercolor="#000000"
     borderopacity="0.25"
     inkscape:showpageshadow="2"
     inkscape:pageopacity="0.0"
     inkscape:pagecheckerboard="0"
     inkscape:deskcolor="#d1d1d1">
    <inkscape:page
       x="0"
       y="0"
       inkscape:label="1"
       id="page1"
       width="549.44"
       height="244.16"
       margin="0"
       bleed="0" />
  </sodipodi:namedview>
  <g
     id="g1"
     inkscape:groupmode="layer"
     inkscape:label="1">
    <path
       id="path1"
       d="M 0,0 H 574 V 254 H 0 Z"
       style="fill:#ffffff;fill-opacity:1;fill-rule:nonzero;stroke:none"
       transform="scale(0.95702665)"
       clip-path="url(#clipPath2)" />
    <path
       id="path3"
       d="M 211,51 H 354.64001"
       style="fill:none;stroke:#000000;stroke-width:1;stroke-linecap:butt;stroke-linejoin:miter;stroke-miterlimit:10;stroke-dasharray:none;stroke-opacity:1"
       transform="matrix(0.95702665,0,0,0.95702665,0.47851332,0.47851332)"
       clip-path="url(#clipPath4)" />
    <path
       id="path5"
       d="m 359.89001,51 -7,3.5 1.75,-3.5 -1.75,-3.5 z"
       style="fill:#000000;fill-opacity:1;fill-rule:nonzero;stroke:#000000;stroke-width:1;stroke-linecap:butt;stroke-linejoin:miter;stroke-miterlimit:10;stroke-dasharray:none;stroke-opacity:1"
       transform="matrix(0.95702665,0,0,0.95702665,0.47851332,0.47851332)"
       clip-path="url(#clipPath6)" />
    <path
       id="path7"
       d="M 1,31 H 211 V 71 H 1 Z"
       style="fill:#dae8fc;fill-opacity:1;fill-rule:nonzero;stroke:#6c8ebf;stroke-width:1;stroke-linecap:butt;stroke-linejoin:miter;stroke-miterlimit:10;stroke-dasharray:none;stroke-opacity:1"
       transform="matrix(0.95702665,0,0,0.95702665,0.47851332,0.47851332)"
       clip-path="url(#clipPath8)" />
    <text
       id="text8"
       xml:space="preserve"
       transform="matrix(0.95703625,0,0,0.95703625,36.801034,55.508102)"
       clip-path="url(#clipPath9)"><tspan
         style="font-variant:normal;font-weight:700;font-size:18px;font-family:Helvetica;writing-mode:lr-tb;fill:#000000;fill-opacity:1;fill-rule:nonzero;stroke:none"
         x="0 10.010742 15.011719 25.022461 35.033203 45.043945 50.044922 63.043945 73.054688 83.06543 90.070312 101.06543 112.06055 119.06543"
         y="0"
         sodipodi:role="line"
         id="tspan8">class UserForm</tspan></text>
    <path
       id="path10"
       d="M 361,31 H 571 V 71 H 361 Z"
       style="fill:#dae8fc;fill-opacity:1;fill-rule:nonzero;stroke:#6c8ebf;stroke-width:1;stroke-linecap:butt;stroke-linejoin:miter;stroke-miterlimit:10;stroke-dasharray:none;stroke-opacity:1"
       transform="matrix(0.95702665,0,0,0.95702665,0.47851332,0.47851332)"
       clip-path="url(#clipPath11)" />
    <text
       id="text11"
       xml:space="preserve"
       transform="matrix(0.95703625,0,0,0.95703625,364.25697,55.508102)"
       clip-path="url(#clipPath12)"><tspan
         style="font-variant:normal;font-weight:700;font-size:18px;font-family:Helvetica;writing-mode:lr-tb;fill:#000000;fill-opacity:1;fill-rule:nonzero;stroke:none"
         x="0 5.0009766 15.011719 26.006836 36.017578 42.011719 49.016602 59.027344 69.038086 75.032227 80.033203 90.043945 95.044922 105.05566 115.06641 125.07715 130.07812 141.76758 146.76855 156.7793"
         y="0"
         sodipodi:role="line"
         id="tspan11"> abstract class View</tspan></text>
    <path
       id="path13"
       d="M 181,1 H 391 V 31 H 181 Z"
       style="fill:#f8cecc;fill-opacity:1;fill-rule:nonzero;stroke:#b85450;stroke-width:1;stroke-linecap:butt;stroke-linejoin:miter;stroke-miterlimit:10;stroke-dasharray:none;stroke-opacity:1"
       transform="matrix(0.95702665,0,0,0.95702665,0.47851332,0.47851332)"
       clip-path="url(#clipPath14)" />
    <text
       id="text14"
       xml:space="preserve"
       transform="matrix(0.95703625,0,0,0.95703625,227.75968,22.011834)"
       clip-path="url(#clipPath15)"><tspan
         style="font-variant:normal;font-weight:700;font-size:18px;font-family:Helvetica;writing-mode:lr-tb;fill:#000000;fill-opacity:1;fill-rule:nonzero;stroke:none"
         x="0 5.0009766 15.996094 26.991211 37.001953 44.006836 49.007812 55.001953 65.012695 76.007812 86.018555"
         y="0"
         sodipodi:role="line"
         id="tspan14">Inheritance</tspan></text>
    <path
       id="path16"
       d="M 361,71 H 571 V 93 H 361 Z"
       style="fill:#ffffff;fill-opacity:1;fill-rule:nonzero;stroke:#000000;stroke-width:1;stroke-linecap:butt;stroke-linejoin:miter;stroke-miterlimit:10;stroke-dasharray:none;stroke-opacity:1"
       transform="matrix(0.95702665,0,0,0.95702665,0.47851332,0.47851332)"
       clip-path="url(#clipPath17)" />
    <text
       id="text17"
       xml:space="preserve"
       transform="matrix(0.95703625,0,0,0.95703625,395.30084,84.21919)"
       clip-path="url(#clipPath18)"><tspan
         style="font-variant:normal;font-weight:normal;font-size:15px;font-family:Helvetica;writing-mode:lr-tb;fill:#000000;fill-opacity:1;fill-rule:nonzero;stroke:none"
         x="0 8.3422852 16.68457 21.679688 30.021973 38.364258 42.531738 46.699219 50.866699 60.871582 64.204102 72.546387 85.041504 93.383789 101.72607"
         y="0"
         sodipodi:role="line"
         id="tspan17">parent: Element</tspan></text>
    <path
       id="path19"
       d="M 1,71 H 211 V 93 H 1 Z"
       style="fill:#ffffff;fill-opacity:1;fill-rule:nonzero;stroke:#000000;stroke-width:1;stroke-linecap:butt;stroke-linejoin:miter;stroke-miterlimit:10;stroke-dasharray:none;stroke-opacity:1"
       transform="matrix(0.95702665,0,0,0.95702665,0.47851332,0.47851332)"
       clip-path="url(#clipPath20)" />
    <text
       id="text20"
       xml:space="preserve"
       transform="matrix(0.95703625,0,0,0.95703625,47.582646,84.21919)"
       clip-path="url(#clipPath21)"><tspan
         style="font-variant:normal;font-weight:normal;font-size:15px;font-family:Helvetica;writing-mode:lr-tb;fill:#000000;fill-opacity:1;fill-rule:nonzero;stroke:none"
         x="0 4.1674805 12.509766 25.004883 33.347168 36.679688 45.021973 49.189453 57.531738 62.526855 67.521973 71.689453 75.856934 83.356934 87.524414 92.519531 95.852051 104.19434"
         y="0"
         sodipodi:role="line"
         id="tspan20">template(): string</tspan></text>
    <path
       id="path22"
       d="m 361,115 h 210 v 22 H 361 Z"
       style="fill:#ffffff;fill-opacity:1;fill-rule:nonzero;stroke:#000000;stroke-width:1;stroke-linecap:butt;stroke-linejoin:miter;stroke-miterlimit:10;stroke-dasharray:none;stroke-opacity:1"
       transform="matrix(0.95702665,0,0,0.95702665,0.47851332,0.47851332)"
       clip-path="url(#clipPath23)" />
    <text
       id="text23"
       xml:space="preserve"
       transform="matrix(0.95703625,0,0,0.95703625,403.28611,126.32878)"
       clip-path="url(#clipPath24)"><tspan
         style="font-variant:normal;font-weight:normal;font-size:15px;font-family:Helvetica;writing-mode:lr-tb;fill:#000000;fill-opacity:1;fill-rule:nonzero;stroke:none"
         x="0 4.9951172 13.337402 21.679688 30.021973 38.364258 43.359375 48.354492 53.349609 57.51709 61.68457 69.18457 77.526855 80.859375"
         y="0"
         sodipodi:role="line"
         id="tspan23">render(): void</tspan></text>
    <path
       id="path25"
       d="m 1,91 h 210 v 22 H 1 Z"
       style="fill:#ffffff;fill-opacity:1;fill-rule:nonzero;stroke:#000000;stroke-width:1;stroke-linecap:butt;stroke-linejoin:miter;stroke-miterlimit:10;stroke-dasharray:none;stroke-opacity:1"
       transform="matrix(0.95702665,0,0,0.95702665,0.47851332,0.47851332)"
       clip-path="url(#clipPath26)" />
    <text
       id="text26"
       xml:space="preserve"
       transform="matrix(0.95703625,0,0,0.95703625,3.3047658,103.35991)"
       clip-path="url(#clipPath27)"><tspan
         style="font-variant:normal;font-weight:normal;font-size:15px;font-family:Helvetica;writing-mode:lr-tb;fill:#000000;fill-opacity:1;fill-rule:nonzero;stroke:none"
         x="0 8.3422852 15.842285 24.18457 32.526855 36.694336 44.194336 56.689453 65.031738 73.374023 78.369141 83.364258 87.531738 91.699219 96.708984 100.87646 108.37646 116.71875 124.21875 128.38623 132.55371 137.54883 142.54395 146.71143 155.47119 164.23096 168.39844 175.89844 184.24072 187.57324 195.91553 200.08301"
         y="0"
         sodipodi:role="line"
         id="tspan26">eventsMap(): { key: () =&gt; void }</tspan></text>
    <path
       id="path28"
       d="m 361,137 h 210 v 22 H 361 Z"
       style="fill:#ffffff;fill-opacity:1;fill-rule:nonzero;stroke:#000000;stroke-width:1;stroke-linecap:butt;stroke-linejoin:miter;stroke-miterlimit:10;stroke-dasharray:none;stroke-opacity:1"
       transform="matrix(0.95702665,0,0,0.95702665,0.47851332,0.47851332)"
       clip-path="url(#clipPath29)" />
    <text
       id="text29"
       xml:space="preserve"
       transform="matrix(0.95703625,0,0,0.95703625,388.52681,147.38358)"
       clip-path="url(#clipPath30)"><tspan
         style="font-variant:normal;font-weight:normal;font-size:15px;font-family:Helvetica;writing-mode:lr-tb;fill:#000000;fill-opacity:1;fill-rule:nonzero;stroke:none"
         x="0 8.3422852 11.674805 20.01709 28.359375 38.364258 45.864258 54.206543 62.548828 66.716309 74.216309 79.211426 84.206543 88.374023 92.541504 100.0415 108.38379 111.71631"
         y="0"
         sodipodi:role="line"
         id="tspan29">bindEvents(): void</tspan></text>
    <path
       id="path31"
       d="m 361,159 h 210 v 22 H 361 Z"
       style="fill:#ffffff;fill-opacity:1;fill-rule:nonzero;stroke:#000000;stroke-width:1;stroke-linecap:butt;stroke-linejoin:miter;stroke-miterlimit:10;stroke-dasharray:none;stroke-opacity:1"
       transform="matrix(0.95702665,0,0,0.95702665,0.47851332,0.47851332)"
       clip-path="url(#clipPath32)" />
    <text
       id="text32"
       xml:space="preserve"
       transform="matrix(0.95703625,0,0,0.95703625,390.9194,168.43838)"
       clip-path="url(#clipPath33)"><tspan
         style="font-variant:normal;font-weight:normal;font-size:15px;font-family:Helvetica;writing-mode:lr-tb;fill:#000000;fill-opacity:1;fill-rule:nonzero;stroke:none"
         x="0 8.3422852 11.674805 20.01709 28.359375 40.854492 49.196777 57.539062 65.881348 69.213867 74.208984 79.204102 83.371582 87.539062 95.039062 103.38135 106.71387"
         y="0"
         sodipodi:role="line"
         id="tspan32">bindModel(): void</tspan></text>
    <path
       id="path34"
       d="m 1,113 h 210 v 22 H 1 Z"
       style="fill:#ffffff;fill-opacity:1;fill-rule:nonzero;stroke:#000000;stroke-width:1;stroke-linecap:butt;stroke-linejoin:miter;stroke-miterlimit:10;stroke-dasharray:none;stroke-opacity:1"
       transform="matrix(0.95702665,0,0,0.95702665,0.47851332,0.47851332)"
       clip-path="url(#clipPath35)" />
    <text
       id="text35"
       xml:space="preserve"
       transform="matrix(0.95703625,0,0,0.95703625,26.04933,124.41471)"
       clip-path="url(#clipPath36)"><tspan
         style="font-variant:normal;font-weight:normal;font-size:15px;font-family:Helvetica;writing-mode:lr-tb;fill:#000000;fill-opacity:1;fill-rule:nonzero;stroke:none"
         x="0 8.3422852 16.68457 26.689453 35.031738 39.199219 50.031738 58.374023 70.869141 79.211426 90.043945 93.376465 96.708984 104.20898 111.70898 116.7041 121.69922 125.8667 130.03418 137.53418 145.87646 149.20898"
         y="0"
         sodipodi:role="line"
         id="tspan35">onSetNameClick(): void</tspan></text>
    <path
       id="path37"
       d="m 1,135 h 210 v 22 H 1 Z"
       style="fill:#ffffff;fill-opacity:1;fill-rule:nonzero;stroke:#000000;stroke-width:1;stroke-linecap:butt;stroke-linejoin:miter;stroke-miterlimit:10;stroke-dasharray:none;stroke-opacity:1"
       transform="matrix(0.95702665,0,0,0.95702665,0.47851332,0.47851332)"
       clip-path="url(#clipPath38)" />
    <text
       id="text38"
       xml:space="preserve"
       transform="matrix(0.95703625,0,0,0.95703625,32.419603,145.46951)"
       clip-path="url(#clipPath39)"><tspan
         style="font-variant:normal;font-weight:normal;font-size:15px;font-family:Helvetica;writing-mode:lr-tb;fill:#000000;fill-opacity:1;fill-rule:nonzero;stroke:none"
         x="0 8.3422852 16.68457 26.689453 35.031738 39.199219 49.204102 57.546387 65.888672 76.721191 80.053711 83.38623 90.88623 98.38623 103.38135 108.37646 112.54395 116.71143 124.21143 132.55371 135.88623"
         y="0"
         sodipodi:role="line"
         id="tspan38">onSetAgeClick(): void</tspan></text>
    <path
       id="path40"
       d="m 361,93 h 210 v 22 H 361 Z"
       style="fill:#ffffff;fill-opacity:1;fill-rule:nonzero;stroke:#000000;stroke-width:1;stroke-linecap:butt;stroke-linejoin:miter;stroke-miterlimit:10;stroke-dasharray:none;stroke-opacity:1"
       transform="matrix(0.95702665,0,0,0.95702665,0.47851332,0.47851332)"
       clip-path="url(#clipPath41)" />
    <text
       id="text41"
       xml:space="preserve"
       transform="matrix(0.95703625,0,0,0.95703625,407.27874,105.27399)"
       clip-path="url(#clipPath42)"><tspan
         style="font-variant:normal;font-weight:normal;font-size:15px;font-family:Helvetica;writing-mode:lr-tb;fill:#000000;fill-opacity:1;fill-rule:nonzero;stroke:none"
         x="0 12.495117 20.837402 29.179688 37.521973 40.854492 45.021973 49.189453 60.021973 67.521973 75.864258"
         y="0"
         sodipodi:role="line"
         id="tspan41">model: User</tspan></text>
    <path
       id="path43"
       d="m 361,181 h 210 v 22 H 361 Z"
       style="fill:#ffffff;fill-opacity:1;fill-rule:nonzero;stroke:#000000;stroke-width:1;stroke-linecap:butt;stroke-linejoin:miter;stroke-miterlimit:10;stroke-dasharray:none;stroke-opacity:1"
       transform="matrix(0.95702665,0,0,0.95702665,0.47851332,0.47851332)"
       clip-path="url(#clipPath44)" />
    <text
       id="text44"
       xml:space="preserve"
       transform="matrix(0.95703625,0,0,0.95703625,364.6009,189.49318)"
       clip-path="url(#clipPath45)"><tspan
         style="font-variant:normal;font-weight:normal;font-size:15px;font-family:Helvetica;writing-mode:lr-tb;fill:#000000;fill-opacity:1;fill-rule:nonzero;stroke:none"
         x="0 8.3422852 16.68457 24.18457 28.352051 33.347168 41.689453 49.189453 53.356934 57.524414 61.691895 70.03418 82.529297 90.871582 94.204102 102.54639 106.71387 115.05615 120.05127 125.04639 129.21387 133.38135 140.88135 145.04883 150.04395 153.37646 161.71875"
         y="0"
         sodipodi:role="line"
         id="tspan44">abstract template(): string</tspan></text>
    <path
       id="path46"
       d="m 361,201 h 210 v 50 H 361 Z"
       style="fill:#ffffff;fill-opacity:1;fill-rule:nonzero;stroke:#000000;stroke-width:1;stroke-linecap:butt;stroke-linejoin:miter;stroke-miterlimit:10;stroke-dasharray:none;stroke-opacity:1"
       transform="matrix(0.95702665,0,0,0.95702665,0.47851332,0.47851332)"
       clip-path="url(#clipPath47)" />
    <text
       id="text47"
       xml:space="preserve"
       transform="matrix(0.95703625,0,0,0.95703625,350.23041,213.41908)"
       clip-path="url(#clipPath48)"><tspan
         style="font-variant:normal;font-weight:normal;font-size:15px;font-family:Helvetica;writing-mode:lr-tb;fill:#000000;fill-opacity:1;fill-rule:nonzero;stroke:none"
         x="0 8.3422852 16.68457 24.18457 28.352051 33.347168 41.689453 49.189453 53.356934 57.524414 65.866699 73.366699 81.708984 90.05127 94.21875 101.71875 114.21387 122.55615 130.89844 135.89355 140.88867 145.05615 149.22363 154.2334 158.40088 165.90088 174.24316 181.74316 185.91064 190.07812 195.07324"
         y="0"
         sodipodi:role="line"
         id="tspan47">abstract eventsMap(): { key: ()</tspan></text>
    <text
       id="text48"
       xml:space="preserve"
       transform="matrix(0.95703625,0,0,0.95703625,418.03045,230.64574)"
       clip-path="url(#clipPath49)"><tspan
         style="font-variant:normal;font-weight:normal;font-size:15px;font-family:Helvetica;writing-mode:lr-tb;fill:#000000;fill-opacity:1;fill-rule:nonzero;stroke:none"
         x="0 8.7597656 17.519531 21.687012 29.187012 37.529297 40.861816 49.204102 53.371582"
         y="0"
         sodipodi:role="line"
         id="tspan48">=&gt; void }</tspan></text>
  </g>
</svg>
