<?xml version="1.0" encoding="UTF-8" standalone="no"?>
<!-- Created with Inkscape (http://www.inkscape.org/) -->

<svg
   version="1.1"
   id="svg1"
   width="549.44"
   height="220.15999"
   viewBox="0 0 549.44 220.15999"
   sodipodi:docname="ts-13.pdf"
   xmlns:inkscape="http://www.inkscape.org/namespaces/inkscape"
   xmlns:sodipodi="http://sodipodi.sourceforge.net/DTD/sodipodi-0.dtd"
   xmlns="http://www.w3.org/2000/svg"
   xmlns:svg="http://www.w3.org/2000/svg">
  <defs
     id="defs1">
    <clipPath
       clipPathUnits="userSpaceOnUse"
       id="clipPath2">
      <path
         d="M 0,0 H 1716.6666 V 684.87219 H 0 Z"
         transform="scale(0.33436894)"
         clip-rule="evenodd"
         id="path2" />
    </clipPath>
    <clipPath
       clipPathUnits="userSpaceOnUse"
       id="clipPath4">
      <path
         d="M 0,0 H 1716.6666 V 681.88153 H 0 Z"
         transform="matrix(0.33436894,0,0,0.33436894,-0.49999999,-0.49999999)"
         clip-rule="evenodd"
         id="path4" />
    </clipPath>
    <clipPath
       clipPathUnits="userSpaceOnUse"
       id="clipPath5">
      <path
         d="M 0,0 H 1716.6666 V 681.88153 H 0 Z"
         transform="matrix(0.33436559,0,0,0.33436559,-381.45313,-57.999999)"
         clip-rule="evenodd"
         id="path5" />
    </clipPath>
    <clipPath
       clipPathUnits="userSpaceOnUse"
       id="clipPath7">
      <path
         d="M 0,0 H 1716.6666 V 681.88153 H 0 Z"
         transform="matrix(0.33436894,0,0,0.33436894,-0.49999999,-0.49999999)"
         clip-rule="evenodd"
         id="path7" />
    </clipPath>
    <clipPath
       clipPathUnits="userSpaceOnUse"
       id="clipPath8">
      <path
         d="M 0,0 H 1716.6666 V 681.88153 H 0 Z"
         transform="matrix(0.33436559,0,0,0.33436559,-231,-23)"
         clip-rule="evenodd"
         id="path8" />
    </clipPath>
    <clipPath
       clipPathUnits="userSpaceOnUse"
       id="clipPath10">
      <path
         d="M 0,0 H 1716.6666 V 681.88153 H 0 Z"
         transform="matrix(0.33436894,0,0,0.33436894,-0.49999999,-0.49999999)"
         clip-rule="evenodd"
         id="path10" />
    </clipPath>
    <clipPath
       clipPathUnits="userSpaceOnUse"
       id="clipPath11">
      <path
         d="M 0,0 H 1716.6666 V 681.88153 H 0 Z"
         transform="matrix(0.33436559,0,0,0.33436559,-38.453124,-57.999999)"
         clip-rule="evenodd"
         id="path11" />
    </clipPath>
    <clipPath
       clipPathUnits="userSpaceOnUse"
       id="clipPath13">
      <path
         d="M 0,0 H 1716.6666 V 681.88153 H 0 Z"
         transform="matrix(0.33436894,0,0,0.33436894,-0.49999999,-0.49999999)"
         clip-rule="evenodd"
         id="path13" />
    </clipPath>
    <clipPath
       clipPathUnits="userSpaceOnUse"
       id="clipPath14">
      <path
         d="M 0,0 H 1716.6666 V 681.88153 H 0 Z"
         transform="matrix(0.33436559,0,0,0.33436559,-413.04688,-88)"
         clip-rule="evenodd"
         id="path14" />
    </clipPath>
    <clipPath
       clipPathUnits="userSpaceOnUse"
       id="clipPath16">
      <path
         d="M 0,0 H 1716.6666 V 681.88153 H 0 Z"
         transform="matrix(0.33436894,0,0,0.33436894,-0.49999999,-0.49999999)"
         clip-rule="evenodd"
         id="path16" />
    </clipPath>
    <clipPath
       clipPathUnits="userSpaceOnUse"
       id="clipPath17">
      <path
         d="M 0,0 H 1716.6666 V 681.88153 H 0 Z"
         transform="matrix(0.33436559,0,0,0.33436559,-49.71875,-88)"
         clip-rule="evenodd"
         id="path17" />
    </clipPath>
    <clipPath
       clipPathUnits="userSpaceOnUse"
       id="clipPath19">
      <path
         d="M 0,0 H 1716.6666 V 681.88153 H 0 Z"
         transform="matrix(0.33436894,0,0,0.33436894,-0.49999999,-0.49999999)"
         clip-rule="evenodd"
         id="path19" />
    </clipPath>
    <clipPath
       clipPathUnits="userSpaceOnUse"
       id="clipPath20">
      <path
         d="M 0,0 H 1716.6666 V 681.88153 H 0 Z"
         transform="matrix(0.33436559,0,0,0.33436559,-370.125,-131.99999)"
         clip-rule="evenodd"
         id="path20" />
    </clipPath>
    <clipPath
       clipPathUnits="userSpaceOnUse"
       id="clipPath22">
      <path
         d="M 0,0 H 1716.6666 V 681.88153 H 0 Z"
         transform="matrix(0.33436894,0,0,0.33436894,-0.49999999,-0.49999999)"
         clip-rule="evenodd"
         id="path22" />
    </clipPath>
    <clipPath
       clipPathUnits="userSpaceOnUse"
       id="clipPath23">
      <path
         d="M 0,0 H 1716.6666 V 681.88153 H 0 Z"
         transform="matrix(0.33436559,0,0,0.33436559,-3.453125,-110)"
         clip-rule="evenodd"
         id="path23" />
    </clipPath>
    <clipPath
       clipPathUnits="userSpaceOnUse"
       id="clipPath25">
      <path
         d="M 0,0 H 1716.6666 V 681.88153 H 0 Z"
         transform="matrix(0.33436894,0,0,0.33436894,-0.49999999,-0.49999999)"
         clip-rule="evenodd"
         id="path25" />
    </clipPath>
    <clipPath
       clipPathUnits="userSpaceOnUse"
       id="clipPath26">
      <path
         d="M 0,0 H 1716.6666 V 681.88153 H 0 Z"
         transform="matrix(0.33436559,0,0,0.33436559,-400.95313,-154)"
         clip-rule="evenodd"
         id="path26" />
    </clipPath>
    <clipPath
       clipPathUnits="userSpaceOnUse"
       id="clipPath28">
      <path
         d="M 0,0 H 1716.6666 V 681.88153 H 0 Z"
         transform="matrix(0.33436894,0,0,0.33436894,-0.49999999,-0.49999999)"
         clip-rule="evenodd"
         id="path28" />
    </clipPath>
    <clipPath
       clipPathUnits="userSpaceOnUse"
       id="clipPath29">
      <path
         d="M 0,0 H 1716.6666 V 681.88153 H 0 Z"
         transform="matrix(0.33436559,0,0,0.33436559,-408.46875,-176)"
         clip-rule="evenodd"
         id="path29" />
    </clipPath>
    <clipPath
       clipPathUnits="userSpaceOnUse"
       id="clipPath31">
      <path
         d="M 0,0 H 1716.6666 V 681.88153 H 0 Z"
         transform="matrix(0.33436894,0,0,0.33436894,-0.49999999,-0.49999999)"
         clip-rule="evenodd"
         id="path31" />
    </clipPath>
    <clipPath
       clipPathUnits="userSpaceOnUse"
       id="clipPath32">
      <path
         d="M 0,0 H 1716.6666 V 681.88153 H 0 Z"
         transform="matrix(0.33436559,0,0,0.33436559,-27.21875,-131.99999)"
         clip-rule="evenodd"
         id="path32" />
    </clipPath>
    <clipPath
       clipPathUnits="userSpaceOnUse"
       id="clipPath34">
      <path
         d="M 0,0 H 1716.6666 V 681.88153 H 0 Z"
         transform="matrix(0.33436894,0,0,0.33436894,-0.49999999,-0.49999999)"
         clip-rule="evenodd"
         id="path34" />
    </clipPath>
    <clipPath
       clipPathUnits="userSpaceOnUse"
       id="clipPath35">
      <path
         d="M 0,0 H 1716.6666 V 681.88153 H 0 Z"
         transform="matrix(0.33436559,0,0,0.33436559,-33.875,-154)"
         clip-rule="evenodd"
         id="path35" />
    </clipPath>
    <clipPath
       clipPathUnits="userSpaceOnUse"
       id="clipPath37">
      <path
         d="M 0,0 H 1716.6666 V 681.88153 H 0 Z"
         transform="matrix(0.33436894,0,0,0.33436894,-0.49999999,-0.49999999)"
         clip-rule="evenodd"
         id="path37" />
    </clipPath>
    <clipPath
       clipPathUnits="userSpaceOnUse"
       id="clipPath38">
      <path
         d="M 0,0 H 1716.6666 V 681.88153 H 0 Z"
         transform="matrix(0.33436559,0,0,0.33436559,-425.5625,-110)"
         clip-rule="evenodd"
         id="path38" />
    </clipPath>
    <clipPath
       clipPathUnits="userSpaceOnUse"
       id="clipPath40">
      <path
         d="M 0,0 H 1716.6666 V 681.88153 H 0 Z"
         transform="matrix(0.33436894,0,0,0.33436894,-0.49999999,-0.49999999)"
         clip-rule="evenodd"
         id="path40" />
    </clipPath>
    <clipPath
       clipPathUnits="userSpaceOnUse"
       id="clipPath41">
      <path
         d="M 0,0 H 1716.6666 V 681.88153 H 0 Z"
         transform="matrix(0.33436559,0,0,0.33436559,-26.796875,-176)"
         clip-rule="evenodd"
         id="path41" />
    </clipPath>
    <clipPath
       clipPathUnits="userSpaceOnUse"
       id="clipPath43">
      <path
         d="M 0,0 H 1716.6666 V 681.88153 H 0 Z"
         transform="matrix(0.33436894,0,0,0.33436894,-0.49999999,-0.49999999)"
         clip-rule="evenodd"
         id="path43" />
    </clipPath>
    <clipPath
       clipPathUnits="userSpaceOnUse"
       id="clipPath44">
      <path
         d="M 0,0 H 1716.6666 V 681.88153 H 0 Z"
         transform="matrix(0.33436559,0,0,0.33436559,-430.70313,-198)"
         clip-rule="evenodd"
         id="path44" />
    </clipPath>
    <clipPath
       clipPathUnits="userSpaceOnUse"
       id="clipPath46">
      <path
         d="M 0,0 H 1716.6666 V 681.88153 H 0 Z"
         transform="matrix(0.33436894,0,0,0.33436894,-0.49999999,-0.49999999)"
         clip-rule="evenodd"
         id="path46" />
    </clipPath>
    <clipPath
       clipPathUnits="userSpaceOnUse"
       id="clipPath48">
      <path
         d="M 0,0 H 1716.6666 V 681.88153 H 0 Z"
         transform="matrix(0.33436894,0,0,0.33436894,-0.49999999,-0.49999999)"
         clip-rule="evenodd"
         id="path48" />
    </clipPath>
    <clipPath
       clipPathUnits="userSpaceOnUse"
       id="clipPath50">
      <path
         d="M 0,0 H 1716.6666 V 681.88153 H 0 Z"
         transform="matrix(0.33436894,0,0,0.33436894,-0.49999999,-0.49999999)"
         clip-rule="evenodd"
         id="path50" />
    </clipPath>
    <clipPath
       clipPathUnits="userSpaceOnUse"
       id="clipPath51">
      <path
         d="M 0,0 H 1716.6666 V 681.88153 H 0 Z"
         transform="matrix(0.33436559,0,0,0.33436559,-61.390624,-198)"
         clip-rule="evenodd"
         id="path51" />
    </clipPath>
    <clipPath
       clipPathUnits="userSpaceOnUse"
       id="clipPath53">
      <path
         d="M 0,0 H 1716.6666 V 681.88153 H 0 Z"
         transform="matrix(0.33436894,0,0,0.33436894,-0.49999999,-0.49999999)"
         clip-rule="evenodd"
         id="path53" />
    </clipPath>
    <clipPath
       clipPathUnits="userSpaceOnUse"
       id="clipPath55">
      <path
         d="M 0,0 H 1716.6666 V 681.88153 H 0 Z"
         transform="matrix(0.33436894,0,0,0.33436894,-0.49999999,-0.49999999)"
         clip-rule="evenodd"
         id="path55" />
    </clipPath>
    <clipPath
       clipPathUnits="userSpaceOnUse"
       id="clipPath57">
      <path
         d="M 0,0 H 1716.6666 V 681.88153 H 0 Z"
         transform="matrix(0.33436894,0,0,0.33436894,-0.49999999,-0.49999999)"
         clip-rule="evenodd"
         id="path57" />
    </clipPath>
    <clipPath
       clipPathUnits="userSpaceOnUse"
       id="clipPath58">
      <path
         d="M 0,0 H 1716.6666 V 681.88153 H 0 Z"
         transform="matrix(0.33436559,0,0,0.33436559,-45.96875,-219.99999)"
         clip-rule="evenodd"
         id="path58" />
    </clipPath>
  </defs>
  <sodipodi:namedview
     id="namedview1"
     pagecolor="#ffffff"
     bordercolor="#000000"
     borderopacity="0.25"
     inkscape:showpageshadow="2"
     inkscape:pageopacity="0.0"
     inkscape:pagecheckerboard="0"
     inkscape:deskcolor="#d1d1d1">
    <inkscape:page
       x="0"
       y="0"
       inkscape:label="1"
       id="page1"
       width="549.44"
       height="220.15999"
       margin="0"
       bleed="0" />
  </sodipodi:namedview>
  <g
     id="g1"
     inkscape:groupmode="layer"
     inkscape:label="1">
    <path
       id="path1"
       d="M 0,0 H 574 V 229 H 0 Z"
       style="fill:#ffffff;fill-opacity:1;fill-rule:nonzero;stroke:none"
       transform="scale(0.95702665)"
       clip-path="url(#clipPath2)" />
    <path
       id="path3"
       d="M 361,31 H 571 V 71 H 361 Z"
       style="fill:#dae8fc;fill-opacity:1;fill-rule:nonzero;stroke:#6c8ebf;stroke-width:1;stroke-linecap:butt;stroke-linejoin:miter;stroke-miterlimit:10;stroke-dasharray:none;stroke-opacity:1"
       transform="matrix(0.95702665,0,0,0.95702665,0.47851332,0.47851332)"
       clip-path="url(#clipPath4)" />
    <text
       id="text4"
       xml:space="preserve"
       transform="matrix(0.95703625,0,0,0.95703625,365.06447,55.508102)"
       clip-path="url(#clipPath5)"><tspan
         style="font-variant:normal;font-weight:700;font-size:18px;font-family:Helvetica;writing-mode:lr-tb;fill:#000000;fill-opacity:1;fill-rule:nonzero;stroke:none"
         x="0 10.010742 15.011719 25.022461 35.033203 45.043945 50.044922 63.043945 69.038086 85.042969 90.043945 103.04297 113.05371 124.04883 135.04395 145.05469 152.05957 162.07031"
         y="0"
         sodipodi:role="line"
         id="tspan4">class HtmlRenderer</tspan></text>
    <path
       id="path6"
       d="M 181,1 H 391 V 31 H 181 Z"
       style="fill:#f8cecc;fill-opacity:1;fill-rule:nonzero;stroke:#b85450;stroke-width:1;stroke-linecap:butt;stroke-linejoin:miter;stroke-miterlimit:10;stroke-dasharray:none;stroke-opacity:1"
       transform="matrix(0.95702665,0,0,0.95702665,0.47851332,0.47851332)"
       clip-path="url(#clipPath7)" />
    <text
       id="text7"
       xml:space="preserve"
       transform="matrix(0.95703625,0,0,0.95703625,221.07537,22.011834)"
       clip-path="url(#clipPath8)"><tspan
         style="font-variant:normal;font-weight:700;font-size:18px;font-family:Helvetica;writing-mode:lr-tb;fill:#000000;fill-opacity:1;fill-rule:nonzero;stroke:none"
         x="0 12.999023 23.994141 39.999023 50.994141 61.989258 72 77.000977 82.995117 87.996094 98.991211"
         y="0"
         sodipodi:role="line"
         id="tspan7">Composition</tspan></text>
    <path
       id="path9"
       d="M 1,31 H 211 V 71 H 1 Z"
       style="fill:#dae8fc;fill-opacity:1;fill-rule:nonzero;stroke:#6c8ebf;stroke-width:1;stroke-linecap:butt;stroke-linejoin:miter;stroke-miterlimit:10;stroke-dasharray:none;stroke-opacity:1"
       transform="matrix(0.95702665,0,0,0.95702665,0.47851332,0.47851332)"
       clip-path="url(#clipPath10)" />
    <text
       id="text10"
       xml:space="preserve"
       transform="matrix(0.95703625,0,0,0.95703625,36.801034,55.508102)"
       clip-path="url(#clipPath11)"><tspan
         style="font-variant:normal;font-weight:700;font-size:18px;font-family:Helvetica;writing-mode:lr-tb;fill:#000000;fill-opacity:1;fill-rule:nonzero;stroke:none"
         x="0 10.010742 15.011719 25.022461 35.033203 45.043945 50.044922 63.043945 73.054688 83.06543 90.070312 101.06543 112.06055 119.06543"
         y="0"
         sodipodi:role="line"
         id="tspan10">class UserForm</tspan></text>
    <path
       id="path12"
       d="M 361,71 H 571 V 93 H 361 Z"
       style="fill:#ffffff;fill-opacity:1;fill-rule:nonzero;stroke:#000000;stroke-width:1;stroke-linecap:butt;stroke-linejoin:miter;stroke-miterlimit:10;stroke-dasharray:none;stroke-opacity:1"
       transform="matrix(0.95702665,0,0,0.95702665,0.47851332,0.47851332)"
       clip-path="url(#clipPath13)" />
    <text
       id="text13"
       xml:space="preserve"
       transform="matrix(0.95703625,0,0,0.95703625,395.30084,84.21919)"
       clip-path="url(#clipPath14)"><tspan
         style="font-variant:normal;font-weight:normal;font-size:15px;font-family:Helvetica;writing-mode:lr-tb;fill:#000000;fill-opacity:1;fill-rule:nonzero;stroke:none"
         x="0 8.3422852 16.68457 21.679688 30.021973 38.364258 42.531738 46.699219 50.866699 60.871582 64.204102 72.546387 85.041504 93.383789 101.72607"
         y="0"
         sodipodi:role="line"
         id="tspan13">parent: Element</tspan></text>
    <path
       id="path15"
       d="M 1,71 H 211 V 93 H 1 Z"
       style="fill:#ffffff;fill-opacity:1;fill-rule:nonzero;stroke:#000000;stroke-width:1;stroke-linecap:butt;stroke-linejoin:miter;stroke-miterlimit:10;stroke-dasharray:none;stroke-opacity:1"
       transform="matrix(0.95702665,0,0,0.95702665,0.47851332,0.47851332)"
       clip-path="url(#clipPath16)" />
    <text
       id="text16"
       xml:space="preserve"
       transform="matrix(0.95703625,0,0,0.95703625,47.582646,84.21919)"
       clip-path="url(#clipPath17)"><tspan
         style="font-variant:normal;font-weight:normal;font-size:15px;font-family:Helvetica;writing-mode:lr-tb;fill:#000000;fill-opacity:1;fill-rule:nonzero;stroke:none"
         x="0 4.1674805 12.509766 25.004883 33.347168 36.679688 45.021973 49.189453 57.531738 62.526855 67.521973 71.689453 75.856934 83.356934 87.524414 92.519531 95.852051 104.19434"
         y="0"
         sodipodi:role="line"
         id="tspan16">template(): string</tspan></text>
    <path
       id="path18"
       d="m 361,115 h 210 v 22 H 361 Z"
       style="fill:#ffffff;fill-opacity:1;fill-rule:nonzero;stroke:#000000;stroke-width:1;stroke-linecap:butt;stroke-linejoin:miter;stroke-miterlimit:10;stroke-dasharray:none;stroke-opacity:1"
       transform="matrix(0.95702665,0,0,0.95702665,0.47851332,0.47851332)"
       clip-path="url(#clipPath19)" />
    <text
       id="text19"
       xml:space="preserve"
       transform="matrix(0.95703625,0,0,0.95703625,354.22304,126.32878)"
       clip-path="url(#clipPath20)"><tspan
         style="font-variant:normal;font-weight:normal;font-size:15px;font-family:Helvetica;writing-mode:lr-tb;fill:#000000;fill-opacity:1;fill-rule:nonzero;stroke:none"
         x="0 4.9951172 13.337402 21.679688 30.021973 38.364258 43.359375 48.354492 52.521973 60.864258 73.359375 81.70166 85.03418 93.376465 97.543945 105.88623 110.05371 114.22119 121.72119 125.88867 130.88379 134.21631 142.55859 150.90088 155.896 160.06348 164.23096 171.73096 180.07324 183.40576"
         y="0"
         sodipodi:role="line"
         id="tspan19">render(template: string): void</tspan></text>
    <path
       id="path21"
       d="m 1,93 h 210 v 22 H 1 Z"
       style="fill:#ffffff;fill-opacity:1;fill-rule:nonzero;stroke:#000000;stroke-width:1;stroke-linecap:butt;stroke-linejoin:miter;stroke-miterlimit:10;stroke-dasharray:none;stroke-opacity:1"
       transform="matrix(0.95702665,0,0,0.95702665,0.47851332,0.47851332)"
       clip-path="url(#clipPath22)" />
    <text
       id="text22"
       xml:space="preserve"
       transform="matrix(0.95703625,0,0,0.95703625,3.3047658,105.27399)"
       clip-path="url(#clipPath23)"><tspan
         style="font-variant:normal;font-weight:normal;font-size:15px;font-family:Helvetica;writing-mode:lr-tb;fill:#000000;fill-opacity:1;fill-rule:nonzero;stroke:none"
         x="0 8.3422852 15.842285 24.18457 32.526855 36.694336 44.194336 56.689453 65.031738 73.374023 78.369141 83.364258 87.531738 91.699219 96.708984 100.87646 108.37646 116.71875 124.21875 128.38623 132.55371 137.54883 142.54395 146.71143 155.47119 164.23096 168.39844 175.89844 184.24072 187.57324 195.91553 200.08301"
         y="0"
         sodipodi:role="line"
         id="tspan22">eventsMap(): { key: () =&gt; void }</tspan></text>
    <path
       id="path24"
       d="m 361,137 h 210 v 22 H 361 Z"
       style="fill:#ffffff;fill-opacity:1;fill-rule:nonzero;stroke:#000000;stroke-width:1;stroke-linecap:butt;stroke-linejoin:miter;stroke-miterlimit:10;stroke-dasharray:none;stroke-opacity:1"
       transform="matrix(0.95702665,0,0,0.95702665,0.47851332,0.47851332)"
       clip-path="url(#clipPath25)" />
    <text
       id="text25"
       xml:space="preserve"
       transform="matrix(0.95703625,0,0,0.95703625,383.72668,147.38358)"
       clip-path="url(#clipPath26)"><tspan
         style="font-variant:normal;font-weight:normal;font-size:15px;font-family:Helvetica;writing-mode:lr-tb;fill:#000000;fill-opacity:1;fill-rule:nonzero;stroke:none"
         x="0 8.3422852 11.674805 20.01709 28.359375 38.364258 45.864258 54.206543 62.548828 66.716309 74.216309 79.211426 84.221191 89.230957 94.226074 98.393555 102.56104 110.06104 118.40332 121.73584"
         y="0"
         sodipodi:role="line"
         id="tspan25">bindEvents({}): void</tspan></text>
    <path
       id="path27"
       d="m 361,159 h 210 v 22 H 361 Z"
       style="fill:#ffffff;fill-opacity:1;fill-rule:nonzero;stroke:#000000;stroke-width:1;stroke-linecap:butt;stroke-linejoin:miter;stroke-miterlimit:10;stroke-dasharray:none;stroke-opacity:1"
       transform="matrix(0.95702665,0,0,0.95702665,0.47851332,0.47851332)"
       clip-path="url(#clipPath28)" />
    <text
       id="text28"
       xml:space="preserve"
       transform="matrix(0.95703625,0,0,0.95703625,390.9194,168.43838)"
       clip-path="url(#clipPath29)"><tspan
         style="font-variant:normal;font-weight:normal;font-size:15px;font-family:Helvetica;writing-mode:lr-tb;fill:#000000;fill-opacity:1;fill-rule:nonzero;stroke:none"
         x="0 8.3422852 11.674805 20.01709 28.359375 40.854492 49.196777 57.539062 65.881348 69.213867 74.208984 79.204102 83.371582 87.539062 95.039062 103.38135 106.71387"
         y="0"
         sodipodi:role="line"
         id="tspan28">bindModel(): void</tspan></text>
    <path
       id="path30"
       d="m 1,115 h 210 v 22 H 1 Z"
       style="fill:#ffffff;fill-opacity:1;fill-rule:nonzero;stroke:#000000;stroke-width:1;stroke-linecap:butt;stroke-linejoin:miter;stroke-miterlimit:10;stroke-dasharray:none;stroke-opacity:1"
       transform="matrix(0.95702665,0,0,0.95702665,0.47851332,0.47851332)"
       clip-path="url(#clipPath31)" />
    <text
       id="text31"
       xml:space="preserve"
       transform="matrix(0.95703625,0,0,0.95703625,26.04933,126.32878)"
       clip-path="url(#clipPath32)"><tspan
         style="font-variant:normal;font-weight:normal;font-size:15px;font-family:Helvetica;writing-mode:lr-tb;fill:#000000;fill-opacity:1;fill-rule:nonzero;stroke:none"
         x="0 8.3422852 16.68457 26.689453 35.031738 39.199219 50.031738 58.374023 70.869141 79.211426 90.043945 93.376465 96.708984 104.20898 111.70898 116.7041 121.69922 125.8667 130.03418 137.53418 145.87646 149.20898"
         y="0"
         sodipodi:role="line"
         id="tspan31">onSetNameClick(): void</tspan></text>
    <path
       id="path33"
       d="m 1,137 h 210 v 22 H 1 Z"
       style="fill:#ffffff;fill-opacity:1;fill-rule:nonzero;stroke:#000000;stroke-width:1;stroke-linecap:butt;stroke-linejoin:miter;stroke-miterlimit:10;stroke-dasharray:none;stroke-opacity:1"
       transform="matrix(0.95702665,0,0,0.95702665,0.47851332,0.47851332)"
       clip-path="url(#clipPath34)" />
    <text
       id="text34"
       xml:space="preserve"
       transform="matrix(0.95703625,0,0,0.95703625,32.419603,147.38358)"
       clip-path="url(#clipPath35)"><tspan
         style="font-variant:normal;font-weight:normal;font-size:15px;font-family:Helvetica;writing-mode:lr-tb;fill:#000000;fill-opacity:1;fill-rule:nonzero;stroke:none"
         x="0 8.3422852 16.68457 26.689453 35.031738 39.199219 49.204102 57.546387 65.888672 76.721191 80.053711 83.38623 90.88623 98.38623 103.38135 108.37646 112.54395 116.71143 124.21143 132.55371 135.88623"
         y="0"
         sodipodi:role="line"
         id="tspan34">onSetAgeClick(): void</tspan></text>
    <path
       id="path36"
       d="m 361,93 h 210 v 22 H 361 Z"
       style="fill:#ffffff;fill-opacity:1;fill-rule:nonzero;stroke:#000000;stroke-width:1;stroke-linecap:butt;stroke-linejoin:miter;stroke-miterlimit:10;stroke-dasharray:none;stroke-opacity:1"
       transform="matrix(0.95702665,0,0,0.95702665,0.47851332,0.47851332)"
       clip-path="url(#clipPath37)" />
    <text
       id="text37"
       xml:space="preserve"
       transform="matrix(0.95703625,0,0,0.95703625,407.27874,105.27399)"
       clip-path="url(#clipPath38)"><tspan
         style="font-variant:normal;font-weight:normal;font-size:15px;font-family:Helvetica;writing-mode:lr-tb;fill:#000000;fill-opacity:1;fill-rule:nonzero;stroke:none"
         x="0 12.495117 20.837402 29.179688 37.521973 40.854492 45.021973 49.189453 60.021973 67.521973 75.864258"
         y="0"
         sodipodi:role="line"
         id="tspan37">model: User</tspan></text>
    <path
       id="path39"
       d="m 1,159 h 210 v 22 H 1 Z"
       style="fill:#ffffff;fill-opacity:1;fill-rule:nonzero;stroke:#000000;stroke-width:1;stroke-linecap:butt;stroke-linejoin:miter;stroke-miterlimit:10;stroke-dasharray:none;stroke-opacity:1"
       transform="matrix(0.95702665,0,0,0.95702665,0.47851332,0.47851332)"
       clip-path="url(#clipPath40)" />
    <text
       id="text40"
       xml:space="preserve"
       transform="matrix(0.95703625,0,0,0.95703625,25.645581,168.43838)"
       clip-path="url(#clipPath41)"><tspan
         style="font-variant:normal;font-weight:normal;font-size:15px;font-family:Helvetica;writing-mode:lr-tb;fill:#000000;fill-opacity:1;fill-rule:nonzero;stroke:none"
         x="0 4.9951172 13.337402 21.679688 30.021973 38.364258 43.359375 51.70166 56.696777 60.864258 65.031738 75.864258 80.031738 92.526855 95.859375 106.69189 115.03418 123.37646 131.71875 140.06104 145.05615 153.39844"
         y="0"
         sodipodi:role="line"
         id="tspan40">renderer: HtmlRenderer</tspan></text>
    <path
       id="path42"
       d="m 361,181 h 210 v 22 H 361 Z"
       style="fill:#ffffff;fill-opacity:1;fill-rule:nonzero;stroke:#000000;stroke-width:1;stroke-linecap:butt;stroke-linejoin:miter;stroke-miterlimit:10;stroke-dasharray:none;stroke-opacity:1"
       transform="matrix(0.95702665,0,0,0.95702665,0.47851332,0.47851332)"
       clip-path="url(#clipPath43)" />
    <text
       id="text43"
       xml:space="preserve"
       transform="matrix(0.95703625,0,0,0.95703625,412.19851,189.49318)"
       clip-path="url(#clipPath44)"><tspan
         style="font-variant:normal;font-weight:normal;font-size:15px;font-family:Helvetica;writing-mode:lr-tb;fill:#000000;fill-opacity:1;fill-rule:nonzero;stroke:none"
         x="0 7.5 10.83252 19.174805 30.007324 34.174805 38.342285 48.083496 51.416016 59.758301"
         y="0"
         sodipodi:role="line"
         id="tspan43">view: View</tspan></text>
    <path
       id="path45"
       d="m 211,192 h 75 v -66 h 68.64001"
       style="fill:none;stroke:#000000;stroke-width:1;stroke-linecap:butt;stroke-linejoin:miter;stroke-miterlimit:10;stroke-dasharray:none;stroke-opacity:1"
       transform="matrix(0.95702665,0,0,0.95702665,0.47851332,0.47851332)"
       clip-path="url(#clipPath46)" />
    <path
       id="path47"
       d="m 359.89001,126 -7,3.5 1.75,-3.5 -1.75,-3.5 z"
       style="fill:#000000;fill-opacity:1;fill-rule:nonzero;stroke:#000000;stroke-width:1;stroke-linecap:butt;stroke-linejoin:miter;stroke-miterlimit:10;stroke-dasharray:none;stroke-opacity:1"
       transform="matrix(0.95702665,0,0,0.95702665,0.47851332,0.47851332)"
       clip-path="url(#clipPath48)" />
    <path
       id="path49"
       d="m 1,181 h 210 v 22 H 1 Z"
       style="fill:#ffffff;fill-opacity:1;fill-rule:nonzero;stroke:#000000;stroke-width:1;stroke-linecap:butt;stroke-linejoin:miter;stroke-miterlimit:10;stroke-dasharray:none;stroke-opacity:1"
       transform="matrix(0.95702665,0,0,0.95702665,0.47851332,0.47851332)"
       clip-path="url(#clipPath50)" />
    <text
       id="text50"
       xml:space="preserve"
       transform="matrix(0.95703625,0,0,0.95703625,58.753053,189.49318)"
       clip-path="url(#clipPath51)"><tspan
         style="font-variant:normal;font-weight:normal;font-size:15px;font-family:Helvetica;writing-mode:lr-tb;fill:#000000;fill-opacity:1;fill-rule:nonzero;stroke:none"
         x="0 4.9951172 13.337402 21.679688 30.021973 38.364258 43.359375 48.354492 53.349609 57.51709 61.68457 69.18457 77.526855 80.859375"
         y="0"
         sodipodi:role="line"
         id="tspan50">render(): void</tspan></text>
    <path
       id="path52"
       d="m 211,214 h 75 v -66 h 68.64001"
       style="fill:none;stroke:#000000;stroke-width:1;stroke-linecap:butt;stroke-linejoin:miter;stroke-miterlimit:10;stroke-dasharray:none;stroke-opacity:1"
       transform="matrix(0.95702665,0,0,0.95702665,0.47851332,0.47851332)"
       clip-path="url(#clipPath53)" />
    <path
       id="path54"
       d="m 359.89001,148 -7,3.5 1.75,-3.5 -1.75,-3.5 z"
       style="fill:#000000;fill-opacity:1;fill-rule:nonzero;stroke:#000000;stroke-width:1;stroke-linecap:butt;stroke-linejoin:miter;stroke-miterlimit:10;stroke-dasharray:none;stroke-opacity:1"
       transform="matrix(0.95702665,0,0,0.95702665,0.47851332,0.47851332)"
       clip-path="url(#clipPath55)" />
    <path
       id="path56"
       d="m 1,203 h 210 v 22 H 1 Z"
       style="fill:#ffffff;fill-opacity:1;fill-rule:nonzero;stroke:#000000;stroke-width:1;stroke-linecap:butt;stroke-linejoin:miter;stroke-miterlimit:10;stroke-dasharray:none;stroke-opacity:1"
       transform="matrix(0.95702665,0,0,0.95702665,0.47851332,0.47851332)"
       clip-path="url(#clipPath57)" />
    <text
       id="text57"
       xml:space="preserve"
       transform="matrix(0.95703625,0,0,0.95703625,43.99376,210.54797)"
       clip-path="url(#clipPath58)"><tspan
         style="font-variant:normal;font-weight:normal;font-size:15px;font-family:Helvetica;writing-mode:lr-tb;fill:#000000;fill-opacity:1;fill-rule:nonzero;stroke:none"
         x="0 8.3422852 11.674805 20.01709 28.359375 38.364258 45.864258 54.206543 62.548828 66.716309 74.216309 79.211426 84.206543 88.374023 92.541504 100.0415 108.38379 111.71631"
         y="0"
         sodipodi:role="line"
         id="tspan57">bindEvents(): void</tspan></text>
  </g>
</svg>
