<?xml version="1.0" encoding="UTF-8" standalone="no"?>
<!-- Created with Inkscape (http://www.inkscape.org/) -->

<svg
   version="1.1"
   id="svg1"
   width="558.71997"
   height="131.84"
   viewBox="0 0 558.71997 131.84"
   sodipodi:docname="ts-15.pdf"
   xmlns:inkscape="http://www.inkscape.org/namespaces/inkscape"
   xmlns:sodipodi="http://sodipodi.sourceforge.net/DTD/sodipodi-0.dtd"
   xmlns="http://www.w3.org/2000/svg"
   xmlns:svg="http://www.w3.org/2000/svg">
  <defs
     id="defs1">
    <clipPath
       clipPathUnits="userSpaceOnUse"
       id="clipPath2">
      <path
         d="M 0,0 H 1745.8333 V 409.55334 H 0 Z"
         transform="scale(0.33451077)"
         clip-rule="evenodd"
         id="path2" />
    </clipPath>
    <clipPath
       clipPathUnits="userSpaceOnUse"
       id="clipPath4">
      <path
         d="M 0,0 H 1745.8333 V 406.5639 H 0 Z"
         transform="matrix(0.33451077,0,0,0.33451077,-0.50000001,-0.50000001)"
         clip-rule="evenodd"
         id="path4" />
    </clipPath>
    <clipPath
       clipPathUnits="userSpaceOnUse"
       id="clipPath5">
      <path
         d="M 0,0 H 1745.8333 V 406.5639 H 0 Z"
         transform="matrix(0.3345074,0,0,0.3345074,-319.59375,-28)"
         clip-rule="evenodd"
         id="path5" />
    </clipPath>
    <clipPath
       clipPathUnits="userSpaceOnUse"
       id="clipPath7">
      <path
         d="M 0,0 H 1745.8333 V 406.5639 H 0 Z"
         transform="matrix(0.33451077,0,0,0.33451077,-0.50000001,-0.50000001)"
         clip-rule="evenodd"
         id="path7" />
    </clipPath>
    <clipPath
       clipPathUnits="userSpaceOnUse"
       id="clipPath8">
      <path
         d="M 0,0 H 1745.8333 V 406.5639 H 0 Z"
         transform="matrix(0.3345074,0,0,0.3345074,-377.625,-62)"
         clip-rule="evenodd"
         id="path8" />
    </clipPath>
    <clipPath
       clipPathUnits="userSpaceOnUse"
       id="clipPath10">
      <path
         d="M 0,0 H 1745.8333 V 406.5639 H 0 Z"
         transform="matrix(0.33451077,0,0,0.33451077,-0.50000001,-0.50000001)"
         clip-rule="evenodd"
         id="path10" />
    </clipPath>
    <clipPath
       clipPathUnits="userSpaceOnUse"
       id="clipPath11">
      <path
         d="M 0,0 H 1745.8333 V 406.5639 H 0 Z"
         transform="matrix(0.3345074,0,0,0.3345074,-313.03125,-113)"
         clip-rule="evenodd"
         id="path11" />
    </clipPath>
    <clipPath
       clipPathUnits="userSpaceOnUse"
       id="clipPath12">
      <path
         d="M 0,0 H 1745.8333 V 406.5639 H 0 Z"
         transform="matrix(0.3345074,0,0,0.3345074,-432.23438,-131)"
         clip-rule="evenodd"
         id="path12" />
    </clipPath>
    <clipPath
       clipPathUnits="userSpaceOnUse"
       id="clipPath14">
      <path
         d="M 0,0 H 1745.8333 V 406.5639 H 0 Z"
         transform="matrix(0.33451077,0,0,0.33451077,-0.50000001,-0.50000001)"
         clip-rule="evenodd"
         id="path14" />
    </clipPath>
    <clipPath
       clipPathUnits="userSpaceOnUse"
       id="clipPath16">
      <path
         d="M 0,0 H 1745.8333 V 406.5639 H 0 Z"
         transform="matrix(0.33451077,0,0,0.33451077,-0.50000001,-0.50000001)"
         clip-rule="evenodd"
         id="path16" />
    </clipPath>
    <clipPath
       clipPathUnits="userSpaceOnUse"
       id="clipPath18">
      <path
         d="M 0,0 H 1745.8333 V 406.5639 H 0 Z"
         transform="matrix(0.33451077,0,0,0.33451077,-0.50000001,-0.50000001)"
         clip-rule="evenodd"
         id="path18" />
    </clipPath>
    <clipPath
       clipPathUnits="userSpaceOnUse"
       id="clipPath19">
      <path
         d="M 0,0 H 1745.8333 V 406.5639 H 0 Z"
         transform="matrix(0.3345074,0,0,0.3345074,-74.953125,-28)"
         clip-rule="evenodd"
         id="path19" />
    </clipPath>
    <clipPath
       clipPathUnits="userSpaceOnUse"
       id="clipPath21">
      <path
         d="M 0,0 H 1745.8333 V 406.5639 H 0 Z"
         transform="matrix(0.33451077,0,0,0.33451077,-0.50000001,-0.50000001)"
         clip-rule="evenodd"
         id="path21" />
    </clipPath>
    <clipPath
       clipPathUnits="userSpaceOnUse"
       id="clipPath22">
      <path
         d="M 0,0 H 1745.8333 V 406.5639 H 0 Z"
         transform="matrix(0.3345074,0,0,0.3345074,-401.39063,-92)"
         clip-rule="evenodd"
         id="path22" />
    </clipPath>
    <clipPath
       clipPathUnits="userSpaceOnUse"
       id="clipPath24">
      <path
         d="M 0,0 H 1745.8333 V 406.5639 H 0 Z"
         transform="matrix(0.33451077,0,0,0.33451077,-0.50000001,-0.50000001)"
         clip-rule="evenodd"
         id="path24" />
    </clipPath>
    <clipPath
       clipPathUnits="userSpaceOnUse"
       id="clipPath25">
      <path
         d="M 0,0 H 1745.8333 V 406.5639 H 0 Z"
         transform="matrix(0.3345074,0,0,0.3345074,-15.9375,-62)"
         clip-rule="evenodd"
         id="path25" />
    </clipPath>
  </defs>
  <sodipodi:namedview
     id="namedview1"
     pagecolor="#ffffff"
     bordercolor="#000000"
     borderopacity="0.25"
     inkscape:showpageshadow="2"
     inkscape:pageopacity="0.0"
     inkscape:pagecheckerboard="0"
     inkscape:deskcolor="#d1d1d1">
    <inkscape:page
       x="0"
       y="0"
       inkscape:label="1"
       id="page1"
       width="558.71997"
       height="131.84"
       margin="0"
       bleed="0" />
  </sodipodi:namedview>
  <g
     id="g1"
     inkscape:groupmode="layer"
     inkscape:label="1">
    <path
       id="path1"
       d="M 0,0 H 584 V 137 H 0 Z"
       style="fill:#ffffff;fill-opacity:1;fill-rule:nonzero;stroke:none"
       transform="scale(0.95662089)"
       clip-path="url(#clipPath2)" />
    <path
       id="path3"
       d="M 311,1 H 581 V 41 H 311 Z"
       style="fill:#dae8fc;fill-opacity:1;fill-rule:nonzero;stroke:#6c8ebf;stroke-width:1;stroke-linecap:butt;stroke-linejoin:miter;stroke-miterlimit:10;stroke-dasharray:none;stroke-opacity:1"
       transform="matrix(0.95662089,0,0,0.95662089,0.47831045,0.47831045)"
       clip-path="url(#clipPath4)" />
    <text
       id="text4"
       xml:space="preserve"
       transform="matrix(0.95663052,0,0,0.95663052,305.73314,26.785655)"
       clip-path="url(#clipPath5)"><tspan
         style="font-variant:normal;font-weight:700;font-size:18px;font-family:Helvetica;writing-mode:lr-tb;fill:#000000;fill-opacity:1;fill-rule:nonzero;stroke:none"
         x="0 10.010742 21.005859 31.016602 37.010742 44.015625 54.026367 64.037109 70.03125 75.032227 85.042969 90.043945 100.05469 110.06543 120.07617 125.07715 138.07617 149.07129 154.07227 159.07324 169.08398 179.09473 185.08887 190.08984 201.08496 212.08008 223.76953 228.77051 238.78125"
         y="0"
         sodipodi:role="line"
         id="tspan4">abstract class CollectionView</tspan></text>
    <path
       id="path6"
       d="M 311,41 H 581 V 71 H 311 Z"
       style="fill:#ffffff;fill-opacity:1;fill-rule:nonzero;stroke:#000000;stroke-width:1;stroke-linecap:butt;stroke-linejoin:miter;stroke-miterlimit:10;stroke-dasharray:none;stroke-opacity:1"
       transform="matrix(0.95662089,0,0,0.95662089,0.47831045,0.47831045)"
       clip-path="url(#clipPath7)" />
    <text
       id="text7"
       xml:space="preserve"
       transform="matrix(0.95663052,0,0,0.95663052,361.2476,59.311092)"
       clip-path="url(#clipPath8)"><tspan
         style="font-variant:normal;font-weight:normal;font-size:15px;font-family:Helvetica;writing-mode:lr-tb;fill:#000000;fill-opacity:1;fill-rule:nonzero;stroke:none"
         x="0 7.5 15.842285 19.174805 22.507324 30.849609 38.349609 42.51709 45.849609 54.191895 62.53418 66.70166 70.869141 81.70166 90.043945 93.376465 96.708984 105.05127 112.55127 116.71875 120.05127 128.39355"
         y="0"
         sodipodi:role="line"
         id="tspan7">collection: Collection</tspan></text>
    <path
       id="path9"
       d="m 311,101 h 270 v 30 H 311 Z"
       style="fill:#ffe6cc;fill-opacity:1;fill-rule:nonzero;stroke:#d79b00;stroke-width:1;stroke-linecap:butt;stroke-linejoin:miter;stroke-miterlimit:10;stroke-dasharray:none;stroke-opacity:1"
       transform="matrix(0.95662089,0,0,0.95662089,0.47831045,0.47831045)"
       clip-path="url(#clipPath10)" />
    <text
       id="text10"
       xml:space="preserve"
       transform="matrix(0.95663052,0,0,0.95663052,299.45525,108.09925)"
       clip-path="url(#clipPath11)"><tspan
         style="font-variant:normal;font-weight:normal;font-size:15px;font-family:Helvetica;writing-mode:lr-tb;fill:#000000;fill-opacity:1;fill-rule:nonzero;stroke:none"
         x="0 8.3422852 16.68457 24.18457 28.352051 33.347168 41.689453 49.189453 53.356934 57.524414 62.519531 70.861816 79.204102 87.546387 95.888672 100.88379 105.05127 109.21875 117.56104 130.05615 135.05127 147.54639 155.88867 164.23096 172.57324 175.90576 180.07324 184.24072 187.57324 191.74072 200.08301 212.57812 222.58301 230.92529 235.92041 244.2627 252.60498 256.77246 261.76758"
         y="0"
         sodipodi:role="line"
         id="tspan10">abstract renderItem(model, itemParent):</tspan></text>
    <text
       id="text11"
       xml:space="preserve"
       transform="matrix(0.95663052,0,0,0.95663052,413.4886,125.3186)"
       clip-path="url(#clipPath12)"><tspan
         style="font-variant:normal;font-weight:normal;font-size:15px;font-family:Helvetica;writing-mode:lr-tb;fill:#000000;fill-opacity:1;fill-rule:nonzero;stroke:none"
         x="0 7.5 15.842285 19.174805"
         y="0"
         sodipodi:role="line"
         id="tspan11">void</tspan></text>
    <path
       id="path13"
       d="m 271,21 h 33.64001"
       style="fill:none;stroke:#000000;stroke-width:1;stroke-linecap:butt;stroke-linejoin:miter;stroke-miterlimit:10;stroke-dasharray:none;stroke-opacity:1"
       transform="matrix(0.95662089,0,0,0.95662089,0.47831045,0.47831045)"
       clip-path="url(#clipPath14)" />
    <path
       id="path15"
       d="m 309.89001,21 -7,3.5 1.75,-3.5 -1.75,-3.5 z"
       style="fill:#000000;fill-opacity:1;fill-rule:nonzero;stroke:#000000;stroke-width:1;stroke-linecap:butt;stroke-linejoin:miter;stroke-miterlimit:10;stroke-dasharray:none;stroke-opacity:1"
       transform="matrix(0.95662089,0,0,0.95662089,0.47831045,0.47831045)"
       clip-path="url(#clipPath16)" />
    <path
       id="path17"
       d="M 1,1 H 271 V 41 H 1 Z"
       style="fill:#dae8fc;fill-opacity:1;fill-rule:nonzero;stroke:#6c8ebf;stroke-width:1;stroke-linecap:butt;stroke-linejoin:miter;stroke-miterlimit:10;stroke-dasharray:none;stroke-opacity:1"
       transform="matrix(0.95662089,0,0,0.95662089,0.47831045,0.47831045)"
       clip-path="url(#clipPath18)" />
    <text
       id="text18"
       xml:space="preserve"
       transform="matrix(0.95663052,0,0,0.95663052,71.702447,26.785655)"
       clip-path="url(#clipPath19)"><tspan
         style="font-variant:normal;font-weight:700;font-size:18px;font-family:Helvetica;writing-mode:lr-tb;fill:#000000;fill-opacity:1;fill-rule:nonzero;stroke:none"
         x="0 10.010742 15.011719 25.022461 35.033203 45.043945 50.044922 63.043945 73.054688 83.06543 90.070312 101.06543 106.06641 116.07715"
         y="0"
         sodipodi:role="line"
         id="tspan18">class UserList</tspan></text>
    <path
       id="path20"
       d="m 311,71 h 270 v 30 H 311 Z"
       style="fill:#ffffff;fill-opacity:1;fill-rule:nonzero;stroke:#000000;stroke-width:1;stroke-linecap:butt;stroke-linejoin:miter;stroke-miterlimit:10;stroke-dasharray:none;stroke-opacity:1"
       transform="matrix(0.95662089,0,0,0.95662089,0.47831045,0.47831045)"
       clip-path="url(#clipPath21)" />
    <text
       id="text21"
       xml:space="preserve"
       transform="matrix(0.95663052,0,0,0.95663052,383.98253,88.010008)"
       clip-path="url(#clipPath22)"><tspan
         style="font-variant:normal;font-weight:normal;font-size:15px;font-family:Helvetica;writing-mode:lr-tb;fill:#000000;fill-opacity:1;fill-rule:nonzero;stroke:none"
         x="0 4.9951172 13.337402 21.679688 30.021973 38.364258 43.359375 48.354492 53.349609 57.51709 61.68457 69.18457 77.526855 80.859375"
         y="0"
         sodipodi:role="line"
         id="tspan21">render(): void</tspan></text>
    <path
       id="path23"
       d="M 1,41 H 271 V 71 H 1 Z"
       style="fill:#ffe6cc;fill-opacity:1;fill-rule:nonzero;stroke:#d79b00;stroke-width:1;stroke-linecap:butt;stroke-linejoin:miter;stroke-miterlimit:10;stroke-dasharray:none;stroke-opacity:1"
       transform="matrix(0.95662089,0,0,0.95662089,0.47831045,0.47831045)"
       clip-path="url(#clipPath24)" />
    <text
       id="text24"
       xml:space="preserve"
       transform="matrix(0.95663052,0,0,0.95663052,15.246299,59.311092)"
       clip-path="url(#clipPath25)"><tspan
         style="font-variant:normal;font-weight:normal;font-size:15px;font-family:Helvetica;writing-mode:lr-tb;fill:#000000;fill-opacity:1;fill-rule:nonzero;stroke:none"
         x="0 4.9951172 13.337402 21.679688 30.021973 38.364258 43.359375 47.526855 51.694336 60.036621 72.531738 77.526855 90.021973 98.364258 106.70654 115.04883 118.38135 122.54883 126.71631 130.04883 134.21631 142.55859 155.05371 165.05859 173.40088 178.396 186.73828 195.08057 199.24805 204.24316 208.41064 212.57812 220.07812 228.42041 231.75293"
         y="0"
         sodipodi:role="line"
         id="tspan24">renderItem(model, itemParent): void</tspan></text>
  </g>
</svg>
