<?xml version="1.0" encoding="UTF-8" standalone="no"?>
<!-- Created with Inkscape (http://www.inkscape.org/) -->

<svg
   version="1.1"
   id="svg1"
   width="421.44"
   height="315.84"
   viewBox="0 0 421.44 315.84"
   sodipodi:docname="ts-11.pdf"
   xmlns:inkscape="http://www.inkscape.org/namespaces/inkscape"
   xmlns:sodipodi="http://sodipodi.sourceforge.net/DTD/sodipodi-0.dtd"
   xmlns="http://www.w3.org/2000/svg"
   xmlns:svg="http://www.w3.org/2000/svg">
  <defs
     id="defs1">
    <clipPath
       clipPathUnits="userSpaceOnUse"
       id="clipPath2">
      <path
         d="M 0,0 H 1316.6666 V 985.26074 H 0 Z"
         transform="scale(0.33493672)"
         clip-rule="evenodd"
         id="path2" />
    </clipPath>
    <clipPath
       clipPathUnits="userSpaceOnUse"
       id="clipPath4">
      <path
         d="M 0,0 H 1316.6666 V 982.27509 H 0 Z"
         transform="matrix(0.33493672,0,0,0.33493672,-0.50000001,-0.50000001)"
         clip-rule="evenodd"
         id="path4" />
    </clipPath>
    <clipPath
       clipPathUnits="userSpaceOnUse"
       id="clipPath5">
      <path
         d="M 0,0 H 1316.6666 V 982.27509 H 0 Z"
         transform="matrix(0.33493338,0,0,0.33493338,-161.34375,-29)"
         clip-rule="evenodd"
         id="path5" />
    </clipPath>
    <clipPath
       clipPathUnits="userSpaceOnUse"
       id="clipPath7">
      <path
         d="M 0,0 H 1316.6666 V 982.27509 H 0 Z"
         transform="matrix(0.33493672,0,0,0.33493672,-0.50000001,-0.50000001)"
         clip-rule="evenodd"
         id="path7" />
    </clipPath>
    <clipPath
       clipPathUnits="userSpaceOnUse"
       id="clipPath8">
      <path
         d="M 0,0 H 1316.6666 V 982.27509 H 0 Z"
         transform="matrix(0.33493338,0,0,0.33493338,-91.59375,-69)"
         clip-rule="evenodd"
         id="path8" />
    </clipPath>
    <clipPath
       clipPathUnits="userSpaceOnUse"
       id="clipPath10">
      <path
         d="M 0,0 H 1316.6666 V 982.27509 H 0 Z"
         transform="matrix(0.33493672,0,0,0.33493672,-0.50000001,-0.50000001)"
         clip-rule="evenodd"
         id="path10" />
    </clipPath>
    <clipPath
       clipPathUnits="userSpaceOnUse"
       id="clipPath11">
      <path
         d="M 0,0 H 1316.6666 V 982.27509 H 0 Z"
         transform="matrix(0.33493338,0,0,0.33493338,-56.53125,-109)"
         clip-rule="evenodd"
         id="path11" />
    </clipPath>
    <clipPath
       clipPathUnits="userSpaceOnUse"
       id="clipPath13">
      <path
         d="M 0,0 H 1316.6666 V 982.27509 H 0 Z"
         transform="matrix(0.33493672,0,0,0.33493672,-0.50000001,-0.50000001)"
         clip-rule="evenodd"
         id="path13" />
    </clipPath>
    <clipPath
       clipPathUnits="userSpaceOnUse"
       id="clipPath14">
      <path
         d="M 0,0 H 1316.6666 V 982.27509 H 0 Z"
         transform="matrix(0.33493338,0,0,0.33493338,-38.578125,-149)"
         clip-rule="evenodd"
         id="path14" />
    </clipPath>
    <clipPath
       clipPathUnits="userSpaceOnUse"
       id="clipPath16">
      <path
         d="M 0,0 H 1316.6666 V 982.27509 H 0 Z"
         transform="matrix(0.33493672,0,0,0.33493672,-0.50000001,-0.50000001)"
         clip-rule="evenodd"
         id="path16" />
    </clipPath>
    <clipPath
       clipPathUnits="userSpaceOnUse"
       id="clipPath17">
      <path
         d="M 0,0 H 1316.6666 V 982.27509 H 0 Z"
         transform="matrix(0.33493338,0,0,0.33493338,-79.59375,-309)"
         clip-rule="evenodd"
         id="path17" />
    </clipPath>
    <clipPath
       clipPathUnits="userSpaceOnUse"
       id="clipPath19">
      <path
         d="M 0,0 H 1316.6666 V 982.27509 H 0 Z"
         transform="matrix(0.33493672,0,0,0.33493672,-0.50000001,-0.50000001)"
         clip-rule="evenodd"
         id="path19" />
    </clipPath>
    <clipPath
       clipPathUnits="userSpaceOnUse"
       id="clipPath21">
      <path
         d="M 0,0 H 1316.6666 V 982.27509 H 0 Z"
         transform="matrix(0.33493672,0,0,0.33493672,-0.50000001,-0.50000001)"
         clip-rule="evenodd"
         id="path21" />
    </clipPath>
    <clipPath
       clipPathUnits="userSpaceOnUse"
       id="clipPath23">
      <path
         d="M 0,0 H 1316.6666 V 982.27509 H 0 Z"
         transform="matrix(0.33493672,0,0,0.33493672,-0.50000001,-0.50000001)"
         clip-rule="evenodd"
         id="path23" />
    </clipPath>
    <clipPath
       clipPathUnits="userSpaceOnUse"
       id="clipPath24">
      <path
         d="M 0,0 H 1316.6666 V 982.27509 H 0 Z"
         transform="matrix(0.33493338,0,0,0.33493338,-38.359375,-189)"
         clip-rule="evenodd"
         id="path24" />
    </clipPath>
    <clipPath
       clipPathUnits="userSpaceOnUse"
       id="clipPath26">
      <path
         d="M 0,0 H 1316.6666 V 982.27509 H 0 Z"
         transform="matrix(0.33493672,0,0,0.33493672,-0.50000001,-0.50000001)"
         clip-rule="evenodd"
         id="path26" />
    </clipPath>
    <clipPath
       clipPathUnits="userSpaceOnUse"
       id="clipPath27">
      <path
         d="M 0,0 H 1316.6666 V 982.27509 H 0 Z"
         transform="matrix(0.33493338,0,0,0.33493338,-80.453125,-229)"
         clip-rule="evenodd"
         id="path27" />
    </clipPath>
    <clipPath
       clipPathUnits="userSpaceOnUse"
       id="clipPath29">
      <path
         d="M 0,0 H 1316.6666 V 982.27509 H 0 Z"
         transform="matrix(0.33493672,0,0,0.33493672,-0.50000001,-0.50000001)"
         clip-rule="evenodd"
         id="path29" />
    </clipPath>
    <clipPath
       clipPathUnits="userSpaceOnUse"
       id="clipPath30">
      <path
         d="M 0,0 H 1316.6666 V 982.27509 H 0 Z"
         transform="matrix(0.33493338,0,0,0.33493338,-50.1875,-269)"
         clip-rule="evenodd"
         id="path30" />
    </clipPath>
  </defs>
  <sodipodi:namedview
     id="namedview1"
     pagecolor="#ffffff"
     bordercolor="#000000"
     borderopacity="0.25"
     inkscape:showpageshadow="2"
     inkscape:pageopacity="0.0"
     inkscape:pagecheckerboard="0"
     inkscape:deskcolor="#d1d1d1">
    <inkscape:page
       x="0"
       y="0"
       inkscape:label="1"
       id="page1"
       width="421.44"
       height="315.84"
       margin="0"
       bleed="0" />
  </sodipodi:namedview>
  <g
     id="g1"
     inkscape:groupmode="layer"
     inkscape:label="1">
    <path
       id="path1"
       d="M 0,0 H 441 V 330 H 0 Z"
       style="fill:#ffffff;fill-opacity:1;fill-rule:nonzero;stroke:none"
       transform="scale(0.95540431)"
       clip-path="url(#clipPath2)" />
    <path
       id="path3"
       d="M 18,8 H 438 V 38 H 18 Z"
       style="fill:#ffffff;fill-opacity:1;fill-rule:nonzero;stroke:#000000;stroke-width:1;stroke-linecap:butt;stroke-linejoin:miter;stroke-miterlimit:10;stroke-dasharray:none;stroke-opacity:1"
       transform="matrix(0.95540431,0,0,0.95540431,0.47770216,0.47770216)"
       clip-path="url(#clipPath4)" />
    <text
       id="text4"
       xml:space="preserve"
       transform="matrix(0.95541385,0,0,0.95541385,154.15005,27.707002)"
       clip-path="url(#clipPath5)"><tspan
         style="font-variant:normal;font-weight:normal;font-size:15px;font-family:Helvetica;writing-mode:lr-tb;fill:#000000;fill-opacity:1;fill-rule:nonzero;stroke:none"
         x="0 10.83252 19.174805 22.507324 25.839844 30.007324 32.871094 37.866211 46.208496 54.550781 62.893066 71.235352 76.230469 79.094238 83.261719 95.756836 104.09912 108.2666 116.60889 124.95117"
         y="0"
         sodipodi:role="line"
         id="tspan4">Call 'render' method</tspan></text>
    <path
       id="path6"
       d="M 18,48 H 438 V 78 H 18 Z"
       style="fill:#ffffff;fill-opacity:1;fill-rule:nonzero;stroke:#000000;stroke-width:1;stroke-linecap:butt;stroke-linejoin:miter;stroke-miterlimit:10;stroke-dasharray:none;stroke-opacity:1"
       transform="matrix(0.95540431,0,0,0.95540431,0.47770216,0.47770216)"
       clip-path="url(#clipPath7)" />
    <text
       id="text7"
       xml:space="preserve"
       transform="matrix(0.95541385,0,0,0.95541385,87.509937,65.923556)"
       clip-path="url(#clipPath8)"><tspan
         style="font-variant:normal;font-weight:normal;font-size:15px;font-family:Helvetica;writing-mode:lr-tb;fill:#000000;fill-opacity:1;fill-rule:nonzero;stroke:none"
         x="0 10.83252 19.174805 27.51709 35.859375 44.20166 49.196777 53.364258 60.864258 69.206543 72.539062 75.871582 83.371582 87.539062 90.402832 94.570312 102.9126 115.40771 123.75 127.08252 135.4248 139.59229 147.93457 150.79834 154.96582 159.1333 167.47559 175.81787 179.98535 187.48535 191.65283 202.48535 211.64795 224.14307 231.93604 236.10352 243.60352 247.771 252.76611 256.09863 264.44092"
         y="0"
         sodipodi:role="line"
         id="tspan7">Render calls 'template', gets HTML string</tspan></text>
    <path
       id="path9"
       d="m 18,88 h 420 v 30 H 18 Z"
       style="fill:#ffffff;fill-opacity:1;fill-rule:nonzero;stroke:#000000;stroke-width:1;stroke-linecap:butt;stroke-linejoin:miter;stroke-miterlimit:10;stroke-dasharray:none;stroke-opacity:1"
       transform="matrix(0.95540431,0,0,0.95540431,0.47770216,0.47770216)"
       clip-path="url(#clipPath10)" />
    <text
       id="text10"
       xml:space="preserve"
       transform="matrix(0.95541385,0,0,0.95541385,54.010739,104.14011)"
       clip-path="url(#clipPath11)"><tspan
         style="font-variant:normal;font-weight:normal;font-size:15px;font-family:Helvetica;writing-mode:lr-tb;fill:#000000;fill-opacity:1;fill-rule:nonzero;stroke:none"
         x="0 10.83252 19.174805 27.51709 35.859375 44.20166 49.196777 53.364258 56.696777 65.039062 72.539062 80.881348 85.876465 90.043945 97.543945 101.71143 112.54395 121.70654 134.20166 141.99463 146.16211 153.66211 157.82959 162.82471 166.15723 174.49951 182.8418 187.00928 190.3418 198.68408 202.85156 211.19385 215.36133 223.70361 227.87109 232.03857 240.38086 252.87598 261.21826 264.55078 272.89307 277.06055 285.40283 289.57031 297.9126 301.24512 309.5874 322.08252 330.4248 338.76709"
         y="0"
         sodipodi:role="line"
         id="tspan10">Render inserts HTML string into a template element</tspan></text>
    <path
       id="path12"
       d="m 18,128 h 420 v 30 H 18 Z"
       style="fill:#ffffff;fill-opacity:1;fill-rule:nonzero;stroke:#000000;stroke-width:1;stroke-linecap:butt;stroke-linejoin:miter;stroke-miterlimit:10;stroke-dasharray:none;stroke-opacity:1"
       transform="matrix(0.95540431,0,0,0.95540431,0.47770216,0.47770216)"
       clip-path="url(#clipPath13)" />
    <text
       id="text13"
       xml:space="preserve"
       transform="matrix(0.95541385,0,0,0.95541385,36.858075,142.35666)"
       clip-path="url(#clipPath14)"><tspan
         style="font-variant:normal;font-weight:normal;font-size:15px;font-family:Helvetica;writing-mode:lr-tb;fill:#000000;fill-opacity:1;fill-rule:nonzero;stroke:none"
         x="0 10.004883 13.337402 21.679688 30.021973 34.189453 42.531738 50.031738 58.374023 66.716309 70.883789 75.05127 83.393555 91.73584 100.07812 108.42041 111.75293 120.09521 125.09033 132.59033 136.75781 140.92529 149.26758 153.43506 157.60254 165.94482 174.28711 178.45459 189.28711 198.44971 210.94482 218.73779 222.90527 226.23779 234.58008 238.74756 242.91504 251.25732 259.59961 263.76709 267.93457 276.27686 288.77197 297.11426 300.44678 308.78906 312.95654 321.29883 325.46631 333.80859 337.14111 345.4834 357.97852 366.3208 374.66309"
         y="0"
         sodipodi:role="line"
         id="tspan13">Bind event handlers to the HTML in the template element</tspan></text>
    <path
       id="path15"
       d="m 18,288 h 420 v 30 H 18 Z"
       style="fill:#ffffff;fill-opacity:1;fill-rule:nonzero;stroke:#000000;stroke-width:1;stroke-linecap:butt;stroke-linejoin:miter;stroke-miterlimit:10;stroke-dasharray:none;stroke-opacity:1"
       transform="matrix(0.95540431,0,0,0.95540431,0.47770216,0.47770216)"
       clip-path="url(#clipPath16)" />
    <text
       id="text16"
       xml:space="preserve"
       transform="matrix(0.95541385,0,0,0.95541385,76.044971,295.22288)"
       clip-path="url(#clipPath17)"><tspan
         style="font-variant:normal;font-weight:normal;font-size:15px;font-family:Helvetica;writing-mode:lr-tb;fill:#000000;fill-opacity:1;fill-rule:nonzero;stroke:none"
         x="0 10.83252 19.174805 27.51709 35.859375 44.20166 49.196777 53.364258 56.696777 65.039062 72.539062 80.881348 85.876465 90.043945 97.543945 101.71143 109.21143 117.55371 125.896 130.06348 138.40576 146.74805 150.91553 155.08301 163.42529 167.59277 171.76025 175.92773 184.27002 196.76514 205.10742 208.43994 216.78223 220.94971 229.29199 233.45947 236.79199 245.13428 249.30176 257.64404 261.81152 272.64404 284.31152"
         y="0"
         sodipodi:role="line"
         id="tspan16">Render inserts content of template into DOM</tspan></text>
    <path
       id="path18"
       d="M 8,8 V 311.64001"
       style="fill:none;stroke:#000000;stroke-width:1;stroke-linecap:butt;stroke-linejoin:miter;stroke-miterlimit:10;stroke-dasharray:none;stroke-opacity:1"
       transform="matrix(0.95540431,0,0,0.95540431,0.47770216,0.47770216)"
       clip-path="url(#clipPath19)" />
    <path
       id="path20"
       d="m 8,316.89001 -3.5,-7 3.5,1.75 3.5,-1.75 z"
       style="fill:#000000;fill-opacity:1;fill-rule:nonzero;stroke:#000000;stroke-width:1;stroke-linecap:butt;stroke-linejoin:miter;stroke-miterlimit:10;stroke-dasharray:none;stroke-opacity:1"
       transform="matrix(0.95540431,0,0,0.95540431,0.47770216,0.47770216)"
       clip-path="url(#clipPath21)" />
    <path
       id="path22"
       d="m 18,168 h 420 v 30 H 18 Z"
       style="fill:#dae8fc;fill-opacity:1;fill-rule:nonzero;stroke:#6c8ebf;stroke-width:1;stroke-linecap:butt;stroke-linejoin:miter;stroke-miterlimit:10;stroke-dasharray:none;stroke-opacity:1"
       transform="matrix(0.95540431,0,0,0.95540431,0.47770216,0.47770216)"
       clip-path="url(#clipPath23)" />
    <text
       id="text23"
       xml:space="preserve"
       transform="matrix(0.95541385,0,0,0.95541385,36.649078,180.57322)"
       clip-path="url(#clipPath24)"><tspan
         style="font-variant:normal;font-weight:normal;font-size:15px;font-family:Helvetica;writing-mode:lr-tb;fill:#000000;fill-opacity:1;fill-rule:nonzero;stroke:none"
         x="0 10.83252 19.174805 22.507324 25.839844 30.007324 32.871094 37.866211 46.208496 54.550781 57.883301 66.225586 74.567871 87.062988 95.405273 103.74756 106.61133 110.77881 114.94629 123.28857 128.28369 132.45117 135.78369 139.11621 146.61621 150.78369 154.95117 163.29346 167.46094 171.62842 176.62354 184.96582 193.30811 196.64062 204.98291 213.3252 220.8252 224.99268 229.16016 237.50244 245.84473 250.01221 254.17969 262.52197 270.86426 279.20654 287.54883 291.71631 295.88379 304.22607 308.39355 316.73584 325.07812 329.24561 336.74561 341.74072 350.08301 358.42529 362.59277 370.93506"
         y="0"
         sodipodi:role="line"
         id="tspan23">Call 'regionMap' for list of regions that need to be created</tspan></text>
    <path
       id="path25"
       d="m 18,208 h 420 v 30 H 18 Z"
       style="fill:#dae8fc;fill-opacity:1;fill-rule:nonzero;stroke:#6c8ebf;stroke-width:1;stroke-linecap:butt;stroke-linejoin:miter;stroke-miterlimit:10;stroke-dasharray:none;stroke-opacity:1"
       transform="matrix(0.95540431,0,0,0.95540431,0.47770216,0.47770216)"
       clip-path="url(#clipPath26)" />
    <text
       id="text26"
       xml:space="preserve"
       transform="matrix(0.95541385,0,0,0.95541385,76.86603,218.78977)"
       clip-path="url(#clipPath27)"><tspan
         style="font-variant:normal;font-weight:normal;font-size:15px;font-family:Helvetica;writing-mode:lr-tb;fill:#000000;fill-opacity:1;fill-rule:nonzero;stroke:none"
         x="0 10.83252 19.174805 27.51709 35.859375 44.20166 49.196777 53.364258 65.859375 74.20166 78.369141 86.711426 95.053711 103.396 107.56348 115.90576 124.24805 132.59033 140.93262 144.26514 152.60742 156.7749 165.11719 172.61719 176.78467 184.28467 192.62695 195.95947 204.30176 212.64404 220.14404 224.31152 227.64404 235.98633 240.15381 243.01758 248.0127 256.35498 264.69727 268.02979 276.37207 284.71436 292.21436"
         y="0"
         sodipodi:role="line"
         id="tspan26">Render method populates values in 'regions'</tspan></text>
    <path
       id="path28"
       d="m 18,248 h 420 v 30 H 18 Z"
       style="fill:#dae8fc;fill-opacity:1;fill-rule:nonzero;stroke:#6c8ebf;stroke-width:1;stroke-linecap:butt;stroke-linejoin:miter;stroke-miterlimit:10;stroke-dasharray:none;stroke-opacity:1"
       transform="matrix(0.95540431,0,0,0.95540431,0.47770216,0.47770216)"
       clip-path="url(#clipPath29)" />
    <text
       id="text29"
       xml:space="preserve"
       transform="matrix(0.95541385,0,0,0.95541385,47.949833,257.00633)"
       clip-path="url(#clipPath30)"><tspan
         style="font-variant:normal;font-weight:normal;font-size:15px;font-family:Helvetica;writing-mode:lr-tb;fill:#000000;fill-opacity:1;fill-rule:nonzero;stroke:none"
         x="0 13.894043 22.236328 26.403809 33.903809 42.246094 54.741211 63.083496 71.425781 79.768066 90.600586 94.768066 98.100586 106.44287 113.94287 122.28516 127.28027 131.44775 135.61523 143.95752 152.2998 163.13232 167.2998 170.16357 177.66357 186.00586 189.33838 192.6709 201.01318 203.87695 208.04443 215.54443 218.87695 227.21924 238.05176 245.55176 249.71924 253.05176 261.39404 265.56152 269.729 278.07129 286.41357 293.91357 302.25586 306.42334 311.41846 319.76074 328.10303 331.43555 339.77783 348.12012"
         y="0"
         sodipodi:role="line"
         id="tspan29">We somehow insert new 'child' views in those regions</tspan></text>
  </g>
</svg>
