<?xml version="1.0" encoding="UTF-8" standalone="no"?>
<!-- Created with Inkscape (http://www.inkscape.org/) -->

<svg
   version="1.1"
   id="svg1"
   width="204.15999"
   height="233.27998"
   viewBox="0 0 204.15999 233.27998"
   sodipodi:docname="ts-12.pdf"
   xmlns:inkscape="http://www.inkscape.org/namespaces/inkscape"
   xmlns:sodipodi="http://sodipodi.sourceforge.net/DTD/sodipodi-0.dtd"
   xmlns="http://www.w3.org/2000/svg"
   xmlns:svg="http://www.w3.org/2000/svg">
  <defs
     id="defs1">
    <clipPath
       clipPathUnits="userSpaceOnUse"
       id="clipPath2">
      <path
         d="M 0,0 H 637.49994 V 726.86908 H 0 Z"
         transform="scale(0.33568631)"
         clip-rule="evenodd"
         id="path2" />
    </clipPath>
    <clipPath
       clipPathUnits="userSpaceOnUse"
       id="clipPath4">
      <path
         d="M 0,0 H 637.49994 V 720.91113 H 0 Z"
         transform="matrix(0.33568631,0,0,0.33568631,-0.50000001,-0.50000001)"
         clip-rule="evenodd"
         id="path4" />
    </clipPath>
    <clipPath
       clipPathUnits="userSpaceOnUse"
       id="clipPath5">
      <path
         d="M 0,0 H 637.49994 V 720.91113 H 0 Z"
         transform="matrix(0.33568295,0,0,0.33568295,-38.453125,-28)"
         clip-rule="evenodd"
         id="path5" />
    </clipPath>
    <clipPath
       clipPathUnits="userSpaceOnUse"
       id="clipPath7">
      <path
         d="M 0,0 H 637.49994 V 720.91113 H 0 Z"
         transform="matrix(0.33568631,0,0,0.33568631,-0.50000001,-0.50000001)"
         clip-rule="evenodd"
         id="path7" />
    </clipPath>
    <clipPath
       clipPathUnits="userSpaceOnUse"
       id="clipPath8">
      <path
         d="M 0,0 H 637.49994 V 720.91113 H 0 Z"
         transform="matrix(0.33568295,0,0,0.33568295,-53.046875,-58.000001)"
         clip-rule="evenodd"
         id="path8" />
    </clipPath>
    <clipPath
       clipPathUnits="userSpaceOnUse"
       id="clipPath10">
      <path
         d="M 0,0 H 637.49994 V 720.91113 H 0 Z"
         transform="matrix(0.33568631,0,0,0.33568631,-0.50000001,-0.50000001)"
         clip-rule="evenodd"
         id="path10" />
    </clipPath>
    <clipPath
       clipPathUnits="userSpaceOnUse"
       id="clipPath11">
      <path
         d="M 0,0 H 637.49994 V 720.91113 H 0 Z"
         transform="matrix(0.33568295,0,0,0.33568295,-49.71875,-102)"
         clip-rule="evenodd"
         id="path11" />
    </clipPath>
    <clipPath
       clipPathUnits="userSpaceOnUse"
       id="clipPath13">
      <path
         d="M 0,0 H 637.49994 V 720.91113 H 0 Z"
         transform="matrix(0.33568631,0,0,0.33568631,-0.50000001,-0.50000001)"
         clip-rule="evenodd"
         id="path13" />
    </clipPath>
    <clipPath
       clipPathUnits="userSpaceOnUse"
       id="clipPath14">
      <path
         d="M 0,0 H 637.49994 V 720.91113 H 0 Z"
         transform="matrix(0.33568295,0,0,0.33568295,-61.390625,-124)"
         clip-rule="evenodd"
         id="path14" />
    </clipPath>
    <clipPath
       clipPathUnits="userSpaceOnUse"
       id="clipPath16">
      <path
         d="M 0,0 H 637.49994 V 720.91113 H 0 Z"
         transform="matrix(0.33568631,0,0,0.33568631,-0.50000001,-0.50000001)"
         clip-rule="evenodd"
         id="path16" />
    </clipPath>
    <clipPath
       clipPathUnits="userSpaceOnUse"
       id="clipPath17">
      <path
         d="M 0,0 H 637.49994 V 720.91113 H 0 Z"
         transform="matrix(0.33568295,0,0,0.33568295,-3.453125,-146)"
         clip-rule="evenodd"
         id="path17" />
    </clipPath>
    <clipPath
       clipPathUnits="userSpaceOnUse"
       id="clipPath19">
      <path
         d="M 0,0 H 637.49994 V 720.91113 H 0 Z"
         transform="matrix(0.33568631,0,0,0.33568631,-0.50000001,-0.50000001)"
         clip-rule="evenodd"
         id="path19" />
    </clipPath>
    <clipPath
       clipPathUnits="userSpaceOnUse"
       id="clipPath20">
      <path
         d="M 0,0 H 637.49994 V 720.91113 H 0 Z"
         transform="matrix(0.33568295,0,0,0.33568295,-45.96875,-168)"
         clip-rule="evenodd"
         id="path20" />
    </clipPath>
    <clipPath
       clipPathUnits="userSpaceOnUse"
       id="clipPath22">
      <path
         d="M 0,0 H 637.49994 V 720.91113 H 0 Z"
         transform="matrix(0.33568631,0,0,0.33568631,-0.50000001,-0.50000001)"
         clip-rule="evenodd"
         id="path22" />
    </clipPath>
    <clipPath
       clipPathUnits="userSpaceOnUse"
       id="clipPath23">
      <path
         d="M 0,0 H 637.49994 V 720.91113 H 0 Z"
         transform="matrix(0.33568295,0,0,0.33568295,-48.46875,-190)"
         clip-rule="evenodd"
         id="path23" />
    </clipPath>
    <clipPath
       clipPathUnits="userSpaceOnUse"
       id="clipPath25">
      <path
         d="M 0,0 H 637.49994 V 720.91113 H 0 Z"
         transform="matrix(0.33568631,0,0,0.33568631,-0.50000001,-0.50000001)"
         clip-rule="evenodd"
         id="path25" />
    </clipPath>
    <clipPath
       clipPathUnits="userSpaceOnUse"
       id="clipPath26">
      <path
         d="M 0,0 H 637.49994 V 720.91113 H 0 Z"
         transform="matrix(0.33568295,0,0,0.33568295,-27.21875,-212)"
         clip-rule="evenodd"
         id="path26" />
    </clipPath>
    <clipPath
       clipPathUnits="userSpaceOnUse"
       id="clipPath28">
      <path
         d="M 0,0 H 637.49994 V 720.91113 H 0 Z"
         transform="matrix(0.33568631,0,0,0.33568631,-0.50000001,-0.50000001)"
         clip-rule="evenodd"
         id="path28" />
    </clipPath>
    <clipPath
       clipPathUnits="userSpaceOnUse"
       id="clipPath29">
      <path
         d="M 0,0 H 637.49994 V 720.91113 H 0 Z"
         transform="matrix(0.33568295,0,0,0.33568295,-33.875,-234)"
         clip-rule="evenodd"
         id="path29" />
    </clipPath>
    <clipPath
       clipPathUnits="userSpaceOnUse"
       id="clipPath31">
      <path
         d="M 0,0 H 637.49994 V 720.91113 H 0 Z"
         transform="matrix(0.33568631,0,0,0.33568631,-0.50000001,-0.50000001)"
         clip-rule="evenodd"
         id="path31" />
    </clipPath>
    <clipPath
       clipPathUnits="userSpaceOnUse"
       id="clipPath32">
      <path
         d="M 0,0 H 637.49994 V 720.91113 H 0 Z"
         transform="matrix(0.33568295,0,0,0.33568295,-65.5625,-80)"
         clip-rule="evenodd"
         id="path32" />
    </clipPath>
  </defs>
  <sodipodi:namedview
     id="namedview1"
     pagecolor="#ffffff"
     bordercolor="#000000"
     borderopacity="0.25"
     inkscape:showpageshadow="2"
     inkscape:pageopacity="0.0"
     inkscape:pagecheckerboard="0"
     inkscape:deskcolor="#d1d1d1">
    <inkscape:page
       x="0"
       y="0"
       inkscape:label="1"
       id="page1"
       width="204.15999"
       height="233.27998"
       margin="0"
       bleed="0" />
  </sodipodi:namedview>
  <g
     id="g1"
     inkscape:groupmode="layer"
     inkscape:label="1">
    <path
       id="path1"
       d="M 0,0 H 214 V 244 H 0 Z"
       style="fill:#ffffff;fill-opacity:1;fill-rule:nonzero;stroke:none"
       transform="scale(0.9532709)"
       clip-path="url(#clipPath2)" />
    <path
       id="path3"
       d="M 1,1 H 211 V 41 H 1 Z"
       style="fill:#dae8fc;fill-opacity:1;fill-rule:nonzero;stroke:#6c8ebf;stroke-width:1;stroke-linecap:butt;stroke-linejoin:miter;stroke-miterlimit:10;stroke-dasharray:none;stroke-opacity:1"
       transform="matrix(0.9532709,0,0,0.9532709,0.47663546,0.47663546)"
       clip-path="url(#clipPath4)" />
    <text
       id="text4"
       xml:space="preserve"
       transform="matrix(0.95328044,0,0,0.95328044,36.656612,26.691852)"
       clip-path="url(#clipPath5)"><tspan
         style="font-variant:normal;font-weight:700;font-size:18px;font-family:Helvetica;writing-mode:lr-tb;fill:#000000;fill-opacity:1;fill-rule:nonzero;stroke:none"
         x="0 10.010742 15.011719 25.022461 35.033203 45.043945 50.044922 63.043945 73.054688 83.06543 90.070312 101.06543 112.06055 119.06543"
         y="0"
         sodipodi:role="line"
         id="tspan4">class UserForm</tspan></text>
    <path
       id="path6"
       d="M 1,41 H 211 V 63 H 1 Z"
       style="fill:#ffffff;fill-opacity:1;fill-rule:nonzero;stroke:#000000;stroke-width:1;stroke-linecap:butt;stroke-linejoin:miter;stroke-miterlimit:10;stroke-dasharray:none;stroke-opacity:1"
       transform="matrix(0.9532709,0,0,0.9532709,0.47663546,0.47663546)"
       clip-path="url(#clipPath7)" />
    <text
       id="text7"
       xml:space="preserve"
       transform="matrix(0.95328044,0,0,0.95328044,50.568548,55.290266)"
       clip-path="url(#clipPath8)"><tspan
         style="font-variant:normal;font-weight:normal;font-size:15px;font-family:Helvetica;writing-mode:lr-tb;fill:#000000;fill-opacity:1;fill-rule:nonzero;stroke:none"
         x="0 8.3422852 16.68457 21.679688 30.021973 38.364258 42.531738 46.699219 50.866699 60.871582 64.204102 72.546387 85.041504 93.383789 101.72607"
         y="0"
         sodipodi:role="line"
         id="tspan7">parent: Element</tspan></text>
    <path
       id="path9"
       d="m 1,85 h 210 v 22 H 1 Z"
       style="fill:#ffffff;fill-opacity:1;fill-rule:nonzero;stroke:#000000;stroke-width:1;stroke-linecap:butt;stroke-linejoin:miter;stroke-miterlimit:10;stroke-dasharray:none;stroke-opacity:1"
       transform="matrix(0.9532709,0,0,0.9532709,0.47663546,0.47663546)"
       clip-path="url(#clipPath10)" />
    <text
       id="text10"
       xml:space="preserve"
       transform="matrix(0.95328044,0,0,0.95328044,47.395912,97.234605)"
       clip-path="url(#clipPath11)"><tspan
         style="font-variant:normal;font-weight:normal;font-size:15px;font-family:Helvetica;writing-mode:lr-tb;fill:#000000;fill-opacity:1;fill-rule:nonzero;stroke:none"
         x="0 4.1674805 12.509766 25.004883 33.347168 36.679688 45.021973 49.189453 57.531738 62.526855 67.521973 71.689453 75.856934 83.356934 87.524414 92.519531 95.852051 104.19434"
         y="0"
         sodipodi:role="line"
         id="tspan10">template(): string</tspan></text>
    <path
       id="path12"
       d="m 1,107 h 210 v 22 H 1 Z"
       style="fill:#ffffff;fill-opacity:1;fill-rule:nonzero;stroke:#000000;stroke-width:1;stroke-linecap:butt;stroke-linejoin:miter;stroke-miterlimit:10;stroke-dasharray:none;stroke-opacity:1"
       transform="matrix(0.9532709,0,0,0.9532709,0.47663546,0.47663546)"
       clip-path="url(#clipPath13)" />
    <text
       id="text13"
       xml:space="preserve"
       transform="matrix(0.95328044,0,0,0.95328044,58.522482,118.20677)"
       clip-path="url(#clipPath14)"><tspan
         style="font-variant:normal;font-weight:normal;font-size:15px;font-family:Helvetica;writing-mode:lr-tb;fill:#000000;fill-opacity:1;fill-rule:nonzero;stroke:none"
         x="0 4.9951172 13.337402 21.679688 30.021973 38.364258 43.359375 48.354492 53.349609 57.51709 61.68457 69.18457 77.526855 80.859375"
         y="0"
         sodipodi:role="line"
         id="tspan13">render(): void</tspan></text>
    <path
       id="path15"
       d="m 1,129 h 210 v 22 H 1 Z"
       style="fill:#ffffff;fill-opacity:1;fill-rule:nonzero;stroke:#000000;stroke-width:1;stroke-linecap:butt;stroke-linejoin:miter;stroke-miterlimit:10;stroke-dasharray:none;stroke-opacity:1"
       transform="matrix(0.9532709,0,0,0.9532709,0.47663546,0.47663546)"
       clip-path="url(#clipPath16)" />
    <text
       id="text16"
       xml:space="preserve"
       transform="matrix(0.95328044,0,0,0.95328044,3.2917965,139.17894)"
       clip-path="url(#clipPath17)"><tspan
         style="font-variant:normal;font-weight:normal;font-size:15px;font-family:Helvetica;writing-mode:lr-tb;fill:#000000;fill-opacity:1;fill-rule:nonzero;stroke:none"
         x="0 8.3422852 15.842285 24.18457 32.526855 36.694336 44.194336 56.689453 65.031738 73.374023 78.369141 83.364258 87.531738 91.699219 96.708984 100.87646 108.37646 116.71875 124.21875 128.38623 132.55371 137.54883 142.54395 146.71143 155.47119 164.23096 168.39844 175.89844 184.24072 187.57324 195.91553 200.08301"
         y="0"
         sodipodi:role="line"
         id="tspan16">eventsMap(): { key: () =&gt; void }</tspan></text>
    <path
       id="path18"
       d="m 1,151 h 210 v 22 H 1 Z"
       style="fill:#ffffff;fill-opacity:1;fill-rule:nonzero;stroke:#000000;stroke-width:1;stroke-linecap:butt;stroke-linejoin:miter;stroke-miterlimit:10;stroke-dasharray:none;stroke-opacity:1"
       transform="matrix(0.9532709,0,0,0.9532709,0.47663546,0.47663546)"
       clip-path="url(#clipPath19)" />
    <text
       id="text19"
       xml:space="preserve"
       transform="matrix(0.95328044,0,0,0.95328044,43.82111,160.15111)"
       clip-path="url(#clipPath20)"><tspan
         style="font-variant:normal;font-weight:normal;font-size:15px;font-family:Helvetica;writing-mode:lr-tb;fill:#000000;fill-opacity:1;fill-rule:nonzero;stroke:none"
         x="0 8.3422852 11.674805 20.01709 28.359375 38.364258 45.864258 54.206543 62.548828 66.716309 74.216309 79.211426 84.206543 88.374023 92.541504 100.0415 108.38379 111.71631"
         y="0"
         sodipodi:role="line"
         id="tspan19">bindEvents(): void</tspan></text>
    <path
       id="path21"
       d="m 1,173 h 210 v 22 H 1 Z"
       style="fill:#ffffff;fill-opacity:1;fill-rule:nonzero;stroke:#000000;stroke-width:1;stroke-linecap:butt;stroke-linejoin:miter;stroke-miterlimit:10;stroke-dasharray:none;stroke-opacity:1"
       transform="matrix(0.9532709,0,0,0.9532709,0.47663546,0.47663546)"
       clip-path="url(#clipPath22)" />
    <text
       id="text22"
       xml:space="preserve"
       transform="matrix(0.95328044,0,0,0.95328044,46.204311,181.12328)"
       clip-path="url(#clipPath23)"><tspan
         style="font-variant:normal;font-weight:normal;font-size:15px;font-family:Helvetica;writing-mode:lr-tb;fill:#000000;fill-opacity:1;fill-rule:nonzero;stroke:none"
         x="0 8.3422852 11.674805 20.01709 28.359375 40.854492 49.196777 57.539062 65.881348 69.213867 74.208984 79.204102 83.371582 87.539062 95.039062 103.38135 106.71387"
         y="0"
         sodipodi:role="line"
         id="tspan22">bindModel(): void</tspan></text>
    <path
       id="path24"
       d="m 1,195 h 210 v 22 H 1 Z"
       style="fill:#ffffff;fill-opacity:1;fill-rule:nonzero;stroke:#000000;stroke-width:1;stroke-linecap:butt;stroke-linejoin:miter;stroke-miterlimit:10;stroke-dasharray:none;stroke-opacity:1"
       transform="matrix(0.9532709,0,0,0.9532709,0.47663546,0.47663546)"
       clip-path="url(#clipPath25)" />
    <text
       id="text25"
       xml:space="preserve"
       transform="matrix(0.95328044,0,0,0.95328044,25.947102,202.09545)"
       clip-path="url(#clipPath26)"><tspan
         style="font-variant:normal;font-weight:normal;font-size:15px;font-family:Helvetica;writing-mode:lr-tb;fill:#000000;fill-opacity:1;fill-rule:nonzero;stroke:none"
         x="0 8.3422852 16.68457 26.689453 35.031738 39.199219 50.031738 58.374023 70.869141 79.211426 90.043945 93.376465 96.708984 104.20898 111.70898 116.7041 121.69922 125.8667 130.03418 137.53418 145.87646 149.20898"
         y="0"
         sodipodi:role="line"
         id="tspan25">onSetNameClick(): void</tspan></text>
    <path
       id="path27"
       d="m 1,217 h 210 v 22 H 1 Z"
       style="fill:#ffffff;fill-opacity:1;fill-rule:nonzero;stroke:#000000;stroke-width:1;stroke-linecap:butt;stroke-linejoin:miter;stroke-miterlimit:10;stroke-dasharray:none;stroke-opacity:1"
       transform="matrix(0.9532709,0,0,0.9532709,0.47663546,0.47663546)"
       clip-path="url(#clipPath28)" />
    <text
       id="text28"
       xml:space="preserve"
       transform="matrix(0.95328044,0,0,0.95328044,32.292375,223.06762)"
       clip-path="url(#clipPath29)"><tspan
         style="font-variant:normal;font-weight:normal;font-size:15px;font-family:Helvetica;writing-mode:lr-tb;fill:#000000;fill-opacity:1;fill-rule:nonzero;stroke:none"
         x="0 8.3422852 16.68457 26.689453 35.031738 39.199219 49.204102 57.546387 65.888672 76.721191 80.053711 83.38623 90.88623 98.38623 103.38135 108.37646 112.54395 116.71143 124.21143 132.55371 135.88623"
         y="0"
         sodipodi:role="line"
         id="tspan28">onSetAgeClick(): void</tspan></text>
    <path
       id="path30"
       d="M 1,63 H 211 V 85 H 1 Z"
       style="fill:#ffffff;fill-opacity:1;fill-rule:nonzero;stroke:#000000;stroke-width:1;stroke-linecap:butt;stroke-linejoin:miter;stroke-miterlimit:10;stroke-dasharray:none;stroke-opacity:1"
       transform="matrix(0.9532709,0,0,0.9532709,0.47663546,0.47663546)"
       clip-path="url(#clipPath31)" />
    <text
       id="text31"
       xml:space="preserve"
       transform="matrix(0.95328044,0,0,0.95328044,62.499449,76.262435)"
       clip-path="url(#clipPath32)"><tspan
         style="font-variant:normal;font-weight:normal;font-size:15px;font-family:Helvetica;writing-mode:lr-tb;fill:#000000;fill-opacity:1;fill-rule:nonzero;stroke:none"
         x="0 12.495117 20.837402 29.179688 37.521973 40.854492 45.021973 49.189453 60.021973 67.521973 75.864258"
         y="0"
         sodipodi:role="line"
         id="tspan31">model: User</tspan></text>
  </g>
</svg>
