<?xml version="1.0" encoding="UTF-8" standalone="no"?>
<!-- Created with Inkscape (http://www.inkscape.org/) -->

<svg
   version="1.1"
   id="svg1"
   width="525.44"
   height="158.72"
   viewBox="0 0 525.44 158.72"
   sodipodi:docname="ts-10.pdf"
   xmlns:inkscape="http://www.inkscape.org/namespaces/inkscape"
   xmlns:sodipodi="http://sodipodi.sourceforge.net/DTD/sodipodi-0.dtd"
   xmlns="http://www.w3.org/2000/svg"
   xmlns:svg="http://www.w3.org/2000/svg">
  <defs
     id="defs1">
    <clipPath
       clipPathUnits="userSpaceOnUse"
       id="clipPath2">
      <path
         d="M 0,0 H 1641.6665 V 493.39706 H 0 Z"
         transform="scale(0.33441626)"
         clip-rule="evenodd"
         id="path2" />
    </clipPath>
    <clipPath
       clipPathUnits="userSpaceOnUse"
       id="clipPath4">
      <path
         d="M 0,0 H 1641.6665 V 490.40677 H 0 Z"
         transform="matrix(0.33441626,0,0,0.33441626,-0.5,-0.5)"
         clip-rule="evenodd"
         id="path4" />
    </clipPath>
    <clipPath
       clipPathUnits="userSpaceOnUse"
       id="clipPath5">
      <path
         d="M 0,0 H 1641.6665 V 490.40677 H 0 Z"
         transform="matrix(0.33441291,0,0,0.33441291,-60.625,-28)"
         clip-rule="evenodd"
         id="path5" />
    </clipPath>
    <clipPath
       clipPathUnits="userSpaceOnUse"
       id="clipPath7">
      <path
         d="M 0,0 H 1641.6665 V 490.40677 H 0 Z"
         transform="matrix(0.33441626,0,0,0.33441626,-0.5,-0.5)"
         clip-rule="evenodd"
         id="path7" />
    </clipPath>
    <clipPath
       clipPathUnits="userSpaceOnUse"
       id="clipPath9">
      <path
         d="M 0,0 H 1641.6665 V 490.40677 H 0 Z"
         transform="matrix(0.33441626,0,0,0.33441626,-0.5,-0.5)"
         clip-rule="evenodd"
         id="path9" />
    </clipPath>
    <clipPath
       clipPathUnits="userSpaceOnUse"
       id="clipPath11">
      <path
         d="M 0,0 H 1641.6665 V 490.40677 H 0 Z"
         transform="matrix(0.33441626,0,0,0.33441626,-0.5,-0.5)"
         clip-rule="evenodd"
         id="path11" />
    </clipPath>
    <clipPath
       clipPathUnits="userSpaceOnUse"
       id="clipPath12">
      <path
         d="M 0,0 H 1641.6665 V 490.40677 H 0 Z"
         transform="matrix(0.33441291,0,0,0.33441291,-65.5625,-62)"
         clip-rule="evenodd"
         id="path12" />
    </clipPath>
    <clipPath
       clipPathUnits="userSpaceOnUse"
       id="clipPath14">
      <path
         d="M 0,0 H 1641.6665 V 490.40677 H 0 Z"
         transform="matrix(0.33441626,0,0,0.33441626,-0.5,-0.5)"
         clip-rule="evenodd"
         id="path14" />
    </clipPath>
    <clipPath
       clipPathUnits="userSpaceOnUse"
       id="clipPath16">
      <path
         d="M 0,0 H 1641.6665 V 490.40677 H 0 Z"
         transform="matrix(0.33441626,0,0,0.33441626,-0.5,-0.5)"
         clip-rule="evenodd"
         id="path16" />
    </clipPath>
    <clipPath
       clipPathUnits="userSpaceOnUse"
       id="clipPath18">
      <path
         d="M 0,0 H 1641.6665 V 490.40677 H 0 Z"
         transform="matrix(0.33441626,0,0,0.33441626,-0.5,-0.5)"
         clip-rule="evenodd"
         id="path18" />
    </clipPath>
    <clipPath
       clipPathUnits="userSpaceOnUse"
       id="clipPath20">
      <path
         d="M 0,0 H 1641.6665 V 490.40677 H 0 Z"
         transform="matrix(0.33441626,0,0,0.33441626,-0.5,-0.5)"
         clip-rule="evenodd"
         id="path20" />
    </clipPath>
    <clipPath
       clipPathUnits="userSpaceOnUse"
       id="clipPath21">
      <path
         d="M 0,0 H 1641.6665 V 490.40677 H 0 Z"
         transform="matrix(0.33441291,0,0,0.33441291,-309.31251,-54.000001)"
         clip-rule="evenodd"
         id="path21" />
    </clipPath>
    <clipPath
       clipPathUnits="userSpaceOnUse"
       id="clipPath23">
      <path
         d="M 0,0 H 1641.6665 V 490.40677 H 0 Z"
         transform="matrix(0.33441626,0,0,0.33441626,-0.5,-0.5)"
         clip-rule="evenodd"
         id="path23" />
    </clipPath>
    <clipPath
       clipPathUnits="userSpaceOnUse"
       id="clipPath24">
      <path
         d="M 0,0 H 1641.6665 V 490.40677 H 0 Z"
         transform="matrix(0.33441291,0,0,0.33441291,-426.65625,-54.000001)"
         clip-rule="evenodd"
         id="path24" />
    </clipPath>
    <clipPath
       clipPathUnits="userSpaceOnUse"
       id="clipPath26">
      <path
         d="M 0,0 H 1641.6665 V 490.40677 H 0 Z"
         transform="matrix(-0.33441626,0,0,-0.33441626,1072.5199,134.5)"
         clip-rule="evenodd"
         id="path26" />
    </clipPath>
    <clipPath
       clipPathUnits="userSpaceOnUse"
       id="clipPath27">
      <path
         d="M 0,0 H 1641.6665 V 490.40677 H 0 Z"
         transform="matrix(0.33441291,0,0,0.33441291,-315.67188,-17)"
         clip-rule="evenodd"
         id="path27" />
    </clipPath>
    <clipPath
       clipPathUnits="userSpaceOnUse"
       id="clipPath28">
      <path
         d="M 0,0 H 1641.6665 V 490.40677 H 0 Z"
         transform="matrix(0.33441291,0,0,0.33441291,-319.65625,-32)"
         clip-rule="evenodd"
         id="path28" />
    </clipPath>
    <clipPath
       clipPathUnits="userSpaceOnUse"
       id="clipPath29">
      <path
         d="M 0,0 H 1641.6665 V 490.40677 H 0 Z"
         transform="matrix(0.33441291,0,0,0.33441291,-422.65625,-17)"
         clip-rule="evenodd"
         id="path29" />
    </clipPath>
    <clipPath
       clipPathUnits="userSpaceOnUse"
       id="clipPath30">
      <path
         d="M 0,0 H 1641.6665 V 490.40677 H 0 Z"
         transform="matrix(0.33441291,0,0,0.33441291,-435.65625,-32)"
         clip-rule="evenodd"
         id="path30" />
    </clipPath>
    <clipPath
       clipPathUnits="userSpaceOnUse"
       id="clipPath32">
      <path
         d="M 0,0 H 1641.6665 V 490.40677 H 0 Z"
         transform="matrix(0.33441626,0,0,0.33441626,-0.5,-0.5)"
         clip-rule="evenodd"
         id="path32" />
    </clipPath>
    <clipPath
       clipPathUnits="userSpaceOnUse"
       id="clipPath33">
      <path
         d="M 0,0 H 1641.6665 V 490.40677 H 0 Z"
         transform="matrix(0.33441291,0,0,0.33441291,-3,-95)"
         clip-rule="evenodd"
         id="path33" />
    </clipPath>
    <clipPath
       clipPathUnits="userSpaceOnUse"
       id="clipPath34">
      <path
         d="M 0,0 H 1641.6665 V 490.40677 H 0 Z"
         transform="matrix(0.33441291,0,0,0.33441291,-3,-113)"
         clip-rule="evenodd"
         id="path34" />
    </clipPath>
    <clipPath
       clipPathUnits="userSpaceOnUse"
       id="clipPath35">
      <path
         d="M 0,0 H 1641.6665 V 490.40677 H 0 Z"
         transform="matrix(0.33441291,0,0,0.33441291,-3,-131)"
         clip-rule="evenodd"
         id="path35" />
    </clipPath>
    <clipPath
       clipPathUnits="userSpaceOnUse"
       id="clipPath36">
      <path
         d="M 0,0 H 1641.6665 V 490.40677 H 0 Z"
         transform="matrix(0.33441291,0,0,0.33441291,-3,-149)"
         clip-rule="evenodd"
         id="path36" />
    </clipPath>
    <clipPath
       clipPathUnits="userSpaceOnUse"
       id="clipPath38">
      <path
         d="M 0,0 H 1641.6665 V 490.40677 H 0 Z"
         transform="matrix(0.33441626,0,0,0.33441626,-0.5,-0.5)"
         clip-rule="evenodd"
         id="path38" />
    </clipPath>
    <clipPath
       clipPathUnits="userSpaceOnUse"
       id="clipPath40">
      <path
         d="M 0,0 H 1641.6665 V 490.40677 H 0 Z"
         transform="matrix(0.33441626,0,0,0.33441626,-0.5,-0.5)"
         clip-rule="evenodd"
         id="path40" />
    </clipPath>
    <clipPath
       clipPathUnits="userSpaceOnUse"
       id="clipPath42">
      <path
         d="M 0,0 H 1641.6665 V 490.40677 H 0 Z"
         transform="matrix(0.33441626,0,0,0.33441626,-0.5,-0.5)"
         clip-rule="evenodd"
         id="path42" />
    </clipPath>
    <clipPath
       clipPathUnits="userSpaceOnUse"
       id="clipPath43">
      <path
         d="M 0,0 H 1641.6665 V 490.40677 H 0 Z"
         transform="matrix(0.33441291,0,0,0.33441291,-310.32813,-87.000001)"
         clip-rule="evenodd"
         id="path43" />
    </clipPath>
    <clipPath
       clipPathUnits="userSpaceOnUse"
       id="clipPath45">
      <path
         d="M 0,0 H 1641.6665 V 490.40677 H 0 Z"
         transform="matrix(0.33441626,0,0,0.33441626,-0.5,-0.5)"
         clip-rule="evenodd"
         id="path45" />
    </clipPath>
    <clipPath
       clipPathUnits="userSpaceOnUse"
       id="clipPath46">
      <path
         d="M 0,0 H 1641.6665 V 490.40677 H 0 Z"
         transform="matrix(0.33441291,0,0,0.33441291,-428.65625,-87.000001)"
         clip-rule="evenodd"
         id="path46" />
    </clipPath>
  </defs>
  <sodipodi:namedview
     id="namedview1"
     pagecolor="#ffffff"
     bordercolor="#000000"
     borderopacity="0.25"
     inkscape:showpageshadow="2"
     inkscape:pageopacity="0.0"
     inkscape:pagecheckerboard="0"
     inkscape:deskcolor="#d1d1d1">
    <inkscape:page
       x="0"
       y="0"
       inkscape:label="1"
       id="page1"
       width="525.44"
       height="158.72"
       margin="0"
       bleed="0" />
  </sodipodi:namedview>
  <g
     id="g1"
     inkscape:groupmode="layer"
     inkscape:label="1">
    <path
       id="path1"
       d="M 0,0 H 549 V 165 H 0 Z"
       style="fill:#ffffff;fill-opacity:1;fill-rule:nonzero;stroke:none"
       transform="scale(0.95689122)"
       clip-path="url(#clipPath2)" />
    <path
       id="path3"
       d="M 1,1 H 211 V 41 H 1 Z"
       style="fill:#dae8fc;fill-opacity:1;fill-rule:nonzero;stroke:#6c8ebf;stroke-width:1;stroke-linecap:butt;stroke-linejoin:miter;stroke-miterlimit:10;stroke-dasharray:none;stroke-opacity:1"
       transform="matrix(0.95689122,0,0,0.95689122,0.47844561,0.47844561)"
       clip-path="url(#clipPath4)" />
    <text
       id="text4"
       xml:space="preserve"
       transform="matrix(0.95690082,0,0,0.95690082,58.012112,26.793223)"
       clip-path="url(#clipPath5)"><tspan
         style="font-variant:normal;font-weight:700;font-size:18px;font-family:Helvetica;writing-mode:lr-tb;fill:#000000;fill-opacity:1;fill-rule:nonzero;stroke:none"
         x="0 10.010742 15.011719 25.022461 35.033203 45.043945 50.044922 61.734375 66.735352 76.746094"
         y="0"
         sodipodi:role="line"
         id="tspan4">class View</tspan></text>
    <path
       id="path6"
       d="m 211,56 h 27.5 v 11 h 23.13"
       style="fill:none;stroke:#000000;stroke-width:1;stroke-linecap:butt;stroke-linejoin:miter;stroke-miterlimit:10;stroke-dasharray:none;stroke-opacity:1"
       transform="matrix(0.95689122,0,0,0.95689122,0.47844561,0.47844561)"
       clip-path="url(#clipPath7)" />
    <path
       id="path8"
       d="m 266.88,67 -7,3.5 1.75,-3.5 -1.75,-3.5 z"
       style="fill:#000000;fill-opacity:1;fill-rule:nonzero;stroke:#000000;stroke-width:1;stroke-linecap:butt;stroke-linejoin:miter;stroke-miterlimit:10;stroke-dasharray:none;stroke-opacity:1"
       transform="matrix(0.95689122,0,0,0.95689122,0.47844561,0.47844561)"
       clip-path="url(#clipPath9)" />
    <path
       id="path10"
       d="M 1,41 H 211 V 71 H 1 Z"
       style="fill:#ffffff;fill-opacity:1;fill-rule:nonzero;stroke:#000000;stroke-width:1;stroke-linecap:butt;stroke-linejoin:miter;stroke-miterlimit:10;stroke-dasharray:none;stroke-opacity:1"
       transform="matrix(0.95689122,0,0,0.95689122,0.47844561,0.47844561)"
       clip-path="url(#clipPath11)" />
    <text
       id="text11"
       xml:space="preserve"
       transform="matrix(0.95690082,0,0,0.95690082,62.73681,59.327851)"
       clip-path="url(#clipPath12)"><tspan
         style="font-variant:normal;font-weight:normal;font-size:15px;font-family:Helvetica;writing-mode:lr-tb;fill:#000000;fill-opacity:1;fill-rule:nonzero;stroke:none"
         x="0 4.9951172 13.337402 21.679688 25.012207 33.354492 41.696777 54.191895 62.53418 70.876465 75.871582"
         y="0"
         sodipodi:role="line"
         id="tspan11">regionMap()</tspan></text>
    <path
       id="path13"
       d="m 286,33 h -5 c -3.33334,0 -5,3.333332 -5,10 v 14 c 0,6.666668 -1.66666,10 -5,10 h -2.5 c -1.66666,0 -0.83334,0 2.5,0 h 2.5 c 1.66666,0 2.5,3.333336 2.5,10 v 14 c 0,6.666664 1.66666,10 5,10 h 5"
       style="fill:none;stroke:#000000;stroke-width:1;stroke-linecap:butt;stroke-linejoin:miter;stroke-miterlimit:10;stroke-dasharray:none;stroke-opacity:1"
       transform="matrix(0.95689122,0,0,0.95689122,0.47844561,0.47844561)"
       clip-path="url(#clipPath14)" />
    <path
       id="path15"
       d="m 376,50 h 13.64001"
       style="fill:none;stroke:#000000;stroke-width:1;stroke-linecap:butt;stroke-linejoin:miter;stroke-miterlimit:10;stroke-dasharray:none;stroke-opacity:1"
       transform="matrix(0.95689122,0,0,0.95689122,0.47844561,0.47844561)"
       clip-path="url(#clipPath16)" />
    <path
       id="path17"
       d="m 394.89001,50 -7,3.5 1.75,-3.5 -1.75,-3.5 z"
       style="fill:#000000;fill-opacity:1;fill-rule:nonzero;stroke:#000000;stroke-width:1;stroke-linecap:butt;stroke-linejoin:miter;stroke-miterlimit:10;stroke-dasharray:none;stroke-opacity:1"
       transform="matrix(0.95689122,0,0,0.95689122,0.47844561,0.47844561)"
       clip-path="url(#clipPath18)" />
    <path
       id="path19"
       d="m 296,35 h 80 v 30 h -80 z"
       style="fill:#ffffff;fill-opacity:1;fill-rule:nonzero;stroke:#000000;stroke-width:1;stroke-linecap:butt;stroke-linejoin:miter;stroke-miterlimit:10;stroke-dasharray:none;stroke-opacity:1"
       transform="matrix(0.95689122,0,0,0.95689122,0.47844561,0.47844561)"
       clip-path="url(#clipPath20)" />
    <text
       id="text20"
       xml:space="preserve"
       transform="matrix(0.95690082,0,0,0.95690082,295.98139,51.672645)"
       clip-path="url(#clipPath21)"><tspan
         style="font-variant:normal;font-weight:normal;font-size:12px;font-family:Helvetica;writing-mode:lr-tb;fill:#000000;fill-opacity:1;fill-rule:nonzero;stroke:none"
         x="0 6.6738281 12.673828 19.347656 23.34375 31.347656 38.021484 44.695312"
         y="0"
         sodipodi:role="line"
         id="tspan20">userShow</tspan></text>
    <path
       id="path22"
       d="M 396,35 H 516 V 65 H 396 Z"
       style="fill:#ffffff;fill-opacity:1;fill-rule:nonzero;stroke:#000000;stroke-width:1;stroke-linecap:butt;stroke-linejoin:miter;stroke-miterlimit:10;stroke-dasharray:none;stroke-opacity:1"
       transform="matrix(0.95689122,0,0,0.95689122,0.47844561,0.47844561)"
       clip-path="url(#clipPath23)" />
    <text
       id="text23"
       xml:space="preserve"
       transform="matrix(0.95690082,0,0,0.95690082,408.26772,51.672645)"
       clip-path="url(#clipPath24)"><tspan
         style="font-variant:normal;font-weight:normal;font-size:12px;font-family:Helvetica;writing-mode:lr-tb;fill:#000000;fill-opacity:1;fill-rule:nonzero;stroke:none"
         x="0 3.3339844 10.007812 16.007812 22.681641 26.677734 30.673828 36.673828 43.347656 50.021484"
         y="0"
         sodipodi:role="line"
         id="tspan23">.user-show</tspan></text>
    <path
       id="path25"
       d="m 546.01001,33 h -5 c -3.33331,0 -5,3.333332 -5,10 v 14 c 0,6.666668 -1.66669,10 -5,10 h -2.5 c -1.66669,0 -0.83331,0 2.5,0 h 2.5 c 1.66669,0 2.5,3.333336 2.5,10 v 14 c 0,6.666664 1.66669,10 5,10 h 5"
       style="fill:none;stroke:#000000;stroke-width:1;stroke-linecap:butt;stroke-linejoin:miter;stroke-miterlimit:10;stroke-dasharray:none;stroke-opacity:1"
       transform="matrix(-0.95689122,0,0,-0.95689122,1026.2849,128.70187)"
       clip-path="url(#clipPath26)" />
    <text
       id="text26"
       xml:space="preserve"
       transform="matrix(0.95690082,0,0,0.95690082,302.06668,16.267314)"
       clip-path="url(#clipPath27)"><tspan
         style="font-variant:normal;font-weight:700;font-size:12px;font-family:Helvetica;writing-mode:lr-tb;fill:#000000;fill-opacity:1;fill-rule:nonzero;stroke:none"
         x="0 8.6660156 15.339844 22.669922 26.003906 33.333984"
         y="0"
         sodipodi:role="line"
         id="tspan26">Region</tspan></text>
    <text
       id="text27"
       xml:space="preserve"
       transform="matrix(0.95690082,0,0,0.95690082,305.87933,30.620826)"
       clip-path="url(#clipPath28)"><tspan
         style="font-variant:normal;font-weight:700;font-size:12px;font-family:Helvetica;writing-mode:lr-tb;fill:#000000;fill-opacity:1;fill-rule:nonzero;stroke:none"
         x="0 8.6660156 15.339844 26.009766"
         y="0"
         sodipodi:role="line"
         id="tspan27">Name</tspan></text>
    <text
       id="text28"
       xml:space="preserve"
       transform="matrix(0.95690082,0,0,0.95690082,404.44011,16.267314)"
       clip-path="url(#clipPath29)"><tspan
         style="font-variant:normal;font-weight:700;font-size:12px;font-family:Helvetica;writing-mode:lr-tb;fill:#000000;fill-opacity:1;fill-rule:nonzero;stroke:none"
         x="0 8.0039062 14.677734 18.011719 24.685547 31.359375 35.355469 42.685547 47.355469 50.689453 54.685547 62.015625"
         y="0"
         sodipodi:role="line"
         id="tspan28">Selector for</tspan></text>
    <text
       id="text29"
       xml:space="preserve"
       transform="matrix(0.95690082,0,0,0.95690082,416.87982,30.620826)"
       clip-path="url(#clipPath30)"><tspan
         style="font-variant:normal;font-weight:700;font-size:12px;font-family:Helvetica;writing-mode:lr-tb;fill:#000000;fill-opacity:1;fill-rule:nonzero;stroke:none"
         x="0 8.6660156 15.339844 22.669922 26.003906 33.333984"
         y="0"
         sodipodi:role="line"
         id="tspan29">Region</tspan></text>
    <path
       id="path31"
       d="m 1,71 h 215 v 90 H 1 Z"
       style="fill:#ffffff;fill-opacity:1;fill-rule:nonzero;stroke:#000000;stroke-width:1;stroke-linecap:butt;stroke-linejoin:miter;stroke-miterlimit:10;stroke-dasharray:none;stroke-opacity:1"
       transform="matrix(0.95689122,0,0,0.95689122,0.47844561,0.47844561)"
       clip-path="url(#clipPath32)" />
    <text
       id="text32"
       xml:space="preserve"
       transform="matrix(0.95690082,0,0,0.95690082,2.8707025,90.905578)"
       clip-path="url(#clipPath33)"><tspan
         style="font-variant:normal;font-weight:normal;font-size:15px;font-family:Helvetica;writing-mode:lr-tb;fill:#000000;fill-opacity:1;fill-rule:nonzero;stroke:none"
         x="0 4.9951172 13.337402 21.679688 25.012207 33.354492 41.696777 49.196777 53.364258 57.531738"
         y="0"
         sodipodi:role="line"
         id="tspan32">regions: {</tspan></text>
    <text
       id="text33"
       xml:space="preserve"
       transform="matrix(0.95690082,0,0,0.95690082,2.8707025,108.12979)"
       clip-path="url(#clipPath34)"><tspan
         style="font-variant:normal;font-weight:normal;font-size:15px;font-family:Helvetica;writing-mode:lr-tb;fill:#000000;fill-opacity:1;fill-rule:nonzero;stroke:none"
         x="0 8.3422852 15.842285 24.18457 29.179688 39.18457 47.526855 55.869141 66.70166 70.869141 75.036621 85.041504 88.374023 96.716309 109.21143 117.55371 125.896 130.06348"
         y="0"
         sodipodi:role="line"
         id="tspan33">userShow: Element,</tspan></text>
    <text
       id="text34"
       xml:space="preserve"
       transform="matrix(0.95690082,0,0,0.95690082,2.8707025,125.35401)"
       clip-path="url(#clipPath35)"><tspan
         style="font-variant:normal;font-weight:normal;font-size:15px;font-family:Helvetica;writing-mode:lr-tb;fill:#000000;fill-opacity:1;fill-rule:nonzero;stroke:none"
         x="0 8.3422852 15.842285 24.18457 29.179688 38.342285 46.68457 51.679688 64.174805 68.342285 72.509766 82.514648 85.847168 94.189453 106.68457 115.02686 123.36914"
         y="0"
         sodipodi:role="line"
         id="tspan34">userForm: Element</tspan></text>
    <text
       id="text35"
       xml:space="preserve"
       transform="matrix(0.95690082,0,0,0.95690082,2.8707025,142.57822)"
       clip-path="url(#clipPath36)"><tspan
         style="font-variant:normal;font-weight:normal;font-size:15px;font-family:Helvetica;writing-mode:lr-tb;fill:#000000;fill-opacity:1;fill-rule:nonzero;stroke:none"
         x="0"
         y="0"
         id="tspan35">}</tspan></text>
    <path
       id="path37"
       d="m 376,82.5 h 13.64001"
       style="fill:none;stroke:#000000;stroke-width:1;stroke-linecap:butt;stroke-linejoin:miter;stroke-miterlimit:10;stroke-dasharray:none;stroke-opacity:1"
       transform="matrix(0.95689122,0,0,0.95689122,0.47844561,0.47844561)"
       clip-path="url(#clipPath38)" />
    <path
       id="path39"
       d="m 394.89001,82.5 -7,3.5 1.75,-3.5 -1.75,-3.5 z"
       style="fill:#000000;fill-opacity:1;fill-rule:nonzero;stroke:#000000;stroke-width:1;stroke-linecap:butt;stroke-linejoin:miter;stroke-miterlimit:10;stroke-dasharray:none;stroke-opacity:1"
       transform="matrix(0.95689122,0,0,0.95689122,0.47844561,0.47844561)"
       clip-path="url(#clipPath40)" />
    <path
       id="path41"
       d="m 296,67.5 h 80 v 30 h -80 z"
       style="fill:#ffffff;fill-opacity:1;fill-rule:nonzero;stroke:#000000;stroke-width:1;stroke-linecap:butt;stroke-linejoin:miter;stroke-miterlimit:10;stroke-dasharray:none;stroke-opacity:1"
       transform="matrix(0.95689122,0,0,0.95689122,0.47844561,0.47844561)"
       clip-path="url(#clipPath42)" />
    <text
       id="text42"
       xml:space="preserve"
       transform="matrix(0.95690082,0,0,0.95690082,296.95324,83.250372)"
       clip-path="url(#clipPath43)"><tspan
         style="font-variant:normal;font-weight:normal;font-size:12px;font-family:Helvetica;writing-mode:lr-tb;fill:#000000;fill-opacity:1;fill-rule:nonzero;stroke:none"
         x="0 6.6738281 12.673828 19.347656 23.34375 30.673828 37.347656 41.34375"
         y="0"
         sodipodi:role="line"
         id="tspan42">userForm</tspan></text>
    <path
       id="path44"
       d="m 396,67.5 h 120 v 30 H 396 Z"
       style="fill:#ffffff;fill-opacity:1;fill-rule:nonzero;stroke:#000000;stroke-width:1;stroke-linecap:butt;stroke-linejoin:miter;stroke-miterlimit:10;stroke-dasharray:none;stroke-opacity:1"
       transform="matrix(0.95689122,0,0,0.95689122,0.47844561,0.47844561)"
       clip-path="url(#clipPath45)" />
    <text
       id="text45"
       xml:space="preserve"
       transform="matrix(0.95690082,0,0,0.95690082,410.18152,83.250372)"
       clip-path="url(#clipPath46)"><tspan
         style="font-variant:normal;font-weight:normal;font-size:12px;font-family:Helvetica;writing-mode:lr-tb;fill:#000000;fill-opacity:1;fill-rule:nonzero;stroke:none"
         x="0 3.3339844 10.007812 16.007812 22.681641 26.677734 30.673828 34.007812 40.681641 44.677734"
         y="0"
         sodipodi:role="line"
         id="tspan45">.user-form</tspan></text>
  </g>
</svg>
