<?xml version="1.0" encoding="UTF-8" standalone="no"?>
<!-- Created with Inkscape (http://www.inkscape.org/) -->

<svg
   version="1.1"
   id="svg1"
   width="587.84003"
   height="378.55997"
   viewBox="0 0 587.84003 378.55997"
   sodipodi:docname="ts-1.pdf"
   xmlns:inkscape="http://www.inkscape.org/namespaces/inkscape"
   xmlns:sodipodi="http://sodipodi.sourceforge.net/DTD/sodipodi-0.dtd"
   xmlns="http://www.w3.org/2000/svg"
   xmlns:svg="http://www.w3.org/2000/svg">
  <defs
     id="defs1">
    <clipPath
       clipPathUnits="userSpaceOnUse"
       id="clipPath2">
      <path
         d="M 0,0 H 1837.4999 V 1182.105 H 0 Z"
         transform="scale(0.33414968)"
         clip-rule="evenodd"
         id="path2" />
    </clipPath>
    <clipPath
       clipPathUnits="userSpaceOnUse"
       id="clipPath4">
      <path
         d="M 0,0 H 1837.4999 V 1179.1123 H 0 Z"
         transform="matrix(0.33414968,0,0,0.33414968,-0.49999999,-0.49999999)"
         clip-rule="evenodd"
         id="path4" />
    </clipPath>
    <clipPath
       clipPathUnits="userSpaceOnUse"
       id="clipPath6">
      <path
         d="M 0,0 H 1837.4999 V 1179.1123 H 0 Z"
         transform="matrix(0.33414968,0,0,0.33414968,-0.49999999,-0.49999999)"
         clip-rule="evenodd"
         id="path6" />
    </clipPath>
    <clipPath
       clipPathUnits="userSpaceOnUse"
       id="clipPath8">
      <path
         d="M 0,0 H 1837.4999 V 1179.1123 H 0 Z"
         transform="matrix(0.33414968,0,0,0.33414968,-0.49999999,-0.49999999)"
         clip-rule="evenodd"
         id="path8" />
    </clipPath>
    <clipPath
       clipPathUnits="userSpaceOnUse"
       id="clipPath10">
      <path
         d="M 0,0 H 1837.4999 V 1179.1123 H 0 Z"
         transform="matrix(0.33414968,0,0,0.33414968,-0.49999999,-0.49999999)"
         clip-rule="evenodd"
         id="path10" />
    </clipPath>
    <clipPath
       clipPathUnits="userSpaceOnUse"
       id="clipPath12">
      <path
         d="M 0,0 H 1837.4999 V 1179.1123 H 0 Z"
         transform="matrix(0.33414968,0,0,0.33414968,-0.49999999,-0.49999999)"
         clip-rule="evenodd"
         id="path12" />
    </clipPath>
    <clipPath
       clipPathUnits="userSpaceOnUse"
       id="clipPath14">
      <path
         d="M 0,0 H 1837.4999 V 1179.1123 H 0 Z"
         transform="matrix(0.33414968,0,0,0.33414968,-0.49999999,-0.49999999)"
         clip-rule="evenodd"
         id="path14" />
    </clipPath>
    <clipPath
       clipPathUnits="userSpaceOnUse"
       id="clipPath16">
      <path
         d="M 0,0 H 1837.4999 V 1179.1123 H 0 Z"
         transform="matrix(0.33414968,0,0,0.33414968,-0.49999999,-0.49999999)"
         clip-rule="evenodd"
         id="path16" />
    </clipPath>
    <clipPath
       clipPathUnits="userSpaceOnUse"
       id="clipPath18">
      <path
         d="M 0,0 H 1837.4999 V 1179.1123 H 0 Z"
         transform="matrix(0.33414968,0,0,0.33414968,-0.49999999,-0.49999999)"
         clip-rule="evenodd"
         id="path18" />
    </clipPath>
    <clipPath
       clipPathUnits="userSpaceOnUse"
       id="clipPath20">
      <path
         d="M 0,0 H 1837.4999 V 1179.1123 H 0 Z"
         transform="matrix(0.33414968,0,0,0.33414968,-0.49999999,-0.49999999)"
         clip-rule="evenodd"
         id="path20" />
    </clipPath>
    <clipPath
       clipPathUnits="userSpaceOnUse"
       id="clipPath22">
      <path
         d="M 0,0 H 1837.4999 V 1179.1123 H 0 Z"
         transform="matrix(0.33414968,0,0,0.33414968,-0.49999999,-0.49999999)"
         clip-rule="evenodd"
         id="path22" />
    </clipPath>
    <clipPath
       clipPathUnits="userSpaceOnUse"
       id="clipPath24">
      <path
         d="M 0,0 H 1837.4999 V 1179.1123 H 0 Z"
         transform="matrix(0.33414968,0,0,0.33414968,-0.49999999,-0.49999999)"
         clip-rule="evenodd"
         id="path24" />
    </clipPath>
    <clipPath
       clipPathUnits="userSpaceOnUse"
       id="clipPath26">
      <path
         d="M 0,0 H 1837.4999 V 1179.1123 H 0 Z"
         transform="matrix(0.33414968,0,0,0.33414968,-0.49999999,-0.49999999)"
         clip-rule="evenodd"
         id="path26" />
    </clipPath>
    <clipPath
       clipPathUnits="userSpaceOnUse"
       id="clipPath28">
      <path
         d="M 0,0 H 1837.4999 V 1179.1123 H 0 Z"
         transform="matrix(0.33414968,0,0,0.33414968,-0.49999999,-0.49999999)"
         clip-rule="evenodd"
         id="path28" />
    </clipPath>
    <clipPath
       clipPathUnits="userSpaceOnUse"
       id="clipPath30">
      <path
         d="M 0,0 H 1837.4999 V 1179.1123 H 0 Z"
         transform="matrix(0.33414968,0,0,0.33414968,-0.49999999,-0.49999999)"
         clip-rule="evenodd"
         id="path30" />
    </clipPath>
    <clipPath
       clipPathUnits="userSpaceOnUse"
       id="clipPath31">
      <path
         d="M 0,0 H 1837.4999 V 1179.1123 H 0 Z"
         transform="matrix(0.33414633,0,0,0.33414633,-258,-32)"
         clip-rule="evenodd"
         id="path31" />
    </clipPath>
    <clipPath
       clipPathUnits="userSpaceOnUse"
       id="clipPath32">
      <path
         d="M 0,0 H 1837.4999 V 1179.1123 H 0 Z"
         transform="matrix(0.33414633,0,0,0.33414633,-328,-79.999999)"
         clip-rule="evenodd"
         id="path32" />
    </clipPath>
    <clipPath
       clipPathUnits="userSpaceOnUse"
       id="clipPath33">
      <path
         d="M 0,0 H 1837.4999 V 1179.1123 H 0 Z"
         transform="matrix(0.33414633,0,0,0.33414633,-228,-153)"
         clip-rule="evenodd"
         id="path33" />
    </clipPath>
    <clipPath
       clipPathUnits="userSpaceOnUse"
       id="clipPath34">
      <path
         d="M 0,0 H 1837.4999 V 1179.1123 H 0 Z"
         transform="matrix(0.33414633,0,0,0.33414633,-248,-197.99999)"
         clip-rule="evenodd"
         id="path34" />
    </clipPath>
    <clipPath
       clipPathUnits="userSpaceOnUse"
       id="clipPath35">
      <path
         d="M 0,0 H 1837.4999 V 1179.1123 H 0 Z"
         transform="matrix(0.33414633,0,0,0.33414633,-248,-228)"
         clip-rule="evenodd"
         id="path35" />
    </clipPath>
    <clipPath
       clipPathUnits="userSpaceOnUse"
       id="clipPath37">
      <path
         d="M 0,0 H 1837.4999 V 1179.1123 H 0 Z"
         transform="matrix(0.33414968,0,0,0.33414968,-0.49999999,-0.49999999)"
         clip-rule="evenodd"
         id="path37" />
    </clipPath>
    <clipPath
       clipPathUnits="userSpaceOnUse"
       id="clipPath38">
      <path
         d="M 0,0 H 1837.4999 V 1179.1123 H 0 Z"
         transform="matrix(0.33414633,0,0,0.33414633,-213,-263)"
         clip-rule="evenodd"
         id="path38" />
    </clipPath>
    <clipPath
       clipPathUnits="userSpaceOnUse"
       id="clipPath40">
      <path
         d="M 0,0 H 1837.4999 V 1179.1123 H 0 Z"
         transform="matrix(0.33414968,0,0,0.33414968,-0.49999999,-0.49999999)"
         clip-rule="evenodd"
         id="path40" />
    </clipPath>
    <clipPath
       clipPathUnits="userSpaceOnUse"
       id="clipPath41">
      <path
         d="M 0,0 H 1837.4999 V 1179.1123 H 0 Z"
         transform="matrix(0.33414633,0,0,0.33414633,-334.17188,-261.99999)"
         clip-rule="evenodd"
         id="path41" />
    </clipPath>
    <clipPath
       clipPathUnits="userSpaceOnUse"
       id="clipPath43">
      <path
         d="M 0,0 H 1837.4999 V 1179.1123 H 0 Z"
         transform="matrix(0.33414968,0,0,0.33414968,-0.49999999,-0.49999999)"
         clip-rule="evenodd"
         id="path43" />
    </clipPath>
    <clipPath
       clipPathUnits="userSpaceOnUse"
       id="clipPath44">
      <path
         d="M 0,0 H 1837.4999 V 1179.1123 H 0 Z"
         transform="matrix(0.33414633,0,0,0.33414633,-230.79688,-302)"
         clip-rule="evenodd"
         id="path44" />
    </clipPath>
    <clipPath
       clipPathUnits="userSpaceOnUse"
       id="clipPath46">
      <path
         d="M 0,0 H 1837.4999 V 1179.1123 H 0 Z"
         transform="matrix(0.33414968,0,0,0.33414968,-0.49999999,-0.49999999)"
         clip-rule="evenodd"
         id="path46" />
    </clipPath>
    <clipPath
       clipPathUnits="userSpaceOnUse"
       id="clipPath48">
      <path
         d="M 0,0 H 1837.4999 V 1179.1123 H 0 Z"
         transform="matrix(0.33414968,0,0,0.33414968,-0.49999999,-0.49999999)"
         clip-rule="evenodd"
         id="path48" />
    </clipPath>
    <clipPath
       clipPathUnits="userSpaceOnUse"
       id="clipPath50">
      <path
         d="M 0,0 H 1837.4999 V 1179.1123 H 0 Z"
         transform="matrix(0.33414968,0,0,0.33414968,-0.49999999,-0.49999999)"
         clip-rule="evenodd"
         id="path50" />
    </clipPath>
    <clipPath
       clipPathUnits="userSpaceOnUse"
       id="clipPath52">
      <path
         d="M 0,0 H 1837.4999 V 1179.1123 H 0 Z"
         transform="matrix(0.33414968,0,0,0.33414968,-0.49999999,-0.49999999)"
         clip-rule="evenodd"
         id="path52" />
    </clipPath>
    <clipPath
       clipPathUnits="userSpaceOnUse"
       id="clipPath53">
      <path
         d="M 0,0 H 1837.4999 V 1179.1123 H 0 Z"
         transform="matrix(0.33414633,0,0,0.33414633,-278.64063,-342)"
         clip-rule="evenodd"
         id="path53" />
    </clipPath>
    <clipPath
       clipPathUnits="userSpaceOnUse"
       id="clipPath55">
      <path
         d="M 0,0 H 1837.4999 V 1179.1123 H 0 Z"
         transform="matrix(0.33414968,0,0,0.33414968,-0.49999999,-0.49999999)"
         clip-rule="evenodd"
         id="path55" />
    </clipPath>
    <clipPath
       clipPathUnits="userSpaceOnUse"
       id="clipPath57">
      <path
         d="M 0,0 H 1837.4999 V 1179.1123 H 0 Z"
         transform="matrix(0.33414968,0,0,0.33414968,-0.49999999,-0.49999999)"
         clip-rule="evenodd"
         id="path57" />
    </clipPath>
    <clipPath
       clipPathUnits="userSpaceOnUse"
       id="clipPath59">
      <path
         d="M 0,0 H 1837.4999 V 1179.1123 H 0 Z"
         transform="matrix(0.33414968,0,0,0.33414968,-0.49999999,-0.49999999)"
         clip-rule="evenodd"
         id="path59" />
    </clipPath>
    <clipPath
       clipPathUnits="userSpaceOnUse"
       id="clipPath60">
      <path
         d="M 0,0 H 1837.4999 V 1179.1123 H 0 Z"
         transform="matrix(0.33414633,0,0,0.33414633,-17.171875,-173)"
         clip-rule="evenodd"
         id="path60" />
    </clipPath>
    <clipPath
       clipPathUnits="userSpaceOnUse"
       id="clipPath62">
      <path
         d="M 0,0 H 1837.4999 V 1179.1123 H 0 Z"
         transform="matrix(0.33414968,0,0,0.33414968,-0.49999999,-0.49999999)"
         clip-rule="evenodd"
         id="path62" />
    </clipPath>
    <clipPath
       clipPathUnits="userSpaceOnUse"
       id="clipPath64">
      <path
         d="M 0,0 H 1837.4999 V 1179.1123 H 0 Z"
         transform="matrix(0.33414968,0,0,0.33414968,-0.49999999,-0.49999999)"
         clip-rule="evenodd"
         id="path64" />
    </clipPath>
    <clipPath
       clipPathUnits="userSpaceOnUse"
       id="clipPath66">
      <path
         d="M 0,0 H 1837.4999 V 1179.1123 H 0 Z"
         transform="matrix(0.33414968,0,0,0.33414968,-0.49999999,-0.49999999)"
         clip-rule="evenodd"
         id="path66" />
    </clipPath>
    <clipPath
       clipPathUnits="userSpaceOnUse"
       id="clipPath67">
      <path
         d="M 0,0 H 1837.4999 V 1179.1123 H 0 Z"
         transform="matrix(0.33414633,0,0,0.33414633,-18.765625,-293)"
         clip-rule="evenodd"
         id="path67" />
    </clipPath>
    <clipPath
       clipPathUnits="userSpaceOnUse"
       id="clipPath69">
      <path
         d="M 0,0 H 1837.4999 V 1179.1123 H 0 Z"
         transform="matrix(0.33414968,0,0,0.33414968,-0.49999999,-0.49999999)"
         clip-rule="evenodd"
         id="path69" />
    </clipPath>
    <clipPath
       clipPathUnits="userSpaceOnUse"
       id="clipPath71">
      <path
         d="M 0,0 H 1837.4999 V 1179.1123 H 0 Z"
         transform="matrix(0.33414968,0,0,0.33414968,-0.49999999,-0.49999999)"
         clip-rule="evenodd"
         id="path71" />
    </clipPath>
    <clipPath
       clipPathUnits="userSpaceOnUse"
       id="clipPath73">
      <path
         d="M 0,0 H 1837.4999 V 1179.1123 H 0 Z"
         transform="matrix(0.33414968,0,0,0.33414968,-0.49999999,-0.49999999)"
         clip-rule="evenodd"
         id="path73" />
    </clipPath>
    <clipPath
       clipPathUnits="userSpaceOnUse"
       id="clipPath74">
      <path
         d="M 0,0 H 1837.4999 V 1179.1123 H 0 Z"
         transform="matrix(0.33414633,0,0,0.33414633,-24.5625,-93)"
         clip-rule="evenodd"
         id="path74" />
    </clipPath>
  </defs>
  <sodipodi:namedview
     id="namedview1"
     pagecolor="#ffffff"
     bordercolor="#000000"
     borderopacity="0.25"
     inkscape:showpageshadow="2"
     inkscape:pageopacity="0.0"
     inkscape:pagecheckerboard="0"
     inkscape:deskcolor="#d1d1d1">
    <inkscape:page
       x="0"
       y="0"
       inkscape:label="1"
       id="page1"
       width="587.84003"
       height="378.55997"
       margin="0"
       bleed="0" />
  </sodipodi:namedview>
  <g
     id="g1"
     inkscape:groupmode="layer"
     inkscape:label="1">
    <path
       id="path1"
       d="M 0,0 H 614 V 395 H 0 Z"
       style="fill:#ffffff;fill-opacity:1;fill-rule:nonzero;stroke:none"
       transform="scale(0.95765462)"
       clip-path="url(#clipPath2)" />
    <path
       id="path3"
       d="M 196,1 H 611.01001 V 391 H 196 Z"
       style="fill:#ffffff;fill-opacity:1;fill-rule:nonzero;stroke:#666666;stroke-width:1;stroke-linecap:butt;stroke-linejoin:miter;stroke-miterlimit:10;stroke-dasharray:none;stroke-opacity:1"
       transform="matrix(0.95765462,0,0,0.95765462,0.4788273,0.4788273)"
       clip-path="url(#clipPath4)" />
    <path
       id="path5"
       d="m 556.01007,16 c 0,0.656614 -0.0641,1.306923 -0.1922,1.950922 -0.12811,0.643999 -0.31775,1.269314 -0.56903,1.875948 -0.25128,0.606634 -0.55939,1.182928 -0.92419,1.728886 -0.36481,0.545957 -0.7793,1.051084 -1.2436,1.51538 -0.46429,0.464297 -0.96942,0.878844 -1.51538,1.243639 -0.54596,0.364796 -1.12225,0.672833 -1.72888,0.924109 -0.60663,0.251276 -1.23193,0.440964 -1.87591,0.569063 -0.64399,0.1281 -1.29425,0.19215 -1.95087,0.192152 -0.65662,-2e-6 -1.30695,-0.06405 -1.95093,-0.192152 -0.64404,-0.128099 -1.26941,-0.317787 -1.87604,-0.569063 -0.60662,-0.251276 -1.18292,-0.559313 -1.72888,-0.924109 -0.54596,-0.364795 -1.05102,-0.779342 -1.51532,-1.243639 -0.46429,-0.464296 -0.87884,-0.969423 -1.24365,-1.515378 -0.36481,-0.545958 -0.67285,-1.122254 -0.92419,-1.728888 -0.25122,-0.606634 -0.44086,-1.231949 -0.56897,-1.875948 -0.12812,-0.643999 -0.19214,-1.294308 -0.19214,-1.950922 0,-0.656616 0.064,-1.306924 0.19214,-1.950923 0.12811,-0.644 0.31775,-1.269317 0.56897,-1.875951 0.25128,-0.606633 0.55932,-1.182928 0.92413,-1.728885 0.36481,-0.5459561 0.77936,-1.051083 1.24365,-1.5153803 0.4643,-0.4642973 0.96942,-0.8788443 1.51538,-1.2436409 0.54596,-0.3647962 1.12226,-0.6728325 1.72888,-0.9241085 0.60663,-0.2512756 1.232,-0.4409633 1.87604,-0.5690623 0.64398,-0.1280994 1.29431,-0.1921491 1.95093,-0.1921491 0.65662,0 1.30688,0.06405 1.95087,0.1921491 0.64398,0.128099 1.26928,0.3177867 1.87591,0.5690623 0.60663,0.251276 1.18292,0.5593123 1.72888,0.9241085 0.54596,0.3647966 1.05109,0.7793436 1.51538,1.2436409 0.4643,0.4642973 0.87879,0.9694242 1.2436,1.5153803 0.3648,0.545957 0.67291,1.122252 0.92419,1.728885 0.25128,0.606634 0.44092,1.231951 0.56903,1.875951 0.12811,0.643999 0.1922,1.294307 0.1922,1.950923 z"
       style="fill:none;stroke:#666666;stroke-width:1;stroke-linecap:butt;stroke-linejoin:miter;stroke-miterlimit:10;stroke-dasharray:none;stroke-opacity:1"
       transform="matrix(0.95765462,0,0,0.95765462,0.4788273,0.4788273)"
       clip-path="url(#clipPath6)" />
    <path
       id="path7"
       d="m 581.01007,16 c 0,0.656614 -0.0641,1.306923 -0.1922,1.950922 -0.12811,0.643999 -0.31781,1.269314 -0.56909,1.875948 -0.25128,0.606634 -0.55933,1.182928 -0.92407,1.728886 -0.36487,0.545957 -0.77942,1.051084 -1.24366,1.51538 -0.46429,0.464297 -0.96948,0.878844 -1.51544,1.243639 -0.54596,0.364796 -1.12219,0.672833 -1.72882,0.924109 -0.60663,0.251276 -1.23193,0.440964 -1.87591,0.569063 -0.64399,0.1281 -1.29432,0.19215 -1.95087,0.192152 -0.65662,-2e-6 -1.30695,-0.06405 -1.95093,-0.192152 -0.64404,-0.128099 -1.26941,-0.317787 -1.87604,-0.569063 -0.60662,-0.251276 -1.18298,-0.559313 -1.72894,-0.924109 -0.54596,-0.364795 -1.05102,-0.779342 -1.51532,-1.243639 -0.46429,-0.464296 -0.87884,-0.969423 -1.24365,-1.515378 -0.36481,-0.545958 -0.67285,-1.122254 -0.92413,-1.728888 -0.25129,-0.606634 -0.44092,-1.231949 -0.56903,-1.875948 -0.12806,-0.643999 -0.19208,-1.294308 -0.19208,-1.950922 0,-0.656616 0.064,-1.306924 0.19214,-1.950923 0.12805,-0.644 0.31775,-1.269317 0.56903,-1.875951 0.25128,-0.606633 0.55932,-1.182928 0.92413,-1.728885 0.36475,-0.5459561 0.7793,-1.051083 1.24365,-1.5153803 0.4643,-0.4642973 0.96936,-0.8788443 1.51532,-1.2436409 0.54596,-0.3647962 1.12226,-0.6728325 1.72888,-0.9241085 0.60663,-0.2512756 1.232,-0.4409633 1.87604,-0.5690623 0.64398,-0.1280994 1.29431,-0.1921491 1.95093,-0.1921491 0.65655,0 1.30688,0.06405 1.95087,0.1921491 0.64398,0.128099 1.26928,0.3177867 1.87591,0.5690623 0.60663,0.251276 1.18286,0.5593123 1.72882,0.9241085 0.54596,0.3647966 1.05115,0.7793436 1.51544,1.2436409 0.46424,0.4642973 0.87879,0.9694242 1.24366,1.5153803 0.36474,0.545957 0.67279,1.122252 0.92407,1.728885 0.25128,0.606634 0.44098,1.231951 0.56909,1.875951 0.12811,0.643999 0.1922,1.294307 0.1922,1.950923 z"
       style="fill:none;stroke:#666666;stroke-width:1;stroke-linecap:butt;stroke-linejoin:miter;stroke-miterlimit:10;stroke-dasharray:none;stroke-opacity:1"
       transform="matrix(0.95765462,0,0,0.95765462,0.4788273,0.4788273)"
       clip-path="url(#clipPath8)" />
    <path
       id="path9"
       d="m 606.01007,16 c -6e-5,0.656614 -0.0641,1.306923 -0.1922,1.950922 -0.12811,0.643999 -0.31775,1.269314 -0.56903,1.875948 -0.25128,0.606634 -0.55933,1.182928 -0.92413,1.728886 -0.36481,0.545957 -0.7793,1.051084 -1.24359,1.51538 -0.46436,0.464297 -0.96949,0.878844 -1.51545,1.243639 -0.54596,0.364796 -1.12225,0.672833 -1.72888,0.924109 -0.60663,0.251276 -1.23193,0.440964 -1.87591,0.569063 -0.64399,0.1281 -1.29425,0.19215 -1.95087,0.192152 -0.65662,-2e-6 -1.30695,-0.06405 -1.95099,-0.192152 -0.64398,-0.128099 -1.26929,-0.317787 -1.87591,-0.569063 -0.60669,-0.251276 -1.18299,-0.559313 -1.72895,-0.924109 -0.5459,-0.364795 -1.05102,-0.779342 -1.51532,-1.243639 -0.46429,-0.464296 -0.87884,-0.969423 -1.24365,-1.515378 -0.36481,-0.545958 -0.67285,-1.122254 -0.92413,-1.728888 -0.25128,-0.606634 -0.44092,-1.231949 -0.56903,-1.875948 -0.12812,-0.643999 -0.19214,-1.294308 -0.19214,-1.950922 0,-0.656616 0.064,-1.306924 0.19214,-1.950923 0.12811,-0.644 0.31775,-1.269317 0.56903,-1.875951 0.25128,-0.606633 0.55926,-1.182928 0.92407,-1.728885 0.36481,-0.5459561 0.77936,-1.051083 1.24365,-1.5153803 0.4643,-0.4642973 0.96942,-0.8788443 1.51538,-1.2436409 0.54596,-0.3647962 1.12226,-0.6728325 1.72888,-0.9241085 0.60663,-0.2512756 1.232,-0.4409633 1.87598,-0.5690623 0.64404,-0.1280994 1.29437,-0.1921491 1.95099,-0.1921491 0.65662,0 1.30688,0.06405 1.95087,0.1921491 0.64398,0.128099 1.26928,0.3177867 1.87591,0.5690623 0.60663,0.251276 1.18292,0.5593123 1.72888,0.9241085 0.54596,0.3647966 1.05109,0.7793436 1.51538,1.2436409 0.4643,0.4642973 0.87885,0.9694242 1.24366,1.5153803 0.3648,0.545957 0.67285,1.122252 0.92413,1.728885 0.25128,0.606634 0.44092,1.231951 0.56903,1.875951 0.12811,0.643999 0.19214,1.294307 0.1922,1.950923 z"
       style="fill:none;stroke:#008cff;stroke-width:1;stroke-linecap:butt;stroke-linejoin:miter;stroke-miterlimit:10;stroke-dasharray:none;stroke-opacity:1"
       transform="matrix(0.95765462,0,0,0.95765462,0.4788273,0.4788273)"
       clip-path="url(#clipPath10)" />
    <path
       id="path11"
       d="m 196,41 h 30 V 16 c 0,-2.76 2.24001,-5 5,-5 h 135 c 2.76999,0 5,2.24 5,5 v 25 h 240.01001"
       style="fill:none;stroke:#c4c4c4;stroke-width:1;stroke-linecap:butt;stroke-linejoin:miter;stroke-miterlimit:10;stroke-dasharray:none;stroke-opacity:1"
       transform="matrix(0.95765462,0,0,0.95765462,0.4788273,0.4788273)"
       clip-path="url(#clipPath12)" />
    <path
       id="path13"
       d="M 196,111 H 611.01001"
       style="fill:none;stroke:#c4c4c4;stroke-width:1;stroke-linecap:butt;stroke-linejoin:miter;stroke-miterlimit:10;stroke-dasharray:none;stroke-opacity:1"
       transform="matrix(0.95765462,0,0,0.95765462,0.4788273,0.4788273)"
       clip-path="url(#clipPath14)" />
    <path
       id="path15"
       d="m 296,61 c 0,-2.759998 2.23999,-5 5,-5 h 295.01001 c 2.76001,0 5,2.240002 5,5 v 25 c 0,2.760002 -2.23999,5 -5,5 H 301 c -2.76001,0 -5,-2.239998 -5,-5 z"
       style="fill:none;stroke:#c4c4c4;stroke-width:1;stroke-linecap:butt;stroke-linejoin:miter;stroke-miterlimit:10;stroke-dasharray:none;stroke-opacity:1"
       transform="matrix(0.95765462,0,0,0.95765462,0.4788273,0.4788273)"
       clip-path="url(#clipPath16)" />
    <path
       id="path17"
       d="m 233,18 h 11 l 4,4 v 14 h -15 z"
       style="fill:none;stroke:#c4c4c4;stroke-width:1;stroke-linecap:butt;stroke-linejoin:miter;stroke-miterlimit:10;stroke-dasharray:none;stroke-opacity:1"
       transform="matrix(0.95765462,0,0,0.95765462,0.4788273,0.4788273)"
       clip-path="url(#clipPath18)" />
    <path
       id="path19"
       d="m 244,18 v 4 l 4,1"
       style="fill:none;stroke:#c4c4c4;stroke-width:1;stroke-linecap:butt;stroke-linejoin:miter;stroke-miterlimit:10;stroke-dasharray:none;stroke-opacity:1"
       transform="matrix(0.95765462,0,0,0.95765462,0.4788273,0.4788273)"
       clip-path="url(#clipPath20)" />
    <path
       id="path21"
       d="m 303,65 h 11 l 4,4 v 14 h -15 z"
       style="fill:none;stroke:#c4c4c4;stroke-width:1;stroke-linecap:butt;stroke-linejoin:miter;stroke-miterlimit:10;stroke-dasharray:none;stroke-opacity:1"
       transform="matrix(0.95765462,0,0,0.95765462,0.4788273,0.4788273)"
       clip-path="url(#clipPath22)" />
    <path
       id="path23"
       d="m 314,65 v 4 l 4,1"
       style="fill:none;stroke:#c4c4c4;stroke-width:1;stroke-linecap:butt;stroke-linejoin:miter;stroke-miterlimit:10;stroke-dasharray:none;stroke-opacity:1"
       transform="matrix(0.95765462,0,0,0.95765462,0.4788273,0.4788273)"
       clip-path="url(#clipPath24)" />
    <path
       id="path25"
       d="m 208,75 10,-10 v 6 h 10 v 8 h -10 v 6 z"
       style="fill:#c4c4c4;fill-opacity:1;fill-rule:nonzero;stroke:#c4c4c4;stroke-width:1;stroke-linecap:butt;stroke-linejoin:miter;stroke-miterlimit:10;stroke-dasharray:none;stroke-opacity:1"
       transform="matrix(0.95765462,0,0,0.95765462,0.4788273,0.4788273)"
       clip-path="url(#clipPath26)" />
    <path
       id="path27"
       d="M 258,75 248,65 v 6 h -10 v 8 h 10 v 6 z"
       style="fill:#c4c4c4;fill-opacity:1;fill-rule:nonzero;stroke:#c4c4c4;stroke-width:1;stroke-linecap:butt;stroke-linejoin:miter;stroke-miterlimit:10;stroke-dasharray:none;stroke-opacity:1"
       transform="matrix(0.95765462,0,0,0.95765462,0.4788273,0.4788273)"
       clip-path="url(#clipPath28)" />
    <path
       id="path29"
       d="m 283.60001,78.300003 c -1.70002,2.839996 -5.38001,3.759995 -8.21,2.059998 -2.84002,-1.690003 -3.78002,-5.360001 -2.09002,-8.209999 1.68002,-2.840004 5.35,-3.790001 8.20001,-2.110001 L 279.89999,71.5 l 7.9,1.800003 -1.79999,-7.5 -1.70001,1.599999 c -3.19,-2.370003 -7.5,-2.580002 -10.9,-0.529999 -3.41,2.049995 -5.23999,5.959999 -4.63,9.889999 0.61001,3.93 3.53,7.099999 7.40002,8.029999 3.85999,0.93 7.90998,-0.559998 10.22998,-3.790001 z"
       style="fill:#c4c4c4;fill-opacity:1;fill-rule:nonzero;stroke:#c4c4c4;stroke-width:1;stroke-linecap:butt;stroke-linejoin:miter;stroke-miterlimit:10;stroke-dasharray:none;stroke-opacity:1"
       transform="matrix(0.95765462,0,0,0.95765462,0.4788273,0.4788273)"
       clip-path="url(#clipPath30)" />
    <text
       id="text30"
       xml:space="preserve"
       transform="matrix(0.95766422,0,0,0.95766422,247.07737,30.645255)"
       clip-path="url(#clipPath31)"><tspan
         style="font-variant:normal;font-weight:normal;font-size:17px;font-family:Helvetica;writing-mode:lr-tb;fill:#666666;fill-opacity:1;fill-rule:nonzero;stroke:none"
         x="0 11.338867 20.793457 30.248047 39.702637 44.425781"
         y="0"
         sodipodi:role="line"
         id="tspan30">Page 1</tspan></text>
    <text
       id="text31"
       xml:space="preserve"
       transform="matrix(0.95766422,0,0,0.95766422,314.11386,76.613137)"
       clip-path="url(#clipPath32)"><tspan
         style="font-variant:normal;font-weight:normal;font-size:17px;font-family:Helvetica;writing-mode:lr-tb;fill:#666666;fill-opacity:1;fill-rule:nonzero;stroke:none"
         x="0 9.4545898 14.177734 18.900879 28.355469 36.855469 41.578613 46.301758 51.024902 63.301758 75.578613 86.925781 91.648926 101.10352 106.76465 116.21924 127.56641 132.28955 136.06641"
         y="0"
         sodipodi:role="line"
         id="tspan31">https://www.draw.io</tspan></text>
    <text
       id="text32"
       xml:space="preserve"
       transform="matrix(0.95766422,0,0,0.95766422,218.34744,146.52263)"
       clip-path="url(#clipPath33)"><tspan
         style="font-variant:normal;font-weight:700;font-size:21px;font-family:Helvetica;writing-mode:lr-tb;fill:#000000;fill-opacity:1;fill-rule:nonzero;stroke:none"
         x="0 15.165527 26.844727 38.523926 46.696289 52.530762 67.696289 79.375488 86.368652 98.047852 103.88232"
         y="0"
         sodipodi:role="line"
         id="tspan32">User Detail</tspan></text>
    <text
       id="text33"
       xml:space="preserve"
       transform="matrix(0.95766422,0,0,0.95766422,237.50073,189.61751)"
       clip-path="url(#clipPath34)"><tspan
         style="font-variant:normal;font-weight:normal;font-size:21px;font-family:Helvetica;writing-mode:lr-tb;fill:#000000;fill-opacity:1;fill-rule:nonzero;stroke:none"
         x="0 11.679199 23.358398 40.851562 52.530762 58.365234 64.199707 78.206543 89.885742"
         y="0"
         sodipodi:role="line"
         id="tspan33">name: Sam</tspan></text>
    <text
       id="text34"
       xml:space="preserve"
       transform="matrix(0.95766422,0,0,0.95766422,237.50073,218.34744)"
       clip-path="url(#clipPath35)"><tspan
         style="font-variant:normal;font-weight:normal;font-size:21px;font-family:Helvetica;writing-mode:lr-tb;fill:#000000;fill-opacity:1;fill-rule:nonzero;stroke:none"
         x="0 11.679199 23.358398 35.037598 40.87207 46.706543 58.385742"
         y="0"
         sodipodi:role="line"
         id="tspan34">age: 20</tspan></text>
    <path
       id="path36"
       d="m 211,241 h 90 v 30 h -90 z"
       style="fill:#ffffff;fill-opacity:1;fill-rule:nonzero;stroke:#000000;stroke-width:1;stroke-linecap:butt;stroke-linejoin:miter;stroke-miterlimit:10;stroke-dasharray:none;stroke-opacity:1"
       transform="matrix(0.95765462,0,0,0.95765462,0.4788273,0.4788273)"
       clip-path="url(#clipPath37)" />
    <text
       id="text37"
       xml:space="preserve"
       transform="matrix(0.95766422,0,0,0.95766422,203.98248,251.86569)"
       clip-path="url(#clipPath38)"><tspan
         style="font-style:oblique;font-variant:normal;font-weight:normal;font-size:21px;font-family:Helvetica;writing-mode:lr-tb;fill:#000000;fill-opacity:1;fill-rule:nonzero;stroke:none"
         x="0 14.006836 25.686035"
         y="0"
         sodipodi:role="line"
         id="tspan37">Sam</tspan></text>
    <path
       id="path39"
       d="m 321,241 h 135 v 30 H 321 Z"
       style="fill:#ffffff;fill-opacity:1;fill-rule:nonzero;stroke:#000000;stroke-width:1;stroke-linecap:butt;stroke-linejoin:miter;stroke-miterlimit:10;stroke-dasharray:none;stroke-opacity:1"
       transform="matrix(0.95765462,0,0,0.95765462,0.4788273,0.4788273)"
       clip-path="url(#clipPath40)" />
    <text
       id="text40"
       xml:space="preserve"
       transform="matrix(0.95766422,0,0,0.95766422,320.02445,250.90802)"
       clip-path="url(#clipPath41)"><tspan
         style="font-variant:normal;font-weight:700;font-size:17px;font-family:Helvetica;writing-mode:lr-tb;fill:#000000;fill-opacity:1;fill-rule:nonzero;stroke:none"
         x="0 12.276855 22.661133 33.04541 42.5 48.161133 57.615723 62.338867 74.615723 84.070312 99.186035"
         y="0"
         sodipodi:role="line"
         id="tspan40">Update Name</tspan></text>
    <path
       id="path42"
       d="m 211,281 h 175 v 30 H 211 Z"
       style="fill:#ffffff;fill-opacity:1;fill-rule:nonzero;stroke:#000000;stroke-width:1;stroke-linecap:butt;stroke-linejoin:miter;stroke-miterlimit:10;stroke-dasharray:none;stroke-opacity:1"
       transform="matrix(0.95765462,0,0,0.95765462,0.4788273,0.4788273)"
       clip-path="url(#clipPath43)" />
    <text
       id="text43"
       xml:space="preserve"
       transform="matrix(0.95766422,0,0,0.95766422,221.02591,289.21459)"
       clip-path="url(#clipPath44)"><tspan
         style="font-variant:normal;font-weight:700;font-size:17px;font-family:Helvetica;writing-mode:lr-tb;fill:#000000;fill-opacity:1;fill-rule:nonzero;stroke:none"
         x="0 11.338867 20.793457 26.45459 31.177734 43.45459 52.90918 63.293457 73.677734 84.062012 99.177734 103.27832 115.55518 125.93945"
         y="0"
         sodipodi:role="line"
         id="tspan43">Set Random Age</tspan></text>
    <path
       id="path45"
       d="M 211,129 H 436 V 234 H 211 Z"
       style="fill:none;stroke:#b85450;stroke-width:1;stroke-linecap:butt;stroke-linejoin:miter;stroke-miterlimit:10;stroke-dasharray:none;stroke-opacity:1"
       transform="matrix(0.95765462,0,0,0.95765462,0.4788273,0.4788273)"
       clip-path="url(#clipPath46)" />
    <path
       id="path47"
       d="M 209,234 H 467 V 361 H 209 Z"
       style="fill:none;stroke:#b85450;stroke-width:1;stroke-linecap:butt;stroke-linejoin:miter;stroke-miterlimit:10;stroke-dasharray:none;stroke-opacity:1"
       transform="matrix(0.95765462,0,0,0.95765462,0.4788273,0.4788273)"
       clip-path="url(#clipPath48)" />
    <path
       id="path49"
       d="M 201,117 H 506 V 381 H 201 Z"
       style="fill:none;stroke:#6c8ebf;stroke-width:1;stroke-linecap:butt;stroke-linejoin:miter;stroke-miterlimit:10;stroke-dasharray:none;stroke-opacity:1"
       transform="matrix(0.95765462,0,0,0.95765462,0.4788273,0.4788273)"
       clip-path="url(#clipPath50)" />
    <path
       id="path51"
       d="m 211,321 h 175 v 30 H 211 Z"
       style="fill:#ffffff;fill-opacity:1;fill-rule:nonzero;stroke:#000000;stroke-width:1;stroke-linecap:butt;stroke-linejoin:miter;stroke-miterlimit:10;stroke-dasharray:none;stroke-opacity:1"
       transform="matrix(0.95765462,0,0,0.95765462,0.4788273,0.4788273)"
       clip-path="url(#clipPath52)" />
    <text
       id="text52"
       xml:space="preserve"
       transform="matrix(0.95766422,0,0,0.95766422,266.84416,327.52116)"
       clip-path="url(#clipPath53)"><tspan
         style="font-variant:normal;font-weight:700;font-size:17px;font-family:Helvetica;writing-mode:lr-tb;fill:#000000;fill-opacity:1;fill-rule:nonzero;stroke:none"
         x="0 11.338867 20.793457 30.248047"
         y="0"
         sodipodi:role="line"
         id="tspan52">Save</tspan></text>
    <path
       id="path54"
       d="m 121,166 h 45 v 15.5 h 38.63"
       style="fill:none;stroke:#000000;stroke-width:1;stroke-linecap:butt;stroke-linejoin:miter;stroke-miterlimit:10;stroke-dasharray:none;stroke-opacity:1"
       transform="matrix(0.95765462,0,0,0.95765462,0.4788273,0.4788273)"
       clip-path="url(#clipPath55)" />
    <path
       id="path56"
       d="m 209.88,181.5 -7,3.5 1.75,-3.5 -1.75,-3.5 z"
       style="fill:#000000;fill-opacity:1;fill-rule:nonzero;stroke:#000000;stroke-width:1;stroke-linecap:butt;stroke-linejoin:miter;stroke-miterlimit:10;stroke-dasharray:none;stroke-opacity:1"
       transform="matrix(0.95765462,0,0,0.95765462,0.4788273,0.4788273)"
       clip-path="url(#clipPath57)" />
    <path
       id="path58"
       d="m 1,136 h 120 v 60 H 1 Z"
       style="fill:#f8cecc;fill-opacity:1;fill-rule:nonzero;stroke:#b85450;stroke-width:1;stroke-linecap:butt;stroke-linejoin:miter;stroke-miterlimit:10;stroke-dasharray:none;stroke-opacity:1"
       transform="matrix(0.95765462,0,0,0.95765462,0.4788273,0.4788273)"
       clip-path="url(#clipPath59)" />
    <text
       id="text59"
       xml:space="preserve"
       transform="matrix(0.95766422,0,0,0.95766422,16.44489,165.67591)"
       clip-path="url(#clipPath60)"><tspan
         style="font-variant:normal;font-weight:normal;font-size:19px;font-family:Helvetica;writing-mode:lr-tb;fill:#000000;fill-opacity:1;fill-rule:nonzero;stroke:none"
         x="0 13.721191 23.221191 33.788086 40.115234 52.788086 63.35498 73.921875"
         y="0"
         sodipodi:role="line"
         id="tspan59">UserShow</tspan></text>
    <path
       id="path61"
       d="m 121,286 h 44 v 11.5 h 37.63"
       style="fill:none;stroke:#000000;stroke-width:1;stroke-linecap:butt;stroke-linejoin:miter;stroke-miterlimit:10;stroke-dasharray:none;stroke-opacity:1"
       transform="matrix(0.95765462,0,0,0.95765462,0.4788273,0.4788273)"
       clip-path="url(#clipPath62)" />
    <path
       id="path63"
       d="m 207.88,297.5 -7,3.5 1.75,-3.5 -1.75,-3.5 z"
       style="fill:#000000;fill-opacity:1;fill-rule:nonzero;stroke:#000000;stroke-width:1;stroke-linecap:butt;stroke-linejoin:miter;stroke-miterlimit:10;stroke-dasharray:none;stroke-opacity:1"
       transform="matrix(0.95765462,0,0,0.95765462,0.4788273,0.4788273)"
       clip-path="url(#clipPath64)" />
    <path
       id="path65"
       d="m 1,256 h 120 v 60 H 1 Z"
       style="fill:#f8cecc;fill-opacity:1;fill-rule:nonzero;stroke:#b85450;stroke-width:1;stroke-linecap:butt;stroke-linejoin:miter;stroke-miterlimit:10;stroke-dasharray:none;stroke-opacity:1"
       transform="matrix(0.95765462,0,0,0.95765462,0.4788273,0.4788273)"
       clip-path="url(#clipPath66)" />
    <text
       id="text66"
       xml:space="preserve"
       transform="matrix(0.95766422,0,0,0.95766422,17.971168,280.59562)"
       clip-path="url(#clipPath67)"><tspan
         style="font-variant:normal;font-weight:normal;font-size:19px;font-family:Helvetica;writing-mode:lr-tb;fill:#000000;fill-opacity:1;fill-rule:nonzero;stroke:none"
         x="0 13.721191 23.221191 33.788086 40.115234 51.721191 62.288086 68.615234"
         y="0"
         sodipodi:role="line"
         id="tspan66">UserForm</tspan></text>
    <path
       id="path68"
       d="m 121,86 h 37.5 v 52.3 l 31.55,-0.02"
       style="fill:none;stroke:#000000;stroke-width:1;stroke-linecap:butt;stroke-linejoin:miter;stroke-miterlimit:10;stroke-dasharray:none;stroke-opacity:1"
       transform="matrix(0.95765462,0,0,0.95765462,0.4788273,0.4788273)"
       clip-path="url(#clipPath69)" />
    <path
       id="path70"
       d="m 195.3,138.28 -7,3.50999 1.75,-3.50999 -1.75,-3.49001 z"
       style="fill:#000000;fill-opacity:1;fill-rule:nonzero;stroke:#000000;stroke-width:1;stroke-linecap:butt;stroke-linejoin:miter;stroke-miterlimit:10;stroke-dasharray:none;stroke-opacity:1"
       transform="matrix(0.95765462,0,0,0.95765462,0.4788273,0.4788273)"
       clip-path="url(#clipPath71)" />
    <path
       id="path72"
       d="m 1,56 h 120 v 60 H 1 Z"
       style="fill:#dae8fc;fill-opacity:1;fill-rule:nonzero;stroke:#6c8ebf;stroke-width:1;stroke-linecap:butt;stroke-linejoin:miter;stroke-miterlimit:10;stroke-dasharray:none;stroke-opacity:1"
       transform="matrix(0.95765462,0,0,0.95765462,0.4788273,0.4788273)"
       clip-path="url(#clipPath73)" />
    <text
       id="text73"
       xml:space="preserve"
       transform="matrix(0.95766422,0,0,0.95766422,23.522627,89.062772)"
       clip-path="url(#clipPath74)"><tspan
         style="font-variant:normal;font-weight:normal;font-size:19px;font-family:Helvetica;writing-mode:lr-tb;fill:#000000;fill-opacity:1;fill-rule:nonzero;stroke:none"
         x="0 13.721191 23.221191 33.788086 40.115234 52.788086 63.35498 67.576172"
         y="0"
         sodipodi:role="line"
         id="tspan73">UserEdit</tspan></text>
  </g>
</svg>
