<?xml version="1.0" encoding="UTF-8" standalone="no"?>
<!-- Created with Inkscape (http://www.inkscape.org/) -->

<svg
   version="1.1"
   id="svg1"
   width="635.83997"
   height="177.27998"
   viewBox="0 0 635.83997 177.27998"
   sodipodi:docname="ts-3.pdf"
   xmlns:inkscape="http://www.inkscape.org/namespaces/inkscape"
   xmlns:sodipodi="http://sodipodi.sourceforge.net/DTD/sodipodi-0.dtd"
   xmlns="http://www.w3.org/2000/svg"
   xmlns:svg="http://www.w3.org/2000/svg">
  <defs
     id="defs1">
    <clipPath
       clipPathUnits="userSpaceOnUse"
       id="clipPath2">
      <path
         d="M 0,0 H 1987.4999 V 553.74622 H 0 Z"
         transform="scale(0.33408807)"
         clip-rule="evenodd"
         id="path2" />
    </clipPath>
    <clipPath
       clipPathUnits="userSpaceOnUse"
       id="clipPath4">
      <path
         d="M 0,0 H 1987.4999 V 550.75299 H 0 Z"
         transform="matrix(0.33408807,0,0,0.33408807,-0.50000001,-0.50000001)"
         clip-rule="evenodd"
         id="path4" />
    </clipPath>
    <clipPath
       clipPathUnits="userSpaceOnUse"
       id="clipPath6">
      <path
         d="M 0,0 H 1987.4999 V 550.75299 H 0 Z"
         transform="matrix(0.33408807,0,0,0.33408807,-0.50000001,-0.50000001)"
         clip-rule="evenodd"
         id="path6" />
    </clipPath>
    <clipPath
       clipPathUnits="userSpaceOnUse"
       id="clipPath8">
      <path
         d="M 0,0 H 1987.4999 V 550.75299 H 0 Z"
         transform="matrix(0.33408807,0,0,0.33408807,-0.50000001,-0.50000001)"
         clip-rule="evenodd"
         id="path8" />
    </clipPath>
    <clipPath
       clipPathUnits="userSpaceOnUse"
       id="clipPath10">
      <path
         d="M 0,0 H 1987.4999 V 550.75299 H 0 Z"
         transform="matrix(0.33408807,0,0,0.33408807,-0.50000001,-0.50000001)"
         clip-rule="evenodd"
         id="path10" />
    </clipPath>
    <clipPath
       clipPathUnits="userSpaceOnUse"
       id="clipPath12">
      <path
         d="M 0,0 H 1987.4999 V 550.75299 H 0 Z"
         transform="matrix(0.33408807,0,0,0.33408807,-0.50000001,-0.50000001)"
         clip-rule="evenodd"
         id="path12" />
    </clipPath>
    <clipPath
       clipPathUnits="userSpaceOnUse"
       id="clipPath13">
      <path
         d="M 0,0 H 1987.4999 V 550.75299 H 0 Z"
         transform="matrix(0.33408471,0,0,0.33408471,-104.56249,-38)"
         clip-rule="evenodd"
         id="path13" />
    </clipPath>
    <clipPath
       clipPathUnits="userSpaceOnUse"
       id="clipPath15">
      <path
         d="M 0,0 H 1987.4999 V 550.75299 H 0 Z"
         transform="matrix(0.33408807,0,0,0.33408807,-0.50000001,-0.50000001)"
         clip-rule="evenodd"
         id="path15" />
    </clipPath>
    <clipPath
       clipPathUnits="userSpaceOnUse"
       id="clipPath16">
      <path
         d="M 0,0 H 1987.4999 V 550.75299 H 0 Z"
         transform="matrix(0.33408471,0,0,0.33408471,-17.171874,-158)"
         clip-rule="evenodd"
         id="path16" />
    </clipPath>
    <clipPath
       clipPathUnits="userSpaceOnUse"
       id="clipPath18">
      <path
         d="M 0,0 H 1987.4999 V 550.75299 H 0 Z"
         transform="matrix(0.33408807,0,0,0.33408807,-0.50000001,-0.50000001)"
         clip-rule="evenodd"
         id="path18" />
    </clipPath>
    <clipPath
       clipPathUnits="userSpaceOnUse"
       id="clipPath19">
      <path
         d="M 0,0 H 1987.4999 V 550.75299 H 0 Z"
         transform="matrix(0.33408471,0,0,0.33408471,-178.76563,-158)"
         clip-rule="evenodd"
         id="path19" />
    </clipPath>
    <clipPath
       clipPathUnits="userSpaceOnUse"
       id="clipPath21">
      <path
         d="M 0,0 H 1987.4999 V 550.75299 H 0 Z"
         transform="matrix(-0.33408807,0,0,-0.33408807,612.5,182.49999)"
         clip-rule="evenodd"
         id="path21" />
    </clipPath>
    <clipPath
       clipPathUnits="userSpaceOnUse"
       id="clipPath23">
      <path
         d="M 0,0 H 1987.4999 V 550.75299 H 0 Z"
         transform="matrix(0.33408807,0,0,0.33408807,-0.50000001,-0.50000001)"
         clip-rule="evenodd"
         id="path23" />
    </clipPath>
    <clipPath
       clipPathUnits="userSpaceOnUse"
       id="clipPath24">
      <path
         d="M 0,0 H 1987.4999 V 550.75299 H 0 Z"
         transform="matrix(0.33408471,0,0,0.33408471,-411.29688,-20)"
         clip-rule="evenodd"
         id="path24" />
    </clipPath>
    <clipPath
       clipPathUnits="userSpaceOnUse"
       id="clipPath25">
      <path
         d="M 0,0 H 1987.4999 V 550.75299 H 0 Z"
         transform="matrix(0.33408471,0,0,0.33408471,-469.32813,-20)"
         clip-rule="evenodd"
         id="path25" />
    </clipPath>
    <clipPath
       clipPathUnits="userSpaceOnUse"
       id="clipPath26">
      <path
         d="M 0,0 H 1987.4999 V 550.75299 H 0 Z"
         transform="matrix(0.33408471,0,0,0.33408471,-498,-20)"
         clip-rule="evenodd"
         id="path26" />
    </clipPath>
    <clipPath
       clipPathUnits="userSpaceOnUse"
       id="clipPath28">
      <path
         d="M 0,0 H 1987.4999 V 550.75299 H 0 Z"
         transform="matrix(0.33408807,0,0,0.33408807,-0.50000001,-0.50000001)"
         clip-rule="evenodd"
         id="path28" />
    </clipPath>
    <clipPath
       clipPathUnits="userSpaceOnUse"
       id="clipPath29">
      <path
         d="M 0,0 H 1987.4999 V 550.75299 H 0 Z"
         transform="matrix(0.33408471,0,0,0.33408471,-351.09375,-58)"
         clip-rule="evenodd"
         id="path29" />
    </clipPath>
    <clipPath
       clipPathUnits="userSpaceOnUse"
       id="clipPath31">
      <path
         d="M 0,0 H 1987.4999 V 550.75299 H 0 Z"
         transform="matrix(0.33408807,0,0,0.33408807,-0.50000001,-0.50000001)"
         clip-rule="evenodd"
         id="path31" />
    </clipPath>
    <clipPath
       clipPathUnits="userSpaceOnUse"
       id="clipPath32">
      <path
         d="M 0,0 H 1987.4999 V 550.75299 H 0 Z"
         transform="matrix(0.33408471,0,0,0.33408471,-334.32813,-87.999999)"
         clip-rule="evenodd"
         id="path32" />
    </clipPath>
    <clipPath
       clipPathUnits="userSpaceOnUse"
       id="clipPath33">
      <path
         d="M 0,0 H 1987.4999 V 550.75299 H 0 Z"
         transform="matrix(0.33408471,0,0,0.33408471,-466.64063,-103)"
         clip-rule="evenodd"
         id="path33" />
    </clipPath>
    <clipPath
       clipPathUnits="userSpaceOnUse"
       id="clipPath35">
      <path
         d="M 0,0 H 1987.4999 V 550.75299 H 0 Z"
         transform="matrix(0.33408807,0,0,0.33408807,-0.50000001,-0.50000001)"
         clip-rule="evenodd"
         id="path35" />
    </clipPath>
    <clipPath
       clipPathUnits="userSpaceOnUse"
       id="clipPath36">
      <path
         d="M 0,0 H 1987.4999 V 550.75299 H 0 Z"
         transform="matrix(0.33408471,0,0,0.33408471,-335.5625,-126)"
         clip-rule="evenodd"
         id="path36" />
    </clipPath>
    <clipPath
       clipPathUnits="userSpaceOnUse"
       id="clipPath37">
      <path
         d="M 0,0 H 1987.4999 V 550.75299 H 0 Z"
         transform="matrix(0.33408471,0,0,0.33408471,-479.65624,-141)"
         clip-rule="evenodd"
         id="path37" />
    </clipPath>
    <clipPath
       clipPathUnits="userSpaceOnUse"
       id="clipPath39">
      <path
         d="M 0,0 H 1987.4999 V 550.75299 H 0 Z"
         transform="matrix(0.33408807,0,0,0.33408807,-0.50000001,-0.50000001)"
         clip-rule="evenodd"
         id="path39" />
    </clipPath>
    <clipPath
       clipPathUnits="userSpaceOnUse"
       id="clipPath40">
      <path
         d="M 0,0 H 1987.4999 V 550.75299 H 0 Z"
         transform="matrix(0.33408471,0,0,0.33408471,-341.89062,-163)"
         clip-rule="evenodd"
         id="path40" />
    </clipPath>
    <clipPath
       clipPathUnits="userSpaceOnUse"
       id="clipPath41">
      <path
         d="M 0,0 H 1987.4999 V 550.75299 H 0 Z"
         transform="matrix(0.33408471,0,0,0.33408471,-412.60938,-178)"
         clip-rule="evenodd"
         id="path41" />
    </clipPath>
  </defs>
  <sodipodi:namedview
     id="namedview1"
     pagecolor="#ffffff"
     bordercolor="#000000"
     borderopacity="0.25"
     inkscape:showpageshadow="2"
     inkscape:pageopacity="0.0"
     inkscape:pagecheckerboard="0"
     inkscape:deskcolor="#d1d1d1">
    <inkscape:page
       x="0"
       y="0"
       inkscape:label="1"
       id="page1"
       width="635.83997"
       height="177.27998"
       margin="0"
       bleed="0" />
  </sodipodi:namedview>
  <g
     id="g1"
     inkscape:groupmode="layer"
     inkscape:label="1">
    <path
       id="path1"
       d="M 0,0 H 664 V 185 H 0 Z"
       style="fill:#ffffff;fill-opacity:1;fill-rule:nonzero;stroke:none"
       transform="scale(0.95783122)"
       clip-path="url(#clipPath2)" />
    <path
       id="path3"
       d="M 141,61 V 91 H 61 v 23.63"
       style="fill:none;stroke:#000000;stroke-width:1;stroke-linecap:butt;stroke-linejoin:miter;stroke-miterlimit:10;stroke-dasharray:none;stroke-opacity:1"
       transform="matrix(0.95783122,0,0,0.95783122,0.47891562,0.47891562)"
       clip-path="url(#clipPath4)" />
    <path
       id="path5"
       d="m 61,119.88 -3.5,-7 3.5,1.75 3.5,-1.75 z"
       style="fill:#000000;fill-opacity:1;fill-rule:nonzero;stroke:#000000;stroke-width:1;stroke-linecap:butt;stroke-linejoin:miter;stroke-miterlimit:10;stroke-dasharray:none;stroke-opacity:1"
       transform="matrix(0.95783122,0,0,0.95783122,0.47891562,0.47891562)"
       clip-path="url(#clipPath6)" />
    <path
       id="path7"
       d="m 141,61 v 30 h 80 v 23.63"
       style="fill:none;stroke:#000000;stroke-width:1;stroke-linecap:butt;stroke-linejoin:miter;stroke-miterlimit:10;stroke-dasharray:none;stroke-opacity:1"
       transform="matrix(0.95783122,0,0,0.95783122,0.47891562,0.47891562)"
       clip-path="url(#clipPath8)" />
    <path
       id="path9"
       d="m 221,119.88 -3.5,-7 3.5,1.75 3.5,-1.75 z"
       style="fill:#000000;fill-opacity:1;fill-rule:nonzero;stroke:#000000;stroke-width:1;stroke-linecap:butt;stroke-linejoin:miter;stroke-miterlimit:10;stroke-dasharray:none;stroke-opacity:1"
       transform="matrix(0.95783122,0,0,0.95783122,0.47891562,0.47891562)"
       clip-path="url(#clipPath10)" />
    <path
       id="path11"
       d="M 81,1 H 201 V 61 H 81 Z"
       style="fill:#dae8fc;fill-opacity:1;fill-rule:nonzero;stroke:#6c8ebf;stroke-width:1;stroke-linecap:butt;stroke-linejoin:miter;stroke-miterlimit:10;stroke-dasharray:none;stroke-opacity:1"
       transform="matrix(0.95783122,0,0,0.95783122,0.47891562,0.47891562)"
       clip-path="url(#clipPath12)" />
    <text
       id="text12"
       xml:space="preserve"
       transform="matrix(0.95784086,0,0,0.95784086,100.15423,36.397953)"
       clip-path="url(#clipPath13)"><tspan
         style="font-variant:normal;font-weight:normal;font-size:19px;font-family:Helvetica;writing-mode:lr-tb;fill:#000000;fill-opacity:1;fill-rule:nonzero;stroke:none"
         x="0 13.721191 23.221191 33.788086 40.115234 52.788086 63.35498 67.576172"
         y="0"
         sodipodi:role="line"
         id="tspan12">UserEdit</tspan></text>
    <path
       id="path14"
       d="m 1,121 h 120 v 60 H 1 Z"
       style="fill:#f8cecc;fill-opacity:1;fill-rule:nonzero;stroke:#b85450;stroke-width:1;stroke-linecap:butt;stroke-linejoin:miter;stroke-miterlimit:10;stroke-dasharray:none;stroke-opacity:1"
       transform="matrix(0.95783122,0,0,0.95783122,0.47891562,0.47891562)"
       clip-path="url(#clipPath15)" />
    <text
       id="text15"
       xml:space="preserve"
       transform="matrix(0.95784086,0,0,0.95784086,16.447923,151.33886)"
       clip-path="url(#clipPath16)"><tspan
         style="font-variant:normal;font-weight:normal;font-size:19px;font-family:Helvetica;writing-mode:lr-tb;fill:#000000;fill-opacity:1;fill-rule:nonzero;stroke:none"
         x="0 13.721191 23.221191 33.788086 40.115234 52.788086 63.35498 73.921875"
         y="0"
         sodipodi:role="line"
         id="tspan15">UserShow</tspan></text>
    <path
       id="path17"
       d="m 161,121 h 120 v 60 H 161 Z"
       style="fill:#f8cecc;fill-opacity:1;fill-rule:nonzero;stroke:#b85450;stroke-width:1;stroke-linecap:butt;stroke-linejoin:miter;stroke-miterlimit:10;stroke-dasharray:none;stroke-opacity:1"
       transform="matrix(0.95783122,0,0,0.95783122,0.47891562,0.47891562)"
       clip-path="url(#clipPath18)" />
    <text
       id="text18"
       xml:space="preserve"
       transform="matrix(0.95784086,0,0,0.95784086,171.22902,151.33886)"
       clip-path="url(#clipPath19)"><tspan
         style="font-variant:normal;font-weight:normal;font-size:19px;font-family:Helvetica;writing-mode:lr-tb;fill:#000000;fill-opacity:1;fill-rule:nonzero;stroke:none"
         x="0 13.721191 23.221191 33.788086 40.115234 51.721191 62.288086 68.615234"
         y="0"
         sodipodi:role="line"
         id="tspan18">UserForm</tspan></text>
    <path
       id="path20"
       d="m 321,1 h -7.5 c -5,0 -7.5,3.333333 -7.5,10 v 70 c 0,6.666664 -2.5,10 -7.5,10 h -3.75 c -2.5,0 -1.25,0 3.75,0 h 3.75 c 2.5,0 3.75,3.333336 3.75,10 v 70 c 0,6.66667 2.5,10 7.5,10 h 7.5"
       style="fill:none;stroke:#000000;stroke-width:1;stroke-linecap:butt;stroke-linejoin:miter;stroke-miterlimit:10;stroke-dasharray:none;stroke-opacity:1"
       transform="matrix(-0.95783122,0,0,-0.95783122,586.67162,174.80419)"
       clip-path="url(#clipPath21)" />
    <path
       id="path22"
       d="M 331,1 H 661 V 31 H 331 Z"
       style="fill:#ffffff;fill-opacity:1;fill-rule:nonzero;stroke:#000000;stroke-width:1;stroke-linecap:butt;stroke-linejoin:miter;stroke-miterlimit:10;stroke-dasharray:none;stroke-opacity:1"
       transform="matrix(0.95783122,0,0,0.95783122,0.47891562,0.47891562)"
       clip-path="url(#clipPath23)" />
    <text
       id="text23"
       xml:space="preserve"
       transform="matrix(0.95784086,0,0,0.95784086,393.95696,19.156817)"
       clip-path="url(#clipPath24)"><tspan
         style="font-variant:normal;font-weight:normal;font-size:12px;font-family:Helvetica;writing-mode:lr-tb;fill:#000000;fill-opacity:1;fill-rule:nonzero;stroke:none"
         x="0 8.0039062 14.677734 20.677734 27.351562 30.685547 36.685547 39.351562 46.025391 54.691406"
         y="0"
         sodipodi:role="line"
         id="tspan23">Each view </tspan></text>
    <text
       id="text24"
       xml:space="preserve"
       transform="matrix(0.95784086,0,0,0.95784086,449.54166,19.156817)"
       clip-path="url(#clipPath25)"><tspan
         style="font-variant:normal;font-weight:700;font-size:12px;font-family:Helvetica;writing-mode:lr-tb;fill:#000000;fill-opacity:1;fill-rule:nonzero;stroke:none"
         x="0 10.669922 18 24.673828"
         y="0"
         sodipodi:role="line"
         id="tspan24">must</tspan></text>
    <text
       id="text25"
       xml:space="preserve"
       transform="matrix(0.95784086,0,0,0.95784086,477.00475,19.156817)"
       clip-path="url(#clipPath26)"><tspan
         style="font-variant:normal;font-weight:normal;font-size:12px;font-family:Helvetica;writing-mode:lr-tb;fill:#000000;fill-opacity:1;fill-rule:nonzero;stroke:none"
         x="0 3.3339844 10.007812 14.003906 20.677734 27.351562 34.025391 40.025391 46.699219 50.033203 58.699219 66.029297 76.025391"
         y="0"
         sodipodi:role="line"
         id="tspan25"> produce HTML</tspan></text>
    <path
       id="path27"
       d="M 331,39 H 661 V 69 H 331 Z"
       style="fill:#ffffff;fill-opacity:1;fill-rule:nonzero;stroke:#000000;stroke-width:1;stroke-linecap:butt;stroke-linejoin:miter;stroke-miterlimit:10;stroke-dasharray:none;stroke-opacity:1"
       transform="matrix(0.95783122,0,0,0.95783122,0.47891562,0.47891562)"
       clip-path="url(#clipPath28)" />
    <text
       id="text28"
       xml:space="preserve"
       transform="matrix(0.95784086,0,0,0.95784086,336.29194,55.55477)"
       clip-path="url(#clipPath29)"><tspan
         style="font-variant:normal;font-weight:normal;font-size:12px;font-family:Helvetica;writing-mode:lr-tb;fill:#000000;fill-opacity:1;fill-rule:nonzero;stroke:none"
         x="0 11.115234 17.789062 21.123047 27.123047 33.796875 40.470703 47.144531 49.810547 56.484375 59.818359 66.492188 73.166016 76.5 83.173828 89.847656 92.513672 99.1875 102.52148 105.85547 112.5293 115.86328 122.53711 129.21094 135.21094 138.54492 141.87891 148.55273 155.22656 161.90039 165.23438 171.23438 173.90039 180.57422 189.24023 191.53125 197.53125 200.86523 209.53125 216.86133 226.85742 233.0918 236.42578 239.0918 245.76562 249.09961 255.77344 262.44727 269.12109 272.45508 279.12891 285.80273"
         y="0"
         sodipodi:role="line"
         id="tspan28">We should be able to nest one view's HTML in another</tspan></text>
    <path
       id="path30"
       d="m 331,76 h 330 v 30 H 331 Z"
       style="fill:#ffffff;fill-opacity:1;fill-rule:nonzero;stroke:#000000;stroke-width:1;stroke-linecap:butt;stroke-linejoin:miter;stroke-miterlimit:10;stroke-dasharray:none;stroke-opacity:1"
       transform="matrix(0.95783122,0,0,0.95783122,0.47891562,0.47891562)"
       clip-path="url(#clipPath31)" />
    <text
       id="text31"
       xml:space="preserve"
       transform="matrix(0.95784086,0,0,0.95784086,320.23314,84.289995)"
       clip-path="url(#clipPath32)"><tspan
         style="font-variant:normal;font-weight:normal;font-size:12px;font-family:Helvetica;writing-mode:lr-tb;fill:#000000;fill-opacity:1;fill-rule:nonzero;stroke:none"
         x="0 11.115234 17.789062 21.123047 27.796875 34.470703 41.144531 47.818359 51.152344 54.486328 61.160156 64.494141 71.167969 77.841797 83.841797 90.515625 93.849609 100.52344 103.85742 110.53125 117.20508 123.87891 130.55273 133.88672 142.55273 149.22656 155.22656 158.56055 161.89453 168.56836 171.90234 178.57617 185.25 191.92383 198.59766 201.26367 207.9375 211.27148 217.94531 223.94531 230.61914 234.61523 237.94922 244.62305 250.62305 257.29688 263.9707 267.30469 273.30469 276.63867 280.63477 286.63477 289.30078 291.9668 297.9668 303.9668 306.63281 313.30664 319.98047"
         y="0"
         sodipodi:role="line"
         id="tspan31">We need to have a good way to handle user events (clicking,</tspan></text>
    <text
       id="text32"
       xml:space="preserve"
       transform="matrix(0.95784086,0,0,0.95784086,446.96746,98.657608)"
       clip-path="url(#clipPath33)"><tspan
         style="font-variant:normal;font-weight:normal;font-size:12px;font-family:Helvetica;writing-mode:lr-tb;fill:#000000;fill-opacity:1;fill-rule:nonzero;stroke:none"
         x="0 3.3339844 9.3339844 16.007812 18.673828 25.347656 32.021484 35.355469 38.689453 45.363281 48.697266 54.697266"
         y="0"
         sodipodi:role="line"
         id="tspan32">typing, etc)</tspan></text>
    <path
       id="path34"
       d="m 331,114 h 330 v 30 H 331 Z"
       style="fill:#ffffff;fill-opacity:1;fill-rule:nonzero;stroke:#000000;stroke-width:1;stroke-linecap:butt;stroke-linejoin:miter;stroke-miterlimit:10;stroke-dasharray:none;stroke-opacity:1"
       transform="matrix(0.95783122,0,0,0.95783122,0.47891562,0.47891562)"
       clip-path="url(#clipPath35)" />
    <text
       id="text35"
       xml:space="preserve"
       transform="matrix(0.95784086,0,0,0.95784086,321.41547,120.68795)"
       clip-path="url(#clipPath36)"><tspan
         style="font-variant:normal;font-weight:normal;font-size:12px;font-family:Helvetica;writing-mode:lr-tb;fill:#000000;fill-opacity:1;fill-rule:nonzero;stroke:none"
         x="0 7.3300781 14.003906 20.677734 24.673828 31.347656 34.681641 43.347656 46.013672 48.679688 51.345703 54.679688 61.353516 65.349609 72.023438 78.697266 85.371094 92.044922 94.710938 100.71094 104.04492 110.71875 117.39258 120.72656 127.40039 130.73438 134.06836 136.73438 143.4082 150.08203 153.41602 156.75 162.75 169.42383 176.09766 182.77148 185.4375 188.10352 194.77734 201.45117 204.78516 211.45898 218.13281 221.4668 230.13281 236.80664 243.48047 250.1543 253.48828 260.16211 263.49609 269.49609 272.16211 278.83594 287.50195 290.83594 297.50977 304.18359 310.85742 314.19141"
         y="0"
         sodipodi:role="line"
         id="tspan35">There will probably be a tight coupling between a view and a</tspan></text>
    <text
       id="text36"
       xml:space="preserve"
       transform="matrix(0.95784086,0,0,0.95784086,459.43435,135.05556)"
       clip-path="url(#clipPath37)"><tspan
         style="font-variant:normal;font-weight:normal;font-size:12px;font-family:Helvetica;writing-mode:lr-tb;fill:#000000;fill-opacity:1;fill-rule:nonzero;stroke:none"
         x="0 9.9960938 16.669922 23.34375 30.017578"
         y="0"
         sodipodi:role="line"
         id="tspan36">model</tspan></text>
    <path
       id="path38"
       d="m 331,151 h 330 v 30 H 331 Z"
       style="fill:#ffffff;fill-opacity:1;fill-rule:nonzero;stroke:#000000;stroke-width:1;stroke-linecap:butt;stroke-linejoin:miter;stroke-miterlimit:10;stroke-dasharray:none;stroke-opacity:1"
       transform="matrix(0.95783122,0,0,0.95783122,0.47891562,0.47891562)"
       clip-path="url(#clipPath39)" />
    <text
       id="text39"
       xml:space="preserve"
       transform="matrix(0.95784086,0,0,0.95784086,327.47681,156.12806)"
       clip-path="url(#clipPath40)"><tspan
         style="font-variant:normal;font-weight:normal;font-size:12px;font-family:Helvetica;writing-mode:lr-tb;fill:#000000;fill-opacity:1;fill-rule:nonzero;stroke:none"
         x="0 11.115234 17.789062 21.123047 27.796875 34.470703 41.144531 47.818359 51.152344 54.486328 61.160156 64.494141 71.167969 77.841797 81.175781 87.849609 94.523438 97.189453 103.86328 107.19727 110.53125 117.20508 120.53906 124.53516 131.20898 137.88281 143.88281 150.55664 153.89062 156.55664 163.23047 166.56445 173.23828 176.57227 179.90625 186.58008 193.25391 196.58789 205.25391 212.58398 222.58008 228.81445 232.14844 238.82227 242.81836 249.49219 256.16602 262.83984 268.83984 275.51367 282.1875 285.52148 292.19531 298.19531 301.5293"
         y="0"
         sodipodi:role="line"
         id="tspan39">We need to be able to reach into the HTML produced by a</tspan></text>
    <g
       id="g40" />
    <text
       id="text40"
       xml:space="preserve"
       transform="matrix(0.95784086,0,0,0.95784086,395.21412,170.49567)"
       clip-path="url(#clipPath41)"><tspan
         style="font-variant:normal;font-weight:normal;font-size:12px;font-family:Helvetica;writing-mode:lr-tb;fill:#000000;fill-opacity:1;fill-rule:nonzero;stroke:none"
         x="0 6 8.6660156 15.339844 24.005859 27.339844 34.013672 40.6875 47.361328 50.695312 57.369141 64.042969 67.376953 70.710938 77.384766 80.71875 86.71875 93.392578 100.06641 106.06641 108.73242 114.73242 120.73242 124.06641 130.74023 133.40625 140.08008 150.07617 156.75 163.42383"
         y="0"
         sodipodi:role="line"
         id="tspan40">view and get a speciﬁc element</tspan></text>
  </g>
</svg>
