<?xml version="1.0" encoding="UTF-8" standalone="no"?>
<!-- Created with Inkscape (http://www.inkscape.org/) -->

<svg
   version="1.1"
   id="svg1"
   width="204.15999"
   height="129.28"
   viewBox="0 0 204.15999 129.28"
   sodipodi:docname="ts-5.pdf"
   xmlns:inkscape="http://www.inkscape.org/namespaces/inkscape"
   xmlns:sodipodi="http://sodipodi.sourceforge.net/DTD/sodipodi-0.dtd"
   xmlns="http://www.w3.org/2000/svg"
   xmlns:svg="http://www.w3.org/2000/svg">
  <defs
     id="defs1">
    <clipPath
       clipPathUnits="userSpaceOnUse"
       id="clipPath2">
      <path
         d="M 0,0 H 637.49994 V 402.16119 H 0 Z"
         transform="scale(0.33568631)"
         clip-rule="evenodd"
         id="path2" />
    </clipPath>
    <clipPath
       clipPathUnits="userSpaceOnUse"
       id="clipPath4">
      <path
         d="M 0,0 H 637.49994 V 399.18222 H 0 Z"
         transform="matrix(0.33568631,0,0,0.33568631,-0.50000001,-0.50000001)"
         clip-rule="evenodd"
         id="path4" />
    </clipPath>
    <clipPath
       clipPathUnits="userSpaceOnUse"
       id="clipPath5">
      <path
         d="M 0,0 H 637.49994 V 399.18222 H 0 Z"
         transform="matrix(0.33568295,0,0,0.33568295,-38.453125,-28)"
         clip-rule="evenodd"
         id="path5" />
    </clipPath>
    <clipPath
       clipPathUnits="userSpaceOnUse"
       id="clipPath7">
      <path
         d="M 0,0 H 637.49994 V 399.18222 H 0 Z"
         transform="matrix(0.33568631,0,0,0.33568631,-0.50000001,-0.50000001)"
         clip-rule="evenodd"
         id="path7" />
    </clipPath>
    <clipPath
       clipPathUnits="userSpaceOnUse"
       id="clipPath8">
      <path
         d="M 0,0 H 637.49994 V 399.18222 H 0 Z"
         transform="matrix(0.33568295,0,0,0.33568295,-53.046875,-62)"
         clip-rule="evenodd"
         id="path8" />
    </clipPath>
    <clipPath
       clipPathUnits="userSpaceOnUse"
       id="clipPath10">
      <path
         d="M 0,0 H 637.49994 V 399.18222 H 0 Z"
         transform="matrix(0.33568631,0,0,0.33568631,-0.50000001,-0.50000001)"
         clip-rule="evenodd"
         id="path10" />
    </clipPath>
    <clipPath
       clipPathUnits="userSpaceOnUse"
       id="clipPath11">
      <path
         d="M 0,0 H 637.49994 V 399.18222 H 0 Z"
         transform="matrix(0.33568295,0,0,0.33568295,-49.71875,-92.000001)"
         clip-rule="evenodd"
         id="path11" />
    </clipPath>
    <clipPath
       clipPathUnits="userSpaceOnUse"
       id="clipPath13">
      <path
         d="M 0,0 H 637.49994 V 399.18222 H 0 Z"
         transform="matrix(0.33568631,0,0,0.33568631,-0.50000001,-0.50000001)"
         clip-rule="evenodd"
         id="path13" />
    </clipPath>
    <clipPath
       clipPathUnits="userSpaceOnUse"
       id="clipPath14">
      <path
         d="M 0,0 H 637.49994 V 399.18222 H 0 Z"
         transform="matrix(0.33568295,0,0,0.33568295,-61.390625,-122)"
         clip-rule="evenodd"
         id="path14" />
    </clipPath>
  </defs>
  <sodipodi:namedview
     id="namedview1"
     pagecolor="#ffffff"
     bordercolor="#000000"
     borderopacity="0.25"
     inkscape:showpageshadow="2"
     inkscape:pageopacity="0.0"
     inkscape:pagecheckerboard="0"
     inkscape:deskcolor="#d1d1d1">
    <inkscape:page
       x="0"
       y="0"
       inkscape:label="1"
       id="page1"
       width="204.15999"
       height="129.28"
       margin="0"
       bleed="0" />
  </sodipodi:namedview>
  <g
     id="g1"
     inkscape:groupmode="layer"
     inkscape:label="1">
    <path
       id="path1"
       d="M 0,0 H 214 V 135 H 0 Z"
       style="fill:#ffffff;fill-opacity:1;fill-rule:nonzero;stroke:none"
       transform="scale(0.9532709)"
       clip-path="url(#clipPath2)" />
    <path
       id="path3"
       d="M 1,1 H 211 V 41 H 1 Z"
       style="fill:#dae8fc;fill-opacity:1;fill-rule:nonzero;stroke:#6c8ebf;stroke-width:1;stroke-linecap:butt;stroke-linejoin:miter;stroke-miterlimit:10;stroke-dasharray:none;stroke-opacity:1"
       transform="matrix(0.9532709,0,0,0.9532709,0.47663546,0.47663546)"
       clip-path="url(#clipPath4)" />
    <text
       id="text4"
       xml:space="preserve"
       transform="matrix(0.95328044,0,0,0.95328044,36.656612,26.691852)"
       clip-path="url(#clipPath5)"><tspan
         style="font-variant:normal;font-weight:700;font-size:18px;font-family:Helvetica;writing-mode:lr-tb;fill:#000000;fill-opacity:1;fill-rule:nonzero;stroke:none"
         x="0 10.010742 15.011719 25.022461 35.033203 45.043945 50.044922 63.043945 73.054688 83.06543 90.070312 101.06543 112.06055 119.06543"
         y="0"
         sodipodi:role="line"
         id="tspan4">class UserForm</tspan></text>
    <path
       id="path6"
       d="M 1,41 H 211 V 71 H 1 Z"
       style="fill:#ffffff;fill-opacity:1;fill-rule:nonzero;stroke:#000000;stroke-width:1;stroke-linecap:butt;stroke-linejoin:miter;stroke-miterlimit:10;stroke-dasharray:none;stroke-opacity:1"
       transform="matrix(0.9532709,0,0,0.9532709,0.47663546,0.47663546)"
       clip-path="url(#clipPath7)" />
    <text
       id="text7"
       xml:space="preserve"
       transform="matrix(0.95328044,0,0,0.95328044,50.568548,59.103387)"
       clip-path="url(#clipPath8)"><tspan
         style="font-variant:normal;font-weight:normal;font-size:15px;font-family:Helvetica;writing-mode:lr-tb;fill:#000000;fill-opacity:1;fill-rule:nonzero;stroke:none"
         x="0 8.3422852 16.68457 21.679688 30.021973 38.364258 42.531738 46.699219 50.866699 60.871582 64.204102 72.546387 85.041504 93.383789 101.72607"
         y="0"
         sodipodi:role="line"
         id="tspan7">parent: Element</tspan></text>
    <path
       id="path9"
       d="m 1,71 h 210 v 30 H 1 Z"
       style="fill:#ffffff;fill-opacity:1;fill-rule:nonzero;stroke:#000000;stroke-width:1;stroke-linecap:butt;stroke-linejoin:miter;stroke-miterlimit:10;stroke-dasharray:none;stroke-opacity:1"
       transform="matrix(0.9532709,0,0,0.9532709,0.47663546,0.47663546)"
       clip-path="url(#clipPath10)" />
    <text
       id="text10"
       xml:space="preserve"
       transform="matrix(0.95328044,0,0,0.95328044,47.395912,87.701801)"
       clip-path="url(#clipPath11)"><tspan
         style="font-variant:normal;font-weight:normal;font-size:15px;font-family:Helvetica;writing-mode:lr-tb;fill:#000000;fill-opacity:1;fill-rule:nonzero;stroke:none"
         x="0 4.1674805 12.509766 25.004883 33.347168 36.679688 45.021973 49.189453 57.531738 62.526855 67.521973 71.689453 75.856934 83.356934 87.524414 92.519531 95.852051 104.19434"
         y="0"
         sodipodi:role="line"
         id="tspan10">template(): string</tspan></text>
    <path
       id="path12"
       d="m 1,101 h 210 v 30 H 1 Z"
       style="fill:#ffffff;fill-opacity:1;fill-rule:nonzero;stroke:#000000;stroke-width:1;stroke-linecap:butt;stroke-linejoin:miter;stroke-miterlimit:10;stroke-dasharray:none;stroke-opacity:1"
       transform="matrix(0.9532709,0,0,0.9532709,0.47663546,0.47663546)"
       clip-path="url(#clipPath13)" />
    <text
       id="text13"
       xml:space="preserve"
       transform="matrix(0.95328044,0,0,0.95328044,58.522482,116.30021)"
       clip-path="url(#clipPath14)"><tspan
         style="font-variant:normal;font-weight:normal;font-size:15px;font-family:Helvetica;writing-mode:lr-tb;fill:#000000;fill-opacity:1;fill-rule:nonzero;stroke:none"
         x="0 4.9951172 13.337402 21.679688 30.021973 38.364258 43.359375 48.354492 53.349609 57.51709 61.68457 69.18457 77.526855 80.859375"
         y="0"
         sodipodi:role="line"
         id="tspan13">render(): void</tspan></text>
  </g>
</svg>
