<?xml version="1.0" encoding="UTF-8" standalone="no"?>
<!-- Created with Inkscape (http://www.inkscape.org/) -->

<svg
   version="1.1"
   id="svg1"
   width="582.71997"
   height="340.16"
   viewBox="0 0 582.71997 340.16"
   sodipodi:docname="ts-6.pdf"
   xmlns:inkscape="http://www.inkscape.org/namespaces/inkscape"
   xmlns:sodipodi="http://sodipodi.sourceforge.net/DTD/sodipodi-0.dtd"
   xmlns="http://www.w3.org/2000/svg"
   xmlns:svg="http://www.w3.org/2000/svg">
  <defs
     id="defs1">
    <clipPath
       clipPathUnits="userSpaceOnUse"
       id="clipPath2">
      <path
         d="M 0,0 H 1820.8333 V 1061.4053 H 0 Z"
         transform="scale(0.33446227)"
         clip-rule="evenodd"
         id="path2" />
    </clipPath>
    <clipPath
       clipPathUnits="userSpaceOnUse"
       id="clipPath4">
      <path
         d="M 0,0 H 1820.8333 V 1052.4356 H 0 Z"
         transform="matrix(0.33446227,0,0,0.33446227,-0.49999999,-0.49999999)"
         clip-rule="evenodd"
         id="path4" />
    </clipPath>
    <clipPath
       clipPathUnits="userSpaceOnUse"
       id="clipPath5">
      <path
         d="M 0,0 H 1820.8333 V 1052.4356 H 0 Z"
         transform="matrix(0.33445891,0,0,0.33445891,-38.453125,-77)"
         clip-rule="evenodd"
         id="path5" />
    </clipPath>
    <clipPath
       clipPathUnits="userSpaceOnUse"
       id="clipPath7">
      <path
         d="M 0,0 H 1820.8333 V 1052.4356 H 0 Z"
         transform="matrix(0.33446227,0,0,0.33446227,-0.49999999,-0.49999999)"
         clip-rule="evenodd"
         id="path7" />
    </clipPath>
    <clipPath
       clipPathUnits="userSpaceOnUse"
       id="clipPath9">
      <path
         d="M 0,0 H 1820.8333 V 1052.4356 H 0 Z"
         transform="matrix(0.33446227,0,0,0.33446227,-0.49999999,-0.49999999)"
         clip-rule="evenodd"
         id="path9" />
    </clipPath>
    <clipPath
       clipPathUnits="userSpaceOnUse"
       id="clipPath11">
      <path
         d="M 0,0 H 1820.8333 V 1052.4356 H 0 Z"
         transform="matrix(0.33446227,0,0,0.33446227,-0.49999999,-0.49999999)"
         clip-rule="evenodd"
         id="path11" />
    </clipPath>
    <clipPath
       clipPathUnits="userSpaceOnUse"
       id="clipPath12">
      <path
         d="M 0,0 H 1820.8333 V 1052.4356 H 0 Z"
         transform="matrix(0.33445891,0,0,0.33445891,-53.046875,-111)"
         clip-rule="evenodd"
         id="path12" />
    </clipPath>
    <clipPath
       clipPathUnits="userSpaceOnUse"
       id="clipPath14">
      <path
         d="M 0,0 H 1820.8333 V 1052.4356 H 0 Z"
         transform="matrix(0.33446227,0,0,0.33446227,-0.49999999,-0.49999999)"
         clip-rule="evenodd"
         id="path14" />
    </clipPath>
    <clipPath
       clipPathUnits="userSpaceOnUse"
       id="clipPath15">
      <path
         d="M 0,0 H 1820.8333 V 1052.4356 H 0 Z"
         transform="matrix(0.33445891,0,0,0.33445891,-49.71875,-141)"
         clip-rule="evenodd"
         id="path15" />
    </clipPath>
    <clipPath
       clipPathUnits="userSpaceOnUse"
       id="clipPath17">
      <path
         d="M 0,0 H 1820.8333 V 1052.4356 H 0 Z"
         transform="matrix(0.33446227,0,0,0.33446227,-0.49999999,-0.49999999)"
         clip-rule="evenodd"
         id="path17" />
    </clipPath>
    <clipPath
       clipPathUnits="userSpaceOnUse"
       id="clipPath18">
      <path
         d="M 0,0 H 1820.8333 V 1052.4356 H 0 Z"
         transform="matrix(0.33445891,0,0,0.33445891,-61.390625,-170.99999)"
         clip-rule="evenodd"
         id="path18" />
    </clipPath>
    <clipPath
       clipPathUnits="userSpaceOnUse"
       id="clipPath20">
      <path
         d="M 0,0 H 1820.8333 V 1052.4356 H 0 Z"
         transform="matrix(0.33446227,0,0,0.33446227,-0.49999999,-0.49999999)"
         clip-rule="evenodd"
         id="path20" />
    </clipPath>
    <clipPath
       clipPathUnits="userSpaceOnUse"
       id="clipPath22">
      <path
         d="M 0,0 H 1820.8333 V 1052.4356 H 0 Z"
         transform="matrix(0.33446227,0,0,0.33446227,-0.49999999,-0.49999999)"
         clip-rule="evenodd"
         id="path22" />
    </clipPath>
    <clipPath
       clipPathUnits="userSpaceOnUse"
       id="clipPath24">
      <path
         d="M 0,0 H 1820.8333 V 1052.4356 H 0 Z"
         transform="matrix(0.33446227,0,0,0.33446227,-0.49999999,-0.49999999)"
         clip-rule="evenodd"
         id="path24" />
    </clipPath>
    <clipPath
       clipPathUnits="userSpaceOnUse"
       id="clipPath26">
      <path
         d="M 0,0 H 1820.8333 V 1052.4356 H 0 Z"
         transform="matrix(0.33446227,0,0,0.33446227,-0.49999999,-0.49999999)"
         clip-rule="evenodd"
         id="path26" />
    </clipPath>
    <clipPath
       clipPathUnits="userSpaceOnUse"
       id="clipPath28">
      <path
         d="M 0,0 H 1820.8333 V 1052.4356 H 0 Z"
         transform="matrix(0.33446227,0,0,0.33446227,-0.49999999,-0.49999999)"
         clip-rule="evenodd"
         id="path28" />
    </clipPath>
    <clipPath
       clipPathUnits="userSpaceOnUse"
       id="clipPath30">
      <path
         d="M 0,0 H 1820.8333 V 1052.4356 H 0 Z"
         transform="matrix(0.33446227,0,0,0.33446227,-0.49999999,-0.49999999)"
         clip-rule="evenodd"
         id="path30" />
    </clipPath>
    <clipPath
       clipPathUnits="userSpaceOnUse"
       id="clipPath32">
      <path
         d="M 0,0 H 1820.8333 V 1052.4356 H 0 Z"
         transform="matrix(0.33446227,0,0,0.33446227,-0.49999999,-0.49999999)"
         clip-rule="evenodd"
         id="path32" />
    </clipPath>
    <clipPath
       clipPathUnits="userSpaceOnUse"
       id="clipPath33">
      <path
         d="M 0,0 H 1820.8333 V 1052.4356 H 0 Z"
         transform="matrix(0.33445891,0,0,0.33445891,-449.73438,-46)"
         clip-rule="evenodd"
         id="path33" />
    </clipPath>
    <clipPath
       clipPathUnits="userSpaceOnUse"
       id="clipPath35">
      <path
         d="M 0,0 H 1820.8333 V 1052.4356 H 0 Z"
         transform="matrix(0.33446227,0,0,0.33446227,-0.49999999,-0.49999999)"
         clip-rule="evenodd"
         id="path35" />
    </clipPath>
    <clipPath
       clipPathUnits="userSpaceOnUse"
       id="clipPath36">
      <path
         d="M 0,0 H 1820.8333 V 1052.4356 H 0 Z"
         transform="matrix(0.33445891,0,0,0.33445891,-356.40625,-121)"
         clip-rule="evenodd"
         id="path36" />
    </clipPath>
    <clipPath
       clipPathUnits="userSpaceOnUse"
       id="clipPath38">
      <path
         d="M 0,0 H 1820.8333 V 1052.4356 H 0 Z"
         transform="matrix(0.33446227,0,0,0.33446227,-0.49999999,-0.49999999)"
         clip-rule="evenodd"
         id="path38" />
    </clipPath>
    <clipPath
       clipPathUnits="userSpaceOnUse"
       id="clipPath40">
      <path
         d="M 0,0 H 1820.8333 V 1052.4356 H 0 Z"
         transform="matrix(0.33446227,0,0,0.33446227,-0.49999999,-0.49999999)"
         clip-rule="evenodd"
         id="path40" />
    </clipPath>
    <clipPath
       clipPathUnits="userSpaceOnUse"
       id="clipPath42">
      <path
         d="M 0,0 H 1820.8333 V 1052.4356 H 0 Z"
         transform="matrix(0.33446227,0,0,0.33446227,-0.49999999,-0.49999999)"
         clip-rule="evenodd"
         id="path42" />
    </clipPath>
    <clipPath
       clipPathUnits="userSpaceOnUse"
       id="clipPath44">
      <path
         d="M 0,0 H 1820.8333 V 1052.4356 H 0 Z"
         transform="matrix(0.33446227,0,0,0.33446227,-0.49999999,-0.49999999)"
         clip-rule="evenodd"
         id="path44" />
    </clipPath>
    <clipPath
       clipPathUnits="userSpaceOnUse"
       id="clipPath46">
      <path
         d="M 0,0 H 1820.8333 V 1052.4356 H 0 Z"
         transform="matrix(0.33446227,0,0,0.33446227,-0.49999999,-0.49999999)"
         clip-rule="evenodd"
         id="path46" />
    </clipPath>
    <clipPath
       clipPathUnits="userSpaceOnUse"
       id="clipPath47">
      <path
         d="M 0,0 H 1820.8333 V 1052.4356 H 0 Z"
         transform="matrix(0.33445891,0,0,0.33445891,-456.40625,-121)"
         clip-rule="evenodd"
         id="path47" />
    </clipPath>
    <clipPath
       clipPathUnits="userSpaceOnUse"
       id="clipPath49">
      <path
         d="M 0,0 H 1820.8333 V 1052.4356 H 0 Z"
         transform="matrix(0.33446227,0,0,0.33446227,-0.49999999,-0.49999999)"
         clip-rule="evenodd"
         id="path49" />
    </clipPath>
    <clipPath
       clipPathUnits="userSpaceOnUse"
       id="clipPath50">
      <path
         d="M 0,0 H 1820.8333 V 1052.4356 H 0 Z"
         transform="matrix(0.33445891,0,0,0.33445891,-546.8125,-121)"
         clip-rule="evenodd"
         id="path50" />
    </clipPath>
    <clipPath
       clipPathUnits="userSpaceOnUse"
       id="clipPath51">
      <path
         d="M 0,0 H 1820.8333 V 1052.4356 H 0 Z"
         transform="matrix(0.33445891,0,0,0.33445891,-448.5,-16)"
         clip-rule="evenodd"
         id="path51" />
    </clipPath>
    <clipPath
       clipPathUnits="userSpaceOnUse"
       id="clipPath53">
      <path
         d="M 0,0 H 1820.8333 V 1052.4356 H 0 Z"
         transform="matrix(0.33446227,0,0,0.33446227,-0.49999999,-0.49999999)"
         clip-rule="evenodd"
         id="path53" />
    </clipPath>
    <clipPath
       clipPathUnits="userSpaceOnUse"
       id="clipPath55">
      <path
         d="M 0,0 H 1820.8333 V 1052.4356 H 0 Z"
         transform="matrix(0.33446227,0,0,0.33446227,-0.49999999,-0.49999999)"
         clip-rule="evenodd"
         id="path55" />
    </clipPath>
    <clipPath
       clipPathUnits="userSpaceOnUse"
       id="clipPath57">
      <path
         d="M 0,0 H 1820.8333 V 1052.4356 H 0 Z"
         transform="matrix(0.33446227,0,0,0.33446227,-0.49999999,-0.49999999)"
         clip-rule="evenodd"
         id="path57" />
    </clipPath>
    <clipPath
       clipPathUnits="userSpaceOnUse"
       id="clipPath58">
      <path
         d="M 0,0 H 1820.8333 V 1052.4356 H 0 Z"
         transform="matrix(0.33445891,0,0,0.33445891,-396.40625,-191)"
         clip-rule="evenodd"
         id="path58" />
    </clipPath>
    <clipPath
       clipPathUnits="userSpaceOnUse"
       id="clipPath60">
      <path
         d="M 0,0 H 1820.8333 V 1052.4356 H 0 Z"
         transform="matrix(0.33446227,0,0,0.33446227,-0.49999999,-0.49999999)"
         clip-rule="evenodd"
         id="path60" />
    </clipPath>
    <clipPath
       clipPathUnits="userSpaceOnUse"
       id="clipPath62">
      <path
         d="M 0,0 H 1820.8333 V 1052.4356 H 0 Z"
         transform="matrix(0.33446227,0,0,0.33446227,-0.49999999,-0.49999999)"
         clip-rule="evenodd"
         id="path62" />
    </clipPath>
    <clipPath
       clipPathUnits="userSpaceOnUse"
       id="clipPath64">
      <path
         d="M 0,0 H 1820.8333 V 1052.4356 H 0 Z"
         transform="matrix(0.33446227,0,0,0.33446227,-0.49999999,-0.49999999)"
         clip-rule="evenodd"
         id="path64" />
    </clipPath>
    <clipPath
       clipPathUnits="userSpaceOnUse"
       id="clipPath65">
      <path
         d="M 0,0 H 1820.8333 V 1052.4356 H 0 Z"
         transform="matrix(0.33445891,0,0,0.33445891,-520.15625,-191)"
         clip-rule="evenodd"
         id="path65" />
    </clipPath>
    <clipPath
       clipPathUnits="userSpaceOnUse"
       id="clipPath67">
      <path
         d="M 0,0 H 1820.8333 V 1052.4356 H 0 Z"
         transform="matrix(0.33446227,0,0,0.33446227,-0.49999999,-0.49999999)"
         clip-rule="evenodd"
         id="path67" />
    </clipPath>
    <clipPath
       clipPathUnits="userSpaceOnUse"
       id="clipPath68">
      <path
         d="M 0,0 H 1820.8333 V 1052.4356 H 0 Z"
         transform="matrix(0.33445891,0,0,0.33445891,-522.65625,-241)"
         clip-rule="evenodd"
         id="path68" />
    </clipPath>
    <clipPath
       clipPathUnits="userSpaceOnUse"
       id="clipPath70">
      <path
         d="M 0,0 H 1820.8333 V 1052.4356 H 0 Z"
         transform="matrix(0.33446227,0,0,0.33446227,-0.49999999,-0.49999999)"
         clip-rule="evenodd"
         id="path70" />
    </clipPath>
    <clipPath
       clipPathUnits="userSpaceOnUse"
       id="clipPath72">
      <path
         d="M 0,0 H 1820.8333 V 1052.4356 H 0 Z"
         transform="matrix(0.33446227,0,0,0.33446227,-0.49999999,-0.49999999)"
         clip-rule="evenodd"
         id="path72" />
    </clipPath>
    <clipPath
       clipPathUnits="userSpaceOnUse"
       id="clipPath74">
      <path
         d="M 0,0 H 1820.8333 V 1052.4356 H 0 Z"
         transform="matrix(0.33446227,0,0,0.33446227,-0.49999999,-0.49999999)"
         clip-rule="evenodd"
         id="path74" />
    </clipPath>
    <clipPath
       clipPathUnits="userSpaceOnUse"
       id="clipPath76">
      <path
         d="M 0,0 H 1820.8333 V 1052.4356 H 0 Z"
         transform="matrix(0.33446227,0,0,0.33446227,-0.49999999,-0.49999999)"
         clip-rule="evenodd"
         id="path76" />
    </clipPath>
    <clipPath
       clipPathUnits="userSpaceOnUse"
       id="clipPath78">
      <path
         d="M 0,0 H 1820.8333 V 1052.4356 H 0 Z"
         transform="matrix(0.33446227,0,0,0.33446227,-0.49999999,-0.49999999)"
         clip-rule="evenodd"
         id="path78" />
    </clipPath>
    <clipPath
       clipPathUnits="userSpaceOnUse"
       id="clipPath79">
      <path
         d="M 0,0 H 1820.8333 V 1052.4356 H 0 Z"
         transform="matrix(0.33445891,0,0,0.33445891,-391,-271)"
         clip-rule="evenodd"
         id="path79" />
    </clipPath>
    <clipPath
       clipPathUnits="userSpaceOnUse"
       id="clipPath81">
      <path
         d="M 0,0 H 1820.8333 V 1052.4356 H 0 Z"
         transform="matrix(0.33446227,0,0,0.33446227,-0.49999999,-0.49999999)"
         clip-rule="evenodd"
         id="path81" />
    </clipPath>
    <clipPath
       clipPathUnits="userSpaceOnUse"
       id="clipPath82">
      <path
         d="M 0,0 H 1820.8333 V 1052.4356 H 0 Z"
         transform="matrix(0.33445891,0,0,0.33445891,-330.14063,-341)"
         clip-rule="evenodd"
         id="path82" />
    </clipPath>
    <clipPath
       clipPathUnits="userSpaceOnUse"
       id="clipPath84">
      <path
         d="M 0,0 H 1820.8333 V 1052.4356 H 0 Z"
         transform="matrix(0.33446227,0,0,0.33446227,-0.49999999,-0.49999999)"
         clip-rule="evenodd"
         id="path84" />
    </clipPath>
    <clipPath
       clipPathUnits="userSpaceOnUse"
       id="clipPath85">
      <path
         d="M 0,0 H 1820.8333 V 1052.4356 H 0 Z"
         transform="matrix(0.33445891,0,0,0.33445891,-449.73438,-341)"
         clip-rule="evenodd"
         id="path85" />
    </clipPath>
  </defs>
  <sodipodi:namedview
     id="namedview1"
     pagecolor="#ffffff"
     bordercolor="#000000"
     borderopacity="0.25"
     inkscape:showpageshadow="2"
     inkscape:pageopacity="0.0"
     inkscape:pagecheckerboard="0"
     inkscape:deskcolor="#d1d1d1">
    <inkscape:page
       x="0"
       y="0"
       inkscape:label="1"
       id="page1"
       width="582.71997"
       height="340.16"
       margin="0"
       bleed="0" />
  </sodipodi:namedview>
  <g
     id="g1"
     inkscape:groupmode="layer"
     inkscape:label="1">
    <path
       id="path1"
       d="M 0,0 H 609 V 355 H 0 Z"
       style="fill:#ffffff;fill-opacity:1;fill-rule:nonzero;stroke:none"
       transform="scale(0.95675961)"
       clip-path="url(#clipPath2)" />
    <path
       id="path3"
       d="M 1,50 H 211 V 90 H 1 Z"
       style="fill:#dae8fc;fill-opacity:1;fill-rule:nonzero;stroke:#6c8ebf;stroke-width:1;stroke-linecap:butt;stroke-linejoin:miter;stroke-miterlimit:10;stroke-dasharray:none;stroke-opacity:1"
       transform="matrix(0.95675961,0,0,0.95675961,0.4783798,0.4783798)"
       clip-path="url(#clipPath4)" />
    <text
       id="text4"
       xml:space="preserve"
       transform="matrix(0.95676921,0,0,0.95676921,36.790766,73.671229)"
       clip-path="url(#clipPath5)"><tspan
         style="font-variant:normal;font-weight:700;font-size:18px;font-family:Helvetica;writing-mode:lr-tb;fill:#000000;fill-opacity:1;fill-rule:nonzero;stroke:none"
         x="0 10.010742 15.011719 25.022461 35.033203 45.043945 50.044922 63.043945 73.054688 83.06543 90.070312 101.06543 112.06055 119.06543"
         y="0"
         sodipodi:role="line"
         id="tspan4">class UserForm</tspan></text>
    <path
       id="path6"
       d="m 211,105 h 77.5 v 80 h 71.14001"
       style="fill:none;stroke:#000000;stroke-width:1;stroke-linecap:butt;stroke-linejoin:miter;stroke-miterlimit:10;stroke-dasharray:none;stroke-opacity:1"
       transform="matrix(0.95675961,0,0,0.95675961,0.4783798,0.4783798)"
       clip-path="url(#clipPath7)" />
    <path
       id="path8"
       d="m 364.89001,185 -7,3.5 1.75,-3.5 -1.75,-3.5 z"
       style="fill:#000000;fill-opacity:1;fill-rule:nonzero;stroke:#000000;stroke-width:1;stroke-linecap:butt;stroke-linejoin:miter;stroke-miterlimit:10;stroke-dasharray:none;stroke-opacity:1"
       transform="matrix(0.95675961,0,0,0.95675961,0.4783798,0.4783798)"
       clip-path="url(#clipPath9)" />
    <path
       id="path10"
       d="m 1,90 h 210 v 30 H 1 Z"
       style="fill:#ffffff;fill-opacity:1;fill-rule:nonzero;stroke:#000000;stroke-width:1;stroke-linecap:butt;stroke-linejoin:miter;stroke-miterlimit:10;stroke-dasharray:none;stroke-opacity:1"
       transform="matrix(0.95675961,0,0,0.95675961,0.4783798,0.4783798)"
       clip-path="url(#clipPath11)" />
    <text
       id="text11"
       xml:space="preserve"
       transform="matrix(0.95676921,0,0,0.95676921,50.753617,106.20138)"
       clip-path="url(#clipPath12)"><tspan
         style="font-variant:normal;font-weight:normal;font-size:15px;font-family:Helvetica;writing-mode:lr-tb;fill:#000000;fill-opacity:1;fill-rule:nonzero;stroke:none"
         x="0 8.3422852 16.68457 21.679688 30.021973 38.364258 42.531738 46.699219 50.866699 60.871582 64.204102 72.546387 85.041504 93.383789 101.72607"
         y="0"
         sodipodi:role="line"
         id="tspan11">parent: Element</tspan></text>
    <path
       id="path13"
       d="m 1,120 h 210 v 30 H 1 Z"
       style="fill:#ffffff;fill-opacity:1;fill-rule:nonzero;stroke:#000000;stroke-width:1;stroke-linecap:butt;stroke-linejoin:miter;stroke-miterlimit:10;stroke-dasharray:none;stroke-opacity:1"
       transform="matrix(0.95675961,0,0,0.95675961,0.4783798,0.4783798)"
       clip-path="url(#clipPath14)" />
    <text
       id="text14"
       xml:space="preserve"
       transform="matrix(0.95676921,0,0,0.95676921,47.569369,134.90446)"
       clip-path="url(#clipPath15)"><tspan
         style="font-variant:normal;font-weight:normal;font-size:15px;font-family:Helvetica;writing-mode:lr-tb;fill:#000000;fill-opacity:1;fill-rule:nonzero;stroke:none"
         x="0 4.1674805 12.509766 25.004883 33.347168 36.679688 45.021973 49.189453 57.531738 62.526855 67.521973 71.689453 75.856934 83.356934 87.524414 92.519531 95.852051 104.19434"
         y="0"
         sodipodi:role="line"
         id="tspan14">template(): string</tspan></text>
    <path
       id="path16"
       d="m 1,150 h 210 v 30 H 1 Z"
       style="fill:#ffffff;fill-opacity:1;fill-rule:nonzero;stroke:#000000;stroke-width:1;stroke-linecap:butt;stroke-linejoin:miter;stroke-miterlimit:10;stroke-dasharray:none;stroke-opacity:1"
       transform="matrix(0.95675961,0,0,0.95675961,0.4783798,0.4783798)"
       clip-path="url(#clipPath17)" />
    <text
       id="text17"
       xml:space="preserve"
       transform="matrix(0.95676921,0,0,0.95676921,58.73666,163.60753)"
       clip-path="url(#clipPath18)"><tspan
         style="font-variant:normal;font-weight:normal;font-size:15px;font-family:Helvetica;writing-mode:lr-tb;fill:#000000;fill-opacity:1;fill-rule:nonzero;stroke:none"
         x="0 4.9951172 13.337402 21.679688 30.021973 38.364258 43.359375 48.354492 53.349609 57.51709 61.68457 69.18457 77.526855 80.859375"
         y="0"
         sodipodi:role="line"
         id="tspan17">render(): void</tspan></text>
    <path
       id="path19"
       d="M 466,55 V 93.629997"
       style="fill:none;stroke:#000000;stroke-width:1;stroke-linecap:butt;stroke-linejoin:miter;stroke-miterlimit:10;stroke-dasharray:none;stroke-opacity:1"
       transform="matrix(0.95675961,0,0,0.95675961,0.4783798,0.4783798)"
       clip-path="url(#clipPath20)" />
    <path
       id="path21"
       d="m 466,98.879997 -3.5,-7 3.5,1.75 3.5,-1.75 z"
       style="fill:#000000;fill-opacity:1;fill-rule:nonzero;stroke:#000000;stroke-width:1;stroke-linecap:butt;stroke-linejoin:miter;stroke-miterlimit:10;stroke-dasharray:none;stroke-opacity:1"
       transform="matrix(0.95675961,0,0,0.95675961,0.4783798,0.4783798)"
       clip-path="url(#clipPath22)" />
    <path
       id="path23"
       d="M 466,55 V 77.5 H 366 v 16.129997"
       style="fill:none;stroke:#000000;stroke-width:1;stroke-linecap:butt;stroke-linejoin:miter;stroke-miterlimit:10;stroke-dasharray:none;stroke-opacity:1"
       transform="matrix(0.95675961,0,0,0.95675961,0.4783798,0.4783798)"
       clip-path="url(#clipPath24)" />
    <path
       id="path25"
       d="m 366,98.879997 -3.5,-7 3.5,1.75 3.5,-1.75 z"
       style="fill:#000000;fill-opacity:1;fill-rule:nonzero;stroke:#000000;stroke-width:1;stroke-linecap:butt;stroke-linejoin:miter;stroke-miterlimit:10;stroke-dasharray:none;stroke-opacity:1"
       transform="matrix(0.95675961,0,0,0.95675961,0.4783798,0.4783798)"
       clip-path="url(#clipPath26)" />
    <path
       id="path27"
       d="M 466,55 V 77.5 H 566 V 93.629997"
       style="fill:none;stroke:#000000;stroke-width:1;stroke-linecap:butt;stroke-linejoin:miter;stroke-miterlimit:10;stroke-dasharray:none;stroke-opacity:1"
       transform="matrix(0.95675961,0,0,0.95675961,0.4783798,0.4783798)"
       clip-path="url(#clipPath28)" />
    <path
       id="path29"
       d="m 566,98.879997 -3.5,-7 3.5,1.75 3.5,-1.75 z"
       style="fill:#000000;fill-opacity:1;fill-rule:nonzero;stroke:#000000;stroke-width:1;stroke-linecap:butt;stroke-linejoin:miter;stroke-miterlimit:10;stroke-dasharray:none;stroke-opacity:1"
       transform="matrix(0.95675961,0,0,0.95675961,0.4783798,0.4783798)"
       clip-path="url(#clipPath30)" />
    <path
       id="path31"
       d="M 416,25 H 516 V 55 H 416 Z"
       style="fill:#ffffff;fill-opacity:1;fill-rule:nonzero;stroke:#000000;stroke-width:1;stroke-linecap:butt;stroke-linejoin:miter;stroke-miterlimit:10;stroke-dasharray:none;stroke-opacity:1"
       transform="matrix(0.95675961,0,0,0.95675961,0.4783798,0.4783798)"
       clip-path="url(#clipPath32)" />
    <text
       id="text32"
       xml:space="preserve"
       transform="matrix(0.95676921,0,0,0.95676921,430.29201,44.011384)"
       clip-path="url(#clipPath33)"><tspan
         style="font-variant:normal;font-weight:normal;font-size:15px;font-family:Helvetica;writing-mode:lr-tb;fill:#000000;fill-opacity:1;fill-rule:nonzero;stroke:none"
         x="0 8.3422852 16.68457 25.026855"
         y="0"
         sodipodi:role="line"
         id="tspan32">body</tspan></text>
    <path
       id="path34"
       d="m 326,100 h 80 v 30 h -80 z"
       style="fill:#ffffff;fill-opacity:1;fill-rule:nonzero;stroke:#000000;stroke-width:1;stroke-linecap:butt;stroke-linejoin:miter;stroke-miterlimit:10;stroke-dasharray:none;stroke-opacity:1"
       transform="matrix(0.95675961,0,0,0.95675961,0.4783798,0.4783798)"
       clip-path="url(#clipPath35)" />
    <text
       id="text35"
       xml:space="preserve"
       transform="matrix(0.95676921,0,0,0.95676921,340.99853,115.76907)"
       clip-path="url(#clipPath36)"><tspan
         style="font-variant:normal;font-weight:normal;font-size:15px;font-family:Helvetica;writing-mode:lr-tb;fill:#000000;fill-opacity:1;fill-rule:nonzero;stroke:none"
         x="0 10.83252"
         y="0"
         sodipodi:role="line"
         id="tspan35">H1</tspan></text>
    <path
       id="path37"
       d="m 466,130 v 20 h -60 v 13.63"
       style="fill:none;stroke:#000000;stroke-width:1;stroke-linecap:butt;stroke-linejoin:miter;stroke-miterlimit:10;stroke-dasharray:none;stroke-opacity:1"
       transform="matrix(0.95675961,0,0,0.95675961,0.4783798,0.4783798)"
       clip-path="url(#clipPath38)" />
    <path
       id="path39"
       d="m 406,168.88 -3.5,-7 3.5,1.75 3.5,-1.75 z"
       style="fill:#000000;fill-opacity:1;fill-rule:nonzero;stroke:#000000;stroke-width:1;stroke-linecap:butt;stroke-linejoin:miter;stroke-miterlimit:10;stroke-dasharray:none;stroke-opacity:1"
       transform="matrix(0.95675961,0,0,0.95675961,0.4783798,0.4783798)"
       clip-path="url(#clipPath40)" />
    <path
       id="path41"
       d="m 466,130 v 20 h 60 v 13.63"
       style="fill:none;stroke:#000000;stroke-width:1;stroke-linecap:butt;stroke-linejoin:miter;stroke-miterlimit:10;stroke-dasharray:none;stroke-opacity:1"
       transform="matrix(0.95675961,0,0,0.95675961,0.4783798,0.4783798)"
       clip-path="url(#clipPath42)" />
    <path
       id="path43"
       d="m 526,168.88 -3.5,-7 3.5,1.75 3.5,-1.75 z"
       style="fill:#000000;fill-opacity:1;fill-rule:nonzero;stroke:#000000;stroke-width:1;stroke-linecap:butt;stroke-linejoin:miter;stroke-miterlimit:10;stroke-dasharray:none;stroke-opacity:1"
       transform="matrix(0.95675961,0,0,0.95675961,0.4783798,0.4783798)"
       clip-path="url(#clipPath44)" />
    <path
       id="path45"
       d="m 426,100 h 80 v 30 h -80 z"
       style="fill:#ffffff;fill-opacity:1;fill-rule:nonzero;stroke:#000000;stroke-width:1;stroke-linecap:butt;stroke-linejoin:miter;stroke-miterlimit:10;stroke-dasharray:none;stroke-opacity:1"
       transform="matrix(0.95675961,0,0,0.95675961,0.4783798,0.4783798)"
       clip-path="url(#clipPath46)" />
    <text
       id="text46"
       xml:space="preserve"
       transform="matrix(0.95676921,0,0,0.95676921,436.67545,115.76907)"
       clip-path="url(#clipPath47)"><tspan
         style="font-variant:normal;font-weight:normal;font-size:15px;font-family:Helvetica;writing-mode:lr-tb;fill:#000000;fill-opacity:1;fill-rule:nonzero;stroke:none"
         x="0 8.3422852 11.674805"
         y="0"
         sodipodi:role="line"
         id="tspan46">div</tspan></text>
    <path
       id="path48"
       d="m 526.01001,100 h 80 v 30 h -80 z"
       style="fill:#ffffff;fill-opacity:1;fill-rule:nonzero;stroke:#000000;stroke-width:1;stroke-linecap:butt;stroke-linejoin:miter;stroke-miterlimit:10;stroke-dasharray:none;stroke-opacity:1"
       transform="matrix(0.95675961,0,0,0.95675961,0.4783798,0.4783798)"
       clip-path="url(#clipPath49)" />
    <text
       id="text49"
       xml:space="preserve"
       transform="matrix(0.95676921,0,0,0.95676921,523.17336,115.76907)"
       clip-path="url(#clipPath50)"><tspan
         style="font-variant:normal;font-weight:normal;font-size:15px;font-family:Helvetica;writing-mode:lr-tb;fill:#000000;fill-opacity:1;fill-rule:nonzero;stroke:none"
         x="0 4.1674805 12.509766 20.852051 25.019531 33.361816"
         y="0"
         sodipodi:role="line"
         id="tspan49">footer</tspan></text>
    <text
       id="text50"
       xml:space="preserve"
       transform="matrix(0.95676921,0,0,0.95676921,429.11099,15.308307)"
       clip-path="url(#clipPath51)"><tspan
         style="font-variant:normal;font-weight:700;font-size:15px;font-family:Helvetica;writing-mode:lr-tb;fill:#000000;fill-opacity:1;fill-rule:nonzero;stroke:none"
         x="0 10.83252 22.5"
         y="0"
         sodipodi:role="line"
         id="tspan50">DOM</tspan></text>
    <path
       id="path52"
       d="m 406,200 v 43.63"
       style="fill:none;stroke:#000000;stroke-width:1;stroke-linecap:butt;stroke-linejoin:miter;stroke-miterlimit:10;stroke-dasharray:none;stroke-opacity:1"
       transform="matrix(0.95675961,0,0,0.95675961,0.4783798,0.4783798)"
       clip-path="url(#clipPath53)" />
    <path
       id="path54"
       d="m 406,248.88 -3.5,-7 3.5,1.75 3.5,-1.75 z"
       style="fill:#000000;fill-opacity:1;fill-rule:nonzero;stroke:#000000;stroke-width:1;stroke-linecap:butt;stroke-linejoin:miter;stroke-miterlimit:10;stroke-dasharray:none;stroke-opacity:1"
       transform="matrix(0.95675961,0,0,0.95675961,0.4783798,0.4783798)"
       clip-path="url(#clipPath55)" />
    <path
       id="path56"
       d="m 366,170 h 80 v 30 h -80 z"
       style="fill:#ffffff;fill-opacity:1;fill-rule:nonzero;stroke:#000000;stroke-width:1;stroke-linecap:butt;stroke-linejoin:miter;stroke-miterlimit:10;stroke-dasharray:none;stroke-opacity:1"
       transform="matrix(0.95675961,0,0,0.95675961,0.4783798,0.4783798)"
       clip-path="url(#clipPath57)" />
    <text
       id="text57"
       xml:space="preserve"
       transform="matrix(0.95676921,0,0,0.95676921,379.26929,182.74292)"
       clip-path="url(#clipPath58)"><tspan
         style="font-variant:normal;font-weight:normal;font-size:15px;font-family:Helvetica;writing-mode:lr-tb;fill:#000000;fill-opacity:1;fill-rule:nonzero;stroke:none"
         x="0 8.3422852 11.674805"
         y="0"
         sodipodi:role="line"
         id="tspan57">div</tspan></text>
    <path
       id="path59"
       d="m 526.01001,200 v 13.63"
       style="fill:none;stroke:#000000;stroke-width:1;stroke-linecap:butt;stroke-linejoin:miter;stroke-miterlimit:10;stroke-dasharray:none;stroke-opacity:1"
       transform="matrix(0.95675961,0,0,0.95675961,0.4783798,0.4783798)"
       clip-path="url(#clipPath60)" />
    <path
       id="path61"
       d="m 526.01001,218.88 -3.5,-7 3.5,1.75 3.5,-1.75 z"
       style="fill:#000000;fill-opacity:1;fill-rule:nonzero;stroke:#000000;stroke-width:1;stroke-linecap:butt;stroke-linejoin:miter;stroke-miterlimit:10;stroke-dasharray:none;stroke-opacity:1"
       transform="matrix(0.95675961,0,0,0.95675961,0.4783798,0.4783798)"
       clip-path="url(#clipPath62)" />
    <path
       id="path63"
       d="m 486,170 h 80 v 30 h -80 z"
       style="fill:#ffffff;fill-opacity:1;fill-rule:nonzero;stroke:#000000;stroke-width:1;stroke-linecap:butt;stroke-linejoin:miter;stroke-miterlimit:10;stroke-dasharray:none;stroke-opacity:1"
       transform="matrix(0.95675961,0,0,0.95675961,0.4783798,0.4783798)"
       clip-path="url(#clipPath64)" />
    <text
       id="text64"
       xml:space="preserve"
       transform="matrix(0.95676921,0,0,0.95676921,497.66948,182.74292)"
       clip-path="url(#clipPath65)"><tspan
         style="font-variant:normal;font-weight:normal;font-size:15px;font-family:Helvetica;writing-mode:lr-tb;fill:#000000;fill-opacity:1;fill-rule:nonzero;stroke:none"
         x="0 8.3422852"
         y="0"
         sodipodi:role="line"
         id="tspan64">ul</tspan></text>
    <path
       id="path66"
       d="m 486,220 h 80 v 30 h -80 z"
       style="fill:#ffffff;fill-opacity:1;fill-rule:nonzero;stroke:#000000;stroke-width:1;stroke-linecap:butt;stroke-linejoin:miter;stroke-miterlimit:10;stroke-dasharray:none;stroke-opacity:1"
       transform="matrix(0.95675961,0,0,0.95675961,0.4783798,0.4783798)"
       clip-path="url(#clipPath67)" />
    <text
       id="text67"
       xml:space="preserve"
       transform="matrix(0.95676921,0,0,0.95676921,500.06141,230.58138)"
       clip-path="url(#clipPath68)"><tspan
         style="font-variant:normal;font-weight:normal;font-size:15px;font-family:Helvetica;writing-mode:lr-tb;fill:#000000;fill-opacity:1;fill-rule:nonzero;stroke:none"
         x="0 3.3325195"
         y="0"
         sodipodi:role="line"
         id="tspan67">li</tspan></text>
    <path
       id="path69"
       d="m 406,280 v 20 h -60 v 13.64001"
       style="fill:none;stroke:#000000;stroke-width:1;stroke-linecap:butt;stroke-linejoin:miter;stroke-miterlimit:10;stroke-dasharray:none;stroke-opacity:1"
       transform="matrix(0.95675961,0,0,0.95675961,0.4783798,0.4783798)"
       clip-path="url(#clipPath70)" />
    <path
       id="path71"
       d="m 346,318.89001 -3.5,-7 3.5,1.75 3.5,-1.75 z"
       style="fill:#000000;fill-opacity:1;fill-rule:nonzero;stroke:#000000;stroke-width:1;stroke-linecap:butt;stroke-linejoin:miter;stroke-miterlimit:10;stroke-dasharray:none;stroke-opacity:1"
       transform="matrix(0.95675961,0,0,0.95675961,0.4783798,0.4783798)"
       clip-path="url(#clipPath72)" />
    <path
       id="path73"
       d="m 406,280 v 20 h 60 v 13.64001"
       style="fill:none;stroke:#000000;stroke-width:1;stroke-linecap:butt;stroke-linejoin:miter;stroke-miterlimit:10;stroke-dasharray:none;stroke-opacity:1"
       transform="matrix(0.95675961,0,0,0.95675961,0.4783798,0.4783798)"
       clip-path="url(#clipPath74)" />
    <path
       id="path75"
       d="m 466,318.89001 -3.5,-7 3.5,1.75 3.5,-1.75 z"
       style="fill:#000000;fill-opacity:1;fill-rule:nonzero;stroke:#000000;stroke-width:1;stroke-linecap:butt;stroke-linejoin:miter;stroke-miterlimit:10;stroke-dasharray:none;stroke-opacity:1"
       transform="matrix(0.95675961,0,0,0.95675961,0.4783798,0.4783798)"
       clip-path="url(#clipPath76)" />
    <path
       id="path77"
       d="m 366,250 h 80 v 30 h -80 z"
       style="fill:#ffffff;fill-opacity:1;fill-rule:nonzero;stroke:#000000;stroke-width:1;stroke-linecap:butt;stroke-linejoin:miter;stroke-miterlimit:10;stroke-dasharray:none;stroke-opacity:1"
       transform="matrix(0.95675961,0,0,0.95675961,0.4783798,0.4783798)"
       clip-path="url(#clipPath78)" />
    <text
       id="text78"
       xml:space="preserve"
       transform="matrix(0.95676921,0,0,0.95676921,374.09676,259.28446)"
       clip-path="url(#clipPath79)"><tspan
         style="font-variant:normal;font-weight:normal;font-size:15px;font-family:Helvetica;writing-mode:lr-tb;fill:#000000;fill-opacity:1;fill-rule:nonzero;stroke:none"
         x="0 4.1674805 12.509766 17.504883"
         y="0"
         sodipodi:role="line"
         id="tspan78">form</tspan></text>
    <path
       id="path80"
       d="m 306,320 h 80 v 30 h -80 z"
       style="fill:#ffffff;fill-opacity:1;fill-rule:nonzero;stroke:#000000;stroke-width:1;stroke-linecap:butt;stroke-linejoin:miter;stroke-miterlimit:10;stroke-dasharray:none;stroke-opacity:1"
       transform="matrix(0.95675961,0,0,0.95675961,0.4783798,0.4783798)"
       clip-path="url(#clipPath81)" />
    <text
       id="text81"
       xml:space="preserve"
       transform="matrix(0.95676921,0,0,0.95676921,315.86839,326.2583)"
       clip-path="url(#clipPath82)"><tspan
         style="font-variant:normal;font-weight:normal;font-size:15px;font-family:Helvetica;writing-mode:lr-tb;fill:#000000;fill-opacity:1;fill-rule:nonzero;stroke:none"
         x="0 3.3325195 11.674805 20.01709 28.359375"
         y="0"
         sodipodi:role="line"
         id="tspan81">label</tspan></text>
    <path
       id="path83"
       d="m 426,320 h 80 v 30 h -80 z"
       style="fill:#ffffff;fill-opacity:1;fill-rule:nonzero;stroke:#000000;stroke-width:1;stroke-linecap:butt;stroke-linejoin:miter;stroke-miterlimit:10;stroke-dasharray:none;stroke-opacity:1"
       transform="matrix(0.95675961,0,0,0.95675961,0.4783798,0.4783798)"
       clip-path="url(#clipPath84)" />
    <text
       id="text84"
       xml:space="preserve"
       transform="matrix(0.95676921,0,0,0.95676921,430.29201,326.2583)"
       clip-path="url(#clipPath85)"><tspan
         style="font-variant:normal;font-weight:normal;font-size:15px;font-family:Helvetica;writing-mode:lr-tb;fill:#000000;fill-opacity:1;fill-rule:nonzero;stroke:none"
         x="0 3.3325195 11.674805 20.01709 28.359375"
         y="0"
         sodipodi:role="line"
         id="tspan84">input</tspan></text>
  </g>
</svg>
