<?xml version="1.0" encoding="UTF-8" standalone="no"?>
<!-- Created with Inkscape (http://www.inkscape.org/) -->

<svg
   version="1.1"
   id="svg1"
   width="421.44"
   height="222.71999"
   viewBox="0 0 421.44 222.71999"
   sodipodi:docname="ts-7.pdf"
   xmlns:inkscape="http://www.inkscape.org/namespaces/inkscape"
   xmlns:sodipodi="http://sodipodi.sourceforge.net/DTD/sodipodi-0.dtd"
   xmlns="http://www.w3.org/2000/svg"
   xmlns:svg="http://www.w3.org/2000/svg">
  <defs
     id="defs1">
    <clipPath
       clipPathUnits="userSpaceOnUse"
       id="clipPath2">
      <path
         d="M 0,0 H 1316.6666 V 695.65381 H 0 Z"
         transform="scale(0.33493672)"
         clip-rule="evenodd"
         id="path2" />
    </clipPath>
    <clipPath
       clipPathUnits="userSpaceOnUse"
       id="clipPath4">
      <path
         d="M 0,0 H 1316.6666 V 686.6969 H 0 Z"
         transform="matrix(0.33493672,0,0,0.33493672,-0.50000001,-0.50000001)"
         clip-rule="evenodd"
         id="path4" />
    </clipPath>
    <clipPath
       clipPathUnits="userSpaceOnUse"
       id="clipPath5">
      <path
         d="M 0,0 H 1316.6666 V 686.6969 H 0 Z"
         transform="matrix(0.33493338,0,0,0.33493338,-161.34375,-51)"
         clip-rule="evenodd"
         id="path5" />
    </clipPath>
    <clipPath
       clipPathUnits="userSpaceOnUse"
       id="clipPath7">
      <path
         d="M 0,0 H 1316.6666 V 686.6969 H 0 Z"
         transform="matrix(0.33493672,0,0,0.33493672,-0.50000001,-0.50000001)"
         clip-rule="evenodd"
         id="path7" />
    </clipPath>
    <clipPath
       clipPathUnits="userSpaceOnUse"
       id="clipPath8">
      <path
         d="M 0,0 H 1316.6666 V 686.6969 H 0 Z"
         transform="matrix(0.33493338,0,0,0.33493338,-91.59375,-91)"
         clip-rule="evenodd"
         id="path8" />
    </clipPath>
    <clipPath
       clipPathUnits="userSpaceOnUse"
       id="clipPath10">
      <path
         d="M 0,0 H 1316.6666 V 686.6969 H 0 Z"
         transform="matrix(0.33493672,0,0,0.33493672,-0.50000001,-0.50000001)"
         clip-rule="evenodd"
         id="path10" />
    </clipPath>
    <clipPath
       clipPathUnits="userSpaceOnUse"
       id="clipPath11">
      <path
         d="M 0,0 H 1316.6666 V 686.6969 H 0 Z"
         transform="matrix(0.33493338,0,0,0.33493338,-56.53125,-131)"
         clip-rule="evenodd"
         id="path11" />
    </clipPath>
    <clipPath
       clipPathUnits="userSpaceOnUse"
       id="clipPath13">
      <path
         d="M 0,0 H 1316.6666 V 686.6969 H 0 Z"
         transform="matrix(0.33493672,0,0,0.33493672,-0.50000001,-0.50000001)"
         clip-rule="evenodd"
         id="path13" />
    </clipPath>
    <clipPath
       clipPathUnits="userSpaceOnUse"
       id="clipPath14">
      <path
         d="M 0,0 H 1316.6666 V 686.6969 H 0 Z"
         transform="matrix(0.33493338,0,0,0.33493338,-20.78125,-171)"
         clip-rule="evenodd"
         id="path14" />
    </clipPath>
    <clipPath
       clipPathUnits="userSpaceOnUse"
       id="clipPath16">
      <path
         d="M 0,0 H 1316.6666 V 686.6969 H 0 Z"
         transform="matrix(0.33493672,0,0,0.33493672,-0.50000001,-0.50000001)"
         clip-rule="evenodd"
         id="path16" />
    </clipPath>
    <clipPath
       clipPathUnits="userSpaceOnUse"
       id="clipPath17">
      <path
         d="M 0,0 H 1316.6666 V 686.6969 H 0 Z"
         transform="matrix(0.33493338,0,0,0.33493338,-79.59375,-211)"
         clip-rule="evenodd"
         id="path17" />
    </clipPath>
    <clipPath
       clipPathUnits="userSpaceOnUse"
       id="clipPath19">
      <path
         d="M 0,0 H 1316.6666 V 686.6969 H 0 Z"
         transform="matrix(0.33493672,0,0,0.33493672,-0.50000001,-0.50000001)"
         clip-rule="evenodd"
         id="path19" />
    </clipPath>
    <clipPath
       clipPathUnits="userSpaceOnUse"
       id="clipPath21">
      <path
         d="M 0,0 H 1316.6666 V 686.6969 H 0 Z"
         transform="matrix(0.33493672,0,0,0.33493672,-0.50000001,-0.50000001)"
         clip-rule="evenodd"
         id="path21" />
    </clipPath>
    <clipPath
       clipPathUnits="userSpaceOnUse"
       id="clipPath22">
      <path
         d="M 0,0 H 1316.6666 V 686.6969 H 0 Z"
         transform="matrix(0.33493338,0,0,0.33493338,-158.53125,-16)"
         clip-rule="evenodd"
         id="path22" />
    </clipPath>
  </defs>
  <sodipodi:namedview
     id="namedview1"
     pagecolor="#ffffff"
     bordercolor="#000000"
     borderopacity="0.25"
     inkscape:showpageshadow="2"
     inkscape:pageopacity="0.0"
     inkscape:pagecheckerboard="0"
     inkscape:deskcolor="#d1d1d1">
    <inkscape:page
       x="0"
       y="0"
       inkscape:label="1"
       id="page1"
       width="421.44"
       height="222.71999"
       margin="0"
       bleed="0" />
  </sodipodi:namedview>
  <g
     id="g1"
     inkscape:groupmode="layer"
     inkscape:label="1">
    <path
       id="path1"
       d="M 0,0 H 441 V 233 H 0 Z"
       style="fill:#ffffff;fill-opacity:1;fill-rule:nonzero;stroke:none"
       transform="scale(0.95540431)"
       clip-path="url(#clipPath2)" />
    <path
       id="path3"
       d="M 18,30 H 438 V 60 H 18 Z"
       style="fill:#ffffff;fill-opacity:1;fill-rule:nonzero;stroke:#000000;stroke-width:1;stroke-linecap:butt;stroke-linejoin:miter;stroke-miterlimit:10;stroke-dasharray:none;stroke-opacity:1"
       transform="matrix(0.95540431,0,0,0.95540431,0.47770216,0.47770216)"
       clip-path="url(#clipPath4)" />
    <text
       id="text4"
       xml:space="preserve"
       transform="matrix(0.95541385,0,0,0.95541385,154.15005,48.726106)"
       clip-path="url(#clipPath5)"><tspan
         style="font-variant:normal;font-weight:normal;font-size:15px;font-family:Helvetica;writing-mode:lr-tb;fill:#000000;fill-opacity:1;fill-rule:nonzero;stroke:none"
         x="0 10.83252 19.174805 22.507324 25.839844 30.007324 32.871094 37.866211 46.208496 54.550781 62.893066 71.235352 76.230469 79.094238 83.261719 95.756836 104.09912 108.2666 116.60889 124.95117"
         y="0"
         sodipodi:role="line"
         id="tspan4">Call 'render' method</tspan></text>
    <path
       id="path6"
       d="m 18,70 h 420 v 30 H 18 Z"
       style="fill:#ffffff;fill-opacity:1;fill-rule:nonzero;stroke:#000000;stroke-width:1;stroke-linecap:butt;stroke-linejoin:miter;stroke-miterlimit:10;stroke-dasharray:none;stroke-opacity:1"
       transform="matrix(0.95540431,0,0,0.95540431,0.47770216,0.47770216)"
       clip-path="url(#clipPath7)" />
    <text
       id="text7"
       xml:space="preserve"
       transform="matrix(0.95541385,0,0,0.95541385,87.509937,86.94266)"
       clip-path="url(#clipPath8)"><tspan
         style="font-variant:normal;font-weight:normal;font-size:15px;font-family:Helvetica;writing-mode:lr-tb;fill:#000000;fill-opacity:1;fill-rule:nonzero;stroke:none"
         x="0 10.83252 19.174805 27.51709 35.859375 44.20166 49.196777 53.364258 60.864258 69.206543 72.539062 75.871582 83.371582 87.539062 90.402832 94.570312 102.9126 115.40771 123.75 127.08252 135.4248 139.59229 147.93457 150.79834 154.96582 159.1333 167.47559 175.81787 179.98535 187.48535 191.65283 202.48535 211.64795 224.14307 231.93604 236.10352 243.60352 247.771 252.76611 256.09863 264.44092"
         y="0"
         sodipodi:role="line"
         id="tspan7">Render calls 'template', gets HTML string</tspan></text>
    <path
       id="path9"
       d="m 18,110 h 420 v 30 H 18 Z"
       style="fill:#ffffff;fill-opacity:1;fill-rule:nonzero;stroke:#000000;stroke-width:1;stroke-linecap:butt;stroke-linejoin:miter;stroke-miterlimit:10;stroke-dasharray:none;stroke-opacity:1"
       transform="matrix(0.95540431,0,0,0.95540431,0.47770216,0.47770216)"
       clip-path="url(#clipPath10)" />
    <text
       id="text10"
       xml:space="preserve"
       transform="matrix(0.95541385,0,0,0.95541385,54.010739,125.15921)"
       clip-path="url(#clipPath11)"><tspan
         style="font-variant:normal;font-weight:normal;font-size:15px;font-family:Helvetica;writing-mode:lr-tb;fill:#000000;fill-opacity:1;fill-rule:nonzero;stroke:none"
         x="0 10.83252 19.174805 27.51709 35.859375 44.20166 49.196777 53.364258 56.696777 65.039062 72.539062 80.881348 85.876465 90.043945 97.543945 101.71143 112.54395 121.70654 134.20166 141.99463 146.16211 153.66211 157.82959 162.82471 166.15723 174.49951 182.8418 187.00928 190.3418 198.68408 202.85156 211.19385 215.36133 223.70361 227.87109 232.03857 240.38086 252.87598 261.21826 264.55078 272.89307 277.06055 285.40283 289.57031 297.9126 301.24512 309.5874 322.08252 330.4248 338.76709"
         y="0"
         sodipodi:role="line"
         id="tspan10">Render inserts HTML string into a template element</tspan></text>
    <path
       id="path12"
       d="m 18,150 h 420 v 30 H 18 Z"
       style="fill:#dae8fc;fill-opacity:1;fill-rule:nonzero;stroke:#6c8ebf;stroke-width:1;stroke-linecap:butt;stroke-linejoin:miter;stroke-miterlimit:10;stroke-dasharray:none;stroke-opacity:1"
       transform="matrix(0.95540431,0,0,0.95540431,0.47770216,0.47770216)"
       clip-path="url(#clipPath13)" />
    <text
       id="text13"
       xml:space="preserve"
       transform="matrix(0.95541385,0,0,0.95541385,19.854694,163.37577)"
       clip-path="url(#clipPath14)"><tspan
         style="font-variant:normal;font-weight:normal;font-size:15px;font-family:Helvetica;writing-mode:lr-tb;fill:#000000;fill-opacity:1;fill-rule:nonzero;stroke:none"
         x="0 13.894043 22.236328 26.403809 33.903809 42.246094 50.588379 58.930664 62.263184 70.605469 74.772949 82.272949 90.615234 103.11035 111.45264 119.79492 128.13721 138.96973 143.13721 151.47949 154.81201 163.1543 171.49658 175.66406 184.00635 191.50635 199.84863 208.19092 212.3584 216.52588 224.86816 233.21045 241.55273 249.89502 253.22754 261.56982 266.56494 274.06494 278.23242 282.3999 290.74219 294.90967 299.07715 307.41943 315.76172 319.9292 330.76172 339.92432 352.41943 360.2124 364.37988 367.7124 376.05469 380.22217 384.38965 392.73193 401.07422 406.06934"
         y="0"
         sodipodi:role="line"
         id="tspan13">We should somehow bind event handlers to the HTML in there</tspan></text>
    <path
       id="path15"
       d="m 18,190 h 420 v 30 H 18 Z"
       style="fill:#ffffff;fill-opacity:1;fill-rule:nonzero;stroke:#000000;stroke-width:1;stroke-linecap:butt;stroke-linejoin:miter;stroke-miterlimit:10;stroke-dasharray:none;stroke-opacity:1"
       transform="matrix(0.95540431,0,0,0.95540431,0.47770216,0.47770216)"
       clip-path="url(#clipPath16)" />
    <text
       id="text16"
       xml:space="preserve"
       transform="matrix(0.95541385,0,0,0.95541385,76.044971,201.59232)"
       clip-path="url(#clipPath17)"><tspan
         style="font-variant:normal;font-weight:normal;font-size:15px;font-family:Helvetica;writing-mode:lr-tb;fill:#000000;fill-opacity:1;fill-rule:nonzero;stroke:none"
         x="0 10.83252 19.174805 27.51709 35.859375 44.20166 49.196777 53.364258 56.696777 65.039062 72.539062 80.881348 85.876465 90.043945 97.543945 101.71143 109.21143 117.55371 125.896 130.06348 138.40576 146.74805 150.91553 155.08301 163.42529 167.59277 171.76025 175.92773 184.27002 196.76514 205.10742 208.43994 216.78223 220.94971 229.29199 233.45947 236.79199 245.13428 249.30176 257.64404 261.81152 272.64404 284.31152"
         y="0"
         sodipodi:role="line"
         id="tspan16">Render inserts content of template into DOM</tspan></text>
    <path
       id="path18"
       d="M 8,30 V 213.63"
       style="fill:none;stroke:#000000;stroke-width:1;stroke-linecap:butt;stroke-linejoin:miter;stroke-miterlimit:10;stroke-dasharray:none;stroke-opacity:1"
       transform="matrix(0.95540431,0,0,0.95540431,0.47770216,0.47770216)"
       clip-path="url(#clipPath19)" />
    <path
       id="path20"
       d="m 8,218.88 -3.5,-7 3.5,1.75 3.5,-1.75 z"
       style="fill:#000000;fill-opacity:1;fill-rule:nonzero;stroke:#000000;stroke-width:1;stroke-linecap:butt;stroke-linejoin:miter;stroke-miterlimit:10;stroke-dasharray:none;stroke-opacity:1"
       transform="matrix(0.95540431,0,0,0.95540431,0.47770216,0.47770216)"
       clip-path="url(#clipPath21)" />
    <text
       id="text21"
       xml:space="preserve"
       transform="matrix(0.95541385,0,0,0.95541385,151.46295,15.286622)"
       clip-path="url(#clipPath22)"><tspan
         style="font-variant:normal;font-weight:700;font-size:15px;font-family:Helvetica;writing-mode:lr-tb;fill:#000000;fill-opacity:1;fill-rule:nonzero;stroke:none"
         x="0 10.83252 19.174805 28.337402 37.5 45.842285 51.679688 55.847168 65.009766 74.172363 78.339844 87.23877 91.40625 104.74365 113.08594 117.25342 121.4209 130.5835"
         y="0"
         sodipodi:role="line"
         id="tspan21">Rendering Timeline</tspan></text>
  </g>
</svg>
