<?xml version="1.0" encoding="UTF-8" standalone="no"?>
<!-- Created with Inkscape (http://www.inkscape.org/) -->

<svg
   version="1.1"
   id="svg1"
   width="366.72"
   height="216"
   viewBox="0 0 366.72 216"
   sodipodi:docname="ts-8.pdf"
   xmlns:inkscape="http://www.inkscape.org/namespaces/inkscape"
   xmlns:sodipodi="http://sodipodi.sourceforge.net/DTD/sodipodi-0.dtd"
   xmlns="http://www.w3.org/2000/svg"
   xmlns:svg="http://www.w3.org/2000/svg">
  <defs
     id="defs1">
    <clipPath
       clipPathUnits="userSpaceOnUse"
       id="clipPath2">
      <path
         d="M 0,0 H 1145.8333 V 673.13965 H 0 Z"
         transform="scale(0.33425455)"
         clip-rule="evenodd"
         id="path2" />
    </clipPath>
    <clipPath
       clipPathUnits="userSpaceOnUse"
       id="clipPath4">
      <path
         d="M 0,0 H 1145.8333 V 670.14795 H 0 Z"
         transform="matrix(0.33425455,0,0,0.33425455,-0.49999999,-0.49999999)"
         clip-rule="evenodd"
         id="path4" />
    </clipPath>
    <clipPath
       clipPathUnits="userSpaceOnUse"
       id="clipPath6">
      <path
         d="M 0,0 H 1145.8333 V 670.14795 H 0 Z"
         transform="matrix(0.33425455,0,0,0.33425455,-0.49999999,-0.49999999)"
         clip-rule="evenodd"
         id="path6" />
    </clipPath>
    <clipPath
       clipPathUnits="userSpaceOnUse"
       id="clipPath8">
      <path
         d="M 0,0 H 1145.8333 V 670.14795 H 0 Z"
         transform="matrix(0.33425455,0,0,0.33425455,-0.49999999,-0.49999999)"
         clip-rule="evenodd"
         id="path8" />
    </clipPath>
    <clipPath
       clipPathUnits="userSpaceOnUse"
       id="clipPath10">
      <path
         d="M 0,0 H 1145.8333 V 670.14795 H 0 Z"
         transform="matrix(0.33425455,0,0,0.33425455,-0.49999999,-0.49999999)"
         clip-rule="evenodd"
         id="path10" />
    </clipPath>
    <clipPath
       clipPathUnits="userSpaceOnUse"
       id="clipPath12">
      <path
         d="M 0,0 H 1145.8333 V 670.14795 H 0 Z"
         transform="matrix(0.33425455,0,0,0.33425455,-0.49999999,-0.49999999)"
         clip-rule="evenodd"
         id="path12" />
    </clipPath>
    <clipPath
       clipPathUnits="userSpaceOnUse"
       id="clipPath13">
      <path
         d="M 0,0 H 1145.8333 V 670.14795 H 0 Z"
         transform="matrix(0.3342512,0,0,0.3342512,-86,-142)"
         clip-rule="evenodd"
         id="path13" />
    </clipPath>
    <clipPath
       clipPathUnits="userSpaceOnUse"
       id="clipPath15">
      <path
         d="M 0,0 H 1145.8333 V 670.14795 H 0 Z"
         transform="matrix(0.33425455,0,0,0.33425455,-0.49999999,-0.49999999)"
         clip-rule="evenodd"
         id="path15" />
    </clipPath>
    <clipPath
       clipPathUnits="userSpaceOnUse"
       id="clipPath16">
      <path
         d="M 0,0 H 1145.8333 V 670.14795 H 0 Z"
         transform="matrix(0.3342512,0,0,0.3342512,-25.140624,-212)"
         clip-rule="evenodd"
         id="path16" />
    </clipPath>
    <clipPath
       clipPathUnits="userSpaceOnUse"
       id="clipPath18">
      <path
         d="M 0,0 H 1145.8333 V 670.14795 H 0 Z"
         transform="matrix(0.33425455,0,0,0.33425455,-0.49999999,-0.49999999)"
         clip-rule="evenodd"
         id="path18" />
    </clipPath>
    <clipPath
       clipPathUnits="userSpaceOnUse"
       id="clipPath19">
      <path
         d="M 0,0 H 1145.8333 V 670.14795 H 0 Z"
         transform="matrix(0.3342512,0,0,0.3342512,-144.73438,-212)"
         clip-rule="evenodd"
         id="path19" />
    </clipPath>
    <clipPath
       clipPathUnits="userSpaceOnUse"
       id="clipPath21">
      <path
         d="M 0,0 H 1145.8333 V 670.14795 H 0 Z"
         transform="matrix(0.33425455,0,0,0.33425455,-0.49999999,-0.49999999)"
         clip-rule="evenodd"
         id="path21" />
    </clipPath>
    <clipPath
       clipPathUnits="userSpaceOnUse"
       id="clipPath23">
      <path
         d="M 0,0 H 1145.8333 V 670.14795 H 0 Z"
         transform="matrix(0.33425455,0,0,0.33425455,-0.49999999,-0.49999999)"
         clip-rule="evenodd"
         id="path23" />
    </clipPath>
    <clipPath
       clipPathUnits="userSpaceOnUse"
       id="clipPath25">
      <path
         d="M 0,0 H 1145.8333 V 670.14795 H 0 Z"
         transform="matrix(0.33425455,0,0,0.33425455,-0.49999999,-0.49999999)"
         clip-rule="evenodd"
         id="path25" />
    </clipPath>
    <clipPath
       clipPathUnits="userSpaceOnUse"
       id="clipPath26">
      <path
         d="M 0,0 H 1145.8333 V 670.14795 H 0 Z"
         transform="matrix(0.3342512,0,0,0.3342512,-40.96875,-22)"
         clip-rule="evenodd"
         id="path26" />
    </clipPath>
    <clipPath
       clipPathUnits="userSpaceOnUse"
       id="clipPath28">
      <path
         d="M 0,0 H 1145.8333 V 670.14795 H 0 Z"
         transform="matrix(0.33425455,0,0,0.33425455,-0.49999999,-0.49999999)"
         clip-rule="evenodd"
         id="path28" />
    </clipPath>
    <clipPath
       clipPathUnits="userSpaceOnUse"
       id="clipPath30">
      <path
         d="M 0,0 H 1145.8333 V 670.14795 H 0 Z"
         transform="matrix(0.33425455,0,0,0.33425455,-0.49999999,-0.49999999)"
         clip-rule="evenodd"
         id="path30" />
    </clipPath>
    <clipPath
       clipPathUnits="userSpaceOnUse"
       id="clipPath32">
      <path
         d="M 0,0 H 1145.8333 V 670.14795 H 0 Z"
         transform="matrix(0.33425455,0,0,0.33425455,-0.49999999,-0.49999999)"
         clip-rule="evenodd"
         id="path32" />
    </clipPath>
    <clipPath
       clipPathUnits="userSpaceOnUse"
       id="clipPath33">
      <path
         d="M 0,0 H 1145.8333 V 670.14795 H 0 Z"
         transform="matrix(0.3342512,0,0,0.3342512,-76.390625,-82)"
         clip-rule="evenodd"
         id="path33" />
    </clipPath>
    <clipPath
       clipPathUnits="userSpaceOnUse"
       id="clipPath35">
      <path
         d="M 0,0 H 1145.8333 V 670.14795 H 0 Z"
         transform="matrix(-0.33425455,0,0,-0.33425455,442.49998,342.50001)"
         clip-rule="evenodd"
         id="path35" />
    </clipPath>
    <clipPath
       clipPathUnits="userSpaceOnUse"
       id="clipPath36">
      <path
         d="M 0,0 H 1145.8333 V 670.14795 H 0 Z"
         transform="matrix(0.3342512,0,0,0.3342512,-233,-168)"
         clip-rule="evenodd"
         id="path36" />
    </clipPath>
    <clipPath
       clipPathUnits="userSpaceOnUse"
       id="clipPath37">
      <path
         d="M 0,0 H 1145.8333 V 670.14795 H 0 Z"
         transform="matrix(0.3342512,0,0,0.3342512,-233,-186)"
         clip-rule="evenodd"
         id="path37" />
    </clipPath>
    <clipPath
       clipPathUnits="userSpaceOnUse"
       id="clipPath39">
      <path
         d="M 0,0 H 1145.8333 V 670.14795 H 0 Z"
         transform="matrix(-0.33425455,0,0,-0.33425455,322.50001,152.5)"
         clip-rule="evenodd"
         id="path39" />
    </clipPath>
    <clipPath
       clipPathUnits="userSpaceOnUse"
       id="clipPath40">
      <path
         d="M 0,0 H 1145.8333 V 670.14795 H 0 Z"
         transform="matrix(0.3342512,0,0,0.3342512,-173,-73)"
         clip-rule="evenodd"
         id="path40" />
    </clipPath>
    <clipPath
       clipPathUnits="userSpaceOnUse"
       id="clipPath41">
      <path
         d="M 0,0 H 1145.8333 V 670.14795 H 0 Z"
         transform="matrix(0.3342512,0,0,0.3342512,-173,-91)"
         clip-rule="evenodd"
         id="path41" />
    </clipPath>
  </defs>
  <sodipodi:namedview
     id="namedview1"
     pagecolor="#ffffff"
     bordercolor="#000000"
     borderopacity="0.25"
     inkscape:showpageshadow="2"
     inkscape:pageopacity="0.0"
     inkscape:pagecheckerboard="0"
     inkscape:deskcolor="#d1d1d1">
    <inkscape:page
       x="0"
       y="0"
       inkscape:label="1"
       id="page1"
       width="366.72"
       height="216"
       margin="0"
       bleed="0" />
  </sodipodi:namedview>
  <g
     id="g1"
     inkscape:groupmode="layer"
     inkscape:label="1">
    <path
       id="path1"
       d="M 0,0 H 383 V 225 H 0 Z"
       style="fill:#ffffff;fill-opacity:1;fill-rule:nonzero;stroke:none"
       transform="scale(0.95735417)"
       clip-path="url(#clipPath2)" />
    <path
       id="path3"
       d="m 101,151 v 20 H 41 v 13.63"
       style="fill:none;stroke:#000000;stroke-width:1;stroke-linecap:butt;stroke-linejoin:miter;stroke-miterlimit:10;stroke-dasharray:none;stroke-opacity:1"
       transform="matrix(0.95735417,0,0,0.95735417,0.47867708,0.47867708)"
       clip-path="url(#clipPath4)" />
    <path
       id="path5"
       d="m 41,189.88 -3.5,-7 3.5,1.75 3.5,-1.75 z"
       style="fill:#000000;fill-opacity:1;fill-rule:nonzero;stroke:#000000;stroke-width:1;stroke-linecap:butt;stroke-linejoin:miter;stroke-miterlimit:10;stroke-dasharray:none;stroke-opacity:1"
       transform="matrix(0.95735417,0,0,0.95735417,0.47867708,0.47867708)"
       clip-path="url(#clipPath6)" />
    <path
       id="path7"
       d="m 101,151 v 20 h 60 v 13.63"
       style="fill:none;stroke:#000000;stroke-width:1;stroke-linecap:butt;stroke-linejoin:miter;stroke-miterlimit:10;stroke-dasharray:none;stroke-opacity:1"
       transform="matrix(0.95735417,0,0,0.95735417,0.47867708,0.47867708)"
       clip-path="url(#clipPath8)" />
    <path
       id="path9"
       d="m 161,189.88 -3.5,-7 3.5,1.75 3.5,-1.75 z"
       style="fill:#000000;fill-opacity:1;fill-rule:nonzero;stroke:#000000;stroke-width:1;stroke-linecap:butt;stroke-linejoin:miter;stroke-miterlimit:10;stroke-dasharray:none;stroke-opacity:1"
       transform="matrix(0.95735417,0,0,0.95735417,0.47867708,0.47867708)"
       clip-path="url(#clipPath10)" />
    <path
       id="path11"
       d="m 61,121 h 80 v 30 H 61 Z"
       style="fill:#ffffff;fill-opacity:1;fill-rule:nonzero;stroke:#000000;stroke-width:1;stroke-linecap:butt;stroke-linejoin:miter;stroke-miterlimit:10;stroke-dasharray:none;stroke-opacity:1"
       transform="matrix(0.95735417,0,0,0.95735417,0.47867708,0.47867708)"
       clip-path="url(#clipPath12)" />
    <text
       id="text12"
       xml:space="preserve"
       transform="matrix(0.95736377,0,0,0.95736377,82.333284,135.94566)"
       clip-path="url(#clipPath13)"><tspan
         style="font-variant:normal;font-weight:normal;font-size:15px;font-family:Helvetica;writing-mode:lr-tb;fill:#000000;fill-opacity:1;fill-rule:nonzero;stroke:none"
         x="0 4.1674805 12.509766 17.504883"
         y="0"
         sodipodi:role="line"
         id="tspan12">form</tspan></text>
    <path
       id="path14"
       d="m 1,191 h 80 v 30 H 1 Z"
       style="fill:#ffffff;fill-opacity:1;fill-rule:nonzero;stroke:#000000;stroke-width:1;stroke-linecap:butt;stroke-linejoin:miter;stroke-miterlimit:10;stroke-dasharray:none;stroke-opacity:1"
       transform="matrix(0.95735417,0,0,0.95735417,0.47867708,0.47867708)"
       clip-path="url(#clipPath15)" />
    <text
       id="text15"
       xml:space="preserve"
       transform="matrix(0.95736377,0,0,0.95736377,24.068723,202.96112)"
       clip-path="url(#clipPath16)"><tspan
         style="font-variant:normal;font-weight:normal;font-size:15px;font-family:Helvetica;writing-mode:lr-tb;fill:#000000;fill-opacity:1;fill-rule:nonzero;stroke:none"
         x="0 3.3325195 11.674805 20.01709 28.359375"
         y="0"
         sodipodi:role="line"
         id="tspan15">label</tspan></text>
    <path
       id="path17"
       d="m 121,191 h 80 v 30 h -80 z"
       style="fill:#ffffff;fill-opacity:1;fill-rule:nonzero;stroke:#000000;stroke-width:1;stroke-linecap:butt;stroke-linejoin:miter;stroke-miterlimit:10;stroke-dasharray:none;stroke-opacity:1"
       transform="matrix(0.95735417,0,0,0.95735417,0.47867708,0.47867708)"
       clip-path="url(#clipPath18)" />
    <text
       id="text18"
       xml:space="preserve"
       transform="matrix(0.95736377,0,0,0.95736377,138.56345,202.96112)"
       clip-path="url(#clipPath19)"><tspan
         style="font-variant:normal;font-weight:normal;font-size:15px;font-family:Helvetica;writing-mode:lr-tb;fill:#000000;fill-opacity:1;fill-rule:nonzero;stroke:none"
         x="0 3.3325195 11.674805 20.01709 28.359375"
         y="0"
         sodipodi:role="line"
         id="tspan18">input</tspan></text>
    <path
       id="path20"
       d="M 101,31 V 51 41 54.630001"
       style="fill:none;stroke:#000000;stroke-width:1;stroke-linecap:butt;stroke-linejoin:miter;stroke-miterlimit:10;stroke-dasharray:none;stroke-opacity:1"
       transform="matrix(0.95735417,0,0,0.95735417,0.47867708,0.47867708)"
       clip-path="url(#clipPath21)" />
    <path
       id="path22"
       d="m 101,59.880001 -3.5,-7 3.5,1.75 3.5,-1.75 z"
       style="fill:#000000;fill-opacity:1;fill-rule:nonzero;stroke:#000000;stroke-width:1;stroke-linecap:butt;stroke-linejoin:miter;stroke-miterlimit:10;stroke-dasharray:none;stroke-opacity:1"
       transform="matrix(0.95735417,0,0,0.95735417,0.47867708,0.47867708)"
       clip-path="url(#clipPath23)" />
    <path
       id="path24"
       d="M 26,1 H 176 V 31 H 26 Z"
       style="fill:#ffffff;fill-opacity:1;fill-rule:nonzero;stroke:#000000;stroke-width:1;stroke-linecap:butt;stroke-linejoin:miter;stroke-miterlimit:10;stroke-dasharray:none;stroke-opacity:1"
       transform="matrix(0.95735417,0,0,0.95735417,0.47867708,0.47867708)"
       clip-path="url(#clipPath25)" />
    <text
       id="text25"
       xml:space="preserve"
       transform="matrix(0.95736377,0,0,0.95736377,39.221997,21.062003)"
       clip-path="url(#clipPath26)"><tspan
         style="font-variant:normal;font-weight:normal;font-size:15px;font-family:Helvetica;writing-mode:lr-tb;fill:#000000;fill-opacity:1;fill-rule:nonzero;stroke:none"
         x="0 7.5 15.842285 28.337402 36.679688 40.012207 48.354492 52.521973 60.864258 65.031738 75.036621 78.369141 86.711426 99.206543 107.54883 115.89111"
         y="0"
         sodipodi:role="line"
         id="tspan25">Template Element</tspan></text>
    <path
       id="path27"
       d="m 101,91 v 20 -10 13.63"
       style="fill:none;stroke:#000000;stroke-width:1;stroke-linecap:butt;stroke-linejoin:miter;stroke-miterlimit:10;stroke-dasharray:none;stroke-opacity:1"
       transform="matrix(0.95735417,0,0,0.95735417,0.47867708,0.47867708)"
       clip-path="url(#clipPath28)" />
    <path
       id="path29"
       d="m 101,119.88 -3.5,-7 3.5,1.75 3.5,-1.75 z"
       style="fill:#000000;fill-opacity:1;fill-rule:nonzero;stroke:#000000;stroke-width:1;stroke-linecap:butt;stroke-linejoin:miter;stroke-miterlimit:10;stroke-dasharray:none;stroke-opacity:1"
       transform="matrix(0.95735417,0,0,0.95735417,0.47867708,0.47867708)"
       clip-path="url(#clipPath30)" />
    <path
       id="path31"
       d="m 61,61 h 80 V 91 H 61 Z"
       style="fill:#dae8fc;fill-opacity:1;fill-rule:nonzero;stroke:#6c8ebf;stroke-width:1;stroke-linecap:butt;stroke-linejoin:miter;stroke-miterlimit:10;stroke-dasharray:none;stroke-opacity:1"
       transform="matrix(0.95735417,0,0,0.95735417,0.47867708,0.47867708)"
       clip-path="url(#clipPath32)" />
    <text
       id="text32"
       xml:space="preserve"
       transform="matrix(0.95736377,0,0,0.95736377,73.133617,78.503829)"
       clip-path="url(#clipPath33)"><tspan
         style="font-variant:normal;font-weight:normal;font-size:15px;font-family:Helvetica;writing-mode:lr-tb;fill:#000000;fill-opacity:1;fill-rule:nonzero;stroke:none"
         x="0 7.5 15.842285 24.18457 28.352051 36.694336 45.036621"
         y="0"
         sodipodi:role="line"
         id="tspan32">content</tspan></text>
    <path
       id="path34"
       d="m 231,121 h -5 c -3.33333,0 -5,3.33334 -5,10 v 30 c 0,6.66667 -1.66667,10 -5,10 h -2.5 c -1.66667,0 -0.83333,0 2.5,0 h 2.5 c 1.66667,0 2.5,3.33333 2.5,10 v 30 c 0,6.66667 1.66667,10 5,10 h 5"
       style="fill:none;stroke:#000000;stroke-width:1;stroke-linecap:butt;stroke-linejoin:miter;stroke-miterlimit:10;stroke-dasharray:none;stroke-opacity:1"
       transform="matrix(-0.95735417,0,0,-0.95735417,423.6292,327.89381)"
       clip-path="url(#clipPath35)" />
    <text
       id="text35"
       xml:space="preserve"
       transform="matrix(0.95736377,0,0,0.95736377,223.06576,160.83711)"
       clip-path="url(#clipPath36)"><tspan
         style="font-variant:normal;font-weight:normal;font-size:15px;font-family:Helvetica;writing-mode:lr-tb;fill:#000000;fill-opacity:1;fill-rule:nonzero;stroke:none"
         x="0 10.83252 19.995117 32.490234 40.283203 44.450684 55.283203 63.625488 67.792969 78.625488 86.967773 95.310059 99.477539 103.64502 107.8125"
         y="0"
         sodipodi:role="line"
         id="tspan35">HTML we want to</tspan></text>
    <text
       id="text36"
       xml:space="preserve"
       transform="matrix(0.95736377,0,0,0.95736377,223.06576,178.06966)"
       clip-path="url(#clipPath37)"><tspan
         style="font-variant:normal;font-weight:normal;font-size:15px;font-family:Helvetica;writing-mode:lr-tb;fill:#000000;fill-opacity:1;fill-rule:nonzero;stroke:none"
         x="0 7.5 15.842285 24.18457 35.01709 39.18457 42.51709 50.859375 55.026855 65.859375 77.526855"
         y="0"
         sodipodi:role="line"
         id="tspan36">show in DOM</tspan></text>
    <path
       id="path38"
       d="m 171,61 h -5 c -3.33333,0 -5,2.5 -5,7.5 v 3.75 c 0,2.5 -1.66667,3.75 -5,3.75 h -2.5 c -1.66667,0 -0.83333,0 2.5,0 h 2.5 c 1.66667,0 2.5,2.5 2.5,7.5 v 3.75 c 0,2.5 1.66667,3.75 5,3.75 h 5"
       style="fill:none;stroke:#000000;stroke-width:1;stroke-linecap:butt;stroke-linejoin:miter;stroke-miterlimit:10;stroke-dasharray:none;stroke-opacity:1"
       transform="matrix(-0.95735417,0,0,-0.95735417,308.74673,145.99651)"
       clip-path="url(#clipPath39)" />
    <text
       id="text39"
       xml:space="preserve"
       transform="matrix(0.95736377,0,0,0.95736377,165.62393,69.887555)"
       clip-path="url(#clipPath40)"><tspan
         style="font-variant:normal;font-weight:normal;font-size:15px;font-family:Helvetica;writing-mode:lr-tb;fill:#000000;fill-opacity:1;fill-rule:nonzero;stroke:none"
         x="0 10.83252 19.174805 23.342285 31.68457 36.679688 45.021973 53.364258 60.864258 69.206543 73.374023 77.541504 85.883789 90.05127"
         y="0"
         sodipodi:role="line"
         id="tspan39">Reference to a</tspan></text>
    <text
       id="text40"
       xml:space="preserve"
       transform="matrix(0.95736377,0,0,0.95736377,165.62393,87.120103)"
       clip-path="url(#clipPath41)"><tspan
         style="font-variant:normal;font-weight:normal;font-size:15px;font-family:Helvetica;writing-mode:lr-tb;fill:#000000;fill-opacity:1;fill-rule:nonzero;stroke:none"
         x="0 2.8637695 13.696289 22.038574 29.538574 37.880859 50.375977 58.718262 67.060547 71.228027 80.390625 85.385742 93.728027 102.07031 114.56543 122.90771 131.25 135.41748"
         y="0"
         sodipodi:role="line"
         id="tspan40">'DocumentFragment'</tspan></text>
  </g>
</svg>
