<?xml version="1.0" encoding="UTF-8" standalone="no"?>
<!-- Created with Inkscape (http://www.inkscape.org/) -->

<svg
   version="1.1"
   id="svg1"
   width="357.44"
   height="261.44"
   viewBox="0 0 357.44 261.44"
   sodipodi:docname="ts-9.pdf"
   xmlns:inkscape="http://www.inkscape.org/namespaces/inkscape"
   xmlns:sodipodi="http://sodipodi.sourceforge.net/DTD/sodipodi-0.dtd"
   xmlns="http://www.w3.org/2000/svg"
   xmlns:svg="http://www.w3.org/2000/svg">
  <defs
     id="defs1">
    <clipPath
       clipPathUnits="userSpaceOnUse"
       id="clipPath2">
      <path
         d="M 0,0 H 1116.6666 V 815.10693 H 0 Z"
         transform="scale(0.33492538)"
         clip-rule="evenodd"
         id="path2" />
    </clipPath>
    <clipPath
       clipPathUnits="userSpaceOnUse"
       id="clipPath4">
      <path
         d="M 0,0 H 1116.6666 V 809.13544 H 0 Z"
         transform="matrix(0.33492538,0,0,0.33492538,-0.5,-0.5)"
         clip-rule="evenodd"
         id="path4" />
    </clipPath>
    <clipPath
       clipPathUnits="userSpaceOnUse"
       id="clipPath6">
      <path
         d="M 0,0 H 1116.6666 V 809.13544 H 0 Z"
         transform="matrix(0.33492538,0,0,0.33492538,-0.5,-0.5)"
         clip-rule="evenodd"
         id="path6" />
    </clipPath>
    <clipPath
       clipPathUnits="userSpaceOnUse"
       id="clipPath8">
      <path
         d="M 0,0 H 1116.6666 V 809.13544 H 0 Z"
         transform="matrix(0.33492538,0,0,0.33492538,-0.5,-0.5)"
         clip-rule="evenodd"
         id="path8" />
    </clipPath>
    <clipPath
       clipPathUnits="userSpaceOnUse"
       id="clipPath10">
      <path
         d="M 0,0 H 1116.6666 V 809.13544 H 0 Z"
         transform="matrix(0.33492538,0,0,0.33492538,-0.5,-0.5)"
         clip-rule="evenodd"
         id="path10" />
    </clipPath>
    <clipPath
       clipPathUnits="userSpaceOnUse"
       id="clipPath12">
      <path
         d="M 0,0 H 1116.6666 V 809.13544 H 0 Z"
         transform="matrix(0.33492538,0,0,0.33492538,-0.5,-0.5)"
         clip-rule="evenodd"
         id="path12" />
    </clipPath>
    <clipPath
       clipPathUnits="userSpaceOnUse"
       id="clipPath14">
      <path
         d="M 0,0 H 1116.6666 V 809.13544 H 0 Z"
         transform="matrix(0.33492538,0,0,0.33492538,-0.5,-0.5)"
         clip-rule="evenodd"
         id="path14" />
    </clipPath>
    <clipPath
       clipPathUnits="userSpaceOnUse"
       id="clipPath15">
      <path
         d="M 0,0 H 1116.6666 V 809.13544 H 0 Z"
         transform="matrix(0.33492204,0,0,0.33492204,-176.40625,-67)"
         clip-rule="evenodd"
         id="path15" />
    </clipPath>
    <clipPath
       clipPathUnits="userSpaceOnUse"
       id="clipPath17">
      <path
         d="M 0,0 H 1116.6666 V 809.13544 H 0 Z"
         transform="matrix(0.33492538,0,0,0.33492538,-0.5,-0.5)"
         clip-rule="evenodd"
         id="path17" />
    </clipPath>
    <clipPath
       clipPathUnits="userSpaceOnUse"
       id="clipPath18">
      <path
         d="M 0,0 H 1116.6666 V 809.13544 H 0 Z"
         transform="matrix(0.33492204,0,0,0.33492204,-232.78125,-137)"
         clip-rule="evenodd"
         id="path18" />
    </clipPath>
    <clipPath
       clipPathUnits="userSpaceOnUse"
       id="clipPath19">
      <path
         d="M 0,0 H 1116.6666 V 809.13544 H 0 Z"
         transform="matrix(0.33492204,0,0,0.33492204,-142.82813,-20)"
         clip-rule="evenodd"
         id="path19" />
    </clipPath>
    <clipPath
       clipPathUnits="userSpaceOnUse"
       id="clipPath21">
      <path
         d="M 0,0 H 1116.6666 V 809.13544 H 0 Z"
         transform="matrix(0.33492538,0,0,0.33492538,-0.5,-0.5)"
         clip-rule="evenodd"
         id="path21" />
    </clipPath>
    <clipPath
       clipPathUnits="userSpaceOnUse"
       id="clipPath23">
      <path
         d="M 0,0 H 1116.6666 V 809.13544 H 0 Z"
         transform="matrix(0.33492538,0,0,0.33492538,-0.5,-0.5)"
         clip-rule="evenodd"
         id="path23" />
    </clipPath>
    <clipPath
       clipPathUnits="userSpaceOnUse"
       id="clipPath24">
      <path
         d="M 0,0 H 1116.6666 V 809.13544 H 0 Z"
         transform="matrix(0.33492204,0,0,0.33492204,-223.65625,-213)"
         clip-rule="evenodd"
         id="path24" />
    </clipPath>
    <clipPath
       clipPathUnits="userSpaceOnUse"
       id="clipPath25">
      <path
         d="M 0,0 H 1116.6666 V 809.13544 H 0 Z"
         transform="matrix(0.33492204,0,0,0.33492204,-219.375,-238)"
         clip-rule="evenodd"
         id="path25" />
    </clipPath>
    <clipPath
       clipPathUnits="userSpaceOnUse"
       id="clipPath26">
      <path
         d="M 0,0 H 1116.6666 V 809.13544 H 0 Z"
         transform="matrix(0.33492204,0,0,0.33492204,-229.48438,-263)"
         clip-rule="evenodd"
         id="path26" />
    </clipPath>
    <clipPath
       clipPathUnits="userSpaceOnUse"
       id="clipPath28">
      <path
         d="M 0,0 H 1116.6666 V 809.13544 H 0 Z"
         transform="matrix(0.33492538,0,0,0.33492538,-0.5,-0.5)"
         clip-rule="evenodd"
         id="path28" />
    </clipPath>
    <clipPath
       clipPathUnits="userSpaceOnUse"
       id="clipPath29">
      <path
         d="M 0,0 H 1116.6666 V 809.13544 H 0 Z"
         transform="matrix(0.33492204,0,0,0.33492204,-50.28125,-137)"
         clip-rule="evenodd"
         id="path29" />
    </clipPath>
    <clipPath
       clipPathUnits="userSpaceOnUse"
       id="clipPath31">
      <path
         d="M 0,0 H 1116.6666 V 809.13544 H 0 Z"
         transform="matrix(0.33492538,0,0,0.33492538,-0.5,-0.5)"
         clip-rule="evenodd"
         id="path31" />
    </clipPath>
    <clipPath
       clipPathUnits="userSpaceOnUse"
       id="clipPath33">
      <path
         d="M 0,0 H 1116.6666 V 809.13544 H 0 Z"
         transform="matrix(0.33492538,0,0,0.33492538,-0.5,-0.5)"
         clip-rule="evenodd"
         id="path33" />
    </clipPath>
    <clipPath
       clipPathUnits="userSpaceOnUse"
       id="clipPath34">
      <path
         d="M 0,0 H 1116.6666 V 809.13544 H 0 Z"
         transform="matrix(0.33492204,0,0,0.33492204,-43.65625,-213)"
         clip-rule="evenodd"
         id="path34" />
    </clipPath>
    <clipPath
       clipPathUnits="userSpaceOnUse"
       id="clipPath35">
      <path
         d="M 0,0 H 1116.6666 V 809.13544 H 0 Z"
         transform="matrix(0.33492204,0,0,0.33492204,-39.375,-238)"
         clip-rule="evenodd"
         id="path35" />
    </clipPath>
    <clipPath
       clipPathUnits="userSpaceOnUse"
       id="clipPath36">
      <path
         d="M 0,0 H 1116.6666 V 809.13544 H 0 Z"
         transform="matrix(0.33492204,0,0,0.33492204,-49.484375,-263)"
         clip-rule="evenodd"
         id="path36" />
    </clipPath>
  </defs>
  <sodipodi:namedview
     id="namedview1"
     pagecolor="#ffffff"
     bordercolor="#000000"
     borderopacity="0.25"
     inkscape:showpageshadow="2"
     inkscape:pageopacity="0.0"
     inkscape:pagecheckerboard="0"
     inkscape:deskcolor="#d1d1d1">
    <inkscape:page
       x="0"
       y="0"
       inkscape:label="1"
       id="page1"
       width="357.44"
       height="261.44"
       margin="0"
       bleed="0" />
  </sodipodi:namedview>
  <g
     id="g1"
     inkscape:groupmode="layer"
     inkscape:label="1">
    <path
       id="path1"
       d="M 0,0 H 374 V 273 H 0 Z"
       style="fill:#ffffff;fill-opacity:1;fill-rule:nonzero;stroke:none"
       transform="scale(0.95543666)"
       clip-path="url(#clipPath2)" />
    <path
       id="path3"
       d="M 1,26 H 371 V 156 H 1 Z"
       style="fill:#dae8fc;fill-opacity:1;fill-rule:nonzero;stroke:#6c8ebf;stroke-width:1;stroke-linecap:butt;stroke-linejoin:miter;stroke-miterlimit:10;stroke-dasharray:none;stroke-opacity:1"
       transform="matrix(0.95543666,0,0,0.95543666,0.47771833,0.47771833)"
       clip-path="url(#clipPath4)" />
    <path
       id="path5"
       d="m 186,76 v 20 h 90 v 13.63"
       style="fill:none;stroke:#000000;stroke-width:1;stroke-linecap:butt;stroke-linejoin:miter;stroke-miterlimit:10;stroke-dasharray:none;stroke-opacity:1"
       transform="matrix(0.95543666,0,0,0.95543666,0.47771833,0.47771833)"
       clip-path="url(#clipPath6)" />
    <path
       id="path7"
       d="m 276,114.88 -3.5,-7 3.5,1.75 3.5,-1.75 z"
       style="fill:#000000;fill-opacity:1;fill-rule:nonzero;stroke:#000000;stroke-width:1;stroke-linecap:butt;stroke-linejoin:miter;stroke-miterlimit:10;stroke-dasharray:none;stroke-opacity:1"
       transform="matrix(0.95543666,0,0,0.95543666,0.47771833,0.47771833)"
       clip-path="url(#clipPath8)" />
    <path
       id="path9"
       d="M 186,76 V 96 H 96 v 13.63"
       style="fill:none;stroke:#000000;stroke-width:1;stroke-linecap:butt;stroke-linejoin:miter;stroke-miterlimit:10;stroke-dasharray:none;stroke-opacity:1"
       transform="matrix(0.95543666,0,0,0.95543666,0.47771833,0.47771833)"
       clip-path="url(#clipPath10)" />
    <path
       id="path11"
       d="m 96,114.88 -3.5,-7 3.5,1.75 3.5,-1.75 z"
       style="fill:#000000;fill-opacity:1;fill-rule:nonzero;stroke:#000000;stroke-width:1;stroke-linecap:butt;stroke-linejoin:miter;stroke-miterlimit:10;stroke-dasharray:none;stroke-opacity:1"
       transform="matrix(0.95543666,0,0,0.95543666,0.47771833,0.47771833)"
       clip-path="url(#clipPath12)" />
    <path
       id="path13"
       d="m 146,46 h 80 v 30 h -80 z"
       style="fill:#ffffff;fill-opacity:1;fill-rule:nonzero;stroke:#000000;stroke-width:1;stroke-linecap:butt;stroke-linejoin:miter;stroke-miterlimit:10;stroke-dasharray:none;stroke-opacity:1"
       transform="matrix(0.95543666,0,0,0.95543666,0.47771833,0.47771833)"
       clip-path="url(#clipPath14)" />
    <text
       id="text14"
       xml:space="preserve"
       transform="matrix(0.9554462,0,0,0.9554462,168.54668,64.014895)"
       clip-path="url(#clipPath15)"><tspan
         style="font-variant:normal;font-weight:normal;font-size:15px;font-family:Helvetica;writing-mode:lr-tb;fill:#000000;fill-opacity:1;fill-rule:nonzero;stroke:none"
         x="0 8.3422852 11.674805"
         y="0"
         sodipodi:role="line"
         id="tspan14">div</tspan></text>
    <path
       id="path16"
       d="m 191,116 h 170 v 30 H 191 Z"
       style="fill:#ffffff;fill-opacity:1;fill-rule:nonzero;stroke:#000000;stroke-width:1;stroke-linecap:butt;stroke-linejoin:miter;stroke-miterlimit:10;stroke-dasharray:none;stroke-opacity:1"
       transform="matrix(0.95543666,0,0,0.95543666,0.47771833,0.47771833)"
       clip-path="url(#clipPath17)" />
    <text
       id="text17"
       xml:space="preserve"
       transform="matrix(0.9554462,0,0,0.9554462,222.40996,130.89613)"
       clip-path="url(#clipPath18)"><tspan
         style="font-variant:normal;font-weight:normal;font-size:15px;font-family:Helvetica;writing-mode:lr-tb;fill:#000000;fill-opacity:1;fill-rule:nonzero;stroke:none"
         x="0 8.3422852 11.674805 18.068848 22.236328 30.578613 38.078613 46.420898 51.416016 56.411133 60.578613 68.920898 73.916016"
         y="0"
         sodipodi:role="line"
         id="tspan17">div.user-form</tspan></text>
    <text
       id="text18"
       xml:space="preserve"
       transform="matrix(0.9554462,0,0,0.9554462,136.46459,19.108924)"
       clip-path="url(#clipPath19)"><tspan
         style="font-variant:normal;font-weight:700;font-size:21px;font-family:Helvetica;writing-mode:lr-tb;fill:#000000;fill-opacity:1;fill-rule:nonzero;stroke:none"
         x="0 15.165527 26.844727 38.523926 46.696289 60.703125 73.530762 79.365234"
         y="0"
         sodipodi:role="line"
         id="tspan18">UserEdit</tspan></text>
    <path
       id="path20"
       d="M 276,196 V 152.36999"
       style="fill:none;stroke:#000000;stroke-width:1;stroke-linecap:butt;stroke-linejoin:miter;stroke-miterlimit:10;stroke-dasharray:none;stroke-opacity:1"
       transform="matrix(0.95543666,0,0,0.95543666,0.47771833,0.47771833)"
       clip-path="url(#clipPath21)" />
    <path
       id="path22"
       d="m 276,147.11999 3.5,7 -3.5,-1.75 -3.5,1.75 z"
       style="fill:#000000;fill-opacity:1;fill-rule:nonzero;stroke:#000000;stroke-width:1;stroke-linecap:butt;stroke-linejoin:miter;stroke-miterlimit:10;stroke-dasharray:none;stroke-opacity:1"
       transform="matrix(0.95543666,0,0,0.95543666,0.47771833,0.47771833)"
       clip-path="url(#clipPath23)" />
    <text
       id="text23"
       xml:space="preserve"
       transform="matrix(0.9554462,0,0,0.9554462,213.69151,203.51004)"
       clip-path="url(#clipPath24)"><tspan
         style="font-variant:normal;font-weight:normal;font-size:21px;font-family:Helvetica;writing-mode:lr-tb;fill:#000000;fill-opacity:1;fill-rule:nonzero;stroke:none"
         x="0 19.45166 31.130859 36.965332 52.130859 63.810059 75.489258 81.32373 87.158203 92.992676"
         y="0"
         sodipodi:role="line"
         id="tspan23">We want to</tspan></text>
    <text
       id="text24"
       xml:space="preserve"
       transform="matrix(0.9554462,0,0,0.9554462,209.60101,227.3962)"
       clip-path="url(#clipPath25)"><tspan
         style="font-variant:normal;font-weight:normal;font-size:21px;font-family:Helvetica;writing-mode:lr-tb;fill:#000000;fill-opacity:1;fill-rule:nonzero;stroke:none"
         x="0 4.6655273 16.344727 26.844727 38.523926 45.51709 51.351562 57.186035 68.865234 74.699707 86.378906 98.058105"
         y="0"
         sodipodi:role="line"
         id="tspan24">insert a new</tspan></text>
    <text
       id="text25"
       xml:space="preserve"
       transform="matrix(0.9554462,0,0,0.9554462,219.25998,251.28235)"
       clip-path="url(#clipPath26)"><tspan
         style="font-variant:normal;font-weight:normal;font-size:21px;font-family:Helvetica;writing-mode:lr-tb;fill:#000000;fill-opacity:1;fill-rule:nonzero;stroke:none"
         x="0 13.637695 18.303223 29.982422 45.147949 50.982422 62.661621 74.34082 81.333984"
         y="0"
         sodipodi:role="line"
         id="tspan25">View here</tspan></text>
    <path
       id="path27"
       d="m 11,116 h 170 v 30 H 11 Z"
       style="fill:#ffffff;fill-opacity:1;fill-rule:nonzero;stroke:#000000;stroke-width:1;stroke-linecap:butt;stroke-linejoin:miter;stroke-miterlimit:10;stroke-dasharray:none;stroke-opacity:1"
       transform="matrix(0.95543666,0,0,0.95543666,0.47771833,0.47771833)"
       clip-path="url(#clipPath28)" />
    <text
       id="text28"
       xml:space="preserve"
       transform="matrix(0.9554462,0,0,0.9554462,48.041029,130.89613)"
       clip-path="url(#clipPath29)"><tspan
         style="font-variant:normal;font-weight:normal;font-size:15px;font-family:Helvetica;writing-mode:lr-tb;fill:#000000;fill-opacity:1;fill-rule:nonzero;stroke:none"
         x="0 8.3422852 11.674805 18.068848 22.236328 30.578613 38.078613 46.420898 51.416016 56.411133 63.911133 72.253418 80.595703"
         y="0"
         sodipodi:role="line"
         id="tspan28">div.user-show</tspan></text>
    <path
       id="path30"
       d="M 96,196 V 171.5 152.36999"
       style="fill:none;stroke:#000000;stroke-width:1;stroke-linecap:butt;stroke-linejoin:miter;stroke-miterlimit:10;stroke-dasharray:none;stroke-opacity:1"
       transform="matrix(0.95543666,0,0,0.95543666,0.47771833,0.47771833)"
       clip-path="url(#clipPath31)" />
    <path
       id="path32"
       d="m 96,147.11999 3.5,7 -3.5,-1.75 -3.5,1.75 z"
       style="fill:#000000;fill-opacity:1;fill-rule:nonzero;stroke:#000000;stroke-width:1;stroke-linecap:butt;stroke-linejoin:miter;stroke-miterlimit:10;stroke-dasharray:none;stroke-opacity:1"
       transform="matrix(0.95543666,0,0,0.95543666,0.47771833,0.47771833)"
       clip-path="url(#clipPath33)" />
    <text
       id="text33"
       xml:space="preserve"
       transform="matrix(0.9554462,0,0,0.9554462,41.711198,203.51004)"
       clip-path="url(#clipPath34)"><tspan
         style="font-variant:normal;font-weight:normal;font-size:21px;font-family:Helvetica;writing-mode:lr-tb;fill:#000000;fill-opacity:1;fill-rule:nonzero;stroke:none"
         x="0 19.45166 31.130859 36.965332 52.130859 63.810059 75.489258 81.32373 87.158203 92.992676"
         y="0"
         sodipodi:role="line"
         id="tspan33">We want to</tspan></text>
    <text
       id="text34"
       xml:space="preserve"
       transform="matrix(0.9554462,0,0,0.9554462,37.620694,227.3962)"
       clip-path="url(#clipPath35)"><tspan
         style="font-variant:normal;font-weight:normal;font-size:21px;font-family:Helvetica;writing-mode:lr-tb;fill:#000000;fill-opacity:1;fill-rule:nonzero;stroke:none"
         x="0 4.6655273 16.344727 26.844727 38.523926 45.51709 51.351562 57.186035 68.865234 74.699707 86.378906 98.058105"
         y="0"
         sodipodi:role="line"
         id="tspan34">insert a new</tspan></text>
    <text
       id="text35"
       xml:space="preserve"
       transform="matrix(0.9554462,0,0,0.9554462,47.279658,251.28235)"
       clip-path="url(#clipPath36)"><tspan
         style="font-variant:normal;font-weight:normal;font-size:21px;font-family:Helvetica;writing-mode:lr-tb;fill:#000000;fill-opacity:1;fill-rule:nonzero;stroke:none"
         x="0 13.637695 18.303223 29.982422 45.147949 50.982422 62.661621 74.34082 81.333984"
         y="0"
         sodipodi:role="line"
         id="tspan35">View here</tspan></text>
  </g>
</svg>
