<?xml version="1.0" encoding="UTF-8" standalone="no"?>
<!-- Created with Inkscape (http://www.inkscape.org/) -->

<svg
   version="1.1"
   id="svg1"
   width="808"
   height="162.56"
   viewBox="0 0 808 162.56"
   sodipodi:docname="ts-11.pdf"
   xmlns:inkscape="http://www.inkscape.org/namespaces/inkscape"
   xmlns:sodipodi="http://sodipodi.sourceforge.net/DTD/sodipodi-0.dtd"
   xmlns="http://www.w3.org/2000/svg"
   xmlns:svg="http://www.w3.org/2000/svg">
  <defs
     id="defs1">
    <clipPath
       clipPathUnits="userSpaceOnUse"
       id="clipPath2">
      <path
         d="M 0,0 H 2525 V 505.59833 H 0 Z"
         transform="scale(0.33425743)"
         clip-rule="evenodd"
         id="path2" />
    </clipPath>
    <clipPath
       clipPathUnits="userSpaceOnUse"
       id="clipPath4">
      <path
         d="M 0,0 H 2525 V 505.59833 H 0 Z"
         transform="matrix(0.33425743,0,0,0.33425743,-0.50000001,-0.50000001)"
         clip-rule="evenodd"
         id="path4" />
    </clipPath>
    <clipPath
       clipPathUnits="userSpaceOnUse"
       id="clipPath6">
      <path
         d="M 0,0 H 2525 V 505.59833 H 0 Z"
         transform="matrix(0.33425743,0,0,0.33425743,-0.50000001,-0.50000001)"
         clip-rule="evenodd"
         id="path6" />
    </clipPath>
    <clipPath
       clipPathUnits="userSpaceOnUse"
       id="clipPath8">
      <path
         d="M 0,0 H 2525 V 505.59833 H 0 Z"
         transform="matrix(0.33425743,0,0,0.33425743,-0.50000001,-0.50000001)"
         clip-rule="evenodd"
         id="path8" />
    </clipPath>
    <clipPath
       clipPathUnits="userSpaceOnUse"
       id="clipPath10">
      <path
         d="M 0,0 H 2525 V 505.59833 H 0 Z"
         transform="matrix(0.33425743,0,0,0.33425743,-0.50000001,-0.50000001)"
         clip-rule="evenodd"
         id="path10" />
    </clipPath>
    <clipPath
       clipPathUnits="userSpaceOnUse"
       id="clipPath12">
      <path
         d="M 0,0 H 2525 V 505.59833 H 0 Z"
         transform="matrix(0.33425743,0,0,0.33425743,-0.50000001,-0.50000001)"
         clip-rule="evenodd"
         id="path12" />
    </clipPath>
    <clipPath
       clipPathUnits="userSpaceOnUse"
       id="clipPath13">
      <path
         d="M 0,0 H 2525 V 505.59833 H 0 Z"
         transform="matrix(0.33425407,0,0,0.33425407,-10.421875,-81)"
         clip-rule="evenodd"
         id="path13" />
    </clipPath>
    <clipPath
       clipPathUnits="userSpaceOnUse"
       id="clipPath14">
      <path
         d="M 0,0 H 2525 V 505.59833 H 0 Z"
         transform="matrix(0.33425407,0,0,0.33425407,-83.765625,-105)"
         clip-rule="evenodd"
         id="path14" />
    </clipPath>
    <clipPath
       clipPathUnits="userSpaceOnUse"
       id="clipPath16">
      <path
         d="M 0,0 H 2525 V 505.59833 H 0 Z"
         transform="matrix(0.33425743,0,0,0.33425743,-0.50000001,-0.50000001)"
         clip-rule="evenodd"
         id="path16" />
    </clipPath>
    <clipPath
       clipPathUnits="userSpaceOnUse"
       id="clipPath17">
      <path
         d="M 0,0 H 2525 V 505.59833 H 0 Z"
         transform="matrix(0.33425407,0,0,0.33425407,-306.03125,-31)"
         clip-rule="evenodd"
         id="path17" />
    </clipPath>
    <clipPath
       clipPathUnits="userSpaceOnUse"
       id="clipPath18">
      <path
         d="M 0,0 H 2525 V 505.59833 H 0 Z"
         transform="matrix(0.33425407,0,0,0.33425407,-495.96875,-55)"
         clip-rule="evenodd"
         id="path18" />
    </clipPath>
    <clipPath
       clipPathUnits="userSpaceOnUse"
       id="clipPath20">
      <path
         d="M 0,0 H 2525 V 505.59833 H 0 Z"
         transform="matrix(0.33425743,0,0,0.33425743,-0.50000001,-0.50000001)"
         clip-rule="evenodd"
         id="path20" />
    </clipPath>
    <clipPath
       clipPathUnits="userSpaceOnUse"
       id="clipPath21">
      <path
         d="M 0,0 H 2525 V 505.59833 H 0 Z"
         transform="matrix(0.33425407,0,0,0.33425407,-299.71875,-126)"
         clip-rule="evenodd"
         id="path21" />
    </clipPath>
    <clipPath
       clipPathUnits="userSpaceOnUse"
       id="clipPath22">
      <path
         d="M 0,0 H 2525 V 505.59833 H 0 Z"
         transform="matrix(0.33425407,0,0,0.33425407,-432.5625,-150)"
         clip-rule="evenodd"
         id="path22" />
    </clipPath>
  </defs>
  <sodipodi:namedview
     id="namedview1"
     pagecolor="#ffffff"
     bordercolor="#000000"
     borderopacity="0.25"
     inkscape:showpageshadow="2"
     inkscape:pageopacity="0.0"
     inkscape:pagecheckerboard="0"
     inkscape:deskcolor="#d1d1d1">
    <inkscape:page
       x="0"
       y="0"
       inkscape:label="1"
       id="page1"
       width="808"
       height="162.56"
       margin="0"
       bleed="0" />
  </sodipodi:namedview>
  <g
     id="g1"
     inkscape:groupmode="layer"
     inkscape:label="1">
    <path
       id="path1"
       d="M 0,0 H 844 V 169 H 0 Z"
       style="fill:#ffffff;fill-opacity:1;fill-rule:nonzero;stroke:none"
       transform="scale(0.95734591)"
       clip-path="url(#clipPath2)" />
    <path
       id="path3"
       d="m 231,86 h 25 V 36 h 18.63"
       style="fill:none;stroke:#000000;stroke-width:1;stroke-linecap:butt;stroke-linejoin:miter;stroke-miterlimit:10;stroke-dasharray:none;stroke-opacity:1"
       transform="matrix(0.95734591,0,0,0.95734591,0.47867296,0.47867296)"
       clip-path="url(#clipPath4)" />
    <path
       id="path5"
       d="m 279.88,36 -7,3.5 1.75,-3.5 -1.75,-3.5 z"
       style="fill:#000000;fill-opacity:1;fill-rule:nonzero;stroke:#000000;stroke-width:1;stroke-linecap:butt;stroke-linejoin:miter;stroke-miterlimit:10;stroke-dasharray:none;stroke-opacity:1"
       transform="matrix(0.95734591,0,0,0.95734591,0.47867296,0.47867296)"
       clip-path="url(#clipPath6)" />
    <path
       id="path7"
       d="m 231,86 h 25 v 45 h 18.63"
       style="fill:none;stroke:#000000;stroke-width:1;stroke-linecap:butt;stroke-linejoin:miter;stroke-miterlimit:10;stroke-dasharray:none;stroke-opacity:1"
       transform="matrix(0.95734591,0,0,0.95734591,0.47867296,0.47867296)"
       clip-path="url(#clipPath8)" />
    <path
       id="path9"
       d="m 279.88,131 -7,3.5 1.75,-3.5 -1.75,-3.5 z"
       style="fill:#000000;fill-opacity:1;fill-rule:nonzero;stroke:#000000;stroke-width:1;stroke-linecap:butt;stroke-linejoin:miter;stroke-miterlimit:10;stroke-dasharray:none;stroke-opacity:1"
       transform="matrix(0.95734591,0,0,0.95734591,0.47867296,0.47867296)"
       clip-path="url(#clipPath10)" />
    <path
       id="path11"
       d="m 1,41 h 230 v 90 H 1 Z"
       style="fill:#dae8fc;fill-opacity:1;fill-rule:nonzero;stroke:#6c8ebf;stroke-width:1;stroke-linecap:butt;stroke-linejoin:miter;stroke-miterlimit:10;stroke-dasharray:none;stroke-opacity:1"
       transform="matrix(0.95734591,0,0,0.95734591,0.47867296,0.47867296)"
       clip-path="url(#clipPath12)" />
    <text
       id="text12"
       xml:space="preserve"
       transform="matrix(0.95735554,0,0,0.95735554,9.9774398,77.545799)"
       clip-path="url(#clipPath13)"><tspan
         style="font-variant:normal;font-weight:700;font-size:20px;font-family:Helvetica;writing-mode:lr-tb;fill:#000000;fill-opacity:1;fill-rule:nonzero;stroke:none"
         x="0 18.876953 31.09375 42.216797 47.773438 59.990234 72.207031 77.763672 93.320312 104.44336 110 121.12305 132.24609 140.0293 151.15234 156.70898 167.83203 180.04883 192.26562 204.48242"
         y="0"
         sodipodi:role="line"
         id="tspan12">Why do we care about</tspan></text>
    <text
       id="text13"
       xml:space="preserve"
       transform="matrix(0.95735554,0,0,0.95735554,80.193485,100.52233)"
       clip-path="url(#clipPath14)"><tspan
         style="font-variant:normal;font-weight:700;font-size:20px;font-family:Helvetica;writing-mode:lr-tb;fill:#000000;fill-opacity:1;fill-rule:nonzero;stroke:none"
         x="0 6.6601562 17.783203 30 41.123047 52.246094"
         y="0"
         sodipodi:role="line"
         id="tspan13">types?</tspan></text>
    <path
       id="path15"
       d="M 281,1 H 841.01001 V 71 H 281 Z"
       style="fill:#ffffff;fill-opacity:1;fill-rule:nonzero;stroke:#000000;stroke-width:1;stroke-linecap:butt;stroke-linejoin:miter;stroke-miterlimit:10;stroke-dasharray:none;stroke-opacity:1"
       transform="matrix(0.95734591,0,0,0.95734591,0.47867296,0.47867296)"
       clip-path="url(#clipPath16)" />
    <text
       id="text16"
       xml:space="preserve"
       transform="matrix(0.95735554,0,0,0.95735554,292.98071,29.678022)"
       clip-path="url(#clipPath17)"><tspan
         style="font-variant:normal;font-weight:normal;font-size:20px;font-family:Helvetica;writing-mode:lr-tb;fill:#000000;fill-opacity:1;fill-rule:nonzero;stroke:none"
         x="0 11.123047 21.123047 32.246094 43.369141 53.369141 58.925781 70.048828 76.708984 87.832031 93.388672 104.51172 114.51172 125.63477 136.75781 142.31445 153.4375 163.4375 168.99414 174.55078 185.67383 196.79688 202.00195 213.125 223.125 234.24805 245.37109 255.37109 265.37109 272.03125 276.47461 287.59766 293.1543 298.71094 313.1543 324.27734 340.9375 352.06055 356.50391 360.94727 372.07031 378.73047 384.28711 389.84375 400.9668 406.52344 417.64648 428.76953 439.89258 444.33594 454.33594 464.33594 475.45898 481.01562 492.13867 503.26172"
         y="0"
         sodipodi:role="line"
         id="tspan16">Types are used by the Typescript Compiler to analyze our</tspan></text>
    <text
       id="text17"
       xml:space="preserve"
       transform="matrix(0.95735554,0,0,0.95735554,474.81843,52.654555)"
       clip-path="url(#clipPath18)"><tspan
         style="font-variant:normal;font-weight:normal;font-size:20px;font-family:Helvetica;writing-mode:lr-tb;fill:#000000;fill-opacity:1;fill-rule:nonzero;stroke:none"
         x="0 10 21.123047 32.246094 43.369141 48.925781 54.482422 65.605469 72.265625 77.822266 88.945312 95.605469 102.26562 113.38867 120.04883"
         y="0"
         sodipodi:role="line"
         id="tspan17">code for errors</tspan></text>
    <path
       id="path19"
       d="m 281,96 h 560.01001 v 70 H 281 Z"
       style="fill:#ffffff;fill-opacity:1;fill-rule:nonzero;stroke:#000000;stroke-width:1;stroke-linecap:butt;stroke-linejoin:miter;stroke-miterlimit:10;stroke-dasharray:none;stroke-opacity:1"
       transform="matrix(0.95734591,0,0,0.95734591,0.47867296,0.47867296)"
       clip-path="url(#clipPath20)" />
    <text
       id="text20"
       xml:space="preserve"
       transform="matrix(0.95735554,0,0,0.95735554,286.93741,120.6268)"
       clip-path="url(#clipPath21)"><tspan
         style="font-variant:normal;font-weight:normal;font-size:20px;font-family:Helvetica;writing-mode:lr-tb;fill:#000000;fill-opacity:1;fill-rule:nonzero;stroke:none"
         x="0 11.123047 21.123047 32.246094 43.369141 53.369141 58.925781 70.048828 74.492188 78.935547 90.058594 104.50195 110.05859 121.18164 126.73828 137.86133 148.98438 155.64453 161.20117 172.32422 183.44727 194.57031 199.01367 210.13672 221.25977 232.38281 239.04297 249.04297 254.59961 260.15625 271.2793 276.83594 287.95898 299.08203 310.20508 321.32812 327.98828 337.98828 343.54492 354.66797 365.79102 376.91406 382.4707 396.91406 408.03711 419.16016 424.7168 430.27344 440.27344 451.39648 455.83984 466.96289 478.08594 488.08594 493.64258 504.76562 511.42578"
         y="0"
         sodipodi:role="line"
         id="tspan20">Types allow other engineers to understand what values are</tspan></text>
    <g
       id="g21" />
    <text
       id="text21"
       xml:space="preserve"
       transform="matrix(0.95735554,0,0,0.95735554,414.11611,143.60333)"
       clip-path="url(#clipPath22)"><tspan
         style="font-variant:normal;font-weight:normal;font-size:20px;font-family:Helvetica;writing-mode:lr-tb;fill:#000000;fill-opacity:1;fill-rule:nonzero;stroke:none"
         x="0 10 21.123047 35.566406 40.009766 51.132812 62.255859 67.8125 78.935547 85.595703 96.71875 107.8418 118.96484 130.08789 135.64453 146.76758 157.89062 164.55078 170.10742 180.10742 191.23047 202.35352 213.47656 224.59961 235.72266 245.72266"
         y="0"
         sodipodi:role="line"
         id="tspan21">ﬂowing around our codebase</tspan></text>
  </g>
</svg>
