<?xml version="1.0" encoding="UTF-8" standalone="no"?>
<!-- Created with Inkscape (http://www.inkscape.org/) -->

<svg
   version="1.1"
   id="svg1"
   width="732.15997"
   height="90.559998"
   viewBox="0 0 732.15997 90.559998"
   sodipodi:docname="ts-12.pdf"
   xmlns:inkscape="http://www.inkscape.org/namespaces/inkscape"
   xmlns:sodipodi="http://sodipodi.sourceforge.net/DTD/sodipodi-0.dtd"
   xmlns="http://www.w3.org/2000/svg"
   xmlns:svg="http://www.w3.org/2000/svg">
  <defs
     id="defs1">
    <clipPath
       clipPathUnits="userSpaceOnUse"
       id="clipPath2">
      <path
         d="M 0,0 H 2287.5 V 281.44632 H 0 Z"
         transform="scale(0.33398908)"
         clip-rule="evenodd"
         id="path2" />
    </clipPath>
    <clipPath
       clipPathUnits="userSpaceOnUse"
       id="clipPath4">
      <path
         d="M 0,0 H 2287.5 V 281.44632 H 0 Z"
         transform="matrix(0.33398908,0,0,0.33398908,-0.49999999,-0.49999999)"
         clip-rule="evenodd"
         id="path4" />
    </clipPath>
    <clipPath
       clipPathUnits="userSpaceOnUse"
       id="clipPath6">
      <path
         d="M 0,0 H 2287.5 V 281.44632 H 0 Z"
         transform="matrix(0.33398908,0,0,0.33398908,-0.49999999,-0.49999999)"
         clip-rule="evenodd"
         id="path6" />
    </clipPath>
    <clipPath
       clipPathUnits="userSpaceOnUse"
       id="clipPath8">
      <path
         d="M 0,0 H 2287.5 V 281.44632 H 0 Z"
         transform="matrix(0.33398908,0,0,0.33398908,-0.49999999,-0.49999999)"
         clip-rule="evenodd"
         id="path8" />
    </clipPath>
    <clipPath
       clipPathUnits="userSpaceOnUse"
       id="clipPath9">
      <path
         d="M 0,0 H 2287.5 V 281.44632 H 0 Z"
         transform="matrix(0.33398573,0,0,0.33398573,-34.3125,-41)"
         clip-rule="evenodd"
         id="path9" />
    </clipPath>
    <clipPath
       clipPathUnits="userSpaceOnUse"
       id="clipPath10">
      <path
         d="M 0,0 H 2287.5 V 281.44632 H 0 Z"
         transform="matrix(0.33398573,0,0,0.33398573,-83.765625,-65)"
         clip-rule="evenodd"
         id="path10" />
    </clipPath>
    <clipPath
       clipPathUnits="userSpaceOnUse"
       id="clipPath12">
      <path
         d="M 0,0 H 2287.5 V 281.44632 H 0 Z"
         transform="matrix(0.33398908,0,0,0.33398908,-0.49999999,-0.49999999)"
         clip-rule="evenodd"
         id="path12" />
    </clipPath>
    <clipPath
       clipPathUnits="userSpaceOnUse"
       id="clipPath13">
      <path
         d="M 0,0 H 2287.5 V 281.44632 H 0 Z"
         transform="matrix(0.33398573,0,0,0.33398573,-431.78125,-57)"
         clip-rule="evenodd"
         id="path13" />
    </clipPath>
  </defs>
  <sodipodi:namedview
     id="namedview1"
     pagecolor="#ffffff"
     bordercolor="#000000"
     borderopacity="0.25"
     inkscape:showpageshadow="2"
     inkscape:pageopacity="0.0"
     inkscape:pagecheckerboard="0"
     inkscape:deskcolor="#d1d1d1">
    <inkscape:page
       x="0"
       y="0"
       inkscape:label="1"
       id="page1"
       width="732.15997"
       height="90.559998"
       margin="0"
       bleed="0" />
  </sodipodi:namedview>
  <g
     id="g1"
     inkscape:groupmode="layer"
     inkscape:label="1">
    <path
       id="path1"
       d="M 0,0 H 764 V 94 H 0 Z"
       style="fill:#ffffff;fill-opacity:1;fill-rule:nonzero;stroke:none"
       transform="scale(0.95811513)"
       clip-path="url(#clipPath2)" />
    <path
       id="path3"
       d="m 231,46 h 43.63"
       style="fill:none;stroke:#000000;stroke-width:1;stroke-linecap:butt;stroke-linejoin:miter;stroke-miterlimit:10;stroke-dasharray:none;stroke-opacity:1"
       transform="matrix(0.95811513,0,0,0.95811513,0.47905756,0.47905756)"
       clip-path="url(#clipPath4)" />
    <path
       id="path5"
       d="m 279.88,46 -7,3.5 1.75,-3.5 -1.75,-3.5 z"
       style="fill:#000000;fill-opacity:1;fill-rule:nonzero;stroke:#000000;stroke-width:1;stroke-linecap:butt;stroke-linejoin:miter;stroke-miterlimit:10;stroke-dasharray:none;stroke-opacity:1"
       transform="matrix(0.95811513,0,0,0.95811513,0.47905756,0.47905756)"
       clip-path="url(#clipPath6)" />
    <path
       id="path7"
       d="M 1,1 H 231 V 91 H 1 Z"
       style="fill:#dae8fc;fill-opacity:1;fill-rule:nonzero;stroke:#6c8ebf;stroke-width:1;stroke-linecap:butt;stroke-linejoin:miter;stroke-miterlimit:10;stroke-dasharray:none;stroke-opacity:1"
       transform="matrix(0.95811513,0,0,0.95811513,0.47905756,0.47905756)"
       clip-path="url(#clipPath8)" />
    <text
       id="text8"
       xml:space="preserve"
       transform="matrix(0.95812473,0,0,0.95812473,32.875655,39.283114)"
       clip-path="url(#clipPath9)"><tspan
         style="font-variant:normal;font-weight:700;font-size:20px;font-family:Helvetica;writing-mode:lr-tb;fill:#000000;fill-opacity:1;fill-rule:nonzero;stroke:none"
         x="0 18.876953 31.09375 42.216797 50 61.123047 66.679688 78.896484 91.113281 96.669922 112.22656 123.34961 128.90625 141.12305 152.24609"
         y="0"
         sodipodi:role="line"
         id="tspan8">Where do we use</tspan></text>
    <text
       id="text9"
       xml:space="preserve"
       transform="matrix(0.95812473,0,0,0.95812473,80.257917,62.278107)"
       clip-path="url(#clipPath10)"><tspan
         style="font-variant:normal;font-weight:700;font-size:20px;font-family:Helvetica;writing-mode:lr-tb;fill:#000000;fill-opacity:1;fill-rule:nonzero;stroke:none"
         x="0 6.6601562 17.783203 30 41.123047 52.246094"
         y="0"
         sodipodi:role="line"
         id="tspan9">types?</tspan></text>
    <path
       id="path11"
       d="M 281,11 H 761 V 81 H 281 Z"
       style="fill:#ffffff;fill-opacity:1;fill-rule:nonzero;stroke:#000000;stroke-width:1;stroke-linecap:butt;stroke-linejoin:miter;stroke-miterlimit:10;stroke-dasharray:none;stroke-opacity:1"
       transform="matrix(0.95811513,0,0,0.95811513,0.47905756,0.47905756)"
       clip-path="url(#clipPath12)" />
    <text
       id="text12"
       xml:space="preserve"
       transform="matrix(0.95812473,0,0,0.95812473,413.70029,54.61311)"
       clip-path="url(#clipPath13)"><tspan
         style="font-variant:normal;font-weight:700;font-size:30px;font-family:Helvetica;writing-mode:lr-tb;fill:#000000;fill-opacity:1;fill-rule:nonzero;stroke:none"
         x="0 20.009766 36.694336 53.378906 65.053711 81.738281 105.07324 123.39844 140.08301 151.75781 168.44238"
         y="0"
         sodipodi:role="line"
         id="tspan12">Everywhere!</tspan></text>
  </g>
</svg>
