<?xml version="1.0" encoding="UTF-8" standalone="no"?>
<!-- Created with Inkscape (http://www.inkscape.org/) -->

<svg
   version="1.1"
   id="svg1"
   width="760"
   height="258.56"
   viewBox="0 0 760 258.56"
   sodipodi:docname="ts-10.pdf"
   xmlns:inkscape="http://www.inkscape.org/namespaces/inkscape"
   xmlns:sodipodi="http://sodipodi.sourceforge.net/DTD/sodipodi-0.dtd"
   xmlns="http://www.w3.org/2000/svg"
   xmlns:svg="http://www.w3.org/2000/svg">
  <defs
     id="defs1">
    <clipPath
       clipPathUnits="userSpaceOnUse"
       id="clipPath2">
      <path
         d="M 0,0 H 2375 V 807.61963 H 0 Z"
         transform="scale(0.3343158)"
         clip-rule="evenodd"
         id="path2" />
    </clipPath>
    <clipPath
       clipPathUnits="userSpaceOnUse"
       id="clipPath4">
      <path
         d="M 0,0 H 2375 V 804.62842 H 0 Z"
         transform="matrix(0.3343158,0,0,0.3343158,-0.49999999,-0.49999999)"
         clip-rule="evenodd"
         id="path4" />
    </clipPath>
    <clipPath
       clipPathUnits="userSpaceOnUse"
       id="clipPath5">
      <path
         d="M 0,0 H 2375 V 804.62842 H 0 Z"
         transform="matrix(0.33431244,0,0,0.33431244,-19.3125,-140)"
         clip-rule="evenodd"
         id="path5" />
    </clipPath>
    <clipPath
       clipPathUnits="userSpaceOnUse"
       id="clipPath7">
      <path
         d="M 0,0 H 2375 V 804.62842 H 0 Z"
         transform="matrix(0.3343158,0,0,0.3343158,-0.49999999,-0.49999999)"
         clip-rule="evenodd"
         id="path7" />
    </clipPath>
    <clipPath
       clipPathUnits="userSpaceOnUse"
       id="clipPath9">
      <path
         d="M 0,0 H 2375 V 804.62842 H 0 Z"
         transform="matrix(0.3343158,0,0,0.3343158,-0.49999999,-0.49999999)"
         clip-rule="evenodd"
         id="path9" />
    </clipPath>
    <clipPath
       clipPathUnits="userSpaceOnUse"
       id="clipPath11">
      <path
         d="M 0,0 H 2375 V 804.62842 H 0 Z"
         transform="matrix(0.3343158,0,0,0.3343158,-0.49999999,-0.49999999)"
         clip-rule="evenodd"
         id="path11" />
    </clipPath>
    <clipPath
       clipPathUnits="userSpaceOnUse"
       id="clipPath13">
      <path
         d="M 0,0 H 2375 V 804.62842 H 0 Z"
         transform="matrix(0.3343158,0,0,0.3343158,-0.49999999,-0.49999999)"
         clip-rule="evenodd"
         id="path13" />
    </clipPath>
    <clipPath
       clipPathUnits="userSpaceOnUse"
       id="clipPath15">
      <path
         d="M 0,0 H 2375 V 804.62842 H 0 Z"
         transform="matrix(0.3343158,0,0,0.3343158,-0.49999999,-0.49999999)"
         clip-rule="evenodd"
         id="path15" />
    </clipPath>
    <clipPath
       clipPathUnits="userSpaceOnUse"
       id="clipPath17">
      <path
         d="M 0,0 H 2375 V 804.62842 H 0 Z"
         transform="matrix(0.3343158,0,0,0.3343158,-0.49999999,-0.49999999)"
         clip-rule="evenodd"
         id="path17" />
    </clipPath>
    <clipPath
       clipPathUnits="userSpaceOnUse"
       id="clipPath18">
      <path
         d="M 0,0 H 2375 V 804.62842 H 0 Z"
         transform="matrix(0.33431244,0,0,0.33431244,-147.65625,-56.999999)"
         clip-rule="evenodd"
         id="path18" />
    </clipPath>
    <clipPath
       clipPathUnits="userSpaceOnUse"
       id="clipPath19">
      <path
         d="M 0,0 H 2375 V 804.62842 H 0 Z"
         transform="matrix(0.33431244,0,0,0.33431244,-159.3125,-80.999999)"
         clip-rule="evenodd"
         id="path19" />
    </clipPath>
    <clipPath
       clipPathUnits="userSpaceOnUse"
       id="clipPath21">
      <path
         d="M 0,0 H 2375 V 804.62842 H 0 Z"
         transform="matrix(0.3343158,0,0,0.3343158,-0.49999999,-0.49999999)"
         clip-rule="evenodd"
         id="path21" />
    </clipPath>
    <clipPath
       clipPathUnits="userSpaceOnUse"
       id="clipPath23">
      <path
         d="M 0,0 H 2375 V 804.62842 H 0 Z"
         transform="matrix(0.3343158,0,0,0.3343158,-0.49999999,-0.49999999)"
         clip-rule="evenodd"
         id="path23" />
    </clipPath>
    <clipPath
       clipPathUnits="userSpaceOnUse"
       id="clipPath25">
      <path
         d="M 0,0 H 2375 V 804.62842 H 0 Z"
         transform="matrix(0.3343158,0,0,0.3343158,-0.49999999,-0.49999999)"
         clip-rule="evenodd"
         id="path25" />
    </clipPath>
    <clipPath
       clipPathUnits="userSpaceOnUse"
       id="clipPath27">
      <path
         d="M 0,0 H 2375 V 804.62842 H 0 Z"
         transform="matrix(0.3343158,0,0,0.3343158,-0.49999999,-0.49999999)"
         clip-rule="evenodd"
         id="path27" />
    </clipPath>
    <clipPath
       clipPathUnits="userSpaceOnUse"
       id="clipPath29">
      <path
         d="M 0,0 H 2375 V 804.62842 H 0 Z"
         transform="matrix(0.3343158,0,0,0.3343158,-0.49999999,-0.49999999)"
         clip-rule="evenodd"
         id="path29" />
    </clipPath>
    <clipPath
       clipPathUnits="userSpaceOnUse"
       id="clipPath30">
      <path
         d="M 0,0 H 2375 V 804.62842 H 0 Z"
         transform="matrix(0.33431244,0,0,0.33431244,-157.09375,-200)"
         clip-rule="evenodd"
         id="path30" />
    </clipPath>
    <clipPath
       clipPathUnits="userSpaceOnUse"
       id="clipPath31">
      <path
         d="M 0,0 H 2375 V 804.62842 H 0 Z"
         transform="matrix(0.33431244,0,0,0.33431244,-159.3125,-224)"
         clip-rule="evenodd"
         id="path31" />
    </clipPath>
    <clipPath
       clipPathUnits="userSpaceOnUse"
       id="clipPath33">
      <path
         d="M 0,0 H 2375 V 804.62842 H 0 Z"
         transform="matrix(0.3343158,0,0,0.3343158,-0.49999999,-0.49999999)"
         clip-rule="evenodd"
         id="path33" />
    </clipPath>
    <clipPath
       clipPathUnits="userSpaceOnUse"
       id="clipPath34">
      <path
         d="M 0,0 H 2375 V 804.62842 H 0 Z"
         transform="matrix(0.33431244,0,0,0.33431244,-307.09375,-43)"
         clip-rule="evenodd"
         id="path34" />
    </clipPath>
    <clipPath
       clipPathUnits="userSpaceOnUse"
       id="clipPath36">
      <path
         d="M 0,0 H 2375 V 804.62842 H 0 Z"
         transform="matrix(0.3343158,0,0,0.3343158,-0.49999999,-0.49999999)"
         clip-rule="evenodd"
         id="path36" />
    </clipPath>
    <clipPath
       clipPathUnits="userSpaceOnUse"
       id="clipPath37">
      <path
         d="M 0,0 H 2375 V 804.62842 H 0 Z"
         transform="matrix(0.33431244,0,0,0.33431244,-316.54687,-95)"
         clip-rule="evenodd"
         id="path37" />
    </clipPath>
    <clipPath
       clipPathUnits="userSpaceOnUse"
       id="clipPath39">
      <path
         d="M 0,0 H 2375 V 804.62842 H 0 Z"
         transform="matrix(0.3343158,0,0,0.3343158,-0.49999999,-0.49999999)"
         clip-rule="evenodd"
         id="path39" />
    </clipPath>
    <clipPath
       clipPathUnits="userSpaceOnUse"
       id="clipPath40">
      <path
         d="M 0,0 H 2375 V 804.62842 H 0 Z"
         transform="matrix(0.33431244,0,0,0.33431244,-435.40625,-43)"
         clip-rule="evenodd"
         id="path40" />
    </clipPath>
    <clipPath
       clipPathUnits="userSpaceOnUse"
       id="clipPath42">
      <path
         d="M 0,0 H 2375 V 804.62842 H 0 Z"
         transform="matrix(0.3343158,0,0,0.3343158,-0.49999999,-0.49999999)"
         clip-rule="evenodd"
         id="path42" />
    </clipPath>
    <clipPath
       clipPathUnits="userSpaceOnUse"
       id="clipPath43">
      <path
         d="M 0,0 H 2375 V 804.62842 H 0 Z"
         transform="matrix(0.33431244,0,0,0.33431244,-439.3125,-95)"
         clip-rule="evenodd"
         id="path43" />
    </clipPath>
    <clipPath
       clipPathUnits="userSpaceOnUse"
       id="clipPath45">
      <path
         d="M 0,0 H 2375 V 804.62842 H 0 Z"
         transform="matrix(0.3343158,0,0,0.3343158,-0.49999999,-0.49999999)"
         clip-rule="evenodd"
         id="path45" />
    </clipPath>
    <clipPath
       clipPathUnits="userSpaceOnUse"
       id="clipPath46">
      <path
         d="M 0,0 H 2375 V 804.62842 H 0 Z"
         transform="matrix(0.33431244,0,0,0.33431244,-582.64063,-43)"
         clip-rule="evenodd"
         id="path46" />
    </clipPath>
    <clipPath
       clipPathUnits="userSpaceOnUse"
       id="clipPath48">
      <path
         d="M 0,0 H 2375 V 804.62842 H 0 Z"
         transform="matrix(0.3343158,0,0,0.3343158,-0.49999999,-0.49999999)"
         clip-rule="evenodd"
         id="path48" />
    </clipPath>
    <clipPath
       clipPathUnits="userSpaceOnUse"
       id="clipPath49">
      <path
         d="M 0,0 H 2375 V 804.62842 H 0 Z"
         transform="matrix(0.33431244,0,0,0.33431244,-585.42188,-95)"
         clip-rule="evenodd"
         id="path49" />
    </clipPath>
    <clipPath
       clipPathUnits="userSpaceOnUse"
       id="clipPath51">
      <path
         d="M 0,0 H 2375 V 804.62842 H 0 Z"
         transform="matrix(0.3343158,0,0,0.3343158,-0.49999999,-0.49999999)"
         clip-rule="evenodd"
         id="path51" />
    </clipPath>
    <clipPath
       clipPathUnits="userSpaceOnUse"
       id="clipPath52">
      <path
         d="M 0,0 H 2375 V 804.62842 H 0 Z"
         transform="matrix(0.33431244,0,0,0.33431244,-687.0625,-43)"
         clip-rule="evenodd"
         id="path52" />
    </clipPath>
    <clipPath
       clipPathUnits="userSpaceOnUse"
       id="clipPath54">
      <path
         d="M 0,0 H 2375 V 804.62842 H 0 Z"
         transform="matrix(0.3343158,0,0,0.3343158,-0.49999999,-0.49999999)"
         clip-rule="evenodd"
         id="path54" />
    </clipPath>
    <clipPath
       clipPathUnits="userSpaceOnUse"
       id="clipPath55">
      <path
         d="M 0,0 H 2375 V 804.62842 H 0 Z"
         transform="matrix(0.33431244,0,0,0.33431244,-300.96875,-191)"
         clip-rule="evenodd"
         id="path55" />
    </clipPath>
    <clipPath
       clipPathUnits="userSpaceOnUse"
       id="clipPath57">
      <path
         d="M 0,0 H 2375 V 804.62842 H 0 Z"
         transform="matrix(0.3343158,0,0,0.3343158,-0.49999999,-0.49999999)"
         clip-rule="evenodd"
         id="path57" />
    </clipPath>
    <clipPath
       clipPathUnits="userSpaceOnUse"
       id="clipPath58">
      <path
         d="M 0,0 H 2375 V 804.62842 H 0 Z"
         transform="matrix(0.33431244,0,0,0.33431244,-307.64063,-242)"
         clip-rule="evenodd"
         id="path58" />
    </clipPath>
    <clipPath
       clipPathUnits="userSpaceOnUse"
       id="clipPath60">
      <path
         d="M 0,0 H 2375 V 804.62842 H 0 Z"
         transform="matrix(0.3343158,0,0,0.3343158,-0.49999999,-0.49999999)"
         clip-rule="evenodd"
         id="path60" />
    </clipPath>
    <clipPath
       clipPathUnits="userSpaceOnUse"
       id="clipPath61">
      <path
         d="M 0,0 H 2375 V 804.62842 H 0 Z"
         transform="matrix(0.33431244,0,0,0.33431244,-443.20312,-191)"
         clip-rule="evenodd"
         id="path61" />
    </clipPath>
    <clipPath
       clipPathUnits="userSpaceOnUse"
       id="clipPath63">
      <path
         d="M 0,0 H 2375 V 804.62842 H 0 Z"
         transform="matrix(0.3343158,0,0,0.3343158,-0.49999999,-0.49999999)"
         clip-rule="evenodd"
         id="path63" />
    </clipPath>
    <clipPath
       clipPathUnits="userSpaceOnUse"
       id="clipPath64">
      <path
         d="M 0,0 H 2375 V 804.62842 H 0 Z"
         transform="matrix(0.33431244,0,0,0.33431244,-439.3125,-242)"
         clip-rule="evenodd"
         id="path64" />
    </clipPath>
  </defs>
  <sodipodi:namedview
     id="namedview1"
     pagecolor="#ffffff"
     bordercolor="#000000"
     borderopacity="0.25"
     inkscape:showpageshadow="2"
     inkscape:pageopacity="0.0"
     inkscape:pagecheckerboard="0"
     inkscape:deskcolor="#d1d1d1">
    <inkscape:page
       x="0"
       y="0"
       inkscape:label="1"
       id="page1"
       width="760"
       height="258.56"
       margin="0"
       bleed="0" />
  </sodipodi:namedview>
  <g
     id="g1"
     inkscape:groupmode="layer"
     inkscape:label="1">
    <path
       id="path1"
       d="M 0,0 H 794 V 270 H 0 Z"
       style="fill:#ffffff;fill-opacity:1;fill-rule:nonzero;stroke:none"
       transform="scale(0.95717878)"
       clip-path="url(#clipPath2)" />
    <path
       id="path3"
       d="m 1,103 h 90 v 60 H 1 Z"
       style="fill:#ffffff;fill-opacity:1;fill-rule:nonzero;stroke:#000000;stroke-width:1;stroke-linecap:butt;stroke-linejoin:miter;stroke-miterlimit:10;stroke-dasharray:none;stroke-opacity:1"
       transform="matrix(0.95717878,0,0,0.95717878,0.47858938,0.47858938)"
       clip-path="url(#clipPath4)" />
    <text
       id="text4"
       xml:space="preserve"
       transform="matrix(0.95718838,0,0,0.95718838,18.485701,134.00637)"
       clip-path="url(#clipPath5)"><tspan
         style="font-variant:normal;font-weight:normal;font-size:20px;font-family:Helvetica;writing-mode:lr-tb;fill:#000000;fill-opacity:1;fill-rule:nonzero;stroke:none"
         x="0 11.123047 21.123047 32.246094 43.369141"
         y="0"
         sodipodi:role="line"
         id="tspan4">Types</tspan></text>
    <path
       id="path6"
       d="m 131,1 h -10 c -6.66666,0 -10,3.333333 -10,10 v 112.5 c 0,6.66667 -3.33334,10 -10,10 h -5 c -3.333336,0 -1.666664,0 5,0 h 5 c 3.33334,0 5,3.33333 5,10 V 256 c 0,6.66666 3.33334,10 10,10 h 10"
       style="fill:none;stroke:#000000;stroke-width:1;stroke-linecap:butt;stroke-linejoin:miter;stroke-miterlimit:10;stroke-dasharray:none;stroke-opacity:1"
       transform="matrix(0.95717878,0,0,0.95717878,0.47858938,0.47858938)"
       clip-path="url(#clipPath7)" />
    <path
       id="path8"
       d="m 241,62 h 20 V 36 h 13.63"
       style="fill:none;stroke:#000000;stroke-width:1;stroke-linecap:butt;stroke-linejoin:miter;stroke-miterlimit:10;stroke-dasharray:none;stroke-opacity:1"
       transform="matrix(0.95717878,0,0,0.95717878,0.47858938,0.47858938)"
       clip-path="url(#clipPath9)" />
    <path
       id="path10"
       d="m 279.88,36 -7,3.5 1.75,-3.5 -1.75,-3.5 z"
       style="fill:#000000;fill-opacity:1;fill-rule:nonzero;stroke:#000000;stroke-width:1;stroke-linecap:butt;stroke-linejoin:miter;stroke-miterlimit:10;stroke-dasharray:none;stroke-opacity:1"
       transform="matrix(0.95717878,0,0,0.95717878,0.47858938,0.47858938)"
       clip-path="url(#clipPath11)" />
    <path
       id="path12"
       d="m 241,62 h 20 v 26 h 13.63"
       style="fill:none;stroke:#000000;stroke-width:1;stroke-linecap:butt;stroke-linejoin:miter;stroke-miterlimit:10;stroke-dasharray:none;stroke-opacity:1"
       transform="matrix(0.95717878,0,0,0.95717878,0.47858938,0.47858938)"
       clip-path="url(#clipPath13)" />
    <path
       id="path14"
       d="m 279.88,88 -7,3.5 1.75,-3.5 -1.75,-3.5 z"
       style="fill:#000000;fill-opacity:1;fill-rule:nonzero;stroke:#000000;stroke-width:1;stroke-linecap:butt;stroke-linejoin:miter;stroke-miterlimit:10;stroke-dasharray:none;stroke-opacity:1"
       transform="matrix(0.95717878,0,0,0.95717878,0.47858938,0.47858938)"
       clip-path="url(#clipPath15)" />
    <path
       id="path16"
       d="M 131,1 H 241 V 123 H 131 Z"
       style="fill:#dae8fc;fill-opacity:1;fill-rule:nonzero;stroke:#6c8ebf;stroke-width:1;stroke-linecap:butt;stroke-linejoin:miter;stroke-miterlimit:10;stroke-dasharray:none;stroke-opacity:1"
       transform="matrix(0.95717878,0,0,0.95717878,0.47858938,0.47858938)"
       clip-path="url(#clipPath17)" />
    <text
       id="text17"
       xml:space="preserve"
       transform="matrix(0.95718838,0,0,0.95718838,141.33485,54.559737)"
       clip-path="url(#clipPath18)"><tspan
         style="font-variant:normal;font-weight:normal;font-size:20px;font-family:Helvetica;writing-mode:lr-tb;fill:#000000;fill-opacity:1;fill-rule:nonzero;stroke:none"
         x="0 13.339844 20 24.443359 41.103516 45.546875 51.103516 55.546875 65.546875"
         y="0"
         sodipodi:role="line"
         id="tspan17">Primitive</tspan></text>
    <text
       id="text18"
       xml:space="preserve"
       transform="matrix(0.95718838,0,0,0.95718838,152.49207,77.532258)"
       clip-path="url(#clipPath19)"><tspan
         style="font-variant:normal;font-weight:normal;font-size:20px;font-family:Helvetica;writing-mode:lr-tb;fill:#000000;fill-opacity:1;fill-rule:nonzero;stroke:none"
         x="0 11.123047 21.123047 32.246094 43.369141"
         y="0"
         sodipodi:role="line"
         id="tspan18">Types</tspan></text>
    <path
       id="path20"
       d="m 241,204.5 h 20 v -21 h 13.63"
       style="fill:none;stroke:#000000;stroke-width:1;stroke-linecap:butt;stroke-linejoin:miter;stroke-miterlimit:10;stroke-dasharray:none;stroke-opacity:1"
       transform="matrix(0.95717878,0,0,0.95717878,0.47858938,0.47858938)"
       clip-path="url(#clipPath21)" />
    <path
       id="path22"
       d="m 279.88,183.5 -7,3.5 1.75,-3.5 -1.75,-3.5 z"
       style="fill:#000000;fill-opacity:1;fill-rule:nonzero;stroke:#000000;stroke-width:1;stroke-linecap:butt;stroke-linejoin:miter;stroke-miterlimit:10;stroke-dasharray:none;stroke-opacity:1"
       transform="matrix(0.95717878,0,0,0.95717878,0.47858938,0.47858938)"
       clip-path="url(#clipPath23)" />
    <path
       id="path24"
       d="m 241,204.5 h 20 v 31 h 13.63"
       style="fill:none;stroke:#000000;stroke-width:1;stroke-linecap:butt;stroke-linejoin:miter;stroke-miterlimit:10;stroke-dasharray:none;stroke-opacity:1"
       transform="matrix(0.95717878,0,0,0.95717878,0.47858938,0.47858938)"
       clip-path="url(#clipPath25)" />
    <path
       id="path26"
       d="m 279.88,235.5 -7,3.5 1.75,-3.5 -1.75,-3.5 z"
       style="fill:#000000;fill-opacity:1;fill-rule:nonzero;stroke:#000000;stroke-width:1;stroke-linecap:butt;stroke-linejoin:miter;stroke-miterlimit:10;stroke-dasharray:none;stroke-opacity:1"
       transform="matrix(0.95717878,0,0,0.95717878,0.47858938,0.47858938)"
       clip-path="url(#clipPath27)" />
    <path
       id="path28"
       d="M 131,143 H 241 V 266 H 131 Z"
       style="fill:#dae8fc;fill-opacity:1;fill-rule:nonzero;stroke:#6c8ebf;stroke-width:1;stroke-linecap:butt;stroke-linejoin:miter;stroke-miterlimit:10;stroke-dasharray:none;stroke-opacity:1"
       transform="matrix(0.95717878,0,0,0.95717878,0.47858938,0.47858938)"
       clip-path="url(#clipPath29)" />
    <text
       id="text29"
       xml:space="preserve"
       transform="matrix(0.95718838,0,0,0.95718838,150.36831,191.43768)"
       clip-path="url(#clipPath30)"><tspan
         style="font-variant:normal;font-weight:normal;font-size:20px;font-family:Helvetica;writing-mode:lr-tb;fill:#000000;fill-opacity:1;fill-rule:nonzero;stroke:none"
         x="0 15.556641 26.679688 31.123047 42.246094 52.246094"
         y="0"
         sodipodi:role="line"
         id="tspan29">Object</tspan></text>
    <text
       id="text30"
       xml:space="preserve"
       transform="matrix(0.95718838,0,0,0.95718838,152.49207,214.4102)"
       clip-path="url(#clipPath31)"><tspan
         style="font-variant:normal;font-weight:normal;font-size:20px;font-family:Helvetica;writing-mode:lr-tb;fill:#000000;fill-opacity:1;fill-rule:nonzero;stroke:none"
         x="0 11.123047 21.123047 32.246094 43.369141"
         y="0"
         sodipodi:role="line"
         id="tspan30">Types</tspan></text>
    <path
       id="path32"
       d="m 281,15.5 h 120 v 41 H 281 Z"
       style="fill:#ffffff;fill-opacity:1;fill-rule:nonzero;stroke:#000000;stroke-width:1;stroke-linecap:butt;stroke-linejoin:miter;stroke-miterlimit:10;stroke-dasharray:none;stroke-opacity:1"
       transform="matrix(0.95717878,0,0,0.95717878,0.47858938,0.47858938)"
       clip-path="url(#clipPath33)" />
    <text
       id="text33"
       xml:space="preserve"
       transform="matrix(0.95718838,0,0,0.95718838,293.94657,41.1591)"
       clip-path="url(#clipPath34)"><tspan
         style="font-variant:normal;font-weight:normal;font-size:20px;font-family:Helvetica;writing-mode:lr-tb;fill:#000000;fill-opacity:1;fill-rule:nonzero;stroke:none"
         x="0 11.123047 22.246094 38.90625 50.029297 61.152344"
         y="0"
         sodipodi:role="line"
         id="tspan33">number</tspan></text>
    <path
       id="path35"
       d="m 281,67.5 h 120 v 41 H 281 Z"
       style="fill:#ffffff;fill-opacity:1;fill-rule:nonzero;stroke:#000000;stroke-width:1;stroke-linecap:butt;stroke-linejoin:miter;stroke-miterlimit:10;stroke-dasharray:none;stroke-opacity:1"
       transform="matrix(0.95717878,0,0,0.95717878,0.47858938,0.47858938)"
       clip-path="url(#clipPath36)" />
    <text
       id="text36"
       xml:space="preserve"
       transform="matrix(0.95718838,0,0,0.95718838,302.99499,90.932896)"
       clip-path="url(#clipPath37)"><tspan
         style="font-variant:normal;font-weight:normal;font-size:20px;font-family:Helvetica;writing-mode:lr-tb;fill:#000000;fill-opacity:1;fill-rule:nonzero;stroke:none"
         x="0 10 15.556641 22.216797 26.660156 37.783203"
         y="0"
         sodipodi:role="line"
         id="tspan36">string</tspan></text>
    <path
       id="path38"
       d="m 411,15.5 h 120 v 41 H 411 Z"
       style="fill:#ffffff;fill-opacity:1;fill-rule:nonzero;stroke:#000000;stroke-width:1;stroke-linecap:butt;stroke-linejoin:miter;stroke-miterlimit:10;stroke-dasharray:none;stroke-opacity:1"
       transform="matrix(0.95717878,0,0,0.95717878,0.47858938,0.47858938)"
       clip-path="url(#clipPath39)" />
    <text
       id="text39"
       xml:space="preserve"
       transform="matrix(0.95718838,0,0,0.95718838,416.7658,41.1591)"
       clip-path="url(#clipPath40)"><tspan
         style="font-variant:normal;font-weight:normal;font-size:20px;font-family:Helvetica;writing-mode:lr-tb;fill:#000000;fill-opacity:1;fill-rule:nonzero;stroke:none"
         x="0 11.123047 22.246094 33.369141 37.8125 48.935547 60.058594"
         y="0"
         sodipodi:role="line"
         id="tspan39">boolean</tspan></text>
    <path
       id="path41"
       d="m 411,67.5 h 120 v 41 H 411 Z"
       style="fill:#ffffff;fill-opacity:1;fill-rule:nonzero;stroke:#000000;stroke-width:1;stroke-linecap:butt;stroke-linejoin:miter;stroke-miterlimit:10;stroke-dasharray:none;stroke-opacity:1"
       transform="matrix(0.95717878,0,0,0.95717878,0.47858938,0.47858938)"
       clip-path="url(#clipPath42)" />
    <text
       id="text42"
       xml:space="preserve"
       transform="matrix(0.95718838,0,0,0.95718838,420.50482,90.932896)"
       clip-path="url(#clipPath43)"><tspan
         style="font-variant:normal;font-weight:normal;font-size:20px;font-family:Helvetica;writing-mode:lr-tb;fill:#000000;fill-opacity:1;fill-rule:nonzero;stroke:none"
         x="0 10 20 36.660156 47.783203 58.90625"
         y="0"
         sodipodi:role="line"
         id="tspan42">symbol</tspan></text>
    <path
       id="path44"
       d="m 541.01001,15.5 h 120 v 41 h -120 z"
       style="fill:#ffffff;fill-opacity:1;fill-rule:nonzero;stroke:#000000;stroke-width:1;stroke-linecap:butt;stroke-linejoin:miter;stroke-miterlimit:10;stroke-dasharray:none;stroke-opacity:1"
       transform="matrix(0.95717878,0,0,0.95717878,0.47858938,0.47858938)"
       clip-path="url(#clipPath45)" />
    <text
       id="text45"
       xml:space="preserve"
       transform="matrix(0.95718838,0,0,0.95718838,557.69684,41.1591)"
       clip-path="url(#clipPath46)"><tspan
         style="font-variant:normal;font-weight:normal;font-size:20px;font-family:Helvetica;writing-mode:lr-tb;fill:#000000;fill-opacity:1;fill-rule:nonzero;stroke:none"
         x="0 10 21.123047 25.566406"
         y="0"
         sodipodi:role="line"
         id="tspan45">void</tspan></text>
    <path
       id="path47"
       d="m 541.01001,67.5 h 120 v 41 h -120 z"
       style="fill:#ffffff;fill-opacity:1;fill-rule:nonzero;stroke:#000000;stroke-width:1;stroke-linecap:butt;stroke-linejoin:miter;stroke-miterlimit:10;stroke-dasharray:none;stroke-opacity:1"
       transform="matrix(0.95717878,0,0,0.95717878,0.47858938,0.47858938)"
       clip-path="url(#clipPath48)" />
    <text
       id="text48"
       xml:space="preserve"
       transform="matrix(0.95718838,0,0,0.95718838,560.35902,90.932896)"
       clip-path="url(#clipPath49)"><tspan
         style="font-variant:normal;font-weight:normal;font-size:20px;font-family:Helvetica;writing-mode:lr-tb;fill:#000000;fill-opacity:1;fill-rule:nonzero;stroke:none"
         x="0 11.123047 22.246094 26.689453"
         y="0"
         sodipodi:role="line"
         id="tspan48">null</tspan></text>
    <path
       id="path50"
       d="m 671.01001,15.5 h 120 v 41 h -120 z"
       style="fill:#ffffff;fill-opacity:1;fill-rule:nonzero;stroke:#000000;stroke-width:1;stroke-linecap:butt;stroke-linejoin:miter;stroke-miterlimit:10;stroke-dasharray:none;stroke-opacity:1"
       transform="matrix(0.95717878,0,0,0.95717878,0.47858938,0.47858938)"
       clip-path="url(#clipPath51)" />
    <g
       id="g51" />
    <text
       id="text51"
       xml:space="preserve"
       transform="matrix(0.95718838,0,0,0.95718838,657.64824,41.1591)"
       clip-path="url(#clipPath52)"><tspan
         style="font-variant:normal;font-weight:normal;font-size:20px;font-family:Helvetica;writing-mode:lr-tb;fill:#000000;fill-opacity:1;fill-rule:nonzero;stroke:none"
         x="0 11.123047 22.246094 33.369141 44.492188 54.492188 65.615234 76.738281"
         y="0"
         sodipodi:role="line"
         id="tspan51">undeﬁned</tspan></text>
    <path
       id="path53"
       d="m 281,163 h 120 v 41 H 281 Z"
       style="fill:#ffffff;fill-opacity:1;fill-rule:nonzero;stroke:#000000;stroke-width:1;stroke-linecap:butt;stroke-linejoin:miter;stroke-miterlimit:10;stroke-dasharray:none;stroke-opacity:1"
       transform="matrix(0.95717878,0,0,0.95717878,0.47858938,0.47858938)"
       clip-path="url(#clipPath54)" />
    <text
       id="text54"
       xml:space="preserve"
       transform="matrix(0.95718838,0,0,0.95718838,288.08379,182.82298)"
       clip-path="url(#clipPath55)"><tspan
         style="font-variant:normal;font-weight:normal;font-size:20px;font-family:Helvetica;writing-mode:lr-tb;fill:#000000;fill-opacity:1;fill-rule:nonzero;stroke:none"
         x="0 5.5566406 16.679688 27.802734 37.802734 43.359375 47.802734 58.925781 70.048828"
         y="0"
         sodipodi:role="line"
         id="tspan54">functions</tspan></text>
    <path
       id="path56"
       d="m 281,215 h 120 v 41 H 281 Z"
       style="fill:#ffffff;fill-opacity:1;fill-rule:nonzero;stroke:#000000;stroke-width:1;stroke-linecap:butt;stroke-linejoin:miter;stroke-miterlimit:10;stroke-dasharray:none;stroke-opacity:1"
       transform="matrix(0.95717878,0,0,0.95717878,0.47858938,0.47858938)"
       clip-path="url(#clipPath57)" />
    <text
       id="text57"
       xml:space="preserve"
       transform="matrix(0.95718838,0,0,0.95718838,294.47004,231.63959)"
       clip-path="url(#clipPath58)"><tspan
         style="font-variant:normal;font-weight:normal;font-size:20px;font-family:Helvetica;writing-mode:lr-tb;fill:#000000;fill-opacity:1;fill-rule:nonzero;stroke:none"
         x="0 10 14.443359 25.566406 35.566406 45.566406 56.689453"
         y="0"
         sodipodi:role="line"
         id="tspan57">classes</tspan></text>
    <path
       id="path59"
       d="m 411,163 h 120 v 41 H 411 Z"
       style="fill:#ffffff;fill-opacity:1;fill-rule:nonzero;stroke:#000000;stroke-width:1;stroke-linecap:butt;stroke-linejoin:miter;stroke-miterlimit:10;stroke-dasharray:none;stroke-opacity:1"
       transform="matrix(0.95717878,0,0,0.95717878,0.47858938,0.47858938)"
       clip-path="url(#clipPath60)" />
    <text
       id="text60"
       xml:space="preserve"
       transform="matrix(0.95718838,0,0,0.95718838,424.22888,182.82298)"
       clip-path="url(#clipPath61)"><tspan
         style="font-variant:normal;font-weight:normal;font-size:20px;font-family:Helvetica;writing-mode:lr-tb;fill:#000000;fill-opacity:1;fill-rule:nonzero;stroke:none"
         x="0 11.123047 17.783203 24.443359 35.566406 45.566406"
         y="0"
         sodipodi:role="line"
         id="tspan60">arrays</tspan></text>
    <path
       id="path62"
       d="m 411,215 h 120 v 41 H 411 Z"
       style="fill:#ffffff;fill-opacity:1;fill-rule:nonzero;stroke:#000000;stroke-width:1;stroke-linecap:butt;stroke-linejoin:miter;stroke-miterlimit:10;stroke-dasharray:none;stroke-opacity:1"
       transform="matrix(0.95717878,0,0,0.95717878,0.47858938,0.47858938)"
       clip-path="url(#clipPath63)" />
    <text
       id="text63"
       xml:space="preserve"
       transform="matrix(0.95718838,0,0,0.95718838,420.50482,231.63959)"
       clip-path="url(#clipPath64)"><tspan
         style="font-variant:normal;font-weight:normal;font-size:20px;font-family:Helvetica;writing-mode:lr-tb;fill:#000000;fill-opacity:1;fill-rule:nonzero;stroke:none"
         x="0 11.123047 22.246094 26.689453 37.8125 47.8125 53.369141"
         y="0"
         sodipodi:role="line"
         id="tspan63">objects</tspan></text>
  </g>
</svg>
