<?xml version="1.0" encoding="UTF-8" standalone="no"?>
<!-- Created with Inkscape (http://www.inkscape.org/) -->

<svg
   version="1.1"
   id="svg1"
   width="517.44"
   height="310.72"
   viewBox="0 0 517.44 310.72"
   sodipodi:docname="ts-2.pdf"
   xmlns:inkscape="http://www.inkscape.org/namespaces/inkscape"
   xmlns:sodipodi="http://sodipodi.sourceforge.net/DTD/sodipodi-0.dtd"
   xmlns="http://www.w3.org/2000/svg"
   xmlns:svg="http://www.w3.org/2000/svg">
  <defs
     id="defs1">
    <clipPath
       clipPathUnits="userSpaceOnUse"
       id="clipPath2">
      <path
         d="M 0,0 H 1616.6666 V 968.20697 H 0 Z"
         transform="scale(0.33463919)"
         clip-rule="evenodd"
         id="path2" />
    </clipPath>
    <clipPath
       clipPathUnits="userSpaceOnUse"
       id="clipPath4">
      <path
         d="M 0,0 H 1616.6666 V 965.21869 H 0 Z"
         transform="matrix(0.33463919,0,0,0.33463919,-0.5,-0.5)"
         clip-rule="evenodd"
         id="path4" />
    </clipPath>
    <clipPath
       clipPathUnits="userSpaceOnUse"
       id="clipPath5">
      <path
         d="M 0,0 H 1616.6666 V 965.21869 H 0 Z"
         transform="matrix(0.33463583,0,0,0.33463583,-106.6875,-52)"
         clip-rule="evenodd"
         id="path5" />
    </clipPath>
    <clipPath
       clipPathUnits="userSpaceOnUse"
       id="clipPath7">
      <path
         d="M 0,0 H 1616.6666 V 965.21869 H 0 Z"
         transform="matrix(0.33463919,0,0,0.33463919,-0.5,-0.5)"
         clip-rule="evenodd"
         id="path7" />
    </clipPath>
    <clipPath
       clipPathUnits="userSpaceOnUse"
       id="clipPath9">
      <path
         d="M 0,0 H 1616.6666 V 965.21869 H 0 Z"
         transform="matrix(0.33463919,0,0,0.33463919,-0.5,-0.5)"
         clip-rule="evenodd"
         id="path9" />
    </clipPath>
    <clipPath
       clipPathUnits="userSpaceOnUse"
       id="clipPath10">
      <path
         d="M 0,0 H 1616.6666 V 965.21869 H 0 Z"
         transform="matrix(0.33463583,0,0,0.33463583,-141.5,-19)"
         clip-rule="evenodd"
         id="path10" />
    </clipPath>
    <clipPath
       clipPathUnits="userSpaceOnUse"
       id="clipPath12">
      <path
         d="M 0,0 H 1616.6666 V 965.21869 H 0 Z"
         transform="matrix(0.33463919,0,0,0.33463919,-0.5,-0.5)"
         clip-rule="evenodd"
         id="path12" />
    </clipPath>
    <clipPath
       clipPathUnits="userSpaceOnUse"
       id="clipPath13">
      <path
         d="M 0,0 H 1616.6666 V 965.21869 H 0 Z"
         transform="matrix(0.33463583,0,0,0.33463583,-159.60937,-172)"
         clip-rule="evenodd"
         id="path13" />
    </clipPath>
    <clipPath
       clipPathUnits="userSpaceOnUse"
       id="clipPath15">
      <path
         d="M 0,0 H 1616.6666 V 965.21869 H 0 Z"
         transform="matrix(0.33463919,0,0,0.33463919,-0.5,-0.5)"
         clip-rule="evenodd"
         id="path15" />
    </clipPath>
    <clipPath
       clipPathUnits="userSpaceOnUse"
       id="clipPath16">
      <path
         d="M 0,0 H 1616.6666 V 965.21869 H 0 Z"
         transform="matrix(0.33463583,0,0,0.33463583,-143.92188,-212)"
         clip-rule="evenodd"
         id="path16" />
    </clipPath>
    <clipPath
       clipPathUnits="userSpaceOnUse"
       id="clipPath18">
      <path
         d="M 0,0 H 1616.6666 V 965.21869 H 0 Z"
         transform="matrix(0.33463919,0,0,0.33463919,-0.5,-0.5)"
         clip-rule="evenodd"
         id="path18" />
    </clipPath>
    <clipPath
       clipPathUnits="userSpaceOnUse"
       id="clipPath19">
      <path
         d="M 0,0 H 1616.6666 V 965.21869 H 0 Z"
         transform="matrix(0.33463583,0,0,0.33463583,-107.15625,-252)"
         clip-rule="evenodd"
         id="path19" />
    </clipPath>
    <clipPath
       clipPathUnits="userSpaceOnUse"
       id="clipPath21">
      <path
         d="M 0,0 H 1616.6666 V 965.21869 H 0 Z"
         transform="matrix(0.33463919,0,0,0.33463919,-0.5,-0.5)"
         clip-rule="evenodd"
         id="path21" />
    </clipPath>
    <clipPath
       clipPathUnits="userSpaceOnUse"
       id="clipPath22">
      <path
         d="M 0,0 H 1616.6666 V 965.21869 H 0 Z"
         transform="matrix(0.33463583,0,0,0.33463583,-106.34375,-92)"
         clip-rule="evenodd"
         id="path22" />
    </clipPath>
    <clipPath
       clipPathUnits="userSpaceOnUse"
       id="clipPath24">
      <path
         d="M 0,0 H 1616.6666 V 965.21869 H 0 Z"
         transform="matrix(0.33463919,0,0,0.33463919,-0.5,-0.5)"
         clip-rule="evenodd"
         id="path24" />
    </clipPath>
    <clipPath
       clipPathUnits="userSpaceOnUse"
       id="clipPath25">
      <path
         d="M 0,0 H 1616.6666 V 965.21869 H 0 Z"
         transform="matrix(0.33463583,0,0,0.33463583,-172.70313,-292)"
         clip-rule="evenodd"
         id="path25" />
    </clipPath>
    <clipPath
       clipPathUnits="userSpaceOnUse"
       id="clipPath27">
      <path
         d="M 0,0 H 1616.6666 V 965.21869 H 0 Z"
         transform="matrix(0.33463919,0,0,0.33463919,-0.5,-0.5)"
         clip-rule="evenodd"
         id="path27" />
    </clipPath>
    <clipPath
       clipPathUnits="userSpaceOnUse"
       id="clipPath28">
      <path
         d="M 0,0 H 1616.6666 V 965.21869 H 0 Z"
         transform="matrix(0.33463583,0,0,0.33463583,-138.45312,-132)"
         clip-rule="evenodd"
         id="path28" />
    </clipPath>
    <clipPath
       clipPathUnits="userSpaceOnUse"
       id="clipPath30">
      <path
         d="M 0,0 H 1616.6666 V 965.21869 H 0 Z"
         transform="matrix(-0.33463919,0,0,-0.33463919,806.49994,294.50001)"
         clip-rule="evenodd"
         id="path30" />
    </clipPath>
    <clipPath
       clipPathUnits="userSpaceOnUse"
       id="clipPath32">
      <path
         d="M 0,0 H 1616.6666 V 965.21869 H 0 Z"
         transform="matrix(0.33463919,0,0,0.33463919,-0.5,-0.5)"
         clip-rule="evenodd"
         id="path32" />
    </clipPath>
    <clipPath
       clipPathUnits="userSpaceOnUse"
       id="clipPath33">
      <path
         d="M 0,0 H 1616.6666 V 965.21869 H 0 Z"
         transform="matrix(0.33463583,0,0,0.33463583,-420.98438,-152)"
         clip-rule="evenodd"
         id="path33" />
    </clipPath>
    <clipPath
       clipPathUnits="userSpaceOnUse"
       id="clipPath35">
      <path
         d="M 0,0 H 1616.6666 V 965.21869 H 0 Z"
         transform="matrix(-0.33463919,0,0,-0.33463919,806.49994,574.49999)"
         clip-rule="evenodd"
         id="path35" />
    </clipPath>
    <clipPath
       clipPathUnits="userSpaceOnUse"
       id="clipPath37">
      <path
         d="M 0,0 H 1616.6666 V 965.21869 H 0 Z"
         transform="matrix(0.33463919,0,0,0.33463919,-0.5,-0.5)"
         clip-rule="evenodd"
         id="path37" />
    </clipPath>
    <clipPath
       clipPathUnits="userSpaceOnUse"
       id="clipPath38">
      <path
         d="M 0,0 H 1616.6666 V 965.21869 H 0 Z"
         transform="matrix(0.33463583,0,0,0.33463583,-428.1875,-292)"
         clip-rule="evenodd"
         id="path38" />
    </clipPath>
  </defs>
  <sodipodi:namedview
     id="namedview1"
     pagecolor="#ffffff"
     bordercolor="#000000"
     borderopacity="0.25"
     inkscape:showpageshadow="2"
     inkscape:pageopacity="0.0"
     inkscape:pagecheckerboard="0"
     inkscape:deskcolor="#d1d1d1">
    <inkscape:page
       x="0"
       y="0"
       inkscape:label="1"
       id="page1"
       width="517.44"
       height="310.72"
       margin="0"
       bleed="0" />
  </sodipodi:namedview>
  <g
     id="g1"
     inkscape:groupmode="layer"
     inkscape:label="1">
    <path
       id="path1"
       d="M 0,0 H 541 V 324 H 0 Z"
       style="fill:#ffffff;fill-opacity:1;fill-rule:nonzero;stroke:none"
       transform="scale(0.95625378)"
       clip-path="url(#clipPath2)" />
    <path
       id="path3"
       d="M 18,32 H 378 V 62 H 18 Z"
       style="fill:#ffffff;fill-opacity:1;fill-rule:nonzero;stroke:#000000;stroke-width:1;stroke-linecap:butt;stroke-linejoin:miter;stroke-miterlimit:10;stroke-dasharray:none;stroke-opacity:1"
       transform="matrix(0.95625378,0,0,0.95625378,0.47812689,0.47812689)"
       clip-path="url(#clipPath4)" />
    <text
       id="text4"
       xml:space="preserve"
       transform="matrix(0.95626338,0,0,0.95626338,102.02135,49.725696)"
       clip-path="url(#clipPath5)"><tspan
         style="font-variant:normal;font-weight:normal;font-size:14px;font-family:Helvetica;writing-mode:lr-tb;fill:#000000;fill-opacity:1;fill-rule:nonzero;stroke:none"
         x="0 10.110352 17.896484 25.682617 33.46875 38.130859 45.130859 49.020508 56.806641 64.592773 72.378906 76.268555 84.054688 91.84082 98.84082 101.95117 108.95117 112.84082 116.73047 123.73047 131.5166 139.30273 146.30273 150.19238 153.30273 161.08887 164.73242 173.28418"
         y="0"
         sodipodi:role="line"
         id="tspan4">Understand basic types in TS</tspan></text>
    <path
       id="path6"
       d="M 8,32 V 305.64001"
       style="fill:none;stroke:#000000;stroke-width:1;stroke-linecap:butt;stroke-linejoin:miter;stroke-miterlimit:10;stroke-dasharray:none;stroke-opacity:1"
       transform="matrix(0.95625378,0,0,0.95625378,0.47812689,0.47812689)"
       clip-path="url(#clipPath7)" />
    <path
       id="path8"
       d="m 8,310.89001 -3.5,-7 3.5,1.75 3.5,-1.75 z"
       style="fill:#000000;fill-opacity:1;fill-rule:nonzero;stroke:#000000;stroke-width:1;stroke-linecap:butt;stroke-linejoin:miter;stroke-miterlimit:10;stroke-dasharray:none;stroke-opacity:1"
       transform="matrix(0.95625378,0,0,0.95625378,0.47812689,0.47812689)"
       clip-path="url(#clipPath9)" />
    <text
       id="text9"
       xml:space="preserve"
       transform="matrix(0.95626338,0,0,0.95626338,135.31127,18.169004)"
       clip-path="url(#clipPath10)"><tspan
         style="font-variant:normal;font-weight:700;font-size:19px;font-family:Helvetica;writing-mode:lr-tb;fill:#000000;fill-opacity:1;fill-rule:nonzero;stroke:none"
         x="0 13.721191 25.327148 36.933105 44.327148 54.894043 65.460938 70.739746 85.518555 97.124512 107.69141"
         y="0"
         sodipodi:role="line"
         id="tspan9">Course Goal</tspan></text>
    <path
       id="path11"
       d="m 18,152 h 360 v 30 H 18 Z"
       style="fill:#ffffff;fill-opacity:1;fill-rule:nonzero;stroke:#000000;stroke-width:1;stroke-linecap:butt;stroke-linejoin:miter;stroke-miterlimit:10;stroke-dasharray:none;stroke-opacity:1"
       transform="matrix(0.95625378,0,0,0.95625378,0.47812689,0.47812689)"
       clip-path="url(#clipPath12)" />
    <text
       id="text12"
       xml:space="preserve"
       transform="matrix(0.95626338,0,0,0.95626338,152.6286,164.4773)"
       clip-path="url(#clipPath13)"><tspan
         style="font-variant:normal;font-weight:normal;font-size:14px;font-family:Helvetica;writing-mode:lr-tb;fill:#000000;fill-opacity:1;fill-rule:nonzero;stroke:none"
         x="0 9.3378906 14 18.662109 26.448242 33.448242 40.448242 44.337891 47.448242 55.234375 58.87793 67.429688"
         y="0"
         sodipodi:role="line"
         id="tspan12">Arrays in TS</tspan></text>
    <path
       id="path14"
       d="m 18,192 h 360 v 30 H 18 Z"
       style="fill:#ffffff;fill-opacity:1;fill-rule:nonzero;stroke:#000000;stroke-width:1;stroke-linecap:butt;stroke-linejoin:miter;stroke-miterlimit:10;stroke-dasharray:none;stroke-opacity:1"
       transform="matrix(0.95625378,0,0,0.95625378,0.47812689,0.47812689)"
       clip-path="url(#clipPath15)" />
    <text
       id="text15"
       xml:space="preserve"
       transform="matrix(0.95626338,0,0,0.95626338,137.62722,202.72784)"
       clip-path="url(#clipPath16)"><tspan
         style="font-variant:normal;font-weight:normal;font-size:14px;font-family:Helvetica;writing-mode:lr-tb;fill:#000000;fill-opacity:1;fill-rule:nonzero;stroke:none"
         x="0 11.662109 19.448242 27.234375 35.020508 38.130859 45.916992 52.916992 56.806641 63.806641 70.806641 77.806641 81.696289 89.482422 101.14453"
         y="0"
         sodipodi:role="line"
         id="tspan15">Modules systems</tspan></text>
    <path
       id="path17"
       d="m 18,232 h 360 v 30 H 18 Z"
       style="fill:#ffffff;fill-opacity:1;fill-rule:nonzero;stroke:#000000;stroke-width:1;stroke-linecap:butt;stroke-linejoin:miter;stroke-miterlimit:10;stroke-dasharray:none;stroke-opacity:1"
       transform="matrix(0.95625378,0,0,0.95625378,0.47812689,0.47812689)"
       clip-path="url(#clipPath18)" />
    <text
       id="text18"
       xml:space="preserve"
       transform="matrix(0.95626338,0,0,0.95626338,102.4696,240.97837)"
       clip-path="url(#clipPath19)"><tspan
         style="font-variant:normal;font-weight:normal;font-size:14px;font-family:Helvetica;writing-mode:lr-tb;fill:#000000;fill-opacity:1;fill-rule:nonzero;stroke:none"
         x="0 10.110352 13.220703 21.006836 28.006836 35.006836 42.792969 49.792969 53.682617 61.858398 65.748047 75.858398 83.644531 87.53418 92.196289 99.982422 106.98242 114.76855 122.55469 127.2168 131.10645 138.89258 146.67871 150.56836 161.45801 172.34766"
         y="0"
         sodipodi:role="line"
         id="tspan18">Classes + Refresher on OOP</tspan></text>
    <path
       id="path20"
       d="m 18,72 h 360 v 30 H 18 Z"
       style="fill:#ffffff;fill-opacity:1;fill-rule:nonzero;stroke:#000000;stroke-width:1;stroke-linecap:butt;stroke-linejoin:miter;stroke-miterlimit:10;stroke-dasharray:none;stroke-opacity:1"
       transform="matrix(0.95625378,0,0,0.95625378,0.47812689,0.47812689)"
       clip-path="url(#clipPath21)" />
    <text
       id="text21"
       xml:space="preserve"
       transform="matrix(0.95626338,0,0,0.95626338,101.69263,87.976231)"
       clip-path="url(#clipPath22)"><tspan
         style="font-variant:normal;font-weight:normal;font-size:14px;font-family:Helvetica;writing-mode:lr-tb;fill:#000000;fill-opacity:1;fill-rule:nonzero;stroke:none"
         x="0 8.5517578 16.337891 24.124023 31.124023 35.013672 38.124023 45.910156 53.696289 57.585938 61.475586 68.475586 76.261719 79.37207 87.158203 94.944336 98.833984 107.00977 110.89941 118.68555 126.47168 134.25781 142.04395 145.93359 153.71973 157.60938 160.71973 168.50586 176.29199"
         y="0"
         sodipodi:role="line"
         id="tspan21">Function typing + annotations</tspan></text>
    <path
       id="path23"
       d="m 18,272 h 360 v 30 H 18 Z"
       style="fill:#ffffff;fill-opacity:1;fill-rule:nonzero;stroke:#000000;stroke-width:1;stroke-linecap:butt;stroke-linejoin:miter;stroke-miterlimit:10;stroke-dasharray:none;stroke-opacity:1"
       transform="matrix(0.95625378,0,0,0.95625378,0.47812689,0.47812689)"
       clip-path="url(#clipPath24)" />
    <text
       id="text24"
       xml:space="preserve"
       transform="matrix(0.95626338,0,0,0.95626338,165.14968,279.22891)"
       clip-path="url(#clipPath25)"><tspan
         style="font-variant:normal;font-weight:normal;font-size:14px;font-family:Helvetica;writing-mode:lr-tb;fill:#000000;fill-opacity:1;fill-rule:nonzero;stroke:none"
         x="0 9.3378906 14 21.786133 24.896484 32.682617 39.682617 43.572266"
         y="0"
         sodipodi:role="line"
         id="tspan24">Projects</tspan></text>
    <path
       id="path26"
       d="m 18,112 h 360 v 30 H 18 Z"
       style="fill:#ffffff;fill-opacity:1;fill-rule:nonzero;stroke:#000000;stroke-width:1;stroke-linecap:butt;stroke-linejoin:miter;stroke-miterlimit:10;stroke-dasharray:none;stroke-opacity:1"
       transform="matrix(0.95625378,0,0,0.95625378,0.47812689,0.47812689)"
       clip-path="url(#clipPath27)" />
    <g
       id="g27" />
    <g
       id="g28" />
    <text
       id="text28"
       xml:space="preserve"
       transform="matrix(0.95626338,0,0,0.95626338,132.39765,126.22677)"
       clip-path="url(#clipPath28)"><tspan
         style="font-variant:normal;font-weight:normal;font-size:14px;font-family:Helvetica;writing-mode:lr-tb;fill:#000000;fill-opacity:1;fill-rule:nonzero;stroke:none"
         x="0 7.7861328 14.786133 22.572266 30.358398 34.248047 42.03418 49.820312 56.820312 64.606445 67.716797 71.606445 74.716797 82.50293 90.289062 94.178711 101.17871 104.28906 112.0752"
         y="0"
         sodipodi:role="line"
         id="tspan28">Type deﬁnition ﬁles</tspan></text>
    <path
       id="path29"
       d="m 418,32 h -7.5 c -5,0 -7.5,3.333332 -7.5,10 v 95 c 0,6.66667 -2.5,10 -7.5,10 h -3.75 c -2.5,0 -1.25,0 3.75,0 h 3.75 c 2.5,0 3.75,3.33333 3.75,10 v 95 c 0,6.66666 2.5,10 7.5,10 h 7.5"
       style="fill:none;stroke:#000000;stroke-width:1;stroke-linecap:butt;stroke-linejoin:miter;stroke-miterlimit:10;stroke-dasharray:none;stroke-opacity:1"
       transform="matrix(-0.95625378,0,0,-0.95625378,771.21862,281.61675)"
       clip-path="url(#clipPath30)" />
    <path
       id="path31"
       d="m 418,129.5 h 120 v 35 H 418 Z"
       style="fill:#fff2cc;fill-opacity:1;fill-rule:nonzero;stroke:#d6b656;stroke-width:1;stroke-linecap:butt;stroke-linejoin:miter;stroke-miterlimit:10;stroke-dasharray:none;stroke-opacity:1"
       transform="matrix(0.95625378,0,0,0.95625378,0.47812689,0.47812689)"
       clip-path="url(#clipPath32)" />
    <text
       id="text32"
       xml:space="preserve"
       transform="matrix(0.95626338,0,0,0.95626338,402.57195,145.35203)"
       clip-path="url(#clipPath33)"><tspan
         style="font-style:oblique;font-variant:normal;font-weight:normal;font-size:14px;font-family:Helvetica;writing-mode:lr-tb;fill:#000000;fill-opacity:1;fill-rule:nonzero;stroke:none"
         x="0 9.3378906 16.337891 24.124023 28.013672 35.799805 42.799805 46.689453 54.865234 58.754883 67.306641 75.092773 82.878906 86.768555 94.554688 99.216797 107.00293"
         y="0"
         sodipodi:role="line"
         id="tspan32">Syntax + Features</tspan></text>
    <path
       id="path34"
       d="m 418,272 h -7.5 c -5,0 -7.5,2.5 -7.5,7.5 v 3.75 c 0,2.5 -2.5,3.75 -7.5,3.75 h -3.75 c -2.5,0 -1.25,0 3.75,0 h 3.75 c 2.5,0 3.75,2.5 3.75,7.5 v 3.75 c 0,2.5 2.5,3.75 7.5,3.75 h 7.5"
       style="fill:none;stroke:#000000;stroke-width:1;stroke-linecap:butt;stroke-linejoin:miter;stroke-miterlimit:10;stroke-dasharray:none;stroke-opacity:1"
       transform="matrix(-0.95625378,0,0,-0.95625378,771.21862,549.36779)"
       clip-path="url(#clipPath35)" />
    <path
       id="path36"
       d="m 418,269.5 h 120 v 35 H 418 Z"
       style="fill:#d5e8d4;fill-opacity:1;fill-rule:nonzero;stroke:#82b366;stroke-width:1;stroke-linecap:butt;stroke-linejoin:miter;stroke-miterlimit:10;stroke-dasharray:none;stroke-opacity:1"
       transform="matrix(0.95625378,0,0,0.95625378,0.47812689,0.47812689)"
       clip-path="url(#clipPath37)" />
    <text
       id="text37"
       xml:space="preserve"
       transform="matrix(0.95626338,0,0,0.95626338,409.46003,279.22891)"
       clip-path="url(#clipPath38)"><tspan
         style="font-style:oblique;font-variant:normal;font-weight:normal;font-size:14px;font-family:Helvetica;writing-mode:lr-tb;fill:#000000;fill-opacity:1;fill-rule:nonzero;stroke:none"
         x="0 10.110352 17.896484 24.896484 28.006836 35.792969 43.579102 47.46875 56.806641 64.592773 68.482422 72.37207 80.158203 84.820312 92.606445"
         y="0"
         sodipodi:role="line"
         id="tspan37">Design Patterns</tspan></text>
  </g>
</svg>
