<?xml version="1.0" encoding="UTF-8" standalone="no"?>
<!-- Created with Inkscape (http://www.inkscape.org/) -->

<svg
   version="1.1"
   id="svg1"
   width="242.56"
   height="147.84"
   viewBox="0 0 242.56 147.84"
   sodipodi:docname="ts-3.pdf"
   xmlns:inkscape="http://www.inkscape.org/namespaces/inkscape"
   xmlns:sodipodi="http://sodipodi.sourceforge.net/DTD/sodipodi-0.dtd"
   xmlns="http://www.w3.org/2000/svg"
   xmlns:svg="http://www.w3.org/2000/svg">
  <defs
     id="defs1">
    <clipPath
       clipPathUnits="userSpaceOnUse"
       id="clipPath2">
      <path
         d="M 0,0 H 758.33331 V 459.77689 H 0 Z"
         transform="scale(0.33494507)"
         clip-rule="evenodd"
         id="path2" />
    </clipPath>
    <clipPath
       clipPathUnits="userSpaceOnUse"
       id="clipPath4">
      <path
         d="M 0,0 H 758.33331 V 459.77689 H 0 Z"
         transform="matrix(0.33494507,0,0,0.33494507,-0.50000001,-0.50000001)"
         clip-rule="evenodd"
         id="path4" />
    </clipPath>
    <clipPath
       clipPathUnits="userSpaceOnUse"
       id="clipPath6">
      <path
         d="M 0,0 H 758.33331 V 459.77689 H 0 Z"
         transform="matrix(0.33494507,0,0,0.33494507,-0.50000001,-0.50000001)"
         clip-rule="evenodd"
         id="path6" />
    </clipPath>
    <clipPath
       clipPathUnits="userSpaceOnUse"
       id="clipPath8">
      <path
         d="M 0,0 H 758.33331 V 459.77689 H 0 Z"
         transform="matrix(0.33494507,0,0,0.33494507,-0.50000001,-0.50000001)"
         clip-rule="evenodd"
         id="path8" />
    </clipPath>
    <clipPath
       clipPathUnits="userSpaceOnUse"
       id="clipPath9">
      <path
         d="M 0,0 H 758.33331 V 459.77689 H 0 Z"
         transform="matrix(0.33494172,0,0,0.33494172,-20.546875,-36)"
         clip-rule="evenodd"
         id="path9" />
    </clipPath>
    <clipPath
       clipPathUnits="userSpaceOnUse"
       id="clipPath11">
      <path
         d="M 0,0 H 758.33331 V 459.77689 H 0 Z"
         transform="matrix(0.33494507,0,0,0.33494507,-0.50000001,-0.50000001)"
         clip-rule="evenodd"
         id="path11" />
    </clipPath>
    <clipPath
       clipPathUnits="userSpaceOnUse"
       id="clipPath12">
      <path
         d="M 0,0 H 758.33331 V 459.77689 H 0 Z"
         transform="matrix(0.33494172,0,0,0.33494172,-43.109376,-126.00001)"
         clip-rule="evenodd"
         id="path12" />
    </clipPath>
  </defs>
  <sodipodi:namedview
     id="namedview1"
     pagecolor="#ffffff"
     bordercolor="#000000"
     borderopacity="0.25"
     inkscape:showpageshadow="2"
     inkscape:pageopacity="0.0"
     inkscape:pagecheckerboard="0"
     inkscape:deskcolor="#d1d1d1">
    <inkscape:page
       x="0"
       y="0"
       inkscape:label="1"
       id="page1"
       width="242.56"
       height="147.84"
       margin="0"
       bleed="0" />
  </sodipodi:namedview>
  <g
     id="g1"
     inkscape:groupmode="layer"
     inkscape:label="1">
    <path
       id="path1"
       d="M 0,0 H 254 V 154 H 0 Z"
       style="fill:#ffffff;fill-opacity:1;fill-rule:nonzero;stroke:none"
       transform="scale(0.9553805)"
       clip-path="url(#clipPath2)" />
    <path
       id="path3"
       d="M 126,61 V 84.629997"
       style="fill:none;stroke:#000000;stroke-width:1;stroke-linecap:butt;stroke-linejoin:miter;stroke-miterlimit:10;stroke-dasharray:none;stroke-opacity:1"
       transform="matrix(0.9553805,0,0,0.9553805,0.47769026,0.47769026)"
       clip-path="url(#clipPath4)" />
    <path
       id="path5"
       d="m 126,89.879997 -3.5,-7 3.5,1.75 3.5,-1.75 z"
       style="fill:#000000;fill-opacity:1;fill-rule:nonzero;stroke:#000000;stroke-width:1;stroke-linecap:butt;stroke-linejoin:miter;stroke-miterlimit:10;stroke-dasharray:none;stroke-opacity:1"
       transform="matrix(0.9553805,0,0,0.9553805,0.47769026,0.47769026)"
       clip-path="url(#clipPath6)" />
    <path
       id="path7"
       d="M 1,1 H 251 V 61 H 1 Z"
       style="fill:#d5e8d4;fill-opacity:1;fill-rule:nonzero;stroke:#82b366;stroke-width:1;stroke-linecap:butt;stroke-linejoin:miter;stroke-miterlimit:10;stroke-dasharray:none;stroke-opacity:1"
       transform="matrix(0.9553805,0,0,0.9553805,0.47769026,0.47769026)"
       clip-path="url(#clipPath8)" />
    <text
       id="text8"
       xml:space="preserve"
       transform="matrix(0.95539004,0,0,0.95539004,19.63028,34.394041)"
       clip-path="url(#clipPath9)"><tspan
         style="font-variant:normal;font-weight:normal;font-size:14px;font-family:Helvetica;writing-mode:lr-tb;fill:#000000;fill-opacity:1;fill-rule:nonzero;stroke:none"
         x="0 10.889648 18.675781 22.56543 26.455078 29.56543 37.351562 45.137695 49.027344 56.813477 64.599609 69.261719 77.047852 84.833984 88.723633 98.833984 101.94434 105.83398 113.62012 117.50977 125.2959 133.08203 137.74414 140.85449 147.85449 151.74414 158.74414 166.53027 173.53027 177.41992 180.53027 188.31641 196.10254 203.10254"
         y="0"
         sodipodi:role="line"
         id="tspan8">Getting bored with early sections?</tspan></text>
    <path
       id="path10"
       d="m 1,91 h 250 v 60 H 1 Z"
       style="fill:#d5e8d4;fill-opacity:1;fill-rule:nonzero;stroke:#82b366;stroke-width:1;stroke-linecap:butt;stroke-linejoin:miter;stroke-miterlimit:10;stroke-dasharray:none;stroke-opacity:1"
       transform="matrix(0.9553805,0,0,0.9553805,0.47769026,0.47769026)"
       clip-path="url(#clipPath11)" />
    <text
       id="text11"
       xml:space="preserve"
       transform="matrix(0.95539004,0,0,0.95539004,41.186268,120.37915)"
       clip-path="url(#clipPath12)"><tspan
         style="font-variant:normal;font-weight:normal;font-size:14px;font-family:Helvetica;writing-mode:lr-tb;fill:#000000;fill-opacity:1;fill-rule:nonzero;stroke:none"
         x="0 9.3378906 16.337891 19.448242 27.234375 31.124023 38.910156 46.696289 54.482422 62.268555 70.054688 73.944336 77.833984 85.620117 89.509766 93.399414 101.18555 108.97168 112.86133 120.64746 125.30957 133.0957 136.20605 143.99219 150.99219 154.88184 161.88184"
         y="0"
         sodipodi:role="line"
         id="tspan11">Skip ahead to the projects!</tspan></text>
  </g>
</svg>
