<?xml version="1.0" encoding="UTF-8" standalone="no"?>
<!-- Created with Inkscape (http://www.inkscape.org/) -->

<svg
   version="1.1"
   id="svg1"
   width="549.44"
   height="101.44"
   viewBox="0 0 549.44 101.44"
   sodipodi:docname="ts-5.pdf"
   xmlns:inkscape="http://www.inkscape.org/namespaces/inkscape"
   xmlns:sodipodi="http://sodipodi.sourceforge.net/DTD/sodipodi-0.dtd"
   xmlns="http://www.w3.org/2000/svg"
   xmlns:svg="http://www.w3.org/2000/svg">
  <defs
     id="defs1">
    <clipPath
       clipPathUnits="userSpaceOnUse"
       id="clipPath2">
      <path
         d="M 0,0 H 1716.6666 V 314.02438 H 0 Z"
         transform="scale(0.33436894)"
         clip-rule="evenodd"
         id="path2" />
    </clipPath>
    <clipPath
       clipPathUnits="userSpaceOnUse"
       id="clipPath4">
      <path
         d="M 0,0 H 1716.6666 V 311.03366 H 0 Z"
         transform="matrix(0.33436894,0,0,0.33436894,-0.49999999,-0.49999999)"
         clip-rule="evenodd"
         id="path4" />
    </clipPath>
    <clipPath
       clipPathUnits="userSpaceOnUse"
       id="clipPath6">
      <path
         d="M 0,0 H 1716.6666 V 311.03366 H 0 Z"
         transform="matrix(0.33436894,0,0,0.33436894,-0.49999999,-0.49999999)"
         clip-rule="evenodd"
         id="path6" />
    </clipPath>
    <clipPath
       clipPathUnits="userSpaceOnUse"
       id="clipPath8">
      <path
         d="M 0,0 H 1716.6666 V 311.03366 H 0 Z"
         transform="matrix(0.33436894,0,0,0.33436894,-0.49999999,-0.49999999)"
         clip-rule="evenodd"
         id="path8" />
    </clipPath>
    <clipPath
       clipPathUnits="userSpaceOnUse"
       id="clipPath9">
      <path
         d="M 0,0 H 1716.6666 V 311.03366 H 0 Z"
         transform="matrix(0.33436559,0,0,0.33436559,-39.3125,-57.999999)"
         clip-rule="evenodd"
         id="path9" />
    </clipPath>
    <clipPath
       clipPathUnits="userSpaceOnUse"
       id="clipPath11">
      <path
         d="M 0,0 H 1716.6666 V 311.03366 H 0 Z"
         transform="matrix(0.33436894,0,0,0.33436894,-0.49999999,-0.49999999)"
         clip-rule="evenodd"
         id="path11" />
    </clipPath>
    <clipPath
       clipPathUnits="userSpaceOnUse"
       id="clipPath12">
      <path
         d="M 0,0 H 1716.6666 V 311.03366 H 0 Z"
         transform="matrix(0.33436559,0,0,0.33436559,-179.96875,-45.999999)"
         clip-rule="evenodd"
         id="path12" />
    </clipPath>
    <clipPath
       clipPathUnits="userSpaceOnUse"
       id="clipPath13">
      <path
         d="M 0,0 H 1716.6666 V 311.03366 H 0 Z"
         transform="matrix(0.33436559,0,0,0.33436559,-248.96875,-69.999999)"
         clip-rule="evenodd"
         id="path13" />
    </clipPath>
  </defs>
  <sodipodi:namedview
     id="namedview1"
     pagecolor="#ffffff"
     bordercolor="#000000"
     borderopacity="0.25"
     inkscape:showpageshadow="2"
     inkscape:pageopacity="0.0"
     inkscape:pagecheckerboard="0"
     inkscape:deskcolor="#d1d1d1">
    <inkscape:page
       x="0"
       y="0"
       inkscape:label="1"
       id="page1"
       width="549.44"
       height="101.44"
       margin="0"
       bleed="0" />
  </sodipodi:namedview>
  <g
     id="g1"
     inkscape:groupmode="layer"
     inkscape:label="1">
    <path
       id="path1"
       d="M 0,0 H 574 V 105 H 0 Z"
       style="fill:#ffffff;fill-opacity:1;fill-rule:nonzero;stroke:none"
       transform="scale(0.95702665)"
       clip-path="url(#clipPath2)" />
    <path
       id="path3"
       d="m 121,51 h 25 18.63"
       style="fill:none;stroke:#000000;stroke-width:1;stroke-linecap:butt;stroke-linejoin:miter;stroke-miterlimit:10;stroke-dasharray:none;stroke-opacity:1"
       transform="matrix(0.95702665,0,0,0.95702665,0.47851332,0.47851332)"
       clip-path="url(#clipPath4)" />
    <path
       id="path5"
       d="m 169.88,51 -7,3.5 1.75,-3.5 -1.75,-3.5 z"
       style="fill:#000000;fill-opacity:1;fill-rule:nonzero;stroke:#000000;stroke-width:1;stroke-linecap:butt;stroke-linejoin:miter;stroke-miterlimit:10;stroke-dasharray:none;stroke-opacity:1"
       transform="matrix(0.95702665,0,0,0.95702665,0.47851332,0.47851332)"
       clip-path="url(#clipPath6)" />
    <path
       id="path7"
       d="M 1,21 H 121 V 81 H 1 Z"
       style="fill:#ffffff;fill-opacity:1;fill-rule:nonzero;stroke:#000000;stroke-width:1;stroke-linecap:butt;stroke-linejoin:miter;stroke-miterlimit:10;stroke-dasharray:none;stroke-opacity:1"
       transform="matrix(0.95702665,0,0,0.95702665,0.47851332,0.47851332)"
       clip-path="url(#clipPath8)" />
    <text
       id="text8"
       xml:space="preserve"
       transform="matrix(0.95703625,0,0,0.95703625,37.623488,55.508102)"
       clip-path="url(#clipPath9)"><tspan
         style="font-variant:normal;font-weight:normal;font-size:20px;font-family:Helvetica;writing-mode:lr-tb;fill:#000000;fill-opacity:1;fill-rule:nonzero;stroke:none"
         x="0 11.123047 21.123047 32.246094"
         y="0"
         sodipodi:role="line"
         id="tspan8">Type</tspan></text>
    <path
       id="path10"
       d="M 171,1 H 571 V 101 H 171 Z"
       style="fill:#dae8fc;fill-opacity:1;fill-rule:nonzero;stroke:#6c8ebf;stroke-width:1;stroke-linecap:butt;stroke-linejoin:miter;stroke-miterlimit:10;stroke-dasharray:none;stroke-opacity:1"
       transform="matrix(0.95702665,0,0,0.95702665,0.47851332,0.47851332)"
       clip-path="url(#clipPath11)" />
    <text
       id="text11"
       xml:space="preserve"
       transform="matrix(0.95703625,0,0,0.95703625,172.23662,44.023667)"
       clip-path="url(#clipPath12)"><tspan
         style="font-style:oblique;font-variant:normal;font-weight:normal;font-size:20px;font-family:Helvetica;writing-mode:lr-tb;fill:#000000;fill-opacity:1;fill-rule:nonzero;stroke:none"
         x="0 13.339844 24.462891 34.462891 44.462891 50.019531 64.462891 75.585938 85.585938 91.142578 96.699219 107.82227 113.37891 120.03906 131.16211 136.71875 147.8418 154.50195 160.05859 165.61523 176.73828 182.29492 187.85156 198.97461 210.09766 215.6543 226.77734 231.2207 236.42578 241.98242 253.10547 259.76562 270.88867 282.01172 287.56836 293.125 304.24805 310.9082 322.03125 333.1543 344.27734 350.9375 356.49414 360.9375 372.06055"
         y="0"
         sodipodi:role="line"
         id="tspan11">Easy way to refer to the different properties</tspan></text>
    <text
       id="text12"
       xml:space="preserve"
       transform="matrix(0.95703625,0,0,0.95703625,238.27212,66.992537)"
       clip-path="url(#clipPath13)"><tspan
         style="font-style:oblique;font-variant:normal;font-weight:normal;font-size:20px;font-family:Helvetica;writing-mode:lr-tb;fill:#000000;fill-opacity:1;fill-rule:nonzero;stroke:none"
         x="0 11.679688 17.236328 22.792969 33.916016 45.039062 55.039062 60.595703 65.039062 76.162109 87.285156 97.285156 102.8418 108.39844 119.52148 130.64453 136.20117 141.75781 152.88086 158.4375 168.4375 179.56055 184.00391 195.12695 206.25 211.80664 222.92969 234.05273"
         y="0"
         sodipodi:role="line"
         id="tspan12">+ functions that a value has</tspan></text>
  </g>
</svg>
