<?xml version="1.0" encoding="UTF-8" standalone="no"?>
<!-- Created with Inkscape (http://www.inkscape.org/) -->

<svg
   version="1.1"
   id="svg1"
   width="425.28"
   height="384"
   viewBox="0 0 425.28 384"
   sodipodi:docname="ts-7.pdf"
   xmlns:inkscape="http://www.inkscape.org/namespaces/inkscape"
   xmlns:sodipodi="http://sodipodi.sourceforge.net/DTD/sodipodi-0.dtd"
   xmlns="http://www.w3.org/2000/svg"
   xmlns:svg="http://www.w3.org/2000/svg">
  <defs
     id="defs1">
    <clipPath
       clipPathUnits="userSpaceOnUse"
       id="clipPath2">
      <path
         d="M 0,0 H 1329.1666 V 1197.4474 H 0 Z"
         transform="scale(0.3340439)"
         clip-rule="evenodd"
         id="path2" />
    </clipPath>
    <clipPath
       clipPathUnits="userSpaceOnUse"
       id="clipPath4">
      <path
         d="M 0,0 H 1329.1666 V 1194.4537 H 0 Z"
         transform="matrix(0.3340439,0,0,0.3340439,-0.5,-0.5)"
         clip-rule="evenodd"
         id="path4" />
    </clipPath>
    <clipPath
       clipPathUnits="userSpaceOnUse"
       id="clipPath5">
      <path
         d="M 0,0 H 1329.1666 V 1194.4537 H 0 Z"
         transform="matrix(0.33404055,0,0,0.33404055,-37.90625,-182)"
         clip-rule="evenodd"
         id="path5" />
    </clipPath>
    <clipPath
       clipPathUnits="userSpaceOnUse"
       id="clipPath6">
      <path
         d="M 0,0 H 1329.1666 V 1194.4537 H 0 Z"
         transform="matrix(0.33404055,0,0,0.33404055,-11.234375,-206)"
         clip-rule="evenodd"
         id="path6" />
    </clipPath>
    <clipPath
       clipPathUnits="userSpaceOnUse"
       id="clipPath7">
      <path
         d="M 0,0 H 1329.1666 V 1194.4537 H 0 Z"
         transform="matrix(0.33404055,0,0,0.33404055,-52.09375,-230)"
         clip-rule="evenodd"
         id="path7" />
    </clipPath>
    <clipPath
       clipPathUnits="userSpaceOnUse"
       id="clipPath9">
      <path
         d="M 0,0 H 1329.1666 V 1194.4537 H 0 Z"
         transform="matrix(0.3340439,0,0,0.3340439,-0.5,-0.5)"
         clip-rule="evenodd"
         id="path9" />
    </clipPath>
    <clipPath
       clipPathUnits="userSpaceOnUse"
       id="clipPath11">
      <path
         d="M 0,0 H 1329.1666 V 1194.4537 H 0 Z"
         transform="matrix(0.3340439,0,0,0.3340439,-0.5,-0.5)"
         clip-rule="evenodd"
         id="path11" />
    </clipPath>
    <clipPath
       clipPathUnits="userSpaceOnUse"
       id="clipPath12">
      <path
         d="M 0,0 H 1329.1666 V 1194.4537 H 0 Z"
         transform="matrix(0.33404055,0,0,0.33404055,-310.4375,-25.999999)"
         clip-rule="evenodd"
         id="path12" />
    </clipPath>
    <clipPath
       clipPathUnits="userSpaceOnUse"
       id="clipPath14">
      <path
         d="M 0,0 H 1329.1666 V 1194.4537 H 0 Z"
         transform="matrix(0.3340439,0,0,0.3340439,-0.5,-0.5)"
         clip-rule="evenodd"
         id="path14" />
    </clipPath>
    <clipPath
       clipPathUnits="userSpaceOnUse"
       id="clipPath15">
      <path
         d="M 0,0 H 1329.1666 V 1194.4537 H 0 Z"
         transform="matrix(0.33404055,0,0,0.33404055,-286.53125,-71)"
         clip-rule="evenodd"
         id="path15" />
    </clipPath>
    <clipPath
       clipPathUnits="userSpaceOnUse"
       id="clipPath17">
      <path
         d="M 0,0 H 1329.1666 V 1194.4537 H 0 Z"
         transform="matrix(0.3340439,0,0,0.3340439,-0.5,-0.5)"
         clip-rule="evenodd"
         id="path17" />
    </clipPath>
    <clipPath
       clipPathUnits="userSpaceOnUse"
       id="clipPath18">
      <path
         d="M 0,0 H 1329.1666 V 1194.4537 H 0 Z"
         transform="matrix(0.33404055,0,0,0.33404055,-309.875,-116)"
         clip-rule="evenodd"
         id="path18" />
    </clipPath>
    <clipPath
       clipPathUnits="userSpaceOnUse"
       id="clipPath20">
      <path
         d="M 0,0 H 1329.1666 V 1194.4537 H 0 Z"
         transform="matrix(0.3340439,0,0,0.3340439,-0.5,-0.5)"
         clip-rule="evenodd"
         id="path20" />
    </clipPath>
    <clipPath
       clipPathUnits="userSpaceOnUse"
       id="clipPath21">
      <path
         d="M 0,0 H 1329.1666 V 1194.4537 H 0 Z"
         transform="matrix(0.33404055,0,0,0.33404055,-302.64063,-161)"
         clip-rule="evenodd"
         id="path21" />
    </clipPath>
    <clipPath
       clipPathUnits="userSpaceOnUse"
       id="clipPath23">
      <path
         d="M 0,0 H 1329.1666 V 1194.4537 H 0 Z"
         transform="matrix(0.3340439,0,0,0.3340439,-0.5,-0.5)"
         clip-rule="evenodd"
         id="path23" />
    </clipPath>
    <clipPath
       clipPathUnits="userSpaceOnUse"
       id="clipPath24">
      <path
         d="M 0,0 H 1329.1666 V 1194.4537 H 0 Z"
         transform="matrix(0.33404055,0,0,0.33404055,-297.64063,-206)"
         clip-rule="evenodd"
         id="path24" />
    </clipPath>
    <clipPath
       clipPathUnits="userSpaceOnUse"
       id="clipPath26">
      <path
         d="M 0,0 H 1329.1666 V 1194.4537 H 0 Z"
         transform="matrix(0.3340439,0,0,0.3340439,-0.5,-0.5)"
         clip-rule="evenodd"
         id="path26" />
    </clipPath>
    <clipPath
       clipPathUnits="userSpaceOnUse"
       id="clipPath27">
      <path
         d="M 0,0 H 1329.1666 V 1194.4537 H 0 Z"
         transform="matrix(0.33404055,0,0,0.33404055,-304.875,-251)"
         clip-rule="evenodd"
         id="path27" />
    </clipPath>
    <clipPath
       clipPathUnits="userSpaceOnUse"
       id="clipPath29">
      <path
         d="M 0,0 H 1329.1666 V 1194.4537 H 0 Z"
         transform="matrix(0.3340439,0,0,0.3340439,-0.5,-0.5)"
         clip-rule="evenodd"
         id="path29" />
    </clipPath>
    <clipPath
       clipPathUnits="userSpaceOnUse"
       id="clipPath30">
      <path
         d="M 0,0 H 1329.1666 V 1194.4537 H 0 Z"
         transform="matrix(0.33404055,0,0,0.33404055,-288.75,-296)"
         clip-rule="evenodd"
         id="path30" />
    </clipPath>
    <clipPath
       clipPathUnits="userSpaceOnUse"
       id="clipPath32">
      <path
         d="M 0,0 H 1329.1666 V 1194.4537 H 0 Z"
         transform="matrix(0.3340439,0,0,0.3340439,-0.5,-0.5)"
         clip-rule="evenodd"
         id="path32" />
    </clipPath>
    <clipPath
       clipPathUnits="userSpaceOnUse"
       id="clipPath33">
      <path
         d="M 0,0 H 1329.1666 V 1194.4537 H 0 Z"
         transform="matrix(0.33404055,0,0,0.33404055,-272.07813,-341)"
         clip-rule="evenodd"
         id="path33" />
    </clipPath>
    <clipPath
       clipPathUnits="userSpaceOnUse"
       id="clipPath35">
      <path
         d="M 0,0 H 1329.1666 V 1194.4537 H 0 Z"
         transform="matrix(0.3340439,0,0,0.3340439,-0.5,-0.5)"
         clip-rule="evenodd"
         id="path35" />
    </clipPath>
    <clipPath
       clipPathUnits="userSpaceOnUse"
       id="clipPath36">
      <path
         d="M 0,0 H 1329.1666 V 1194.4537 H 0 Z"
         transform="matrix(0.33404055,0,0,0.33404055,-312.09375,-386)"
         clip-rule="evenodd"
         id="path36" />
    </clipPath>
  </defs>
  <sodipodi:namedview
     id="namedview1"
     pagecolor="#ffffff"
     bordercolor="#000000"
     borderopacity="0.25"
     inkscape:showpageshadow="2"
     inkscape:pageopacity="0.0"
     inkscape:pagecheckerboard="0"
     inkscape:deskcolor="#d1d1d1">
    <inkscape:page
       x="0"
       y="0"
       inkscape:label="1"
       id="page1"
       width="425.28"
       height="384"
       margin="0"
       bleed="0" />
  </sodipodi:namedview>
  <g
     id="g1"
     inkscape:groupmode="layer"
     inkscape:label="1">
    <path
       id="path1"
       d="M 0,0 H 444 V 400 H 0 Z"
       style="fill:#ffffff;fill-opacity:1;fill-rule:nonzero;stroke:none"
       transform="scale(0.95795788)"
       clip-path="url(#clipPath2)" />
    <path
       id="path3"
       d="m 1,153.5 h 190 v 90 H 1 Z"
       style="fill:#dae8fc;fill-opacity:1;fill-rule:nonzero;stroke:#6c8ebf;stroke-width:1;stroke-linecap:butt;stroke-linejoin:miter;stroke-miterlimit:10;stroke-dasharray:none;stroke-opacity:1"
       transform="matrix(0.95795788,0,0,0.95795788,0.47897894,0.47897894)"
       clip-path="url(#clipPath4)" />
    <text
       id="text4"
       xml:space="preserve"
       transform="matrix(0.95796748,0,0,0.95796748,36.312955,174.35008)"
       clip-path="url(#clipPath5)"><tspan
         style="font-variant:normal;font-weight:700;font-size:20px;font-family:Helvetica;writing-mode:lr-tb;fill:#000000;fill-opacity:1;fill-rule:nonzero;stroke:none"
         x="0 13.339844 21.123047 33.339844 45.556641 56.679688 64.462891 71.123047 76.679688 87.802734 98.925781 104.48242"
         y="0"
         sodipodi:role="line"
         id="tspan4">Properties +</tspan></text>
    <text
       id="text5"
       xml:space="preserve"
       transform="matrix(0.95796748,0,0,0.95796748,10.762166,197.3413)"
       clip-path="url(#clipPath6)"><tspan
         style="font-variant:normal;font-weight:700;font-size:20px;font-family:Helvetica;writing-mode:lr-tb;fill:#000000;fill-opacity:1;fill-rule:nonzero;stroke:none"
         x="0 16.660156 27.783203 34.443359 46.660156 58.876953 71.09375 82.216797 87.773438 98.896484 104.45312 109.20898 120.33203 126.99219 134.77539 140.33203 152.54883 164.76562"
         y="0"
         sodipodi:role="line"
         id="tspan5">Methods a 'string'</tspan></text>
    <text
       id="text6"
       xml:space="preserve"
       transform="matrix(0.95796748,0,0,0.95796748,49.904118,220.33252)"
       clip-path="url(#clipPath7)"><tspan
         style="font-variant:normal;font-weight:700;font-size:20px;font-family:Helvetica;writing-mode:lr-tb;fill:#000000;fill-opacity:1;fill-rule:nonzero;stroke:none"
         x="0 12.216797 23.339844 34.462891 40.019531 45.576172 57.792969 63.349609 74.472656"
         y="0"
         sodipodi:role="line"
         id="tspan6">has in JS</tspan></text>
    <path
       id="path8"
       d="m 241,1 h -15 c -6.66667,0 -10,3.333333 -10,10 v 177.5 c 0,6.66667 -3.33333,10 -10,10 h -7.5 c -5,0 -4.16667,0 2.5,0 h 7.5 c 5,0 7.5,3.33333 7.5,10 V 386 c 0,6.66666 3.33333,10 10,10 h 15"
       style="fill:none;stroke:#000000;stroke-width:1;stroke-linecap:butt;stroke-linejoin:miter;stroke-miterlimit:10;stroke-dasharray:none;stroke-opacity:1"
       transform="matrix(0.95795788,0,0,0.95795788,0.47897894,0.47897894)"
       clip-path="url(#clipPath9)" />
    <path
       id="path10"
       d="M 251,1 H 441 V 36 H 251 Z"
       style="fill:#ffffff;fill-opacity:1;fill-rule:nonzero;stroke:#000000;stroke-width:1;stroke-linecap:butt;stroke-linejoin:miter;stroke-miterlimit:10;stroke-dasharray:none;stroke-opacity:1"
       transform="matrix(0.95795788,0,0,0.95795788,0.47897894,0.47897894)"
       clip-path="url(#clipPath11)" />
    <text
       id="text11"
       xml:space="preserve"
       transform="matrix(0.95796748,0,0,0.95796748,297.38903,24.907154)"
       clip-path="url(#clipPath12)"><tspan
         style="font-variant:normal;font-weight:normal;font-size:20px;font-family:Helvetica;writing-mode:lr-tb;fill:#000000;fill-opacity:1;fill-rule:nonzero;stroke:none"
         x="0 10 21.123047 32.246094 38.90625 52.246094 57.802734 64.462891"
         y="0"
         sodipodi:role="line"
         id="tspan11">charAt()</tspan></text>
    <path
       id="path13"
       d="M 251,46 H 441 V 81 H 251 Z"
       style="fill:#ffffff;fill-opacity:1;fill-rule:nonzero;stroke:#000000;stroke-width:1;stroke-linecap:butt;stroke-linejoin:miter;stroke-miterlimit:10;stroke-dasharray:none;stroke-opacity:1"
       transform="matrix(0.95795788,0,0,0.95795788,0.47897894,0.47897894)"
       clip-path="url(#clipPath14)" />
    <text
       id="text14"
       xml:space="preserve"
       transform="matrix(0.95796748,0,0,0.95796748,274.48762,68.015691)"
       clip-path="url(#clipPath15)"><tspan
         style="font-variant:normal;font-weight:normal;font-size:20px;font-family:Helvetica;writing-mode:lr-tb;fill:#000000;fill-opacity:1;fill-rule:nonzero;stroke:none"
         x="0 10 21.123047 32.246094 38.90625 53.349609 64.472656 75.595703 86.71875 100.05859 105.61523 112.27539"
         y="0"
         sodipodi:role="line"
         id="tspan14">charCodeAt()</tspan></text>
    <path
       id="path16"
       d="m 251,91 h 190 v 35 H 251 Z"
       style="fill:#ffffff;fill-opacity:1;fill-rule:nonzero;stroke:#000000;stroke-width:1;stroke-linecap:butt;stroke-linejoin:miter;stroke-miterlimit:10;stroke-dasharray:none;stroke-opacity:1"
       transform="matrix(0.95795788,0,0,0.95795788,0.47897894,0.47897894)"
       clip-path="url(#clipPath17)" />
    <text
       id="text17"
       xml:space="preserve"
       transform="matrix(0.95796748,0,0,0.95796748,296.85017,111.12423)"
       clip-path="url(#clipPath18)"><tspan
         style="font-variant:normal;font-weight:normal;font-size:20px;font-family:Helvetica;writing-mode:lr-tb;fill:#000000;fill-opacity:1;fill-rule:nonzero;stroke:none"
         x="0 10 21.123047 32.246094 42.246094 53.369141 58.925781 65.585938"
         y="0"
         sodipodi:role="line"
         id="tspan17">concat()</tspan></text>
    <path
       id="path19"
       d="m 251,136 h 190 v 35 H 251 Z"
       style="fill:#ffffff;fill-opacity:1;fill-rule:nonzero;stroke:#000000;stroke-width:1;stroke-linecap:butt;stroke-linejoin:miter;stroke-miterlimit:10;stroke-dasharray:none;stroke-opacity:1"
       transform="matrix(0.95795788,0,0,0.95795788,0.47897894,0.47897894)"
       clip-path="url(#clipPath20)" />
    <text
       id="text20"
       xml:space="preserve"
       transform="matrix(0.95796748,0,0,0.95796748,289.91988,154.23276)"
       clip-path="url(#clipPath21)"><tspan
         style="font-variant:normal;font-weight:normal;font-size:20px;font-family:Helvetica;writing-mode:lr-tb;fill:#000000;fill-opacity:1;fill-rule:nonzero;stroke:none"
         x="0 4.4433594 15.566406 25.566406 30.009766 41.132812 52.255859 63.378906 73.378906 80.039062"
         y="0"
         sodipodi:role="line"
         id="tspan20">includes()</tspan></text>
    <path
       id="path22"
       d="m 251,181 h 190 v 35 H 251 Z"
       style="fill:#ffffff;fill-opacity:1;fill-rule:nonzero;stroke:#000000;stroke-width:1;stroke-linecap:butt;stroke-linejoin:miter;stroke-miterlimit:10;stroke-dasharray:none;stroke-opacity:1"
       transform="matrix(0.95795788,0,0,0.95795788,0.47897894,0.47897894)"
       clip-path="url(#clipPath23)" />
    <text
       id="text23"
       xml:space="preserve"
       transform="matrix(0.95796748,0,0,0.95796748,285.13004,197.3413)"
       clip-path="url(#clipPath24)"><tspan
         style="font-variant:normal;font-weight:normal;font-size:20px;font-family:Helvetica;writing-mode:lr-tb;fill:#000000;fill-opacity:1;fill-rule:nonzero;stroke:none"
         x="0 11.123047 22.246094 33.369141 43.369141 62.246094 66.689453 72.246094 83.369141 90.029297"
         y="0"
         sodipodi:role="line"
         id="tspan23">endsWith()</tspan></text>
    <path
       id="path25"
       d="m 251,226 h 190 v 35 H 251 Z"
       style="fill:#ffffff;fill-opacity:1;fill-rule:nonzero;stroke:#000000;stroke-width:1;stroke-linecap:butt;stroke-linejoin:miter;stroke-miterlimit:10;stroke-dasharray:none;stroke-opacity:1"
       transform="matrix(0.95795788,0,0,0.95795788,0.47897894,0.47897894)"
       clip-path="url(#clipPath26)" />
    <text
       id="text26"
       xml:space="preserve"
       transform="matrix(0.95796748,0,0,0.95796748,292.06034,240.44984)"
       clip-path="url(#clipPath27)"><tspan
         style="font-variant:normal;font-weight:normal;font-size:20px;font-family:Helvetica;writing-mode:lr-tb;fill:#000000;fill-opacity:1;fill-rule:nonzero;stroke:none"
         x="0 4.4433594 15.566406 26.689453 37.8125 47.8125 63.369141 68.925781 75.585938"
         y="0"
         sodipodi:role="line"
         id="tspan26">indexOf()</tspan></text>
    <path
       id="path28"
       d="m 251,271 h 190 v 35 H 251 Z"
       style="fill:#ffffff;fill-opacity:1;fill-rule:nonzero;stroke:#000000;stroke-width:1;stroke-linecap:butt;stroke-linejoin:miter;stroke-miterlimit:10;stroke-dasharray:none;stroke-opacity:1"
       transform="matrix(0.95795788,0,0,0.95795788,0.47897894,0.47897894)"
       clip-path="url(#clipPath29)" />
    <text
       id="text29"
       xml:space="preserve"
       transform="matrix(0.95796748,0,0,0.95796748,276.61311,283.55837)"
       clip-path="url(#clipPath30)"><tspan
         style="font-variant:normal;font-weight:normal;font-size:20px;font-family:Helvetica;writing-mode:lr-tb;fill:#000000;fill-opacity:1;fill-rule:nonzero;stroke:none"
         x="0 4.4433594 15.566406 25.566406 31.123047 36.679688 47.802734 58.925781 70.048828 80.048828 95.605469 101.16211 107.82227"
         y="0"
         sodipodi:role="line"
         id="tspan29">lastIndexOf()</tspan></text>
    <path
       id="path31"
       d="m 251,316 h 190 v 35 H 251 Z"
       style="fill:#ffffff;fill-opacity:1;fill-rule:nonzero;stroke:#000000;stroke-width:1;stroke-linecap:butt;stroke-linejoin:miter;stroke-miterlimit:10;stroke-dasharray:none;stroke-opacity:1"
       transform="matrix(0.95795788,0,0,0.95795788,0.47897894,0.47897894)"
       clip-path="url(#clipPath32)" />
    <text
       id="text32"
       xml:space="preserve"
       transform="matrix(0.95796748,0,0,0.95796748,260.642,326.66691)"
       clip-path="url(#clipPath33)"><tspan
         style="font-variant:normal;font-weight:normal;font-size:20px;font-family:Helvetica;writing-mode:lr-tb;fill:#000000;fill-opacity:1;fill-rule:nonzero;stroke:none"
         x="0 4.4433594 15.566406 25.566406 36.689453 41.132812 52.255859 66.699219 77.822266 94.482422 105.60547 116.72852 123.38867 134.51172 141.17188"
         y="0"
         sodipodi:role="line"
         id="tspan32">localeCompare()</tspan></text>
    <path
       id="path34"
       d="m 251,361 h 190 v 35 H 251 Z"
       style="fill:#ffffff;fill-opacity:1;fill-rule:nonzero;stroke:#000000;stroke-width:1;stroke-linecap:butt;stroke-linejoin:miter;stroke-miterlimit:10;stroke-dasharray:none;stroke-opacity:1"
       transform="matrix(0.95795788,0,0,0.95795788,0.47897894,0.47897894)"
       clip-path="url(#clipPath35)" />
    <text
       id="text35"
       xml:space="preserve"
       transform="matrix(0.95796748,0,0,0.95796748,298.97566,369.77545)"
       clip-path="url(#clipPath36)"><tspan
         style="font-variant:normal;font-weight:normal;font-size:20px;font-family:Helvetica;writing-mode:lr-tb;fill:#000000;fill-opacity:1;fill-rule:nonzero;stroke:none"
         x="0 16.660156 27.783203 33.339844 43.339844 54.462891 61.123047"
         y="0"
         sodipodi:role="line"
         id="tspan35">match()</tspan></text>
  </g>
</svg>
