<?xml version="1.0" encoding="UTF-8" standalone="no"?>
<!-- Created with Inkscape (http://www.inkscape.org/) -->

<svg
   version="1.1"
   id="svg1"
   width="550.71997"
   height="356.16"
   viewBox="0 0 550.71997 356.16"
   sodipodi:docname="ts-9.pdf"
   xmlns:inkscape="http://www.inkscape.org/namespaces/inkscape"
   xmlns:sodipodi="http://sodipodi.sourceforge.net/DTD/sodipodi-0.dtd"
   xmlns="http://www.w3.org/2000/svg"
   xmlns:svg="http://www.w3.org/2000/svg">
  <defs
     id="defs1">
    <clipPath
       clipPathUnits="userSpaceOnUse"
       id="clipPath2">
      <path
         d="M 0,0 H 1720.8333 V 1110.3115 H 0 Z"
         transform="scale(0.33414045)"
         clip-rule="evenodd"
         id="path2" />
    </clipPath>
    <clipPath
       clipPathUnits="userSpaceOnUse"
       id="clipPath3">
      <path
         d="M 0,0 H 1720.8333 V 1104.3261 H 0 Z"
         transform="matrix(0.3341371,0,0,0.3341371,-50.484375,-25)"
         clip-rule="evenodd"
         id="path3" />
    </clipPath>
    <clipPath
       clipPathUnits="userSpaceOnUse"
       id="clipPath4">
      <path
         d="M 0,0 H 1720.8333 V 1104.3261 H 0 Z"
         transform="matrix(0.3341371,0,0,0.3341371,-194.17188,-25)"
         clip-rule="evenodd"
         id="path4" />
    </clipPath>
    <clipPath
       clipPathUnits="userSpaceOnUse"
       id="clipPath6">
      <path
         d="M 0,0 H 1720.8333 V 1104.3261 H 0 Z"
         transform="matrix(0.33414045,0,0,0.33414045,-0.5,-0.5)"
         clip-rule="evenodd"
         id="path6" />
    </clipPath>
    <clipPath
       clipPathUnits="userSpaceOnUse"
       id="clipPath7">
      <path
         d="M 0,0 H 1720.8333 V 1104.3261 H 0 Z"
         transform="matrix(0.3341371,0,0,0.3341371,-56.546875,-78)"
         clip-rule="evenodd"
         id="path7" />
    </clipPath>
    <clipPath
       clipPathUnits="userSpaceOnUse"
       id="clipPath9">
      <path
         d="M 0,0 H 1720.8333 V 1104.3261 H 0 Z"
         transform="matrix(0.33414045,0,0,0.33414045,-0.5,-0.5)"
         clip-rule="evenodd"
         id="path9" />
    </clipPath>
    <clipPath
       clipPathUnits="userSpaceOnUse"
       id="clipPath10">
      <path
         d="M 0,0 H 1720.8333 V 1104.3261 H 0 Z"
         transform="matrix(0.3341371,0,0,0.3341371,-203.8125,-78)"
         clip-rule="evenodd"
         id="path10" />
    </clipPath>
    <clipPath
       clipPathUnits="userSpaceOnUse"
       id="clipPath12">
      <path
         d="M 0,0 H 1720.8333 V 1104.3261 H 0 Z"
         transform="matrix(0.33414045,0,0,0.33414045,-0.5,-0.5)"
         clip-rule="evenodd"
         id="path12" />
    </clipPath>
    <clipPath
       clipPathUnits="userSpaceOnUse"
       id="clipPath13">
      <path
         d="M 0,0 H 1720.8333 V 1104.3261 H 0 Z"
         transform="matrix(0.3341371,0,0,0.3341371,-363.89062,-78)"
         clip-rule="evenodd"
         id="path13" />
    </clipPath>
    <clipPath
       clipPathUnits="userSpaceOnUse"
       id="clipPath15">
      <path
         d="M 0,0 H 1720.8333 V 1104.3261 H 0 Z"
         transform="matrix(0.33414045,0,0,0.33414045,-0.5,-0.5)"
         clip-rule="evenodd"
         id="path15" />
    </clipPath>
    <clipPath
       clipPathUnits="userSpaceOnUse"
       id="clipPath16">
      <path
         d="M 0,0 H 1720.8333 V 1104.3261 H 0 Z"
         transform="matrix(0.3341371,0,0,0.3341371,-462.40625,-66)"
         clip-rule="evenodd"
         id="path16" />
    </clipPath>
    <clipPath
       clipPathUnits="userSpaceOnUse"
       id="clipPath17">
      <path
         d="M 0,0 H 1720.8333 V 1104.3261 H 0 Z"
         transform="matrix(0.3341371,0,0,0.3341371,-463.5,-90)"
         clip-rule="evenodd"
         id="path17" />
    </clipPath>
    <clipPath
       clipPathUnits="userSpaceOnUse"
       id="clipPath19">
      <path
         d="M 0,0 H 1720.8333 V 1104.3261 H 0 Z"
         transform="matrix(0.33414045,0,0,0.33414045,-0.5,-0.5)"
         clip-rule="evenodd"
         id="path19" />
    </clipPath>
    <clipPath
       clipPathUnits="userSpaceOnUse"
       id="clipPath20">
      <path
         d="M 0,0 H 1720.8333 V 1104.3261 H 0 Z"
         transform="matrix(0.3341371,0,0,0.3341371,-47.09375,-146)"
         clip-rule="evenodd"
         id="path20" />
    </clipPath>
    <clipPath
       clipPathUnits="userSpaceOnUse"
       id="clipPath22">
      <path
         d="M 0,0 H 1720.8333 V 1104.3261 H 0 Z"
         transform="matrix(0.33414045,0,0,0.33414045,-0.5,-0.5)"
         clip-rule="evenodd"
         id="path22" />
    </clipPath>
    <clipPath
       clipPathUnits="userSpaceOnUse"
       id="clipPath23">
      <path
         d="M 0,0 H 1720.8333 V 1104.3261 H 0 Z"
         transform="matrix(0.3341371,0,0,0.3341371,-204.84375,-146)"
         clip-rule="evenodd"
         id="path23" />
    </clipPath>
    <clipPath
       clipPathUnits="userSpaceOnUse"
       id="clipPath25">
      <path
         d="M 0,0 H 1720.8333 V 1104.3261 H 0 Z"
         transform="matrix(0.33414045,0,0,0.33414045,-0.5,-0.5)"
         clip-rule="evenodd"
         id="path25" />
    </clipPath>
    <clipPath
       clipPathUnits="userSpaceOnUse"
       id="clipPath26">
      <path
         d="M 0,0 H 1720.8333 V 1104.3261 H 0 Z"
         transform="matrix(0.3341371,0,0,0.3341371,-356.54688,-146)"
         clip-rule="evenodd"
         id="path26" />
    </clipPath>
    <clipPath
       clipPathUnits="userSpaceOnUse"
       id="clipPath28">
      <path
         d="M 0,0 H 1720.8333 V 1104.3261 H 0 Z"
         transform="matrix(0.33414045,0,0,0.33414045,-0.5,-0.5)"
         clip-rule="evenodd"
         id="path28" />
    </clipPath>
    <clipPath
       clipPathUnits="userSpaceOnUse"
       id="clipPath29">
      <path
         d="M 0,0 H 1720.8333 V 1104.3261 H 0 Z"
         transform="matrix(0.3341371,0,0,0.3341371,-456.5,-146)"
         clip-rule="evenodd"
         id="path29" />
    </clipPath>
    <clipPath
       clipPathUnits="userSpaceOnUse"
       id="clipPath31">
      <path
         d="M 0,0 H 1720.8333 V 1104.3261 H 0 Z"
         transform="matrix(0.33414045,0,0,0.33414045,-0.5,-0.5)"
         clip-rule="evenodd"
         id="path31" />
    </clipPath>
    <clipPath
       clipPathUnits="userSpaceOnUse"
       id="clipPath32">
      <path
         d="M 0,0 H 1720.8333 V 1104.3261 H 0 Z"
         transform="matrix(0.3341371,0,0,0.3341371,-45.40625,-214)"
         clip-rule="evenodd"
         id="path32" />
    </clipPath>
    <clipPath
       clipPathUnits="userSpaceOnUse"
       id="clipPath34">
      <path
         d="M 0,0 H 1720.8333 V 1104.3261 H 0 Z"
         transform="matrix(0.33414045,0,0,0.33414045,-0.5,-0.5)"
         clip-rule="evenodd"
         id="path34" />
    </clipPath>
    <clipPath
       clipPathUnits="userSpaceOnUse"
       id="clipPath35">
      <path
         d="M 0,0 H 1720.8333 V 1104.3261 H 0 Z"
         transform="matrix(0.3341371,0,0,0.3341371,-223.76563,-214)"
         clip-rule="evenodd"
         id="path35" />
    </clipPath>
    <clipPath
       clipPathUnits="userSpaceOnUse"
       id="clipPath37">
      <path
         d="M 0,0 H 1720.8333 V 1104.3261 H 0 Z"
         transform="matrix(0.33414045,0,0,0.33414045,-0.5,-0.5)"
         clip-rule="evenodd"
         id="path37" />
    </clipPath>
    <clipPath
       clipPathUnits="userSpaceOnUse"
       id="clipPath38">
      <path
         d="M 0,0 H 1720.8333 V 1104.3261 H 0 Z"
         transform="matrix(0.3341371,0,0,0.3341371,-349.875,-214)"
         clip-rule="evenodd"
         id="path38" />
    </clipPath>
    <clipPath
       clipPathUnits="userSpaceOnUse"
       id="clipPath40">
      <path
         d="M 0,0 H 1720.8333 V 1104.3261 H 0 Z"
         transform="matrix(0.33414045,0,0,0.33414045,-0.5,-0.5)"
         clip-rule="evenodd"
         id="path40" />
    </clipPath>
    <clipPath
       clipPathUnits="userSpaceOnUse"
       id="clipPath42">
      <path
         d="M 0,0 H 1720.8333 V 1104.3261 H 0 Z"
         transform="matrix(0.33414045,0,0,0.33414045,-0.5,-0.5)"
         clip-rule="evenodd"
         id="path42" />
    </clipPath>
    <clipPath
       clipPathUnits="userSpaceOnUse"
       id="clipPath44">
      <path
         d="M 0,0 H 1720.8333 V 1104.3261 H 0 Z"
         transform="matrix(0.33414045,0,0,0.33414045,-0.5,-0.5)"
         clip-rule="evenodd"
         id="path44" />
    </clipPath>
    <clipPath
       clipPathUnits="userSpaceOnUse"
       id="clipPath45">
      <path
         d="M 0,0 H 1720.8333 V 1104.3261 H 0 Z"
         transform="matrix(0.3341371,0,0,0.3341371,-59.875,-274)"
         clip-rule="evenodd"
         id="path45" />
    </clipPath>
    <clipPath
       clipPathUnits="userSpaceOnUse"
       id="clipPath47">
      <path
         d="M 0,0 H 1720.8333 V 1104.3261 H 0 Z"
         transform="matrix(0.33414045,0,0,0.33414045,-0.5,-0.5)"
         clip-rule="evenodd"
         id="path47" />
    </clipPath>
    <clipPath
       clipPathUnits="userSpaceOnUse"
       id="clipPath48">
      <path
         d="M 0,0 H 1720.8333 V 1104.3261 H 0 Z"
         transform="matrix(0.3341371,0,0,0.3341371,-192.09375,-274)"
         clip-rule="evenodd"
         id="path48" />
    </clipPath>
    <clipPath
       clipPathUnits="userSpaceOnUse"
       id="clipPath50">
      <path
         d="M 0,0 H 1720.8333 V 1104.3261 H 0 Z"
         transform="matrix(0.33414045,0,0,0.33414045,-0.5,-0.5)"
         clip-rule="evenodd"
         id="path50" />
    </clipPath>
    <clipPath
       clipPathUnits="userSpaceOnUse"
       id="clipPath51">
      <path
         d="M 0,0 H 1720.8333 V 1104.3261 H 0 Z"
         transform="matrix(0.3341371,0,0,0.3341371,-59.3125,-334)"
         clip-rule="evenodd"
         id="path51" />
    </clipPath>
    <clipPath
       clipPathUnits="userSpaceOnUse"
       id="clipPath53">
      <path
         d="M 0,0 H 1720.8333 V 1104.3261 H 0 Z"
         transform="matrix(0.33414045,0,0,0.33414045,-0.5,-0.5)"
         clip-rule="evenodd"
         id="path53" />
    </clipPath>
    <clipPath
       clipPathUnits="userSpaceOnUse"
       id="clipPath54">
      <path
         d="M 0,0 H 1720.8333 V 1104.3261 H 0 Z"
         transform="matrix(0.3341371,0,0,0.3341371,-186.40625,-334)"
         clip-rule="evenodd"
         id="path54" />
    </clipPath>
  </defs>
  <sodipodi:namedview
     id="namedview1"
     pagecolor="#ffffff"
     bordercolor="#000000"
     borderopacity="0.25"
     inkscape:showpageshadow="2"
     inkscape:pageopacity="0.0"
     inkscape:pagecheckerboard="0"
     inkscape:deskcolor="#d1d1d1">
    <inkscape:page
       x="0"
       y="0"
       inkscape:label="1"
       id="page1"
       width="550.71997"
       height="356.16"
       margin="0"
       bleed="0" />
  </sodipodi:namedview>
  <g
     id="g1"
     inkscape:groupmode="layer"
     inkscape:label="1">
    <path
       id="path1"
       d="M 0,0 H 575 V 371 H 0 Z"
       style="fill:#ffffff;fill-opacity:1;fill-rule:nonzero;stroke:none"
       transform="scale(0.95768108)"
       clip-path="url(#clipPath2)" />
    <text
       id="text2"
       xml:space="preserve"
       transform="matrix(0.95769068,0,0,0.95769068,48.348415,23.942267)"
       clip-path="url(#clipPath3)"><tspan
         style="font-variant:normal;font-weight:700;font-size:27px;font-family:Helvetica;writing-mode:lr-tb;fill:#000000;fill-opacity:1;fill-rule:nonzero;stroke:none"
         x="0 14.501953 29.518066 46.010742"
         y="0"
         sodipodi:role="line"
         id="tspan2">Type</tspan></text>
    <text
       id="text3"
       xml:space="preserve"
       transform="matrix(0.95769068,0,0,0.95769068,185.9566,23.942267)"
       clip-path="url(#clipPath4)"><tspan
         style="font-variant:normal;font-weight:700;font-size:27px;font-family:Helvetica;writing-mode:lr-tb;fill:#000000;fill-opacity:1;fill-rule:nonzero;stroke:none"
         x="0 16.532227 31.54834 39.049805 55.54248 70.558594 85.574707 93.076172 109.56885 126.06152 141.07764 150.06885 157.57031 177.06885 192.08496 207.10107 222.11719 229.61865 246.11133 262.604 270.10547 285.12158 292.62305 307.125 322.14111 338.63379"
         y="0"
         sodipodi:role="line"
         id="tspan3">Values That Have This Type</tspan></text>
    <path
       id="path5"
       d="M 21,46 H 141 V 96 H 21 Z"
       style="fill:#dae8fc;fill-opacity:1;fill-rule:nonzero;stroke:#6c8ebf;stroke-width:1;stroke-linecap:butt;stroke-linejoin:miter;stroke-miterlimit:10;stroke-dasharray:none;stroke-opacity:1"
       transform="matrix(0.95768108,0,0,0.95768108,0.47884054,0.47884054)"
       clip-path="url(#clipPath6)" />
    <text
       id="text6"
       xml:space="preserve"
       transform="matrix(0.95769068,0,0,0.95769068,54.154415,74.699873)"
       clip-path="url(#clipPath7)"><tspan
         style="font-variant:normal;font-weight:normal;font-size:20px;font-family:Helvetica;writing-mode:lr-tb;fill:#000000;fill-opacity:1;fill-rule:nonzero;stroke:none"
         x="0 10 15.556641 22.216797 26.660156 37.783203"
         y="0"
         sodipodi:role="line"
         id="tspan6">string</tspan></text>
    <path
       id="path8"
       d="M 181,46 H 301 V 96 H 181 Z"
       style="fill:#ffffff;fill-opacity:1;fill-rule:nonzero;stroke:#000000;stroke-width:1;stroke-linecap:butt;stroke-linejoin:miter;stroke-miterlimit:10;stroke-dasharray:none;stroke-opacity:1"
       transform="matrix(0.95768108,0,0,0.95768108,0.47884054,0.47884054)"
       clip-path="url(#clipPath9)" />
    <text
       id="text9"
       xml:space="preserve"
       transform="matrix(0.95769068,0,0,0.95769068,195.18933,74.699873)"
       clip-path="url(#clipPath10)"><tspan
         style="font-variant:normal;font-weight:normal;font-size:20px;font-family:Helvetica;writing-mode:lr-tb;fill:#000000;fill-opacity:1;fill-rule:nonzero;stroke:none"
         x="0 3.8183594 14.941406 19.384766 24.941406 30.498047 41.621094 52.744141 59.404297 70.527344"
         y="0"
         sodipodi:role="line"
         id="tspan9">'hi there'</tspan></text>
    <path
       id="path11"
       d="M 311,46 H 431 V 96 H 311 Z"
       style="fill:#ffffff;fill-opacity:1;fill-rule:nonzero;stroke:#000000;stroke-width:1;stroke-linecap:butt;stroke-linejoin:miter;stroke-miterlimit:10;stroke-dasharray:none;stroke-opacity:1"
       transform="matrix(0.95768108,0,0,0.95768108,0.47884054,0.47884054)"
       clip-path="url(#clipPath12)" />
    <text
       id="text12"
       xml:space="preserve"
       transform="matrix(0.95769068,0,0,0.95769068,348.49466,74.699873)"
       clip-path="url(#clipPath13)"><tspan
         style="font-variant:normal;font-weight:normal;font-size:20px;font-family:Helvetica;writing-mode:lr-tb;fill:#000000;fill-opacity:1;fill-rule:nonzero;stroke:none"
         x="0 7.0996094"
         y="0"
         sodipodi:role="line"
         id="tspan12">&quot;&quot;</tspan></text>
    <path
       id="path14"
       d="M 441,46 H 561 V 96 H 441 Z"
       style="fill:#ffffff;fill-opacity:1;fill-rule:nonzero;stroke:#000000;stroke-width:1;stroke-linecap:butt;stroke-linejoin:miter;stroke-miterlimit:10;stroke-dasharray:none;stroke-opacity:1"
       transform="matrix(0.95768108,0,0,0.95768108,0.47884054,0.47884054)"
       clip-path="url(#clipPath15)" />
    <text
       id="text15"
       xml:space="preserve"
       transform="matrix(0.95769068,0,0,0.95769068,442.84216,63.207585)"
       clip-path="url(#clipPath16)"><tspan
         style="font-variant:normal;font-weight:normal;font-size:20px;font-family:Helvetica;writing-mode:lr-tb;fill:#000000;fill-opacity:1;fill-rule:nonzero;stroke:none"
         x="0 3.8183594 13.818359 24.941406 36.064453 47.1875 57.1875 62.744141 67.1875"
         y="0"
         sodipodi:role="line"
         id="tspan15">'Today is</tspan></text>
    <text
       id="text16"
       xml:space="preserve"
       transform="matrix(0.95769068,0,0,0.95769068,443.88963,86.192161)"
       clip-path="url(#clipPath17)"><tspan
         style="font-variant:normal;font-weight:normal;font-size:20px;font-family:Helvetica;writing-mode:lr-tb;fill:#000000;fill-opacity:1;fill-rule:nonzero;stroke:none"
         x="0 16.660156 27.783203 38.90625 50.029297 61.152344 71.152344"
         y="0"
         sodipodi:role="line"
         id="tspan16">Monday'</tspan></text>
    <path
       id="path18"
       d="m 21,114 h 120 v 50 H 21 Z"
       style="fill:#dae8fc;fill-opacity:1;fill-rule:nonzero;stroke:#6c8ebf;stroke-width:1;stroke-linecap:butt;stroke-linejoin:miter;stroke-miterlimit:10;stroke-dasharray:none;stroke-opacity:1"
       transform="matrix(0.95768108,0,0,0.95768108,0.47884054,0.47884054)"
       clip-path="url(#clipPath19)" />
    <text
       id="text19"
       xml:space="preserve"
       transform="matrix(0.95769068,0,0,0.95769068,45.101245,139.82284)"
       clip-path="url(#clipPath20)"><tspan
         style="font-variant:normal;font-weight:normal;font-size:20px;font-family:Helvetica;writing-mode:lr-tb;fill:#000000;fill-opacity:1;fill-rule:nonzero;stroke:none"
         x="0 11.123047 22.246094 38.90625 50.029297 61.152344"
         y="0"
         sodipodi:role="line"
         id="tspan19">number</tspan></text>
    <path
       id="path21"
       d="m 181,114 h 120 v 50 H 181 Z"
       style="fill:#ffffff;fill-opacity:1;fill-rule:nonzero;stroke:#000000;stroke-width:1;stroke-linecap:butt;stroke-linejoin:miter;stroke-miterlimit:10;stroke-dasharray:none;stroke-opacity:1"
       transform="matrix(0.95768108,0,0,0.95768108,0.47884054,0.47884054)"
       clip-path="url(#clipPath22)" />
    <text
       id="text22"
       xml:space="preserve"
       transform="matrix(0.95769068,0,0,0.95769068,196.17695,139.82284)"
       clip-path="url(#clipPath23)"><tspan
         style="font-variant:normal;font-weight:normal;font-size:20px;font-family:Helvetica;writing-mode:lr-tb;fill:#000000;fill-opacity:1;fill-rule:nonzero;stroke:none"
         x="0 5.5566406 16.679688 27.802734 38.925781 50.048828 61.171875"
         y="0"
         sodipodi:role="line"
         id="tspan22">.000025</tspan></text>
    <path
       id="path24"
       d="m 311,114 h 120 v 50 H 311 Z"
       style="fill:#ffffff;fill-opacity:1;fill-rule:nonzero;stroke:#000000;stroke-width:1;stroke-linecap:butt;stroke-linejoin:miter;stroke-miterlimit:10;stroke-dasharray:none;stroke-opacity:1"
       transform="matrix(0.95768108,0,0,0.95768108,0.47884054,0.47884054)"
       clip-path="url(#clipPath25)" />
    <text
       id="text25"
       xml:space="preserve"
       transform="matrix(0.95769068,0,0,0.95769068,341.46162,139.82284)"
       clip-path="url(#clipPath26)"><tspan
         style="font-variant:normal;font-weight:normal;font-size:20px;font-family:Helvetica;writing-mode:lr-tb;fill:#000000;fill-opacity:1;fill-rule:nonzero;stroke:none"
         x="0 6.6601562 17.783203"
         y="0"
         sodipodi:role="line"
         id="tspan25">-20</tspan></text>
    <path
       id="path27"
       d="m 441,114 h 120 v 50 H 441 Z"
       style="fill:#ffffff;fill-opacity:1;fill-rule:nonzero;stroke:#000000;stroke-width:1;stroke-linecap:butt;stroke-linejoin:miter;stroke-miterlimit:10;stroke-dasharray:none;stroke-opacity:1"
       transform="matrix(0.95768108,0,0,0.95768108,0.47884054,0.47884054)"
       clip-path="url(#clipPath28)" />
    <text
       id="text28"
       xml:space="preserve"
       transform="matrix(0.95769068,0,0,0.95769068,437.1858,139.82284)"
       clip-path="url(#clipPath29)"><tspan
         style="font-variant:normal;font-weight:normal;font-size:20px;font-family:Helvetica;writing-mode:lr-tb;fill:#000000;fill-opacity:1;fill-rule:nonzero;stroke:none"
         x="0 11.123047 22.246094 33.369141 44.492188 55.615234 66.738281 77.861328"
         y="0"
         sodipodi:role="line"
         id="tspan28">40000000</tspan></text>
    <path
       id="path30"
       d="m 21,182 h 120 v 50 H 21 Z"
       style="fill:#dae8fc;fill-opacity:1;fill-rule:nonzero;stroke:#6c8ebf;stroke-width:1;stroke-linecap:butt;stroke-linejoin:miter;stroke-miterlimit:10;stroke-dasharray:none;stroke-opacity:1"
       transform="matrix(0.95768108,0,0,0.95768108,0.47884054,0.47884054)"
       clip-path="url(#clipPath31)" />
    <text
       id="text31"
       xml:space="preserve"
       transform="matrix(0.95769068,0,0,0.95769068,43.485142,204.94581)"
       clip-path="url(#clipPath32)"><tspan
         style="font-variant:normal;font-weight:normal;font-size:20px;font-family:Helvetica;writing-mode:lr-tb;fill:#000000;fill-opacity:1;fill-rule:nonzero;stroke:none"
         x="0 11.123047 22.246094 33.369141 37.8125 48.935547 60.058594"
         y="0"
         sodipodi:role="line"
         id="tspan31">boolean</tspan></text>
    <path
       id="path33"
       d="m 181,182 h 120 v 50 H 181 Z"
       style="fill:#ffffff;fill-opacity:1;fill-rule:nonzero;stroke:#000000;stroke-width:1;stroke-linecap:butt;stroke-linejoin:miter;stroke-miterlimit:10;stroke-dasharray:none;stroke-opacity:1"
       transform="matrix(0.95768108,0,0,0.95768108,0.47884054,0.47884054)"
       clip-path="url(#clipPath34)" />
    <text
       id="text34"
       xml:space="preserve"
       transform="matrix(0.95769068,0,0,0.95769068,214.29826,204.94581)"
       clip-path="url(#clipPath35)"><tspan
         style="font-variant:normal;font-weight:normal;font-size:20px;font-family:Helvetica;writing-mode:lr-tb;fill:#000000;fill-opacity:1;fill-rule:nonzero;stroke:none"
         x="0 5.5566406 12.216797 23.339844"
         y="0"
         sodipodi:role="line"
         id="tspan34">true</tspan></text>
    <path
       id="path36"
       d="m 311,182 h 120 v 50 H 311 Z"
       style="fill:#ffffff;fill-opacity:1;fill-rule:nonzero;stroke:#000000;stroke-width:1;stroke-linecap:butt;stroke-linejoin:miter;stroke-miterlimit:10;stroke-dasharray:none;stroke-opacity:1"
       transform="matrix(0.95768108,0,0,0.95768108,0.47884054,0.47884054)"
       clip-path="url(#clipPath37)" />
    <text
       id="text37"
       xml:space="preserve"
       transform="matrix(0.95769068,0,0,0.95769068,335.07203,204.94581)"
       clip-path="url(#clipPath38)"><tspan
         style="font-variant:normal;font-weight:normal;font-size:20px;font-family:Helvetica;writing-mode:lr-tb;fill:#000000;fill-opacity:1;fill-rule:nonzero;stroke:none"
         x="0 5.5566406 16.679688 21.123047 31.123047"
         y="0"
         sodipodi:role="line"
         id="tspan37">false</tspan></text>
    <path
       id="path39"
       d="M 1,36 H 571.01001"
       style="fill:none;stroke:#000000;stroke-width:1;stroke-linecap:butt;stroke-linejoin:miter;stroke-miterlimit:10;stroke-dasharray:none;stroke-opacity:1"
       transform="matrix(0.95768108,0,0,0.95768108,0.47884054,0.47884054)"
       clip-path="url(#clipPath40)" />
    <path
       id="path41"
       d="M 161,16 V 366"
       style="fill:none;stroke:#000000;stroke-width:1;stroke-linecap:butt;stroke-linejoin:miter;stroke-miterlimit:10;stroke-dasharray:none;stroke-opacity:1"
       transform="matrix(0.95768108,0,0,0.95768108,0.47884054,0.47884054)"
       clip-path="url(#clipPath42)" />
    <path
       id="path43"
       d="m 21,242 h 120 v 50 H 21 Z"
       style="fill:#dae8fc;fill-opacity:1;fill-rule:nonzero;stroke:#6c8ebf;stroke-width:1;stroke-linecap:butt;stroke-linejoin:miter;stroke-miterlimit:10;stroke-dasharray:none;stroke-opacity:1"
       transform="matrix(0.95768108,0,0,0.95768108,0.47884054,0.47884054)"
       clip-path="url(#clipPath44)" />
    <text
       id="text44"
       xml:space="preserve"
       transform="matrix(0.95769068,0,0,0.95769068,57.341729,262.40725)"
       clip-path="url(#clipPath45)"><tspan
         style="font-variant:normal;font-weight:normal;font-size:20px;font-family:Helvetica;writing-mode:lr-tb;fill:#000000;fill-opacity:1;fill-rule:nonzero;stroke:none"
         x="0 14.443359 25.566406 31.123047"
         y="0"
         sodipodi:role="line"
         id="tspan44">Date</tspan></text>
    <path
       id="path46"
       d="m 181,242 h 120 v 50 H 181 Z"
       style="fill:#ffffff;fill-opacity:1;fill-rule:nonzero;stroke:#000000;stroke-width:1;stroke-linecap:butt;stroke-linejoin:miter;stroke-miterlimit:10;stroke-dasharray:none;stroke-opacity:1"
       transform="matrix(0.95768108,0,0,0.95768108,0.47884054,0.47884054)"
       clip-path="url(#clipPath47)" />
    <text
       id="text47"
       xml:space="preserve"
       transform="matrix(0.95769068,0,0,0.95769068,183.96639,262.40725)"
       clip-path="url(#clipPath48)"><tspan
         style="font-variant:normal;font-weight:normal;font-size:20px;font-family:Helvetica;writing-mode:lr-tb;fill:#000000;fill-opacity:1;fill-rule:nonzero;stroke:none"
         x="0 11.123047 22.246094 36.689453 42.246094 56.689453 67.8125 73.369141 84.492188 91.152344"
         y="0"
         sodipodi:role="line"
         id="tspan47">new Date()</tspan></text>
    <path
       id="path49"
       d="m 21,302 h 120 v 50 H 21 Z"
       style="fill:#dae8fc;fill-opacity:1;fill-rule:nonzero;stroke:#6c8ebf;stroke-width:1;stroke-linecap:butt;stroke-linejoin:miter;stroke-miterlimit:10;stroke-dasharray:none;stroke-opacity:1"
       transform="matrix(0.95768108,0,0,0.95768108,0.47884054,0.47884054)"
       clip-path="url(#clipPath50)" />
    <text
       id="text50"
       xml:space="preserve"
       transform="matrix(0.95769068,0,0,0.95769068,56.803028,319.86869)"
       clip-path="url(#clipPath51)"><tspan
         style="font-variant:normal;font-weight:normal;font-size:20px;font-family:Helvetica;writing-mode:lr-tb;fill:#000000;fill-opacity:1;fill-rule:nonzero;stroke:none"
         x="0 10 21.123047 32.246094"
         y="0"
         sodipodi:role="line"
         id="tspan50">Todo</tspan></text>
    <path
       id="path52"
       d="m 181,302 h 340 v 50 H 181 Z"
       style="fill:#ffffff;fill-opacity:1;fill-rule:nonzero;stroke:#000000;stroke-width:1;stroke-linecap:butt;stroke-linejoin:miter;stroke-miterlimit:10;stroke-dasharray:none;stroke-opacity:1"
       transform="matrix(0.95768108,0,0,0.95768108,0.47884054,0.47884054)"
       clip-path="url(#clipPath53)" />
    <text
       id="text53"
       xml:space="preserve"
       transform="matrix(0.95769068,0,0,0.95769068,178.51953,319.86869)"
       clip-path="url(#clipPath54)"><tspan
         style="font-variant:normal;font-weight:normal;font-size:20px;font-family:Helvetica;writing-mode:lr-tb;fill:#000000;fill-opacity:1;fill-rule:nonzero;stroke:none"
         x="0 6.6796875 12.236328 16.679688 27.802734 33.359375 38.916016 50.039062 55.595703 61.152344 71.152344 82.275391 98.935547 110.05859 114.50195 125.625 131.18164 142.30469 153.42773 158.98438 164.54102 170.09766 176.75781 187.88086 199.00391 204.56055 210.11719 215.67383 220.11719 225.67383 230.11719 241.24023 246.79688 252.35352 259.45312 270.9375 277.59766 288.7207 298.7207 309.84375 316.94336 322.5"
         y="0"
         sodipodi:role="line"
         id="tspan53">{ id: 1, completed: true, title: &quot;Trash&quot; }</tspan></text>
  </g>
</svg>
