<?xml version="1.0" encoding="UTF-8" standalone="no"?>
<!-- Created with Inkscape (http://www.inkscape.org/) -->

<svg
   version="1.1"
   id="svg1"
   width="510.71997"
   height="138.56"
   viewBox="0 0 510.71997 138.56"
   sodipodi:docname="ts-2.pdf"
   xmlns:inkscape="http://www.inkscape.org/namespaces/inkscape"
   xmlns:sodipodi="http://sodipodi.sourceforge.net/DTD/sodipodi-0.dtd"
   xmlns="http://www.w3.org/2000/svg"
   xmlns:svg="http://www.w3.org/2000/svg">
  <defs
     id="defs1">
    <clipPath
       clipPathUnits="userSpaceOnUse"
       id="clipPath2">
      <path
         d="M 0,0 H 1595.8334 V 433.32553 H 0 Z"
         transform="scale(0.3346214)"
         clip-rule="evenodd"
         id="path2" />
    </clipPath>
    <clipPath
       clipPathUnits="userSpaceOnUse"
       id="clipPath4">
      <path
         d="M 0,0 H 1595.8334 V 427.34863 H 0 Z"
         transform="matrix(0.3346214,0,0,0.3346214,-0.49999999,-0.49999999)"
         clip-rule="evenodd"
         id="path4" />
    </clipPath>
    <clipPath
       clipPathUnits="userSpaceOnUse"
       id="clipPath5">
      <path
         d="M 0,0 H 1595.8334 V 427.34863 H 0 Z"
         transform="matrix(0.33461804,0,0,0.33461804,-21.15625,-38)"
         clip-rule="evenodd"
         id="path5" />
    </clipPath>
    <clipPath
       clipPathUnits="userSpaceOnUse"
       id="clipPath6">
      <path
         d="M 0,0 H 1595.8334 V 427.34863 H 0 Z"
         transform="matrix(0.33461804,0,0,0.33461804,-152.65625,-42)"
         clip-rule="evenodd"
         id="path6" />
    </clipPath>
    <clipPath
       clipPathUnits="userSpaceOnUse"
       id="clipPath8">
      <path
         d="M 0,0 H 1595.8334 V 427.34863 H 0 Z"
         transform="matrix(0.3346214,0,0,0.3346214,-0.49999999,-0.49999999)"
         clip-rule="evenodd"
         id="path8" />
    </clipPath>
    <clipPath
       clipPathUnits="userSpaceOnUse"
       id="clipPath9">
      <path
         d="M 0,0 H 1595.8334 V 427.34863 H 0 Z"
         transform="matrix(0.33461804,0,0,0.33461804,-201.51563,-38)"
         clip-rule="evenodd"
         id="path9" />
    </clipPath>
    <clipPath
       clipPathUnits="userSpaceOnUse"
       id="clipPath10">
      <path
         d="M 0,0 H 1595.8334 V 427.34863 H 0 Z"
         transform="matrix(0.33461804,0,0,0.33461804,-331.65625,-42)"
         clip-rule="evenodd"
         id="path10" />
    </clipPath>
    <clipPath
       clipPathUnits="userSpaceOnUse"
       id="clipPath12">
      <path
         d="M 0,0 H 1595.8334 V 427.34863 H 0 Z"
         transform="matrix(0.3346214,0,0,0.3346214,-0.49999999,-0.49999999)"
         clip-rule="evenodd"
         id="path12" />
    </clipPath>
    <clipPath
       clipPathUnits="userSpaceOnUse"
       id="clipPath13">
      <path
         d="M 0,0 H 1595.8334 V 427.34863 H 0 Z"
         transform="matrix(0.33461804,0,0,0.33461804,-378.54688,-38)"
         clip-rule="evenodd"
         id="path13" />
    </clipPath>
    <clipPath
       clipPathUnits="userSpaceOnUse"
       id="clipPath15">
      <path
         d="M 0,0 H 1595.8334 V 427.34863 H 0 Z"
         transform="matrix(0,0.3346214,-0.3346214,0,527.5,-365.49999)"
         clip-rule="evenodd"
         id="path15" />
    </clipPath>
    <clipPath
       clipPathUnits="userSpaceOnUse"
       id="clipPath16">
      <path
         d="M 0,0 H 1595.8334 V 427.34863 H 0 Z"
         transform="matrix(0.33461804,0,0,0.33461804,-368.5,-104)"
         clip-rule="evenodd"
         id="path16" />
    </clipPath>
    <clipPath
       clipPathUnits="userSpaceOnUse"
       id="clipPath17">
      <path
         d="M 0,0 H 1595.8334 V 427.34863 H 0 Z"
         transform="matrix(0.33461804,0,0,0.33461804,-377.89063,-121)"
         clip-rule="evenodd"
         id="path17" />
    </clipPath>
    <clipPath
       clipPathUnits="userSpaceOnUse"
       id="clipPath18">
      <path
         d="M 0,0 H 1595.8334 V 427.34863 H 0 Z"
         transform="matrix(0.33461804,0,0,0.33461804,-415.64063,-138)"
         clip-rule="evenodd"
         id="path18" />
    </clipPath>
  </defs>
  <sodipodi:namedview
     id="namedview1"
     pagecolor="#ffffff"
     bordercolor="#000000"
     borderopacity="0.25"
     inkscape:showpageshadow="2"
     inkscape:pageopacity="0.0"
     inkscape:pagecheckerboard="0"
     inkscape:deskcolor="#d1d1d1">
    <inkscape:page
       x="0"
       y="0"
       inkscape:label="1"
       id="page1"
       width="510.71997"
       height="138.56"
       margin="0"
       bleed="0" />
  </sodipodi:namedview>
  <g
     id="g1"
     inkscape:groupmode="layer"
     inkscape:label="1">
    <path
       id="path1"
       d="M 0,0 H 534 V 145 H 0 Z"
       style="fill:#ffffff;fill-opacity:1;fill-rule:nonzero;stroke:none"
       transform="scale(0.9563046)"
       clip-path="url(#clipPath2)" />
    <path
       id="path3"
       d="M 1,1 H 141 V 61 H 1 Z"
       style="fill:#e1d5e7;fill-opacity:1;fill-rule:nonzero;stroke:#9673a6;stroke-width:1;stroke-linecap:butt;stroke-linejoin:miter;stroke-miterlimit:10;stroke-dasharray:none;stroke-opacity:1"
       transform="matrix(0.9563046,0,0,0.9563046,0.47815229,0.47815229)"
       clip-path="url(#clipPath4)" />
    <text
       id="text4"
       xml:space="preserve"
       transform="matrix(0.9563142,0,0,0.9563142,20.232022,36.33994)"
       clip-path="url(#clipPath5)"><tspan
         style="font-variant:normal;font-weight:700;font-size:20px;font-family:Helvetica;writing-mode:lr-tb;fill:#000000;fill-opacity:1;fill-rule:nonzero;stroke:none"
         x="0 10.742188 21.865234 34.082031 45.205078 56.328125 67.451172 75.234375 80.791016 93.007812"
         y="0"
         sodipodi:role="line"
         id="tspan4">Typescript</tspan></text>
    <text
       id="text5"
       xml:space="preserve"
       transform="matrix(0.9563142,0,0,0.9563142,145.98734,40.165196)"
       clip-path="url(#clipPath6)"><tspan
         style="font-variant:normal;font-weight:normal;font-size:32px;font-family:Helvetica;writing-mode:lr-tb;fill:#000000;fill-opacity:1;fill-rule:nonzero;stroke:none"
         x="0"
         y="0"
         id="tspan5">=</tspan></text>
    <path
       id="path7"
       d="M 181,1 H 321 V 61 H 181 Z"
       style="fill:#dae8fc;fill-opacity:1;fill-rule:nonzero;stroke:#6c8ebf;stroke-width:1;stroke-linecap:butt;stroke-linejoin:miter;stroke-miterlimit:10;stroke-dasharray:none;stroke-opacity:1"
       transform="matrix(0.9563046,0,0,0.9563046,0.47815229,0.47815229)"
       clip-path="url(#clipPath8)" />
    <text
       id="text8"
       xml:space="preserve"
       transform="matrix(0.9563142,0,0,0.9563142,192.71226,36.33994)"
       clip-path="url(#clipPath9)"><tspan
         style="font-variant:normal;font-weight:700;font-size:20px;font-family:Helvetica;writing-mode:lr-tb;fill:#000000;fill-opacity:1;fill-rule:nonzero;stroke:none"
         x="0 11.123047 22.246094 33.369141 44.492188 55.615234 66.738281 74.521484 80.078125 92.294922"
         y="0"
         sodipodi:role="line"
         id="tspan8">Javascript</tspan></text>
    <text
       id="text9"
       xml:space="preserve"
       transform="matrix(0.9563142,0,0,0.9563142,317.16758,40.165196)"
       clip-path="url(#clipPath10)"><tspan
         style="font-variant:normal;font-weight:normal;font-size:32px;font-family:Helvetica;writing-mode:lr-tb;fill:#000000;fill-opacity:1;fill-rule:nonzero;stroke:none"
         x="0"
         y="0"
         id="tspan9">+</tspan></text>
    <path
       id="path11"
       d="M 361,1 H 531 V 61 H 361 Z"
       style="fill:#d5e8d4;fill-opacity:1;fill-rule:nonzero;stroke:#82b366;stroke-width:1;stroke-linecap:butt;stroke-linejoin:miter;stroke-miterlimit:10;stroke-dasharray:none;stroke-opacity:1"
       transform="matrix(0.9563046,0,0,0.9563046,0.47815229,0.47815229)"
       clip-path="url(#clipPath12)" />
    <text
       id="text12"
       xml:space="preserve"
       transform="matrix(0.9563142,0,0,0.9563142,362.00976,36.33994)"
       clip-path="url(#clipPath13)"><tspan
         style="font-variant:normal;font-weight:700;font-size:20px;font-family:Helvetica;writing-mode:lr-tb;fill:#000000;fill-opacity:1;fill-rule:nonzero;stroke:none"
         x="0 13.710938 19.267578 25.927734 37.050781 49.267578 60.390625 65.947266 77.070312 88.193359 99.316406 105.97656 117.09961"
         y="0"
         sodipodi:role="line"
         id="tspan12">A type system</tspan></text>
    <path
       id="path14"
       d="m 456,-4 h -5 c -3.33334,0 -5,3.33333302 -5,10 v 65 c 0,6.666664 -1.66666,10 -5,10 h -2.5 c -1.66666,0 -0.83334,0 2.5,0 h 2.5 c 1.66666,0 2.5,3.333336 2.5,10 v 65 c 0,6.66667 1.66666,10 5,10 h 5"
       style="fill:none;stroke:#000000;stroke-width:1;stroke-linecap:butt;stroke-linejoin:miter;stroke-miterlimit:10;stroke-dasharray:none;stroke-opacity:1"
       transform="matrix(0,-0.9563046,0.9563046,0,349.52932,504.45068)"
       clip-path="url(#clipPath15)" />
    <text
       id="text15"
       xml:space="preserve"
       transform="matrix(0.9563142,0,0,0.9563142,352.40178,99.456677)"
       clip-path="url(#clipPath16)"><tspan
         style="font-style:oblique;font-variant:normal;font-weight:normal;font-size:14px;font-family:Helvetica;writing-mode:lr-tb;fill:#000000;fill-opacity:1;fill-rule:nonzero;stroke:none"
         x="0 12.967773 20.753906 23.426758 28.088867 35.875 39.764648 47.550781 55.336914 58.447266 66.233398 74.019531 77.90918 81.798828 89.584961 93.474609 100.47461 108.26074 116.04688 123.83301 131.61914 135.50879 139.39844 147.18457"
         y="0"
         sodipodi:role="line"
         id="tspan15">We're going to spend the</tspan></text>
    <text
       id="text16"
       xml:space="preserve"
       transform="matrix(0.9563142,0,0,0.9563142,361.38218,115.71402)"
       clip-path="url(#clipPath17)"><tspan
         style="font-style:oblique;font-variant:normal;font-weight:normal;font-size:14px;font-family:Helvetica;writing-mode:lr-tb;fill:#000000;fill-opacity:1;fill-rule:nonzero;stroke:none"
         x="0 10.110352 17.896484 25.682617 28.792969 36.579102 40.46875 47.46875 55.254883 63.041016 67.703125 74.703125 82.489258 86.378906 89.489258 97.275391 105.06152 109.72363 117.50977 120.62012 128.40625"
         y="0"
         sodipodi:role="line"
         id="tspan16">whole course learning</tspan></text>
    <text
       id="text17"
       xml:space="preserve"
       transform="matrix(0.9563142,0,0,0.9563142,397.48304,131.97136)"
       clip-path="url(#clipPath18)"><tspan
         style="font-style:oblique;font-variant:normal;font-weight:normal;font-size:14px;font-family:Helvetica;writing-mode:lr-tb;fill:#000000;fill-opacity:1;fill-rule:nonzero;stroke:none"
         x="0 7.7861328 15.572266 23.358398 31.144531 35.03418 38.923828 42.813477 50.599609 53.709961"
         y="0"
         sodipodi:role="line"
         id="tspan17">about this</tspan></text>
  </g>
</svg>
