<?xml version="1.0" encoding="UTF-8" standalone="no"?>
<!-- Created with Inkscape (http://www.inkscape.org/) -->

<svg
   version="1.1"
   id="svg1"
   width="521.27997"
   height="172.15999"
   viewBox="0 0 521.27997 172.15999"
   sodipodi:docname="ts-3.pdf"
   xmlns:inkscape="http://www.inkscape.org/namespaces/inkscape"
   xmlns:sodipodi="http://sodipodi.sourceforge.net/DTD/sodipodi-0.dtd"
   xmlns="http://www.w3.org/2000/svg"
   xmlns:svg="http://www.w3.org/2000/svg">
  <defs
     id="defs1">
    <clipPath
       clipPathUnits="userSpaceOnUse"
       id="clipPath2">
      <path
         d="M 0,0 H 1629.1666 V 536.06769 H 0 Z"
         transform="scale(0.33391306)"
         clip-rule="evenodd"
         id="path2" />
    </clipPath>
    <clipPath
       clipPathUnits="userSpaceOnUse"
       id="clipPath4">
      <path
         d="M 0,0 H 1629.1666 V 536.06769 H 0 Z"
         transform="matrix(0.33391306,0,0,0.33391306,-0.5,-0.5)"
         clip-rule="evenodd"
         id="path4" />
    </clipPath>
    <clipPath
       clipPathUnits="userSpaceOnUse"
       id="clipPath5">
      <path
         d="M 0,0 H 1629.1666 V 536.06769 H 0 Z"
         transform="matrix(0.33390972,0,0,0.33390972,-27.28125,-84)"
         clip-rule="evenodd"
         id="path5" />
    </clipPath>
    <clipPath
       clipPathUnits="userSpaceOnUse"
       id="clipPath6">
      <path
         d="M 0,0 H 1629.1666 V 536.06769 H 0 Z"
         transform="matrix(0.33390972,0,0,0.33390972,-50.421875,-108)"
         clip-rule="evenodd"
         id="path6" />
    </clipPath>
    <clipPath
       clipPathUnits="userSpaceOnUse"
       id="clipPath8">
      <path
         d="M 0,0 H 1629.1666 V 536.06769 H 0 Z"
         transform="matrix(0.33391306,0,0,0.33391306,-0.5,-0.5)"
         clip-rule="evenodd"
         id="path8" />
    </clipPath>
    <clipPath
       clipPathUnits="userSpaceOnUse"
       id="clipPath10">
      <path
         d="M 0,0 H 1629.1666 V 536.06769 H 0 Z"
         transform="matrix(0.33391306,0,0,0.33391306,-0.5,-0.5)"
         clip-rule="evenodd"
         id="path10" />
    </clipPath>
    <clipPath
       clipPathUnits="userSpaceOnUse"
       id="clipPath11">
      <path
         d="M 0,0 H 1629.1666 V 536.06769 H 0 Z"
         transform="matrix(0.33390972,0,0,0.33390972,-246.01563,-71)"
         clip-rule="evenodd"
         id="path11" />
    </clipPath>
    <clipPath
       clipPathUnits="userSpaceOnUse"
       id="clipPath13">
      <path
         d="M 0,0 H 1629.1666 V 536.06769 H 0 Z"
         transform="matrix(0.33391306,0,0,0.33391306,-0.5,-0.5)"
         clip-rule="evenodd"
         id="path13" />
    </clipPath>
    <clipPath
       clipPathUnits="userSpaceOnUse"
       id="clipPath14">
      <path
         d="M 0,0 H 1629.1666 V 536.06769 H 0 Z"
         transform="matrix(0.33390972,0,0,0.33390972,-251.42188,-24)"
         clip-rule="evenodd"
         id="path14" />
    </clipPath>
    <clipPath
       clipPathUnits="userSpaceOnUse"
       id="clipPath15">
      <path
         d="M 0,0 H 1629.1666 V 536.06769 H 0 Z"
         transform="matrix(0.33390972,0,0,0.33390972,-387.59376,-24)"
         clip-rule="evenodd"
         id="path15" />
    </clipPath>
    <clipPath
       clipPathUnits="userSpaceOnUse"
       id="clipPath17">
      <path
         d="M 0,0 H 1629.1666 V 536.06769 H 0 Z"
         transform="matrix(0.33391306,0,0,0.33391306,-0.5,-0.5)"
         clip-rule="evenodd"
         id="path17" />
    </clipPath>
    <clipPath
       clipPathUnits="userSpaceOnUse"
       id="clipPath18">
      <path
         d="M 0,0 H 1629.1666 V 536.06769 H 0 Z"
         transform="matrix(0.33390972,0,0,0.33390972,-282.9375,-116)"
         clip-rule="evenodd"
         id="path18" />
    </clipPath>
    <clipPath
       clipPathUnits="userSpaceOnUse"
       id="clipPath19">
      <path
         d="M 0,0 H 1629.1666 V 536.06769 H 0 Z"
         transform="matrix(0.33390972,0,0,0.33390972,-356.07813,-116)"
         clip-rule="evenodd"
         id="path19" />
    </clipPath>
    <clipPath
       clipPathUnits="userSpaceOnUse"
       id="clipPath21">
      <path
         d="M 0,0 H 1629.1666 V 536.06769 H 0 Z"
         transform="matrix(0.33391306,0,0,0.33391306,-0.5,-0.5)"
         clip-rule="evenodd"
         id="path21" />
    </clipPath>
    <clipPath
       clipPathUnits="userSpaceOnUse"
       id="clipPath22">
      <path
         d="M 0,0 H 1629.1666 V 536.06769 H 0 Z"
         transform="matrix(0.33390972,0,0,0.33390972,-238.8125,-164)"
         clip-rule="evenodd"
         id="path22" />
    </clipPath>
  </defs>
  <sodipodi:namedview
     id="namedview1"
     pagecolor="#ffffff"
     bordercolor="#000000"
     borderopacity="0.25"
     inkscape:showpageshadow="2"
     inkscape:pageopacity="0.0"
     inkscape:pagecheckerboard="0"
     inkscape:deskcolor="#d1d1d1">
    <inkscape:page
       x="0"
       y="0"
       inkscape:label="1"
       id="page1"
       width="521.27997"
       height="172.15999"
       margin="0"
       bleed="0" />
  </sodipodi:namedview>
  <g
     id="g1"
     inkscape:groupmode="layer"
     inkscape:label="1">
    <path
       id="path1"
       d="M 0,0 H 544 V 179 H 0 Z"
       style="fill:#ffffff;fill-opacity:1;fill-rule:nonzero;stroke:none"
       transform="scale(0.95833324)"
       clip-path="url(#clipPath2)" />
    <path
       id="path3"
       d="m 1,58.5 h 170 v 60 H 1 Z"
       style="fill:#d5e8d4;fill-opacity:1;fill-rule:nonzero;stroke:#82b366;stroke-width:1;stroke-linecap:butt;stroke-linejoin:miter;stroke-miterlimit:10;stroke-dasharray:none;stroke-opacity:1"
       transform="matrix(0.95833324,0,0,0.95833324,0.47916662,0.47916662)"
       clip-path="url(#clipPath4)" />
    <text
       id="text4"
       xml:space="preserve"
       transform="matrix(0.95834284,0,0,0.95834284,26.144791,80.500799)"
       clip-path="url(#clipPath5)"><tspan
         style="font-variant:normal;font-weight:700;font-size:20px;font-family:Helvetica;writing-mode:lr-tb;fill:#000000;fill-opacity:1;fill-rule:nonzero;stroke:none"
         x="0 12.216797 24.433594 35.556641 41.113281 53.330078 66.669922 72.226562 82.96875 94.091797 106.30859"
         y="0"
         sodipodi:role="line"
         id="tspan4">The TS Type</tspan></text>
    <text
       id="text5"
       xml:space="preserve"
       transform="matrix(0.95834284,0,0,0.95834284,48.321443,103.50103)"
       clip-path="url(#clipPath6)"><tspan
         style="font-variant:normal;font-weight:700;font-size:20px;font-family:Helvetica;writing-mode:lr-tb;fill:#000000;fill-opacity:1;fill-rule:nonzero;stroke:none"
         x="0 13.339844 24.462891 35.585938 42.246094 53.369141"
         y="0"
         sodipodi:role="line"
         id="tspan5">System</tspan></text>
    <path
       id="path7"
       d="m 211,1 h -10 c -6.66667,0 -10,3.333333 -10,10 v 67.5 c 0,6.666664 -3.33333,10 -10,10 h -5 c -3.33333,0 -1.66667,0 5,0 h 5 c 3.33333,0 5,3.333336 5,10 V 166 c 0,6.66667 3.33333,10 10,10 h 10"
       style="fill:none;stroke:#000000;stroke-width:1;stroke-linecap:butt;stroke-linejoin:miter;stroke-miterlimit:10;stroke-dasharray:none;stroke-opacity:1"
       transform="matrix(0.95833324,0,0,0.95833324,0.47916662,0.47916662)"
       clip-path="url(#clipPath8)" />
    <path
       id="path9"
       d="M 221,48 H 541 V 83 H 221 Z"
       style="fill:#dae8fc;fill-opacity:1;fill-rule:nonzero;stroke:#6c8ebf;stroke-width:1;stroke-linecap:butt;stroke-linejoin:miter;stroke-miterlimit:10;stroke-dasharray:none;stroke-opacity:1"
       transform="matrix(0.95833324,0,0,0.95833324,0.47916662,0.47916662)"
       clip-path="url(#clipPath10)" />
    <text
       id="text10"
       xml:space="preserve"
       transform="matrix(0.95834284,0,0,0.95834284,235.76732,68.042342)"
       clip-path="url(#clipPath11)"><tspan
         style="font-variant:normal;font-weight:normal;font-size:14px;font-family:Helvetica;writing-mode:lr-tb;fill:#000000;fill-opacity:1;fill-rule:nonzero;stroke:none"
         x="0 10.110352 17.110352 24.896484 31.896484 35.786133 38.458984 42.348633 49.348633 57.134766 64.920898 68.810547 76.59668 84.382812 92.168945 99.955078 103.84473 111.63086 115.52051 118.63086 126.41699 134.20312 141.20312 143.87598 147.76562 151.65527 159.44141 163.33105 171.11719 178.90332 186.68945 189.7998 196.7998 203.7998 211.58594 215.47559 223.26172 231.04785 235.70996 239.59961 246.59961 254.38574 262.17188"
         y="0"
         sodipodi:role="line"
         id="tspan10">Uses 'type annotations' to analyze our code</tspan></text>
    <path
       id="path12"
       d="M 221,1 H 541 V 36 H 221 Z"
       style="fill:#dae8fc;fill-opacity:1;fill-rule:nonzero;stroke:#6c8ebf;stroke-width:1;stroke-linecap:butt;stroke-linejoin:miter;stroke-miterlimit:10;stroke-dasharray:none;stroke-opacity:1"
       transform="matrix(0.95833324,0,0,0.95833324,0.47916662,0.47916662)"
       clip-path="url(#clipPath13)" />
    <text
       id="text13"
       xml:space="preserve"
       transform="matrix(0.95834284,0,0,0.95834284,240.94836,23.000228)"
       clip-path="url(#clipPath14)"><tspan
         style="font-variant:normal;font-weight:normal;font-size:14px;font-family:Helvetica;writing-mode:lr-tb;fill:#000000;fill-opacity:1;fill-rule:nonzero;stroke:none"
         x="0 10.110352 17.896484 21.006836 28.792969 35.792969 39.682617 47.46875 54.46875 58.358398 65.358398 73.144531 77.03418 84.03418 91.820312 95.709961 103.49609 108.1582 112.82031 120.60645 125.26855 132.26855"
         y="0"
         sodipodi:role="line"
         id="tspan13">Helps us catch errors </tspan></text>
    <text
       id="text14"
       xml:space="preserve"
       transform="matrix(0.95834284,0,0,0.95834284,371.4477,23.000228)"
       clip-path="url(#clipPath15)"><tspan
         style="font-style:oblique;font-variant:normal;font-weight:normal;font-size:14px;font-family:Helvetica;writing-mode:lr-tb;fill:#000000;fill-opacity:1;fill-rule:nonzero;stroke:none"
         x="0 7.7861328 15.572266 20.234375 23.344727 31.130859 38.916992 42.806641 50.592773 58.378906 65.378906 73.165039 76.275391 84.061523 91.847656 103.50977 111.2959 119.08203"
         y="0"
         sodipodi:role="line"
         id="tspan14">during development</tspan></text>
    <path
       id="path16"
       d="m 221,94 h 320 v 35 H 221 Z"
       style="fill:#dae8fc;fill-opacity:1;fill-rule:nonzero;stroke:#6c8ebf;stroke-width:1;stroke-linecap:butt;stroke-linejoin:miter;stroke-miterlimit:10;stroke-dasharray:none;stroke-opacity:1"
       transform="matrix(0.95833324,0,0,0.95833324,0.47916662,0.47916662)"
       clip-path="url(#clipPath17)" />
    <text
       id="text17"
       xml:space="preserve"
       transform="matrix(0.95834284,0,0,0.95834284,271.15113,111.16777)"
       clip-path="url(#clipPath18)"><tspan
         style="font-variant:normal;font-weight:normal;font-size:14px;font-family:Helvetica;writing-mode:lr-tb;fill:#000000;fill-opacity:1;fill-rule:nonzero;stroke:none"
         x="0 10.889648 18.675781 21.786133 28.786133 32.675781 40.461914 47.461914 51.351562 54.461914 61.461914 69.248047"
         y="0"
         sodipodi:role="line"
         id="tspan17">Only active </tspan></text>
    <text
       id="text18"
       xml:space="preserve"
       transform="matrix(0.95834284,0,0,0.95834284,341.24493,111.16777)"
       clip-path="url(#clipPath19)"><tspan
         style="font-style:oblique;font-variant:normal;font-weight:normal;font-size:14px;font-family:Helvetica;writing-mode:lr-tb;fill:#000000;fill-opacity:1;fill-rule:nonzero;stroke:none"
         x="0 7.7861328 15.572266 20.234375 23.344727 31.130859 38.916992 42.806641 50.592773 58.378906 65.378906 73.165039 76.275391 84.061523 91.847656 103.50977 111.2959 119.08203"
         y="0"
         sodipodi:role="line"
         id="tspan18">during development</tspan></text>
    <path
       id="path20"
       d="m 221,141 h 320 v 35 H 221 Z"
       style="fill:#dae8fc;fill-opacity:1;fill-rule:nonzero;stroke:#6c8ebf;stroke-width:1;stroke-linecap:butt;stroke-linejoin:miter;stroke-miterlimit:10;stroke-dasharray:none;stroke-opacity:1"
       transform="matrix(0.95833324,0,0,0.95833324,0.47916662,0.47916662)"
       clip-path="url(#clipPath21)" />
    <text
       id="text21"
       xml:space="preserve"
       transform="matrix(0.95834284,0,0,0.95834284,228.86425,157.16823)"
       clip-path="url(#clipPath22)"><tspan
         style="font-variant:normal;font-weight:normal;font-size:14px;font-family:Helvetica;writing-mode:lr-tb;fill:#000000;fill-opacity:1;fill-rule:nonzero;stroke:none"
         x="0 10.110352 17.896484 25.682617 32.682617 40.46875 43.141602 47.03125 50.920898 58.707031 63.369141 71.155273 78.155273 81.265625 89.051758 96.837891 100.72754 108.51367 116.2998 123.2998 127.18945 134.97559 142.76172 147.42383 151.31348 159.09961 163.76172 175.42383 183.20996 190.99609 197.99609 205.78223 209.67188 217.45801 225.24414 229.13379 232.24414 243.90625 247.0166 254.0166 261.80273 265.69238 268.80273 276.58887"
         y="0"
         sodipodi:role="line"
         id="tspan21">Doesn't provide any performance optimization</tspan></text>
  </g>
</svg>
