<?xml version="1.0" encoding="UTF-8" standalone="no"?>
<!-- Created with Inkscape (http://www.inkscape.org/) -->

<svg
   version="1.1"
   id="svg1"
   width="664"
   height="388.16"
   viewBox="0 0 664 388.16"
   sodipodi:docname="ts-4.pdf"
   xmlns:inkscape="http://www.inkscape.org/namespaces/inkscape"
   xmlns:sodipodi="http://sodipodi.sourceforge.net/DTD/sodipodi-0.dtd"
   xmlns="http://www.w3.org/2000/svg"
   xmlns:svg="http://www.w3.org/2000/svg">
  <defs
     id="defs1">
    <clipPath
       clipPathUnits="userSpaceOnUse"
       id="clipPath2">
      <path
         d="M 0,0 H 2075 V 1210.9149 H 0 Z"
         transform="scale(0.33445784)"
         clip-rule="evenodd"
         id="path2" />
    </clipPath>
    <clipPath
       clipPathUnits="userSpaceOnUse"
       id="clipPath4">
      <path
         d="M 0,0 H 2075 V 1207.9251 H 0 Z"
         transform="matrix(0.33445784,0,0,0.33445784,-0.49999999,-0.49999999)"
         clip-rule="evenodd"
         id="path4" />
    </clipPath>
    <clipPath
       clipPathUnits="userSpaceOnUse"
       id="clipPath6">
      <path
         d="M 0,0 H 2075 V 1207.9251 H 0 Z"
         transform="matrix(0.33445784,0,0,0.33445784,-0.49999999,-0.49999999)"
         clip-rule="evenodd"
         id="path6" />
    </clipPath>
    <clipPath
       clipPathUnits="userSpaceOnUse"
       id="clipPath8">
      <path
         d="M 0,0 H 2075 V 1207.9251 H 0 Z"
         transform="matrix(0.33445784,0,0,0.33445784,-0.49999999,-0.49999999)"
         clip-rule="evenodd"
         id="path8" />
    </clipPath>
    <clipPath
       clipPathUnits="userSpaceOnUse"
       id="clipPath9">
      <path
         d="M 0,0 H 2075 V 1207.9251 H 0 Z"
         transform="matrix(0.33445448,0,0,0.33445448,-42.859375,-30)"
         clip-rule="evenodd"
         id="path9" />
    </clipPath>
    <clipPath
       clipPathUnits="userSpaceOnUse"
       id="clipPath10">
      <path
         d="M 0,0 H 2075 V 1207.9251 H 0 Z"
         transform="matrix(0.33445448,0,0,0.33445448,-17.28125,-59)"
         clip-rule="evenodd"
         id="path10" />
    </clipPath>
    <clipPath
       clipPathUnits="userSpaceOnUse"
       id="clipPath11">
      <path
         d="M 0,0 H 2075 V 1207.9251 H 0 Z"
         transform="matrix(0.33445448,0,0,0.33445448,-64,-88)"
         clip-rule="evenodd"
         id="path11" />
    </clipPath>
    <clipPath
       clipPathUnits="userSpaceOnUse"
       id="clipPath13">
      <path
         d="M 0,0 H 2075 V 1207.9251 H 0 Z"
         transform="matrix(0.33445784,0,0,0.33445784,-0.49999999,-0.49999999)"
         clip-rule="evenodd"
         id="path13" />
    </clipPath>
    <clipPath
       clipPathUnits="userSpaceOnUse"
       id="clipPath15">
      <path
         d="M 0,0 H 2075 V 1207.9251 H 0 Z"
         transform="matrix(0.33445784,0,0,0.33445784,-0.49999999,-0.49999999)"
         clip-rule="evenodd"
         id="path15" />
    </clipPath>
    <clipPath
       clipPathUnits="userSpaceOnUse"
       id="clipPath17">
      <path
         d="M 0,0 H 2075 V 1207.9251 H 0 Z"
         transform="matrix(0.33445784,0,0,0.33445784,-0.49999999,-0.49999999)"
         clip-rule="evenodd"
         id="path17" />
    </clipPath>
    <clipPath
       clipPathUnits="userSpaceOnUse"
       id="clipPath18">
      <path
         d="M 0,0 H 2075 V 1207.9251 H 0 Z"
         transform="matrix(0.33445448,0,0,0.33445448,-20.84375,-184)"
         clip-rule="evenodd"
         id="path18" />
    </clipPath>
    <clipPath
       clipPathUnits="userSpaceOnUse"
       id="clipPath20">
      <path
         d="M 0,0 H 2075 V 1207.9251 H 0 Z"
         transform="matrix(0.33445784,0,0,0.33445784,-0.49999999,-0.49999999)"
         clip-rule="evenodd"
         id="path20" />
    </clipPath>
    <clipPath
       clipPathUnits="userSpaceOnUse"
       id="clipPath22">
      <path
         d="M 0,0 H 2075 V 1207.9251 H 0 Z"
         transform="matrix(0.33445784,0,0,0.33445784,-0.49999999,-0.49999999)"
         clip-rule="evenodd"
         id="path22" />
    </clipPath>
    <clipPath
       clipPathUnits="userSpaceOnUse"
       id="clipPath24">
      <path
         d="M 0,0 H 2075 V 1207.9251 H 0 Z"
         transform="matrix(0.33445784,0,0,0.33445784,-0.49999999,-0.49999999)"
         clip-rule="evenodd"
         id="path24" />
    </clipPath>
    <clipPath
       clipPathUnits="userSpaceOnUse"
       id="clipPath25">
      <path
         d="M 0,0 H 2075 V 1207.9251 H 0 Z"
         transform="matrix(0.33445448,0,0,0.33445448,-23.28125,-299)"
         clip-rule="evenodd"
         id="path25" />
    </clipPath>
    <clipPath
       clipPathUnits="userSpaceOnUse"
       id="clipPath27">
      <path
         d="M 0,0 H 2075 V 1207.9251 H 0 Z"
         transform="matrix(0.33445784,0,0,0.33445784,-0.49999999,-0.49999999)"
         clip-rule="evenodd"
         id="path27" />
    </clipPath>
    <clipPath
       clipPathUnits="userSpaceOnUse"
       id="clipPath29">
      <path
         d="M 0,0 H 2075 V 1207.9251 H 0 Z"
         transform="matrix(0.33445784,0,0,0.33445784,-0.49999999,-0.49999999)"
         clip-rule="evenodd"
         id="path29" />
    </clipPath>
    <clipPath
       clipPathUnits="userSpaceOnUse"
       id="clipPath31">
      <path
         d="M 0,0 H 2075 V 1207.9251 H 0 Z"
         transform="matrix(0.33445784,0,0,0.33445784,-0.49999999,-0.49999999)"
         clip-rule="evenodd"
         id="path31" />
    </clipPath>
    <clipPath
       clipPathUnits="userSpaceOnUse"
       id="clipPath33">
      <path
         d="M 0,0 H 2075 V 1207.9251 H 0 Z"
         transform="matrix(0.33445784,0,0,0.33445784,-0.49999999,-0.49999999)"
         clip-rule="evenodd"
         id="path33" />
    </clipPath>
    <clipPath
       clipPathUnits="userSpaceOnUse"
       id="clipPath35">
      <path
         d="M 0,0 H 2075 V 1207.9251 H 0 Z"
         transform="matrix(0.33445784,0,0,0.33445784,-0.49999999,-0.49999999)"
         clip-rule="evenodd"
         id="path35" />
    </clipPath>
    <clipPath
       clipPathUnits="userSpaceOnUse"
       id="clipPath37">
      <path
         d="M 0,0 H 2075 V 1207.9251 H 0 Z"
         transform="matrix(0.33445784,0,0,0.33445784,-0.49999999,-0.49999999)"
         clip-rule="evenodd"
         id="path37" />
    </clipPath>
    <clipPath
       clipPathUnits="userSpaceOnUse"
       id="clipPath39">
      <path
         d="M 0,0 H 2075 V 1207.9251 H 0 Z"
         transform="matrix(0.33445784,0,0,0.33445784,-0.49999999,-0.49999999)"
         clip-rule="evenodd"
         id="path39" />
    </clipPath>
    <clipPath
       clipPathUnits="userSpaceOnUse"
       id="clipPath41">
      <path
         d="M 0,0 H 2075 V 1207.9251 H 0 Z"
         transform="matrix(0.33445784,0,0,0.33445784,-0.49999999,-0.49999999)"
         clip-rule="evenodd"
         id="path41" />
    </clipPath>
    <clipPath
       clipPathUnits="userSpaceOnUse"
       id="clipPath43">
      <path
         d="M 0,0 H 2075 V 1207.9251 H 0 Z"
         transform="matrix(0.33445784,0,0,0.33445784,-0.49999999,-0.49999999)"
         clip-rule="evenodd"
         id="path43" />
    </clipPath>
    <clipPath
       clipPathUnits="userSpaceOnUse"
       id="clipPath45">
      <path
         d="M 0,0 H 2075 V 1207.9251 H 0 Z"
         transform="matrix(0.33445784,0,0,0.33445784,-0.49999999,-0.49999999)"
         clip-rule="evenodd"
         id="path45" />
    </clipPath>
    <clipPath
       clipPathUnits="userSpaceOnUse"
       id="clipPath47">
      <path
         d="M 0,0 H 2075 V 1207.9251 H 0 Z"
         transform="matrix(0.33445784,0,0,0.33445784,-0.49999999,-0.49999999)"
         clip-rule="evenodd"
         id="path47" />
    </clipPath>
    <clipPath
       clipPathUnits="userSpaceOnUse"
       id="clipPath49">
      <path
         d="M 0,0 H 2075 V 1207.9251 H 0 Z"
         transform="matrix(0.33445784,0,0,0.33445784,-0.49999999,-0.49999999)"
         clip-rule="evenodd"
         id="path49" />
    </clipPath>
    <clipPath
       clipPathUnits="userSpaceOnUse"
       id="clipPath51">
      <path
         d="M 0,0 H 2075 V 1207.9251 H 0 Z"
         transform="matrix(0.33445784,0,0,0.33445784,-0.49999999,-0.49999999)"
         clip-rule="evenodd"
         id="path51" />
    </clipPath>
    <clipPath
       clipPathUnits="userSpaceOnUse"
       id="clipPath53">
      <path
         d="M 0,0 H 2075 V 1207.9251 H 0 Z"
         transform="matrix(0.33445784,0,0,0.33445784,-0.49999999,-0.49999999)"
         clip-rule="evenodd"
         id="path53" />
    </clipPath>
    <clipPath
       clipPathUnits="userSpaceOnUse"
       id="clipPath54">
      <path
         d="M 0,0 H 2075 V 1207.9251 H 0 Z"
         transform="matrix(0.33445448,0,0,0.33445448,-373,-182)"
         clip-rule="evenodd"
         id="path54" />
    </clipPath>
    <clipPath
       clipPathUnits="userSpaceOnUse"
       id="clipPath55">
      <path
         d="M 0,0 H 2075 V 1207.9251 H 0 Z"
         transform="matrix(0.33445448,0,0,0.33445448,-443,-230)"
         clip-rule="evenodd"
         id="path55" />
    </clipPath>
    <clipPath
       clipPathUnits="userSpaceOnUse"
       id="clipPath56">
      <path
         d="M 0,0 H 2075 V 1207.9251 H 0 Z"
         transform="matrix(0.33445448,0,0,0.33445448,-393.10938,-305)"
         clip-rule="evenodd"
         id="path56" />
    </clipPath>
    <clipPath
       clipPathUnits="userSpaceOnUse"
       id="clipPath57">
      <path
         d="M 0,0 H 2075 V 1207.9251 H 0 Z"
         transform="matrix(0.33445448,0,0,0.33445448,-380.82813,-325)"
         clip-rule="evenodd"
         id="path57" />
    </clipPath>
    <clipPath
       clipPathUnits="userSpaceOnUse"
       id="clipPath58">
      <path
         d="M 0,0 H 2075 V 1207.9251 H 0 Z"
         transform="matrix(0.33445448,0,0,0.33445448,-419.25,-346)"
         clip-rule="evenodd"
         id="path58" />
    </clipPath>
  </defs>
  <sodipodi:namedview
     id="namedview1"
     pagecolor="#ffffff"
     bordercolor="#000000"
     borderopacity="0.25"
     inkscape:showpageshadow="2"
     inkscape:pageopacity="0.0"
     inkscape:pagecheckerboard="0"
     inkscape:deskcolor="#d1d1d1">
    <inkscape:page
       x="0"
       y="0"
       inkscape:label="1"
       id="page1"
       width="664"
       height="388.16"
       margin="0"
       bleed="0" />
  </sodipodi:namedview>
  <g
     id="g1"
     inkscape:groupmode="layer"
     inkscape:label="1">
    <path
       id="path1"
       d="M 0,0 H 694 V 405 H 0 Z"
       style="fill:#ffffff;fill-opacity:1;fill-rule:nonzero;stroke:none"
       transform="scale(0.95677228)"
       clip-path="url(#clipPath2)" />
    <path
       id="path3"
       d="m 136,101 v 20 -5 13.63"
       style="fill:none;stroke:#000000;stroke-width:1;stroke-linecap:butt;stroke-linejoin:miter;stroke-miterlimit:10;stroke-dasharray:none;stroke-opacity:1"
       transform="matrix(0.95677228,0,0,0.95677228,0.47838613,0.47838613)"
       clip-path="url(#clipPath4)" />
    <path
       id="path5"
       d="m 136,134.88 -3.5,-7 3.5,1.75 3.5,-1.75 z"
       style="fill:#000000;fill-opacity:1;fill-rule:nonzero;stroke:#000000;stroke-width:1;stroke-linecap:butt;stroke-linejoin:miter;stroke-miterlimit:10;stroke-dasharray:none;stroke-opacity:1"
       transform="matrix(0.95677228,0,0,0.95677228,0.47838613,0.47838613)"
       clip-path="url(#clipPath6)" />
    <path
       id="path7"
       d="M 1,1 H 271 V 101 H 1 Z"
       style="fill:#d5e8d4;fill-opacity:1;fill-rule:nonzero;stroke:#82b366;stroke-width:1;stroke-linecap:butt;stroke-linejoin:miter;stroke-miterlimit:10;stroke-dasharray:none;stroke-opacity:1"
       transform="matrix(0.95677228,0,0,0.95677228,0.47838613,0.47838613)"
       clip-path="url(#clipPath8)" />
    <text
       id="text8"
       xml:space="preserve"
       transform="matrix(0.95678188,0,0,0.95678188,41.007073,28.703456)"
       clip-path="url(#clipPath9)"><tspan
         style="font-variant:normal;font-weight:700;font-size:24px;font-family:Helvetica;writing-mode:lr-tb;fill:#000000;fill-opacity:1;fill-rule:nonzero;stroke:none"
         x="0 12.890625 26.238281 40.898438 54.246094 67.59375 80.941406 90.28125 96.949219 111.60938 119.60156 126.26953 143.60156 158.26172 172.92188"
         y="0"
         sodipodi:role="line"
         id="tspan8">Typescript Code</tspan></text>
    <text
       id="text9"
       xml:space="preserve"
       transform="matrix(0.95678188,0,0,0.95678188,16.534387,56.450131)"
       clip-path="url(#clipPath10)"><tspan
         style="font-variant:normal;font-weight:700;font-size:24px;font-family:Helvetica;writing-mode:lr-tb;fill:#000000;fill-opacity:1;fill-rule:nonzero;stroke:none"
         x="0 7.9921875 21.339844 34.6875 48.035156 61.382812 74.730469 88.078125 97.417969 104.08594 118.74609 126.73828 133.40625 152.07422 158.74219 166.73438 181.39453 188.0625 196.05469 209.40234 224.0625"
         y="0"
         sodipodi:role="line"
         id="tspan9">(Javascript with type</tspan></text>
    <text
       id="text10"
       xml:space="preserve"
       transform="matrix(0.95678188,0,0,0.95678188,61.23404,84.196805)"
       clip-path="url(#clipPath11)"><tspan
         style="font-variant:normal;font-weight:700;font-size:24px;font-family:Helvetica;writing-mode:lr-tb;fill:#000000;fill-opacity:1;fill-rule:nonzero;stroke:none"
         x="0 13.347656 28.007812 42.667969 57.328125 65.320312 78.667969 86.660156 93.328125 107.98828 122.64844 135.99609"
         y="0"
         sodipodi:role="line"
         id="tspan10">annotations)</tspan></text>
    <path
       id="path12"
       d="m 136,216 v 20 -5 13.63"
       style="fill:none;stroke:#000000;stroke-width:1;stroke-linecap:butt;stroke-linejoin:miter;stroke-miterlimit:10;stroke-dasharray:none;stroke-opacity:1"
       transform="matrix(0.95677228,0,0,0.95677228,0.47838613,0.47838613)"
       clip-path="url(#clipPath13)" />
    <path
       id="path14"
       d="m 136,249.88 -3.5,-7 3.5,1.75 3.5,-1.75 z"
       style="fill:#000000;fill-opacity:1;fill-rule:nonzero;stroke:#000000;stroke-width:1;stroke-linecap:butt;stroke-linejoin:miter;stroke-miterlimit:10;stroke-dasharray:none;stroke-opacity:1"
       transform="matrix(0.95677228,0,0,0.95677228,0.47838613,0.47838613)"
       clip-path="url(#clipPath15)" />
    <path
       id="path16"
       d="m 1,136 h 270 v 80 H 1 Z"
       style="fill:#dae8fc;fill-opacity:1;fill-rule:nonzero;stroke:#6c8ebf;stroke-width:1;stroke-linecap:butt;stroke-linejoin:miter;stroke-miterlimit:10;stroke-dasharray:none;stroke-opacity:1"
       transform="matrix(0.95677228,0,0,0.95677228,0.47838613,0.47838613)"
       clip-path="url(#clipPath17)" />
    <text
       id="text17"
       xml:space="preserve"
       transform="matrix(0.95678188,0,0,0.95678188,19.942922,176.04787)"
       clip-path="url(#clipPath18)"><tspan
         style="font-variant:normal;font-weight:700;font-size:24px;font-family:Helvetica;writing-mode:lr-tb;fill:#000000;fill-opacity:1;fill-rule:nonzero;stroke:none"
         x="0 12.890625 26.238281 40.898438 54.246094 67.59375 80.941406 90.28125 96.949219 111.60938 119.60156 126.26953 143.60156 158.26172 179.60156 194.26172 200.92969 207.59766 220.94531"
         y="0"
         sodipodi:role="line"
         id="tspan17">Typescript Compiler</tspan></text>
    <path
       id="path19"
       d="m 271,291 h 20 l 13.64001,0.23001"
       style="fill:none;stroke:#000000;stroke-width:1;stroke-linecap:butt;stroke-linejoin:miter;stroke-miterlimit:10;stroke-dasharray:none;stroke-opacity:1"
       transform="matrix(0.95677228,0,0,0.95677228,0.47838613,0.47838613)"
       clip-path="url(#clipPath20)" />
    <path
       id="path21"
       d="m 309.89001,291.32001 -7.06002,3.38 1.81002,-3.47 -1.69,-3.53 z"
       style="fill:#000000;fill-opacity:1;fill-rule:nonzero;stroke:#000000;stroke-width:1;stroke-linecap:butt;stroke-linejoin:miter;stroke-miterlimit:10;stroke-dasharray:none;stroke-opacity:1"
       transform="matrix(0.95677228,0,0,0.95677228,0.47838613,0.47838613)"
       clip-path="url(#clipPath22)" />
    <path
       id="path23"
       d="m 1,251 h 270 v 80 H 1 Z"
       style="fill:#d5e8d4;fill-opacity:1;fill-rule:nonzero;stroke:#82b366;stroke-width:1;stroke-linecap:butt;stroke-linejoin:miter;stroke-miterlimit:10;stroke-dasharray:none;stroke-opacity:1"
       transform="matrix(0.95677228,0,0,0.95677228,0.47838613,0.47838613)"
       clip-path="url(#clipPath24)" />
    <text
       id="text24"
       xml:space="preserve"
       transform="matrix(0.95678188,0,0,0.95678188,22.275078,286.07778)"
       clip-path="url(#clipPath25)"><tspan
         style="font-variant:normal;font-weight:700;font-size:24px;font-family:Helvetica;writing-mode:lr-tb;fill:#000000;fill-opacity:1;fill-rule:nonzero;stroke:none"
         x="0 16.007812 22.675781 36.023438 42.691406 57.351562 64.019531 78.679688 85.347656 100.00781 106.67578 120.02344 133.37109 146.71875 160.06641 173.41406 186.76172 196.10156 202.76953 217.42969"
         y="0"
         sodipodi:role="line"
         id="tspan24">Plain old Javascript</tspan></text>
    <path
       id="path26"
       d="M 311,151 H 651.01001 V 401 H 311 Z"
       style="fill:#ffffff;fill-opacity:1;fill-rule:nonzero;stroke:#666666;stroke-width:1;stroke-linecap:butt;stroke-linejoin:miter;stroke-miterlimit:10;stroke-dasharray:none;stroke-opacity:1"
       transform="matrix(0.95677228,0,0,0.95677228,0.47838613,0.47838613)"
       clip-path="url(#clipPath27)" />
    <path
       id="path28"
       d="m 596.01007,166 c -6e-5,0.6566 -0.0641,1.3069 -0.1922,1.9509 -0.12811,0.64401 -0.31781,1.26933 -0.56909,1.87596 -0.25128,0.60664 -0.55933,1.18294 -0.92413,1.7289 -0.36475,0.54596 -0.7793,1.05108 -1.2436,1.51538 -0.46429,0.46428 -0.96942,0.87881 -1.51538,1.2436 -0.54596,0.36479 -1.12225,0.67284 -1.72888,0.92412 -0.60663,0.25127 -1.23193,0.44096 -1.87591,0.56908 -0.64399,0.1281 -1.29425,0.19214 -1.95087,0.19215 -0.65668,-1e-5 -1.30701,-0.0641 -1.95099,-0.19215 -0.64404,-0.12812 -1.26935,-0.31781 -1.87598,-0.56908 -0.60662,-0.25128 -1.18298,-0.55933 -1.72894,-0.92412 -0.54596,-0.36479 -1.05108,-0.77932 -1.51532,-1.24362 -0.46429,-0.46429 -0.87884,-0.96942 -1.24365,-1.51538 -0.36481,-0.54596 -0.67291,-1.12225 -0.92419,-1.72888 -0.25129,-0.60663 -0.44092,-1.23195 -0.56904,-1.87596 -0.12799,-0.644 -0.19201,-1.2943 -0.19201,-1.9509 0,-0.65662 0.064,-1.30693 0.19208,-1.95093 0.12805,-0.64401 0.31774,-1.26933 0.56903,-1.87596 0.25128,-0.60664 0.55932,-1.18294 0.92413,-1.7289 0.36481,-0.54596 0.77936,-1.05108 1.24365,-1.51536 0.46424,-0.46431 0.96936,-0.87886 1.51532,-1.24365 0.54596,-0.3648 1.12232,-0.67284 1.72894,-0.92411 0.60663,-0.25126 1.23194,-0.44094 1.87598,-0.56904 0.64398,-0.1281 1.29431,-0.19214 1.95099,-0.19216 0.65662,2e-5 1.30688,0.0641 1.95087,0.19216 0.64398,0.1281 1.26928,0.31778 1.87591,0.56904 0.60663,0.25127 1.18292,0.55931 1.72888,0.92411 0.54596,0.36479 1.05109,0.77934 1.51538,1.24365 0.4643,0.46428 0.87885,0.9694 1.2436,1.51536 0.3648,0.54596 0.67285,1.12226 0.92413,1.7289 0.25128,0.60663 0.44098,1.23195 0.56909,1.87596 0.12811,0.644 0.19214,1.29431 0.1922,1.95093 z"
       style="fill:none;stroke:#666666;stroke-width:1;stroke-linecap:butt;stroke-linejoin:miter;stroke-miterlimit:10;stroke-dasharray:none;stroke-opacity:1"
       transform="matrix(0.95677228,0,0,0.95677228,0.47838613,0.47838613)"
       clip-path="url(#clipPath29)" />
    <path
       id="path30"
       d="m 621.01007,166 c 0,0.6566 -0.0641,1.3069 -0.1922,1.9509 -0.12811,0.64401 -0.31781,1.26933 -0.56909,1.87596 -0.25128,0.60664 -0.55927,1.18294 -0.92407,1.7289 -0.36475,0.54596 -0.7793,1.05108 -1.24359,1.51538 -0.4643,0.46428 -0.96949,0.87881 -1.51545,1.2436 -0.54596,0.36479 -1.12225,0.67284 -1.72888,0.92412 -0.60663,0.25127 -1.23199,0.44096 -1.87597,0.56908 -0.64399,0.1281 -1.29426,0.19214 -1.95081,0.19215 -0.65668,-1e-5 -1.30701,-0.0641 -1.95099,-0.19215 -0.64398,-0.12812 -1.26935,-0.31781 -1.87598,-0.56908 -0.60662,-0.25128 -1.18292,-0.55933 -1.72888,-0.92412 -0.54596,-0.36479 -1.05108,-0.77932 -1.51538,-1.24362 -0.46429,-0.46429 -0.87884,-0.96942 -1.24365,-1.51538 -0.36481,-0.54596 -0.67279,-1.12225 -0.92407,-1.72888 -0.25128,-0.60663 -0.44098,-1.23195 -0.56909,-1.87596 -0.12812,-0.644 -0.19214,-1.2943 -0.19208,-1.9509 -6e-5,-0.65662 0.064,-1.30693 0.19208,-1.95093 0.12805,-0.64401 0.31774,-1.26933 0.56903,-1.87596 0.25128,-0.60664 0.55932,-1.18294 0.92413,-1.7289 0.36481,-0.54596 0.77936,-1.05108 1.24365,-1.51536 0.4643,-0.46431 0.96948,-0.87886 1.51544,-1.24365 0.5459,-0.3648 1.1222,-0.67284 1.72882,-0.92411 0.60663,-0.25126 1.232,-0.44094 1.87598,-0.56904 0.64398,-0.1281 1.29431,-0.19214 1.95099,-0.19216 0.65655,2e-5 1.30682,0.0641 1.95081,0.19216 0.64398,0.1281 1.26934,0.31778 1.87597,0.56904 0.60663,0.25127 1.18299,0.55931 1.72894,0.92411 0.54596,0.36479 1.05109,0.77934 1.51539,1.24365 0.46429,0.46428 0.87884,0.9694 1.24359,1.51536 0.3648,0.54596 0.67279,1.12226 0.92407,1.7289 0.25128,0.60663 0.44098,1.23195 0.56909,1.87596 0.12811,0.644 0.1922,1.29431 0.1922,1.95093 z"
       style="fill:none;stroke:#666666;stroke-width:1;stroke-linecap:butt;stroke-linejoin:miter;stroke-miterlimit:10;stroke-dasharray:none;stroke-opacity:1"
       transform="matrix(0.95677228,0,0,0.95677228,0.47838613,0.47838613)"
       clip-path="url(#clipPath31)" />
    <path
       id="path32"
       d="m 646.01007,166 c -6e-5,0.6566 -0.0642,1.3069 -0.19226,1.9509 -0.12811,0.64401 -0.31775,1.26933 -0.56903,1.87596 -0.25128,0.60664 -0.55933,1.18294 -0.92413,1.7289 -0.36475,0.54596 -0.7793,1.05108 -1.2436,1.51538 -0.46429,0.46428 -0.96942,0.87881 -1.51538,1.2436 -0.54596,0.36479 -1.12225,0.67284 -1.72888,0.92412 -0.60663,0.25127 -1.23193,0.44096 -1.87591,0.56908 -0.64399,0.1281 -1.29432,0.19214 -1.95087,0.19215 -0.65662,-1e-5 -1.30695,-0.0641 -1.95099,-0.19215 -0.64398,-0.12812 -1.26935,-0.31781 -1.87598,-0.56908 -0.60662,-0.25128 -1.18292,-0.55933 -1.72888,-0.92412 -0.54596,-0.36479 -1.05108,-0.77932 -1.51538,-1.24362 -0.46429,-0.46429 -0.8789,-0.96942 -1.24371,-1.51538 -0.36481,-0.54596 -0.67279,-1.12225 -0.92407,-1.72888 -0.25122,-0.60663 -0.44086,-1.23195 -0.56897,-1.87596 -0.12812,-0.644 -0.19214,-1.2943 -0.19214,-1.9509 0,-0.65662 0.064,-1.30693 0.19214,-1.95093 0.12811,-0.64401 0.31775,-1.26933 0.56897,-1.87596 0.25128,-0.60664 0.55926,-1.18294 0.92407,-1.7289 0.36481,-0.54596 0.77942,-1.05108 1.24371,-1.51536 0.4643,-0.46431 0.96942,-0.87886 1.51538,-1.24365 0.54596,-0.3648 1.12226,-0.67284 1.72888,-0.92411 0.60663,-0.25126 1.232,-0.44094 1.87598,-0.56904 0.64404,-0.1281 1.29437,-0.19214 1.95099,-0.19216 0.65655,2e-5 1.30688,0.0641 1.95087,0.19216 0.64398,0.1281 1.26928,0.31778 1.87591,0.56904 0.60663,0.25127 1.18292,0.55931 1.72888,0.92411 0.54596,0.36479 1.05109,0.77934 1.51538,1.24365 0.4643,0.46428 0.87885,0.9694 1.2436,1.51536 0.3648,0.54596 0.67285,1.12226 0.92413,1.7289 0.25128,0.60663 0.44092,1.23195 0.56903,1.87596 0.12811,0.644 0.1922,1.29431 0.19226,1.95093 z"
       style="fill:none;stroke:#008cff;stroke-width:1;stroke-linecap:butt;stroke-linejoin:miter;stroke-miterlimit:10;stroke-dasharray:none;stroke-opacity:1"
       transform="matrix(0.95677228,0,0,0.95677228,0.47838613,0.47838613)"
       clip-path="url(#clipPath33)" />
    <path
       id="path34"
       d="m 311,191 h 30 v -25 c 0,-2.76 2.23999,-5 5,-5 h 135 c 2.76999,0 5,2.24 5,5 v 25 h 165.01001"
       style="fill:none;stroke:#c4c4c4;stroke-width:1;stroke-linecap:butt;stroke-linejoin:miter;stroke-miterlimit:10;stroke-dasharray:none;stroke-opacity:1"
       transform="matrix(0.95677228,0,0,0.95677228,0.47838613,0.47838613)"
       clip-path="url(#clipPath35)" />
    <path
       id="path36"
       d="M 311,261 H 651.01001"
       style="fill:none;stroke:#c4c4c4;stroke-width:1;stroke-linecap:butt;stroke-linejoin:miter;stroke-miterlimit:10;stroke-dasharray:none;stroke-opacity:1"
       transform="matrix(0.95677228,0,0,0.95677228,0.47838613,0.47838613)"
       clip-path="url(#clipPath37)" />
    <path
       id="path38"
       d="m 411,211 c 0,-2.75999 2.23999,-5 5,-5 h 220.01001 c 2.76001,0 5,2.24001 5,5 v 25 c 0,2.75999 -2.23999,5 -5,5 H 416 c -2.76001,0 -5,-2.24001 -5,-5 z"
       style="fill:none;stroke:#c4c4c4;stroke-width:1;stroke-linecap:butt;stroke-linejoin:miter;stroke-miterlimit:10;stroke-dasharray:none;stroke-opacity:1"
       transform="matrix(0.95677228,0,0,0.95677228,0.47838613,0.47838613)"
       clip-path="url(#clipPath39)" />
    <path
       id="path40"
       d="m 348,168 h 11 l 4,4 v 14 h -15 z"
       style="fill:none;stroke:#c4c4c4;stroke-width:1;stroke-linecap:butt;stroke-linejoin:miter;stroke-miterlimit:10;stroke-dasharray:none;stroke-opacity:1"
       transform="matrix(0.95677228,0,0,0.95677228,0.47838613,0.47838613)"
       clip-path="url(#clipPath41)" />
    <path
       id="path42"
       d="m 359,168 v 4 l 4,1"
       style="fill:none;stroke:#c4c4c4;stroke-width:1;stroke-linecap:butt;stroke-linejoin:miter;stroke-miterlimit:10;stroke-dasharray:none;stroke-opacity:1"
       transform="matrix(0.95677228,0,0,0.95677228,0.47838613,0.47838613)"
       clip-path="url(#clipPath43)" />
    <path
       id="path44"
       d="m 418,215 h 11 l 4,4 v 14 h -15 z"
       style="fill:none;stroke:#c4c4c4;stroke-width:1;stroke-linecap:butt;stroke-linejoin:miter;stroke-miterlimit:10;stroke-dasharray:none;stroke-opacity:1"
       transform="matrix(0.95677228,0,0,0.95677228,0.47838613,0.47838613)"
       clip-path="url(#clipPath45)" />
    <path
       id="path46"
       d="m 429,215 v 4 l 4,1"
       style="fill:none;stroke:#c4c4c4;stroke-width:1;stroke-linecap:butt;stroke-linejoin:miter;stroke-miterlimit:10;stroke-dasharray:none;stroke-opacity:1"
       transform="matrix(0.95677228,0,0,0.95677228,0.47838613,0.47838613)"
       clip-path="url(#clipPath47)" />
    <path
       id="path48"
       d="m 323,225 10,-10 v 6 h 10 v 8 h -10 v 6 z"
       style="fill:#c4c4c4;fill-opacity:1;fill-rule:nonzero;stroke:#c4c4c4;stroke-width:1;stroke-linecap:butt;stroke-linejoin:miter;stroke-miterlimit:10;stroke-dasharray:none;stroke-opacity:1"
       transform="matrix(0.95677228,0,0,0.95677228,0.47838613,0.47838613)"
       clip-path="url(#clipPath49)" />
    <path
       id="path50"
       d="m 373,225 -10,-10 v 6 h -10 v 8 h 10 v 6 z"
       style="fill:#c4c4c4;fill-opacity:1;fill-rule:nonzero;stroke:#c4c4c4;stroke-width:1;stroke-linecap:butt;stroke-linejoin:miter;stroke-miterlimit:10;stroke-dasharray:none;stroke-opacity:1"
       transform="matrix(0.95677228,0,0,0.95677228,0.47838613,0.47838613)"
       clip-path="url(#clipPath51)" />
    <path
       id="path52"
       d="m 398.60001,228.3 c -1.70002,2.84 -5.37,3.76 -8.21,2.07 -2.84002,-1.7 -3.78002,-5.37 -2.09002,-8.22001 1.68002,-2.83999 5.35,-3.78999 8.20001,-2.11 l -1.60001,1.46001 7.9,1.8 -1.79999,-7.5 -1.70001,1.59999 c -3.19,-2.36999 -7.5,-2.57998 -10.9,-0.52999 -3.41,2.05999 -5.22998,5.96 -4.63,9.88999 0.61001,3.93001 3.53,7.11001 7.40002,8.04001 3.85999,0.93 7.90998,-0.57 10.22998,-3.8 z"
       style="fill:#c4c4c4;fill-opacity:1;fill-rule:nonzero;stroke:#c4c4c4;stroke-width:1;stroke-linecap:butt;stroke-linejoin:miter;stroke-miterlimit:10;stroke-dasharray:none;stroke-opacity:1"
       transform="matrix(0.95677228,0,0,0.95677228,0.47838613,0.47838613)"
       clip-path="url(#clipPath53)" />
    <text
       id="text53"
       xml:space="preserve"
       transform="matrix(0.95678188,0,0,0.95678188,356.87964,174.1343)"
       clip-path="url(#clipPath54)"><tspan
         style="font-variant:normal;font-weight:normal;font-size:17px;font-family:Helvetica;writing-mode:lr-tb;fill:#666666;fill-opacity:1;fill-rule:nonzero;stroke:none"
         x="0 11.338867 20.793457 30.248047 39.702637 44.425781"
         y="0"
         sodipodi:role="line"
         id="tspan53">Page 1</tspan></text>
    <text
       id="text54"
       xml:space="preserve"
       transform="matrix(0.95678188,0,0,0.95678188,423.85437,220.05983)"
       clip-path="url(#clipPath55)"><tspan
         style="font-variant:normal;font-weight:normal;font-size:17px;font-family:Helvetica;writing-mode:lr-tb;fill:#666666;fill-opacity:1;fill-rule:nonzero;stroke:none"
         x="0 9.4545898 14.177734 18.900879 28.355469 36.855469 41.578613 46.301758 51.024902 63.301758 75.578613 86.925781 91.648926 101.10352 106.76465 116.21924 127.56641 132.28955 136.06641"
         y="0"
         sodipodi:role="line"
         id="tspan54">https://www.draw.io</tspan></text>
    <text
       id="text55"
       xml:space="preserve"
       transform="matrix(0.95678188,0,0,0.95678188,376.11993,291.81847)"
       clip-path="url(#clipPath56)"><tspan
         style="font-style:oblique;font-variant:normal;font-weight:normal;font-size:17px;font-family:Helvetica;writing-mode:lr-tb;fill:#000000;fill-opacity:1;fill-rule:nonzero;stroke:none"
         x="0 11.338867 17 26.45459 38.731445 47.231445 56.686035 62.347168 67.070312 76.524902 85.024902 94.479492 102.97949 112.43408 117.15723 126.61182 135.11182 139.83496 149.28955 153.06641 162.521 166.29785"
         y="0"
         sodipodi:role="line"
         id="tspan55">Browser executes plain</tspan></text>
    <text
       id="text56"
       xml:space="preserve"
       transform="matrix(0.95678188,0,0,0.95678188,364.36945,310.95411)"
       clip-path="url(#clipPath57)"><tspan
         style="font-style:oblique;font-variant:normal;font-weight:normal;font-size:17px;font-family:Helvetica;writing-mode:lr-tb;fill:#000000;fill-opacity:1;fill-rule:nonzero;stroke:none"
         x="0 8.5 17.95459 26.45459 35.90918 44.40918 52.90918 58.570312 62.347168 71.801758 76.524902 81.248047 85.971191 95.425781 104.88037 113.38037 118.10352 127.55811 137.0127 141.73584 145.5127 154.96729 164.42188 173.87646 178.59961 190.87646"
         y="0"
         sodipodi:role="line"
         id="tspan56">Javascript, has no idea we</tspan></text>
    <text
       id="text57"
       xml:space="preserve"
       transform="matrix(0.95678188,0,0,0.95678188,401.1308,331.04653)"
       clip-path="url(#clipPath58)"><tspan
         style="font-style:oblique;font-variant:normal;font-weight:normal;font-size:17px;font-family:Helvetica;writing-mode:lr-tb;fill:#000000;fill-opacity:1;fill-rule:nonzero;stroke:none"
         x="0 12.276855 17.937988 27.392578 32.115723 41.570312 45.994629 55.449219 63.949219 73.403809 82.858398 91.358398 99.858398 105.51953 109.29639 118.75098"
         y="0"
         sodipodi:role="line"
         id="tspan57">wrote Typescript</tspan></text>
  </g>
</svg>
