<?xml version="1.0" encoding="UTF-8" standalone="no"?>
<!-- Created with Inkscape (http://www.inkscape.org/) -->

<svg
   version="1.1"
   id="svg1"
   width="453.44"
   height="200"
   viewBox="0 0 453.44 200"
   sodipodi:docname="ts-6.pdf"
   xmlns:inkscape="http://www.inkscape.org/namespaces/inkscape"
   xmlns:sodipodi="http://sodipodi.sourceforge.net/DTD/sodipodi-0.dtd"
   xmlns="http://www.w3.org/2000/svg"
   xmlns:svg="http://www.w3.org/2000/svg">
  <defs
     id="defs1">
    <clipPath
       clipPathUnits="userSpaceOnUse"
       id="clipPath2">
      <path
         d="M 0,0 H 1416.6666 V 624.64838 H 0 Z"
         transform="scale(0.33458825)"
         clip-rule="evenodd"
         id="path2" />
    </clipPath>
    <clipPath
       clipPathUnits="userSpaceOnUse"
       id="clipPath4">
      <path
         d="M 0,0 H 1416.6666 V 618.67084 H 0 Z"
         transform="matrix(0.33458825,0,0,0.33458825,-0.49999999,-0.49999999)"
         clip-rule="evenodd"
         id="path4" />
    </clipPath>
    <clipPath
       clipPathUnits="userSpaceOnUse"
       id="clipPath5">
      <path
         d="M 0,0 H 1416.6666 V 618.67084 H 0 Z"
         transform="matrix(0.33458489,0,0,0.33458489,-17.093751,-55)"
         clip-rule="evenodd"
         id="path5" />
    </clipPath>
    <clipPath
       clipPathUnits="userSpaceOnUse"
       id="clipPath6">
      <path
         d="M 0,0 H 1416.6666 V 618.67084 H 0 Z"
         transform="matrix(0.33458489,0,0,0.33458489,-164.125,-55)"
         clip-rule="evenodd"
         id="path6" />
    </clipPath>
    <clipPath
       clipPathUnits="userSpaceOnUse"
       id="clipPath7">
      <path
         d="M 0,0 H 1416.6666 V 618.67084 H 0 Z"
         transform="matrix(0.33458489,0,0,0.33458489,-229.9375,-55)"
         clip-rule="evenodd"
         id="path7" />
    </clipPath>
    <clipPath
       clipPathUnits="userSpaceOnUse"
       id="clipPath8">
      <path
         d="M 0,0 H 1416.6666 V 618.67084 H 0 Z"
         transform="matrix(0.33458489,0,0,0.33458489,-157.82812,-75)"
         clip-rule="evenodd"
         id="path8" />
    </clipPath>
    <clipPath
       clipPathUnits="userSpaceOnUse"
       id="clipPath10">
      <path
         d="M 0,0 H 1416.6666 V 618.67084 H 0 Z"
         transform="matrix(0.33458825,0,0,0.33458825,-0.49999999,-0.49999999)"
         clip-rule="evenodd"
         id="path10" />
    </clipPath>
    <clipPath
       clipPathUnits="userSpaceOnUse"
       id="clipPath11">
      <path
         d="M 0,0 H 1416.6666 V 618.67084 H 0 Z"
         transform="matrix(0.33458489,0,0,0.33458489,-14.21875,-115)"
         clip-rule="evenodd"
         id="path11" />
    </clipPath>
    <clipPath
       clipPathUnits="userSpaceOnUse"
       id="clipPath12">
      <path
         d="M 0,0 H 1416.6666 V 618.67084 H 0 Z"
         transform="matrix(0.33458489,0,0,0.33458489,-176.85938,-135)"
         clip-rule="evenodd"
         id="path12" />
    </clipPath>
    <clipPath
       clipPathUnits="userSpaceOnUse"
       id="clipPath14">
      <path
         d="M 0,0 H 1416.6666 V 618.67084 H 0 Z"
         transform="matrix(0.33458825,0,0,0.33458825,-0.49999999,-0.49999999)"
         clip-rule="evenodd"
         id="path14" />
    </clipPath>
    <clipPath
       clipPathUnits="userSpaceOnUse"
       id="clipPath15">
      <path
         d="M 0,0 H 1416.6666 V 618.67084 H 0 Z"
         transform="matrix(0.33458489,0,0,0.33458489,-5.7812501,-175)"
         clip-rule="evenodd"
         id="path15" />
    </clipPath>
    <clipPath
       clipPathUnits="userSpaceOnUse"
       id="clipPath16">
      <path
         d="M 0,0 H 1416.6666 V 618.67084 H 0 Z"
         transform="matrix(0.33458489,0,0,0.33458489,-145.71875,-195)"
         clip-rule="evenodd"
         id="path16" />
    </clipPath>
    <clipPath
       clipPathUnits="userSpaceOnUse"
       id="clipPath17">
      <path
         d="M 0,0 H 1416.6666 V 618.67084 H 0 Z"
         transform="matrix(0.33458489,0,0,0.33458489,-179.51564,-24)"
         clip-rule="evenodd"
         id="path17" />
    </clipPath>
  </defs>
  <sodipodi:namedview
     id="namedview1"
     pagecolor="#ffffff"
     bordercolor="#000000"
     borderopacity="0.25"
     inkscape:showpageshadow="2"
     inkscape:pageopacity="0.0"
     inkscape:pagecheckerboard="0"
     inkscape:deskcolor="#d1d1d1">
    <inkscape:page
       x="0"
       y="0"
       inkscape:label="1"
       id="page1"
       width="453.44"
       height="200"
       margin="0"
       bleed="0" />
  </sodipodi:namedview>
  <g
     id="g1"
     inkscape:groupmode="layer"
     inkscape:label="1">
    <path
       id="path1"
       d="M 0,0 H 474 V 209 H 0 Z"
       style="fill:#ffffff;fill-opacity:1;fill-rule:nonzero;stroke:none"
       transform="scale(0.95639935)"
       clip-path="url(#clipPath2)" />
    <path
       id="path3"
       d="M 1,35 H 471 V 85 H 1 Z"
       style="fill:#dae8fc;fill-opacity:1;fill-rule:nonzero;stroke:#6c8ebf;stroke-width:1;stroke-linecap:butt;stroke-linejoin:miter;stroke-miterlimit:10;stroke-dasharray:none;stroke-opacity:1"
       transform="matrix(0.95639935,0,0,0.95639935,0.47819967,0.47819967)"
       clip-path="url(#clipPath4)" />
    <text
       id="text4"
       xml:space="preserve"
       transform="matrix(0.95640895,0,0,0.95640895,16.348616,52.602492)"
       clip-path="url(#clipPath5)"><tspan
         style="font-variant:normal;font-weight:normal;font-size:16px;font-family:Helvetica;writing-mode:lr-tb;fill:#000000;fill-opacity:1;fill-rule:nonzero;stroke:none"
         x="0 14.820312 20.148438 23.703125 28.148438 31.703125 40.601562 49.5 53.664062 62.5625 70.5625 79.460938 88.359375 96.359375 104.35938 109.6875 113.24219 122.14062 126.58594 131.03125 134.58594 142.58594"
         y="0"
         sodipodi:role="line"
         id="tspan4">Writing Typescript is </tspan></text>
    <text
       id="text5"
       xml:space="preserve"
       transform="matrix(0.95640895,0,0,0.95640895,156.97062,52.602492)"
       clip-path="url(#clipPath6)"><tspan
         style="font-style:oblique;font-variant:normal;font-weight:normal;font-size:16px;font-family:Helvetica;writing-mode:lr-tb;fill:#000000;fill-opacity:1;fill-rule:nonzero;stroke:none"
         x="0 4.4453125 13.34375 22.242188 26.6875 34.6875 43.585938 56.914062"
         y="0"
         sodipodi:role="line"
         id="tspan5">the same</tspan></text>
    <text
       id="text6"
       xml:space="preserve"
       transform="matrix(0.95640895,0,0,0.95640895,219.91428,52.602492)"
       clip-path="url(#clipPath7)"><tspan
         style="font-variant:normal;font-weight:normal;font-size:16px;font-family:Helvetica;writing-mode:lr-tb;fill:#000000;fill-opacity:1;fill-rule:nonzero;stroke:none"
         x="0 4.4453125 13.34375 21.34375 25.789062 37.34375 42.671875 46.226562 50.671875 54.226562 63.125 72.023438 76.46875 84.46875 93.367188 101.36719 110.26562 118.26562 126.26562 131.59375 135.14844 144.04688 148.49219 152.9375 164.49219 168.04688 172.49219 181.39062 185.83594 193.83594 202.73438 216.0625"
         y="0"
         sodipodi:role="line"
         id="tspan6"> as writing Javascript with some</tspan></text>
    <text
       id="text7"
       xml:space="preserve"
       transform="matrix(0.95640895,0,0,0.95640895,150.94823,71.730671)"
       clip-path="url(#clipPath8)"><tspan
         style="font-variant:normal;font-weight:normal;font-size:16px;font-family:Helvetica;writing-mode:lr-tb;fill:#000000;fill-opacity:1;fill-rule:nonzero;stroke:none"
         x="0 5.6796875 14.578125 22.578125 27.023438 32.351562 41.25 45.695312 54.59375 63.492188 71.492188 80.390625 93.71875 102.61719 111.51562 115.96094 124.85938 129.30469 132.85938 141.75781 150.65625"
         y="0"
         sodipodi:role="line"
         id="tspan7">&quot;extra documentation&quot;</tspan></text>
    <path
       id="path9"
       d="m 1,95 h 470 v 50 H 1 Z"
       style="fill:#dae8fc;fill-opacity:1;fill-rule:nonzero;stroke:#6c8ebf;stroke-width:1;stroke-linecap:butt;stroke-linejoin:miter;stroke-miterlimit:10;stroke-dasharray:none;stroke-opacity:1"
       transform="matrix(0.95639935,0,0,0.95639935,0.47819967,0.47819967)"
       clip-path="url(#clipPath10)" />
    <text
       id="text10"
       xml:space="preserve"
       transform="matrix(0.95640895,0,0,0.95640895,13.59894,109.98703)"
       clip-path="url(#clipPath11)"><tspan
         style="font-variant:normal;font-weight:normal;font-size:16px;font-family:Helvetica;writing-mode:lr-tb;fill:#000000;fill-opacity:1;fill-rule:nonzero;stroke:none"
         x="0 8.8984375 16.898438 25.796875 34.695312 42.695312 50.695312 56.023438 59.578125 68.476562 72.921875 77.367188 86.265625 95.164062 103.16406 107.60938 116.50781 125.40625 129.85156 138.75 142.91406 147.35938 156.25781 164.25781 168.70312 173.14844 182.04688 190.94531 195.39062 204.28906 213.1875 224.74219 229.1875 238.08594 246.98438 252.3125 256.75781 264.75781 273.65625 282.55469 291.45312 295.89844 304.79688 313.69531 318.14062 326.14062 330.58594 339.48438 347.48438 356.38281 364.38281 373.28125 377.72656 386.625 395.52344 399.96875 408.86719 416.86719 421.3125 425.75781 434.65625"
         y="0"
         sodipodi:role="line"
         id="tspan10">Typescript has no effect on how our code gets executed by the</tspan></text>
    <text
       id="text11"
       xml:space="preserve"
       transform="matrix(0.95640895,0,0,0.95640895,169.14989,129.11521)"
       clip-path="url(#clipPath12)"><tspan
         style="font-variant:normal;font-weight:normal;font-size:16px;font-family:Helvetica;writing-mode:lr-tb;fill:#000000;fill-opacity:1;fill-rule:nonzero;stroke:none"
         x="0 8.8984375 14.226562 23.125 34.679688 42.679688 51.578125 56.90625 61.351562 70.25 75.578125 80.023438 91.578125 100.47656 109.375"
         y="0"
         sodipodi:role="line"
         id="tspan11">browser or Node</tspan></text>
    <path
       id="path13"
       d="m 1,155 h 470 v 50 H 1 Z"
       style="fill:#dae8fc;fill-opacity:1;fill-rule:nonzero;stroke:#6c8ebf;stroke-width:1;stroke-linecap:butt;stroke-linejoin:miter;stroke-miterlimit:10;stroke-dasharray:none;stroke-opacity:1"
       transform="matrix(0.95639935,0,0,0.95639935,0.47819967,0.47819967)"
       clip-path="url(#clipPath14)" />
    <text
       id="text14"
       xml:space="preserve"
       transform="matrix(0.95640895,0,0,0.95640895,5.5292393,167.37157)"
       clip-path="url(#clipPath15)"><tspan
         style="font-variant:normal;font-weight:normal;font-size:16px;font-family:Helvetica;writing-mode:lr-tb;fill:#000000;fill-opacity:1;fill-rule:nonzero;stroke:none"
         x="0 4.4453125 8.890625 13.335938 16.890625 24.890625 29.335938 38.234375 47.132812 55.132812 59.578125 64.023438 68.46875 77.367188 81.8125 86.257812 95.15625 98.710938 107.60938 115.60938 120.05469 128.95312 133.39844 137.5625 146.46094 154.46094 163.35938 172.25781 180.25781 188.25781 193.58594 197.14062 206.03906 210.48438 214.92969 223.82812 231.82812 236.27344 245.17188 254.07031 257.625 266.52344 275.42188 279.86719 283.42188 286.97656 294.97656 303.875 308.32031 317.21875 321.66406 326.10938 331.4375 334.99219 343.89062 352.78906 361.6875 366.13281 374.13281 377.6875 382.13281 386.57812 390.13281 399.03125 407.92969 412.375 421.27344 430.17188 439.07031 442.625 451.52344"
         y="0"
         sodipodi:role="line"
         id="tspan14">It is best to think of Typescript as being like a friend sitting behind</tspan></text>
    <text
       id="text15"
       xml:space="preserve"
       transform="matrix(0.95640895,0,0,0.95640895,139.36672,186.49975)"
       clip-path="url(#clipPath16)"><tspan
         style="font-variant:normal;font-weight:normal;font-size:16px;font-family:Helvetica;writing-mode:lr-tb;fill:#000000;fill-opacity:1;fill-rule:nonzero;stroke:none"
         x="0 8 16.898438 25.796875 30.242188 41.796875 50.695312 54.25 57.804688 66.703125 71.148438 79.148438 88.046875 96.945312 101.39062 110.28906 115.61719 124.51562 128.96094 136.96094 145.85938 154.75781 158.3125 167.21094 176.10938"
         y="0"
         sodipodi:role="line"
         id="tspan15">you while you are coding.</tspan></text>
    <text
       id="text16"
       xml:space="preserve"
       transform="matrix(0.95640895,0,0,0.95640895,171.69036,22.953815)"
       clip-path="url(#clipPath17)"><tspan
         style="font-variant:normal;font-weight:700;font-size:25px;font-family:Helvetica;writing-mode:lr-tb;fill:#000000;fill-opacity:1;fill-rule:nonzero;stroke:none"
         x="0 16.674805 31.945801 54.174805 76.403809 90.307617 100.03662"
         y="0"
         sodipodi:role="line"
         id="tspan16">Summary</tspan></text>
  </g>
</svg>
