<?xml version="1.0" encoding="UTF-8" standalone="no"?>
<!-- Created with Inkscape (http://www.inkscape.org/) -->

<svg
   version="1.1"
   id="svg1"
   width="568"
   height="497.28"
   viewBox="0 0 568 497.28"
   sodipodi:docname="ts-9.pdf"
   xmlns:inkscape="http://www.inkscape.org/namespaces/inkscape"
   xmlns:sodipodi="http://sodipodi.sourceforge.net/DTD/sodipodi-0.dtd"
   xmlns="http://www.w3.org/2000/svg"
   xmlns:svg="http://www.w3.org/2000/svg">
  <defs
     id="defs1">
    <clipPath
       clipPathUnits="userSpaceOnUse"
       id="clipPath2">
      <path
         d="M 0,0 H 1775 V 1553.8721 H 0 Z"
         transform="scale(0.3346479)"
         clip-rule="evenodd"
         id="path2" />
    </clipPath>
    <clipPath
       clipPathUnits="userSpaceOnUse"
       id="clipPath4">
      <path
         d="M 0,0 H 1775 V 1541.9192 H 0 Z"
         transform="matrix(0.3346479,0,0,0.3346479,-0.50000001,-0.50000001)"
         clip-rule="evenodd"
         id="path4" />
    </clipPath>
    <clipPath
       clipPathUnits="userSpaceOnUse"
       id="clipPath5">
      <path
         d="M 0,0 H 1775 V 1541.9192 H 0 Z"
         transform="matrix(0.33464453,0,0,0.33464453,-123.46875,-167)"
         clip-rule="evenodd"
         id="path5" />
    </clipPath>
    <clipPath
       clipPathUnits="userSpaceOnUse"
       id="clipPath6">
      <path
         d="M 0,0 H 1775 V 1541.9192 H 0 Z"
         transform="matrix(0.33464453,0,0,0.33464453,-231.60938,-30)"
         clip-rule="evenodd"
         id="path6" />
    </clipPath>
    <clipPath
       clipPathUnits="userSpaceOnUse"
       id="clipPath8">
      <path
         d="M 0,0 H 1775 V 1541.9192 H 0 Z"
         transform="matrix(0.3346479,0,0,0.3346479,-0.50000001,-0.50000001)"
         clip-rule="evenodd"
         id="path8" />
    </clipPath>
    <clipPath
       clipPathUnits="userSpaceOnUse"
       id="clipPath9">
      <path
         d="M 0,0 H 1775 V 1541.9192 H 0 Z"
         transform="matrix(0.33464453,0,0,0.33464453,-151.92188,-248)"
         clip-rule="evenodd"
         id="path9" />
    </clipPath>
    <clipPath
       clipPathUnits="userSpaceOnUse"
       id="clipPath11">
      <path
         d="M 0,0 H 1775 V 1541.9192 H 0 Z"
         transform="matrix(0.3346479,0,0,0.3346479,-0.50000001,-0.50000001)"
         clip-rule="evenodd"
         id="path11" />
    </clipPath>
    <clipPath
       clipPathUnits="userSpaceOnUse"
       id="clipPath12">
      <path
         d="M 0,0 H 1775 V 1541.9192 H 0 Z"
         transform="matrix(0.33464453,0,0,0.33464453,-81.671875,-329)"
         clip-rule="evenodd"
         id="path12" />
    </clipPath>
    <clipPath
       clipPathUnits="userSpaceOnUse"
       id="clipPath14">
      <path
         d="M 0,0 H 1775 V 1541.9192 H 0 Z"
         transform="matrix(0.3346479,0,0,0.3346479,-0.50000001,-0.50000001)"
         clip-rule="evenodd"
         id="path14" />
    </clipPath>
    <clipPath
       clipPathUnits="userSpaceOnUse"
       id="clipPath15">
      <path
         d="M 0,0 H 1775 V 1541.9192 H 0 Z"
         transform="matrix(0.33464453,0,0,0.33464453,-77.203125,-410)"
         clip-rule="evenodd"
         id="path15" />
    </clipPath>
    <clipPath
       clipPathUnits="userSpaceOnUse"
       id="clipPath17">
      <path
         d="M 0,0 H 1775 V 1541.9192 H 0 Z"
         transform="matrix(0.3346479,0,0,0.3346479,-0.50000001,-0.50000001)"
         clip-rule="evenodd"
         id="path17" />
    </clipPath>
    <clipPath
       clipPathUnits="userSpaceOnUse"
       id="clipPath18">
      <path
         d="M 0,0 H 1775 V 1541.9192 H 0 Z"
         transform="matrix(0.33464453,0,0,0.33464453,-88.875,-489.99999)"
         clip-rule="evenodd"
         id="path18" />
    </clipPath>
    <clipPath
       clipPathUnits="userSpaceOnUse"
       id="clipPath20">
      <path
         d="M 0,0 H 1775 V 1541.9192 H 0 Z"
         transform="matrix(0.3346479,0,0,0.3346479,-0.50000001,-0.50000001)"
         clip-rule="evenodd"
         id="path20" />
    </clipPath>
    <clipPath
       clipPathUnits="userSpaceOnUse"
       id="clipPath21">
      <path
         d="M 0,0 H 1775 V 1541.9192 H 0 Z"
         transform="matrix(0.33464453,0,0,0.33464453,-168.90625,-86)"
         clip-rule="evenodd"
         id="path21" />
    </clipPath>
  </defs>
  <sodipodi:namedview
     id="namedview1"
     pagecolor="#ffffff"
     bordercolor="#000000"
     borderopacity="0.25"
     inkscape:showpageshadow="2"
     inkscape:pageopacity="0.0"
     inkscape:pagecheckerboard="0"
     inkscape:deskcolor="#d1d1d1">
    <inkscape:page
       x="0"
       y="0"
       inkscape:label="1"
       id="page1"
       width="568"
       height="497.28"
       margin="0"
       bleed="0" />
  </sodipodi:namedview>
  <g
     id="g1"
     inkscape:groupmode="layer"
     inkscape:label="1">
    <path
       id="path1"
       d="M 0,0 H 594 V 520 H 0 Z"
       style="fill:#ffffff;fill-opacity:1;fill-rule:nonzero;stroke:none"
       transform="scale(0.95622889)"
       clip-path="url(#clipPath2)" />
    <path
       id="path3"
       d="m 1,121 h 590.01001 v 70 H 1 Z"
       style="fill:#dae8fc;fill-opacity:1;fill-rule:nonzero;stroke:#6c8ebf;stroke-width:1;stroke-linecap:butt;stroke-linejoin:miter;stroke-miterlimit:10;stroke-dasharray:none;stroke-opacity:1"
       transform="matrix(0.95622889,0,0,0.95622889,0.47811445,0.47811445)"
       clip-path="url(#clipPath4)" />
    <text
       id="text4"
       xml:space="preserve"
       transform="matrix(0.95623852,0,0,0.95623852,118.06557,159.69183)"
       clip-path="url(#clipPath5)"><tspan
         style="font-variant:normal;font-weight:normal;font-size:32px;font-family:Helvetica;writing-mode:lr-tb;fill:#000000;fill-opacity:1;fill-rule:nonzero;stroke:none"
         x="0 8.890625 26.6875 42.6875 51.578125 69.375 76.484375 83.59375 92.484375 113.82812 124.48438 142.28125 151.17188 160.0625 167.17188 184.96875 195.625 204.51562 225.85938 241.85938 250.75 268.54688 286.34375 302.34375 309.45312 327.25"
         y="0"
         sodipodi:role="line"
         id="tspan4">Install Prettier Extension</tspan></text>
    <text
       id="text5"
       xml:space="preserve"
       transform="matrix(0.95623852,0,0,0.95623852,221.47381,28.687156)"
       clip-path="url(#clipPath6)"><tspan
         style="font-style:oblique;font-variant:normal;font-weight:700;font-size:32px;font-family:Helvetica;writing-mode:lr-tb;fill:#000000;fill-opacity:1;fill-rule:nonzero;stroke:none"
         x="0 24.890625 44.4375 55.09375 63.984375 83.53125 103.07812 120.875"
         y="0"
         sodipodi:role="line"
         id="tspan5">Optional</tspan></text>
    <path
       id="path7"
       d="m 1,202 h 590.01001 v 70 H 1 Z"
       style="fill:#dae8fc;fill-opacity:1;fill-rule:nonzero;stroke:#6c8ebf;stroke-width:1;stroke-linecap:butt;stroke-linejoin:miter;stroke-miterlimit:10;stroke-dasharray:none;stroke-opacity:1"
       transform="matrix(0.95622889,0,0,0.95622889,0.47811445,0.47811445)"
       clip-path="url(#clipPath8)" />
    <text
       id="text8"
       xml:space="preserve"
       transform="matrix(0.95623852,0,0,0.95623852,145.27355,237.14715)"
       clip-path="url(#clipPath9)"><tspan
         style="font-variant:normal;font-weight:normal;font-size:32px;font-family:Helvetica;writing-mode:lr-tb;fill:#000000;fill-opacity:1;fill-rule:nonzero;stroke:none"
         x="0 23.109375 40.90625 58.703125 67.59375 85.390625 96.046875 113.84375 122.73438 131.625 138.73438 156.53125 167.1875 176.07812 193.875 211.67188 220.5625 236.5625 254.35938 270.35938"
         y="0"
         sodipodi:role="line"
         id="tspan8">Run prettier on save</tspan></text>
    <path
       id="path10"
       d="m 1,283 h 590.01001 v 70 H 1 Z"
       style="fill:#dae8fc;fill-opacity:1;fill-rule:nonzero;stroke:#6c8ebf;stroke-width:1;stroke-linecap:butt;stroke-linejoin:miter;stroke-miterlimit:10;stroke-dasharray:none;stroke-opacity:1"
       transform="matrix(0.95622889,0,0,0.95622889,0.47811445,0.47811445)"
       clip-path="url(#clipPath11)" />
    <text
       id="text11"
       xml:space="preserve"
       transform="matrix(0.95623852,0,0,0.95623852,78.097793,314.60247)"
       clip-path="url(#clipPath12)"><tspan
         style="font-variant:normal;font-weight:normal;font-size:32px;font-family:Helvetica;writing-mode:lr-tb;fill:#000000;fill-opacity:1;fill-rule:nonzero;stroke:none"
         x="0 23.109375 39.109375 56.90625 65.796875 81.796875 88.90625 106.70312 124.5 131.60938 149.40625 158.29688 176.09375 193.89062 211.6875 220.57812 238.375 254.375 263.26562 286.375 293.48438 302.375 320.17188 329.0625 346.85938 357.51562 375.3125 384.20312 393.09375 400.20312 418"
         y="0"
         sodipodi:role="line"
         id="tspan11">Use single quotes with prettier</tspan></text>
    <path
       id="path13"
       d="m 1,364 h 590.01001 v 70 H 1 Z"
       style="fill:#dae8fc;fill-opacity:1;fill-rule:nonzero;stroke:#6c8ebf;stroke-width:1;stroke-linecap:butt;stroke-linejoin:miter;stroke-miterlimit:10;stroke-dasharray:none;stroke-opacity:1"
       transform="matrix(0.95622889,0,0,0.95622889,0.47811445,0.47811445)"
       clip-path="url(#clipPath14)" />
    <text
       id="text14"
       xml:space="preserve"
       transform="matrix(0.95623852,0,0,0.95623852,73.824602,392.05779)"
       clip-path="url(#clipPath15)"><tspan
         style="font-variant:normal;font-weight:normal;font-size:32px;font-family:Helvetica;writing-mode:lr-tb;fill:#000000;fill-opacity:1;fill-rule:nonzero;stroke:none"
         x="0 23.109375 39.109375 56.90625 65.796875 74.6875 97.796875 115.59375 124.48438 140.48438 158.28125 176.07812 192.07812 209.875 225.875 234.76562 243.65625 261.45312 272.10938 281 288.10938 305.90625 323.70312 341.5 359.29688 368.1875 385.98438 394.875 401.98438 419.78125"
         y="0"
         sodipodi:role="line"
         id="tspan14">Use two spaces for indentation</tspan></text>
    <path
       id="path16"
       d="m 1,444 h 590.01001 v 70 H 1 Z"
       style="fill:#dae8fc;fill-opacity:1;fill-rule:nonzero;stroke:#6c8ebf;stroke-width:1;stroke-linecap:butt;stroke-linejoin:miter;stroke-miterlimit:10;stroke-dasharray:none;stroke-opacity:1"
       transform="matrix(0.95622889,0,0,0.95622889,0.47811445,0.47811445)"
       clip-path="url(#clipPath17)" />
    <text
       id="text17"
       xml:space="preserve"
       transform="matrix(0.95623852,0,0,0.95623852,84.985698,468.55687)"
       clip-path="url(#clipPath18)"><tspan
         style="font-variant:normal;font-weight:normal;font-size:32px;font-family:Helvetica;writing-mode:lr-tb;fill:#000000;fill-opacity:1;fill-rule:nonzero;stroke:none"
         x="0 21.34375 39.140625 48.03125 56.921875 65.8125 83.609375 101.40625 128.0625 145.85938 154.75 163.64062 181.4375 190.32812 196.4375 217.78125 235.57812 242.6875 260.48438 271.14062 278.25 294.25 312.04688 329.84375 338.73438 356.53125 363.64062 381.4375 399.23438 408.125"
         y="0"
         sodipodi:role="line"
         id="tspan17">Set theme to 'Solarized Light'</tspan></text>
    <path
       id="path19"
       d="m 1,40 h 590.01001 v 70 H 1 Z"
       style="fill:#dae8fc;fill-opacity:1;fill-rule:nonzero;stroke:#6c8ebf;stroke-width:1;stroke-linecap:butt;stroke-linejoin:miter;stroke-miterlimit:10;stroke-dasharray:none;stroke-opacity:1"
       transform="matrix(0.95622889,0,0,0.95622889,0.47811445,0.47811445)"
       clip-path="url(#clipPath20)" />
    <text
       id="text20"
       xml:space="preserve"
       transform="matrix(0.95623852,0,0,0.95623852,161.51466,82.236513)"
       clip-path="url(#clipPath21)"><tspan
         style="font-variant:normal;font-weight:normal;font-size:32px;font-family:Helvetica;writing-mode:lr-tb;fill:#000000;fill-opacity:1;fill-rule:nonzero;stroke:none"
         x="0 21.34375 39.140625 56.9375 65.828125 71.9375 87.9375 105.73438 123.53125 141.32812 147.4375 156.32812 165.21875 183.01562 191.90625 209.70312 227.5 236.39062"
         y="0"
         sodipodi:role="line"
         id="tspan20">Add 'code' to path</tspan></text>
  </g>
</svg>
