<?xml version="1.0" encoding="UTF-8" standalone="no"?>
<!-- Created with Inkscape (http://www.inkscape.org/) -->

<svg
   version="1.1"
   id="svg1"
   width="424"
   height="66.559998"
   viewBox="0 0 424 66.559998"
   sodipodi:docname="ts-2.pdf"
   xmlns:inkscape="http://www.inkscape.org/namespaces/inkscape"
   xmlns:sodipodi="http://sodipodi.sourceforge.net/DTD/sodipodi-0.dtd"
   xmlns="http://www.w3.org/2000/svg"
   xmlns:svg="http://www.w3.org/2000/svg">
  <defs
     id="defs1">
    <clipPath
       clipPathUnits="userSpaceOnUse"
       id="clipPath2">
      <path
         d="M 0,0 H 1325 V 206.37697 H 0 Z"
         transform="scale(0.33433963)"
         clip-rule="evenodd"
         id="path2" />
    </clipPath>
    <clipPath
       clipPathUnits="userSpaceOnUse"
       id="clipPath4">
      <path
         d="M 0,0 H 1325 V 203.386 H 0 Z"
         transform="matrix(0.33433963,0,0,0.33433963,-0.50000001,-0.50000001)"
         clip-rule="evenodd"
         id="path4" />
    </clipPath>
    <clipPath
       clipPathUnits="userSpaceOnUse"
       id="clipPath5">
      <path
         d="M 0,0 H 1325 V 203.386 H 0 Z"
         transform="matrix(0.33433627,0,0,0.33433627,-7.078125,-40)"
         clip-rule="evenodd"
         id="path5" />
    </clipPath>
    <clipPath
       clipPathUnits="userSpaceOnUse"
       id="clipPath7">
      <path
         d="M 0,0 H 1325 V 203.386 H 0 Z"
         transform="matrix(0.33433963,0,0,0.33433963,-0.50000001,-0.50000001)"
         clip-rule="evenodd"
         id="path7" />
    </clipPath>
    <clipPath
       clipPathUnits="userSpaceOnUse"
       id="clipPath8">
      <path
         d="M 0,0 H 1325 V 203.386 H 0 Z"
         transform="matrix(0.33433627,0,0,0.33433627,-160.42187,-40)"
         clip-rule="evenodd"
         id="path8" />
    </clipPath>
    <clipPath
       clipPathUnits="userSpaceOnUse"
       id="clipPath9">
      <path
         d="M 0,0 H 1325 V 203.386 H 0 Z"
         transform="matrix(0.33433627,0,0,0.33433627,-113.98438,-41.000001)"
         clip-rule="evenodd"
         id="path9" />
    </clipPath>
    <clipPath
       clipPathUnits="userSpaceOnUse"
       id="clipPath10">
      <path
         d="M 0,0 H 1325 V 203.386 H 0 Z"
         transform="matrix(0.33433627,0,0,0.33433627,-263.98438,-41.000001)"
         clip-rule="evenodd"
         id="path10" />
    </clipPath>
    <clipPath
       clipPathUnits="userSpaceOnUse"
       id="clipPath11">
      <path
         d="M 0,0 H 1325 V 203.386 H 0 Z"
         transform="matrix(0.33433627,0,0,0.33433627,-294.96875,-18)"
         clip-rule="evenodd"
         id="path11" />
    </clipPath>
    <clipPath
       clipPathUnits="userSpaceOnUse"
       id="clipPath12">
      <path
         d="M 0,0 H 1325 V 203.386 H 0 Z"
         transform="matrix(0.33433627,0,0,0.33433627,-293.95313,-40)"
         clip-rule="evenodd"
         id="path12" />
    </clipPath>
    <clipPath
       clipPathUnits="userSpaceOnUse"
       id="clipPath13">
      <path
         d="M 0,0 H 1325 V 203.386 H 0 Z"
         transform="matrix(0.33433627,0,0,0.33433627,-345.14063,-61)"
         clip-rule="evenodd"
         id="path13" />
    </clipPath>
  </defs>
  <sodipodi:namedview
     id="namedview1"
     pagecolor="#ffffff"
     bordercolor="#000000"
     borderopacity="0.25"
     inkscape:showpageshadow="2"
     inkscape:pageopacity="0.0"
     inkscape:pagecheckerboard="0"
     inkscape:deskcolor="#d1d1d1">
    <inkscape:page
       x="0"
       y="0"
       inkscape:label="1"
       id="page1"
       width="424"
       height="66.559998"
       margin="0"
       bleed="0" />
  </sodipodi:namedview>
  <g
     id="g1"
     inkscape:groupmode="layer"
     inkscape:label="1">
    <path
       id="path1"
       d="M 0,0 H 443 V 69 H 0 Z"
       style="fill:#ffffff;fill-opacity:1;fill-rule:nonzero;stroke:none"
       transform="scale(0.95711055)"
       clip-path="url(#clipPath2)" />
    <path
       id="path3"
       d="M 1,3 H 101 V 63 H 1 Z"
       style="fill:#dae8fc;fill-opacity:1;fill-rule:nonzero;stroke:#6c8ebf;stroke-width:1;stroke-linecap:butt;stroke-linejoin:miter;stroke-miterlimit:10;stroke-dasharray:none;stroke-opacity:1"
       transform="matrix(0.95711055,0,0,0.95711055,0.47855528,0.47855528)"
       clip-path="url(#clipPath4)" />
    <text
       id="text4"
       xml:space="preserve"
       transform="matrix(0.95712018,0,0,0.95712018,6.7746163,38.284807)"
       clip-path="url(#clipPath5)"><tspan
         style="font-variant:normal;font-weight:normal;font-size:20px;font-family:Helvetica;writing-mode:lr-tb;fill:#000000;fill-opacity:1;fill-rule:nonzero;stroke:none"
         x="0 5.5566406 16.679688 22.236328 33.359375 40.019531 45.576172 56.699219 66.699219 77.822266"
         y="0"
         sodipodi:role="line"
         id="tspan4">Interfaces</tspan></text>
    <path
       id="path6"
       d="M 141,3 H 251 V 63 H 141 Z"
       style="fill:#dae8fc;fill-opacity:1;fill-rule:nonzero;stroke:#6c8ebf;stroke-width:1;stroke-linecap:butt;stroke-linejoin:miter;stroke-miterlimit:10;stroke-dasharray:none;stroke-opacity:1"
       transform="matrix(0.95711055,0,0,0.95711055,0.47855528,0.47855528)"
       clip-path="url(#clipPath7)" />
    <text
       id="text7"
       xml:space="preserve"
       transform="matrix(0.95712018,0,0,0.95712018,153.54301,38.284807)"
       clip-path="url(#clipPath8)"><tspan
         style="font-variant:normal;font-weight:normal;font-size:20px;font-family:Helvetica;writing-mode:lr-tb;fill:#000000;fill-opacity:1;fill-rule:nonzero;stroke:none"
         x="0 14.443359 18.886719 30.009766 40.009766 50.009766 61.132812"
         y="0"
         sodipodi:role="line"
         id="tspan7">Classes</tspan></text>
    <text
       id="text8"
       xml:space="preserve"
       transform="matrix(0.95712018,0,0,0.95712018,109.09675,39.241928)"
       clip-path="url(#clipPath9)"><tspan
         style="font-variant:normal;font-weight:normal;font-size:24px;font-family:Helvetica;writing-mode:lr-tb;fill:#000000;fill-opacity:1;fill-rule:nonzero;stroke:none"
         x="0"
         y="0"
         id="tspan8">+</tspan></text>
    <text
       id="text9"
       xml:space="preserve"
       transform="matrix(0.95712018,0,0,0.95712018,252.66478,39.241928)"
       clip-path="url(#clipPath10)"><tspan
         style="font-variant:normal;font-weight:normal;font-size:24px;font-family:Helvetica;writing-mode:lr-tb;fill:#000000;fill-opacity:1;fill-rule:nonzero;stroke:none"
         x="0"
         y="0"
         id="tspan9">=</tspan></text>
    <text
       id="text10"
       xml:space="preserve"
       transform="matrix(0.95712018,0,0,0.95712018,282.32054,17.228163)"
       clip-path="url(#clipPath11)"><tspan
         style="font-variant:normal;font-weight:normal;font-size:18px;font-family:Helvetica;writing-mode:lr-tb;fill:#000000;fill-opacity:1;fill-rule:nonzero;stroke:none"
         x="0 12.999023 23.009766 36.008789 41.009766 54.008789 64.019531 69.020508 79.03125 89.041992 94.042969 99.043945 105.03809 115.04883 125.05957 129.05859 133.05762"
         y="0"
         sodipodi:role="line"
         id="tspan10">How we get really</tspan></text>
    <text
       id="text11"
       xml:space="preserve"
       transform="matrix(0.95712018,0,0,0.95712018,281.34847,38.284807)"
       clip-path="url(#clipPath12)"><tspan
         style="font-variant:normal;font-weight:normal;font-size:18px;font-family:Helvetica;writing-mode:lr-tb;fill:#000000;fill-opacity:1;fill-rule:nonzero;stroke:none"
         x="0 9 14.000977 19.995117 30.005859 40.016602 50.027344 55.02832 64.02832 74.039062 84.049805 94.060547 99.061523 105.05566 115.06641 125.07715 134.07715"
         y="0"
         sodipodi:role="line"
         id="tspan11">strong code reuse</tspan></text>
    <text
       id="text12"
       xml:space="preserve"
       transform="matrix(0.95712018,0,0,0.95712018,330.34106,58.384331)"
       clip-path="url(#clipPath13)"><tspan
         style="font-variant:normal;font-weight:normal;font-size:18px;font-family:Helvetica;writing-mode:lr-tb;fill:#000000;fill-opacity:1;fill-rule:nonzero;stroke:none"
         x="0 3.9990234 14.009766 18.694336 29.689453"
         y="0"
         sodipodi:role="line"
         id="tspan12">in TS</tspan></text>
  </g>
</svg>
