<?xml version="1.0" encoding="UTF-8" standalone="no"?>
<!-- Created with Inkscape (http://www.inkscape.org/) -->

<svg
   version="1.1"
   id="svg1"
   width="194.56"
   height="254.71999"
   viewBox="0 0 194.56 254.71999"
   sodipodi:docname="ts-4.pdf"
   xmlns:inkscape="http://www.inkscape.org/namespaces/inkscape"
   xmlns:sodipodi="http://sodipodi.sourceforge.net/DTD/sodipodi-0.dtd"
   xmlns="http://www.w3.org/2000/svg"
   xmlns:svg="http://www.w3.org/2000/svg">
  <defs
     id="defs1">
    <clipPath
       clipPathUnits="userSpaceOnUse"
       id="clipPath2">
      <path
         d="M 0,0 H 608.33325 V 793.21887 H 0 Z"
         transform="scale(0.33534249)"
         clip-rule="evenodd"
         id="path2" />
    </clipPath>
    <clipPath
       clipPathUnits="userSpaceOnUse"
       id="clipPath4">
      <path
         d="M 0,0 H 608.33325 V 787.25482 H 0 Z"
         transform="matrix(0.33534249,0,0,0.33534249,-0.49999999,-0.49999999)"
         clip-rule="evenodd"
         id="path4" />
    </clipPath>
    <clipPath
       clipPathUnits="userSpaceOnUse"
       id="clipPath5">
      <path
         d="M 0,0 H 608.33325 V 787.25482 H 0 Z"
         transform="matrix(0.33533914,0,0,0.33533914,-23.953125,-23)"
         clip-rule="evenodd"
         id="path5" />
    </clipPath>
    <clipPath
       clipPathUnits="userSpaceOnUse"
       id="clipPath7">
      <path
         d="M 0,0 H 608.33325 V 787.25482 H 0 Z"
         transform="matrix(0.33534249,0,0,0.33534249,-0.49999999,-0.49999999)"
         clip-rule="evenodd"
         id="path7" />
    </clipPath>
    <clipPath
       clipPathUnits="userSpaceOnUse"
       id="clipPath8">
      <path
         d="M 0,0 H 608.33325 V 787.25482 H 0 Z"
         transform="matrix(0.33533914,0,0,0.33533914,-32.312501,-46)"
         clip-rule="evenodd"
         id="path8" />
    </clipPath>
    <clipPath
       clipPathUnits="userSpaceOnUse"
       id="clipPath10">
      <path
         d="M 0,0 H 608.33325 V 787.25482 H 0 Z"
         transform="matrix(0.33534249,0,0,0.33534249,-0.49999999,-0.49999999)"
         clip-rule="evenodd"
         id="path10" />
    </clipPath>
    <clipPath
       clipPathUnits="userSpaceOnUse"
       id="clipPath11">
      <path
         d="M 0,0 H 608.33325 V 787.25482 H 0 Z"
         transform="matrix(0.33533914,0,0,0.33533914,-135.81251,-46)"
         clip-rule="evenodd"
         id="path11" />
    </clipPath>
    <clipPath
       clipPathUnits="userSpaceOnUse"
       id="clipPath13">
      <path
         d="M 0,0 H 608.33325 V 787.25482 H 0 Z"
         transform="matrix(0.33534249,0,0,0.33534249,-0.49999999,-0.49999999)"
         clip-rule="evenodd"
         id="path13" />
    </clipPath>
    <clipPath
       clipPathUnits="userSpaceOnUse"
       id="clipPath14">
      <path
         d="M 0,0 H 608.33325 V 787.25482 H 0 Z"
         transform="matrix(0.33533914,0,0,0.33533914,-34.65625,-65)"
         clip-rule="evenodd"
         id="path14" />
    </clipPath>
    <clipPath
       clipPathUnits="userSpaceOnUse"
       id="clipPath16">
      <path
         d="M 0,0 H 608.33325 V 787.25482 H 0 Z"
         transform="matrix(0.33534249,0,0,0.33534249,-0.49999999,-0.49999999)"
         clip-rule="evenodd"
         id="path16" />
    </clipPath>
    <clipPath
       clipPathUnits="userSpaceOnUse"
       id="clipPath17">
      <path
         d="M 0,0 H 608.33325 V 787.25482 H 0 Z"
         transform="matrix(0.33533914,0,0,0.33533914,-136.32812,-65)"
         clip-rule="evenodd"
         id="path17" />
    </clipPath>
    <clipPath
       clipPathUnits="userSpaceOnUse"
       id="clipPath19">
      <path
         d="M 0,0 H 608.33325 V 787.25482 H 0 Z"
         transform="matrix(0.33534249,0,0,0.33534249,-0.49999999,-0.49999999)"
         clip-rule="evenodd"
         id="path19" />
    </clipPath>
    <clipPath
       clipPathUnits="userSpaceOnUse"
       id="clipPath20">
      <path
         d="M 0,0 H 608.33325 V 787.25482 H 0 Z"
         transform="matrix(0.33533914,0,0,0.33533914,-39.328125,-85.000001)"
         clip-rule="evenodd"
         id="path20" />
    </clipPath>
    <clipPath
       clipPathUnits="userSpaceOnUse"
       id="clipPath22">
      <path
         d="M 0,0 H 608.33325 V 787.25482 H 0 Z"
         transform="matrix(0.33534249,0,0,0.33534249,-0.49999999,-0.49999999)"
         clip-rule="evenodd"
         id="path22" />
    </clipPath>
    <clipPath
       clipPathUnits="userSpaceOnUse"
       id="clipPath23">
      <path
         d="M 0,0 H 608.33325 V 787.25482 H 0 Z"
         transform="matrix(0.33533914,0,0,0.33533914,-130.65625,-85.000001)"
         clip-rule="evenodd"
         id="path23" />
    </clipPath>
    <clipPath
       clipPathUnits="userSpaceOnUse"
       id="clipPath25">
      <path
         d="M 0,0 H 608.33325 V 787.25482 H 0 Z"
         transform="matrix(0.33534249,0,0,0.33534249,-0.49999999,-0.49999999)"
         clip-rule="evenodd"
         id="path25" />
    </clipPath>
    <clipPath
       clipPathUnits="userSpaceOnUse"
       id="clipPath26">
      <path
         d="M 0,0 H 608.33325 V 787.25482 H 0 Z"
         transform="matrix(0.33533914,0,0,0.33533914,-32.640625,-105)"
         clip-rule="evenodd"
         id="path26" />
    </clipPath>
    <clipPath
       clipPathUnits="userSpaceOnUse"
       id="clipPath28">
      <path
         d="M 0,0 H 608.33325 V 787.25482 H 0 Z"
         transform="matrix(0.33534249,0,0,0.33534249,-0.49999999,-0.49999999)"
         clip-rule="evenodd"
         id="path28" />
    </clipPath>
    <clipPath
       clipPathUnits="userSpaceOnUse"
       id="clipPath29">
      <path
         d="M 0,0 H 608.33325 V 787.25482 H 0 Z"
         transform="matrix(0.33533914,0,0,0.33533914,-129.64063,-105)"
         clip-rule="evenodd"
         id="path29" />
    </clipPath>
    <clipPath
       clipPathUnits="userSpaceOnUse"
       id="clipPath31">
      <path
         d="M 0,0 H 608.33325 V 787.25482 H 0 Z"
         transform="matrix(0.33534249,0,0,0.33534249,-0.49999999,-0.49999999)"
         clip-rule="evenodd"
         id="path31" />
    </clipPath>
    <clipPath
       clipPathUnits="userSpaceOnUse"
       id="clipPath32">
      <path
         d="M 0,0 H 608.33325 V 787.25482 H 0 Z"
         transform="matrix(0.33533914,0,0,0.33533914,-49.46875,-173)"
         clip-rule="evenodd"
         id="path32" />
    </clipPath>
    <clipPath
       clipPathUnits="userSpaceOnUse"
       id="clipPath34">
      <path
         d="M 0,0 H 608.33325 V 787.25482 H 0 Z"
         transform="matrix(0.33534249,0,0,0.33534249,-0.49999999,-0.49999999)"
         clip-rule="evenodd"
         id="path34" />
    </clipPath>
    <clipPath
       clipPathUnits="userSpaceOnUse"
       id="clipPath35">
      <path
         d="M 0,0 H 608.33325 V 787.25482 H 0 Z"
         transform="matrix(0.33533914,0,0,0.33533914,-32.312501,-196.00001)"
         clip-rule="evenodd"
         id="path35" />
    </clipPath>
    <clipPath
       clipPathUnits="userSpaceOnUse"
       id="clipPath37">
      <path
         d="M 0,0 H 608.33325 V 787.25482 H 0 Z"
         transform="matrix(0.33534249,0,0,0.33534249,-0.49999999,-0.49999999)"
         clip-rule="evenodd"
         id="path37" />
    </clipPath>
    <clipPath
       clipPathUnits="userSpaceOnUse"
       id="clipPath38">
      <path
         d="M 0,0 H 608.33325 V 787.25482 H 0 Z"
         transform="matrix(0.33533914,0,0,0.33533914,-134.26563,-196.00001)"
         clip-rule="evenodd"
         id="path38" />
    </clipPath>
    <clipPath
       clipPathUnits="userSpaceOnUse"
       id="clipPath40">
      <path
         d="M 0,0 H 608.33325 V 787.25482 H 0 Z"
         transform="matrix(0.33534249,0,0,0.33534249,-0.49999999,-0.49999999)"
         clip-rule="evenodd"
         id="path40" />
    </clipPath>
    <clipPath
       clipPathUnits="userSpaceOnUse"
       id="clipPath41">
      <path
         d="M 0,0 H 608.33325 V 787.25482 H 0 Z"
         transform="matrix(0.33533914,0,0,0.33533914,-34.65625,-215)"
         clip-rule="evenodd"
         id="path41" />
    </clipPath>
    <clipPath
       clipPathUnits="userSpaceOnUse"
       id="clipPath43">
      <path
         d="M 0,0 H 608.33325 V 787.25482 H 0 Z"
         transform="matrix(0.33534249,0,0,0.33534249,-0.49999999,-0.49999999)"
         clip-rule="evenodd"
         id="path43" />
    </clipPath>
    <clipPath
       clipPathUnits="userSpaceOnUse"
       id="clipPath44">
      <path
         d="M 0,0 H 608.33325 V 787.25482 H 0 Z"
         transform="matrix(0.33533914,0,0,0.33533914,-137.03125,-215)"
         clip-rule="evenodd"
         id="path44" />
    </clipPath>
    <clipPath
       clipPathUnits="userSpaceOnUse"
       id="clipPath46">
      <path
         d="M 0,0 H 608.33325 V 787.25482 H 0 Z"
         transform="matrix(0.33534249,0,0,0.33534249,-0.49999999,-0.49999999)"
         clip-rule="evenodd"
         id="path46" />
    </clipPath>
    <clipPath
       clipPathUnits="userSpaceOnUse"
       id="clipPath47">
      <path
         d="M 0,0 H 608.33325 V 787.25482 H 0 Z"
         transform="matrix(0.33533914,0,0,0.33533914,-39.328125,-235)"
         clip-rule="evenodd"
         id="path47" />
    </clipPath>
    <clipPath
       clipPathUnits="userSpaceOnUse"
       id="clipPath49">
      <path
         d="M 0,0 H 608.33325 V 787.25482 H 0 Z"
         transform="matrix(0.33534249,0,0,0.33534249,-0.49999999,-0.49999999)"
         clip-rule="evenodd"
         id="path49" />
    </clipPath>
    <clipPath
       clipPathUnits="userSpaceOnUse"
       id="clipPath50">
      <path
         d="M 0,0 H 608.33325 V 787.25482 H 0 Z"
         transform="matrix(0.33533914,0,0,0.33533914,-137.64063,-235)"
         clip-rule="evenodd"
         id="path50" />
    </clipPath>
    <clipPath
       clipPathUnits="userSpaceOnUse"
       id="clipPath52">
      <path
         d="M 0,0 H 608.33325 V 787.25482 H 0 Z"
         transform="matrix(0.33534249,0,0,0.33534249,-0.49999999,-0.49999999)"
         clip-rule="evenodd"
         id="path52" />
    </clipPath>
    <clipPath
       clipPathUnits="userSpaceOnUse"
       id="clipPath53">
      <path
         d="M 0,0 H 608.33325 V 787.25482 H 0 Z"
         transform="matrix(0.33533914,0,0,0.33533914,-32.640625,-255)"
         clip-rule="evenodd"
         id="path53" />
    </clipPath>
    <clipPath
       clipPathUnits="userSpaceOnUse"
       id="clipPath55">
      <path
         d="M 0,0 H 608.33325 V 787.25482 H 0 Z"
         transform="matrix(0.33534249,0,0,0.33534249,-0.49999999,-0.49999999)"
         clip-rule="evenodd"
         id="path55" />
    </clipPath>
    <clipPath
       clipPathUnits="userSpaceOnUse"
       id="clipPath56">
      <path
         d="M 0,0 H 608.33325 V 787.25482 H 0 Z"
         transform="matrix(0.33533914,0,0,0.33533914,-147.65625,-255)"
         clip-rule="evenodd"
         id="path56" />
    </clipPath>
  </defs>
  <sodipodi:namedview
     id="namedview1"
     pagecolor="#ffffff"
     bordercolor="#000000"
     borderopacity="0.25"
     inkscape:showpageshadow="2"
     inkscape:pageopacity="0.0"
     inkscape:pagecheckerboard="0"
     inkscape:deskcolor="#d1d1d1">
    <inkscape:page
       x="0"
       y="0"
       inkscape:label="1"
       id="page1"
       width="194.56"
       height="254.71999"
       margin="0"
       bleed="0" />
  </sodipodi:namedview>
  <g
     id="g1"
     inkscape:groupmode="layer"
     inkscape:label="1">
    <path
       id="path1"
       d="M 0,0 H 204 V 266 H 0 Z"
       style="fill:#ffffff;fill-opacity:1;fill-rule:nonzero;stroke:none"
       transform="scale(0.95424825)"
       clip-path="url(#clipPath2)" />
    <path
       id="path3"
       d="M 1,1 H 201 V 31 H 1 Z"
       style="fill:#dae8fc;fill-opacity:1;fill-rule:nonzero;stroke:#6c8ebf;stroke-width:1;stroke-linecap:butt;stroke-linejoin:miter;stroke-miterlimit:10;stroke-dasharray:none;stroke-opacity:1"
       transform="matrix(0.95424825,0,0,0.95424825,0.47712412,0.47712412)"
       clip-path="url(#clipPath4)" />
    <text
       id="text4"
       xml:space="preserve"
       transform="matrix(0.95425778,0,0,0.95425778,22.857456,21.947929)"
       clip-path="url(#clipPath5)"><tspan
         style="font-variant:normal;font-weight:700;font-size:18px;font-family:Helvetica;writing-mode:lr-tb;fill:#000000;fill-opacity:1;fill-rule:nonzero;stroke:none"
         x="0 11.021484 21.032227 32.027344 37.02832 47.039062 52.040039 62.050781 67.051758 73.045898 78.046875 89.041992 95.036133 105.04688 112.05176 118.0459 128.05664 138.06738 148.07812"
         y="0"
         sodipodi:role="line"
         id="tspan4">Vehicle (interface)</tspan></text>
    <path
       id="path6"
       d="M 1,31 H 101 V 51 H 1 Z"
       style="fill:#d5e8d4;fill-opacity:1;fill-rule:nonzero;stroke:#82b366;stroke-width:1;stroke-linecap:butt;stroke-linejoin:miter;stroke-miterlimit:10;stroke-dasharray:none;stroke-opacity:1"
       transform="matrix(0.95424825,0,0,0.95424825,0.47712412,0.47712412)"
       clip-path="url(#clipPath7)" />
    <text
       id="text7"
       xml:space="preserve"
       transform="matrix(0.95425778,0,0,0.95425778,30.834455,43.895858)"
       clip-path="url(#clipPath8)"><tspan
         style="font-variant:normal;font-weight:normal;font-size:14px;font-family:Helvetica;writing-mode:lr-tb;fill:#000000;fill-opacity:1;fill-rule:nonzero;stroke:none"
         x="0 10.110352 17.896484 29.558594"
         y="0"
         sodipodi:role="line"
         id="tspan7">Name</tspan></text>
    <path
       id="path9"
       d="M 101,31 H 201 V 51 H 101 Z"
       style="fill:#d5e8d4;fill-opacity:1;fill-rule:nonzero;stroke:#82b366;stroke-width:1;stroke-linecap:butt;stroke-linejoin:miter;stroke-miterlimit:10;stroke-dasharray:none;stroke-opacity:1"
       transform="matrix(0.95424825,0,0,0.95424825,0.47712412,0.47712412)"
       clip-path="url(#clipPath10)" />
    <text
       id="text10"
       xml:space="preserve"
       transform="matrix(0.95425778,0,0,0.95425778,129.60014,43.895858)"
       clip-path="url(#clipPath11)"><tspan
         style="font-variant:normal;font-weight:normal;font-size:14px;font-family:Helvetica;writing-mode:lr-tb;fill:#000000;fill-opacity:1;fill-rule:nonzero;stroke:none"
         x="0 7.7861328 14.786133 22.572266"
         y="0"
         sodipodi:role="line"
         id="tspan10">Type</tspan></text>
    <path
       id="path12"
       d="M 1,51 H 101 V 71 H 1 Z"
       style="fill:#ffffff;fill-opacity:1;fill-rule:nonzero;stroke:#000000;stroke-width:1;stroke-linecap:butt;stroke-linejoin:miter;stroke-miterlimit:10;stroke-dasharray:none;stroke-opacity:1"
       transform="matrix(0.95424825,0,0,0.95424825,0.47712412,0.47712412)"
       clip-path="url(#clipPath13)" />
    <text
       id="text13"
       xml:space="preserve"
       transform="matrix(0.95425778,0,0,0.95425778,33.070996,62.026756)"
       clip-path="url(#clipPath14)"><tspan
         style="font-variant:normal;font-weight:normal;font-size:12px;font-family:Helvetica;writing-mode:lr-tb;fill:#000000;fill-opacity:1;fill-rule:nonzero;stroke:none"
         x="0 9.9960938 16.669922 23.34375 30.017578"
         y="0"
         sodipodi:role="line"
         id="tspan13">model</tspan></text>
    <path
       id="path15"
       d="M 101,51 H 201 V 71 H 101 Z"
       style="fill:#ffffff;fill-opacity:1;fill-rule:nonzero;stroke:#000000;stroke-width:1;stroke-linecap:butt;stroke-linejoin:miter;stroke-miterlimit:10;stroke-dasharray:none;stroke-opacity:1"
       transform="matrix(0.95424825,0,0,0.95424825,0.47712412,0.47712412)"
       clip-path="url(#clipPath16)" />
    <text
       id="text16"
       xml:space="preserve"
       transform="matrix(0.95425778,0,0,0.95425778,130.09217,62.026756)"
       clip-path="url(#clipPath17)"><tspan
         style="font-variant:normal;font-weight:normal;font-size:12px;font-family:Helvetica;writing-mode:lr-tb;fill:#000000;fill-opacity:1;fill-rule:nonzero;stroke:none"
         x="0 6 9.3339844 13.330078 15.996094 22.669922"
         y="0"
         sodipodi:role="line"
         id="tspan16">string</tspan></text>
    <path
       id="path18"
       d="M 1,71 H 101 V 91 H 1 Z"
       style="fill:#ffffff;fill-opacity:1;fill-rule:nonzero;stroke:#000000;stroke-width:1;stroke-linecap:butt;stroke-linejoin:miter;stroke-miterlimit:10;stroke-dasharray:none;stroke-opacity:1"
       transform="matrix(0.95424825,0,0,0.95424825,0.47712412,0.47712412)"
       clip-path="url(#clipPath19)" />
    <text
       id="text19"
       xml:space="preserve"
       transform="matrix(0.95425778,0,0,0.95425778,37.529169,81.111912)"
       clip-path="url(#clipPath20)"><tspan
         style="font-variant:normal;font-weight:normal;font-size:12px;font-family:Helvetica;writing-mode:lr-tb;fill:#000000;fill-opacity:1;fill-rule:nonzero;stroke:none"
         x="0 6 12.673828 19.347656"
         y="0"
         sodipodi:role="line"
         id="tspan19">year</tspan></text>
    <path
       id="path21"
       d="M 101,71 H 201 V 91 H 101 Z"
       style="fill:#ffffff;fill-opacity:1;fill-rule:nonzero;stroke:#000000;stroke-width:1;stroke-linecap:butt;stroke-linejoin:miter;stroke-miterlimit:10;stroke-dasharray:none;stroke-opacity:1"
       transform="matrix(0.95424825,0,0,0.95424825,0.47712412,0.47712412)"
       clip-path="url(#clipPath22)" />
    <text
       id="text22"
       xml:space="preserve"
       transform="matrix(0.95425778,0,0,0.95425778,124.67974,81.111912)"
       clip-path="url(#clipPath23)"><tspan
         style="font-variant:normal;font-weight:normal;font-size:12px;font-family:Helvetica;writing-mode:lr-tb;fill:#000000;fill-opacity:1;fill-rule:nonzero;stroke:none"
         x="0 6.6738281 13.347656 23.34375 30.017578 36.691406"
         y="0"
         sodipodi:role="line"
         id="tspan22">number</tspan></text>
    <path
       id="path24"
       d="m 1,91 h 100 v 20 H 1 Z"
       style="fill:#ffffff;fill-opacity:1;fill-rule:nonzero;stroke:#000000;stroke-width:1;stroke-linecap:butt;stroke-linejoin:miter;stroke-miterlimit:10;stroke-dasharray:none;stroke-opacity:1"
       transform="matrix(0.95424825,0,0,0.95424825,0.47712412,0.47712412)"
       clip-path="url(#clipPath25)" />
    <text
       id="text25"
       xml:space="preserve"
       transform="matrix(0.95425778,0,0,0.95425778,31.14757,100.19707)"
       clip-path="url(#clipPath26)"><tspan
         style="font-variant:normal;font-weight:normal;font-size:12px;font-family:Helvetica;writing-mode:lr-tb;fill:#000000;fill-opacity:1;fill-rule:nonzero;stroke:none"
         x="0 6.6738281 10.669922 17.34375 23.34375 30.017578"
         y="0"
         sodipodi:role="line"
         id="tspan25">broken</tspan></text>
    <path
       id="path27"
       d="m 101,91 h 100 v 20 H 101 Z"
       style="fill:#ffffff;fill-opacity:1;fill-rule:nonzero;stroke:#000000;stroke-width:1;stroke-linecap:butt;stroke-linejoin:miter;stroke-miterlimit:10;stroke-dasharray:none;stroke-opacity:1"
       transform="matrix(0.95424825,0,0,0.95424825,0.47712412,0.47712412)"
       clip-path="url(#clipPath28)" />
    <text
       id="text28"
       xml:space="preserve"
       transform="matrix(0.95425778,0,0,0.95425778,123.71058,100.19707)"
       clip-path="url(#clipPath29)"><tspan
         style="font-variant:normal;font-weight:normal;font-size:12px;font-family:Helvetica;writing-mode:lr-tb;fill:#000000;fill-opacity:1;fill-rule:nonzero;stroke:none"
         x="0 6.6738281 13.347656 20.021484 22.6875 29.361328 36.035156"
         y="0"
         sodipodi:role="line"
         id="tspan28">boolean</tspan></text>
    <path
       id="path30"
       d="m 1,151 h 200 v 30 H 1 Z"
       style="fill:#dae8fc;fill-opacity:1;fill-rule:nonzero;stroke:#6c8ebf;stroke-width:1;stroke-linecap:butt;stroke-linejoin:miter;stroke-miterlimit:10;stroke-dasharray:none;stroke-opacity:1"
       transform="matrix(0.95424825,0,0,0.95424825,0.47712412,0.47712412)"
       clip-path="url(#clipPath31)" />
    <text
       id="text31"
       xml:space="preserve"
       transform="matrix(0.95425778,0,0,0.95425778,47.20594,165.0866)"
       clip-path="url(#clipPath32)"><tspan
         style="font-variant:normal;font-weight:700;font-size:18px;font-family:Helvetica;writing-mode:lr-tb;fill:#000000;fill-opacity:1;fill-rule:nonzero;stroke:none"
         x="0 10.010742 15.011719 25.022461 30.023438 40.03418 45.035156 51.029297 61.040039 71.050781 76.051758 87.046875 97.057617"
         y="0"
         sodipodi:role="line"
         id="tspan31">civic (value)</tspan></text>
    <path
       id="path33"
       d="m 1,181 h 100 v 20 H 1 Z"
       style="fill:#ffe6cc;fill-opacity:1;fill-rule:nonzero;stroke:#d79b00;stroke-width:1;stroke-linecap:butt;stroke-linejoin:miter;stroke-miterlimit:10;stroke-dasharray:none;stroke-opacity:1"
       transform="matrix(0.95424825,0,0,0.95424825,0.47712412,0.47712412)"
       clip-path="url(#clipPath34)" />
    <text
       id="text34"
       xml:space="preserve"
       transform="matrix(0.95425778,0,0,0.95425778,30.834455,187.03453)"
       clip-path="url(#clipPath35)"><tspan
         style="font-variant:normal;font-weight:normal;font-size:14px;font-family:Helvetica;writing-mode:lr-tb;fill:#000000;fill-opacity:1;fill-rule:nonzero;stroke:none"
         x="0 10.110352 17.896484 29.558594"
         y="0"
         sodipodi:role="line"
         id="tspan34">Name</tspan></text>
    <path
       id="path36"
       d="m 101,181 h 100 v 20 H 101 Z"
       style="fill:#ffe6cc;fill-opacity:1;fill-rule:nonzero;stroke:#d79b00;stroke-width:1;stroke-linecap:butt;stroke-linejoin:miter;stroke-miterlimit:10;stroke-dasharray:none;stroke-opacity:1"
       transform="matrix(0.95424825,0,0,0.95424825,0.47712412,0.47712412)"
       clip-path="url(#clipPath37)" />
    <text
       id="text37"
       xml:space="preserve"
       transform="matrix(0.95425778,0,0,0.95425778,128.12402,187.03453)"
       clip-path="url(#clipPath38)"><tspan
         style="font-variant:normal;font-weight:normal;font-size:14px;font-family:Helvetica;writing-mode:lr-tb;fill:#000000;fill-opacity:1;fill-rule:nonzero;stroke:none"
         x="0 7 14.786133 17.896484 25.682617"
         y="0"
         sodipodi:role="line"
         id="tspan37">value</tspan></text>
    <path
       id="path39"
       d="m 1,201 h 100 v 20 H 1 Z"
       style="fill:#ffffff;fill-opacity:1;fill-rule:nonzero;stroke:#000000;stroke-width:1;stroke-linecap:butt;stroke-linejoin:miter;stroke-miterlimit:10;stroke-dasharray:none;stroke-opacity:1"
       transform="matrix(0.95424825,0,0,0.95424825,0.47712412,0.47712412)"
       clip-path="url(#clipPath40)" />
    <text
       id="text40"
       xml:space="preserve"
       transform="matrix(0.95425778,0,0,0.95425778,33.070996,205.16542)"
       clip-path="url(#clipPath41)"><tspan
         style="font-variant:normal;font-weight:normal;font-size:12px;font-family:Helvetica;writing-mode:lr-tb;fill:#000000;fill-opacity:1;fill-rule:nonzero;stroke:none"
         x="0 9.9960938 16.669922 23.34375 30.017578"
         y="0"
         sodipodi:role="line"
         id="tspan40">model</tspan></text>
    <path
       id="path42"
       d="m 101,201 h 100 v 20 H 101 Z"
       style="fill:#ffffff;fill-opacity:1;fill-rule:nonzero;stroke:#000000;stroke-width:1;stroke-linecap:butt;stroke-linejoin:miter;stroke-miterlimit:10;stroke-dasharray:none;stroke-opacity:1"
       transform="matrix(0.95424825,0,0,0.95424825,0.47712412,0.47712412)"
       clip-path="url(#clipPath43)" />
    <text
       id="text43"
       xml:space="preserve"
       transform="matrix(0.95425778,0,0,0.95425778,130.76314,205.16542)"
       clip-path="url(#clipPath44)"><tspan
         style="font-variant:normal;font-weight:normal;font-size:12px;font-family:Helvetica;writing-mode:lr-tb;fill:#000000;fill-opacity:1;fill-rule:nonzero;stroke:none"
         x="0 2.2910156 8.2910156 10.957031 16.957031 19.623047 25.623047"
         y="0"
         sodipodi:role="line"
         id="tspan43">'civic'</tspan></text>
    <path
       id="path45"
       d="m 1,221 h 100 v 20 H 1 Z"
       style="fill:#ffffff;fill-opacity:1;fill-rule:nonzero;stroke:#000000;stroke-width:1;stroke-linecap:butt;stroke-linejoin:miter;stroke-miterlimit:10;stroke-dasharray:none;stroke-opacity:1"
       transform="matrix(0.95424825,0,0,0.95424825,0.47712412,0.47712412)"
       clip-path="url(#clipPath46)" />
    <text
       id="text46"
       xml:space="preserve"
       transform="matrix(0.95425778,0,0,0.95425778,37.529169,224.25058)"
       clip-path="url(#clipPath47)"><tspan
         style="font-variant:normal;font-weight:normal;font-size:12px;font-family:Helvetica;writing-mode:lr-tb;fill:#000000;fill-opacity:1;fill-rule:nonzero;stroke:none"
         x="0 6 12.673828 19.347656"
         y="0"
         sodipodi:role="line"
         id="tspan46">year</tspan></text>
    <path
       id="path48"
       d="m 101,221 h 100 v 20 H 101 Z"
       style="fill:#ffffff;fill-opacity:1;fill-rule:nonzero;stroke:#000000;stroke-width:1;stroke-linecap:butt;stroke-linejoin:miter;stroke-miterlimit:10;stroke-dasharray:none;stroke-opacity:1"
       transform="matrix(0.95424825,0,0,0.95424825,0.47712412,0.47712412)"
       clip-path="url(#clipPath49)" />
    <text
       id="text49"
       xml:space="preserve"
       transform="matrix(0.95425778,0,0,0.95425778,131.34464,224.25058)"
       clip-path="url(#clipPath50)"><tspan
         style="font-variant:normal;font-weight:normal;font-size:12px;font-family:Helvetica;writing-mode:lr-tb;fill:#000000;fill-opacity:1;fill-rule:nonzero;stroke:none"
         x="0 6.6738281 13.347656 20.021484"
         y="0"
         sodipodi:role="line"
         id="tspan49">2000</tspan></text>
    <path
       id="path51"
       d="m 1,241 h 100 v 20 H 1 Z"
       style="fill:#ffffff;fill-opacity:1;fill-rule:nonzero;stroke:#000000;stroke-width:1;stroke-linecap:butt;stroke-linejoin:miter;stroke-miterlimit:10;stroke-dasharray:none;stroke-opacity:1"
       transform="matrix(0.95424825,0,0,0.95424825,0.47712412,0.47712412)"
       clip-path="url(#clipPath52)" />
    <text
       id="text52"
       xml:space="preserve"
       transform="matrix(0.95425778,0,0,0.95425778,31.14757,243.33573)"
       clip-path="url(#clipPath53)"><tspan
         style="font-variant:normal;font-weight:normal;font-size:12px;font-family:Helvetica;writing-mode:lr-tb;fill:#000000;fill-opacity:1;fill-rule:nonzero;stroke:none"
         x="0 6.6738281 10.669922 17.34375 23.34375 30.017578"
         y="0"
         sodipodi:role="line"
         id="tspan52">broken</tspan></text>
    <path
       id="path54"
       d="m 101,241 h 100 v 20 H 101 Z"
       style="fill:#ffffff;fill-opacity:1;fill-rule:nonzero;stroke:#000000;stroke-width:1;stroke-linecap:butt;stroke-linejoin:miter;stroke-miterlimit:10;stroke-dasharray:none;stroke-opacity:1"
       transform="matrix(0.95424825,0,0,0.95424825,0.47712412,0.47712412)"
       clip-path="url(#clipPath55)" />
    <text
       id="text55"
       xml:space="preserve"
       transform="matrix(0.95425778,0,0,0.95425778,140.90213,243.33573)"
       clip-path="url(#clipPath56)"><tspan
         style="font-variant:normal;font-weight:normal;font-size:12px;font-family:Helvetica;writing-mode:lr-tb;fill:#000000;fill-opacity:1;fill-rule:nonzero;stroke:none"
         x="0"
         y="0"
         id="tspan55">1</tspan></text>
  </g>
</svg>
