<?xml version="1.0" encoding="UTF-8" standalone="no"?>
<!-- Created with Inkscape (http://www.inkscape.org/) -->

<svg
   version="1.1"
   id="svg1"
   width="626.56"
   height="225.27998"
   viewBox="0 0 626.56 225.27998"
   sodipodi:docname="ts-7.pdf"
   xmlns:inkscape="http://www.inkscape.org/namespaces/inkscape"
   xmlns:sodipodi="http://sodipodi.sourceforge.net/DTD/sodipodi-0.dtd"
   xmlns="http://www.w3.org/2000/svg"
   xmlns:svg="http://www.w3.org/2000/svg">
  <defs
     id="defs1">
    <clipPath
       clipPathUnits="userSpaceOnUse"
       id="clipPath2">
      <path
         d="M 0,0 H 1958.3333 V 703.68243 H 0 Z"
         transform="scale(0.33395747)"
         clip-rule="evenodd"
         id="path2" />
    </clipPath>
    <clipPath
       clipPathUnits="userSpaceOnUse"
       id="clipPath4">
      <path
         d="M 0,0 H 1958.3333 V 700.68805 H 0 Z"
         transform="matrix(0.33395747,0,0,0.33395747,-0.5,-0.5)"
         clip-rule="evenodd"
         id="path4" />
    </clipPath>
    <clipPath
       clipPathUnits="userSpaceOnUse"
       id="clipPath6">
      <path
         d="M 0,0 H 1958.3333 V 700.68805 H 0 Z"
         transform="matrix(0.33395747,0,0,0.33395747,-0.5,-0.5)"
         clip-rule="evenodd"
         id="path6" />
    </clipPath>
    <clipPath
       clipPathUnits="userSpaceOnUse"
       id="clipPath8">
      <path
         d="M 0,0 H 1958.3333 V 700.68805 H 0 Z"
         transform="matrix(0.33395747,0,0,0.33395747,-0.5,-0.5)"
         clip-rule="evenodd"
         id="path8" />
    </clipPath>
    <clipPath
       clipPathUnits="userSpaceOnUse"
       id="clipPath10">
      <path
         d="M 0,0 H 1958.3333 V 700.68805 H 0 Z"
         transform="matrix(0.33395747,0,0,0.33395747,-0.5,-0.5)"
         clip-rule="evenodd"
         id="path10" />
    </clipPath>
    <clipPath
       clipPathUnits="userSpaceOnUse"
       id="clipPath12">
      <path
         d="M 0,0 H 1958.3333 V 700.68805 H 0 Z"
         transform="matrix(0.33395747,0,0,0.33395747,-0.5,-0.5)"
         clip-rule="evenodd"
         id="path12" />
    </clipPath>
    <clipPath
       clipPathUnits="userSpaceOnUse"
       id="clipPath13">
      <path
         d="M 0,0 H 1958.3333 V 700.68805 H 0 Z"
         transform="matrix(0.33395411,0,0,0.33395411,-5.9531249,-94)"
         clip-rule="evenodd"
         id="path13" />
    </clipPath>
    <clipPath
       clipPathUnits="userSpaceOnUse"
       id="clipPath14">
      <path
         d="M 0,0 H 1958.3333 V 700.68805 H 0 Z"
         transform="matrix(0.33395411,0,0,0.33395411,-16.5,-118)"
         clip-rule="evenodd"
         id="path14" />
    </clipPath>
    <clipPath
       clipPathUnits="userSpaceOnUse"
       id="clipPath15">
      <path
         d="M 0,0 H 1958.3333 V 700.68805 H 0 Z"
         transform="matrix(0.33395411,0,0,0.33395411,-83.21875,-142)"
         clip-rule="evenodd"
         id="path15" />
    </clipPath>
    <clipPath
       clipPathUnits="userSpaceOnUse"
       id="clipPath17">
      <path
         d="M 0,0 H 1958.3333 V 700.68805 H 0 Z"
         transform="matrix(0.33395747,0,0,0.33395747,-0.5,-0.5)"
         clip-rule="evenodd"
         id="path17" />
    </clipPath>
    <clipPath
       clipPathUnits="userSpaceOnUse"
       id="clipPath18">
      <path
         d="M 0,0 H 1958.3333 V 700.68805 H 0 Z"
         transform="matrix(0.33395411,0,0,0.33395411,-252,-46)"
         clip-rule="evenodd"
         id="path18" />
    </clipPath>
    <clipPath
       clipPathUnits="userSpaceOnUse"
       id="clipPath19">
      <path
         d="M 0,0 H 1958.3333 V 700.68805 H 0 Z"
         transform="matrix(0.33395411,0,0,0.33395411,-337.60938,-69.999999)"
         clip-rule="evenodd"
         id="path19" />
    </clipPath>
    <clipPath
       clipPathUnits="userSpaceOnUse"
       id="clipPath21">
      <path
         d="M 0,0 H 1958.3333 V 700.68805 H 0 Z"
         transform="matrix(0.33395747,0,0,0.33395747,-0.5,-0.5)"
         clip-rule="evenodd"
         id="path21" />
    </clipPath>
    <clipPath
       clipPathUnits="userSpaceOnUse"
       id="clipPath22">
      <path
         d="M 0,0 H 1958.3333 V 700.68805 H 0 Z"
         transform="matrix(0.33395411,0,0,0.33395411,-252.64062,-176)"
         clip-rule="evenodd"
         id="path22" />
    </clipPath>
    <clipPath
       clipPathUnits="userSpaceOnUse"
       id="clipPath23">
      <path
         d="M 0,0 H 1958.3333 V 700.68805 H 0 Z"
         transform="matrix(0.33395411,0,0,0.33395411,-279.23438,-200)"
         clip-rule="evenodd"
         id="path23" />
    </clipPath>
  </defs>
  <sodipodi:namedview
     id="namedview1"
     pagecolor="#ffffff"
     bordercolor="#000000"
     borderopacity="0.25"
     inkscape:showpageshadow="2"
     inkscape:pageopacity="0.0"
     inkscape:pagecheckerboard="0"
     inkscape:deskcolor="#d1d1d1">
    <inkscape:page
       x="0"
       y="0"
       inkscape:label="1"
       id="page1"
       width="626.56"
       height="225.27998"
       margin="0"
       bleed="0" />
  </sodipodi:namedview>
  <g
     id="g1"
     inkscape:groupmode="layer"
     inkscape:label="1">
    <path
       id="path1"
       d="M 0,0 H 654 V 235 H 0 Z"
       style="fill:#ffffff;fill-opacity:1;fill-rule:nonzero;stroke:none"
       transform="scale(0.95820582)"
       clip-path="url(#clipPath2)" />
    <path
       id="path3"
       d="m 191,111 h 25 V 51 h 18.63"
       style="fill:none;stroke:#000000;stroke-width:1;stroke-linecap:butt;stroke-linejoin:miter;stroke-miterlimit:10;stroke-dasharray:none;stroke-opacity:1"
       transform="matrix(0.95820582,0,0,0.95820582,0.47910291,0.47910291)"
       clip-path="url(#clipPath4)" />
    <path
       id="path5"
       d="m 239.88,51 -7,3.5 1.75,-3.5 -1.75,-3.5 z"
       style="fill:#000000;fill-opacity:1;fill-rule:nonzero;stroke:#000000;stroke-width:1;stroke-linecap:butt;stroke-linejoin:miter;stroke-miterlimit:10;stroke-dasharray:none;stroke-opacity:1"
       transform="matrix(0.95820582,0,0,0.95820582,0.47910291,0.47910291)"
       clip-path="url(#clipPath6)" />
    <path
       id="path7"
       d="m 191,111 h 25 v 70 h 18.63"
       style="fill:none;stroke:#000000;stroke-width:1;stroke-linecap:butt;stroke-linejoin:miter;stroke-miterlimit:10;stroke-dasharray:none;stroke-opacity:1"
       transform="matrix(0.95820582,0,0,0.95820582,0.47910291,0.47910291)"
       clip-path="url(#clipPath8)" />
    <path
       id="path9"
       d="m 239.88,181 -7,3.5 1.75,-3.5 -1.75,-3.5 z"
       style="fill:#000000;fill-opacity:1;fill-rule:nonzero;stroke:#000000;stroke-width:1;stroke-linecap:butt;stroke-linejoin:miter;stroke-miterlimit:10;stroke-dasharray:none;stroke-opacity:1"
       transform="matrix(0.95820582,0,0,0.95820582,0.47910291,0.47910291)"
       clip-path="url(#clipPath10)" />
    <path
       id="path11"
       d="m 1,71 h 190 v 80 H 1 Z"
       style="fill:#ffffff;fill-opacity:1;fill-rule:nonzero;stroke:#000000;stroke-width:1;stroke-linecap:butt;stroke-linejoin:miter;stroke-miterlimit:10;stroke-dasharray:none;stroke-opacity:1"
       transform="matrix(0.95820582,0,0,0.95820582,0.47910291,0.47910291)"
       clip-path="url(#clipPath12)" />
    <text
       id="text12"
       xml:space="preserve"
       transform="matrix(0.95821545,0,0,0.95821545,5.7043763,90.072252)"
       clip-path="url(#clipPath13)"><tspan
         style="font-variant:normal;font-weight:normal;font-size:20px;font-family:Helvetica;writing-mode:lr-tb;fill:#000000;fill-opacity:1;fill-rule:nonzero;stroke:none"
         x="0 15.556641 26.679688 37.802734 48.925781 55.585938 66.708984 71.152344 76.708984 90.048828 95.605469 102.26562 113.38867 118.94531 130.06836 141.19141 151.19141 156.74805 162.30469 173.42773"
         y="0"
         sodipodi:role="line"
         id="tspan12">General Strategy for</tspan></text>
    <text
       id="text13"
       xml:space="preserve"
       transform="matrix(0.95821545,0,0,0.95821545,15.810555,113.06942)"
       clip-path="url(#clipPath14)"><tspan
         style="font-variant:normal;font-weight:normal;font-size:20px;font-family:Helvetica;writing-mode:lr-tb;fill:#000000;fill-opacity:1;fill-rule:nonzero;stroke:none"
         x="0 14.443359 25.566406 36.689453 46.689453 57.8125 68.935547 73.378906 84.501953 90.058594 104.50195 115.625 126.74805 137.87109 143.42773 147.87109"
         y="0"
         sodipodi:role="line"
         id="tspan13">Reusable Code in</tspan></text>
    <text
       id="text14"
       xml:space="preserve"
       transform="matrix(0.95821545,0,0,0.95821545,79.741492,136.06659)"
       clip-path="url(#clipPath15)"><tspan
         style="font-variant:normal;font-weight:normal;font-size:20px;font-family:Helvetica;writing-mode:lr-tb;fill:#000000;fill-opacity:1;fill-rule:nonzero;stroke:none"
         x="0 12.216797"
         y="0"
         sodipodi:role="line"
         id="tspan14">TS</tspan></text>
    <path
       id="path16"
       d="M 241,1 H 651 V 101 H 241 Z"
       style="fill:#dae8fc;fill-opacity:1;fill-rule:nonzero;stroke:#6c8ebf;stroke-width:1;stroke-linecap:butt;stroke-linejoin:miter;stroke-miterlimit:10;stroke-dasharray:none;stroke-opacity:1"
       transform="matrix(0.95820582,0,0,0.95820582,0.47910291,0.47910291)"
       clip-path="url(#clipPath17)" />
    <text
       id="text17"
       xml:space="preserve"
       transform="matrix(0.95821545,0,0,0.95821545,241.47029,44.077911)"
       clip-path="url(#clipPath18)"><tspan
         style="font-style:oblique;font-variant:normal;font-weight:normal;font-size:20px;font-family:Helvetica;writing-mode:lr-tb;fill:#000000;fill-opacity:1;fill-rule:nonzero;stroke:none"
         x="0 14.443359 21.103516 32.226562 43.349609 48.90625 60.029297 65.585938 71.142578 82.265625 93.388672 103.38867 108.94531 113.38867 124.51172 135.63477 145.63477 151.19141 156.74805 167.87109 178.99414 184.55078 190.10742 201.23047 211.23047 221.23047 232.35352 243.47656 249.0332 254.58984 265.71289 272.37305 283.49609 294.61914 311.2793 322.40234 333.52539 339.08203 349.08203 354.63867 360.19531 371.31836 382.44141"
         y="0"
         sodipodi:role="line"
         id="tspan17">Create functions that accept arguments that</tspan></text>
    <text
       id="text18"
       xml:space="preserve"
       transform="matrix(0.95821545,0,0,0.95821545,323.50252,67.075081)"
       clip-path="url(#clipPath19)"><tspan
         style="font-style:oblique;font-variant:normal;font-weight:normal;font-size:20px;font-family:Helvetica;writing-mode:lr-tb;fill:#000000;fill-opacity:1;fill-rule:nonzero;stroke:none"
         x="0 11.123047 17.783203 28.90625 34.462891 40.019531 50.019531 61.142578 72.265625 83.388672 88.945312 103.38867 107.83203 113.38867 124.51172 130.06836 134.51172 145.63477 151.19141 162.31445 168.97461 174.53125 185.6543 195.6543 206.77734"
         y="0"
         sodipodi:role="line"
         id="tspan18">are typed with interfaces</tspan></text>
    <path
       id="path20"
       d="M 241,131 H 651 V 231 H 241 Z"
       style="fill:#dae8fc;fill-opacity:1;fill-rule:nonzero;stroke:#6c8ebf;stroke-width:1;stroke-linecap:butt;stroke-linejoin:miter;stroke-miterlimit:10;stroke-dasharray:none;stroke-opacity:1"
       transform="matrix(0.95820582,0,0,0.95820582,0.47910291,0.47910291)"
       clip-path="url(#clipPath21)" />
    <text
       id="text21"
       xml:space="preserve"
       transform="matrix(0.95821545,0,0,0.95821545,242.08415,168.64592)"
       clip-path="url(#clipPath22)"><tspan
         style="font-style:oblique;font-variant:normal;font-weight:normal;font-size:20px;font-family:Helvetica;writing-mode:lr-tb;fill:#000000;fill-opacity:1;fill-rule:nonzero;stroke:none"
         x="0 15.556641 26.679688 31.123047 42.246094 52.246094 57.802734 67.802734 73.359375 83.359375 87.802734 98.925781 108.92578 118.92578 130.04883 140.04883 145.60547 155.60547 166.72852 177.85156 183.4082 194.53125 205.6543 215.6543 220.09766 231.2207 242.34375 247.90039 253.45703 264.58008 270.13672 273.95508 278.39844 295.05859 306.18164 310.625 321.74805 338.4082 349.53125 360.6543 366.21094 370.0293 375.58594"
         y="0"
         sodipodi:role="line"
         id="tspan21">Objects/classes can decide to 'implement' a</tspan></text>
    <text
       id="text22"
       xml:space="preserve"
       transform="matrix(0.95821545,0,0,0.95821545,267.5667,191.64309)"
       clip-path="url(#clipPath23)"><tspan
         style="font-style:oblique;font-variant:normal;font-weight:normal;font-size:20px;font-family:Helvetica;writing-mode:lr-tb;fill:#000000;fill-opacity:1;fill-rule:nonzero;stroke:none"
         x="0 11.123047 15.566406 25.566406 36.689453 47.8125 53.369141 57.8125 68.935547 74.492188 85.615234 92.275391 97.832031 108.95508 118.95508 130.07812 135.63477 141.19141 152.31445 157.87109 172.31445 183.4375 190.09766 200.09766 205.6543 220.09766 224.54102 230.09766 241.2207 246.77734 257.90039 263.45703 269.01367 280.13672 291.25977 301.25977 306.81641 311.25977 322.38281"
         y="0"
         sodipodi:role="line"
         id="tspan22">given interface to work with a function</tspan></text>
  </g>
</svg>
