<?xml version="1.0" encoding="UTF-8" standalone="no"?>
<!-- Created with Inkscape (http://www.inkscape.org/) -->

<svg
   version="1.1"
   id="svg1"
   width="712"
   height="349.44"
   viewBox="0 0 712 349.44"
   sodipodi:docname="ts-8.pdf"
   xmlns:inkscape="http://www.inkscape.org/namespaces/inkscape"
   xmlns:sodipodi="http://sodipodi.sourceforge.net/DTD/sodipodi-0.dtd"
   xmlns="http://www.w3.org/2000/svg"
   xmlns:svg="http://www.w3.org/2000/svg">
  <defs
     id="defs1">
    <clipPath
       clipPathUnits="userSpaceOnUse"
       id="clipPath2">
      <path
         d="M 0,0 H 2224.9998 V 1091.5657 H 0 Z"
         transform="scale(0.33438207)"
         clip-rule="evenodd"
         id="path2" />
    </clipPath>
    <clipPath
       clipPathUnits="userSpaceOnUse"
       id="clipPath4">
      <path
         d="M 0,0 H 2224.9998 V 1088.5752 H 0 Z"
         transform="matrix(0.33438207,0,0,0.33438207,-0.50000001,-0.50000001)"
         clip-rule="evenodd"
         id="path4" />
    </clipPath>
    <clipPath
       clipPathUnits="userSpaceOnUse"
       id="clipPath5">
      <path
         d="M 0,0 H 2224.9998 V 1088.5752 H 0 Z"
         transform="matrix(0.3343787,0,0,0.3343787,-68.984375,-324)"
         clip-rule="evenodd"
         id="path5" />
    </clipPath>
    <clipPath
       clipPathUnits="userSpaceOnUse"
       id="clipPath7">
      <path
         d="M 0,0 H 2224.9998 V 1088.5752 H 0 Z"
         transform="matrix(0.33438207,0,0,0.33438207,-0.50000001,-0.50000001)"
         clip-rule="evenodd"
         id="path7" />
    </clipPath>
    <clipPath
       clipPathUnits="userSpaceOnUse"
       id="clipPath9">
      <path
         d="M 0,0 H 2224.9998 V 1088.5752 H 0 Z"
         transform="matrix(0.33438207,0,0,0.33438207,-0.50000001,-0.50000001)"
         clip-rule="evenodd"
         id="path9" />
    </clipPath>
    <clipPath
       clipPathUnits="userSpaceOnUse"
       id="clipPath11">
      <path
         d="M 0,0 H 2224.9998 V 1088.5752 H 0 Z"
         transform="matrix(0.33438207,0,0,0.33438207,-0.50000001,-0.50000001)"
         clip-rule="evenodd"
         id="path11" />
    </clipPath>
    <clipPath
       clipPathUnits="userSpaceOnUse"
       id="clipPath12">
      <path
         d="M 0,0 H 2224.9998 V 1088.5752 H 0 Z"
         transform="matrix(0.3343787,0,0,0.3343787,-74.296875,-149)"
         clip-rule="evenodd"
         id="path12" />
    </clipPath>
    <clipPath
       clipPathUnits="userSpaceOnUse"
       id="clipPath14">
      <path
         d="M 0,0 H 2224.9998 V 1088.5752 H 0 Z"
         transform="matrix(0.33438207,0,0,0.33438207,-0.50000001,-0.50000001)"
         clip-rule="evenodd"
         id="path14" />
    </clipPath>
    <clipPath
       clipPathUnits="userSpaceOnUse"
       id="clipPath16">
      <path
         d="M 0,0 H 2224.9998 V 1088.5752 H 0 Z"
         transform="matrix(0.33438207,0,0,0.33438207,-0.50000001,-0.50000001)"
         clip-rule="evenodd"
         id="path16" />
    </clipPath>
    <clipPath
       clipPathUnits="userSpaceOnUse"
       id="clipPath18">
      <path
         d="M 0,0 H 2224.9998 V 1088.5752 H 0 Z"
         transform="matrix(0.33438207,0,0,0.33438207,-0.50000001,-0.50000001)"
         clip-rule="evenodd"
         id="path18" />
    </clipPath>
    <clipPath
       clipPathUnits="userSpaceOnUse"
       id="clipPath19">
      <path
         d="M 0,0 H 2224.9998 V 1088.5752 H 0 Z"
         transform="matrix(0.3343787,0,0,0.3343787,-546.96875,-54)"
         clip-rule="evenodd"
         id="path19" />
    </clipPath>
    <clipPath
       clipPathUnits="userSpaceOnUse"
       id="clipPath21">
      <path
         d="M 0,0 H 2224.9998 V 1088.5752 H 0 Z"
         transform="matrix(0.33438207,0,0,0.33438207,-0.50000001,-0.50000001)"
         clip-rule="evenodd"
         id="path21" />
    </clipPath>
    <clipPath
       clipPathUnits="userSpaceOnUse"
       id="clipPath23">
      <path
         d="M 0,0 H 2224.9998 V 1088.5752 H 0 Z"
         transform="matrix(0.33438207,0,0,0.33438207,-0.50000001,-0.50000001)"
         clip-rule="evenodd"
         id="path23" />
    </clipPath>
    <clipPath
       clipPathUnits="userSpaceOnUse"
       id="clipPath25">
      <path
         d="M 0,0 H 2224.9998 V 1088.5752 H 0 Z"
         transform="matrix(0.33438207,0,0,0.33438207,-0.50000001,-0.50000001)"
         clip-rule="evenodd"
         id="path25" />
    </clipPath>
    <clipPath
       clipPathUnits="userSpaceOnUse"
       id="clipPath26">
      <path
         d="M 0,0 H 2224.9998 V 1088.5752 H 0 Z"
         transform="matrix(0.3343787,0,0,0.3343787,-546.96875,-314.00001)"
         clip-rule="evenodd"
         id="path26" />
    </clipPath>
    <clipPath
       clipPathUnits="userSpaceOnUse"
       id="clipPath28">
      <path
         d="M 0,0 H 2224.9998 V 1088.5752 H 0 Z"
         transform="matrix(0.33438207,0,0,0.33438207,-0.50000001,-0.50000001)"
         clip-rule="evenodd"
         id="path28" />
    </clipPath>
    <clipPath
       clipPathUnits="userSpaceOnUse"
       id="clipPath30">
      <path
         d="M 0,0 H 2224.9998 V 1088.5752 H 0 Z"
         transform="matrix(0.33438207,0,0,0.33438207,-0.50000001,-0.50000001)"
         clip-rule="evenodd"
         id="path30" />
    </clipPath>
    <clipPath
       clipPathUnits="userSpaceOnUse"
       id="clipPath32">
      <path
         d="M 0,0 H 2224.9998 V 1088.5752 H 0 Z"
         transform="matrix(0.33438207,0,0,0.33438207,-0.50000001,-0.50000001)"
         clip-rule="evenodd"
         id="path32" />
    </clipPath>
    <clipPath
       clipPathUnits="userSpaceOnUse"
       id="clipPath34">
      <path
         d="M 0,0 H 2224.9998 V 1088.5752 H 0 Z"
         transform="matrix(0.33438207,0,0,0.33438207,-0.50000001,-0.50000001)"
         clip-rule="evenodd"
         id="path34" />
    </clipPath>
    <clipPath
       clipPathUnits="userSpaceOnUse"
       id="clipPath35">
      <path
         d="M 0,0 H 2224.9998 V 1088.5752 H 0 Z"
         transform="matrix(0.3343787,0,0,0.3343787,-482.78125,-176)"
         clip-rule="evenodd"
         id="path35" />
    </clipPath>
    <clipPath
       clipPathUnits="userSpaceOnUse"
       id="clipPath36">
      <path
         d="M 0,0 H 2224.9998 V 1088.5752 H 0 Z"
         transform="matrix(0.3343787,0,0,0.3343787,-512.57813,-196)"
         clip-rule="evenodd"
         id="path36" />
    </clipPath>
    <clipPath
       clipPathUnits="userSpaceOnUse"
       id="clipPath37">
      <path
         d="M 0,0 H 2224.9998 V 1088.5752 H 0 Z"
         transform="matrix(0.3343787,0,0,0.3343787,-153,-210)"
         clip-rule="evenodd"
         id="path37" />
    </clipPath>
    <clipPath
       clipPathUnits="userSpaceOnUse"
       id="clipPath38">
      <path
         d="M 0,0 H 2224.9998 V 1088.5752 H 0 Z"
         transform="matrix(0.3343787,0,0,0.3343787,-153,-229.00001)"
         clip-rule="evenodd"
         id="path38" />
    </clipPath>
    <clipPath
       clipPathUnits="userSpaceOnUse"
       id="clipPath39">
      <path
         d="M 0,0 H 2224.9998 V 1088.5752 H 0 Z"
         transform="matrix(0.3343787,0,0,0.3343787,-153,-248)"
         clip-rule="evenodd"
         id="path39" />
    </clipPath>
  </defs>
  <sodipodi:namedview
     id="namedview1"
     pagecolor="#ffffff"
     bordercolor="#000000"
     borderopacity="0.25"
     inkscape:showpageshadow="2"
     inkscape:pageopacity="0.0"
     inkscape:pagecheckerboard="0"
     inkscape:deskcolor="#d1d1d1">
    <inkscape:page
       x="0"
       y="0"
       inkscape:label="1"
       id="page1"
       width="712"
       height="349.44"
       margin="0"
       bleed="0" />
  </sodipodi:namedview>
  <g
     id="g1"
     inkscape:groupmode="layer"
     inkscape:label="1">
    <path
       id="path1"
       d="M 0,0 H 744 V 365 H 0 Z"
       style="fill:#ffffff;fill-opacity:1;fill-rule:nonzero;stroke:none"
       transform="scale(0.95698908)"
       clip-path="url(#clipPath2)" />
    <path
       id="path3"
       d="m 1,271 h 300 v 90 H 1 Z"
       style="fill:#dae8fc;fill-opacity:1;fill-rule:nonzero;stroke:#6c8ebf;stroke-width:1;stroke-linecap:butt;stroke-linejoin:miter;stroke-miterlimit:10;stroke-dasharray:none;stroke-opacity:1"
       transform="matrix(0.95698908,0,0,0.95698908,0.47849455,0.47849455)"
       clip-path="url(#clipPath4)" />
    <text
       id="text4"
       xml:space="preserve"
       transform="matrix(0.95699871,0,0,0.95699871,66.017958,310.06758)"
       clip-path="url(#clipPath5)"><tspan
         style="font-variant:normal;font-weight:700;font-size:24px;font-family:Helvetica;writing-mode:lr-tb;fill:#000000;fill-opacity:1;fill-rule:nonzero;stroke:none"
         x="0 13.347656 28.007812 49.347656 62.695312 69.363281 77.355469 92.015625 106.67578 120.02344 128.01562 134.68359 149.34375"
         y="0"
         sodipodi:role="line"
         id="tspan4">some function</tspan></text>
    <path
       id="path6"
       d="m 151,181 v 83.63"
       style="fill:none;stroke:#000000;stroke-width:1;stroke-linecap:butt;stroke-linejoin:miter;stroke-miterlimit:10;stroke-dasharray:none;stroke-opacity:1"
       transform="matrix(0.95698908,0,0,0.95698908,0.47849455,0.47849455)"
       clip-path="url(#clipPath7)" />
    <path
       id="path8"
       d="m 151,269.88 -3.5,-7 3.5,1.75 3.5,-1.75 z"
       style="fill:#000000;fill-opacity:1;fill-rule:nonzero;stroke:#000000;stroke-width:1;stroke-linecap:butt;stroke-linejoin:miter;stroke-miterlimit:10;stroke-dasharray:none;stroke-opacity:1"
       transform="matrix(0.95698908,0,0,0.95698908,0.47849455,0.47849455)"
       clip-path="url(#clipPath9)" />
    <path
       id="path10"
       d="m 1,101 h 300 v 80 H 1 Z"
       style="fill:#d5e8d4;fill-opacity:1;fill-rule:nonzero;stroke:#82b366;stroke-width:1;stroke-linecap:butt;stroke-linejoin:miter;stroke-miterlimit:10;stroke-dasharray:none;stroke-opacity:1"
       transform="matrix(0.95698908,0,0,0.95698908,0.47849455,0.47849455)"
       clip-path="url(#clipPath11)" />
    <text
       id="text11"
       xml:space="preserve"
       transform="matrix(0.95699871,0,0,0.95699871,71.102014,142.59281)"
       clip-path="url(#clipPath12)"><tspan
         style="font-variant:normal;font-weight:700;font-size:24px;font-family:Helvetica;writing-mode:lr-tb;fill:#000000;fill-opacity:1;fill-rule:nonzero;stroke:none"
         x="0 6.6679688 21.328125 29.320312 42.667969 52.007812 60 73.347656 86.695312 100.04297 106.71094 122.71875 138.72656"
         y="0"
         sodipodi:role="line"
         id="tspan11">interface XYZ</tspan></text>
    <path
       id="path13"
       d="m 461,46 h -80 v 95 h -73.63"
       style="fill:none;stroke:#000000;stroke-width:1;stroke-linecap:butt;stroke-linejoin:miter;stroke-miterlimit:10;stroke-dasharray:none;stroke-opacity:1"
       transform="matrix(0.95698908,0,0,0.95698908,0.47849455,0.47849455)"
       clip-path="url(#clipPath14)" />
    <path
       id="path15"
       d="m 302.12,141 7,-3.5 -1.75,3.5 1.75,3.5 z"
       style="fill:#000000;fill-opacity:1;fill-rule:nonzero;stroke:#000000;stroke-width:1;stroke-linecap:butt;stroke-linejoin:miter;stroke-miterlimit:10;stroke-dasharray:none;stroke-opacity:1"
       transform="matrix(0.95698908,0,0,0.95698908,0.47849455,0.47849455)"
       clip-path="url(#clipPath16)" />
    <path
       id="path17"
       d="M 461,1 H 741 V 91 H 461 Z"
       style="fill:#dae8fc;fill-opacity:1;fill-rule:nonzero;stroke:#6c8ebf;stroke-width:1;stroke-linecap:butt;stroke-linejoin:miter;stroke-miterlimit:10;stroke-dasharray:none;stroke-opacity:1"
       transform="matrix(0.95698908,0,0,0.95698908,0.47849455,0.47849455)"
       clip-path="url(#clipPath18)" />
    <text
       id="text18"
       xml:space="preserve"
       transform="matrix(0.95699871,0,0,0.95699871,523.44839,51.67793)"
       clip-path="url(#clipPath19)"><tspan
         style="font-variant:normal;font-weight:700;font-size:24px;font-family:Helvetica;writing-mode:lr-tb;fill:#000000;fill-opacity:1;fill-rule:nonzero;stroke:none"
         x="0 18.667969 33.328125 39.996094 53.34375 66.691406 74.683594 81.351562 94.699219"
         y="0"
         sodipodi:role="line"
         id="tspan18">Object #1</tspan></text>
    <path
       id="path20"
       d="M 461,306 H 381 V 141 h -73.63"
       style="fill:none;stroke:#000000;stroke-width:1;stroke-linecap:butt;stroke-linejoin:miter;stroke-miterlimit:10;stroke-dasharray:none;stroke-opacity:1"
       transform="matrix(0.95698908,0,0,0.95698908,0.47849455,0.47849455)"
       clip-path="url(#clipPath21)" />
    <path
       id="path22"
       d="m 302.12,141 7,-3.5 -1.75,3.5 1.75,3.5 z"
       style="fill:#000000;fill-opacity:1;fill-rule:nonzero;stroke:#000000;stroke-width:1;stroke-linecap:butt;stroke-linejoin:miter;stroke-miterlimit:10;stroke-dasharray:none;stroke-opacity:1"
       transform="matrix(0.95698908,0,0,0.95698908,0.47849455,0.47849455)"
       clip-path="url(#clipPath23)" />
    <path
       id="path24"
       d="m 461,261 h 280 v 90 H 461 Z"
       style="fill:#dae8fc;fill-opacity:1;fill-rule:nonzero;stroke:#6c8ebf;stroke-width:1;stroke-linecap:butt;stroke-linejoin:miter;stroke-miterlimit:10;stroke-dasharray:none;stroke-opacity:1"
       transform="matrix(0.95698908,0,0,0.95698908,0.47849455,0.47849455)"
       clip-path="url(#clipPath25)" />
    <text
       id="text25"
       xml:space="preserve"
       transform="matrix(0.95699871,0,0,0.95699871,523.44839,300.4976)"
       clip-path="url(#clipPath26)"><tspan
         style="font-variant:normal;font-weight:700;font-size:24px;font-family:Helvetica;writing-mode:lr-tb;fill:#000000;fill-opacity:1;fill-rule:nonzero;stroke:none"
         x="0 18.667969 33.328125 39.996094 53.34375 66.691406 74.683594 81.351562 94.699219"
         y="0"
         sodipodi:role="line"
         id="tspan25">Object #2</tspan></text>
    <path
       id="path27"
       d="M 601.01001,151 V 97.370003"
       style="fill:none;stroke:#000000;stroke-width:1;stroke-linecap:butt;stroke-linejoin:miter;stroke-miterlimit:10;stroke-dasharray:none;stroke-opacity:1"
       transform="matrix(0.95698908,0,0,0.95698908,0.47849455,0.47849455)"
       clip-path="url(#clipPath28)" />
    <path
       id="path29"
       d="m 601.01001,92.120003 3.5,7 -3.5,-1.75 -3.5,1.75 z"
       style="fill:#000000;fill-opacity:1;fill-rule:nonzero;stroke:#000000;stroke-width:1;stroke-linecap:butt;stroke-linejoin:miter;stroke-miterlimit:10;stroke-dasharray:none;stroke-opacity:1"
       transform="matrix(0.95698908,0,0,0.95698908,0.47849455,0.47849455)"
       clip-path="url(#clipPath30)" />
    <path
       id="path31"
       d="m 601.01001,211 v 43.63"
       style="fill:none;stroke:#000000;stroke-width:1;stroke-linecap:butt;stroke-linejoin:miter;stroke-miterlimit:10;stroke-dasharray:none;stroke-opacity:1"
       transform="matrix(0.95698908,0,0,0.95698908,0.47849455,0.47849455)"
       clip-path="url(#clipPath32)" />
    <path
       id="path33"
       d="m 601.01001,259.88 -3.5,-7 3.5,1.75 3.5,-1.75 z"
       style="fill:#000000;fill-opacity:1;fill-rule:nonzero;stroke:#000000;stroke-width:1;stroke-linecap:butt;stroke-linejoin:miter;stroke-miterlimit:10;stroke-dasharray:none;stroke-opacity:1"
       transform="matrix(0.95698908,0,0,0.95698908,0.47849455,0.47849455)"
       clip-path="url(#clipPath34)" />
    <text
       id="text34"
       xml:space="preserve"
       transform="matrix(0.95699871,0,0,0.95699871,462.02103,168.43177)"
       clip-path="url(#clipPath35)"><tspan
         style="font-style:oblique;font-variant:normal;font-weight:normal;font-size:16px;font-family:Helvetica;writing-mode:lr-tb;fill:#000000;fill-opacity:1;fill-rule:nonzero;stroke:none"
         x="0 13.328125 22.226562 30.226562 34.671875 39.117188 47.117188 56.015625 60.460938 64.015625 72.015625 76.460938 84.460938 88.90625 93.351562 102.25 111.14844 115.59375 118.64844 129.32031 139.99219 149.76562 152.82031 157.26562 160.82031 169.71875 174.16406 183.0625 188.39062 192.83594 201.73438 209.73438 218.63281 223.07812 227.52344"
         y="0"
         sodipodi:role="line"
         id="tspan34">Must satisfy the 'XYZ' interface to</tspan></text>
    <text
       id="text35"
       xml:space="preserve"
       transform="matrix(0.95699871,0,0,0.95699871,490.53661,187.57175)"
       clip-path="url(#clipPath36)"><tspan
         style="font-style:oblique;font-variant:normal;font-weight:normal;font-size:16px;font-family:Helvetica;writing-mode:lr-tb;fill:#000000;fill-opacity:1;fill-rule:nonzero;stroke:none"
         x="0 11.554688 20.453125 25.78125 33.78125 38.226562 49.78125 53.335938 57.78125 66.679688 71.125 74.179688 82.179688 91.078125 104.40625 113.30469 117.75 122.19531 131.09375 139.99219 147.99219 152.4375 155.99219 164.89062 173.78906"
         y="0"
         sodipodi:role="line"
         id="tspan35">work with 'some function'</tspan></text>
    <text
       id="text36"
       xml:space="preserve"
       transform="matrix(0.95699871,0,0,0.95699871,146.4208,200.96973)"
       clip-path="url(#clipPath37)"><tspan
         style="font-style:oblique;font-variant:normal;font-weight:normal;font-size:16px;font-family:Helvetica;writing-mode:lr-tb;fill:#000000;fill-opacity:1;fill-rule:nonzero;stroke:none"
         x="0 10.671875 21.34375 31.117188 35.5625 39.117188 47.117188 51.5625"
         y="0"
         sodipodi:role="line"
         id="tspan36">XYZ is a</tspan></text>
    <text
       id="text37"
       xml:space="preserve"
       transform="matrix(0.95699871,0,0,0.95699871,146.4208,219.15271)"
       clip-path="url(#clipPath38)"><tspan
         style="font-style:oblique;font-variant:normal;font-weight:normal;font-size:16px;font-family:Helvetica;writing-mode:lr-tb;fill:#000000;fill-opacity:1;fill-rule:nonzero;stroke:none"
         x="0 8.8984375 17.796875 22.242188 31.140625 39.140625 48.039062 56.9375 65.835938 74.734375 80.0625 84.507812 88.953125"
         y="0"
         sodipodi:role="line"
         id="tspan37">gatekeeper to</tspan></text>
    <text
       id="text38"
       xml:space="preserve"
       transform="matrix(0.95699871,0,0,0.95699871,146.4208,237.33568)"
       clip-path="url(#clipPath39)"><tspan
         style="font-style:oblique;font-variant:normal;font-weight:normal;font-size:16px;font-family:Helvetica;writing-mode:lr-tb;fill:#000000;fill-opacity:1;fill-rule:nonzero;stroke:none"
         x="0 3.0546875 11.054688 19.953125 33.28125 42.179688 46.625 51.070312 59.96875 68.867188 76.867188 81.3125 84.867188 93.765625 102.66406"
         y="0"
         sodipodi:role="line"
         id="tspan38">'some function'</tspan></text>
  </g>
</svg>
