<?xml version="1.0" encoding="UTF-8" standalone="no"?>
<!-- Created with Inkscape (http://www.inkscape.org/) -->

<svg
   version="1.1"
   id="svg1"
   width="510.71997"
   height="291.84"
   viewBox="0 0 510.71997 291.84"
   sodipodi:docname="ts-2.pdf"
   xmlns:inkscape="http://www.inkscape.org/namespaces/inkscape"
   xmlns:sodipodi="http://sodipodi.sourceforge.net/DTD/sodipodi-0.dtd"
   xmlns="http://www.w3.org/2000/svg"
   xmlns:svg="http://www.w3.org/2000/svg">
  <defs
     id="defs1">
    <clipPath
       clipPathUnits="userSpaceOnUse"
       id="clipPath2">
      <path
         d="M 0,0 H 1595.8334 V 911.47784 H 0 Z"
         transform="scale(0.3346214)"
         clip-rule="evenodd"
         id="path2" />
    </clipPath>
    <clipPath
       clipPathUnits="userSpaceOnUse"
       id="clipPath4">
      <path
         d="M 0,0 H 1595.8334 V 908.48938 H 0 Z"
         transform="matrix(0.3346214,0,0,0.3346214,-0.49999999,-0.49999999)"
         clip-rule="evenodd"
         id="path4" />
    </clipPath>
    <clipPath
       clipPathUnits="userSpaceOnUse"
       id="clipPath5">
      <path
         d="M 0,0 H 1595.8334 V 908.48938 H 0 Z"
         transform="matrix(0.33461804,0,0,0.33461804,-92.796875,-18)"
         clip-rule="evenodd"
         id="path5" />
    </clipPath>
    <clipPath
       clipPathUnits="userSpaceOnUse"
       id="clipPath6">
      <path
         d="M 0,0 H 1595.8334 V 908.48938 H 0 Z"
         transform="matrix(0.33461804,0,0,0.33461804,-289.26563,-35)"
         clip-rule="evenodd"
         id="path6" />
    </clipPath>
    <clipPath
       clipPathUnits="userSpaceOnUse"
       id="clipPath8">
      <path
         d="M 0,0 H 1595.8334 V 908.48938 H 0 Z"
         transform="matrix(0.3346214,0,0,0.3346214,-0.49999999,-0.49999999)"
         clip-rule="evenodd"
         id="path8" />
    </clipPath>
    <clipPath
       clipPathUnits="userSpaceOnUse"
       id="clipPath9">
      <path
         d="M 0,0 H 1595.8334 V 908.48938 H 0 Z"
         transform="matrix(0.33461804,0,0,0.33461804,-82.453125,-66)"
         clip-rule="evenodd"
         id="path9" />
    </clipPath>
    <clipPath
       clipPathUnits="userSpaceOnUse"
       id="clipPath11">
      <path
         d="M 0,0 H 1595.8334 V 908.48938 H 0 Z"
         transform="matrix(0.3346214,0,0,0.3346214,-0.49999999,-0.49999999)"
         clip-rule="evenodd"
         id="path11" />
    </clipPath>
    <clipPath
       clipPathUnits="userSpaceOnUse"
       id="clipPath12">
      <path
         d="M 0,0 H 1595.8334 V 908.48938 H 0 Z"
         transform="matrix(0.33461804,0,0,0.33461804,-173.70313,-106.00001)"
         clip-rule="evenodd"
         id="path12" />
    </clipPath>
    <clipPath
       clipPathUnits="userSpaceOnUse"
       id="clipPath14">
      <path
         d="M 0,0 H 1595.8334 V 908.48938 H 0 Z"
         transform="matrix(0.3346214,0,0,0.3346214,-0.49999999,-0.49999999)"
         clip-rule="evenodd"
         id="path14" />
    </clipPath>
    <clipPath
       clipPathUnits="userSpaceOnUse"
       id="clipPath15">
      <path
         d="M 0,0 H 1595.8334 V 908.48938 H 0 Z"
         transform="matrix(0.33461804,0,0,0.33461804,-19.875,-68)"
         clip-rule="evenodd"
         id="path15" />
    </clipPath>
    <clipPath
       clipPathUnits="userSpaceOnUse"
       id="clipPath17">
      <path
         d="M 0,0 H 1595.8334 V 908.48938 H 0 Z"
         transform="matrix(0.3346214,0,0,0.3346214,-0.49999999,-0.49999999)"
         clip-rule="evenodd"
         id="path17" />
    </clipPath>
    <clipPath
       clipPathUnits="userSpaceOnUse"
       id="clipPath18">
      <path
         d="M 0,0 H 1595.8334 V 908.48938 H 0 Z"
         transform="matrix(0.33461804,0,0,0.33461804,-128.17187,-166)"
         clip-rule="evenodd"
         id="path18" />
    </clipPath>
    <clipPath
       clipPathUnits="userSpaceOnUse"
       id="clipPath20">
      <path
         d="M 0,0 H 1595.8334 V 908.48938 H 0 Z"
         transform="matrix(0.3346214,0,0,0.3346214,-0.49999999,-0.49999999)"
         clip-rule="evenodd"
         id="path20" />
    </clipPath>
    <clipPath
       clipPathUnits="userSpaceOnUse"
       id="clipPath21">
      <path
         d="M 0,0 H 1595.8334 V 908.48938 H 0 Z"
         transform="matrix(0.33461804,0,0,0.33461804,-213,-206.00001)"
         clip-rule="evenodd"
         id="path21" />
    </clipPath>
    <clipPath
       clipPathUnits="userSpaceOnUse"
       id="clipPath23">
      <path
         d="M 0,0 H 1595.8334 V 908.48938 H 0 Z"
         transform="matrix(0.3346214,0,0,0.3346214,-0.49999999,-0.49999999)"
         clip-rule="evenodd"
         id="path23" />
    </clipPath>
    <clipPath
       clipPathUnits="userSpaceOnUse"
       id="clipPath24">
      <path
         d="M 0,0 H 1595.8334 V 908.48938 H 0 Z"
         transform="matrix(0.33461804,0,0,0.33461804,-82.65625,-238)"
         clip-rule="evenodd"
         id="path24" />
    </clipPath>
    <clipPath
       clipPathUnits="userSpaceOnUse"
       id="clipPath25">
      <path
         d="M 0,0 H 1595.8334 V 908.48938 H 0 Z"
         transform="matrix(0.33461804,0,0,0.33461804,-139.96875,-255)"
         clip-rule="evenodd"
         id="path25" />
    </clipPath>
    <clipPath
       clipPathUnits="userSpaceOnUse"
       id="clipPath27">
      <path
         d="M 0,0 H 1595.8334 V 908.48938 H 0 Z"
         transform="matrix(0.3346214,0,0,0.3346214,-0.49999999,-0.49999999)"
         clip-rule="evenodd"
         id="path27" />
    </clipPath>
    <clipPath
       clipPathUnits="userSpaceOnUse"
       id="clipPath28">
      <path
         d="M 0,0 H 1595.8334 V 908.48938 H 0 Z"
         transform="matrix(0.33461804,0,0,0.33461804,-17.25,-228)"
         clip-rule="evenodd"
         id="path28" />
    </clipPath>
    <clipPath
       clipPathUnits="userSpaceOnUse"
       id="clipPath30">
      <path
         d="M 0,0 H 1595.8334 V 908.48938 H 0 Z"
         transform="matrix(0.3346214,0,0,0.3346214,-0.49999999,-0.49999999)"
         clip-rule="evenodd"
         id="path30" />
    </clipPath>
    <clipPath
       clipPathUnits="userSpaceOnUse"
       id="clipPath31">
      <path
         d="M 0,0 H 1595.8334 V 908.48938 H 0 Z"
         transform="matrix(0.33461804,0,0,0.33461804,-85.875,-286)"
         clip-rule="evenodd"
         id="path31" />
    </clipPath>
  </defs>
  <sodipodi:namedview
     id="namedview1"
     pagecolor="#ffffff"
     bordercolor="#000000"
     borderopacity="0.25"
     inkscape:showpageshadow="2"
     inkscape:pageopacity="0.0"
     inkscape:pagecheckerboard="0"
     inkscape:deskcolor="#d1d1d1">
    <inkscape:page
       x="0"
       y="0"
       inkscape:label="1"
       id="page1"
       width="510.71997"
       height="291.84"
       margin="0"
       bleed="0" />
  </sodipodi:namedview>
  <g
     id="g1"
     inkscape:groupmode="layer"
     inkscape:label="1">
    <path
       id="path1"
       d="M 0,0 H 534 V 305 H 0 Z"
       style="fill:#ffffff;fill-opacity:1;fill-rule:nonzero;stroke:none"
       transform="scale(0.9563046)"
       clip-path="url(#clipPath2)" />
    <path
       id="path3"
       d="M 81,1 H 531 V 41 H 81 Z"
       style="fill:#ffffff;fill-opacity:1;fill-rule:nonzero;stroke:#000000;stroke-width:1;stroke-linecap:butt;stroke-linejoin:miter;stroke-miterlimit:10;stroke-dasharray:none;stroke-opacity:1"
       transform="matrix(0.9563046,0,0,0.9563046,0.47815229,0.47815229)"
       clip-path="url(#clipPath4)" />
    <text
       id="text4"
       xml:space="preserve"
       transform="matrix(0.9563142,0,0,0.9563142,88.742969,17.213656)"
       clip-path="url(#clipPath5)"><tspan
         style="font-variant:normal;font-weight:normal;font-size:14px;font-family:Helvetica;writing-mode:lr-tb;fill:#000000;fill-opacity:1;fill-rule:nonzero;stroke:none"
         x="0 8.5517578 16.337891 20.234375 24.124023 28.013672 31.90332 39.689453 44.351562 48.241211 56.027344 63.813477 70.813477 73.923828 81.709961 86.37207 90.261719 94.151367 101.9375 105.82715 113.61328 120.61328 128.39941 131.50977 139.2959 143.18555 150.97168 157.97168 161.86133 166.52344 174.30957 185.97168 193.75781 196.86816 203.86816 207.75781 214.75781 222.54395 234.20605 245.86816 253.6543 261.44043 265.33008 269.21973 276.21973 284.00586 291.79199 298.79199 302.68164 306.57129 309.68164 312.79199 319.79199 327.57812 331.46777 334.57812 342.36426 349.36426 357.15039 361.8125 366.47461 374.26074 381.26074 385.15039 389.04004 396.82617 403.82617 407.71582 410.82617 418.6123"
         y="0"
         sodipodi:role="line"
         id="tspan4">Far, far easier to avoid extremely common typos, like incorrect action</tspan></text>
    <text
       id="text5"
       xml:space="preserve"
       transform="matrix(0.9563142,0,0,0.9563142,276.62883,33.470997)"
       clip-path="url(#clipPath6)"><tspan
         style="font-variant:normal;font-weight:normal;font-size:14px;font-family:Helvetica;writing-mode:lr-tb;fill:#000000;fill-opacity:1;fill-rule:nonzero;stroke:none"
         x="0 3.8896484 10.889648 18.675781 26.461914"
         y="0"
         sodipodi:role="line"
         id="tspan5">types</tspan></text>
    <path
       id="path7"
       d="M 81,41 H 531 V 81 H 81 Z"
       style="fill:#ffffff;fill-opacity:1;fill-rule:nonzero;stroke:#000000;stroke-width:1;stroke-linecap:butt;stroke-linejoin:miter;stroke-miterlimit:10;stroke-dasharray:none;stroke-opacity:1"
       transform="matrix(0.9563046,0,0,0.9563046,0.47815229,0.47815229)"
       clip-path="url(#clipPath8)" />
    <g
       id="g8" />
    <text
       id="text8"
       xml:space="preserve"
       transform="matrix(0.9563142,0,0,0.9563142,78.851094,63.116737)"
       clip-path="url(#clipPath9)"><tspan
         style="font-variant:normal;font-weight:normal;font-size:14px;font-family:Helvetica;writing-mode:lr-tb;fill:#000000;fill-opacity:1;fill-rule:nonzero;stroke:none"
         x="0 10.889648 14 21 28.786133 35.786133 39.675781 47.461914 55.248047 62.248047 64.920898 71.920898 75.810547 83.59668 87.486328 91.375977 99.162109 103.82422 107.71387 115.5 123.28613 127.17578 131.06543 138.85156 143.51367 147.40332 155.18945 162.97559 170.76172 178.54785 183.20996 190.20996 194.09961 201.88574 209.67188 217.45801 220.56836 228.35449 236.14062 240.03027 247.81641 251.70605 255.5957 259.48535 267.27148 275.05762 278.94727 282.83691 289.83691 297.62305 305.40918 309.29883 317.08496 320.97461 324.86426 332.65039 340.43652 344.32617 352.1123 356.00195 363.00195 370.78809 380.89844 384.00879 391.79492 399.58105 403.4707 411.25684 415.91895 423.70508 431.49121 439.27734"
         y="0"
         sodipodi:role="line"
         id="tspan8">Gives dev's a far better understanding of the type of data ﬂowing around</tspan></text>
    <path
       id="path10"
       d="m 81,81 h 450 v 40 H 81 Z"
       style="fill:#ffffff;fill-opacity:1;fill-rule:nonzero;stroke:#000000;stroke-width:1;stroke-linecap:butt;stroke-linejoin:miter;stroke-miterlimit:10;stroke-dasharray:none;stroke-opacity:1"
       transform="matrix(0.9563046,0,0,0.9563046,0.47815229,0.47815229)"
       clip-path="url(#clipPath11)" />
    <text
       id="text11"
       xml:space="preserve"
       transform="matrix(0.9563142,0,0,0.9563142,166.11477,101.36931)"
       clip-path="url(#clipPath12)"><tspan
         style="font-variant:normal;font-weight:normal;font-size:14px;font-family:Helvetica;writing-mode:lr-tb;fill:#000000;fill-opacity:1;fill-rule:nonzero;stroke:none"
         x="0 11.662109 19.448242 26.448242 34.234375 38.124023 45.910156 53.696289 60.696289 63.806641 71.592773 76.254883 80.144531 84.03418 91.820312 95.709961 100.37207 108.1582 112.04785 119.83398 126.83398 130.72363 138.50977 143.17188 147.06152 150.17188 157.95801 164.95801 168.84766 172.7373 180.52344 188.30957 196.0957 203.88184 207.77148 211.66113 219.44727 227.2334 234.2334 238.12305 245.90918 249.01953 256.80566"
         y="0"
         sodipodi:role="line"
         id="tspan11">Much easier to refactor just about anything</tspan></text>
    <path
       id="path13"
       d="M 1,1 H 81 V 121 H 1 Z"
       style="fill:#d5e8d4;fill-opacity:1;fill-rule:nonzero;stroke:#82b366;stroke-width:1;stroke-linecap:butt;stroke-linejoin:miter;stroke-miterlimit:10;stroke-dasharray:none;stroke-opacity:1"
       transform="matrix(0.9563046,0,0,0.9563046,0.47815229,0.47815229)"
       clip-path="url(#clipPath14)" />
    <text
       id="text14"
       xml:space="preserve"
       transform="matrix(0.9563142,0,0,0.9563142,19.006745,65.029366)"
       clip-path="url(#clipPath15)"><tspan
         style="font-variant:normal;font-weight:700;font-size:19px;font-family:Helvetica;writing-mode:lr-tb;fill:#000000;fill-opacity:1;fill-rule:nonzero;stroke:none"
         x="0 12.672852 20.066895 31.672852"
         y="0"
         sodipodi:role="line"
         id="tspan14">Pros</tspan></text>
    <path
       id="path16"
       d="m 81,141 h 450 v 40 H 81 Z"
       style="fill:#ffffff;fill-opacity:1;fill-rule:nonzero;stroke:#000000;stroke-width:1;stroke-linecap:butt;stroke-linejoin:miter;stroke-miterlimit:10;stroke-dasharray:none;stroke-opacity:1"
       transform="matrix(0.9563046,0,0,0.9563046,0.47815229,0.47815229)"
       clip-path="url(#clipPath17)" />
    <g
       id="g17" />
    <g
       id="g18" />
    <text
       id="text18"
       xml:space="preserve"
       transform="matrix(0.9563142,0,0,0.9563142,122.57258,158.74816)"
       clip-path="url(#clipPath18)"><tspan
         style="font-variant:normal;font-weight:normal;font-size:14px;font-family:Helvetica;writing-mode:lr-tb;fill:#000000;fill-opacity:1;fill-rule:nonzero;stroke:none"
         x="0 10.110352 17.896484 21.786133 25.675781 29.56543 37.351562 45.137695 49.027344 56.813477 64.599609 71.599609 75.489258 79.378906 83.268555 90.268555 98.054688 105.84082 109.73047 117.5166 125.30273 132.30273 140.08887 143.19922 147.08887 150.19922 157.98535 165.77148 169.66113 176.66113 179.77148 187.55762 194.55762 198.44727 203.10938 210.89551 217.89551 225.68164 233.46777 240.46777 243.57812 251.36426 254.47461 257.58496 264.58496 268.47461 276.26074 280.92285 288.70898 296.49512 304.28125 312.06738 315.95703 320.61914 328.40527 336.19141 343.97754 350.97754"
         y="0"
         sodipodi:role="line"
         id="tspan18">Not the best type deﬁnition ﬁles (especially around redux)</tspan></text>
    <path
       id="path19"
       d="m 81,181 h 450 v 40 H 81 Z"
       style="fill:#ffffff;fill-opacity:1;fill-rule:nonzero;stroke:#000000;stroke-width:1;stroke-linecap:butt;stroke-linejoin:miter;stroke-miterlimit:10;stroke-dasharray:none;stroke-opacity:1"
       transform="matrix(0.9563046,0,0,0.9563046,0.47815229,0.47815229)"
       clip-path="url(#clipPath20)" />
    <g
       id="g20" />
    <text
       id="text20"
       xml:space="preserve"
       transform="matrix(0.9563142,0,0,0.9563142,203.69492,197.00073)"
       clip-path="url(#clipPath21)"><tspan
         style="font-variant:normal;font-weight:normal;font-size:14px;font-family:Helvetica;writing-mode:lr-tb;fill:#000000;fill-opacity:1;fill-rule:nonzero;stroke:none"
         x="0 7 14.786133 22.572266 29.572266 33.461914 41.248047 45.137695 49.027344 56.813477 64.599609 72.385742 80.171875 84.833984 87.944336 94.944336 101.94434 105.83398 112.83398 119.83398 122.94434 130.73047 138.5166 142.40625 150.19238 154.85449 162.64062 170.42676 178.21289"
         y="0"
         sodipodi:role="line"
         id="tspan20">Tons of generics ﬂying around</tspan></text>
    <path
       id="path22"
       d="m 81,221 h 450 v 40 H 81 Z"
       style="fill:#ffffff;fill-opacity:1;fill-rule:nonzero;stroke:#000000;stroke-width:1;stroke-linecap:butt;stroke-linejoin:miter;stroke-miterlimit:10;stroke-dasharray:none;stroke-opacity:1"
       transform="matrix(0.9563046,0,0,0.9563046,0.47815229,0.47815229)"
       clip-path="url(#clipPath23)" />
    <text
       id="text23"
       xml:space="preserve"
       transform="matrix(0.9563142,0,0,0.9563142,79.045346,227.60278)"
       clip-path="url(#clipPath24)"><tspan
         style="font-variant:normal;font-weight:normal;font-size:14px;font-family:Helvetica;writing-mode:lr-tb;fill:#000000;fill-opacity:1;fill-rule:nonzero;stroke:none"
         x="0 7 14.786133 22.572266 29.572266 33.461914 41.248047 45.137695 49.027344 52.137695 63.799805 71.585938 79.37207 84.03418 87.923828 94.923828 98.813477 102.70312 110.48926 117.48926 121.37891 124.48926 132.27539 139.27539 143.16504 147.05469 154.84082 162.62695 170.41309 178.19922 182.08887 185.97852 193.76465 200.76465 208.55078 213.21289 220.21289 224.10254 231.88867 234.99902 242.78516 250.57129 254.46094 259.12305 266.90918 273.90918 277.79883 280.90918 288.69531 296.48145 300.37109 307.37109 312.0332 319.81934 327.60547 331.49512 339.28125 343.17773 347.06738 350.95703 358.74316 365.74316 369.63281 372.74316 380.5293 388.31543 392.20508 396.09473 400.75684 408.54297 416.3291 424.11523 431.11523 438.90137 442.79785"
         y="0"
         sodipodi:role="line"
         id="tspan23">Tons of imports, as just about everything (action creator, action, reducer,</tspan></text>
    <text
       id="text24"
       xml:space="preserve"
       transform="matrix(0.9563142,0,0,0.9563142,133.8541,243.86012)"
       clip-path="url(#clipPath25)"><tspan
         style="font-variant:normal;font-weight:normal;font-size:14px;font-family:Helvetica;writing-mode:lr-tb;fill:#000000;fill-opacity:1;fill-rule:nonzero;stroke:none"
         x="0 7 10.889648 18.675781 23.337891 31.124023 35.013672 38.90332 45.90332 53.689453 65.351562 73.137695 80.923828 88.709961 96.496094 104.28223 108.17188 112.83398 116.72363 124.50977 132.2959 140.08203 147.86816 151.75781 155.64746 163.43359 167.32324 175.10938 182.89551 186.78516 194.57129 204.68164 212.46777 217.12988 224.91602 228.80566 236.5918 240.48145 244.37109 252.15723 255.26758 258.91113 262.80078 270.58691 275.24902 283.03516 290.82129 294.71094 298.60059 302.49023 309.49023 317.27637 325.0625"
         y="0"
         sodipodi:role="line"
         id="tspan24">store, component) need to be aware of different types</tspan></text>
    <path
       id="path26"
       d="M 1,141 H 81 V 301 H 1 Z"
       style="fill:#f8cecc;fill-opacity:1;fill-rule:nonzero;stroke:#b85450;stroke-width:1;stroke-linecap:butt;stroke-linejoin:miter;stroke-miterlimit:10;stroke-dasharray:none;stroke-opacity:1"
       transform="matrix(0.9563046,0,0,0.9563046,0.47815229,0.47815229)"
       clip-path="url(#clipPath27)" />
    <text
       id="text27"
       xml:space="preserve"
       transform="matrix(0.9563142,0,0,0.9563142,16.49642,218.03964)"
       clip-path="url(#clipPath28)"><tspan
         style="font-variant:normal;font-weight:700;font-size:19px;font-family:Helvetica;writing-mode:lr-tb;fill:#000000;fill-opacity:1;fill-rule:nonzero;stroke:none"
         x="0 13.721191 25.327148 36.933105"
         y="0"
         sodipodi:role="line"
         id="tspan27">Cons</tspan></text>
    <path
       id="path29"
       d="m 81,261 h 450 v 40 H 81 Z"
       style="fill:#ffffff;fill-opacity:1;fill-rule:nonzero;stroke:#000000;stroke-width:1;stroke-linecap:butt;stroke-linejoin:miter;stroke-miterlimit:10;stroke-dasharray:none;stroke-opacity:1"
       transform="matrix(0.9563046,0,0,0.9563046,0.47815229,0.47815229)"
       clip-path="url(#clipPath30)" />
    <text
       id="text30"
       xml:space="preserve"
       transform="matrix(0.9563142,0,0,0.9563142,82.123482,273.50586)"
       clip-path="url(#clipPath31)"><tspan
         style="font-variant:normal;font-weight:normal;font-size:14px;font-family:Helvetica;writing-mode:lr-tb;fill:#000000;fill-opacity:1;fill-rule:nonzero;stroke:none"
         x="0 10.110352 17.896484 25.682617 33.46875 40.46875 44.358398 47.46875 55.254883 63.041016 70.827148 75.489258 83.275391 91.061523 94.951172 98.061523 105.06152 108.95117 112.84082 120.62695 128.41309 135.41309 139.30273 142.41309 150.19922 157.98535 165.77148 168.88184 172.77148 175.88184 183.66797 187.55762 195.34375 203.12988 207.01953 214.80566 219.46777 227.25391 231.14355 235.0332 238.92285 246.70898 254.49512 262.28125 270.06738 273.95703 277.06738 284.85352 288.74316 296.5293 304.31543 308.97754 316.76367 320.65332 323.76367 331.5498 339.33594 343.22559 353.33594 356.44629 360.33594 368.12207 371.76562 380.31738 389.65527 393.54492 400.54492 403.65527 411.44141 418.44141 425.44141 433.22754"
         y="0"
         sodipodi:role="line"
         id="tspan30">Redux inherently functional in nature, tough integration with TS classes</tspan></text>
  </g>
</svg>
