<?xml version="1.0" encoding="UTF-8" standalone="no"?>
<!-- Created with Inkscape (http://www.inkscape.org/) -->

<svg
   version="1.1"
   id="svg1"
   width="1038.72"
   height="282.56"
   viewBox="0 0 1038.72 282.56"
   sodipodi:docname="ts-3.pdf"
   xmlns:inkscape="http://www.inkscape.org/namespaces/inkscape"
   xmlns:sodipodi="http://sodipodi.sourceforge.net/DTD/sodipodi-0.dtd"
   xmlns="http://www.w3.org/2000/svg"
   xmlns:svg="http://www.w3.org/2000/svg">
  <defs
     id="defs1">
    <clipPath
       clipPathUnits="userSpaceOnUse"
       id="clipPath2">
      <path
         d="M 0,0 H 3245.8333 V 883.32178 H 0 Z"
         transform="scale(0.33396663)"
         clip-rule="evenodd"
         id="path2" />
    </clipPath>
    <clipPath
       clipPathUnits="userSpaceOnUse"
       id="clipPath4">
      <path
         d="M 0,0 H 3245.8333 V 880.32745 H 0 Z"
         transform="matrix(0.33396663,0,0,0.33396663,-0.50000001,-0.50000001)"
         clip-rule="evenodd"
         id="path4" />
    </clipPath>
    <clipPath
       clipPathUnits="userSpaceOnUse"
       id="clipPath6">
      <path
         d="M 0,0 H 3245.8333 V 880.32745 H 0 Z"
         transform="matrix(0.33396663,0,0,0.33396663,-0.50000001,-0.50000001)"
         clip-rule="evenodd"
         id="path6" />
    </clipPath>
    <clipPath
       clipPathUnits="userSpaceOnUse"
       id="clipPath8">
      <path
         d="M 0,0 H 3245.8333 V 880.32745 H 0 Z"
         transform="matrix(0.33396663,0,0,0.33396663,-0.50000001,-0.50000001)"
         clip-rule="evenodd"
         id="path8" />
    </clipPath>
    <clipPath
       clipPathUnits="userSpaceOnUse"
       id="clipPath10">
      <path
         d="M 0,0 H 3245.8333 V 880.32745 H 0 Z"
         transform="matrix(0.33396663,0,0,0.33396663,-0.50000001,-0.50000001)"
         clip-rule="evenodd"
         id="path10" />
    </clipPath>
    <clipPath
       clipPathUnits="userSpaceOnUse"
       id="clipPath12">
      <path
         d="M 0,0 H 3245.8333 V 880.32745 H 0 Z"
         transform="matrix(0.33396663,0,0,0.33396663,-0.50000001,-0.50000001)"
         clip-rule="evenodd"
         id="path12" />
    </clipPath>
    <clipPath
       clipPathUnits="userSpaceOnUse"
       id="clipPath14">
      <path
         d="M 0,0 H 3245.8333 V 880.32745 H 0 Z"
         transform="matrix(0.33396663,0,0,0.33396663,-0.50000001,-0.50000001)"
         clip-rule="evenodd"
         id="path14" />
    </clipPath>
    <clipPath
       clipPathUnits="userSpaceOnUse"
       id="clipPath16">
      <path
         d="M 0,0 H 3245.8333 V 880.32745 H 0 Z"
         transform="matrix(0.33396663,0,0,0.33396663,-0.50000001,-0.50000001)"
         clip-rule="evenodd"
         id="path16" />
    </clipPath>
    <clipPath
       clipPathUnits="userSpaceOnUse"
       id="clipPath18">
      <path
         d="M 0,0 H 3245.8333 V 880.32745 H 0 Z"
         transform="matrix(0.33396663,0,0,0.33396663,-0.50000001,-0.50000001)"
         clip-rule="evenodd"
         id="path18" />
    </clipPath>
    <clipPath
       clipPathUnits="userSpaceOnUse"
       id="clipPath20">
      <path
         d="M 0,0 H 3245.8333 V 880.32745 H 0 Z"
         transform="matrix(0.33396663,0,0,0.33396663,-0.50000001,-0.50000001)"
         clip-rule="evenodd"
         id="path20" />
    </clipPath>
    <clipPath
       clipPathUnits="userSpaceOnUse"
       id="clipPath22">
      <path
         d="M 0,0 H 3245.8333 V 880.32745 H 0 Z"
         transform="matrix(0.33396663,0,0,0.33396663,-0.50000001,-0.50000001)"
         clip-rule="evenodd"
         id="path22" />
    </clipPath>
    <clipPath
       clipPathUnits="userSpaceOnUse"
       id="clipPath24">
      <path
         d="M 0,0 H 3245.8333 V 880.32745 H 0 Z"
         transform="matrix(0.33396663,0,0,0.33396663,-0.50000001,-0.50000001)"
         clip-rule="evenodd"
         id="path24" />
    </clipPath>
    <clipPath
       clipPathUnits="userSpaceOnUse"
       id="clipPath26">
      <path
         d="M 0,0 H 3245.8333 V 880.32745 H 0 Z"
         transform="matrix(0.33396663,0,0,0.33396663,-0.50000001,-0.50000001)"
         clip-rule="evenodd"
         id="path26" />
    </clipPath>
    <clipPath
       clipPathUnits="userSpaceOnUse"
       id="clipPath28">
      <path
         d="M 0,0 H 3245.8333 V 880.32745 H 0 Z"
         transform="matrix(0.33396663,0,0,0.33396663,-0.50000001,-0.50000001)"
         clip-rule="evenodd"
         id="path28" />
    </clipPath>
    <clipPath
       clipPathUnits="userSpaceOnUse"
       id="clipPath30">
      <path
         d="M 0,0 H 3245.8333 V 880.32745 H 0 Z"
         transform="matrix(0.33396663,0,0,0.33396663,-0.50000001,-0.50000001)"
         clip-rule="evenodd"
         id="path30" />
    </clipPath>
    <clipPath
       clipPathUnits="userSpaceOnUse"
       id="clipPath31">
      <path
         d="M 0,0 H 3245.8333 V 880.32745 H 0 Z"
         transform="matrix(0.33396329,0,0,0.33396329,-63,-32.000001)"
         clip-rule="evenodd"
         id="path31" />
    </clipPath>
    <clipPath
       clipPathUnits="userSpaceOnUse"
       id="clipPath32">
      <path
         d="M 0,0 H 3245.8333 V 880.32745 H 0 Z"
         transform="matrix(0.33396329,0,0,0.33396329,-133,-80)"
         clip-rule="evenodd"
         id="path32" />
    </clipPath>
    <clipPath
       clipPathUnits="userSpaceOnUse"
       id="clipPath34">
      <path
         d="M 0,0 H 3245.8333 V 880.32745 H 0 Z"
         transform="matrix(0.33396663,0,0,0.33396663,-0.50000001,-0.50000001)"
         clip-rule="evenodd"
         id="path34" />
    </clipPath>
    <clipPath
       clipPathUnits="userSpaceOnUse"
       id="clipPath35">
      <path
         d="M 0,0 H 3245.8333 V 880.32745 H 0 Z"
         transform="matrix(0.33396329,0,0,0.33396329,-50.984375,-140)"
         clip-rule="evenodd"
         id="path35" />
    </clipPath>
    <clipPath
       clipPathUnits="userSpaceOnUse"
       id="clipPath37">
      <path
         d="M 0,0 H 3245.8333 V 880.32745 H 0 Z"
         transform="matrix(0.33396663,0,0,0.33396663,-0.50000001,-0.50000001)"
         clip-rule="evenodd"
         id="path37" />
    </clipPath>
    <clipPath
       clipPathUnits="userSpaceOnUse"
       id="clipPath39">
      <path
         d="M 0,0 H 3245.8333 V 880.32745 H 0 Z"
         transform="matrix(0.33396663,0,0,0.33396663,-0.50000001,-0.50000001)"
         clip-rule="evenodd"
         id="path39" />
    </clipPath>
    <clipPath
       clipPathUnits="userSpaceOnUse"
       id="clipPath41">
      <path
         d="M 0,0 H 3245.8333 V 880.32745 H 0 Z"
         transform="matrix(0.33396663,0,0,0.33396663,-0.50000001,-0.50000001)"
         clip-rule="evenodd"
         id="path41" />
    </clipPath>
    <clipPath
       clipPathUnits="userSpaceOnUse"
       id="clipPath43">
      <path
         d="M 0,0 H 3245.8333 V 880.32745 H 0 Z"
         transform="matrix(0.33396663,0,0,0.33396663,-0.50000001,-0.50000001)"
         clip-rule="evenodd"
         id="path43" />
    </clipPath>
    <clipPath
       clipPathUnits="userSpaceOnUse"
       id="clipPath45">
      <path
         d="M 0,0 H 3245.8333 V 880.32745 H 0 Z"
         transform="matrix(0.33396663,0,0,0.33396663,-0.50000001,-0.50000001)"
         clip-rule="evenodd"
         id="path45" />
    </clipPath>
    <clipPath
       clipPathUnits="userSpaceOnUse"
       id="clipPath47">
      <path
         d="M 0,0 H 3245.8333 V 880.32745 H 0 Z"
         transform="matrix(0.33396663,0,0,0.33396663,-0.50000001,-0.50000001)"
         clip-rule="evenodd"
         id="path47" />
    </clipPath>
    <clipPath
       clipPathUnits="userSpaceOnUse"
       id="clipPath49">
      <path
         d="M 0,0 H 3245.8333 V 880.32745 H 0 Z"
         transform="matrix(0.33396663,0,0,0.33396663,-0.50000001,-0.50000001)"
         clip-rule="evenodd"
         id="path49" />
    </clipPath>
    <clipPath
       clipPathUnits="userSpaceOnUse"
       id="clipPath51">
      <path
         d="M 0,0 H 3245.8333 V 880.32745 H 0 Z"
         transform="matrix(0.33396663,0,0,0.33396663,-0.50000001,-0.50000001)"
         clip-rule="evenodd"
         id="path51" />
    </clipPath>
    <clipPath
       clipPathUnits="userSpaceOnUse"
       id="clipPath53">
      <path
         d="M 0,0 H 3245.8333 V 880.32745 H 0 Z"
         transform="matrix(0.33396663,0,0,0.33396663,-0.50000001,-0.50000001)"
         clip-rule="evenodd"
         id="path53" />
    </clipPath>
    <clipPath
       clipPathUnits="userSpaceOnUse"
       id="clipPath55">
      <path
         d="M 0,0 H 3245.8333 V 880.32745 H 0 Z"
         transform="matrix(0.33396663,0,0,0.33396663,-0.50000001,-0.50000001)"
         clip-rule="evenodd"
         id="path55" />
    </clipPath>
    <clipPath
       clipPathUnits="userSpaceOnUse"
       id="clipPath57">
      <path
         d="M 0,0 H 3245.8333 V 880.32745 H 0 Z"
         transform="matrix(0.33396663,0,0,0.33396663,-0.50000001,-0.50000001)"
         clip-rule="evenodd"
         id="path57" />
    </clipPath>
    <clipPath
       clipPathUnits="userSpaceOnUse"
       id="clipPath59">
      <path
         d="M 0,0 H 3245.8333 V 880.32745 H 0 Z"
         transform="matrix(0.33396663,0,0,0.33396663,-0.50000001,-0.50000001)"
         clip-rule="evenodd"
         id="path59" />
    </clipPath>
    <clipPath
       clipPathUnits="userSpaceOnUse"
       id="clipPath61">
      <path
         d="M 0,0 H 3245.8333 V 880.32745 H 0 Z"
         transform="matrix(0.33396663,0,0,0.33396663,-0.50000001,-0.50000001)"
         clip-rule="evenodd"
         id="path61" />
    </clipPath>
    <clipPath
       clipPathUnits="userSpaceOnUse"
       id="clipPath63">
      <path
         d="M 0,0 H 3245.8333 V 880.32745 H 0 Z"
         transform="matrix(0.33396663,0,0,0.33396663,-0.50000001,-0.50000001)"
         clip-rule="evenodd"
         id="path63" />
    </clipPath>
    <clipPath
       clipPathUnits="userSpaceOnUse"
       id="clipPath64">
      <path
         d="M 0,0 H 3245.8333 V 880.32745 H 0 Z"
         transform="matrix(0.33396329,0,0,0.33396329,-413,-32.000001)"
         clip-rule="evenodd"
         id="path64" />
    </clipPath>
    <clipPath
       clipPathUnits="userSpaceOnUse"
       id="clipPath65">
      <path
         d="M 0,0 H 3245.8333 V 880.32745 H 0 Z"
         transform="matrix(0.33396329,0,0,0.33396329,-483,-80)"
         clip-rule="evenodd"
         id="path65" />
    </clipPath>
    <clipPath
       clipPathUnits="userSpaceOnUse"
       id="clipPath67">
      <path
         d="M 0,0 H 3245.8333 V 880.32745 H 0 Z"
         transform="matrix(0.33396663,0,0,0.33396663,-0.50000001,-0.50000001)"
         clip-rule="evenodd"
         id="path67" />
    </clipPath>
    <clipPath
       clipPathUnits="userSpaceOnUse"
       id="clipPath68">
      <path
         d="M 0,0 H 3245.8333 V 880.32745 H 0 Z"
         transform="matrix(0.33396329,0,0,0.33396329,-400.98438,-140)"
         clip-rule="evenodd"
         id="path68" />
    </clipPath>
    <clipPath
       clipPathUnits="userSpaceOnUse"
       id="clipPath69">
      <path
         d="M 0,0 H 3245.8333 V 880.32745 H 0 Z"
         transform="matrix(0.33396329,0,0,0.33396329,-378.32813,-175)"
         clip-rule="evenodd"
         id="path69" />
    </clipPath>
    <clipPath
       clipPathUnits="userSpaceOnUse"
       id="clipPath71">
      <path
         d="M 0,0 H 3245.8333 V 880.32745 H 0 Z"
         transform="matrix(0.33396663,0,0,0.33396663,-0.50000001,-0.50000001)"
         clip-rule="evenodd"
         id="path71" />
    </clipPath>
    <clipPath
       clipPathUnits="userSpaceOnUse"
       id="clipPath73">
      <path
         d="M 0,0 H 3245.8333 V 880.32745 H 0 Z"
         transform="matrix(0.33396663,0,0,0.33396663,-0.50000001,-0.50000001)"
         clip-rule="evenodd"
         id="path73" />
    </clipPath>
    <clipPath
       clipPathUnits="userSpaceOnUse"
       id="clipPath75">
      <path
         d="M 0,0 H 3245.8333 V 880.32745 H 0 Z"
         transform="matrix(0.33396663,0,0,0.33396663,-0.50000001,-0.50000001)"
         clip-rule="evenodd"
         id="path75" />
    </clipPath>
    <clipPath
       clipPathUnits="userSpaceOnUse"
       id="clipPath77">
      <path
         d="M 0,0 H 3245.8333 V 880.32745 H 0 Z"
         transform="matrix(0.33396663,0,0,0.33396663,-0.50000001,-0.50000001)"
         clip-rule="evenodd"
         id="path77" />
    </clipPath>
    <clipPath
       clipPathUnits="userSpaceOnUse"
       id="clipPath79">
      <path
         d="M 0,0 H 3245.8333 V 880.32745 H 0 Z"
         transform="matrix(0.33396663,0,0,0.33396663,-0.50000001,-0.50000001)"
         clip-rule="evenodd"
         id="path79" />
    </clipPath>
    <clipPath
       clipPathUnits="userSpaceOnUse"
       id="clipPath81">
      <path
         d="M 0,0 H 3245.8333 V 880.32745 H 0 Z"
         transform="matrix(0.33396663,0,0,0.33396663,-0.50000001,-0.50000001)"
         clip-rule="evenodd"
         id="path81" />
    </clipPath>
    <clipPath
       clipPathUnits="userSpaceOnUse"
       id="clipPath83">
      <path
         d="M 0,0 H 3245.8333 V 880.32745 H 0 Z"
         transform="matrix(0.33396663,0,0,0.33396663,-0.50000001,-0.50000001)"
         clip-rule="evenodd"
         id="path83" />
    </clipPath>
    <clipPath
       clipPathUnits="userSpaceOnUse"
       id="clipPath85">
      <path
         d="M 0,0 H 3245.8333 V 880.32745 H 0 Z"
         transform="matrix(0.33396663,0,0,0.33396663,-0.50000001,-0.50000001)"
         clip-rule="evenodd"
         id="path85" />
    </clipPath>
    <clipPath
       clipPathUnits="userSpaceOnUse"
       id="clipPath87">
      <path
         d="M 0,0 H 3245.8333 V 880.32745 H 0 Z"
         transform="matrix(0.33396663,0,0,0.33396663,-0.50000001,-0.50000001)"
         clip-rule="evenodd"
         id="path87" />
    </clipPath>
    <clipPath
       clipPathUnits="userSpaceOnUse"
       id="clipPath89">
      <path
         d="M 0,0 H 3245.8333 V 880.32745 H 0 Z"
         transform="matrix(0.33396663,0,0,0.33396663,-0.50000001,-0.50000001)"
         clip-rule="evenodd"
         id="path89" />
    </clipPath>
    <clipPath
       clipPathUnits="userSpaceOnUse"
       id="clipPath91">
      <path
         d="M 0,0 H 3245.8333 V 880.32745 H 0 Z"
         transform="matrix(0.33396663,0,0,0.33396663,-0.50000001,-0.50000001)"
         clip-rule="evenodd"
         id="path91" />
    </clipPath>
    <clipPath
       clipPathUnits="userSpaceOnUse"
       id="clipPath93">
      <path
         d="M 0,0 H 3245.8333 V 880.32745 H 0 Z"
         transform="matrix(0.33396663,0,0,0.33396663,-0.50000001,-0.50000001)"
         clip-rule="evenodd"
         id="path93" />
    </clipPath>
    <clipPath
       clipPathUnits="userSpaceOnUse"
       id="clipPath95">
      <path
         d="M 0,0 H 3245.8333 V 880.32745 H 0 Z"
         transform="matrix(0.33396663,0,0,0.33396663,-0.50000001,-0.50000001)"
         clip-rule="evenodd"
         id="path95" />
    </clipPath>
    <clipPath
       clipPathUnits="userSpaceOnUse"
       id="clipPath97">
      <path
         d="M 0,0 H 3245.8333 V 880.32745 H 0 Z"
         transform="matrix(0.33396663,0,0,0.33396663,-0.50000001,-0.50000001)"
         clip-rule="evenodd"
         id="path97" />
    </clipPath>
    <clipPath
       clipPathUnits="userSpaceOnUse"
       id="clipPath98">
      <path
         d="M 0,0 H 3245.8333 V 880.32745 H 0 Z"
         transform="matrix(0.33396329,0,0,0.33396329,-763,-32.000001)"
         clip-rule="evenodd"
         id="path98" />
    </clipPath>
    <clipPath
       clipPathUnits="userSpaceOnUse"
       id="clipPath99">
      <path
         d="M 0,0 H 3245.8333 V 880.32745 H 0 Z"
         transform="matrix(0.33396329,0,0,0.33396329,-833,-80)"
         clip-rule="evenodd"
         id="path99" />
    </clipPath>
    <clipPath
       clipPathUnits="userSpaceOnUse"
       id="clipPath101">
      <path
         d="M 0,0 H 3245.8333 V 880.32745 H 0 Z"
         transform="matrix(0.33396663,0,0,0.33396663,-0.50000001,-0.50000001)"
         clip-rule="evenodd"
         id="path101" />
    </clipPath>
    <clipPath
       clipPathUnits="userSpaceOnUse"
       id="clipPath102">
      <path
         d="M 0,0 H 3245.8333 V 880.32745 H 0 Z"
         transform="matrix(0.33396329,0,0,0.33396329,-750.98439,-140)"
         clip-rule="evenodd"
         id="path102" />
    </clipPath>
    <clipPath
       clipPathUnits="userSpaceOnUse"
       id="clipPath103">
      <path
         d="M 0,0 H 3245.8333 V 880.32745 H 0 Z"
         transform="matrix(0.33396329,0,0,0.33396329,-733,-175)"
         clip-rule="evenodd"
         id="path103" />
    </clipPath>
    <clipPath
       clipPathUnits="userSpaceOnUse"
       id="clipPath104">
      <path
         d="M 0,0 H 3245.8333 V 880.32745 H 0 Z"
         transform="matrix(0.33396329,0,0,0.33396329,-733,-195)"
         clip-rule="evenodd"
         id="path104" />
    </clipPath>
    <clipPath
       clipPathUnits="userSpaceOnUse"
       id="clipPath105">
      <path
         d="M 0,0 H 3245.8333 V 880.32745 H 0 Z"
         transform="matrix(0.33396329,0,0,0.33396329,-733,-235)"
         clip-rule="evenodd"
         id="path105" />
    </clipPath>
    <clipPath
       clipPathUnits="userSpaceOnUse"
       id="clipPath106">
      <path
         d="M 0,0 H 3245.8333 V 880.32745 H 0 Z"
         transform="matrix(0.33396329,0,0,0.33396329,-733,-215)"
         clip-rule="evenodd"
         id="path106" />
    </clipPath>
    <clipPath
       clipPathUnits="userSpaceOnUse"
       id="clipPath107">
      <path
         d="M 0,0 H 3245.8333 V 880.32745 H 0 Z"
         transform="matrix(0.33396329,0,0,0.33396329,-733,-255)"
         clip-rule="evenodd"
         id="path107" />
    </clipPath>
  </defs>
  <sodipodi:namedview
     id="namedview1"
     pagecolor="#ffffff"
     bordercolor="#000000"
     borderopacity="0.25"
     inkscape:showpageshadow="2"
     inkscape:pageopacity="0.0"
     inkscape:pagecheckerboard="0"
     inkscape:deskcolor="#d1d1d1">
    <inkscape:page
       x="0"
       y="0"
       inkscape:label="1"
       id="page1"
       width="1038.72"
       height="282.56"
       margin="0"
       bleed="0" />
  </sodipodi:namedview>
  <g
     id="g1"
     inkscape:groupmode="layer"
     inkscape:label="1">
    <path
       id="path1"
       d="M 0,0 H 1084 V 295 H 0 Z"
       style="fill:#ffffff;fill-opacity:1;fill-rule:nonzero;stroke:none"
       transform="scale(0.95817951)"
       clip-path="url(#clipPath2)" />
    <path
       id="path3"
       d="M 1,1 H 341 V 291 H 1 Z"
       style="fill:#ffffff;fill-opacity:1;fill-rule:nonzero;stroke:#666666;stroke-width:1;stroke-linecap:butt;stroke-linejoin:miter;stroke-miterlimit:10;stroke-dasharray:none;stroke-opacity:1"
       transform="matrix(0.95817951,0,0,0.95817951,0.47908976,0.47908976)"
       clip-path="url(#clipPath4)" />
    <path
       id="path5"
       d="m 286.00012,16 c -3e-5,0.656614 -0.0641,1.306923 -0.1922,1.950922 -0.12808,0.643999 -0.31778,1.269314 -0.56906,1.875948 -0.25128,0.606634 -0.55933,1.182928 -0.9241,1.728886 -0.36478,0.545957 -0.77933,1.051084 -1.24362,1.51538 -0.46433,0.464297 -0.96946,0.878844 -1.51545,1.243639 -0.54595,0.364796 -1.12225,0.672833 -1.72888,0.924109 -0.6066,0.251276 -1.2319,0.440964 -1.87588,0.569063 -0.64398,0.1281 -1.29428,0.19215 -1.95093,0.192152 -0.65665,-2e-6 -1.30695,-0.06405 -1.95096,-0.192152 -0.64401,-0.128099 -1.26932,-0.317787 -1.87594,-0.569063 -0.60663,-0.251276 -1.18293,-0.559313 -1.72892,-0.924109 -0.54593,-0.364795 -1.05102,-0.779342 -1.51535,-1.243639 -0.46429,-0.464296 -0.87884,-0.969423 -1.24365,-1.515378 -0.36481,-0.545958 -0.67285,-1.122254 -0.92413,-1.728888 -0.25128,-0.606634 -0.44095,-1.231949 -0.56903,-1.875948 -0.12809,-0.643999 -0.19214,-1.294308 -0.19211,-1.950922 -3e-5,-0.656616 0.064,-1.306924 0.19214,-1.950923 0.12805,-0.644 0.31772,-1.269317 0.569,-1.875951 0.25128,-0.606633 0.55932,-1.182928 0.92413,-1.728885 0.36481,-0.5459561 0.77936,-1.051083 1.24365,-1.5153803 0.46433,-0.4642973 0.96942,-0.8788443 1.51535,-1.2436409 0.54599,-0.3647962 1.12229,-0.6728325 1.72892,-0.9241085 0.60662,-0.2512756 1.23193,-0.4409633 1.87594,-0.5690623 0.64401,-0.1280994 1.29431,-0.1921491 1.95096,-0.1921491 0.65665,0 1.30695,0.06405 1.95093,0.1921491 0.64398,0.128099 1.26928,0.3177867 1.87588,0.5690623 0.60663,0.251276 1.18293,0.5593123 1.72888,0.9241085 0.54599,0.3647966 1.05112,0.7793436 1.51545,1.2436409 0.46429,0.4642973 0.87884,0.9694242 1.24362,1.5153803 0.36477,0.545957 0.67282,1.122252 0.9241,1.728885 0.25128,0.606634 0.44098,1.231951 0.56906,1.875951 0.12812,0.643999 0.19217,1.294307 0.1922,1.950923 z"
       style="fill:none;stroke:#666666;stroke-width:1;stroke-linecap:butt;stroke-linejoin:miter;stroke-miterlimit:10;stroke-dasharray:none;stroke-opacity:1"
       transform="matrix(0.95817951,0,0,0.95817951,0.47908976,0.47908976)"
       clip-path="url(#clipPath6)" />
    <path
       id="path7"
       d="m 311.00012,16 c -3e-5,0.656614 -0.0641,1.306923 -0.1922,1.950922 -0.12808,0.643999 -0.31778,1.269314 -0.56906,1.875948 -0.25125,0.606634 -0.55929,1.182928 -0.9241,1.728886 -0.36478,0.545957 -0.77933,1.051084 -1.24362,1.51538 -0.4643,0.464297 -0.96942,0.878844 -1.51541,1.243639 -0.54596,0.364796 -1.12226,0.672833 -1.72889,0.924109 -0.60663,0.251276 -1.23193,0.440964 -1.87594,0.569063 -0.64402,0.1281 -1.29431,0.19215 -1.9509,0.192152 -0.65662,-2e-6 -1.30692,-0.06405 -1.95093,-0.192152 -0.64401,-0.128099 -1.26932,-0.317787 -1.87597,-0.569063 -0.60663,-0.251276 -1.18293,-0.559313 -1.72889,-0.924109 -0.54596,-0.364795 -1.05108,-0.779342 -1.51538,-1.243639 -0.46429,-0.464296 -0.87884,-0.969423 -1.24365,-1.515378 -0.36478,-0.545958 -0.67282,-1.122254 -0.9241,-1.728888 -0.25125,-0.606634 -0.44095,-1.231949 -0.56906,-1.875948 -0.12809,-0.643999 -0.19211,-1.294308 -0.19211,-1.950922 0,-0.656616 0.0641,-1.306924 0.19214,-1.950923 0.12808,-0.644 0.31778,-1.269317 0.56903,-1.875951 0.25128,-0.606633 0.55932,-1.182928 0.9241,-1.728885 0.36481,-0.5459561 0.77936,-1.051083 1.24365,-1.5153803 0.4643,-0.4642973 0.96942,-0.8788443 1.51538,-1.2436409 0.54596,-0.3647962 1.12226,-0.6728325 1.72889,-0.9241085 0.60665,-0.2512756 1.23196,-0.4409633 1.87597,-0.5690623 0.64401,-0.1280994 1.29431,-0.1921491 1.95093,-0.1921491 0.65659,0 1.30688,0.06405 1.9509,0.1921491 0.64401,0.128099 1.26931,0.3177867 1.87594,0.5690623 0.60663,0.251276 1.18293,0.5593123 1.72889,0.9241085 0.54599,0.3647966 1.05111,0.7793436 1.51541,1.2436409 0.46429,0.4642973 0.87884,0.9694242 1.24362,1.5153803 0.36481,0.545957 0.67285,1.122252 0.9241,1.728885 0.25128,0.606634 0.44098,1.231951 0.56906,1.875951 0.12812,0.643999 0.19217,1.294307 0.1922,1.950923 z"
       style="fill:none;stroke:#666666;stroke-width:1;stroke-linecap:butt;stroke-linejoin:miter;stroke-miterlimit:10;stroke-dasharray:none;stroke-opacity:1"
       transform="matrix(0.95817951,0,0,0.95817951,0.47908976,0.47908976)"
       clip-path="url(#clipPath8)" />
    <path
       id="path9"
       d="m 336.00012,16 c -3e-5,0.656614 -0.0641,1.306923 -0.1922,1.950922 -0.12811,0.643999 -0.31781,1.269314 -0.56906,1.875948 -0.25128,0.606634 -0.55933,1.182928 -0.9241,1.728886 -0.36481,0.545957 -0.77936,1.051084 -1.24362,1.51538 -0.4643,0.464297 -0.96942,0.878844 -1.51541,1.243639 -0.54596,0.364796 -1.12226,0.672833 -1.72889,0.924109 -0.60666,0.251276 -1.23196,0.440964 -1.87594,0.569063 -0.64402,0.1281 -1.29431,0.19215 -1.9509,0.192152 -0.65665,-2e-6 -1.30695,-0.06405 -1.95096,-0.192152 -0.64401,-0.128099 -1.26932,-0.317787 -1.87594,-0.569063 -0.60666,-0.251276 -1.18296,-0.559313 -1.72889,-0.924109 -0.54599,-0.364795 -1.05111,-0.779342 -1.51538,-1.243639 -0.46432,-0.464296 -0.87887,-0.969423 -1.24365,-1.515378 -0.36481,-0.545958 -0.67285,-1.122254 -0.9241,-1.728888 -0.25128,-0.606634 -0.44098,-1.231949 -0.56906,-1.875948 -0.12809,-0.643999 -0.19211,-1.294308 -0.19211,-1.950922 0,-0.656616 0.064,-1.306924 0.19211,-1.950923 0.12808,-0.644 0.31778,-1.269317 0.56906,-1.875951 0.25125,-0.606633 0.55929,-1.182928 0.9241,-1.728885 0.36478,-0.5459561 0.77933,-1.051083 1.24365,-1.5153803 0.46427,-0.4642973 0.96939,-0.8788443 1.51538,-1.2436409 0.54593,-0.3647962 1.12223,-0.6728325 1.72889,-0.9241085 0.60662,-0.2512756 1.23193,-0.4409633 1.87594,-0.5690623 0.64401,-0.1280994 1.29431,-0.1921491 1.95096,-0.1921491 0.65659,0 1.30688,0.06405 1.9509,0.1921491 0.64398,0.128099 1.26928,0.3177867 1.87594,0.5690623 0.60663,0.251276 1.18293,0.5593123 1.72889,0.9241085 0.54599,0.3647966 1.05111,0.7793436 1.51541,1.2436409 0.46426,0.4642973 0.87881,0.9694242 1.24362,1.5153803 0.36477,0.545957 0.67282,1.122252 0.9241,1.728885 0.25125,0.606634 0.44095,1.231951 0.56906,1.875951 0.12812,0.643999 0.19217,1.294307 0.1922,1.950923 z"
       style="fill:none;stroke:#008cff;stroke-width:1;stroke-linecap:butt;stroke-linejoin:miter;stroke-miterlimit:10;stroke-dasharray:none;stroke-opacity:1"
       transform="matrix(0.95817951,0,0,0.95817951,0.47908976,0.47908976)"
       clip-path="url(#clipPath10)" />
    <path
       id="path11"
       d="M 1,41 H 31 V 16 c 0,-2.76 2.240002,-5 5,-5 h 135 c 2.75999,0 5,2.24 5,5 v 25 h 165"
       style="fill:none;stroke:#c4c4c4;stroke-width:1;stroke-linecap:butt;stroke-linejoin:miter;stroke-miterlimit:10;stroke-dasharray:none;stroke-opacity:1"
       transform="matrix(0.95817951,0,0,0.95817951,0.47908976,0.47908976)"
       clip-path="url(#clipPath12)" />
    <path
       id="path13"
       d="M 1,111 H 341"
       style="fill:none;stroke:#c4c4c4;stroke-width:1;stroke-linecap:butt;stroke-linejoin:miter;stroke-miterlimit:10;stroke-dasharray:none;stroke-opacity:1"
       transform="matrix(0.95817951,0,0,0.95817951,0.47908976,0.47908976)"
       clip-path="url(#clipPath14)" />
    <path
       id="path15"
       d="m 101,61 c 0,-2.759998 2.24,-5 5,-5 h 220 c 2.76001,0 5,2.240002 5,5 v 25 c 0,2.760002 -2.23999,5 -5,5 H 106 c -2.76,0 -5,-2.239998 -5,-5 z"
       style="fill:none;stroke:#c4c4c4;stroke-width:1;stroke-linecap:butt;stroke-linejoin:miter;stroke-miterlimit:10;stroke-dasharray:none;stroke-opacity:1"
       transform="matrix(0.95817951,0,0,0.95817951,0.47908976,0.47908976)"
       clip-path="url(#clipPath16)" />
    <path
       id="path17"
       d="m 38,18 h 11 l 4,4 V 36 H 38 Z"
       style="fill:none;stroke:#c4c4c4;stroke-width:1;stroke-linecap:butt;stroke-linejoin:miter;stroke-miterlimit:10;stroke-dasharray:none;stroke-opacity:1"
       transform="matrix(0.95817951,0,0,0.95817951,0.47908976,0.47908976)"
       clip-path="url(#clipPath18)" />
    <path
       id="path19"
       d="m 49,18 v 4 l 4,1"
       style="fill:none;stroke:#c4c4c4;stroke-width:1;stroke-linecap:butt;stroke-linejoin:miter;stroke-miterlimit:10;stroke-dasharray:none;stroke-opacity:1"
       transform="matrix(0.95817951,0,0,0.95817951,0.47908976,0.47908976)"
       clip-path="url(#clipPath20)" />
    <path
       id="path21"
       d="m 108,65 h 11 l 4,4 v 14 h -15 z"
       style="fill:none;stroke:#c4c4c4;stroke-width:1;stroke-linecap:butt;stroke-linejoin:miter;stroke-miterlimit:10;stroke-dasharray:none;stroke-opacity:1"
       transform="matrix(0.95817951,0,0,0.95817951,0.47908976,0.47908976)"
       clip-path="url(#clipPath22)" />
    <path
       id="path23"
       d="m 119,65 v 4 l 4,1"
       style="fill:none;stroke:#c4c4c4;stroke-width:1;stroke-linecap:butt;stroke-linejoin:miter;stroke-miterlimit:10;stroke-dasharray:none;stroke-opacity:1"
       transform="matrix(0.95817951,0,0,0.95817951,0.47908976,0.47908976)"
       clip-path="url(#clipPath24)" />
    <path
       id="path25"
       d="M 13,75 23,65 v 6 h 10 v 8 H 23 v 6 z"
       style="fill:#c4c4c4;fill-opacity:1;fill-rule:nonzero;stroke:#c4c4c4;stroke-width:1;stroke-linecap:butt;stroke-linejoin:miter;stroke-miterlimit:10;stroke-dasharray:none;stroke-opacity:1"
       transform="matrix(0.95817951,0,0,0.95817951,0.47908976,0.47908976)"
       clip-path="url(#clipPath26)" />
    <path
       id="path27"
       d="M 63,75 53,65 v 6 H 43 v 8 h 10 v 6 z"
       style="fill:#c4c4c4;fill-opacity:1;fill-rule:nonzero;stroke:#c4c4c4;stroke-width:1;stroke-linecap:butt;stroke-linejoin:miter;stroke-miterlimit:10;stroke-dasharray:none;stroke-opacity:1"
       transform="matrix(0.95817951,0,0,0.95817951,0.47908976,0.47908976)"
       clip-path="url(#clipPath28)" />
    <path
       id="path29"
       d="m 88.599998,78.300003 c -1.699996,2.839996 -5.379997,3.759995 -8.220001,2.059998 C 77.540001,78.669998 76.610001,75 78.300003,72.150002 79.980003,69.309998 83.650002,68.360001 86.5,70.040001 L 84.900002,71.5 92.800003,73.300003 91,65.800003 89.300003,67.400002 c -3.190002,-2.370003 -7.5,-2.580002 -10.900001,-0.529999 -3.410004,2.049995 -5.239998,5.959999 -4.630005,9.889999 0.61,3.93 3.530006,7.099999 7.390007,8.029999 C 85.029999,85.720001 89.07,84.230003 91.400002,81 Z"
       style="fill:#c4c4c4;fill-opacity:1;fill-rule:nonzero;stroke:#c4c4c4;stroke-width:1;stroke-linecap:butt;stroke-linejoin:miter;stroke-miterlimit:10;stroke-dasharray:none;stroke-opacity:1"
       transform="matrix(0.95817951,0,0,0.95817951,0.47908976,0.47908976)"
       clip-path="url(#clipPath30)" />
    <text
       id="text30"
       xml:space="preserve"
       transform="matrix(0.95818911,0,0,0.95818911,60.365914,30.662052)"
       clip-path="url(#clipPath31)"><tspan
         style="font-variant:normal;font-weight:normal;font-size:17px;font-family:Helvetica;writing-mode:lr-tb;fill:#666666;fill-opacity:1;fill-rule:nonzero;stroke:none"
         x="0 11.338867 20.793457 30.248047 39.702637 44.425781"
         y="0"
         sodipodi:role="line"
         id="tspan30">Page 1</tspan></text>
    <text
       id="text31"
       xml:space="preserve"
       transform="matrix(0.95818911,0,0,0.95818911,127.43915,76.655129)"
       clip-path="url(#clipPath32)"><tspan
         style="font-variant:normal;font-weight:normal;font-size:17px;font-family:Helvetica;writing-mode:lr-tb;fill:#666666;fill-opacity:1;fill-rule:nonzero;stroke:none"
         x="0 9.4545898 14.177734 18.900879 28.355469 36.855469 41.578613 46.301758 51.024902 63.301758 75.578613 86.925781 91.648926 101.10352 106.76465 116.21924 127.56641 132.28955 136.06641"
         y="0"
         sodipodi:role="line"
         id="tspan31">https://www.draw.io</tspan></text>
    <path
       id="path33"
       d="m 21,121 h 90 v 30 H 21 Z"
       style="fill:#ffffff;fill-opacity:1;fill-rule:nonzero;stroke:#000000;stroke-width:1;stroke-linecap:butt;stroke-linejoin:miter;stroke-miterlimit:10;stroke-dasharray:none;stroke-opacity:1"
       transform="matrix(0.95817951,0,0,0.95817951,0.47908976,0.47908976)"
       clip-path="url(#clipPath34)" />
    <text
       id="text34"
       xml:space="preserve"
       transform="matrix(0.95818911,0,0,0.95818911,48.852673,134.14648)"
       clip-path="url(#clipPath35)"><tspan
         style="font-variant:normal;font-weight:normal;font-size:12px;font-family:Helvetica;writing-mode:lr-tb;fill:#000000;fill-opacity:1;fill-rule:nonzero;stroke:none"
         x="0 7.3300781 14.003906 17.337891 23.337891"
         y="0"
         sodipodi:role="line"
         id="tspan34">Fetch</tspan></text>
    <path
       id="path36"
       d="M 351,1 H 691.01001 V 291 H 351 Z"
       style="fill:#ffffff;fill-opacity:1;fill-rule:nonzero;stroke:#666666;stroke-width:1;stroke-linecap:butt;stroke-linejoin:miter;stroke-miterlimit:10;stroke-dasharray:none;stroke-opacity:1"
       transform="matrix(0.95817951,0,0,0.95817951,0.47908976,0.47908976)"
       clip-path="url(#clipPath37)" />
    <path
       id="path38"
       d="m 636.01007,16 c -6e-5,0.656614 -0.0641,1.306923 -0.1922,1.950922 -0.12811,0.643999 -0.31781,1.269314 -0.56909,1.875948 -0.25128,0.606634 -0.55933,1.182928 -0.92413,1.728886 -0.36475,0.545957 -0.7793,1.051084 -1.2436,1.51538 -0.46429,0.464297 -0.96942,0.878844 -1.51538,1.243639 -0.54596,0.364796 -1.12225,0.672833 -1.72888,0.924109 -0.60663,0.251276 -1.23193,0.440964 -1.87591,0.569063 -0.64399,0.1281 -1.29432,0.19215 -1.95087,0.192152 -0.65668,-2e-6 -1.30701,-0.06405 -1.95099,-0.192152 -0.64404,-0.128099 -1.26935,-0.317787 -1.87598,-0.569063 -0.60662,-0.251276 -1.18286,-0.559313 -1.72882,-0.924109 -0.54596,-0.364795 -1.05108,-0.779342 -1.51538,-1.243639 -0.46429,-0.464296 -0.8789,-0.969423 -1.24371,-1.515378 -0.36481,-0.545958 -0.67279,-1.122254 -0.92407,-1.728888 -0.25128,-0.606634 -0.44092,-1.231949 -0.56903,-1.875948 -0.12812,-0.643999 -0.19214,-1.294308 -0.19214,-1.950922 0,-0.656616 0.064,-1.306924 0.19208,-1.950923 0.12811,-0.644 0.31781,-1.269317 0.56909,-1.875951 0.25128,-0.606633 0.55926,-1.182928 0.92407,-1.728885 0.36481,-0.5459561 0.77942,-1.051083 1.24371,-1.5153803 0.4643,-0.4642973 0.96936,-0.8788443 1.51532,-1.2436409 0.54596,-0.3647962 1.12226,-0.6728325 1.72888,-0.9241085 0.60663,-0.2512756 1.23194,-0.4409633 1.87598,-0.5690623 0.64398,-0.1280994 1.29431,-0.1921491 1.95099,-0.1921491 0.65655,0 1.30688,0.06405 1.95087,0.1921491 0.64398,0.128099 1.26928,0.3177867 1.87591,0.5690623 0.60663,0.251276 1.18292,0.5593123 1.72888,0.9241085 0.54596,0.3647966 1.05109,0.7793436 1.51538,1.2436409 0.4643,0.4642973 0.87885,0.9694242 1.2436,1.5153803 0.3648,0.545957 0.67285,1.122252 0.92413,1.728885 0.25128,0.606634 0.44098,1.231951 0.56909,1.875951 0.12811,0.643999 0.19214,1.294307 0.1922,1.950923 z"
       style="fill:none;stroke:#666666;stroke-width:1;stroke-linecap:butt;stroke-linejoin:miter;stroke-miterlimit:10;stroke-dasharray:none;stroke-opacity:1"
       transform="matrix(0.95817951,0,0,0.95817951,0.47908976,0.47908976)"
       clip-path="url(#clipPath39)" />
    <path
       id="path40"
       d="m 661.01007,16 c 0,0.656614 -0.0641,1.306923 -0.1922,1.950922 -0.12811,0.643999 -0.31781,1.269314 -0.56909,1.875948 -0.25128,0.606634 -0.55927,1.182928 -0.92407,1.728886 -0.36475,0.545957 -0.7793,1.051084 -1.24359,1.51538 -0.4643,0.464297 -0.96949,0.878844 -1.51545,1.243639 -0.54596,0.364796 -1.12231,0.672833 -1.72894,0.924109 -0.60663,0.251276 -1.23193,0.440964 -1.87591,0.569063 -0.64399,0.1281 -1.29426,0.19215 -1.95081,0.192152 -0.65668,-2e-6 -1.30701,-0.06405 -1.95099,-0.192152 -0.64398,-0.128099 -1.26935,-0.317787 -1.87598,-0.569063 -0.60662,-0.251276 -1.18292,-0.559313 -1.72888,-0.924109 -0.54596,-0.364795 -1.05102,-0.779342 -1.51532,-1.243639 -0.46429,-0.464296 -0.87884,-0.969423 -1.24365,-1.515378 -0.36481,-0.545958 -0.67291,-1.122254 -0.92419,-1.728888 -0.25129,-0.606634 -0.44092,-1.231949 -0.56903,-1.875948 -0.12812,-0.643999 -0.19214,-1.294308 -0.19208,-1.950922 -6e-5,-0.656616 0.064,-1.306924 0.19208,-1.950923 0.12811,-0.644 0.31774,-1.269317 0.56903,-1.875951 0.25128,-0.606633 0.55926,-1.182928 0.92407,-1.728885 0.36487,-0.5459561 0.77942,-1.051083 1.24371,-1.5153803 0.4643,-0.4642973 0.96942,-0.8788443 1.51538,-1.2436409 0.54596,-0.3647962 1.12226,-0.6728325 1.72888,-0.9241085 0.60663,-0.2512756 1.232,-0.4409633 1.87598,-0.5690623 0.64398,-0.1280994 1.29431,-0.1921491 1.95099,-0.1921491 0.65655,0 1.30682,0.06405 1.95081,0.1921491 0.64398,0.128099 1.26928,0.3177867 1.87591,0.5690623 0.60663,0.251276 1.18292,0.5593123 1.72888,0.9241085 0.54596,0.3647966 1.05115,0.7793436 1.51544,1.2436409 0.4643,0.4642973 0.87885,0.9694242 1.24366,1.5153803 0.36474,0.545957 0.67279,1.122252 0.92407,1.728885 0.25128,0.606634 0.44098,1.231951 0.56909,1.875951 0.12811,0.643999 0.1922,1.294307 0.1922,1.950923 z"
       style="fill:none;stroke:#666666;stroke-width:1;stroke-linecap:butt;stroke-linejoin:miter;stroke-miterlimit:10;stroke-dasharray:none;stroke-opacity:1"
       transform="matrix(0.95817951,0,0,0.95817951,0.47908976,0.47908976)"
       clip-path="url(#clipPath41)" />
    <path
       id="path42"
       d="m 686.01007,16 c 0,0.656614 -0.0641,1.306923 -0.1922,1.950922 -0.12811,0.643999 -0.31781,1.269314 -0.56909,1.875948 -0.25128,0.606634 -0.55933,1.182928 -0.92413,1.728886 -0.36481,0.545957 -0.7793,1.051084 -1.2436,1.51538 -0.46429,0.464297 -0.96942,0.878844 -1.51538,1.243639 -0.54596,0.364796 -1.12225,0.672833 -1.72888,0.924109 -0.60663,0.251276 -1.23187,0.440964 -1.87585,0.569063 -0.64398,0.1281 -1.29431,0.19215 -1.95093,0.192152 -0.65668,-2e-6 -1.30707,-0.06405 -1.95105,-0.192152 -0.64398,-0.128099 -1.26935,-0.317787 -1.87598,-0.569063 -0.60663,-0.251276 -1.18292,-0.559313 -1.72888,-0.924109 -0.54596,-0.364795 -1.05102,-0.779342 -1.51532,-1.243639 -0.46429,-0.464296 -0.87884,-0.969423 -1.24365,-1.515378 -0.36481,-0.545958 -0.67285,-1.122254 -0.92419,-1.728888 -0.25123,-0.606634 -0.44086,-1.231949 -0.56897,-1.875948 -0.12812,-0.643999 -0.19214,-1.294308 -0.19208,-1.950922 -6e-5,-0.656616 0.064,-1.306924 0.19208,-1.950923 0.12811,-0.644 0.31774,-1.269317 0.56903,-1.875951 0.25128,-0.606633 0.55938,-1.182928 0.92419,-1.728885 0.36481,-0.5459561 0.77936,-1.051083 1.24365,-1.5153803 0.46424,-0.4642973 0.9693,-0.8788443 1.51526,-1.2436409 0.54596,-0.3647962 1.12225,-0.6728325 1.72888,-0.9241085 0.60663,-0.2512756 1.232,-0.4409633 1.87598,-0.5690623 0.64398,-0.1280994 1.29437,-0.1921491 1.95105,-0.1921491 0.65662,0 1.30695,0.06405 1.95093,0.1921491 0.64398,0.128099 1.26922,0.3177867 1.87585,0.5690623 0.60663,0.251276 1.18292,0.5593123 1.72888,0.9241085 0.54596,0.3647966 1.05109,0.7793436 1.51538,1.2436409 0.4643,0.4642973 0.87879,0.9694242 1.2436,1.5153803 0.3648,0.545957 0.67285,1.122252 0.92413,1.728885 0.25128,0.606634 0.44098,1.231951 0.56909,1.875951 0.12811,0.643999 0.1922,1.294307 0.1922,1.950923 z"
       style="fill:none;stroke:#008cff;stroke-width:1;stroke-linecap:butt;stroke-linejoin:miter;stroke-miterlimit:10;stroke-dasharray:none;stroke-opacity:1"
       transform="matrix(0.95817951,0,0,0.95817951,0.47908976,0.47908976)"
       clip-path="url(#clipPath43)" />
    <path
       id="path44"
       d="m 351,41 h 30 V 16 c 0,-2.76 2.23999,-5 5,-5 h 135.01001 c 2.76001,0 5,2.24 5,5 v 25 h 165"
       style="fill:none;stroke:#c4c4c4;stroke-width:1;stroke-linecap:butt;stroke-linejoin:miter;stroke-miterlimit:10;stroke-dasharray:none;stroke-opacity:1"
       transform="matrix(0.95817951,0,0,0.95817951,0.47908976,0.47908976)"
       clip-path="url(#clipPath45)" />
    <path
       id="path46"
       d="M 351,111 H 691.01001"
       style="fill:none;stroke:#c4c4c4;stroke-width:1;stroke-linecap:butt;stroke-linejoin:miter;stroke-miterlimit:10;stroke-dasharray:none;stroke-opacity:1"
       transform="matrix(0.95817951,0,0,0.95817951,0.47908976,0.47908976)"
       clip-path="url(#clipPath47)" />
    <path
       id="path48"
       d="m 451,61 c 0,-2.759998 2.23999,-5 5,-5 h 220.01001 c 2.76001,0 5,2.240002 5,5 v 25 c 0,2.760002 -2.23999,5 -5,5 H 456 c -2.76001,0 -5,-2.239998 -5,-5 z"
       style="fill:none;stroke:#c4c4c4;stroke-width:1;stroke-linecap:butt;stroke-linejoin:miter;stroke-miterlimit:10;stroke-dasharray:none;stroke-opacity:1"
       transform="matrix(0.95817951,0,0,0.95817951,0.47908976,0.47908976)"
       clip-path="url(#clipPath49)" />
    <path
       id="path50"
       d="m 388,18 h 11 l 4,4 v 14 h -15 z"
       style="fill:none;stroke:#c4c4c4;stroke-width:1;stroke-linecap:butt;stroke-linejoin:miter;stroke-miterlimit:10;stroke-dasharray:none;stroke-opacity:1"
       transform="matrix(0.95817951,0,0,0.95817951,0.47908976,0.47908976)"
       clip-path="url(#clipPath51)" />
    <path
       id="path52"
       d="m 399,18 v 4 l 4,1"
       style="fill:none;stroke:#c4c4c4;stroke-width:1;stroke-linecap:butt;stroke-linejoin:miter;stroke-miterlimit:10;stroke-dasharray:none;stroke-opacity:1"
       transform="matrix(0.95817951,0,0,0.95817951,0.47908976,0.47908976)"
       clip-path="url(#clipPath53)" />
    <path
       id="path54"
       d="m 458,65 h 11 l 4,4 v 14 h -15 z"
       style="fill:none;stroke:#c4c4c4;stroke-width:1;stroke-linecap:butt;stroke-linejoin:miter;stroke-miterlimit:10;stroke-dasharray:none;stroke-opacity:1"
       transform="matrix(0.95817951,0,0,0.95817951,0.47908976,0.47908976)"
       clip-path="url(#clipPath55)" />
    <path
       id="path56"
       d="m 469,65 v 4 l 4,1"
       style="fill:none;stroke:#c4c4c4;stroke-width:1;stroke-linecap:butt;stroke-linejoin:miter;stroke-miterlimit:10;stroke-dasharray:none;stroke-opacity:1"
       transform="matrix(0.95817951,0,0,0.95817951,0.47908976,0.47908976)"
       clip-path="url(#clipPath57)" />
    <path
       id="path58"
       d="m 363,75 10,-10 v 6 h 10 v 8 h -10 v 6 z"
       style="fill:#c4c4c4;fill-opacity:1;fill-rule:nonzero;stroke:#c4c4c4;stroke-width:1;stroke-linecap:butt;stroke-linejoin:miter;stroke-miterlimit:10;stroke-dasharray:none;stroke-opacity:1"
       transform="matrix(0.95817951,0,0,0.95817951,0.47908976,0.47908976)"
       clip-path="url(#clipPath59)" />
    <path
       id="path60"
       d="M 413,75 403,65 v 6 h -10 v 8 h 10 v 6 z"
       style="fill:#c4c4c4;fill-opacity:1;fill-rule:nonzero;stroke:#c4c4c4;stroke-width:1;stroke-linecap:butt;stroke-linejoin:miter;stroke-miterlimit:10;stroke-dasharray:none;stroke-opacity:1"
       transform="matrix(0.95817951,0,0,0.95817951,0.47908976,0.47908976)"
       clip-path="url(#clipPath61)" />
    <path
       id="path62"
       d="m 438.60001,78.300003 c -1.70002,2.839996 -5.37,3.759995 -8.21,2.059998 -2.84002,-1.690003 -3.78002,-5.360001 -2.09002,-8.209999 1.68002,-2.840004 5.35,-3.790001 8.20001,-2.110001 L 434.89999,71.5 l 7.9,1.800003 -1.79999,-7.5 -1.70001,1.599999 c -3.19,-2.370003 -7.5,-2.580002 -10.9,-0.529999 -3.41,2.049995 -5.22998,5.959999 -4.63,9.889999 0.61001,3.93 3.53,7.099999 7.40002,8.029999 3.85999,0.93 7.90998,-0.559998 10.22998,-3.790001 z"
       style="fill:#c4c4c4;fill-opacity:1;fill-rule:nonzero;stroke:#c4c4c4;stroke-width:1;stroke-linecap:butt;stroke-linejoin:miter;stroke-miterlimit:10;stroke-dasharray:none;stroke-opacity:1"
       transform="matrix(0.95817951,0,0,0.95817951,0.47908976,0.47908976)"
       clip-path="url(#clipPath63)" />
    <text
       id="text63"
       xml:space="preserve"
       transform="matrix(0.95818911,0,0,0.95818911,395.7321,30.662052)"
       clip-path="url(#clipPath64)"><tspan
         style="font-variant:normal;font-weight:normal;font-size:17px;font-family:Helvetica;writing-mode:lr-tb;fill:#666666;fill-opacity:1;fill-rule:nonzero;stroke:none"
         x="0 11.338867 20.793457 30.248047 39.702637 44.425781"
         y="0"
         sodipodi:role="line"
         id="tspan63">Page 1</tspan></text>
    <text
       id="text64"
       xml:space="preserve"
       transform="matrix(0.95818911,0,0,0.95818911,462.80534,76.655129)"
       clip-path="url(#clipPath65)"><tspan
         style="font-variant:normal;font-weight:normal;font-size:17px;font-family:Helvetica;writing-mode:lr-tb;fill:#666666;fill-opacity:1;fill-rule:nonzero;stroke:none"
         x="0 9.4545898 14.177734 18.900879 28.355469 36.855469 41.578613 46.301758 51.024902 63.301758 75.578613 86.925781 91.648926 101.10352 106.76465 116.21924 127.56641 132.28955 136.06641"
         y="0"
         sodipodi:role="line"
         id="tspan64">https://www.draw.io</tspan></text>
    <path
       id="path66"
       d="m 371,121 h 90 v 30 h -90 z"
       style="fill:#ffffff;fill-opacity:1;fill-rule:nonzero;stroke:#000000;stroke-width:1;stroke-linecap:butt;stroke-linejoin:miter;stroke-miterlimit:10;stroke-dasharray:none;stroke-opacity:1"
       transform="matrix(0.95817951,0,0,0.95817951,0.47908976,0.47908976)"
       clip-path="url(#clipPath67)" />
    <text
       id="text67"
       xml:space="preserve"
       transform="matrix(0.95818911,0,0,0.95818911,384.21887,134.14648)"
       clip-path="url(#clipPath68)"><tspan
         style="font-variant:normal;font-weight:normal;font-size:12px;font-family:Helvetica;writing-mode:lr-tb;fill:#000000;fill-opacity:1;fill-rule:nonzero;stroke:none"
         x="0 7.3300781 14.003906 17.337891 23.337891"
         y="0"
         sodipodi:role="line"
         id="tspan67">Fetch</tspan></text>
    <text
       id="text68"
       xml:space="preserve"
       transform="matrix(0.95818911,0,0,0.95818911,362.50989,167.68309)"
       clip-path="url(#clipPath69)"><tspan
         style="font-variant:normal;font-weight:700;font-size:12px;font-family:Helvetica;writing-mode:lr-tb;fill:#000000;fill-opacity:1;fill-rule:nonzero;stroke:none"
         x="0 7.3300781 16.664062 25.330078 33.996094 37.330078 45.996094"
         y="0"
         sodipodi:role="line"
         id="tspan68">LOADING</tspan></text>
    <path
       id="path70"
       d="M 701.01001,1 H 1041.01 V 291 H 701.01001 Z"
       style="fill:#ffffff;fill-opacity:1;fill-rule:nonzero;stroke:#666666;stroke-width:1;stroke-linecap:butt;stroke-linejoin:miter;stroke-miterlimit:10;stroke-dasharray:none;stroke-opacity:1"
       transform="matrix(0.95817951,0,0,0.95817951,0.47908976,0.47908976)"
       clip-path="url(#clipPath71)" />
    <path
       id="path72"
       d="m 986.01007,16 c 0,0.656614 -0.0641,1.306923 -0.1922,1.950922 -0.12811,0.643999 -0.31787,1.269314 -0.56915,1.875948 -0.25128,0.606634 -0.55933,1.182928 -0.92414,1.728886 -0.3648,0.545957 -0.77929,1.051084 -1.24353,1.51538 -0.46429,0.464297 -0.96948,0.878844 -1.51544,1.243639 -0.54596,0.364796 -1.12225,0.672833 -1.72888,0.924109 -0.60663,0.251276 -1.23187,0.440964 -1.87585,0.569063 -0.64405,0.1281 -1.29432,0.19215 -1.95087,0.192152 -0.65668,-2e-6 -1.30707,-0.06405 -1.95111,-0.192152 -0.64398,-0.128099 -1.26929,-0.317787 -1.87592,-0.569063 -0.60663,-0.251276 -1.18298,-0.559313 -1.72894,-0.924109 -0.5459,-0.364795 -1.05096,-0.779342 -1.51526,-1.243639 -0.46429,-0.464296 -0.87884,-0.969423 -1.24365,-1.515378 -0.36481,-0.545958 -0.67279,-1.122254 -0.92407,-1.728888 -0.25128,-0.606634 -0.44098,-1.231949 -0.56909,-1.875948 -0.12812,-0.643999 -0.19214,-1.294308 -0.19208,-1.950922 -6e-5,-0.656616 0.064,-1.306924 0.19208,-1.950923 0.12811,-0.644 0.31781,-1.269317 0.56909,-1.875951 0.25128,-0.606633 0.55932,-1.182928 0.92413,-1.728885 0.36475,-0.5459561 0.7793,-1.051083 1.24365,-1.5153803 0.4643,-0.4642973 0.96942,-0.8788443 1.51538,-1.2436409 0.5459,-0.3647962 1.12213,-0.6728325 1.72876,-0.9241085 0.60663,-0.2512756 1.23194,-0.4409633 1.87598,-0.5690623 0.64398,-0.1280994 1.29437,-0.1921491 1.95105,-0.1921491 0.65655,0 1.30682,0.06405 1.95087,0.1921491 0.64398,0.128099 1.26922,0.3177867 1.87585,0.5690623 0.60663,0.251276 1.18292,0.5593123 1.72888,0.9241085 0.54596,0.3647966 1.05115,0.7793436 1.51544,1.2436409 0.46424,0.4642973 0.87873,0.9694242 1.24353,1.5153803 0.36481,0.545957 0.67286,1.122252 0.92414,1.728885 0.25128,0.606634 0.44098,1.231951 0.56909,1.875951 0.12817,0.643999 0.19226,1.294307 0.19226,1.950923 z"
       style="fill:none;stroke:#666666;stroke-width:1;stroke-linecap:butt;stroke-linejoin:miter;stroke-miterlimit:10;stroke-dasharray:none;stroke-opacity:1"
       transform="matrix(0.95817951,0,0,0.95817951,0.47908976,0.47908976)"
       clip-path="url(#clipPath73)" />
    <path
       id="path74"
       d="m 1011.0101,16 c -10e-5,0.656614 -0.064,1.306923 -0.1923,1.950922 -0.1281,0.643999 -0.3178,1.269314 -0.5691,1.875948 -0.2512,0.606634 -0.5592,1.182928 -0.9241,1.728886 -0.3648,0.545957 -0.7793,1.051084 -1.2436,1.51538 -0.4642,0.464297 -0.9694,0.878844 -1.5154,1.243639 -0.546,0.364796 -1.1222,0.672833 -1.7289,0.924109 -0.6066,0.251276 -1.2319,0.440964 -1.8759,0.569063 -0.644,0.1281 -1.2942,0.19215 -1.9508,0.192152 -0.6566,-2e-6 -1.30694,-0.06405 -1.95098,-0.192152 -0.6441,-0.128099 -1.26941,-0.317787 -1.87604,-0.569063 -0.60663,-0.251276 -1.18292,-0.559313 -1.72888,-0.924109 -0.54596,-0.364795 -1.05102,-0.779342 -1.51532,-1.243639 -0.46429,-0.464296 -0.87884,-0.969423 -1.24365,-1.515378 -0.36481,-0.545958 -0.67285,-1.122254 -0.92413,-1.728888 -0.25129,-0.606634 -0.44092,-1.231949 -0.56897,-1.875948 -0.12812,-0.643999 -0.19214,-1.294308 -0.19214,-1.950922 0,-0.656616 0.064,-1.306924 0.19214,-1.950923 0.12805,-0.644 0.31768,-1.269317 0.56897,-1.875951 0.25128,-0.606633 0.55926,-1.182928 0.92407,-1.728885 0.36481,-0.5459561 0.77942,-1.051083 1.24371,-1.5153803 0.4643,-0.4642973 0.96942,-0.8788443 1.51538,-1.2436409 0.54596,-0.3647962 1.12219,-0.6728325 1.72882,-0.9241085 0.60663,-0.2512756 1.23194,-0.4409633 1.87604,-0.5690623 0.64404,-0.1280994 1.29438,-0.1921491 1.95098,-0.1921491 0.6566,0 1.3069,0.06405 1.9509,0.1921491 0.644,0.128099 1.2693,0.3177867 1.8759,0.5690623 0.6066,0.251276 1.1828,0.5593123 1.7288,0.9241085 0.546,0.3647966 1.0512,0.7793436 1.5154,1.2436409 0.4643,0.4642973 0.8788,0.9694242 1.2436,1.5153803 0.3649,0.545957 0.6729,1.122252 0.9241,1.728885 0.2513,0.606634 0.4409,1.231951 0.569,1.875951 0.1282,0.643999 0.1923,1.294307 0.1924,1.950923 z"
       style="fill:none;stroke:#666666;stroke-width:1;stroke-linecap:butt;stroke-linejoin:miter;stroke-miterlimit:10;stroke-dasharray:none;stroke-opacity:1"
       transform="matrix(0.95817951,0,0,0.95817951,0.47908976,0.47908976)"
       clip-path="url(#clipPath75)" />
    <path
       id="path76"
       d="m 1036.0101,16 c -10e-5,0.656614 -0.064,1.306923 -0.1922,1.950922 -0.1282,0.643999 -0.3179,1.269314 -0.5691,1.875948 -0.2514,0.606634 -0.5594,1.182928 -0.9241,1.728886 -0.3649,0.545957 -0.7794,1.051084 -1.2436,1.51538 -0.4644,0.464297 -0.9695,0.878844 -1.5154,1.243639 -0.546,0.364796 -1.1223,0.672833 -1.7289,0.924109 -0.6067,0.251276 -1.2321,0.440964 -1.876,0.569063 -0.6439,0.1281 -1.2942,0.19215 -1.9508,0.192152 -0.6566,-2e-6 -1.307,-0.06405 -1.951,-0.192152 -0.644,-0.128099 -1.2694,-0.317787 -1.876,-0.569063 -0.6066,-0.251276 -1.1829,-0.559313 -1.7289,-0.924109 -0.546,-0.364795 -1.051,-0.779342 -1.5153,-1.243639 -0.4643,-0.464296 -0.8789,-0.969423 -1.2437,-1.515378 -0.3648,-0.545958 -0.6728,-1.122254 -0.9241,-1.728888 -0.2513,-0.606634 -0.4409,-1.231949 -0.569,-1.875948 -0.1281,-0.643999 -0.1922,-1.294308 -0.1921,-1.950922 -10e-5,-0.656616 0.064,-1.306924 0.1921,-1.950923 0.1281,-0.644 0.3177,-1.269317 0.569,-1.875951 0.2513,-0.606633 0.5593,-1.182928 0.9241,-1.728885 0.3648,-0.5459561 0.7794,-1.051083 1.2437,-1.5153803 0.4643,-0.4642973 0.9693,-0.8788443 1.5153,-1.2436409 0.546,-0.3647962 1.1223,-0.6728325 1.7289,-0.9241085 0.6066,-0.2512756 1.232,-0.4409633 1.876,-0.5690623 0.644,-0.1280994 1.2944,-0.1921491 1.951,-0.1921491 0.6566,0 1.3069,0.06405 1.9508,0.1921491 0.6439,0.128099 1.2693,0.3177867 1.876,0.5690623 0.6066,0.251276 1.1829,0.5593123 1.7289,0.9241085 0.5459,0.3647966 1.051,0.7793436 1.5154,1.2436409 0.4642,0.4642973 0.8787,0.9694242 1.2435,1.5153803 0.3648,0.545957 0.6728,1.122252 0.9242,1.728885 0.2512,0.606634 0.4409,1.231951 0.5691,1.875951 0.128,0.643999 0.1921,1.294307 0.1922,1.950923 z"
       style="fill:none;stroke:#008cff;stroke-width:1;stroke-linecap:butt;stroke-linejoin:miter;stroke-miterlimit:10;stroke-dasharray:none;stroke-opacity:1"
       transform="matrix(0.95817951,0,0,0.95817951,0.47908976,0.47908976)"
       clip-path="url(#clipPath77)" />
    <path
       id="path78"
       d="m 701.01001,41 h 30 V 16 c 0,-2.76 2.23999,-5 5,-5 h 135 c 2.76001,0 5,2.24 5,5 V 41 H 1041.01"
       style="fill:none;stroke:#c4c4c4;stroke-width:1;stroke-linecap:butt;stroke-linejoin:miter;stroke-miterlimit:10;stroke-dasharray:none;stroke-opacity:1"
       transform="matrix(0.95817951,0,0,0.95817951,0.47908976,0.47908976)"
       clip-path="url(#clipPath79)" />
    <path
       id="path80"
       d="M 701.01001,111 H 1041.01"
       style="fill:none;stroke:#c4c4c4;stroke-width:1;stroke-linecap:butt;stroke-linejoin:miter;stroke-miterlimit:10;stroke-dasharray:none;stroke-opacity:1"
       transform="matrix(0.95817951,0,0,0.95817951,0.47908976,0.47908976)"
       clip-path="url(#clipPath81)" />
    <path
       id="path82"
       d="m 801.01001,61 c 0,-2.759998 2.23999,-5 5,-5 H 1026.01 c 2.76,0 5,2.240002 5,5 v 25 c 0,2.760002 -2.24,5 -5,5 H 806.01001 c -2.76001,0 -5,-2.239998 -5,-5 z"
       style="fill:none;stroke:#c4c4c4;stroke-width:1;stroke-linecap:butt;stroke-linejoin:miter;stroke-miterlimit:10;stroke-dasharray:none;stroke-opacity:1"
       transform="matrix(0.95817951,0,0,0.95817951,0.47908976,0.47908976)"
       clip-path="url(#clipPath83)" />
    <path
       id="path84"
       d="m 738.01001,18 h 11 l 4,4 v 14 h -15 z"
       style="fill:none;stroke:#c4c4c4;stroke-width:1;stroke-linecap:butt;stroke-linejoin:miter;stroke-miterlimit:10;stroke-dasharray:none;stroke-opacity:1"
       transform="matrix(0.95817951,0,0,0.95817951,0.47908976,0.47908976)"
       clip-path="url(#clipPath85)" />
    <path
       id="path86"
       d="m 749.01001,18 v 4 l 4,1"
       style="fill:none;stroke:#c4c4c4;stroke-width:1;stroke-linecap:butt;stroke-linejoin:miter;stroke-miterlimit:10;stroke-dasharray:none;stroke-opacity:1"
       transform="matrix(0.95817951,0,0,0.95817951,0.47908976,0.47908976)"
       clip-path="url(#clipPath87)" />
    <path
       id="path88"
       d="m 808.01001,65 h 11 l 4,4 v 14 h -15 z"
       style="fill:none;stroke:#c4c4c4;stroke-width:1;stroke-linecap:butt;stroke-linejoin:miter;stroke-miterlimit:10;stroke-dasharray:none;stroke-opacity:1"
       transform="matrix(0.95817951,0,0,0.95817951,0.47908976,0.47908976)"
       clip-path="url(#clipPath89)" />
    <path
       id="path90"
       d="m 819.01001,65 v 4 l 4,1"
       style="fill:none;stroke:#c4c4c4;stroke-width:1;stroke-linecap:butt;stroke-linejoin:miter;stroke-miterlimit:10;stroke-dasharray:none;stroke-opacity:1"
       transform="matrix(0.95817951,0,0,0.95817951,0.47908976,0.47908976)"
       clip-path="url(#clipPath91)" />
    <path
       id="path92"
       d="m 713.01001,75 10,-10 v 6 h 10 v 8 h -10 v 6 z"
       style="fill:#c4c4c4;fill-opacity:1;fill-rule:nonzero;stroke:#c4c4c4;stroke-width:1;stroke-linecap:butt;stroke-linejoin:miter;stroke-miterlimit:10;stroke-dasharray:none;stroke-opacity:1"
       transform="matrix(0.95817951,0,0,0.95817951,0.47908976,0.47908976)"
       clip-path="url(#clipPath93)" />
    <path
       id="path94"
       d="m 763.01001,75 -10,-10 v 6 h -10 v 8 h 10 v 6 z"
       style="fill:#c4c4c4;fill-opacity:1;fill-rule:nonzero;stroke:#c4c4c4;stroke-width:1;stroke-linecap:butt;stroke-linejoin:miter;stroke-miterlimit:10;stroke-dasharray:none;stroke-opacity:1"
       transform="matrix(0.95817951,0,0,0.95817951,0.47908976,0.47908976)"
       clip-path="url(#clipPath95)" />
    <path
       id="path96"
       d="m 788.60999,78.300003 c -1.70002,2.839996 -5.38001,3.759995 -8.21998,2.059998 C 777.54999,78.669998 776.62,75 778.29999,72.150002 c 1.69,-2.840004 5.35998,-3.790001 8.21002,-2.110001 L 784.90997,71.5 l 7.90003,1.800003 -1.79999,-7.5 -1.70001,1.599999 c -3.19,-2.370003 -7.5,-2.580002 -10.90998,-0.529999 -3.40002,2.049995 -5.23004,5.959999 -4.61999,9.889999 0.59997,3.93 3.51996,7.099999 7.38995,8.029999 3.87,0.93 7.91004,-0.559998 10.23999,-3.790001 z"
       style="fill:#c4c4c4;fill-opacity:1;fill-rule:nonzero;stroke:#c4c4c4;stroke-width:1;stroke-linecap:butt;stroke-linejoin:miter;stroke-miterlimit:10;stroke-dasharray:none;stroke-opacity:1"
       transform="matrix(0.95817951,0,0,0.95817951,0.47908976,0.47908976)"
       clip-path="url(#clipPath97)" />
    <text
       id="text97"
       xml:space="preserve"
       transform="matrix(0.95818911,0,0,0.95818911,731.09829,30.662052)"
       clip-path="url(#clipPath98)"><tspan
         style="font-variant:normal;font-weight:normal;font-size:17px;font-family:Helvetica;writing-mode:lr-tb;fill:#666666;fill-opacity:1;fill-rule:nonzero;stroke:none"
         x="0 11.338867 20.793457 30.248047 39.702637 44.425781"
         y="0"
         sodipodi:role="line"
         id="tspan97">Page 1</tspan></text>
    <text
       id="text98"
       xml:space="preserve"
       transform="matrix(0.95818911,0,0,0.95818911,798.17153,76.655129)"
       clip-path="url(#clipPath99)"><tspan
         style="font-variant:normal;font-weight:normal;font-size:17px;font-family:Helvetica;writing-mode:lr-tb;fill:#666666;fill-opacity:1;fill-rule:nonzero;stroke:none"
         x="0 9.4545898 14.177734 18.900879 28.355469 36.855469 41.578613 46.301758 51.024902 63.301758 75.578613 86.925781 91.648926 101.10352 106.76465 116.21924 127.56641 132.28955 136.06641"
         y="0"
         sodipodi:role="line"
         id="tspan98">https://www.draw.io</tspan></text>
    <path
       id="path100"
       d="m 721.01001,121 h 90 v 30 h -90 z"
       style="fill:#ffffff;fill-opacity:1;fill-rule:nonzero;stroke:#000000;stroke-width:1;stroke-linecap:butt;stroke-linejoin:miter;stroke-miterlimit:10;stroke-dasharray:none;stroke-opacity:1"
       transform="matrix(0.95817951,0,0,0.95817951,0.47908976,0.47908976)"
       clip-path="url(#clipPath101)" />
    <text
       id="text101"
       xml:space="preserve"
       transform="matrix(0.95818911,0,0,0.95818911,719.58506,134.14648)"
       clip-path="url(#clipPath102)"><tspan
         style="font-variant:normal;font-weight:normal;font-size:12px;font-family:Helvetica;writing-mode:lr-tb;fill:#000000;fill-opacity:1;fill-rule:nonzero;stroke:none"
         x="0 7.3300781 14.003906 17.337891 23.337891"
         y="0"
         sodipodi:role="line"
         id="tspan101">Fetch</tspan></text>
    <text
       id="text102"
       xml:space="preserve"
       transform="matrix(0.95818911,0,0,0.95818911,702.35262,167.68309)"
       clip-path="url(#clipPath103)"><tspan
         style="font-variant:normal;font-weight:normal;font-size:12px;font-family:Helvetica;writing-mode:lr-tb;fill:#000000;fill-opacity:1;fill-rule:nonzero;stroke:none"
         x="0 6 12.673828 19.347656 26.021484 32.021484 35.355469 42.029297"
         y="0"
         sodipodi:role="line"
         id="tspan102">Todos #1</tspan></text>
    <text
       id="text103"
       xml:space="preserve"
       transform="matrix(0.95818911,0,0,0.95818911,702.35262,186.84688)"
       clip-path="url(#clipPath104)"><tspan
         style="font-variant:normal;font-weight:normal;font-size:12px;font-family:Helvetica;writing-mode:lr-tb;fill:#000000;fill-opacity:1;fill-rule:nonzero;stroke:none"
         x="0 6 12.673828 19.347656 26.021484 32.021484 35.355469 42.029297"
         y="0"
         sodipodi:role="line"
         id="tspan103">Todos #2</tspan></text>
    <text
       id="text104"
       xml:space="preserve"
       transform="matrix(0.95818911,0,0,0.95818911,702.35262,225.17444)"
       clip-path="url(#clipPath105)"><tspan
         style="font-variant:normal;font-weight:normal;font-size:12px;font-family:Helvetica;writing-mode:lr-tb;fill:#000000;fill-opacity:1;fill-rule:nonzero;stroke:none"
         x="0 6 12.673828 19.347656 26.021484 32.021484 35.355469 42.029297"
         y="0"
         sodipodi:role="line"
         id="tspan104">Todos #4</tspan></text>
    <text
       id="text105"
       xml:space="preserve"
       transform="matrix(0.95818911,0,0,0.95818911,702.35262,206.01066)"
       clip-path="url(#clipPath106)"><tspan
         style="font-variant:normal;font-weight:normal;font-size:12px;font-family:Helvetica;writing-mode:lr-tb;fill:#000000;fill-opacity:1;fill-rule:nonzero;stroke:none"
         x="0 6 12.673828 19.347656 26.021484 32.021484 35.355469 42.029297"
         y="0"
         sodipodi:role="line"
         id="tspan105">Todos #3</tspan></text>
    <text
       id="text106"
       xml:space="preserve"
       transform="matrix(0.95818911,0,0,0.95818911,702.35262,244.33822)"
       clip-path="url(#clipPath107)"><tspan
         style="font-variant:normal;font-weight:normal;font-size:12px;font-family:Helvetica;writing-mode:lr-tb;fill:#000000;fill-opacity:1;fill-rule:nonzero;stroke:none"
         x="0 6 12.673828 19.347656 26.021484 32.021484 35.355469 42.029297"
         y="0"
         sodipodi:role="line"
         id="tspan106">Todos #5</tspan></text>
  </g>
</svg>
