<?xml version="1.0" encoding="UTF-8" standalone="no"?>
<!-- Created with Inkscape (http://www.inkscape.org/) -->

<svg
   version="1.1"
   id="svg1"
   width="633.27997"
   height="120"
   viewBox="0 0 633.27997 120"
   sodipodi:docname="ts-17.pdf"
   xmlns:inkscape="http://www.inkscape.org/namespaces/inkscape"
   xmlns:sodipodi="http://sodipodi.sourceforge.net/DTD/sodipodi-0.dtd"
   xmlns="http://www.w3.org/2000/svg"
   xmlns:svg="http://www.w3.org/2000/svg">
  <defs
     id="defs1">
    <clipPath
       clipPathUnits="userSpaceOnUse"
       id="clipPath2">
      <path
         d="M 0,0 H 1979.1666 V 373.70972 H 0 Z"
         transform="scale(0.33448422)"
         clip-rule="evenodd"
         id="path2" />
    </clipPath>
    <clipPath
       clipPathUnits="userSpaceOnUse"
       id="clipPath4">
      <path
         d="M 0,0 H 1979.1666 V 370.72003 H 0 Z"
         transform="matrix(0.33448422,0,0,0.33448422,-0.5,-0.5)"
         clip-rule="evenodd"
         id="path4" />
    </clipPath>
    <clipPath
       clipPathUnits="userSpaceOnUse"
       id="clipPath6">
      <path
         d="M 0,0 H 1979.1666 V 370.72003 H 0 Z"
         transform="matrix(0.33448422,0,0,0.33448422,-0.5,-0.5)"
         clip-rule="evenodd"
         id="path6" />
    </clipPath>
    <clipPath
       clipPathUnits="userSpaceOnUse"
       id="clipPath8">
      <path
         d="M 0,0 H 1979.1666 V 370.72003 H 0 Z"
         transform="matrix(0.33448422,0,0,0.33448422,-0.5,-0.5)"
         clip-rule="evenodd"
         id="path8" />
    </clipPath>
    <clipPath
       clipPathUnits="userSpaceOnUse"
       id="clipPath9">
      <path
         d="M 0,0 H 1979.1666 V 370.72003 H 0 Z"
         transform="matrix(0.33448086,0,0,0.33448086,-169.875,-38)"
         clip-rule="evenodd"
         id="path9" />
    </clipPath>
    <clipPath
       clipPathUnits="userSpaceOnUse"
       id="clipPath11">
      <path
         d="M 0,0 H 1979.1666 V 370.72003 H 0 Z"
         transform="matrix(0.33448422,0,0,0.33448422,-0.5,-0.5)"
         clip-rule="evenodd"
         id="path11" />
    </clipPath>
    <clipPath
       clipPathUnits="userSpaceOnUse"
       id="clipPath12">
      <path
         d="M 0,0 H 1979.1666 V 370.72003 H 0 Z"
         transform="matrix(0.33448086,0,0,0.33448086,-23.484375,-40)"
         clip-rule="evenodd"
         id="path12" />
    </clipPath>
    <clipPath
       clipPathUnits="userSpaceOnUse"
       id="clipPath14">
      <path
         d="M 0,0 H 1979.1666 V 370.72003 H 0 Z"
         transform="matrix(0.33448422,0,0,0.33448422,-0.5,-0.5)"
         clip-rule="evenodd"
         id="path14" />
    </clipPath>
    <clipPath
       clipPathUnits="userSpaceOnUse"
       id="clipPath16">
      <path
         d="M 0,0 H 1979.1666 V 370.72003 H 0 Z"
         transform="matrix(0.33448422,0,0,0.33448422,-0.5,-0.5)"
         clip-rule="evenodd"
         id="path16" />
    </clipPath>
    <clipPath
       clipPathUnits="userSpaceOnUse"
       id="clipPath18">
      <path
         d="M 0,0 H 1979.1666 V 370.72003 H 0 Z"
         transform="matrix(0.33448422,0,0,0.33448422,-0.5,-0.5)"
         clip-rule="evenodd"
         id="path18" />
    </clipPath>
    <clipPath
       clipPathUnits="userSpaceOnUse"
       id="clipPath19">
      <path
         d="M 0,0 H 1979.1666 V 370.72003 H 0 Z"
         transform="matrix(0.33448086,0,0,0.33448086,-88.578125,-98.000001)"
         clip-rule="evenodd"
         id="path19" />
    </clipPath>
    <clipPath
       clipPathUnits="userSpaceOnUse"
       id="clipPath21">
      <path
         d="M 0,0 H 1979.1666 V 370.72003 H 0 Z"
         transform="matrix(0.33448422,0,0,0.33448422,-0.5,-0.5)"
         clip-rule="evenodd"
         id="path21" />
    </clipPath>
    <clipPath
       clipPathUnits="userSpaceOnUse"
       id="clipPath22">
      <path
         d="M 0,0 H 1979.1666 V 370.72003 H 0 Z"
         transform="matrix(0.33448086,0,0,0.33448086,-23.484375,-100)"
         clip-rule="evenodd"
         id="path22" />
    </clipPath>
  </defs>
  <sodipodi:namedview
     id="namedview1"
     pagecolor="#ffffff"
     bordercolor="#000000"
     borderopacity="0.25"
     inkscape:showpageshadow="2"
     inkscape:pageopacity="0.0"
     inkscape:pagecheckerboard="0"
     inkscape:deskcolor="#d1d1d1">
    <inkscape:page
       x="0"
       y="0"
       inkscape:label="1"
       id="page1"
       width="633.27997"
       height="120"
       margin="0"
       bleed="0" />
  </sodipodi:namedview>
  <g
     id="g1"
     inkscape:groupmode="layer"
     inkscape:label="1">
    <path
       id="path1"
       d="M 0,0 H 662 V 125 H 0 Z"
       style="fill:#ffffff;fill-opacity:1;fill-rule:nonzero;stroke:none"
       transform="scale(0.95669682)"
       clip-path="url(#clipPath2)" />
    <path
       id="path3"
       d="M 611.01001,31 H 631 v 45 h -13.63"
       style="fill:none;stroke:#000000;stroke-width:1;stroke-linecap:butt;stroke-linejoin:miter;stroke-miterlimit:10;stroke-dasharray:none;stroke-opacity:1"
       transform="matrix(0.95669682,0,0,0.95669682,0.47834841,0.47834841)"
       clip-path="url(#clipPath4)" />
    <path
       id="path5"
       d="m 612.12,76 7,-3.5 -1.75,3.5 1.75,3.5 z"
       style="fill:#000000;fill-opacity:1;fill-rule:nonzero;stroke:#000000;stroke-width:1;stroke-linecap:butt;stroke-linejoin:miter;stroke-miterlimit:10;stroke-dasharray:none;stroke-opacity:1"
       transform="matrix(0.95669682,0,0,0.95669682,0.47834841,0.47834841)"
       clip-path="url(#clipPath6)" />
    <path
       id="path7"
       d="M 61,1 H 611.01001 V 61 H 61 Z"
       style="fill:#ffffff;fill-opacity:1;fill-rule:nonzero;stroke:#000000;stroke-width:1;stroke-linecap:butt;stroke-linejoin:miter;stroke-miterlimit:10;stroke-dasharray:none;stroke-opacity:1"
       transform="matrix(0.95669682,0,0,0.95669682,0.47834841,0.47834841)"
       clip-path="url(#clipPath8)" />
    <text
       id="text8"
       xml:space="preserve"
       transform="matrix(0.95670642,0,0,0.95670642,162.5205,36.354844)"
       clip-path="url(#clipPath9)"><tspan
         style="font-variant:normal;font-weight:normal;font-size:22px;font-family:Helvetica;writing-mode:lr-tb;fill:#000000;fill-opacity:1;fill-rule:nonzero;stroke:none"
         x="0 6.1123047 18.347656 24.073242 36.308594 47.308594 59.543945 71.779297 82.779297 93.779297 101.10547 105.99316 118.22852 124.34082 130.45312 136.56543 147.56543 153.67773 161.00391 165.8916 178.12695 190.3623 201.3623 207.47461 218.47461 230.70996 242.94531 249.05762 261.29297 273.52832 279.64062 285.75293 296.75293 308.98828 321.22363"
         y="0"
         sodipodi:role="line"
         id="tspan8">In Typescript, strings can be types</tspan></text>
    <path
       id="path10"
       d="M 1,1 H 61 V 61 H 1 Z"
       style="fill:#dae8fc;fill-opacity:1;fill-rule:nonzero;stroke:#6c8ebf;stroke-width:1;stroke-linecap:butt;stroke-linejoin:miter;stroke-miterlimit:10;stroke-dasharray:none;stroke-opacity:1"
       transform="matrix(0.95669682,0,0,0.95669682,0.47834841,0.47834841)"
       clip-path="url(#clipPath11)" />
    <text
       id="text11"
       xml:space="preserve"
       transform="matrix(0.95670642,0,0,0.95670642,22.467652,38.268257)"
       clip-path="url(#clipPath12)"><tspan
         style="font-variant:normal;font-weight:normal;font-size:27px;font-family:Helvetica;writing-mode:lr-tb;fill:#000000;fill-opacity:1;fill-rule:nonzero;stroke:none"
         x="0"
         y="0"
         id="tspan11">1</tspan></text>
    <path
       id="path13"
       d="M 611.01001,91 H 651 V 13 h -33.63"
       style="fill:none;stroke:#000000;stroke-width:1;stroke-linecap:butt;stroke-linejoin:miter;stroke-miterlimit:10;stroke-dasharray:none;stroke-opacity:1"
       transform="matrix(0.95669682,0,0,0.95669682,0.47834841,0.47834841)"
       clip-path="url(#clipPath14)" />
    <path
       id="path15"
       d="m 612.12,13 7,-3.5 -1.75,3.5 1.75,3.5 z"
       style="fill:#000000;fill-opacity:1;fill-rule:nonzero;stroke:#000000;stroke-width:1;stroke-linecap:butt;stroke-linejoin:miter;stroke-miterlimit:10;stroke-dasharray:none;stroke-opacity:1"
       transform="matrix(0.95669682,0,0,0.95669682,0.47834841,0.47834841)"
       clip-path="url(#clipPath16)" />
    <path
       id="path17"
       d="m 61,61 h 550.01001 v 60 H 61 Z"
       style="fill:#ffffff;fill-opacity:1;fill-rule:nonzero;stroke:#000000;stroke-width:1;stroke-linecap:butt;stroke-linejoin:miter;stroke-miterlimit:10;stroke-dasharray:none;stroke-opacity:1"
       transform="matrix(0.95669682,0,0,0.95669682,0.47834841,0.47834841)"
       clip-path="url(#clipPath18)" />
    <text
       id="text18"
       xml:space="preserve"
       transform="matrix(0.95670642,0,0,0.95670642,84.743261,93.75723)"
       clip-path="url(#clipPath19)"><tspan
         style="font-variant:normal;font-weight:normal;font-size:22px;font-family:Helvetica;writing-mode:lr-tb;fill:#000000;fill-opacity:1;fill-rule:nonzero;stroke:none"
         x="0 6.1123047 18.347656 24.459961 35.459961 50.133789 56.246094 63.572266 75.807617 88.042969 100.27832 106.39062 112.50293 124.73828 136.97363 144.2998 156.53516 162.64746 174.88281 182.20898 194.44434 200.16992 213.6084 228.28223 235.6084 241.7207 247.83301 260.06836 264.95605 269.84375 275.95605 288.19141 300.42676 305.31445 317.5498 328.5498 334.66211 340.77441 351.77441 364.00977 375.00977 386.00977 392.12207 404.35742 411.68359 423.91895 430.03125 441.03125 447.14355 454.46973 459.35742 471.59277 483.82812"
         y="0"
         sodipodi:role="line"
         id="tspan18">In JS (and therefore TS), all object keys are strings</tspan></text>
    <path
       id="path20"
       d="m 1,61 h 60 v 60 H 1 Z"
       style="fill:#dae8fc;fill-opacity:1;fill-rule:nonzero;stroke:#6c8ebf;stroke-width:1;stroke-linecap:butt;stroke-linejoin:miter;stroke-miterlimit:10;stroke-dasharray:none;stroke-opacity:1"
       transform="matrix(0.95669682,0,0,0.95669682,0.47834841,0.47834841)"
       clip-path="url(#clipPath21)" />
    <text
       id="text21"
       xml:space="preserve"
       transform="matrix(0.95670642,0,0,0.95670642,22.467652,95.670642)"
       clip-path="url(#clipPath22)"><tspan
         style="font-variant:normal;font-weight:normal;font-size:27px;font-family:Helvetica;writing-mode:lr-tb;fill:#000000;fill-opacity:1;fill-rule:nonzero;stroke:none"
         x="0"
         y="0"
         id="tspan21">2</tspan></text>
  </g>
</svg>
