<?xml version="1.0" encoding="UTF-8" standalone="no"?>
<!-- Created with Inkscape (http://www.inkscape.org/) -->

<svg
   version="1.1"
   id="svg1"
   width="645.44"
   height="259.84"
   viewBox="0 0 645.44 259.84"
   sodipodi:docname="ts-13.pdf"
   xmlns:inkscape="http://www.inkscape.org/namespaces/inkscape"
   xmlns:sodipodi="http://sodipodi.sourceforge.net/DTD/sodipodi-0.dtd"
   xmlns="http://www.w3.org/2000/svg"
   xmlns:svg="http://www.w3.org/2000/svg">
  <defs
     id="defs1">
    <clipPath
       clipPathUnits="userSpaceOnUse"
       id="clipPath2">
      <path
         d="M 0,0 H 2016.6665 V 810.85553 H 0 Z"
         transform="scale(0.33421489)"
         clip-rule="evenodd"
         id="path2" />
    </clipPath>
    <clipPath
       clipPathUnits="userSpaceOnUse"
       id="clipPath4">
      <path
         d="M 0,0 H 2016.6665 V 807.86346 H 0 Z"
         transform="matrix(0.33421489,0,0,0.33421489,-0.49999999,-0.49999999)"
         clip-rule="evenodd"
         id="path4" />
    </clipPath>
    <clipPath
       clipPathUnits="userSpaceOnUse"
       id="clipPath5">
      <path
         d="M 0,0 H 2016.6665 V 807.86346 H 0 Z"
         transform="matrix(0.33421154,0,0,0.33421154,-70.953124,-44)"
         clip-rule="evenodd"
         id="path5" />
    </clipPath>
    <clipPath
       clipPathUnits="userSpaceOnUse"
       id="clipPath7">
      <path
         d="M 0,0 H 2016.6665 V 807.86346 H 0 Z"
         transform="matrix(0.33421489,0,0,0.33421489,-0.49999999,-0.49999999)"
         clip-rule="evenodd"
         id="path7" />
    </clipPath>
    <clipPath
       clipPathUnits="userSpaceOnUse"
       id="clipPath8">
      <path
         d="M 0,0 H 2016.6665 V 807.86346 H 0 Z"
         transform="matrix(0.33421154,0,0,0.33421154,-36.453125,-72)"
         clip-rule="evenodd"
         id="path8" />
    </clipPath>
    <clipPath
       clipPathUnits="userSpaceOnUse"
       id="clipPath10">
      <path
         d="M 0,0 H 2016.6665 V 807.86346 H 0 Z"
         transform="matrix(0.33421489,0,0,0.33421489,-0.49999999,-0.49999999)"
         clip-rule="evenodd"
         id="path10" />
    </clipPath>
    <clipPath
       clipPathUnits="userSpaceOnUse"
       id="clipPath11">
      <path
         d="M 0,0 H 2016.6665 V 807.86346 H 0 Z"
         transform="matrix(0.33421154,0,0,0.33421154,-56.953125,-100)"
         clip-rule="evenodd"
         id="path11" />
    </clipPath>
    <clipPath
       clipPathUnits="userSpaceOnUse"
       id="clipPath13">
      <path
         d="M 0,0 H 2016.6665 V 807.86346 H 0 Z"
         transform="matrix(0.33421489,0,0,0.33421489,-0.49999999,-0.49999999)"
         clip-rule="evenodd"
         id="path13" />
    </clipPath>
    <clipPath
       clipPathUnits="userSpaceOnUse"
       id="clipPath15">
      <path
         d="M 0,0 H 2016.6665 V 807.86346 H 0 Z"
         transform="matrix(0.33421489,0,0,0.33421489,-0.49999999,-0.49999999)"
         clip-rule="evenodd"
         id="path15" />
    </clipPath>
    <clipPath
       clipPathUnits="userSpaceOnUse"
       id="clipPath17">
      <path
         d="M 0,0 H 2016.6665 V 807.86346 H 0 Z"
         transform="matrix(0.33421489,0,0,0.33421489,-0.49999999,-0.49999999)"
         clip-rule="evenodd"
         id="path17" />
    </clipPath>
    <clipPath
       clipPathUnits="userSpaceOnUse"
       id="clipPath18">
      <path
         d="M 0,0 H 2016.6665 V 807.86346 H 0 Z"
         transform="matrix(0.33421154,0,0,0.33421154,-72.484375,-128)"
         clip-rule="evenodd"
         id="path18" />
    </clipPath>
    <clipPath
       clipPathUnits="userSpaceOnUse"
       id="clipPath20">
      <path
         d="M 0,0 H 2016.6665 V 807.86346 H 0 Z"
         transform="matrix(0.33421489,0,0,0.33421489,-0.49999999,-0.49999999)"
         clip-rule="evenodd"
         id="path20" />
    </clipPath>
    <clipPath
       clipPathUnits="userSpaceOnUse"
       id="clipPath21">
      <path
         d="M 0,0 H 2016.6665 V 807.86346 H 0 Z"
         transform="matrix(0.33421154,0,0,0.33421154,-429.45313,-102)"
         clip-rule="evenodd"
         id="path21" />
    </clipPath>
    <clipPath
       clipPathUnits="userSpaceOnUse"
       id="clipPath23">
      <path
         d="M 0,0 H 2016.6665 V 807.86346 H 0 Z"
         transform="matrix(0.33421489,0,0,0.33421489,-0.49999999,-0.49999999)"
         clip-rule="evenodd"
         id="path23" />
    </clipPath>
    <clipPath
       clipPathUnits="userSpaceOnUse"
       id="clipPath24">
      <path
         d="M 0,0 H 2016.6665 V 807.86346 H 0 Z"
         transform="matrix(0.33421154,0,0,0.33421154,-310.42187,-130)"
         clip-rule="evenodd"
         id="path24" />
    </clipPath>
    <clipPath
       clipPathUnits="userSpaceOnUse"
       id="clipPath26">
      <path
         d="M 0,0 H 2016.6665 V 807.86346 H 0 Z"
         transform="matrix(0.33421489,0,0,0.33421489,-0.49999999,-0.49999999)"
         clip-rule="evenodd"
         id="path26" />
    </clipPath>
    <clipPath
       clipPathUnits="userSpaceOnUse"
       id="clipPath27">
      <path
         d="M 0,0 H 2016.6665 V 807.86346 H 0 Z"
         transform="matrix(0.33421154,0,0,0.33421154,-300.90624,-158)"
         clip-rule="evenodd"
         id="path27" />
    </clipPath>
    <clipPath
       clipPathUnits="userSpaceOnUse"
       id="clipPath29">
      <path
         d="M 0,0 H 2016.6665 V 807.86346 H 0 Z"
         transform="matrix(0.33421489,0,0,0.33421489,-0.49999999,-0.49999999)"
         clip-rule="evenodd"
         id="path29" />
    </clipPath>
    <clipPath
       clipPathUnits="userSpaceOnUse"
       id="clipPath30">
      <path
         d="M 0,0 H 2016.6665 V 807.86346 H 0 Z"
         transform="matrix(0.33421154,0,0,0.33421154,-6.421875,-198)"
         clip-rule="evenodd"
         id="path30" />
    </clipPath>
    <clipPath
       clipPathUnits="userSpaceOnUse"
       id="clipPath31">
      <path
         d="M 0,0 H 2016.6665 V 807.86346 H 0 Z"
         transform="matrix(0.33421154,0,0,0.33421154,-77.921875,-198)"
         clip-rule="evenodd"
         id="path31" />
    </clipPath>
    <clipPath
       clipPathUnits="userSpaceOnUse"
       id="clipPath32">
      <path
         d="M 0,0 H 2016.6665 V 807.86346 H 0 Z"
         transform="matrix(0.33421154,0,0,0.33421154,-35.71875,-214)"
         clip-rule="evenodd"
         id="path32" />
    </clipPath>
    <clipPath
       clipPathUnits="userSpaceOnUse"
       id="clipPath33">
      <path
         d="M 0,0 H 2016.6665 V 807.86346 H 0 Z"
         transform="matrix(0.33421154,0,0,0.33421154,-91.359375,-229)"
         clip-rule="evenodd"
         id="path33" />
    </clipPath>
    <clipPath
       clipPathUnits="userSpaceOnUse"
       id="clipPath35">
      <path
         d="M 0,0 H 2016.6665 V 807.86346 H 0 Z"
         transform="matrix(0.33421489,0,0,0.33421489,-0.49999999,-0.49999999)"
         clip-rule="evenodd"
         id="path35" />
    </clipPath>
    <clipPath
       clipPathUnits="userSpaceOnUse"
       id="clipPath36">
      <path
         d="M 0,0 H 2016.6665 V 807.86346 H 0 Z"
         transform="matrix(0.33421154,0,0,0.33421154,-386.45313,-22)"
         clip-rule="evenodd"
         id="path36" />
    </clipPath>
    <clipPath
       clipPathUnits="userSpaceOnUse"
       id="clipPath38">
      <path
         d="M 0,0 H 2016.6665 V 807.86346 H 0 Z"
         transform="matrix(0.33421489,0,0,0.33421489,-0.49999999,-0.49999999)"
         clip-rule="evenodd"
         id="path38" />
    </clipPath>
    <clipPath
       clipPathUnits="userSpaceOnUse"
       id="clipPath40">
      <path
         d="M 0,0 H 2016.6665 V 807.86346 H 0 Z"
         transform="matrix(0.33421489,0,0,0.33421489,-0.49999999,-0.49999999)"
         clip-rule="evenodd"
         id="path40" />
    </clipPath>
    <clipPath
       clipPathUnits="userSpaceOnUse"
       id="clipPath42">
      <path
         d="M 0,0 H 2016.6665 V 807.86346 H 0 Z"
         transform="matrix(0.33421489,0,0,0.33421489,-0.49999999,-0.49999999)"
         clip-rule="evenodd"
         id="path42" />
    </clipPath>
    <clipPath
       clipPathUnits="userSpaceOnUse"
       id="clipPath43">
      <path
         d="M 0,0 H 2016.6665 V 807.86346 H 0 Z"
         transform="matrix(0.33421154,0,0,0.33421154,-425.96875,-49.999999)"
         clip-rule="evenodd"
         id="path43" />
    </clipPath>
    <clipPath
       clipPathUnits="userSpaceOnUse"
       id="clipPath45">
      <path
         d="M 0,0 H 2016.6665 V 807.86346 H 0 Z"
         transform="matrix(0.33421489,0,0,0.33421489,-0.49999999,-0.49999999)"
         clip-rule="evenodd"
         id="path45" />
    </clipPath>
    <clipPath
       clipPathUnits="userSpaceOnUse"
       id="clipPath47">
      <path
         d="M 0,0 H 2016.6665 V 807.86346 H 0 Z"
         transform="matrix(0.33421489,0,0,0.33421489,-0.49999999,-0.49999999)"
         clip-rule="evenodd"
         id="path47" />
    </clipPath>
    <clipPath
       clipPathUnits="userSpaceOnUse"
       id="clipPath49">
      <path
         d="M 0,0 H 2016.6665 V 807.86346 H 0 Z"
         transform="matrix(0.33421489,0,0,0.33421489,-0.49999999,-0.49999999)"
         clip-rule="evenodd"
         id="path49" />
    </clipPath>
    <clipPath
       clipPathUnits="userSpaceOnUse"
       id="clipPath50">
      <path
         d="M 0,0 H 2016.6665 V 807.86346 H 0 Z"
         transform="matrix(0.33421154,0,0,0.33421154,-375.9375,-232)"
         clip-rule="evenodd"
         id="path50" />
    </clipPath>
    <clipPath
       clipPathUnits="userSpaceOnUse"
       id="clipPath52">
      <path
         d="M 0,0 H 2016.6665 V 807.86346 H 0 Z"
         transform="matrix(0.33421489,0,0,0.33421489,-0.49999999,-0.49999999)"
         clip-rule="evenodd"
         id="path52" />
    </clipPath>
    <clipPath
       clipPathUnits="userSpaceOnUse"
       id="clipPath53">
      <path
         d="M 0,0 H 2016.6665 V 807.86346 H 0 Z"
         transform="matrix(0.33421154,0,0,0.33421154,-377.9375,-260)"
         clip-rule="evenodd"
         id="path53" />
    </clipPath>
  </defs>
  <sodipodi:namedview
     id="namedview1"
     pagecolor="#ffffff"
     bordercolor="#000000"
     borderopacity="0.25"
     inkscape:showpageshadow="2"
     inkscape:pageopacity="0.0"
     inkscape:pagecheckerboard="0"
     inkscape:deskcolor="#d1d1d1">
    <inkscape:page
       x="0"
       y="0"
       inkscape:label="1"
       id="page1"
       width="645.44"
       height="259.84"
       margin="0"
       bleed="0" />
  </sodipodi:namedview>
  <g
     id="g1"
     inkscape:groupmode="layer"
     inkscape:label="1">
    <path
       id="path1"
       d="M 0,0 H 674 V 271 H 0 Z"
       style="fill:#ffffff;fill-opacity:1;fill-rule:nonzero;stroke:none"
       transform="scale(0.95746777)"
       clip-path="url(#clipPath2)" />
    <path
       id="path3"
       d="M 1,23 H 231 V 51 H 1 Z"
       style="fill:#dae8fc;fill-opacity:1;fill-rule:nonzero;stroke:#6c8ebf;stroke-width:1;stroke-linecap:butt;stroke-linejoin:miter;stroke-miterlimit:10;stroke-dasharray:none;stroke-opacity:1"
       transform="matrix(0.95746777,0,0,0.95746777,0.47873388,0.47873388)"
       clip-path="url(#clipPath4)" />
    <text
       id="text4"
       xml:space="preserve"
       transform="matrix(0.95747737,0,0,0.95747737,67.936011,42.129004)"
       clip-path="url(#clipPath5)"><tspan
         style="font-variant:normal;font-weight:700;font-size:18px;font-family:Helvetica;writing-mode:lr-tb;fill:#000000;fill-opacity:1;fill-rule:nonzero;stroke:none"
         x="0 10.010742 15.011719 25.022461 35.033203 45.043945 50.044922 63.043945 73.054688 83.06543"
         y="0"
         sodipodi:role="line"
         id="tspan4">class User</tspan></text>
    <path
       id="path6"
       d="M 1,51 H 231 V 79 H 1 Z"
       style="fill:#ffffff;fill-opacity:1;fill-rule:nonzero;stroke:#000000;stroke-width:1;stroke-linecap:butt;stroke-linejoin:miter;stroke-miterlimit:10;stroke-dasharray:none;stroke-opacity:1"
       transform="matrix(0.95746777,0,0,0.95746777,0.47873388,0.47873388)"
       clip-path="url(#clipPath7)" />
    <text
       id="text7"
       xml:space="preserve"
       transform="matrix(0.95747737,0,0,0.95747737,34.903042,68.938371)"
       clip-path="url(#clipPath8)"><tspan
         style="font-variant:normal;font-weight:normal;font-size:18px;font-family:Helvetica;writing-mode:lr-tb;fill:#000000;fill-opacity:1;fill-rule:nonzero;stroke:none"
         x="0 10.010742 15.011719 20.012695 26.006836 30.005859 40.016602 50.027344 55.02832 65.039062 74.039062 79.040039 83.056641 95.0625 100.06348 105.06445 111.05859 115.05762 125.06836 135.0791 140.08008 150.09082"
         y="0"
         sodipodi:role="line"
         id="tspan7">attributes: Attributes</tspan></text>
    <path
       id="path9"
       d="m 1,79 h 230 v 28 H 1 Z"
       style="fill:#ffffff;fill-opacity:1;fill-rule:nonzero;stroke:#000000;stroke-width:1;stroke-linecap:butt;stroke-linejoin:miter;stroke-miterlimit:10;stroke-dasharray:none;stroke-opacity:1"
       transform="matrix(0.95746777,0,0,0.95746777,0.47873388,0.47873388)"
       clip-path="url(#clipPath10)" />
    <text
       id="text10"
       xml:space="preserve"
       transform="matrix(0.95747737,0,0,0.95747737,54.531328,95.747737)"
       clip-path="url(#clipPath11)"><tspan
         style="font-variant:normal;font-weight:normal;font-size:18px;font-family:Helvetica;writing-mode:lr-tb;fill:#000000;fill-opacity:1;fill-rule:nonzero;stroke:none"
         x="0 10.010742 19.010742 29.021484 39.032227 44.033203 53.033203 58.03418 63.035156 75.041016 84.041016 94.051758 104.0625 109.06348"
         y="0"
         sodipodi:role="line"
         id="tspan10">events: Events</tspan></text>
    <path
       id="path12"
       d="m 231,121 h 25 V 95 h 18.63"
       style="fill:none;stroke:#000000;stroke-width:1;stroke-linecap:butt;stroke-linejoin:miter;stroke-miterlimit:10;stroke-dasharray:none;stroke-opacity:1"
       transform="matrix(0.95746777,0,0,0.95746777,0.47873388,0.47873388)"
       clip-path="url(#clipPath13)" />
    <path
       id="path14"
       d="m 279.88,95 -7,3.5 1.75,-3.5 -1.75,-3.5 z"
       style="fill:#000000;fill-opacity:1;fill-rule:nonzero;stroke:#000000;stroke-width:1;stroke-linecap:butt;stroke-linejoin:miter;stroke-miterlimit:10;stroke-dasharray:none;stroke-opacity:1"
       transform="matrix(0.95746777,0,0,0.95746777,0.47873388,0.47873388)"
       clip-path="url(#clipPath15)" />
    <path
       id="path16"
       d="m 1,107 h 230 v 28 H 1 Z"
       style="fill:#ffffff;fill-opacity:1;fill-rule:nonzero;stroke:#000000;stroke-width:1;stroke-linecap:butt;stroke-linejoin:miter;stroke-miterlimit:10;stroke-dasharray:none;stroke-opacity:1"
       transform="matrix(0.95746777,0,0,0.95746777,0.47873388,0.47873388)"
       clip-path="url(#clipPath17)" />
    <text
       id="text17"
       xml:space="preserve"
       transform="matrix(0.95747737,0,0,0.95747737,69.402149,122.5571)"
       clip-path="url(#clipPath18)"><tspan
         style="font-variant:normal;font-weight:normal;font-size:18px;font-family:Helvetica;writing-mode:lr-tb;fill:#000000;fill-opacity:1;fill-rule:nonzero;stroke:none"
         x="0 9 18 28.010742 37.010742 42.011719 47.012695 59.018555 68.018555 78.029297"
         y="0"
         sodipodi:role="line"
         id="tspan17">sync: Sync</tspan></text>
    <path
       id="path19"
       d="m 281,81 h 390 v 28 H 281 Z"
       style="fill:#dae8fc;fill-opacity:1;fill-rule:nonzero;stroke:#6c8ebf;stroke-width:1;stroke-linecap:butt;stroke-linejoin:miter;stroke-miterlimit:10;stroke-dasharray:none;stroke-opacity:1"
       transform="matrix(0.95746777,0,0,0.95746777,0.47873388,0.47873388)"
       clip-path="url(#clipPath20)" />
    <text
       id="text20"
       xml:space="preserve"
       transform="matrix(0.95747737,0,0,0.95747737,411.19165,97.662692)"
       clip-path="url(#clipPath21)"><tspan
         style="font-variant:normal;font-weight:700;font-size:18px;font-family:Helvetica;writing-mode:lr-tb;fill:#000000;fill-opacity:1;fill-rule:nonzero;stroke:none"
         x="0 10.010742 15.011719 25.022461 35.033203 45.043945 50.044922 62.050781 72.061523 83.056641"
         y="0"
         sodipodi:role="line"
         id="tspan20">class Sync</tspan></text>
    <path
       id="path22"
       d="m 281,109 h 390 v 28 H 281 Z"
       style="fill:#ffffff;fill-opacity:1;fill-rule:nonzero;stroke:#000000;stroke-width:1;stroke-linecap:butt;stroke-linejoin:miter;stroke-miterlimit:10;stroke-dasharray:none;stroke-opacity:1"
       transform="matrix(0.95746777,0,0,0.95746777,0.47873388,0.47873388)"
       clip-path="url(#clipPath23)" />
    <text
       id="text23"
       xml:space="preserve"
       transform="matrix(0.95747737,0,0,0.95747737,297.22192,124.47206)"
       clip-path="url(#clipPath24)"><tspan
         style="font-variant:normal;font-weight:normal;font-size:18px;font-family:Helvetica;writing-mode:lr-tb;fill:#000000;fill-opacity:1;fill-rule:nonzero;stroke:none"
         x="0 9 19.010742 28.010742 38.021484 44.015625 48.014648 58.025391 63.026367 68.027344 78.038086 88.048828 103.04297 108.04395 113.04492 122.04492 132.05566 138.0498 142.04883 152.05957 156.05859 160.05762 169.05762 179.06836 184.06934 189.07031 201.07617 211.08691 217.08105 221.08008 231.09082 235.08984 239.08887 248.08887 258.09961 268.11035 272.10938 282.12012 288.11426 293.11523 298.11621 307.11621 317.12695 321.12598"
         y="0"
         sodipodi:role="line"
         id="tspan23">save(id: num, serialize: Serializable): void</tspan></text>
    <path
       id="path25"
       d="m 281,137 h 390 v 28 H 281 Z"
       style="fill:#ffffff;fill-opacity:1;fill-rule:nonzero;stroke:#000000;stroke-width:1;stroke-linecap:butt;stroke-linejoin:miter;stroke-miterlimit:10;stroke-dasharray:none;stroke-opacity:1"
       transform="matrix(0.95746777,0,0,0.95746777,0.47873388,0.47873388)"
       clip-path="url(#clipPath26)" />
    <text
       id="text26"
       xml:space="preserve"
       transform="matrix(0.95747737,0,0,0.95747737,288.11092,151.28142)"
       clip-path="url(#clipPath27)"><tspan
         style="font-variant:normal;font-weight:normal;font-size:18px;font-family:Helvetica;writing-mode:lr-tb;fill:#000000;fill-opacity:1;fill-rule:nonzero;stroke:none"
         x="0 5.0009766 15.011719 20.012695 29.012695 39.023438 45.017578 49.016602 59.027344 64.02832 69.029297 79.040039 89.050781 104.04492 114.05566 124.06641 129.07617 134.07715 139.07812 149.08887 159.09961 168.09961 178.11035 184.10449 188.10352 198.11426 202.11328 207.11426 212.11523 225.11426 235.125 244.125 254.13574 260.12988 264.12891 274.13965 278.13867 282.1377 291.1377 301.14844 307.14258 312.14355 317.14453 326.14453 336.15527 340.1543"
         y="0"
         sodipodi:role="line"
         id="tspan26">fetch(id: number, deserial: Deserialize): void</tspan></text>
    <path
       id="path28"
       d="m 1,179 h 250 v 60 H 1 Z"
       style="fill:#f8cecc;fill-opacity:1;fill-rule:nonzero;stroke:#b85450;stroke-width:1;stroke-linecap:butt;stroke-linejoin:miter;stroke-miterlimit:10;stroke-dasharray:none;stroke-opacity:1"
       transform="matrix(0.95746777,0,0,0.95746777,0.47873388,0.47873388)"
       clip-path="url(#clipPath29)" />
    <text
       id="text29"
       xml:space="preserve"
       transform="matrix(0.95747737,0,0,0.95747737,6.1488,189.58052)"
       clip-path="url(#clipPath30)"><tspan
         style="font-variant:normal;font-weight:700;font-size:13px;font-family:Helvetica;writing-mode:lr-tb;fill:#000000;fill-opacity:1;fill-rule:nonzero;stroke:none"
         x="0 10.111816 18.052734 22.381836 25.993652 33.93457 41.875488 45.487305 52.717285 59.947266 63.559082 67.888184"
         y="0"
         sodipodi:role="line"
         id="tspan29">Option #2 - </tspan></text>
    <text
       id="text30"
       xml:space="preserve"
       transform="matrix(0.95747737,0,0,0.95747737,74.608432,189.58052)"
       clip-path="url(#clipPath31)"><tspan
         style="font-variant:normal;font-weight:normal;font-size:13px;font-family:Helvetica;writing-mode:lr-tb;fill:#000000;fill-opacity:1;fill-rule:nonzero;stroke:none"
         x="0 8.6708984 15.170898 22.400879 28.900879 32.512695 39.742676 46.242676 53.472656 60.702637 67.202637 70.814453 77.314453 80.92627 88.15625 92.485352 99.715332 106.94531 117.77441 125.00439 132.23438 135.84619 142.34619 145.95801 149.56982 156.7998 164.02979"
         y="0"
         sodipodi:role="line"
         id="tspan30">Sync expects arguments that</tspan></text>
    <text
       id="text31"
       xml:space="preserve"
       transform="matrix(0.95747737,0,0,0.95747737,34.199895,204.90016)"
       clip-path="url(#clipPath32)"><tspan
         style="font-variant:normal;font-weight:normal;font-size:13px;font-family:Helvetica;writing-mode:lr-tb;fill:#000000;fill-opacity:1;fill-rule:nonzero;stroke:none"
         x="0 6.5 13.72998 17.341797 20.22998 26.72998 30.341797 36.841797 40.453613 43.341797 50.571777 54.183594 61.413574 65.742676 69.354492 76.584473 83.084473 90.314453 96.814453 100.42627 102.9082 111.5791 118.80908 123.13818 126.02637 133.25635 136.14453 139.03271 145.53271 152.7627 155.24463 158.85645 166.08643 173.31641"
         y="0"
         sodipodi:role="line"
         id="tspan31">satisfy interfaces 'Serialize' and</tspan></text>
    <text
       id="text32"
       xml:space="preserve"
       transform="matrix(0.95747737,0,0,0.95747737,87.474534,219.26232)"
       clip-path="url(#clipPath33)"><tspan
         style="font-variant:normal;font-weight:normal;font-size:13px;font-family:Helvetica;writing-mode:lr-tb;fill:#000000;fill-opacity:1;fill-rule:nonzero;stroke:none"
         x="0 2.4819336 11.870117 19.100098 25.600098 32.830078 37.15918 40.047363 47.277344 50.165527 53.053711 59.553711 66.783691"
         y="0"
         sodipodi:role="line"
         id="tspan32">'Deserialize'</tspan></text>
    <path
       id="path34"
       d="M 361,1 H 591 V 29 H 361 Z"
       style="fill:#d5e8d4;fill-opacity:1;fill-rule:nonzero;stroke:#82b366;stroke-width:1;stroke-linecap:butt;stroke-linejoin:miter;stroke-miterlimit:10;stroke-dasharray:none;stroke-opacity:1"
       transform="matrix(0.95746777,0,0,0.95746777,0.47873388,0.47873388)"
       clip-path="url(#clipPath35)" />
    <text
       id="text35"
       xml:space="preserve"
       transform="matrix(0.95747737,0,0,0.95747737,370.02013,21.064502)"
       clip-path="url(#clipPath36)"><tspan
         style="font-variant:normal;font-weight:700;font-size:18px;font-family:Helvetica;writing-mode:lr-tb;fill:#000000;fill-opacity:1;fill-rule:nonzero;stroke:none"
         x="0 5.0009766 15.996094 21.990234 32.000977 39.005859 45 55.010742 65.021484 75.032227 80.033203 92.039062 102.0498 109.05469 114.05566 124.06641 129.06738 134.06836 143.06836 153.0791 164.07422 169.0752"
         y="0"
         sodipodi:role="line"
         id="tspan35">interface Serializable</tspan></text>
    <path
       id="path37"
       d="M 476,57 V 74.629997"
       style="fill:none;stroke:#000000;stroke-width:1;stroke-linecap:butt;stroke-linejoin:miter;stroke-miterlimit:10;stroke-dasharray:none;stroke-opacity:1"
       transform="matrix(0.95746777,0,0,0.95746777,0.47873388,0.47873388)"
       clip-path="url(#clipPath38)" />
    <path
       id="path39"
       d="m 476,79.879997 -3.5,-7 3.5,1.75 3.5,-1.75 z"
       style="fill:#000000;fill-opacity:1;fill-rule:nonzero;stroke:#000000;stroke-width:1;stroke-linecap:butt;stroke-linejoin:miter;stroke-miterlimit:10;stroke-dasharray:none;stroke-opacity:1"
       transform="matrix(0.95746777,0,0,0.95746777,0.47873388,0.47873388)"
       clip-path="url(#clipPath40)" />
    <path
       id="path41"
       d="M 361,29 H 591 V 57 H 361 Z"
       style="fill:#ffffff;fill-opacity:1;fill-rule:nonzero;stroke:#000000;stroke-width:1;stroke-linecap:butt;stroke-linejoin:miter;stroke-miterlimit:10;stroke-dasharray:none;stroke-opacity:1"
       transform="matrix(0.95746777,0,0,0.95746777,0.47873388,0.47873388)"
       clip-path="url(#clipPath42)" />
    <text
       id="text42"
       xml:space="preserve"
       transform="matrix(0.95747737,0,0,0.95747737,407.85544,47.873868)"
       clip-path="url(#clipPath43)"><tspan
         style="font-variant:normal;font-weight:normal;font-size:18px;font-family:Helvetica;writing-mode:lr-tb;fill:#000000;fill-opacity:1;fill-rule:nonzero;stroke:none"
         x="0 9 19.010742 25.004883 29.003906 39.014648 43.013672 47.012695 56.012695 66.023438 72.017578 78.011719 83.012695 88.013672 94.025391"
         y="0"
         sodipodi:role="line"
         id="tspan42">serialize(): {}</tspan></text>
    <path
       id="path44"
       d="M 476,211 V 171.37"
       style="fill:none;stroke:#000000;stroke-width:1;stroke-linecap:butt;stroke-linejoin:miter;stroke-miterlimit:10;stroke-dasharray:none;stroke-opacity:1"
       transform="matrix(0.95746777,0,0,0.95746777,0.47873388,0.47873388)"
       clip-path="url(#clipPath45)" />
    <path
       id="path46"
       d="m 476,166.11999 3.5,7.00001 -3.5,-1.75 -3.5,1.75 z"
       style="fill:#000000;fill-opacity:1;fill-rule:nonzero;stroke:#000000;stroke-width:1;stroke-linecap:butt;stroke-linejoin:miter;stroke-miterlimit:10;stroke-dasharray:none;stroke-opacity:1"
       transform="matrix(0.95746777,0,0,0.95746777,0.47873388,0.47873388)"
       clip-path="url(#clipPath47)" />
    <path
       id="path48"
       d="m 361,211 h 230 v 28 H 361 Z"
       style="fill:#d5e8d4;fill-opacity:1;fill-rule:nonzero;stroke:#82b366;stroke-width:1;stroke-linecap:butt;stroke-linejoin:miter;stroke-miterlimit:10;stroke-dasharray:none;stroke-opacity:1"
       transform="matrix(0.95746777,0,0,0.95746777,0.47873388,0.47873388)"
       clip-path="url(#clipPath49)" />
    <text
       id="text49"
       xml:space="preserve"
       transform="matrix(0.95747737,0,0,0.95747737,359.95165,222.13475)"
       clip-path="url(#clipPath50)"><tspan
         style="font-variant:normal;font-weight:700;font-size:18px;font-family:Helvetica;writing-mode:lr-tb;fill:#000000;fill-opacity:1;fill-rule:nonzero;stroke:none"
         x="0 5.0009766 15.996094 21.990234 32.000977 39.005859 45 55.010742 65.021484 75.032227 80.033203 93.032227 103.04297 113.05371 123.06445 130.06934 135.07031 145.08105 150.08203 155.08301 164.08301 174.09375 185.08887 190.08984"
         y="0"
         sodipodi:role="line"
         id="tspan49">interface Deserializable</tspan></text>
    <path
       id="path51"
       d="m 361,239 h 230 v 28 H 361 Z"
       style="fill:#ffffff;fill-opacity:1;fill-rule:nonzero;stroke:#000000;stroke-width:1;stroke-linecap:butt;stroke-linejoin:miter;stroke-miterlimit:10;stroke-dasharray:none;stroke-opacity:1"
       transform="matrix(0.95746777,0,0,0.95746777,0.47873388,0.47873388)"
       clip-path="url(#clipPath52)" />
    <text
       id="text52"
       xml:space="preserve"
       transform="matrix(0.95747737,0,0,0.95747737,361.8666,248.94412)"
       clip-path="url(#clipPath53)"><tspan
         style="font-variant:normal;font-weight:normal;font-size:18px;font-family:Helvetica;writing-mode:lr-tb;fill:#000000;fill-opacity:1;fill-rule:nonzero;stroke:none"
         x="0 10.010742 20.021484 29.021484 39.032227 45.026367 49.025391 59.036133 63.035156 67.03418 76.03418 86.044922 92.039062 96.038086 105.03809 115.04883 125.05957 130.06055 135.06152 141.07324 147.08496 153.0791 158.08008 163.08105 172.08105 182.0918 186.09082"
         y="0"
         sodipodi:role="line"
         id="tspan52">deserialize(json: {}): void</tspan></text>
  </g>
</svg>
