<?xml version="1.0" encoding="UTF-8" standalone="no"?>
<!-- Created with Inkscape (http://www.inkscape.org/) -->

<svg
   version="1.1"
   id="svg1"
   width="732.15997"
   height="412.16"
   viewBox="0 0 732.15997 412.16"
   sodipodi:docname="ts-16.pdf"
   xmlns:inkscape="http://www.inkscape.org/namespaces/inkscape"
   xmlns:sodipodi="http://sodipodi.sourceforge.net/DTD/sodipodi-0.dtd"
   xmlns="http://www.w3.org/2000/svg"
   xmlns:svg="http://www.w3.org/2000/svg">
  <defs
     id="defs1">
    <clipPath
       clipPathUnits="userSpaceOnUse"
       id="clipPath2">
      <path
         d="M 0,0 H 2287.5 V 1287.4673 H 0 Z"
         transform="scale(0.33398908)"
         clip-rule="evenodd"
         id="path2" />
    </clipPath>
    <clipPath
       clipPathUnits="userSpaceOnUse"
       id="clipPath4">
      <path
         d="M 0,0 H 2287.5 V 1281.479 H 0 Z"
         transform="matrix(0.33398908,0,0,0.33398908,-0.49999999,-0.49999999)"
         clip-rule="evenodd"
         id="path4" />
    </clipPath>
    <clipPath
       clipPathUnits="userSpaceOnUse"
       id="clipPath5">
      <path
         d="M 0,0 H 2287.5 V 1281.479 H 0 Z"
         transform="matrix(0.33398573,0,0,0.33398573,-100.95312,-334)"
         clip-rule="evenodd"
         id="path5" />
    </clipPath>
    <clipPath
       clipPathUnits="userSpaceOnUse"
       id="clipPath7">
      <path
         d="M 0,0 H 2287.5 V 1281.479 H 0 Z"
         transform="matrix(0.33398908,0,0,0.33398908,-0.49999999,-0.49999999)"
         clip-rule="evenodd"
         id="path7" />
    </clipPath>
    <clipPath
       clipPathUnits="userSpaceOnUse"
       id="clipPath8">
      <path
         d="M 0,0 H 2287.5 V 1281.479 H 0 Z"
         transform="matrix(0.33398573,0,0,0.33398573,-63.453125,-362)"
         clip-rule="evenodd"
         id="path8" />
    </clipPath>
    <clipPath
       clipPathUnits="userSpaceOnUse"
       id="clipPath10">
      <path
         d="M 0,0 H 2287.5 V 1281.479 H 0 Z"
         transform="matrix(0.33398908,0,0,0.33398908,-0.49999999,-0.49999999)"
         clip-rule="evenodd"
         id="path10" />
    </clipPath>
    <clipPath
       clipPathUnits="userSpaceOnUse"
       id="clipPath11">
      <path
         d="M 0,0 H 2287.5 V 1281.479 H 0 Z"
         transform="matrix(0.33398573,0,0,0.33398573,-84.453124,-390)"
         clip-rule="evenodd"
         id="path11" />
    </clipPath>
    <clipPath
       clipPathUnits="userSpaceOnUse"
       id="clipPath13">
      <path
         d="M 0,0 H 2287.5 V 1281.479 H 0 Z"
         transform="matrix(0.33398908,0,0,0.33398908,-0.49999999,-0.49999999)"
         clip-rule="evenodd"
         id="path13" />
    </clipPath>
    <clipPath
       clipPathUnits="userSpaceOnUse"
       id="clipPath14">
      <path
         d="M 0,0 H 2287.5 V 1281.479 H 0 Z"
         transform="matrix(0.33398573,0,0,0.33398573,-99.984375,-418)"
         clip-rule="evenodd"
         id="path14" />
    </clipPath>
    <clipPath
       clipPathUnits="userSpaceOnUse"
       id="clipPath16">
      <path
         d="M 0,0 H 2287.5 V 1281.479 H 0 Z"
         transform="matrix(0.33398908,0,0,0.33398908,-0.49999999,-0.49999999)"
         clip-rule="evenodd"
         id="path16" />
    </clipPath>
    <clipPath
       clipPathUnits="userSpaceOnUse"
       id="clipPath17">
      <path
         d="M 0,0 H 2287.5 V 1281.479 H 0 Z"
         transform="matrix(0.33398573,0,0,0.33398573,-81.96875,-236)"
         clip-rule="evenodd"
         id="path17" />
    </clipPath>
    <clipPath
       clipPathUnits="userSpaceOnUse"
       id="clipPath19">
      <path
         d="M 0,0 H 2287.5 V 1281.479 H 0 Z"
         transform="matrix(0.33398908,0,0,0.33398908,-0.49999999,-0.49999999)"
         clip-rule="evenodd"
         id="path19" />
    </clipPath>
    <clipPath
       clipPathUnits="userSpaceOnUse"
       id="clipPath20">
      <path
         d="M 0,0 H 2287.5 V 1281.479 H 0 Z"
         transform="matrix(0.33398573,0,0,0.33398573,-39.953125,-264)"
         clip-rule="evenodd"
         id="path20" />
    </clipPath>
    <clipPath
       clipPathUnits="userSpaceOnUse"
       id="clipPath22">
      <path
         d="M 0,0 H 2287.5 V 1281.479 H 0 Z"
         transform="matrix(0.33398908,0,0,0.33398908,-0.49999999,-0.49999999)"
         clip-rule="evenodd"
         id="path22" />
    </clipPath>
    <clipPath
       clipPathUnits="userSpaceOnUse"
       id="clipPath23">
      <path
         d="M 0,0 H 2287.5 V 1281.479 H 0 Z"
         transform="matrix(0.33398573,0,0,0.33398573,-73.968749,-146)"
         clip-rule="evenodd"
         id="path23" />
    </clipPath>
    <clipPath
       clipPathUnits="userSpaceOnUse"
       id="clipPath25">
      <path
         d="M 0,0 H 2287.5 V 1281.479 H 0 Z"
         transform="matrix(0.33398908,0,0,0.33398908,-0.49999999,-0.49999999)"
         clip-rule="evenodd"
         id="path25" />
    </clipPath>
    <clipPath
       clipPathUnits="userSpaceOnUse"
       id="clipPath26">
      <path
         d="M 0,0 H 2287.5 V 1281.479 H 0 Z"
         transform="matrix(0.33398573,0,0,0.33398573,-21.4375,-174)"
         clip-rule="evenodd"
         id="path26" />
    </clipPath>
    <clipPath
       clipPathUnits="userSpaceOnUse"
       id="clipPath28">
      <path
         d="M 0,0 H 2287.5 V 1281.479 H 0 Z"
         transform="matrix(0.33398908,0,0,0.33398908,-0.49999999,-0.49999999)"
         clip-rule="evenodd"
         id="path28" />
    </clipPath>
    <clipPath
       clipPathUnits="userSpaceOnUse"
       id="clipPath29">
      <path
         d="M 0,0 H 2287.5 V 1281.479 H 0 Z"
         transform="matrix(0.33398573,0,0,0.33398573,-60.96875,-26)"
         clip-rule="evenodd"
         id="path29" />
    </clipPath>
    <clipPath
       clipPathUnits="userSpaceOnUse"
       id="clipPath31">
      <path
         d="M 0,0 H 2287.5 V 1281.479 H 0 Z"
         transform="matrix(0.33398908,0,0,0.33398908,-0.49999999,-0.49999999)"
         clip-rule="evenodd"
         id="path31" />
    </clipPath>
    <clipPath
       clipPathUnits="userSpaceOnUse"
       id="clipPath32">
      <path
         d="M 0,0 H 2287.5 V 1281.479 H 0 Z"
         transform="matrix(0.33398573,0,0,0.33398573,-106.48437,-54)"
         clip-rule="evenodd"
         id="path32" />
    </clipPath>
    <clipPath
       clipPathUnits="userSpaceOnUse"
       id="clipPath34">
      <path
         d="M 0,0 H 2287.5 V 1281.479 H 0 Z"
         transform="matrix(0.33398908,0,0,0.33398908,-0.49999999,-0.49999999)"
         clip-rule="evenodd"
         id="path34" />
    </clipPath>
    <clipPath
       clipPathUnits="userSpaceOnUse"
       id="clipPath35">
      <path
         d="M 0,0 H 2287.5 V 1281.479 H 0 Z"
         transform="matrix(0.33398573,0,0,0.33398573,-106.14063,-81)"
         clip-rule="evenodd"
         id="path35" />
    </clipPath>
    <clipPath
       clipPathUnits="userSpaceOnUse"
       id="clipPath37">
      <path
         d="M 0,0 H 2287.5 V 1281.479 H 0 Z"
         transform="matrix(0.33398908,0,0,0.33398908,-0.49999999,-0.49999999)"
         clip-rule="evenodd"
         id="path37" />
    </clipPath>
    <clipPath
       clipPathUnits="userSpaceOnUse"
       id="clipPath38">
      <path
         d="M 0,0 H 2287.5 V 1281.479 H 0 Z"
         transform="matrix(0.33398573,0,0,0.33398573,-107.14062,-109)"
         clip-rule="evenodd"
         id="path38" />
    </clipPath>
    <clipPath
       clipPathUnits="userSpaceOnUse"
       id="clipPath40">
      <path
         d="M 0,0 H 2287.5 V 1281.479 H 0 Z"
         transform="matrix(0.33398908,0,0,0.33398908,-0.49999999,-0.49999999)"
         clip-rule="evenodd"
         id="path40" />
    </clipPath>
    <clipPath
       clipPathUnits="userSpaceOnUse"
       id="clipPath41">
      <path
         d="M 0,0 H 2287.5 V 1281.479 H 0 Z"
         transform="matrix(0.33398573,0,0,0.33398573,-43.453125,-202)"
         clip-rule="evenodd"
         id="path41" />
    </clipPath>
    <clipPath
       clipPathUnits="userSpaceOnUse"
       id="clipPath43">
      <path
         d="M 0,0 H 2287.5 V 1281.479 H 0 Z"
         transform="matrix(0.33398908,0,0,0.33398908,-0.49999999,-0.49999999)"
         clip-rule="evenodd"
         id="path43" />
    </clipPath>
    <clipPath
       clipPathUnits="userSpaceOnUse"
       id="clipPath44">
      <path
         d="M 0,0 H 2287.5 V 1281.479 H 0 Z"
         transform="matrix(0.33398573,0,0,0.33398573,-55.140625,-292)"
         clip-rule="evenodd"
         id="path44" />
    </clipPath>
    <clipPath
       clipPathUnits="userSpaceOnUse"
       id="clipPath46">
      <path
         d="M 0,0 H 2287.5 V 1281.479 H 0 Z"
         transform="matrix(0.33398908,0,0,0.33398908,-0.49999999,-0.49999999)"
         clip-rule="evenodd"
         id="path46" />
    </clipPath>
    <clipPath
       clipPathUnits="userSpaceOnUse"
       id="clipPath47">
      <path
         d="M 0,0 H 2287.5 V 1281.479 H 0 Z"
         transform="matrix(0.33398573,0,0,0.33398573,-548.79688,-22)"
         clip-rule="evenodd"
         id="path47" />
    </clipPath>
    <clipPath
       clipPathUnits="userSpaceOnUse"
       id="clipPath49">
      <path
         d="M 0,0 H 2287.5 V 1281.479 H 0 Z"
         transform="matrix(0.33398908,0,0,0.33398908,-0.49999999,-0.49999999)"
         clip-rule="evenodd"
         id="path49" />
    </clipPath>
    <clipPath
       clipPathUnits="userSpaceOnUse"
       id="clipPath50">
      <path
         d="M 0,0 H 2287.5 V 1281.479 H 0 Z"
         transform="matrix(0.33398573,0,0,0.33398573,-576.48438,-49.999999)"
         clip-rule="evenodd"
         id="path50" />
    </clipPath>
    <clipPath
       clipPathUnits="userSpaceOnUse"
       id="clipPath52">
      <path
         d="M 0,0 H 2287.5 V 1281.479 H 0 Z"
         transform="matrix(0.33398908,0,0,0.33398908,-0.49999999,-0.49999999)"
         clip-rule="evenodd"
         id="path52" />
    </clipPath>
    <clipPath
       clipPathUnits="userSpaceOnUse"
       id="clipPath53">
      <path
         d="M 0,0 H 2287.5 V 1281.479 H 0 Z"
         transform="matrix(0.33398573,0,0,0.33398573,-576.14062,-77)"
         clip-rule="evenodd"
         id="path53" />
    </clipPath>
    <clipPath
       clipPathUnits="userSpaceOnUse"
       id="clipPath55">
      <path
         d="M 0,0 H 2287.5 V 1281.479 H 0 Z"
         transform="matrix(0.33398908,0,0,0.33398908,-0.49999999,-0.49999999)"
         clip-rule="evenodd"
         id="path55" />
    </clipPath>
    <clipPath
       clipPathUnits="userSpaceOnUse"
       id="clipPath56">
      <path
         d="M 0,0 H 2287.5 V 1281.479 H 0 Z"
         transform="matrix(0.33398573,0,0,0.33398573,-577.14063,-105)"
         clip-rule="evenodd"
         id="path56" />
    </clipPath>
    <clipPath
       clipPathUnits="userSpaceOnUse"
       id="clipPath58">
      <path
         d="M 0,0 H 2287.5 V 1281.479 H 0 Z"
         transform="matrix(0.33398908,0,0,0.33398908,-0.49999999,-0.49999999)"
         clip-rule="evenodd"
         id="path58" />
    </clipPath>
    <clipPath
       clipPathUnits="userSpaceOnUse"
       id="clipPath59">
      <path
         d="M 0,0 H 2287.5 V 1281.479 H 0 Z"
         transform="matrix(0.33398573,0,0,0.33398573,-561.45313,-158)"
         clip-rule="evenodd"
         id="path59" />
    </clipPath>
    <clipPath
       clipPathUnits="userSpaceOnUse"
       id="clipPath61">
      <path
         d="M 0,0 H 2287.5 V 1281.479 H 0 Z"
         transform="matrix(0.33398908,0,0,0.33398908,-0.49999999,-0.49999999)"
         clip-rule="evenodd"
         id="path61" />
    </clipPath>
    <clipPath
       clipPathUnits="userSpaceOnUse"
       id="clipPath62">
      <path
         d="M 0,0 H 2287.5 V 1281.479 H 0 Z"
         transform="matrix(0.33398573,0,0,0.33398573,-569.45313,-268)"
         clip-rule="evenodd"
         id="path62" />
    </clipPath>
    <clipPath
       clipPathUnits="userSpaceOnUse"
       id="clipPath64">
      <path
         d="M 0,0 H 2287.5 V 1281.479 H 0 Z"
         transform="matrix(0.33398908,0,0,0.33398908,-0.49999999,-0.49999999)"
         clip-rule="evenodd"
         id="path64" />
    </clipPath>
    <clipPath
       clipPathUnits="userSpaceOnUse"
       id="clipPath65">
      <path
         d="M 0,0 H 2287.5 V 1281.479 H 0 Z"
         transform="matrix(0.33398573,0,0,0.33398573,-491.4375,-187)"
         clip-rule="evenodd"
         id="path65" />
    </clipPath>
    <clipPath
       clipPathUnits="userSpaceOnUse"
       id="clipPath67">
      <path
         d="M 0,0 H 2287.5 V 1281.479 H 0 Z"
         transform="matrix(0.33398908,0,0,0.33398908,-0.49999999,-0.49999999)"
         clip-rule="evenodd"
         id="path67" />
    </clipPath>
    <clipPath
       clipPathUnits="userSpaceOnUse"
       id="clipPath68">
      <path
         d="M 0,0 H 2287.5 V 1281.479 H 0 Z"
         transform="matrix(0.33398573,0,0,0.33398573,-513.45313,-214)"
         clip-rule="evenodd"
         id="path68" />
    </clipPath>
    <clipPath
       clipPathUnits="userSpaceOnUse"
       id="clipPath70">
      <path
         d="M 0,0 H 2287.5 V 1281.479 H 0 Z"
         transform="matrix(0.33398908,0,0,0.33398908,-0.49999999,-0.49999999)"
         clip-rule="evenodd"
         id="path70" />
    </clipPath>
    <clipPath
       clipPathUnits="userSpaceOnUse"
       id="clipPath71">
      <path
         d="M 0,0 H 2287.5 V 1281.479 H 0 Z"
         transform="matrix(0.33398573,0,0,0.33398573,-509.95312,-296)"
         clip-rule="evenodd"
         id="path71" />
    </clipPath>
    <clipPath
       clipPathUnits="userSpaceOnUse"
       id="clipPath73">
      <path
         d="M 0,0 H 2287.5 V 1281.479 H 0 Z"
         transform="matrix(0.33398908,0,0,0.33398908,-0.49999999,-0.49999999)"
         clip-rule="evenodd"
         id="path73" />
    </clipPath>
    <clipPath
       clipPathUnits="userSpaceOnUse"
       id="clipPath74">
      <path
         d="M 0,0 H 2287.5 V 1281.479 H 0 Z"
         transform="matrix(0.33398573,0,0,0.33398573,-525.14063,-324)"
         clip-rule="evenodd"
         id="path74" />
    </clipPath>
  </defs>
  <sodipodi:namedview
     id="namedview1"
     pagecolor="#ffffff"
     bordercolor="#000000"
     borderopacity="0.25"
     inkscape:showpageshadow="2"
     inkscape:pageopacity="0.0"
     inkscape:pagecheckerboard="0"
     inkscape:deskcolor="#d1d1d1">
    <inkscape:page
       x="0"
       y="0"
       inkscape:label="1"
       id="page1"
       width="732.15997"
       height="412.16"
       margin="0"
       bleed="0" />
  </sodipodi:namedview>
  <g
     id="g1"
     inkscape:groupmode="layer"
     inkscape:label="1">
    <path
       id="path1"
       d="M 0,0 H 764 V 430 H 0 Z"
       style="fill:#ffffff;fill-opacity:1;fill-rule:nonzero;stroke:none"
       transform="scale(0.95811513)"
       clip-path="url(#clipPath2)" />
    <path
       id="path3"
       d="m 1,313 h 290 v 28 H 1 Z"
       style="fill:#dae8fc;fill-opacity:1;fill-rule:nonzero;stroke:#6c8ebf;stroke-width:1;stroke-linecap:butt;stroke-linejoin:miter;stroke-miterlimit:10;stroke-dasharray:none;stroke-opacity:1"
       transform="matrix(0.95811513,0,0,0.95811513,0.47905756,0.47905756)"
       clip-path="url(#clipPath4)" />
    <text
       id="text4"
       xml:space="preserve"
       transform="matrix(0.95812473,0,0,0.95812473,96.725685,320.01366)"
       clip-path="url(#clipPath5)"><tspan
         style="font-variant:normal;font-weight:700;font-size:18px;font-family:Helvetica;writing-mode:lr-tb;fill:#000000;fill-opacity:1;fill-rule:nonzero;stroke:none"
         x="0 10.010742 15.011719 25.022461 35.033203 45.043945 50.044922 63.043945 73.054688 83.06543"
         y="0"
         sodipodi:role="line"
         id="tspan4">class User</tspan></text>
    <path
       id="path6"
       d="m 1,341 h 290 v 28 H 1 Z"
       style="fill:#ffffff;fill-opacity:1;fill-rule:nonzero;stroke:#000000;stroke-width:1;stroke-linecap:butt;stroke-linejoin:miter;stroke-miterlimit:10;stroke-dasharray:none;stroke-opacity:1"
       transform="matrix(0.95811513,0,0,0.95811513,0.47905756,0.47905756)"
       clip-path="url(#clipPath7)" />
    <text
       id="text7"
       xml:space="preserve"
       transform="matrix(0.95812473,0,0,0.95812473,60.796008,346.84115)"
       clip-path="url(#clipPath8)"><tspan
         style="font-variant:normal;font-weight:normal;font-size:18px;font-family:Helvetica;writing-mode:lr-tb;fill:#000000;fill-opacity:1;fill-rule:nonzero;stroke:none"
         x="0 10.010742 15.011719 20.012695 26.006836 30.005859 40.016602 50.027344 55.02832 65.039062 74.039062 79.040039 84.041016 89.041992 101.04785 106.04883 111.0498 117.04395 121.04297 131.05371 141.06445 146.06543 156.07617"
         y="0"
         sodipodi:role="line"
         id="tspan7">attributes: IAttributes</tspan></text>
    <path
       id="path9"
       d="m 1,369 h 290 v 28 H 1 Z"
       style="fill:#ffffff;fill-opacity:1;fill-rule:nonzero;stroke:#000000;stroke-width:1;stroke-linecap:butt;stroke-linejoin:miter;stroke-miterlimit:10;stroke-dasharray:none;stroke-opacity:1"
       transform="matrix(0.95811513,0,0,0.95811513,0.47905756,0.47905756)"
       clip-path="url(#clipPath10)" />
    <text
       id="text10"
       xml:space="preserve"
       transform="matrix(0.95812473,0,0,0.95812473,80.916627,373.66864)"
       clip-path="url(#clipPath11)"><tspan
         style="font-variant:normal;font-weight:normal;font-size:18px;font-family:Helvetica;writing-mode:lr-tb;fill:#000000;fill-opacity:1;fill-rule:nonzero;stroke:none"
         x="0 10.010742 19.010742 29.021484 39.032227 44.033203 53.033203 58.03418 63.035156 68.036133 80.041992 89.041992 99.052734 109.06348 114.06445"
         y="0"
         sodipodi:role="line"
         id="tspan10">events: IEvents</tspan></text>
    <path
       id="path12"
       d="m 1,397 h 290 v 28 H 1 Z"
       style="fill:#ffffff;fill-opacity:1;fill-rule:nonzero;stroke:#000000;stroke-width:1;stroke-linecap:butt;stroke-linejoin:miter;stroke-miterlimit:10;stroke-dasharray:none;stroke-opacity:1"
       transform="matrix(0.95811513,0,0,0.95811513,0.47905756,0.47905756)"
       clip-path="url(#clipPath13)" />
    <text
       id="text13"
       xml:space="preserve"
       transform="matrix(0.95812473,0,0,0.95812473,95.797502,400.49614)"
       clip-path="url(#clipPath14)"><tspan
         style="font-variant:normal;font-weight:normal;font-size:18px;font-family:Helvetica;writing-mode:lr-tb;fill:#000000;fill-opacity:1;fill-rule:nonzero;stroke:none"
         x="0 9 18 28.010742 37.010742 42.011719 47.012695 52.013672 64.019531 73.019531 83.030273"
         y="0"
         sodipodi:role="line"
         id="tspan13">sync: ISync</tspan></text>
    <path
       id="path15"
       d="m 1,215 h 290 v 28 H 1 Z"
       style="fill:#d5e8d4;fill-opacity:1;fill-rule:nonzero;stroke:#82b366;stroke-width:1;stroke-linecap:butt;stroke-linejoin:miter;stroke-miterlimit:10;stroke-dasharray:none;stroke-opacity:1"
       transform="matrix(0.95811513,0,0,0.95811513,0.47905756,0.47905756)"
       clip-path="url(#clipPath16)" />
    <text
       id="text16"
       xml:space="preserve"
       transform="matrix(0.95812473,0,0,0.95812473,78.536286,226.11744)"
       clip-path="url(#clipPath17)"><tspan
         style="font-variant:normal;font-weight:700;font-size:18px;font-family:Helvetica;writing-mode:lr-tb;fill:#000000;fill-opacity:1;fill-rule:nonzero;stroke:none"
         x="0 5.0009766 15.996094 21.990234 32.000977 39.005859 45 55.010742 65.021484 75.032227 80.033203 85.03418 97.040039 107.05078 118.0459"
         y="0"
         sodipodi:role="line"
         id="tspan16">interface ISync</tspan></text>
    <path
       id="path18"
       d="m 1,243 h 290 v 28 H 1 Z"
       style="fill:#ffffff;fill-opacity:1;fill-rule:nonzero;stroke:#000000;stroke-width:1;stroke-linecap:butt;stroke-linejoin:miter;stroke-miterlimit:10;stroke-dasharray:none;stroke-opacity:1"
       transform="matrix(0.95811513,0,0,0.95811513,0.47905756,0.47905756)"
       clip-path="url(#clipPath19)" />
    <text
       id="text19"
       xml:space="preserve"
       transform="matrix(0.95812473,0,0,0.95812473,38.280077,252.94493)"
       clip-path="url(#clipPath20)"><tspan
         style="font-variant:normal;font-weight:normal;font-size:18px;font-family:Helvetica;writing-mode:lr-tb;fill:#000000;fill-opacity:1;fill-rule:nonzero;stroke:none"
         x="0 5.0009766 15.011719 20.012695 29.012695 39.023438 45.017578 49.016602 59.027344 64.02832 69.029297 79.040039 89.050781 104.04492 114.05566 124.06641 130.06055 136.05469 141.05566 146.05664 158.0625 164.05664 174.06738 189.06152 193.06055 202.06055"
         y="0"
         sodipodi:role="line"
         id="tspan19">fetch(id: number): Promise</tspan></text>
    <path
       id="path21"
       d="m 1,125 h 290 v 28 H 1 Z"
       style="fill:#d5e8d4;fill-opacity:1;fill-rule:nonzero;stroke:#82b366;stroke-width:1;stroke-linecap:butt;stroke-linejoin:miter;stroke-miterlimit:10;stroke-dasharray:none;stroke-opacity:1"
       transform="matrix(0.95811513,0,0,0.95811513,0.47905756,0.47905756)"
       clip-path="url(#clipPath22)" />
    <text
       id="text22"
       xml:space="preserve"
       transform="matrix(0.95812473,0,0,0.95812473,70.871288,139.88621)"
       clip-path="url(#clipPath23)"><tspan
         style="font-variant:normal;font-weight:700;font-size:18px;font-family:Helvetica;writing-mode:lr-tb;fill:#000000;fill-opacity:1;fill-rule:nonzero;stroke:none"
         x="0 5.0009766 15.996094 21.990234 32.000977 39.005859 45 55.010742 65.021484 75.032227 80.033203 85.03418 97.040039 107.05078 117.06152 128.05664 134.05078"
         y="0"
         sodipodi:role="line"
         id="tspan22">interface IEvents</tspan></text>
    <path
       id="path24"
       d="m 1,153 h 290 v 28 H 1 Z"
       style="fill:#ffffff;fill-opacity:1;fill-rule:nonzero;stroke:#000000;stroke-width:1;stroke-linecap:butt;stroke-linejoin:miter;stroke-miterlimit:10;stroke-dasharray:none;stroke-opacity:1"
       transform="matrix(0.95811513,0,0,0.95811513,0.47905756,0.47905756)"
       clip-path="url(#clipPath25)" />
    <text
       id="text25"
       xml:space="preserve"
       transform="matrix(0.95812473,0,0,0.95812473,20.539799,166.7137)"
       clip-path="url(#clipPath26)"><tspan
         style="font-variant:normal;font-weight:normal;font-size:18px;font-family:Helvetica;writing-mode:lr-tb;fill:#000000;fill-opacity:1;fill-rule:nonzero;stroke:none"
         x="0 10.010742 20.021484 26.015625 36.026367 46.037109 61.03125 71.041992 76.042969 81.043945 90.043945 95.044922 101.03906 105.03809 115.04883 125.05957 130.06055 135.06152 144.06152 154.07227 158.07129 162.07031 172.08105 182.0918 191.0918 200.0918 206.08594 211.08691 216.08789 225.08789 235.09863 239.09766"
         y="0"
         sodipodi:role="line"
         id="tspan25">on(name: string, callback): void</tspan></text>
    <path
       id="path27"
       d="M 1,5 H 291 V 33 H 1 Z"
       style="fill:#d5e8d4;fill-opacity:1;fill-rule:nonzero;stroke:#82b366;stroke-width:1;stroke-linecap:butt;stroke-linejoin:miter;stroke-miterlimit:10;stroke-dasharray:none;stroke-opacity:1"
       transform="matrix(0.95811513,0,0,0.95811513,0.47905756,0.47905756)"
       clip-path="url(#clipPath28)" />
    <text
       id="text28"
       xml:space="preserve"
       transform="matrix(0.95812473,0,0,0.95812473,58.415667,24.911243)"
       clip-path="url(#clipPath29)"><tspan
         style="font-variant:normal;font-weight:700;font-size:18px;font-family:Helvetica;writing-mode:lr-tb;fill:#000000;fill-opacity:1;fill-rule:nonzero;stroke:none"
         x="0 5.0009766 15.996094 21.990234 32.000977 39.005859 45 55.010742 65.021484 75.032227 80.033203 85.03418 98.033203 104.02734 110.02148 117.02637 122.02734 133.02246 144.01758 150.01172 160.02246"
         y="0"
         sodipodi:role="line"
         id="tspan28">interface IAttributes</tspan></text>
    <path
       id="path30"
       d="M 1,33 H 291 V 61 H 1 Z"
       style="fill:#ffffff;fill-opacity:1;fill-rule:nonzero;stroke:#000000;stroke-width:1;stroke-linecap:butt;stroke-linejoin:miter;stroke-miterlimit:10;stroke-dasharray:none;stroke-opacity:1"
       transform="matrix(0.95811513,0,0,0.95811513,0.47905756,0.47905756)"
       clip-path="url(#clipPath31)" />
    <text
       id="text31"
       xml:space="preserve"
       transform="matrix(0.95812473,0,0,0.95812473,102.02531,51.738735)"
       clip-path="url(#clipPath32)"><tspan
         style="font-variant:normal;font-weight:normal;font-size:18px;font-family:Helvetica;writing-mode:lr-tb;fill:#000000;fill-opacity:1;fill-rule:nonzero;stroke:none"
         x="0 9 19.010742 24.011719 30.005859 36 41.000977 46.001953 55.001953 65.012695 69.011719"
         y="0"
         sodipodi:role="line"
         id="tspan31">set(): void</tspan></text>
    <path
       id="path33"
       d="M 1,60 H 291 V 88 H 1 Z"
       style="fill:#ffffff;fill-opacity:1;fill-rule:nonzero;stroke:#000000;stroke-width:1;stroke-linecap:butt;stroke-linejoin:miter;stroke-miterlimit:10;stroke-dasharray:none;stroke-opacity:1"
       transform="matrix(0.95811513,0,0,0.95811513,0.47905756,0.47905756)"
       clip-path="url(#clipPath34)" />
    <text
       id="text34"
       xml:space="preserve"
       transform="matrix(0.95812473,0,0,0.95812473,101.69596,77.608103)"
       clip-path="url(#clipPath35)"><tspan
         style="font-variant:normal;font-weight:normal;font-size:18px;font-family:Helvetica;writing-mode:lr-tb;fill:#000000;fill-opacity:1;fill-rule:nonzero;stroke:none"
         x="0 10.010742 20.021484 25.022461 31.016602 37.010742 42.011719 46.696289 57.691406 62.692383 74.698242"
         y="0"
         sodipodi:role="line"
         id="tspan34">get(): T[K]</tspan></text>
    <path
       id="path36"
       d="m 1,88 h 290 v 28 H 1 Z"
       style="fill:#ffffff;fill-opacity:1;fill-rule:nonzero;stroke:#000000;stroke-width:1;stroke-linecap:butt;stroke-linejoin:miter;stroke-miterlimit:10;stroke-dasharray:none;stroke-opacity:1"
       transform="matrix(0.95811513,0,0,0.95811513,0.47905756,0.47905756)"
       clip-path="url(#clipPath37)" />
    <text
       id="text37"
       xml:space="preserve"
       transform="matrix(0.95812473,0,0,0.95812473,102.65408,104.4356)"
       clip-path="url(#clipPath38)"><tspan
         style="font-variant:normal;font-weight:normal;font-size:18px;font-family:Helvetica;writing-mode:lr-tb;fill:#000000;fill-opacity:1;fill-rule:nonzero;stroke:none"
         x="0 10.010742 20.021484 25.022461 37.02832 41.027344 45.026367 51.020508 57.014648 62.015625 66.700195"
         y="0"
         sodipodi:role="line"
         id="tspan37">getAll(): T</tspan></text>
    <path
       id="path39"
       d="m 1,181 h 290 v 28 H 1 Z"
       style="fill:#ffffff;fill-opacity:1;fill-rule:nonzero;stroke:#000000;stroke-width:1;stroke-linecap:butt;stroke-linejoin:miter;stroke-miterlimit:10;stroke-dasharray:none;stroke-opacity:1"
       transform="matrix(0.95811513,0,0,0.95811513,0.47905756,0.47905756)"
       clip-path="url(#clipPath40)" />
    <text
       id="text40"
       xml:space="preserve"
       transform="matrix(0.95812473,0,0,0.95812473,41.633514,193.5412)"
       clip-path="url(#clipPath41)"><tspan
         style="font-variant:normal;font-weight:normal;font-size:18px;font-family:Helvetica;writing-mode:lr-tb;fill:#000000;fill-opacity:1;fill-rule:nonzero;stroke:none"
         x="0 5.0009766 10.995117 14.994141 25.004883 35.015625 45.026367 51.020508 57.014648 67.025391 77.036133 92.030273 102.04102 107.04199 112.04297 121.04297 126.04395 132.03809 136.03711 146.04785 156.05859 162.05273 167.05371 172.05469 181.05469 191.06543 195.06445"
         y="0"
         sodipodi:role="line"
         id="tspan40">trigger(name: string): void</tspan></text>
    <path
       id="path42"
       d="m 1,271 h 290 v 28 H 1 Z"
       style="fill:#ffffff;fill-opacity:1;fill-rule:nonzero;stroke:#000000;stroke-width:1;stroke-linecap:butt;stroke-linejoin:miter;stroke-miterlimit:10;stroke-dasharray:none;stroke-opacity:1"
       transform="matrix(0.95811513,0,0,0.95811513,0.47905756,0.47905756)"
       clip-path="url(#clipPath43)" />
    <text
       id="text43"
       xml:space="preserve"
       transform="matrix(0.95812473,0,0,0.95812473,52.831596,279.77242)"
       clip-path="url(#clipPath44)"><tspan
         style="font-variant:normal;font-weight:normal;font-size:18px;font-family:Helvetica;writing-mode:lr-tb;fill:#000000;fill-opacity:1;fill-rule:nonzero;stroke:none"
         x="0 9 19.010742 28.010742 38.021484 44.015625 54.026367 59.027344 64.02832 70.022461 79.022461 84.023438 88.708008 99.703125 105.69727 110.69824 115.69922 127.70508 133.69922 143.70996 158.7041 162.70312 171.70312"
         y="0"
         sodipodi:role="line"
         id="tspan43">save(attrs: T): Promise</tspan></text>
    <path
       id="path45"
       d="M 471,1 H 761 V 29 H 471 Z"
       style="fill:#dae8fc;fill-opacity:1;fill-rule:nonzero;stroke:#6c8ebf;stroke-width:1;stroke-linecap:butt;stroke-linejoin:miter;stroke-miterlimit:10;stroke-dasharray:none;stroke-opacity:1"
       transform="matrix(0.95811513,0,0,0.95811513,0.47905756,0.47905756)"
       clip-path="url(#clipPath46)" />
    <text
       id="text46"
       xml:space="preserve"
       transform="matrix(0.95812473,0,0,0.95812473,525.81586,21.078744)"
       clip-path="url(#clipPath47)"><tspan
         style="font-variant:normal;font-weight:700;font-size:18px;font-family:Helvetica;writing-mode:lr-tb;fill:#000000;fill-opacity:1;fill-rule:nonzero;stroke:none"
         x="0 10.010742 15.011719 25.022461 35.033203 45.043945 49.385742 62.384766 68.378906 74.373047 81.37793 86.378906 97.374023 108.36914 114.36328 124.37402"
         y="0"
         sodipodi:role="line"
         id="tspan46">class Attributes</tspan></text>
    <path
       id="path48"
       d="M 471,29 H 761 V 57 H 471 Z"
       style="fill:#ffffff;fill-opacity:1;fill-rule:nonzero;stroke:#000000;stroke-width:1;stroke-linecap:butt;stroke-linejoin:miter;stroke-miterlimit:10;stroke-dasharray:none;stroke-opacity:1"
       transform="matrix(0.95811513,0,0,0.95811513,0.47905756,0.47905756)"
       clip-path="url(#clipPath49)" />
    <text
       id="text49"
       xml:space="preserve"
       transform="matrix(0.95812473,0,0,0.95812473,552.34394,47.906236)"
       clip-path="url(#clipPath50)"><tspan
         style="font-variant:normal;font-weight:normal;font-size:18px;font-family:Helvetica;writing-mode:lr-tb;fill:#000000;fill-opacity:1;fill-rule:nonzero;stroke:none"
         x="0 9 19.010742 24.011719 30.005859 36 41.000977 46.001953 55.001953 65.012695 69.011719"
         y="0"
         sodipodi:role="line"
         id="tspan49">set(): void</tspan></text>
    <path
       id="path51"
       d="M 471,56 H 761 V 84 H 471 Z"
       style="fill:#ffffff;fill-opacity:1;fill-rule:nonzero;stroke:#000000;stroke-width:1;stroke-linecap:butt;stroke-linejoin:miter;stroke-miterlimit:10;stroke-dasharray:none;stroke-opacity:1"
       transform="matrix(0.95811513,0,0,0.95811513,0.47905756,0.47905756)"
       clip-path="url(#clipPath52)" />
    <text
       id="text52"
       xml:space="preserve"
       transform="matrix(0.95812473,0,0,0.95812473,552.01458,73.775604)"
       clip-path="url(#clipPath53)"><tspan
         style="font-variant:normal;font-weight:normal;font-size:18px;font-family:Helvetica;writing-mode:lr-tb;fill:#000000;fill-opacity:1;fill-rule:nonzero;stroke:none"
         x="0 10.010742 20.021484 25.022461 31.016602 37.010742 42.011719 46.696289 57.691406 62.692383 74.698242"
         y="0"
         sodipodi:role="line"
         id="tspan52">get(): T[K]</tspan></text>
    <path
       id="path54"
       d="m 471,84 h 290 v 28 H 471 Z"
       style="fill:#ffffff;fill-opacity:1;fill-rule:nonzero;stroke:#000000;stroke-width:1;stroke-linecap:butt;stroke-linejoin:miter;stroke-miterlimit:10;stroke-dasharray:none;stroke-opacity:1"
       transform="matrix(0.95811513,0,0,0.95811513,0.47905756,0.47905756)"
       clip-path="url(#clipPath55)" />
    <text
       id="text55"
       xml:space="preserve"
       transform="matrix(0.95812473,0,0,0.95812473,552.97271,100.6031)"
       clip-path="url(#clipPath56)"><tspan
         style="font-variant:normal;font-weight:normal;font-size:18px;font-family:Helvetica;writing-mode:lr-tb;fill:#000000;fill-opacity:1;fill-rule:nonzero;stroke:none"
         x="0 10.010742 20.021484 25.022461 37.02832 41.027344 45.026367 51.020508 57.014648 62.015625 66.700195"
         y="0"
         sodipodi:role="line"
         id="tspan55">getAll(): T</tspan></text>
    <path
       id="path57"
       d="m 471,137.5 h 290 v 28 H 471 Z"
       style="fill:#dae8fc;fill-opacity:1;fill-rule:nonzero;stroke:#6c8ebf;stroke-width:1;stroke-linecap:butt;stroke-linejoin:miter;stroke-miterlimit:10;stroke-dasharray:none;stroke-opacity:1"
       transform="matrix(0.95811513,0,0,0.95811513,0.47905756,0.47905756)"
       clip-path="url(#clipPath58)" />
    <text
       id="text58"
       xml:space="preserve"
       transform="matrix(0.95812473,0,0,0.95812473,537.94213,151.38371)"
       clip-path="url(#clipPath59)"><tspan
         style="font-variant:normal;font-weight:700;font-size:18px;font-family:Helvetica;writing-mode:lr-tb;fill:#000000;fill-opacity:1;fill-rule:nonzero;stroke:none"
         x="0 10.010742 15.011719 25.022461 35.033203 45.043945 50.044922 62.050781 72.061523 82.072266 93.067383 99.061523"
         y="0"
         sodipodi:role="line"
         id="tspan58">class Events</tspan></text>
    <path
       id="path60"
       d="m 471,246.5 h 290 v 28 H 471 Z"
       style="fill:#dae8fc;fill-opacity:1;fill-rule:nonzero;stroke:#6c8ebf;stroke-width:1;stroke-linecap:butt;stroke-linejoin:miter;stroke-miterlimit:10;stroke-dasharray:none;stroke-opacity:1"
       transform="matrix(0.95811513,0,0,0.95811513,0.47905756,0.47905756)"
       clip-path="url(#clipPath61)" />
    <text
       id="text61"
       xml:space="preserve"
       transform="matrix(0.95812473,0,0,0.95812473,545.60713,256.77743)"
       clip-path="url(#clipPath62)"><tspan
         style="font-variant:normal;font-weight:700;font-size:18px;font-family:Helvetica;writing-mode:lr-tb;fill:#000000;fill-opacity:1;fill-rule:nonzero;stroke:none"
         x="0 10.010742 15.011719 25.022461 35.033203 45.043945 50.044922 62.050781 72.061523 83.056641"
         y="0"
         sodipodi:role="line"
         id="tspan61">class Sync</tspan></text>
    <path
       id="path63"
       d="m 471,165.5 h 290 v 28 H 471 Z"
       style="fill:#ffffff;fill-opacity:1;fill-rule:nonzero;stroke:#000000;stroke-width:1;stroke-linecap:butt;stroke-linejoin:miter;stroke-miterlimit:10;stroke-dasharray:none;stroke-opacity:1"
       transform="matrix(0.95811513,0,0,0.95811513,0.47905756,0.47905756)"
       clip-path="url(#clipPath64)" />
    <text
       id="text64"
       xml:space="preserve"
       transform="matrix(0.95812473,0,0,0.95812473,470.85842,179.16932)"
       clip-path="url(#clipPath65)"><tspan
         style="font-variant:normal;font-weight:normal;font-size:18px;font-family:Helvetica;writing-mode:lr-tb;fill:#000000;fill-opacity:1;fill-rule:nonzero;stroke:none"
         x="0 10.010742 20.021484 26.015625 36.026367 46.037109 61.03125 71.041992 76.042969 81.043945 90.043945 95.044922 101.03906 105.03809 115.04883 125.05957 130.06055 135.06152 144.06152 154.07227 158.07129 162.07031 172.08105 182.0918 191.0918 200.0918 206.08594 211.08691 216.08789 225.08789 235.09863 239.09766"
         y="0"
         sodipodi:role="line"
         id="tspan64">on(name: string, callback): void</tspan></text>
    <path
       id="path66"
       d="m 471,193.5 h 290 v 28 H 471 Z"
       style="fill:#ffffff;fill-opacity:1;fill-rule:nonzero;stroke:#000000;stroke-width:1;stroke-linecap:butt;stroke-linejoin:miter;stroke-miterlimit:10;stroke-dasharray:none;stroke-opacity:1"
       transform="matrix(0.95811513,0,0,0.95811513,0.47905756,0.47905756)"
       clip-path="url(#clipPath67)" />
    <text
       id="text67"
       xml:space="preserve"
       transform="matrix(0.95812473,0,0,0.95812473,491.95214,205.03869)"
       clip-path="url(#clipPath68)"><tspan
         style="font-variant:normal;font-weight:normal;font-size:18px;font-family:Helvetica;writing-mode:lr-tb;fill:#000000;fill-opacity:1;fill-rule:nonzero;stroke:none"
         x="0 5.0009766 10.995117 14.994141 25.004883 35.015625 45.026367 51.020508 57.014648 67.025391 77.036133 92.030273 102.04102 107.04199 112.04297 121.04297 126.04395 132.03809 136.03711 146.04785 156.05859 162.05273 167.05371 172.05469 181.05469 191.06543 195.06445"
         y="0"
         sodipodi:role="line"
         id="tspan67">trigger(name: string): void</tspan></text>
    <path
       id="path69"
       d="m 471,274.5 h 290 v 28 H 471 Z"
       style="fill:#ffffff;fill-opacity:1;fill-rule:nonzero;stroke:#000000;stroke-width:1;stroke-linecap:butt;stroke-linejoin:miter;stroke-miterlimit:10;stroke-dasharray:none;stroke-opacity:1"
       transform="matrix(0.95811513,0,0,0.95811513,0.47905756,0.47905756)"
       clip-path="url(#clipPath70)" />
    <text
       id="text70"
       xml:space="preserve"
       transform="matrix(0.95812473,0,0,0.95812473,488.5987,283.60492)"
       clip-path="url(#clipPath71)"><tspan
         style="font-variant:normal;font-weight:normal;font-size:18px;font-family:Helvetica;writing-mode:lr-tb;fill:#000000;fill-opacity:1;fill-rule:nonzero;stroke:none"
         x="0 5.0009766 15.011719 20.012695 29.012695 39.023438 45.017578 49.016602 59.027344 64.02832 69.029297 79.040039 89.050781 104.04492 114.05566 124.06641 130.06055 136.05469 141.05566 146.05664 158.0625 164.05664 174.06738 189.06152 193.06055 202.06055"
         y="0"
         sodipodi:role="line"
         id="tspan70">fetch(id: number): Promise</tspan></text>
    <path
       id="path72"
       d="m 471,302.5 h 290 v 28 H 471 Z"
       style="fill:#ffffff;fill-opacity:1;fill-rule:nonzero;stroke:#000000;stroke-width:1;stroke-linecap:butt;stroke-linejoin:miter;stroke-miterlimit:10;stroke-dasharray:none;stroke-opacity:1"
       transform="matrix(0.95811513,0,0,0.95811513,0.47905756,0.47905756)"
       clip-path="url(#clipPath73)" />
    <text
       id="text73"
       xml:space="preserve"
       transform="matrix(0.95812473,0,0,0.95812473,503.15022,310.43241)"
       clip-path="url(#clipPath74)"><tspan
         style="font-variant:normal;font-weight:normal;font-size:18px;font-family:Helvetica;writing-mode:lr-tb;fill:#000000;fill-opacity:1;fill-rule:nonzero;stroke:none"
         x="0 9 19.010742 28.010742 38.021484 44.015625 54.026367 59.027344 64.02832 70.022461 79.022461 84.023438 88.708008 99.703125 105.69727 110.69824 115.69922 127.70508 133.69922 143.70996 158.7041 162.70312 171.70312"
         y="0"
         sodipodi:role="line"
         id="tspan73">save(attrs: T): Promise</tspan></text>
  </g>
</svg>
