<?xml version="1.0" encoding="UTF-8" standalone="no"?>
<!-- Created with Inkscape (http://www.inkscape.org/) -->

<svg
   version="1.1"
   id="svg1"
   width="328"
   height="158.72"
   viewBox="0 0 328 158.72"
   sodipodi:docname="ts-14.pdf"
   xmlns:inkscape="http://www.inkscape.org/namespaces/inkscape"
   xmlns:sodipodi="http://sodipodi.sourceforge.net/DTD/sodipodi-0.dtd"
   xmlns="http://www.w3.org/2000/svg"
   xmlns:svg="http://www.w3.org/2000/svg">
  <defs
     id="defs1">
    <clipPath
       clipPathUnits="userSpaceOnUse"
       id="clipPath2">
      <path
         d="M 0,0 H 1024.9999 V 493.07578 H 0 Z"
         transform="scale(0.33463417)"
         clip-rule="evenodd"
         id="path2" />
    </clipPath>
    <clipPath
       clipPathUnits="userSpaceOnUse"
       id="clipPath4">
      <path
         d="M 0,0 H 1024.9999 V 490.08743 H 0 Z"
         transform="matrix(0.33463417,0,0,0.33463417,-0.5,-0.5)"
         clip-rule="evenodd"
         id="path4" />
    </clipPath>
    <clipPath
       clipPathUnits="userSpaceOnUse"
       id="clipPath5">
      <path
         d="M 0,0 H 1024.9999 V 490.08743 H 0 Z"
         transform="matrix(0.33463081,0,0,0.33463081,-39.46875,-38)"
         clip-rule="evenodd"
         id="path5" />
    </clipPath>
    <clipPath
       clipPathUnits="userSpaceOnUse"
       id="clipPath7">
      <path
         d="M 0,0 H 1024.9999 V 490.08743 H 0 Z"
         transform="matrix(0.33463417,0,0,0.33463417,-0.5,-0.5)"
         clip-rule="evenodd"
         id="path7" />
    </clipPath>
    <clipPath
       clipPathUnits="userSpaceOnUse"
       id="clipPath8">
      <path
         d="M 0,0 H 1024.9999 V 490.08743 H 0 Z"
         transform="matrix(0.33463081,0,0,0.33463081,-28.96875,-138)"
         clip-rule="evenodd"
         id="path8" />
    </clipPath>
    <clipPath
       clipPathUnits="userSpaceOnUse"
       id="clipPath10">
      <path
         d="M 0,0 H 1024.9999 V 490.08743 H 0 Z"
         transform="matrix(-0.33463417,0,0,-0.33463417,342.49999,62.499998)"
         clip-rule="evenodd"
         id="path10" />
    </clipPath>
    <clipPath
       clipPathUnits="userSpaceOnUse"
       id="clipPath12">
      <path
         d="M 0,0 H 1024.9999 V 490.08743 H 0 Z"
         transform="matrix(-0.33463417,0,0,-0.33463417,342.49999,262.5)"
         clip-rule="evenodd"
         id="path12" />
    </clipPath>
    <clipPath
       clipPathUnits="userSpaceOnUse"
       id="clipPath13">
      <path
         d="M 0,0 H 1024.9999 V 490.08743 H 0 Z"
         transform="matrix(0.33463081,0,0,0.33463081,-183,-20)"
         clip-rule="evenodd"
         id="path13" />
    </clipPath>
    <clipPath
       clipPathUnits="userSpaceOnUse"
       id="clipPath14">
      <path
         d="M 0,0 H 1024.9999 V 490.08743 H 0 Z"
         transform="matrix(0.33463081,0,0,0.33463081,-183,-36)"
         clip-rule="evenodd"
         id="path14" />
    </clipPath>
    <clipPath
       clipPathUnits="userSpaceOnUse"
       id="clipPath15">
      <path
         d="M 0,0 H 1024.9999 V 490.08743 H 0 Z"
         transform="matrix(0.33463081,0,0,0.33463081,-183,-51)"
         clip-rule="evenodd"
         id="path15" />
    </clipPath>
    <clipPath
       clipPathUnits="userSpaceOnUse"
       id="clipPath16">
      <path
         d="M 0,0 H 1024.9999 V 490.08743 H 0 Z"
         transform="matrix(0.33463081,0,0,0.33463081,-183,-120)"
         clip-rule="evenodd"
         id="path16" />
    </clipPath>
    <clipPath
       clipPathUnits="userSpaceOnUse"
       id="clipPath17">
      <path
         d="M 0,0 H 1024.9999 V 490.08743 H 0 Z"
         transform="matrix(0.33463081,0,0,0.33463081,-183,-136)"
         clip-rule="evenodd"
         id="path17" />
    </clipPath>
    <clipPath
       clipPathUnits="userSpaceOnUse"
       id="clipPath18">
      <path
         d="M 0,0 H 1024.9999 V 490.08743 H 0 Z"
         transform="matrix(0.33463081,0,0,0.33463081,-183,-151)"
         clip-rule="evenodd"
         id="path18" />
    </clipPath>
  </defs>
  <sodipodi:namedview
     id="namedview1"
     pagecolor="#ffffff"
     bordercolor="#000000"
     borderopacity="0.25"
     inkscape:showpageshadow="2"
     inkscape:pageopacity="0.0"
     inkscape:pagecheckerboard="0"
     inkscape:deskcolor="#d1d1d1">
    <inkscape:page
       x="0"
       y="0"
       inkscape:label="1"
       id="page1"
       width="328"
       height="158.72"
       margin="0"
       bleed="0" />
  </sodipodi:namedview>
  <g
     id="g1"
     inkscape:groupmode="layer"
     inkscape:label="1">
    <path
       id="path1"
       d="M 0,0 H 343 V 165 H 0 Z"
       style="fill:#ffffff;fill-opacity:1;fill-rule:nonzero;stroke:none"
       transform="scale(0.95626812)"
       clip-path="url(#clipPath2)" />
    <path
       id="path3"
       d="M 1,1 H 151 V 61 H 1 Z"
       style="fill:#d5e8d4;fill-opacity:1;fill-rule:nonzero;stroke:#82b366;stroke-width:1;stroke-linecap:butt;stroke-linejoin:miter;stroke-miterlimit:10;stroke-dasharray:none;stroke-opacity:1"
       transform="matrix(0.95626812,0,0,0.95626812,0.47813406,0.47813406)"
       clip-path="url(#clipPath4)" />
    <text
       id="text4"
       xml:space="preserve"
       transform="matrix(0.95627772,0,0,0.95627772,37.743086,36.338553)"
       clip-path="url(#clipPath5)"><tspan
         style="font-variant:normal;font-weight:700;font-size:18px;font-family:Helvetica;writing-mode:lr-tb;fill:#000000;fill-opacity:1;fill-rule:nonzero;stroke:none"
         x="0 12.005859 22.016602 29.021484 34.022461 44.033203 49.03418 54.035156 63.035156"
         y="0"
         sodipodi:role="line"
         id="tspan4">Serialize</tspan></text>
    <path
       id="path6"
       d="m 1,101 h 150 v 60 H 1 Z"
       style="fill:#d5e8d4;fill-opacity:1;fill-rule:nonzero;stroke:#82b366;stroke-width:1;stroke-linecap:butt;stroke-linejoin:miter;stroke-miterlimit:10;stroke-dasharray:none;stroke-opacity:1"
       transform="matrix(0.95626812,0,0,0.95626812,0.47813406,0.47813406)"
       clip-path="url(#clipPath7)" />
    <text
       id="text7"
       xml:space="preserve"
       transform="matrix(0.95627772,0,0,0.95627772,27.70217,131.96633)"
       clip-path="url(#clipPath8)"><tspan
         style="font-variant:normal;font-weight:700;font-size:18px;font-family:Helvetica;writing-mode:lr-tb;fill:#000000;fill-opacity:1;fill-rule:nonzero;stroke:none"
         x="0 12.999023 23.009766 33.020508 43.03125 50.036133 55.037109 65.047852 70.048828 75.049805 84.049805"
         y="0"
         sodipodi:role="line"
         id="tspan7">Deserialize</tspan></text>
    <path
       id="path9"
       d="m 181,1 h -5 c -3.33333,0 -5,3.333333 -5,10 v 10 c 0,6.666668 -1.66667,10 -5,10 h -2.5 c -1.66667,0 -0.83333,0 2.5,0 h 2.5 c 1.66667,0 2.5,3.333332 2.5,10 v 10 c 0,6.666668 1.66667,10 5,10 h 5"
       style="fill:none;stroke:#000000;stroke-width:1;stroke-linecap:butt;stroke-linejoin:miter;stroke-miterlimit:10;stroke-dasharray:none;stroke-opacity:1"
       transform="matrix(-0.95626812,0,0,-0.95626812,327.52182,59.766756)"
       clip-path="url(#clipPath10)" />
    <path
       id="path11"
       d="m 181,101 h -5 c -3.33333,0 -5,3.33334 -5,10 v 10 c 0,6.66666 -1.66667,10 -5,10 h -2.5 c -1.66667,0 -0.83333,0 2.5,0 h 2.5 c 1.66667,0 2.5,3.33333 2.5,10 v 10 c 0,6.66667 1.66667,10 5,10 h 5"
       style="fill:none;stroke:#000000;stroke-width:1;stroke-linecap:butt;stroke-linejoin:miter;stroke-miterlimit:10;stroke-dasharray:none;stroke-opacity:1"
       transform="matrix(-0.95626812,0,0,-0.95626812,327.52182,251.02038)"
       clip-path="url(#clipPath12)" />
    <text
       id="text12"
       xml:space="preserve"
       transform="matrix(0.95627772,0,0,0.95627772,174.99882,19.125554)"
       clip-path="url(#clipPath13)"><tspan
         style="font-variant:normal;font-weight:normal;font-size:13px;font-family:Helvetica;writing-mode:lr-tb;fill:#000000;fill-opacity:1;fill-rule:nonzero;stroke:none"
         x="0 9.3881836 16.618164 23.848145 30.348145 37.578125 41.907227 45.519043 49.130859 56.36084 63.59082 67.202637 74.432617 78.044434 81.65625 85.985352 93.215332 104.04443 107.65625 114.88623"
         y="0"
         sodipodi:role="line"
         id="tspan12">Convert data from an</tspan></text>
    <text
       id="text13"
       xml:space="preserve"
       transform="matrix(0.95627772,0,0,0.95627772,174.99882,34.425998)"
       clip-path="url(#clipPath14)"><tspan
         style="font-variant:normal;font-weight:normal;font-size:13px;font-family:Helvetica;writing-mode:lr-tb;fill:#000000;fill-opacity:1;fill-rule:nonzero;stroke:none"
         x="0 7.2299805 14.459961 17.348145 24.578125 31.078125 34.689941 38.301758 41.189941 48.419922 52.031738 59.261719 62.873535 69.373535 76.603516 87.432617 94.662598 98.274414 104.77441 112.00439 118.50439 125.73438 130.06348 137.29346 144.52344 147.41162"
         y="0"
         sodipodi:role="line"
         id="tspan13">object into some save-able</tspan></text>
    <text
       id="text14"
       xml:space="preserve"
       transform="matrix(0.95627772,0,0,0.95627772,174.99882,48.770164)"
       clip-path="url(#clipPath15)"><tspan
         style="font-variant:normal;font-weight:normal;font-size:13px;font-family:Helvetica;writing-mode:lr-tb;fill:#000000;fill-opacity:1;fill-rule:nonzero;stroke:none"
         x="0 3.6118164 10.841797 15.170898 26 33.22998 36.841797 40.453613 44.782715 47.670898 54.170898 61.400879 68.630859"
         y="0"
         sodipodi:role="line"
         id="tspan14">format (json)</tspan></text>
    <text
       id="text15"
       xml:space="preserve"
       transform="matrix(0.95627772,0,0,0.95627772,174.99882,114.75333)"
       clip-path="url(#clipPath16)"><tspan
         style="font-variant:normal;font-weight:normal;font-size:13px;font-family:Helvetica;writing-mode:lr-tb;fill:#000000;fill-opacity:1;fill-rule:nonzero;stroke:none"
         x="0 8.6708984 15.900879 19.512695 23.124512 30.354492 37.584473 41.196289 48.42627 52.038086 59.268066 66.498047 70.109863 77.339844 84.569824 88.181641 95.411621 102.6416 105.52979 112.75977 119.25977 122.87158 126.4834 133.71338 140.21338 143.10156 150.33154"
         y="0"
         sodipodi:role="line"
         id="tspan15">Put data on an object using</tspan></text>
    <text
       id="text16"
       xml:space="preserve"
       transform="matrix(0.95627772,0,0,0.95627772,174.99882,130.05377)"
       clip-path="url(#clipPath17)"><tspan
         style="font-variant:normal;font-weight:normal;font-size:13px;font-family:Helvetica;writing-mode:lr-tb;fill:#000000;fill-opacity:1;fill-rule:nonzero;stroke:none"
         x="0 6.5 13.72998 24.559082 31.789062 35.400879 42.630859 46.959961 54.189941 60.689941 63.578125 70.808105 78.038086 84.538086 87.42627 93.92627 97.538086 104.03809 111.26807 117.76807 124.99805"
         y="0"
         sodipodi:role="line"
         id="tspan16">some previously saved</tspan></text>
    <text
       id="text17"
       xml:space="preserve"
       transform="matrix(0.95627772,0,0,0.95627772,174.99882,144.39794)"
       clip-path="url(#clipPath18)"><tspan
         style="font-variant:normal;font-weight:normal;font-size:13px;font-family:Helvetica;writing-mode:lr-tb;fill:#000000;fill-opacity:1;fill-rule:nonzero;stroke:none"
         x="0 7.2299805 14.459961 18.071777 25.301758 28.913574 33.242676 36.130859 42.630859 49.86084 57.09082"
         y="0"
         sodipodi:role="line"
         id="tspan17">data (json)</tspan></text>
  </g>
</svg>
