<?xml version="1.0" encoding="UTF-8" standalone="no"?>
<!-- Created with Inkscape (http://www.inkscape.org/) -->

<svg
   version="1.1"
   id="svg1"
   width="616"
   height="196.15999"
   viewBox="0 0 616 196.15999"
   sodipodi:docname="ts-10.pdf"
   xmlns:inkscape="http://www.inkscape.org/namespaces/inkscape"
   xmlns:sodipodi="http://sodipodi.sourceforge.net/DTD/sodipodi-0.dtd"
   xmlns="http://www.w3.org/2000/svg"
   xmlns:svg="http://www.w3.org/2000/svg">
  <defs
     id="defs1">
    <clipPath
       clipPathUnits="userSpaceOnUse"
       id="clipPath2">
      <path
         d="M 0,0 H 1924.9999 V 609.78259 H 0 Z"
         transform="scale(0.33454547)"
         clip-rule="evenodd"
         id="path2" />
    </clipPath>
    <clipPath
       clipPathUnits="userSpaceOnUse"
       id="clipPath4">
      <path
         d="M 0,0 H 1924.9999 V 609.78259 H 0 Z"
         transform="matrix(0.33454547,0,0,0.33454547,-0.49999999,-0.49999999)"
         clip-rule="evenodd"
         id="path4" />
    </clipPath>
    <clipPath
       clipPathUnits="userSpaceOnUse"
       id="clipPath5">
      <path
         d="M 0,0 H 1924.9999 V 609.78259 H 0 Z"
         transform="matrix(0.33454211,0,0,0.33454211,-100.95312,-62)"
         clip-rule="evenodd"
         id="path5" />
    </clipPath>
    <clipPath
       clipPathUnits="userSpaceOnUse"
       id="clipPath7">
      <path
         d="M 0,0 H 1924.9999 V 609.78259 H 0 Z"
         transform="matrix(0.33454547,0,0,0.33454547,-0.49999999,-0.49999999)"
         clip-rule="evenodd"
         id="path7" />
    </clipPath>
    <clipPath
       clipPathUnits="userSpaceOnUse"
       id="clipPath8">
      <path
         d="M 0,0 H 1924.9999 V 609.78259 H 0 Z"
         transform="matrix(0.33454211,0,0,0.33454211,-66.453125,-90)"
         clip-rule="evenodd"
         id="path8" />
    </clipPath>
    <clipPath
       clipPathUnits="userSpaceOnUse"
       id="clipPath10">
      <path
         d="M 0,0 H 1924.9999 V 609.78259 H 0 Z"
         transform="matrix(0.33454547,0,0,0.33454547,-0.49999999,-0.49999999)"
         clip-rule="evenodd"
         id="path10" />
    </clipPath>
    <clipPath
       clipPathUnits="userSpaceOnUse"
       id="clipPath11">
      <path
         d="M 0,0 H 1924.9999 V 609.78259 H 0 Z"
         transform="matrix(0.33454211,0,0,0.33454211,-86.953125,-118)"
         clip-rule="evenodd"
         id="path11" />
    </clipPath>
    <clipPath
       clipPathUnits="userSpaceOnUse"
       id="clipPath13">
      <path
         d="M 0,0 H 1924.9999 V 609.78259 H 0 Z"
         transform="matrix(0.33454547,0,0,0.33454547,-0.49999999,-0.49999999)"
         clip-rule="evenodd"
         id="path13" />
    </clipPath>
    <clipPath
       clipPathUnits="userSpaceOnUse"
       id="clipPath14">
      <path
         d="M 0,0 H 1924.9999 V 609.78259 H 0 Z"
         transform="matrix(0.33454211,0,0,0.33454211,-102.48437,-146)"
         clip-rule="evenodd"
         id="path14" />
    </clipPath>
    <clipPath
       clipPathUnits="userSpaceOnUse"
       id="clipPath16">
      <path
         d="M 0,0 H 1924.9999 V 609.78259 H 0 Z"
         transform="matrix(0.33454547,0,0,0.33454547,-0.49999999,-0.49999999)"
         clip-rule="evenodd"
         id="path16" />
    </clipPath>
    <clipPath
       clipPathUnits="userSpaceOnUse"
       id="clipPath18">
      <path
         d="M 0,0 H 1924.9999 V 609.78259 H 0 Z"
         transform="matrix(0.33454547,0,0,0.33454547,-0.49999999,-0.49999999)"
         clip-rule="evenodd"
         id="path18" />
    </clipPath>
    <clipPath
       clipPathUnits="userSpaceOnUse"
       id="clipPath20">
      <path
         d="M 0,0 H 1924.9999 V 609.78259 H 0 Z"
         transform="matrix(0.33454547,0,0,0.33454547,-0.49999999,-0.49999999)"
         clip-rule="evenodd"
         id="path20" />
    </clipPath>
    <clipPath
       clipPathUnits="userSpaceOnUse"
       id="clipPath21">
      <path
         d="M 0,0 H 1924.9999 V 609.78259 H 0 Z"
         transform="matrix(0.33454211,0,0,0.33454211,-403.875,-28)"
         clip-rule="evenodd"
         id="path21" />
    </clipPath>
    <clipPath
       clipPathUnits="userSpaceOnUse"
       id="clipPath22">
      <path
         d="M 0,0 H 1924.9999 V 609.78259 H 0 Z"
         transform="matrix(0.33454211,0,0,0.33454211,-420.60938,-45)"
         clip-rule="evenodd"
         id="path22" />
    </clipPath>
    <clipPath
       clipPathUnits="userSpaceOnUse"
       id="clipPath24">
      <path
         d="M 0,0 H 1924.9999 V 609.78259 H 0 Z"
         transform="matrix(0.33454547,0,0,0.33454547,-0.49999999,-0.49999999)"
         clip-rule="evenodd"
         id="path24" />
    </clipPath>
    <clipPath
       clipPathUnits="userSpaceOnUse"
       id="clipPath26">
      <path
         d="M 0,0 H 1924.9999 V 609.78259 H 0 Z"
         transform="matrix(0.33454547,0,0,0.33454547,-0.49999999,-0.49999999)"
         clip-rule="evenodd"
         id="path26" />
    </clipPath>
    <clipPath
       clipPathUnits="userSpaceOnUse"
       id="clipPath28">
      <path
         d="M 0,0 H 1924.9999 V 609.78259 H 0 Z"
         transform="matrix(0.33454547,0,0,0.33454547,-0.49999999,-0.49999999)"
         clip-rule="evenodd"
         id="path28" />
    </clipPath>
    <clipPath
       clipPathUnits="userSpaceOnUse"
       id="clipPath29">
      <path
         d="M 0,0 H 1924.9999 V 609.78259 H 0 Z"
         transform="matrix(0.33454211,0,0,0.33454211,-408.15625,-89)"
         clip-rule="evenodd"
         id="path29" />
    </clipPath>
    <clipPath
       clipPathUnits="userSpaceOnUse"
       id="clipPath30">
      <path
         d="M 0,0 H 1924.9999 V 609.78259 H 0 Z"
         transform="matrix(0.33454211,0,0,0.33454211,-406.57813,-106)"
         clip-rule="evenodd"
         id="path30" />
    </clipPath>
    <clipPath
       clipPathUnits="userSpaceOnUse"
       id="clipPath31">
      <path
         d="M 0,0 H 1924.9999 V 609.78259 H 0 Z"
         transform="matrix(0.33454211,0,0,0.33454211,-427.21875,-122.99999)"
         clip-rule="evenodd"
         id="path31" />
    </clipPath>
    <clipPath
       clipPathUnits="userSpaceOnUse"
       id="clipPath33">
      <path
         d="M 0,0 H 1924.9999 V 609.78259 H 0 Z"
         transform="matrix(0.33454547,0,0,0.33454547,-0.49999999,-0.49999999)"
         clip-rule="evenodd"
         id="path33" />
    </clipPath>
    <clipPath
       clipPathUnits="userSpaceOnUse"
       id="clipPath35">
      <path
         d="M 0,0 H 1924.9999 V 609.78259 H 0 Z"
         transform="matrix(0.33454547,0,0,0.33454547,-0.49999999,-0.49999999)"
         clip-rule="evenodd"
         id="path35" />
    </clipPath>
    <clipPath
       clipPathUnits="userSpaceOnUse"
       id="clipPath37">
      <path
         d="M 0,0 H 1924.9999 V 609.78259 H 0 Z"
         transform="matrix(0.33454547,0,0,0.33454547,-0.49999999,-0.49999999)"
         clip-rule="evenodd"
         id="path37" />
    </clipPath>
    <clipPath
       clipPathUnits="userSpaceOnUse"
       id="clipPath38">
      <path
         d="M 0,0 H 1924.9999 V 609.78259 H 0 Z"
         transform="matrix(0.33454211,0,0,0.33454211,-424.89063,-159)"
         clip-rule="evenodd"
         id="path38" />
    </clipPath>
    <clipPath
       clipPathUnits="userSpaceOnUse"
       id="clipPath39">
      <path
         d="M 0,0 H 1924.9999 V 609.78259 H 0 Z"
         transform="matrix(0.33454211,0,0,0.33454211,-404.64063,-176)"
         clip-rule="evenodd"
         id="path39" />
    </clipPath>
    <clipPath
       clipPathUnits="userSpaceOnUse"
       id="clipPath40">
      <path
         d="M 0,0 H 1924.9999 V 609.78259 H 0 Z"
         transform="matrix(0.33454211,0,0,0.33454211,-453.29687,-193)"
         clip-rule="evenodd"
         id="path40" />
    </clipPath>
  </defs>
  <sodipodi:namedview
     id="namedview1"
     pagecolor="#ffffff"
     bordercolor="#000000"
     borderopacity="0.25"
     inkscape:showpageshadow="2"
     inkscape:pageopacity="0.0"
     inkscape:pagecheckerboard="0"
     inkscape:deskcolor="#d1d1d1">
    <inkscape:page
       x="0"
       y="0"
       inkscape:label="1"
       id="page1"
       width="616"
       height="196.15999"
       margin="0"
       bleed="0" />
  </sodipodi:namedview>
  <g
     id="g1"
     inkscape:groupmode="layer"
     inkscape:label="1">
    <path
       id="path1"
       d="M 0,0 H 644 V 204 H 0 Z"
       style="fill:#ffffff;fill-opacity:1;fill-rule:nonzero;stroke:none"
       transform="scale(0.95652166)"
       clip-path="url(#clipPath2)" />
    <path
       id="path3"
       d="M 1,41 H 291 V 69 H 1 Z"
       style="fill:#dae8fc;fill-opacity:1;fill-rule:nonzero;stroke:#6c8ebf;stroke-width:1;stroke-linecap:butt;stroke-linejoin:miter;stroke-miterlimit:10;stroke-dasharray:none;stroke-opacity:1"
       transform="matrix(0.95652166,0,0,0.95652166,0.47826082,0.47826082)"
       clip-path="url(#clipPath4)" />
    <text
       id="text4"
       xml:space="preserve"
       transform="matrix(0.95653126,0,0,0.95653126,96.564819,59.304938)"
       clip-path="url(#clipPath5)"><tspan
         style="font-variant:normal;font-weight:700;font-size:18px;font-family:Helvetica;writing-mode:lr-tb;fill:#000000;fill-opacity:1;fill-rule:nonzero;stroke:none"
         x="0 10.010742 15.011719 25.022461 35.033203 45.043945 50.044922 63.043945 73.054688 83.06543"
         y="0"
         sodipodi:role="line"
         id="tspan4">class User</tspan></text>
    <path
       id="path6"
       d="M 1,69 H 291 V 97 H 1 Z"
       style="fill:#ffffff;fill-opacity:1;fill-rule:nonzero;stroke:#000000;stroke-width:1;stroke-linecap:butt;stroke-linejoin:miter;stroke-miterlimit:10;stroke-dasharray:none;stroke-opacity:1"
       transform="matrix(0.95652166,0,0,0.95652166,0.47826082,0.47826082)"
       clip-path="url(#clipPath7)" />
    <text
       id="text7"
       xml:space="preserve"
       transform="matrix(0.95653126,0,0,0.95653126,63.564491,86.087813)"
       clip-path="url(#clipPath8)"><tspan
         style="font-variant:normal;font-weight:normal;font-size:18px;font-family:Helvetica;writing-mode:lr-tb;fill:#000000;fill-opacity:1;fill-rule:nonzero;stroke:none"
         x="0 10.010742 15.011719 20.012695 26.006836 30.005859 40.016602 50.027344 55.02832 65.039062 74.039062 79.040039 83.056641 95.0625 100.06348 105.06445 111.05859 115.05762 125.06836 135.0791 140.08008 150.09082"
         y="0"
         sodipodi:role="line"
         id="tspan7">attributes: Attributes</tspan></text>
    <path
       id="path9"
       d="m 1,97 h 290 v 28 H 1 Z"
       style="fill:#ffffff;fill-opacity:1;fill-rule:nonzero;stroke:#000000;stroke-width:1;stroke-linecap:butt;stroke-linejoin:miter;stroke-miterlimit:10;stroke-dasharray:none;stroke-opacity:1"
       transform="matrix(0.95652166,0,0,0.95652166,0.47826082,0.47826082)"
       clip-path="url(#clipPath10)" />
    <text
       id="text10"
       xml:space="preserve"
       transform="matrix(0.95653126,0,0,0.95653126,83.173382,112.87069)"
       clip-path="url(#clipPath11)"><tspan
         style="font-variant:normal;font-weight:normal;font-size:18px;font-family:Helvetica;writing-mode:lr-tb;fill:#000000;fill-opacity:1;fill-rule:nonzero;stroke:none"
         x="0 10.010742 19.010742 29.021484 39.032227 44.033203 53.033203 58.03418 63.035156 75.041016 84.041016 94.051758 104.0625 109.06348"
         y="0"
         sodipodi:role="line"
         id="tspan10">events: Events</tspan></text>
    <path
       id="path12"
       d="m 1,125 h 290 v 28 H 1 Z"
       style="fill:#ffffff;fill-opacity:1;fill-rule:nonzero;stroke:#000000;stroke-width:1;stroke-linecap:butt;stroke-linejoin:miter;stroke-miterlimit:10;stroke-dasharray:none;stroke-opacity:1"
       transform="matrix(0.95652166,0,0,0.95652166,0.47826082,0.47826082)"
       clip-path="url(#clipPath13)" />
    <text
       id="text13"
       xml:space="preserve"
       transform="matrix(0.95653126,0,0,0.95653126,98.029508,139.65356)"
       clip-path="url(#clipPath14)"><tspan
         style="font-variant:normal;font-weight:normal;font-size:18px;font-family:Helvetica;writing-mode:lr-tb;fill:#000000;fill-opacity:1;fill-rule:nonzero;stroke:none"
         x="0 9 18 28.010742 37.010742 42.011719 47.012695 59.018555 68.018555 78.029297"
         y="0"
         sodipodi:role="line"
         id="tspan13">sync: Sync</tspan></text>
    <path
       id="path15"
       d="M 401,31 H 346 V 83 H 297.37"
       style="fill:none;stroke:#000000;stroke-width:1;stroke-linecap:butt;stroke-linejoin:miter;stroke-miterlimit:10;stroke-dasharray:none;stroke-opacity:1"
       transform="matrix(0.95652166,0,0,0.95652166,0.47826082,0.47826082)"
       clip-path="url(#clipPath16)" />
    <path
       id="path17"
       d="m 292.12,83 7,-3.5 -1.75,3.5 1.75,3.5 z"
       style="fill:#000000;fill-opacity:1;fill-rule:nonzero;stroke:#000000;stroke-width:1;stroke-linecap:butt;stroke-linejoin:miter;stroke-miterlimit:10;stroke-dasharray:none;stroke-opacity:1"
       transform="matrix(0.95652166,0,0,0.95652166,0.47826082,0.47826082)"
       clip-path="url(#clipPath18)" />
    <path
       id="path19"
       d="M 401,1 H 641 V 61 H 401 Z"
       style="fill:#fff2cc;fill-opacity:1;fill-rule:nonzero;stroke:#d6b656;stroke-width:1;stroke-linecap:butt;stroke-linejoin:miter;stroke-miterlimit:10;stroke-dasharray:none;stroke-opacity:1"
       transform="matrix(0.95652166,0,0,0.95652166,0.47826082,0.47826082)"
       clip-path="url(#clipPath20)" />
    <text
       id="text20"
       xml:space="preserve"
       transform="matrix(0.95653126,0,0,0.95653126,386.31906,26.782875)"
       clip-path="url(#clipPath21)"><tspan
         style="font-variant:normal;font-weight:normal;font-size:14px;font-family:Helvetica;writing-mode:lr-tb;fill:#000000;fill-opacity:1;fill-rule:nonzero;stroke:none"
         x="0 10.889648 14 21 28.786133 35.786133 39.675781 47.461914 54.461914 58.351562 62.241211 70.027344 77.813477 81.703125 89.489258 97.275391 100.38574 103.49609 106.60645 110.49609 117.49609 121.38574 125.27539 133.06152 136.95117 143.95117 147.84082 155.62695 160.28906 168.0752 171.96484 179.75098 184.41309 192.19922 199.98535 207.77148 212.43359 216.32324 219.43359 227.21973"
         y="0"
         sodipodi:role="line"
         id="tspan20">Gives us the ability to store properties</tspan></text>
    <text
       id="text21"
       xml:space="preserve"
       transform="matrix(0.95653126,0,0,0.95653126,402.32602,43.043907)"
       clip-path="url(#clipPath22)"><tspan
         style="font-variant:normal;font-weight:normal;font-size:14px;font-family:Helvetica;writing-mode:lr-tb;fill:#000000;fill-opacity:1;fill-rule:nonzero;stroke:none"
         x="0 3.8896484 7 14.786133 22.572266 26.461914 30.351562 38.137695 42.027344 45.916992 53.703125 56.813477 63.813477 67.703125 75.489258 82.489258 90.275391 94.9375 98.827148 103.48926 111.27539 119.06152 130.72363 138.50977 142.39941 146.28906 154.0752 161.86133 169.64746 173.53711 177.42676 185.21289 189.10254 196.10254"
         y="0"
         sodipodi:role="line"
         id="tspan21">tied to this user (name, age, etc)</tspan></text>
    <path
       id="path23"
       d="m 401,101 h -55 v 10 h -48.63"
       style="fill:none;stroke:#000000;stroke-width:1;stroke-linecap:butt;stroke-linejoin:miter;stroke-miterlimit:10;stroke-dasharray:none;stroke-opacity:1"
       transform="matrix(0.95652166,0,0,0.95652166,0.47826082,0.47826082)"
       clip-path="url(#clipPath24)" />
    <path
       id="path25"
       d="m 292.12,111 7,-3.5 -1.75,3.5 1.75,3.5 z"
       style="fill:#000000;fill-opacity:1;fill-rule:nonzero;stroke:#000000;stroke-width:1;stroke-linecap:butt;stroke-linejoin:miter;stroke-miterlimit:10;stroke-dasharray:none;stroke-opacity:1"
       transform="matrix(0.95652166,0,0,0.95652166,0.47826082,0.47826082)"
       clip-path="url(#clipPath26)" />
    <path
       id="path27"
       d="m 401,71 h 240 v 60 H 401 Z"
       style="fill:#fff2cc;fill-opacity:1;fill-rule:nonzero;stroke:#d6b656;stroke-width:1;stroke-linecap:butt;stroke-linejoin:miter;stroke-miterlimit:10;stroke-dasharray:none;stroke-opacity:1"
       transform="matrix(0.95652166,0,0,0.95652166,0.47826082,0.47826082)"
       clip-path="url(#clipPath28)" />
    <text
       id="text28"
       xml:space="preserve"
       transform="matrix(0.95653126,0,0,0.95653126,390.41421,85.131282)"
       clip-path="url(#clipPath29)"><tspan
         style="font-variant:normal;font-weight:normal;font-size:14px;font-family:Helvetica;writing-mode:lr-tb;fill:#000000;fill-opacity:1;fill-rule:nonzero;stroke:none"
         x="0 10.889648 14 21 28.786133 35.786133 39.675781 47.461914 54.461914 58.351562 62.241211 70.027344 77.813477 81.703125 89.489258 97.275391 100.38574 103.49609 106.60645 110.49609 117.49609 121.38574 125.27539 133.06152 136.95117 140.84082 148.62695 151.7373 154.84766 158.7373 166.52344 170.41309 178.19922 185.98535 190.64746 194.53711 202.32324 210.10938 214.77148 218.66113"
         y="0"
         sodipodi:role="line"
         id="tspan28">Gives us the ability to tell other parts</tspan></text>
    <text
       id="text29"
       xml:space="preserve"
       transform="matrix(0.95653126,0,0,0.95653126,388.90469,101.39231)"
       clip-path="url(#clipPath30)"><tspan
         style="font-variant:normal;font-weight:normal;font-size:14px;font-family:Helvetica;writing-mode:lr-tb;fill:#000000;fill-opacity:1;fill-rule:nonzero;stroke:none"
         x="0 7.7861328 11.675781 15.56543 23.351562 31.137695 35.799805 39.689453 47.475586 55.261719 63.047852 66.158203 69.268555 76.268555 84.054688 87.944336 91.054688 98.84082 106.62695 110.5166 120.62695 128.41309 136.19922 143.98535 151.77148 158.77148 166.55762 171.21973 175.10938 182.89551 190.68164 194.57129 202.35742 206.24707 210.13672 213.24707 221.0332"
         y="0"
         sodipodi:role="line"
         id="tspan29">of our application whenever data tied</tspan></text>
    <text
       id="text30"
       xml:space="preserve"
       transform="matrix(0.95653126,0,0,0.95653126,408.64809,117.65334)"
       clip-path="url(#clipPath31)"><tspan
         style="font-variant:normal;font-weight:normal;font-size:14px;font-family:Helvetica;writing-mode:lr-tb;fill:#000000;fill-opacity:1;fill-rule:nonzero;stroke:none"
         x="0 3.8896484 11.675781 15.56543 23.351562 27.241211 35.027344 42.813477 47.475586 51.365234 54.475586 61.475586 69.261719 72.37207 80.158203 84.820312 88.709961 96.496094 103.49609 111.28223 115.94434 119.83398 122.94434 129.94434 133.83398 140.83398 148.62012 156.40625 164.19238 171.97852 179.76465"
         y="0"
         sodipodi:role="line"
         id="tspan30">to a particular user is changed</tspan></text>
    <path
       id="path32"
       d="M 401,171 H 346 V 139 H 297.37"
       style="fill:none;stroke:#000000;stroke-width:1;stroke-linecap:butt;stroke-linejoin:miter;stroke-miterlimit:10;stroke-dasharray:none;stroke-opacity:1"
       transform="matrix(0.95652166,0,0,0.95652166,0.47826082,0.47826082)"
       clip-path="url(#clipPath33)" />
    <path
       id="path34"
       d="m 292.12,139 7,-3.5 -1.75,3.5 1.75,3.5 z"
       style="fill:#000000;fill-opacity:1;fill-rule:nonzero;stroke:#000000;stroke-width:1;stroke-linecap:butt;stroke-linejoin:miter;stroke-miterlimit:10;stroke-dasharray:none;stroke-opacity:1"
       transform="matrix(0.95652166,0,0,0.95652166,0.47826082,0.47826082)"
       clip-path="url(#clipPath35)" />
    <path
       id="path36"
       d="m 401,141 h 240 v 60 H 401 Z"
       style="fill:#fff2cc;fill-opacity:1;fill-rule:nonzero;stroke:#d6b656;stroke-width:1;stroke-linecap:butt;stroke-linejoin:miter;stroke-miterlimit:10;stroke-dasharray:none;stroke-opacity:1"
       transform="matrix(0.95652166,0,0,0.95652166,0.47826082,0.47826082)"
       clip-path="url(#clipPath37)" />
    <text
       id="text37"
       xml:space="preserve"
       transform="matrix(0.95653126,0,0,0.95653126,406.42117,152.08847)"
       clip-path="url(#clipPath38)"><tspan
         style="font-variant:normal;font-weight:normal;font-size:14px;font-family:Helvetica;writing-mode:lr-tb;fill:#000000;fill-opacity:1;fill-rule:nonzero;stroke:none"
         x="0 10.889648 14 21 28.786133 35.786133 39.675781 47.461914 54.461914 58.351562 62.241211 70.027344 77.813477 81.703125 89.489258 97.275391 100.38574 103.49609 106.60645 110.49609 117.49609 121.38574 125.27539 133.06152 136.95117 143.95117 151.7373 158.7373 166.52344 170.41309 174.30273 182.08887 185.19922"
         y="0"
         sodipodi:role="line"
         id="tspan37">Gives us the ability to save this</tspan></text>
    <text
       id="text38"
       xml:space="preserve"
       transform="matrix(0.95653126,0,0,0.95653126,387.05141,168.3495)"
       clip-path="url(#clipPath39)"><tspan
         style="font-variant:normal;font-weight:normal;font-size:14px;font-family:Helvetica;writing-mode:lr-tb;fill:#000000;fill-opacity:1;fill-rule:nonzero;stroke:none"
         x="0 7.7861328 15.572266 20.234375 27.234375 35.020508 42.806641 49.806641 53.696289 61.482422 69.268555 73.158203 80.944336 84.833984 88.723633 96.509766 100.39941 108.18555 112.0752 116.7373 124.52344 136.18555 143.97168 147.86133 155.64746 159.53711 166.53711 174.32324 178.98535 185.98535 193.77148 197.66797 201.55762 205.44727 209.33691 217.12305 224.90918"
         y="0"
         sodipodi:role="line"
         id="tspan38">persons data to a remote server, then</tspan></text>
    <text
       id="text39"
       xml:space="preserve"
       transform="matrix(0.95653126,0,0,0.95653126,433.59263,184.61053)"
       clip-path="url(#clipPath40)"><tspan
         style="font-variant:normal;font-weight:normal;font-size:14px;font-family:Helvetica;writing-mode:lr-tb;fill:#000000;fill-opacity:1;fill-rule:nonzero;stroke:none"
         x="0 4.6621094 12.448242 16.337891 21 24.110352 31.896484 38.896484 46.682617 50.572266 53.682617 57.572266 61.461914 64.572266 72.358398 76.248047 80.137695 87.923828 95.709961 99.599609 103.48926 111.27539 115.16504 122.95117 127.61328"
         y="0"
         sodipodi:role="line"
         id="tspan39">retrieve it in the future</tspan></text>
  </g>
</svg>
