<?xml version="1.0" encoding="UTF-8" standalone="no"?>
<!-- Created with Inkscape (http://www.inkscape.org/) -->

<svg
   version="1.1"
   id="svg1"
   width="606.71997"
   height="112"
   viewBox="0 0 606.71997 112"
   sodipodi:docname="ts-11.pdf"
   xmlns:inkscape="http://www.inkscape.org/namespaces/inkscape"
   xmlns:sodipodi="http://sodipodi.sourceforge.net/DTD/sodipodi-0.dtd"
   xmlns="http://www.w3.org/2000/svg"
   xmlns:svg="http://www.w3.org/2000/svg">
  <defs
     id="defs1">
    <clipPath
       clipPathUnits="userSpaceOnUse"
       id="clipPath2">
      <path
         d="M 0,0 H 1895.8333 V 349.86197 H 0 Z"
         transform="scale(0.33441761)"
         clip-rule="evenodd"
         id="path2" />
    </clipPath>
    <clipPath
       clipPathUnits="userSpaceOnUse"
       id="clipPath4">
      <path
         d="M 0,0 H 1895.8333 V 346.8717 H 0 Z"
         transform="matrix(0.33441761,0,0,0.33441761,-0.50000001,-0.50000001)"
         clip-rule="evenodd"
         id="path4" />
    </clipPath>
    <clipPath
       clipPathUnits="userSpaceOnUse"
       id="clipPath5">
      <path
         d="M 0,0 H 1895.8333 V 346.8717 H 0 Z"
         transform="matrix(0.33441424,0,0,0.33441424,-100.95312,-22)"
         clip-rule="evenodd"
         id="path5" />
    </clipPath>
    <clipPath
       clipPathUnits="userSpaceOnUse"
       id="clipPath7">
      <path
         d="M 0,0 H 1895.8333 V 346.8717 H 0 Z"
         transform="matrix(0.33441761,0,0,0.33441761,-0.50000001,-0.50000001)"
         clip-rule="evenodd"
         id="path7" />
    </clipPath>
    <clipPath
       clipPathUnits="userSpaceOnUse"
       id="clipPath8">
      <path
         d="M 0,0 H 1895.8333 V 346.8717 H 0 Z"
         transform="matrix(0.33441424,0,0,0.33441424,-66.453125,-50)"
         clip-rule="evenodd"
         id="path8" />
    </clipPath>
    <clipPath
       clipPathUnits="userSpaceOnUse"
       id="clipPath10">
      <path
         d="M 0,0 H 1895.8333 V 346.8717 H 0 Z"
         transform="matrix(0.33441761,0,0,0.33441761,-0.50000001,-0.50000001)"
         clip-rule="evenodd"
         id="path10" />
    </clipPath>
    <clipPath
       clipPathUnits="userSpaceOnUse"
       id="clipPath11">
      <path
         d="M 0,0 H 1895.8333 V 346.8717 H 0 Z"
         transform="matrix(0.33441424,0,0,0.33441424,-86.953125,-77.999999)"
         clip-rule="evenodd"
         id="path11" />
    </clipPath>
    <clipPath
       clipPathUnits="userSpaceOnUse"
       id="clipPath13">
      <path
         d="M 0,0 H 1895.8333 V 346.8717 H 0 Z"
         transform="matrix(0.33441761,0,0,0.33441761,-0.50000001,-0.50000001)"
         clip-rule="evenodd"
         id="path13" />
    </clipPath>
    <clipPath
       clipPathUnits="userSpaceOnUse"
       id="clipPath15">
      <path
         d="M 0,0 H 1895.8333 V 346.8717 H 0 Z"
         transform="matrix(0.33441761,0,0,0.33441761,-0.50000001,-0.50000001)"
         clip-rule="evenodd"
         id="path15" />
    </clipPath>
    <clipPath
       clipPathUnits="userSpaceOnUse"
       id="clipPath17">
      <path
         d="M 0,0 H 1895.8333 V 346.8717 H 0 Z"
         transform="matrix(0.33441761,0,0,0.33441761,-0.50000001,-0.50000001)"
         clip-rule="evenodd"
         id="path17" />
    </clipPath>
    <clipPath
       clipPathUnits="userSpaceOnUse"
       id="clipPath18">
      <path
         d="M 0,0 H 1895.8333 V 346.8717 H 0 Z"
         transform="matrix(0.33441424,0,0,0.33441424,-102.48437,-106)"
         clip-rule="evenodd"
         id="path18" />
    </clipPath>
    <clipPath
       clipPathUnits="userSpaceOnUse"
       id="clipPath20">
      <path
         d="M 0,0 H 1895.8333 V 346.8717 H 0 Z"
         transform="matrix(0.33441761,0,0,0.33441761,-0.50000001,-0.50000001)"
         clip-rule="evenodd"
         id="path20" />
    </clipPath>
    <clipPath
       clipPathUnits="userSpaceOnUse"
       id="clipPath21">
      <path
         d="M 0,0 H 1895.8333 V 346.8717 H 0 Z"
         transform="matrix(0.33441424,0,0,0.33441424,-439.45313,-22)"
         clip-rule="evenodd"
         id="path21" />
    </clipPath>
    <clipPath
       clipPathUnits="userSpaceOnUse"
       id="clipPath23">
      <path
         d="M 0,0 H 1895.8333 V 346.8717 H 0 Z"
         transform="matrix(0.33441761,0,0,0.33441761,-0.50000001,-0.50000001)"
         clip-rule="evenodd"
         id="path23" />
    </clipPath>
    <clipPath
       clipPathUnits="userSpaceOnUse"
       id="clipPath24">
      <path
         d="M 0,0 H 1895.8333 V 346.8717 H 0 Z"
         transform="matrix(0.33441424,0,0,0.33441424,-460.98438,-50)"
         clip-rule="evenodd"
         id="path24" />
    </clipPath>
    <clipPath
       clipPathUnits="userSpaceOnUse"
       id="clipPath26">
      <path
         d="M 0,0 H 1895.8333 V 346.8717 H 0 Z"
         transform="matrix(0.33441761,0,0,0.33441761,-0.50000001,-0.50000001)"
         clip-rule="evenodd"
         id="path26" />
    </clipPath>
    <clipPath
       clipPathUnits="userSpaceOnUse"
       id="clipPath27">
      <path
         d="M 0,0 H 1895.8333 V 346.8717 H 0 Z"
         transform="matrix(0.33441424,0,0,0.33441424,-460.48438,-77.999999)"
         clip-rule="evenodd"
         id="path27" />
    </clipPath>
  </defs>
  <sodipodi:namedview
     id="namedview1"
     pagecolor="#ffffff"
     bordercolor="#000000"
     borderopacity="0.25"
     inkscape:showpageshadow="2"
     inkscape:pageopacity="0.0"
     inkscape:pagecheckerboard="0"
     inkscape:deskcolor="#d1d1d1">
    <inkscape:page
       x="0"
       y="0"
       inkscape:label="1"
       id="page1"
       width="606.71997"
       height="112"
       margin="0"
       bleed="0" />
  </sodipodi:namedview>
  <g
     id="g1"
     inkscape:groupmode="layer"
     inkscape:label="1">
    <path
       id="path1"
       d="M 0,0 H 634 V 117 H 0 Z"
       style="fill:#ffffff;fill-opacity:1;fill-rule:nonzero;stroke:none"
       transform="scale(0.95688738)"
       clip-path="url(#clipPath2)" />
    <path
       id="path3"
       d="M 1,1 H 291 V 29 H 1 Z"
       style="fill:#dae8fc;fill-opacity:1;fill-rule:nonzero;stroke:#6c8ebf;stroke-width:1;stroke-linecap:butt;stroke-linejoin:miter;stroke-miterlimit:10;stroke-dasharray:none;stroke-opacity:1"
       transform="matrix(0.95688738,0,0,0.95688738,0.4784437,0.4784437)"
       clip-path="url(#clipPath4)" />
    <text
       id="text4"
       xml:space="preserve"
       transform="matrix(0.95689702,0,0,0.95689702,96.601744,21.051734)"
       clip-path="url(#clipPath5)"><tspan
         style="font-variant:normal;font-weight:700;font-size:18px;font-family:Helvetica;writing-mode:lr-tb;fill:#000000;fill-opacity:1;fill-rule:nonzero;stroke:none"
         x="0 10.010742 15.011719 25.022461 35.033203 45.043945 50.044922 63.043945 73.054688 83.06543"
         y="0"
         sodipodi:role="line"
         id="tspan4">class User</tspan></text>
    <path
       id="path6"
       d="M 1,29 H 291 V 57 H 1 Z"
       style="fill:#ffffff;fill-opacity:1;fill-rule:nonzero;stroke:#000000;stroke-width:1;stroke-linecap:butt;stroke-linejoin:miter;stroke-miterlimit:10;stroke-dasharray:none;stroke-opacity:1"
       transform="matrix(0.95688738,0,0,0.95688738,0.4784437,0.4784437)"
       clip-path="url(#clipPath7)" />
    <text
       id="text7"
       xml:space="preserve"
       transform="matrix(0.95689702,0,0,0.95689702,63.588797,47.844851)"
       clip-path="url(#clipPath8)"><tspan
         style="font-variant:normal;font-weight:normal;font-size:18px;font-family:Helvetica;writing-mode:lr-tb;fill:#000000;fill-opacity:1;fill-rule:nonzero;stroke:none"
         x="0 10.010742 15.011719 20.012695 26.006836 30.005859 40.016602 50.027344 55.02832 65.039062 74.039062 79.040039 83.056641 95.0625 100.06348 105.06445 111.05859 115.05762 125.06836 135.0791 140.08008 150.09082"
         y="0"
         sodipodi:role="line"
         id="tspan7">attributes: Attributes</tspan></text>
    <path
       id="path9"
       d="M 1,57 H 291 V 85 H 1 Z"
       style="fill:#ffffff;fill-opacity:1;fill-rule:nonzero;stroke:#000000;stroke-width:1;stroke-linecap:butt;stroke-linejoin:miter;stroke-miterlimit:10;stroke-dasharray:none;stroke-opacity:1"
       transform="matrix(0.95688738,0,0,0.95688738,0.4784437,0.4784437)"
       clip-path="url(#clipPath10)" />
    <text
       id="text10"
       xml:space="preserve"
       transform="matrix(0.95689702,0,0,0.95689702,83.205186,74.637967)"
       clip-path="url(#clipPath11)"><tspan
         style="font-variant:normal;font-weight:normal;font-size:18px;font-family:Helvetica;writing-mode:lr-tb;fill:#000000;fill-opacity:1;fill-rule:nonzero;stroke:none"
         x="0 10.010742 19.010742 29.021484 39.032227 44.033203 53.033203 58.03418 63.035156 75.041016 84.041016 94.051758 104.0625 109.06348"
         y="0"
         sodipodi:role="line"
         id="tspan10">events: Events</tspan></text>
    <path
       id="path12"
       d="m 291,99 h 25 V 15 h 18.64001"
       style="fill:none;stroke:#000000;stroke-width:1;stroke-linecap:butt;stroke-linejoin:miter;stroke-miterlimit:10;stroke-dasharray:none;stroke-opacity:1"
       transform="matrix(0.95688738,0,0,0.95688738,0.4784437,0.4784437)"
       clip-path="url(#clipPath13)" />
    <path
       id="path14"
       d="m 339.89001,15 -7,3.5 1.75,-3.5 -1.75,-3.5 z"
       style="fill:#000000;fill-opacity:1;fill-rule:nonzero;stroke:#000000;stroke-width:1;stroke-linecap:butt;stroke-linejoin:miter;stroke-miterlimit:10;stroke-dasharray:none;stroke-opacity:1"
       transform="matrix(0.95688738,0,0,0.95688738,0.4784437,0.4784437)"
       clip-path="url(#clipPath15)" />
    <path
       id="path16"
       d="m 1,85 h 290 v 28 H 1 Z"
       style="fill:#ffffff;fill-opacity:1;fill-rule:nonzero;stroke:#000000;stroke-width:1;stroke-linecap:butt;stroke-linejoin:miter;stroke-miterlimit:10;stroke-dasharray:none;stroke-opacity:1"
       transform="matrix(0.95688738,0,0,0.95688738,0.4784437,0.4784437)"
       clip-path="url(#clipPath17)" />
    <text
       id="text17"
       xml:space="preserve"
       transform="matrix(0.95689702,0,0,0.95689702,98.066993,101.43108)"
       clip-path="url(#clipPath18)"><tspan
         style="font-variant:normal;font-weight:normal;font-size:18px;font-family:Helvetica;writing-mode:lr-tb;fill:#000000;fill-opacity:1;fill-rule:nonzero;stroke:none"
         x="0 9 18 28.010742 37.010742 42.011719 47.012695 59.018555 68.018555 78.029297"
         y="0"
         sodipodi:role="line"
         id="tspan17">sync: Sync</tspan></text>
    <path
       id="path19"
       d="M 341,1 H 631 V 29 H 341 Z"
       style="fill:#dae8fc;fill-opacity:1;fill-rule:nonzero;stroke:#6c8ebf;stroke-width:1;stroke-linecap:butt;stroke-linejoin:miter;stroke-miterlimit:10;stroke-dasharray:none;stroke-opacity:1"
       transform="matrix(0.95688738,0,0,0.95688738,0.4784437,0.4784437)"
       clip-path="url(#clipPath20)" />
    <text
       id="text20"
       xml:space="preserve"
       transform="matrix(0.95689702,0,0,0.95689702,420.51139,21.051734)"
       clip-path="url(#clipPath21)"><tspan
         style="font-variant:normal;font-weight:700;font-size:18px;font-family:Helvetica;writing-mode:lr-tb;fill:#000000;fill-opacity:1;fill-rule:nonzero;stroke:none"
         x="0 10.010742 15.011719 25.022461 35.033203 45.043945 50.044922 62.050781 72.061523 83.056641"
         y="0"
         sodipodi:role="line"
         id="tspan20">class Sync</tspan></text>
    <path
       id="path22"
       d="M 341,29 H 631 V 57 H 341 Z"
       style="fill:#ffffff;fill-opacity:1;fill-rule:nonzero;stroke:#000000;stroke-width:1;stroke-linecap:butt;stroke-linejoin:miter;stroke-miterlimit:10;stroke-dasharray:none;stroke-opacity:1"
       transform="matrix(0.95688738,0,0,0.95688738,0.4784437,0.4784437)"
       clip-path="url(#clipPath23)" />
    <text
       id="text23"
       xml:space="preserve"
       transform="matrix(0.95689702,0,0,0.95689702,441.11458,47.844851)"
       clip-path="url(#clipPath24)"><tspan
         style="font-variant:normal;font-weight:normal;font-size:18px;font-family:Helvetica;writing-mode:lr-tb;fill:#000000;fill-opacity:1;fill-rule:nonzero;stroke:none"
         x="0 9 19.010742 28.010742 38.021484 44.015625"
         y="0"
         sodipodi:role="line"
         id="tspan23">save()</tspan></text>
    <path
       id="path25"
       d="M 341,57 H 631 V 85 H 341 Z"
       style="fill:#ffffff;fill-opacity:1;fill-rule:nonzero;stroke:#000000;stroke-width:1;stroke-linecap:butt;stroke-linejoin:miter;stroke-miterlimit:10;stroke-dasharray:none;stroke-opacity:1"
       transform="matrix(0.95688738,0,0,0.95688738,0.4784437,0.4784437)"
       clip-path="url(#clipPath26)" />
    <text
       id="text26"
       xml:space="preserve"
       transform="matrix(0.95689702,0,0,0.95689702,440.63613,74.637967)"
       clip-path="url(#clipPath27)"><tspan
         style="font-variant:normal;font-weight:normal;font-size:18px;font-family:Helvetica;writing-mode:lr-tb;fill:#000000;fill-opacity:1;fill-rule:nonzero;stroke:none"
         x="0 5.0009766 15.011719 20.012695 29.012695 39.023438 45.017578"
         y="0"
         sodipodi:role="line"
         id="tspan26">fetch()</tspan></text>
  </g>
</svg>
