<?xml version="1.0" encoding="UTF-8" standalone="no"?>
<!-- Created with Inkscape (http://www.inkscape.org/) -->

<svg
   version="1.1"
   id="svg1"
   width="606.71997"
   height="209.27998"
   viewBox="0 0 606.71997 209.27998"
   sodipodi:docname="ts-15.pdf"
   xmlns:inkscape="http://www.inkscape.org/namespaces/inkscape"
   xmlns:sodipodi="http://sodipodi.sourceforge.net/DTD/sodipodi-0.dtd"
   xmlns="http://www.w3.org/2000/svg"
   xmlns:svg="http://www.w3.org/2000/svg">
  <defs
     id="defs1">
    <clipPath
       clipPathUnits="userSpaceOnUse"
       id="clipPath2">
      <path
         d="M 0,0 H 1895.8333 V 651.87958 H 0 Z"
         transform="scale(0.33441761)"
         clip-rule="evenodd"
         id="path2" />
    </clipPath>
    <clipPath
       clipPathUnits="userSpaceOnUse"
       id="clipPath4">
      <path
         d="M 0,0 H 1895.8333 V 651.87958 H 0 Z"
         transform="matrix(0.33441761,0,0,0.33441761,-0.50000001,-0.50000001)"
         clip-rule="evenodd"
         id="path4" />
    </clipPath>
    <clipPath
       clipPathUnits="userSpaceOnUse"
       id="clipPath5">
      <path
         d="M 0,0 H 1895.8333 V 651.87958 H 0 Z"
         transform="matrix(0.33441424,0,0,0.33441424,-70.953125,-124)"
         clip-rule="evenodd"
         id="path5" />
    </clipPath>
    <clipPath
       clipPathUnits="userSpaceOnUse"
       id="clipPath7">
      <path
         d="M 0,0 H 1895.8333 V 651.87958 H 0 Z"
         transform="matrix(0.33441761,0,0,0.33441761,-0.50000001,-0.50000001)"
         clip-rule="evenodd"
         id="path7" />
    </clipPath>
    <clipPath
       clipPathUnits="userSpaceOnUse"
       id="clipPath8">
      <path
         d="M 0,0 H 1895.8333 V 651.87958 H 0 Z"
         transform="matrix(0.33441424,0,0,0.33441424,-36.453125,-152)"
         clip-rule="evenodd"
         id="path8" />
    </clipPath>
    <clipPath
       clipPathUnits="userSpaceOnUse"
       id="clipPath10">
      <path
         d="M 0,0 H 1895.8333 V 651.87958 H 0 Z"
         transform="matrix(0.33441761,0,0,0.33441761,-0.50000001,-0.50000001)"
         clip-rule="evenodd"
         id="path10" />
    </clipPath>
    <clipPath
       clipPathUnits="userSpaceOnUse"
       id="clipPath11">
      <path
         d="M 0,0 H 1895.8333 V 651.87958 H 0 Z"
         transform="matrix(0.33441424,0,0,0.33441424,-56.953124,-180)"
         clip-rule="evenodd"
         id="path11" />
    </clipPath>
    <clipPath
       clipPathUnits="userSpaceOnUse"
       id="clipPath13">
      <path
         d="M 0,0 H 1895.8333 V 651.87958 H 0 Z"
         transform="matrix(0.33441761,0,0,0.33441761,-0.50000001,-0.50000001)"
         clip-rule="evenodd"
         id="path13" />
    </clipPath>
    <clipPath
       clipPathUnits="userSpaceOnUse"
       id="clipPath15">
      <path
         d="M 0,0 H 1895.8333 V 651.87958 H 0 Z"
         transform="matrix(0.33441761,0,0,0.33441761,-0.50000001,-0.50000001)"
         clip-rule="evenodd"
         id="path15" />
    </clipPath>
    <clipPath
       clipPathUnits="userSpaceOnUse"
       id="clipPath17">
      <path
         d="M 0,0 H 1895.8333 V 651.87958 H 0 Z"
         transform="matrix(0.33441761,0,0,0.33441761,-0.50000001,-0.50000001)"
         clip-rule="evenodd"
         id="path17" />
    </clipPath>
    <clipPath
       clipPathUnits="userSpaceOnUse"
       id="clipPath18">
      <path
         d="M 0,0 H 1895.8333 V 651.87958 H 0 Z"
         transform="matrix(0.33441424,0,0,0.33441424,-19.453125,-208)"
         clip-rule="evenodd"
         id="path18" />
    </clipPath>
    <clipPath
       clipPathUnits="userSpaceOnUse"
       id="clipPath20">
      <path
         d="M 0,0 H 1895.8333 V 651.87958 H 0 Z"
         transform="matrix(0.33441761,0,0,0.33441761,-0.50000001,-0.50000001)"
         clip-rule="evenodd"
         id="path20" />
    </clipPath>
    <clipPath
       clipPathUnits="userSpaceOnUse"
       id="clipPath21">
      <path
         d="M 0,0 H 1895.8333 V 651.87958 H 0 Z"
         transform="matrix(0.33441424,0,0,0.33441424,-398.45313,-124)"
         clip-rule="evenodd"
         id="path21" />
    </clipPath>
    <clipPath
       clipPathUnits="userSpaceOnUse"
       id="clipPath23">
      <path
         d="M 0,0 H 1895.8333 V 651.87958 H 0 Z"
         transform="matrix(0.33441761,0,0,0.33441761,-0.50000001,-0.50000001)"
         clip-rule="evenodd"
         id="path23" />
    </clipPath>
    <clipPath
       clipPathUnits="userSpaceOnUse"
       id="clipPath24">
      <path
         d="M 0,0 H 1895.8333 V 651.87958 H 0 Z"
         transform="matrix(0.33441424,0,0,0.33441424,-298.07813,-152)"
         clip-rule="evenodd"
         id="path24" />
    </clipPath>
    <clipPath
       clipPathUnits="userSpaceOnUse"
       id="clipPath26">
      <path
         d="M 0,0 H 1895.8333 V 651.87958 H 0 Z"
         transform="matrix(0.33441761,0,0,0.33441761,-0.50000001,-0.50000001)"
         clip-rule="evenodd"
         id="path26" />
    </clipPath>
    <clipPath
       clipPathUnits="userSpaceOnUse"
       id="clipPath27">
      <path
         d="M 0,0 H 1895.8333 V 651.87958 H 0 Z"
         transform="matrix(0.33441424,0,0,0.33441424,-317.4375,-180)"
         clip-rule="evenodd"
         id="path27" />
    </clipPath>
    <clipPath
       clipPathUnits="userSpaceOnUse"
       id="clipPath29">
      <path
         d="M 0,0 H 1895.8333 V 651.87958 H 0 Z"
         transform="matrix(0.33441761,0,0,0.33441761,-0.50000001,-0.50000001)"
         clip-rule="evenodd"
         id="path29" />
    </clipPath>
    <clipPath
       clipPathUnits="userSpaceOnUse"
       id="clipPath30">
      <path
         d="M 0,0 H 1895.8333 V 651.87958 H 0 Z"
         transform="matrix(0.33441424,0,0,0.33441424,-201.90625,-27.999999)"
         clip-rule="evenodd"
         id="path30" />
    </clipPath>
    <clipPath
       clipPathUnits="userSpaceOnUse"
       id="clipPath31">
      <path
         d="M 0,0 H 1895.8333 V 651.87958 H 0 Z"
         transform="matrix(0.33441424,0,0,0.33441424,-273.40624,-27.999999)"
         clip-rule="evenodd"
         id="path31" />
    </clipPath>
    <clipPath
       clipPathUnits="userSpaceOnUse"
       id="clipPath32">
      <path
         d="M 0,0 H 1895.8333 V 651.87958 H 0 Z"
         transform="matrix(0.33441424,0,0,0.33441424,-177.71875,-44)"
         clip-rule="evenodd"
         id="path32" />
    </clipPath>
  </defs>
  <sodipodi:namedview
     id="namedview1"
     pagecolor="#ffffff"
     bordercolor="#000000"
     borderopacity="0.25"
     inkscape:showpageshadow="2"
     inkscape:pageopacity="0.0"
     inkscape:pagecheckerboard="0"
     inkscape:deskcolor="#d1d1d1">
    <inkscape:page
       x="0"
       y="0"
       inkscape:label="1"
       id="page1"
       width="606.71997"
       height="209.27998"
       margin="0"
       bleed="0" />
  </sodipodi:namedview>
  <g
     id="g1"
     inkscape:groupmode="layer"
     inkscape:label="1">
    <path
       id="path1"
       d="M 0,0 H 634 V 218 H 0 Z"
       style="fill:#ffffff;fill-opacity:1;fill-rule:nonzero;stroke:none"
       transform="scale(0.95688738)"
       clip-path="url(#clipPath2)" />
    <path
       id="path3"
       d="m 1,103 h 230 v 28 H 1 Z"
       style="fill:#dae8fc;fill-opacity:1;fill-rule:nonzero;stroke:#6c8ebf;stroke-width:1;stroke-linecap:butt;stroke-linejoin:miter;stroke-miterlimit:10;stroke-dasharray:none;stroke-opacity:1"
       transform="matrix(0.95688738,0,0,0.95688738,0.4784437,0.4784437)"
       clip-path="url(#clipPath4)" />
    <text
       id="text4"
       xml:space="preserve"
       transform="matrix(0.95689702,0,0,0.95689702,67.894834,118.65523)"
       clip-path="url(#clipPath5)"><tspan
         style="font-variant:normal;font-weight:700;font-size:18px;font-family:Helvetica;writing-mode:lr-tb;fill:#000000;fill-opacity:1;fill-rule:nonzero;stroke:none"
         x="0 10.010742 15.011719 25.022461 35.033203 45.043945 50.044922 63.043945 73.054688 83.06543"
         y="0"
         sodipodi:role="line"
         id="tspan4">class User</tspan></text>
    <path
       id="path6"
       d="m 1,131 h 230 v 28 H 1 Z"
       style="fill:#ffffff;fill-opacity:1;fill-rule:nonzero;stroke:#000000;stroke-width:1;stroke-linecap:butt;stroke-linejoin:miter;stroke-miterlimit:10;stroke-dasharray:none;stroke-opacity:1"
       transform="matrix(0.95688738,0,0,0.95688738,0.4784437,0.4784437)"
       clip-path="url(#clipPath7)" />
    <text
       id="text7"
       xml:space="preserve"
       transform="matrix(0.95689702,0,0,0.95689702,34.881887,145.44835)"
       clip-path="url(#clipPath8)"><tspan
         style="font-variant:normal;font-weight:normal;font-size:18px;font-family:Helvetica;writing-mode:lr-tb;fill:#000000;fill-opacity:1;fill-rule:nonzero;stroke:none"
         x="0 10.010742 15.011719 20.012695 26.006836 30.005859 40.016602 50.027344 55.02832 65.039062 74.039062 79.040039 83.056641 95.0625 100.06348 105.06445 111.05859 115.05762 125.06836 135.0791 140.08008 150.09082"
         y="0"
         sodipodi:role="line"
         id="tspan7">attributes: Attributes</tspan></text>
    <path
       id="path9"
       d="m 1,159 h 230 v 28 H 1 Z"
       style="fill:#ffffff;fill-opacity:1;fill-rule:nonzero;stroke:#000000;stroke-width:1;stroke-linecap:butt;stroke-linejoin:miter;stroke-miterlimit:10;stroke-dasharray:none;stroke-opacity:1"
       transform="matrix(0.95688738,0,0,0.95688738,0.4784437,0.4784437)"
       clip-path="url(#clipPath10)" />
    <text
       id="text10"
       xml:space="preserve"
       transform="matrix(0.95689702,0,0,0.95689702,54.498275,172.24146)"
       clip-path="url(#clipPath11)"><tspan
         style="font-variant:normal;font-weight:normal;font-size:18px;font-family:Helvetica;writing-mode:lr-tb;fill:#000000;fill-opacity:1;fill-rule:nonzero;stroke:none"
         x="0 10.010742 19.010742 29.021484 39.032227 44.033203 53.033203 58.03418 63.035156 75.041016 84.041016 94.051758 104.0625 109.06348"
         y="0"
         sodipodi:role="line"
         id="tspan10">events: Events</tspan></text>
    <path
       id="path12"
       d="m 231,201 h 30 v -84 h 23.63"
       style="fill:none;stroke:#000000;stroke-width:1;stroke-linecap:butt;stroke-linejoin:miter;stroke-miterlimit:10;stroke-dasharray:none;stroke-opacity:1"
       transform="matrix(0.95688738,0,0,0.95688738,0.4784437,0.4784437)"
       clip-path="url(#clipPath13)" />
    <path
       id="path14"
       d="m 289.88,117 -7,3.5 1.75,-3.5 -1.75,-3.5 z"
       style="fill:#000000;fill-opacity:1;fill-rule:nonzero;stroke:#000000;stroke-width:1;stroke-linecap:butt;stroke-linejoin:miter;stroke-miterlimit:10;stroke-dasharray:none;stroke-opacity:1"
       transform="matrix(0.95688738,0,0,0.95688738,0.4784437,0.4784437)"
       clip-path="url(#clipPath15)" />
    <path
       id="path16"
       d="m 1,187 h 230 v 28 H 1 Z"
       style="fill:#ffffff;fill-opacity:1;fill-rule:nonzero;stroke:#000000;stroke-width:1;stroke-linecap:butt;stroke-linejoin:miter;stroke-miterlimit:10;stroke-dasharray:none;stroke-opacity:1"
       transform="matrix(0.95688738,0,0,0.95688738,0.4784437,0.4784437)"
       clip-path="url(#clipPath17)" />
    <text
       id="text17"
       xml:space="preserve"
       transform="matrix(0.95689702,0,0,0.95689702,18.614637,199.03458)"
       clip-path="url(#clipPath18)"><tspan
         style="font-variant:normal;font-weight:normal;font-size:18px;font-family:Helvetica;writing-mode:lr-tb;fill:#000000;fill-opacity:1;fill-rule:nonzero;stroke:none"
         x="0 9 18 28.010742 37.010742 42.011719 47.012695 59.018555 68.018555 78.029297 87.029297 97.541016 110.54004 119.54004 129.55078 135.54492 147.55078 153.54492 163.55566 173.56641 182.56641"
         y="0"
         sodipodi:role="line"
         id="tspan17">sync: Sync&lt;UserProps&gt;</tspan></text>
    <path
       id="path19"
       d="m 291,103 h 340 v 28 H 291 Z"
       style="fill:#dae8fc;fill-opacity:1;fill-rule:nonzero;stroke:#6c8ebf;stroke-width:1;stroke-linecap:butt;stroke-linejoin:miter;stroke-miterlimit:10;stroke-dasharray:none;stroke-opacity:1"
       transform="matrix(0.95688738,0,0,0.95688738,0.4784437,0.4784437)"
       clip-path="url(#clipPath20)" />
    <text
       id="text20"
       xml:space="preserve"
       transform="matrix(0.95689702,0,0,0.95689702,381.27861,118.65523)"
       clip-path="url(#clipPath21)"><tspan
         style="font-variant:normal;font-weight:700;font-size:18px;font-family:Helvetica;writing-mode:lr-tb;fill:#000000;fill-opacity:1;fill-rule:nonzero;stroke:none"
         x="0 10.010742 15.011719 25.022461 35.033203 45.043945 50.044922 62.050781 72.061523 83.056641 93.067383 103.5791 114.57422"
         y="0"
         sodipodi:role="line"
         id="tspan20">class Sync&lt;T&gt;</tspan></text>
    <path
       id="path22"
       d="m 291,131 h 340 v 28 H 291 Z"
       style="fill:#ffffff;fill-opacity:1;fill-rule:nonzero;stroke:#000000;stroke-width:1;stroke-linecap:butt;stroke-linejoin:miter;stroke-miterlimit:10;stroke-dasharray:none;stroke-opacity:1"
       transform="matrix(0.95688738,0,0,0.95688738,0.4784437,0.4784437)"
       clip-path="url(#clipPath23)" />
    <text
       id="text23"
       xml:space="preserve"
       transform="matrix(0.95689702,0,0,0.95689702,285.23007,145.44835)"
       clip-path="url(#clipPath24)"><tspan
         style="font-variant:normal;font-weight:normal;font-size:18px;font-family:Helvetica;writing-mode:lr-tb;fill:#000000;fill-opacity:1;fill-rule:nonzero;stroke:none"
         x="0 9 19.010742 28.010742 38.021484 44.015625 48.014648 58.025391 63.026367 68.027344 78.038086 88.048828 103.04297 108.04395 113.04492 123.05566 133.06641 138.06738 148.07812 153.0791 157.76367 168.75879 174.75293 179.75391 183.77051 195.77637 204.77637 208.77539 218.78613 227.78613 239.79199 245.78613 255.79688 270.79102 274.79004 283.79004 293.80078 304.3125 315.30762"
         y="0"
         sodipodi:role="line"
         id="tspan23">save(id: num, data: T): AxiosPromise&lt;T&gt;</tspan></text>
    <path
       id="path25"
       d="m 291,159 h 340 v 28 H 291 Z"
       style="fill:#ffffff;fill-opacity:1;fill-rule:nonzero;stroke:#000000;stroke-width:1;stroke-linecap:butt;stroke-linejoin:miter;stroke-miterlimit:10;stroke-dasharray:none;stroke-opacity:1"
       transform="matrix(0.95688738,0,0,0.95688738,0.4784437,0.4784437)"
       clip-path="url(#clipPath26)" />
    <text
       id="text26"
       xml:space="preserve"
       transform="matrix(0.95689702,0,0,0.95689702,303.755,172.24146)"
       clip-path="url(#clipPath27)"><tspan
         style="font-variant:normal;font-weight:normal;font-size:18px;font-family:Helvetica;writing-mode:lr-tb;fill:#000000;fill-opacity:1;fill-rule:nonzero;stroke:none"
         x="0 5.0009766 15.011719 20.012695 29.012695 39.023438 45.017578 49.016602 59.027344 64.02832 69.029297 79.040039 89.050781 104.04492 114.05566 124.06641 130.06055 136.05469 141.05566 145.07227 157.07812 166.07812 170.07715 180.08789 189.08789 201.09375 207.08789 217.09863 232.09277 236.0918 245.0918 255.10254 265.61426 276.60938"
         y="0"
         sodipodi:role="line"
         id="tspan26">fetch(id: number): AxiosPromise&lt;T&gt;</tspan></text>
    <path
       id="path28"
       d="M 171,1 H 451 V 61 H 171 Z"
       style="fill:#f8cecc;fill-opacity:1;fill-rule:nonzero;stroke:#b85450;stroke-width:1;stroke-linecap:butt;stroke-linejoin:miter;stroke-miterlimit:10;stroke-dasharray:none;stroke-opacity:1"
       transform="matrix(0.95688738,0,0,0.95688738,0.4784437,0.4784437)"
       clip-path="url(#clipPath29)" />
    <text
       id="text29"
       xml:space="preserve"
       transform="matrix(0.95689702,0,0,0.95689702,193.20349,26.793116)"
       clip-path="url(#clipPath30)"><tspan
         style="font-variant:normal;font-weight:700;font-size:13px;font-family:Helvetica;writing-mode:lr-tb;fill:#000000;fill-opacity:1;fill-rule:nonzero;stroke:none"
         x="0 10.111816 18.052734 22.381836 25.993652 33.93457 41.875488 45.487305 52.717285 59.947266 63.559082 67.888184"
         y="0"
         sodipodi:role="line"
         id="tspan29">Option #3 - </tspan></text>
    <text
       id="text30"
       xml:space="preserve"
       transform="matrix(0.95689702,0,0,0.95689702,261.62162,26.793116)"
       clip-path="url(#clipPath31)"><tspan
         style="font-variant:normal;font-weight:normal;font-size:13px;font-family:Helvetica;writing-mode:lr-tb;fill:#000000;fill-opacity:1;fill-rule:nonzero;stroke:none"
         x="0 8.6708984 15.170898 22.400879 28.900879 32.512695 35.400879 41.900879 45.512695 52.742676 56.354492 63.584473 70.814453 78.044434 85.274414 89.603516 92.491699 98.991699 102.60352 109.10352 111.9917 119.22168 125.72168 132.22168 135.8335 139.44531"
         y="0"
         sodipodi:role="line"
         id="tspan30">Sync is a generic class to</tspan></text>
    <text
       id="text31"
       xml:space="preserve"
       transform="matrix(0.95689702,0,0,0.95689702,170.05854,42.103469)"
       clip-path="url(#clipPath32)"><tspan
         style="font-variant:normal;font-weight:normal;font-size:13px;font-family:Helvetica;writing-mode:lr-tb;fill:#000000;fill-opacity:1;fill-rule:nonzero;stroke:none"
         x="0 6.5 13.72998 20.22998 23.841797 31.071777 41.900879 44.789062 51.289062 58.519043 62.130859 65.742676 72.972656 80.202637 83.814453 87.42627 93.92627 101.15625 108.38623 111.99805 119.22803 122.83984 126.45166 128.93359 136.16357 143.39355 147.00537 154.23535 156.71729 160.3291 166.8291 174.05908 184.88818 187.77637 195.00635 202.23633 205.84814 208.73633 215.96631 219.57812 226.80811 230.41992 236.91992 244.1499 250.6499 257.87988 262.20898"
         y="0"
         sodipodi:role="line"
         id="tspan31">customize the type of 'data' coming into save()</tspan></text>
  </g>
</svg>
