<?xml version="1.0" encoding="UTF-8" standalone="no"?>
<!-- Created with Inkscape (http://www.inkscape.org/) -->

<svg
   version="1.1"
   id="svg1"
   width="664"
   height="200"
   viewBox="0 0 664 200"
   sodipodi:docname="ts-12.pdf"
   xmlns:inkscape="http://www.inkscape.org/namespaces/inkscape"
   xmlns:sodipodi="http://sodipodi.sourceforge.net/DTD/sodipodi-0.dtd"
   xmlns="http://www.w3.org/2000/svg"
   xmlns:svg="http://www.w3.org/2000/svg">
  <defs
     id="defs1">
    <clipPath
       clipPathUnits="userSpaceOnUse"
       id="clipPath2">
      <path
         d="M 0,0 H 2075 V 624.89191 H 0 Z"
         transform="scale(0.33445784)"
         clip-rule="evenodd"
         id="path2" />
    </clipPath>
    <clipPath
       clipPathUnits="userSpaceOnUse"
       id="clipPath4">
      <path
         d="M 0,0 H 2075 V 621.90198 H 0 Z"
         transform="matrix(0.33445784,0,0,0.33445784,-0.49999999,-0.49999999)"
         clip-rule="evenodd"
         id="path4" />
    </clipPath>
    <clipPath
       clipPathUnits="userSpaceOnUse"
       id="clipPath5">
      <path
         d="M 0,0 H 2075 V 621.90198 H 0 Z"
         transform="matrix(0.33445448,0,0,0.33445448,-70.953125,-114)"
         clip-rule="evenodd"
         id="path5" />
    </clipPath>
    <clipPath
       clipPathUnits="userSpaceOnUse"
       id="clipPath7">
      <path
         d="M 0,0 H 2075 V 621.90198 H 0 Z"
         transform="matrix(0.33445784,0,0,0.33445784,-0.49999999,-0.49999999)"
         clip-rule="evenodd"
         id="path7" />
    </clipPath>
    <clipPath
       clipPathUnits="userSpaceOnUse"
       id="clipPath8">
      <path
         d="M 0,0 H 2075 V 621.90198 H 0 Z"
         transform="matrix(0.33445448,0,0,0.33445448,-36.453125,-142)"
         clip-rule="evenodd"
         id="path8" />
    </clipPath>
    <clipPath
       clipPathUnits="userSpaceOnUse"
       id="clipPath10">
      <path
         d="M 0,0 H 2075 V 621.90198 H 0 Z"
         transform="matrix(0.33445784,0,0,0.33445784,-0.49999999,-0.49999999)"
         clip-rule="evenodd"
         id="path10" />
    </clipPath>
    <clipPath
       clipPathUnits="userSpaceOnUse"
       id="clipPath11">
      <path
         d="M 0,0 H 2075 V 621.90198 H 0 Z"
         transform="matrix(0.33445448,0,0,0.33445448,-56.953125,-170)"
         clip-rule="evenodd"
         id="path11" />
    </clipPath>
    <clipPath
       clipPathUnits="userSpaceOnUse"
       id="clipPath13">
      <path
         d="M 0,0 H 2075 V 621.90198 H 0 Z"
         transform="matrix(0.33445784,0,0,0.33445784,-0.49999999,-0.49999999)"
         clip-rule="evenodd"
         id="path13" />
    </clipPath>
    <clipPath
       clipPathUnits="userSpaceOnUse"
       id="clipPath15">
      <path
         d="M 0,0 H 2075 V 621.90198 H 0 Z"
         transform="matrix(0.33445784,0,0,0.33445784,-0.49999999,-0.49999999)"
         clip-rule="evenodd"
         id="path15" />
    </clipPath>
    <clipPath
       clipPathUnits="userSpaceOnUse"
       id="clipPath17">
      <path
         d="M 0,0 H 2075 V 621.90198 H 0 Z"
         transform="matrix(0.33445784,0,0,0.33445784,-0.49999999,-0.49999999)"
         clip-rule="evenodd"
         id="path17" />
    </clipPath>
    <clipPath
       clipPathUnits="userSpaceOnUse"
       id="clipPath18">
      <path
         d="M 0,0 H 2075 V 621.90198 H 0 Z"
         transform="matrix(0.33445448,0,0,0.33445448,-72.484375,-198)"
         clip-rule="evenodd"
         id="path18" />
    </clipPath>
    <clipPath
       clipPathUnits="userSpaceOnUse"
       id="clipPath20">
      <path
         d="M 0,0 H 2075 V 621.90198 H 0 Z"
         transform="matrix(0.33445784,0,0,0.33445784,-0.49999999,-0.49999999)"
         clip-rule="evenodd"
         id="path20" />
    </clipPath>
    <clipPath
       clipPathUnits="userSpaceOnUse"
       id="clipPath21">
      <path
         d="M 0,0 H 2075 V 621.90198 H 0 Z"
         transform="matrix(0.33445448,0,0,0.33445448,-439.45313,-114)"
         clip-rule="evenodd"
         id="path21" />
    </clipPath>
    <clipPath
       clipPathUnits="userSpaceOnUse"
       id="clipPath23">
      <path
         d="M 0,0 H 2075 V 621.90198 H 0 Z"
         transform="matrix(0.33445784,0,0,0.33445784,-0.49999999,-0.49999999)"
         clip-rule="evenodd"
         id="path23" />
    </clipPath>
    <clipPath
       clipPathUnits="userSpaceOnUse"
       id="clipPath24">
      <path
         d="M 0,0 H 2075 V 621.90198 H 0 Z"
         transform="matrix(0.33445448,0,0,0.33445448,-327.42188,-142)"
         clip-rule="evenodd"
         id="path24" />
    </clipPath>
    <clipPath
       clipPathUnits="userSpaceOnUse"
       id="clipPath26">
      <path
         d="M 0,0 H 2075 V 621.90198 H 0 Z"
         transform="matrix(0.33445784,0,0,0.33445784,-0.49999999,-0.49999999)"
         clip-rule="evenodd"
         id="path26" />
    </clipPath>
    <clipPath
       clipPathUnits="userSpaceOnUse"
       id="clipPath27">
      <path
         d="M 0,0 H 2075 V 621.90198 H 0 Z"
         transform="matrix(0.33445448,0,0,0.33445448,-370.45313,-170)"
         clip-rule="evenodd"
         id="path27" />
    </clipPath>
    <clipPath
       clipPathUnits="userSpaceOnUse"
       id="clipPath29">
      <path
         d="M 0,0 H 2075 V 621.90198 H 0 Z"
         transform="matrix(0.33445784,0,0,0.33445784,-0.49999999,-0.49999999)"
         clip-rule="evenodd"
         id="path29" />
    </clipPath>
    <clipPath
       clipPathUnits="userSpaceOnUse"
       id="clipPath30">
      <path
         d="M 0,0 H 2075 V 621.90198 H 0 Z"
         transform="matrix(0.33445448,0,0,0.33445448,-262.125,-28)"
         clip-rule="evenodd"
         id="path30" />
    </clipPath>
    <clipPath
       clipPathUnits="userSpaceOnUse"
       id="clipPath31">
      <path
         d="M 0,0 H 2075 V 621.90198 H 0 Z"
         transform="matrix(0.33445448,0,0,0.33445448,-333.625,-28)"
         clip-rule="evenodd"
         id="path31" />
    </clipPath>
    <clipPath
       clipPathUnits="userSpaceOnUse"
       id="clipPath32">
      <path
         d="M 0,0 H 2075 V 621.90198 H 0 Z"
         transform="matrix(0.33445448,0,0,0.33445448,-320.28125,-44)"
         clip-rule="evenodd"
         id="path32" />
    </clipPath>
  </defs>
  <sodipodi:namedview
     id="namedview1"
     pagecolor="#ffffff"
     bordercolor="#000000"
     borderopacity="0.25"
     inkscape:showpageshadow="2"
     inkscape:pageopacity="0.0"
     inkscape:pagecheckerboard="0"
     inkscape:deskcolor="#d1d1d1">
    <inkscape:page
       x="0"
       y="0"
       inkscape:label="1"
       id="page1"
       width="664"
       height="200"
       margin="0"
       bleed="0" />
  </sodipodi:namedview>
  <g
     id="g1"
     inkscape:groupmode="layer"
     inkscape:label="1">
    <path
       id="path1"
       d="M 0,0 H 694 V 209 H 0 Z"
       style="fill:#ffffff;fill-opacity:1;fill-rule:nonzero;stroke:none"
       transform="scale(0.95677228)"
       clip-path="url(#clipPath2)" />
    <path
       id="path3"
       d="m 1,93 h 230 v 28 H 1 Z"
       style="fill:#dae8fc;fill-opacity:1;fill-rule:nonzero;stroke:#6c8ebf;stroke-width:1;stroke-linecap:butt;stroke-linejoin:miter;stroke-miterlimit:10;stroke-dasharray:none;stroke-opacity:1"
       transform="matrix(0.95677228,0,0,0.95677228,0.47838613,0.47838613)"
       clip-path="url(#clipPath4)" />
    <text
       id="text4"
       xml:space="preserve"
       transform="matrix(0.95678188,0,0,0.95678188,67.886664,109.07313)"
       clip-path="url(#clipPath5)"><tspan
         style="font-variant:normal;font-weight:700;font-size:18px;font-family:Helvetica;writing-mode:lr-tb;fill:#000000;fill-opacity:1;fill-rule:nonzero;stroke:none"
         x="0 10.010742 15.011719 25.022461 35.033203 45.043945 50.044922 63.043945 73.054688 83.06543"
         y="0"
         sodipodi:role="line"
         id="tspan4">class User</tspan></text>
    <path
       id="path6"
       d="m 1,121 h 230 v 28 H 1 Z"
       style="fill:#ffffff;fill-opacity:1;fill-rule:nonzero;stroke:#000000;stroke-width:1;stroke-linecap:butt;stroke-linejoin:miter;stroke-miterlimit:10;stroke-dasharray:none;stroke-opacity:1"
       transform="matrix(0.95677228,0,0,0.95677228,0.47838613,0.47838613)"
       clip-path="url(#clipPath7)" />
    <text
       id="text7"
       xml:space="preserve"
       transform="matrix(0.95678188,0,0,0.95678188,34.877689,135.86303)"
       clip-path="url(#clipPath8)"><tspan
         style="font-variant:normal;font-weight:normal;font-size:18px;font-family:Helvetica;writing-mode:lr-tb;fill:#000000;fill-opacity:1;fill-rule:nonzero;stroke:none"
         x="0 10.010742 15.011719 20.012695 26.006836 30.005859 40.016602 50.027344 55.02832 65.039062 74.039062 79.040039 83.056641 95.0625 100.06348 105.06445 111.05859 115.05762 125.06836 135.0791 140.08008 150.09082"
         y="0"
         sodipodi:role="line"
         id="tspan7">attributes: Attributes</tspan></text>
    <path
       id="path9"
       d="m 1,149 h 230 v 28 H 1 Z"
       style="fill:#ffffff;fill-opacity:1;fill-rule:nonzero;stroke:#000000;stroke-width:1;stroke-linecap:butt;stroke-linejoin:miter;stroke-miterlimit:10;stroke-dasharray:none;stroke-opacity:1"
       transform="matrix(0.95677228,0,0,0.95677228,0.47838613,0.47838613)"
       clip-path="url(#clipPath10)" />
    <text
       id="text10"
       xml:space="preserve"
       transform="matrix(0.95678188,0,0,0.95678188,54.491718,162.65292)"
       clip-path="url(#clipPath11)"><tspan
         style="font-variant:normal;font-weight:normal;font-size:18px;font-family:Helvetica;writing-mode:lr-tb;fill:#000000;fill-opacity:1;fill-rule:nonzero;stroke:none"
         x="0 10.010742 19.010742 29.021484 39.032227 44.033203 53.033203 58.03418 63.035156 75.041016 84.041016 94.051758 104.0625 109.06348"
         y="0"
         sodipodi:role="line"
         id="tspan10">events: Events</tspan></text>
    <path
       id="path12"
       d="m 231,191 h 25 v -84 h 18.63"
       style="fill:none;stroke:#000000;stroke-width:1;stroke-linecap:butt;stroke-linejoin:miter;stroke-miterlimit:10;stroke-dasharray:none;stroke-opacity:1"
       transform="matrix(0.95677228,0,0,0.95677228,0.47838613,0.47838613)"
       clip-path="url(#clipPath13)" />
    <path
       id="path14"
       d="m 279.88,107 -7,3.5 1.75,-3.5 -1.75,-3.5 z"
       style="fill:#000000;fill-opacity:1;fill-rule:nonzero;stroke:#000000;stroke-width:1;stroke-linecap:butt;stroke-linejoin:miter;stroke-miterlimit:10;stroke-dasharray:none;stroke-opacity:1"
       transform="matrix(0.95677228,0,0,0.95677228,0.47838613,0.47838613)"
       clip-path="url(#clipPath15)" />
    <path
       id="path16"
       d="m 1,177 h 230 v 28 H 1 Z"
       style="fill:#ffffff;fill-opacity:1;fill-rule:nonzero;stroke:#000000;stroke-width:1;stroke-linecap:butt;stroke-linejoin:miter;stroke-miterlimit:10;stroke-dasharray:none;stroke-opacity:1"
       transform="matrix(0.95677228,0,0,0.95677228,0.47838613,0.47838613)"
       clip-path="url(#clipPath17)" />
    <text
       id="text17"
       xml:space="preserve"
       transform="matrix(0.95678188,0,0,0.95678188,69.351737,189.44281)"
       clip-path="url(#clipPath18)"><tspan
         style="font-variant:normal;font-weight:normal;font-size:18px;font-family:Helvetica;writing-mode:lr-tb;fill:#000000;fill-opacity:1;fill-rule:nonzero;stroke:none"
         x="0 9 18 28.010742 37.010742 42.011719 47.012695 59.018555 68.018555 78.029297"
         y="0"
         sodipodi:role="line"
         id="tspan17">sync: Sync</tspan></text>
    <path
       id="path19"
       d="m 281,93 h 410 v 28 H 281 Z"
       style="fill:#dae8fc;fill-opacity:1;fill-rule:nonzero;stroke:#6c8ebf;stroke-width:1;stroke-linecap:butt;stroke-linejoin:miter;stroke-miterlimit:10;stroke-dasharray:none;stroke-opacity:1"
       transform="matrix(0.95677228,0,0,0.95677228,0.47838613,0.47838613)"
       clip-path="url(#clipPath20)" />
    <text
       id="text20"
       xml:space="preserve"
       transform="matrix(0.95678188,0,0,0.95678188,420.46079,109.07313)"
       clip-path="url(#clipPath21)"><tspan
         style="font-variant:normal;font-weight:700;font-size:18px;font-family:Helvetica;writing-mode:lr-tb;fill:#000000;fill-opacity:1;fill-rule:nonzero;stroke:none"
         x="0 10.010742 15.011719 25.022461 35.033203 45.043945 50.044922 62.050781 72.061523 83.056641"
         y="0"
         sodipodi:role="line"
         id="tspan20">class Sync</tspan></text>
    <path
       id="path22"
       d="m 281,121 h 410 v 28 H 281 Z"
       style="fill:#ffffff;fill-opacity:1;fill-rule:nonzero;stroke:#000000;stroke-width:1;stroke-linecap:butt;stroke-linejoin:miter;stroke-miterlimit:10;stroke-dasharray:none;stroke-opacity:1"
       transform="matrix(0.95677228,0,0,0.95677228,0.47838613,0.47838613)"
       clip-path="url(#clipPath23)" />
    <text
       id="text23"
       xml:space="preserve"
       transform="matrix(0.95678188,0,0,0.95678188,313.27132,135.86303)"
       clip-path="url(#clipPath24)"><tspan
         style="font-variant:normal;font-weight:normal;font-size:18px;font-family:Helvetica;writing-mode:lr-tb;fill:#000000;fill-opacity:1;fill-rule:nonzero;stroke:none"
         x="0 9 19.010742 28.010742 38.021484 44.015625 48.014648 58.025391 63.026367 68.027344 78.038086 88.048828 103.04297 113.05371 123.06445 128.07422 133.0752 138.07617 148.08691 158.09766 163.09863 173.10938 178.11035 183.11133 196.11035 205.11035 215.12109 221.11523 233.12109 239.11523 249.12598 259.13672 268.13672 274.13086 279.13184 284.13281 293.13281 303.14355 307.14258"
         y="0"
         sodipodi:role="line"
         id="tspan23">save(id: number, data: UserProps): void</tspan></text>
    <path
       id="path25"
       d="m 281,149 h 410 v 28 H 281 Z"
       style="fill:#ffffff;fill-opacity:1;fill-rule:nonzero;stroke:#000000;stroke-width:1;stroke-linecap:butt;stroke-linejoin:miter;stroke-miterlimit:10;stroke-dasharray:none;stroke-opacity:1"
       transform="matrix(0.95677228,0,0,0.95677228,0.47838613,0.47838613)"
       clip-path="url(#clipPath26)" />
    <text
       id="text26"
       xml:space="preserve"
       transform="matrix(0.95678188,0,0,0.95678188,354.44284,162.65292)"
       clip-path="url(#clipPath27)"><tspan
         style="font-variant:normal;font-weight:normal;font-size:18px;font-family:Helvetica;writing-mode:lr-tb;fill:#000000;fill-opacity:1;fill-rule:nonzero;stroke:none"
         x="0 5.0009766 15.011719 20.012695 29.012695 39.023438 45.017578 49.016602 59.027344 64.02832 69.029297 79.040039 89.050781 104.04492 114.05566 124.06641 130.06055 136.05469 141.05566 146.05664 159.05566 168.05566 178.06641 184.06055 196.06641 202.06055 212.07129 222.08203"
         y="0"
         sodipodi:role="line"
         id="tspan26">fetch(id: number): UserProps</tspan></text>
    <path
       id="path28"
       d="M 251,1 H 451 V 61 H 251 Z"
       style="fill:#f8cecc;fill-opacity:1;fill-rule:nonzero;stroke:#b85450;stroke-width:1;stroke-linecap:butt;stroke-linejoin:miter;stroke-miterlimit:10;stroke-dasharray:none;stroke-opacity:1"
       transform="matrix(0.95677228,0,0,0.95677228,0.47838613,0.47838613)"
       clip-path="url(#clipPath29)" />
    <text
       id="text29"
       xml:space="preserve"
       transform="matrix(0.95678188,0,0,0.95678188,250.79645,26.789893)"
       clip-path="url(#clipPath30)"><tspan
         style="font-variant:normal;font-weight:700;font-size:13px;font-family:Helvetica;writing-mode:lr-tb;fill:#000000;fill-opacity:1;fill-rule:nonzero;stroke:none"
         x="0 10.111816 18.052734 22.381836 25.993652 33.93457 41.875488 45.487305 52.717285 59.947266 63.559082 67.888184"
         y="0"
         sodipodi:role="line"
         id="tspan29">Option #1 - </tspan></text>
    <text
       id="text30"
       xml:space="preserve"
       transform="matrix(0.95678188,0,0,0.95678188,319.20635,26.789893)"
       clip-path="url(#clipPath31)"><tspan
         style="font-variant:normal;font-weight:normal;font-size:13px;font-family:Helvetica;writing-mode:lr-tb;fill:#000000;fill-opacity:1;fill-rule:nonzero;stroke:none"
         x="0 8.6708984 15.170898 22.400879 28.900879 32.512695 39.742676 46.972656 50.584473 57.084473 60.696289 64.308105 71.538086 78.768066 85.268066 88.879883 91.768066 98.998047"
         y="0"
         sodipodi:role="line"
         id="tspan30">Sync gets function</tspan></text>
    <text
       id="text31"
       xml:space="preserve"
       transform="matrix(0.95678188,0,0,0.95678188,306.4393,42.098403)"
       clip-path="url(#clipPath32)"><tspan
         style="font-variant:normal;font-weight:normal;font-size:13px;font-family:Helvetica;writing-mode:lr-tb;fill:#000000;fill-opacity:1;fill-rule:nonzero;stroke:none"
         x="0 7.2299805 11.559082 18.789062 26.019043 36.848145 44.078125 51.308105 54.919922"
         y="0"
         sodipodi:role="line"
         id="tspan31">arguments</tspan></text>
  </g>
</svg>
