<?xml version="1.0" encoding="UTF-8" standalone="no"?>
<!-- Created with Inkscape (http://www.inkscape.org/) -->

<svg
   version="1.1"
   id="svg1"
   width="645.44"
   height="244.16"
   viewBox="0 0 645.44 244.16"
   sodipodi:docname="ts-19.pdf"
   xmlns:inkscape="http://www.inkscape.org/namespaces/inkscape"
   xmlns:sodipodi="http://sodipodi.sourceforge.net/DTD/sodipodi-0.dtd"
   xmlns="http://www.w3.org/2000/svg"
   xmlns:svg="http://www.w3.org/2000/svg">
  <defs
     id="defs1">
    <clipPath
       clipPathUnits="userSpaceOnUse"
       id="clipPath2">
      <path
         d="M 0,0 H 2016.6665 V 759.99005 H 0 Z"
         transform="scale(0.33421489)"
         clip-rule="evenodd"
         id="path2" />
    </clipPath>
    <clipPath
       clipPathUnits="userSpaceOnUse"
       id="clipPath4">
      <path
         d="M 0,0 H 2016.6665 V 756.99799 H 0 Z"
         transform="matrix(0.33421489,0,0,0.33421489,-0.49999999,-0.49999999)"
         clip-rule="evenodd"
         id="path4" />
    </clipPath>
    <clipPath
       clipPathUnits="userSpaceOnUse"
       id="clipPath6">
      <path
         d="M 0,0 H 2016.6665 V 756.99799 H 0 Z"
         transform="matrix(-0.33421489,0,0,-0.33421489,642.49999,282.49999)"
         clip-rule="evenodd"
         id="path6" />
    </clipPath>
    <clipPath
       clipPathUnits="userSpaceOnUse"
       id="clipPath8">
      <path
         d="M 0,0 H 2016.6665 V 756.99799 H 0 Z"
         transform="matrix(0.33421489,0,0,0.33421489,-0.49999999,-0.49999999)"
         clip-rule="evenodd"
         id="path8" />
    </clipPath>
    <clipPath
       clipPathUnits="userSpaceOnUse"
       id="clipPath10">
      <path
         d="M 0,0 H 2016.6665 V 756.99799 H 0 Z"
         transform="matrix(0.33421489,0,0,0.33421489,-0.49999999,-0.49999999)"
         clip-rule="evenodd"
         id="path10" />
    </clipPath>
    <clipPath
       clipPathUnits="userSpaceOnUse"
       id="clipPath12">
      <path
         d="M 0,0 H 2016.6665 V 756.99799 H 0 Z"
         transform="matrix(0.33421489,0,0,0.33421489,-0.49999999,-0.49999999)"
         clip-rule="evenodd"
         id="path12" />
    </clipPath>
    <clipPath
       clipPathUnits="userSpaceOnUse"
       id="clipPath13">
      <path
         d="M 0,0 H 2016.6665 V 756.99799 H 0 Z"
         transform="matrix(0.33421154,0,0,0.33421154,-73.484375,-68)"
         clip-rule="evenodd"
         id="path13" />
    </clipPath>
    <clipPath
       clipPathUnits="userSpaceOnUse"
       id="clipPath15">
      <path
         d="M 0,0 H 2016.6665 V 756.99799 H 0 Z"
         transform="matrix(0.33421489,0,0,0.33421489,-0.49999999,-0.49999999)"
         clip-rule="evenodd"
         id="path15" />
    </clipPath>
    <clipPath
       clipPathUnits="userSpaceOnUse"
       id="clipPath16">
      <path
         d="M 0,0 H 2016.6665 V 756.99799 H 0 Z"
         transform="matrix(0.33421154,0,0,0.33421154,-213.98438,-68)"
         clip-rule="evenodd"
         id="path16" />
    </clipPath>
    <clipPath
       clipPathUnits="userSpaceOnUse"
       id="clipPath18">
      <path
         d="M 0,0 H 2016.6665 V 756.99799 H 0 Z"
         transform="matrix(0.33421489,0,0,0.33421489,-0.49999999,-0.49999999)"
         clip-rule="evenodd"
         id="path18" />
    </clipPath>
    <clipPath
       clipPathUnits="userSpaceOnUse"
       id="clipPath20">
      <path
         d="M 0,0 H 2016.6665 V 756.99799 H 0 Z"
         transform="matrix(0.33421489,0,0,0.33421489,-0.49999999,-0.49999999)"
         clip-rule="evenodd"
         id="path20" />
    </clipPath>
    <clipPath
       clipPathUnits="userSpaceOnUse"
       id="clipPath22">
      <path
         d="M 0,0 H 2016.6665 V 756.99799 H 0 Z"
         transform="matrix(0.33421489,0,0,0.33421489,-0.49999999,-0.49999999)"
         clip-rule="evenodd"
         id="path22" />
    </clipPath>
    <clipPath
       clipPathUnits="userSpaceOnUse"
       id="clipPath23">
      <path
         d="M 0,0 H 2016.6665 V 756.99799 H 0 Z"
         transform="matrix(0.33421154,0,0,0.33421154,-80.96875,-148)"
         clip-rule="evenodd"
         id="path23" />
    </clipPath>
    <clipPath
       clipPathUnits="userSpaceOnUse"
       id="clipPath25">
      <path
         d="M 0,0 H 2016.6665 V 756.99799 H 0 Z"
         transform="matrix(0.33421489,0,0,0.33421489,-0.49999999,-0.49999999)"
         clip-rule="evenodd"
         id="path25" />
    </clipPath>
    <clipPath
       clipPathUnits="userSpaceOnUse"
       id="clipPath26">
      <path
         d="M 0,0 H 2016.6665 V 756.99799 H 0 Z"
         transform="matrix(0.33421154,0,0,0.33421154,-205.48438,-148)"
         clip-rule="evenodd"
         id="path26" />
    </clipPath>
    <clipPath
       clipPathUnits="userSpaceOnUse"
       id="clipPath27">
      <path
         d="M 0,0 H 2016.6665 V 756.99799 H 0 Z"
         transform="matrix(0.33421154,0,0,0.33421154,-97.625,-18)"
         clip-rule="evenodd"
         id="path27" />
    </clipPath>
    <clipPath
       clipPathUnits="userSpaceOnUse"
       id="clipPath29">
      <path
         d="M 0,0 H 2016.6665 V 756.99799 H 0 Z"
         transform="matrix(0.33421489,0,0,0.33421489,-0.49999999,-0.49999999)"
         clip-rule="evenodd"
         id="path29" />
    </clipPath>
    <clipPath
       clipPathUnits="userSpaceOnUse"
       id="clipPath30">
      <path
         d="M 0,0 H 2016.6665 V 756.99799 H 0 Z"
         transform="matrix(0.33421154,0,0,0.33421154,-375.48438,-68)"
         clip-rule="evenodd"
         id="path30" />
    </clipPath>
    <clipPath
       clipPathUnits="userSpaceOnUse"
       id="clipPath32">
      <path
         d="M 0,0 H 2016.6665 V 756.99799 H 0 Z"
         transform="matrix(0.33421489,0,0,0.33421489,-0.49999999,-0.49999999)"
         clip-rule="evenodd"
         id="path32" />
    </clipPath>
    <clipPath
       clipPathUnits="userSpaceOnUse"
       id="clipPath33">
      <path
         d="M 0,0 H 2016.6665 V 756.99799 H 0 Z"
         transform="matrix(0.33421154,0,0,0.33421154,-432.09375,-68)"
         clip-rule="evenodd"
         id="path33" />
    </clipPath>
    <clipPath
       clipPathUnits="userSpaceOnUse"
       id="clipPath35">
      <path
         d="M 0,0 H 2016.6665 V 756.99799 H 0 Z"
         transform="matrix(0.33421489,0,0,0.33421489,-0.49999999,-0.49999999)"
         clip-rule="evenodd"
         id="path35" />
    </clipPath>
    <clipPath
       clipPathUnits="userSpaceOnUse"
       id="clipPath37">
      <path
         d="M 0,0 H 2016.6665 V 756.99799 H 0 Z"
         transform="matrix(0.33421489,0,0,0.33421489,-0.49999999,-0.49999999)"
         clip-rule="evenodd"
         id="path37" />
    </clipPath>
    <clipPath
       clipPathUnits="userSpaceOnUse"
       id="clipPath39">
      <path
         d="M 0,0 H 2016.6665 V 756.99799 H 0 Z"
         transform="matrix(0.33421489,0,0,0.33421489,-0.49999999,-0.49999999)"
         clip-rule="evenodd"
         id="path39" />
    </clipPath>
    <clipPath
       clipPathUnits="userSpaceOnUse"
       id="clipPath40">
      <path
         d="M 0,0 H 2016.6665 V 756.99799 H 0 Z"
         transform="matrix(0.33421154,0,0,0.33421154,-518,-68)"
         clip-rule="evenodd"
         id="path40" />
    </clipPath>
    <clipPath
       clipPathUnits="userSpaceOnUse"
       id="clipPath42">
      <path
         d="M 0,0 H 2016.6665 V 756.99799 H 0 Z"
         transform="matrix(0.33421489,0,0,0.33421489,-0.49999999,-0.49999999)"
         clip-rule="evenodd"
         id="path42" />
    </clipPath>
    <clipPath
       clipPathUnits="userSpaceOnUse"
       id="clipPath43">
      <path
         d="M 0,0 H 2016.6665 V 756.99799 H 0 Z"
         transform="matrix(0.33421154,0,0,0.33421154,-598.98438,-68)"
         clip-rule="evenodd"
         id="path43" />
    </clipPath>
    <clipPath
       clipPathUnits="userSpaceOnUse"
       id="clipPath45">
      <path
         d="M 0,0 H 2016.6665 V 756.99799 H 0 Z"
         transform="matrix(0.33421489,0,0,0.33421489,-0.49999999,-0.49999999)"
         clip-rule="evenodd"
         id="path45" />
    </clipPath>
    <clipPath
       clipPathUnits="userSpaceOnUse"
       id="clipPath46">
      <path
         d="M 0,0 H 2016.6665 V 756.99799 H 0 Z"
         transform="matrix(0.33421154,0,0,0.33421154,-375.48438,-148)"
         clip-rule="evenodd"
         id="path46" />
    </clipPath>
    <clipPath
       clipPathUnits="userSpaceOnUse"
       id="clipPath48">
      <path
         d="M 0,0 H 2016.6665 V 756.99799 H 0 Z"
         transform="matrix(0.33421489,0,0,0.33421489,-0.49999999,-0.49999999)"
         clip-rule="evenodd"
         id="path48" />
    </clipPath>
    <clipPath
       clipPathUnits="userSpaceOnUse"
       id="clipPath49">
      <path
         d="M 0,0 H 2016.6665 V 756.99799 H 0 Z"
         transform="matrix(0.33421154,0,0,0.33421154,-439.59375,-148)"
         clip-rule="evenodd"
         id="path49" />
    </clipPath>
    <clipPath
       clipPathUnits="userSpaceOnUse"
       id="clipPath51">
      <path
         d="M 0,0 H 2016.6665 V 756.99799 H 0 Z"
         transform="matrix(0.33421489,0,0,0.33421489,-0.49999999,-0.49999999)"
         clip-rule="evenodd"
         id="path51" />
    </clipPath>
    <clipPath
       clipPathUnits="userSpaceOnUse"
       id="clipPath53">
      <path
         d="M 0,0 H 2016.6665 V 756.99799 H 0 Z"
         transform="matrix(0.33421489,0,0,0.33421489,-0.49999999,-0.49999999)"
         clip-rule="evenodd"
         id="path53" />
    </clipPath>
    <clipPath
       clipPathUnits="userSpaceOnUse"
       id="clipPath55">
      <path
         d="M 0,0 H 2016.6665 V 756.99799 H 0 Z"
         transform="matrix(0.33421489,0,0,0.33421489,-0.49999999,-0.49999999)"
         clip-rule="evenodd"
         id="path55" />
    </clipPath>
    <clipPath
       clipPathUnits="userSpaceOnUse"
       id="clipPath56">
      <path
         d="M 0,0 H 2016.6665 V 756.99799 H 0 Z"
         transform="matrix(0.33421154,0,0,0.33421154,-518,-148)"
         clip-rule="evenodd"
         id="path56" />
    </clipPath>
    <clipPath
       clipPathUnits="userSpaceOnUse"
       id="clipPath58">
      <path
         d="M 0,0 H 2016.6665 V 756.99799 H 0 Z"
         transform="matrix(0.33421489,0,0,0.33421489,-0.49999999,-0.49999999)"
         clip-rule="evenodd"
         id="path58" />
    </clipPath>
    <clipPath
       clipPathUnits="userSpaceOnUse"
       id="clipPath59">
      <path
         d="M 0,0 H 2016.6665 V 756.99799 H 0 Z"
         transform="matrix(0.33421154,0,0,0.33421154,-590.48438,-148)"
         clip-rule="evenodd"
         id="path59" />
    </clipPath>
    <clipPath
       clipPathUnits="userSpaceOnUse"
       id="clipPath61">
      <path
         d="M 0,0 H 2016.6665 V 756.99799 H 0 Z"
         transform="matrix(0.33421489,0,0,0.33421489,-0.49999999,-0.49999999)"
         clip-rule="evenodd"
         id="path61" />
    </clipPath>
    <clipPath
       clipPathUnits="userSpaceOnUse"
       id="clipPath63">
      <path
         d="M 0,0 H 2016.6665 V 756.99799 H 0 Z"
         transform="matrix(0.33421489,0,0,0.33421489,-0.49999999,-0.49999999)"
         clip-rule="evenodd"
         id="path63" />
    </clipPath>
    <clipPath
       clipPathUnits="userSpaceOnUse"
       id="clipPath65">
      <path
         d="M 0,0 H 2016.6665 V 756.99799 H 0 Z"
         transform="matrix(0.33421489,0,0,0.33421489,-0.49999999,-0.49999999)"
         clip-rule="evenodd"
         id="path65" />
    </clipPath>
    <clipPath
       clipPathUnits="userSpaceOnUse"
       id="clipPath66">
      <path
         d="M 0,0 H 2016.6665 V 756.99799 H 0 Z"
         transform="matrix(0.33421154,0,0,0.33421154,-88.984375,-228)"
         clip-rule="evenodd"
         id="path66" />
    </clipPath>
    <clipPath
       clipPathUnits="userSpaceOnUse"
       id="clipPath68">
      <path
         d="M 0,0 H 2016.6665 V 756.99799 H 0 Z"
         transform="matrix(0.33421489,0,0,0.33421489,-0.49999999,-0.49999999)"
         clip-rule="evenodd"
         id="path68" />
    </clipPath>
    <clipPath
       clipPathUnits="userSpaceOnUse"
       id="clipPath69">
      <path
         d="M 0,0 H 2016.6665 V 756.99799 H 0 Z"
         transform="matrix(0.33421154,0,0,0.33421154,-205.48438,-228)"
         clip-rule="evenodd"
         id="path69" />
    </clipPath>
    <clipPath
       clipPathUnits="userSpaceOnUse"
       id="clipPath71">
      <path
         d="M 0,0 H 2016.6665 V 756.99799 H 0 Z"
         transform="matrix(0.33421489,0,0,0.33421489,-0.49999999,-0.49999999)"
         clip-rule="evenodd"
         id="path71" />
    </clipPath>
    <clipPath
       clipPathUnits="userSpaceOnUse"
       id="clipPath72">
      <path
         d="M 0,0 H 2016.6665 V 756.99799 H 0 Z"
         transform="matrix(0.33421154,0,0,0.33421154,-375.48438,-228)"
         clip-rule="evenodd"
         id="path72" />
    </clipPath>
    <clipPath
       clipPathUnits="userSpaceOnUse"
       id="clipPath74">
      <path
         d="M 0,0 H 2016.6665 V 756.99799 H 0 Z"
         transform="matrix(0.33421489,0,0,0.33421489,-0.49999999,-0.49999999)"
         clip-rule="evenodd"
         id="path74" />
    </clipPath>
    <clipPath
       clipPathUnits="userSpaceOnUse"
       id="clipPath75">
      <path
         d="M 0,0 H 2016.6665 V 756.99799 H 0 Z"
         transform="matrix(0.33421154,0,0,0.33421154,-447.59375,-228)"
         clip-rule="evenodd"
         id="path75" />
    </clipPath>
    <clipPath
       clipPathUnits="userSpaceOnUse"
       id="clipPath77">
      <path
         d="M 0,0 H 2016.6665 V 756.99799 H 0 Z"
         transform="matrix(0.33421489,0,0,0.33421489,-0.49999999,-0.49999999)"
         clip-rule="evenodd"
         id="path77" />
    </clipPath>
    <clipPath
       clipPathUnits="userSpaceOnUse"
       id="clipPath79">
      <path
         d="M 0,0 H 2016.6665 V 756.99799 H 0 Z"
         transform="matrix(0.33421489,0,0,0.33421489,-0.49999999,-0.49999999)"
         clip-rule="evenodd"
         id="path79" />
    </clipPath>
    <clipPath
       clipPathUnits="userSpaceOnUse"
       id="clipPath81">
      <path
         d="M 0,0 H 2016.6665 V 756.99799 H 0 Z"
         transform="matrix(0.33421489,0,0,0.33421489,-0.49999999,-0.49999999)"
         clip-rule="evenodd"
         id="path81" />
    </clipPath>
    <clipPath
       clipPathUnits="userSpaceOnUse"
       id="clipPath82">
      <path
         d="M 0,0 H 2016.6665 V 756.99799 H 0 Z"
         transform="matrix(0.33421154,0,0,0.33421154,-518,-228)"
         clip-rule="evenodd"
         id="path82" />
    </clipPath>
    <clipPath
       clipPathUnits="userSpaceOnUse"
       id="clipPath84">
      <path
         d="M 0,0 H 2016.6665 V 756.99799 H 0 Z"
         transform="matrix(0.33421489,0,0,0.33421489,-0.49999999,-0.49999999)"
         clip-rule="evenodd"
         id="path84" />
    </clipPath>
    <clipPath
       clipPathUnits="userSpaceOnUse"
       id="clipPath85">
      <path
         d="M 0,0 H 2016.6665 V 756.99799 H 0 Z"
         transform="matrix(0.33421154,0,0,0.33421154,-590.48438,-228)"
         clip-rule="evenodd"
         id="path85" />
    </clipPath>
  </defs>
  <sodipodi:namedview
     id="namedview1"
     pagecolor="#ffffff"
     bordercolor="#000000"
     borderopacity="0.25"
     inkscape:showpageshadow="2"
     inkscape:pageopacity="0.0"
     inkscape:pagecheckerboard="0"
     inkscape:deskcolor="#d1d1d1">
    <inkscape:page
       x="0"
       y="0"
       inkscape:label="1"
       id="page1"
       width="645.44"
       height="244.16"
       margin="0"
       bleed="0" />
  </sodipodi:namedview>
  <g
     id="g1"
     inkscape:groupmode="layer"
     inkscape:label="1">
    <path
       id="path1"
       d="M 0,0 H 674 V 254 H 0 Z"
       style="fill:#ffffff;fill-opacity:1;fill-rule:nonzero;stroke:none"
       transform="scale(0.95746777)"
       clip-path="url(#clipPath2)" />
    <path
       id="path3"
       d="m 31,31 h -7.5 c -5,0 -7.5,3.333332 -7.5,10 v 90 c 0,6.66667 -2.5,10 -7.5,10 H 4.75 c -2.5,0 -1.25,0 3.75,0 h 3.75 c 2.5,0 3.75,3.33333 3.75,10 v 90 c 0,6.66667 2.5,10 7.5,10 H 31"
       style="fill:none;stroke:#000000;stroke-width:1;stroke-linecap:butt;stroke-linejoin:miter;stroke-miterlimit:10;stroke-dasharray:none;stroke-opacity:1"
       transform="matrix(0.95746777,0,0,0.95746777,0.47873388,0.47873388)"
       clip-path="url(#clipPath4)" />
    <path
       id="path5"
       d="m 341,31 h -10 c -6.66666,0 -10,3.333332 -10,10 v 90 c 0,6.66667 -3.33334,10 -10,10 h -5 c -3.33334,0 -1.66666,0 5,0 h 5 c 3.33334,0 5,3.33333 5,10 v 90 c 0,6.66667 3.33334,10 10,10 h 10"
       style="fill:none;stroke:#000000;stroke-width:1;stroke-linecap:butt;stroke-linejoin:miter;stroke-miterlimit:10;stroke-dasharray:none;stroke-opacity:1"
       transform="matrix(-0.95746777,0,0,-0.95746777,615.17303,270.48464)"
       clip-path="url(#clipPath6)" />
    <path
       id="path7"
       d="m 151,61 h 20 -10 13.63"
       style="fill:none;stroke:#000000;stroke-width:1;stroke-linecap:butt;stroke-linejoin:miter;stroke-miterlimit:10;stroke-dasharray:none;stroke-opacity:1"
       transform="matrix(0.95746777,0,0,0.95746777,0.47873388,0.47873388)"
       clip-path="url(#clipPath8)" />
    <path
       id="path9"
       d="m 179.88,61 -7,3.5 1.75,-3.5 -1.75,-3.5 z"
       style="fill:#000000;fill-opacity:1;fill-rule:nonzero;stroke:#000000;stroke-width:1;stroke-linecap:butt;stroke-linejoin:miter;stroke-miterlimit:10;stroke-dasharray:none;stroke-opacity:1"
       transform="matrix(0.95746777,0,0,0.95746777,0.47873388,0.47873388)"
       clip-path="url(#clipPath10)" />
    <path
       id="path11"
       d="M 41,31 H 151 V 91 H 41 Z"
       style="fill:#dae8fc;fill-opacity:1;fill-rule:nonzero;stroke:#6c8ebf;stroke-width:1;stroke-linecap:butt;stroke-linejoin:miter;stroke-miterlimit:10;stroke-dasharray:none;stroke-opacity:1"
       transform="matrix(0.95746777,0,0,0.95746777,0.47873388,0.47873388)"
       clip-path="url(#clipPath12)" />
    <text
       id="text12"
       xml:space="preserve"
       transform="matrix(0.95747737,0,0,0.95747737,70.359626,65.108461)"
       clip-path="url(#clipPath13)"><tspan
         style="font-variant:normal;font-weight:normal;font-size:18px;font-family:Helvetica;writing-mode:lr-tb;fill:#000000;fill-opacity:1;fill-rule:nonzero;stroke:none"
         x="0 10.010742 20.021484 35.015625"
         y="0"
         sodipodi:role="line"
         id="tspan12">name</tspan></text>
    <path
       id="path14"
       d="M 181,31 H 291 V 91 H 181 Z"
       style="fill:#d5e8d4;fill-opacity:1;fill-rule:nonzero;stroke:#82b366;stroke-width:1;stroke-linecap:butt;stroke-linejoin:miter;stroke-miterlimit:10;stroke-dasharray:none;stroke-opacity:1"
       transform="matrix(0.95746777,0,0,0.95746777,0.47873388,0.47873388)"
       clip-path="url(#clipPath15)" />
    <text
       id="text15"
       xml:space="preserve"
       transform="matrix(0.95747737,0,0,0.95747737,204.8852,65.108461)"
       clip-path="url(#clipPath16)"><tspan
         style="font-variant:normal;font-weight:normal;font-size:18px;font-family:Helvetica;writing-mode:lr-tb;fill:#000000;fill-opacity:1;fill-rule:nonzero;stroke:none"
         x="0 9 14.000977 19.995117 23.994141 34.004883"
         y="0"
         sodipodi:role="line"
         id="tspan15">string</tspan></text>
    <path
       id="path17"
       d="m 151,141 h 20 -10 13.63"
       style="fill:none;stroke:#000000;stroke-width:1;stroke-linecap:butt;stroke-linejoin:miter;stroke-miterlimit:10;stroke-dasharray:none;stroke-opacity:1"
       transform="matrix(0.95746777,0,0,0.95746777,0.47873388,0.47873388)"
       clip-path="url(#clipPath18)" />
    <path
       id="path19"
       d="m 179.88,141 -7,3.5 1.75,-3.5 -1.75,-3.5 z"
       style="fill:#000000;fill-opacity:1;fill-rule:nonzero;stroke:#000000;stroke-width:1;stroke-linecap:butt;stroke-linejoin:miter;stroke-miterlimit:10;stroke-dasharray:none;stroke-opacity:1"
       transform="matrix(0.95746777,0,0,0.95746777,0.47873388,0.47873388)"
       clip-path="url(#clipPath20)" />
    <path
       id="path21"
       d="m 41,111 h 110 v 60 H 41 Z"
       style="fill:#dae8fc;fill-opacity:1;fill-rule:nonzero;stroke:#6c8ebf;stroke-width:1;stroke-linecap:butt;stroke-linejoin:miter;stroke-miterlimit:10;stroke-dasharray:none;stroke-opacity:1"
       transform="matrix(0.95746777,0,0,0.95746777,0.47873388,0.47873388)"
       clip-path="url(#clipPath22)" />
    <text
       id="text22"
       xml:space="preserve"
       transform="matrix(0.95747737,0,0,0.95747737,77.525746,141.70665)"
       clip-path="url(#clipPath23)"><tspan
         style="font-variant:normal;font-weight:normal;font-size:18px;font-family:Helvetica;writing-mode:lr-tb;fill:#000000;fill-opacity:1;fill-rule:nonzero;stroke:none"
         x="0 10.010742 20.021484"
         y="0"
         sodipodi:role="line"
         id="tspan22">age</tspan></text>
    <path
       id="path24"
       d="m 181,111 h 110 v 60 H 181 Z"
       style="fill:#d5e8d4;fill-opacity:1;fill-rule:nonzero;stroke:#82b366;stroke-width:1;stroke-linecap:butt;stroke-linejoin:miter;stroke-miterlimit:10;stroke-dasharray:none;stroke-opacity:1"
       transform="matrix(0.95746777,0,0,0.95746777,0.47873388,0.47873388)"
       clip-path="url(#clipPath25)" />
    <text
       id="text25"
       xml:space="preserve"
       transform="matrix(0.95747737,0,0,0.95747737,196.74664,141.70665)"
       clip-path="url(#clipPath26)"><tspan
         style="font-variant:normal;font-weight:normal;font-size:18px;font-family:Helvetica;writing-mode:lr-tb;fill:#000000;fill-opacity:1;fill-rule:nonzero;stroke:none"
         x="0 10.010742 20.021484 35.015625 45.026367 55.037109"
         y="0"
         sodipodi:role="line"
         id="tspan25">number</tspan></text>
    <text
       id="text26"
       xml:space="preserve"
       transform="matrix(0.95747737,0,0,0.95747737,93.473728,17.234593)"
       clip-path="url(#clipPath27)"><tspan
         style="font-variant:normal;font-weight:700;font-size:18px;font-family:Helvetica;writing-mode:lr-tb;fill:#000000;fill-opacity:1;fill-rule:nonzero;stroke:none"
         x="0 12.999023 23.009766 33.020508 40.025391 52.03125 59.036133 70.03125 81.026367 91.037109 96.038086 105.70605 115.7168 126.71191"
         y="0"
         sodipodi:role="line"
         id="tspan26">UserProps Type</tspan></text>
    <path
       id="path28"
       d="m 361,46 h 60 v 30 h -60 z"
       style="fill:#ffffff;fill-opacity:1;fill-rule:nonzero;stroke:#000000;stroke-width:1;stroke-linecap:butt;stroke-linejoin:miter;stroke-miterlimit:10;stroke-dasharray:none;stroke-opacity:1"
       transform="matrix(0.95746777,0,0,0.95746777,0.47873388,0.47873388)"
       clip-path="url(#clipPath29)" />
    <text
       id="text29"
       xml:space="preserve"
       transform="matrix(0.95747737,0,0,0.95747737,359.5178,65.108461)"
       clip-path="url(#clipPath30)"><tspan
         style="font-variant:normal;font-weight:normal;font-size:18px;font-family:Helvetica;writing-mode:lr-tb;fill:#000000;fill-opacity:1;fill-rule:nonzero;stroke:none"
         x="0 10.010742 20.021484 25.022461"
         y="0"
         sodipodi:role="line"
         id="tspan29">get(</tspan></text>
    <path
       id="path31"
       d="m 421,46 h 80 v 30 h -80 z"
       style="fill:#ffffff;fill-opacity:1;fill-rule:nonzero;stroke:#000000;stroke-width:1;stroke-linecap:butt;stroke-linejoin:miter;stroke-miterlimit:10;stroke-dasharray:none;stroke-opacity:1"
       transform="matrix(0.95746777,0,0,0.95746777,0.47873388,0.47873388)"
       clip-path="url(#clipPath32)" />
    <text
       id="text32"
       xml:space="preserve"
       transform="matrix(0.95747737,0,0,0.95747737,413.71999,65.108461)"
       clip-path="url(#clipPath33)"><tspan
         style="font-variant:normal;font-weight:normal;font-size:18px;font-family:Helvetica;writing-mode:lr-tb;fill:#000000;fill-opacity:1;fill-rule:nonzero;stroke:none"
         x="0 6.3896484 16.400391 26.411133 41.405273 51.416016"
         y="0"
         sodipodi:role="line"
         id="tspan32">&quot;name&quot;</tspan></text>
    <path
       id="path34"
       d="m 541.01001,61 h 23.63"
       style="fill:none;stroke:#000000;stroke-width:1;stroke-linecap:butt;stroke-linejoin:miter;stroke-miterlimit:10;stroke-dasharray:none;stroke-opacity:1"
       transform="matrix(0.95746777,0,0,0.95746777,0.47873388,0.47873388)"
       clip-path="url(#clipPath35)" />
    <path
       id="path36"
       d="m 569.89001,61 -7,3.5 1.75,-3.5 -1.75,-3.5 z"
       style="fill:#000000;fill-opacity:1;fill-rule:nonzero;stroke:#000000;stroke-width:1;stroke-linecap:butt;stroke-linejoin:miter;stroke-miterlimit:10;stroke-dasharray:none;stroke-opacity:1"
       transform="matrix(0.95746777,0,0,0.95746777,0.47873388,0.47873388)"
       clip-path="url(#clipPath37)" />
    <path
       id="path38"
       d="m 501.01001,46 h 40 v 30 h -40 z"
       style="fill:#ffffff;fill-opacity:1;fill-rule:nonzero;stroke:#000000;stroke-width:1;stroke-linecap:butt;stroke-linejoin:miter;stroke-miterlimit:10;stroke-dasharray:none;stroke-opacity:1"
       transform="matrix(0.95746777,0,0,0.95746777,0.47873388,0.47873388)"
       clip-path="url(#clipPath39)" />
    <text
       id="text39"
       xml:space="preserve"
       transform="matrix(0.95747737,0,0,0.95747737,495.97328,65.108461)"
       clip-path="url(#clipPath40)"><tspan
         style="font-variant:normal;font-weight:normal;font-size:18px;font-family:Helvetica;writing-mode:lr-tb;fill:#000000;fill-opacity:1;fill-rule:nonzero;stroke:none"
         x="0"
         y="0"
         id="tspan39">)</tspan></text>
    <path
       id="path41"
       d="m 571.01001,46 h 100 v 30 h -100 z"
       style="fill:#d5e8d4;fill-opacity:1;fill-rule:nonzero;stroke:#82b366;stroke-width:1;stroke-linecap:butt;stroke-linejoin:miter;stroke-miterlimit:10;stroke-dasharray:none;stroke-opacity:1"
       transform="matrix(0.95746777,0,0,0.95746777,0.47873388,0.47873388)"
       clip-path="url(#clipPath42)" />
    <text
       id="text42"
       xml:space="preserve"
       transform="matrix(0.95747737,0,0,0.95747737,573.51399,65.108461)"
       clip-path="url(#clipPath43)"><tspan
         style="font-variant:normal;font-weight:normal;font-size:18px;font-family:Helvetica;writing-mode:lr-tb;fill:#000000;fill-opacity:1;fill-rule:nonzero;stroke:none"
         x="0 9 14.000977 19.995117 23.994141 34.004883"
         y="0"
         sodipodi:role="line"
         id="tspan42">string</tspan></text>
    <path
       id="path44"
       d="m 361,126 h 60 v 30 h -60 z"
       style="fill:#ffffff;fill-opacity:1;fill-rule:nonzero;stroke:#000000;stroke-width:1;stroke-linecap:butt;stroke-linejoin:miter;stroke-miterlimit:10;stroke-dasharray:none;stroke-opacity:1"
       transform="matrix(0.95746777,0,0,0.95746777,0.47873388,0.47873388)"
       clip-path="url(#clipPath45)" />
    <text
       id="text45"
       xml:space="preserve"
       transform="matrix(0.95747737,0,0,0.95747737,359.5178,141.70665)"
       clip-path="url(#clipPath46)"><tspan
         style="font-variant:normal;font-weight:normal;font-size:18px;font-family:Helvetica;writing-mode:lr-tb;fill:#000000;fill-opacity:1;fill-rule:nonzero;stroke:none"
         x="0 10.010742 20.021484 25.022461"
         y="0"
         sodipodi:role="line"
         id="tspan45">get(</tspan></text>
    <path
       id="path47"
       d="m 421,126 h 80 v 30 h -80 z"
       style="fill:#ffffff;fill-opacity:1;fill-rule:nonzero;stroke:#000000;stroke-width:1;stroke-linecap:butt;stroke-linejoin:miter;stroke-miterlimit:10;stroke-dasharray:none;stroke-opacity:1"
       transform="matrix(0.95746777,0,0,0.95746777,0.47873388,0.47873388)"
       clip-path="url(#clipPath48)" />
    <text
       id="text48"
       xml:space="preserve"
       transform="matrix(0.95747737,0,0,0.95747737,420.90107,141.70665)"
       clip-path="url(#clipPath49)"><tspan
         style="font-variant:normal;font-weight:normal;font-size:18px;font-family:Helvetica;writing-mode:lr-tb;fill:#000000;fill-opacity:1;fill-rule:nonzero;stroke:none"
         x="0 6.3896484 16.400391 26.411133 36.421875"
         y="0"
         sodipodi:role="line"
         id="tspan48">&quot;age&quot;</tspan></text>
    <path
       id="path50"
       d="m 541.01001,141 h 23.63"
       style="fill:none;stroke:#000000;stroke-width:1;stroke-linecap:butt;stroke-linejoin:miter;stroke-miterlimit:10;stroke-dasharray:none;stroke-opacity:1"
       transform="matrix(0.95746777,0,0,0.95746777,0.47873388,0.47873388)"
       clip-path="url(#clipPath51)" />
    <path
       id="path52"
       d="m 569.89001,141 -7,3.5 1.75,-3.5 -1.75,-3.5 z"
       style="fill:#000000;fill-opacity:1;fill-rule:nonzero;stroke:#000000;stroke-width:1;stroke-linecap:butt;stroke-linejoin:miter;stroke-miterlimit:10;stroke-dasharray:none;stroke-opacity:1"
       transform="matrix(0.95746777,0,0,0.95746777,0.47873388,0.47873388)"
       clip-path="url(#clipPath53)" />
    <path
       id="path54"
       d="m 501.01001,126 h 40 v 30 h -40 z"
       style="fill:#ffffff;fill-opacity:1;fill-rule:nonzero;stroke:#000000;stroke-width:1;stroke-linecap:butt;stroke-linejoin:miter;stroke-miterlimit:10;stroke-dasharray:none;stroke-opacity:1"
       transform="matrix(0.95746777,0,0,0.95746777,0.47873388,0.47873388)"
       clip-path="url(#clipPath55)" />
    <text
       id="text55"
       xml:space="preserve"
       transform="matrix(0.95747737,0,0,0.95747737,495.97328,141.70665)"
       clip-path="url(#clipPath56)"><tspan
         style="font-variant:normal;font-weight:normal;font-size:18px;font-family:Helvetica;writing-mode:lr-tb;fill:#000000;fill-opacity:1;fill-rule:nonzero;stroke:none"
         x="0"
         y="0"
         id="tspan55">)</tspan></text>
    <path
       id="path57"
       d="m 571.01001,126 h 100 v 30 h -100 z"
       style="fill:#d5e8d4;fill-opacity:1;fill-rule:nonzero;stroke:#82b366;stroke-width:1;stroke-linecap:butt;stroke-linejoin:miter;stroke-miterlimit:10;stroke-dasharray:none;stroke-opacity:1"
       transform="matrix(0.95746777,0,0,0.95746777,0.47873388,0.47873388)"
       clip-path="url(#clipPath58)" />
    <text
       id="text58"
       xml:space="preserve"
       transform="matrix(0.95747737,0,0,0.95747737,565.37543,141.70665)"
       clip-path="url(#clipPath59)"><tspan
         style="font-variant:normal;font-weight:normal;font-size:18px;font-family:Helvetica;writing-mode:lr-tb;fill:#000000;fill-opacity:1;fill-rule:nonzero;stroke:none"
         x="0 10.010742 20.021484 35.015625 45.026367 55.037109"
         y="0"
         sodipodi:role="line"
         id="tspan58">number</tspan></text>
    <path
       id="path60"
       d="m 151,221 h 20 -10 13.63"
       style="fill:none;stroke:#000000;stroke-width:1;stroke-linecap:butt;stroke-linejoin:miter;stroke-miterlimit:10;stroke-dasharray:none;stroke-opacity:1"
       transform="matrix(0.95746777,0,0,0.95746777,0.47873388,0.47873388)"
       clip-path="url(#clipPath61)" />
    <path
       id="path62"
       d="m 179.88,221 -7,3.5 1.75,-3.5 -1.75,-3.5 z"
       style="fill:#000000;fill-opacity:1;fill-rule:nonzero;stroke:#000000;stroke-width:1;stroke-linecap:butt;stroke-linejoin:miter;stroke-miterlimit:10;stroke-dasharray:none;stroke-opacity:1"
       transform="matrix(0.95746777,0,0,0.95746777,0.47873388,0.47873388)"
       clip-path="url(#clipPath63)" />
    <path
       id="path64"
       d="m 41,191 h 110 v 60 H 41 Z"
       style="fill:#dae8fc;fill-opacity:1;fill-rule:nonzero;stroke:#6c8ebf;stroke-width:1;stroke-linecap:butt;stroke-linejoin:miter;stroke-miterlimit:10;stroke-dasharray:none;stroke-opacity:1"
       transform="matrix(0.95746777,0,0,0.95746777,0.47873388,0.47873388)"
       clip-path="url(#clipPath65)" />
    <text
       id="text65"
       xml:space="preserve"
       transform="matrix(0.95747737,0,0,0.95747737,85.200525,218.30484)"
       clip-path="url(#clipPath66)"><tspan
         style="font-variant:normal;font-weight:normal;font-size:18px;font-family:Helvetica;writing-mode:lr-tb;fill:#000000;fill-opacity:1;fill-rule:nonzero;stroke:none"
         x="0 3.9990234"
         y="0"
         sodipodi:role="line"
         id="tspan65">id</tspan></text>
    <path
       id="path67"
       d="m 181,191 h 110 v 60 H 181 Z"
       style="fill:#d5e8d4;fill-opacity:1;fill-rule:nonzero;stroke:#82b366;stroke-width:1;stroke-linecap:butt;stroke-linejoin:miter;stroke-miterlimit:10;stroke-dasharray:none;stroke-opacity:1"
       transform="matrix(0.95746777,0,0,0.95746777,0.47873388,0.47873388)"
       clip-path="url(#clipPath68)" />
    <text
       id="text68"
       xml:space="preserve"
       transform="matrix(0.95747737,0,0,0.95747737,196.74664,218.30484)"
       clip-path="url(#clipPath69)"><tspan
         style="font-variant:normal;font-weight:normal;font-size:18px;font-family:Helvetica;writing-mode:lr-tb;fill:#000000;fill-opacity:1;fill-rule:nonzero;stroke:none"
         x="0 10.010742 20.021484 35.015625 45.026367 55.037109"
         y="0"
         sodipodi:role="line"
         id="tspan68">number</tspan></text>
    <path
       id="path70"
       d="m 361,206 h 60 v 30 h -60 z"
       style="fill:#ffffff;fill-opacity:1;fill-rule:nonzero;stroke:#000000;stroke-width:1;stroke-linecap:butt;stroke-linejoin:miter;stroke-miterlimit:10;stroke-dasharray:none;stroke-opacity:1"
       transform="matrix(0.95746777,0,0,0.95746777,0.47873388,0.47873388)"
       clip-path="url(#clipPath71)" />
    <text
       id="text71"
       xml:space="preserve"
       transform="matrix(0.95747737,0,0,0.95747737,359.5178,218.30484)"
       clip-path="url(#clipPath72)"><tspan
         style="font-variant:normal;font-weight:normal;font-size:18px;font-family:Helvetica;writing-mode:lr-tb;fill:#000000;fill-opacity:1;fill-rule:nonzero;stroke:none"
         x="0 10.010742 20.021484 25.022461"
         y="0"
         sodipodi:role="line"
         id="tspan71">get(</tspan></text>
    <path
       id="path73"
       d="m 421,206 h 80 v 30 h -80 z"
       style="fill:#ffffff;fill-opacity:1;fill-rule:nonzero;stroke:#000000;stroke-width:1;stroke-linecap:butt;stroke-linejoin:miter;stroke-miterlimit:10;stroke-dasharray:none;stroke-opacity:1"
       transform="matrix(0.95746777,0,0,0.95746777,0.47873388,0.47873388)"
       clip-path="url(#clipPath74)" />
    <text
       id="text74"
       xml:space="preserve"
       transform="matrix(0.95747737,0,0,0.95747737,428.56089,218.30484)"
       clip-path="url(#clipPath75)"><tspan
         style="font-variant:normal;font-weight:normal;font-size:18px;font-family:Helvetica;writing-mode:lr-tb;fill:#000000;fill-opacity:1;fill-rule:nonzero;stroke:none"
         x="0 6.3896484 10.388672 20.399414"
         y="0"
         sodipodi:role="line"
         id="tspan74">&quot;id&quot;</tspan></text>
    <path
       id="path76"
       d="m 541.01001,221 h 23.63"
       style="fill:none;stroke:#000000;stroke-width:1;stroke-linecap:butt;stroke-linejoin:miter;stroke-miterlimit:10;stroke-dasharray:none;stroke-opacity:1"
       transform="matrix(0.95746777,0,0,0.95746777,0.47873388,0.47873388)"
       clip-path="url(#clipPath77)" />
    <path
       id="path78"
       d="m 569.89001,221 -7,3.5 1.75,-3.5 -1.75,-3.5 z"
       style="fill:#000000;fill-opacity:1;fill-rule:nonzero;stroke:#000000;stroke-width:1;stroke-linecap:butt;stroke-linejoin:miter;stroke-miterlimit:10;stroke-dasharray:none;stroke-opacity:1"
       transform="matrix(0.95746777,0,0,0.95746777,0.47873388,0.47873388)"
       clip-path="url(#clipPath79)" />
    <path
       id="path80"
       d="m 501.01001,206 h 40 v 30 h -40 z"
       style="fill:#ffffff;fill-opacity:1;fill-rule:nonzero;stroke:#000000;stroke-width:1;stroke-linecap:butt;stroke-linejoin:miter;stroke-miterlimit:10;stroke-dasharray:none;stroke-opacity:1"
       transform="matrix(0.95746777,0,0,0.95746777,0.47873388,0.47873388)"
       clip-path="url(#clipPath81)" />
    <text
       id="text81"
       xml:space="preserve"
       transform="matrix(0.95747737,0,0,0.95747737,495.97328,218.30484)"
       clip-path="url(#clipPath82)"><tspan
         style="font-variant:normal;font-weight:normal;font-size:18px;font-family:Helvetica;writing-mode:lr-tb;fill:#000000;fill-opacity:1;fill-rule:nonzero;stroke:none"
         x="0"
         y="0"
         id="tspan81">)</tspan></text>
    <path
       id="path83"
       d="m 571.01001,206 h 100 v 30 h -100 z"
       style="fill:#d5e8d4;fill-opacity:1;fill-rule:nonzero;stroke:#82b366;stroke-width:1;stroke-linecap:butt;stroke-linejoin:miter;stroke-miterlimit:10;stroke-dasharray:none;stroke-opacity:1"
       transform="matrix(0.95746777,0,0,0.95746777,0.47873388,0.47873388)"
       clip-path="url(#clipPath84)" />
    <text
       id="text84"
       xml:space="preserve"
       transform="matrix(0.95747737,0,0,0.95747737,565.37543,218.30484)"
       clip-path="url(#clipPath85)"><tspan
         style="font-variant:normal;font-weight:normal;font-size:18px;font-family:Helvetica;writing-mode:lr-tb;fill:#000000;fill-opacity:1;fill-rule:nonzero;stroke:none"
         x="0 10.010742 20.021484 35.015625 45.026367 55.037109"
         y="0"
         sodipodi:role="line"
         id="tspan84">number</tspan></text>
  </g>
</svg>
