<?xml version="1.0" encoding="UTF-8" standalone="no"?>
<!-- Created with Inkscape (http://www.inkscape.org/) -->

<svg
   version="1.1"
   id="svg1"
   width="404.16"
   height="158.72"
   viewBox="0 0 404.16 158.72"
   sodipodi:docname="ts-2.pdf"
   xmlns:inkscape="http://www.inkscape.org/namespaces/inkscape"
   xmlns:sodipodi="http://sodipodi.sourceforge.net/DTD/sodipodi-0.dtd"
   xmlns="http://www.w3.org/2000/svg"
   xmlns:svg="http://www.w3.org/2000/svg">
  <defs
     id="defs1">
    <clipPath
       clipPathUnits="userSpaceOnUse"
       id="clipPath2">
      <path
         d="M 0,0 H 1262.5 V 495.44916 H 0 Z"
         transform="scale(0.33504952)"
         clip-rule="evenodd"
         id="path2" />
    </clipPath>
    <clipPath
       clipPathUnits="userSpaceOnUse"
       id="clipPath4">
      <path
         d="M 0,0 H 1262.5 V 489.47989 H 0 Z"
         transform="matrix(0.33504952,0,0,0.33504952,-0.50000001,-0.50000001)"
         clip-rule="evenodd"
         id="path4" />
    </clipPath>
    <clipPath
       clipPathUnits="userSpaceOnUse"
       id="clipPath5">
      <path
         d="M 0,0 H 1262.5 V 489.47989 H 0 Z"
         transform="matrix(0.33504618,0,0,0.33504618,-35.406251,-43)"
         clip-rule="evenodd"
         id="path5" />
    </clipPath>
    <clipPath
       clipPathUnits="userSpaceOnUse"
       id="clipPath7">
      <path
         d="M 0,0 H 1262.5 V 489.47989 H 0 Z"
         transform="matrix(0.33504952,0,0,0.33504952,-0.50000001,-0.50000001)"
         clip-rule="evenodd"
         id="path7" />
    </clipPath>
    <clipPath
       clipPathUnits="userSpaceOnUse"
       id="clipPath8">
      <path
         d="M 0,0 H 1262.5 V 489.47989 H 0 Z"
         transform="matrix(0.33504618,0,0,0.33504618,-41.15625,-133)"
         clip-rule="evenodd"
         id="path8" />
    </clipPath>
    <clipPath
       clipPathUnits="userSpaceOnUse"
       id="clipPath10">
      <path
         d="M 0,0 H 1262.5 V 489.47989 H 0 Z"
         transform="matrix(-0.33504952,0,0,-0.33504952,442.50001,72.500003)"
         clip-rule="evenodd"
         id="path10" />
    </clipPath>
    <clipPath
       clipPathUnits="userSpaceOnUse"
       id="clipPath12">
      <path
         d="M 0,0 H 1262.5 V 489.47989 H 0 Z"
         transform="matrix(-0.33504952,0,0,-0.33504952,442.50001,252.5)"
         clip-rule="evenodd"
         id="path12" />
    </clipPath>
    <clipPath
       clipPathUnits="userSpaceOnUse"
       id="clipPath13">
      <path
         d="M 0,0 H 1262.5 V 489.47989 H 0 Z"
         transform="matrix(0.33504618,0,0,0.33504618,-233,-123)"
         clip-rule="evenodd"
         id="path13" />
    </clipPath>
    <clipPath
       clipPathUnits="userSpaceOnUse"
       id="clipPath14">
      <path
         d="M 0,0 H 1262.5 V 489.47989 H 0 Z"
         transform="matrix(0.33504618,0,0,0.33504618,-233,-139)"
         clip-rule="evenodd"
         id="path14" />
    </clipPath>
    <clipPath
       clipPathUnits="userSpaceOnUse"
       id="clipPath15">
      <path
         d="M 0,0 H 1262.5 V 489.47989 H 0 Z"
         transform="matrix(0.33504618,0,0,0.33504618,-233,-33)"
         clip-rule="evenodd"
         id="path15" />
    </clipPath>
    <clipPath
       clipPathUnits="userSpaceOnUse"
       id="clipPath16">
      <path
         d="M 0,0 H 1262.5 V 489.47989 H 0 Z"
         transform="matrix(0.33504618,0,0,0.33504618,-233,-49)"
         clip-rule="evenodd"
         id="path16" />
    </clipPath>
  </defs>
  <sodipodi:namedview
     id="namedview1"
     pagecolor="#ffffff"
     bordercolor="#000000"
     borderopacity="0.25"
     inkscape:showpageshadow="2"
     inkscape:pageopacity="0.0"
     inkscape:pagecheckerboard="0"
     inkscape:deskcolor="#d1d1d1">
    <inkscape:page
       x="0"
       y="0"
       inkscape:label="1"
       id="page1"
       width="404.16"
       height="158.72"
       margin="0"
       bleed="0" />
  </sodipodi:namedview>
  <g
     id="g1"
     inkscape:groupmode="layer"
     inkscape:label="1">
    <path
       id="path1"
       d="M 0,0 H 423 V 166 H 0 Z"
       style="fill:#ffffff;fill-opacity:1;fill-rule:nonzero;stroke:none"
       transform="scale(0.95508265)"
       clip-path="url(#clipPath2)" />
    <path
       id="path3"
       d="M 1,1 H 201 V 71 H 1 Z"
       style="fill:#dae8fc;fill-opacity:1;fill-rule:nonzero;stroke:#6c8ebf;stroke-width:1;stroke-linecap:butt;stroke-linejoin:miter;stroke-miterlimit:10;stroke-dasharray:none;stroke-opacity:1"
       transform="matrix(0.95508265,0,0,0.95508265,0.47754133,0.47754133)"
       clip-path="url(#clipPath4)" />
    <text
       id="text4"
       xml:space="preserve"
       transform="matrix(0.95509218,0,0,0.95509218,33.816233,41.068964)"
       clip-path="url(#clipPath5)"><tspan
         style="font-variant:normal;font-weight:normal;font-size:20px;font-family:Helvetica;writing-mode:lr-tb;fill:#000000;fill-opacity:1;fill-rule:nonzero;stroke:none"
         x="0 16.660156 27.783203 38.90625 50.029297 54.472656 60.029297 74.472656 78.916016 90.039062 100.03906 110.03906 121.16211"
         y="0"
         sodipodi:role="line"
         id="tspan4">Model Classes</tspan></text>
    <path
       id="path6"
       d="m 1,91 h 200 v 70 H 1 Z"
       style="fill:#d5e8d4;fill-opacity:1;fill-rule:nonzero;stroke:#82b366;stroke-width:1;stroke-linecap:butt;stroke-linejoin:miter;stroke-miterlimit:10;stroke-dasharray:none;stroke-opacity:1"
       transform="matrix(0.95508265,0,0,0.95508265,0.47754133,0.47754133)"
       clip-path="url(#clipPath7)" />
    <text
       id="text7"
       xml:space="preserve"
       transform="matrix(0.95509218,0,0,0.95509218,39.308013,127.02726)"
       clip-path="url(#clipPath8)"><tspan
         style="font-variant:normal;font-weight:normal;font-size:20px;font-family:Helvetica;writing-mode:lr-tb;fill:#000000;fill-opacity:1;fill-rule:nonzero;stroke:none"
         x="0 12.988281 17.431641 28.554688 42.998047 48.554688 62.998047 67.441406 78.564453 88.564453 98.564453 109.6875"
         y="0"
         sodipodi:role="line"
         id="tspan7">View Classes</tspan></text>
    <path
       id="path9"
       d="m 231,1 h -5 c -3.33333,0 -5,3.333333 -5,10 v 15 c 0,6.666668 -1.66667,10 -5,10 h -2.5 c -1.66667,0 -0.83333,0 2.5,0 h 2.5 c 1.66667,0 2.5,3.333332 2.5,10 v 15 c 0,6.666664 1.66667,10 5,10 h 5"
       style="fill:none;stroke:#000000;stroke-width:1;stroke-linecap:butt;stroke-linejoin:miter;stroke-miterlimit:10;stroke-dasharray:none;stroke-opacity:1"
       transform="matrix(-0.95508265,0,0,-0.95508265,422.62408,69.243495)"
       clip-path="url(#clipPath10)" />
    <path
       id="path11"
       d="m 231,91 h -5 c -3.33333,0 -5,3.333336 -5,10 v 15 c 0,6.66666 -1.66667,10 -5,10 h -2.5 c -1.66667,0 -0.83333,0 2.5,0 h 2.5 c 1.66667,0 2.5,3.33333 2.5,10 v 15 c 0,6.66667 1.66667,10 5,10 h 5"
       style="fill:none;stroke:#000000;stroke-width:1;stroke-linecap:butt;stroke-linejoin:miter;stroke-miterlimit:10;stroke-dasharray:none;stroke-opacity:1"
       transform="matrix(-0.95508265,0,0,-0.95508265,422.62408,241.15837)"
       clip-path="url(#clipPath12)" />
    <text
       id="text12"
       xml:space="preserve"
       transform="matrix(0.95509218,0,0,0.95509218,222.53648,117.47634)"
       clip-path="url(#clipPath13)"><tspan
         style="font-variant:normal;font-weight:normal;font-size:13px;font-family:Helvetica;writing-mode:lr-tb;fill:#000000;fill-opacity:1;fill-rule:nonzero;stroke:none"
         x="0 9.3881836 16.618164 23.848145 31.078125 33.966309 41.196289 44.808105 54.196289 62.137207 72.966309 79.720215 83.332031 90.562012 97.791992 105.02197 108.63379 115.86377 122.36377 129.59375 136.82373 140.43555"
         y="0"
         sodipodi:role="line"
         id="tspan12">Handle HTML and events</tspan></text>
    <text
       id="text13"
       xml:space="preserve"
       transform="matrix(0.95509218,0,0,0.95509218,222.53648,132.75781)"
       clip-path="url(#clipPath14)"><tspan
         style="font-variant:normal;font-weight:normal;font-size:13px;font-family:Helvetica;writing-mode:lr-tb;fill:#000000;fill-opacity:1;fill-rule:nonzero;stroke:none"
         x="0 6.5 13.72998 20.959961 27.459961 34.689941 41.919922 45.531738 52.761719 59.261719 62.873535 66.485352 73.715332 80.945312 84.557129 91.787109 98.287109 105.51709 109.84619 113.45801 117.78711 120.67529 123.56348 130.06348 137.29346 140.90527 147.40527 150.29346 153.18164 159.68164 166.18164 172.68164"
         y="0"
         sodipodi:role="line"
         id="tspan13">caused by the user (like clicks)</tspan></text>
    <text
       id="text14"
       xml:space="preserve"
       transform="matrix(0.95509218,0,0,0.95509218,222.53648,31.518042)"
       clip-path="url(#clipPath15)"><tspan
         style="font-variant:normal;font-weight:normal;font-size:13px;font-family:Helvetica;writing-mode:lr-tb;fill:#000000;fill-opacity:1;fill-rule:nonzero;stroke:none"
         x="0 9.3881836 16.618164 23.848145 31.078125 33.966309 41.196289 44.808105 52.038086 59.268066 62.879883 70.109863 73.72168 77.333496 84.563477 91.063477 98.293457 105.52344 109.13525 112.74707 119.97705 123.58887 127.91797 135.14795 142.37793 146.70703 153.93701 160.43701 167.66699 174.89697"
         y="0"
         sodipodi:role="line"
         id="tspan14">Handle data, used to represent</tspan></text>
    <text
       id="text15"
       xml:space="preserve"
       transform="matrix(0.95509218,0,0,0.95509218,222.53648,46.799517)"
       clip-path="url(#clipPath16)"><tspan
         style="font-variant:normal;font-weight:normal;font-size:13px;font-family:Helvetica;writing-mode:lr-tb;fill:#000000;fill-opacity:1;fill-rule:nonzero;stroke:none"
         x="0 9.3881836 15.888184 23.118164 27.447266 33.947266 37.559082 41.170898 49.841797 52.72998 59.959961 67.189941 70.801758 79.472656 86.702637 93.202637 96.814453 103.31445 106.92627 110.53809 114.1499 124.979 132.20898 139.43896 146.66895 153.16895 156.78076 160.39258 167.62256 171.23438"
         y="0"
         sodipodi:role="line"
         id="tspan15">Users, Blog Posts, Images, etc</tspan></text>
  </g>
</svg>
