<?xml version="1.0" encoding="UTF-8" standalone="no"?>
<!-- Created with Inkscape (http://www.inkscape.org/) -->

<svg
   version="1.1"
   id="svg1"
   width="817.27997"
   height="378.55997"
   viewBox="0 0 817.27997 378.55997"
   sodipodi:docname="ts-3.pdf"
   xmlns:inkscape="http://www.inkscape.org/namespaces/inkscape"
   xmlns:sodipodi="http://sodipodi.sourceforge.net/DTD/sodipodi-0.dtd"
   xmlns="http://www.w3.org/2000/svg"
   xmlns:svg="http://www.w3.org/2000/svg">
  <defs
     id="defs1">
    <clipPath
       clipPathUnits="userSpaceOnUse"
       id="clipPath2">
      <path
         d="M 0,0 H 2554.1665 V 1181.3768 H 0 Z"
         transform="scale(0.33435565)"
         clip-rule="evenodd"
         id="path2" />
    </clipPath>
    <clipPath
       clipPathUnits="userSpaceOnUse"
       id="clipPath4">
      <path
         d="M 0,0 H 2554.1665 V 1178.386 H 0 Z"
         transform="matrix(0.33435565,0,0,0.33435565,-0.5,-0.5)"
         clip-rule="evenodd"
         id="path4" />
    </clipPath>
    <clipPath
       clipPathUnits="userSpaceOnUse"
       id="clipPath6">
      <path
         d="M 0,0 H 2554.1665 V 1178.386 H 0 Z"
         transform="matrix(0.33435565,0,0,0.33435565,-0.5,-0.5)"
         clip-rule="evenodd"
         id="path6" />
    </clipPath>
    <clipPath
       clipPathUnits="userSpaceOnUse"
       id="clipPath8">
      <path
         d="M 0,0 H 2554.1665 V 1178.386 H 0 Z"
         transform="matrix(0.33435565,0,0,0.33435565,-0.5,-0.5)"
         clip-rule="evenodd"
         id="path8" />
    </clipPath>
    <clipPath
       clipPathUnits="userSpaceOnUse"
       id="clipPath10">
      <path
         d="M 0,0 H 2554.1665 V 1178.386 H 0 Z"
         transform="matrix(0.33435565,0,0,0.33435565,-0.5,-0.5)"
         clip-rule="evenodd"
         id="path10" />
    </clipPath>
    <clipPath
       clipPathUnits="userSpaceOnUse"
       id="clipPath12">
      <path
         d="M 0,0 H 2554.1665 V 1178.386 H 0 Z"
         transform="matrix(0.33435565,0,0,0.33435565,-0.5,-0.5)"
         clip-rule="evenodd"
         id="path12" />
    </clipPath>
    <clipPath
       clipPathUnits="userSpaceOnUse"
       id="clipPath14">
      <path
         d="M 0,0 H 2554.1665 V 1178.386 H 0 Z"
         transform="matrix(0.33435565,0,0,0.33435565,-0.5,-0.5)"
         clip-rule="evenodd"
         id="path14" />
    </clipPath>
    <clipPath
       clipPathUnits="userSpaceOnUse"
       id="clipPath16">
      <path
         d="M 0,0 H 2554.1665 V 1178.386 H 0 Z"
         transform="matrix(0.33435565,0,0,0.33435565,-0.5,-0.5)"
         clip-rule="evenodd"
         id="path16" />
    </clipPath>
    <clipPath
       clipPathUnits="userSpaceOnUse"
       id="clipPath18">
      <path
         d="M 0,0 H 2554.1665 V 1178.386 H 0 Z"
         transform="matrix(0.33435565,0,0,0.33435565,-0.5,-0.5)"
         clip-rule="evenodd"
         id="path18" />
    </clipPath>
    <clipPath
       clipPathUnits="userSpaceOnUse"
       id="clipPath20">
      <path
         d="M 0,0 H 2554.1665 V 1178.386 H 0 Z"
         transform="matrix(0.33435565,0,0,0.33435565,-0.5,-0.5)"
         clip-rule="evenodd"
         id="path20" />
    </clipPath>
    <clipPath
       clipPathUnits="userSpaceOnUse"
       id="clipPath22">
      <path
         d="M 0,0 H 2554.1665 V 1178.386 H 0 Z"
         transform="matrix(0.33435565,0,0,0.33435565,-0.5,-0.5)"
         clip-rule="evenodd"
         id="path22" />
    </clipPath>
    <clipPath
       clipPathUnits="userSpaceOnUse"
       id="clipPath24">
      <path
         d="M 0,0 H 2554.1665 V 1178.386 H 0 Z"
         transform="matrix(0.33435565,0,0,0.33435565,-0.5,-0.5)"
         clip-rule="evenodd"
         id="path24" />
    </clipPath>
    <clipPath
       clipPathUnits="userSpaceOnUse"
       id="clipPath26">
      <path
         d="M 0,0 H 2554.1665 V 1178.386 H 0 Z"
         transform="matrix(0.33435565,0,0,0.33435565,-0.5,-0.5)"
         clip-rule="evenodd"
         id="path26" />
    </clipPath>
    <clipPath
       clipPathUnits="userSpaceOnUse"
       id="clipPath28">
      <path
         d="M 0,0 H 2554.1665 V 1178.386 H 0 Z"
         transform="matrix(0.33435565,0,0,0.33435565,-0.5,-0.5)"
         clip-rule="evenodd"
         id="path28" />
    </clipPath>
    <clipPath
       clipPathUnits="userSpaceOnUse"
       id="clipPath30">
      <path
         d="M 0,0 H 2554.1665 V 1178.386 H 0 Z"
         transform="matrix(0.33435565,0,0,0.33435565,-0.5,-0.5)"
         clip-rule="evenodd"
         id="path30" />
    </clipPath>
    <clipPath
       clipPathUnits="userSpaceOnUse"
       id="clipPath31">
      <path
         d="M 0,0 H 2554.1665 V 1178.386 H 0 Z"
         transform="matrix(0.33435228,0,0,0.33435228,-368,-31.999999)"
         clip-rule="evenodd"
         id="path31" />
    </clipPath>
    <clipPath
       clipPathUnits="userSpaceOnUse"
       id="clipPath32">
      <path
         d="M 0,0 H 2554.1665 V 1178.386 H 0 Z"
         transform="matrix(0.33435228,0,0,0.33435228,-438,-80)"
         clip-rule="evenodd"
         id="path32" />
    </clipPath>
    <clipPath
       clipPathUnits="userSpaceOnUse"
       id="clipPath33">
      <path
         d="M 0,0 H 2554.1665 V 1178.386 H 0 Z"
         transform="matrix(0.33435228,0,0,0.33435228,-338,-153)"
         clip-rule="evenodd"
         id="path33" />
    </clipPath>
    <clipPath
       clipPathUnits="userSpaceOnUse"
       id="clipPath34">
      <path
         d="M 0,0 H 2554.1665 V 1178.386 H 0 Z"
         transform="matrix(0.33435228,0,0,0.33435228,-358,-198)"
         clip-rule="evenodd"
         id="path34" />
    </clipPath>
    <clipPath
       clipPathUnits="userSpaceOnUse"
       id="clipPath35">
      <path
         d="M 0,0 H 2554.1665 V 1178.386 H 0 Z"
         transform="matrix(0.33435228,0,0,0.33435228,-358,-228)"
         clip-rule="evenodd"
         id="path35" />
    </clipPath>
    <clipPath
       clipPathUnits="userSpaceOnUse"
       id="clipPath37">
      <path
         d="M 0,0 H 2554.1665 V 1178.386 H 0 Z"
         transform="matrix(0.33435565,0,0,0.33435565,-0.5,-0.5)"
         clip-rule="evenodd"
         id="path37" />
    </clipPath>
    <clipPath
       clipPathUnits="userSpaceOnUse"
       id="clipPath38">
      <path
         d="M 0,0 H 2554.1665 V 1178.386 H 0 Z"
         transform="matrix(0.33435228,0,0,0.33435228,-323,-263)"
         clip-rule="evenodd"
         id="path38" />
    </clipPath>
    <clipPath
       clipPathUnits="userSpaceOnUse"
       id="clipPath40">
      <path
         d="M 0,0 H 2554.1665 V 1178.386 H 0 Z"
         transform="matrix(0.33435565,0,0,0.33435565,-0.5,-0.5)"
         clip-rule="evenodd"
         id="path40" />
    </clipPath>
    <clipPath
       clipPathUnits="userSpaceOnUse"
       id="clipPath41">
      <path
         d="M 0,0 H 2554.1665 V 1178.386 H 0 Z"
         transform="matrix(0.33435228,0,0,0.33435228,-444.17188,-262)"
         clip-rule="evenodd"
         id="path41" />
    </clipPath>
    <clipPath
       clipPathUnits="userSpaceOnUse"
       id="clipPath43">
      <path
         d="M 0,0 H 2554.1665 V 1178.386 H 0 Z"
         transform="matrix(0.33435565,0,0,0.33435565,-0.5,-0.5)"
         clip-rule="evenodd"
         id="path43" />
    </clipPath>
    <clipPath
       clipPathUnits="userSpaceOnUse"
       id="clipPath44">
      <path
         d="M 0,0 H 2554.1665 V 1178.386 H 0 Z"
         transform="matrix(0.33435228,0,0,0.33435228,-340.79687,-302)"
         clip-rule="evenodd"
         id="path44" />
    </clipPath>
    <clipPath
       clipPathUnits="userSpaceOnUse"
       id="clipPath46">
      <path
         d="M 0,0 H 2554.1665 V 1178.386 H 0 Z"
         transform="matrix(0.33435565,0,0,0.33435565,-0.5,-0.5)"
         clip-rule="evenodd"
         id="path46" />
    </clipPath>
    <clipPath
       clipPathUnits="userSpaceOnUse"
       id="clipPath47">
      <path
         d="M 0,0 H 2554.1665 V 1178.386 H 0 Z"
         transform="matrix(0.33435228,0,0,0.33435228,-388.64063,-342)"
         clip-rule="evenodd"
         id="path47" />
    </clipPath>
    <clipPath
       clipPathUnits="userSpaceOnUse"
       id="clipPath49">
      <path
         d="M 0,0 H 2554.1665 V 1178.386 H 0 Z"
         transform="matrix(0.33435565,0,0,0.33435565,-0.5,-0.5)"
         clip-rule="evenodd"
         id="path49" />
    </clipPath>
    <clipPath
       clipPathUnits="userSpaceOnUse"
       id="clipPath50">
      <path
         d="M 0,0 H 2554.1665 V 1178.386 H 0 Z"
         transform="matrix(0.33435228,0,0,0.33435228,-7.46875,-37)"
         clip-rule="evenodd"
         id="path50" />
    </clipPath>
    <clipPath
       clipPathUnits="userSpaceOnUse"
       id="clipPath51">
      <path
         d="M 0,0 H 2554.1665 V 1178.386 H 0 Z"
         transform="matrix(0.33435228,0,0,0.33435228,-6.0625,-57)"
         clip-rule="evenodd"
         id="path51" />
    </clipPath>
    <clipPath
       clipPathUnits="userSpaceOnUse"
       id="clipPath52">
      <path
         d="M 0,0 H 2554.1665 V 1178.386 H 0 Z"
         transform="matrix(0.33435228,0,0,0.33435228,-60.859374,-78)"
         clip-rule="evenodd"
         id="path52" />
    </clipPath>
    <clipPath
       clipPathUnits="userSpaceOnUse"
       id="clipPath54">
      <path
         d="M 0,0 H 2554.1665 V 1178.386 H 0 Z"
         transform="matrix(0.33435565,0,0,0.33435565,-0.5,-0.5)"
         clip-rule="evenodd"
         id="path54" />
    </clipPath>
    <clipPath
       clipPathUnits="userSpaceOnUse"
       id="clipPath55">
      <path
         d="M 0,0 H 2554.1665 V 1178.386 H 0 Z"
         transform="matrix(0.33435228,0,0,0.33435228,-2.28125,-167)"
         clip-rule="evenodd"
         id="path55" />
    </clipPath>
    <clipPath
       clipPathUnits="userSpaceOnUse"
       id="clipPath56">
      <path
         d="M 0,0 H 2554.1665 V 1178.386 H 0 Z"
         transform="matrix(0.33435228,0,0,0.33435228,-7.015625,-187)"
         clip-rule="evenodd"
         id="path56" />
    </clipPath>
    <clipPath
       clipPathUnits="userSpaceOnUse"
       id="clipPath57">
      <path
         d="M 0,0 H 2554.1665 V 1178.386 H 0 Z"
         transform="matrix(0.33435228,0,0,0.33435228,-101.5,-208)"
         clip-rule="evenodd"
         id="path57" />
    </clipPath>
    <clipPath
       clipPathUnits="userSpaceOnUse"
       id="clipPath59">
      <path
         d="M 0,0 H 2554.1665 V 1178.386 H 0 Z"
         transform="matrix(0.33435565,0,0,0.33435565,-0.5,-0.5)"
         clip-rule="evenodd"
         id="path59" />
    </clipPath>
    <clipPath
       clipPathUnits="userSpaceOnUse"
       id="clipPath60">
      <path
         d="M 0,0 H 2554.1665 V 1178.386 H 0 Z"
         transform="matrix(0.33435228,0,0,0.33435228,-15.96875,-255)"
         clip-rule="evenodd"
         id="path60" />
    </clipPath>
    <clipPath
       clipPathUnits="userSpaceOnUse"
       id="clipPath61">
      <path
         d="M 0,0 H 2554.1665 V 1178.386 H 0 Z"
         transform="matrix(0.33435228,0,0,0.33435228,-22.109375,-275)"
         clip-rule="evenodd"
         id="path61" />
    </clipPath>
    <clipPath
       clipPathUnits="userSpaceOnUse"
       id="clipPath62">
      <path
         d="M 0,0 H 2554.1665 V 1178.386 H 0 Z"
         transform="matrix(0.33435228,0,0,0.33435228,-52.828125,-296)"
         clip-rule="evenodd"
         id="path62" />
    </clipPath>
    <clipPath
       clipPathUnits="userSpaceOnUse"
       id="clipPath64">
      <path
         d="M 0,0 H 2554.1665 V 1178.386 H 0 Z"
         transform="matrix(0.33435565,0,0,0.33435565,-0.5,-0.5)"
         clip-rule="evenodd"
         id="path64" />
    </clipPath>
    <clipPath
       clipPathUnits="userSpaceOnUse"
       id="clipPath65">
      <path
         d="M 0,0 H 2554.1665 V 1178.386 H 0 Z"
         transform="matrix(0.33435228,0,0,0.33435228,-15.984375,-335)"
         clip-rule="evenodd"
         id="path65" />
    </clipPath>
    <clipPath
       clipPathUnits="userSpaceOnUse"
       id="clipPath66">
      <path
         d="M 0,0 H 2554.1665 V 1178.386 H 0 Z"
         transform="matrix(0.33435228,0,0,0.33435228,-5.09375,-355)"
         clip-rule="evenodd"
         id="path66" />
    </clipPath>
    <clipPath
       clipPathUnits="userSpaceOnUse"
       id="clipPath67">
      <path
         d="M 0,0 H 2554.1665 V 1178.386 H 0 Z"
         transform="matrix(0.33435228,0,0,0.33435228,-23.546875,-376)"
         clip-rule="evenodd"
         id="path67" />
    </clipPath>
  </defs>
  <sodipodi:namedview
     id="namedview1"
     pagecolor="#ffffff"
     bordercolor="#000000"
     borderopacity="0.25"
     inkscape:showpageshadow="2"
     inkscape:pageopacity="0.0"
     inkscape:pagecheckerboard="0"
     inkscape:deskcolor="#d1d1d1">
    <inkscape:page
       x="0"
       y="0"
       inkscape:label="1"
       id="page1"
       width="817.27997"
       height="378.55997"
       margin="0"
       bleed="0" />
  </sodipodi:namedview>
  <g
     id="g1"
     inkscape:groupmode="layer"
     inkscape:label="1">
    <path
       id="path1"
       d="M 0,0 H 854 V 395 H 0 Z"
       style="fill:#ffffff;fill-opacity:1;fill-rule:nonzero;stroke:none"
       transform="scale(0.9570647)"
       clip-path="url(#clipPath2)" />
    <path
       id="path3"
       d="M 306,1 H 851.01001 V 391 H 306 Z"
       style="fill:#ffffff;fill-opacity:1;fill-rule:nonzero;stroke:#666666;stroke-width:1;stroke-linecap:butt;stroke-linejoin:miter;stroke-miterlimit:10;stroke-dasharray:none;stroke-opacity:1"
       transform="matrix(0.9570647,0,0,0.9570647,0.47853235,0.47853235)"
       clip-path="url(#clipPath4)" />
    <path
       id="path5"
       d="m 796.01007,16 c -6e-5,0.656614 -0.0641,1.306923 -0.1922,1.950922 -0.12811,0.643999 -0.31781,1.269314 -0.56909,1.875948 -0.25128,0.606634 -0.55927,1.182928 -0.92407,1.728886 -0.36481,0.545957 -0.77936,1.051084 -1.24366,1.51538 -0.46429,0.464297 -0.96948,0.878844 -1.51544,1.243639 -0.54596,0.364796 -1.12225,0.672833 -1.72888,0.924109 -0.60663,0.251276 -1.23193,0.440964 -1.87591,0.569063 -0.64399,0.1281 -1.29426,0.19215 -1.95081,0.192152 -0.65668,-2e-6 -1.30695,-0.06405 -1.95093,-0.192152 -0.64404,-0.128099 -1.26935,-0.317787 -1.87597,-0.569063 -0.60663,-0.251276 -1.18287,-0.559313 -1.72883,-0.924109 -0.54602,-0.364795 -1.05114,-0.779342 -1.51544,-1.243639 -0.46429,-0.464296 -0.8789,-0.969423 -1.24377,-1.515378 -0.36475,-0.545958 -0.67273,-1.122254 -0.92401,-1.728888 -0.25128,-0.606634 -0.44098,-1.231949 -0.56909,-1.875948 -0.12812,-0.643999 -0.19214,-1.294308 -0.19208,-1.950922 -6e-5,-0.656616 0.064,-1.306924 0.19208,-1.950923 0.12811,-0.644 0.31781,-1.269317 0.56909,-1.875951 0.25128,-0.606633 0.55926,-1.182928 0.92401,-1.728885 0.36487,-0.5459561 0.77948,-1.051083 1.24377,-1.5153803 0.4643,-0.4642973 0.96942,-0.8788443 1.51538,-1.2436409 0.54596,-0.3647962 1.1222,-0.6728325 1.72882,-0.9241085 0.60663,-0.2512756 1.232,-0.4409633 1.87598,-0.5690623 0.64398,-0.1280994 1.29431,-0.1921491 1.95099,-0.1921491 0.65655,0 1.30682,0.06405 1.95081,0.1921491 0.64398,0.128099 1.26928,0.3177867 1.87597,0.5690623 0.60663,0.251276 1.18292,0.5593123 1.72888,0.9241085 0.54596,0.3647966 1.05109,0.7793436 1.51538,1.2436409 0.4643,0.4642973 0.87885,0.9694242 1.24366,1.5153803 0.3648,0.545957 0.67279,1.122252 0.92407,1.728885 0.25128,0.606634 0.44098,1.231951 0.56909,1.875951 0.12811,0.643999 0.19214,1.294307 0.1922,1.950923 z"
       style="fill:none;stroke:#666666;stroke-width:1;stroke-linecap:butt;stroke-linejoin:miter;stroke-miterlimit:10;stroke-dasharray:none;stroke-opacity:1"
       transform="matrix(0.9570647,0,0,0.9570647,0.47853235,0.47853235)"
       clip-path="url(#clipPath6)" />
    <path
       id="path7"
       d="m 821.01007,16 c -6e-5,0.656614 -0.0642,1.306923 -0.19226,1.950922 -0.12811,0.643999 -0.31775,1.269314 -0.56903,1.875948 -0.25128,0.606634 -0.55933,1.182928 -0.92413,1.728886 -0.36481,0.545957 -0.7793,1.051084 -1.2436,1.51538 -0.46429,0.464297 -0.96948,0.878844 -1.51544,1.243639 -0.54596,0.364796 -1.12225,0.672833 -1.72888,0.924109 -0.60663,0.251276 -1.23193,0.440964 -1.87591,0.569063 -0.64399,0.1281 -1.29426,0.19215 -1.95081,0.192152 -0.65668,-2e-6 -1.30701,-0.06405 -1.95099,-0.192152 -0.64404,-0.128099 -1.26941,-0.317787 -1.87604,-0.569063 -0.60663,-0.251276 -1.18292,-0.559313 -1.72888,-0.924109 -0.54596,-0.364795 -1.05102,-0.779342 -1.51532,-1.243639 -0.46429,-0.464296 -0.87884,-0.969423 -1.24365,-1.515378 -0.36481,-0.545958 -0.67285,-1.122254 -0.92413,-1.728888 -0.25129,-0.606634 -0.44092,-1.231949 -0.56903,-1.875948 -0.12812,-0.643999 -0.19214,-1.294308 -0.19208,-1.950922 -6e-5,-0.656616 0.064,-1.306924 0.19208,-1.950923 0.12811,-0.644 0.31774,-1.269317 0.56897,-1.875951 0.25128,-0.606633 0.55932,-1.182928 0.92413,-1.728885 0.36481,-0.5459561 0.77942,-1.051083 1.24371,-1.5153803 0.4643,-0.4642973 0.96942,-0.8788443 1.51538,-1.2436409 0.54596,-0.3647962 1.12226,-0.6728325 1.72888,-0.9241085 0.60663,-0.2512756 1.23194,-0.4409633 1.87598,-0.5690623 0.64398,-0.1280994 1.29431,-0.1921491 1.95099,-0.1921491 0.65655,0 1.30682,0.06405 1.95087,0.1921491 0.64398,0.128099 1.26928,0.3177867 1.87591,0.5690623 0.60663,0.251276 1.18286,0.5593123 1.72882,0.9241085 0.54596,0.3647966 1.05115,0.7793436 1.51544,1.2436409 0.4643,0.4642973 0.87879,0.9694242 1.2436,1.5153803 0.3648,0.545957 0.67285,1.122252 0.92413,1.728885 0.25128,0.606634 0.44092,1.231951 0.56903,1.875951 0.12811,0.643999 0.1922,1.294307 0.19226,1.950923 z"
       style="fill:none;stroke:#666666;stroke-width:1;stroke-linecap:butt;stroke-linejoin:miter;stroke-miterlimit:10;stroke-dasharray:none;stroke-opacity:1"
       transform="matrix(0.9570647,0,0,0.9570647,0.47853235,0.47853235)"
       clip-path="url(#clipPath8)" />
    <path
       id="path9"
       d="m 846.01007,16 c 0,0.656614 -0.0641,1.306923 -0.1922,1.950922 -0.12811,0.643999 -0.31781,1.269314 -0.56909,1.875948 -0.25128,0.606634 -0.55939,1.182928 -0.9242,1.728886 -0.36474,0.545957 -0.77923,1.051084 -1.24353,1.51538 -0.46429,0.464297 -0.96942,0.878844 -1.51538,1.243639 -0.54596,0.364796 -1.12225,0.672833 -1.72888,0.924109 -0.60663,0.251276 -1.23187,0.440964 -1.87585,0.569063 -0.64398,0.1281 -1.29431,0.19215 -1.95093,0.192152 -0.65662,-2e-6 -1.30695,-0.06405 -1.95099,-0.192152 -0.64398,-0.128099 -1.26935,-0.317787 -1.87598,-0.569063 -0.60662,-0.251276 -1.18292,-0.559313 -1.72888,-0.924109 -0.54596,-0.364795 -1.05102,-0.779342 -1.51532,-1.243639 -0.46429,-0.464296 -0.87884,-0.969423 -1.24365,-1.515378 -0.36481,-0.545958 -0.67285,-1.122254 -0.92419,-1.728888 -0.25129,-0.606634 -0.44092,-1.231949 -0.56897,-1.875948 -0.12812,-0.643999 -0.1922,-1.294308 -0.19214,-1.950922 -6e-5,-0.656616 0.064,-1.306924 0.19214,-1.950923 0.12811,-0.644 0.31781,-1.269317 0.56909,-1.875951 0.25128,-0.606633 0.55932,-1.182928 0.92413,-1.728885 0.36475,-0.5459561 0.7793,-1.051083 1.24359,-1.5153803 0.4643,-0.4642973 0.96936,-0.8788443 1.51532,-1.2436409 0.54596,-0.3647962 1.12226,-0.6728325 1.72888,-0.9241085 0.60663,-0.2512756 1.232,-0.4409633 1.87598,-0.5690623 0.64404,-0.1280994 1.29437,-0.1921491 1.95099,-0.1921491 0.65662,0 1.30688,0.06405 1.95087,0.1921491 0.64398,0.128099 1.26922,0.3177867 1.87585,0.5690623 0.60663,0.251276 1.18298,0.5593123 1.72894,0.9241085 0.54596,0.3647966 1.05109,0.7793436 1.51538,1.2436409 0.4643,0.4642973 0.87879,0.9694242 1.2436,1.5153803 0.36474,0.545957 0.67279,1.122252 0.92407,1.728885 0.25128,0.606634 0.44098,1.231951 0.56909,1.875951 0.12817,0.643999 0.19226,1.294307 0.19226,1.950923 z"
       style="fill:none;stroke:#008cff;stroke-width:1;stroke-linecap:butt;stroke-linejoin:miter;stroke-miterlimit:10;stroke-dasharray:none;stroke-opacity:1"
       transform="matrix(0.9570647,0,0,0.9570647,0.47853235,0.47853235)"
       clip-path="url(#clipPath10)" />
    <path
       id="path11"
       d="m 306,41 h 30 V 16 c 0,-2.76 2.23999,-5 5,-5 h 135 c 2.76999,0 5,2.24 5,5 v 25 h 370.01001"
       style="fill:none;stroke:#c4c4c4;stroke-width:1;stroke-linecap:butt;stroke-linejoin:miter;stroke-miterlimit:10;stroke-dasharray:none;stroke-opacity:1"
       transform="matrix(0.9570647,0,0,0.9570647,0.47853235,0.47853235)"
       clip-path="url(#clipPath12)" />
    <path
       id="path13"
       d="M 306,111 H 851.01001"
       style="fill:none;stroke:#c4c4c4;stroke-width:1;stroke-linecap:butt;stroke-linejoin:miter;stroke-miterlimit:10;stroke-dasharray:none;stroke-opacity:1"
       transform="matrix(0.9570647,0,0,0.9570647,0.47853235,0.47853235)"
       clip-path="url(#clipPath14)" />
    <path
       id="path15"
       d="m 406,61 c 0,-2.759998 2.23999,-5 5,-5 h 425.01001 c 2.76001,0 5,2.240002 5,5 v 25 c 0,2.760002 -2.23999,5 -5,5 H 411 c -2.76001,0 -5,-2.239998 -5,-5 z"
       style="fill:none;stroke:#c4c4c4;stroke-width:1;stroke-linecap:butt;stroke-linejoin:miter;stroke-miterlimit:10;stroke-dasharray:none;stroke-opacity:1"
       transform="matrix(0.9570647,0,0,0.9570647,0.47853235,0.47853235)"
       clip-path="url(#clipPath16)" />
    <path
       id="path17"
       d="m 343,18 h 11 l 4,4 v 14 h -15 z"
       style="fill:none;stroke:#c4c4c4;stroke-width:1;stroke-linecap:butt;stroke-linejoin:miter;stroke-miterlimit:10;stroke-dasharray:none;stroke-opacity:1"
       transform="matrix(0.9570647,0,0,0.9570647,0.47853235,0.47853235)"
       clip-path="url(#clipPath18)" />
    <path
       id="path19"
       d="m 354,18 v 4 l 4,1"
       style="fill:none;stroke:#c4c4c4;stroke-width:1;stroke-linecap:butt;stroke-linejoin:miter;stroke-miterlimit:10;stroke-dasharray:none;stroke-opacity:1"
       transform="matrix(0.9570647,0,0,0.9570647,0.47853235,0.47853235)"
       clip-path="url(#clipPath20)" />
    <path
       id="path21"
       d="m 413,65 h 11 l 4,4 v 14 h -15 z"
       style="fill:none;stroke:#c4c4c4;stroke-width:1;stroke-linecap:butt;stroke-linejoin:miter;stroke-miterlimit:10;stroke-dasharray:none;stroke-opacity:1"
       transform="matrix(0.9570647,0,0,0.9570647,0.47853235,0.47853235)"
       clip-path="url(#clipPath22)" />
    <path
       id="path23"
       d="m 424,65 v 4 l 4,1"
       style="fill:none;stroke:#c4c4c4;stroke-width:1;stroke-linecap:butt;stroke-linejoin:miter;stroke-miterlimit:10;stroke-dasharray:none;stroke-opacity:1"
       transform="matrix(0.9570647,0,0,0.9570647,0.47853235,0.47853235)"
       clip-path="url(#clipPath24)" />
    <path
       id="path25"
       d="m 318,75 10,-10 v 6 h 10 v 8 h -10 v 6 z"
       style="fill:#c4c4c4;fill-opacity:1;fill-rule:nonzero;stroke:#c4c4c4;stroke-width:1;stroke-linecap:butt;stroke-linejoin:miter;stroke-miterlimit:10;stroke-dasharray:none;stroke-opacity:1"
       transform="matrix(0.9570647,0,0,0.9570647,0.47853235,0.47853235)"
       clip-path="url(#clipPath26)" />
    <path
       id="path27"
       d="M 368,75 358,65 v 6 h -10 v 8 h 10 v 6 z"
       style="fill:#c4c4c4;fill-opacity:1;fill-rule:nonzero;stroke:#c4c4c4;stroke-width:1;stroke-linecap:butt;stroke-linejoin:miter;stroke-miterlimit:10;stroke-dasharray:none;stroke-opacity:1"
       transform="matrix(0.9570647,0,0,0.9570647,0.47853235,0.47853235)"
       clip-path="url(#clipPath28)" />
    <path
       id="path29"
       d="m 393.60001,78.300003 c -1.70002,2.839996 -5.37,3.759995 -8.21,2.059998 -2.84002,-1.690003 -3.78002,-5.360001 -2.09002,-8.209999 1.68002,-2.840004 5.35,-3.790001 8.20001,-2.110001 L 389.89999,71.5 l 7.9,1.800003 -1.79999,-7.5 -1.70001,1.599999 c -3.19,-2.370003 -7.5,-2.580002 -10.9,-0.529999 -3.41,2.049995 -5.22998,5.959999 -4.63,9.889999 0.61001,3.93 3.53,7.099999 7.40002,8.029999 3.85999,0.93 7.90998,-0.559998 10.22998,-3.790001 z"
       style="fill:#c4c4c4;fill-opacity:1;fill-rule:nonzero;stroke:#c4c4c4;stroke-width:1;stroke-linecap:butt;stroke-linejoin:miter;stroke-miterlimit:10;stroke-dasharray:none;stroke-opacity:1"
       transform="matrix(0.9570647,0,0,0.9570647,0.47853235,0.47853235)"
       clip-path="url(#clipPath30)" />
    <text
       id="text30"
       xml:space="preserve"
       transform="matrix(0.95707433,0,0,0.95707433,352.20335,30.626378)"
       clip-path="url(#clipPath31)"><tspan
         style="font-variant:normal;font-weight:normal;font-size:17px;font-family:Helvetica;writing-mode:lr-tb;fill:#666666;fill-opacity:1;fill-rule:nonzero;stroke:none"
         x="0 11.338867 20.793457 30.248047 39.702637 44.425781"
         y="0"
         sodipodi:role="line"
         id="tspan30">Page 1</tspan></text>
    <text
       id="text31"
       xml:space="preserve"
       transform="matrix(0.95707433,0,0,0.95707433,419.19856,76.565946)"
       clip-path="url(#clipPath32)"><tspan
         style="font-variant:normal;font-weight:normal;font-size:17px;font-family:Helvetica;writing-mode:lr-tb;fill:#666666;fill-opacity:1;fill-rule:nonzero;stroke:none"
         x="0 9.4545898 14.177734 18.900879 28.355469 36.855469 41.578613 46.301758 51.024902 63.301758 75.578613 86.925781 91.648926 101.10352 106.76465 116.21924 127.56641 132.28955 136.06641"
         y="0"
         sodipodi:role="line"
         id="tspan31">https://www.draw.io</tspan></text>
    <text
       id="text32"
       xml:space="preserve"
       transform="matrix(0.95707433,0,0,0.95707433,323.49112,146.43237)"
       clip-path="url(#clipPath33)"><tspan
         style="font-variant:normal;font-weight:700;font-size:21px;font-family:Helvetica;writing-mode:lr-tb;fill:#000000;fill-opacity:1;fill-rule:nonzero;stroke:none"
         x="0 15.165527 26.844727 38.523926 46.696289 52.530762 67.696289 79.375488 86.368652 98.047852 103.88232"
         y="0"
         sodipodi:role="line"
         id="tspan32">User Detail</tspan></text>
    <text
       id="text33"
       xml:space="preserve"
       transform="matrix(0.95707433,0,0,0.95707433,342.63261,189.50072)"
       clip-path="url(#clipPath34)"><tspan
         style="font-variant:normal;font-weight:normal;font-size:21px;font-family:Helvetica;writing-mode:lr-tb;fill:#000000;fill-opacity:1;fill-rule:nonzero;stroke:none"
         x="0 11.679199 23.358398 40.851562 52.530762 58.365234 64.199707 78.206543 89.885742"
         y="0"
         sodipodi:role="line"
         id="tspan33">name: Sam</tspan></text>
    <text
       id="text34"
       xml:space="preserve"
       transform="matrix(0.95707433,0,0,0.95707433,342.63261,218.21295)"
       clip-path="url(#clipPath35)"><tspan
         style="font-variant:normal;font-weight:normal;font-size:21px;font-family:Helvetica;writing-mode:lr-tb;fill:#000000;fill-opacity:1;fill-rule:nonzero;stroke:none"
         x="0 11.679199 23.358398 35.037598 40.87207 46.706543 58.385742"
         y="0"
         sodipodi:role="line"
         id="tspan34">age: 20</tspan></text>
    <path
       id="path36"
       d="m 321,241 h 90 v 30 h -90 z"
       style="fill:#ffffff;fill-opacity:1;fill-rule:nonzero;stroke:#000000;stroke-width:1;stroke-linecap:butt;stroke-linejoin:miter;stroke-miterlimit:10;stroke-dasharray:none;stroke-opacity:1"
       transform="matrix(0.9570647,0,0,0.9570647,0.47853235,0.47853235)"
       clip-path="url(#clipPath37)" />
    <text
       id="text37"
       xml:space="preserve"
       transform="matrix(0.95707433,0,0,0.95707433,309.13501,251.71055)"
       clip-path="url(#clipPath38)"><tspan
         style="font-style:oblique;font-variant:normal;font-weight:normal;font-size:21px;font-family:Helvetica;writing-mode:lr-tb;fill:#000000;fill-opacity:1;fill-rule:nonzero;stroke:none"
         x="0 14.006836 25.686035"
         y="0"
         sodipodi:role="line"
         id="tspan37">Sam</tspan></text>
    <path
       id="path39"
       d="m 431,241 h 135 v 30 H 431 Z"
       style="fill:#ffffff;fill-opacity:1;fill-rule:nonzero;stroke:#000000;stroke-width:1;stroke-linecap:butt;stroke-linejoin:miter;stroke-miterlimit:10;stroke-dasharray:none;stroke-opacity:1"
       transform="matrix(0.9570647,0,0,0.9570647,0.47853235,0.47853235)"
       clip-path="url(#clipPath40)" />
    <text
       id="text40"
       xml:space="preserve"
       transform="matrix(0.95707433,0,0,0.95707433,425.1055,250.75347)"
       clip-path="url(#clipPath41)"><tspan
         style="font-variant:normal;font-weight:700;font-size:17px;font-family:Helvetica;writing-mode:lr-tb;fill:#000000;fill-opacity:1;fill-rule:nonzero;stroke:none"
         x="0 12.276855 22.661133 33.04541 42.5 48.161133 57.615723 62.338867 74.615723 84.070312 99.186035"
         y="0"
         sodipodi:role="line"
         id="tspan40">Update Name</tspan></text>
    <path
       id="path42"
       d="m 321,281 h 175 v 30 H 321 Z"
       style="fill:#ffffff;fill-opacity:1;fill-rule:nonzero;stroke:#000000;stroke-width:1;stroke-linecap:butt;stroke-linejoin:miter;stroke-miterlimit:10;stroke-dasharray:none;stroke-opacity:1"
       transform="matrix(0.9570647,0,0,0.9570647,0.47853235,0.47853235)"
       clip-path="url(#clipPath43)" />
    <text
       id="text43"
       xml:space="preserve"
       transform="matrix(0.95707433,0,0,0.95707433,326.16794,289.03645)"
       clip-path="url(#clipPath44)"><tspan
         style="font-variant:normal;font-weight:700;font-size:17px;font-family:Helvetica;writing-mode:lr-tb;fill:#000000;fill-opacity:1;fill-rule:nonzero;stroke:none"
         x="0 11.338867 20.793457 26.45459 31.177734 43.45459 52.90918 63.293457 73.677734 84.062012 99.177734 103.27832 115.55518 125.93945"
         y="0"
         sodipodi:role="line"
         id="tspan43">Set Random Age</tspan></text>
    <path
       id="path45"
       d="m 321,321 h 175 v 30 H 321 Z"
       style="fill:#ffffff;fill-opacity:1;fill-rule:nonzero;stroke:#000000;stroke-width:1;stroke-linecap:butt;stroke-linejoin:miter;stroke-miterlimit:10;stroke-dasharray:none;stroke-opacity:1"
       transform="matrix(0.9570647,0,0,0.9570647,0.47853235,0.47853235)"
       clip-path="url(#clipPath46)" />
    <text
       id="text46"
       xml:space="preserve"
       transform="matrix(0.95707433,0,0,0.95707433,371.95797,327.31942)"
       clip-path="url(#clipPath47)"><tspan
         style="font-variant:normal;font-weight:700;font-size:17px;font-family:Helvetica;writing-mode:lr-tb;fill:#000000;fill-opacity:1;fill-rule:nonzero;stroke:none"
         x="0 11.338867 20.793457 30.248047"
         y="0"
         sodipodi:role="line"
         id="tspan46">Save</tspan></text>
    <path
       id="path48"
       d="M 1,13 H 271 V 88 H 1 Z"
       style="fill:#f8cecc;fill-opacity:1;fill-rule:nonzero;stroke:#b85450;stroke-width:1;stroke-linecap:butt;stroke-linejoin:miter;stroke-miterlimit:10;stroke-dasharray:none;stroke-opacity:1"
       transform="matrix(0.9570647,0,0,0.9570647,0.47853235,0.47853235)"
       clip-path="url(#clipPath49)" />
    <text
       id="text49"
       xml:space="preserve"
       transform="matrix(0.95707433,0,0,0.95707433,7.1481489,35.41175)"
       clip-path="url(#clipPath50)"><tspan
         style="font-variant:normal;font-weight:normal;font-size:17px;font-family:Helvetica;writing-mode:lr-tb;fill:#000000;fill-opacity:1;fill-rule:nonzero;stroke:none"
         x="0 11.338867 17 26.45459 35.90918 45.36377 54.818359 58.595215 67.095215 71.818359 81.272949 90.727539 100.18213 109.63672 114.35986 119.08301 128.5376 133.26074 141.76074 147.42188 156.87646 166.33105 171.0542 180.50879 185.23193 194.68652 199.40967 207.90967 211.68652 221.14111 229.64111 238.14111 242.86426 247.5874"
         y="0"
         sodipodi:role="line"
         id="tspan49">Probably need to create a class to</tspan></text>
    <text
       id="text50"
       xml:space="preserve"
       transform="matrix(0.95707433,0,0,0.95707433,5.8022631,54.553237)"
       clip-path="url(#clipPath51)"><tspan
         style="font-variant:normal;font-weight:normal;font-size:17px;font-family:Helvetica;writing-mode:lr-tb;fill:#000000;fill-opacity:1;fill-rule:nonzero;stroke:none"
         x="0 5.6611328 15.115723 24.570312 30.231445 39.686035 48.186035 57.640625 67.095215 71.818359 76.541504 85.996094 90.719238 102.99609 111.49609 120.95068 126.61182 131.33496 140.78955 150.24414 159.69873 164.42188 173.87646 177.65332 181.43018 186.15332 195.60791 200.33105 205.0542 208.83105 213.5542 222.0542 226.77734 236.23193 245.68652 250.40967"
         y="0"
         sodipodi:role="line"
         id="tspan50">represent a User and all of its data</tspan></text>
    <text
       id="text51"
       xml:space="preserve"
       transform="matrix(0.95707433,0,0,0.95707433,58.246945,74.651798)"
       clip-path="url(#clipPath52)"><tspan
         style="font-variant:normal;font-weight:normal;font-size:17px;font-family:Helvetica;writing-mode:lr-tb;fill:#000000;fill-opacity:1;fill-rule:nonzero;stroke:none"
         x="0 5.6611328 9.4379883 13.214844 21.714844 31.169434 35.892578 45.347168 54.801758 68.962891 78.41748 83.140625 92.595215 102.0498 111.50439 116.22754 125.68213 135.13672 144.59131"
         y="0"
         sodipodi:role="line"
         id="tspan51">(like name and age)</tspan></text>
    <path
       id="path53"
       d="m 1,143.5 h 270 v 75 H 1 Z"
       style="fill:#f8cecc;fill-opacity:1;fill-rule:nonzero;stroke:#b85450;stroke-width:1;stroke-linecap:butt;stroke-linejoin:miter;stroke-miterlimit:10;stroke-dasharray:none;stroke-opacity:1"
       transform="matrix(0.9570647,0,0,0.9570647,0.47853235,0.47853235)"
       clip-path="url(#clipPath54)" />
    <text
       id="text54"
       xml:space="preserve"
       transform="matrix(0.95707433,0,0,0.95707433,2.1833258,159.83141)"
       clip-path="url(#clipPath55)"><tspan
         style="font-variant:normal;font-weight:normal;font-size:17px;font-family:Helvetica;writing-mode:lr-tb;fill:#000000;fill-opacity:1;fill-rule:nonzero;stroke:none"
         x="0 12.276855 20.776855 30.231445 35.892578 40.615723 49.115723 52.892578 62.347168 70.847168 79.347168 84.070312 93.524902 102.97949 112.43408 121.88867 130.38867 135.11182 139.83496 149.28955 154.0127 163.46729 172.92188 181.42188 190.87646 195.59961 200.32275 209.77734 219.23193 223.95508 233.40967 242.86426 246.64111 250.41797 254.19482 258.91797"
         y="0"
         sodipodi:role="line"
         id="tspan54">User class needs to have the ability</tspan></text>
    <text
       id="text55"
       xml:space="preserve"
       transform="matrix(0.95707433,0,0,0.95707433,6.7144746,178.9729)"
       clip-path="url(#clipPath56)"><tspan
         style="font-variant:normal;font-weight:normal;font-size:17px;font-family:Helvetica;writing-mode:lr-tb;fill:#000000;fill-opacity:1;fill-rule:nonzero;stroke:none"
         x="0 4.7231445 14.177734 18.900879 27.400879 32.124023 41.578613 47.239746 56.694336 61.41748 69.91748 79.37207 93.533203 102.98779 107.71094 117.16553 126.62012 131.34326 140.79785 145.521 150.24414 155.90527 165.35986 170.08301 175.74414 179.521 188.97559 197.47559 206.93018 211.65332 215.43018 220.15332 224.87646 229.59961 239.0542 248.50879"
         y="0"
         sodipodi:role="line"
         id="tspan55">to store some data, retrieve it, and</tspan></text>
    <text
       id="text56"
       xml:space="preserve"
       transform="matrix(0.95707433,0,0,0.95707433,97.143044,199.07146)"
       clip-path="url(#clipPath57)"><tspan
         style="font-variant:normal;font-weight:normal;font-size:17px;font-family:Helvetica;writing-mode:lr-tb;fill:#000000;fill-opacity:1;fill-rule:nonzero;stroke:none"
         x="0 8.5 17.95459 27.40918 36.86377 46.318359 55.772949 60.496094 64.272949"
         y="0"
         sodipodi:role="line"
         id="tspan56">change it</tspan></text>
    <path
       id="path58"
       d="m 1,231 h 270 v 75 H 1 Z"
       style="fill:#f8cecc;fill-opacity:1;fill-rule:nonzero;stroke:#b85450;stroke-width:1;stroke-linecap:butt;stroke-linejoin:miter;stroke-miterlimit:10;stroke-dasharray:none;stroke-opacity:1"
       transform="matrix(0.9570647,0,0,0.9570647,0.47853235,0.47853235)"
       clip-path="url(#clipPath59)" />
    <text
       id="text59"
       xml:space="preserve"
       transform="matrix(0.95707433,0,0,0.95707433,15.283281,244.05395)"
       clip-path="url(#clipPath60)"><tspan
         style="font-variant:normal;font-weight:normal;font-size:17px;font-family:Helvetica;writing-mode:lr-tb;fill:#000000;fill-opacity:1;fill-rule:nonzero;stroke:none"
         x="0 11.338867 15.115723 23.615723 33.070312 37.793457 47.248047 56.702637 66.157227 75.611816 84.111816 88.834961 93.558105 103.0127 107.73584 117.19043 126.64502 135.14502 144.59961 149.32275 154.0459 163.50049 172.95508 177.67822 187.13281 196.5874 200.36426 204.14111 207.91797 212.64111 221.14111 225.86426 230.5874"
         y="0"
         sodipodi:role="line"
         id="tspan59">Also needs to have the ability to</tspan></text>
    <text
       id="text60"
       xml:space="preserve"
       transform="matrix(0.95707433,0,0,0.95707433,21.160315,263.19544)"
       clip-path="url(#clipPath61)"><tspan
         style="font-variant:normal;font-weight:normal;font-size:17px;font-family:Helvetica;writing-mode:lr-tb;fill:#000000;fill-opacity:1;fill-rule:nonzero;stroke:none"
         x="0 9.4545898 18.90918 23.632324 27.40918 32.132324 40.632324 45.355469 50.078613 59.533203 68.987793 73.710938 79.37207 88.82666 97.32666 102.0498 106.77295 116.22754 120.95068 125.67383 130.39697 139.85156 149.30615 154.0293 163.48389 172.93848 182.39307 187.11621 199.39307 208.84766 218.30225"
         y="0"
         sodipodi:role="line"
         id="tspan60">notify the rest of the app when</tspan></text>
    <text
       id="text61"
       xml:space="preserve"
       transform="matrix(0.95707433,0,0,0.95707433,50.560442,283.294)"
       clip-path="url(#clipPath62)"><tspan
         style="font-variant:normal;font-weight:normal;font-size:17px;font-family:Helvetica;writing-mode:lr-tb;fill:#000000;fill-opacity:1;fill-rule:nonzero;stroke:none"
         x="0 8.5 17.95459 32.115723 41.570312 46.293457 55.748047 65.202637 69.925781 79.380371 84.103516 87.880371 96.380371 101.10352 109.60352 119.05811 128.5127 137.96729 147.42188 156.87646"
         y="0"
         sodipodi:role="line"
         id="tspan61">some data is changed</tspan></text>
    <path
       id="path63"
       d="m 1,311 h 270 v 75 H 1 Z"
       style="fill:#f8cecc;fill-opacity:1;fill-rule:nonzero;stroke:#b85450;stroke-width:1;stroke-linecap:butt;stroke-linejoin:miter;stroke-miterlimit:10;stroke-dasharray:none;stroke-opacity:1"
       transform="matrix(0.9570647,0,0,0.9570647,0.47853235,0.47853235)"
       clip-path="url(#clipPath64)" />
    <text
       id="text64"
       xml:space="preserve"
       transform="matrix(0.95707433,0,0,0.95707433,15.298235,320.6199)"
       clip-path="url(#clipPath65)"><tspan
         style="font-variant:normal;font-weight:normal;font-size:17px;font-family:Helvetica;writing-mode:lr-tb;fill:#000000;fill-opacity:1;fill-rule:nonzero;stroke:none"
         x="0 12.276855 20.776855 30.231445 35.892578 40.615723 50.070312 59.524902 68.979492 78.434082 86.934082 91.657227 96.380371 105.83496 110.55811 120.0127 129.46729 134.19043 143.64502 153.09961 156.87646 166.33105 171.0542 175.77734 185.23193 189.95508 199.40967 208.86426 214.52539 223.02539 226.80225 235.30225"
         y="0"
         sodipodi:role="line"
         id="tspan64">User needs to be able to persist</tspan></text>
    <text
       id="text65"
       xml:space="preserve"
       transform="matrix(0.95707433,0,0,0.95707433,4.8750974,339.76139)"
       clip-path="url(#clipPath66)"><tspan
         style="font-variant:normal;font-weight:normal;font-size:17px;font-family:Helvetica;writing-mode:lr-tb;fill:#000000;fill-opacity:1;fill-rule:nonzero;stroke:none"
         x="0 9.4545898 18.90918 23.632324 33.086914 37.810059 42.533203 51.987793 56.710938 66.165527 75.620117 80.343262 89.797852 99.252441 103.97559 112.47559 116.25244 125.70703 135.16162 139.88477 148.38477 157.83936 163.50049 172.00049 181.45508 186.18652 190.90967 195.63281 205.0874 214.54199 223.99658 228.71973 233.44287 242.89746 252.35205"
         y="0"
         sodipodi:role="line"
         id="tspan65">data to an outside server, and then</tspan></text>
    <text
       id="text66"
       xml:space="preserve"
       transform="matrix(0.95707433,0,0,0.95707433,22.53611,359.85995)"
       clip-path="url(#clipPath67)"><tspan
         style="font-variant:normal;font-weight:normal;font-size:17px;font-family:Helvetica;writing-mode:lr-tb;fill:#000000;fill-opacity:1;fill-rule:nonzero;stroke:none"
         x="0 5.6611328 15.115723 19.838867 25.5 29.276855 38.731445 47.231445 56.686035 61.40918 65.186035 69.90918 74.632324 84.086914 88.810059 93.533203 102.0332 111.48779 125.64893 135.10352 139.82666 144.5498 154.00439 158.72754 168.18213 173.84326 183.29785 188.021 197.47559 206.93018 210.70703 220.16162"
         y="0"
         sodipodi:role="line"
         id="tspan66">retrieve it at some future point</tspan></text>
  </g>
</svg>
