<?xml version="1.0" encoding="UTF-8" standalone="no"?>
<!-- Created with Inkscape (http://www.inkscape.org/) -->

<svg
   version="1.1"
   id="svg1"
   width="558.71997"
   height="313.28"
   viewBox="0 0 558.71997 313.28"
   sodipodi:docname="ts-5.pdf"
   xmlns:inkscape="http://www.inkscape.org/namespaces/inkscape"
   xmlns:sodipodi="http://sodipodi.sourceforge.net/DTD/sodipodi-0.dtd"
   xmlns="http://www.w3.org/2000/svg"
   xmlns:svg="http://www.w3.org/2000/svg">
  <defs
     id="defs1">
    <clipPath
       clipPathUnits="userSpaceOnUse"
       id="clipPath2">
      <path
         d="M 0,0 H 1745.8334 V 976.22931 H 0 Z"
         transform="scale(0.33393795)"
         clip-rule="evenodd"
         id="path2" />
    </clipPath>
    <clipPath
       clipPathUnits="userSpaceOnUse"
       id="clipPath4">
      <path
         d="M 0,0 H 1745.8334 V 976.22931 H 0 Z"
         transform="matrix(0.33393795,0,0,0.33393795,-0.5,-0.5)"
         clip-rule="evenodd"
         id="path4" />
    </clipPath>
    <clipPath
       clipPathUnits="userSpaceOnUse"
       id="clipPath5">
      <path
         d="M 0,0 H 1745.8334 V 976.22931 H 0 Z"
         transform="matrix(0.33393459,0,0,0.33393459,-120.95313,-22)"
         clip-rule="evenodd"
         id="path5" />
    </clipPath>
    <clipPath
       clipPathUnits="userSpaceOnUse"
       id="clipPath7">
      <path
         d="M 0,0 H 1745.8334 V 976.22931 H 0 Z"
         transform="matrix(0.33393795,0,0,0.33393795,-0.5,-0.5)"
         clip-rule="evenodd"
         id="path7" />
    </clipPath>
    <clipPath
       clipPathUnits="userSpaceOnUse"
       id="clipPath8">
      <path
         d="M 0,0 H 1745.8334 V 976.22931 H 0 Z"
         transform="matrix(0.33393459,0,0,0.33393459,-71.453125,-57)"
         clip-rule="evenodd"
         id="path8" />
    </clipPath>
    <clipPath
       clipPathUnits="userSpaceOnUse"
       id="clipPath10">
      <path
         d="M 0,0 H 1745.8334 V 976.22931 H 0 Z"
         transform="matrix(0.33393795,0,0,0.33393795,-0.5,-0.5)"
         clip-rule="evenodd"
         id="path10" />
    </clipPath>
    <clipPath
       clipPathUnits="userSpaceOnUse"
       id="clipPath11">
      <path
         d="M 0,0 H 1745.8334 V 976.22931 H 0 Z"
         transform="matrix(0.33393459,0,0,0.33393459,-7.59375,-98.999999)"
         clip-rule="evenodd"
         id="path11" />
    </clipPath>
    <clipPath
       clipPathUnits="userSpaceOnUse"
       id="clipPath13">
      <path
         d="M 0,0 H 1745.8334 V 976.22931 H 0 Z"
         transform="matrix(-0.33393795,0,0,-0.33393795,702.50002,100.50001)"
         clip-rule="evenodd"
         id="path13" />
    </clipPath>
    <clipPath
       clipPathUnits="userSpaceOnUse"
       id="clipPath14">
      <path
         d="M 0,0 H 1745.8334 V 976.22931 H 0 Z"
         transform="matrix(0.33393459,0,0,0.33393459,-363,-47)"
         clip-rule="evenodd"
         id="path14" />
    </clipPath>
    <clipPath
       clipPathUnits="userSpaceOnUse"
       id="clipPath15">
      <path
         d="M 0,0 H 1745.8334 V 976.22931 H 0 Z"
         transform="matrix(0.33393459,0,0,0.33393459,-363,-61)"
         clip-rule="evenodd"
         id="path15" />
    </clipPath>
    <clipPath
       clipPathUnits="userSpaceOnUse"
       id="clipPath17">
      <path
         d="M 0,0 H 1745.8334 V 976.22931 H 0 Z"
         transform="matrix(-0.33393795,0,0,-0.33393795,702.50002,184.5)"
         clip-rule="evenodd"
         id="path17" />
    </clipPath>
    <clipPath
       clipPathUnits="userSpaceOnUse"
       id="clipPath18">
      <path
         d="M 0,0 H 1745.8334 V 976.22931 H 0 Z"
         transform="matrix(0.33393459,0,0,0.33393459,-363,-89)"
         clip-rule="evenodd"
         id="path18" />
    </clipPath>
    <clipPath
       clipPathUnits="userSpaceOnUse"
       id="clipPath19">
      <path
         d="M 0,0 H 1745.8334 V 976.22931 H 0 Z"
         transform="matrix(0.33393459,0,0,0.33393459,-363,-103)"
         clip-rule="evenodd"
         id="path19" />
    </clipPath>
    <clipPath
       clipPathUnits="userSpaceOnUse"
       id="clipPath21">
      <path
         d="M 0,0 H 1745.8334 V 976.22931 H 0 Z"
         transform="matrix(0.33393795,0,0,0.33393795,-0.5,-0.5)"
         clip-rule="evenodd"
         id="path21" />
    </clipPath>
    <clipPath
       clipPathUnits="userSpaceOnUse"
       id="clipPath22">
      <path
         d="M 0,0 H 1745.8334 V 976.22931 H 0 Z"
         transform="matrix(0.33393459,0,0,0.33393459,-51.4375,-141)"
         clip-rule="evenodd"
         id="path22" />
    </clipPath>
    <clipPath
       clipPathUnits="userSpaceOnUse"
       id="clipPath24">
      <path
         d="M 0,0 H 1745.8334 V 976.22931 H 0 Z"
         transform="matrix(-0.33393795,0,0,-0.33393795,702.50002,268.50001)"
         clip-rule="evenodd"
         id="path24" />
    </clipPath>
    <clipPath
       clipPathUnits="userSpaceOnUse"
       id="clipPath25">
      <path
         d="M 0,0 H 1745.8334 V 976.22931 H 0 Z"
         transform="matrix(0.33393459,0,0,0.33393459,-363,-131)"
         clip-rule="evenodd"
         id="path25" />
    </clipPath>
    <clipPath
       clipPathUnits="userSpaceOnUse"
       id="clipPath26">
      <path
         d="M 0,0 H 1745.8334 V 976.22931 H 0 Z"
         transform="matrix(0.33393459,0,0,0.33393459,-363,-145)"
         clip-rule="evenodd"
         id="path26" />
    </clipPath>
    <clipPath
       clipPathUnits="userSpaceOnUse"
       id="clipPath28">
      <path
         d="M 0,0 H 1745.8334 V 976.22931 H 0 Z"
         transform="matrix(0.33393795,0,0,0.33393795,-0.5,-0.5)"
         clip-rule="evenodd"
         id="path28" />
    </clipPath>
    <clipPath
       clipPathUnits="userSpaceOnUse"
       id="clipPath29">
      <path
         d="M 0,0 H 1745.8334 V 976.22931 H 0 Z"
         transform="matrix(0.33393459,0,0,0.33393459,-6.921875,-182.99999)"
         clip-rule="evenodd"
         id="path29" />
    </clipPath>
    <clipPath
       clipPathUnits="userSpaceOnUse"
       id="clipPath31">
      <path
         d="M 0,0 H 1745.8334 V 976.22931 H 0 Z"
         transform="matrix(-0.33393795,0,0,-0.33393795,702.50002,352.5)"
         clip-rule="evenodd"
         id="path31" />
    </clipPath>
    <clipPath
       clipPathUnits="userSpaceOnUse"
       id="clipPath32">
      <path
         d="M 0,0 H 1745.8334 V 976.22931 H 0 Z"
         transform="matrix(0.33393459,0,0,0.33393459,-363,-167)"
         clip-rule="evenodd"
         id="path32" />
    </clipPath>
    <clipPath
       clipPathUnits="userSpaceOnUse"
       id="clipPath33">
      <path
         d="M 0,0 H 1745.8334 V 976.22931 H 0 Z"
         transform="matrix(0.33393459,0,0,0.33393459,-363,-180)"
         clip-rule="evenodd"
         id="path33" />
    </clipPath>
    <clipPath
       clipPathUnits="userSpaceOnUse"
       id="clipPath34">
      <path
         d="M 0,0 H 1745.8334 V 976.22931 H 0 Z"
         transform="matrix(0.33393459,0,0,0.33393459,-363,-193)"
         clip-rule="evenodd"
         id="path34" />
    </clipPath>
    <clipPath
       clipPathUnits="userSpaceOnUse"
       id="clipPath36">
      <path
         d="M 0,0 H 1745.8334 V 976.22931 H 0 Z"
         transform="matrix(0.33393795,0,0,0.33393795,-0.5,-0.5)"
         clip-rule="evenodd"
         id="path36" />
    </clipPath>
    <clipPath
       clipPathUnits="userSpaceOnUse"
       id="clipPath37">
      <path
         d="M 0,0 H 1745.8334 V 976.22931 H 0 Z"
         transform="matrix(0.33393459,0,0,0.33393459,-39.9375,-225)"
         clip-rule="evenodd"
         id="path37" />
    </clipPath>
    <clipPath
       clipPathUnits="userSpaceOnUse"
       id="clipPath39">
      <path
         d="M 0,0 H 1745.8334 V 976.22931 H 0 Z"
         transform="matrix(-0.33393795,0,0,-0.33393795,702.50002,436.49998)"
         clip-rule="evenodd"
         id="path39" />
    </clipPath>
    <clipPath
       clipPathUnits="userSpaceOnUse"
       id="clipPath40">
      <path
         d="M 0,0 H 1745.8334 V 976.22931 H 0 Z"
         transform="matrix(0.33393459,0,0,0.33393459,-363,-215)"
         clip-rule="evenodd"
         id="path40" />
    </clipPath>
    <clipPath
       clipPathUnits="userSpaceOnUse"
       id="clipPath41">
      <path
         d="M 0,0 H 1745.8334 V 976.22931 H 0 Z"
         transform="matrix(0.33393459,0,0,0.33393459,-363,-229)"
         clip-rule="evenodd"
         id="path41" />
    </clipPath>
    <clipPath
       clipPathUnits="userSpaceOnUse"
       id="clipPath43">
      <path
         d="M 0,0 H 1745.8334 V 976.22931 H 0 Z"
         transform="matrix(0.33393795,0,0,0.33393795,-0.5,-0.5)"
         clip-rule="evenodd"
         id="path43" />
    </clipPath>
    <clipPath
       clipPathUnits="userSpaceOnUse"
       id="clipPath44">
      <path
         d="M 0,0 H 1745.8334 V 976.22931 H 0 Z"
         transform="matrix(0.33393459,0,0,0.33393459,-102.48437,-267)"
         clip-rule="evenodd"
         id="path44" />
    </clipPath>
    <clipPath
       clipPathUnits="userSpaceOnUse"
       id="clipPath46">
      <path
         d="M 0,0 H 1745.8334 V 976.22931 H 0 Z"
         transform="matrix(-0.33393795,0,0,-0.33393795,702.50002,520.50001)"
         clip-rule="evenodd"
         id="path46" />
    </clipPath>
    <clipPath
       clipPathUnits="userSpaceOnUse"
       id="clipPath47">
      <path
         d="M 0,0 H 1745.8334 V 976.22931 H 0 Z"
         transform="matrix(0.33393459,0,0,0.33393459,-363,-257)"
         clip-rule="evenodd"
         id="path47" />
    </clipPath>
    <clipPath
       clipPathUnits="userSpaceOnUse"
       id="clipPath48">
      <path
         d="M 0,0 H 1745.8334 V 976.22931 H 0 Z"
         transform="matrix(0.33393459,0,0,0.33393459,-363,-271)"
         clip-rule="evenodd"
         id="path48" />
    </clipPath>
    <clipPath
       clipPathUnits="userSpaceOnUse"
       id="clipPath50">
      <path
         d="M 0,0 H 1745.8334 V 976.22931 H 0 Z"
         transform="matrix(0.33393795,0,0,0.33393795,-0.5,-0.5)"
         clip-rule="evenodd"
         id="path50" />
    </clipPath>
    <clipPath
       clipPathUnits="userSpaceOnUse"
       id="clipPath51">
      <path
         d="M 0,0 H 1745.8334 V 976.22931 H 0 Z"
         transform="matrix(0.33393459,0,0,0.33393459,-102.98437,-309)"
         clip-rule="evenodd"
         id="path51" />
    </clipPath>
    <clipPath
       clipPathUnits="userSpaceOnUse"
       id="clipPath53">
      <path
         d="M 0,0 H 1745.8334 V 976.22931 H 0 Z"
         transform="matrix(-0.33393795,0,0,-0.33393795,702.50002,604.50002)"
         clip-rule="evenodd"
         id="path53" />
    </clipPath>
    <clipPath
       clipPathUnits="userSpaceOnUse"
       id="clipPath54">
      <path
         d="M 0,0 H 1745.8334 V 976.22931 H 0 Z"
         transform="matrix(0.33393459,0,0,0.33393459,-363,-299)"
         clip-rule="evenodd"
         id="path54" />
    </clipPath>
    <clipPath
       clipPathUnits="userSpaceOnUse"
       id="clipPath55">
      <path
         d="M 0,0 H 1745.8334 V 976.22931 H 0 Z"
         transform="matrix(0.33393459,0,0,0.33393459,-363,-313)"
         clip-rule="evenodd"
         id="path55" />
    </clipPath>
  </defs>
  <sodipodi:namedview
     id="namedview1"
     pagecolor="#ffffff"
     bordercolor="#000000"
     borderopacity="0.25"
     inkscape:showpageshadow="2"
     inkscape:pageopacity="0.0"
     inkscape:pagecheckerboard="0"
     inkscape:deskcolor="#d1d1d1">
    <inkscape:page
       x="0"
       y="0"
       inkscape:label="1"
       id="page1"
       width="558.71997"
       height="313.28"
       margin="0"
       bleed="0" />
  </sodipodi:namedview>
  <g
     id="g1"
     inkscape:groupmode="layer"
     inkscape:label="1">
    <path
       id="path1"
       d="M 0,0 H 583 V 326 H 0 Z"
       style="fill:#ffffff;fill-opacity:1;fill-rule:nonzero;stroke:none"
       transform="scale(0.95826182)"
       clip-path="url(#clipPath2)" />
    <path
       id="path3"
       d="M 1,1 H 331 V 29 H 1 Z"
       style="fill:#dae8fc;fill-opacity:1;fill-rule:nonzero;stroke:#6c8ebf;stroke-width:1;stroke-linecap:butt;stroke-linejoin:miter;stroke-miterlimit:10;stroke-dasharray:none;stroke-opacity:1"
       transform="matrix(0.95826182,0,0,0.95826182,0.47913091,0.47913091)"
       clip-path="url(#clipPath4)" />
    <text
       id="text4"
       xml:space="preserve"
       transform="matrix(0.95827145,0,0,0.95827145,115.90593,21.081972)"
       clip-path="url(#clipPath5)"><tspan
         style="font-variant:normal;font-weight:700;font-size:18px;font-family:Helvetica;writing-mode:lr-tb;fill:#000000;fill-opacity:1;fill-rule:nonzero;stroke:none"
         x="0 10.010742 15.011719 25.022461 35.033203 45.043945 50.044922 63.043945 73.054688 83.06543"
         y="0"
         sodipodi:role="line"
         id="tspan4">class User</tspan></text>
    <path
       id="path6"
       d="M 1,29 H 331 V 71 H 1 Z"
       style="fill:#ffffff;fill-opacity:1;fill-rule:nonzero;stroke:#000000;stroke-width:1;stroke-linecap:butt;stroke-linejoin:miter;stroke-miterlimit:10;stroke-dasharray:none;stroke-opacity:1"
       transform="matrix(0.95826182,0,0,0.95826182,0.47913091,0.47913091)"
       clip-path="url(#clipPath7)" />
    <text
       id="text7"
       xml:space="preserve"
       transform="matrix(0.95827145,0,0,0.95827145,68.47149,54.621473)"
       clip-path="url(#clipPath8)"><tspan
         style="font-variant:normal;font-weight:normal;font-size:18px;font-family:Helvetica;writing-mode:lr-tb;fill:#000000;fill-opacity:1;fill-rule:nonzero;stroke:none"
         x="0 10.010742 16.004883 20.003906 29.003906 39.014648 44.015625 54.026367 59.027344 69.038086 79.048828 84.049805 94.060547 99.061523 104.0625 117.06152 126.06152 136.07227 142.06641 154.07227 160.06641 170.07715 180.08789"
         y="0"
         sodipodi:role="line"
         id="tspan7">private data: UserProps</tspan></text>
    <path
       id="path9"
       d="m 1,71 h 330 v 42 H 1 Z"
       style="fill:#ffffff;fill-opacity:1;fill-rule:nonzero;stroke:#000000;stroke-width:1;stroke-linecap:butt;stroke-linejoin:miter;stroke-miterlimit:10;stroke-dasharray:none;stroke-opacity:1"
       transform="matrix(0.95826182,0,0,0.95826182,0.47913091,0.47913091)"
       clip-path="url(#clipPath10)" />
    <text
       id="text10"
       xml:space="preserve"
       transform="matrix(0.95827145,0,0,0.95827145,7.2768738,94.868873)"
       clip-path="url(#clipPath11)"><tspan
         style="font-variant:normal;font-weight:normal;font-size:18px;font-family:Helvetica;writing-mode:lr-tb;fill:#000000;fill-opacity:1;fill-rule:nonzero;stroke:none"
         x="0 10.010742 20.021484 25.022461 31.016602 41.027344 47.021484 57.032227 67.042969 80.041992 90.052734 105.04688 115.05762 120.05859 125.05957 134.05957 139.06055 145.05469 149.05371 159.06445 169.0752 175.06934 180.07031 185.07129 191.06543 200.06543 205.06641 211.06055 215.05957 225.07031 235.08105 240.08203 244.75781 249.75879 259.76953 269.78027 284.77441 294.78516 304.7959 310.79004"
         y="0"
         sodipodi:role="line"
         id="tspan10">get(propName: string): (string | number)</tspan></text>
    <path
       id="path12"
       d="m 361,29 h -5 c -3.33334,0 -5,3.333332 -5,10 v 5.5 c 0,3.666668 -1.66666,5.5 -5,5.5 h -2.5 c -1.66666,0 -0.83334,0 2.5,0 h 2.5 c 1.66666,0 2.5,3.333332 2.5,10 v 5.5 c 0,3.666664 1.66666,5.5 5,5.5 h 5"
       style="fill:none;stroke:#000000;stroke-width:1;stroke-linecap:butt;stroke-linejoin:miter;stroke-miterlimit:10;stroke-dasharray:none;stroke-opacity:1"
       transform="matrix(-0.95826182,0,0,-0.95826182,673.17895,96.305318)"
       clip-path="url(#clipPath13)" />
    <text
       id="text13"
       xml:space="preserve"
       transform="matrix(0.95827145,0,0,0.95827145,347.85254,45.038758)"
       clip-path="url(#clipPath14)"><tspan
         style="font-variant:normal;font-weight:normal;font-size:11px;font-family:Helvetica;writing-mode:lr-tb;fill:#000000;fill-opacity:1;fill-rule:nonzero;stroke:none"
         x="0 8.5561523 14.673828 17.117676 23.235352 28.735352 31.791504 34.847656 37.903809 44.021484 47.077637 52.577637 55.633789 61.751465 65.414551 71.532227 74.588379 77.032227 83.149902 86.206055 92.32373 95.986816 105.1499 111.26758 114.32373 116.76758 122.88525 129.00293 132.05908 138.17676 144.29443 150.41211 156.52979 159.58594 162.64209 168.75977 171.81592 177.93359 184.05127 187.71436 190.77051 193.21436 198.71436 204.83203 207.27588 213.39355"
         y="0"
         sodipodi:role="line"
         id="tspan13">Object to store information about a particular</tspan></text>
    <text
       id="text14"
       xml:space="preserve"
       transform="matrix(0.95827145,0,0,0.95827145,347.85254,58.454558)"
       clip-path="url(#clipPath15)"><tspan
         style="font-variant:normal;font-weight:normal;font-size:11px;font-family:Helvetica;writing-mode:lr-tb;fill:#000000;fill-opacity:1;fill-rule:nonzero;stroke:none"
         x="0 6.1176758 11.617676 17.735352 21.398438 24.45459 28.117676 34.235352 40.353027 49.516113 55.633789 58.689941 61.746094 67.86377 73.981445 80.099121"
         y="0"
         sodipodi:role="line"
         id="tspan14">user (name, age)</tspan></text>
    <path
       id="path16"
       d="m 361,71 h -5 c -3.33334,0 -5,3.333336 -5,10 v 5.5 c 0,3.666664 -1.66666,5.5 -5,5.5 h -2.5 c -1.66666,0 -0.83334,0 2.5,0 h 2.5 c 1.66666,0 2.5,3.333336 2.5,10 v 5.5 c 0,3.66666 1.66666,5.5 5,5.5 h 5"
       style="fill:none;stroke:#000000;stroke-width:1;stroke-linecap:butt;stroke-linejoin:miter;stroke-miterlimit:10;stroke-dasharray:none;stroke-opacity:1"
       transform="matrix(-0.95826182,0,0,-0.95826182,673.17895,176.79931)"
       clip-path="url(#clipPath17)" />
    <text
       id="text17"
       xml:space="preserve"
       transform="matrix(0.95827145,0,0,0.95827145,347.85254,85.286159)"
       clip-path="url(#clipPath18)"><tspan
         style="font-variant:normal;font-weight:normal;font-size:11px;font-family:Helvetica;writing-mode:lr-tb;fill:#000000;fill-opacity:1;fill-rule:nonzero;stroke:none"
         x="0 8.5561523 14.673828 17.72998 23.22998 26.286133 32.403809 35.459961 40.959961 43.403809 49.521484 55.63916 58.083008 64.200684 67.256836 73.374512 75.818359 81.936035 87.436035 93.553711 96.609863 102.72754 105.78369 108.83984 111.28369 117.40137 120.45752 126.5752 129.63135 135.74902 141.8667 147.98438 154.10205 157.1582 160.21436 163.27051 169.38818 171.83203 177.33203 180.38818 186.50586 192.00586 198.12354"
         y="0"
         sodipodi:role="line"
         id="tspan17">Gets a single piece of info about this user</tspan></text>
    <text
       id="text18"
       xml:space="preserve"
       transform="matrix(0.95827145,0,0,0.95827145,347.85254,98.701959)"
       clip-path="url(#clipPath19)"><tspan
         style="font-variant:normal;font-weight:normal;font-size:11px;font-family:Helvetica;writing-mode:lr-tb;fill:#000000;fill-opacity:1;fill-rule:nonzero;stroke:none"
         x="0 3.6630859 9.7807617 15.898438 25.061523 31.179199 34.235352 37.291504 43.40918 49.526855 55.644531"
         y="0"
         sodipodi:role="line"
         id="tspan18">(name, age)</tspan></text>
    <path
       id="path20"
       d="m 1,113 h 330 v 42 H 1 Z"
       style="fill:#ffffff;fill-opacity:1;fill-rule:nonzero;stroke:#000000;stroke-width:1;stroke-linecap:butt;stroke-linejoin:miter;stroke-miterlimit:10;stroke-dasharray:none;stroke-opacity:1"
       transform="matrix(0.95826182,0,0,0.95826182,0.47913091,0.47913091)"
       clip-path="url(#clipPath21)" />
    <text
       id="text21"
       xml:space="preserve"
       transform="matrix(0.95827145,0,0,0.95827145,49.291088,135.11627)"
       clip-path="url(#clipPath22)"><tspan
         style="font-variant:normal;font-weight:normal;font-size:18px;font-family:Helvetica;writing-mode:lr-tb;fill:#000000;fill-opacity:1;fill-rule:nonzero;stroke:none"
         x="0 9 19.010742 24.011719 30.005859 40.016602 50.027344 60.038086 70.048828 75.049805 85.060547 90.061523 95.0625 108.06152 117.06152 127.07227 133.06641 145.07227 151.06641 161.07715 171.08789 180.08789 186.08203 191.08301 196.08398 205.08398 215.09473 219.09375"
         y="0"
         sodipodi:role="line"
         id="tspan21">set(update: UserProps): void</tspan></text>
    <path
       id="path23"
       d="m 361,113 h -5 c -3.33334,0 -5,3.33334 -5,10 v 5.5 c 0,3.66667 -1.66666,5.5 -5,5.5 h -2.5 c -1.66666,0 -0.83334,0 2.5,0 h 2.5 c 1.66666,0 2.5,3.33333 2.5,10 v 5.5 c 0,3.66667 1.66666,5.5 5,5.5 h 5"
       style="fill:none;stroke:#000000;stroke-width:1;stroke-linecap:butt;stroke-linejoin:miter;stroke-miterlimit:10;stroke-dasharray:none;stroke-opacity:1"
       transform="matrix(-0.95826182,0,0,-0.95826182,673.17895,257.29331)"
       clip-path="url(#clipPath24)" />
    <text
       id="text24"
       xml:space="preserve"
       transform="matrix(0.95827145,0,0,0.95827145,347.85254,125.53356)"
       clip-path="url(#clipPath25)"><tspan
         style="font-variant:normal;font-weight:normal;font-size:11px;font-family:Helvetica;writing-mode:lr-tb;fill:#000000;fill-opacity:1;fill-rule:nonzero;stroke:none"
         x="0 7.9438477 14.061523 20.179199 26.296875 32.414551 38.532227 44.032227 47.088379 49.532227 55.649902 58.706055 64.82373 68.486816 77.649902 83.767578 86.82373 89.267578 95.385254 101.50293 104.55908 110.67676 116.79443 122.91211 129.02979 132.08594 135.14209 138.19824 144.31592 146.75977 152.25977 155.31592 161.43359 166.93359 173.05127 176.71436 179.77051 183.43359 189.55127 195.66895 204.83203 210.94971"
         y="0"
         sodipodi:role="line"
         id="tspan24">Changes information about this user (name,</tspan></text>
    <text
       id="text25"
       xml:space="preserve"
       transform="matrix(0.95827145,0,0,0.95827145,347.85254,138.94936)"
       clip-path="url(#clipPath26)"><tspan
         style="font-variant:normal;font-weight:normal;font-size:11px;font-family:Helvetica;writing-mode:lr-tb;fill:#000000;fill-opacity:1;fill-rule:nonzero;stroke:none"
         x="0 6.1176758 12.235352 18.353027"
         y="0"
         sodipodi:role="line"
         id="tspan25">age)</tspan></text>
    <path
       id="path27"
       d="m 1,155 h 330 v 42 H 1 Z"
       style="fill:#ffffff;fill-opacity:1;fill-rule:nonzero;stroke:#000000;stroke-width:1;stroke-linecap:butt;stroke-linejoin:miter;stroke-miterlimit:10;stroke-dasharray:none;stroke-opacity:1"
       transform="matrix(0.95826182,0,0,0.95826182,0.47913091,0.47913091)"
       clip-path="url(#clipPath28)" />
    <text
       id="text28"
       xml:space="preserve"
       transform="matrix(0.95827145,0,0,0.95827145,6.6330352,175.36367)"
       clip-path="url(#clipPath29)"><tspan
         style="font-variant:normal;font-weight:normal;font-size:18px;font-family:Helvetica;writing-mode:lr-tb;fill:#000000;fill-opacity:1;fill-rule:nonzero;stroke:none"
         x="0 10.010742 20.021484 26.015625 36.026367 45.026367 55.037109 65.047852 70.048828 83.047852 93.058594 108.05273 118.06348 123.06445 128.06543 137.06543 142.06641 148.06055 152.05957 162.07031 172.08105 177.08203 182.08301 191.08301 201.09375 205.09277 209.0918 219.10254 229.11328 238.11328 247.11328 252.11426 257.11523 263.10938 269.10352 274.10449 284.61621 295.12793 300.12891 306.14062 312.15234"
         y="0"
         sodipodi:role="line"
         id="tspan28">on(eventName: string, callback: () =&gt; {})</tspan></text>
    <path
       id="path30"
       d="m 361,155 h -5 c -3.33334,0 -5,3.33333 -5,10 v 5.5 c 0,3.66667 -1.66666,5.5 -5,5.5 h -2.5 c -1.66666,0 -0.83334,0 2.5,0 h 2.5 c 1.66666,0 2.5,3.33333 2.5,10 v 5.5 c 0,3.66667 1.66666,5.5 5,5.5 h 5"
       style="fill:none;stroke:#000000;stroke-width:1;stroke-linecap:butt;stroke-linejoin:miter;stroke-miterlimit:10;stroke-dasharray:none;stroke-opacity:1"
       transform="matrix(-0.95826182,0,0,-0.95826182,673.17895,337.78729)"
       clip-path="url(#clipPath31)" />
    <text
       id="text31"
       xml:space="preserve"
       transform="matrix(0.95827145,0,0,0.95827145,347.85254,160.03133)"
       clip-path="url(#clipPath32)"><tspan
         style="font-variant:normal;font-weight:normal;font-size:11px;font-family:Helvetica;writing-mode:lr-tb;fill:#000000;fill-opacity:1;fill-rule:nonzero;stroke:none"
         x="0 7.9438477 14.061523 20.179199 22.623047 28.123047 31.179199 37.296875 40.959961 46.459961 49.516113 55.633789 61.751465 64.807617 70.925293 76.425293 82.542969 88.660645 91.716797 94.772949 100.89062 107.0083 113.12598 119.24365 121.6875 127.80518 131.46826 134.52441 142.46826 144.91211 147.96826 154.08594 157.14209 160.19824 166.31592 168.75977 174.25977 177.31592 183.43359 189.55127 191.99512 198.11279 203.61279 206.66895"
         y="0"
         sodipodi:role="line"
         id="tspan31">Registers an event handler with this object,</tspan></text>
    <text
       id="text32"
       xml:space="preserve"
       transform="matrix(0.95827145,0,0,0.95827145,347.85254,172.48886)"
       clip-path="url(#clipPath33)"><tspan
         style="font-variant:normal;font-weight:normal;font-size:11px;font-family:Helvetica;writing-mode:lr-tb;fill:#000000;fill-opacity:1;fill-rule:nonzero;stroke:none"
         x="0 5.5 11.617676 14.673828 20.791504 23.847656 29.965332 36.083008 39.746094 42.802246 48.919922 55.037598 58.700684 61.756836 67.256836 70.312988 76.430664 79.486816 82.542969 85.599121 91.716797 97.834473 100.89062 107.0083 113.12598 119.24365 122.2998 127.7998 133.91748 140.03516 147.979 151.03516 158.979 165.09668 171.21436"
         y="0"
         sodipodi:role="line"
         id="tspan32">so other parts of the app know when</tspan></text>
    <text
       id="text33"
       xml:space="preserve"
       transform="matrix(0.95827145,0,0,0.95827145,347.85254,184.94639)"
       clip-path="url(#clipPath34)"><tspan
         style="font-variant:normal;font-weight:normal;font-size:11px;font-family:Helvetica;writing-mode:lr-tb;fill:#000000;fill-opacity:1;fill-rule:nonzero;stroke:none"
         x="0 5.5 11.617676 20.780762 26.898438 29.95459 36.072266 38.516113 44.633789 50.751465 53.807617 59.307617 65.425293 71.542969 77.660645 83.77832 89.895996"
         y="0"
         sodipodi:role="line"
         id="tspan33">something changes</tspan></text>
    <path
       id="path35"
       d="m 1,197 h 330 v 42 H 1 Z"
       style="fill:#ffffff;fill-opacity:1;fill-rule:nonzero;stroke:#000000;stroke-width:1;stroke-linecap:butt;stroke-linejoin:miter;stroke-miterlimit:10;stroke-dasharray:none;stroke-opacity:1"
       transform="matrix(0.95826182,0,0,0.95826182,0.47913091,0.47913091)"
       clip-path="url(#clipPath36)" />
    <text
       id="text36"
       xml:space="preserve"
       transform="matrix(0.95827145,0,0,0.95827145,38.270966,215.61108)"
       clip-path="url(#clipPath37)"><tspan
         style="font-variant:normal;font-weight:normal;font-size:18px;font-family:Helvetica;writing-mode:lr-tb;fill:#000000;fill-opacity:1;fill-rule:nonzero;stroke:none"
         x="0 5.0009766 10.995117 14.994141 25.004883 35.015625 45.026367 51.020508 57.014648 67.025391 76.025391 86.036133 96.046875 101.04785 114.04688 124.05762 139.05176 149.0625 154.06348 159.06445 168.06445 173.06543 179.05957 183.05859 193.06934 203.08008 209.07422 214.0752 219.07617 228.07617 238.08691 242.08594"
         y="0"
         sodipodi:role="line"
         id="tspan36">trigger(eventName: string): void</tspan></text>
    <path
       id="path38"
       d="m 361,197 h -5 c -3.33334,0 -5,3.33333 -5,10 v 5.5 c 0,3.66667 -1.66666,5.5 -5,5.5 h -2.5 c -1.66666,0 -0.83334,0 2.5,0 h 2.5 c 1.66666,0 2.5,3.33333 2.5,10 v 5.5 c 0,3.66667 1.66666,5.5 5,5.5 h 5"
       style="fill:none;stroke:#000000;stroke-width:1;stroke-linecap:butt;stroke-linejoin:miter;stroke-miterlimit:10;stroke-dasharray:none;stroke-opacity:1"
       transform="matrix(-0.95826182,0,0,-0.95826182,673.17895,418.28127)"
       clip-path="url(#clipPath39)" />
    <text
       id="text39"
       xml:space="preserve"
       transform="matrix(0.95827145,0,0,0.95827145,347.85254,206.02836)"
       clip-path="url(#clipPath40)"><tspan
         style="font-variant:normal;font-weight:normal;font-size:11px;font-family:Helvetica;writing-mode:lr-tb;fill:#000000;fill-opacity:1;fill-rule:nonzero;stroke:none"
         x="0 6.3164062 9.9794922 12.42334 18.541016 24.658691 30.776367 34.439453 39.939453 42.995605 49.113281 55.230957 58.287109 64.404785 69.904785 76.022461 82.140137 85.196289 88.252441 91.308594 97.42627 100.48242 103.53857 109.65625 112.1001 114.54395 117.6001 123.71777 126.77393 132.8916 139.00928 142.67236 145.72852 151.84619 157.96387 161.62695 164.68311 170.18311 173.23926 179.35693 182.41309 185.46924 188.52539 194.64307"
         y="0"
         sodipodi:role="line"
         id="tspan39">Triggers an event to tell other parts of the</tspan></text>
    <text
       id="text40"
       xml:space="preserve"
       transform="matrix(0.95827145,0,0,0.95827145,347.85254,219.44416)"
       clip-path="url(#clipPath41)"><tspan
         style="font-variant:normal;font-weight:normal;font-size:11px;font-family:Helvetica;writing-mode:lr-tb;fill:#000000;fill-opacity:1;fill-rule:nonzero;stroke:none"
         x="0 6.1176758 12.235352 18.353027 21.40918 24.465332 30.583008 36.700684 39.756836 42.812988 48.312988 54.430664 63.59375 69.711426 72.767578 78.885254 81.329102 87.446777 93.564453 96.620605 102.73828 108.85596 114.35596 117.41211 122.91211 129.02979 135.14746 141.26514 147.38281 153.50049"
         y="0"
         sodipodi:role="line"
         id="tspan40">app that something has changed</tspan></text>
    <path
       id="path42"
       d="m 1,239 h 330 v 42 H 1 Z"
       style="fill:#ffffff;fill-opacity:1;fill-rule:nonzero;stroke:#000000;stroke-width:1;stroke-linecap:butt;stroke-linejoin:miter;stroke-miterlimit:10;stroke-dasharray:none;stroke-opacity:1"
       transform="matrix(0.95826182,0,0,0.95826182,0.47913091,0.47913091)"
       clip-path="url(#clipPath43)" />
    <text
       id="text43"
       xml:space="preserve"
       transform="matrix(0.95827145,0,0,0.95827145,98.20785,255.85848)"
       clip-path="url(#clipPath44)"><tspan
         style="font-variant:normal;font-weight:normal;font-size:18px;font-family:Helvetica;writing-mode:lr-tb;fill:#000000;fill-opacity:1;fill-rule:nonzero;stroke:none"
         x="0 5.0009766 15.011719 20.012695 29.012695 39.023438 45.017578 51.011719 56.012695 61.013672 73.019531 79.013672 89.024414 104.01855 108.01758 117.01758"
         y="0"
         sodipodi:role="line"
         id="tspan43">fetch(): Promise</tspan></text>
    <path
       id="path45"
       d="m 361,239 h -5 c -3.33334,0 -5,3.33333 -5,10 v 5.5 c 0,3.66666 -1.66666,5.5 -5,5.5 h -2.5 c -1.66666,0 -0.83334,0 2.5,0 h 2.5 c 1.66666,0 2.5,3.33334 2.5,10 v 5.5 c 0,3.66666 1.66666,5.5 5,5.5 h 5"
       style="fill:none;stroke:#000000;stroke-width:1;stroke-linecap:butt;stroke-linejoin:miter;stroke-miterlimit:10;stroke-dasharray:none;stroke-opacity:1"
       transform="matrix(-0.95826182,0,0,-0.95826182,673.17895,498.77529)"
       clip-path="url(#clipPath46)" />
    <text
       id="text46"
       xml:space="preserve"
       transform="matrix(0.95827145,0,0,0.95827145,347.85254,246.27576)"
       clip-path="url(#clipPath47)"><tspan
         style="font-variant:normal;font-weight:normal;font-size:11px;font-family:Helvetica;writing-mode:lr-tb;fill:#000000;fill-opacity:1;fill-rule:nonzero;stroke:none"
         x="0 6.7192383 12.836914 15.893066 21.393066 27.510742 33.628418 39.128418 42.18457 47.68457 53.802246 62.965332 69.083008 72.13916 78.256836 84.374512 87.430664 93.54834 96.604492 99.660645 103.32373 109.44141 118.60449 121.66064 124.7168 130.83447 136.95215 140.0083 145.5083 151.62598 155.28906 160.78906 166.90674 170.56982 173.62598 179.74365 185.86133 191.979 198.09668 201.15283 204.20898"
         y="0"
         sodipodi:role="line"
         id="tspan46">Fetches some data from the server about a</tspan></text>
    <text
       id="text47"
       xml:space="preserve"
       transform="matrix(0.95827145,0,0,0.95827145,347.85254,259.69156)"
       clip-path="url(#clipPath48)"><tspan
         style="font-variant:normal;font-weight:normal;font-size:11px;font-family:Helvetica;writing-mode:lr-tb;fill:#000000;fill-opacity:1;fill-rule:nonzero;stroke:none"
         x="0 6.1176758 12.235352 15.898438 18.95459 21.398438 26.898438 33.016113 35.459961 41.577637 45.240723 48.296875 54.414551 59.914551 66.032227"
         y="0"
         sodipodi:role="line"
         id="tspan47">particular user</tspan></text>
    <path
       id="path49"
       d="m 1,281 h 330 v 42 H 1 Z"
       style="fill:#ffffff;fill-opacity:1;fill-rule:nonzero;stroke:#000000;stroke-width:1;stroke-linecap:butt;stroke-linejoin:miter;stroke-miterlimit:10;stroke-dasharray:none;stroke-opacity:1"
       transform="matrix(0.95826182,0,0,0.95826182,0.47913091,0.47913091)"
       clip-path="url(#clipPath50)" />
    <text
       id="text50"
       xml:space="preserve"
       transform="matrix(0.95827145,0,0,0.95827145,98.686986,296.10588)"
       clip-path="url(#clipPath51)"><tspan
         style="font-variant:normal;font-weight:normal;font-size:18px;font-family:Helvetica;writing-mode:lr-tb;fill:#000000;fill-opacity:1;fill-rule:nonzero;stroke:none"
         x="0 9 19.010742 28.010742 38.021484 44.015625 50.009766 55.010742 60.011719 72.017578 78.011719 88.022461 103.0166 107.01562 116.01562"
         y="0"
         sodipodi:role="line"
         id="tspan50">save(): Promise</tspan></text>
    <path
       id="path52"
       d="m 361,281 h -5 c -3.33334,0 -5,3.33334 -5,10 v 5.5 c 0,3.66666 -1.66666,5.5 -5,5.5 h -2.5 c -1.66666,0 -0.83334,0 2.5,0 h 2.5 c 1.66666,0 2.5,3.33334 2.5,10 v 5.5 c 0,3.66666 1.66666,5.5 5,5.5 h 5"
       style="fill:none;stroke:#000000;stroke-width:1;stroke-linecap:butt;stroke-linejoin:miter;stroke-miterlimit:10;stroke-dasharray:none;stroke-opacity:1"
       transform="matrix(-0.95826182,0,0,-0.95826182,673.17895,579.26929)"
       clip-path="url(#clipPath53)" />
    <text
       id="text53"
       xml:space="preserve"
       transform="matrix(0.95827145,0,0,0.95827145,347.85254,286.52316)"
       clip-path="url(#clipPath54)"><tspan
         style="font-variant:normal;font-weight:normal;font-size:11px;font-family:Helvetica;writing-mode:lr-tb;fill:#000000;fill-opacity:1;fill-rule:nonzero;stroke:none"
         x="0 7.3369141 13.45459 18.95459 25.072266 30.572266 33.628418 39.128418 45.246094 54.40918 60.526855 63.583008 69.700684 75.818359 78.874512 84.992188 88.04834 94.166016 100.28369 106.40137 112.51904 115.5752 118.63135 121.6875 127.80518 130.24902 135.74902 138.80518 144.92285 150.42285 156.54053 160.20361 163.25977 166.31592 172.43359 175.48975 178.5459 184.66357"
         y="0"
         sodipodi:role="line"
         id="tspan53">Saves some data about this user to the</tspan></text>
    <text
       id="text54"
       xml:space="preserve"
       transform="matrix(0.95827145,0,0,0.95827145,347.85254,299.93896)"
       clip-path="url(#clipPath55)"><tspan
         style="font-variant:normal;font-weight:normal;font-size:11px;font-family:Helvetica;writing-mode:lr-tb;fill:#000000;fill-opacity:1;fill-rule:nonzero;stroke:none"
         x="0 5.5 11.617676 15.280762 20.780762 26.898438"
         y="0"
         sodipodi:role="line"
         id="tspan54">server</tspan></text>
  </g>
</svg>
