<?xml version="1.0" encoding="UTF-8" standalone="no"?>
<!-- Created with Inkscape (http://www.inkscape.org/) -->

<svg
   version="1.1"
   id="svg1"
   width="386.55997"
   height="110.72"
   viewBox="0 0 386.55997 110.72"
   sodipodi:docname="ts-6.pdf"
   xmlns:inkscape="http://www.inkscape.org/namespaces/inkscape"
   xmlns:sodipodi="http://sodipodi.sourceforge.net/DTD/sodipodi-0.dtd"
   xmlns="http://www.w3.org/2000/svg"
   xmlns:svg="http://www.w3.org/2000/svg">
  <defs
     id="defs1">
    <clipPath
       clipPathUnits="userSpaceOnUse"
       id="clipPath2">
      <path
         d="M 0,0 H 1208.3333 V 343.95624 H 0 Z"
         transform="scale(0.33434485)"
         clip-rule="evenodd"
         id="path2" />
    </clipPath>
    <clipPath
       clipPathUnits="userSpaceOnUse"
       id="clipPath4">
      <path
         d="M 0,0 H 1208.3333 V 340.96533 H 0 Z"
         transform="matrix(0.33434485,0,0,0.33434485,-0.49999999,-0.49999999)"
         clip-rule="evenodd"
         id="path4" />
    </clipPath>
    <clipPath
       clipPathUnits="userSpaceOnUse"
       id="clipPath6">
      <path
         d="M 0,0 H 1208.3333 V 340.96533 H 0 Z"
         transform="matrix(0.33434485,0,0,0.33434485,-0.49999999,-0.49999999)"
         clip-rule="evenodd"
         id="path6" />
    </clipPath>
    <clipPath
       clipPathUnits="userSpaceOnUse"
       id="clipPath8">
      <path
         d="M 0,0 H 1208.3333 V 340.96533 H 0 Z"
         transform="matrix(0.33434485,0,0,0.33434485,-0.49999999,-0.49999999)"
         clip-rule="evenodd"
         id="path8" />
    </clipPath>
    <clipPath
       clipPathUnits="userSpaceOnUse"
       id="clipPath10">
      <path
         d="M 0,0 H 1208.3333 V 340.96533 H 0 Z"
         transform="matrix(0.33434485,0,0,0.33434485,-0.49999999,-0.49999999)"
         clip-rule="evenodd"
         id="path10" />
    </clipPath>
    <clipPath
       clipPathUnits="userSpaceOnUse"
       id="clipPath11">
      <path
         d="M 0,0 H 1208.3333 V 340.96533 H 0 Z"
         transform="matrix(0.33434149,0,0,0.33434149,-65.875,-21)"
         clip-rule="evenodd"
         id="path11" />
    </clipPath>
    <clipPath
       clipPathUnits="userSpaceOnUse"
       id="clipPath13">
      <path
         d="M 0,0 H 1208.3333 V 340.96533 H 0 Z"
         transform="matrix(0.33434485,0,0,0.33434485,-0.49999999,-0.49999999)"
         clip-rule="evenodd"
         id="path13" />
    </clipPath>
    <clipPath
       clipPathUnits="userSpaceOnUse"
       id="clipPath14">
      <path
         d="M 0,0 H 1208.3333 V 340.96533 H 0 Z"
         transform="matrix(0.33434149,0,0,0.33434149,-62.25,-61)"
         clip-rule="evenodd"
         id="path14" />
    </clipPath>
    <clipPath
       clipPathUnits="userSpaceOnUse"
       id="clipPath16">
      <path
         d="M 0,0 H 1208.3333 V 340.96533 H 0 Z"
         transform="matrix(0.33434485,0,0,0.33434485,-0.49999999,-0.49999999)"
         clip-rule="evenodd"
         id="path16" />
    </clipPath>
    <clipPath
       clipPathUnits="userSpaceOnUse"
       id="clipPath17">
      <path
         d="M 0,0 H 1208.3333 V 340.96533 H 0 Z"
         transform="matrix(0.33434149,0,0,0.33434149,-46.359375,-101)"
         clip-rule="evenodd"
         id="path17" />
    </clipPath>
    <clipPath
       clipPathUnits="userSpaceOnUse"
       id="clipPath19">
      <path
         d="M 0,0 H 1208.3333 V 340.96533 H 0 Z"
         transform="matrix(0.33434485,0,0,0.33434485,-0.49999999,-0.49999999)"
         clip-rule="evenodd"
         id="path19" />
    </clipPath>
    <clipPath
       clipPathUnits="userSpaceOnUse"
       id="clipPath20">
      <path
         d="M 0,0 H 1208.3333 V 340.96533 H 0 Z"
         transform="matrix(0.33434149,0,0,0.33434149,-189.1875,-21)"
         clip-rule="evenodd"
         id="path20" />
    </clipPath>
    <clipPath
       clipPathUnits="userSpaceOnUse"
       id="clipPath22">
      <path
         d="M 0,0 H 1208.3333 V 340.96533 H 0 Z"
         transform="matrix(0.33434485,0,0,0.33434485,-0.49999999,-0.49999999)"
         clip-rule="evenodd"
         id="path22" />
    </clipPath>
    <clipPath
       clipPathUnits="userSpaceOnUse"
       id="clipPath23">
      <path
         d="M 0,0 H 1208.3333 V 340.96533 H 0 Z"
         transform="matrix(0.33434149,0,0,0.33434149,-216.0625,-21)"
         clip-rule="evenodd"
         id="path23" />
    </clipPath>
    <clipPath
       clipPathUnits="userSpaceOnUse"
       id="clipPath25">
      <path
         d="M 0,0 H 1208.3333 V 340.96533 H 0 Z"
         transform="matrix(0.33434485,0,0,0.33434485,-0.49999999,-0.49999999)"
         clip-rule="evenodd"
         id="path25" />
    </clipPath>
    <clipPath
       clipPathUnits="userSpaceOnUse"
       id="clipPath26">
      <path
         d="M 0,0 H 1208.3333 V 340.96533 H 0 Z"
         transform="matrix(0.33434149,0,0,0.33434149,-276.0625,-21)"
         clip-rule="evenodd"
         id="path26" />
    </clipPath>
    <clipPath
       clipPathUnits="userSpaceOnUse"
       id="clipPath28">
      <path
         d="M 0,0 H 1208.3333 V 340.96533 H 0 Z"
         transform="matrix(0.33434485,0,0,0.33434485,-0.49999999,-0.49999999)"
         clip-rule="evenodd"
         id="path28" />
    </clipPath>
    <clipPath
       clipPathUnits="userSpaceOnUse"
       id="clipPath29">
      <path
         d="M 0,0 H 1208.3333 V 340.96533 H 0 Z"
         transform="matrix(0.33434149,0,0,0.33434149,-349.18749,-21)"
         clip-rule="evenodd"
         id="path29" />
    </clipPath>
    <clipPath
       clipPathUnits="userSpaceOnUse"
       id="clipPath31">
      <path
         d="M 0,0 H 1208.3333 V 340.96533 H 0 Z"
         transform="matrix(-0.33434485,0,0,-0.33434485,782.49998,112.5)"
         clip-rule="evenodd"
         id="path31" />
    </clipPath>
    <clipPath
       clipPathUnits="userSpaceOnUse"
       id="clipPath33">
      <path
         d="M 0,0 H 1208.3333 V 340.96533 H 0 Z"
         transform="matrix(0.33434485,0,0,0.33434485,-0.49999999,-0.49999999)"
         clip-rule="evenodd"
         id="path33" />
    </clipPath>
    <clipPath
       clipPathUnits="userSpaceOnUse"
       id="clipPath35">
      <path
         d="M 0,0 H 1208.3333 V 340.96533 H 0 Z"
         transform="matrix(0.33434485,0,0,0.33434485,-0.49999999,-0.49999999)"
         clip-rule="evenodd"
         id="path35" />
    </clipPath>
    <clipPath
       clipPathUnits="userSpaceOnUse"
       id="clipPath37">
      <path
         d="M 0,0 H 1208.3333 V 340.96533 H 0 Z"
         transform="matrix(0.33434485,0,0,0.33434485,-0.49999999,-0.49999999)"
         clip-rule="evenodd"
         id="path37" />
    </clipPath>
    <clipPath
       clipPathUnits="userSpaceOnUse"
       id="clipPath38">
      <path
         d="M 0,0 H 1208.3333 V 340.96533 H 0 Z"
         transform="matrix(0.33434149,0,0,0.33434149,-189.1875,-61)"
         clip-rule="evenodd"
         id="path38" />
    </clipPath>
    <clipPath
       clipPathUnits="userSpaceOnUse"
       id="clipPath40">
      <path
         d="M 0,0 H 1208.3333 V 340.96533 H 0 Z"
         transform="matrix(0.33434485,0,0,0.33434485,-0.49999999,-0.49999999)"
         clip-rule="evenodd"
         id="path40" />
    </clipPath>
    <clipPath
       clipPathUnits="userSpaceOnUse"
       id="clipPath41">
      <path
         d="M 0,0 H 1208.3333 V 340.96533 H 0 Z"
         transform="matrix(0.33434149,0,0,0.33434149,-229.1875,-61)"
         clip-rule="evenodd"
         id="path41" />
    </clipPath>
    <clipPath
       clipPathUnits="userSpaceOnUse"
       id="clipPath43">
      <path
         d="M 0,0 H 1208.3333 V 340.96533 H 0 Z"
         transform="matrix(0.33434485,0,0,0.33434485,-0.49999999,-0.49999999)"
         clip-rule="evenodd"
         id="path43" />
    </clipPath>
    <clipPath
       clipPathUnits="userSpaceOnUse"
       id="clipPath45">
      <path
         d="M 0,0 H 1208.3333 V 340.96533 H 0 Z"
         transform="matrix(0.33434485,0,0,0.33434485,-0.49999999,-0.49999999)"
         clip-rule="evenodd"
         id="path45" />
    </clipPath>
    <clipPath
       clipPathUnits="userSpaceOnUse"
       id="clipPath47">
      <path
         d="M 0,0 H 1208.3333 V 340.96533 H 0 Z"
         transform="matrix(0.33434485,0,0,0.33434485,-0.49999999,-0.49999999)"
         clip-rule="evenodd"
         id="path47" />
    </clipPath>
    <clipPath
       clipPathUnits="userSpaceOnUse"
       id="clipPath48">
      <path
         d="M 0,0 H 1208.3333 V 340.96533 H 0 Z"
         transform="matrix(0.33434149,0,0,0.33434149,-189.1875,-101)"
         clip-rule="evenodd"
         id="path48" />
    </clipPath>
    <clipPath
       clipPathUnits="userSpaceOnUse"
       id="clipPath50">
      <path
         d="M 0,0 H 1208.3333 V 340.96533 H 0 Z"
         transform="matrix(0.33434485,0,0,0.33434485,-0.49999999,-0.49999999)"
         clip-rule="evenodd"
         id="path50" />
    </clipPath>
    <clipPath
       clipPathUnits="userSpaceOnUse"
       id="clipPath51">
      <path
         d="M 0,0 H 1208.3333 V 340.96533 H 0 Z"
         transform="matrix(0.33434149,0,0,0.33434149,-216.0625,-101)"
         clip-rule="evenodd"
         id="path51" />
    </clipPath>
    <clipPath
       clipPathUnits="userSpaceOnUse"
       id="clipPath53">
      <path
         d="M 0,0 H 1208.3333 V 340.96533 H 0 Z"
         transform="matrix(0.33434485,0,0,0.33434485,-0.49999999,-0.49999999)"
         clip-rule="evenodd"
         id="path53" />
    </clipPath>
    <clipPath
       clipPathUnits="userSpaceOnUse"
       id="clipPath54">
      <path
         d="M 0,0 H 1208.3333 V 340.96533 H 0 Z"
         transform="matrix(0.33434149,0,0,0.33434149,-289.1875,-101)"
         clip-rule="evenodd"
         id="path54" />
    </clipPath>
  </defs>
  <sodipodi:namedview
     id="namedview1"
     pagecolor="#ffffff"
     bordercolor="#000000"
     borderopacity="0.25"
     inkscape:showpageshadow="2"
     inkscape:pageopacity="0.0"
     inkscape:pagecheckerboard="0"
     inkscape:deskcolor="#d1d1d1">
    <inkscape:page
       x="0"
       y="0"
       inkscape:label="1"
       id="page1"
       width="386.55997"
       height="110.72"
       margin="0"
       bleed="0" />
  </sodipodi:namedview>
  <g
     id="g1"
     inkscape:groupmode="layer"
     inkscape:label="1">
    <path
       id="path1"
       d="M 0,0 H 404 V 115 H 0 Z"
       style="fill:#ffffff;fill-opacity:1;fill-rule:nonzero;stroke:none"
       transform="scale(0.95709561)"
       clip-path="url(#clipPath2)" />
    <path
       id="path3"
       d="M 21,1 H 16 C 12.666666,1 11,4.333333 11,11 V 46 C 11,52.666668 9.333334,56 6,56 H 3.5 C 1.8333333,56 2.6666665,56 6,56 h 2.5 c 1.666667,0 2.5,3.333332 2.5,10 v 35 c 0,6.66666 1.666666,10 5,10 h 5"
       style="fill:none;stroke:#000000;stroke-width:1;stroke-linecap:butt;stroke-linejoin:miter;stroke-miterlimit:10;stroke-dasharray:none;stroke-opacity:1"
       transform="matrix(0.95709561,0,0,0.95709561,0.4785478,0.4785478)"
       clip-path="url(#clipPath4)" />
    <path
       id="path5"
       d="m 131,16 h 20 13.63"
       style="fill:none;stroke:#000000;stroke-width:1;stroke-linecap:butt;stroke-linejoin:miter;stroke-miterlimit:10;stroke-dasharray:none;stroke-opacity:1"
       transform="matrix(0.95709561,0,0,0.95709561,0.4785478,0.4785478)"
       clip-path="url(#clipPath6)" />
    <path
       id="path7"
       d="m 169.88,16 -7,3.5 1.75,-3.5 -1.75,-3.5 z"
       style="fill:#000000;fill-opacity:1;fill-rule:nonzero;stroke:#000000;stroke-width:1;stroke-linecap:butt;stroke-linejoin:miter;stroke-miterlimit:10;stroke-dasharray:none;stroke-opacity:1"
       transform="matrix(0.95709561,0,0,0.95709561,0.4785478,0.4785478)"
       clip-path="url(#clipPath8)" />
    <path
       id="path9"
       d="M 31,1 H 131 V 31 H 31 Z"
       style="fill:#ffffff;fill-opacity:1;fill-rule:nonzero;stroke:#000000;stroke-width:1;stroke-linecap:butt;stroke-linejoin:miter;stroke-miterlimit:10;stroke-dasharray:none;stroke-opacity:1"
       transform="matrix(0.95709561,0,0,0.95709561,0.4785478,0.4785478)"
       clip-path="url(#clipPath10)" />
    <text
       id="text10"
       xml:space="preserve"
       transform="matrix(0.95710521,0,0,0.95710521,63.049306,20.099209)"
       clip-path="url(#clipPath11)"><tspan
         style="font-variant:normal;font-weight:normal;font-size:13px;font-family:Helvetica;writing-mode:lr-tb;fill:#000000;fill-opacity:1;fill-rule:nonzero;stroke:none"
         x="0 2.4819336 8.9819336 11.870117 14.758301 21.258301 27.758301"
         y="0"
         sodipodi:role="line"
         id="tspan10">'click'</tspan></text>
    <path
       id="path12"
       d="M 31,41 H 131 V 71 H 31 Z"
       style="fill:#ffffff;fill-opacity:1;fill-rule:nonzero;stroke:#000000;stroke-width:1;stroke-linecap:butt;stroke-linejoin:miter;stroke-miterlimit:10;stroke-dasharray:none;stroke-opacity:1"
       transform="matrix(0.95709561,0,0,0.95709561,0.4785478,0.4785478)"
       clip-path="url(#clipPath13)" />
    <text
       id="text13"
       xml:space="preserve"
       transform="matrix(0.95710521,0,0,0.95710521,59.579799,58.383418)"
       clip-path="url(#clipPath14)"><tspan
         style="font-variant:normal;font-weight:normal;font-size:13px;font-family:Helvetica;writing-mode:lr-tb;fill:#000000;fill-opacity:1;fill-rule:nonzero;stroke:none"
         x="0 2.4819336 9.7119141 16.941895 23.441895 30.671875 35.000977"
         y="0"
         sodipodi:role="line"
         id="tspan13">'hover'</tspan></text>
    <path
       id="path15"
       d="m 31,81 h 100 v 30 H 31 Z"
       style="fill:#ffffff;fill-opacity:1;fill-rule:nonzero;stroke:#000000;stroke-width:1;stroke-linecap:butt;stroke-linejoin:miter;stroke-miterlimit:10;stroke-dasharray:none;stroke-opacity:1"
       transform="matrix(0.95709561,0,0,0.95709561,0.4785478,0.4785478)"
       clip-path="url(#clipPath16)" />
    <text
       id="text16"
       xml:space="preserve"
       transform="matrix(0.95710521,0,0,0.95710521,44.370799,96.667626)"
       clip-path="url(#clipPath17)"><tspan
         style="font-variant:normal;font-weight:normal;font-size:13px;font-family:Helvetica;writing-mode:lr-tb;fill:#000000;fill-opacity:1;fill-rule:nonzero;stroke:none"
         x="0 2.4819336 13.311035 20.541016 27.770996 34.270996 41.500977 48.730957 55.230957 62.460938 66.790039"
         y="0"
         sodipodi:role="line"
         id="tspan16">'mouseover'</tspan></text>
    <path
       id="path18"
       d="m 171,1 h 40 v 30 h -40 z"
       style="fill:#ffffff;fill-opacity:1;fill-rule:nonzero;stroke:#000000;stroke-width:1;stroke-linecap:butt;stroke-linejoin:miter;stroke-miterlimit:10;stroke-dasharray:none;stroke-opacity:1"
       transform="matrix(0.95709561,0,0,0.95709561,0.4785478,0.4785478)"
       clip-path="url(#clipPath19)" />
    <text
       id="text19"
       xml:space="preserve"
       transform="matrix(0.95710521,0,0,0.95710521,181.07234,20.099209)"
       clip-path="url(#clipPath20)"><tspan
         style="font-variant:normal;font-weight:normal;font-size:13px;font-family:Helvetica;writing-mode:lr-tb;fill:#000000;fill-opacity:1;fill-rule:nonzero;stroke:none"
         x="0"
         y="0"
         id="tspan19">[</tspan></text>
    <path
       id="path21"
       d="m 211,1 h 60 v 30 h -60 z"
       style="fill:#dae8fc;fill-opacity:1;fill-rule:nonzero;stroke:#6c8ebf;stroke-width:1;stroke-linecap:butt;stroke-linejoin:miter;stroke-miterlimit:10;stroke-dasharray:none;stroke-opacity:1"
       transform="matrix(0.95709561,0,0,0.95709561,0.4785478,0.4785478)"
       clip-path="url(#clipPath22)" />
    <text
       id="text22"
       xml:space="preserve"
       transform="matrix(0.95710521,0,0,0.95710521,206.79454,20.099209)"
       clip-path="url(#clipPath23)"><tspan
         style="font-variant:normal;font-weight:normal;font-size:13px;font-family:Helvetica;writing-mode:lr-tb;fill:#000000;fill-opacity:1;fill-rule:nonzero;stroke:none"
         x="0 9.3881836 16.618164 19.506348 22.394531 29.624512 36.854492 43.354492"
         y="0"
         sodipodi:role="line"
         id="tspan22">Callback</tspan></text>
    <path
       id="path24"
       d="m 271,1 h 60 v 30 h -60 z"
       style="fill:#dae8fc;fill-opacity:1;fill-rule:nonzero;stroke:#6c8ebf;stroke-width:1;stroke-linecap:butt;stroke-linejoin:miter;stroke-miterlimit:10;stroke-dasharray:none;stroke-opacity:1"
       transform="matrix(0.95709561,0,0,0.95709561,0.4785478,0.4785478)"
       clip-path="url(#clipPath25)" />
    <text
       id="text25"
       xml:space="preserve"
       transform="matrix(0.95710521,0,0,0.95710521,264.22086,20.099209)"
       clip-path="url(#clipPath26)"><tspan
         style="font-variant:normal;font-weight:normal;font-size:13px;font-family:Helvetica;writing-mode:lr-tb;fill:#000000;fill-opacity:1;fill-rule:nonzero;stroke:none"
         x="0 9.3881836 16.618164 19.506348 22.394531 29.624512 36.854492 43.354492"
         y="0"
         sodipodi:role="line"
         id="tspan25">Callback</tspan></text>
    <path
       id="path27"
       d="m 331,1 h 40 v 30 h -40 z"
       style="fill:#ffffff;fill-opacity:1;fill-rule:nonzero;stroke:#000000;stroke-width:1;stroke-linecap:butt;stroke-linejoin:miter;stroke-miterlimit:10;stroke-dasharray:none;stroke-opacity:1"
       transform="matrix(0.95709561,0,0,0.95709561,0.4785478,0.4785478)"
       clip-path="url(#clipPath28)" />
    <text
       id="text28"
       xml:space="preserve"
       transform="matrix(0.95710521,0,0,0.95710521,334.20917,20.099209)"
       clip-path="url(#clipPath29)"><tspan
         style="font-variant:normal;font-weight:normal;font-size:13px;font-family:Helvetica;writing-mode:lr-tb;fill:#000000;fill-opacity:1;fill-rule:nonzero;stroke:none"
         x="0"
         y="0"
         id="tspan28">]</tspan></text>
    <path
       id="path30"
       d="m 401,1 h -5 c -3.33334,0 -5,3.333333 -5,10 v 35 c 0,6.666668 -1.66666,10 -5,10 h -2.5 c -1.66666,0 -0.83334,0 2.5,0 h 2.5 c 1.66666,0 2.5,3.333332 2.5,10 v 35 c 0,6.66666 1.66666,10 5,10 h 5"
       style="fill:none;stroke:#000000;stroke-width:1;stroke-linecap:butt;stroke-linejoin:miter;stroke-miterlimit:10;stroke-dasharray:none;stroke-opacity:1"
       transform="matrix(-0.95709561,0,0,-0.95709561,748.9273,107.67326)"
       clip-path="url(#clipPath31)" />
    <path
       id="path32"
       d="m 131,56 21,0.5 12.64,-0.330002"
       style="fill:none;stroke:#000000;stroke-width:1;stroke-linecap:butt;stroke-linejoin:miter;stroke-miterlimit:10;stroke-dasharray:none;stroke-opacity:1"
       transform="matrix(0.95709561,0,0,0.95709561,0.4785478,0.4785478)"
       clip-path="url(#clipPath33)" />
    <path
       id="path34"
       d="m 169.88,56.029999 -6.9,3.68 1.66,-3.540001 -1.85001,-3.449997 z"
       style="fill:#000000;fill-opacity:1;fill-rule:nonzero;stroke:#000000;stroke-width:1;stroke-linecap:butt;stroke-linejoin:miter;stroke-miterlimit:10;stroke-dasharray:none;stroke-opacity:1"
       transform="matrix(0.95709561,0,0,0.95709561,0.4785478,0.4785478)"
       clip-path="url(#clipPath35)" />
    <path
       id="path36"
       d="m 171,41 h 40 v 30 h -40 z"
       style="fill:#ffffff;fill-opacity:1;fill-rule:nonzero;stroke:#000000;stroke-width:1;stroke-linecap:butt;stroke-linejoin:miter;stroke-miterlimit:10;stroke-dasharray:none;stroke-opacity:1"
       transform="matrix(0.95709561,0,0,0.95709561,0.4785478,0.4785478)"
       clip-path="url(#clipPath37)" />
    <text
       id="text37"
       xml:space="preserve"
       transform="matrix(0.95710521,0,0,0.95710521,181.07234,58.383418)"
       clip-path="url(#clipPath38)"><tspan
         style="font-variant:normal;font-weight:normal;font-size:13px;font-family:Helvetica;writing-mode:lr-tb;fill:#000000;fill-opacity:1;fill-rule:nonzero;stroke:none"
         x="0"
         y="0"
         id="tspan37">[</tspan></text>
    <path
       id="path39"
       d="m 211,41 h 40 v 30 h -40 z"
       style="fill:#ffffff;fill-opacity:1;fill-rule:nonzero;stroke:#000000;stroke-width:1;stroke-linecap:butt;stroke-linejoin:miter;stroke-miterlimit:10;stroke-dasharray:none;stroke-opacity:1"
       transform="matrix(0.95709561,0,0,0.95709561,0.4785478,0.4785478)"
       clip-path="url(#clipPath40)" />
    <text
       id="text40"
       xml:space="preserve"
       transform="matrix(0.95710521,0,0,0.95710521,219.35655,58.383418)"
       clip-path="url(#clipPath41)"><tspan
         style="font-variant:normal;font-weight:normal;font-size:13px;font-family:Helvetica;writing-mode:lr-tb;fill:#000000;fill-opacity:1;fill-rule:nonzero;stroke:none"
         x="0"
         y="0"
         id="tspan40">]</tspan></text>
    <path
       id="path42"
       d="m 131,96 21,0.5 12.64,-0.330002"
       style="fill:none;stroke:#000000;stroke-width:1;stroke-linecap:butt;stroke-linejoin:miter;stroke-miterlimit:10;stroke-dasharray:none;stroke-opacity:1"
       transform="matrix(0.95709561,0,0,0.95709561,0.4785478,0.4785478)"
       clip-path="url(#clipPath43)" />
    <path
       id="path44"
       d="m 169.88,96.029999 -6.9,3.68 1.66,-3.540001 -1.85001,-3.449997 z"
       style="fill:#000000;fill-opacity:1;fill-rule:nonzero;stroke:#000000;stroke-width:1;stroke-linecap:butt;stroke-linejoin:miter;stroke-miterlimit:10;stroke-dasharray:none;stroke-opacity:1"
       transform="matrix(0.95709561,0,0,0.95709561,0.4785478,0.4785478)"
       clip-path="url(#clipPath45)" />
    <path
       id="path46"
       d="m 171,81 h 40 v 30 h -40 z"
       style="fill:#ffffff;fill-opacity:1;fill-rule:nonzero;stroke:#000000;stroke-width:1;stroke-linecap:butt;stroke-linejoin:miter;stroke-miterlimit:10;stroke-dasharray:none;stroke-opacity:1"
       transform="matrix(0.95709561,0,0,0.95709561,0.4785478,0.4785478)"
       clip-path="url(#clipPath47)" />
    <text
       id="text47"
       xml:space="preserve"
       transform="matrix(0.95710521,0,0,0.95710521,181.07234,96.667626)"
       clip-path="url(#clipPath48)"><tspan
         style="font-variant:normal;font-weight:normal;font-size:13px;font-family:Helvetica;writing-mode:lr-tb;fill:#000000;fill-opacity:1;fill-rule:nonzero;stroke:none"
         x="0"
         y="0"
         id="tspan47">[</tspan></text>
    <path
       id="path49"
       d="m 211,81 h 60 v 30 h -60 z"
       style="fill:#dae8fc;fill-opacity:1;fill-rule:nonzero;stroke:#6c8ebf;stroke-width:1;stroke-linecap:butt;stroke-linejoin:miter;stroke-miterlimit:10;stroke-dasharray:none;stroke-opacity:1"
       transform="matrix(0.95709561,0,0,0.95709561,0.4785478,0.4785478)"
       clip-path="url(#clipPath50)" />
    <text
       id="text50"
       xml:space="preserve"
       transform="matrix(0.95710521,0,0,0.95710521,206.79454,96.667626)"
       clip-path="url(#clipPath51)"><tspan
         style="font-variant:normal;font-weight:normal;font-size:13px;font-family:Helvetica;writing-mode:lr-tb;fill:#000000;fill-opacity:1;fill-rule:nonzero;stroke:none"
         x="0 9.3881836 16.618164 19.506348 22.394531 29.624512 36.854492 43.354492"
         y="0"
         sodipodi:role="line"
         id="tspan50">Callback</tspan></text>
    <path
       id="path52"
       d="m 271,81 h 40 v 30 h -40 z"
       style="fill:#ffffff;fill-opacity:1;fill-rule:nonzero;stroke:#000000;stroke-width:1;stroke-linecap:butt;stroke-linejoin:miter;stroke-miterlimit:10;stroke-dasharray:none;stroke-opacity:1"
       transform="matrix(0.95709561,0,0,0.95709561,0.4785478,0.4785478)"
       clip-path="url(#clipPath53)" />
    <text
       id="text53"
       xml:space="preserve"
       transform="matrix(0.95710521,0,0,0.95710521,276.78286,96.667626)"
       clip-path="url(#clipPath54)"><tspan
         style="font-variant:normal;font-weight:normal;font-size:13px;font-family:Helvetica;writing-mode:lr-tb;fill:#000000;fill-opacity:1;fill-rule:nonzero;stroke:none"
         x="0"
         y="0"
         id="tspan53">]</tspan></text>
  </g>
</svg>
