<?xml version="1.0" encoding="UTF-8" standalone="no"?>
<!-- Created with Inkscape (http://www.inkscape.org/) -->

<svg
   version="1.1"
   id="svg1"
   width="539.84003"
   height="234.56"
   viewBox="0 0 539.84003 234.56"
   sodipodi:docname="ts-7.pdf"
   xmlns:inkscape="http://www.inkscape.org/namespaces/inkscape"
   xmlns:sodipodi="http://sodipodi.sourceforge.net/DTD/sodipodi-0.dtd"
   xmlns="http://www.w3.org/2000/svg"
   xmlns:svg="http://www.w3.org/2000/svg">
  <defs
     id="defs1">
    <clipPath
       clipPathUnits="userSpaceOnUse"
       id="clipPath2">
      <path
         d="M 0,0 H 1687.4999 V 733.04517 H 0 Z"
         transform="scale(0.33422224)"
         clip-rule="evenodd"
         id="path2" />
    </clipPath>
    <clipPath
       clipPathUnits="userSpaceOnUse"
       id="clipPath4">
      <path
         d="M 0,0 H 1687.4999 V 730.05316 H 0 Z"
         transform="matrix(0.33422224,0,0,0.33422224,-0.49999999,-0.49999999)"
         clip-rule="evenodd"
         id="path4" />
    </clipPath>
    <clipPath
       clipPathUnits="userSpaceOnUse"
       id="clipPath6">
      <path
         d="M 0,0 H 1687.4999 V 730.05316 H 0 Z"
         transform="matrix(0.33422224,0,0,0.33422224,-0.49999999,-0.49999999)"
         clip-rule="evenodd"
         id="path6" />
    </clipPath>
    <clipPath
       clipPathUnits="userSpaceOnUse"
       id="clipPath8">
      <path
         d="M 0,0 H 1687.4999 V 730.05316 H 0 Z"
         transform="matrix(0.33422224,0,0,0.33422224,-0.49999999,-0.49999999)"
         clip-rule="evenodd"
         id="path8" />
    </clipPath>
    <clipPath
       clipPathUnits="userSpaceOnUse"
       id="clipPath10">
      <path
         d="M 0,0 H 1687.4999 V 730.05316 H 0 Z"
         transform="matrix(0.33422224,0,0,0.33422224,-0.49999999,-0.49999999)"
         clip-rule="evenodd"
         id="path10" />
    </clipPath>
    <clipPath
       clipPathUnits="userSpaceOnUse"
       id="clipPath12">
      <path
         d="M 0,0 H 1687.4999 V 730.05316 H 0 Z"
         transform="matrix(0.33422224,0,0,0.33422224,-0.49999999,-0.49999999)"
         clip-rule="evenodd"
         id="path12" />
    </clipPath>
    <clipPath
       clipPathUnits="userSpaceOnUse"
       id="clipPath14">
      <path
         d="M 0,0 H 1687.4999 V 730.05316 H 0 Z"
         transform="matrix(0.33422224,0,0,0.33422224,-0.49999999,-0.49999999)"
         clip-rule="evenodd"
         id="path14" />
    </clipPath>
    <clipPath
       clipPathUnits="userSpaceOnUse"
       id="clipPath16">
      <path
         d="M 0,0 H 1687.4999 V 730.05316 H 0 Z"
         transform="matrix(0.33422224,0,0,0.33422224,-0.49999999,-0.49999999)"
         clip-rule="evenodd"
         id="path16" />
    </clipPath>
    <clipPath
       clipPathUnits="userSpaceOnUse"
       id="clipPath18">
      <path
         d="M 0,0 H 1687.4999 V 730.05316 H 0 Z"
         transform="matrix(0.33422224,0,0,0.33422224,-0.49999999,-0.49999999)"
         clip-rule="evenodd"
         id="path18" />
    </clipPath>
    <clipPath
       clipPathUnits="userSpaceOnUse"
       id="clipPath20">
      <path
         d="M 0,0 H 1687.4999 V 730.05316 H 0 Z"
         transform="matrix(0.33422224,0,0,0.33422224,-0.49999999,-0.49999999)"
         clip-rule="evenodd"
         id="path20" />
    </clipPath>
    <clipPath
       clipPathUnits="userSpaceOnUse"
       id="clipPath22">
      <path
         d="M 0,0 H 1687.4999 V 730.05316 H 0 Z"
         transform="matrix(0.33422224,0,0,0.33422224,-0.49999999,-0.49999999)"
         clip-rule="evenodd"
         id="path22" />
    </clipPath>
    <clipPath
       clipPathUnits="userSpaceOnUse"
       id="clipPath24">
      <path
         d="M 0,0 H 1687.4999 V 730.05316 H 0 Z"
         transform="matrix(0.33422224,0,0,0.33422224,-0.49999999,-0.49999999)"
         clip-rule="evenodd"
         id="path24" />
    </clipPath>
    <clipPath
       clipPathUnits="userSpaceOnUse"
       id="clipPath26">
      <path
         d="M 0,0 H 1687.4999 V 730.05316 H 0 Z"
         transform="matrix(0.33422224,0,0,0.33422224,-0.49999999,-0.49999999)"
         clip-rule="evenodd"
         id="path26" />
    </clipPath>
    <clipPath
       clipPathUnits="userSpaceOnUse"
       id="clipPath28">
      <path
         d="M 0,0 H 1687.4999 V 730.05316 H 0 Z"
         transform="matrix(0.33422224,0,0,0.33422224,-0.49999999,-0.49999999)"
         clip-rule="evenodd"
         id="path28" />
    </clipPath>
    <clipPath
       clipPathUnits="userSpaceOnUse"
       id="clipPath30">
      <path
         d="M 0,0 H 1687.4999 V 730.05316 H 0 Z"
         transform="matrix(0.33422224,0,0,0.33422224,-0.49999999,-0.49999999)"
         clip-rule="evenodd"
         id="path30" />
    </clipPath>
    <clipPath
       clipPathUnits="userSpaceOnUse"
       id="clipPath31">
      <path
         d="M 0,0 H 1687.4999 V 730.05316 H 0 Z"
         transform="matrix(0.33421889,0,0,0.33421889,-63,-32)"
         clip-rule="evenodd"
         id="path31" />
    </clipPath>
    <clipPath
       clipPathUnits="userSpaceOnUse"
       id="clipPath32">
      <path
         d="M 0,0 H 1687.4999 V 730.05316 H 0 Z"
         transform="matrix(0.33421889,0,0,0.33421889,-133,-80)"
         clip-rule="evenodd"
         id="path32" />
    </clipPath>
    <clipPath
       clipPathUnits="userSpaceOnUse"
       id="clipPath34">
      <path
         d="M 0,0 H 1687.4999 V 730.05316 H 0 Z"
         transform="matrix(0.33422224,0,0,0.33422224,-0.49999999,-0.49999999)"
         clip-rule="evenodd"
         id="path34" />
    </clipPath>
    <clipPath
       clipPathUnits="userSpaceOnUse"
       id="clipPath35">
      <path
         d="M 0,0 H 1687.4999 V 730.05316 H 0 Z"
         transform="matrix(0.33421889,0,0,0.33421889,-246.8125,-190)"
         clip-rule="evenodd"
         id="path35" />
    </clipPath>
    <clipPath
       clipPathUnits="userSpaceOnUse"
       id="clipPath37">
      <path
         d="M 0,0 H 1687.4999 V 730.05316 H 0 Z"
         transform="matrix(0.33422224,0,0,0.33422224,-0.49999999,-0.49999999)"
         clip-rule="evenodd"
         id="path37" />
    </clipPath>
    <clipPath
       clipPathUnits="userSpaceOnUse"
       id="clipPath38">
      <path
         d="M 0,0 H 1687.4999 V 730.05316 H 0 Z"
         transform="matrix(0.33421889,0,0,0.33421889,-144.59375,-175)"
         clip-rule="evenodd"
         id="path38" />
    </clipPath>
    <clipPath
       clipPathUnits="userSpaceOnUse"
       id="clipPath39">
      <path
         d="M 0,0 H 1687.4999 V 730.05316 H 0 Z"
         transform="matrix(0.33421889,0,0,0.33421889,-123.73438,-205)"
         clip-rule="evenodd"
         id="path39" />
    </clipPath>
    <clipPath
       clipPathUnits="userSpaceOnUse"
       id="clipPath41">
      <path
         d="M 0,0 H 1687.4999 V 730.05316 H 0 Z"
         transform="matrix(0.33422224,0,0,0.33422224,-0.49999999,-0.49999999)"
         clip-rule="evenodd"
         id="path41" />
    </clipPath>
    <clipPath
       clipPathUnits="userSpaceOnUse"
       id="clipPath43">
      <path
         d="M 0,0 H 1687.4999 V 730.05316 H 0 Z"
         transform="matrix(0.33422224,0,0,0.33422224,-0.49999999,-0.49999999)"
         clip-rule="evenodd"
         id="path43" />
    </clipPath>
    <clipPath
       clipPathUnits="userSpaceOnUse"
       id="clipPath45">
      <path
         d="M 0,0 H 1687.4999 V 730.05316 H 0 Z"
         transform="matrix(0.33422224,0,0,0.33422224,-0.49999999,-0.49999999)"
         clip-rule="evenodd"
         id="path45" />
    </clipPath>
    <clipPath
       clipPathUnits="userSpaceOnUse"
       id="clipPath46">
      <path
         d="M 0,0 H 1687.4999 V 730.05316 H 0 Z"
         transform="matrix(0.33421889,0,0,0.33421889,-466.95313,-165)"
         clip-rule="evenodd"
         id="path46" />
    </clipPath>
    <clipPath
       clipPathUnits="userSpaceOnUse"
       id="clipPath47">
      <path
         d="M 0,0 H 1687.4999 V 730.05316 H 0 Z"
         transform="matrix(0.33421889,0,0,0.33421889,-462.0625,-195)"
         clip-rule="evenodd"
         id="path47" />
    </clipPath>
    <clipPath
       clipPathUnits="userSpaceOnUse"
       id="clipPath49">
      <path
         d="M 0,0 H 1687.4999 V 730.05316 H 0 Z"
         transform="matrix(0.33422224,0,0,0.33422224,-0.49999999,-0.49999999)"
         clip-rule="evenodd"
         id="path49" />
    </clipPath>
    <clipPath
       clipPathUnits="userSpaceOnUse"
       id="clipPath51">
      <path
         d="M 0,0 H 1687.4999 V 730.05316 H 0 Z"
         transform="matrix(0.33422224,0,0,0.33422224,-0.49999999,-0.49999999)"
         clip-rule="evenodd"
         id="path51" />
    </clipPath>
    <clipPath
       clipPathUnits="userSpaceOnUse"
       id="clipPath52">
      <path
         d="M 0,0 H 1687.4999 V 730.05316 H 0 Z"
         transform="matrix(0.33421889,0,0,0.33421889,-351.82813,-157)"
         clip-rule="evenodd"
         id="path52" />
    </clipPath>
    <clipPath
       clipPathUnits="userSpaceOnUse"
       id="clipPath53">
      <path
         d="M 0,0 H 1687.4999 V 730.05316 H 0 Z"
         transform="matrix(0.33421889,0,0,0.33421889,-351.25,-218)"
         clip-rule="evenodd"
         id="path53" />
    </clipPath>
  </defs>
  <sodipodi:namedview
     id="namedview1"
     pagecolor="#ffffff"
     bordercolor="#000000"
     borderopacity="0.25"
     inkscape:showpageshadow="2"
     inkscape:pageopacity="0.0"
     inkscape:pagecheckerboard="0"
     inkscape:deskcolor="#d1d1d1">
    <inkscape:page
       x="0"
       y="0"
       inkscape:label="1"
       id="page1"
       width="539.84003"
       height="234.56"
       margin="0"
       bleed="0" />
  </sodipodi:namedview>
  <g
     id="g1"
     inkscape:groupmode="layer"
     inkscape:label="1">
    <path
       id="path1"
       d="M 0,0 H 564 V 245 H 0 Z"
       style="fill:#ffffff;fill-opacity:1;fill-rule:nonzero;stroke:none"
       transform="scale(0.95744671)"
       clip-path="url(#clipPath2)" />
    <path
       id="path3"
       d="M 1,1 H 341 V 241 H 1 Z"
       style="fill:#ffffff;fill-opacity:1;fill-rule:nonzero;stroke:#666666;stroke-width:1;stroke-linecap:butt;stroke-linejoin:miter;stroke-miterlimit:10;stroke-dasharray:none;stroke-opacity:1"
       transform="matrix(0.95744671,0,0,0.95744671,0.47872335,0.47872335)"
       clip-path="url(#clipPath4)" />
    <path
       id="path5"
       d="m 286.00012,16 c -3e-5,0.656614 -0.0641,1.306923 -0.1922,1.950922 -0.12808,0.643999 -0.31778,1.269314 -0.56906,1.875948 -0.25128,0.606634 -0.55933,1.182928 -0.9241,1.728886 -0.36478,0.545957 -0.77933,1.051084 -1.24362,1.51538 -0.46433,0.464297 -0.96946,0.878844 -1.51545,1.243639 -0.54595,0.364796 -1.12225,0.672833 -1.72888,0.924109 -0.6066,0.251276 -1.2319,0.440964 -1.87588,0.569063 -0.64398,0.1281 -1.29428,0.19215 -1.95093,0.192152 -0.65665,-2e-6 -1.30695,-0.06405 -1.95096,-0.192152 -0.64401,-0.128099 -1.26932,-0.317787 -1.87594,-0.569063 -0.60663,-0.251276 -1.18293,-0.559313 -1.72892,-0.924109 -0.54593,-0.364795 -1.05102,-0.779342 -1.51535,-1.243639 -0.46429,-0.464296 -0.87884,-0.969423 -1.24365,-1.515378 -0.36481,-0.545958 -0.67285,-1.122254 -0.92413,-1.728888 -0.25128,-0.606634 -0.44095,-1.231949 -0.56903,-1.875948 -0.12809,-0.643999 -0.19214,-1.294308 -0.19211,-1.950922 -3e-5,-0.656616 0.064,-1.306924 0.19214,-1.950923 0.12805,-0.644 0.31772,-1.269317 0.569,-1.875951 0.25128,-0.606633 0.55932,-1.182928 0.92413,-1.728885 0.36481,-0.5459561 0.77936,-1.051083 1.24365,-1.5153803 0.46433,-0.4642973 0.96942,-0.8788443 1.51535,-1.2436409 0.54599,-0.3647962 1.12229,-0.6728325 1.72892,-0.9241085 0.60662,-0.2512756 1.23193,-0.4409633 1.87594,-0.5690623 0.64401,-0.1280994 1.29431,-0.1921491 1.95096,-0.1921491 0.65665,0 1.30695,0.06405 1.95093,0.1921491 0.64398,0.128099 1.26928,0.3177867 1.87588,0.5690623 0.60663,0.251276 1.18293,0.5593123 1.72888,0.9241085 0.54599,0.3647966 1.05112,0.7793436 1.51545,1.2436409 0.46429,0.4642973 0.87884,0.9694242 1.24362,1.5153803 0.36477,0.545957 0.67282,1.122252 0.9241,1.728885 0.25128,0.606634 0.44098,1.231951 0.56906,1.875951 0.12812,0.643999 0.19217,1.294307 0.1922,1.950923 z"
       style="fill:none;stroke:#666666;stroke-width:1;stroke-linecap:butt;stroke-linejoin:miter;stroke-miterlimit:10;stroke-dasharray:none;stroke-opacity:1"
       transform="matrix(0.95744671,0,0,0.95744671,0.47872335,0.47872335)"
       clip-path="url(#clipPath6)" />
    <path
       id="path7"
       d="m 311.00012,16 c -3e-5,0.656614 -0.0641,1.306923 -0.1922,1.950922 -0.12808,0.643999 -0.31778,1.269314 -0.56906,1.875948 -0.25125,0.606634 -0.55929,1.182928 -0.9241,1.728886 -0.36478,0.545957 -0.77933,1.051084 -1.24362,1.51538 -0.4643,0.464297 -0.96942,0.878844 -1.51541,1.243639 -0.54596,0.364796 -1.12226,0.672833 -1.72889,0.924109 -0.60663,0.251276 -1.23193,0.440964 -1.87594,0.569063 -0.64402,0.1281 -1.29431,0.19215 -1.9509,0.192152 -0.65662,-2e-6 -1.30692,-0.06405 -1.95093,-0.192152 -0.64401,-0.128099 -1.26932,-0.317787 -1.87597,-0.569063 -0.60663,-0.251276 -1.18293,-0.559313 -1.72889,-0.924109 -0.54596,-0.364795 -1.05108,-0.779342 -1.51538,-1.243639 -0.46429,-0.464296 -0.87884,-0.969423 -1.24365,-1.515378 -0.36478,-0.545958 -0.67282,-1.122254 -0.9241,-1.728888 -0.25125,-0.606634 -0.44095,-1.231949 -0.56906,-1.875948 -0.12809,-0.643999 -0.19211,-1.294308 -0.19211,-1.950922 0,-0.656616 0.0641,-1.306924 0.19214,-1.950923 0.12808,-0.644 0.31778,-1.269317 0.56903,-1.875951 0.25128,-0.606633 0.55932,-1.182928 0.9241,-1.728885 0.36481,-0.5459561 0.77936,-1.051083 1.24365,-1.5153803 0.4643,-0.4642973 0.96942,-0.8788443 1.51538,-1.2436409 0.54596,-0.3647962 1.12226,-0.6728325 1.72889,-0.9241085 0.60665,-0.2512756 1.23196,-0.4409633 1.87597,-0.5690623 0.64401,-0.1280994 1.29431,-0.1921491 1.95093,-0.1921491 0.65659,0 1.30688,0.06405 1.9509,0.1921491 0.64401,0.128099 1.26931,0.3177867 1.87594,0.5690623 0.60663,0.251276 1.18293,0.5593123 1.72889,0.9241085 0.54599,0.3647966 1.05111,0.7793436 1.51541,1.2436409 0.46429,0.4642973 0.87884,0.9694242 1.24362,1.5153803 0.36481,0.545957 0.67285,1.122252 0.9241,1.728885 0.25128,0.606634 0.44098,1.231951 0.56906,1.875951 0.12812,0.643999 0.19217,1.294307 0.1922,1.950923 z"
       style="fill:none;stroke:#666666;stroke-width:1;stroke-linecap:butt;stroke-linejoin:miter;stroke-miterlimit:10;stroke-dasharray:none;stroke-opacity:1"
       transform="matrix(0.95744671,0,0,0.95744671,0.47872335,0.47872335)"
       clip-path="url(#clipPath8)" />
    <path
       id="path9"
       d="m 336.00012,16 c -3e-5,0.656614 -0.0641,1.306923 -0.1922,1.950922 -0.12811,0.643999 -0.31781,1.269314 -0.56906,1.875948 -0.25128,0.606634 -0.55933,1.182928 -0.9241,1.728886 -0.36481,0.545957 -0.77936,1.051084 -1.24362,1.51538 -0.4643,0.464297 -0.96942,0.878844 -1.51541,1.243639 -0.54596,0.364796 -1.12226,0.672833 -1.72889,0.924109 -0.60666,0.251276 -1.23196,0.440964 -1.87594,0.569063 -0.64402,0.1281 -1.29431,0.19215 -1.9509,0.192152 -0.65665,-2e-6 -1.30695,-0.06405 -1.95096,-0.192152 -0.64401,-0.128099 -1.26932,-0.317787 -1.87594,-0.569063 -0.60666,-0.251276 -1.18296,-0.559313 -1.72889,-0.924109 -0.54599,-0.364795 -1.05111,-0.779342 -1.51538,-1.243639 -0.46432,-0.464296 -0.87887,-0.969423 -1.24365,-1.515378 -0.36481,-0.545958 -0.67285,-1.122254 -0.9241,-1.728888 -0.25128,-0.606634 -0.44098,-1.231949 -0.56906,-1.875948 -0.12809,-0.643999 -0.19211,-1.294308 -0.19211,-1.950922 0,-0.656616 0.064,-1.306924 0.19211,-1.950923 0.12808,-0.644 0.31778,-1.269317 0.56906,-1.875951 0.25125,-0.606633 0.55929,-1.182928 0.9241,-1.728885 0.36478,-0.5459561 0.77933,-1.051083 1.24365,-1.5153803 0.46427,-0.4642973 0.96939,-0.8788443 1.51538,-1.2436409 0.54593,-0.3647962 1.12223,-0.6728325 1.72889,-0.9241085 0.60662,-0.2512756 1.23193,-0.4409633 1.87594,-0.5690623 0.64401,-0.1280994 1.29431,-0.1921491 1.95096,-0.1921491 0.65659,0 1.30688,0.06405 1.9509,0.1921491 0.64398,0.128099 1.26928,0.3177867 1.87594,0.5690623 0.60663,0.251276 1.18293,0.5593123 1.72889,0.9241085 0.54599,0.3647966 1.05111,0.7793436 1.51541,1.2436409 0.46426,0.4642973 0.87881,0.9694242 1.24362,1.5153803 0.36477,0.545957 0.67282,1.122252 0.9241,1.728885 0.25125,0.606634 0.44095,1.231951 0.56906,1.875951 0.12812,0.643999 0.19217,1.294307 0.1922,1.950923 z"
       style="fill:none;stroke:#008cff;stroke-width:1;stroke-linecap:butt;stroke-linejoin:miter;stroke-miterlimit:10;stroke-dasharray:none;stroke-opacity:1"
       transform="matrix(0.95744671,0,0,0.95744671,0.47872335,0.47872335)"
       clip-path="url(#clipPath10)" />
    <path
       id="path11"
       d="M 1,41 H 31 V 16 c 0,-2.76 2.240002,-5 5,-5 h 135 c 2.75999,0 5,2.24 5,5 v 25 h 165"
       style="fill:none;stroke:#c4c4c4;stroke-width:1;stroke-linecap:butt;stroke-linejoin:miter;stroke-miterlimit:10;stroke-dasharray:none;stroke-opacity:1"
       transform="matrix(0.95744671,0,0,0.95744671,0.47872335,0.47872335)"
       clip-path="url(#clipPath12)" />
    <path
       id="path13"
       d="M 1,111 H 341"
       style="fill:none;stroke:#c4c4c4;stroke-width:1;stroke-linecap:butt;stroke-linejoin:miter;stroke-miterlimit:10;stroke-dasharray:none;stroke-opacity:1"
       transform="matrix(0.95744671,0,0,0.95744671,0.47872335,0.47872335)"
       clip-path="url(#clipPath14)" />
    <path
       id="path15"
       d="m 101,61 c 0,-2.759998 2.24,-5 5,-5 h 220 c 2.76001,0 5,2.240002 5,5 v 25 c 0,2.760002 -2.23999,5 -5,5 H 106 c -2.76,0 -5,-2.239998 -5,-5 z"
       style="fill:none;stroke:#c4c4c4;stroke-width:1;stroke-linecap:butt;stroke-linejoin:miter;stroke-miterlimit:10;stroke-dasharray:none;stroke-opacity:1"
       transform="matrix(0.95744671,0,0,0.95744671,0.47872335,0.47872335)"
       clip-path="url(#clipPath16)" />
    <path
       id="path17"
       d="m 38,18 h 11 l 4,4 V 36 H 38 Z"
       style="fill:none;stroke:#c4c4c4;stroke-width:1;stroke-linecap:butt;stroke-linejoin:miter;stroke-miterlimit:10;stroke-dasharray:none;stroke-opacity:1"
       transform="matrix(0.95744671,0,0,0.95744671,0.47872335,0.47872335)"
       clip-path="url(#clipPath18)" />
    <path
       id="path19"
       d="m 49,18 v 4 l 4,1"
       style="fill:none;stroke:#c4c4c4;stroke-width:1;stroke-linecap:butt;stroke-linejoin:miter;stroke-miterlimit:10;stroke-dasharray:none;stroke-opacity:1"
       transform="matrix(0.95744671,0,0,0.95744671,0.47872335,0.47872335)"
       clip-path="url(#clipPath20)" />
    <path
       id="path21"
       d="m 108,65 h 11 l 4,4 v 14 h -15 z"
       style="fill:none;stroke:#c4c4c4;stroke-width:1;stroke-linecap:butt;stroke-linejoin:miter;stroke-miterlimit:10;stroke-dasharray:none;stroke-opacity:1"
       transform="matrix(0.95744671,0,0,0.95744671,0.47872335,0.47872335)"
       clip-path="url(#clipPath22)" />
    <path
       id="path23"
       d="m 119,65 v 4 l 4,1"
       style="fill:none;stroke:#c4c4c4;stroke-width:1;stroke-linecap:butt;stroke-linejoin:miter;stroke-miterlimit:10;stroke-dasharray:none;stroke-opacity:1"
       transform="matrix(0.95744671,0,0,0.95744671,0.47872335,0.47872335)"
       clip-path="url(#clipPath24)" />
    <path
       id="path25"
       d="M 13,75 23,65 v 6 h 10 v 8 H 23 v 6 z"
       style="fill:#c4c4c4;fill-opacity:1;fill-rule:nonzero;stroke:#c4c4c4;stroke-width:1;stroke-linecap:butt;stroke-linejoin:miter;stroke-miterlimit:10;stroke-dasharray:none;stroke-opacity:1"
       transform="matrix(0.95744671,0,0,0.95744671,0.47872335,0.47872335)"
       clip-path="url(#clipPath26)" />
    <path
       id="path27"
       d="M 63,75 53,65 v 6 H 43 v 8 h 10 v 6 z"
       style="fill:#c4c4c4;fill-opacity:1;fill-rule:nonzero;stroke:#c4c4c4;stroke-width:1;stroke-linecap:butt;stroke-linejoin:miter;stroke-miterlimit:10;stroke-dasharray:none;stroke-opacity:1"
       transform="matrix(0.95744671,0,0,0.95744671,0.47872335,0.47872335)"
       clip-path="url(#clipPath28)" />
    <path
       id="path29"
       d="m 88.599998,78.300003 c -1.699996,2.839996 -5.379997,3.759995 -8.220001,2.059998 C 77.540001,78.669998 76.610001,75 78.300003,72.150002 79.980003,69.309998 83.650002,68.360001 86.5,70.040001 L 84.900002,71.5 92.800003,73.300003 91,65.800003 89.300003,67.400002 c -3.190002,-2.370003 -7.5,-2.580002 -10.900001,-0.529999 -3.410004,2.049995 -5.239998,5.959999 -4.630005,9.889999 0.61,3.93 3.530006,7.099999 7.390007,8.029999 C 85.029999,85.720001 89.07,84.230003 91.400002,81 Z"
       style="fill:#c4c4c4;fill-opacity:1;fill-rule:nonzero;stroke:#c4c4c4;stroke-width:1;stroke-linecap:butt;stroke-linejoin:miter;stroke-miterlimit:10;stroke-dasharray:none;stroke-opacity:1"
       transform="matrix(0.95744671,0,0,0.95744671,0.47872335,0.47872335)"
       clip-path="url(#clipPath30)" />
    <text
       id="text30"
       xml:space="preserve"
       transform="matrix(0.95745631,0,0,0.95745631,60.319748,30.638602)"
       clip-path="url(#clipPath31)"><tspan
         style="font-variant:normal;font-weight:normal;font-size:17px;font-family:Helvetica;writing-mode:lr-tb;fill:#666666;fill-opacity:1;fill-rule:nonzero;stroke:none"
         x="0 11.338867 20.793457 30.248047 39.702637 44.425781"
         y="0"
         sodipodi:role="line"
         id="tspan30">Page 1</tspan></text>
    <text
       id="text31"
       xml:space="preserve"
       transform="matrix(0.95745631,0,0,0.95745631,127.34169,76.596505)"
       clip-path="url(#clipPath32)"><tspan
         style="font-variant:normal;font-weight:normal;font-size:17px;font-family:Helvetica;writing-mode:lr-tb;fill:#666666;fill-opacity:1;fill-rule:nonzero;stroke:none"
         x="0 9.4545898 14.177734 18.900879 28.355469 36.855469 41.578613 46.301758 51.024902 63.301758 75.578613 86.925781 91.648926 101.10352 106.76465 116.21924 127.56641 132.28955 136.06641"
         y="0"
         sodipodi:role="line"
         id="tspan31">https://www.draw.io</tspan></text>
    <path
       id="path33"
       d="m 241,140 h 70 v 81 h -70 z"
       style="fill:#ffffff;fill-opacity:1;fill-rule:nonzero;stroke:#000000;stroke-width:1;stroke-linecap:butt;stroke-linejoin:miter;stroke-miterlimit:10;stroke-dasharray:none;stroke-opacity:1"
       transform="matrix(0.95744671,0,0,0.95744671,0.47872335,0.47872335)"
       clip-path="url(#clipPath34)" />
    <text
       id="text34"
       xml:space="preserve"
       transform="matrix(0.95745631,0,0,0.95745631,236.31219,181.9167)"
       clip-path="url(#clipPath35)"><tspan
         style="font-variant:normal;font-weight:normal;font-size:25px;font-family:Helvetica;writing-mode:lr-tb;fill:#000000;fill-opacity:1;fill-rule:nonzero;stroke:none"
         x="0 13.903809 26.403809 31.958008 45.861816"
         y="0"
         sodipodi:role="line"
         id="tspan34">axios</tspan></text>
    <path
       id="path36"
       d="m 101,140 h 140 v 81 H 101 Z"
       style="fill:#d5e8d4;fill-opacity:1;fill-rule:nonzero;stroke:#82b366;stroke-width:1;stroke-linecap:butt;stroke-linejoin:miter;stroke-miterlimit:10;stroke-dasharray:none;stroke-opacity:1"
       transform="matrix(0.95744671,0,0,0.95744671,0.47872335,0.47872335)"
       clip-path="url(#clipPath37)" />
    <text
       id="text37"
       xml:space="preserve"
       transform="matrix(0.95745631,0,0,0.95745631,138.4422,167.55485)"
       clip-path="url(#clipPath38)"><tspan
         style="font-variant:normal;font-weight:normal;font-size:25px;font-family:Helvetica;writing-mode:lr-tb;fill:#000000;fill-opacity:1;fill-rule:nonzero;stroke:none"
         x="0 18.054199 30.554199 44.458008"
         y="0"
         sodipodi:role="line"
         id="tspan37">User</tspan></text>
    <text
       id="text38"
       xml:space="preserve"
       transform="matrix(0.95745631,0,0,0.95745631,118.47026,196.27854)"
       clip-path="url(#clipPath39)"><tspan
         style="font-variant:normal;font-weight:normal;font-size:25px;font-family:Helvetica;writing-mode:lr-tb;fill:#000000;fill-opacity:1;fill-rule:nonzero;stroke:none"
         x="0 6.9458008 20.849609 33.349609 40.29541 54.199219 68.103027 80.603027"
         y="0"
         sodipodi:role="line"
         id="tspan38">Instance</tspan></text>
    <path
       id="path40"
       d="m 441,205.5 v -4.7 l -123.63,-0.05"
       style="fill:none;stroke:#000000;stroke-width:1;stroke-linecap:butt;stroke-linejoin:miter;stroke-miterlimit:10;stroke-dasharray:none;stroke-opacity:1"
       transform="matrix(0.95744671,0,0,0.95744671,0.47872335,0.47872335)"
       clip-path="url(#clipPath41)" />
    <path
       id="path42"
       d="m 312.12,200.75 7,-3.5 -1.75,3.5 1.75,3.50999 z"
       style="fill:#000000;fill-opacity:1;fill-rule:nonzero;stroke:#000000;stroke-width:1;stroke-linecap:butt;stroke-linejoin:miter;stroke-miterlimit:10;stroke-dasharray:none;stroke-opacity:1"
       transform="matrix(0.95744671,0,0,0.95744671,0.47872335,0.47872335)"
       clip-path="url(#clipPath43)" />
    <path
       id="path44"
       d="m 441,100.5 h 120 v 140 H 441 Z"
       style="fill:#dae8fc;fill-opacity:1;fill-rule:nonzero;stroke:#6c8ebf;stroke-width:1;stroke-linecap:butt;stroke-linejoin:miter;stroke-miterlimit:10;stroke-dasharray:none;stroke-opacity:1"
       transform="matrix(0.95744671,0,0,0.95744671,0.47872335,0.47872335)"
       clip-path="url(#clipPath45)" />
    <text
       id="text45"
       xml:space="preserve"
       transform="matrix(0.95745631,0,0,0.95745631,447.08722,157.98029)"
       clip-path="url(#clipPath46)"><tspan
         style="font-variant:normal;font-weight:700;font-size:25px;font-family:Helvetica;writing-mode:lr-tb;fill:#000000;fill-opacity:1;fill-rule:nonzero;stroke:none"
         x="0 13.903809 30.578613 50.024414"
         y="0"
         sodipodi:role="line"
         id="tspan45">JSON</tspan></text>
    <text
       id="text46"
       xml:space="preserve"
       transform="matrix(0.95745631,0,0,0.95745631,442.40466,186.70398)"
       clip-path="url(#clipPath47)"><tspan
         style="font-variant:normal;font-weight:700;font-size:25px;font-family:Helvetica;writing-mode:lr-tb;fill:#000000;fill-opacity:1;fill-rule:nonzero;stroke:none"
         x="0 16.674805 30.578613 40.307617 54.211426 68.115234"
         y="0"
         sodipodi:role="line"
         id="tspan46">Server</tspan></text>
    <path
       id="path48"
       d="m 311,160.25 65,0.05 56.60001,0.23999"
       style="fill:none;stroke:#000000;stroke-width:1;stroke-linecap:butt;stroke-linejoin:miter;stroke-miterlimit:10;stroke-dasharray:none;stroke-opacity:1"
       transform="matrix(0.95744671,0,0,0.95744671,0.47872335,0.47872335)"
       clip-path="url(#clipPath49)" />
    <path
       id="path50"
       d="m 437.85001,160.56 -7.02002,3.47 1.77002,-3.49001 -1.74002,-3.50999 z"
       style="fill:#000000;fill-opacity:1;fill-rule:nonzero;stroke:#000000;stroke-width:1;stroke-linecap:butt;stroke-linejoin:miter;stroke-miterlimit:10;stroke-dasharray:none;stroke-opacity:1"
       transform="matrix(0.95744671,0,0,0.95744671,0.47872335,0.47872335)"
       clip-path="url(#clipPath51)" />
    <text
       id="text51"
       xml:space="preserve"
       transform="matrix(0.95745631,0,0,0.95745631,336.86006,150.32064)"
       clip-path="url(#clipPath52)"><tspan
         style="font-style:oblique;font-variant:normal;font-weight:normal;font-size:21px;font-family:Helvetica;writing-mode:lr-tb;fill:#000000;fill-opacity:1;fill-rule:nonzero;stroke:none"
         x="0 10.5 22.179199 32.679199 44.358398 51.351562"
         y="0"
         sodipodi:role="line"
         id="tspan51">save()</tspan></text>
    <text
       id="text52"
       xml:space="preserve"
       transform="matrix(0.95745631,0,0,0.95745631,336.30653,208.72548)"
       clip-path="url(#clipPath53)"><tspan
         style="font-style:oblique;font-variant:normal;font-weight:normal;font-size:21px;font-family:Helvetica;writing-mode:lr-tb;fill:#000000;fill-opacity:1;fill-rule:nonzero;stroke:none"
         x="0 5.8344727 17.513672 23.348145 33.848145 45.527344 52.520508"
         y="0"
         sodipodi:role="line"
         id="tspan52">fetch()</tspan></text>
  </g>
</svg>
