<?xml version="1.0" encoding="UTF-8" standalone="no"?>
<!-- Created with Inkscape (http://www.inkscape.org/) -->

<svg
   version="1.1"
   id="svg1"
   width="530.56"
   height="282.56"
   viewBox="0 0 530.56 282.56"
   sodipodi:docname="ts-8.pdf"
   xmlns:inkscape="http://www.inkscape.org/namespaces/inkscape"
   xmlns:sodipodi="http://sodipodi.sourceforge.net/DTD/sodipodi-0.dtd"
   xmlns="http://www.w3.org/2000/svg"
   xmlns:svg="http://www.w3.org/2000/svg">
  <defs
     id="defs1">
    <clipPath
       clipPathUnits="userSpaceOnUse"
       id="clipPath2">
      <path
         d="M 0,0 H 1658.3334 V 883.04755 H 0 Z"
         transform="scale(0.33407035)"
         clip-rule="evenodd"
         id="path2" />
    </clipPath>
    <clipPath
       clipPathUnits="userSpaceOnUse"
       id="clipPath4">
      <path
         d="M 0,0 H 1658.3334 V 880.05414 H 0 Z"
         transform="matrix(0.33407035,0,0,0.33407035,-0.5,-0.5)"
         clip-rule="evenodd"
         id="path4" />
    </clipPath>
    <clipPath
       clipPathUnits="userSpaceOnUse"
       id="clipPath6">
      <path
         d="M 0,0 H 1658.3334 V 880.05414 H 0 Z"
         transform="matrix(0.33407035,0,0,0.33407035,-0.5,-0.5)"
         clip-rule="evenodd"
         id="path6" />
    </clipPath>
    <clipPath
       clipPathUnits="userSpaceOnUse"
       id="clipPath8">
      <path
         d="M 0,0 H 1658.3334 V 880.05414 H 0 Z"
         transform="matrix(0.33407035,0,0,0.33407035,-0.5,-0.5)"
         clip-rule="evenodd"
         id="path8" />
    </clipPath>
    <clipPath
       clipPathUnits="userSpaceOnUse"
       id="clipPath9">
      <path
         d="M 0,0 H 1658.3334 V 880.05414 H 0 Z"
         transform="matrix(0.334067,0,0,0.334067,-222.40625,-33)"
         clip-rule="evenodd"
         id="path9" />
    </clipPath>
    <clipPath
       clipPathUnits="userSpaceOnUse"
       id="clipPath11">
      <path
         d="M 0,0 H 1658.3334 V 880.05414 H 0 Z"
         transform="matrix(0.33407035,0,0,0.33407035,-0.5,-0.5)"
         clip-rule="evenodd"
         id="path11" />
    </clipPath>
    <clipPath
       clipPathUnits="userSpaceOnUse"
       id="clipPath13">
      <path
         d="M 0,0 H 1658.3334 V 880.05414 H 0 Z"
         transform="matrix(0.33407035,0,0,0.33407035,-0.5,-0.5)"
         clip-rule="evenodd"
         id="path13" />
    </clipPath>
    <clipPath
       clipPathUnits="userSpaceOnUse"
       id="clipPath15">
      <path
         d="M 0,0 H 1658.3334 V 880.05414 H 0 Z"
         transform="matrix(0.33407035,0,0,0.33407035,-0.5,-0.5)"
         clip-rule="evenodd"
         id="path15" />
    </clipPath>
    <clipPath
       clipPathUnits="userSpaceOnUse"
       id="clipPath16">
      <path
         d="M 0,0 H 1658.3334 V 880.05414 H 0 Z"
         transform="matrix(0.334067,0,0,0.334067,-49.40625,-33)"
         clip-rule="evenodd"
         id="path16" />
    </clipPath>
    <clipPath
       clipPathUnits="userSpaceOnUse"
       id="clipPath18">
      <path
         d="M 0,0 H 1658.3334 V 880.05414 H 0 Z"
         transform="matrix(0.33407035,0,0,0.33407035,-0.5,-0.5)"
         clip-rule="evenodd"
         id="path18" />
    </clipPath>
    <clipPath
       clipPathUnits="userSpaceOnUse"
       id="clipPath19">
      <path
         d="M 0,0 H 1658.3334 V 880.05414 H 0 Z"
         transform="matrix(0.334067,0,0,0.334067,-401.92188,-31)"
         clip-rule="evenodd"
         id="path19" />
    </clipPath>
    <clipPath
       clipPathUnits="userSpaceOnUse"
       id="clipPath21">
      <path
         d="M 0,0 H 1658.3334 V 880.05414 H 0 Z"
         transform="matrix(0.33407035,0,0,0.33407035,-0.5,-0.5)"
         clip-rule="evenodd"
         id="path21" />
    </clipPath>
    <clipPath
       clipPathUnits="userSpaceOnUse"
       id="clipPath23">
      <path
         d="M 0,0 H 1658.3334 V 880.05414 H 0 Z"
         transform="matrix(0.33407035,0,0,0.33407035,-0.5,-0.5)"
         clip-rule="evenodd"
         id="path23" />
    </clipPath>
    <clipPath
       clipPathUnits="userSpaceOnUse"
       id="clipPath25">
      <path
         d="M 0,0 H 1658.3334 V 880.05414 H 0 Z"
         transform="matrix(0.33407035,0,0,0.33407035,-0.5,-0.5)"
         clip-rule="evenodd"
         id="path25" />
    </clipPath>
    <clipPath
       clipPathUnits="userSpaceOnUse"
       id="clipPath26">
      <path
         d="M 0,0 H 1658.3334 V 880.05414 H 0 Z"
         transform="matrix(0.334067,0,0,0.334067,-208.96875,-93.000001)"
         clip-rule="evenodd"
         id="path26" />
    </clipPath>
    <clipPath
       clipPathUnits="userSpaceOnUse"
       id="clipPath28">
      <path
         d="M 0,0 H 1658.3334 V 880.05414 H 0 Z"
         transform="matrix(0.33407035,0,0,0.33407035,-0.5,-0.5)"
         clip-rule="evenodd"
         id="path28" />
    </clipPath>
    <clipPath
       clipPathUnits="userSpaceOnUse"
       id="clipPath30">
      <path
         d="M 0,0 H 1658.3334 V 880.05414 H 0 Z"
         transform="matrix(0.33407035,0,0,0.33407035,-0.5,-0.5)"
         clip-rule="evenodd"
         id="path30" />
    </clipPath>
    <clipPath
       clipPathUnits="userSpaceOnUse"
       id="clipPath32">
      <path
         d="M 0,0 H 1658.3334 V 880.05414 H 0 Z"
         transform="matrix(0.33407035,0,0,0.33407035,-0.5,-0.5)"
         clip-rule="evenodd"
         id="path32" />
    </clipPath>
    <clipPath
       clipPathUnits="userSpaceOnUse"
       id="clipPath33">
      <path
         d="M 0,0 H 1658.3334 V 880.05414 H 0 Z"
         transform="matrix(0.334067,0,0,0.334067,-49.40625,-93.000001)"
         clip-rule="evenodd"
         id="path33" />
    </clipPath>
    <clipPath
       clipPathUnits="userSpaceOnUse"
       id="clipPath35">
      <path
         d="M 0,0 H 1658.3334 V 880.05414 H 0 Z"
         transform="matrix(0.33407035,0,0,0.33407035,-0.5,-0.5)"
         clip-rule="evenodd"
         id="path35" />
    </clipPath>
    <clipPath
       clipPathUnits="userSpaceOnUse"
       id="clipPath36">
      <path
         d="M 0,0 H 1658.3334 V 880.05414 H 0 Z"
         transform="matrix(0.334067,0,0,0.334067,-370,-83)"
         clip-rule="evenodd"
         id="path36" />
    </clipPath>
    <clipPath
       clipPathUnits="userSpaceOnUse"
       id="clipPath37">
      <path
         d="M 0,0 H 1658.3334 V 880.05414 H 0 Z"
         transform="matrix(0.334067,0,0,0.334067,-449,-100)"
         clip-rule="evenodd"
         id="path37" />
    </clipPath>
    <clipPath
       clipPathUnits="userSpaceOnUse"
       id="clipPath39">
      <path
         d="M 0,0 H 1658.3334 V 880.05414 H 0 Z"
         transform="matrix(0.33407035,0,0,0.33407035,-0.5,-0.5)"
         clip-rule="evenodd"
         id="path39" />
    </clipPath>
    <clipPath
       clipPathUnits="userSpaceOnUse"
       id="clipPath41">
      <path
         d="M 0,0 H 1658.3334 V 880.05414 H 0 Z"
         transform="matrix(0.33407035,0,0,0.33407035,-0.5,-0.5)"
         clip-rule="evenodd"
         id="path41" />
    </clipPath>
    <clipPath
       clipPathUnits="userSpaceOnUse"
       id="clipPath43">
      <path
         d="M 0,0 H 1658.3334 V 880.05414 H 0 Z"
         transform="matrix(0.33407035,0,0,0.33407035,-0.5,-0.5)"
         clip-rule="evenodd"
         id="path43" />
    </clipPath>
    <clipPath
       clipPathUnits="userSpaceOnUse"
       id="clipPath44">
      <path
         d="M 0,0 H 1658.3334 V 880.05414 H 0 Z"
         transform="matrix(0.334067,0,0,0.334067,-222.98438,-153)"
         clip-rule="evenodd"
         id="path44" />
    </clipPath>
    <clipPath
       clipPathUnits="userSpaceOnUse"
       id="clipPath46">
      <path
         d="M 0,0 H 1658.3334 V 880.05414 H 0 Z"
         transform="matrix(0.33407035,0,0,0.33407035,-0.5,-0.5)"
         clip-rule="evenodd"
         id="path46" />
    </clipPath>
    <clipPath
       clipPathUnits="userSpaceOnUse"
       id="clipPath48">
      <path
         d="M 0,0 H 1658.3334 V 880.05414 H 0 Z"
         transform="matrix(0.33407035,0,0,0.33407035,-0.5,-0.5)"
         clip-rule="evenodd"
         id="path48" />
    </clipPath>
    <clipPath
       clipPathUnits="userSpaceOnUse"
       id="clipPath50">
      <path
         d="M 0,0 H 1658.3334 V 880.05414 H 0 Z"
         transform="matrix(0.33407035,0,0,0.33407035,-0.5,-0.5)"
         clip-rule="evenodd"
         id="path50" />
    </clipPath>
    <clipPath
       clipPathUnits="userSpaceOnUse"
       id="clipPath51">
      <path
         d="M 0,0 H 1658.3334 V 880.05414 H 0 Z"
         transform="matrix(0.334067,0,0,0.334067,-42.40625,-153)"
         clip-rule="evenodd"
         id="path51" />
    </clipPath>
    <clipPath
       clipPathUnits="userSpaceOnUse"
       id="clipPath53">
      <path
         d="M 0,0 H 1658.3334 V 880.05414 H 0 Z"
         transform="matrix(0.33407035,0,0,0.33407035,-0.5,-0.5)"
         clip-rule="evenodd"
         id="path53" />
    </clipPath>
    <clipPath
       clipPathUnits="userSpaceOnUse"
       id="clipPath54">
      <path
         d="M 0,0 H 1658.3334 V 880.05414 H 0 Z"
         transform="matrix(0.334067,0,0,0.334067,-399.1875,-151)"
         clip-rule="evenodd"
         id="path54" />
    </clipPath>
    <clipPath
       clipPathUnits="userSpaceOnUse"
       id="clipPath56">
      <path
         d="M 0,0 H 1658.3334 V 880.05414 H 0 Z"
         transform="matrix(0.33407035,0,0,0.33407035,-0.5,-0.5)"
         clip-rule="evenodd"
         id="path56" />
    </clipPath>
    <clipPath
       clipPathUnits="userSpaceOnUse"
       id="clipPath58">
      <path
         d="M 0,0 H 1658.3334 V 880.05414 H 0 Z"
         transform="matrix(0.33407035,0,0,0.33407035,-0.5,-0.5)"
         clip-rule="evenodd"
         id="path58" />
    </clipPath>
    <clipPath
       clipPathUnits="userSpaceOnUse"
       id="clipPath60">
      <path
         d="M 0,0 H 1658.3334 V 880.05414 H 0 Z"
         transform="matrix(0.33407035,0,0,0.33407035,-0.5,-0.5)"
         clip-rule="evenodd"
         id="path60" />
    </clipPath>
    <clipPath
       clipPathUnits="userSpaceOnUse"
       id="clipPath61">
      <path
         d="M 0,0 H 1658.3334 V 880.05414 H 0 Z"
         transform="matrix(0.334067,0,0,0.334067,-208.96875,-213)"
         clip-rule="evenodd"
         id="path61" />
    </clipPath>
    <clipPath
       clipPathUnits="userSpaceOnUse"
       id="clipPath63">
      <path
         d="M 0,0 H 1658.3334 V 880.05414 H 0 Z"
         transform="matrix(0.33407035,0,0,0.33407035,-0.5,-0.5)"
         clip-rule="evenodd"
         id="path63" />
    </clipPath>
    <clipPath
       clipPathUnits="userSpaceOnUse"
       id="clipPath65">
      <path
         d="M 0,0 H 1658.3334 V 880.05414 H 0 Z"
         transform="matrix(0.33407035,0,0,0.33407035,-0.5,-0.5)"
         clip-rule="evenodd"
         id="path65" />
    </clipPath>
    <clipPath
       clipPathUnits="userSpaceOnUse"
       id="clipPath67">
      <path
         d="M 0,0 H 1658.3334 V 880.05414 H 0 Z"
         transform="matrix(0.33407035,0,0,0.33407035,-0.5,-0.5)"
         clip-rule="evenodd"
         id="path67" />
    </clipPath>
    <clipPath
       clipPathUnits="userSpaceOnUse"
       id="clipPath68">
      <path
         d="M 0,0 H 1658.3334 V 880.05414 H 0 Z"
         transform="matrix(0.334067,0,0,0.334067,-50,-213)"
         clip-rule="evenodd"
         id="path68" />
    </clipPath>
    <clipPath
       clipPathUnits="userSpaceOnUse"
       id="clipPath70">
      <path
         d="M 0,0 H 1658.3334 V 880.05414 H 0 Z"
         transform="matrix(0.33407035,0,0,0.33407035,-0.5,-0.5)"
         clip-rule="evenodd"
         id="path70" />
    </clipPath>
    <clipPath
       clipPathUnits="userSpaceOnUse"
       id="clipPath71">
      <path
         d="M 0,0 H 1658.3334 V 880.05414 H 0 Z"
         transform="matrix(0.334067,0,0,0.334067,-412.40625,-211)"
         clip-rule="evenodd"
         id="path71" />
    </clipPath>
    <clipPath
       clipPathUnits="userSpaceOnUse"
       id="clipPath73">
      <path
         d="M 0,0 H 1658.3334 V 880.05414 H 0 Z"
         transform="matrix(0.33407035,0,0,0.33407035,-0.5,-0.5)"
         clip-rule="evenodd"
         id="path73" />
    </clipPath>
    <clipPath
       clipPathUnits="userSpaceOnUse"
       id="clipPath75">
      <path
         d="M 0,0 H 1658.3334 V 880.05414 H 0 Z"
         transform="matrix(0.33407035,0,0,0.33407035,-0.5,-0.5)"
         clip-rule="evenodd"
         id="path75" />
    </clipPath>
    <clipPath
       clipPathUnits="userSpaceOnUse"
       id="clipPath77">
      <path
         d="M 0,0 H 1658.3334 V 880.05414 H 0 Z"
         transform="matrix(0.33407035,0,0,0.33407035,-0.5,-0.5)"
         clip-rule="evenodd"
         id="path77" />
    </clipPath>
    <clipPath
       clipPathUnits="userSpaceOnUse"
       id="clipPath78">
      <path
         d="M 0,0 H 1658.3334 V 880.05414 H 0 Z"
         transform="matrix(0.334067,0,0,0.334067,-208.96875,-273)"
         clip-rule="evenodd"
         id="path78" />
    </clipPath>
    <clipPath
       clipPathUnits="userSpaceOnUse"
       id="clipPath80">
      <path
         d="M 0,0 H 1658.3334 V 880.05414 H 0 Z"
         transform="matrix(0.33407035,0,0,0.33407035,-0.5,-0.5)"
         clip-rule="evenodd"
         id="path80" />
    </clipPath>
    <clipPath
       clipPathUnits="userSpaceOnUse"
       id="clipPath82">
      <path
         d="M 0,0 H 1658.3334 V 880.05414 H 0 Z"
         transform="matrix(0.33407035,0,0,0.33407035,-0.5,-0.5)"
         clip-rule="evenodd"
         id="path82" />
    </clipPath>
    <clipPath
       clipPathUnits="userSpaceOnUse"
       id="clipPath84">
      <path
         d="M 0,0 H 1658.3334 V 880.05414 H 0 Z"
         transform="matrix(0.33407035,0,0,0.33407035,-0.5,-0.5)"
         clip-rule="evenodd"
         id="path84" />
    </clipPath>
    <clipPath
       clipPathUnits="userSpaceOnUse"
       id="clipPath85">
      <path
         d="M 0,0 H 1658.3334 V 880.05414 H 0 Z"
         transform="matrix(0.334067,0,0,0.334067,-30.140625,-273)"
         clip-rule="evenodd"
         id="path85" />
    </clipPath>
    <clipPath
       clipPathUnits="userSpaceOnUse"
       id="clipPath87">
      <path
         d="M 0,0 H 1658.3334 V 880.05414 H 0 Z"
         transform="matrix(0.33407035,0,0,0.33407035,-0.5,-0.5)"
         clip-rule="evenodd"
         id="path87" />
    </clipPath>
    <clipPath
       clipPathUnits="userSpaceOnUse"
       id="clipPath88">
      <path
         d="M 0,0 H 1658.3334 V 880.05414 H 0 Z"
         transform="matrix(0.334067,0,0,0.334067,-414.75,-271)"
         clip-rule="evenodd"
         id="path88" />
    </clipPath>
  </defs>
  <sodipodi:namedview
     id="namedview1"
     pagecolor="#ffffff"
     bordercolor="#000000"
     borderopacity="0.25"
     inkscape:showpageshadow="2"
     inkscape:pageopacity="0.0"
     inkscape:pagecheckerboard="0"
     inkscape:deskcolor="#d1d1d1">
    <inkscape:page
       x="0"
       y="0"
       inkscape:label="1"
       id="page1"
       width="530.56"
       height="282.56"
       margin="0"
       bleed="0" />
  </sodipodi:namedview>
  <g
     id="g1"
     inkscape:groupmode="layer"
     inkscape:label="1">
    <path
       id="path1"
       d="M 0,0 H 554 V 295 H 0 Z"
       style="fill:#ffffff;fill-opacity:1;fill-rule:nonzero;stroke:none"
       transform="scale(0.95788204)"
       clip-path="url(#clipPath2)" />
    <path
       id="path3"
       d="m 321,26 h 33.64001"
       style="fill:none;stroke:#000000;stroke-width:1;stroke-linecap:butt;stroke-linejoin:miter;stroke-miterlimit:10;stroke-dasharray:none;stroke-opacity:1"
       transform="matrix(0.95788204,0,0,0.95788204,0.47894102,0.47894102)"
       clip-path="url(#clipPath4)" />
    <path
       id="path5"
       d="m 359.89001,26 -7,3.5 1.75,-3.5 -1.75,-3.5 z"
       style="fill:#000000;fill-opacity:1;fill-rule:nonzero;stroke:#000000;stroke-width:1;stroke-linecap:butt;stroke-linejoin:miter;stroke-miterlimit:10;stroke-dasharray:none;stroke-opacity:1"
       transform="matrix(0.95788204,0,0,0.95788204,0.47894102,0.47894102)"
       clip-path="url(#clipPath6)" />
    <path
       id="path7"
       d="M 181,1 H 321 V 51 H 181 Z"
       style="fill:#dae8fc;fill-opacity:1;fill-rule:nonzero;stroke:#6c8ebf;stroke-width:1;stroke-linecap:butt;stroke-linejoin:miter;stroke-miterlimit:10;stroke-dasharray:none;stroke-opacity:1"
       transform="matrix(0.95788204,0,0,0.95788204,0.47894102,0.47894102)"
       clip-path="url(#clipPath8)" />
    <text
       id="text8"
       xml:space="preserve"
       transform="matrix(0.95789164,0,0,0.95789164,213.04109,31.610424)"
       clip-path="url(#clipPath9)"><tspan
         style="font-variant:normal;font-weight:normal;font-size:21px;font-family:Helvetica;writing-mode:lr-tb;fill:#000000;fill-opacity:1;fill-rule:nonzero;stroke:none"
         x="0 5.8344727 17.513672 28.013672 39.692871 46.686035"
         y="0"
         sodipodi:role="line"
         id="tspan8">/users</tspan></text>
    <path
       id="path10"
       d="m 141,26 h 33.63"
       style="fill:none;stroke:#000000;stroke-width:1;stroke-linecap:butt;stroke-linejoin:miter;stroke-miterlimit:10;stroke-dasharray:none;stroke-opacity:1"
       transform="matrix(0.95788204,0,0,0.95788204,0.47894102,0.47894102)"
       clip-path="url(#clipPath11)" />
    <path
       id="path12"
       d="m 179.88,26 -7,3.5 1.75,-3.5 -1.75,-3.5 z"
       style="fill:#000000;fill-opacity:1;fill-rule:nonzero;stroke:#000000;stroke-width:1;stroke-linecap:butt;stroke-linejoin:miter;stroke-miterlimit:10;stroke-dasharray:none;stroke-opacity:1"
       transform="matrix(0.95788204,0,0,0.95788204,0.47894102,0.47894102)"
       clip-path="url(#clipPath13)" />
    <path
       id="path14"
       d="M 1,1 H 141 V 51 H 1 Z"
       style="fill:#d5e8d4;fill-opacity:1;fill-rule:nonzero;stroke:#82b366;stroke-width:1;stroke-linecap:butt;stroke-linejoin:miter;stroke-miterlimit:10;stroke-dasharray:none;stroke-opacity:1"
       transform="matrix(0.95788204,0,0,0.95788204,0.47894102,0.47894102)"
       clip-path="url(#clipPath15)" />
    <text
       id="text15"
       xml:space="preserve"
       transform="matrix(0.95789164,0,0,0.95789164,47.325834,31.610424)"
       clip-path="url(#clipPath16)"><tspan
         style="font-variant:normal;font-weight:normal;font-size:21px;font-family:Helvetica;writing-mode:lr-tb;fill:#000000;fill-opacity:1;fill-rule:nonzero;stroke:none"
         x="0 16.334473 30.341309"
         y="0"
         sodipodi:role="line"
         id="tspan15">GET</tspan></text>
    <path
       id="path17"
       d="M 361,1 H 551 V 51 H 361 Z"
       style="fill:#ffffff;fill-opacity:1;fill-rule:nonzero;stroke:#000000;stroke-width:1;stroke-linecap:butt;stroke-linejoin:miter;stroke-miterlimit:10;stroke-dasharray:none;stroke-opacity:1"
       transform="matrix(0.95788204,0,0,0.95788204,0.47894102,0.47894102)"
       clip-path="url(#clipPath18)" />
    <text
       id="text18"
       xml:space="preserve"
       transform="matrix(0.95789164,0,0,0.95789164,384.99761,29.694641)"
       clip-path="url(#clipPath19)"><tspan
         style="font-variant:normal;font-weight:normal;font-size:14px;font-family:Helvetica;writing-mode:lr-tb;fill:#000000;fill-opacity:1;fill-rule:nonzero;stroke:none"
         x="0 10.110352 17.896484 21.786133 26.448242 29.558594 37.344727 44.344727 52.130859 56.020508 63.806641 66.916992 70.027344 73.916992 81.703125 88.703125 96.489258 101.15137"
         y="0"
         sodipodi:role="line"
         id="tspan18">Retrieve all users</tspan></text>
    <path
       id="path20"
       d="m 321,86 h 33.64001"
       style="fill:none;stroke:#000000;stroke-width:1;stroke-linecap:butt;stroke-linejoin:miter;stroke-miterlimit:10;stroke-dasharray:none;stroke-opacity:1"
       transform="matrix(0.95788204,0,0,0.95788204,0.47894102,0.47894102)"
       clip-path="url(#clipPath21)" />
    <path
       id="path22"
       d="m 359.89001,86 -7,3.5 1.75,-3.5 -1.75,-3.5 z"
       style="fill:#000000;fill-opacity:1;fill-rule:nonzero;stroke:#000000;stroke-width:1;stroke-linecap:butt;stroke-linejoin:miter;stroke-miterlimit:10;stroke-dasharray:none;stroke-opacity:1"
       transform="matrix(0.95788204,0,0,0.95788204,0.47894102,0.47894102)"
       clip-path="url(#clipPath23)" />
    <path
       id="path24"
       d="m 181,61 h 140 v 50 H 181 Z"
       style="fill:#dae8fc;fill-opacity:1;fill-rule:nonzero;stroke:#6c8ebf;stroke-width:1;stroke-linecap:butt;stroke-linejoin:miter;stroke-miterlimit:10;stroke-dasharray:none;stroke-opacity:1"
       transform="matrix(0.95788204,0,0,0.95788204,0.47894102,0.47894102)"
       clip-path="url(#clipPath25)" />
    <text
       id="text25"
       xml:space="preserve"
       transform="matrix(0.95789164,0,0,0.95789164,200.16942,89.083923)"
       clip-path="url(#clipPath26)"><tspan
         style="font-variant:normal;font-weight:normal;font-size:21px;font-family:Helvetica;writing-mode:lr-tb;fill:#000000;fill-opacity:1;fill-rule:nonzero;stroke:none"
         x="0 5.8344727 17.513672 29.192871 39.692871 45.527344 56.027344 61.861816 67.696289 72.361816"
         y="0"
         sodipodi:role="line"
         id="tspan25">/posts/:id</tspan></text>
    <path
       id="path27"
       d="m 141,86 h 33.63"
       style="fill:none;stroke:#000000;stroke-width:1;stroke-linecap:butt;stroke-linejoin:miter;stroke-miterlimit:10;stroke-dasharray:none;stroke-opacity:1"
       transform="matrix(0.95788204,0,0,0.95788204,0.47894102,0.47894102)"
       clip-path="url(#clipPath28)" />
    <path
       id="path29"
       d="m 179.88,86 -7,3.5 1.75,-3.5 -1.75,-3.5 z"
       style="fill:#000000;fill-opacity:1;fill-rule:nonzero;stroke:#000000;stroke-width:1;stroke-linecap:butt;stroke-linejoin:miter;stroke-miterlimit:10;stroke-dasharray:none;stroke-opacity:1"
       transform="matrix(0.95788204,0,0,0.95788204,0.47894102,0.47894102)"
       clip-path="url(#clipPath30)" />
    <path
       id="path31"
       d="m 1,61 h 140 v 50 H 1 Z"
       style="fill:#d5e8d4;fill-opacity:1;fill-rule:nonzero;stroke:#82b366;stroke-width:1;stroke-linecap:butt;stroke-linejoin:miter;stroke-miterlimit:10;stroke-dasharray:none;stroke-opacity:1"
       transform="matrix(0.95788204,0,0,0.95788204,0.47894102,0.47894102)"
       clip-path="url(#clipPath32)" />
    <text
       id="text32"
       xml:space="preserve"
       transform="matrix(0.95789164,0,0,0.95789164,47.325834,89.083923)"
       clip-path="url(#clipPath33)"><tspan
         style="font-variant:normal;font-weight:normal;font-size:21px;font-family:Helvetica;writing-mode:lr-tb;fill:#000000;fill-opacity:1;fill-rule:nonzero;stroke:none"
         x="0 16.334473 30.341309"
         y="0"
         sodipodi:role="line"
         id="tspan32">GET</tspan></text>
    <path
       id="path34"
       d="m 361,61 h 190 v 50 H 361 Z"
       style="fill:#ffffff;fill-opacity:1;fill-rule:nonzero;stroke:#000000;stroke-width:1;stroke-linecap:butt;stroke-linejoin:miter;stroke-miterlimit:10;stroke-dasharray:none;stroke-opacity:1"
       transform="matrix(0.95788204,0,0,0.95788204,0.47894102,0.47894102)"
       clip-path="url(#clipPath35)" />
    <text
       id="text35"
       xml:space="preserve"
       transform="matrix(0.95789164,0,0,0.95789164,354.41991,79.505006)"
       clip-path="url(#clipPath36)"><tspan
         style="font-variant:normal;font-weight:normal;font-size:14px;font-family:Helvetica;writing-mode:lr-tb;fill:#000000;fill-opacity:1;fill-rule:nonzero;stroke:none"
         x="0 10.110352 17.896484 21.786133 26.448242 29.558594 37.344727 44.344727 52.130859 56.020508 63.806641 71.592773 78.592773 82.482422 86.37207 96.482422 99.592773 103.48242 111.26855 115.1582 119.04785 126.83398 134.62012 138.50977 146.2959 149.40625 156.40625 164.19238"
         y="0"
         sodipodi:role="line"
         id="tspan35">Retrieve post with the given</tspan></text>
    <text
       id="text36"
       xml:space="preserve"
       transform="matrix(0.95789164,0,0,0.95789164,430.09335,95.789164)"
       clip-path="url(#clipPath37)"><tspan
         style="font-variant:normal;font-weight:normal;font-size:14px;font-family:Helvetica;writing-mode:lr-tb;fill:#000000;fill-opacity:1;fill-rule:nonzero;stroke:none"
         x="0 3.8896484"
         y="0"
         sodipodi:role="line"
         id="tspan36">ID</tspan></text>
    <path
       id="path38"
       d="m 321,146 h 33.64001"
       style="fill:none;stroke:#000000;stroke-width:1;stroke-linecap:butt;stroke-linejoin:miter;stroke-miterlimit:10;stroke-dasharray:none;stroke-opacity:1"
       transform="matrix(0.95788204,0,0,0.95788204,0.47894102,0.47894102)"
       clip-path="url(#clipPath39)" />
    <path
       id="path40"
       d="m 359.89001,146 -7,3.5 1.75,-3.5 -1.75,-3.5 z"
       style="fill:#000000;fill-opacity:1;fill-rule:nonzero;stroke:#000000;stroke-width:1;stroke-linecap:butt;stroke-linejoin:miter;stroke-miterlimit:10;stroke-dasharray:none;stroke-opacity:1"
       transform="matrix(0.95788204,0,0,0.95788204,0.47894102,0.47894102)"
       clip-path="url(#clipPath41)" />
    <path
       id="path42"
       d="m 181,121 h 140 v 50 H 181 Z"
       style="fill:#dae8fc;fill-opacity:1;fill-rule:nonzero;stroke:#6c8ebf;stroke-width:1;stroke-linecap:butt;stroke-linejoin:miter;stroke-miterlimit:10;stroke-dasharray:none;stroke-opacity:1"
       transform="matrix(0.95788204,0,0,0.95788204,0.47894102,0.47894102)"
       clip-path="url(#clipPath43)" />
    <text
       id="text43"
       xml:space="preserve"
       transform="matrix(0.95789164,0,0,0.95789164,213.59487,146.55742)"
       clip-path="url(#clipPath44)"><tspan
         style="font-variant:normal;font-weight:normal;font-size:21px;font-family:Helvetica;writing-mode:lr-tb;fill:#000000;fill-opacity:1;fill-rule:nonzero;stroke:none"
         x="0 5.8344727 17.513672 29.192871 39.692871 45.527344"
         y="0"
         sodipodi:role="line"
         id="tspan43">/posts</tspan></text>
    <path
       id="path45"
       d="m 141,146 h 33.63"
       style="fill:none;stroke:#000000;stroke-width:1;stroke-linecap:butt;stroke-linejoin:miter;stroke-miterlimit:10;stroke-dasharray:none;stroke-opacity:1"
       transform="matrix(0.95788204,0,0,0.95788204,0.47894102,0.47894102)"
       clip-path="url(#clipPath46)" />
    <path
       id="path47"
       d="m 179.88,146 -7,3.5 1.75,-3.5 -1.75,-3.5 z"
       style="fill:#000000;fill-opacity:1;fill-rule:nonzero;stroke:#000000;stroke-width:1;stroke-linecap:butt;stroke-linejoin:miter;stroke-miterlimit:10;stroke-dasharray:none;stroke-opacity:1"
       transform="matrix(0.95788204,0,0,0.95788204,0.47894102,0.47894102)"
       clip-path="url(#clipPath48)" />
    <path
       id="path49"
       d="m 1,121 h 140 v 50 H 1 Z"
       style="fill:#d5e8d4;fill-opacity:1;fill-rule:nonzero;stroke:#82b366;stroke-width:1;stroke-linecap:butt;stroke-linejoin:miter;stroke-miterlimit:10;stroke-dasharray:none;stroke-opacity:1"
       transform="matrix(0.95788204,0,0,0.95788204,0.47894102,0.47894102)"
       clip-path="url(#clipPath50)" />
    <text
       id="text50"
       xml:space="preserve"
       transform="matrix(0.95789164,0,0,0.95789164,40.620592,146.55742)"
       clip-path="url(#clipPath51)"><tspan
         style="font-variant:normal;font-weight:normal;font-size:21px;font-family:Helvetica;writing-mode:lr-tb;fill:#000000;fill-opacity:1;fill-rule:nonzero;stroke:none"
         x="0 14.006836 30.341309 44.348145"
         y="0"
         sodipodi:role="line"
         id="tspan50">POST</tspan></text>
    <path
       id="path52"
       d="m 361,121 h 190 v 50 H 361 Z"
       style="fill:#ffffff;fill-opacity:1;fill-rule:nonzero;stroke:#000000;stroke-width:1;stroke-linecap:butt;stroke-linejoin:miter;stroke-miterlimit:10;stroke-dasharray:none;stroke-opacity:1"
       transform="matrix(0.95788204,0,0,0.95788204,0.47894102,0.47894102)"
       clip-path="url(#clipPath53)" />
    <text
       id="text53"
       xml:space="preserve"
       transform="matrix(0.95789164,0,0,0.95789164,382.37837,144.64164)"
       clip-path="url(#clipPath54)"><tspan
         style="font-variant:normal;font-weight:normal;font-size:14px;font-family:Helvetica;writing-mode:lr-tb;fill:#000000;fill-opacity:1;fill-rule:nonzero;stroke:none"
         x="0 10.110352 14.772461 22.558594 30.344727 34.234375 42.020508 45.910156 53.696289 57.585938 65.37207 73.158203 83.268555 87.158203 94.944336 102.73047 109.73047"
         y="0"
         sodipodi:role="line"
         id="tspan53">Create a new post</tspan></text>
    <path
       id="path55"
       d="m 321,206 h 33.64001"
       style="fill:none;stroke:#000000;stroke-width:1;stroke-linecap:butt;stroke-linejoin:miter;stroke-miterlimit:10;stroke-dasharray:none;stroke-opacity:1"
       transform="matrix(0.95788204,0,0,0.95788204,0.47894102,0.47894102)"
       clip-path="url(#clipPath56)" />
    <path
       id="path57"
       d="m 359.89001,206 -7,3.5 1.75,-3.5 -1.75,-3.5 z"
       style="fill:#000000;fill-opacity:1;fill-rule:nonzero;stroke:#000000;stroke-width:1;stroke-linecap:butt;stroke-linejoin:miter;stroke-miterlimit:10;stroke-dasharray:none;stroke-opacity:1"
       transform="matrix(0.95788204,0,0,0.95788204,0.47894102,0.47894102)"
       clip-path="url(#clipPath58)" />
    <path
       id="path59"
       d="m 181,181 h 140 v 50 H 181 Z"
       style="fill:#dae8fc;fill-opacity:1;fill-rule:nonzero;stroke:#6c8ebf;stroke-width:1;stroke-linecap:butt;stroke-linejoin:miter;stroke-miterlimit:10;stroke-dasharray:none;stroke-opacity:1"
       transform="matrix(0.95788204,0,0,0.95788204,0.47894102,0.47894102)"
       clip-path="url(#clipPath60)" />
    <text
       id="text60"
       xml:space="preserve"
       transform="matrix(0.95789164,0,0,0.95789164,200.16942,204.03092)"
       clip-path="url(#clipPath61)"><tspan
         style="font-variant:normal;font-weight:normal;font-size:21px;font-family:Helvetica;writing-mode:lr-tb;fill:#000000;fill-opacity:1;fill-rule:nonzero;stroke:none"
         x="0 5.8344727 17.513672 29.192871 39.692871 45.527344 56.027344 61.861816 67.696289 72.361816"
         y="0"
         sodipodi:role="line"
         id="tspan60">/posts/:id</tspan></text>
    <path
       id="path62"
       d="m 141,206 h 33.63"
       style="fill:none;stroke:#000000;stroke-width:1;stroke-linecap:butt;stroke-linejoin:miter;stroke-miterlimit:10;stroke-dasharray:none;stroke-opacity:1"
       transform="matrix(0.95788204,0,0,0.95788204,0.47894102,0.47894102)"
       clip-path="url(#clipPath63)" />
    <path
       id="path64"
       d="m 179.88,206 -7,3.5 1.75,-3.5 -1.75,-3.5 z"
       style="fill:#000000;fill-opacity:1;fill-rule:nonzero;stroke:#000000;stroke-width:1;stroke-linecap:butt;stroke-linejoin:miter;stroke-miterlimit:10;stroke-dasharray:none;stroke-opacity:1"
       transform="matrix(0.95788204,0,0,0.95788204,0.47894102,0.47894102)"
       clip-path="url(#clipPath65)" />
    <path
       id="path66"
       d="m 1,181 h 140 v 50 H 1 Z"
       style="fill:#d5e8d4;fill-opacity:1;fill-rule:nonzero;stroke:#82b366;stroke-width:1;stroke-linecap:butt;stroke-linejoin:miter;stroke-miterlimit:10;stroke-dasharray:none;stroke-opacity:1"
       transform="matrix(0.95788204,0,0,0.95788204,0.47894102,0.47894102)"
       clip-path="url(#clipPath67)" />
    <text
       id="text67"
       xml:space="preserve"
       transform="matrix(0.95789164,0,0,0.95789164,47.894582,204.03092)"
       clip-path="url(#clipPath68)"><tspan
         style="font-variant:normal;font-weight:normal;font-size:21px;font-family:Helvetica;writing-mode:lr-tb;fill:#000000;fill-opacity:1;fill-rule:nonzero;stroke:none"
         x="0 14.006836 29.172363"
         y="0"
         sodipodi:role="line"
         id="tspan67">PUT</tspan></text>
    <path
       id="path69"
       d="m 361,181 h 190 v 50 H 361 Z"
       style="fill:#ffffff;fill-opacity:1;fill-rule:nonzero;stroke:#000000;stroke-width:1;stroke-linecap:butt;stroke-linejoin:miter;stroke-miterlimit:10;stroke-dasharray:none;stroke-opacity:1"
       transform="matrix(0.95788204,0,0,0.95788204,0.47894102,0.47894102)"
       clip-path="url(#clipPath70)" />
    <text
       id="text70"
       xml:space="preserve"
       transform="matrix(0.95789164,0,0,0.95789164,395.0405,202.11514)"
       clip-path="url(#clipPath71)"><tspan
         style="font-variant:normal;font-weight:normal;font-size:14px;font-family:Helvetica;writing-mode:lr-tb;fill:#000000;fill-opacity:1;fill-rule:nonzero;stroke:none"
         x="0 10.110352 17.896484 25.682617 33.46875 37.358398 45.144531 49.03418 56.820312 60.709961 68.496094 76.282227 83.282227"
         y="0"
         sodipodi:role="line"
         id="tspan70">Update a post</tspan></text>
    <path
       id="path72"
       d="m 321,266 h 33.64001"
       style="fill:none;stroke:#000000;stroke-width:1;stroke-linecap:butt;stroke-linejoin:miter;stroke-miterlimit:10;stroke-dasharray:none;stroke-opacity:1"
       transform="matrix(0.95788204,0,0,0.95788204,0.47894102,0.47894102)"
       clip-path="url(#clipPath73)" />
    <path
       id="path74"
       d="m 359.89001,266 -7,3.5 1.75,-3.5 -1.75,-3.5 z"
       style="fill:#000000;fill-opacity:1;fill-rule:nonzero;stroke:#000000;stroke-width:1;stroke-linecap:butt;stroke-linejoin:miter;stroke-miterlimit:10;stroke-dasharray:none;stroke-opacity:1"
       transform="matrix(0.95788204,0,0,0.95788204,0.47894102,0.47894102)"
       clip-path="url(#clipPath75)" />
    <path
       id="path76"
       d="m 181,241 h 140 v 50 H 181 Z"
       style="fill:#dae8fc;fill-opacity:1;fill-rule:nonzero;stroke:#6c8ebf;stroke-width:1;stroke-linecap:butt;stroke-linejoin:miter;stroke-miterlimit:10;stroke-dasharray:none;stroke-opacity:1"
       transform="matrix(0.95788204,0,0,0.95788204,0.47894102,0.47894102)"
       clip-path="url(#clipPath77)" />
    <text
       id="text77"
       xml:space="preserve"
       transform="matrix(0.95789164,0,0,0.95789164,200.16942,261.50442)"
       clip-path="url(#clipPath78)"><tspan
         style="font-variant:normal;font-weight:normal;font-size:21px;font-family:Helvetica;writing-mode:lr-tb;fill:#000000;fill-opacity:1;fill-rule:nonzero;stroke:none"
         x="0 5.8344727 17.513672 29.192871 39.692871 45.527344 56.027344 61.861816 67.696289 72.361816"
         y="0"
         sodipodi:role="line"
         id="tspan77">/posts/:id</tspan></text>
    <path
       id="path79"
       d="m 141,266 h 33.63"
       style="fill:none;stroke:#000000;stroke-width:1;stroke-linecap:butt;stroke-linejoin:miter;stroke-miterlimit:10;stroke-dasharray:none;stroke-opacity:1"
       transform="matrix(0.95788204,0,0,0.95788204,0.47894102,0.47894102)"
       clip-path="url(#clipPath80)" />
    <path
       id="path81"
       d="m 179.88,266 -7,3.5 1.75,-3.5 -1.75,-3.5 z"
       style="fill:#000000;fill-opacity:1;fill-rule:nonzero;stroke:#000000;stroke-width:1;stroke-linecap:butt;stroke-linejoin:miter;stroke-miterlimit:10;stroke-dasharray:none;stroke-opacity:1"
       transform="matrix(0.95788204,0,0,0.95788204,0.47894102,0.47894102)"
       clip-path="url(#clipPath82)" />
    <path
       id="path83"
       d="m 1,241 h 140 v 50 H 1 Z"
       style="fill:#d5e8d4;fill-opacity:1;fill-rule:nonzero;stroke:#82b366;stroke-width:1;stroke-linecap:butt;stroke-linejoin:miter;stroke-miterlimit:10;stroke-dasharray:none;stroke-opacity:1"
       transform="matrix(0.95788204,0,0,0.95788204,0.47894102,0.47894102)"
       clip-path="url(#clipPath84)" />
    <text
       id="text84"
       xml:space="preserve"
       transform="matrix(0.95789164,0,0,0.95789164,28.871453,261.50442)"
       clip-path="url(#clipPath85)"><tspan
         style="font-variant:normal;font-weight:normal;font-size:21px;font-family:Helvetica;writing-mode:lr-tb;fill:#000000;fill-opacity:1;fill-rule:nonzero;stroke:none"
         x="0 15.165527 29.172363 40.851562 54.858398 67.686035"
         y="0"
         sodipodi:role="line"
         id="tspan84">DELETE</tspan></text>
    <path
       id="path86"
       d="m 361,241 h 190 v 50 H 361 Z"
       style="fill:#ffffff;fill-opacity:1;fill-rule:nonzero;stroke:#000000;stroke-width:1;stroke-linecap:butt;stroke-linejoin:miter;stroke-miterlimit:10;stroke-dasharray:none;stroke-opacity:1"
       transform="matrix(0.95788204,0,0,0.95788204,0.47894102,0.47894102)"
       clip-path="url(#clipPath87)" />
    <text
       id="text87"
       xml:space="preserve"
       transform="matrix(0.95789164,0,0,0.95789164,397.28556,259.58863)"
       clip-path="url(#clipPath88)"><tspan
         style="font-variant:normal;font-weight:normal;font-size:14px;font-family:Helvetica;writing-mode:lr-tb;fill:#000000;fill-opacity:1;fill-rule:nonzero;stroke:none"
         x="0 10.110352 17.896484 21.006836 28.792969 32.682617 40.46875 44.358398 52.144531 56.03418 63.820312 71.606445 78.606445"
         y="0"
         sodipodi:role="line"
         id="tspan87">Delete a post</tspan></text>
  </g>
</svg>
