<?xml version="1.0" encoding="UTF-8" standalone="no"?>
<!-- Created with Inkscape (http://www.inkscape.org/) -->

<svg
   version="1.1"
   id="svg1"
   width="606.71997"
   height="177.27998"
   viewBox="0 0 606.71997 177.27998"
   sodipodi:docname="ts-9.pdf"
   xmlns:inkscape="http://www.inkscape.org/namespaces/inkscape"
   xmlns:sodipodi="http://sodipodi.sourceforge.net/DTD/sodipodi-0.dtd"
   xmlns="http://www.w3.org/2000/svg"
   xmlns:svg="http://www.w3.org/2000/svg">
  <defs
     id="defs1">
    <clipPath
       clipPathUnits="userSpaceOnUse"
       id="clipPath2">
      <path
         d="M 0,0 H 1895.8333 V 554.07452 H 0 Z"
         transform="scale(0.33389012)"
         clip-rule="evenodd"
         id="path2" />
    </clipPath>
    <clipPath
       clipPathUnits="userSpaceOnUse"
       id="clipPath4">
      <path
         d="M 0,0 H 1895.8333 V 551.07947 H 0 Z"
         transform="matrix(0.33389012,0,0,0.33389012,-0.49999999,-0.49999999)"
         clip-rule="evenodd"
         id="path4" />
    </clipPath>
    <clipPath
       clipPathUnits="userSpaceOnUse"
       id="clipPath5">
      <path
         d="M 0,0 H 1895.8333 V 551.07947 H 0 Z"
         transform="matrix(0.33388677,0,0,0.33388677,-13.21875,-62)"
         clip-rule="evenodd"
         id="path5" />
    </clipPath>
    <clipPath
       clipPathUnits="userSpaceOnUse"
       id="clipPath6">
      <path
         d="M 0,0 H 1895.8333 V 551.07947 H 0 Z"
         transform="matrix(0.33388677,0,0,0.33388677,-5.96875,-86)"
         clip-rule="evenodd"
         id="path6" />
    </clipPath>
    <clipPath
       clipPathUnits="userSpaceOnUse"
       id="clipPath7">
      <path
         d="M 0,0 H 1895.8333 V 551.07947 H 0 Z"
         transform="matrix(0.33388677,0,0,0.33388677,-19.515625,-110)"
         clip-rule="evenodd"
         id="path7" />
    </clipPath>
    <clipPath
       clipPathUnits="userSpaceOnUse"
       id="clipPath8">
      <path
         d="M 0,0 H 1895.8333 V 551.07947 H 0 Z"
         transform="matrix(0.33388677,0,0,0.33388677,-75.4375,-134)"
         clip-rule="evenodd"
         id="path8" />
    </clipPath>
    <clipPath
       clipPathUnits="userSpaceOnUse"
       id="clipPath10">
      <path
         d="M 0,0 H 1895.8333 V 551.07947 H 0 Z"
         transform="matrix(0.33389012,0,0,0.33389012,-0.49999999,-0.49999999)"
         clip-rule="evenodd"
         id="path10" />
    </clipPath>
    <clipPath
       clipPathUnits="userSpaceOnUse"
       id="clipPath11">
      <path
         d="M 0,0 H 1895.8333 V 551.07947 H 0 Z"
         transform="matrix(0.33388677,0,0,0.33388677,-348.75,-23)"
         clip-rule="evenodd"
         id="path11" />
    </clipPath>
    <clipPath
       clipPathUnits="userSpaceOnUse"
       id="clipPath13">
      <path
         d="M 0,0 H 1895.8333 V 551.07947 H 0 Z"
         transform="matrix(0.33389012,0,0,0.33389012,-0.49999999,-0.49999999)"
         clip-rule="evenodd"
         id="path13" />
    </clipPath>
    <clipPath
       clipPathUnits="userSpaceOnUse"
       id="clipPath14">
      <path
         d="M 0,0 H 1895.8333 V 551.07947 H 0 Z"
         transform="matrix(0.33388677,0,0,0.33388677,-297.98438,-46)"
         clip-rule="evenodd"
         id="path14" />
    </clipPath>
    <clipPath
       clipPathUnits="userSpaceOnUse"
       id="clipPath16">
      <path
         d="M 0,0 H 1895.8333 V 551.07947 H 0 Z"
         transform="matrix(0.33389012,0,0,0.33389012,-0.49999999,-0.49999999)"
         clip-rule="evenodd"
         id="path16" />
    </clipPath>
    <clipPath
       clipPathUnits="userSpaceOnUse"
       id="clipPath17">
      <path
         d="M 0,0 H 1895.8333 V 551.07947 H 0 Z"
         transform="matrix(0.33388677,0,0,0.33388677,-395.45313,-46)"
         clip-rule="evenodd"
         id="path17" />
    </clipPath>
    <clipPath
       clipPathUnits="userSpaceOnUse"
       id="clipPath19">
      <path
         d="M 0,0 H 1895.8333 V 551.07947 H 0 Z"
         transform="matrix(0.33389012,0,0,0.33389012,-0.49999999,-0.49999999)"
         clip-rule="evenodd"
         id="path19" />
    </clipPath>
    <clipPath
       clipPathUnits="userSpaceOnUse"
       id="clipPath20">
      <path
         d="M 0,0 H 1895.8333 V 551.07947 H 0 Z"
         transform="matrix(0.33388677,0,0,0.33388677,-298.34374,-66)"
         clip-rule="evenodd"
         id="path20" />
    </clipPath>
    <clipPath
       clipPathUnits="userSpaceOnUse"
       id="clipPath22">
      <path
         d="M 0,0 H 1895.8333 V 551.07947 H 0 Z"
         transform="matrix(0.33389012,0,0,0.33389012,-0.49999999,-0.49999999)"
         clip-rule="evenodd"
         id="path22" />
    </clipPath>
    <clipPath
       clipPathUnits="userSpaceOnUse"
       id="clipPath23">
      <path
         d="M 0,0 H 1895.8333 V 551.07947 H 0 Z"
         transform="matrix(0.33388677,0,0,0.33388677,-365.45313,-66)"
         clip-rule="evenodd"
         id="path23" />
    </clipPath>
    <clipPath
       clipPathUnits="userSpaceOnUse"
       id="clipPath25">
      <path
         d="M 0,0 H 1895.8333 V 551.07947 H 0 Z"
         transform="matrix(0.33389012,0,0,0.33389012,-0.49999999,-0.49999999)"
         clip-rule="evenodd"
         id="path25" />
    </clipPath>
    <clipPath
       clipPathUnits="userSpaceOnUse"
       id="clipPath26">
      <path
         d="M 0,0 H 1895.8333 V 551.07947 H 0 Z"
         transform="matrix(0.33388677,0,0,0.33388677,-348.75,-133)"
         clip-rule="evenodd"
         id="path26" />
    </clipPath>
    <clipPath
       clipPathUnits="userSpaceOnUse"
       id="clipPath28">
      <path
         d="M 0,0 H 1895.8333 V 551.07947 H 0 Z"
         transform="matrix(0.33389012,0,0,0.33389012,-0.49999999,-0.49999999)"
         clip-rule="evenodd"
         id="path28" />
    </clipPath>
    <clipPath
       clipPathUnits="userSpaceOnUse"
       id="clipPath29">
      <path
         d="M 0,0 H 1895.8333 V 551.07947 H 0 Z"
         transform="matrix(0.33388677,0,0,0.33388677,-297.98438,-156)"
         clip-rule="evenodd"
         id="path29" />
    </clipPath>
    <clipPath
       clipPathUnits="userSpaceOnUse"
       id="clipPath31">
      <path
         d="M 0,0 H 1895.8333 V 551.07947 H 0 Z"
         transform="matrix(0.33389012,0,0,0.33389012,-0.49999999,-0.49999999)"
         clip-rule="evenodd"
         id="path31" />
    </clipPath>
    <clipPath
       clipPathUnits="userSpaceOnUse"
       id="clipPath32">
      <path
         d="M 0,0 H 1895.8333 V 551.07947 H 0 Z"
         transform="matrix(0.33388677,0,0,0.33388677,-395.45313,-156)"
         clip-rule="evenodd"
         id="path32" />
    </clipPath>
    <clipPath
       clipPathUnits="userSpaceOnUse"
       id="clipPath34">
      <path
         d="M 0,0 H 1895.8333 V 551.07947 H 0 Z"
         transform="matrix(0.33389012,0,0,0.33389012,-0.49999999,-0.49999999)"
         clip-rule="evenodd"
         id="path34" />
    </clipPath>
    <clipPath
       clipPathUnits="userSpaceOnUse"
       id="clipPath35">
      <path
         d="M 0,0 H 1895.8333 V 551.07947 H 0 Z"
         transform="matrix(0.33388677,0,0,0.33388677,-298.34374,-176)"
         clip-rule="evenodd"
         id="path35" />
    </clipPath>
    <clipPath
       clipPathUnits="userSpaceOnUse"
       id="clipPath37">
      <path
         d="M 0,0 H 1895.8333 V 551.07947 H 0 Z"
         transform="matrix(0.33389012,0,0,0.33389012,-0.49999999,-0.49999999)"
         clip-rule="evenodd"
         id="path37" />
    </clipPath>
    <clipPath
       clipPathUnits="userSpaceOnUse"
       id="clipPath38">
      <path
         d="M 0,0 H 1895.8333 V 551.07947 H 0 Z"
         transform="matrix(0.33388677,0,0,0.33388677,-381.35938,-176)"
         clip-rule="evenodd"
         id="path38" />
    </clipPath>
    <clipPath
       clipPathUnits="userSpaceOnUse"
       id="clipPath40">
      <path
         d="M 0,0 H 1895.8333 V 551.07947 H 0 Z"
         transform="matrix(-0.33389012,0,0,-0.33389012,982.49994,72.499998)"
         clip-rule="evenodd"
         id="path40" />
    </clipPath>
    <clipPath
       clipPathUnits="userSpaceOnUse"
       id="clipPath42">
      <path
         d="M 0,0 H 1895.8333 V 551.07947 H 0 Z"
         transform="matrix(-0.33389012,0,0,-0.33389012,982.49994,292.49999)"
         clip-rule="evenodd"
         id="path42" />
    </clipPath>
    <clipPath
       clipPathUnits="userSpaceOnUse"
       id="clipPath43">
      <path
         d="M 0,0 H 1895.8333 V 551.07947 H 0 Z"
         transform="matrix(0.33388677,0,0,0.33388677,-502.99999,-33)"
         clip-rule="evenodd"
         id="path43" />
    </clipPath>
    <clipPath
       clipPathUnits="userSpaceOnUse"
       id="clipPath44">
      <path
         d="M 0,0 H 1895.8333 V 551.07947 H 0 Z"
         transform="matrix(0.33388677,0,0,0.33388677,-502.99999,-49)"
         clip-rule="evenodd"
         id="path44" />
    </clipPath>
    <clipPath
       clipPathUnits="userSpaceOnUse"
       id="clipPath45">
      <path
         d="M 0,0 H 1895.8333 V 551.07947 H 0 Z"
         transform="matrix(0.33388677,0,0,0.33388677,-502.99999,-143)"
         clip-rule="evenodd"
         id="path45" />
    </clipPath>
    <clipPath
       clipPathUnits="userSpaceOnUse"
       id="clipPath46">
      <path
         d="M 0,0 H 1895.8333 V 551.07947 H 0 Z"
         transform="matrix(0.33388677,0,0,0.33388677,-502.99999,-159)"
         clip-rule="evenodd"
         id="path46" />
    </clipPath>
  </defs>
  <sodipodi:namedview
     id="namedview1"
     pagecolor="#ffffff"
     bordercolor="#000000"
     borderopacity="0.25"
     inkscape:showpageshadow="2"
     inkscape:pageopacity="0.0"
     inkscape:pagecheckerboard="0"
     inkscape:deskcolor="#d1d1d1">
    <inkscape:page
       x="0"
       y="0"
       inkscape:label="1"
       id="page1"
       width="606.71997"
       height="177.27998"
       margin="0"
       bleed="0" />
  </sodipodi:namedview>
  <g
     id="g1"
     inkscape:groupmode="layer"
     inkscape:label="1">
    <path
       id="path1"
       d="M 0,0 H 633 V 185 H 0 Z"
       style="fill:#ffffff;fill-opacity:1;fill-rule:nonzero;stroke:none"
       transform="scale(0.9583991)"
       clip-path="url(#clipPath2)" />
    <path
       id="path3"
       d="M 1,31 H 231 V 151 H 1 Z"
       style="fill:#d5e8d4;fill-opacity:1;fill-rule:nonzero;stroke:#82b366;stroke-width:1;stroke-linecap:butt;stroke-linejoin:miter;stroke-miterlimit:10;stroke-dasharray:none;stroke-opacity:1"
       transform="matrix(0.9583991,0,0,0.9583991,0.47919954,0.47919954)"
       clip-path="url(#clipPath4)" />
    <text
       id="text4"
       xml:space="preserve"
       transform="matrix(0.9584087,0,0,0.9584087,12.668965,59.421339)"
       clip-path="url(#clipPath5)"><tspan
         style="font-variant:normal;font-weight:700;font-size:20px;font-family:Helvetica;writing-mode:lr-tb;fill:#000000;fill-opacity:1;fill-rule:nonzero;stroke:none"
         x="0 14.443359 20 25.556641 31.113281 43.330078 49.990234 55.546875 67.763672 79.980469 87.763672 93.320312 111.10352 123.32031 135.53711 146.66016 152.2168 163.33984 168.89648 175.55664 187.77344 198.89648"
         y="0"
         sodipodi:role="line"
         id="tspan4">All of our models that</tspan></text>
    <text
       id="text5"
       xml:space="preserve"
       transform="matrix(0.9584087,0,0,0.9584087,5.7205019,82.423148)"
       clip-path="url(#clipPath6)"><tspan
         style="font-variant:normal;font-weight:700;font-size:20px;font-family:Helvetica;writing-mode:lr-tb;fill:#000000;fill-opacity:1;fill-rule:nonzero;stroke:none"
         x="0 12.216797 23.339844 34.462891 46.679688 52.236328 58.896484 71.113281 76.669922 88.886719 100.00977 105.56641 116.68945 127.8125 140.0293 151.15234 162.27539 174.49219 180.04883 195.60547 201.16211 207.82227"
         y="0"
         sodipodi:role="line"
         id="tspan5">need to be synced with</tspan></text>
    <text
       id="text6"
       xml:space="preserve"
       transform="matrix(0.9584087,0,0,0.9584087,18.703945,105.42496)"
       clip-path="url(#clipPath7)"><tspan
         style="font-variant:normal;font-weight:700;font-size:20px;font-family:Helvetica;writing-mode:lr-tb;fill:#000000;fill-opacity:1;fill-rule:nonzero;stroke:none"
         x="0 11.123047 16.679688 27.802734 38.925781 46.708984 57.832031 68.955078 76.738281 82.294922 94.511719 105.63477 116.75781 128.97461 134.53125 145.6543 157.87109 163.42773 168.18359 173.74023 188.18359"
         y="0"
         sodipodi:role="line"
         id="tspan6">a server need an 'ID'</tspan></text>
    <text
       id="text7"
       xml:space="preserve"
       transform="matrix(0.9584087,0,0,0.9584087,72.299956,128.42677)"
       clip-path="url(#clipPath8)"><tspan
         style="font-variant:normal;font-weight:700;font-size:20px;font-family:Helvetica;writing-mode:lr-tb;fill:#000000;fill-opacity:1;fill-rule:nonzero;stroke:none"
         x="0 12.216797 20 32.216797 44.433594 55.556641 63.339844 70"
         y="0"
         sodipodi:role="line"
         id="tspan7">property</tspan></text>
    <path
       id="path9"
       d="M 271,1 H 471 V 31 H 271 Z"
       style="fill:#dae8fc;fill-opacity:1;fill-rule:nonzero;stroke:#6c8ebf;stroke-width:1;stroke-linecap:butt;stroke-linejoin:miter;stroke-miterlimit:10;stroke-dasharray:none;stroke-opacity:1"
       transform="matrix(0.9583991,0,0,0.9583991,0.47919954,0.47919954)"
       clip-path="url(#clipPath10)" />
    <text
       id="text10"
       xml:space="preserve"
       transform="matrix(0.9584087,0,0,0.9584087,334.24503,22.0434)"
       clip-path="url(#clipPath11)"><tspan
         style="font-variant:normal;font-weight:700;font-size:20px;font-family:Helvetica;writing-mode:lr-tb;fill:#000000;fill-opacity:1;fill-rule:nonzero;stroke:none"
         x="0 14.443359 25.566406 36.689453"
         y="0"
         sodipodi:role="line"
         id="tspan10">User</tspan></text>
    <path
       id="path12"
       d="m 271,31 h 80 v 20 h -80 z"
       style="fill:#ffe6cc;fill-opacity:1;fill-rule:nonzero;stroke:#d79b00;stroke-width:1;stroke-linecap:butt;stroke-linejoin:miter;stroke-miterlimit:10;stroke-dasharray:none;stroke-opacity:1"
       transform="matrix(0.9583991,0,0,0.9583991,0.47919954,0.47919954)"
       clip-path="url(#clipPath13)" />
    <text
       id="text13"
       xml:space="preserve"
       transform="matrix(0.9584087,0,0,0.9584087,285.59082,44.0868)"
       clip-path="url(#clipPath14)"><tspan
         style="font-variant:normal;font-weight:normal;font-size:13px;font-family:Helvetica;writing-mode:lr-tb;fill:#000000;fill-opacity:1;fill-rule:nonzero;stroke:none"
         x="0 7.2299805 11.559082 18.789062"
         y="0"
         sodipodi:role="line"
         id="tspan13">prop</tspan></text>
    <path
       id="path15"
       d="M 351,31 H 471 V 51 H 351 Z"
       style="fill:#ffe6cc;fill-opacity:1;fill-rule:nonzero;stroke:#d79b00;stroke-width:1;stroke-linecap:butt;stroke-linejoin:miter;stroke-miterlimit:10;stroke-dasharray:none;stroke-opacity:1"
       transform="matrix(0.9583991,0,0,0.9583991,0.47919954,0.47919954)"
       clip-path="url(#clipPath16)" />
    <text
       id="text16"
       xml:space="preserve"
       transform="matrix(0.9584087,0,0,0.9584087,379.00572,44.0868)"
       clip-path="url(#clipPath17)"><tspan
         style="font-variant:normal;font-weight:normal;font-size:13px;font-family:Helvetica;writing-mode:lr-tb;fill:#000000;fill-opacity:1;fill-rule:nonzero;stroke:none"
         x="0 6.5 13.72998 16.618164 23.848145"
         y="0"
         sodipodi:role="line"
         id="tspan16">value</tspan></text>
    <path
       id="path18"
       d="m 271,51 h 80 v 20 h -80 z"
       style="fill:#ffffff;fill-opacity:1;fill-rule:nonzero;stroke:#000000;stroke-width:1;stroke-linecap:butt;stroke-linejoin:miter;stroke-miterlimit:10;stroke-dasharray:none;stroke-opacity:1"
       transform="matrix(0.9583991,0,0,0.9583991,0.47919954,0.47919954)"
       clip-path="url(#clipPath19)" />
    <text
       id="text19"
       xml:space="preserve"
       transform="matrix(0.9584087,0,0,0.9584087,285.93524,63.254974)"
       clip-path="url(#clipPath20)"><tspan
         style="font-variant:normal;font-weight:normal;font-size:13px;font-family:Helvetica;writing-mode:lr-tb;fill:#000000;fill-opacity:1;fill-rule:nonzero;stroke:none"
         x="0 7.2299805 14.459961 18.071777"
         y="0"
         sodipodi:role="line"
         id="tspan19">data</tspan></text>
    <path
       id="path21"
       d="M 351,51 H 471 V 71 H 351 Z"
       style="fill:#ffffff;fill-opacity:1;fill-rule:nonzero;stroke:#000000;stroke-width:1;stroke-linecap:butt;stroke-linejoin:miter;stroke-miterlimit:10;stroke-dasharray:none;stroke-opacity:1"
       transform="matrix(0.9583991,0,0,0.9583991,0.47919954,0.47919954)"
       clip-path="url(#clipPath22)" />
    <text
       id="text22"
       xml:space="preserve"
       transform="matrix(0.9584087,0,0,0.9584087,350.25346,63.254974)"
       clip-path="url(#clipPath23)"><tspan
         style="font-variant:normal;font-weight:normal;font-size:13px;font-family:Helvetica;writing-mode:lr-tb;fill:#000000;fill-opacity:1;fill-rule:nonzero;stroke:none"
         x="0 4.3417969 7.9536133 10.841797 18.071777 21.683594 25.29541 32.525391 36.137207 39.749023 46.979004 54.208984 61.438965 65.050781 68.662598 75.892578 83.122559 86.734375"
         y="0"
         sodipodi:role="line"
         id="tspan22">{ id: 1, age: 20 }</tspan></text>
    <path
       id="path24"
       d="m 271,111 h 200 v 30 H 271 Z"
       style="fill:#dae8fc;fill-opacity:1;fill-rule:nonzero;stroke:#6c8ebf;stroke-width:1;stroke-linecap:butt;stroke-linejoin:miter;stroke-miterlimit:10;stroke-dasharray:none;stroke-opacity:1"
       transform="matrix(0.9583991,0,0,0.9583991,0.47919954,0.47919954)"
       clip-path="url(#clipPath25)" />
    <text
       id="text25"
       xml:space="preserve"
       transform="matrix(0.9584087,0,0,0.9584087,334.24503,127.46836)"
       clip-path="url(#clipPath26)"><tspan
         style="font-variant:normal;font-weight:700;font-size:20px;font-family:Helvetica;writing-mode:lr-tb;fill:#000000;fill-opacity:1;fill-rule:nonzero;stroke:none"
         x="0 14.443359 25.566406 36.689453"
         y="0"
         sodipodi:role="line"
         id="tspan25">User</tspan></text>
    <path
       id="path27"
       d="m 271,141 h 80 v 20 h -80 z"
       style="fill:#ffe6cc;fill-opacity:1;fill-rule:nonzero;stroke:#d79b00;stroke-width:1;stroke-linecap:butt;stroke-linejoin:miter;stroke-miterlimit:10;stroke-dasharray:none;stroke-opacity:1"
       transform="matrix(0.9583991,0,0,0.9583991,0.47919954,0.47919954)"
       clip-path="url(#clipPath28)" />
    <text
       id="text28"
       xml:space="preserve"
       transform="matrix(0.9584087,0,0,0.9584087,285.59082,149.51176)"
       clip-path="url(#clipPath29)"><tspan
         style="font-variant:normal;font-weight:normal;font-size:13px;font-family:Helvetica;writing-mode:lr-tb;fill:#000000;fill-opacity:1;fill-rule:nonzero;stroke:none"
         x="0 7.2299805 11.559082 18.789062"
         y="0"
         sodipodi:role="line"
         id="tspan28">prop</tspan></text>
    <path
       id="path30"
       d="m 351,141 h 120 v 20 H 351 Z"
       style="fill:#ffe6cc;fill-opacity:1;fill-rule:nonzero;stroke:#d79b00;stroke-width:1;stroke-linecap:butt;stroke-linejoin:miter;stroke-miterlimit:10;stroke-dasharray:none;stroke-opacity:1"
       transform="matrix(0.9583991,0,0,0.9583991,0.47919954,0.47919954)"
       clip-path="url(#clipPath31)" />
    <text
       id="text31"
       xml:space="preserve"
       transform="matrix(0.9584087,0,0,0.9584087,379.00572,149.51176)"
       clip-path="url(#clipPath32)"><tspan
         style="font-variant:normal;font-weight:normal;font-size:13px;font-family:Helvetica;writing-mode:lr-tb;fill:#000000;fill-opacity:1;fill-rule:nonzero;stroke:none"
         x="0 6.5 13.72998 16.618164 23.848145"
         y="0"
         sodipodi:role="line"
         id="tspan31">value</tspan></text>
    <path
       id="path33"
       d="m 271,161 h 80 v 20 h -80 z"
       style="fill:#ffffff;fill-opacity:1;fill-rule:nonzero;stroke:#000000;stroke-width:1;stroke-linecap:butt;stroke-linejoin:miter;stroke-miterlimit:10;stroke-dasharray:none;stroke-opacity:1"
       transform="matrix(0.9583991,0,0,0.9583991,0.47919954,0.47919954)"
       clip-path="url(#clipPath34)" />
    <text
       id="text34"
       xml:space="preserve"
       transform="matrix(0.9584087,0,0,0.9584087,285.93524,168.67993)"
       clip-path="url(#clipPath35)"><tspan
         style="font-variant:normal;font-weight:normal;font-size:13px;font-family:Helvetica;writing-mode:lr-tb;fill:#000000;fill-opacity:1;fill-rule:nonzero;stroke:none"
         x="0 7.2299805 14.459961 18.071777"
         y="0"
         sodipodi:role="line"
         id="tspan34">data</tspan></text>
    <path
       id="path36"
       d="m 351,161 h 120 v 20 H 351 Z"
       style="fill:#ffffff;fill-opacity:1;fill-rule:nonzero;stroke:#000000;stroke-width:1;stroke-linecap:butt;stroke-linejoin:miter;stroke-miterlimit:10;stroke-dasharray:none;stroke-opacity:1"
       transform="matrix(0.9583991,0,0,0.9583991,0.47919954,0.47919954)"
       clip-path="url(#clipPath37)" />
    <text
       id="text37"
       xml:space="preserve"
       transform="matrix(0.9584087,0,0,0.9584087,365.49815,168.67993)"
       clip-path="url(#clipPath38)"><tspan
         style="font-variant:normal;font-weight:normal;font-size:13px;font-family:Helvetica;writing-mode:lr-tb;fill:#000000;fill-opacity:1;fill-rule:nonzero;stroke:none"
         x="0 4.3417969 7.9536133 15.183594 22.413574 29.643555 33.255371 36.867188 44.097168 51.327148 54.938965"
         y="0"
         sodipodi:role="line"
         id="tspan37">{ age: 20 }</tspan></text>
    <path
       id="path39"
       d="M 501.01001,1 H 496 c -3.33334,0 -5,3.333333 -5,10 v 15 c 0,6.666668 -1.66666,10 -5,10 h -2.5 c -1.66666,0 -0.83334,0 2.5,0 h 2.5 c 1.66666,0 2.5,3.333332 2.5,10 v 15 c 0,6.666664 1.66666,10 5,10 h 5.01001"
       style="fill:none;stroke:#000000;stroke-width:1;stroke-linecap:butt;stroke-linejoin:miter;stroke-miterlimit:10;stroke-dasharray:none;stroke-opacity:1"
       transform="matrix(-0.9583991,0,0,-0.9583991,941.62706,69.483933)"
       clip-path="url(#clipPath40)" />
    <path
       id="path41"
       d="M 501.01001,111 H 496 c -3.33334,0 -5,3.33334 -5,10 v 15 c 0,6.66667 -1.66666,10 -5,10 h -2.5 c -1.66666,0 -0.83334,0 2.5,0 h 2.5 c 1.66666,0 2.5,3.33333 2.5,10 v 15 c 0,6.66667 1.66666,10 5,10 h 5.01001"
       style="fill:none;stroke:#000000;stroke-width:1;stroke-linecap:butt;stroke-linejoin:miter;stroke-miterlimit:10;stroke-dasharray:none;stroke-opacity:1"
       transform="matrix(-0.9583991,0,0,-0.9583991,941.62706,280.33173)"
       clip-path="url(#clipPath42)" />
    <text
       id="text42"
       xml:space="preserve"
       transform="matrix(0.9584087,0,0,0.9584087,482.07957,31.627487)"
       clip-path="url(#clipPath43)"><tspan
         style="font-variant:normal;font-weight:normal;font-size:13px;font-family:Helvetica;writing-mode:lr-tb;fill:#000000;fill-opacity:1;fill-rule:nonzero;stroke:none"
         x="0 9.3881836 16.618164 23.118164 26.72998 33.959961 37.571777 44.071777 51.301758 55.630859 62.130859 69.36084 73.689941 78.019043 84.519043 87.407227 94.637207"
         y="0"
         sodipodi:role="line"
         id="tspan42">Has a server-side</tspan></text>
    <text
       id="text43"
       xml:space="preserve"
       transform="matrix(0.9584087,0,0,0.9584087,482.07957,46.962026)"
       clip-path="url(#clipPath44)"><tspan
         style="font-variant:normal;font-weight:normal;font-size:13px;font-family:Helvetica;writing-mode:lr-tb;fill:#000000;fill-opacity:1;fill-rule:nonzero;stroke:none"
         x="0 4.3291016 11.559082 18.789062 23.118164 30.348145 36.848145 44.078125 51.308105 54.919922 62.149902 65.761719 68.649902 75.879883"
         y="0"
         sodipodi:role="line"
         id="tspan43">representation</tspan></text>
    <text
       id="text44"
       xml:space="preserve"
       transform="matrix(0.9584087,0,0,0.9584087,482.07957,137.05244)"
       clip-path="url(#clipPath45)"><tspan
         style="font-variant:normal;font-weight:normal;font-size:13px;font-family:Helvetica;writing-mode:lr-tb;fill:#000000;fill-opacity:1;fill-rule:nonzero;stroke:none"
         x="0 8.6708984 13 20.22998 27.459961 34.689941 38.301758 45.531738 52.761719 62.149902 65.761719 69.373535 72.985352 82.373535 89.603516"
         y="0"
         sodipodi:role="line"
         id="tspan44">Brand new!  Not</tspan></text>
    <text
       id="text45"
       xml:space="preserve"
       transform="matrix(0.9584087,0,0,0.9584087,482.07957,152.38698)"
       clip-path="url(#clipPath46)"><tspan
         style="font-variant:normal;font-weight:normal;font-size:13px;font-family:Helvetica;writing-mode:lr-tb;fill:#000000;fill-opacity:1;fill-rule:nonzero;stroke:none"
         x="0 7.2299805 14.459961 18.789062 25.289062 28.177246 34.677246 38.289062 45.519043 52.749023 56.36084 62.86084 70.09082 74.419922 80.919922 88.149902 92.479004 96.808105 103.30811 106.19629 113.42627"
         y="0"
         sodipodi:role="line"
         id="tspan45">persisted server-side</tspan></text>
  </g>
</svg>
