<?xml version="1.0" encoding="UTF-8" standalone="no"?>
<!-- Created with Inkscape (http://www.inkscape.org/) -->

<svg
   version="1.1"
   id="svg1"
   width="554.56"
   height="138.56"
   viewBox="0 0 554.56 138.56"
   sodipodi:docname="ts-10.pdf"
   xmlns:inkscape="http://www.inkscape.org/namespaces/inkscape"
   xmlns:sodipodi="http://sodipodi.sourceforge.net/DTD/sodipodi-0.dtd"
   xmlns="http://www.w3.org/2000/svg"
   xmlns:svg="http://www.w3.org/2000/svg">
  <defs
     id="defs1">
    <clipPath
       clipPathUnits="userSpaceOnUse"
       id="clipPath2">
      <path
         d="M 0,0 H 1733.3333 V 431.08807 H 0 Z"
         transform="scale(0.33403848)"
         clip-rule="evenodd"
         id="path2" />
    </clipPath>
    <clipPath
       clipPathUnits="userSpaceOnUse"
       id="clipPath4">
      <path
         d="M 0,0 H 1733.3333 V 428.09439 H 0 Z"
         transform="matrix(0.33403848,0,0,0.33403848,-0.50000001,-0.50000001)"
         clip-rule="evenodd"
         id="path4" />
    </clipPath>
    <clipPath
       clipPathUnits="userSpaceOnUse"
       id="clipPath5">
      <path
         d="M 0,0 H 1733.3333 V 428.09439 H 0 Z"
         transform="matrix(0.33403512,0,0,0.33403512,-425.53125,-49)"
         clip-rule="evenodd"
         id="path5" />
    </clipPath>
    <clipPath
       clipPathUnits="userSpaceOnUse"
       id="clipPath7">
      <path
         d="M 0,0 H 1733.3333 V 428.09439 H 0 Z"
         transform="matrix(0.33403848,0,0,0.33403848,-0.50000001,-0.50000001)"
         clip-rule="evenodd"
         id="path7" />
    </clipPath>
    <clipPath
       clipPathUnits="userSpaceOnUse"
       id="clipPath8">
      <path
         d="M 0,0 H 1733.3333 V 428.09439 H 0 Z"
         transform="matrix(0.33403512,0,0,0.33403512,-418.98438,-73.000001)"
         clip-rule="evenodd"
         id="path8" />
    </clipPath>
    <clipPath
       clipPathUnits="userSpaceOnUse"
       id="clipPath10">
      <path
         d="M 0,0 H 1733.3333 V 428.09439 H 0 Z"
         transform="matrix(0.33403848,0,0,0.33403848,-0.50000001,-0.50000001)"
         clip-rule="evenodd"
         id="path10" />
    </clipPath>
    <clipPath
       clipPathUnits="userSpaceOnUse"
       id="clipPath11">
      <path
         d="M 0,0 H 1733.3333 V 428.09439 H 0 Z"
         transform="matrix(0.33403512,0,0,0.33403512,-518.65625,-73.000001)"
         clip-rule="evenodd"
         id="path11" />
    </clipPath>
    <clipPath
       clipPathUnits="userSpaceOnUse"
       id="clipPath13">
      <path
         d="M 0,0 H 1733.3333 V 428.09439 H 0 Z"
         transform="matrix(0.33403848,0,0,0.33403848,-0.50000001,-0.50000001)"
         clip-rule="evenodd"
         id="path13" />
    </clipPath>
    <clipPath
       clipPathUnits="userSpaceOnUse"
       id="clipPath14">
      <path
         d="M 0,0 H 1733.3333 V 428.09439 H 0 Z"
         transform="matrix(0.33403512,0,0,0.33403512,-430.98439,-93)"
         clip-rule="evenodd"
         id="path14" />
    </clipPath>
    <clipPath
       clipPathUnits="userSpaceOnUse"
       id="clipPath16">
      <path
         d="M 0,0 H 1733.3333 V 428.09439 H 0 Z"
         transform="matrix(0.33403848,0,0,0.33403848,-0.50000001,-0.50000001)"
         clip-rule="evenodd"
         id="path16" />
    </clipPath>
    <clipPath
       clipPathUnits="userSpaceOnUse"
       id="clipPath17">
      <path
         d="M 0,0 H 1733.3333 V 428.09439 H 0 Z"
         transform="matrix(0.33403512,0,0,0.33403512,-510.65625,-93)"
         clip-rule="evenodd"
         id="path17" />
    </clipPath>
    <clipPath
       clipPathUnits="userSpaceOnUse"
       id="clipPath19">
      <path
         d="M 0,0 H 1733.3333 V 428.09439 H 0 Z"
         transform="matrix(0.33403848,0,0,0.33403848,-0.50000001,-0.50000001)"
         clip-rule="evenodd"
         id="path19" />
    </clipPath>
    <clipPath
       clipPathUnits="userSpaceOnUse"
       id="clipPath20">
      <path
         d="M 0,0 H 1733.3333 V 428.09439 H 0 Z"
         transform="matrix(0.33403512,0,0,0.33403512,-421.3125,-113)"
         clip-rule="evenodd"
         id="path20" />
    </clipPath>
    <clipPath
       clipPathUnits="userSpaceOnUse"
       id="clipPath22">
      <path
         d="M 0,0 H 1733.3333 V 428.09439 H 0 Z"
         transform="matrix(0.33403848,0,0,0.33403848,-0.50000001,-0.50000001)"
         clip-rule="evenodd"
         id="path22" />
    </clipPath>
    <clipPath
       clipPathUnits="userSpaceOnUse"
       id="clipPath23">
      <path
         d="M 0,0 H 1733.3333 V 428.09439 H 0 Z"
         transform="matrix(0.33403512,0,0,0.33403512,-516.32813,-113)"
         clip-rule="evenodd"
         id="path23" />
    </clipPath>
    <clipPath
       clipPathUnits="userSpaceOnUse"
       id="clipPath25">
      <path
         d="M 0,0 H 1733.3333 V 428.09439 H 0 Z"
         transform="matrix(0.33403848,0,0,0.33403848,-0.50000001,-0.50000001)"
         clip-rule="evenodd"
         id="path25" />
    </clipPath>
    <clipPath
       clipPathUnits="userSpaceOnUse"
       id="clipPath26">
      <path
         d="M 0,0 H 1733.3333 V 428.09439 H 0 Z"
         transform="matrix(0.33403512,0,0,0.33403512,-11.53125,-118)"
         clip-rule="evenodd"
         id="path26" />
    </clipPath>
    <clipPath
       clipPathUnits="userSpaceOnUse"
       id="clipPath28">
      <path
         d="M 0,0 H 1733.3333 V 428.09439 H 0 Z"
         transform="matrix(0.33403848,0,0,0.33403848,-0.50000001,-0.50000001)"
         clip-rule="evenodd"
         id="path28" />
    </clipPath>
    <clipPath
       clipPathUnits="userSpaceOnUse"
       id="clipPath29">
      <path
         d="M 0,0 H 1733.3333 V 428.09439 H 0 Z"
         transform="matrix(0.33403512,0,0,0.33403512,-28.75,-37)"
         clip-rule="evenodd"
         id="path29" />
    </clipPath>
    <clipPath
       clipPathUnits="userSpaceOnUse"
       id="clipPath31">
      <path
         d="M 0,0 H 1733.3333 V 428.09439 H 0 Z"
         transform="matrix(-0.33403848,0,0,-0.33403848,322.5,141.50001)"
         clip-rule="evenodd"
         id="path31" />
    </clipPath>
    <clipPath
       clipPathUnits="userSpaceOnUse"
       id="clipPath33">
      <path
         d="M 0,0 H 1733.3333 V 428.09439 H 0 Z"
         transform="matrix(0.33403848,0,0,0.33403848,-0.50000001,-0.50000001)"
         clip-rule="evenodd"
         id="path33" />
    </clipPath>
    <clipPath
       clipPathUnits="userSpaceOnUse"
       id="clipPath35">
      <path
         d="M 0,0 H 1733.3333 V 428.09439 H 0 Z"
         transform="matrix(0.33403848,0,0,0.33403848,-0.50000001,-0.50000001)"
         clip-rule="evenodd"
         id="path35" />
    </clipPath>
    <clipPath
       clipPathUnits="userSpaceOnUse"
       id="clipPath36">
      <path
         d="M 0,0 H 1733.3333 V 428.09439 H 0 Z"
         transform="matrix(0.33403512,0,0,0.33403512,-199.84375,-40.000001)"
         clip-rule="evenodd"
         id="path36" />
    </clipPath>
    <clipPath
       clipPathUnits="userSpaceOnUse"
       id="clipPath37">
      <path
         d="M 0,0 H 1733.3333 V 428.09439 H 0 Z"
         transform="matrix(0.33403512,0,0,0.33403512,-197.625,-64)"
         clip-rule="evenodd"
         id="path37" />
    </clipPath>
    <clipPath
       clipPathUnits="userSpaceOnUse"
       id="clipPath38">
      <path
         d="M 0,0 H 1733.3333 V 428.09439 H 0 Z"
         transform="matrix(0.33403512,0,0,0.33403512,-188.73438,-88.000001)"
         clip-rule="evenodd"
         id="path38" />
    </clipPath>
    <clipPath
       clipPathUnits="userSpaceOnUse"
       id="clipPath39">
      <path
         d="M 0,0 H 1733.3333 V 428.09439 H 0 Z"
         transform="matrix(0.33403512,0,0,0.33403512,-227.65625,-88.000001)"
         clip-rule="evenodd"
         id="path39" />
    </clipPath>
    <clipPath
       clipPathUnits="userSpaceOnUse"
       id="clipPath40">
      <path
         d="M 0,0 H 1733.3333 V 428.09439 H 0 Z"
         transform="matrix(0.33403512,0,0,0.33403512,-299.90625,-88.000001)"
         clip-rule="evenodd"
         id="path40" />
    </clipPath>
    <clipPath
       clipPathUnits="userSpaceOnUse"
       id="clipPath41">
      <path
         d="M 0,0 H 1733.3333 V 428.09439 H 0 Z"
         transform="matrix(0.33403512,0,0,0.33403512,-187.70313,-112)"
         clip-rule="evenodd"
         id="path41" />
    </clipPath>
  </defs>
  <sodipodi:namedview
     id="namedview1"
     pagecolor="#ffffff"
     bordercolor="#000000"
     borderopacity="0.25"
     inkscape:showpageshadow="2"
     inkscape:pageopacity="0.0"
     inkscape:pagecheckerboard="0"
     inkscape:deskcolor="#d1d1d1">
    <inkscape:page
       x="0"
       y="0"
       inkscape:label="1"
       id="page1"
       width="554.56"
       height="138.56"
       margin="0"
       bleed="0" />
  </sodipodi:namedview>
  <g
     id="g1"
     inkscape:groupmode="layer"
     inkscape:label="1">
    <path
       id="path1"
       d="M 0,0 H 579 V 144 H 0 Z"
       style="fill:#ffffff;fill-opacity:1;fill-rule:nonzero;stroke:none"
       transform="scale(0.95797343)"
       clip-path="url(#clipPath2)" />
    <path
       id="path3"
       d="M 396,29 H 576 V 59 H 396 Z"
       style="fill:#dae8fc;fill-opacity:1;fill-rule:nonzero;stroke:#6c8ebf;stroke-width:1;stroke-linecap:butt;stroke-linejoin:miter;stroke-miterlimit:10;stroke-dasharray:none;stroke-opacity:1"
       transform="matrix(0.95797343,0,0,0.95797343,0.47898672,0.47898672)"
       clip-path="url(#clipPath4)" />
    <g
       id="g4" />
    <text
       id="text4"
       xml:space="preserve"
       transform="matrix(0.95798306,0,0,0.95798306,407.65173,46.94117)"
       clip-path="url(#clipPath5)"><tspan
         style="font-variant:normal;font-weight:700;font-size:16px;font-family:Helvetica;writing-mode:lr-tb;fill:#000000;fill-opacity:1;fill-rule:nonzero;stroke:none"
         x="0 4.4453125 14.21875 19.546875 28.445312 34.671875 40 48.898438 57.796875 66.695312 71.140625 81.8125 88.039062 97.8125 107.58594 112.03125"
         y="0"
         sodipodi:role="line"
         id="tspan4">interface Proﬁle</tspan></text>
    <path
       id="path6"
       d="m 396,59 h 90 v 20 h -90 z"
       style="fill:#d5e8d4;fill-opacity:1;fill-rule:nonzero;stroke:#82b366;stroke-width:1;stroke-linecap:butt;stroke-linejoin:miter;stroke-miterlimit:10;stroke-dasharray:none;stroke-opacity:1"
       transform="matrix(0.95797343,0,0,0.95797343,0.47898672,0.47898672)"
       clip-path="url(#clipPath7)" />
    <text
       id="text7"
       xml:space="preserve"
       transform="matrix(0.95798306,0,0,0.95798306,401.37994,69.932764)"
       clip-path="url(#clipPath8)"><tspan
         style="font-variant:normal;font-weight:normal;font-size:12px;font-family:Helvetica;writing-mode:lr-tb;fill:#000000;fill-opacity:1;fill-rule:nonzero;stroke:none"
         x="0 6.6738281 10.669922 17.34375 24.017578 30.691406 34.6875 38.021484"
         y="0"
         sodipodi:role="line"
         id="tspan7">property</tspan></text>
    <path
       id="path9"
       d="m 486,59 h 90 v 20 h -90 z"
       style="fill:#d5e8d4;fill-opacity:1;fill-rule:nonzero;stroke:#82b366;stroke-width:1;stroke-linecap:butt;stroke-linejoin:miter;stroke-miterlimit:10;stroke-dasharray:none;stroke-opacity:1"
       transform="matrix(0.95797343,0,0,0.95797343,0.47898672,0.47898672)"
       clip-path="url(#clipPath10)" />
    <text
       id="text10"
       xml:space="preserve"
       transform="matrix(0.95798306,0,0,0.95798306,496.8639,69.932764)"
       clip-path="url(#clipPath11)"><tspan
         style="font-variant:normal;font-weight:700;font-size:12px;font-family:Helvetica;writing-mode:lr-tb;fill:#000000;fill-opacity:1;fill-rule:nonzero;stroke:none"
         x="0 3.9960938 10.669922 18"
         y="0"
         sodipodi:role="line"
         id="tspan10">type</tspan></text>
    <path
       id="path12"
       d="m 396,79 h 90 v 20 h -90 z"
       style="fill:#ffffff;fill-opacity:1;fill-rule:nonzero;stroke:#000000;stroke-width:1;stroke-linecap:butt;stroke-linejoin:miter;stroke-miterlimit:10;stroke-dasharray:none;stroke-opacity:1"
       transform="matrix(0.95797343,0,0,0.95797343,0.47898672,0.47898672)"
       clip-path="url(#clipPath13)" />
    <text
       id="text13"
       xml:space="preserve"
       transform="matrix(0.95798306,0,0,0.95798306,412.87574,89.092425)"
       clip-path="url(#clipPath14)"><tspan
         style="font-variant:normal;font-weight:normal;font-size:12px;font-family:Helvetica;writing-mode:lr-tb;fill:#000000;fill-opacity:1;fill-rule:nonzero;stroke:none"
         x="0 6.6738281 13.347656"
         y="0"
         sodipodi:role="line"
         id="tspan13">age</tspan></text>
    <path
       id="path15"
       d="m 486,79 h 90 v 20 h -90 z"
       style="fill:#ffffff;fill-opacity:1;fill-rule:nonzero;stroke:#000000;stroke-width:1;stroke-linecap:butt;stroke-linejoin:miter;stroke-miterlimit:10;stroke-dasharray:none;stroke-opacity:1"
       transform="matrix(0.95797343,0,0,0.95797343,0.47898672,0.47898672)"
       clip-path="url(#clipPath16)" />
    <text
       id="text16"
       xml:space="preserve"
       transform="matrix(0.95798306,0,0,0.95798306,489.20004,89.092425)"
       clip-path="url(#clipPath17)"><tspan
         style="font-variant:normal;font-weight:normal;font-size:12px;font-family:Helvetica;writing-mode:lr-tb;fill:#000000;fill-opacity:1;fill-rule:nonzero;stroke:none"
         x="0 6.6738281 13.347656 23.34375 30.017578 36.691406"
         y="0"
         sodipodi:role="line"
         id="tspan16">number</tspan></text>
    <path
       id="path18"
       d="m 396,99 h 90 v 20 h -90 z"
       style="fill:#ffffff;fill-opacity:1;fill-rule:nonzero;stroke:#000000;stroke-width:1;stroke-linecap:butt;stroke-linejoin:miter;stroke-miterlimit:10;stroke-dasharray:none;stroke-opacity:1"
       transform="matrix(0.95797343,0,0,0.95797343,0.47898672,0.47898672)"
       clip-path="url(#clipPath19)" />
    <text
       id="text19"
       xml:space="preserve"
       transform="matrix(0.95798306,0,0,0.95798306,403.61024,108.25209)"
       clip-path="url(#clipPath20)"><tspan
         style="font-variant:normal;font-weight:normal;font-size:12px;font-family:Helvetica;writing-mode:lr-tb;fill:#000000;fill-opacity:1;fill-rule:nonzero;stroke:none"
         x="0 6 12.673828 19.347656 26.021484 29.355469 33.351562"
         y="0"
         sodipodi:role="line"
         id="tspan19">country</tspan></text>
    <path
       id="path21"
       d="m 486,99 h 90 v 20 h -90 z"
       style="fill:#ffffff;fill-opacity:1;fill-rule:nonzero;stroke:#000000;stroke-width:1;stroke-linecap:butt;stroke-linejoin:miter;stroke-miterlimit:10;stroke-dasharray:none;stroke-opacity:1"
       transform="matrix(0.95797343,0,0,0.95797343,0.47898672,0.47898672)"
       clip-path="url(#clipPath22)" />
    <text
       id="text22"
       xml:space="preserve"
       transform="matrix(0.95798306,0,0,0.95798306,494.6336,108.25209)"
       clip-path="url(#clipPath23)"><tspan
         style="font-variant:normal;font-weight:normal;font-size:12px;font-family:Helvetica;writing-mode:lr-tb;fill:#000000;fill-opacity:1;fill-rule:nonzero;stroke:none"
         x="0 6 9.3339844 13.330078 15.996094 22.669922"
         y="0"
         sodipodi:role="line"
         id="tspan22">string</tspan></text>
    <path
       id="path24"
       d="m 1,82 h 130 v 58 H 1 Z"
       style="fill:#dae8fc;fill-opacity:1;fill-rule:nonzero;stroke:#6c8ebf;stroke-width:1;stroke-linecap:butt;stroke-linejoin:miter;stroke-miterlimit:10;stroke-dasharray:none;stroke-opacity:1"
       transform="matrix(0.95797343,0,0,0.95797343,0.47898672,0.47898672)"
       clip-path="url(#clipPath25)" />
    <text
       id="text25"
       xml:space="preserve"
       transform="matrix(0.95798306,0,0,0.95798306,11.046742,113.042)"
       clip-path="url(#clipPath26)"><tspan
         style="font-variant:normal;font-weight:normal;font-size:20px;font-family:Helvetica;writing-mode:lr-tb;fill:#000000;fill-opacity:1;fill-rule:nonzero;stroke:none"
         x="0 11.123047 17.783203 22.226562 33.349609 38.90625 53.349609 64.472656 75.595703 86.71875 92.275391 98.935547"
         y="0"
         sodipodi:role="line"
         id="tspan25">printCountry</tspan></text>
    <path
       id="path27"
       d="M 1,1 H 131 V 59 H 1 Z"
       style="fill:#dae8fc;fill-opacity:1;fill-rule:nonzero;stroke:#6c8ebf;stroke-width:1;stroke-linecap:butt;stroke-linejoin:miter;stroke-miterlimit:10;stroke-dasharray:none;stroke-opacity:1"
       transform="matrix(0.95797343,0,0,0.95797343,0.47898672,0.47898672)"
       clip-path="url(#clipPath28)" />
    <text
       id="text28"
       xml:space="preserve"
       transform="matrix(0.95798306,0,0,0.95798306,27.542013,35.445373)"
       clip-path="url(#clipPath29)"><tspan
         style="font-variant:normal;font-weight:normal;font-size:20px;font-family:Helvetica;writing-mode:lr-tb;fill:#000000;fill-opacity:1;fill-rule:nonzero;stroke:none"
         x="0 11.123047 17.783203 22.226562 33.349609 38.90625 52.246094 63.369141"
         y="0"
         sodipodi:role="line"
         id="tspan28">printAge</tspan></text>
    <path
       id="path30"
       d="m 181,1 h -10 c -6.66667,0 -10,3.333333 -10,10 v 49.5 c 0,6.666664 -3.33333,10 -10,10 h -5 c -3.33333,0 -1.66667,0 5,0 h 5 c 3.33333,0 5,3.333336 5,10 V 130 c 0,6.66667 3.33333,10 10,10 h 10"
       style="fill:none;stroke:#000000;stroke-width:1;stroke-linecap:butt;stroke-linejoin:miter;stroke-miterlimit:10;stroke-dasharray:none;stroke-opacity:1"
       transform="matrix(-0.95797343,0,0,-0.95797343,308.94643,135.55325)"
       clip-path="url(#clipPath31)" />
    <path
       id="path32"
       d="m 341,69 h 48.64001"
       style="fill:none;stroke:#000000;stroke-width:1;stroke-linecap:butt;stroke-linejoin:miter;stroke-miterlimit:10;stroke-dasharray:none;stroke-opacity:1"
       transform="matrix(0.95797343,0,0,0.95797343,0.47898672,0.47898672)"
       clip-path="url(#clipPath33)" />
    <path
       id="path34"
       d="m 394.89001,69 -7,3.5 1.75,-3.5 -1.75,-3.5 z"
       style="fill:#000000;fill-opacity:1;fill-rule:nonzero;stroke:#000000;stroke-width:1;stroke-linecap:butt;stroke-linejoin:miter;stroke-miterlimit:10;stroke-dasharray:none;stroke-opacity:1"
       transform="matrix(0.95797343,0,0,0.95797343,0.47898672,0.47898672)"
       clip-path="url(#clipPath35)" />
    <text
       id="text35"
       xml:space="preserve"
       transform="matrix(0.95798306,0,0,0.95798306,191.44693,38.319323)"
       clip-path="url(#clipPath36)"><tspan
         style="font-style:oblique;font-variant:normal;font-weight:normal;font-size:20px;font-family:Helvetica;writing-mode:lr-tb;fill:#000000;fill-opacity:1;fill-rule:nonzero;stroke:none"
         x="0 14.443359 25.566406 36.689453 42.246094 53.369141 64.492188 70.048828 80.048828 91.171875 95.615234 100.05859 111.18164"
         y="0"
         sodipodi:role="line"
         id="tspan35">Can be called</tspan></text>
    <text
       id="text36"
       xml:space="preserve"
       transform="matrix(0.95798306,0,0,0.95798306,189.3214,61.310916)"
       clip-path="url(#clipPath37)"><tspan
         style="font-style:oblique;font-variant:normal;font-weight:normal;font-size:20px;font-family:Helvetica;writing-mode:lr-tb;fill:#000000;fill-opacity:1;fill-rule:nonzero;stroke:none"
         x="0 14.443359 18.886719 24.443359 35.566406 41.123047 52.246094 63.369141 73.369141 78.925781 88.925781 100.04883 104.49219 115.61523"
         y="0"
         sodipodi:role="line"
         id="tspan36">with any value</tspan></text>
    <text
       id="text37"
       xml:space="preserve"
       transform="matrix(0.95798306,0,0,0.95798306,180.80434,84.30251)"
       clip-path="url(#clipPath38)"><tspan
         style="font-style:oblique;font-variant:normal;font-weight:normal;font-size:20px;font-family:Helvetica;writing-mode:lr-tb;fill:#000000;fill-opacity:1;fill-rule:nonzero;stroke:none"
         x="0 5.5566406 16.679688 27.802734 33.359375"
         y="0"
         sodipodi:role="line"
         id="tspan37">that </tspan></text>
    <g
       id="g38" />
    <text
       id="text38"
       xml:space="preserve"
       transform="matrix(0.95798306,0,0,0.95798306,218.09083,84.30251)"
       clip-path="url(#clipPath39)"><tspan
         style="font-style:oblique;font-variant:normal;font-weight:normal;font-size:20px;font-family:Helvetica;writing-mode:lr-tb;fill:#000000;fill-opacity:1;fill-rule:nonzero;stroke:none"
         x="0 10 21.123047 26.679688 31.123047 41.123047 51.123047 62.246094"
         y="0"
         sodipodi:role="line"
         id="tspan38">satisﬁes</tspan></text>
    <text
       id="text39"
       xml:space="preserve"
       transform="matrix(0.95798306,0,0,0.95798306,287.30511,84.30251)"
       clip-path="url(#clipPath40)"><tspan
         style="font-style:oblique;font-variant:normal;font-weight:normal;font-size:20px;font-family:Helvetica;writing-mode:lr-tb;fill:#000000;fill-opacity:1;fill-rule:nonzero;stroke:none"
         x="0 5.5566406 11.113281 22.236328"
         y="0"
         sodipodi:role="line"
         id="tspan39"> the</tspan></text>
    <g
       id="g40" />
    <text
       id="text40"
       xml:space="preserve"
       transform="matrix(0.95798306,0,0,0.95798306,179.81642,107.2941)"
       clip-path="url(#clipPath41)"><tspan
         style="font-style:oblique;font-variant:normal;font-weight:normal;font-size:20px;font-family:Helvetica;writing-mode:lr-tb;fill:#000000;fill-opacity:1;fill-rule:nonzero;stroke:none"
         x="0 3.8183594 17.158203 23.818359 34.941406 44.941406 49.384766 60.507812 64.326172 69.882812 74.326172 85.449219 91.005859 102.12891 108.78906 114.3457 125.46875 135.46875"
         y="0"
         sodipodi:role="line"
         id="tspan40">'Proﬁle' interface</tspan></text>
  </g>
</svg>
