<?xml version="1.0" encoding="UTF-8" standalone="no"?>
<!-- Created with Inkscape (http://www.inkscape.org/) -->

<svg
   version="1.1"
   id="svg1"
   width="490.55997"
   height="118.72"
   viewBox="0 0 490.55997 118.72"
   sodipodi:docname="ts-11.pdf"
   xmlns:inkscape="http://www.inkscape.org/namespaces/inkscape"
   xmlns:sodipodi="http://sodipodi.sourceforge.net/DTD/sodipodi-0.dtd"
   xmlns="http://www.w3.org/2000/svg"
   xmlns:svg="http://www.w3.org/2000/svg">
  <defs
     id="defs1">
    <clipPath
       clipPathUnits="userSpaceOnUse"
       id="clipPath2">
      <path
         d="M 0,0 H 1533.3334 V 370.63028 H 0 Z"
         transform="scale(0.33456522)"
         clip-rule="evenodd"
         id="path2" />
    </clipPath>
    <clipPath
       clipPathUnits="userSpaceOnUse"
       id="clipPath4">
      <path
         d="M 0,0 H 1533.3334 V 364.65237 H 0 Z"
         transform="matrix(0.33456522,0,0,0.33456522,-0.5,-0.5)"
         clip-rule="evenodd"
         id="path4" />
    </clipPath>
    <clipPath
       clipPathUnits="userSpaceOnUse"
       id="clipPath5">
      <path
         d="M 0,0 H 1533.3334 V 364.65237 H 0 Z"
         transform="matrix(0.33456185,0,0,0.33456185,-30.531249,-35)"
         clip-rule="evenodd"
         id="path5" />
    </clipPath>
    <clipPath
       clipPathUnits="userSpaceOnUse"
       id="clipPath7">
      <path
         d="M 0,0 H 1533.3334 V 364.65237 H 0 Z"
         transform="matrix(0.33456522,0,0,0.33456522,-0.5,-0.5)"
         clip-rule="evenodd"
         id="path7" />
    </clipPath>
    <clipPath
       clipPathUnits="userSpaceOnUse"
       id="clipPath8">
      <path
         d="M 0,0 H 1533.3334 V 364.65237 H 0 Z"
         transform="matrix(0.33456185,0,0,0.33456185,-23.984374,-59)"
         clip-rule="evenodd"
         id="path8" />
    </clipPath>
    <clipPath
       clipPathUnits="userSpaceOnUse"
       id="clipPath10">
      <path
         d="M 0,0 H 1533.3334 V 364.65237 H 0 Z"
         transform="matrix(0.33456522,0,0,0.33456522,-0.5,-0.5)"
         clip-rule="evenodd"
         id="path10" />
    </clipPath>
    <clipPath
       clipPathUnits="userSpaceOnUse"
       id="clipPath11">
      <path
         d="M 0,0 H 1533.3334 V 364.65237 H 0 Z"
         transform="matrix(0.33456185,0,0,0.33456185,-123.65625,-59)"
         clip-rule="evenodd"
         id="path11" />
    </clipPath>
    <clipPath
       clipPathUnits="userSpaceOnUse"
       id="clipPath13">
      <path
         d="M 0,0 H 1533.3334 V 364.65237 H 0 Z"
         transform="matrix(0.33456522,0,0,0.33456522,-0.5,-0.5)"
         clip-rule="evenodd"
         id="path13" />
    </clipPath>
    <clipPath
       clipPathUnits="userSpaceOnUse"
       id="clipPath14">
      <path
         d="M 0,0 H 1533.3334 V 364.65237 H 0 Z"
         transform="matrix(0.33456185,0,0,0.33456185,-35.984375,-79)"
         clip-rule="evenodd"
         id="path14" />
    </clipPath>
    <clipPath
       clipPathUnits="userSpaceOnUse"
       id="clipPath16">
      <path
         d="M 0,0 H 1533.3334 V 364.65237 H 0 Z"
         transform="matrix(0.33456522,0,0,0.33456522,-0.5,-0.5)"
         clip-rule="evenodd"
         id="path16" />
    </clipPath>
    <clipPath
       clipPathUnits="userSpaceOnUse"
       id="clipPath17">
      <path
         d="M 0,0 H 1533.3334 V 364.65237 H 0 Z"
         transform="matrix(0.33456185,0,0,0.33456185,-115.65625,-79)"
         clip-rule="evenodd"
         id="path17" />
    </clipPath>
    <clipPath
       clipPathUnits="userSpaceOnUse"
       id="clipPath19">
      <path
         d="M 0,0 H 1533.3334 V 364.65237 H 0 Z"
         transform="matrix(0.33456522,0,0,0.33456522,-0.5,-0.5)"
         clip-rule="evenodd"
         id="path19" />
    </clipPath>
    <clipPath
       clipPathUnits="userSpaceOnUse"
       id="clipPath20">
      <path
         d="M 0,0 H 1533.3334 V 364.65237 H 0 Z"
         transform="matrix(0.33456185,0,0,0.33456185,-26.3125,-99)"
         clip-rule="evenodd"
         id="path20" />
    </clipPath>
    <clipPath
       clipPathUnits="userSpaceOnUse"
       id="clipPath22">
      <path
         d="M 0,0 H 1533.3334 V 364.65237 H 0 Z"
         transform="matrix(0.33456522,0,0,0.33456522,-0.5,-0.5)"
         clip-rule="evenodd"
         id="path22" />
    </clipPath>
    <clipPath
       clipPathUnits="userSpaceOnUse"
       id="clipPath23">
      <path
         d="M 0,0 H 1533.3334 V 364.65237 H 0 Z"
         transform="matrix(0.33456185,0,0,0.33456185,-121.32813,-99)"
         clip-rule="evenodd"
         id="path23" />
    </clipPath>
    <clipPath
       clipPathUnits="userSpaceOnUse"
       id="clipPath25">
      <path
         d="M 0,0 H 1533.3334 V 364.65237 H 0 Z"
         transform="matrix(-0.33456522,0,0,-0.33456522,423.49999,119.5)"
         clip-rule="evenodd"
         id="path25" />
    </clipPath>
    <clipPath
       clipPathUnits="userSpaceOnUse"
       id="clipPath26">
      <path
         d="M 0,0 H 1533.3334 V 364.65237 H 0 Z"
         transform="matrix(0.33456185,0,0,0.33456185,-239.9375,-19)"
         clip-rule="evenodd"
         id="path26" />
    </clipPath>
    <clipPath
       clipPathUnits="userSpaceOnUse"
       id="clipPath27">
      <path
         d="M 0,0 H 1533.3334 V 364.65237 H 0 Z"
         transform="matrix(0.33456185,0,0,0.33456185,-250.70313,-43)"
         clip-rule="evenodd"
         id="path27" />
    </clipPath>
    <clipPath
       clipPathUnits="userSpaceOnUse"
       id="clipPath28">
      <path
         d="M 0,0 H 1533.3334 V 364.65237 H 0 Z"
         transform="matrix(0.33456185,0,0,0.33456185,-242.375,-67)"
         clip-rule="evenodd"
         id="path28" />
    </clipPath>
    <clipPath
       clipPathUnits="userSpaceOnUse"
       id="clipPath29">
      <path
         d="M 0,0 H 1533.3334 V 364.65237 H 0 Z"
         transform="matrix(0.33456185,0,0,0.33456185,-263.48438,-91)"
         clip-rule="evenodd"
         id="path29" />
    </clipPath>
    <clipPath
       clipPathUnits="userSpaceOnUse"
       id="clipPath30">
      <path
         d="M 0,0 H 1533.3334 V 364.65237 H 0 Z"
         transform="matrix(0.33456185,0,0,0.33456185,-344.09375,-115)"
         clip-rule="evenodd"
         id="path30" />
    </clipPath>
  </defs>
  <sodipodi:namedview
     id="namedview1"
     pagecolor="#ffffff"
     bordercolor="#000000"
     borderopacity="0.25"
     inkscape:showpageshadow="2"
     inkscape:pageopacity="0.0"
     inkscape:pagecheckerboard="0"
     inkscape:deskcolor="#d1d1d1">
    <inkscape:page
       x="0"
       y="0"
       inkscape:label="1"
       id="page1"
       width="490.55997"
       height="118.72"
       margin="0"
       bleed="0" />
  </sodipodi:namedview>
  <g
     id="g1"
     inkscape:groupmode="layer"
     inkscape:label="1">
    <path
       id="path1"
       d="M 0,0 H 513 V 124 H 0 Z"
       style="fill:#ffffff;fill-opacity:1;fill-rule:nonzero;stroke:none"
       transform="scale(0.95646518)"
       clip-path="url(#clipPath2)" />
    <path
       id="path3"
       d="M 1,15 H 181 V 45 H 1 Z"
       style="fill:#dae8fc;fill-opacity:1;fill-rule:nonzero;stroke:#6c8ebf;stroke-width:1;stroke-linecap:butt;stroke-linejoin:miter;stroke-miterlimit:10;stroke-dasharray:none;stroke-opacity:1"
       transform="matrix(0.95646518,0,0,0.95646518,0.47823259,0.47823259)"
       clip-path="url(#clipPath4)" />
    <g
       id="g4" />
    <text
       id="text4"
       xml:space="preserve"
       transform="matrix(0.95647481,0,0,0.95647481,29.202371,33.476618)"
       clip-path="url(#clipPath5)"><tspan
         style="font-variant:normal;font-weight:700;font-size:16px;font-family:Helvetica;writing-mode:lr-tb;fill:#000000;fill-opacity:1;fill-rule:nonzero;stroke:none"
         x="0 4.4453125 14.21875 19.546875 28.445312 34.671875 40 48.898438 57.796875 66.695312 71.140625 81.8125 88.039062 97.8125 107.58594 112.03125"
         y="0"
         sodipodi:role="line"
         id="tspan4">interface Proﬁle</tspan></text>
    <path
       id="path6"
       d="M 1,45 H 91 V 65 H 1 Z"
       style="fill:#d5e8d4;fill-opacity:1;fill-rule:nonzero;stroke:#82b366;stroke-width:1;stroke-linecap:butt;stroke-linejoin:miter;stroke-miterlimit:10;stroke-dasharray:none;stroke-opacity:1"
       transform="matrix(0.95646518,0,0,0.95646518,0.47823259,0.47823259)"
       clip-path="url(#clipPath7)" />
    <text
       id="text7"
       xml:space="preserve"
       transform="matrix(0.95647481,0,0,0.95647481,22.94045,56.432014)"
       clip-path="url(#clipPath8)"><tspan
         style="font-variant:normal;font-weight:normal;font-size:12px;font-family:Helvetica;writing-mode:lr-tb;fill:#000000;fill-opacity:1;fill-rule:nonzero;stroke:none"
         x="0 6.6738281 10.669922 17.34375 24.017578 30.691406 34.6875 38.021484"
         y="0"
         sodipodi:role="line"
         id="tspan7">property</tspan></text>
    <path
       id="path9"
       d="m 91,45 h 90 V 65 H 91 Z"
       style="fill:#d5e8d4;fill-opacity:1;fill-rule:nonzero;stroke:#82b366;stroke-width:1;stroke-linecap:butt;stroke-linejoin:miter;stroke-miterlimit:10;stroke-dasharray:none;stroke-opacity:1"
       transform="matrix(0.95646518,0,0,0.95646518,0.47823259,0.47823259)"
       clip-path="url(#clipPath10)" />
    <text
       id="text10"
       xml:space="preserve"
       transform="matrix(0.95647481,0,0,0.95647481,118.27409,56.432014)"
       clip-path="url(#clipPath11)"><tspan
         style="font-variant:normal;font-weight:700;font-size:12px;font-family:Helvetica;writing-mode:lr-tb;fill:#000000;fill-opacity:1;fill-rule:nonzero;stroke:none"
         x="0 3.9960938 10.669922 18"
         y="0"
         sodipodi:role="line"
         id="tspan10">type</tspan></text>
    <path
       id="path12"
       d="M 1,65 H 91 V 85 H 1 Z"
       style="fill:#ffffff;fill-opacity:1;fill-rule:nonzero;stroke:#000000;stroke-width:1;stroke-linecap:butt;stroke-linejoin:miter;stroke-miterlimit:10;stroke-dasharray:none;stroke-opacity:1"
       transform="matrix(0.95646518,0,0,0.95646518,0.47823259,0.47823259)"
       clip-path="url(#clipPath13)" />
    <text
       id="text13"
       xml:space="preserve"
       transform="matrix(0.95647481,0,0,0.95647481,34.418148,75.56151)"
       clip-path="url(#clipPath14)"><tspan
         style="font-variant:normal;font-weight:normal;font-size:12px;font-family:Helvetica;writing-mode:lr-tb;fill:#000000;fill-opacity:1;fill-rule:nonzero;stroke:none"
         x="0 6.6738281 13.347656"
         y="0"
         sodipodi:role="line"
         id="tspan13">age</tspan></text>
    <path
       id="path15"
       d="m 91,65 h 90 V 85 H 91 Z"
       style="fill:#ffffff;fill-opacity:1;fill-rule:nonzero;stroke:#000000;stroke-width:1;stroke-linecap:butt;stroke-linejoin:miter;stroke-miterlimit:10;stroke-dasharray:none;stroke-opacity:1"
       transform="matrix(0.95646518,0,0,0.95646518,0.47823259,0.47823259)"
       clip-path="url(#clipPath16)" />
    <text
       id="text16"
       xml:space="preserve"
       transform="matrix(0.95647481,0,0,0.95647481,110.62229,75.56151)"
       clip-path="url(#clipPath17)"><tspan
         style="font-variant:normal;font-weight:normal;font-size:12px;font-family:Helvetica;writing-mode:lr-tb;fill:#000000;fill-opacity:1;fill-rule:nonzero;stroke:none"
         x="0 6.6738281 13.347656 23.34375 30.017578 36.691406"
         y="0"
         sodipodi:role="line"
         id="tspan16">number</tspan></text>
    <path
       id="path18"
       d="m 1,85 h 90 v 20 H 1 Z"
       style="fill:#ffffff;fill-opacity:1;fill-rule:nonzero;stroke:#000000;stroke-width:1;stroke-linecap:butt;stroke-linejoin:miter;stroke-miterlimit:10;stroke-dasharray:none;stroke-opacity:1"
       transform="matrix(0.95646518,0,0,0.95646518,0.47823259,0.47823259)"
       clip-path="url(#clipPath19)" />
    <text
       id="text19"
       xml:space="preserve"
       transform="matrix(0.95647481,0,0,0.95647481,25.167243,94.691006)"
       clip-path="url(#clipPath20)"><tspan
         style="font-variant:normal;font-weight:normal;font-size:12px;font-family:Helvetica;writing-mode:lr-tb;fill:#000000;fill-opacity:1;fill-rule:nonzero;stroke:none"
         x="0 6 12.673828 19.347656 26.021484 29.355469 33.351562"
         y="0"
         sodipodi:role="line"
         id="tspan19">country</tspan></text>
    <path
       id="path21"
       d="m 91,85 h 90 v 20 H 91 Z"
       style="fill:#ffffff;fill-opacity:1;fill-rule:nonzero;stroke:#000000;stroke-width:1;stroke-linecap:butt;stroke-linejoin:miter;stroke-miterlimit:10;stroke-dasharray:none;stroke-opacity:1"
       transform="matrix(0.95646518,0,0,0.95646518,0.47823259,0.47823259)"
       clip-path="url(#clipPath22)" />
    <text
       id="text22"
       xml:space="preserve"
       transform="matrix(0.95647481,0,0,0.95647481,116.0473,94.691006)"
       clip-path="url(#clipPath23)"><tspan
         style="font-variant:normal;font-weight:normal;font-size:12px;font-family:Helvetica;writing-mode:lr-tb;fill:#000000;fill-opacity:1;fill-rule:nonzero;stroke:none"
         x="0 6 9.3339844 13.330078 15.996094 22.669922"
         y="0"
         sodipodi:role="line"
         id="tspan22">string</tspan></text>
    <path
       id="path24"
       d="m 235,15 h -13.5 c -6.66667,0 -10,3.333332 -10,10 v 24.5 c 0,6.666668 -3.33333,10 -10,10 h -6.75 c -4.5,0 -3.41667,0 3.25,0 h 6.75 c 4.5,0 6.75,3.333332 6.75,10 V 94 c 0,6.66666 3.33333,10 10,10 H 235"
       style="fill:none;stroke:#000000;stroke-width:1;stroke-linecap:butt;stroke-linejoin:miter;stroke-miterlimit:10;stroke-dasharray:none;stroke-opacity:1"
       transform="matrix(-0.95646518,0,0,-0.95646518,405.06299,114.29759)"
       clip-path="url(#clipPath25)" />
    <text
       id="text25"
       xml:space="preserve"
       transform="matrix(0.95647481,0,0,0.95647481,229.49417,18.173021)"
       clip-path="url(#clipPath26)"><tspan
         style="font-variant:normal;font-weight:normal;font-size:20px;font-family:Helvetica;writing-mode:lr-tb;fill:#000000;fill-opacity:1;fill-rule:nonzero;stroke:none"
         x="0 18.525391 29.648438 35.205078 45.205078 56.328125 67.451172 73.007812 76.826172 86.826172 97.949219 103.50586 107.94922 117.94922 123.50586 133.50586 137.32422 142.88086 154.00391 160.66406 166.2207 170.03906 174.48242 191.14258 202.26562 206.70898 217.83203 234.49219 245.61523 256.73828 262.29492"
         y="0"
         sodipodi:role="line"
         id="tspan25">We can 'satisfy' or 'implement'</tspan></text>
    <text
       id="text26"
       xml:space="preserve"
       transform="matrix(0.95647481,0,0,0.95647481,239.79123,41.128417)"
       clip-path="url(#clipPath27)"><tspan
         style="font-variant:normal;font-weight:normal;font-size:20px;font-family:Helvetica;writing-mode:lr-tb;fill:#000000;fill-opacity:1;fill-rule:nonzero;stroke:none"
         x="0 5.5566406 16.679688 21.123047 31.123047 36.679688 41.123047 52.246094 57.802734 68.925781 75.585938 81.142578 92.265625 102.26562 113.38867 118.94531 130.06836 140.06836 145.625 155.625 162.28516 173.4082 184.53125 190.08789 194.53125 205.6543 216.77734 222.33398 233.45703"
         y="0"
         sodipodi:role="line"
         id="tspan26">this interface by creating an</tspan></text>
    <text
       id="text27"
       xml:space="preserve"
       transform="matrix(0.95647481,0,0,0.95647481,231.82558,64.083812)"
       clip-path="url(#clipPath28)"><tspan
         style="font-variant:normal;font-weight:normal;font-size:20px;font-family:Helvetica;writing-mode:lr-tb;fill:#000000;fill-opacity:1;fill-rule:nonzero;stroke:none"
         x="0 11.123047 22.246094 26.689453 37.8125 47.8125 53.369141 58.925781 73.369141 77.8125 83.369141 94.492188 100.04883 105.60547 116.72852 127.85156 133.4082 143.4082 154.53125 171.19141 182.31445 187.87109 198.99414 205.6543 216.77734 227.90039 239.02344 245.68359 251.24023"
         y="0"
         sodipodi:role="line"
         id="tspan27">object with the same property</tspan></text>
    <text
       id="text28"
       xml:space="preserve"
       transform="matrix(0.95647481,0,0,0.95647481,252.01617,87.039208)"
       clip-path="url(#clipPath29)"><tspan
         style="font-variant:normal;font-weight:normal;font-size:20px;font-family:Helvetica;writing-mode:lr-tb;fill:#000000;fill-opacity:1;fill-rule:nonzero;stroke:none"
         x="0 11.123047 22.246094 38.90625 50.029297 60.029297 65.585938 76.708984 87.832031 98.955078 104.51172 114.51172 125.63477 142.29492 153.41797 158.97461 164.53125 174.53125 185.6543 196.77734 202.33398 213.45703"
         y="0"
         sodipodi:role="line"
         id="tspan28">names and same type of</tspan></text>
    <text
       id="text29"
       xml:space="preserve"
       transform="matrix(0.95647481,0,0,0.95647481,329.117,109.9946)"
       clip-path="url(#clipPath30)"><tspan
         style="font-variant:normal;font-weight:normal;font-size:20px;font-family:Helvetica;writing-mode:lr-tb;fill:#000000;fill-opacity:1;fill-rule:nonzero;stroke:none"
         x="0 10 21.123047 25.566406 36.689453 47.8125"
         y="0"
         sodipodi:role="line"
         id="tspan29">values</tspan></text>
  </g>
</svg>
