<?xml version="1.0" encoding="UTF-8" standalone="no"?>
<!-- Created with Inkscape (http://www.inkscape.org/) -->

<svg
   version="1.1"
   id="svg1"
   width="228.16"
   height="196.15999"
   viewBox="0 0 228.16 196.15999"
   sodipodi:docname="ts-15.pdf"
   xmlns:inkscape="http://www.inkscape.org/namespaces/inkscape"
   xmlns:sodipodi="http://sodipodi.sourceforge.net/DTD/sodipodi-0.dtd"
   xmlns="http://www.w3.org/2000/svg"
   xmlns:svg="http://www.w3.org/2000/svg">
  <defs
     id="defs1">
    <clipPath
       clipPathUnits="userSpaceOnUse"
       id="clipPath2">
      <path
         d="M 0,0 H 712.49994 V 611.14014 H 0 Z"
         transform="scale(0.33543861)"
         clip-rule="evenodd"
         id="path2" />
    </clipPath>
    <clipPath
       clipPathUnits="userSpaceOnUse"
       id="clipPath4">
      <path
         d="M 0,0 H 712.49994 V 608.15894 H 0 Z"
         transform="matrix(0.33543861,0,0,0.33543861,-0.49999999,-0.49999999)"
         clip-rule="evenodd"
         id="path4" />
    </clipPath>
    <clipPath
       clipPathUnits="userSpaceOnUse"
       id="clipPath5">
      <path
         d="M 0,0 H 712.49994 V 608.15894 H 0 Z"
         transform="matrix(0.33543526,0,0,0.33543526,-57.53125,-16.000001)"
         clip-rule="evenodd"
         id="path5" />
    </clipPath>
    <clipPath
       clipPathUnits="userSpaceOnUse"
       id="clipPath7">
      <path
         d="M 0,0 H 712.49994 V 608.15894 H 0 Z"
         transform="matrix(0.33543861,0,0,0.33543861,-0.49999999,-0.49999999)"
         clip-rule="evenodd"
         id="path7" />
    </clipPath>
    <clipPath
       clipPathUnits="userSpaceOnUse"
       id="clipPath8">
      <path
         d="M 0,0 H 712.49994 V 608.15894 H 0 Z"
         transform="matrix(0.33543526,0,0,0.33543526,-50.984376,-35)"
         clip-rule="evenodd"
         id="path8" />
    </clipPath>
    <clipPath
       clipPathUnits="userSpaceOnUse"
       id="clipPath10">
      <path
         d="M 0,0 H 712.49994 V 608.15894 H 0 Z"
         transform="matrix(0.33543861,0,0,0.33543861,-0.49999999,-0.49999999)"
         clip-rule="evenodd"
         id="path10" />
    </clipPath>
    <clipPath
       clipPathUnits="userSpaceOnUse"
       id="clipPath11">
      <path
         d="M 0,0 H 712.49994 V 608.15894 H 0 Z"
         transform="matrix(0.33543526,0,0,0.33543526,-150.65625,-35)"
         clip-rule="evenodd"
         id="path11" />
    </clipPath>
    <clipPath
       clipPathUnits="userSpaceOnUse"
       id="clipPath13">
      <path
         d="M 0,0 H 712.49994 V 608.15894 H 0 Z"
         transform="matrix(0.33543861,0,0,0.33543861,-0.49999999,-0.49999999)"
         clip-rule="evenodd"
         id="path13" />
    </clipPath>
    <clipPath
       clipPathUnits="userSpaceOnUse"
       id="clipPath15">
      <path
         d="M 0,0 H 712.49994 V 608.15894 H 0 Z"
         transform="matrix(0.33543861,0,0,0.33543861,-0.49999999,-0.49999999)"
         clip-rule="evenodd"
         id="path15" />
    </clipPath>
    <clipPath
       clipPathUnits="userSpaceOnUse"
       id="clipPath17">
      <path
         d="M 0,0 H 712.49994 V 608.15894 H 0 Z"
         transform="matrix(0.33543861,0,0,0.33543861,-0.49999999,-0.49999999)"
         clip-rule="evenodd"
         id="path17" />
    </clipPath>
    <clipPath
       clipPathUnits="userSpaceOnUse"
       id="clipPath18">
      <path
         d="M 0,0 H 712.49994 V 608.15894 H 0 Z"
         transform="matrix(0.33543526,0,0,0.33543526,-62.984376,-55)"
         clip-rule="evenodd"
         id="path18" />
    </clipPath>
    <clipPath
       clipPathUnits="userSpaceOnUse"
       id="clipPath20">
      <path
         d="M 0,0 H 712.49994 V 608.15894 H 0 Z"
         transform="matrix(0.33543861,0,0,0.33543861,-0.49999999,-0.49999999)"
         clip-rule="evenodd"
         id="path20" />
    </clipPath>
    <clipPath
       clipPathUnits="userSpaceOnUse"
       id="clipPath22">
      <path
         d="M 0,0 H 712.49994 V 608.15894 H 0 Z"
         transform="matrix(0.33543861,0,0,0.33543861,-0.49999999,-0.49999999)"
         clip-rule="evenodd"
         id="path22" />
    </clipPath>
    <clipPath
       clipPathUnits="userSpaceOnUse"
       id="clipPath24">
      <path
         d="M 0,0 H 712.49994 V 608.15894 H 0 Z"
         transform="matrix(0.33543861,0,0,0.33543861,-0.49999999,-0.49999999)"
         clip-rule="evenodd"
         id="path24" />
    </clipPath>
    <clipPath
       clipPathUnits="userSpaceOnUse"
       id="clipPath25">
      <path
         d="M 0,0 H 712.49994 V 608.15894 H 0 Z"
         transform="matrix(0.33543526,0,0,0.33543526,-142.65625,-55)"
         clip-rule="evenodd"
         id="path25" />
    </clipPath>
    <clipPath
       clipPathUnits="userSpaceOnUse"
       id="clipPath27">
      <path
         d="M 0,0 H 712.49994 V 608.15894 H 0 Z"
         transform="matrix(0.33543861,0,0,0.33543861,-0.49999999,-0.49999999)"
         clip-rule="evenodd"
         id="path27" />
    </clipPath>
    <clipPath
       clipPathUnits="userSpaceOnUse"
       id="clipPath29">
      <path
         d="M 0,0 H 712.49994 V 608.15894 H 0 Z"
         transform="matrix(0.33543861,0,0,0.33543861,-0.49999999,-0.49999999)"
         clip-rule="evenodd"
         id="path29" />
    </clipPath>
    <clipPath
       clipPathUnits="userSpaceOnUse"
       id="clipPath31">
      <path
         d="M 0,0 H 712.49994 V 608.15894 H 0 Z"
         transform="matrix(0.33543861,0,0,0.33543861,-0.49999999,-0.49999999)"
         clip-rule="evenodd"
         id="path31" />
    </clipPath>
    <clipPath
       clipPathUnits="userSpaceOnUse"
       id="clipPath32">
      <path
         d="M 0,0 H 712.49994 V 608.15894 H 0 Z"
         transform="matrix(0.33543526,0,0,0.33543526,-53.3125,-75.000001)"
         clip-rule="evenodd"
         id="path32" />
    </clipPath>
    <clipPath
       clipPathUnits="userSpaceOnUse"
       id="clipPath34">
      <path
         d="M 0,0 H 712.49994 V 608.15894 H 0 Z"
         transform="matrix(0.33543861,0,0,0.33543861,-0.49999999,-0.49999999)"
         clip-rule="evenodd"
         id="path34" />
    </clipPath>
    <clipPath
       clipPathUnits="userSpaceOnUse"
       id="clipPath36">
      <path
         d="M 0,0 H 712.49994 V 608.15894 H 0 Z"
         transform="matrix(0.33543861,0,0,0.33543861,-0.49999999,-0.49999999)"
         clip-rule="evenodd"
         id="path36" />
    </clipPath>
    <clipPath
       clipPathUnits="userSpaceOnUse"
       id="clipPath38">
      <path
         d="M 0,0 H 712.49994 V 608.15894 H 0 Z"
         transform="matrix(0.33543861,0,0,0.33543861,-0.49999999,-0.49999999)"
         clip-rule="evenodd"
         id="path38" />
    </clipPath>
    <clipPath
       clipPathUnits="userSpaceOnUse"
       id="clipPath39">
      <path
         d="M 0,0 H 712.49994 V 608.15894 H 0 Z"
         transform="matrix(0.33543526,0,0,0.33543526,-148.32813,-75.000001)"
         clip-rule="evenodd"
         id="path39" />
    </clipPath>
    <clipPath
       clipPathUnits="userSpaceOnUse"
       id="clipPath41">
      <path
         d="M 0,0 H 712.49994 V 608.15894 H 0 Z"
         transform="matrix(0.33543861,0,0,0.33543861,-0.49999999,-0.49999999)"
         clip-rule="evenodd"
         id="path41" />
    </clipPath>
    <clipPath
       clipPathUnits="userSpaceOnUse"
       id="clipPath42">
      <path
         d="M 0,0 H 712.49994 V 608.15894 H 0 Z"
         transform="matrix(0.33543526,0,0,0.33543526,-102.42188,-116)"
         clip-rule="evenodd"
         id="path42" />
    </clipPath>
    <clipPath
       clipPathUnits="userSpaceOnUse"
       id="clipPath44">
      <path
         d="M 0,0 H 712.49994 V 608.15894 H 0 Z"
         transform="matrix(0.33543861,0,0,0.33543861,-0.49999999,-0.49999999)"
         clip-rule="evenodd"
         id="path44" />
    </clipPath>
    <clipPath
       clipPathUnits="userSpaceOnUse"
       id="clipPath45">
      <path
         d="M 0,0 H 712.49994 V 608.15894 H 0 Z"
         transform="matrix(0.33543526,0,0,0.33543526,-50.984376,-135)"
         clip-rule="evenodd"
         id="path45" />
    </clipPath>
    <clipPath
       clipPathUnits="userSpaceOnUse"
       id="clipPath47">
      <path
         d="M 0,0 H 712.49994 V 608.15894 H 0 Z"
         transform="matrix(0.33543861,0,0,0.33543861,-0.49999999,-0.49999999)"
         clip-rule="evenodd"
         id="path47" />
    </clipPath>
    <clipPath
       clipPathUnits="userSpaceOnUse"
       id="clipPath48">
      <path
         d="M 0,0 H 712.49994 V 608.15894 H 0 Z"
         transform="matrix(0.33543526,0,0,0.33543526,-147.65625,-135)"
         clip-rule="evenodd"
         id="path48" />
    </clipPath>
    <clipPath
       clipPathUnits="userSpaceOnUse"
       id="clipPath50">
      <path
         d="M 0,0 H 712.49994 V 608.15894 H 0 Z"
         transform="matrix(0.33543861,0,0,0.33543861,-0.49999999,-0.49999999)"
         clip-rule="evenodd"
         id="path50" />
    </clipPath>
    <clipPath
       clipPathUnits="userSpaceOnUse"
       id="clipPath51">
      <path
         d="M 0,0 H 712.49994 V 608.15894 H 0 Z"
         transform="matrix(0.33543526,0,0,0.33543526,-62.984376,-155)"
         clip-rule="evenodd"
         id="path51" />
    </clipPath>
    <clipPath
       clipPathUnits="userSpaceOnUse"
       id="clipPath53">
      <path
         d="M 0,0 H 712.49994 V 608.15894 H 0 Z"
         transform="matrix(0.33543861,0,0,0.33543861,-0.49999999,-0.49999999)"
         clip-rule="evenodd"
         id="path53" />
    </clipPath>
    <clipPath
       clipPathUnits="userSpaceOnUse"
       id="clipPath54">
      <path
         d="M 0,0 H 712.49994 V 608.15894 H 0 Z"
         transform="matrix(0.33543526,0,0,0.33543526,-156.3125,-155)"
         clip-rule="evenodd"
         id="path54" />
    </clipPath>
    <clipPath
       clipPathUnits="userSpaceOnUse"
       id="clipPath56">
      <path
         d="M 0,0 H 712.49994 V 608.15894 H 0 Z"
         transform="matrix(0.33543861,0,0,0.33543861,-0.49999999,-0.49999999)"
         clip-rule="evenodd"
         id="path56" />
    </clipPath>
    <clipPath
       clipPathUnits="userSpaceOnUse"
       id="clipPath57">
      <path
         d="M 0,0 H 712.49994 V 608.15894 H 0 Z"
         transform="matrix(0.33543526,0,0,0.33543526,-53.3125,-175)"
         clip-rule="evenodd"
         id="path57" />
    </clipPath>
    <clipPath
       clipPathUnits="userSpaceOnUse"
       id="clipPath59">
      <path
         d="M 0,0 H 712.49994 V 608.15894 H 0 Z"
         transform="matrix(0.33543861,0,0,0.33543861,-0.49999999,-0.49999999)"
         clip-rule="evenodd"
         id="path59" />
    </clipPath>
    <clipPath
       clipPathUnits="userSpaceOnUse"
       id="clipPath60">
      <path
         d="M 0,0 H 712.49994 V 608.15894 H 0 Z"
         transform="matrix(0.33543526,0,0,0.33543526,-152.35938,-175)"
         clip-rule="evenodd"
         id="path60" />
    </clipPath>
    <clipPath
       clipPathUnits="userSpaceOnUse"
       id="clipPath62">
      <path
         d="M 0,0 H 712.49994 V 608.15894 H 0 Z"
         transform="matrix(0.33543861,0,0,0.33543861,-0.49999999,-0.49999999)"
         clip-rule="evenodd"
         id="path62" />
    </clipPath>
    <clipPath
       clipPathUnits="userSpaceOnUse"
       id="clipPath63">
      <path
         d="M 0,0 H 712.49994 V 608.15894 H 0 Z"
         transform="matrix(0.33543526,0,0,0.33543526,-48.65625,-195)"
         clip-rule="evenodd"
         id="path63" />
    </clipPath>
    <clipPath
       clipPathUnits="userSpaceOnUse"
       id="clipPath65">
      <path
         d="M 0,0 H 712.49994 V 608.15894 H 0 Z"
         transform="matrix(0.33543861,0,0,0.33543861,-0.49999999,-0.49999999)"
         clip-rule="evenodd"
         id="path65" />
    </clipPath>
    <clipPath
       clipPathUnits="userSpaceOnUse"
       id="clipPath66">
      <path
         d="M 0,0 H 712.49994 V 608.15894 H 0 Z"
         transform="matrix(0.33543526,0,0,0.33543526,-152.03125,-195)"
         clip-rule="evenodd"
         id="path66" />
    </clipPath>
  </defs>
  <sodipodi:namedview
     id="namedview1"
     pagecolor="#ffffff"
     bordercolor="#000000"
     borderopacity="0.25"
     inkscape:showpageshadow="2"
     inkscape:pageopacity="0.0"
     inkscape:pagecheckerboard="0"
     inkscape:deskcolor="#d1d1d1">
    <inkscape:page
       x="0"
       y="0"
       inkscape:label="1"
       id="page1"
       width="228.16"
       height="196.15999"
       margin="0"
       bleed="0" />
  </sodipodi:namedview>
  <g
     id="g1"
     inkscape:groupmode="layer"
     inkscape:label="1">
    <path
       id="path1"
       d="M 0,0 H 239 V 205 H 0 Z"
       style="fill:#ffffff;fill-opacity:1;fill-rule:nonzero;stroke:none"
       transform="scale(0.95397481)"
       clip-path="url(#clipPath2)" />
    <path
       id="path3"
       d="M 28,1 H 208 V 21 H 28 Z"
       style="fill:#dae8fc;fill-opacity:1;fill-rule:nonzero;stroke:#6c8ebf;stroke-width:1;stroke-linecap:butt;stroke-linejoin:miter;stroke-miterlimit:10;stroke-dasharray:none;stroke-opacity:1"
       transform="matrix(0.95397481,0,0,0.95397481,0.4769874,0.4769874)"
       clip-path="url(#clipPath4)" />
    <g
       id="g4" />
    <text
       id="text4"
       xml:space="preserve"
       transform="matrix(0.95398434,0,0,0.95398434,54.883912,15.26375)"
       clip-path="url(#clipPath5)"><tspan
         style="font-variant:normal;font-weight:700;font-size:16px;font-family:Helvetica;writing-mode:lr-tb;fill:#000000;fill-opacity:1;fill-rule:nonzero;stroke:none"
         x="0 4.4453125 14.21875 19.546875 28.445312 34.671875 40 48.898438 57.796875 66.695312 71.140625 81.8125 88.039062 97.8125 107.58594 112.03125"
         y="0"
         sodipodi:role="line"
         id="tspan4">interface Proﬁle</tspan></text>
    <path
       id="path6"
       d="m 28,21 h 90 V 41 H 28 Z"
       style="fill:#d5e8d4;fill-opacity:1;fill-rule:nonzero;stroke:#82b366;stroke-width:1;stroke-linecap:butt;stroke-linejoin:miter;stroke-miterlimit:10;stroke-dasharray:none;stroke-opacity:1"
       transform="matrix(0.95397481,0,0,0.95397481,0.4769874,0.4769874)"
       clip-path="url(#clipPath7)" />
    <text
       id="text7"
       xml:space="preserve"
       transform="matrix(0.95398434,0,0,0.95398434,48.638296,33.389452)"
       clip-path="url(#clipPath8)"><tspan
         style="font-variant:normal;font-weight:normal;font-size:12px;font-family:Helvetica;writing-mode:lr-tb;fill:#000000;fill-opacity:1;fill-rule:nonzero;stroke:none"
         x="0 6.6738281 10.669922 17.34375 24.017578 30.691406 34.6875 38.021484"
         y="0"
         sodipodi:role="line"
         id="tspan7">property</tspan></text>
    <path
       id="path9"
       d="m 118,21 h 90 v 20 h -90 z"
       style="fill:#d5e8d4;fill-opacity:1;fill-rule:nonzero;stroke:#82b366;stroke-width:1;stroke-linecap:butt;stroke-linejoin:miter;stroke-miterlimit:10;stroke-dasharray:none;stroke-opacity:1"
       transform="matrix(0.95397481,0,0,0.95397481,0.4769874,0.4769874)"
       clip-path="url(#clipPath10)" />
    <text
       id="text10"
       xml:space="preserve"
       transform="matrix(0.95398434,0,0,0.95398434,143.7237,33.389452)"
       clip-path="url(#clipPath11)"><tspan
         style="font-variant:normal;font-weight:700;font-size:12px;font-family:Helvetica;writing-mode:lr-tb;fill:#000000;fill-opacity:1;fill-rule:nonzero;stroke:none"
         x="0 3.9960938 10.669922 18"
         y="0"
         sodipodi:role="line"
         id="tspan10">type</tspan></text>
    <path
       id="path12"
       d="M 28,51 H 8 v 100 h 13.629999"
       style="fill:none;stroke:#000000;stroke-width:1;stroke-linecap:butt;stroke-linejoin:miter;stroke-miterlimit:10;stroke-dasharray:none;stroke-opacity:1"
       transform="matrix(0.95397481,0,0,0.95397481,0.4769874,0.4769874)"
       clip-path="url(#clipPath13)" />
    <path
       id="path14"
       d="m 26.879999,151 -7,3.5 1.75,-3.5 -1.75,-3.5 z"
       style="fill:#000000;fill-opacity:1;fill-rule:nonzero;stroke:#000000;stroke-width:1;stroke-linecap:butt;stroke-linejoin:miter;stroke-miterlimit:10;stroke-dasharray:none;stroke-opacity:1"
       transform="matrix(0.95397481,0,0,0.95397481,0.4769874,0.4769874)"
       clip-path="url(#clipPath15)" />
    <path
       id="path16"
       d="m 28,41 h 90 V 61 H 28 Z"
       style="fill:#ffffff;fill-opacity:1;fill-rule:nonzero;stroke:#000000;stroke-width:1;stroke-linecap:butt;stroke-linejoin:miter;stroke-miterlimit:10;stroke-dasharray:none;stroke-opacity:1"
       transform="matrix(0.95397481,0,0,0.95397481,0.4769874,0.4769874)"
       clip-path="url(#clipPath17)" />
    <text
       id="text17"
       xml:space="preserve"
       transform="matrix(0.95398434,0,0,0.95398434,60.086108,52.469139)"
       clip-path="url(#clipPath18)"><tspan
         style="font-variant:normal;font-weight:normal;font-size:12px;font-family:Helvetica;writing-mode:lr-tb;fill:#000000;fill-opacity:1;fill-rule:nonzero;stroke:none"
         x="0 6.6738281 13.347656"
         y="0"
         sodipodi:role="line"
         id="tspan17">age</tspan></text>
    <path
       id="path19"
       d="m 208,51 h 20 v 100 h -13.63"
       style="fill:none;stroke:#000000;stroke-width:1;stroke-linecap:butt;stroke-linejoin:miter;stroke-miterlimit:10;stroke-dasharray:none;stroke-opacity:1"
       transform="matrix(0.95397481,0,0,0.95397481,0.4769874,0.4769874)"
       clip-path="url(#clipPath20)" />
    <path
       id="path21"
       d="m 209.12,151 7,-3.5 -1.75,3.5 1.75,3.5 z"
       style="fill:#000000;fill-opacity:1;fill-rule:nonzero;stroke:#000000;stroke-width:1;stroke-linecap:butt;stroke-linejoin:miter;stroke-miterlimit:10;stroke-dasharray:none;stroke-opacity:1"
       transform="matrix(0.95397481,0,0,0.95397481,0.4769874,0.4769874)"
       clip-path="url(#clipPath22)" />
    <path
       id="path23"
       d="m 118,41 h 90 v 20 h -90 z"
       style="fill:#ffffff;fill-opacity:1;fill-rule:nonzero;stroke:#000000;stroke-width:1;stroke-linecap:butt;stroke-linejoin:miter;stroke-miterlimit:10;stroke-dasharray:none;stroke-opacity:1"
       transform="matrix(0.95397481,0,0,0.95397481,0.4769874,0.4769874)"
       clip-path="url(#clipPath24)" />
    <text
       id="text24"
       xml:space="preserve"
       transform="matrix(0.95398434,0,0,0.95398434,136.09183,52.469139)"
       clip-path="url(#clipPath25)"><tspan
         style="font-variant:normal;font-weight:normal;font-size:12px;font-family:Helvetica;writing-mode:lr-tb;fill:#000000;fill-opacity:1;fill-rule:nonzero;stroke:none"
         x="0 6.6738281 13.347656 23.34375 30.017578 36.691406"
         y="0"
         sodipodi:role="line"
         id="tspan24">number</tspan></text>
    <path
       id="path26"
       d="M 28,71 H 8 v 100 h 13.629999"
       style="fill:none;stroke:#000000;stroke-width:1;stroke-linecap:butt;stroke-linejoin:miter;stroke-miterlimit:10;stroke-dasharray:none;stroke-opacity:1"
       transform="matrix(0.95397481,0,0,0.95397481,0.4769874,0.4769874)"
       clip-path="url(#clipPath27)" />
    <path
       id="path28"
       d="m 26.879999,171 -7,3.5 1.75,-3.5 -1.75,-3.5 z"
       style="fill:#000000;fill-opacity:1;fill-rule:nonzero;stroke:#000000;stroke-width:1;stroke-linecap:butt;stroke-linejoin:miter;stroke-miterlimit:10;stroke-dasharray:none;stroke-opacity:1"
       transform="matrix(0.95397481,0,0,0.95397481,0.4769874,0.4769874)"
       clip-path="url(#clipPath29)" />
    <path
       id="path30"
       d="m 28,61 h 90 V 81 H 28 Z"
       style="fill:#ffffff;fill-opacity:1;fill-rule:nonzero;stroke:#000000;stroke-width:1;stroke-linecap:butt;stroke-linejoin:miter;stroke-miterlimit:10;stroke-dasharray:none;stroke-opacity:1"
       transform="matrix(0.95397481,0,0,0.95397481,0.4769874,0.4769874)"
       clip-path="url(#clipPath31)" />
    <text
       id="text31"
       xml:space="preserve"
       transform="matrix(0.95398434,0,0,0.95398434,50.85929,71.548826)"
       clip-path="url(#clipPath32)"><tspan
         style="font-variant:normal;font-weight:normal;font-size:12px;font-family:Helvetica;writing-mode:lr-tb;fill:#000000;fill-opacity:1;fill-rule:nonzero;stroke:none"
         x="0 6 12.673828 19.347656 26.021484 29.355469 33.351562"
         y="0"
         sodipodi:role="line"
         id="tspan31">country</tspan></text>
    <path
       id="path33"
       d="m 208,71 h 20 v 100 h -13.63"
       style="fill:none;stroke:#000000;stroke-width:1;stroke-linecap:butt;stroke-linejoin:miter;stroke-miterlimit:10;stroke-dasharray:none;stroke-opacity:1"
       transform="matrix(0.95397481,0,0,0.95397481,0.4769874,0.4769874)"
       clip-path="url(#clipPath34)" />
    <path
       id="path35"
       d="m 209.12,171 7,-3.5 -1.75,3.5 1.75,3.5 z"
       style="fill:#000000;fill-opacity:1;fill-rule:nonzero;stroke:#000000;stroke-width:1;stroke-linecap:butt;stroke-linejoin:miter;stroke-miterlimit:10;stroke-dasharray:none;stroke-opacity:1"
       transform="matrix(0.95397481,0,0,0.95397481,0.4769874,0.4769874)"
       clip-path="url(#clipPath36)" />
    <path
       id="path37"
       d="m 118,61 h 90 v 20 h -90 z"
       style="fill:#ffffff;fill-opacity:1;fill-rule:nonzero;stroke:#000000;stroke-width:1;stroke-linecap:butt;stroke-linejoin:miter;stroke-miterlimit:10;stroke-dasharray:none;stroke-opacity:1"
       transform="matrix(0.95397481,0,0,0.95397481,0.4769874,0.4769874)"
       clip-path="url(#clipPath38)" />
    <text
       id="text38"
       xml:space="preserve"
       transform="matrix(0.95398434,0,0,0.95398434,141.50271,71.548826)"
       clip-path="url(#clipPath39)"><tspan
         style="font-variant:normal;font-weight:normal;font-size:12px;font-family:Helvetica;writing-mode:lr-tb;fill:#000000;fill-opacity:1;fill-rule:nonzero;stroke:none"
         x="0 6 9.3339844 13.330078 15.996094 22.669922"
         y="0"
         sodipodi:role="line"
         id="tspan38">string</tspan></text>
    <path
       id="path40"
       d="m 28,101 h 180 v 20 H 28 Z"
       style="fill:#dae8fc;fill-opacity:1;fill-rule:nonzero;stroke:#6c8ebf;stroke-width:1;stroke-linecap:butt;stroke-linejoin:miter;stroke-miterlimit:10;stroke-dasharray:none;stroke-opacity:1"
       transform="matrix(0.95397481,0,0,0.95397481,0.4769874,0.4769874)"
       clip-path="url(#clipPath41)" />
    <text
       id="text41"
       xml:space="preserve"
       transform="matrix(0.95398434,0,0,0.95398434,97.708865,110.66218)"
       clip-path="url(#clipPath42)"><tspan
         style="font-variant:normal;font-weight:700;font-size:16px;font-family:Helvetica;writing-mode:lr-tb;fill:#000000;fill-opacity:1;fill-rule:nonzero;stroke:none"
         x="0 8.8984375 13.34375 22.242188"
         y="0"
         sodipodi:role="line"
         id="tspan41">alex</tspan></text>
    <path
       id="path43"
       d="m 28,121 h 90 v 20 H 28 Z"
       style="fill:#fff2cc;fill-opacity:1;fill-rule:nonzero;stroke:#d6b656;stroke-width:1;stroke-linecap:butt;stroke-linejoin:miter;stroke-miterlimit:10;stroke-dasharray:none;stroke-opacity:1"
       transform="matrix(0.95397481,0,0,0.95397481,0.4769874,0.4769874)"
       clip-path="url(#clipPath44)" />
    <text
       id="text44"
       xml:space="preserve"
       transform="matrix(0.95398434,0,0,0.95398434,48.638296,128.78789)"
       clip-path="url(#clipPath45)"><tspan
         style="font-variant:normal;font-weight:normal;font-size:12px;font-family:Helvetica;writing-mode:lr-tb;fill:#000000;fill-opacity:1;fill-rule:nonzero;stroke:none"
         x="0 6.6738281 10.669922 17.34375 24.017578 30.691406 34.6875 38.021484"
         y="0"
         sodipodi:role="line"
         id="tspan44">property</tspan></text>
    <path
       id="path46"
       d="m 118,121 h 90 v 20 h -90 z"
       style="fill:#fff2cc;fill-opacity:1;fill-rule:nonzero;stroke:#d6b656;stroke-width:1;stroke-linecap:butt;stroke-linejoin:miter;stroke-miterlimit:10;stroke-dasharray:none;stroke-opacity:1"
       transform="matrix(0.95397481,0,0,0.95397481,0.4769874,0.4769874)"
       clip-path="url(#clipPath47)" />
    <text
       id="text47"
       xml:space="preserve"
       transform="matrix(0.95398434,0,0,0.95398434,140.86175,128.78789)"
       clip-path="url(#clipPath48)"><tspan
         style="font-variant:normal;font-weight:700;font-size:12px;font-family:Helvetica;writing-mode:lr-tb;fill:#000000;fill-opacity:1;fill-rule:nonzero;stroke:none"
         x="0 6.6738281 13.347656 16.681641 24.011719"
         y="0"
         sodipodi:role="line"
         id="tspan47">value</tspan></text>
    <path
       id="path49"
       d="m 28,141 h 90 v 20 H 28 Z"
       style="fill:#ffffff;fill-opacity:1;fill-rule:nonzero;stroke:#000000;stroke-width:1;stroke-linecap:butt;stroke-linejoin:miter;stroke-miterlimit:10;stroke-dasharray:none;stroke-opacity:1"
       transform="matrix(0.95397481,0,0,0.95397481,0.4769874,0.4769874)"
       clip-path="url(#clipPath50)" />
    <text
       id="text50"
       xml:space="preserve"
       transform="matrix(0.95398434,0,0,0.95398434,60.086108,147.86757)"
       clip-path="url(#clipPath51)"><tspan
         style="font-variant:normal;font-weight:normal;font-size:12px;font-family:Helvetica;writing-mode:lr-tb;fill:#000000;fill-opacity:1;fill-rule:nonzero;stroke:none"
         x="0 6.6738281 13.347656"
         y="0"
         sodipodi:role="line"
         id="tspan50">age</tspan></text>
    <path
       id="path52"
       d="m 118,141 h 90 v 20 h -90 z"
       style="fill:#ffffff;fill-opacity:1;fill-rule:nonzero;stroke:#000000;stroke-width:1;stroke-linecap:butt;stroke-linejoin:miter;stroke-miterlimit:10;stroke-dasharray:none;stroke-opacity:1"
       transform="matrix(0.95397481,0,0,0.95397481,0.4769874,0.4769874)"
       clip-path="url(#clipPath53)" />
    <text
       id="text53"
       xml:space="preserve"
       transform="matrix(0.95398434,0,0,0.95398434,149.11968,147.86757)"
       clip-path="url(#clipPath54)"><tspan
         style="font-variant:normal;font-weight:normal;font-size:12px;font-family:Helvetica;writing-mode:lr-tb;fill:#000000;fill-opacity:1;fill-rule:nonzero;stroke:none"
         x="0 6.6738281"
         y="0"
         sodipodi:role="line"
         id="tspan53">23</tspan></text>
    <path
       id="path55"
       d="m 28,161 h 90 v 20 H 28 Z"
       style="fill:#ffffff;fill-opacity:1;fill-rule:nonzero;stroke:#000000;stroke-width:1;stroke-linecap:butt;stroke-linejoin:miter;stroke-miterlimit:10;stroke-dasharray:none;stroke-opacity:1"
       transform="matrix(0.95397481,0,0,0.95397481,0.4769874,0.4769874)"
       clip-path="url(#clipPath56)" />
    <text
       id="text56"
       xml:space="preserve"
       transform="matrix(0.95398434,0,0,0.95398434,50.85929,166.94726)"
       clip-path="url(#clipPath57)"><tspan
         style="font-variant:normal;font-weight:normal;font-size:12px;font-family:Helvetica;writing-mode:lr-tb;fill:#000000;fill-opacity:1;fill-rule:nonzero;stroke:none"
         x="0 6 12.673828 19.347656 26.021484 29.355469 33.351562"
         y="0"
         sodipodi:role="line"
         id="tspan56">country</tspan></text>
    <path
       id="path58"
       d="m 118,161 h 90 v 20 h -90 z"
       style="fill:#ffffff;fill-opacity:1;fill-rule:nonzero;stroke:#000000;stroke-width:1;stroke-linecap:butt;stroke-linejoin:miter;stroke-miterlimit:10;stroke-dasharray:none;stroke-opacity:1"
       transform="matrix(0.95397481,0,0,0.95397481,0.4769874,0.4769874)"
       clip-path="url(#clipPath59)" />
    <text
       id="text59"
       xml:space="preserve"
       transform="matrix(0.95398434,0,0,0.95398434,145.34846,166.94726)"
       clip-path="url(#clipPath60)"><tspan
         style="font-variant:normal;font-weight:normal;font-size:12px;font-family:Helvetica;writing-mode:lr-tb;fill:#000000;fill-opacity:1;fill-rule:nonzero;stroke:none"
         x="0 2.2910156 10.957031 18.960938"
         y="0"
         sodipodi:role="line"
         id="tspan59">'US'</tspan></text>
    <path
       id="path61"
       d="m 28,181 h 90 v 20 H 28 Z"
       style="fill:#ffffff;fill-opacity:1;fill-rule:nonzero;stroke:#000000;stroke-width:1;stroke-linecap:butt;stroke-linejoin:miter;stroke-miterlimit:10;stroke-dasharray:none;stroke-opacity:1"
       transform="matrix(0.95397481,0,0,0.95397481,0.4769874,0.4769874)"
       clip-path="url(#clipPath62)" />
    <text
       id="text62"
       xml:space="preserve"
       transform="matrix(0.95398434,0,0,0.95398434,46.417301,186.02695)"
       clip-path="url(#clipPath63)"><tspan
         style="font-variant:normal;font-weight:normal;font-size:12px;font-family:Helvetica;writing-mode:lr-tb;fill:#000000;fill-opacity:1;fill-rule:nonzero;stroke:none"
         x="0 6.6738281 13.347656 16.013672 20.009766 28.675781 35.349609 38.015625 44.689453"
         y="0"
         sodipodi:role="line"
         id="tspan62">hairColor</tspan></text>
    <path
       id="path64"
       d="m 118,181 h 90 v 20 h -90 z"
       style="fill:#ffffff;fill-opacity:1;fill-rule:nonzero;stroke:#000000;stroke-width:1;stroke-linecap:butt;stroke-linejoin:miter;stroke-miterlimit:10;stroke-dasharray:none;stroke-opacity:1"
       transform="matrix(0.95397481,0,0,0.95397481,0.4769874,0.4769874)"
       clip-path="url(#clipPath65)" />
    <text
       id="text65"
       xml:space="preserve"
       transform="matrix(0.95398434,0,0,0.95398434,145.03543,186.02695)"
       clip-path="url(#clipPath66)"><tspan
         style="font-variant:normal;font-weight:normal;font-size:12px;font-family:Helvetica;writing-mode:lr-tb;fill:#000000;fill-opacity:1;fill-rule:nonzero;stroke:none"
         x="0 2.2910156 6.2871094 12.960938 19.634766"
         y="0"
         sodipodi:role="line"
         id="tspan65">'red'</tspan></text>
  </g>
</svg>
