<?xml version="1.0" encoding="UTF-8" standalone="no"?>
<!-- Created with Inkscape (http://www.inkscape.org/) -->

<svg
   version="1.1"
   id="svg1"
   width="366.72"
   height="206.71999"
   viewBox="0 0 366.72 206.71999"
   sodipodi:docname="ts-13.pdf"
   xmlns:inkscape="http://www.inkscape.org/namespaces/inkscape"
   xmlns:sodipodi="http://sodipodi.sourceforge.net/DTD/sodipodi-0.dtd"
   xmlns="http://www.w3.org/2000/svg"
   xmlns:svg="http://www.w3.org/2000/svg">
  <defs
     id="defs1">
    <clipPath
       clipPathUnits="userSpaceOnUse"
       id="clipPath2">
      <path
         d="M 0,0 H 1145.8333 V 643.22235 H 0 Z"
         transform="scale(0.33425455)"
         clip-rule="evenodd"
         id="path2" />
    </clipPath>
    <clipPath
       clipPathUnits="userSpaceOnUse"
       id="clipPath4">
      <path
         d="M 0,0 H 1145.8333 V 640.23065 H 0 Z"
         transform="matrix(0.33425455,0,0,0.33425455,-0.49999999,-0.49999999)"
         clip-rule="evenodd"
         id="path4" />
    </clipPath>
    <clipPath
       clipPathUnits="userSpaceOnUse"
       id="clipPath5">
      <path
         d="M 0,0 H 1145.8333 V 640.23065 H 0 Z"
         transform="matrix(0.3342512,0,0,0.3342512,-30.53125,-21)"
         clip-rule="evenodd"
         id="path5" />
    </clipPath>
    <clipPath
       clipPathUnits="userSpaceOnUse"
       id="clipPath7">
      <path
         d="M 0,0 H 1145.8333 V 640.23065 H 0 Z"
         transform="matrix(0.33425455,0,0,0.33425455,-0.49999999,-0.49999999)"
         clip-rule="evenodd"
         id="path7" />
    </clipPath>
    <clipPath
       clipPathUnits="userSpaceOnUse"
       id="clipPath8">
      <path
         d="M 0,0 H 1145.8333 V 640.23065 H 0 Z"
         transform="matrix(0.3342512,0,0,0.3342512,-23.984375,-45)"
         clip-rule="evenodd"
         id="path8" />
    </clipPath>
    <clipPath
       clipPathUnits="userSpaceOnUse"
       id="clipPath10">
      <path
         d="M 0,0 H 1145.8333 V 640.23065 H 0 Z"
         transform="matrix(0.33425455,0,0,0.33425455,-0.49999999,-0.49999999)"
         clip-rule="evenodd"
         id="path10" />
    </clipPath>
    <clipPath
       clipPathUnits="userSpaceOnUse"
       id="clipPath11">
      <path
         d="M 0,0 H 1145.8333 V 640.23065 H 0 Z"
         transform="matrix(0.3342512,0,0,0.3342512,-123.65625,-45)"
         clip-rule="evenodd"
         id="path11" />
    </clipPath>
    <clipPath
       clipPathUnits="userSpaceOnUse"
       id="clipPath13">
      <path
         d="M 0,0 H 1145.8333 V 640.23065 H 0 Z"
         transform="matrix(0.33425455,0,0,0.33425455,-0.49999999,-0.49999999)"
         clip-rule="evenodd"
         id="path13" />
    </clipPath>
    <clipPath
       clipPathUnits="userSpaceOnUse"
       id="clipPath14">
      <path
         d="M 0,0 H 1145.8333 V 640.23065 H 0 Z"
         transform="matrix(0.3342512,0,0,0.3342512,-35.984375,-65)"
         clip-rule="evenodd"
         id="path14" />
    </clipPath>
    <clipPath
       clipPathUnits="userSpaceOnUse"
       id="clipPath16">
      <path
         d="M 0,0 H 1145.8333 V 640.23065 H 0 Z"
         transform="matrix(0.33425455,0,0,0.33425455,-0.49999999,-0.49999999)"
         clip-rule="evenodd"
         id="path16" />
    </clipPath>
    <clipPath
       clipPathUnits="userSpaceOnUse"
       id="clipPath17">
      <path
         d="M 0,0 H 1145.8333 V 640.23065 H 0 Z"
         transform="matrix(0.3342512,0,0,0.3342512,-115.65625,-65)"
         clip-rule="evenodd"
         id="path17" />
    </clipPath>
    <clipPath
       clipPathUnits="userSpaceOnUse"
       id="clipPath19">
      <path
         d="M 0,0 H 1145.8333 V 640.23065 H 0 Z"
         transform="matrix(0.33425455,0,0,0.33425455,-0.49999999,-0.49999999)"
         clip-rule="evenodd"
         id="path19" />
    </clipPath>
    <clipPath
       clipPathUnits="userSpaceOnUse"
       id="clipPath20">
      <path
         d="M 0,0 H 1145.8333 V 640.23065 H 0 Z"
         transform="matrix(0.3342512,0,0,0.3342512,-26.3125,-85)"
         clip-rule="evenodd"
         id="path20" />
    </clipPath>
    <clipPath
       clipPathUnits="userSpaceOnUse"
       id="clipPath22">
      <path
         d="M 0,0 H 1145.8333 V 640.23065 H 0 Z"
         transform="matrix(0.33425455,0,0,0.33425455,-0.49999999,-0.49999999)"
         clip-rule="evenodd"
         id="path22" />
    </clipPath>
    <clipPath
       clipPathUnits="userSpaceOnUse"
       id="clipPath23">
      <path
         d="M 0,0 H 1145.8333 V 640.23065 H 0 Z"
         transform="matrix(0.3342512,0,0,0.3342512,-121.32812,-85)"
         clip-rule="evenodd"
         id="path23" />
    </clipPath>
    <clipPath
       clipPathUnits="userSpaceOnUse"
       id="clipPath25">
      <path
         d="M 0,0 H 1145.8333 V 640.23065 H 0 Z"
         transform="matrix(0.33425455,0,0,0.33425455,-0.49999999,-0.49999999)"
         clip-rule="evenodd"
         id="path25" />
    </clipPath>
    <clipPath
       clipPathUnits="userSpaceOnUse"
       id="clipPath26">
      <path
         d="M 0,0 H 1145.8333 V 640.23065 H 0 Z"
         transform="matrix(0.3342512,0,0,0.3342512,-75.421874,-141)"
         clip-rule="evenodd"
         id="path26" />
    </clipPath>
    <clipPath
       clipPathUnits="userSpaceOnUse"
       id="clipPath28">
      <path
         d="M 0,0 H 1145.8333 V 640.23065 H 0 Z"
         transform="matrix(0.33425455,0,0,0.33425455,-0.49999999,-0.49999999)"
         clip-rule="evenodd"
         id="path28" />
    </clipPath>
    <clipPath
       clipPathUnits="userSpaceOnUse"
       id="clipPath29">
      <path
         d="M 0,0 H 1145.8333 V 640.23065 H 0 Z"
         transform="matrix(0.3342512,0,0,0.3342512,-23.984375,-165)"
         clip-rule="evenodd"
         id="path29" />
    </clipPath>
    <clipPath
       clipPathUnits="userSpaceOnUse"
       id="clipPath31">
      <path
         d="M 0,0 H 1145.8333 V 640.23065 H 0 Z"
         transform="matrix(0.33425455,0,0,0.33425455,-0.49999999,-0.49999999)"
         clip-rule="evenodd"
         id="path31" />
    </clipPath>
    <clipPath
       clipPathUnits="userSpaceOnUse"
       id="clipPath32">
      <path
         d="M 0,0 H 1145.8333 V 640.23065 H 0 Z"
         transform="matrix(0.3342512,0,0,0.3342512,-120.65625,-165)"
         clip-rule="evenodd"
         id="path32" />
    </clipPath>
    <clipPath
       clipPathUnits="userSpaceOnUse"
       id="clipPath34">
      <path
         d="M 0,0 H 1145.8333 V 640.23065 H 0 Z"
         transform="matrix(0.33425455,0,0,0.33425455,-0.49999999,-0.49999999)"
         clip-rule="evenodd"
         id="path34" />
    </clipPath>
    <clipPath
       clipPathUnits="userSpaceOnUse"
       id="clipPath35">
      <path
         d="M 0,0 H 1145.8333 V 640.23065 H 0 Z"
         transform="matrix(0.3342512,0,0,0.3342512,-35.984375,-185)"
         clip-rule="evenodd"
         id="path35" />
    </clipPath>
    <clipPath
       clipPathUnits="userSpaceOnUse"
       id="clipPath37">
      <path
         d="M 0,0 H 1145.8333 V 640.23065 H 0 Z"
         transform="matrix(0.33425455,0,0,0.33425455,-0.49999999,-0.49999999)"
         clip-rule="evenodd"
         id="path37" />
    </clipPath>
    <clipPath
       clipPathUnits="userSpaceOnUse"
       id="clipPath38">
      <path
         d="M 0,0 H 1145.8333 V 640.23065 H 0 Z"
         transform="matrix(0.3342512,0,0,0.3342512,-129.3125,-185)"
         clip-rule="evenodd"
         id="path38" />
    </clipPath>
    <clipPath
       clipPathUnits="userSpaceOnUse"
       id="clipPath40">
      <path
         d="M 0,0 H 1145.8333 V 640.23065 H 0 Z"
         transform="matrix(0.33425455,0,0,0.33425455,-0.49999999,-0.49999999)"
         clip-rule="evenodd"
         id="path40" />
    </clipPath>
    <clipPath
       clipPathUnits="userSpaceOnUse"
       id="clipPath41">
      <path
         d="M 0,0 H 1145.8333 V 640.23065 H 0 Z"
         transform="matrix(0.3342512,0,0,0.3342512,-26.3125,-205)"
         clip-rule="evenodd"
         id="path41" />
    </clipPath>
    <clipPath
       clipPathUnits="userSpaceOnUse"
       id="clipPath43">
      <path
         d="M 0,0 H 1145.8333 V 640.23065 H 0 Z"
         transform="matrix(0.33425455,0,0,0.33425455,-0.49999999,-0.49999999)"
         clip-rule="evenodd"
         id="path43" />
    </clipPath>
    <clipPath
       clipPathUnits="userSpaceOnUse"
       id="clipPath44">
      <path
         d="M 0,0 H 1145.8333 V 640.23065 H 0 Z"
         transform="matrix(0.3342512,0,0,0.3342512,-125.35937,-205)"
         clip-rule="evenodd"
         id="path44" />
    </clipPath>
    <clipPath
       clipPathUnits="userSpaceOnUse"
       id="clipPath45">
      <path
         d="M 0,0 H 1145.8333 V 640.23065 H 0 Z"
         transform="matrix(0.3342512,0,0,0.3342512,-218.8125,-34)"
         clip-rule="evenodd"
         id="path45" />
    </clipPath>
    <clipPath
       clipPathUnits="userSpaceOnUse"
       id="clipPath46">
      <path
         d="M 0,0 H 1145.8333 V 640.23065 H 0 Z"
         transform="matrix(0.3342512,0,0,0.3342512,-227.70313,-58)"
         clip-rule="evenodd"
         id="path46" />
    </clipPath>
    <clipPath
       clipPathUnits="userSpaceOnUse"
       id="clipPath47">
      <path
         d="M 0,0 H 1145.8333 V 640.23065 H 0 Z"
         transform="matrix(0.3342512,0,0,0.3342512,-220.95313,-82)"
         clip-rule="evenodd"
         id="path47" />
    </clipPath>
    <clipPath
       clipPathUnits="userSpaceOnUse"
       id="clipPath48">
      <path
         d="M 0,0 H 1145.8333 V 640.23065 H 0 Z"
         transform="matrix(0.3342512,0,0,0.3342512,-216.79688,-151)"
         clip-rule="evenodd"
         id="path48" />
    </clipPath>
    <clipPath
       clipPathUnits="userSpaceOnUse"
       id="clipPath49">
      <path
         d="M 0,0 H 1145.8333 V 640.23065 H 0 Z"
         transform="matrix(0.3342512,0,0,0.3342512,-218.65625,-165)"
         clip-rule="evenodd"
         id="path49" />
    </clipPath>
    <clipPath
       clipPathUnits="userSpaceOnUse"
       id="clipPath50">
      <path
         d="M 0,0 H 1145.8333 V 640.23065 H 0 Z"
         transform="matrix(0.3342512,0,0,0.3342512,-221.70313,-180)"
         clip-rule="evenodd"
         id="path50" />
    </clipPath>
  </defs>
  <sodipodi:namedview
     id="namedview1"
     pagecolor="#ffffff"
     bordercolor="#000000"
     borderopacity="0.25"
     inkscape:showpageshadow="2"
     inkscape:pageopacity="0.0"
     inkscape:pagecheckerboard="0"
     inkscape:deskcolor="#d1d1d1">
    <inkscape:page
       x="0"
       y="0"
       inkscape:label="1"
       id="page1"
       width="366.72"
       height="206.71999"
       margin="0"
       bleed="0" />
  </sodipodi:namedview>
  <g
     id="g1"
     inkscape:groupmode="layer"
     inkscape:label="1">
    <path
       id="path1"
       d="M 0,0 H 383 V 215 H 0 Z"
       style="fill:#ffffff;fill-opacity:1;fill-rule:nonzero;stroke:none"
       transform="scale(0.95735417)"
       clip-path="url(#clipPath2)" />
    <path
       id="path3"
       d="M 1,1 H 181 V 31 H 1 Z"
       style="fill:#dae8fc;fill-opacity:1;fill-rule:nonzero;stroke:#6c8ebf;stroke-width:1;stroke-linecap:butt;stroke-linejoin:miter;stroke-miterlimit:10;stroke-dasharray:none;stroke-opacity:1"
       transform="matrix(0.95735417,0,0,0.95735417,0.47867708,0.47867708)"
       clip-path="url(#clipPath4)" />
    <g
       id="g4" />
    <text
       id="text4"
       xml:space="preserve"
       transform="matrix(0.95736377,0,0,0.95736377,29.229513,20.104639)"
       clip-path="url(#clipPath5)"><tspan
         style="font-variant:normal;font-weight:700;font-size:16px;font-family:Helvetica;writing-mode:lr-tb;fill:#000000;fill-opacity:1;fill-rule:nonzero;stroke:none"
         x="0 4.4453125 14.21875 19.546875 28.445312 34.671875 40 48.898438 57.796875 66.695312 71.140625 81.8125 88.039062 97.8125 107.58594 112.03125"
         y="0"
         sodipodi:role="line"
         id="tspan4">interface Proﬁle</tspan></text>
    <path
       id="path6"
       d="M 1,31 H 91 V 51 H 1 Z"
       style="fill:#d5e8d4;fill-opacity:1;fill-rule:nonzero;stroke:#82b366;stroke-width:1;stroke-linecap:butt;stroke-linejoin:miter;stroke-miterlimit:10;stroke-dasharray:none;stroke-opacity:1"
       transform="matrix(0.95735417,0,0,0.95735417,0.47867708,0.47867708)"
       clip-path="url(#clipPath7)" />
    <text
       id="text7"
       xml:space="preserve"
       transform="matrix(0.95736377,0,0,0.95736377,22.961772,43.08137)"
       clip-path="url(#clipPath8)"><tspan
         style="font-variant:normal;font-weight:normal;font-size:12px;font-family:Helvetica;writing-mode:lr-tb;fill:#000000;fill-opacity:1;fill-rule:nonzero;stroke:none"
         x="0 6.6738281 10.669922 17.34375 24.017578 30.691406 34.6875 38.021484"
         y="0"
         sodipodi:role="line"
         id="tspan7">property</tspan></text>
    <path
       id="path9"
       d="m 91,31 h 90 V 51 H 91 Z"
       style="fill:#d5e8d4;fill-opacity:1;fill-rule:nonzero;stroke:#82b366;stroke-width:1;stroke-linecap:butt;stroke-linejoin:miter;stroke-miterlimit:10;stroke-dasharray:none;stroke-opacity:1"
       transform="matrix(0.95735417,0,0,0.95735417,0.47867708,0.47867708)"
       clip-path="url(#clipPath10)" />
    <text
       id="text10"
       xml:space="preserve"
       transform="matrix(0.95736377,0,0,0.95736377,118.38401,43.08137)"
       clip-path="url(#clipPath11)"><tspan
         style="font-variant:normal;font-weight:700;font-size:12px;font-family:Helvetica;writing-mode:lr-tb;fill:#000000;fill-opacity:1;fill-rule:nonzero;stroke:none"
         x="0 3.9960938 10.669922 18"
         y="0"
         sodipodi:role="line"
         id="tspan10">type</tspan></text>
    <path
       id="path12"
       d="M 1,51 H 91 V 71 H 1 Z"
       style="fill:#ffffff;fill-opacity:1;fill-rule:nonzero;stroke:#000000;stroke-width:1;stroke-linecap:butt;stroke-linejoin:miter;stroke-miterlimit:10;stroke-dasharray:none;stroke-opacity:1"
       transform="matrix(0.95735417,0,0,0.95735417,0.47867708,0.47867708)"
       clip-path="url(#clipPath13)" />
    <text
       id="text13"
       xml:space="preserve"
       transform="matrix(0.95736377,0,0,0.95736377,34.450137,62.228645)"
       clip-path="url(#clipPath14)"><tspan
         style="font-variant:normal;font-weight:normal;font-size:12px;font-family:Helvetica;writing-mode:lr-tb;fill:#000000;fill-opacity:1;fill-rule:nonzero;stroke:none"
         x="0 6.6738281 13.347656"
         y="0"
         sodipodi:role="line"
         id="tspan13">age</tspan></text>
    <path
       id="path15"
       d="m 91,51 h 90 V 71 H 91 Z"
       style="fill:#ffffff;fill-opacity:1;fill-rule:nonzero;stroke:#000000;stroke-width:1;stroke-linecap:butt;stroke-linejoin:miter;stroke-miterlimit:10;stroke-dasharray:none;stroke-opacity:1"
       transform="matrix(0.95735417,0,0,0.95735417,0.47867708,0.47867708)"
       clip-path="url(#clipPath16)" />
    <text
       id="text16"
       xml:space="preserve"
       transform="matrix(0.95736377,0,0,0.95736377,110.7251,62.228645)"
       clip-path="url(#clipPath17)"><tspan
         style="font-variant:normal;font-weight:normal;font-size:12px;font-family:Helvetica;writing-mode:lr-tb;fill:#000000;fill-opacity:1;fill-rule:nonzero;stroke:none"
         x="0 6.6738281 13.347656 23.34375 30.017578 36.691406"
         y="0"
         sodipodi:role="line"
         id="tspan16">number</tspan></text>
    <path
       id="path18"
       d="M 1,71 H 91 V 91 H 1 Z"
       style="fill:#ffffff;fill-opacity:1;fill-rule:nonzero;stroke:#000000;stroke-width:1;stroke-linecap:butt;stroke-linejoin:miter;stroke-miterlimit:10;stroke-dasharray:none;stroke-opacity:1"
       transform="matrix(0.95735417,0,0,0.95735417,0.47867708,0.47867708)"
       clip-path="url(#clipPath19)" />
    <text
       id="text19"
       xml:space="preserve"
       transform="matrix(0.95736377,0,0,0.95736377,25.190634,81.37592)"
       clip-path="url(#clipPath20)"><tspan
         style="font-variant:normal;font-weight:normal;font-size:12px;font-family:Helvetica;writing-mode:lr-tb;fill:#000000;fill-opacity:1;fill-rule:nonzero;stroke:none"
         x="0 6 12.673828 19.347656 26.021484 29.355469 33.351562"
         y="0"
         sodipodi:role="line"
         id="tspan19">country</tspan></text>
    <path
       id="path21"
       d="m 91,71 h 90 V 91 H 91 Z"
       style="fill:#ffffff;fill-opacity:1;fill-rule:nonzero;stroke:#000000;stroke-width:1;stroke-linecap:butt;stroke-linejoin:miter;stroke-miterlimit:10;stroke-dasharray:none;stroke-opacity:1"
       transform="matrix(0.95735417,0,0,0.95735417,0.47867708,0.47867708)"
       clip-path="url(#clipPath22)" />
    <text
       id="text22"
       xml:space="preserve"
       transform="matrix(0.95736377,0,0,0.95736377,116.15515,81.37592)"
       clip-path="url(#clipPath23)"><tspan
         style="font-variant:normal;font-weight:normal;font-size:12px;font-family:Helvetica;writing-mode:lr-tb;fill:#000000;fill-opacity:1;fill-rule:nonzero;stroke:none"
         x="0 6 9.3339844 13.330078 15.996094 22.669922"
         y="0"
         sodipodi:role="line"
         id="tspan22">string</tspan></text>
    <path
       id="path24"
       d="m 1,121 h 180 v 30 H 1 Z"
       style="fill:#dae8fc;fill-opacity:1;fill-rule:nonzero;stroke:#6c8ebf;stroke-width:1;stroke-linecap:butt;stroke-linejoin:miter;stroke-miterlimit:10;stroke-dasharray:none;stroke-opacity:1"
       transform="matrix(0.95735417,0,0,0.95735417,0.47867708,0.47867708)"
       clip-path="url(#clipPath25)" />
    <text
       id="text25"
       xml:space="preserve"
       transform="matrix(0.95736377,0,0,0.95736377,72.20617,134.98829)"
       clip-path="url(#clipPath26)"><tspan
         style="font-variant:normal;font-weight:700;font-size:16px;font-family:Helvetica;writing-mode:lr-tb;fill:#000000;fill-opacity:1;fill-rule:nonzero;stroke:none"
         x="0 8.8984375 13.34375 22.242188"
         y="0"
         sodipodi:role="line"
         id="tspan25">alex</tspan></text>
    <path
       id="path27"
       d="m 1,151 h 90 v 20 H 1 Z"
       style="fill:#fff2cc;fill-opacity:1;fill-rule:nonzero;stroke:#d6b656;stroke-width:1;stroke-linecap:butt;stroke-linejoin:miter;stroke-miterlimit:10;stroke-dasharray:none;stroke-opacity:1"
       transform="matrix(0.95735417,0,0,0.95735417,0.47867708,0.47867708)"
       clip-path="url(#clipPath28)" />
    <text
       id="text28"
       xml:space="preserve"
       transform="matrix(0.95736377,0,0,0.95736377,22.961772,157.96502)"
       clip-path="url(#clipPath29)"><tspan
         style="font-variant:normal;font-weight:normal;font-size:12px;font-family:Helvetica;writing-mode:lr-tb;fill:#000000;fill-opacity:1;fill-rule:nonzero;stroke:none"
         x="0 6.6738281 10.669922 17.34375 24.017578 30.691406 34.6875 38.021484"
         y="0"
         sodipodi:role="line"
         id="tspan28">property</tspan></text>
    <path
       id="path30"
       d="m 91,151 h 90 v 20 H 91 Z"
       style="fill:#fff2cc;fill-opacity:1;fill-rule:nonzero;stroke:#d6b656;stroke-width:1;stroke-linecap:butt;stroke-linejoin:miter;stroke-miterlimit:10;stroke-dasharray:none;stroke-opacity:1"
       transform="matrix(0.95735417,0,0,0.95735417,0.47867708,0.47867708)"
       clip-path="url(#clipPath31)" />
    <text
       id="text31"
       xml:space="preserve"
       transform="matrix(0.95736377,0,0,0.95736377,115.51192,157.96502)"
       clip-path="url(#clipPath32)"><tspan
         style="font-variant:normal;font-weight:700;font-size:12px;font-family:Helvetica;writing-mode:lr-tb;fill:#000000;fill-opacity:1;fill-rule:nonzero;stroke:none"
         x="0 6.6738281 13.347656 16.681641 24.011719"
         y="0"
         sodipodi:role="line"
         id="tspan31">value</tspan></text>
    <path
       id="path33"
       d="m 1,171 h 90 v 20 H 1 Z"
       style="fill:#ffffff;fill-opacity:1;fill-rule:nonzero;stroke:#000000;stroke-width:1;stroke-linecap:butt;stroke-linejoin:miter;stroke-miterlimit:10;stroke-dasharray:none;stroke-opacity:1"
       transform="matrix(0.95735417,0,0,0.95735417,0.47867708,0.47867708)"
       clip-path="url(#clipPath34)" />
    <text
       id="text34"
       xml:space="preserve"
       transform="matrix(0.95736377,0,0,0.95736377,34.450137,177.1123)"
       clip-path="url(#clipPath35)"><tspan
         style="font-variant:normal;font-weight:normal;font-size:12px;font-family:Helvetica;writing-mode:lr-tb;fill:#000000;fill-opacity:1;fill-rule:nonzero;stroke:none"
         x="0 6.6738281 13.347656"
         y="0"
         sodipodi:role="line"
         id="tspan34">age</tspan></text>
    <path
       id="path36"
       d="m 91,171 h 90 v 20 H 91 Z"
       style="fill:#ffffff;fill-opacity:1;fill-rule:nonzero;stroke:#000000;stroke-width:1;stroke-linecap:butt;stroke-linejoin:miter;stroke-miterlimit:10;stroke-dasharray:none;stroke-opacity:1"
       transform="matrix(0.95735417,0,0,0.95735417,0.47867708,0.47867708)"
       clip-path="url(#clipPath37)" />
    <text
       id="text37"
       xml:space="preserve"
       transform="matrix(0.95736377,0,0,0.95736377,123.7991,177.1123)"
       clip-path="url(#clipPath38)"><tspan
         style="font-variant:normal;font-weight:normal;font-size:12px;font-family:Helvetica;writing-mode:lr-tb;fill:#000000;fill-opacity:1;fill-rule:nonzero;stroke:none"
         x="0 6.6738281"
         y="0"
         sodipodi:role="line"
         id="tspan37">23</tspan></text>
    <path
       id="path39"
       d="m 1,191 h 90 v 20 H 1 Z"
       style="fill:#ffffff;fill-opacity:1;fill-rule:nonzero;stroke:#000000;stroke-width:1;stroke-linecap:butt;stroke-linejoin:miter;stroke-miterlimit:10;stroke-dasharray:none;stroke-opacity:1"
       transform="matrix(0.95735417,0,0,0.95735417,0.47867708,0.47867708)"
       clip-path="url(#clipPath40)" />
    <text
       id="text40"
       xml:space="preserve"
       transform="matrix(0.95736377,0,0,0.95736377,25.190634,196.25957)"
       clip-path="url(#clipPath41)"><tspan
         style="font-variant:normal;font-weight:normal;font-size:12px;font-family:Helvetica;writing-mode:lr-tb;fill:#000000;fill-opacity:1;fill-rule:nonzero;stroke:none"
         x="0 6 12.673828 19.347656 26.021484 29.355469 33.351562"
         y="0"
         sodipodi:role="line"
         id="tspan40">country</tspan></text>
    <path
       id="path42"
       d="m 91,191 h 90 v 20 H 91 Z"
       style="fill:#ffffff;fill-opacity:1;fill-rule:nonzero;stroke:#000000;stroke-width:1;stroke-linecap:butt;stroke-linejoin:miter;stroke-miterlimit:10;stroke-dasharray:none;stroke-opacity:1"
       transform="matrix(0.95735417,0,0,0.95735417,0.47867708,0.47867708)"
       clip-path="url(#clipPath43)" />
    <text
       id="text43"
       xml:space="preserve"
       transform="matrix(0.95736377,0,0,0.95736377,120.01452,196.25957)"
       clip-path="url(#clipPath44)"><tspan
         style="font-variant:normal;font-weight:normal;font-size:12px;font-family:Helvetica;writing-mode:lr-tb;fill:#000000;fill-opacity:1;fill-rule:nonzero;stroke:none"
         x="0 2.2910156 10.957031 18.960938"
         y="0"
         sodipodi:role="line"
         id="tspan43">'US'</tspan></text>
    <text
       id="text44"
       xml:space="preserve"
       transform="matrix(0.95736377,0,0,0.95736377,209.48316,32.550368)"
       clip-path="url(#clipPath45)"><tspan
         style="font-variant:normal;font-weight:normal;font-size:20px;font-family:Helvetica;writing-mode:lr-tb;fill:#000000;fill-opacity:1;fill-rule:nonzero;stroke:none"
         x="0 13.339844 17.783203 28.90625 38.90625 44.462891 48.28125 52.724609 69.384766 80.507812 84.951172 96.074219 112.73438 123.85742 134.98047 140.53711 150.53711"
         y="0"
         sodipodi:role="line"
         id="tspan44">Alex 'implements'</tspan></text>
    <g
       id="g45" />
    <text
       id="text45"
       xml:space="preserve"
       transform="matrix(0.95736377,0,0,0.95736377,217.99473,55.527099)"
       clip-path="url(#clipPath46)"><tspan
         style="font-variant:normal;font-weight:normal;font-size:20px;font-family:Helvetica;writing-mode:lr-tb;fill:#000000;fill-opacity:1;fill-rule:nonzero;stroke:none"
         x="0 11.123047 17.783203 23.339844 27.158203 37.158203 48.28125 53.837891 58.28125 68.28125 78.28125 89.404297 99.404297 103.22266 108.7793 114.33594 125.45898"
         y="0"
         sodipodi:role="line"
         id="tspan45">or 'satisﬁes' the</tspan></text>
    <g
       id="g46" />
    <text
       id="text46"
       xml:space="preserve"
       transform="matrix(0.95736377,0,0,0.95736377,211.53252,78.503829)"
       clip-path="url(#clipPath47)"><tspan
         style="font-variant:normal;font-weight:normal;font-size:20px;font-family:Helvetica;writing-mode:lr-tb;fill:#000000;fill-opacity:1;fill-rule:nonzero;stroke:none"
         x="0 13.339844 20 31.123047 41.123047 45.566406 56.689453 62.246094 66.689453 77.8125 83.369141 94.492188 101.15234 106.70898 117.83203 127.83203 138.95508 144.51172"
         y="0"
         sodipodi:role="line"
         id="tspan46">Proﬁle interface! </tspan></text>
    <text
       id="text47"
       xml:space="preserve"
       transform="matrix(0.95736377,0,0,0.95736377,207.55348,144.56193)"
       clip-path="url(#clipPath48)"><tspan
         style="font-variant:normal;font-weight:normal;font-size:12px;font-family:Helvetica;writing-mode:lr-tb;fill:#000000;fill-opacity:1;fill-rule:nonzero;stroke:none"
         x="0 8.6660156 15.339844 18.673828 25.347656 28.681641 32.015625 38.689453 45.363281 48.697266 52.03125 60.697266 67.371094 70.705078 77.378906 80.044922 86.71875 93.392578 95.683594 99.017578 102.35156 109.02539 115.69922 121.69922 128.37305 131.70703 135.04102 141.71484 145.04883 151.72266"
         y="0"
         sodipodi:role="line"
         id="tspan47">Note that we didn't have to do</tspan></text>
    <text
       id="text48"
       xml:space="preserve"
       transform="matrix(0.95736377,0,0,0.95736377,209.33357,157.96502)"
       clip-path="url(#clipPath49)"><tspan
         style="font-variant:normal;font-weight:normal;font-size:12px;font-family:Helvetica;writing-mode:lr-tb;fill:#000000;fill-opacity:1;fill-rule:nonzero;stroke:none"
         x="0 6.6738281 13.347656 19.347656 22.681641 24.972656 30.972656 37.646484 43.646484 46.980469 49.646484 56.320312 62.994141 65.285156 68.619141 75.292969 79.289062 82.623047 89.296875 95.970703 101.9707 104.63672 111.31055 115.30664 121.98047 125.31445 127.98047 134.6543 141.32812 144.66211 147.99609"
         y="0"
         sodipodi:role="line"
         id="tspan48">any 'casting' or declaration to</tspan></text>
    <g
       id="g49" />
    <text
       id="text49"
       xml:space="preserve"
       transform="matrix(0.95736377,0,0,0.95736377,212.25054,172.32548)"
       clip-path="url(#clipPath50)"><tspan
         style="font-variant:normal;font-weight:normal;font-size:12px;font-family:Helvetica;writing-mode:lr-tb;fill:#000000;fill-opacity:1;fill-rule:nonzero;stroke:none"
         x="0 6 12.673828 18.673828 22.007812 25.341797 32.015625 38.689453 42.023438 45.357422 47.648438 54.322266 56.988281 63.662109 69.662109 71.953125 75.287109 83.953125 90.626953 96.626953 99.960938 106.63477 109.96875 112.25977 120.26367 124.25977 130.93359 136.93359 139.59961 146.27344"
         y="0"
         sodipodi:role="line"
         id="tspan49">say that 'alex' was a 'Proﬁle'</tspan></text>
  </g>
</svg>
