<?xml version="1.0" encoding="UTF-8" standalone="no"?>
<!-- Created with Inkscape (http://www.inkscape.org/) -->

<svg
   version="1.1"
   id="svg1"
   width="550.71997"
   height="489.28"
   viewBox="0 0 550.71997 489.28"
   sodipodi:docname="ts-5.pdf"
   xmlns:inkscape="http://www.inkscape.org/namespaces/inkscape"
   xmlns:sodipodi="http://sodipodi.sourceforge.net/DTD/sodipodi-0.dtd"
   xmlns="http://www.w3.org/2000/svg"
   xmlns:svg="http://www.w3.org/2000/svg">
  <defs
     id="defs1">
    <clipPath
       clipPathUnits="userSpaceOnUse"
       id="clipPath2">
      <path
         d="M 0,0 H 1720.8333 V 1526.3043 H 0 Z"
         transform="scale(0.33414045)"
         clip-rule="evenodd"
         id="path2" />
    </clipPath>
    <clipPath
       clipPathUnits="userSpaceOnUse"
       id="clipPath3">
      <path
         d="M 0,0 H 1720.8333 V 1523.3115 H 0 Z"
         transform="matrix(0.3341371,0,0,0.3341371,-50.484375,-25)"
         clip-rule="evenodd"
         id="path3" />
    </clipPath>
    <clipPath
       clipPathUnits="userSpaceOnUse"
       id="clipPath4">
      <path
         d="M 0,0 H 1720.8333 V 1523.3115 H 0 Z"
         transform="matrix(0.3341371,0,0,0.3341371,-307.96875,-25)"
         clip-rule="evenodd"
         id="path4" />
    </clipPath>
    <clipPath
       clipPathUnits="userSpaceOnUse"
       id="clipPath6">
      <path
         d="M 0,0 H 1720.8333 V 1523.3115 H 0 Z"
         transform="matrix(0.33414045,0,0,0.33414045,-0.5,-0.5)"
         clip-rule="evenodd"
         id="path6" />
    </clipPath>
    <clipPath
       clipPathUnits="userSpaceOnUse"
       id="clipPath7">
      <path
         d="M 0,0 H 1720.8333 V 1523.3115 H 0 Z"
         transform="matrix(0.3341371,0,0,0.3341371,-56.546875,-78)"
         clip-rule="evenodd"
         id="path7" />
    </clipPath>
    <clipPath
       clipPathUnits="userSpaceOnUse"
       id="clipPath9">
      <path
         d="M 0,0 H 1720.8333 V 1523.3115 H 0 Z"
         transform="matrix(0.33414045,0,0,0.33414045,-0.5,-0.5)"
         clip-rule="evenodd"
         id="path9" />
    </clipPath>
    <clipPath
       clipPathUnits="userSpaceOnUse"
       id="clipPath10">
      <path
         d="M 0,0 H 1720.8333 V 1523.3115 H 0 Z"
         transform="matrix(0.3341371,0,0,0.3341371,-203.8125,-78)"
         clip-rule="evenodd"
         id="path10" />
    </clipPath>
    <clipPath
       clipPathUnits="userSpaceOnUse"
       id="clipPath12">
      <path
         d="M 0,0 H 1720.8333 V 1523.3115 H 0 Z"
         transform="matrix(0.33414045,0,0,0.33414045,-0.5,-0.5)"
         clip-rule="evenodd"
         id="path12" />
    </clipPath>
    <clipPath
       clipPathUnits="userSpaceOnUse"
       id="clipPath13">
      <path
         d="M 0,0 H 1720.8333 V 1523.3115 H 0 Z"
         transform="matrix(0.3341371,0,0,0.3341371,-363.89062,-78)"
         clip-rule="evenodd"
         id="path13" />
    </clipPath>
    <clipPath
       clipPathUnits="userSpaceOnUse"
       id="clipPath15">
      <path
         d="M 0,0 H 1720.8333 V 1523.3115 H 0 Z"
         transform="matrix(0.33414045,0,0,0.33414045,-0.5,-0.5)"
         clip-rule="evenodd"
         id="path15" />
    </clipPath>
    <clipPath
       clipPathUnits="userSpaceOnUse"
       id="clipPath16">
      <path
         d="M 0,0 H 1720.8333 V 1523.3115 H 0 Z"
         transform="matrix(0.3341371,0,0,0.3341371,-462.40625,-66)"
         clip-rule="evenodd"
         id="path16" />
    </clipPath>
    <clipPath
       clipPathUnits="userSpaceOnUse"
       id="clipPath17">
      <path
         d="M 0,0 H 1720.8333 V 1523.3115 H 0 Z"
         transform="matrix(0.3341371,0,0,0.3341371,-463.5,-90)"
         clip-rule="evenodd"
         id="path17" />
    </clipPath>
    <clipPath
       clipPathUnits="userSpaceOnUse"
       id="clipPath19">
      <path
         d="M 0,0 H 1720.8333 V 1523.3115 H 0 Z"
         transform="matrix(0.33414045,0,0,0.33414045,-0.5,-0.5)"
         clip-rule="evenodd"
         id="path19" />
    </clipPath>
    <clipPath
       clipPathUnits="userSpaceOnUse"
       id="clipPath20">
      <path
         d="M 0,0 H 1720.8333 V 1523.3115 H 0 Z"
         transform="matrix(0.3341371,0,0,0.3341371,-47.09375,-146)"
         clip-rule="evenodd"
         id="path20" />
    </clipPath>
    <clipPath
       clipPathUnits="userSpaceOnUse"
       id="clipPath22">
      <path
         d="M 0,0 H 1720.8333 V 1523.3115 H 0 Z"
         transform="matrix(0.33414045,0,0,0.33414045,-0.5,-0.5)"
         clip-rule="evenodd"
         id="path22" />
    </clipPath>
    <clipPath
       clipPathUnits="userSpaceOnUse"
       id="clipPath23">
      <path
         d="M 0,0 H 1720.8333 V 1523.3115 H 0 Z"
         transform="matrix(0.3341371,0,0,0.3341371,-204.84375,-146)"
         clip-rule="evenodd"
         id="path23" />
    </clipPath>
    <clipPath
       clipPathUnits="userSpaceOnUse"
       id="clipPath25">
      <path
         d="M 0,0 H 1720.8333 V 1523.3115 H 0 Z"
         transform="matrix(0.33414045,0,0,0.33414045,-0.5,-0.5)"
         clip-rule="evenodd"
         id="path25" />
    </clipPath>
    <clipPath
       clipPathUnits="userSpaceOnUse"
       id="clipPath26">
      <path
         d="M 0,0 H 1720.8333 V 1523.3115 H 0 Z"
         transform="matrix(0.3341371,0,0,0.3341371,-356.54688,-146)"
         clip-rule="evenodd"
         id="path26" />
    </clipPath>
    <clipPath
       clipPathUnits="userSpaceOnUse"
       id="clipPath28">
      <path
         d="M 0,0 H 1720.8333 V 1523.3115 H 0 Z"
         transform="matrix(0.33414045,0,0,0.33414045,-0.5,-0.5)"
         clip-rule="evenodd"
         id="path28" />
    </clipPath>
    <clipPath
       clipPathUnits="userSpaceOnUse"
       id="clipPath29">
      <path
         d="M 0,0 H 1720.8333 V 1523.3115 H 0 Z"
         transform="matrix(0.3341371,0,0,0.3341371,-456.5,-146)"
         clip-rule="evenodd"
         id="path29" />
    </clipPath>
    <clipPath
       clipPathUnits="userSpaceOnUse"
       id="clipPath31">
      <path
         d="M 0,0 H 1720.8333 V 1523.3115 H 0 Z"
         transform="matrix(0.33414045,0,0,0.33414045,-0.5,-0.5)"
         clip-rule="evenodd"
         id="path31" />
    </clipPath>
    <clipPath
       clipPathUnits="userSpaceOnUse"
       id="clipPath32">
      <path
         d="M 0,0 H 1720.8333 V 1523.3115 H 0 Z"
         transform="matrix(0.3341371,0,0,0.3341371,-45.40625,-214)"
         clip-rule="evenodd"
         id="path32" />
    </clipPath>
    <clipPath
       clipPathUnits="userSpaceOnUse"
       id="clipPath34">
      <path
         d="M 0,0 H 1720.8333 V 1523.3115 H 0 Z"
         transform="matrix(0.33414045,0,0,0.33414045,-0.5,-0.5)"
         clip-rule="evenodd"
         id="path34" />
    </clipPath>
    <clipPath
       clipPathUnits="userSpaceOnUse"
       id="clipPath35">
      <path
         d="M 0,0 H 1720.8333 V 1523.3115 H 0 Z"
         transform="matrix(0.3341371,0,0,0.3341371,-223.76563,-214)"
         clip-rule="evenodd"
         id="path35" />
    </clipPath>
    <clipPath
       clipPathUnits="userSpaceOnUse"
       id="clipPath37">
      <path
         d="M 0,0 H 1720.8333 V 1523.3115 H 0 Z"
         transform="matrix(0.33414045,0,0,0.33414045,-0.5,-0.5)"
         clip-rule="evenodd"
         id="path37" />
    </clipPath>
    <clipPath
       clipPathUnits="userSpaceOnUse"
       id="clipPath38">
      <path
         d="M 0,0 H 1720.8333 V 1523.3115 H 0 Z"
         transform="matrix(0.3341371,0,0,0.3341371,-349.875,-214)"
         clip-rule="evenodd"
         id="path38" />
    </clipPath>
    <clipPath
       clipPathUnits="userSpaceOnUse"
       id="clipPath40">
      <path
         d="M 0,0 H 1720.8333 V 1523.3115 H 0 Z"
         transform="matrix(0.33414045,0,0,0.33414045,-0.5,-0.5)"
         clip-rule="evenodd"
         id="path40" />
    </clipPath>
    <clipPath
       clipPathUnits="userSpaceOnUse"
       id="clipPath42">
      <path
         d="M 0,0 H 1720.8333 V 1523.3115 H 0 Z"
         transform="matrix(0.33414045,0,0,0.33414045,-0.5,-0.5)"
         clip-rule="evenodd"
         id="path42" />
    </clipPath>
    <clipPath
       clipPathUnits="userSpaceOnUse"
       id="clipPath44">
      <path
         d="M 0,0 H 1720.8333 V 1523.3115 H 0 Z"
         transform="matrix(0.33414045,0,0,0.33414045,-0.5,-0.5)"
         clip-rule="evenodd"
         id="path44" />
    </clipPath>
    <clipPath
       clipPathUnits="userSpaceOnUse"
       id="clipPath45">
      <path
         d="M 0,0 H 1720.8333 V 1523.3115 H 0 Z"
         transform="matrix(0.3341371,0,0,0.3341371,-64.875,-278)"
         clip-rule="evenodd"
         id="path45" />
    </clipPath>
    <clipPath
       clipPathUnits="userSpaceOnUse"
       id="clipPath47">
      <path
         d="M 0,0 H 1720.8333 V 1523.3115 H 0 Z"
         transform="matrix(0.33414045,0,0,0.33414045,-0.5,-0.5)"
         clip-rule="evenodd"
         id="path47" />
    </clipPath>
    <clipPath
       clipPathUnits="userSpaceOnUse"
       id="clipPath48">
      <path
         d="M 0,0 H 1720.8333 V 1523.3115 H 0 Z"
         transform="matrix(0.3341371,0,0,0.3341371,-223.76563,-278)"
         clip-rule="evenodd"
         id="path48" />
    </clipPath>
    <clipPath
       clipPathUnits="userSpaceOnUse"
       id="clipPath50">
      <path
         d="M 0,0 H 1720.8333 V 1523.3115 H 0 Z"
         transform="matrix(0.33414045,0,0,0.33414045,-0.5,-0.5)"
         clip-rule="evenodd"
         id="path50" />
    </clipPath>
    <clipPath
       clipPathUnits="userSpaceOnUse"
       id="clipPath51">
      <path
         d="M 0,0 H 1720.8333 V 1523.3115 H 0 Z"
         transform="matrix(0.3341371,0,0,0.3341371,-356.54688,-278)"
         clip-rule="evenodd"
         id="path51" />
    </clipPath>
    <clipPath
       clipPathUnits="userSpaceOnUse"
       id="clipPath53">
      <path
         d="M 0,0 H 1720.8333 V 1523.3115 H 0 Z"
         transform="matrix(0.33414045,0,0,0.33414045,-0.5,-0.5)"
         clip-rule="evenodd"
         id="path53" />
    </clipPath>
    <clipPath
       clipPathUnits="userSpaceOnUse"
       id="clipPath54">
      <path
         d="M 0,0 H 1720.8333 V 1523.3115 H 0 Z"
         transform="matrix(0.3341371,0,0,0.3341371,-482.71875,-278)"
         clip-rule="evenodd"
         id="path54" />
    </clipPath>
    <clipPath
       clipPathUnits="userSpaceOnUse"
       id="clipPath56">
      <path
         d="M 0,0 H 1720.8333 V 1523.3115 H 0 Z"
         transform="matrix(0.33414045,0,0,0.33414045,-0.5,-0.5)"
         clip-rule="evenodd"
         id="path56" />
    </clipPath>
    <clipPath
       clipPathUnits="userSpaceOnUse"
       id="clipPath57">
      <path
         d="M 0,0 H 1720.8333 V 1523.3115 H 0 Z"
         transform="matrix(0.3341371,0,0,0.3341371,-65.421875,-348)"
         clip-rule="evenodd"
         id="path57" />
    </clipPath>
    <clipPath
       clipPathUnits="userSpaceOnUse"
       id="clipPath59">
      <path
         d="M 0,0 H 1720.8333 V 1523.3115 H 0 Z"
         transform="matrix(0.33414045,0,0,0.33414045,-0.5,-0.5)"
         clip-rule="evenodd"
         id="path59" />
    </clipPath>
    <clipPath
       clipPathUnits="userSpaceOnUse"
       id="clipPath60">
      <path
         d="M 0,0 H 1720.8333 V 1523.3115 H 0 Z"
         transform="matrix(0.3341371,0,0,0.3341371,-225.42188,-348)"
         clip-rule="evenodd"
         id="path60" />
    </clipPath>
    <clipPath
       clipPathUnits="userSpaceOnUse"
       id="clipPath62">
      <path
         d="M 0,0 H 1720.8333 V 1523.3115 H 0 Z"
         transform="matrix(0.33414045,0,0,0.33414045,-0.5,-0.5)"
         clip-rule="evenodd"
         id="path62" />
    </clipPath>
    <clipPath
       clipPathUnits="userSpaceOnUse"
       id="clipPath63">
      <path
         d="M 0,0 H 1720.8333 V 1523.3115 H 0 Z"
         transform="matrix(0.3341371,0,0,0.3341371,-37.0625,-412)"
         clip-rule="evenodd"
         id="path63" />
    </clipPath>
    <clipPath
       clipPathUnits="userSpaceOnUse"
       id="clipPath65">
      <path
         d="M 0,0 H 1720.8333 V 1523.3115 H 0 Z"
         transform="matrix(0.33414045,0,0,0.33414045,-0.5,-0.5)"
         clip-rule="evenodd"
         id="path65" />
    </clipPath>
    <clipPath
       clipPathUnits="userSpaceOnUse"
       id="clipPath66">
      <path
         d="M 0,0 H 1720.8333 V 1523.3115 H 0 Z"
         transform="matrix(0.3341371,0,0,0.3341371,-197.0625,-412)"
         clip-rule="evenodd"
         id="path66" />
    </clipPath>
    <clipPath
       clipPathUnits="userSpaceOnUse"
       id="clipPath68">
      <path
         d="M 0,0 H 1720.8333 V 1523.3115 H 0 Z"
         transform="matrix(0.33414045,0,0,0.33414045,-0.5,-0.5)"
         clip-rule="evenodd"
         id="path68" />
    </clipPath>
    <clipPath
       clipPathUnits="userSpaceOnUse"
       id="clipPath69">
      <path
         d="M 0,0 H 1720.8333 V 1523.3115 H 0 Z"
         transform="matrix(0.3341371,0,0,0.3341371,-62.640625,-480)"
         clip-rule="evenodd"
         id="path69" />
    </clipPath>
    <clipPath
       clipPathUnits="userSpaceOnUse"
       id="clipPath71">
      <path
         d="M 0,0 H 1720.8333 V 1523.3115 H 0 Z"
         transform="matrix(0.33414045,0,0,0.33414045,-0.5,-0.5)"
         clip-rule="evenodd"
         id="path71" />
    </clipPath>
    <clipPath
       clipPathUnits="userSpaceOnUse"
       id="clipPath72">
      <path
         d="M 0,0 H 1720.8333 V 1523.3115 H 0 Z"
         transform="matrix(0.3341371,0,0,0.3341371,-203.60938,-468)"
         clip-rule="evenodd"
         id="path72" />
    </clipPath>
    <clipPath
       clipPathUnits="userSpaceOnUse"
       id="clipPath73">
      <path
         d="M 0,0 H 1720.8333 V 1523.3115 H 0 Z"
         transform="matrix(0.3341371,0,0,0.3341371,-333.1875,-492)"
         clip-rule="evenodd"
         id="path73" />
    </clipPath>
  </defs>
  <sodipodi:namedview
     id="namedview1"
     pagecolor="#ffffff"
     bordercolor="#000000"
     borderopacity="0.25"
     inkscape:showpageshadow="2"
     inkscape:pageopacity="0.0"
     inkscape:pagecheckerboard="0"
     inkscape:deskcolor="#d1d1d1">
    <inkscape:page
       x="0"
       y="0"
       inkscape:label="1"
       id="page1"
       width="550.71997"
       height="489.28"
       margin="0"
       bleed="0" />
  </sodipodi:namedview>
  <g
     id="g1"
     inkscape:groupmode="layer"
     inkscape:label="1">
    <path
       id="path1"
       d="M 0,0 H 575 V 510 H 0 Z"
       style="fill:#ffffff;fill-opacity:1;fill-rule:nonzero;stroke:none"
       transform="scale(0.95768108)"
       clip-path="url(#clipPath2)" />
    <text
       id="text2"
       xml:space="preserve"
       transform="matrix(0.95769068,0,0,0.95769068,48.348415,23.942267)"
       clip-path="url(#clipPath3)"><tspan
         style="font-variant:normal;font-weight:700;font-size:27px;font-family:Helvetica;writing-mode:lr-tb;fill:#000000;fill-opacity:1;fill-rule:nonzero;stroke:none"
         x="0 14.501953 29.518066 46.010742"
         y="0"
         sodipodi:role="line"
         id="tspan2">Type</tspan></text>
    <text
       id="text3"
       xml:space="preserve"
       transform="matrix(0.95769068,0,0,0.95769068,294.9388,23.942267)"
       clip-path="url(#clipPath4)"><tspan
         style="font-variant:normal;font-weight:700;font-size:27px;font-family:Helvetica;writing-mode:lr-tb;fill:#000000;fill-opacity:1;fill-rule:nonzero;stroke:none"
         x="0 18.008789 33.024902 48.041016 72.04834 88.541016 96.04248 111.05859"
         y="0"
         sodipodi:role="line"
         id="tspan3">Examples</tspan></text>
    <path
       id="path5"
       d="M 21,46 H 141 V 96 H 21 Z"
       style="fill:#dae8fc;fill-opacity:1;fill-rule:nonzero;stroke:#6c8ebf;stroke-width:1;stroke-linecap:butt;stroke-linejoin:miter;stroke-miterlimit:10;stroke-dasharray:none;stroke-opacity:1"
       transform="matrix(0.95768108,0,0,0.95768108,0.47884054,0.47884054)"
       clip-path="url(#clipPath6)" />
    <text
       id="text6"
       xml:space="preserve"
       transform="matrix(0.95769068,0,0,0.95769068,54.154415,74.699873)"
       clip-path="url(#clipPath7)"><tspan
         style="font-variant:normal;font-weight:normal;font-size:20px;font-family:Helvetica;writing-mode:lr-tb;fill:#000000;fill-opacity:1;fill-rule:nonzero;stroke:none"
         x="0 10 15.556641 22.216797 26.660156 37.783203"
         y="0"
         sodipodi:role="line"
         id="tspan6">string</tspan></text>
    <path
       id="path8"
       d="M 181,46 H 301 V 96 H 181 Z"
       style="fill:#ffffff;fill-opacity:1;fill-rule:nonzero;stroke:#000000;stroke-width:1;stroke-linecap:butt;stroke-linejoin:miter;stroke-miterlimit:10;stroke-dasharray:none;stroke-opacity:1"
       transform="matrix(0.95768108,0,0,0.95768108,0.47884054,0.47884054)"
       clip-path="url(#clipPath9)" />
    <text
       id="text9"
       xml:space="preserve"
       transform="matrix(0.95769068,0,0,0.95769068,195.18933,74.699873)"
       clip-path="url(#clipPath10)"><tspan
         style="font-variant:normal;font-weight:normal;font-size:20px;font-family:Helvetica;writing-mode:lr-tb;fill:#000000;fill-opacity:1;fill-rule:nonzero;stroke:none"
         x="0 3.8183594 14.941406 19.384766 24.941406 30.498047 41.621094 52.744141 59.404297 70.527344"
         y="0"
         sodipodi:role="line"
         id="tspan9">'hi there'</tspan></text>
    <path
       id="path11"
       d="M 311,46 H 431 V 96 H 311 Z"
       style="fill:#ffffff;fill-opacity:1;fill-rule:nonzero;stroke:#000000;stroke-width:1;stroke-linecap:butt;stroke-linejoin:miter;stroke-miterlimit:10;stroke-dasharray:none;stroke-opacity:1"
       transform="matrix(0.95768108,0,0,0.95768108,0.47884054,0.47884054)"
       clip-path="url(#clipPath12)" />
    <text
       id="text12"
       xml:space="preserve"
       transform="matrix(0.95769068,0,0,0.95769068,348.49466,74.699873)"
       clip-path="url(#clipPath13)"><tspan
         style="font-variant:normal;font-weight:normal;font-size:20px;font-family:Helvetica;writing-mode:lr-tb;fill:#000000;fill-opacity:1;fill-rule:nonzero;stroke:none"
         x="0 7.0996094"
         y="0"
         sodipodi:role="line"
         id="tspan12">&quot;&quot;</tspan></text>
    <path
       id="path14"
       d="M 441,46 H 561 V 96 H 441 Z"
       style="fill:#ffffff;fill-opacity:1;fill-rule:nonzero;stroke:#000000;stroke-width:1;stroke-linecap:butt;stroke-linejoin:miter;stroke-miterlimit:10;stroke-dasharray:none;stroke-opacity:1"
       transform="matrix(0.95768108,0,0,0.95768108,0.47884054,0.47884054)"
       clip-path="url(#clipPath15)" />
    <text
       id="text15"
       xml:space="preserve"
       transform="matrix(0.95769068,0,0,0.95769068,442.84216,63.207585)"
       clip-path="url(#clipPath16)"><tspan
         style="font-variant:normal;font-weight:normal;font-size:20px;font-family:Helvetica;writing-mode:lr-tb;fill:#000000;fill-opacity:1;fill-rule:nonzero;stroke:none"
         x="0 3.8183594 13.818359 24.941406 36.064453 47.1875 57.1875 62.744141 67.1875"
         y="0"
         sodipodi:role="line"
         id="tspan15">'Today is</tspan></text>
    <text
       id="text16"
       xml:space="preserve"
       transform="matrix(0.95769068,0,0,0.95769068,443.88963,86.192161)"
       clip-path="url(#clipPath17)"><tspan
         style="font-variant:normal;font-weight:normal;font-size:20px;font-family:Helvetica;writing-mode:lr-tb;fill:#000000;fill-opacity:1;fill-rule:nonzero;stroke:none"
         x="0 16.660156 27.783203 38.90625 50.029297 61.152344 71.152344"
         y="0"
         sodipodi:role="line"
         id="tspan16">Monday'</tspan></text>
    <path
       id="path18"
       d="m 21,114 h 120 v 50 H 21 Z"
       style="fill:#dae8fc;fill-opacity:1;fill-rule:nonzero;stroke:#6c8ebf;stroke-width:1;stroke-linecap:butt;stroke-linejoin:miter;stroke-miterlimit:10;stroke-dasharray:none;stroke-opacity:1"
       transform="matrix(0.95768108,0,0,0.95768108,0.47884054,0.47884054)"
       clip-path="url(#clipPath19)" />
    <text
       id="text19"
       xml:space="preserve"
       transform="matrix(0.95769068,0,0,0.95769068,45.101245,139.82284)"
       clip-path="url(#clipPath20)"><tspan
         style="font-variant:normal;font-weight:normal;font-size:20px;font-family:Helvetica;writing-mode:lr-tb;fill:#000000;fill-opacity:1;fill-rule:nonzero;stroke:none"
         x="0 11.123047 22.246094 38.90625 50.029297 61.152344"
         y="0"
         sodipodi:role="line"
         id="tspan19">number</tspan></text>
    <path
       id="path21"
       d="m 181,114 h 120 v 50 H 181 Z"
       style="fill:#ffffff;fill-opacity:1;fill-rule:nonzero;stroke:#000000;stroke-width:1;stroke-linecap:butt;stroke-linejoin:miter;stroke-miterlimit:10;stroke-dasharray:none;stroke-opacity:1"
       transform="matrix(0.95768108,0,0,0.95768108,0.47884054,0.47884054)"
       clip-path="url(#clipPath22)" />
    <text
       id="text22"
       xml:space="preserve"
       transform="matrix(0.95769068,0,0,0.95769068,196.17695,139.82284)"
       clip-path="url(#clipPath23)"><tspan
         style="font-variant:normal;font-weight:normal;font-size:20px;font-family:Helvetica;writing-mode:lr-tb;fill:#000000;fill-opacity:1;fill-rule:nonzero;stroke:none"
         x="0 5.5566406 16.679688 27.802734 38.925781 50.048828 61.171875"
         y="0"
         sodipodi:role="line"
         id="tspan22">.000025</tspan></text>
    <path
       id="path24"
       d="m 311,114 h 120 v 50 H 311 Z"
       style="fill:#ffffff;fill-opacity:1;fill-rule:nonzero;stroke:#000000;stroke-width:1;stroke-linecap:butt;stroke-linejoin:miter;stroke-miterlimit:10;stroke-dasharray:none;stroke-opacity:1"
       transform="matrix(0.95768108,0,0,0.95768108,0.47884054,0.47884054)"
       clip-path="url(#clipPath25)" />
    <text
       id="text25"
       xml:space="preserve"
       transform="matrix(0.95769068,0,0,0.95769068,341.46162,139.82284)"
       clip-path="url(#clipPath26)"><tspan
         style="font-variant:normal;font-weight:normal;font-size:20px;font-family:Helvetica;writing-mode:lr-tb;fill:#000000;fill-opacity:1;fill-rule:nonzero;stroke:none"
         x="0 6.6601562 17.783203"
         y="0"
         sodipodi:role="line"
         id="tspan25">-20</tspan></text>
    <path
       id="path27"
       d="m 441,114 h 120 v 50 H 441 Z"
       style="fill:#ffffff;fill-opacity:1;fill-rule:nonzero;stroke:#000000;stroke-width:1;stroke-linecap:butt;stroke-linejoin:miter;stroke-miterlimit:10;stroke-dasharray:none;stroke-opacity:1"
       transform="matrix(0.95768108,0,0,0.95768108,0.47884054,0.47884054)"
       clip-path="url(#clipPath28)" />
    <text
       id="text28"
       xml:space="preserve"
       transform="matrix(0.95769068,0,0,0.95769068,437.1858,139.82284)"
       clip-path="url(#clipPath29)"><tspan
         style="font-variant:normal;font-weight:normal;font-size:20px;font-family:Helvetica;writing-mode:lr-tb;fill:#000000;fill-opacity:1;fill-rule:nonzero;stroke:none"
         x="0 11.123047 22.246094 33.369141 44.492188 55.615234 66.738281 77.861328"
         y="0"
         sodipodi:role="line"
         id="tspan28">40000000</tspan></text>
    <path
       id="path30"
       d="m 21,182 h 120 v 50 H 21 Z"
       style="fill:#dae8fc;fill-opacity:1;fill-rule:nonzero;stroke:#6c8ebf;stroke-width:1;stroke-linecap:butt;stroke-linejoin:miter;stroke-miterlimit:10;stroke-dasharray:none;stroke-opacity:1"
       transform="matrix(0.95768108,0,0,0.95768108,0.47884054,0.47884054)"
       clip-path="url(#clipPath31)" />
    <text
       id="text31"
       xml:space="preserve"
       transform="matrix(0.95769068,0,0,0.95769068,43.485142,204.94581)"
       clip-path="url(#clipPath32)"><tspan
         style="font-variant:normal;font-weight:normal;font-size:20px;font-family:Helvetica;writing-mode:lr-tb;fill:#000000;fill-opacity:1;fill-rule:nonzero;stroke:none"
         x="0 11.123047 22.246094 33.369141 37.8125 48.935547 60.058594"
         y="0"
         sodipodi:role="line"
         id="tspan31">boolean</tspan></text>
    <path
       id="path33"
       d="m 181,182 h 120 v 50 H 181 Z"
       style="fill:#ffffff;fill-opacity:1;fill-rule:nonzero;stroke:#000000;stroke-width:1;stroke-linecap:butt;stroke-linejoin:miter;stroke-miterlimit:10;stroke-dasharray:none;stroke-opacity:1"
       transform="matrix(0.95768108,0,0,0.95768108,0.47884054,0.47884054)"
       clip-path="url(#clipPath34)" />
    <text
       id="text34"
       xml:space="preserve"
       transform="matrix(0.95769068,0,0,0.95769068,214.29826,204.94581)"
       clip-path="url(#clipPath35)"><tspan
         style="font-variant:normal;font-weight:normal;font-size:20px;font-family:Helvetica;writing-mode:lr-tb;fill:#000000;fill-opacity:1;fill-rule:nonzero;stroke:none"
         x="0 5.5566406 12.216797 23.339844"
         y="0"
         sodipodi:role="line"
         id="tspan34">true</tspan></text>
    <path
       id="path36"
       d="m 311,182 h 120 v 50 H 311 Z"
       style="fill:#ffffff;fill-opacity:1;fill-rule:nonzero;stroke:#000000;stroke-width:1;stroke-linecap:butt;stroke-linejoin:miter;stroke-miterlimit:10;stroke-dasharray:none;stroke-opacity:1"
       transform="matrix(0.95768108,0,0,0.95768108,0.47884054,0.47884054)"
       clip-path="url(#clipPath37)" />
    <text
       id="text37"
       xml:space="preserve"
       transform="matrix(0.95769068,0,0,0.95769068,335.07203,204.94581)"
       clip-path="url(#clipPath38)"><tspan
         style="font-variant:normal;font-weight:normal;font-size:20px;font-family:Helvetica;writing-mode:lr-tb;fill:#000000;fill-opacity:1;fill-rule:nonzero;stroke:none"
         x="0 5.5566406 16.679688 21.123047 31.123047"
         y="0"
         sodipodi:role="line"
         id="tspan37">false</tspan></text>
    <path
       id="path39"
       d="M 1,36 H 571.01001"
       style="fill:none;stroke:#000000;stroke-width:1;stroke-linecap:butt;stroke-linejoin:miter;stroke-miterlimit:10;stroke-dasharray:none;stroke-opacity:1"
       transform="matrix(0.95768108,0,0,0.95768108,0.47884054,0.47884054)"
       clip-path="url(#clipPath40)" />
    <path
       id="path41"
       d="M 161,16 V 506.01001"
       style="fill:none;stroke:#000000;stroke-width:1;stroke-linecap:butt;stroke-linejoin:miter;stroke-miterlimit:10;stroke-dasharray:none;stroke-opacity:1"
       transform="matrix(0.95768108,0,0,0.95768108,0.47884054,0.47884054)"
       clip-path="url(#clipPath42)" />
    <path
       id="path43"
       d="m 21,246 h 120 v 50 H 21 Z"
       style="fill:#dae8fc;fill-opacity:1;fill-rule:nonzero;stroke:#6c8ebf;stroke-width:1;stroke-linecap:butt;stroke-linejoin:miter;stroke-miterlimit:10;stroke-dasharray:none;stroke-opacity:1"
       transform="matrix(0.95768108,0,0,0.95768108,0.47884054,0.47884054)"
       clip-path="url(#clipPath44)" />
    <text
       id="text44"
       xml:space="preserve"
       transform="matrix(0.95769068,0,0,0.95769068,62.130183,266.23801)"
       clip-path="url(#clipPath45)"><tspan
         style="font-variant:normal;font-weight:normal;font-size:20px;font-family:Helvetica;writing-mode:lr-tb;fill:#000000;fill-opacity:1;fill-rule:nonzero;stroke:none"
         x="0 11.123047 22.246094"
         y="0"
         sodipodi:role="line"
         id="tspan44">any</tspan></text>
    <path
       id="path46"
       d="m 181,246 h 120 v 50 H 181 Z"
       style="fill:#ffffff;fill-opacity:1;fill-rule:nonzero;stroke:#000000;stroke-width:1;stroke-linecap:butt;stroke-linejoin:miter;stroke-miterlimit:10;stroke-dasharray:none;stroke-opacity:1"
       transform="matrix(0.95768108,0,0,0.95768108,0.47884054,0.47884054)"
       clip-path="url(#clipPath47)" />
    <text
       id="text47"
       xml:space="preserve"
       transform="matrix(0.95769068,0,0,0.95769068,214.29826,266.23801)"
       clip-path="url(#clipPath48)"><tspan
         style="font-variant:normal;font-weight:normal;font-size:20px;font-family:Helvetica;writing-mode:lr-tb;fill:#000000;fill-opacity:1;fill-rule:nonzero;stroke:none"
         x="0 5.5566406 12.216797 23.339844"
         y="0"
         sodipodi:role="line"
         id="tspan47">true</tspan></text>
    <path
       id="path49"
       d="m 311,246 h 120 v 50 H 311 Z"
       style="fill:#ffffff;fill-opacity:1;fill-rule:nonzero;stroke:#000000;stroke-width:1;stroke-linecap:butt;stroke-linejoin:miter;stroke-miterlimit:10;stroke-dasharray:none;stroke-opacity:1"
       transform="matrix(0.95768108,0,0,0.95768108,0.47884054,0.47884054)"
       clip-path="url(#clipPath50)" />
    <text
       id="text50"
       xml:space="preserve"
       transform="matrix(0.95769068,0,0,0.95769068,341.46162,266.23801)"
       clip-path="url(#clipPath51)"><tspan
         style="font-variant:normal;font-weight:normal;font-size:20px;font-family:Helvetica;writing-mode:lr-tb;fill:#000000;fill-opacity:1;fill-rule:nonzero;stroke:none"
         x="0 6.6601562 17.783203"
         y="0"
         sodipodi:role="line"
         id="tspan50">-20</tspan></text>
    <path
       id="path52"
       d="m 441,246 h 120 v 50 H 441 Z"
       style="fill:#ffffff;fill-opacity:1;fill-rule:nonzero;stroke:#000000;stroke-width:1;stroke-linecap:butt;stroke-linejoin:miter;stroke-miterlimit:10;stroke-dasharray:none;stroke-opacity:1"
       transform="matrix(0.95768108,0,0,0.95768108,0.47884054,0.47884054)"
       clip-path="url(#clipPath53)" />
    <text
       id="text53"
       xml:space="preserve"
       transform="matrix(0.95769068,0,0,0.95769068,462.29525,266.23801)"
       clip-path="url(#clipPath54)"><tspan
         style="font-variant:normal;font-weight:normal;font-size:20px;font-family:Helvetica;writing-mode:lr-tb;fill:#000000;fill-opacity:1;fill-rule:nonzero;stroke:none"
         x="0 3.8183594 10.478516 21.601562 32.724609"
         y="0"
         sodipodi:role="line"
         id="tspan53">'red'</tspan></text>
    <path
       id="path55"
       d="m 21,316 h 120 v 50 H 21 Z"
       style="fill:#dae8fc;fill-opacity:1;fill-rule:nonzero;stroke:#6c8ebf;stroke-width:1;stroke-linecap:butt;stroke-linejoin:miter;stroke-miterlimit:10;stroke-dasharray:none;stroke-opacity:1"
       transform="matrix(0.95768108,0,0,0.95768108,0.47884054,0.47884054)"
       clip-path="url(#clipPath56)" />
    <text
       id="text56"
       xml:space="preserve"
       transform="matrix(0.95769068,0,0,0.95769068,62.65392,333.27636)"
       clip-path="url(#clipPath57)"><tspan
         style="font-variant:normal;font-weight:normal;font-size:20px;font-family:Helvetica;writing-mode:lr-tb;fill:#000000;fill-opacity:1;fill-rule:nonzero;stroke:none"
         x="0 11.123047 22.246094 26.689453"
         y="0"
         sodipodi:role="line"
         id="tspan56">null</tspan></text>
    <path
       id="path58"
       d="m 181,316 h 120 v 50 H 181 Z"
       style="fill:#ffffff;fill-opacity:1;fill-rule:nonzero;stroke:#000000;stroke-width:1;stroke-linecap:butt;stroke-linejoin:miter;stroke-miterlimit:10;stroke-dasharray:none;stroke-opacity:1"
       transform="matrix(0.95768108,0,0,0.95768108,0.47884054,0.47884054)"
       clip-path="url(#clipPath59)" />
    <text
       id="text59"
       xml:space="preserve"
       transform="matrix(0.95769068,0,0,0.95769068,215.88443,333.27636)"
       clip-path="url(#clipPath60)"><tspan
         style="font-variant:normal;font-weight:normal;font-size:20px;font-family:Helvetica;writing-mode:lr-tb;fill:#000000;fill-opacity:1;fill-rule:nonzero;stroke:none"
         x="0 11.123047 22.246094 26.689453"
         y="0"
         sodipodi:role="line"
         id="tspan59">null</tspan></text>
    <path
       id="path61"
       d="m 21,380 h 120 v 50 H 21 Z"
       style="fill:#dae8fc;fill-opacity:1;fill-rule:nonzero;stroke:#6c8ebf;stroke-width:1;stroke-linecap:butt;stroke-linejoin:miter;stroke-miterlimit:10;stroke-dasharray:none;stroke-opacity:1"
       transform="matrix(0.95768108,0,0,0.95768108,0.47884054,0.47884054)"
       clip-path="url(#clipPath62)" />
    <g
       id="g62" />
    <text
       id="text62"
       xml:space="preserve"
       transform="matrix(0.95769068,0,0,0.95769068,35.494411,394.56856)"
       clip-path="url(#clipPath63)"><tspan
         style="font-variant:normal;font-weight:normal;font-size:20px;font-family:Helvetica;writing-mode:lr-tb;fill:#000000;fill-opacity:1;fill-rule:nonzero;stroke:none"
         x="0 11.123047 22.246094 33.369141 44.492188 54.492188 65.615234 76.738281"
         y="0"
         sodipodi:role="line"
         id="tspan62">undeﬁned</tspan></text>
    <path
       id="path64"
       d="m 181,380 h 120 v 50 H 181 Z"
       style="fill:#ffffff;fill-opacity:1;fill-rule:nonzero;stroke:#000000;stroke-width:1;stroke-linecap:butt;stroke-linejoin:miter;stroke-miterlimit:10;stroke-dasharray:none;stroke-opacity:1"
       transform="matrix(0.95768108,0,0,0.95768108,0.47884054,0.47884054)"
       clip-path="url(#clipPath65)" />
    <g
       id="g65" />
    <text
       id="text65"
       xml:space="preserve"
       transform="matrix(0.95769068,0,0,0.95769068,188.72492,394.56856)"
       clip-path="url(#clipPath66)"><tspan
         style="font-variant:normal;font-weight:normal;font-size:20px;font-family:Helvetica;writing-mode:lr-tb;fill:#000000;fill-opacity:1;fill-rule:nonzero;stroke:none"
         x="0 11.123047 22.246094 33.369141 44.492188 54.492188 65.615234 76.738281"
         y="0"
         sodipodi:role="line"
         id="tspan65">undeﬁned</tspan></text>
    <path
       id="path67"
       d="m 21,448 h 120 v 50 H 21 Z"
       style="fill:#dae8fc;fill-opacity:1;fill-rule:nonzero;stroke:#6c8ebf;stroke-width:1;stroke-linecap:butt;stroke-linejoin:miter;stroke-miterlimit:10;stroke-dasharray:none;stroke-opacity:1"
       transform="matrix(0.95768108,0,0,0.95768108,0.47884054,0.47884054)"
       clip-path="url(#clipPath68)" />
    <text
       id="text68"
       xml:space="preserve"
       transform="matrix(0.95769068,0,0,0.95769068,59.990343,459.69153)"
       clip-path="url(#clipPath69)"><tspan
         style="font-variant:normal;font-weight:normal;font-size:20px;font-family:Helvetica;writing-mode:lr-tb;fill:#000000;fill-opacity:1;fill-rule:nonzero;stroke:none"
         x="0 10 21.123047 25.566406"
         y="0"
         sodipodi:role="line"
         id="tspan68">void</tspan></text>
    <path
       id="path70"
       d="m 181,448 h 380 v 50 H 181 Z"
       style="fill:#ffffff;fill-opacity:1;fill-rule:nonzero;stroke:#000000;stroke-width:1;stroke-linecap:butt;stroke-linejoin:miter;stroke-miterlimit:10;stroke-dasharray:none;stroke-opacity:1"
       transform="matrix(0.95768108,0,0,0.95768108,0.47884054,0.47884054)"
       clip-path="url(#clipPath71)" />
    <text
       id="text71"
       xml:space="preserve"
       transform="matrix(0.95769068,0,0,0.95769068,194.99481,448.19924)"
       clip-path="url(#clipPath72)"><tspan
         style="font-variant:normal;font-weight:normal;font-size:20px;font-family:Helvetica;writing-mode:lr-tb;fill:#000000;fill-opacity:1;fill-rule:nonzero;stroke:none"
         x="0 18.525391 29.648438 35.205078 46.328125 57.451172 68.574219 72.392578 77.949219 83.505859 94.628906 104.62891 115.75195 126.875 136.875 142.43164 147.98828 153.54492 164.66797 169.11133 179.11133 184.66797 190.22461 201.34766 212.4707 222.4707 228.02734 232.4707 243.59375 254.7168 260.27344 265.83008 276.95312 282.50977 289.16992 300.29297 305.84961 316.97266 323.63281"
         y="0"
         sodipodi:role="line"
         id="tspan71">We don't expect this function to return</tspan></text>
    <text
       id="text72"
       xml:space="preserve"
       transform="matrix(0.95769068,0,0,0.95769068,319.09056,471.18381)"
       clip-path="url(#clipPath73)"><tspan
         style="font-variant:normal;font-weight:normal;font-size:20px;font-family:Helvetica;writing-mode:lr-tb;fill:#000000;fill-opacity:1;fill-rule:nonzero;stroke:none"
         x="0 11.123047 22.246094 32.246094 37.802734 48.925781 53.369141 64.492188"
         y="0"
         sodipodi:role="line"
         id="tspan72">anything</tspan></text>
  </g>
</svg>
