<?xml version="1.0" encoding="UTF-8" standalone="no"?>
<!-- Created with Inkscape (http://www.inkscape.org/) -->

<svg
   version="1.1"
   id="svg1"
   width="473.28"
   height="216"
   viewBox="0 0 473.28 216"
   sodipodi:docname="ts-3.pdf"
   xmlns:inkscape="http://www.inkscape.org/namespaces/inkscape"
   xmlns:sodipodi="http://sodipodi.sourceforge.net/DTD/sodipodi-0.dtd"
   xmlns="http://www.w3.org/2000/svg"
   xmlns:svg="http://www.w3.org/2000/svg">
  <defs
     id="defs1">
    <clipPath
       clipPathUnits="userSpaceOnUse"
       id="clipPath2">
      <path
         d="M 0,0 H 1479.1666 V 673.70947 H 0 Z"
         transform="scale(0.33397184)"
         clip-rule="evenodd"
         id="path2" />
    </clipPath>
    <clipPath
       clipPathUnits="userSpaceOnUse"
       id="clipPath4">
      <path
         d="M 0,0 H 1479.1666 V 670.71521 H 0 Z"
         transform="matrix(0.33397184,0,0,0.33397184,-0.49999999,-0.49999999)"
         clip-rule="evenodd"
         id="path4" />
    </clipPath>
    <clipPath
       clipPathUnits="userSpaceOnUse"
       id="clipPath5">
      <path
         d="M 0,0 H 1479.1666 V 670.71521 H 0 Z"
         transform="matrix(0.3339685,0,0,0.3339685,-21.546875,-58)"
         clip-rule="evenodd"
         id="path5" />
    </clipPath>
    <clipPath
       clipPathUnits="userSpaceOnUse"
       id="clipPath7">
      <path
         d="M 0,0 H 1479.1666 V 670.71521 H 0 Z"
         transform="matrix(0.33397184,0,0,0.33397184,-0.49999999,-0.49999999)"
         clip-rule="evenodd"
         id="path7" />
    </clipPath>
    <clipPath
       clipPathUnits="userSpaceOnUse"
       id="clipPath8">
      <path
         d="M 0,0 H 1479.1666 V 670.71521 H 0 Z"
         transform="matrix(0.3339685,0,0,0.3339685,-93.124999,-46)"
         clip-rule="evenodd"
         id="path8" />
    </clipPath>
    <clipPath
       clipPathUnits="userSpaceOnUse"
       id="clipPath9">
      <path
         d="M 0,0 H 1479.1666 V 670.71521 H 0 Z"
         transform="matrix(0.3339685,0,0,0.3339685,-395.51563,-46)"
         clip-rule="evenodd"
         id="path9" />
    </clipPath>
    <clipPath
       clipPathUnits="userSpaceOnUse"
       id="clipPath10">
      <path
         d="M 0,0 H 1479.1666 V 670.71521 H 0 Z"
         transform="matrix(0.3339685,0,0,0.3339685,-141.57812,-70)"
         clip-rule="evenodd"
         id="path10" />
    </clipPath>
    <clipPath
       clipPathUnits="userSpaceOnUse"
       id="clipPath11">
      <path
         d="M 0,0 H 1479.1666 V 670.71521 H 0 Z"
         transform="matrix(0.3339685,0,0,0.3339685,-250.44728,-70)"
         clip-rule="evenodd"
         id="path11" />
    </clipPath>
    <clipPath
       clipPathUnits="userSpaceOnUse"
       id="clipPath13">
      <path
         d="M 0,0 H 1479.1666 V 670.71521 H 0 Z"
         transform="matrix(0.33397184,0,0,0.33397184,-0.49999999,-0.49999999)"
         clip-rule="evenodd"
         id="path13" />
    </clipPath>
    <clipPath
       clipPathUnits="userSpaceOnUse"
       id="clipPath14">
      <path
         d="M 0,0 H 1479.1666 V 670.71521 H 0 Z"
         transform="matrix(0.3339685,0,0,0.3339685,-91.437499,-166)"
         clip-rule="evenodd"
         id="path14" />
    </clipPath>
    <clipPath
       clipPathUnits="userSpaceOnUse"
       id="clipPath15">
      <path
         d="M 0,0 H 1479.1666 V 670.71521 H 0 Z"
         transform="matrix(0.3339685,0,0,0.3339685,-225.96875,-166)"
         clip-rule="evenodd"
         id="path15" />
    </clipPath>
    <clipPath
       clipPathUnits="userSpaceOnUse"
       id="clipPath16">
      <path
         d="M 0,0 H 1479.1666 V 670.71521 H 0 Z"
         transform="matrix(0.3339685,0,0,0.3339685,-364.91602,-166)"
         clip-rule="evenodd"
         id="path16" />
    </clipPath>
    <clipPath
       clipPathUnits="userSpaceOnUse"
       id="clipPath17">
      <path
         d="M 0,0 H 1479.1666 V 670.71521 H 0 Z"
         transform="matrix(0.3339685,0,0,0.3339685,-146.54687,-190)"
         clip-rule="evenodd"
         id="path17" />
    </clipPath>
    <clipPath
       clipPathUnits="userSpaceOnUse"
       id="clipPath19">
      <path
         d="M 0,0 H 1479.1666 V 670.71521 H 0 Z"
         transform="matrix(0.33397184,0,0,0.33397184,-0.49999999,-0.49999999)"
         clip-rule="evenodd"
         id="path19" />
    </clipPath>
    <clipPath
       clipPathUnits="userSpaceOnUse"
       id="clipPath20">
      <path
         d="M 0,0 H 1479.1666 V 670.71521 H 0 Z"
         transform="matrix(0.3339685,0,0,0.3339685,-7.078125,-178)"
         clip-rule="evenodd"
         id="path20" />
    </clipPath>
  </defs>
  <sodipodi:namedview
     id="namedview1"
     pagecolor="#ffffff"
     bordercolor="#000000"
     borderopacity="0.25"
     inkscape:showpageshadow="2"
     inkscape:pageopacity="0.0"
     inkscape:pagecheckerboard="0"
     inkscape:deskcolor="#d1d1d1">
    <inkscape:page
       x="0"
       y="0"
       inkscape:label="1"
       id="page1"
       width="473.28"
       height="216"
       margin="0"
       bleed="0" />
  </sodipodi:namedview>
  <g
     id="g1"
     inkscape:groupmode="layer"
     inkscape:label="1">
    <path
       id="path1"
       d="M 0,0 H 494 V 225 H 0 Z"
       style="fill:#ffffff;fill-opacity:1;fill-rule:nonzero;stroke:none"
       transform="scale(0.95816457)"
       clip-path="url(#clipPath2)" />
    <path
       id="path3"
       d="M 1,11 H 81 V 91 H 1 Z"
       style="fill:#d5e8d4;fill-opacity:1;fill-rule:nonzero;stroke:#82b366;stroke-width:1;stroke-linecap:butt;stroke-linejoin:miter;stroke-miterlimit:10;stroke-dasharray:none;stroke-opacity:1"
       transform="matrix(0.95816457,0,0,0.95816457,0.47908228,0.47908228)"
       clip-path="url(#clipPath4)" />
    <text
       id="text4"
       xml:space="preserve"
       transform="matrix(0.95817417,0,0,0.95817417,20.645659,55.574102)"
       clip-path="url(#clipPath5)"><tspan
         style="font-variant:normal;font-weight:normal;font-size:20px;font-family:Helvetica;writing-mode:lr-tb;fill:#000000;fill-opacity:1;fill-rule:nonzero;stroke:none"
         x="0 12.216797 16.660156 23.320312 33.320312"
         y="0"
         sodipodi:role="line"
         id="tspan4">First</tspan></text>
    <path
       id="path6"
       d="M 81,1 H 491 V 101 H 81 Z"
       style="fill:#dae8fc;fill-opacity:1;fill-rule:nonzero;stroke:#6c8ebf;stroke-width:1;stroke-linecap:butt;stroke-linejoin:miter;stroke-miterlimit:10;stroke-dasharray:none;stroke-opacity:1"
       transform="matrix(0.95816457,0,0,0.95816457,0.47908228,0.47908228)"
       clip-path="url(#clipPath7)" />
    <g
       id="g7" />
    <g
       id="g8" />
    <text
       id="text8"
       xml:space="preserve"
       transform="matrix(0.95817417,0,0,0.95817417,89.229969,44.076012)"
       clip-path="url(#clipPath8)"><tspan
         style="font-style:oblique;font-variant:normal;font-weight:normal;font-size:20px;font-family:Helvetica;writing-mode:lr-tb;fill:#000000;fill-opacity:1;fill-rule:nonzero;stroke:none"
         x="0 14.443359 25.566406 35.566406 46.689453 57.8125 63.369141 74.492188 80.048828 90.048828 101.17188 106.72852 112.28516 123.4082 128.96484 134.52148 144.52148 155.64453 160.08789 171.21094 181.21094 186.76758 193.42773 203.42773 214.55078 218.99414 230.11719 241.24023 251.24023 257.90039 263.45703 274.58008 285.70312 296.82617"
         y="0"
         sodipodi:role="line"
         id="tspan8">Deﬁne a set of ﬁelds (values) and </tspan></text>
    <text
       id="text9"
       xml:space="preserve"
       transform="matrix(0.95817417,0,0,0.95817417,378.97286,44.076012)"
       clip-path="url(#clipPath9)"><tspan
         style="font-style:oblique;font-variant:normal;font-weight:700;font-size:20px;font-family:Helvetica;writing-mode:lr-tb;fill:#000000;fill-opacity:1;fill-rule:nonzero;stroke:none"
         x="0 17.783203 28.90625 35.566406 47.783203 60 72.216797"
         y="0"
         sodipodi:role="line"
         id="tspan9">methods</tspan></text>
    <text
       id="text10"
       xml:space="preserve"
       transform="matrix(0.95817417,0,0,0.95817417,135.6565,67.072192)"
       clip-path="url(#clipPath10)"><tspan
         style="font-style:oblique;font-variant:normal;font-weight:700;font-size:20px;font-family:Helvetica;writing-mode:lr-tb;fill:#000000;fill-opacity:1;fill-rule:nonzero;stroke:none"
         x="0 6.6601562 13.320312 25.537109 37.753906 48.876953 55.537109 61.09375 73.310547 85.527344 96.650391"
         y="0"
         sodipodi:role="line"
         id="tspan10">(functions)</tspan></text>
    <text
       id="text11"
       xml:space="preserve"
       transform="matrix(0.95817417,0,0,0.95817417,239.97211,67.072192)"
       clip-path="url(#clipPath11)"><tspan
         style="font-style:oblique;font-variant:normal;font-weight:normal;font-size:20px;font-family:Helvetica;writing-mode:lr-tb;fill:#000000;fill-opacity:1;fill-rule:nonzero;stroke:none"
         x="0 5.5566406 16.679688 22.236328 28.896484 40.019531 51.142578 57.802734 68.925781 78.925781 90.048828 101.17188 106.72852 112.28516 123.4082 128.96484 132.7832 138.33984 149.46289 153.90625 165.0293 176.15234"
         y="0"
         sodipodi:role="line"
         id="tspan11">to represent a 'thing'</tspan></text>
    <path
       id="path12"
       d="M 81,121 H 491 V 221 H 81 Z"
       style="fill:#dae8fc;fill-opacity:1;fill-rule:nonzero;stroke:#6c8ebf;stroke-width:1;stroke-linecap:butt;stroke-linejoin:miter;stroke-miterlimit:10;stroke-dasharray:none;stroke-opacity:1"
       transform="matrix(0.95816457,0,0,0.95816457,0.47908228,0.47908228)"
       clip-path="url(#clipPath13)" />
    <g
       id="g13" />
    <text
       id="text13"
       xml:space="preserve"
       transform="matrix(0.95817417,0,0,0.95817417,87.61305,159.05691)"
       clip-path="url(#clipPath14)"><tspan
         style="font-style:oblique;font-variant:normal;font-weight:normal;font-size:20px;font-family:Helvetica;writing-mode:lr-tb;fill:#000000;fill-opacity:1;fill-rule:nonzero;stroke:none"
         x="0 14.443359 25.566406 35.566406 46.689453 57.8125 63.369141 74.492188 80.048828 90.048828 101.17188 106.72852 112.28516 123.4082 128.96484"
         y="0"
         sodipodi:role="line"
         id="tspan13">Deﬁne a set of </tspan></text>
    <g
       id="g14" />
    <text
       id="text14"
       xml:space="preserve"
       transform="matrix(0.95817417,0,0,0.95817417,216.51742,159.05691)"
       clip-path="url(#clipPath15)"><tspan
         style="font-style:oblique;font-variant:normal;font-weight:700;font-size:20px;font-family:Helvetica;writing-mode:lr-tb;fill:#000000;fill-opacity:1;fill-rule:nonzero;stroke:none"
         x="0 12.216797 23.339844 28.896484 41.113281 52.236328 57.792969 64.453125 75.576172 86.699219 92.255859 104.47266 115.5957 126.71875"
         y="0"
         sodipodi:role="line"
         id="tspan14">ﬁelds (values)</tspan></text>
    <text
       id="text15"
       xml:space="preserve"
       transform="matrix(0.95817417,0,0,0.95817417,349.6531,159.05691)"
       clip-path="url(#clipPath16)"><tspan
         style="font-style:oblique;font-variant:normal;font-weight:normal;font-size:20px;font-family:Helvetica;writing-mode:lr-tb;fill:#000000;fill-opacity:1;fill-rule:nonzero;stroke:none"
         x="0 11.123047 22.246094 33.369141 38.925781 55.585938 66.708984 72.265625 83.388672 94.511719 105.63477"
         y="0"
         sodipodi:role="line"
         id="tspan15">and methods</tspan></text>
    <text
       id="text16"
       xml:space="preserve"
       transform="matrix(0.95817417,0,0,0.95817417,140.41743,182.05309)"
       clip-path="url(#clipPath17)"><tspan
         style="font-style:oblique;font-variant:normal;font-weight:normal;font-size:20px;font-family:Helvetica;writing-mode:lr-tb;fill:#000000;fill-opacity:1;fill-rule:nonzero;stroke:none"
         x="0 6.6601562 12.216797 23.339844 34.462891 44.462891 50.019531 54.462891 65.585938 76.708984 86.708984 93.369141 98.925781 104.48242 115.60547 121.16211 127.82227 138.94531 150.06836 156.72852 167.85156 177.85156 188.97461 200.09766 205.6543 211.21094 222.33398 227.89062 231.70898 237.26562 248.38867 252.83203 263.95508 275.07812"
         y="0"
         sodipodi:role="line"
         id="tspan16">(functions) to represent a 'thing'</tspan></text>
    <path
       id="path18"
       d="m 1,131 h 80 v 80 H 1 Z"
       style="fill:#d5e8d4;fill-opacity:1;fill-rule:nonzero;stroke:#82b366;stroke-width:1;stroke-linecap:butt;stroke-linejoin:miter;stroke-miterlimit:10;stroke-dasharray:none;stroke-opacity:1"
       transform="matrix(0.95816457,0,0,0.95816457,0.47908228,0.47908228)"
       clip-path="url(#clipPath19)" />
    <text
       id="text19"
       xml:space="preserve"
       transform="matrix(0.95817417,0,0,0.95817417,6.7820765,170.555)"
       clip-path="url(#clipPath20)"><tspan
         style="font-variant:normal;font-weight:normal;font-size:20px;font-family:Helvetica;writing-mode:lr-tb;fill:#000000;fill-opacity:1;fill-rule:nonzero;stroke:none"
         x="0 13.339844 24.462891 34.462891 45.585938 56.708984"
         y="0"
         sodipodi:role="line"
         id="tspan19">Second</tspan></text>
  </g>
</svg>
