<?xml version="1.0" encoding="UTF-8" standalone="no"?>
<!-- Created with Inkscape (http://www.inkscape.org/) -->

<svg
   version="1.1"
   id="svg1"
   width="444.16"
   height="216"
   viewBox="0 0 444.16 216"
   sodipodi:docname="ts-5.pdf"
   xmlns:inkscape="http://www.inkscape.org/namespaces/inkscape"
   xmlns:sodipodi="http://sodipodi.sourceforge.net/DTD/sodipodi-0.dtd"
   xmlns="http://www.w3.org/2000/svg"
   xmlns:svg="http://www.w3.org/2000/svg">
  <defs
     id="defs1">
    <clipPath
       clipPathUnits="userSpaceOnUse"
       id="clipPath2">
      <path
         d="M 0,0 H 1387.5 V 672.81787 H 0 Z"
         transform="scale(0.33441443)"
         clip-rule="evenodd"
         id="path2" />
    </clipPath>
    <clipPath
       clipPathUnits="userSpaceOnUse"
       id="clipPath4">
      <path
         d="M 0,0 H 1387.5 V 669.82758 H 0 Z"
         transform="matrix(0.33441443,0,0,0.33441443,-0.50000001,-0.50000001)"
         clip-rule="evenodd"
         id="path4" />
    </clipPath>
    <clipPath
       clipPathUnits="userSpaceOnUse"
       id="clipPath6">
      <path
         d="M 0,0 H 1387.5 V 669.82758 H 0 Z"
         transform="matrix(0.33441443,0,0,0.33441443,-0.50000001,-0.50000001)"
         clip-rule="evenodd"
         id="path6" />
    </clipPath>
    <clipPath
       clipPathUnits="userSpaceOnUse"
       id="clipPath8">
      <path
         d="M 0,0 H 1387.5 V 669.82758 H 0 Z"
         transform="matrix(0.33441443,0,0,0.33441443,-0.50000001,-0.50000001)"
         clip-rule="evenodd"
         id="path8" />
    </clipPath>
    <clipPath
       clipPathUnits="userSpaceOnUse"
       id="clipPath9">
      <path
         d="M 0,0 H 1387.5 V 669.82758 H 0 Z"
         transform="matrix(0.33441107,0,0,0.33441107,-35.96875,-37)"
         clip-rule="evenodd"
         id="path9" />
    </clipPath>
    <clipPath
       clipPathUnits="userSpaceOnUse"
       id="clipPath11">
      <path
         d="M 0,0 H 1387.5 V 669.82758 H 0 Z"
         transform="matrix(0.33441443,0,0,0.33441443,-0.50000001,-0.50000001)"
         clip-rule="evenodd"
         id="path11" />
    </clipPath>
    <clipPath
       clipPathUnits="userSpaceOnUse"
       id="clipPath12">
      <path
         d="M 0,0 H 1387.5 V 669.82758 H 0 Z"
         transform="matrix(0.33441107,0,0,0.33441107,-215.70313,-27)"
         clip-rule="evenodd"
         id="path12" />
    </clipPath>
    <clipPath
       clipPathUnits="userSpaceOnUse"
       id="clipPath13">
      <path
         d="M 0,0 H 1387.5 V 669.82758 H 0 Z"
         transform="matrix(0.33441107,0,0,0.33441107,-271.00001,-48)"
         clip-rule="evenodd"
         id="path13" />
    </clipPath>
    <clipPath
       clipPathUnits="userSpaceOnUse"
       id="clipPath15">
      <path
         d="M 0,0 H 1387.5 V 669.82758 H 0 Z"
         transform="matrix(0.33441443,0,0,0.33441443,-0.50000001,-0.50000001)"
         clip-rule="evenodd"
         id="path15" />
    </clipPath>
    <clipPath
       clipPathUnits="userSpaceOnUse"
       id="clipPath17">
      <path
         d="M 0,0 H 1387.5 V 669.82758 H 0 Z"
         transform="matrix(0.33441443,0,0,0.33441443,-0.50000001,-0.50000001)"
         clip-rule="evenodd"
         id="path17" />
    </clipPath>
    <clipPath
       clipPathUnits="userSpaceOnUse"
       id="clipPath19">
      <path
         d="M 0,0 H 1387.5 V 669.82758 H 0 Z"
         transform="matrix(0.33441443,0,0,0.33441443,-0.50000001,-0.50000001)"
         clip-rule="evenodd"
         id="path19" />
    </clipPath>
    <clipPath
       clipPathUnits="userSpaceOnUse"
       id="clipPath20">
      <path
         d="M 0,0 H 1387.5 V 669.82758 H 0 Z"
         transform="matrix(0.33441107,0,0,0.33441107,-33.125,-117)"
         clip-rule="evenodd"
         id="path20" />
    </clipPath>
    <clipPath
       clipPathUnits="userSpaceOnUse"
       id="clipPath22">
      <path
         d="M 0,0 H 1387.5 V 669.82758 H 0 Z"
         transform="matrix(0.33441443,0,0,0.33441443,-0.50000001,-0.50000001)"
         clip-rule="evenodd"
         id="path22" />
    </clipPath>
    <clipPath
       clipPathUnits="userSpaceOnUse"
       id="clipPath23">
      <path
         d="M 0,0 H 1387.5 V 669.82758 H 0 Z"
         transform="matrix(0.33441107,0,0,0.33441107,-202.46875,-107)"
         clip-rule="evenodd"
         id="path23" />
    </clipPath>
    <clipPath
       clipPathUnits="userSpaceOnUse"
       id="clipPath24">
      <path
         d="M 0,0 H 1387.5 V 669.82758 H 0 Z"
         transform="matrix(0.33441107,0,0,0.33441107,-230.34375,-128)"
         clip-rule="evenodd"
         id="path24" />
    </clipPath>
    <clipPath
       clipPathUnits="userSpaceOnUse"
       id="clipPath25">
      <path
         d="M 0,0 H 1387.5 V 669.82758 H 0 Z"
         transform="matrix(0.33441107,0,0,0.33441107,-339.03125,-128)"
         clip-rule="evenodd"
         id="path25" />
    </clipPath>
    <clipPath
       clipPathUnits="userSpaceOnUse"
       id="clipPath26">
      <path
         d="M 0,0 H 1387.5 V 669.82758 H 0 Z"
         transform="matrix(0.33441107,0,0,0.33441107,-361.71875,-128)"
         clip-rule="evenodd"
         id="path26" />
    </clipPath>
    <clipPath
       clipPathUnits="userSpaceOnUse"
       id="clipPath27">
      <path
         d="M 0,0 H 1387.5 V 669.82758 H 0 Z"
         transform="matrix(0.33441107,0,0,0.33441107,-392.91064,-128)"
         clip-rule="evenodd"
         id="path27" />
    </clipPath>
    <clipPath
       clipPathUnits="userSpaceOnUse"
       id="clipPath29">
      <path
         d="M 0,0 H 1387.5 V 669.82758 H 0 Z"
         transform="matrix(0.33441443,0,0,0.33441443,-0.50000001,-0.50000001)"
         clip-rule="evenodd"
         id="path29" />
    </clipPath>
    <clipPath
       clipPathUnits="userSpaceOnUse"
       id="clipPath31">
      <path
         d="M 0,0 H 1387.5 V 669.82758 H 0 Z"
         transform="matrix(0.33441443,0,0,0.33441443,-0.50000001,-0.50000001)"
         clip-rule="evenodd"
         id="path31" />
    </clipPath>
    <clipPath
       clipPathUnits="userSpaceOnUse"
       id="clipPath33">
      <path
         d="M 0,0 H 1387.5 V 669.82758 H 0 Z"
         transform="matrix(0.33441443,0,0,0.33441443,-0.50000001,-0.50000001)"
         clip-rule="evenodd"
         id="path33" />
    </clipPath>
    <clipPath
       clipPathUnits="userSpaceOnUse"
       id="clipPath34">
      <path
         d="M 0,0 H 1387.5 V 669.82758 H 0 Z"
         transform="matrix(0.33441107,0,0,0.33441107,-22.265625,-197)"
         clip-rule="evenodd"
         id="path34" />
    </clipPath>
    <clipPath
       clipPathUnits="userSpaceOnUse"
       id="clipPath36">
      <path
         d="M 0,0 H 1387.5 V 669.82758 H 0 Z"
         transform="matrix(0.33441443,0,0,0.33441443,-0.50000001,-0.50000001)"
         clip-rule="evenodd"
         id="path36" />
    </clipPath>
    <clipPath
       clipPathUnits="userSpaceOnUse"
       id="clipPath37">
      <path
         d="M 0,0 H 1387.5 V 669.82758 H 0 Z"
         transform="matrix(0.33441107,0,0,0.33441107,-220.4375,-177)"
         clip-rule="evenodd"
         id="path37" />
    </clipPath>
    <clipPath
       clipPathUnits="userSpaceOnUse"
       id="clipPath38">
      <path
         d="M 0,0 H 1387.5 V 669.82758 H 0 Z"
         transform="matrix(0.33441107,0,0,0.33441107,-206.73438,-197)"
         clip-rule="evenodd"
         id="path38" />
    </clipPath>
    <clipPath
       clipPathUnits="userSpaceOnUse"
       id="clipPath39">
      <path
         d="M 0,0 H 1387.5 V 669.82758 H 0 Z"
         transform="matrix(0.33441107,0,0,0.33441107,-338.09375,-197)"
         clip-rule="evenodd"
         id="path39" />
    </clipPath>
    <clipPath
       clipPathUnits="userSpaceOnUse"
       id="clipPath40">
      <path
         d="M 0,0 H 1387.5 V 669.82758 H 0 Z"
         transform="matrix(0.33441107,0,0,0.33441107,-364.5625,-197)"
         clip-rule="evenodd"
         id="path40" />
    </clipPath>
    <clipPath
       clipPathUnits="userSpaceOnUse"
       id="clipPath41">
      <path
         d="M 0,0 H 1387.5 V 669.82758 H 0 Z"
         transform="matrix(0.33441107,0,0,0.33441107,-217.125,-218)"
         clip-rule="evenodd"
         id="path41" />
    </clipPath>
  </defs>
  <sodipodi:namedview
     id="namedview1"
     pagecolor="#ffffff"
     bordercolor="#000000"
     borderopacity="0.25"
     inkscape:showpageshadow="2"
     inkscape:pageopacity="0.0"
     inkscape:pagecheckerboard="0"
     inkscape:deskcolor="#d1d1d1">
    <inkscape:page
       x="0"
       y="0"
       inkscape:label="1"
       id="page1"
       width="444.16"
       height="216"
       margin="0"
       bleed="0" />
  </sodipodi:namedview>
  <g
     id="g1"
     inkscape:groupmode="layer"
     inkscape:label="1">
    <path
       id="path1"
       d="M 0,0 H 464 V 225 H 0 Z"
       style="fill:#ffffff;fill-opacity:1;fill-rule:nonzero;stroke:none"
       transform="scale(0.95689647)"
       clip-path="url(#clipPath2)" />
    <path
       id="path3"
       d="m 121,31 h 73.63"
       style="fill:none;stroke:#000000;stroke-width:1;stroke-linecap:butt;stroke-linejoin:miter;stroke-miterlimit:10;stroke-dasharray:none;stroke-opacity:1"
       transform="matrix(0.95689647,0,0,0.95689647,0.47844824,0.47844824)"
       clip-path="url(#clipPath4)" />
    <path
       id="path5"
       d="m 199.88,31 -7,3.5 1.75,-3.5 -1.75,-3.5 z"
       style="fill:#000000;fill-opacity:1;fill-rule:nonzero;stroke:#000000;stroke-width:1;stroke-linecap:butt;stroke-linejoin:miter;stroke-miterlimit:10;stroke-dasharray:none;stroke-opacity:1"
       transform="matrix(0.95689647,0,0,0.95689647,0.47844824,0.47844824)"
       clip-path="url(#clipPath6)" />
    <path
       id="path7"
       d="M 1,1 H 121 V 61 H 1 Z"
       style="fill:#dae8fc;fill-opacity:1;fill-rule:nonzero;stroke:#6c8ebf;stroke-width:1;stroke-linecap:butt;stroke-linejoin:miter;stroke-miterlimit:10;stroke-dasharray:none;stroke-opacity:1"
       transform="matrix(0.95689647,0,0,0.95689647,0.47844824,0.47844824)"
       clip-path="url(#clipPath8)" />
    <text
       id="text8"
       xml:space="preserve"
       transform="matrix(0.95690607,0,0,0.95690607,34.418715,35.405525)"
       clip-path="url(#clipPath9)"><tspan
         style="font-variant:normal;font-weight:700;font-size:17px;font-family:Helvetica;writing-mode:lr-tb;fill:#000000;fill-opacity:1;fill-rule:nonzero;stroke:none"
         x="0 10.384277 20.768555 31.152832 35.875977 40.599121"
         y="0"
         sodipodi:role="line"
         id="tspan8">public</tspan></text>
    <path
       id="path10"
       d="M 201,1 H 461 V 61 H 201 Z"
       style="fill:#ffffff;fill-opacity:1;fill-rule:nonzero;stroke:#000000;stroke-width:1;stroke-linecap:butt;stroke-linejoin:miter;stroke-miterlimit:10;stroke-dasharray:none;stroke-opacity:1"
       transform="matrix(0.95689647,0,0,0.95689647,0.47844824,0.47844824)"
       clip-path="url(#clipPath11)" />
    <text
       id="text11"
       xml:space="preserve"
       transform="matrix(0.95690607,0,0,0.95690607,206.40763,25.836464)"
       clip-path="url(#clipPath12)"><tspan
         style="font-variant:normal;font-weight:normal;font-size:17px;font-family:Helvetica;writing-mode:lr-tb;fill:#000000;fill-opacity:1;fill-rule:nonzero;stroke:none"
         x="0 10.384277 19.838867 23.615723 32.115723 36.838867 51 60.45459 65.177734 74.632324 84.086914 93.541504 98.264648 106.76465 116.21924 125.67383 130.39697 139.85156 149.30615 154.0293 162.5293 171.98389 175.76074 179.5376 188.99219 198.44678 203.16992 212.62451 222.0791"
         y="0"
         sodipodi:role="line"
         id="tspan11">This method can be called any</tspan></text>
    <text
       id="text12"
       xml:space="preserve"
       transform="matrix(0.95690607,0,0,0.95690607,259.32155,45.931491)"
       clip-path="url(#clipPath13)"><tspan
         style="font-variant:normal;font-weight:normal;font-size:17px;font-family:Helvetica;writing-mode:lr-tb;fill:#000000;fill-opacity:1;fill-rule:nonzero;stroke:none"
         x="0 12.276855 21.731445 31.186035 36.847168 46.301758 51.024902 55.748047 65.202637 74.657227 83.157227 87.880371 92.603516 96.380371 110.5415"
         y="0"
         sodipodi:role="line"
         id="tspan12">where, any time</tspan></text>
    <path
       id="path14"
       d="m 121,111 h 73.63"
       style="fill:none;stroke:#000000;stroke-width:1;stroke-linecap:butt;stroke-linejoin:miter;stroke-miterlimit:10;stroke-dasharray:none;stroke-opacity:1"
       transform="matrix(0.95689647,0,0,0.95689647,0.47844824,0.47844824)"
       clip-path="url(#clipPath15)" />
    <path
       id="path16"
       d="m 199.88,111 -7,3.5 1.75,-3.5 -1.75,-3.5 z"
       style="fill:#000000;fill-opacity:1;fill-rule:nonzero;stroke:#000000;stroke-width:1;stroke-linecap:butt;stroke-linejoin:miter;stroke-miterlimit:10;stroke-dasharray:none;stroke-opacity:1"
       transform="matrix(0.95689647,0,0,0.95689647,0.47844824,0.47844824)"
       clip-path="url(#clipPath17)" />
    <path
       id="path18"
       d="m 1,81 h 120 v 60 H 1 Z"
       style="fill:#dae8fc;fill-opacity:1;fill-rule:nonzero;stroke:#6c8ebf;stroke-width:1;stroke-linecap:butt;stroke-linejoin:miter;stroke-miterlimit:10;stroke-dasharray:none;stroke-opacity:1"
       transform="matrix(0.95689647,0,0,0.95689647,0.47844824,0.47844824)"
       clip-path="url(#clipPath19)" />
    <text
       id="text19"
       xml:space="preserve"
       transform="matrix(0.95690607,0,0,0.95690607,31.697514,111.95801)"
       clip-path="url(#clipPath20)"><tspan
         style="font-variant:normal;font-weight:700;font-size:17px;font-family:Helvetica;writing-mode:lr-tb;fill:#000000;fill-opacity:1;fill-rule:nonzero;stroke:none"
         x="0 10.384277 17 21.723145 31.177734 40.632324 46.293457"
         y="0"
         sodipodi:role="line"
         id="tspan19">private</tspan></text>
    <path
       id="path21"
       d="m 201,81 h 260 v 60 H 201 Z"
       style="fill:#ffffff;fill-opacity:1;fill-rule:nonzero;stroke:#000000;stroke-width:1;stroke-linecap:butt;stroke-linejoin:miter;stroke-miterlimit:10;stroke-dasharray:none;stroke-opacity:1"
       transform="matrix(0.95689647,0,0,0.95689647,0.47844824,0.47844824)"
       clip-path="url(#clipPath22)" />
    <text
       id="text22"
       xml:space="preserve"
       transform="matrix(0.95690607,0,0,0.95690607,193.74358,102.38895)"
       clip-path="url(#clipPath23)"><tspan
         style="font-variant:normal;font-weight:normal;font-size:17px;font-family:Helvetica;writing-mode:lr-tb;fill:#000000;fill-opacity:1;fill-rule:nonzero;stroke:none"
         x="0 10.384277 19.838867 23.615723 32.115723 36.838867 51 60.45459 65.177734 74.632324 84.086914 93.541504 98.264648 106.76465 116.21924 125.67383 130.39697 139.85156 149.30615 153.08301 161.58301 166.30615 175.76074 185.21533 189.93848 198.43848 207.89307 211.66992 215.44678 224.90137 234.35596 239.0791 248.53369"
         y="0"
         sodipodi:role="line"
         id="tspan22">This method can only be called by</tspan></text>
    <text
       id="text23"
       xml:space="preserve"
       transform="matrix(0.95690607,0,0,0.95690607,220.41733,122.48398)"
       clip-path="url(#clipPath24)"><tspan
         style="font-style:oblique;font-variant:normal;font-weight:normal;font-size:17px;font-family:Helvetica;writing-mode:lr-tb;fill:#000000;fill-opacity:1;fill-rule:nonzero;stroke:none"
         x="0 9.4545898 14.177734 23.632324 33.086914 38.748047 43.471191 57.632324 67.086914 71.810059 81.264648 90.719238 100.17383"
         y="0"
         sodipodi:role="line"
         id="tspan23">other methods</tspan></text>
    <text
       id="text24"
       xml:space="preserve"
       transform="matrix(0.95690607,0,0,0.95690607,324.42106,122.48398)"
       clip-path="url(#clipPath25)"><tspan
         style="font-variant:normal;font-weight:normal;font-size:17px;font-family:Helvetica;writing-mode:lr-tb;fill:#000000;fill-opacity:1;fill-rule:nonzero;stroke:none"
         x="0 4.7231445 8.5 17.95459"
         y="0"
         sodipodi:role="line"
         id="tspan24"> in </tspan></text>
    <text
       id="text25"
       xml:space="preserve"
       transform="matrix(0.95690607,0,0,0.95690607,346.13087,122.48398)"
       clip-path="url(#clipPath26)"><tspan
         style="font-style:oblique;font-variant:normal;font-weight:normal;font-size:17px;font-family:Helvetica;writing-mode:lr-tb;fill:#000000;fill-opacity:1;fill-rule:nonzero;stroke:none"
         x="0 4.7231445 14.177734 17.95459"
         y="0"
         sodipodi:role="line"
         id="tspan25">this</tspan></text>
    <text
       id="text26"
       xml:space="preserve"
       transform="matrix(0.95690607,0,0,0.95690607,375.97858,122.48398)"
       clip-path="url(#clipPath27)"><tspan
         style="font-variant:normal;font-weight:normal;font-size:17px;font-family:Helvetica;writing-mode:lr-tb;fill:#000000;fill-opacity:1;fill-rule:nonzero;stroke:none"
         x="0 8.5 12.276855 21.731445 30.231445"
         y="0"
         sodipodi:role="line"
         id="tspan26">class</tspan></text>
    <path
       id="path28"
       d="m 121,191 h 73.63"
       style="fill:none;stroke:#000000;stroke-width:1;stroke-linecap:butt;stroke-linejoin:miter;stroke-miterlimit:10;stroke-dasharray:none;stroke-opacity:1"
       transform="matrix(0.95689647,0,0,0.95689647,0.47844824,0.47844824)"
       clip-path="url(#clipPath29)" />
    <path
       id="path30"
       d="m 199.88,191 -7,3.5 1.75,-3.5 -1.75,-3.5 z"
       style="fill:#000000;fill-opacity:1;fill-rule:nonzero;stroke:#000000;stroke-width:1;stroke-linecap:butt;stroke-linejoin:miter;stroke-miterlimit:10;stroke-dasharray:none;stroke-opacity:1"
       transform="matrix(0.95689647,0,0,0.95689647,0.47844824,0.47844824)"
       clip-path="url(#clipPath31)" />
    <path
       id="path32"
       d="m 1,161 h 120 v 60 H 1 Z"
       style="fill:#dae8fc;fill-opacity:1;fill-rule:nonzero;stroke:#6c8ebf;stroke-width:1;stroke-linecap:butt;stroke-linejoin:miter;stroke-miterlimit:10;stroke-dasharray:none;stroke-opacity:1"
       transform="matrix(0.95689647,0,0,0.95689647,0.47844824,0.47844824)"
       clip-path="url(#clipPath33)" />
    <text
       id="text33"
       xml:space="preserve"
       transform="matrix(0.95690607,0,0,0.95690607,21.306112,188.5105)"
       clip-path="url(#clipPath34)"><tspan
         style="font-variant:normal;font-weight:700;font-size:17px;font-family:Helvetica;writing-mode:lr-tb;fill:#000000;fill-opacity:1;fill-rule:nonzero;stroke:none"
         x="0 10.384277 17 27.384277 33.04541 42.5 51.95459 57.615723 67.070312"
         y="0"
         sodipodi:role="line"
         id="tspan33">protected</tspan></text>
    <path
       id="path35"
       d="m 201,161 h 260 v 60 H 201 Z"
       style="fill:#ffffff;fill-opacity:1;fill-rule:nonzero;stroke:#000000;stroke-width:1;stroke-linecap:butt;stroke-linejoin:miter;stroke-miterlimit:10;stroke-dasharray:none;stroke-opacity:1"
       transform="matrix(0.95689647,0,0,0.95689647,0.47844824,0.47844824)"
       clip-path="url(#clipPath36)" />
    <text
       id="text36"
       xml:space="preserve"
       transform="matrix(0.95690607,0,0,0.95690607,210.93798,169.37237)"
       clip-path="url(#clipPath37)"><tspan
         style="font-variant:normal;font-weight:normal;font-size:17px;font-family:Helvetica;writing-mode:lr-tb;fill:#000000;fill-opacity:1;fill-rule:nonzero;stroke:none"
         x="0 10.384277 19.838867 23.615723 32.115723 36.838867 51 60.45459 65.177734 74.632324 84.086914 93.541504 98.264648 106.76465 116.21924 125.67383 130.39697 139.85156 149.30615 154.0293 162.5293 171.98389 175.76074 179.5376 188.99219 198.44678 203.16992 212.62451"
         y="0"
         sodipodi:role="line"
         id="tspan36">This method can be called by</tspan></text>
    <text
       id="text37"
       xml:space="preserve"
       transform="matrix(0.95690607,0,0,0.95690607,197.82538,188.5105)"
       clip-path="url(#clipPath38)"><tspan
         style="font-variant:normal;font-weight:normal;font-size:17px;font-family:Helvetica;writing-mode:lr-tb;fill:#000000;fill-opacity:1;fill-rule:nonzero;stroke:none"
         x="0 9.4545898 14.177734 23.632324 33.086914 38.748047 43.471191 57.632324 67.086914 71.810059 81.264648 90.719238 100.17383 108.67383 113.39697 117.17383 126.62842"
         y="0"
         sodipodi:role="line"
         id="tspan37">other methods in </tspan></text>
    <text
       id="text38"
       xml:space="preserve"
       transform="matrix(0.95690607,0,0,0.95690607,323.52396,188.5105)"
       clip-path="url(#clipPath39)"><tspan
         style="font-style:oblique;font-variant:normal;font-weight:normal;font-size:17px;font-family:Helvetica;writing-mode:lr-tb;fill:#000000;fill-opacity:1;fill-rule:nonzero;stroke:none"
         x="0 4.7231445 14.177734 17.95459"
         y="0"
         sodipodi:role="line"
         id="tspan38">this</tspan></text>
    <text
       id="text39"
       xml:space="preserve"
       transform="matrix(0.95690607,0,0,0.95690607,348.85207,188.5105)"
       clip-path="url(#clipPath40)"><tspan
         style="font-variant:normal;font-weight:normal;font-size:17px;font-family:Helvetica;writing-mode:lr-tb;fill:#000000;fill-opacity:1;fill-rule:nonzero;stroke:none"
         x="0 4.7231445 13.223145 17 26.45459 34.95459 43.45459 48.177734 52.900879 62.355469 68.016602 72.739746 82.194336"
         y="0"
         sodipodi:role="line"
         id="tspan39"> class, or by</tspan></text>
    <text
       id="text40"
       xml:space="preserve"
       transform="matrix(0.95690607,0,0,0.95690607,207.76823,208.60552)"
       clip-path="url(#clipPath41)"><tspan
         style="font-variant:normal;font-weight:normal;font-size:17px;font-family:Helvetica;writing-mode:lr-tb;fill:#000000;fill-opacity:1;fill-rule:nonzero;stroke:none"
         x="0 9.4545898 14.177734 23.632324 33.086914 38.748047 43.471191 57.632324 67.086914 71.810059 81.264648 90.719238 100.17383 108.67383 113.39697 117.17383 126.62842 131.35156 139.85156 149.30615 153.08301 156.85986 166.31445 171.0376 179.5376 183.31445 192.76904 201.26904 209.76904 219.22363"
         y="0"
         sodipodi:role="line"
         id="tspan40">other methods in child classes</tspan></text>
  </g>
</svg>
