<?xml version="1.0" encoding="UTF-8" standalone="no"?>
<!-- Created with Inkscape (http://www.inkscape.org/) -->

<svg
   version="1.1"
   id="svg1"
   width="520"
   height="244.16"
   viewBox="0 0 520 244.16"
   sodipodi:docname="ts-11.pdf"
   xmlns:inkscape="http://www.inkscape.org/namespaces/inkscape"
   xmlns:sodipodi="http://sodipodi.sourceforge.net/DTD/sodipodi-0.dtd"
   xmlns="http://www.w3.org/2000/svg"
   xmlns:svg="http://www.w3.org/2000/svg">
  <defs
     id="defs1">
    <clipPath
       clipPathUnits="userSpaceOnUse"
       id="clipPath2">
      <path
         d="M 0,0 H 1624.9999 V 760.12885 H 0 Z"
         transform="scale(0.33415387)"
         clip-rule="evenodd"
         id="path2" />
    </clipPath>
    <clipPath
       clipPathUnits="userSpaceOnUse"
       id="clipPath4">
      <path
         d="M 0,0 H 1624.9999 V 760.12885 H 0 Z"
         transform="matrix(0.33415387,0,0,0.33415387,-0.5,-0.5)"
         clip-rule="evenodd"
         id="path4" />
    </clipPath>
    <clipPath
       clipPathUnits="userSpaceOnUse"
       id="clipPath6">
      <path
         d="M 0,0 H 1624.9999 V 760.12885 H 0 Z"
         transform="matrix(0.33415387,0,0,0.33415387,-0.5,-0.5)"
         clip-rule="evenodd"
         id="path6" />
    </clipPath>
    <clipPath
       clipPathUnits="userSpaceOnUse"
       id="clipPath8">
      <path
         d="M 0,0 H 1624.9999 V 760.12885 H 0 Z"
         transform="matrix(0.33415387,0,0,0.33415387,-0.5,-0.5)"
         clip-rule="evenodd"
         id="path8" />
    </clipPath>
    <clipPath
       clipPathUnits="userSpaceOnUse"
       id="clipPath9">
      <path
         d="M 0,0 H 1624.9999 V 760.12885 H 0 Z"
         transform="matrix(0.33415051,0,0,0.33415051,-95.765625,-32)"
         clip-rule="evenodd"
         id="path9" />
    </clipPath>
    <clipPath
       clipPathUnits="userSpaceOnUse"
       id="clipPath10">
      <path
         d="M 0,0 H 1624.9999 V 760.12885 H 0 Z"
         transform="matrix(0.33415051,0,0,0.33415051,-23.90625,-65.999999)"
         clip-rule="evenodd"
         id="path10" />
    </clipPath>
    <clipPath
       clipPathUnits="userSpaceOnUse"
       id="clipPath11">
      <path
         d="M 0,0 H 1624.9999 V 760.12885 H 0 Z"
         transform="matrix(0.33415051,0,0,0.33415051,-107.96875,-99)"
         clip-rule="evenodd"
         id="path11" />
    </clipPath>
    <clipPath
       clipPathUnits="userSpaceOnUse"
       id="clipPath13">
      <path
         d="M 0,0 H 1624.9999 V 760.12885 H 0 Z"
         transform="matrix(0.33415387,0,0,0.33415387,-0.5,-0.5)"
         clip-rule="evenodd"
         id="path13" />
    </clipPath>
    <clipPath
       clipPathUnits="userSpaceOnUse"
       id="clipPath14">
      <path
         d="M 0,0 H 1624.9999 V 760.12885 H 0 Z"
         transform="matrix(0.33415051,0,0,0.33415051,-31.9375,-206)"
         clip-rule="evenodd"
         id="path14" />
    </clipPath>
    <clipPath
       clipPathUnits="userSpaceOnUse"
       id="clipPath16">
      <path
         d="M 0,0 H 1624.9999 V 760.12885 H 0 Z"
         transform="matrix(-0.33415387,0,0,-0.33415387,732.50003,392.50002)"
         clip-rule="evenodd"
         id="path16" />
    </clipPath>
    <clipPath
       clipPathUnits="userSpaceOnUse"
       id="clipPath17">
      <path
         d="M 0,0 H 1624.9999 V 760.12885 H 0 Z"
         transform="matrix(0.33415051,0,0,0.33415051,-383,-182)"
         clip-rule="evenodd"
         id="path17" />
    </clipPath>
    <clipPath
       clipPathUnits="userSpaceOnUse"
       id="clipPath18">
      <path
         d="M 0,0 H 1624.9999 V 760.12885 H 0 Z"
         transform="matrix(0.33415051,0,0,0.33415051,-383,-199)"
         clip-rule="evenodd"
         id="path18" />
    </clipPath>
    <clipPath
       clipPathUnits="userSpaceOnUse"
       id="clipPath19">
      <path
         d="M 0,0 H 1624.9999 V 760.12885 H 0 Z"
         transform="matrix(0.33415051,0,0,0.33415051,-383,-216)"
         clip-rule="evenodd"
         id="path19" />
    </clipPath>
  </defs>
  <sodipodi:namedview
     id="namedview1"
     pagecolor="#ffffff"
     bordercolor="#000000"
     borderopacity="0.25"
     inkscape:showpageshadow="2"
     inkscape:pageopacity="0.0"
     inkscape:pagecheckerboard="0"
     inkscape:deskcolor="#d1d1d1">
    <inkscape:page
       x="0"
       y="0"
       inkscape:label="1"
       id="page1"
       width="520"
       height="244.16"
       margin="0"
       bleed="0" />
  </sodipodi:namedview>
  <g
     id="g1"
     inkscape:groupmode="layer"
     inkscape:label="1">
    <path
       id="path1"
       d="M 0,0 H 543 V 254 H 0 Z"
       style="fill:#ffffff;fill-opacity:1;fill-rule:nonzero;stroke:none"
       transform="scale(0.95764262)"
       clip-path="url(#clipPath2)" />
    <path
       id="path3"
       d="m 171,111 v 20 -10 13.63"
       style="fill:none;stroke:#242424;stroke-width:1;stroke-linecap:butt;stroke-linejoin:miter;stroke-miterlimit:10;stroke-dasharray:none;stroke-opacity:1"
       transform="matrix(0.95764262,0,0,0.95764262,0.47882131,0.47882131)"
       clip-path="url(#clipPath4)" />
    <path
       id="path5"
       d="m 171,139.88 -3.5,-7 3.5,1.75 3.5,-1.75 z"
       style="fill:#242424;fill-opacity:1;fill-rule:nonzero;stroke:#242424;stroke-width:1;stroke-linecap:butt;stroke-linejoin:miter;stroke-miterlimit:10;stroke-dasharray:none;stroke-opacity:1"
       transform="matrix(0.95764262,0,0,0.95764262,0.47882131,0.47882131)"
       clip-path="url(#clipPath6)" />
    <path
       id="path7"
       d="M 1,1 H 341 V 111 H 1 Z"
       style="fill:#dae8fc;fill-opacity:1;fill-rule:nonzero;stroke:#6c8ebf;stroke-width:1;stroke-linecap:butt;stroke-linejoin:miter;stroke-miterlimit:10;stroke-dasharray:none;stroke-opacity:1"
       transform="matrix(0.95764262,0,0,0.95764262,0.47882131,0.47882131)"
       clip-path="url(#clipPath8)" />
    <text
       id="text8"
       xml:space="preserve"
       transform="matrix(0.95765225,0,0,0.95765225,91.710166,30.644872)"
       clip-path="url(#clipPath9)"><tspan
         style="font-variant:normal;font-weight:normal;font-size:28px;font-family:Helvetica;writing-mode:lr-tb;fill:#000000;fill-opacity:1;fill-rule:nonzero;stroke:none"
         x="0 25.935547 35.259766 41.480469 49.259766 64.832031 72.611328 88.183594 103.75586 111.53516 119.31445 134.88672"
         y="0"
         sodipodi:role="line"
         id="tspan8">Write out an</tspan></text>
    <text
       id="text9"
       xml:space="preserve"
       transform="matrix(0.95765225,0,0,0.95765225,22.893874,63.205048)"
       clip-path="url(#clipPath10)"><tspan
         style="font-variant:normal;font-weight:normal;font-size:28px;font-family:Helvetica;writing-mode:lr-tb;fill:#000000;fill-opacity:1;fill-rule:nonzero;stroke:none"
         x="0 6.2207031 29.544922 45.117188 51.337891 66.910156 90.234375 105.80664 121.37891 129.1582 144.73047 152.50977 158.73047 174.30273 189.875 197.6543 213.22656 227.22656 235.00586 250.57812 256.79883 272.37109 278.5918"
         y="0"
         sodipodi:role="line"
         id="tspan9">implementation as plain</tspan></text>
    <text
       id="text10"
       xml:space="preserve"
       transform="matrix(0.95765225,0,0,0.95765225,103.39652,94.807573)"
       clip-path="url(#clipPath11)"><tspan
         style="font-variant:normal;font-weight:normal;font-size:28px;font-family:Helvetica;writing-mode:lr-tb;fill:#000000;fill-opacity:1;fill-rule:nonzero;stroke:none"
         x="0 14 29.572266 43.572266 59.144531 73.144531 87.144531 96.46875 102.68945 118.26172"
         y="0"
         sodipodi:role="line"
         id="tspan10">Javascript</tspan></text>
    <path
       id="path12"
       d="M 1,141 H 341 V 251 H 1 Z"
       style="fill:#dae8fc;fill-opacity:1;fill-rule:nonzero;stroke:#6c8ebf;stroke-width:1;stroke-linecap:butt;stroke-linejoin:miter;stroke-miterlimit:10;stroke-dasharray:none;stroke-opacity:1"
       transform="matrix(0.95764262,0,0,0.95764262,0.47882131,0.47882131)"
       clip-path="url(#clipPath13)" />
    <text
       id="text13"
       xml:space="preserve"
       transform="matrix(0.95765225,0,0,0.95765225,30.585019,197.27636)"
       clip-path="url(#clipPath14)"><tspan
         style="font-variant:normal;font-weight:normal;font-size:28px;font-family:Helvetica;writing-mode:lr-tb;fill:#000000;fill-opacity:1;fill-rule:nonzero;stroke:none"
         x="0 25.935547 35.259766 41.480469 49.259766 64.832031 72.611328 80.390625 94.390625 109.96289 125.53516 133.31445 148.88672 164.45898 180.03125 195.60352 203.38281 218.95508 226.73438 232.95508 248.52734 264.09961"
         y="0"
         sodipodi:role="line"
         id="tspan13">Write type annotations</tspan></text>
    <path
       id="path15"
       d="m 381,141 h -7.5 c -5,0 -7.5,3.33333 -7.5,10 v 35 c 0,6.66667 -2.5,10 -7.5,10 h -3.75 c -2.5,0 -1.25,0 3.75,0 h 3.75 c 2.5,0 3.75,3.33333 3.75,10 v 35 c 0,6.66667 2.5,10 7.5,10 h 7.5"
       style="fill:none;stroke:#000000;stroke-width:1;stroke-linecap:butt;stroke-linejoin:miter;stroke-miterlimit:10;stroke-dasharray:none;stroke-opacity:1"
       transform="matrix(-0.95764262,0,0,-0.95764262,701.47325,375.87475)"
       clip-path="url(#clipPath16)" />
    <text
       id="text16"
       xml:space="preserve"
       transform="matrix(0.95765225,0,0,0.95765225,366.78081,174.29271)"
       clip-path="url(#clipPath17)"><tspan
         style="font-style:oblique;font-variant:normal;font-weight:normal;font-size:14px;font-family:Helvetica;writing-mode:lr-tb;fill:#000000;fill-opacity:1;fill-rule:nonzero;stroke:none"
         x="0 10.110352 13.220703 21.006836 24.896484 31.896484 35.786133 39.675781 47.461914 51.351562 59.137695 66.923828 70.03418 77.820312 81.709961 85.599609 93.385742 101.17188 104.81543 113.36719"
         y="0"
         sodipodi:role="line"
         id="tspan16">Hints to help the TS</tspan></text>
    <text
       id="text17"
       xml:space="preserve"
       transform="matrix(0.95765225,0,0,0.95765225,366.78081,190.5728)"
       clip-path="url(#clipPath18)"><tspan
         style="font-style:oblique;font-variant:normal;font-weight:normal;font-size:14px;font-family:Helvetica;writing-mode:lr-tb;fill:#000000;fill-opacity:1;fill-rule:nonzero;stroke:none"
         x="0 10.110352 17.896484 29.558594 37.344727 40.455078 43.56543 51.351562 56.013672 59.90332 67.689453 75.475586 83.261719 91.047852 95.709961 102.70996 106.59961 114.38574 122.17188 129.95801 133.84766 141.63379 149.41992"
         y="0"
         sodipodi:role="line"
         id="tspan17">Compiler understand our</tspan></text>
    <text
       id="text18"
       xml:space="preserve"
       transform="matrix(0.95765225,0,0,0.95765225,366.78081,206.85289)"
       clip-path="url(#clipPath19)"><tspan
         style="font-style:oblique;font-variant:normal;font-weight:normal;font-size:14px;font-family:Helvetica;writing-mode:lr-tb;fill:#000000;fill-opacity:1;fill-rule:nonzero;stroke:none"
         x="0 7 14.786133 22.572266"
         y="0"
         sodipodi:role="line"
         id="tspan18">code</tspan></text>
  </g>
</svg>
