<?xml version="1.0" encoding="UTF-8" standalone="no"?>
<!-- Created with Inkscape (http://www.inkscape.org/) -->

<svg
   version="1.1"
   id="svg1"
   width="521.27997"
   height="362.55997"
   viewBox="0 0 521.27997 362.55997"
   sodipodi:docname="ts-10.pdf"
   xmlns:inkscape="http://www.inkscape.org/namespaces/inkscape"
   xmlns:sodipodi="http://sodipodi.sourceforge.net/DTD/sodipodi-0.dtd"
   xmlns="http://www.w3.org/2000/svg"
   xmlns:svg="http://www.w3.org/2000/svg">
  <defs
     id="defs1">
    <clipPath
       clipPathUnits="userSpaceOnUse"
       id="clipPath2">
      <path
         d="M 0,0 H 1629.1666 V 1132.0313 H 0 Z"
         transform="scale(0.33391306)"
         clip-rule="evenodd"
         id="path2" />
    </clipPath>
    <clipPath
       clipPathUnits="userSpaceOnUse"
       id="clipPath3">
      <path
         d="M 0,0 H 1629.1666 V 1126.0416 H 0 Z"
         transform="matrix(0.33390972,0,0,0.33390972,-225.09375,-27)"
         clip-rule="evenodd"
         id="path3" />
    </clipPath>
    <clipPath
       clipPathUnits="userSpaceOnUse"
       id="clipPath5">
      <path
         d="M 0,0 H 1629.1666 V 1126.0416 H 0 Z"
         transform="matrix(0.33391306,0,0,0.33391306,-0.5,-0.5)"
         clip-rule="evenodd"
         id="path5" />
    </clipPath>
    <clipPath
       clipPathUnits="userSpaceOnUse"
       id="clipPath6">
      <path
         d="M 0,0 H 1629.1666 V 1126.0416 H 0 Z"
         transform="matrix(0.33390972,0,0,0.33390972,-32.34375,-83)"
         clip-rule="evenodd"
         id="path6" />
    </clipPath>
    <clipPath
       clipPathUnits="userSpaceOnUse"
       id="clipPath7">
      <path
         d="M 0,0 H 1629.1666 V 1126.0416 H 0 Z"
         transform="matrix(0.33390972,0,0,0.33390972,-10.328125,-117)"
         clip-rule="evenodd"
         id="path7" />
    </clipPath>
    <clipPath
       clipPathUnits="userSpaceOnUse"
       id="clipPath8">
      <path
         d="M 0,0 H 1629.1666 V 1126.0416 H 0 Z"
         transform="matrix(0.33390972,0,0,0.33390972,-236.75,-150)"
         clip-rule="evenodd"
         id="path8" />
    </clipPath>
    <clipPath
       clipPathUnits="userSpaceOnUse"
       id="clipPath10">
      <path
         d="M 0,0 H 1629.1666 V 1126.0416 H 0 Z"
         transform="matrix(0.33391306,0,0,0.33391306,-0.5,-0.5)"
         clip-rule="evenodd"
         id="path10" />
    </clipPath>
    <clipPath
       clipPathUnits="userSpaceOnUse"
       id="clipPath12">
      <path
         d="M 0,0 H 1629.1666 V 1126.0416 H 0 Z"
         transform="matrix(0.33391306,0,0,0.33391306,-0.5,-0.5)"
         clip-rule="evenodd"
         id="path12" />
    </clipPath>
    <clipPath
       clipPathUnits="userSpaceOnUse"
       id="clipPath13">
      <path
         d="M 0,0 H 1629.1666 V 1126.0416 H 0 Z"
         transform="matrix(0.33390972,0,0,0.33390972,-158.42188,-267)"
         clip-rule="evenodd"
         id="path13" />
    </clipPath>
    <clipPath
       clipPathUnits="userSpaceOnUse"
       id="clipPath14">
      <path
         d="M 0,0 H 1629.1666 V 1126.0416 H 0 Z"
         transform="matrix(0.33390972,0,0,0.33390972,-356.875,-267)"
         clip-rule="evenodd"
         id="path14" />
    </clipPath>
    <clipPath
       clipPathUnits="userSpaceOnUse"
       id="clipPath16">
      <path
         d="M 0,0 H 1629.1666 V 1126.0416 H 0 Z"
         transform="matrix(0.33391306,0,0,0.33391306,-0.5,-0.5)"
         clip-rule="evenodd"
         id="path16" />
    </clipPath>
    <clipPath
       clipPathUnits="userSpaceOnUse"
       id="clipPath18">
      <path
         d="M 0,0 H 1629.1666 V 1126.0416 H 0 Z"
         transform="matrix(0.33391306,0,0,0.33391306,-0.5,-0.5)"
         clip-rule="evenodd"
         id="path18" />
    </clipPath>
    <clipPath
       clipPathUnits="userSpaceOnUse"
       id="clipPath19">
      <path
         d="M 0,0 H 1629.1666 V 1126.0416 H 0 Z"
         transform="matrix(0.33390972,0,0,0.33390972,-108.84375,-367)"
         clip-rule="evenodd"
         id="path19" />
    </clipPath>
    <clipPath
       clipPathUnits="userSpaceOnUse"
       id="clipPath20">
      <path
         d="M 0,0 H 1629.1666 V 1126.0416 H 0 Z"
         transform="matrix(0.33390972,0,0,0.33390972,-361.42188,-367)"
         clip-rule="evenodd"
         id="path20" />
    </clipPath>
    <clipPath
       clipPathUnits="userSpaceOnUse"
       id="clipPath22">
      <path
         d="M 0,0 H 1629.1666 V 1126.0416 H 0 Z"
         transform="matrix(0.33391306,0,0,0.33391306,-0.5,-0.5)"
         clip-rule="evenodd"
         id="path22" />
    </clipPath>
    <clipPath
       clipPathUnits="userSpaceOnUse"
       id="clipPath24">
      <path
         d="M 0,0 H 1629.1666 V 1126.0416 H 0 Z"
         transform="matrix(0.33391306,0,0,0.33391306,-0.5,-0.5)"
         clip-rule="evenodd"
         id="path24" />
    </clipPath>
    <clipPath
       clipPathUnits="userSpaceOnUse"
       id="clipPath25">
      <path
         d="M 0,0 H 1629.1666 V 1126.0416 H 0 Z"
         transform="matrix(0.33390972,0,0,0.33390972,-150.625,-317)"
         clip-rule="evenodd"
         id="path25" />
    </clipPath>
    <clipPath
       clipPathUnits="userSpaceOnUse"
       id="clipPath26">
      <path
         d="M 0,0 H 1629.1666 V 1126.0416 H 0 Z"
         transform="matrix(0.33390972,0,0,0.33390972,-361.875,-317)"
         clip-rule="evenodd"
         id="path26" />
    </clipPath>
  </defs>
  <sodipodi:namedview
     id="namedview1"
     pagecolor="#ffffff"
     bordercolor="#000000"
     borderopacity="0.25"
     inkscape:showpageshadow="2"
     inkscape:pageopacity="0.0"
     inkscape:pagecheckerboard="0"
     inkscape:deskcolor="#d1d1d1">
    <inkscape:page
       x="0"
       y="0"
       inkscape:label="1"
       id="page1"
       width="521.27997"
       height="362.55997"
       margin="0"
       bleed="0" />
  </sodipodi:namedview>
  <g
     id="g1"
     inkscape:groupmode="layer"
     inkscape:label="1">
    <path
       id="path1"
       d="M 0,0 H 544 V 378 H 0 Z"
       style="fill:#ffffff;fill-opacity:1;fill-rule:nonzero;stroke:none"
       transform="scale(0.95833324)"
       clip-path="url(#clipPath2)" />
    <text
       id="text2"
       xml:space="preserve"
       transform="matrix(0.95834284,0,0,0.95834284,215.71698,25.875257)"
       clip-path="url(#clipPath3)"><tspan
         style="font-style:oblique;font-variant:normal;font-weight:normal;font-size:28px;font-family:Helvetica;writing-mode:lr-tb;fill:#000000;fill-opacity:1;fill-rule:nonzero;stroke:none"
         x="0 6.2207031 20.220703 38.896484 52.896484 68.46875 84.041016"
         y="0"
         sodipodi:role="line"
         id="tspan2">isEvent</tspan></text>
    <path
       id="path4"
       d="M 1,37 H 541.01001 V 177 H 1 Z"
       style="fill:#dae8fc;fill-opacity:1;fill-rule:nonzero;stroke:#6c8ebf;stroke-width:1;stroke-linecap:butt;stroke-linejoin:miter;stroke-miterlimit:10;stroke-dasharray:none;stroke-opacity:1"
       transform="matrix(0.95833324,0,0,0.95833324,0.47916662,0.47916662)"
       clip-path="url(#clipPath5)" />
    <text
       id="text5"
       xml:space="preserve"
       transform="matrix(0.95834284,0,0,0.95834284,30.996401,79.542456)"
       clip-path="url(#clipPath6)"><tspan
         style="font-variant:normal;font-weight:normal;font-size:28px;font-family:Helvetica;writing-mode:lr-tb;fill:#000000;fill-opacity:1;fill-rule:nonzero;stroke:none"
         x="0 25.935547 35.259766 41.480469 49.259766 64.832031 72.611328 88.183594 95.962891 103.74219 119.31445 134.88672 148.88672 156.66602 162.88672 178.45898 194.03125 201.81055 209.58984 225.16211 240.73438 248.51367 256.29297 264.07227 279.64453 293.64453 309.2168 323.2168 330.99609 346.56836 354.34766 368.34766 376.12695 385.45117 391.67188 407.24414 422.81641 430.5957 446.16797 461.74023"
         y="0"
         sodipodi:role="line"
         id="tspan5">Write a function that takes a string and</tspan></text>
    <text
       id="text6"
       xml:space="preserve"
       transform="matrix(0.95834284,0,0,0.95834284,9.8978846,112.12611)"
       clip-path="url(#clipPath7)"><tspan
         style="font-variant:normal;font-weight:normal;font-size:28px;font-family:Helvetica;writing-mode:lr-tb;fill:#000000;fill-opacity:1;fill-rule:nonzero;stroke:none"
         x="0 9.3242188 24.896484 32.675781 48.248047 57.572266 73.144531 87.144531 94.923828 102.70312 112.02734 127.59961 143.17188 150.95117 157.17188 164.95117 172.73047 178.95117 192.95117 200.73047 208.50977 224.08203 239.6543 247.43359 263.00586 278.57812 301.90234 317.47461 325.25391 340.82617 348.60547 356.38477 371.95703 379.73633 393.73633 409.30859 415.5293 421.75 437.32227 445.10156 465.32227 482.42578 505.75"
         y="0"
         sodipodi:role="line"
         id="tspan6">returns true if is the name of a valid HTML</tspan></text>
    <text
       id="text7"
       xml:space="preserve"
       transform="matrix(0.95834284,0,0,0.95834284,226.88767,143.75143)"
       clip-path="url(#clipPath8)"><tspan
         style="font-variant:normal;font-weight:normal;font-size:28px;font-family:Helvetica;writing-mode:lr-tb;fill:#000000;fill-opacity:1;fill-rule:nonzero;stroke:none"
         x="0 15.572266 29.572266 45.144531 60.716797"
         y="0"
         sodipodi:role="line"
         id="tspan7">event</tspan></text>
    <path
       id="path9"
       d="m 241,257 h 83.64001"
       style="fill:none;stroke:#242424;stroke-width:1;stroke-linecap:butt;stroke-linejoin:miter;stroke-miterlimit:10;stroke-dasharray:none;stroke-opacity:1"
       transform="matrix(0.95833324,0,0,0.95833324,0.47916662,0.47916662)"
       clip-path="url(#clipPath10)" />
    <path
       id="path11"
       d="m 329.89001,257 -7,3.5 1.75,-3.5 -1.75,-3.5 z"
       style="fill:#242424;fill-opacity:1;fill-rule:nonzero;stroke:#242424;stroke-width:1;stroke-linecap:butt;stroke-linejoin:miter;stroke-miterlimit:10;stroke-dasharray:none;stroke-opacity:1"
       transform="matrix(0.95833324,0,0,0.95833324,0.47916662,0.47916662)"
       clip-path="url(#clipPath12)" />
    <text
       id="text12"
       xml:space="preserve"
       transform="matrix(0.95834284,0,0,0.95834284,151.82247,255.87754)"
       clip-path="url(#clipPath13)"><tspan
         style="font-variant:normal;font-weight:normal;font-size:28px;font-family:Helvetica;writing-mode:lr-tb;fill:#000000;fill-opacity:1;fill-rule:nonzero;stroke:none"
         x="0 5.3457031 19.345703 25.566406 31.787109 45.787109 59.787109"
         y="0"
         sodipodi:role="line"
         id="tspan12">'click'</tspan></text>
    <text
       id="text13"
       xml:space="preserve"
       transform="matrix(0.95834284,0,0,0.95834284,342.0086,255.87754)"
       clip-path="url(#clipPath14)"><tspan
         style="font-variant:normal;font-weight:normal;font-size:28px;font-family:Helvetica;writing-mode:lr-tb;fill:#000000;fill-opacity:1;fill-rule:nonzero;stroke:none"
         x="0 7.7792969 17.103516 32.675781"
         y="0"
         sodipodi:role="line"
         id="tspan13">true</tspan></text>
    <path
       id="path15"
       d="m 241,357 h 83.64001"
       style="fill:none;stroke:#242424;stroke-width:1;stroke-linecap:butt;stroke-linejoin:miter;stroke-miterlimit:10;stroke-dasharray:none;stroke-opacity:1"
       transform="matrix(0.95833324,0,0,0.95833324,0.47916662,0.47916662)"
       clip-path="url(#clipPath16)" />
    <path
       id="path17"
       d="m 329.89001,357 -7,3.5 1.75,-3.5 -1.75,-3.5 z"
       style="fill:#242424;fill-opacity:1;fill-rule:nonzero;stroke:#242424;stroke-width:1;stroke-linecap:butt;stroke-linejoin:miter;stroke-miterlimit:10;stroke-dasharray:none;stroke-opacity:1"
       transform="matrix(0.95833324,0,0,0.95833324,0.47916662,0.47916662)"
       clip-path="url(#clipPath18)" />
    <text
       id="text18"
       xml:space="preserve"
       transform="matrix(0.95834284,0,0,0.95834284,104.30963,351.71182)"
       clip-path="url(#clipPath19)"><tspan
         style="font-variant:normal;font-weight:normal;font-size:28px;font-family:Helvetica;writing-mode:lr-tb;fill:#000000;fill-opacity:1;fill-rule:nonzero;stroke:none"
         x="0 5.3457031 28.669922 44.242188 58.242188 72.242188 87.814453 103.38672 118.95898"
         y="0"
         sodipodi:role="line"
         id="tspan18">'massage'</tspan></text>
    <text
       id="text19"
       xml:space="preserve"
       transform="matrix(0.95834284,0,0,0.95834284,346.36607,351.71182)"
       clip-path="url(#clipPath20)"><tspan
         style="font-variant:normal;font-weight:normal;font-size:28px;font-family:Helvetica;writing-mode:lr-tb;fill:#000000;fill-opacity:1;fill-rule:nonzero;stroke:none"
         x="0 7.7792969 23.351562 29.572266 43.572266"
         y="0"
         sodipodi:role="line"
         id="tspan19">false</tspan></text>
    <path
       id="path21"
       d="m 241,307 h 83.64001"
       style="fill:none;stroke:#242424;stroke-width:1;stroke-linecap:butt;stroke-linejoin:miter;stroke-miterlimit:10;stroke-dasharray:none;stroke-opacity:1"
       transform="matrix(0.95833324,0,0,0.95833324,0.47916662,0.47916662)"
       clip-path="url(#clipPath22)" />
    <path
       id="path23"
       d="m 329.89001,307 -7,3.5 1.75,-3.5 -1.75,-3.5 z"
       style="fill:#242424;fill-opacity:1;fill-rule:nonzero;stroke:#242424;stroke-width:1;stroke-linecap:butt;stroke-linejoin:miter;stroke-miterlimit:10;stroke-dasharray:none;stroke-opacity:1"
       transform="matrix(0.95833324,0,0,0.95833324,0.47916662,0.47916662)"
       clip-path="url(#clipPath24)" />
    <text
       id="text24"
       xml:space="preserve"
       transform="matrix(0.95834284,0,0,0.95834284,144.35039,303.79468)"
       clip-path="url(#clipPath25)"><tspan
         style="font-variant:normal;font-weight:normal;font-size:28px;font-family:Helvetica;writing-mode:lr-tb;fill:#000000;fill-opacity:1;fill-rule:nonzero;stroke:none"
         x="0 5.3457031 20.917969 36.490234 50.490234 66.0625 75.386719"
         y="0"
         sodipodi:role="line"
         id="tspan24">'hover'</tspan></text>
    <text
       id="text25"
       xml:space="preserve"
       transform="matrix(0.95834284,0,0,0.95834284,346.80032,303.79468)"
       clip-path="url(#clipPath26)"><tspan
         style="font-variant:normal;font-weight:normal;font-size:28px;font-family:Helvetica;writing-mode:lr-tb;fill:#000000;fill-opacity:1;fill-rule:nonzero;stroke:none"
         x="0 7.7792969 17.103516 32.675781"
         y="0"
         sodipodi:role="line"
         id="tspan25">true</tspan></text>
  </g>
</svg>
