<?xml version="1.0" encoding="UTF-8" standalone="no"?>
<!-- Created with Inkscape (http://www.inkscape.org/) -->

<svg
   version="1.1"
   id="svg1"
   width="492.16"
   height="138.56"
   viewBox="0 0 492.16 138.56"
   sodipodi:docname="ts-3.pdf"
   xmlns:inkscape="http://www.inkscape.org/namespaces/inkscape"
   xmlns:sodipodi="http://sodipodi.sourceforge.net/DTD/sodipodi-0.dtd"
   xmlns="http://www.w3.org/2000/svg"
   xmlns:svg="http://www.w3.org/2000/svg">
  <defs
     id="defs1">
    <clipPath
       clipPathUnits="userSpaceOnUse"
       id="clipPath2">
      <path
         d="M 0,0 H 1537.5 V 430.73929 H 0 Z"
         transform="scale(0.33430896)"
         clip-rule="evenodd"
         id="path2" />
    </clipPath>
    <clipPath
       clipPathUnits="userSpaceOnUse"
       id="clipPath4">
      <path
         d="M 0,0 H 1537.5 V 427.74805 H 0 Z"
         transform="matrix(0.33430896,0,0,0.33430896,-0.50000001,-0.50000001)"
         clip-rule="evenodd"
         id="path4" />
    </clipPath>
    <clipPath
       clipPathUnits="userSpaceOnUse"
       id="clipPath5">
      <path
         d="M 0,0 H 1537.5 V 427.74805 H 0 Z"
         transform="matrix(0.3343056,0,0,0.3343056,-46.078126,-57.000001)"
         clip-rule="evenodd"
         id="path5" />
    </clipPath>
    <clipPath
       clipPathUnits="userSpaceOnUse"
       id="clipPath6">
      <path
         d="M 0,0 H 1537.5 V 427.74805 H 0 Z"
         transform="matrix(0.3343056,0,0,0.3343056,-161.95313,-125)"
         clip-rule="evenodd"
         id="path6" />
    </clipPath>
  </defs>
  <sodipodi:namedview
     id="namedview1"
     pagecolor="#ffffff"
     bordercolor="#000000"
     borderopacity="0.25"
     inkscape:showpageshadow="2"
     inkscape:pageopacity="0.0"
     inkscape:pagecheckerboard="0"
     inkscape:deskcolor="#d1d1d1">
    <inkscape:page
       x="0"
       y="0"
       inkscape:label="1"
       id="page1"
       width="492.16"
       height="138.56"
       margin="0"
       bleed="0" />
  </sodipodi:namedview>
  <g
     id="g1"
     inkscape:groupmode="layer"
     inkscape:label="1">
    <path
       id="path1"
       d="M 0,0 H 514 V 144 H 0 Z"
       style="fill:#ffffff;fill-opacity:1;fill-rule:nonzero;stroke:none"
       transform="scale(0.95719836)"
       clip-path="url(#clipPath2)" />
    <path
       id="path3"
       d="M 1,1 H 511.01001 V 91 H 1 Z"
       style="fill:#dae8fc;fill-opacity:1;fill-rule:nonzero;stroke:#6c8ebf;stroke-width:1;stroke-linecap:butt;stroke-linejoin:miter;stroke-miterlimit:10;stroke-dasharray:none;stroke-opacity:1"
       transform="matrix(0.95719836,0,0,0.95719836,0.47859919,0.47859919)"
       clip-path="url(#clipPath4)" />
    <text
       id="text4"
       xml:space="preserve"
       transform="matrix(0.95720799,0,0,0.95720799,44.10635,54.560856)"
       clip-path="url(#clipPath5)"><tspan
         style="font-variant:normal;font-weight:normal;font-size:32px;font-family:Helvetica;writing-mode:lr-tb;fill:#000000;fill-opacity:1;fill-rule:nonzero;stroke:none"
         x="0 7.109375 23.109375 40.90625 58.703125 76.5 83.609375 101.40625 117.40625 135.20312 153 170.79688 177.90625 195.70312 213.5 222.40625 231.29688 240.1875 256.1875 273.98438 281.09375 297.09375 314.89062 332.6875 350.48438 359.375 375.375 393.17188"
         y="0"
         sodipodi:role="line"
         id="tspan4">jsonplaceholder.typicode.com</tspan></text>
    <text
       id="text5"
       xml:space="preserve"
       transform="matrix(0.95720799,0,0,0.95720799,155.02283,119.651)"
       clip-path="url(#clipPath6)"><tspan
         style="font-style:oblique;font-variant:normal;font-weight:normal;font-size:27px;font-family:Helvetica;writing-mode:lr-tb;fill:#000000;fill-opacity:1;fill-rule:nonzero;stroke:none"
         x="0 16.492676 31.508789 45.008789 60.024902 67.526367 81.026367 99.035156 120.03662 139.53516 145.56006 163.56885 181.57764"
         y="0"
         sodipodi:role="line"
         id="tspan5">Fake JSON API</tspan></text>
  </g>
</svg>
