<?xml version="1.0" encoding="UTF-8" standalone="no"?>
<!-- Created with Inkscape (http://www.inkscape.org/) -->

<svg
   version="1.1"
   id="svg1"
   width="405.44"
   height="244.16"
   viewBox="0 0 405.44 244.16"
   sodipodi:docname="ts-4.pdf"
   xmlns:inkscape="http://www.inkscape.org/namespaces/inkscape"
   xmlns:sodipodi="http://sodipodi.sourceforge.net/DTD/sodipodi-0.dtd"
   xmlns="http://www.w3.org/2000/svg"
   xmlns:svg="http://www.w3.org/2000/svg">
  <defs
     id="defs1">
    <clipPath
       clipPathUnits="userSpaceOnUse"
       id="clipPath2">
      <path
         d="M 0,0 H 1266.6666 V 761.79242 H 0 Z"
         transform="scale(0.33473685)"
         clip-rule="evenodd"
         id="path2" />
    </clipPath>
    <clipPath
       clipPathUnits="userSpaceOnUse"
       id="clipPath4">
      <path
         d="M 0,0 H 1266.6666 V 758.80499 H 0 Z"
         transform="matrix(0.33473685,0,0,0.33473685,-0.49999999,-0.49999999)"
         clip-rule="evenodd"
         id="path4" />
    </clipPath>
    <clipPath
       clipPathUnits="userSpaceOnUse"
       id="clipPath6">
      <path
         d="M 0,0 H 1266.6666 V 758.80499 H 0 Z"
         transform="matrix(0.33473685,0,0,0.33473685,-0.49999999,-0.49999999)"
         clip-rule="evenodd"
         id="path6" />
    </clipPath>
    <clipPath
       clipPathUnits="userSpaceOnUse"
       id="clipPath8">
      <path
         d="M 0,0 H 1266.6666 V 758.80499 H 0 Z"
         transform="matrix(0.33473685,0,0,0.33473685,-0.49999999,-0.49999999)"
         clip-rule="evenodd"
         id="path8" />
    </clipPath>
    <clipPath
       clipPathUnits="userSpaceOnUse"
       id="clipPath9">
      <path
         d="M 0,0 H 1266.6666 V 758.80499 H 0 Z"
         transform="matrix(0.33473351,0,0,0.33473351,-33.1875,-44)"
         clip-rule="evenodd"
         id="path9" />
    </clipPath>
    <clipPath
       clipPathUnits="userSpaceOnUse"
       id="clipPath10">
      <path
         d="M 0,0 H 1266.6666 V 758.80499 H 0 Z"
         transform="matrix(0.33473351,0,0,0.33473351,-30.390625,-77)"
         clip-rule="evenodd"
         id="path10" />
    </clipPath>
    <clipPath
       clipPathUnits="userSpaceOnUse"
       id="clipPath11">
      <path
         d="M 0,0 H 1266.6666 V 758.80499 H 0 Z"
         transform="matrix(0.33473351,0,0,0.33473351,-275,-77)"
         clip-rule="evenodd"
         id="path11" />
    </clipPath>
    <clipPath
       clipPathUnits="userSpaceOnUse"
       id="clipPath13">
      <path
         d="M 0,0 H 1266.6666 V 758.80499 H 0 Z"
         transform="matrix(0.33473685,0,0,0.33473685,-0.49999999,-0.49999999)"
         clip-rule="evenodd"
         id="path13" />
    </clipPath>
    <clipPath
       clipPathUnits="userSpaceOnUse"
       id="clipPath14">
      <path
         d="M 0,0 H 1266.6666 V 758.80499 H 0 Z"
         transform="matrix(0.33473351,0,0,0.33473351,-29.40625,-194)"
         clip-rule="evenodd"
         id="path14" />
    </clipPath>
    <clipPath
       clipPathUnits="userSpaceOnUse"
       id="clipPath15">
      <path
         d="M 0,0 H 1266.6666 V 758.80499 H 0 Z"
         transform="matrix(0.33473351,0,0,0.33473351,-17.812501,-227)"
         clip-rule="evenodd"
         id="path15" />
    </clipPath>
  </defs>
  <sodipodi:namedview
     id="namedview1"
     pagecolor="#ffffff"
     bordercolor="#000000"
     borderopacity="0.25"
     inkscape:showpageshadow="2"
     inkscape:pageopacity="0.0"
     inkscape:pagecheckerboard="0"
     inkscape:deskcolor="#d1d1d1">
    <inkscape:page
       x="0"
       y="0"
       inkscape:label="1"
       id="page1"
       width="405.44"
       height="244.16"
       margin="0"
       bleed="0" />
  </sodipodi:namedview>
  <g
     id="g1"
     inkscape:groupmode="layer"
     inkscape:label="1">
    <path
       id="path1"
       d="M 0,0 H 424 V 255 H 0 Z"
       style="fill:#ffffff;fill-opacity:1;fill-rule:nonzero;stroke:none"
       transform="scale(0.95597478)"
       clip-path="url(#clipPath2)" />
    <path
       id="path3"
       d="m 211,101 v 43.63"
       style="fill:none;stroke:#000000;stroke-width:1;stroke-linecap:butt;stroke-linejoin:miter;stroke-miterlimit:10;stroke-dasharray:none;stroke-opacity:1"
       transform="matrix(0.95597478,0,0,0.95597478,0.47798738,0.47798738)"
       clip-path="url(#clipPath4)" />
    <path
       id="path5"
       d="m 211,149.88 -3.5,-7 3.5,1.75 3.5,-1.75 z"
       style="fill:#000000;fill-opacity:1;fill-rule:nonzero;stroke:#000000;stroke-width:1;stroke-linecap:butt;stroke-linejoin:miter;stroke-miterlimit:10;stroke-dasharray:none;stroke-opacity:1"
       transform="matrix(0.95597478,0,0,0.95597478,0.47798738,0.47798738)"
       clip-path="url(#clipPath6)" />
    <path
       id="path7"
       d="M 1,1 H 421 V 101 H 1 Z"
       style="fill:#e1d5e7;fill-opacity:1;fill-rule:nonzero;stroke:#9673a6;stroke-width:1;stroke-linecap:butt;stroke-linejoin:miter;stroke-miterlimit:10;stroke-dasharray:none;stroke-opacity:1"
       transform="matrix(0.95597478,0,0,0.95597478,0.47798738,0.47798738)"
       clip-path="url(#clipPath8)" />
    <text
       id="text8"
       xml:space="preserve"
       transform="matrix(0.95598431,0,0,0.95598431,31.726729,42.06331)"
       clip-path="url(#clipPath9)"><tspan
         style="font-variant:normal;font-weight:normal;font-size:27px;font-family:Helvetica;writing-mode:lr-tb;fill:#000000;fill-opacity:1;fill-rule:nonzero;stroke:none"
         x="0 25.483887 40.5 55.516113 70.532227 78.033691 97.532227 112.54834 120.0498 139.54834 148.53955 154.53809 162.03955 177.05566 184.55713 198.05713 213.07324 226.57324 241.58936 255.08936 268.58936 277.58057 283.5791 298.59521 306.09668 313.59814 321.09961 340.59814"
         y="0"
         sodipodi:role="line"
         id="tspan8">When we write Javascript, we</tspan></text>
    <text
       id="text9"
       xml:space="preserve"
       transform="matrix(0.95598431,0,0,0.95598431,29.052961,73.610792)"
       clip-path="url(#clipPath10)"><tspan
         style="font-variant:normal;font-weight:normal;font-size:27px;font-family:Helvetica;writing-mode:lr-tb;fill:#000000;fill-opacity:1;fill-rule:nonzero;stroke:none"
         x="0 15.016113 30.032227 43.532227 58.54834 66.049805 73.55127 88.567383 96.068848 118.56006 133.57617 156.06738 171.0835 180.07471 186.07324 199.57324 214.58936 222.09082 237.10693"
         y="0"
         sodipodi:role="line"
         id="tspan9">have to memorize a </tspan></text>
    <text
       id="text10"
       xml:space="preserve"
       transform="matrix(0.95598431,0,0,0.95598431,262.89569,73.610792)"
       clip-path="url(#clipPath11)"><tspan
         style="font-style:oblique;font-variant:normal;font-weight:normal;font-size:27px;font-family:Helvetica;writing-mode:lr-tb;fill:#000000;fill-opacity:1;fill-rule:nonzero;stroke:none"
         x="0 5.9985352 21.014648 28.516113 36.017578 51.033691 58.535156 66.036621 79.536621 87.038086 102.0542 109.08105"
         y="0"
         sodipodi:role="line"
         id="tspan10">lot of stuff</tspan></text>
    <path
       id="path12"
       d="M 1,151 H 421 V 251 H 1 Z"
       style="fill:#e1d5e7;fill-opacity:1;fill-rule:nonzero;stroke:#9673a6;stroke-width:1;stroke-linecap:butt;stroke-linejoin:miter;stroke-miterlimit:10;stroke-dasharray:none;stroke-opacity:1"
       transform="matrix(0.95597478,0,0,0.95597478,0.47798738,0.47798738)"
       clip-path="url(#clipPath13)" />
    <text
       id="text13"
       xml:space="preserve"
       transform="matrix(0.95598431,0,0,0.95598431,28.111914,185.46096)"
       clip-path="url(#clipPath14)"><tspan
         style="font-variant:normal;font-weight:normal;font-size:27px;font-family:Helvetica;writing-mode:lr-tb;fill:#000000;fill-opacity:1;fill-rule:nonzero;stroke:none"
         x="0 16.492676 31.508789 37.507324 51.007324 58.508789 72.008789 87.024902 102.04102 109.54248 115.54102 130.55713 145.57324 160.58936 168.09082 175.59229 190.6084 198.10986 213.12598 222.11719 231.1084 246.12451 255.11572 268.61572 276.11719 283.61865 298.63477 313.65088 321.15234 328.65381 348.15234"
         y="0"
         sodipodi:role="line"
         id="tspan13">This can lead to errors that we</tspan></text>
    <text
       id="text14"
       xml:space="preserve"
       transform="matrix(0.95598431,0,0,0.95598431,17.028471,217.00844)"
       clip-path="url(#clipPath15)"><tspan
         style="font-variant:normal;font-weight:normal;font-size:27px;font-family:Helvetica;writing-mode:lr-tb;fill:#000000;fill-opacity:1;fill-rule:nonzero;stroke:none"
         x="0 13.5 28.516113 43.532227 48.687012 56.188477 63.689941 77.189941 92.206055 99.70752 113.20752 128.22363 135.7251 150.74121 165.75732 173.25879 179.25732 185.25586 192.75732 212.25586 227.27197 234.77344 243.76465 258.78076 273.79688 281.29834 296.31445 311.33057 320.32178 327.82324 341.32324 356.33936 371.35547"
         y="0"
         sodipodi:role="line"
         id="tspan14">can't catch until we run our code</tspan></text>
  </g>
</svg>
