<?xml version="1.0" encoding="UTF-8" standalone="no"?>
<!-- Created with Inkscape (http://www.inkscape.org/) -->

<svg
   version="1.1"
   id="svg1"
   width="584"
   height="177.27998"
   viewBox="0 0 584 177.27998"
   sodipodi:docname="ts-8.pdf"
   xmlns:inkscape="http://www.inkscape.org/namespaces/inkscape"
   xmlns:sodipodi="http://sodipodi.sourceforge.net/DTD/sodipodi-0.dtd"
   xmlns="http://www.w3.org/2000/svg"
   xmlns:svg="http://www.w3.org/2000/svg">
  <defs
     id="defs1">
    <clipPath
       clipPathUnits="userSpaceOnUse"
       id="clipPath2">
      <path
         d="M 0,0 H 1824.9999 V 551.39569 H 0 Z"
         transform="scale(0.33369864)"
         clip-rule="evenodd"
         id="path2" />
    </clipPath>
    <clipPath
       clipPathUnits="userSpaceOnUse"
       id="clipPath4">
      <path
         d="M 0,0 H 1824.9999 V 551.39569 H 0 Z"
         transform="matrix(0.33369864,0,0,0.33369864,-0.49999999,-0.49999999)"
         clip-rule="evenodd"
         id="path4" />
    </clipPath>
    <clipPath
       clipPathUnits="userSpaceOnUse"
       id="clipPath5">
      <path
         d="M 0,0 H 1824.9999 V 551.39569 H 0 Z"
         transform="matrix(0.3336953,0,0,0.3336953,-53.4375,-97)"
         clip-rule="evenodd"
         id="path5" />
    </clipPath>
    <clipPath
       clipPathUnits="userSpaceOnUse"
       id="clipPath7">
      <path
         d="M 0,0 H 1824.9999 V 551.39569 H 0 Z"
         transform="matrix(0.33369864,0,0,0.33369864,-0.49999999,-0.49999999)"
         clip-rule="evenodd"
         id="path7" />
    </clipPath>
    <clipPath
       clipPathUnits="userSpaceOnUse"
       id="clipPath8">
      <path
         d="M 0,0 H 1824.9999 V 551.39569 H 0 Z"
         transform="matrix(0.3336953,0,0,0.3336953,-146.3125,-97)"
         clip-rule="evenodd"
         id="path8" />
    </clipPath>
    <clipPath
       clipPathUnits="userSpaceOnUse"
       id="clipPath10">
      <path
         d="M 0,0 H 1824.9999 V 551.39569 H 0 Z"
         transform="matrix(0.33369864,0,0,0.33369864,-0.49999999,-0.49999999)"
         clip-rule="evenodd"
         id="path10" />
    </clipPath>
    <clipPath
       clipPathUnits="userSpaceOnUse"
       id="clipPath11">
      <path
         d="M 0,0 H 1824.9999 V 551.39569 H 0 Z"
         transform="matrix(0.3336953,0,0,0.3336953,-255.21875,-97)"
         clip-rule="evenodd"
         id="path11" />
    </clipPath>
    <clipPath
       clipPathUnits="userSpaceOnUse"
       id="clipPath13">
      <path
         d="M 0,0 H 1824.9999 V 551.39569 H 0 Z"
         transform="matrix(0.33369864,0,0,0.33369864,-0.49999999,-0.49999999)"
         clip-rule="evenodd"
         id="path13" />
    </clipPath>
    <clipPath
       clipPathUnits="userSpaceOnUse"
       id="clipPath14">
      <path
         d="M 0,0 H 1824.9999 V 551.39569 H 0 Z"
         transform="matrix(0.3336953,0,0,0.3336953,-318.54688,-97)"
         clip-rule="evenodd"
         id="path14" />
    </clipPath>
    <clipPath
       clipPathUnits="userSpaceOnUse"
       id="clipPath16">
      <path
         d="M 0,0 H 1824.9999 V 551.39569 H 0 Z"
         transform="matrix(0,-0.33369864,0.33369864,0,12,115.99999)"
         clip-rule="evenodd"
         id="path16" />
    </clipPath>
    <clipPath
       clipPathUnits="userSpaceOnUse"
       id="clipPath17">
      <path
         d="M 0,0 H 1824.9999 V 551.39569 H 0 Z"
         transform="matrix(0.3336953,0,0,0.3336953,-21.734375,-22)"
         clip-rule="evenodd"
         id="path17" />
    </clipPath>
    <clipPath
       clipPathUnits="userSpaceOnUse"
       id="clipPath18">
      <path
         d="M 0,0 H 1824.9999 V 551.39569 H 0 Z"
         transform="matrix(0.3336953,0,0,0.3336953,-3.953125,-37)"
         clip-rule="evenodd"
         id="path18" />
    </clipPath>
    <clipPath
       clipPathUnits="userSpaceOnUse"
       id="clipPath20">
      <path
         d="M 0,0 H 1824.9999 V 551.39569 H 0 Z"
         transform="matrix(0,0.33369864,-0.33369864,0,296,-41)"
         clip-rule="evenodd"
         id="path20" />
    </clipPath>
    <clipPath
       clipPathUnits="userSpaceOnUse"
       id="clipPath21">
      <path
         d="M 0,0 H 1824.9999 V 551.39569 H 0 Z"
         transform="matrix(0.3336953,0,0,0.3336953,-128.75,-149)"
         clip-rule="evenodd"
         id="path21" />
    </clipPath>
    <clipPath
       clipPathUnits="userSpaceOnUse"
       id="clipPath23">
      <path
         d="M 0,0 H 1824.9999 V 551.39569 H 0 Z"
         transform="matrix(0,-0.33369864,0.33369864,0,204.5,311.5)"
         clip-rule="evenodd"
         id="path23" />
    </clipPath>
    <clipPath
       clipPathUnits="userSpaceOnUse"
       id="clipPath24">
      <path
         d="M 0,0 H 1824.9999 V 551.39569 H 0 Z"
         transform="matrix(0.3336953,0,0,0.3336953,-202.625,-12)"
         clip-rule="evenodd"
         id="path24" />
    </clipPath>
    <clipPath
       clipPathUnits="userSpaceOnUse"
       id="clipPath25">
      <path
         d="M 0,0 H 1824.9999 V 551.39569 H 0 Z"
         transform="matrix(0.3336953,0,0,0.3336953,-196.8125,-26)"
         clip-rule="evenodd"
         id="path25" />
    </clipPath>
    <clipPath
       clipPathUnits="userSpaceOnUse"
       id="clipPath26">
      <path
         d="M 0,0 H 1824.9999 V 551.39569 H 0 Z"
         transform="matrix(0.3336953,0,0,0.3336953,-209.68749,-41)"
         clip-rule="evenodd"
         id="path26" />
    </clipPath>
    <clipPath
       clipPathUnits="userSpaceOnUse"
       id="clipPath28">
      <path
         d="M 0,0 H 1824.9999 V 551.39569 H 0 Z"
         transform="matrix(0,0.33369864,-0.33369864,0,470.99999,-215.99999)"
         clip-rule="evenodd"
         id="path28" />
    </clipPath>
    <clipPath
       clipPathUnits="userSpaceOnUse"
       id="clipPath29">
      <path
         d="M 0,0 H 1824.9999 V 551.39569 H 0 Z"
         transform="matrix(0.3336953,0,0,0.3336953,-281.78125,-150)"
         clip-rule="evenodd"
         id="path29" />
    </clipPath>
    <clipPath
       clipPathUnits="userSpaceOnUse"
       id="clipPath30">
      <path
         d="M 0,0 H 1824.9999 V 551.39569 H 0 Z"
         transform="matrix(0.3336953,0,0,0.3336953,-286.625,-164)"
         clip-rule="evenodd"
         id="path30" />
    </clipPath>
    <clipPath
       clipPathUnits="userSpaceOnUse"
       id="clipPath31">
      <path
         d="M 0,0 H 1824.9999 V 551.39569 H 0 Z"
         transform="matrix(0.3336953,0,0,0.3336953,-328.32813,-179)"
         clip-rule="evenodd"
         id="path31" />
    </clipPath>
    <clipPath
       clipPathUnits="userSpaceOnUse"
       id="clipPath33">
      <path
         d="M 0,0 H 1824.9999 V 551.39569 H 0 Z"
         transform="matrix(0,-0.33369864,0.33369864,0,491.01001,595.01)"
         clip-rule="evenodd"
         id="path33" />
    </clipPath>
    <clipPath
       clipPathUnits="userSpaceOnUse"
       id="clipPath34">
      <path
         d="M 0,0 H 1824.9999 V 551.39569 H 0 Z"
         transform="matrix(0.3336953,0,0,0.3336953,-495.73437,-12)"
         clip-rule="evenodd"
         id="path34" />
    </clipPath>
    <clipPath
       clipPathUnits="userSpaceOnUse"
       id="clipPath35">
      <path
         d="M 0,0 H 1824.9999 V 551.39569 H 0 Z"
         transform="matrix(0.3336953,0,0,0.3336953,-481.67188,-26)"
         clip-rule="evenodd"
         id="path35" />
    </clipPath>
    <clipPath
       clipPathUnits="userSpaceOnUse"
       id="clipPath36">
      <path
         d="M 0,0 H 1824.9999 V 551.39569 H 0 Z"
         transform="matrix(0.3336953,0,0,0.3336953,-526.03125,-41)"
         clip-rule="evenodd"
         id="path36" />
    </clipPath>
    <clipPath
       clipPathUnits="userSpaceOnUse"
       id="clipPath38">
      <path
         d="M 0,0 H 1824.9999 V 551.39569 H 0 Z"
         transform="matrix(0.33369864,0,0,0.33369864,-0.49999999,-0.49999999)"
         clip-rule="evenodd"
         id="path38" />
    </clipPath>
    <clipPath
       clipPathUnits="userSpaceOnUse"
       id="clipPath39">
      <path
         d="M 0,0 H 1824.9999 V 551.39569 H 0 Z"
         transform="matrix(0.3336953,0,0,0.3336953,-437.15625,-97)"
         clip-rule="evenodd"
         id="path39" />
    </clipPath>
    <clipPath
       clipPathUnits="userSpaceOnUse"
       id="clipPath41">
      <path
         d="M 0,0 H 1824.9999 V 551.39569 H 0 Z"
         transform="matrix(0.33369864,0,0,0.33369864,-0.49999999,-0.49999999)"
         clip-rule="evenodd"
         id="path41" />
    </clipPath>
    <clipPath
       clipPathUnits="userSpaceOnUse"
       id="clipPath42">
      <path
         d="M 0,0 H 1824.9999 V 551.39569 H 0 Z"
         transform="matrix(0.3336953,0,0,0.3336953,-521.9375,-97)"
         clip-rule="evenodd"
         id="path42" />
    </clipPath>
  </defs>
  <sodipodi:namedview
     id="namedview1"
     pagecolor="#ffffff"
     bordercolor="#000000"
     borderopacity="0.25"
     inkscape:showpageshadow="2"
     inkscape:pageopacity="0.0"
     inkscape:pagecheckerboard="0"
     inkscape:deskcolor="#d1d1d1">
    <inkscape:page
       x="0"
       y="0"
       inkscape:label="1"
       id="page1"
       width="584"
       height="177.27998"
       margin="0"
       bleed="0" />
  </sodipodi:namedview>
  <g
     id="g1"
     inkscape:groupmode="layer"
     inkscape:label="1">
    <path
       id="path1"
       d="M 0,0 H 609 V 184 H 0 Z"
       style="fill:#ffffff;fill-opacity:1;fill-rule:nonzero;stroke:none"
       transform="scale(0.95894902)"
       clip-path="url(#clipPath2)" />
    <path
       id="path3"
       d="m 14,65 h 100 v 50 H 14 Z"
       style="fill:#dae8fc;fill-opacity:1;fill-rule:nonzero;stroke:#6c8ebf;stroke-width:1;stroke-linecap:butt;stroke-linejoin:miter;stroke-miterlimit:10;stroke-dasharray:none;stroke-opacity:1"
       transform="matrix(0.95894902,0,0,0.95894902,0.4794745,0.4794745)"
       clip-path="url(#clipPath4)" />
    <text
       id="text4"
       xml:space="preserve"
       transform="matrix(0.95895862,0,0,0.95895862,51.244351,93.018986)"
       clip-path="url(#clipPath5)"><tspan
         style="font-variant:normal;font-weight:normal;font-size:20px;font-family:Helvetica;writing-mode:lr-tb;fill:#000000;fill-opacity:1;fill-rule:nonzero;stroke:none"
         x="0 4.4433594 15.566406"
         y="0"
         sodipodi:role="line"
         id="tspan4">let</tspan></text>
    <path
       id="path6"
       d="m 113,65 h 110 v 50 H 113 Z"
       style="fill:#dae8fc;fill-opacity:1;fill-rule:nonzero;stroke:#6c8ebf;stroke-width:1;stroke-linecap:butt;stroke-linejoin:miter;stroke-miterlimit:10;stroke-dasharray:none;stroke-opacity:1"
       transform="matrix(0.95894902,0,0,0.95894902,0.4794745,0.4794745)"
       clip-path="url(#clipPath7)" />
    <text
       id="text7"
       xml:space="preserve"
       transform="matrix(0.95895862,0,0,0.95895862,140.30763,93.018986)"
       clip-path="url(#clipPath8)"><tspan
         style="font-variant:normal;font-weight:normal;font-size:20px;font-family:Helvetica;writing-mode:lr-tb;fill:#000000;fill-opacity:1;fill-rule:nonzero;stroke:none"
         x="0 10 21.123047 25.566406 36.689453"
         y="0"
         sodipodi:role="line"
         id="tspan7">color</tspan></text>
    <path
       id="path9"
       d="m 223,65 h 70 v 50 h -70 z"
       style="fill:#dae8fc;fill-opacity:1;fill-rule:nonzero;stroke:#6c8ebf;stroke-width:1;stroke-linecap:butt;stroke-linejoin:miter;stroke-miterlimit:10;stroke-dasharray:none;stroke-opacity:1"
       transform="matrix(0.95894902,0,0,0.95894902,0.4794745,0.4794745)"
       clip-path="url(#clipPath10)" />
    <text
       id="text10"
       xml:space="preserve"
       transform="matrix(0.95895862,0,0,0.95895862,244.74422,93.018986)"
       clip-path="url(#clipPath11)"><tspan
         style="font-variant:normal;font-weight:normal;font-size:20px;font-family:Helvetica;writing-mode:lr-tb;fill:#000000;fill-opacity:1;fill-rule:nonzero;stroke:none"
         x="0"
         y="0"
         id="tspan10">:</tspan></text>
    <path
       id="path12"
       d="m 293,65 h 100 v 50 H 293 Z"
       style="fill:#dae8fc;fill-opacity:1;fill-rule:nonzero;stroke:#6c8ebf;stroke-width:1;stroke-linecap:butt;stroke-linejoin:miter;stroke-miterlimit:10;stroke-dasharray:none;stroke-opacity:1"
       transform="matrix(0.95894902,0,0,0.95894902,0.4794745,0.4794745)"
       clip-path="url(#clipPath13)" />
    <text
       id="text13"
       xml:space="preserve"
       transform="matrix(0.95895862,0,0,0.95895862,305.47328,93.018986)"
       clip-path="url(#clipPath14)"><tspan
         style="font-variant:normal;font-weight:normal;font-size:20px;font-family:Helvetica;writing-mode:lr-tb;fill:#000000;fill-opacity:1;fill-rule:nonzero;stroke:none"
         x="0 10 15.556641 22.216797 26.660156 37.783203"
         y="0"
         sodipodi:role="line"
         id="tspan13">string</tspan></text>
    <path
       id="path15"
       d="m 74,1 h -5 c -3.333336,0 -5,3.333333 -5,10 v 30.5 c 0,6.666668 -1.666668,10 -5,10 h -2.5 c -1.666668,0 -0.833332,0 2.5,0 h 2.5 c 1.666668,0 2.5,3.333332 2.5,10 V 92 c 0,6.666664 1.666664,10 5,10 h 5"
       style="fill:none;stroke:#000000;stroke-width:1;stroke-linecap:butt;stroke-linejoin:miter;stroke-miterlimit:10;stroke-dasharray:none;stroke-opacity:1"
       transform="matrix(0,0.95894902,-0.95894902,0,111.23808,-11.507388)"
       clip-path="url(#clipPath16)" />
    <text
       id="text16"
       xml:space="preserve"
       transform="matrix(0.95895862,0,0,0.95895862,20.842366,21.09709)"
       clip-path="url(#clipPath17)"><tspan
         style="font-style:oblique;font-variant:normal;font-weight:normal;font-size:12px;font-family:Helvetica;writing-mode:lr-tb;fill:#000000;fill-opacity:1;fill-rule:nonzero;stroke:none"
         x="0 11.115234 17.789062 21.123047 27.796875 31.792969 38.466797 41.800781 48.474609 55.148438 57.814453 64.488281 71.162109 74.496094 77.830078"
         y="0"
         sodipodi:role="line"
         id="tspan16">We are going to</tspan></text>
    <text
       id="text17"
       xml:space="preserve"
       transform="matrix(0.95895862,0,0,0.95895862,3.7908833,35.481469)"
       clip-path="url(#clipPath18)"><tspan
         style="font-style:oblique;font-variant:normal;font-weight:normal;font-size:12px;font-family:Helvetica;writing-mode:lr-tb;fill:#000000;fill-opacity:1;fill-rule:nonzero;stroke:none"
         x="0 6.6738281 13.347656 19.347656 22.013672 28.6875 32.683594 39.357422 42.691406 49.365234 52.699219 59.373047 66.046875 74.712891 78.046875 84.046875 90.720703 94.716797 97.382812 104.05664 110.73047 113.39648"
         y="0"
         sodipodi:role="line"
         id="tspan17">declare a new variable</tspan></text>
    <path
       id="path19"
       d="m 178,71 h -5 c -3.33333,0 -5,3.333336 -5,10 v 36.5 c 0,6.66666 -1.66667,10 -5,10 h -2.5 c -1.66667,0 -0.83333,0 2.5,0 h 2.5 c 1.66667,0 2.5,3.33333 2.5,10 V 174 c 0,6.66667 1.66667,10 5,10 h 5"
       style="fill:none;stroke:#000000;stroke-width:1;stroke-linecap:butt;stroke-linejoin:miter;stroke-miterlimit:10;stroke-dasharray:none;stroke-opacity:1"
       transform="matrix(0,-0.95894902,0.95894902,0,39.31691,283.84891)"
       clip-path="url(#clipPath20)" />
    <text
       id="text20"
       xml:space="preserve"
       transform="matrix(0.95895862,0,0,0.95895862,123.46592,142.88483)"
       clip-path="url(#clipPath21)"><tspan
         style="font-style:oblique;font-variant:normal;font-weight:normal;font-size:12px;font-family:Helvetica;writing-mode:lr-tb;fill:#000000;fill-opacity:1;fill-rule:nonzero;stroke:none"
         x="0 7.1191406 13.792969 17.789062 20.455078 27.128906 33.802734 36.46875 43.142578 46.476562 53.150391 59.824219 69.820312"
         y="0"
         sodipodi:role="line"
         id="tspan20">Variable name</tspan></text>
    <path
       id="path22"
       d="m 268,18 h -5 c -3.33334,0 -5,3.333332 -5,10 v 15 c 0,6.666668 -1.66666,10 -5,10 h -2.5 c -1.66667,0 -0.83333,0 2.5,0 h 2.5 c 1.66666,0 2.5,3.333332 2.5,10 v 15 c 0,6.666664 1.66666,10 5,10 h 5"
       style="fill:none;stroke:#000000;stroke-width:1;stroke-linecap:butt;stroke-linejoin:miter;stroke-miterlimit:10;stroke-dasharray:none;stroke-opacity:1"
       transform="matrix(0,0.95894902,-0.95894902,0,298.71262,-196.10507)"
       clip-path="url(#clipPath23)" />
    <text
       id="text23"
       xml:space="preserve"
       transform="matrix(0.95895862,0,0,0.95895862,194.30899,11.507503)"
       clip-path="url(#clipPath24)"><tspan
         style="font-style:oblique;font-variant:normal;font-weight:normal;font-size:12px;font-family:Helvetica;writing-mode:lr-tb;fill:#000000;fill-opacity:1;fill-rule:nonzero;stroke:none"
         x="0 3.3339844 10.007812 16.681641 19.347656 25.347656 32.021484 35.355469 42.029297 48.029297 51.363281 54.697266 61.371094 68.044922 71.378906 74.712891 83.378906 90.052734 93.386719 100.06055 104.05664"
         y="0"
         sodipodi:role="line"
         id="tspan23">Indicates that we are</tspan></text>
    <text
       id="text24"
       xml:space="preserve"
       transform="matrix(0.95895862,0,0,0.95895862,188.73504,24.932924)"
       clip-path="url(#clipPath25)"><tspan
         style="font-style:oblique;font-variant:normal;font-weight:normal;font-size:12px;font-family:Helvetica;writing-mode:lr-tb;fill:#000000;fill-opacity:1;fill-rule:nonzero;stroke:none"
         x="0 6.6738281 13.347656 20.021484 26.695312 30.029297 33.363281 36.697266 43.371094 46.705078 52.705078 59.378906 66.052734 72.052734 74.71875 78.052734 84.052734 87.386719 94.060547 97.394531 99.685547 103.01953 109.01953 115.69336"
         y="0"
         sodipodi:role="line"
         id="tspan24">about to specify a 'type</tspan></text>
    <text
       id="text25"
       xml:space="preserve"
       transform="matrix(0.95895862,0,0,0.95895862,201.08163,39.317303)"
       clip-path="url(#clipPath26)"><tspan
         style="font-style:oblique;font-variant:normal;font-weight:normal;font-size:12px;font-family:Helvetica;writing-mode:lr-tb;fill:#000000;fill-opacity:1;fill-rule:nonzero;stroke:none"
         x="0 3.3339844 6.6679688 13.341797 17.337891 20.671875 26.671875 33.345703 37.341797 40.007812 46.681641 53.355469 56.021484 62.695312 66.029297 68.320312 74.320312 80.994141 83.660156 90.333984 94.330078"
         y="0"
         sodipodi:role="line"
         id="tspan25"> for variable 'color'</tspan></text>
    <path
       id="path27"
       d="m 353,77 h -5 c -3.33334,0 -5,3.333336 -5,10 v 30.5 c 0,6.66666 -1.66666,10 -5,10 h -2.5 c -1.66666,0 -0.83334,0 2.5,0 h 2.5 c 1.66666,0 2.5,3.33333 2.5,10 V 168 c 0,6.66667 1.66666,10 5,10 h 5"
       style="fill:none;stroke:#000000;stroke-width:1;stroke-linecap:butt;stroke-linejoin:miter;stroke-miterlimit:10;stroke-dasharray:none;stroke-opacity:1"
       transform="matrix(0,-0.95894902,0.95894902,0,207.13298,451.66498)"
       clip-path="url(#clipPath28)" />
    <text
       id="text28"
       xml:space="preserve"
       transform="matrix(0.95895862,0,0,0.95895862,270.21656,143.84379)"
       clip-path="url(#clipPath29)"><tspan
         style="font-style:oblique;font-variant:normal;font-weight:normal;font-size:12px;font-family:Helvetica;writing-mode:lr-tb;fill:#000000;fill-opacity:1;fill-rule:nonzero;stroke:none"
         x="0 6 12.673828 15.339844 18.005859 24.005859 27.128906 34.458984 42.462891 45.796875 49.130859 55.804688 62.478516 65.8125 69.146484 71.4375 77.4375 84.111328 86.777344 93.451172 97.447266 99.738281 103.07227 109.07227 115.74609"
         y="0"
         sodipodi:role="line"
         id="tspan28">Tells TS that 'color' can</tspan></text>
    <text
       id="text29"
       xml:space="preserve"
       transform="matrix(0.95895862,0,0,0.95895862,274.86151,157.26921)"
       clip-path="url(#clipPath30)"><tspan
         style="font-style:oblique;font-variant:normal;font-weight:normal;font-size:12px;font-family:Helvetica;writing-mode:lr-tb;fill:#000000;fill-opacity:1;fill-rule:nonzero;stroke:none"
         x="0 6.6738281 13.347656 16.013672 22.013672 25.347656 32.021484 38.021484 44.695312 48.691406 52.025391 56.021484 62.695312 66.029297 72.703125 76.699219 83.373047 90.046875 96.046875 102.7207 106.05469"
         y="0"
         sodipodi:role="line"
         id="tspan29">only ever reference a</tspan></text>
    <text
       id="text30"
       xml:space="preserve"
       transform="matrix(0.95895862,0,0,0.95895862,314.85309,171.65359)"
       clip-path="url(#clipPath31)"><tspan
         style="font-style:oblique;font-variant:normal;font-weight:normal;font-size:12px;font-family:Helvetica;writing-mode:lr-tb;fill:#000000;fill-opacity:1;fill-rule:nonzero;stroke:none"
         x="0 6 9.3339844 13.330078 15.996094 22.669922"
         y="0"
         sodipodi:role="line"
         id="tspan30">string</tspan></text>
    <path
       id="path32"
       d="m 553.01001,1 h -5 c -3.33331,0 -5,3.333333 -5,10 v 30.5 c 0,6.666668 -1.66669,10 -5,10 h -2.5 c -1.66669,0 -0.83331,0 2.5,0 h 2.5 c 1.66669,0 2.5,3.333332 2.5,10 V 92 c 0,6.666664 1.66669,10 5,10 h 5"
       style="fill:none;stroke:#000000;stroke-width:1;stroke-linecap:butt;stroke-linejoin:miter;stroke-miterlimit:10;stroke-dasharray:none;stroke-opacity:1"
       transform="matrix(0,0.95894902,-0.95894902,0,570.58426,-470.85357)"
       clip-path="url(#clipPath33)" />
    <text
       id="text33"
       xml:space="preserve"
       transform="matrix(0.95895862,0,0,0.95895862,475.38875,11.507503)"
       clip-path="url(#clipPath34)"><tspan
         style="font-style:oblique;font-variant:normal;font-weight:normal;font-size:12px;font-family:Helvetica;writing-mode:lr-tb;fill:#000000;fill-opacity:1;fill-rule:nonzero;stroke:none"
         x="0 7.1191406 13.792969 16.458984 23.132812 29.806641 33.140625 36.474609 43.148438 46.482422 53.15625 59.15625 65.15625 67.822266 74.496094 81.169922 84.503906 87.837891"
         y="0"
         sodipodi:role="line"
         id="tspan33">Value to assign to</tspan></text>
    <text
       id="text34"
       xml:space="preserve"
       transform="matrix(0.95895862,0,0,0.95895862,461.9034,24.932924)"
       clip-path="url(#clipPath35)"><tspan
         style="font-style:oblique;font-variant:normal;font-weight:normal;font-size:12px;font-family:Helvetica;writing-mode:lr-tb;fill:#000000;fill-opacity:1;fill-rule:nonzero;stroke:none"
         x="0 2.2910156 8.2910156 14.964844 17.630859 24.304688 28.300781 30.591797 33.925781 37.259766 40.59375 50.589844 57.263672 63.263672 66.597656 69.931641 76.605469 83.279297 86.613281 93.287109 96.621094 99.955078 103.28906 109.28906 115.96289"
         y="0"
         sodipodi:role="line"
         id="tspan34">'color'.  Must be of type</tspan></text>
    <text
       id="text35"
       xml:space="preserve"
       transform="matrix(0.95895862,0,0,0.95895862,504.4422,39.317303)"
       clip-path="url(#clipPath36)"><tspan
         style="font-style:oblique;font-variant:normal;font-weight:normal;font-size:12px;font-family:Helvetica;writing-mode:lr-tb;fill:#000000;fill-opacity:1;fill-rule:nonzero;stroke:none"
         x="0 2.2910156 8.2910156 11.625 15.621094 18.287109 24.960938 31.634766"
         y="0"
         sodipodi:role="line"
         id="tspan35">'string'</tspan></text>
    <path
       id="path37"
       d="m 393,65 h 100 v 50 H 393 Z"
       style="fill:#dae8fc;fill-opacity:1;fill-rule:nonzero;stroke:#6c8ebf;stroke-width:1;stroke-linecap:butt;stroke-linejoin:miter;stroke-miterlimit:10;stroke-dasharray:none;stroke-opacity:1"
       transform="matrix(0.95894902,0,0,0.95894902,0.4794745,0.4794745)"
       clip-path="url(#clipPath38)" />
    <text
       id="text38"
       xml:space="preserve"
       transform="matrix(0.95895862,0,0,0.95895862,419.21475,93.018986)"
       clip-path="url(#clipPath39)"><tspan
         style="font-variant:normal;font-weight:normal;font-size:20px;font-family:Helvetica;writing-mode:lr-tb;fill:#000000;fill-opacity:1;fill-rule:nonzero;stroke:none"
         x="0"
         y="0"
         id="tspan38">=</tspan></text>
    <path
       id="path40"
       d="m 493,65 h 100 v 50 H 493 Z"
       style="fill:#dae8fc;fill-opacity:1;fill-rule:nonzero;stroke:#6c8ebf;stroke-width:1;stroke-linecap:butt;stroke-linejoin:miter;stroke-miterlimit:10;stroke-dasharray:none;stroke-opacity:1"
       transform="matrix(0.95894902,0,0,0.95894902,0.4794745,0.4794745)"
       clip-path="url(#clipPath41)" />
    <text
       id="text41"
       xml:space="preserve"
       transform="matrix(0.95895862,0,0,0.95895862,500.51646,93.018986)"
       clip-path="url(#clipPath42)"><tspan
         style="font-variant:normal;font-weight:normal;font-size:20px;font-family:Helvetica;writing-mode:lr-tb;fill:#000000;fill-opacity:1;fill-rule:nonzero;stroke:none"
         x="0 3.8183594 10.478516 21.601562 32.724609 36.542969"
         y="0"
         sodipodi:role="line"
         id="tspan41">'red';</tspan></text>
  </g>
</svg>
