<?xml version="1.0" encoding="UTF-8" standalone="no"?>
<!-- Created with Inkscape (http://www.inkscape.org/) -->

<svg
   version="1.1"
   id="svg1"
   width="750.71997"
   height="370.55997"
   viewBox="0 0 750.71997 370.55997"
   sodipodi:docname="ts-9.pdf"
   xmlns:inkscape="http://www.inkscape.org/namespaces/inkscape"
   xmlns:sodipodi="http://sodipodi.sourceforge.net/DTD/sodipodi-0.dtd"
   xmlns="http://www.w3.org/2000/svg"
   xmlns:svg="http://www.w3.org/2000/svg">
  <defs
     id="defs1">
    <clipPath
       clipPathUnits="userSpaceOnUse"
       id="clipPath2">
      <path
         d="M 0,0 H 2345.833 V 1157.9559 H 0 Z"
         transform="scale(0.33420962)"
         clip-rule="evenodd"
         id="path2" />
    </clipPath>
    <clipPath
       clipPathUnits="userSpaceOnUse"
       id="clipPath4">
      <path
         d="M 0,0 H 2345.833 V 1151.9717 H 0 Z"
         transform="matrix(0.33420962,0,0,0.33420962,-0.50000001,-0.50000001)"
         clip-rule="evenodd"
         id="path4" />
    </clipPath>
    <clipPath
       clipPathUnits="userSpaceOnUse"
       id="clipPath5">
      <path
         d="M 0,0 H 2345.833 V 1151.9717 H 0 Z"
         transform="matrix(0.33420627,0,0,0.33420627,-214.31251,-59)"
         clip-rule="evenodd"
         id="path5" />
    </clipPath>
    <clipPath
       clipPathUnits="userSpaceOnUse"
       id="clipPath6">
      <path
         d="M 0,0 H 2345.833 V 1151.9717 H 0 Z"
         transform="matrix(0.33420627,0,0,0.33420627,-219.35939,-84.000001)"
         clip-rule="evenodd"
         id="path6" />
    </clipPath>
    <clipPath
       clipPathUnits="userSpaceOnUse"
       id="clipPath7">
      <path
         d="M 0,0 H 2345.833 V 1151.9717 H 0 Z"
         transform="matrix(0.33420627,0,0,0.33420627,-303.98439,-109)"
         clip-rule="evenodd"
         id="path7" />
    </clipPath>
    <clipPath
       clipPathUnits="userSpaceOnUse"
       id="clipPath8">
      <path
         d="M 0,0 H 2345.833 V 1151.9717 H 0 Z"
         transform="matrix(0.33420627,0,0,0.33420627,-315.64063,-19)"
         clip-rule="evenodd"
         id="path8" />
    </clipPath>
    <clipPath
       clipPathUnits="userSpaceOnUse"
       id="clipPath10">
      <path
         d="M 0,0 H 2345.833 V 1151.9717 H 0 Z"
         transform="matrix(0.33420962,0,0,0.33420962,-0.50000001,-0.50000001)"
         clip-rule="evenodd"
         id="path10" />
    </clipPath>
    <clipPath
       clipPathUnits="userSpaceOnUse"
       id="clipPath11">
      <path
         d="M 0,0 H 2345.833 V 1151.9717 H 0 Z"
         transform="matrix(0.33420627,0,0,0.33420627,-55.625,-228)"
         clip-rule="evenodd"
         id="path11" />
    </clipPath>
    <clipPath
       clipPathUnits="userSpaceOnUse"
       id="clipPath13">
      <path
         d="M 0,0 H 2345.833 V 1151.9717 H 0 Z"
         transform="matrix(0.33420962,0,0,0.33420962,-0.50000001,-0.50000001)"
         clip-rule="evenodd"
         id="path13" />
    </clipPath>
    <clipPath
       clipPathUnits="userSpaceOnUse"
       id="clipPath14">
      <path
         d="M 0,0 H 2345.833 V 1151.9717 H 0 Z"
         transform="matrix(0.33420627,0,0,0.33420627,-78,-348)"
         clip-rule="evenodd"
         id="path14" />
    </clipPath>
    <clipPath
       clipPathUnits="userSpaceOnUse"
       id="clipPath16">
      <path
         d="M 0,0 H 2345.833 V 1151.9717 H 0 Z"
         transform="matrix(0.33420962,0,0,0.33420962,-0.50000001,-0.50000001)"
         clip-rule="evenodd"
         id="path16" />
    </clipPath>
    <clipPath
       clipPathUnits="userSpaceOnUse"
       id="clipPath17">
      <path
         d="M 0,0 H 2345.833 V 1151.9717 H 0 Z"
         transform="matrix(0.33420627,0,0,0.33420627,-469.67188,-228)"
         clip-rule="evenodd"
         id="path17" />
    </clipPath>
  </defs>
  <sodipodi:namedview
     id="namedview1"
     pagecolor="#ffffff"
     bordercolor="#000000"
     borderopacity="0.25"
     inkscape:showpageshadow="2"
     inkscape:pageopacity="0.0"
     inkscape:pagecheckerboard="0"
     inkscape:deskcolor="#d1d1d1">
    <inkscape:page
       x="0"
       y="0"
       inkscape:label="1"
       id="page1"
       width="750.71997"
       height="370.55997"
       margin="0"
       bleed="0" />
  </sodipodi:namedview>
  <g
     id="g1"
     inkscape:groupmode="layer"
     inkscape:label="1">
    <path
       id="path1"
       d="M 0,0 H 784 V 387 H 0 Z"
       style="fill:#ffffff;fill-opacity:1;fill-rule:nonzero;stroke:none"
       transform="scale(0.95748287)"
       clip-path="url(#clipPath2)" />
    <path
       id="path3"
       d="m 201,32 h 360 v 90 H 201 Z"
       style="fill:#dae8fc;fill-opacity:1;fill-rule:nonzero;stroke:#6c8ebf;stroke-width:1;stroke-linecap:butt;stroke-linejoin:miter;stroke-miterlimit:10;stroke-dasharray:none;stroke-opacity:1"
       transform="matrix(0.95748287,0,0,0.95748287,0.47874144,0.47874144)"
       clip-path="url(#clipPath4)" />
    <text
       id="text4"
       xml:space="preserve"
       transform="matrix(0.95749247,0,0,0.95749247,205.20261,56.492056)"
       clip-path="url(#clipPath5)"><tspan
         style="font-variant:normal;font-weight:700;font-size:21px;font-family:Helvetica;writing-mode:lr-tb;fill:#000000;fill-opacity:1;fill-rule:nonzero;stroke:none"
         x="0 11.279297 22.958496 35.786133 47.465332 59.144531 70.82373 78.996094 84.830566 97.658203 104.65137 110.48584 122.16504 133.84424 146.67188 152.50635 159.49951 167.67188 179.35107 185.18555 192.17871 205.00635 210.84082 223.66846 236.49609 248.17529 259.85449 271.53369 277.36816 289.04736 296.04053 301.875 308.86816 321.6958"
         y="0"
         sodipodi:role="line"
         id="tspan4">Typescript can try to guess at the</tspan></text>
    <text
       id="text5"
       xml:space="preserve"
       transform="matrix(0.95749247,0,0,0.95749247,210.03496,80.429368)"
       clip-path="url(#clipPath6)"><tspan
         style="font-variant:normal;font-weight:700;font-size:21px;font-family:Helvetica;writing-mode:lr-tb;fill:#000000;fill-opacity:1;fill-rule:nonzero;stroke:none"
         x="0 6.9931641 18.672363 31.5 43.179199 49.013672 61.841309 68.834473 74.668945 86.348145 92.182617 103.86182 115.54102 123.71338 129.54785 141.22705 154.05469 159.88916 171.56836 177.40283 190.23047 201.90967 213.58887 225.26807 238.0957 243.93018 256.75781 269.58545 275.41992 291.75439 304.58203 316.26123"
         y="0"
         sodipodi:role="line"
         id="tspan5">type of a variable based on what</tspan></text>
    <text
       id="text6"
       xml:space="preserve"
       transform="matrix(0.95749247,0,0,0.95749247,291.06276,104.36668)"
       clip-path="url(#clipPath7)"><tspan
         style="font-variant:normal;font-weight:700;font-size:21px;font-family:Helvetica;writing-mode:lr-tb;fill:#000000;fill-opacity:1;fill-rule:nonzero;stroke:none"
         x="0 11.679199 24.506836 37.334473 43.168945 54.848145 66.527344 78.206543 84.041016 96.868652 109.69629 115.53076 122.52393 135.35156 141.18604 147.02051"
         y="0"
         sodipodi:role="line"
         id="tspan6">you assign to it</tspan></text>
    <text
       id="text7"
       xml:space="preserve"
       transform="matrix(0.95749247,0,0,0.95749247,302.22353,18.192357)"
       clip-path="url(#clipPath8)"><tspan
         style="font-style:oblique;font-variant:normal;font-weight:normal;font-size:19px;font-family:Helvetica;writing-mode:lr-tb;fill:#000000;fill-opacity:1;fill-rule:nonzero;stroke:none"
         x="0 10.566895 20.066895 30.633789 41.200684 46.479492 51.758301 62.325195 67.604004 78.170898 84.498047 95.064941 105.63184 115.13184"
         y="0"
         sodipodi:role="line"
         id="tspan7">Type Inference</tspan></text>
    <path
       id="path9"
       d="m 1,172 h 360 v 90 H 1 Z"
       style="fill:#d5e8d4;fill-opacity:1;fill-rule:nonzero;stroke:#82b366;stroke-width:1;stroke-linecap:butt;stroke-linejoin:miter;stroke-miterlimit:10;stroke-dasharray:none;stroke-opacity:1"
       transform="matrix(0.95748287,0,0,0.95748287,0.47874144,0.47874144)"
       clip-path="url(#clipPath10)" />
    <text
       id="text10"
       xml:space="preserve"
       transform="matrix(0.95749247,0,0,0.95749247,53.260519,218.30828)"
       clip-path="url(#clipPath11)"><tspan
         style="font-variant:normal;font-weight:normal;font-size:30px;font-family:Helvetica;writing-mode:lr-tb;fill:#000000;fill-opacity:1;fill-rule:nonzero;stroke:none"
         x="0 15 31.68457 48.369141 63.369141 71.704102 80.039062 95.039062 111.72363 118.38867 135.07324 145.06348 153.39844 170.91797 179.25293 184.98047 194.9707 211.65527 228.33984 234.06738 242.40234"
         y="0"
         sodipodi:role="line"
         id="tspan10">const color = 'red'; </tspan></text>
    <path
       id="path12"
       d="m 1,292 h 360 v 90 H 1 Z"
       style="fill:#d5e8d4;fill-opacity:1;fill-rule:nonzero;stroke:#82b366;stroke-width:1;stroke-linecap:butt;stroke-linejoin:miter;stroke-miterlimit:10;stroke-dasharray:none;stroke-opacity:1"
       transform="matrix(0.95748287,0,0,0.95748287,0.47874144,0.47874144)"
       clip-path="url(#clipPath13)" />
    <text
       id="text13"
       xml:space="preserve"
       transform="matrix(0.95749247,0,0,0.95749247,74.684413,333.20738)"
       clip-path="url(#clipPath14)"><tspan
         style="font-variant:normal;font-weight:normal;font-size:30px;font-family:Helvetica;writing-mode:lr-tb;fill:#000000;fill-opacity:1;fill-rule:nonzero;stroke:none"
         x="0 15 31.68457 48.369141 63.369141 71.704102 80.039062 96.723633 113.4082 130.09277 138.42773 155.94727 164.28223 180.9668 197.65137"
         y="0"
         sodipodi:role="line"
         id="tspan13">const age = 20;</tspan></text>
    <path
       id="path15"
       d="m 421,172 h 360 v 90 H 421 Z"
       style="fill:#d5e8d4;fill-opacity:1;fill-rule:nonzero;stroke:#82b366;stroke-width:1;stroke-linecap:butt;stroke-linejoin:miter;stroke-miterlimit:10;stroke-dasharray:none;stroke-opacity:1"
       transform="matrix(0.95748287,0,0,0.95748287,0.47874144,0.47874144)"
       clip-path="url(#clipPath16)" />
    <text
       id="text16"
       xml:space="preserve"
       transform="matrix(0.95749247,0,0,0.95749247,449.70729,218.30828)"
       clip-path="url(#clipPath17)"><tspan
         style="font-variant:normal;font-weight:normal;font-size:30px;font-family:Helvetica;writing-mode:lr-tb;fill:#000000;fill-opacity:1;fill-rule:nonzero;stroke:none"
         x="0 15 31.68457 48.369141 63.369141 71.704102 80.039062 86.704102 101.7041 123.36914 140.05371 156.73828 165.07324 182.59277 190.92773 199.2627 215.94727 222.6123 237.6123 254.29688"
         y="0"
         sodipodi:role="line"
         id="tspan16">const isRed = false;</tspan></text>
  </g>
</svg>
