<?xml version="1.0" encoding="UTF-8" standalone="no"?>
<!-- Created with Inkscape (http://www.inkscape.org/) -->

<svg
   version="1.1"
   id="svg1"
   width="537.27997"
   height="129.28"
   viewBox="0 0 537.27997 129.28"
   sodipodi:docname="ts-11.pdf"
   xmlns:inkscape="http://www.inkscape.org/namespaces/inkscape"
   xmlns:sodipodi="http://sodipodi.sourceforge.net/DTD/sodipodi-0.dtd"
   xmlns="http://www.w3.org/2000/svg"
   xmlns:svg="http://www.w3.org/2000/svg">
  <defs
     id="defs1">
    <clipPath
       clipPathUnits="userSpaceOnUse"
       id="clipPath2">
      <path
         d="M 0,0 H 1679.1666 V 404.07755 H 0 Z"
         transform="scale(0.3340943)"
         clip-rule="evenodd"
         id="path2" />
    </clipPath>
    <clipPath
       clipPathUnits="userSpaceOnUse"
       id="clipPath4">
      <path
         d="M 0,0 H 1679.1666 V 401.08438 H 0 Z"
         transform="matrix(0.3340943,0,0,0.3340943,-0.50000001,-0.50000001)"
         clip-rule="evenodd"
         id="path4" />
    </clipPath>
    <clipPath
       clipPathUnits="userSpaceOnUse"
       id="clipPath6">
      <path
         d="M 0,0 H 1679.1666 V 401.08438 H 0 Z"
         transform="matrix(0.3340943,0,0,0.3340943,-0.50000001,-0.50000001)"
         clip-rule="evenodd"
         id="path6" />
    </clipPath>
    <clipPath
       clipPathUnits="userSpaceOnUse"
       id="clipPath8">
      <path
         d="M 0,0 H 1679.1666 V 401.08438 H 0 Z"
         transform="matrix(0.3340943,0,0,0.3340943,-0.50000001,-0.50000001)"
         clip-rule="evenodd"
         id="path8" />
    </clipPath>
    <clipPath
       clipPathUnits="userSpaceOnUse"
       id="clipPath9">
      <path
         d="M 0,0 H 1679.1666 V 401.08438 H 0 Z"
         transform="matrix(0.33409094,0,0,0.33409094,-317.98438,-73)"
         clip-rule="evenodd"
         id="path9" />
    </clipPath>
    <clipPath
       clipPathUnits="userSpaceOnUse"
       id="clipPath11">
      <path
         d="M 0,0 H 1679.1666 V 401.08438 H 0 Z"
         transform="matrix(0.3340943,0,0,0.3340943,-0.50000001,-0.50000001)"
         clip-rule="evenodd"
         id="path11" />
    </clipPath>
    <clipPath
       clipPathUnits="userSpaceOnUse"
       id="clipPath13">
      <path
         d="M 0,0 H 1679.1666 V 401.08438 H 0 Z"
         transform="matrix(0.3340943,0,0,0.3340943,-0.50000001,-0.50000001)"
         clip-rule="evenodd"
         id="path13" />
    </clipPath>
    <clipPath
       clipPathUnits="userSpaceOnUse"
       id="clipPath15">
      <path
         d="M 0,0 H 1679.1666 V 401.08438 H 0 Z"
         transform="matrix(0.3340943,0,0,0.3340943,-0.50000001,-0.50000001)"
         clip-rule="evenodd"
         id="path15" />
    </clipPath>
    <clipPath
       clipPathUnits="userSpaceOnUse"
       id="clipPath16">
      <path
         d="M 0,0 H 1679.1666 V 401.08438 H 0 Z"
         transform="matrix(0.33409094,0,0,0.33409094,-138.46875,-41)"
         clip-rule="evenodd"
         id="path16" />
    </clipPath>
    <clipPath
       clipPathUnits="userSpaceOnUse"
       id="clipPath18">
      <path
         d="M 0,0 H 1679.1666 V 401.08438 H 0 Z"
         transform="matrix(0.3340943,0,0,0.3340943,-0.50000001,-0.50000001)"
         clip-rule="evenodd"
         id="path18" />
    </clipPath>
    <clipPath
       clipPathUnits="userSpaceOnUse"
       id="clipPath19">
      <path
         d="M 0,0 H 1679.1666 V 401.08438 H 0 Z"
         transform="matrix(0.33409094,0,0,0.33409094,-138.46875,-104)"
         clip-rule="evenodd"
         id="path19" />
    </clipPath>
    <clipPath
       clipPathUnits="userSpaceOnUse"
       id="clipPath21">
      <path
         d="M 0,0 H 1679.1666 V 401.08438 H 0 Z"
         transform="matrix(0.3340943,0,0,0.3340943,-0.50000001,-0.50000001)"
         clip-rule="evenodd"
         id="path21" />
    </clipPath>
    <clipPath
       clipPathUnits="userSpaceOnUse"
       id="clipPath22">
      <path
         d="M 0,0 H 1679.1666 V 401.08438 H 0 Z"
         transform="matrix(0.33409094,0,0,0.33409094,0.046875,-73)"
         clip-rule="evenodd"
         id="path22" />
    </clipPath>
    <clipPath
       clipPathUnits="userSpaceOnUse"
       id="clipPath24">
      <path
         d="M 0,0 H 1679.1666 V 401.08438 H 0 Z"
         transform="matrix(0.3340943,0,0,0.3340943,-0.50000001,-0.50000001)"
         clip-rule="evenodd"
         id="path24" />
    </clipPath>
    <clipPath
       clipPathUnits="userSpaceOnUse"
       id="clipPath26">
      <path
         d="M 0,0 H 1679.1666 V 401.08438 H 0 Z"
         transform="matrix(0.3340943,0,0,0.3340943,-0.50000001,-0.50000001)"
         clip-rule="evenodd"
         id="path26" />
    </clipPath>
    <clipPath
       clipPathUnits="userSpaceOnUse"
       id="clipPath28">
      <path
         d="M 0,0 H 1679.1666 V 401.08438 H 0 Z"
         transform="matrix(0.3340943,0,0,0.3340943,-0.50000001,-0.50000001)"
         clip-rule="evenodd"
         id="path28" />
    </clipPath>
    <clipPath
       clipPathUnits="userSpaceOnUse"
       id="clipPath29">
      <path
         d="M 0,0 H 1679.1666 V 401.08438 H 0 Z"
         transform="matrix(0.33409094,0,0,0.33409094,-468.48438,-73)"
         clip-rule="evenodd"
         id="path29" />
    </clipPath>
    <clipPath
       clipPathUnits="userSpaceOnUse"
       id="clipPath30">
      <path
         d="M 0,0 H 1679.1666 V 401.08438 H 0 Z"
         transform="matrix(0.33409094,0,0,0.33409094,-477.98438,-101)"
         clip-rule="evenodd"
         id="path30" />
    </clipPath>
  </defs>
  <sodipodi:namedview
     id="namedview1"
     pagecolor="#ffffff"
     bordercolor="#000000"
     borderopacity="0.25"
     inkscape:showpageshadow="2"
     inkscape:pageopacity="0.0"
     inkscape:pagecheckerboard="0"
     inkscape:deskcolor="#d1d1d1">
    <inkscape:page
       x="0"
       y="0"
       inkscape:label="1"
       id="page1"
       width="537.27997"
       height="129.28"
       margin="0"
       bleed="0" />
  </sodipodi:namedview>
  <g
     id="g1"
     inkscape:groupmode="layer"
     inkscape:label="1">
    <path
       id="path1"
       d="M 0,0 H 561 V 135 H 0 Z"
       style="fill:#ffffff;fill-opacity:1;fill-rule:nonzero;stroke:none"
       transform="scale(0.95781337)"
       clip-path="url(#clipPath2)" />
    <path
       id="path3"
       d="m 379,66 h 53.64001"
       style="fill:none;stroke:#000000;stroke-width:1;stroke-linecap:butt;stroke-linejoin:miter;stroke-miterlimit:10;stroke-dasharray:none;stroke-opacity:1"
       transform="matrix(0.95781337,0,0,0.95781337,0.47890669,0.47890669)"
       clip-path="url(#clipPath4)" />
    <path
       id="path5"
       d="m 437.89001,66 -7,3.5 1.75,-3.5 -1.75,-3.5 z"
       style="fill:#000000;fill-opacity:1;fill-rule:nonzero;stroke:#000000;stroke-width:1;stroke-linecap:butt;stroke-linejoin:miter;stroke-miterlimit:10;stroke-dasharray:none;stroke-opacity:1"
       transform="matrix(0.95781337,0,0,0.95781337,0.47890669,0.47890669)"
       clip-path="url(#clipPath6)" />
    <path
       id="path7"
       d="m 289,1 h 90 v 130 h -90 z"
       style="fill:#dae8fc;fill-opacity:1;fill-rule:nonzero;stroke:#6c8ebf;stroke-width:1;stroke-linecap:butt;stroke-linejoin:miter;stroke-miterlimit:10;stroke-dasharray:none;stroke-opacity:1"
       transform="matrix(0.95781337,0,0,0.95781337,0.47890669,0.47890669)"
       clip-path="url(#clipPath8)" />
    <text
       id="text8"
       xml:space="preserve"
       transform="matrix(0.957823,0,0,0.957823,304.57275,69.921079)"
       clip-path="url(#clipPath9)"><tspan
         style="font-variant:normal;font-weight:700;font-size:18px;font-family:Helvetica;writing-mode:lr-tb;fill:#000000;fill-opacity:1;fill-rule:nonzero;stroke:none"
         x="0 10.010742 21.005859"
         y="0"
         sodipodi:role="line"
         id="tspan8">add</tspan></text>
    <path
       id="path10"
       d="m 239,33.5 h 43.63"
       style="fill:none;stroke:#000000;stroke-width:1;stroke-linecap:butt;stroke-linejoin:miter;stroke-miterlimit:10;stroke-dasharray:none;stroke-opacity:1"
       transform="matrix(0.95781337,0,0,0.95781337,0.47890669,0.47890669)"
       clip-path="url(#clipPath11)" />
    <path
       id="path12"
       d="m 287.88,33.5 -7,3.5 1.75,-3.5 -1.75,-3.5 z"
       style="fill:#000000;fill-opacity:1;fill-rule:nonzero;stroke:#000000;stroke-width:1;stroke-linecap:butt;stroke-linejoin:miter;stroke-miterlimit:10;stroke-dasharray:none;stroke-opacity:1"
       transform="matrix(0.95781337,0,0,0.95781337,0.47890669,0.47890669)"
       clip-path="url(#clipPath13)" />
    <path
       id="path14"
       d="M 119,11 H 239 V 56 H 119 Z"
       style="fill:#ffffff;fill-opacity:1;fill-rule:nonzero;stroke:#000000;stroke-width:1;stroke-linecap:butt;stroke-linejoin:miter;stroke-miterlimit:10;stroke-dasharray:none;stroke-opacity:1"
       transform="matrix(0.95781337,0,0,0.95781337,0.47890669,0.47890669)"
       clip-path="url(#clipPath15)" />
    <text
       id="text15"
       xml:space="preserve"
       transform="matrix(0.957823,0,0,0.957823,132.62855,39.270743)"
       clip-path="url(#clipPath16)"><tspan
         style="font-variant:normal;font-weight:normal;font-size:18px;font-family:Helvetica;writing-mode:lr-tb;fill:#000000;fill-opacity:1;fill-rule:nonzero;stroke:none"
         x="0 10.010742 15.011719 20.012695 30.023438 40.03418 55.02832 65.039062 75.049805"
         y="0"
         sodipodi:role="line"
         id="tspan15">a: number</tspan></text>
    <path
       id="path17"
       d="m 119,74 h 120 v 45 H 119 Z"
       style="fill:#ffffff;fill-opacity:1;fill-rule:nonzero;stroke:#000000;stroke-width:1;stroke-linecap:butt;stroke-linejoin:miter;stroke-miterlimit:10;stroke-dasharray:none;stroke-opacity:1"
       transform="matrix(0.95781337,0,0,0.95781337,0.47890669,0.47890669)"
       clip-path="url(#clipPath18)" />
    <text
       id="text18"
       xml:space="preserve"
       transform="matrix(0.957823,0,0,0.957823,132.62855,99.613592)"
       clip-path="url(#clipPath19)"><tspan
         style="font-variant:normal;font-weight:normal;font-size:18px;font-family:Helvetica;writing-mode:lr-tb;fill:#000000;fill-opacity:1;fill-rule:nonzero;stroke:none"
         x="0 10.010742 15.011719 20.012695 30.023438 40.03418 55.02832 65.039062 75.049805"
         y="0"
         sodipodi:role="line"
         id="tspan18">b: number</tspan></text>
    <path
       id="path20"
       d="m 109,11 h -5 c -3.33334,0 -5,3.333333 -5,10 v 35 c 0,6.666668 -1.666664,10 -5,10 h -2.5 c -1.666664,0 -0.833336,0 2.5,0 h 2.5 c 1.666664,0 2.5,3.333336 2.5,10 v 35 c 0,6.66666 1.66666,10 5,10 h 5"
       style="fill:none;stroke:#000000;stroke-width:1;stroke-linecap:butt;stroke-linejoin:miter;stroke-miterlimit:10;stroke-dasharray:none;stroke-opacity:1"
       transform="matrix(0.95781337,0,0,0.95781337,0.47890669,0.47890669)"
       clip-path="url(#clipPath21)" />
    <text
       id="text21"
       xml:space="preserve"
       transform="matrix(0.957823,0,0,0.957823,-0.04489795,69.921079)"
       clip-path="url(#clipPath22)"><tspan
         style="font-style:oblique;font-variant:normal;font-weight:normal;font-size:18px;font-family:Helvetica;writing-mode:lr-tb;fill:#000000;fill-opacity:1;fill-rule:nonzero;stroke:none"
         x="0 12.005859 18 28.010742 38.021484 53.015625 63.026367 73.037109 78.038086"
         y="0"
         sodipodi:role="line"
         id="tspan21">Arguments</tspan></text>
    <path
       id="path23"
       d="m 239,96.5 h 43.63"
       style="fill:none;stroke:#000000;stroke-width:1;stroke-linecap:butt;stroke-linejoin:miter;stroke-miterlimit:10;stroke-dasharray:none;stroke-opacity:1"
       transform="matrix(0.95781337,0,0,0.95781337,0.47890669,0.47890669)"
       clip-path="url(#clipPath24)" />
    <path
       id="path25"
       d="m 287.88,96.5 -7,3.5 1.75,-3.5 -1.75,-3.5 z"
       style="fill:#000000;fill-opacity:1;fill-rule:nonzero;stroke:#000000;stroke-width:1;stroke-linecap:butt;stroke-linejoin:miter;stroke-miterlimit:10;stroke-dasharray:none;stroke-opacity:1"
       transform="matrix(0.95781337,0,0,0.95781337,0.47890669,0.47890669)"
       clip-path="url(#clipPath26)" />
    <path
       id="path27"
       d="m 439,43.5 h 120 v 45 H 439 Z"
       style="fill:#d5e8d4;fill-opacity:1;fill-rule:nonzero;stroke:#82b366;stroke-width:1;stroke-linecap:butt;stroke-linejoin:miter;stroke-miterlimit:10;stroke-dasharray:none;stroke-opacity:1"
       transform="matrix(0.95781337,0,0,0.95781337,0.47890669,0.47890669)"
       clip-path="url(#clipPath28)" />
    <text
       id="text28"
       xml:space="preserve"
       transform="matrix(0.957823,0,0,0.957823,448.72511,69.921079)"
       clip-path="url(#clipPath29)"><tspan
         style="font-variant:normal;font-weight:normal;font-size:18px;font-family:Helvetica;writing-mode:lr-tb;fill:#000000;fill-opacity:1;fill-rule:nonzero;stroke:none"
         x="0 10.010742 20.021484 35.015625 45.026367 55.037109"
         y="0"
         sodipodi:role="line"
         id="tspan28">number</tspan></text>
    <text
       id="text29"
       xml:space="preserve"
       transform="matrix(0.957823,0,0,0.957823,457.82443,96.740123)"
       clip-path="url(#clipPath30)"><tspan
         style="font-style:oblique;font-variant:normal;font-weight:normal;font-size:14px;font-family:Helvetica;writing-mode:lr-tb;fill:#000000;fill-opacity:1;fill-rule:nonzero;stroke:none"
         x="0 10.889648 18.675781 22.56543 30.351562 38.137695"
         y="0"
         sodipodi:role="line"
         id="tspan29">Output</tspan></text>
  </g>
</svg>
