<?xml version="1.0" encoding="UTF-8" standalone="no"?>
<!-- Created with Inkscape (http://www.inkscape.org/) -->

<svg
   version="1.1"
   id="svg1"
   width="530.56"
   height="241.27998"
   viewBox="0 0 530.56 241.27998"
   sodipodi:docname="ts-3.pdf"
   xmlns:inkscape="http://www.inkscape.org/namespaces/inkscape"
   xmlns:sodipodi="http://sodipodi.sourceforge.net/DTD/sodipodi-0.dtd"
   xmlns="http://www.w3.org/2000/svg"
   xmlns:svg="http://www.w3.org/2000/svg">
  <defs
     id="defs1">
    <clipPath
       clipPathUnits="userSpaceOnUse"
       id="clipPath2">
      <path
         d="M 0,0 H 1658.3334 V 751.33875 H 0 Z"
         transform="scale(0.33407035)"
         clip-rule="evenodd"
         id="path2" />
    </clipPath>
    <clipPath
       clipPathUnits="userSpaceOnUse"
       id="clipPath4">
      <path
         d="M 0,0 H 1658.3334 V 748.3454 H 0 Z"
         transform="matrix(0.33407035,0,0,0.33407035,-0.5,-0.5)"
         clip-rule="evenodd"
         id="path4" />
    </clipPath>
    <clipPath
       clipPathUnits="userSpaceOnUse"
       id="clipPath5">
      <path
         d="M 0,0 H 1658.3334 V 748.3454 H 0 Z"
         transform="matrix(0.334067,0,0,0.334067,-32.09375,-26)"
         clip-rule="evenodd"
         id="path5" />
    </clipPath>
    <clipPath
       clipPathUnits="userSpaceOnUse"
       id="clipPath6">
      <path
         d="M 0,0 H 1658.3334 V 748.3454 H 0 Z"
         transform="matrix(0.334067,0,0,0.334067,-47.625,-46)"
         clip-rule="evenodd"
         id="path6" />
    </clipPath>
    <clipPath
       clipPathUnits="userSpaceOnUse"
       id="clipPath8">
      <path
         d="M 0,0 H 1658.3334 V 748.3454 H 0 Z"
         transform="matrix(0.33407035,0,0,0.33407035,-0.5,-0.5)"
         clip-rule="evenodd"
         id="path8" />
    </clipPath>
    <clipPath
       clipPathUnits="userSpaceOnUse"
       id="clipPath9">
      <path
         d="M 0,0 H 1658.3334 V 748.3454 H 0 Z"
         transform="matrix(0.334067,0,0,0.334067,-101.875,-176)"
         clip-rule="evenodd"
         id="path9" />
    </clipPath>
    <clipPath
       clipPathUnits="userSpaceOnUse"
       id="clipPath11">
      <path
         d="M 0,0 H 1658.3334 V 748.3454 H 0 Z"
         transform="matrix(0.33407035,0,0,0.33407035,-0.5,-0.5)"
         clip-rule="evenodd"
         id="path11" />
    </clipPath>
    <clipPath
       clipPathUnits="userSpaceOnUse"
       id="clipPath12">
      <path
         d="M 0,0 H 1658.3334 V 748.3454 H 0 Z"
         transform="matrix(0.334067,0,0,0.334067,-203.65625,-176)"
         clip-rule="evenodd"
         id="path12" />
    </clipPath>
    <clipPath
       clipPathUnits="userSpaceOnUse"
       id="clipPath14">
      <path
         d="M 0,0 H 1658.3334 V 748.3454 H 0 Z"
         transform="matrix(0.33407035,0,0,0.33407035,-0.5,-0.5)"
         clip-rule="evenodd"
         id="path14" />
    </clipPath>
    <clipPath
       clipPathUnits="userSpaceOnUse"
       id="clipPath15">
      <path
         d="M 0,0 H 1658.3334 V 748.3454 H 0 Z"
         transform="matrix(0.334067,0,0,0.334067,-288.76563,-176)"
         clip-rule="evenodd"
         id="path15" />
    </clipPath>
    <clipPath
       clipPathUnits="userSpaceOnUse"
       id="clipPath17">
      <path
         d="M 0,0 H 1658.3334 V 748.3454 H 0 Z"
         transform="matrix(0.33407035,0,0,0.33407035,-0.5,-0.5)"
         clip-rule="evenodd"
         id="path17" />
    </clipPath>
    <clipPath
       clipPathUnits="userSpaceOnUse"
       id="clipPath18">
      <path
         d="M 0,0 H 1658.3334 V 748.3454 H 0 Z"
         transform="matrix(0.334067,0,0,0.334067,-341.4375,-176)"
         clip-rule="evenodd"
         id="path18" />
    </clipPath>
    <clipPath
       clipPathUnits="userSpaceOnUse"
       id="clipPath20">
      <path
         d="M 0,0 H 1658.3334 V 748.3454 H 0 Z"
         transform="matrix(0.33407035,0,0,0.33407035,-0.5,-0.5)"
         clip-rule="evenodd"
         id="path20" />
    </clipPath>
    <clipPath
       clipPathUnits="userSpaceOnUse"
       id="clipPath21">
      <path
         d="M 0,0 H 1658.3334 V 748.3454 H 0 Z"
         transform="matrix(0.334067,0,0,0.334067,-426.32813,-176)"
         clip-rule="evenodd"
         id="path21" />
    </clipPath>
    <clipPath
       clipPathUnits="userSpaceOnUse"
       id="clipPath23">
      <path
         d="M 0,0 H 1658.3334 V 748.3454 H 0 Z"
         transform="matrix(0.33407035,0,0,0.33407035,-0.5,-0.5)"
         clip-rule="evenodd"
         id="path23" />
    </clipPath>
    <clipPath
       clipPathUnits="userSpaceOnUse"
       id="clipPath24">
      <path
         d="M 0,0 H 1658.3334 V 748.3454 H 0 Z"
         transform="matrix(0.334067,0,0,0.334067,-484.15625,-176)"
         clip-rule="evenodd"
         id="path24" />
    </clipPath>
    <clipPath
       clipPathUnits="userSpaceOnUse"
       id="clipPath26">
      <path
         d="M 0,0 H 1658.3334 V 748.3454 H 0 Z"
         transform="matrix(0,-0.33407035,0.33407035,0,84.499998,357.50001)"
         clip-rule="evenodd"
         id="path26" />
    </clipPath>
    <clipPath
       clipPathUnits="userSpaceOnUse"
       id="clipPath27">
      <path
         d="M 0,0 H 1658.3334 V 748.3454 H 0 Z"
         transform="matrix(0.334067,0,0,0.334067,-197.625,-109)"
         clip-rule="evenodd"
         id="path27" />
    </clipPath>
    <clipPath
       clipPathUnits="userSpaceOnUse"
       id="clipPath28">
      <path
         d="M 0,0 H 1658.3334 V 748.3454 H 0 Z"
         transform="matrix(0.334067,0,0,0.334067,-204.73438,-125.00001)"
         clip-rule="evenodd"
         id="path28" />
    </clipPath>
    <clipPath
       clipPathUnits="userSpaceOnUse"
       id="clipPath30">
      <path
         d="M 0,0 H 1658.3334 V 748.3454 H 0 Z"
         transform="matrix(0,0.33407035,-0.33407035,0,497.49999,-85.499997)"
         clip-rule="evenodd"
         id="path30" />
    </clipPath>
    <clipPath
       clipPathUnits="userSpaceOnUse"
       id="clipPath31">
      <path
         d="M 0,0 H 1658.3334 V 748.3454 H 0 Z"
         transform="matrix(0.334067,0,0,0.334067,-239.1875,-229)"
         clip-rule="evenodd"
         id="path31" />
    </clipPath>
    <clipPath
       clipPathUnits="userSpaceOnUse"
       id="clipPath32">
      <path
         d="M 0,0 H 1658.3334 V 748.3454 H 0 Z"
         transform="matrix(0.334067,0,0,0.334067,-247.48438,-245)"
         clip-rule="evenodd"
         id="path32" />
    </clipPath>
    <clipPath
       clipPathUnits="userSpaceOnUse"
       id="clipPath34">
      <path
         d="M 0,0 H 1658.3334 V 748.3454 H 0 Z"
         transform="matrix(0,-0.33407035,0.33407035,0,224.5,497.49999)"
         clip-rule="evenodd"
         id="path34" />
    </clipPath>
    <clipPath
       clipPathUnits="userSpaceOnUse"
       id="clipPath35">
      <path
         d="M 0,0 H 1658.3334 V 748.3454 H 0 Z"
         transform="matrix(0.334067,0,0,0.334067,-300.0625,-109)"
         clip-rule="evenodd"
         id="path35" />
    </clipPath>
    <clipPath
       clipPathUnits="userSpaceOnUse"
       id="clipPath36">
      <path
         d="M 0,0 H 1658.3334 V 748.3454 H 0 Z"
         transform="matrix(0.334067,0,0,0.334067,-306.26563,-125.00001)"
         clip-rule="evenodd"
         id="path36" />
    </clipPath>
  </defs>
  <sodipodi:namedview
     id="namedview1"
     pagecolor="#ffffff"
     bordercolor="#000000"
     borderopacity="0.25"
     inkscape:showpageshadow="2"
     inkscape:pageopacity="0.0"
     inkscape:pagecheckerboard="0"
     inkscape:deskcolor="#d1d1d1">
    <inkscape:page
       x="0"
       y="0"
       inkscape:label="1"
       id="page1"
       width="530.56"
       height="241.27998"
       margin="0"
       bleed="0" />
  </sodipodi:namedview>
  <g
     id="g1"
     inkscape:groupmode="layer"
     inkscape:label="1">
    <path
       id="path1"
       d="M 0,0 H 554 V 251 H 0 Z"
       style="fill:#ffffff;fill-opacity:1;fill-rule:nonzero;stroke:none"
       transform="scale(0.95788204)"
       clip-path="url(#clipPath2)" />
    <path
       id="path3"
       d="M 1,1 H 201 V 61 H 1 Z"
       style="fill:#dae8fc;fill-opacity:1;fill-rule:nonzero;stroke:#6c8ebf;stroke-width:1;stroke-linecap:butt;stroke-linejoin:miter;stroke-miterlimit:10;stroke-dasharray:none;stroke-opacity:1"
       transform="matrix(0.95788204,0,0,0.95788204,0.47894102,0.47894102)"
       clip-path="url(#clipPath4)" />
    <text
       id="text4"
       xml:space="preserve"
       transform="matrix(0.95789164,0,0,0.95789164,30.742335,24.905183)"
       clip-path="url(#clipPath5)"><tspan
         style="font-variant:normal;font-weight:700;font-size:16px;font-family:Helvetica;writing-mode:lr-tb;fill:#000000;fill-opacity:1;fill-rule:nonzero;stroke:none"
         x="0 8.59375 17.492188 27.265625 36.164062 40.023438 51.578125 61.351562 71.125 80.898438 86.226562 95.125 100.45312 104.89844 114.67188 124.44531 133.34375"
         y="0"
         sodipodi:role="line"
         id="tspan4">Type Annotations </tspan></text>
    <text
       id="text5"
       xml:space="preserve"
       transform="matrix(0.95789164,0,0,0.95789164,45.619589,44.063015)"
       clip-path="url(#clipPath6)"><tspan
         style="font-variant:normal;font-weight:700;font-size:16px;font-family:Helvetica;writing-mode:lr-tb;fill:#000000;fill-opacity:1;fill-rule:nonzero;stroke:none"
         x="0 12.445312 16.890625 22.21875 31.992188 36.4375 46.234375 55.132812 61.359375 65.804688 74.703125 84.476562 88.921875 97.820312"
         y="0"
         sodipodi:role="line"
         id="tspan5">with Variables</tspan></text>
    <path
       id="path7"
       d="m 71,151 h 100 v 40 H 71 Z"
       style="fill:#f5f5f5;fill-opacity:1;fill-rule:nonzero;stroke:#666666;stroke-width:1;stroke-linecap:butt;stroke-linejoin:miter;stroke-miterlimit:10;stroke-dasharray:none;stroke-opacity:1"
       transform="matrix(0.95788204,0,0,0.95788204,0.47894102,0.47894102)"
       clip-path="url(#clipPath8)" />
    <text
       id="text8"
       xml:space="preserve"
       transform="matrix(0.95789164,0,0,0.95789164,97.585211,168.58893)"
       clip-path="url(#clipPath9)"><tspan
         style="font-variant:normal;font-weight:normal;font-size:16px;font-family:Helvetica;writing-mode:lr-tb;fill:#333333;fill-opacity:1;fill-rule:nonzero;stroke:none"
         x="0 8 16.898438 25.796875 33.796875"
         y="0"
         sodipodi:role="line"
         id="tspan8">const</tspan></text>
    <path
       id="path10"
       d="m 171,151 h 100 v 40 H 171 Z"
       style="fill:#f5f5f5;fill-opacity:1;fill-rule:nonzero;stroke:#666666;stroke-width:1;stroke-linecap:butt;stroke-linejoin:miter;stroke-miterlimit:10;stroke-dasharray:none;stroke-opacity:1"
       transform="matrix(0.95788204,0,0,0.95788204,0.47894102,0.47894102)"
       clip-path="url(#clipPath11)" />
    <text
       id="text11"
       xml:space="preserve"
       transform="matrix(0.95789164,0,0,0.95789164,195.08062,168.58893)"
       clip-path="url(#clipPath12)"><tspan
         style="font-variant:normal;font-weight:normal;font-size:16px;font-family:Helvetica;writing-mode:lr-tb;fill:#333333;fill-opacity:1;fill-rule:nonzero;stroke:none"
         x="0 8 16.898438 20.453125 29.351562"
         y="0"
         sodipodi:role="line"
         id="tspan11">color</tspan></text>
    <path
       id="path13"
       d="m 271,151 h 40 v 40 h -40 z"
       style="fill:#ffe6cc;fill-opacity:1;fill-rule:nonzero;stroke:#d79b00;stroke-width:1;stroke-linecap:butt;stroke-linejoin:miter;stroke-miterlimit:10;stroke-dasharray:none;stroke-opacity:1"
       transform="matrix(0.95788204,0,0,0.95788204,0.47894102,0.47894102)"
       clip-path="url(#clipPath14)" />
    <text
       id="text14"
       xml:space="preserve"
       transform="matrix(0.95789164,0,0,0.95789164,276.60618,168.58893)"
       clip-path="url(#clipPath15)"><tspan
         style="font-variant:normal;font-weight:normal;font-size:16px;font-family:Helvetica;writing-mode:lr-tb;fill:#000000;fill-opacity:1;fill-rule:nonzero;stroke:none"
         x="0"
         y="0"
         id="tspan14">:</tspan></text>
    <path
       id="path16"
       d="m 311,151 h 100 v 40 H 311 Z"
       style="fill:#ffe6cc;fill-opacity:1;fill-rule:nonzero;stroke:#d79b00;stroke-width:1;stroke-linecap:butt;stroke-linejoin:miter;stroke-miterlimit:10;stroke-dasharray:none;stroke-opacity:1"
       transform="matrix(0.95788204,0,0,0.95788204,0.47894102,0.47894102)"
       clip-path="url(#clipPath17)" />
    <text
       id="text17"
       xml:space="preserve"
       transform="matrix(0.95789164,0,0,0.95789164,327.06013,168.58893)"
       clip-path="url(#clipPath18)"><tspan
         style="font-variant:normal;font-weight:normal;font-size:16px;font-family:Helvetica;writing-mode:lr-tb;fill:#000000;fill-opacity:1;fill-rule:nonzero;stroke:none"
         x="0 8 12.445312 17.773438 21.328125 30.226562"
         y="0"
         sodipodi:role="line"
         id="tspan17">string</tspan></text>
    <path
       id="path19"
       d="m 411,151 h 40 v 40 h -40 z"
       style="fill:#f5f5f5;fill-opacity:1;fill-rule:nonzero;stroke:#666666;stroke-width:1;stroke-linecap:butt;stroke-linejoin:miter;stroke-miterlimit:10;stroke-dasharray:none;stroke-opacity:1"
       transform="matrix(0.95788204,0,0,0.95788204,0.47894102,0.47894102)"
       clip-path="url(#clipPath20)" />
    <text
       id="text20"
       xml:space="preserve"
       transform="matrix(0.95789164,0,0,0.95789164,408.37615,168.58893)"
       clip-path="url(#clipPath21)"><tspan
         style="font-variant:normal;font-weight:normal;font-size:16px;font-family:Helvetica;writing-mode:lr-tb;fill:#333333;fill-opacity:1;fill-rule:nonzero;stroke:none"
         x="0"
         y="0"
         id="tspan20">=</tspan></text>
    <path
       id="path22"
       d="m 451,151 h 100 v 40 H 451 Z"
       style="fill:#f5f5f5;fill-opacity:1;fill-rule:nonzero;stroke:#666666;stroke-width:1;stroke-linecap:butt;stroke-linejoin:miter;stroke-miterlimit:10;stroke-dasharray:none;stroke-opacity:1"
       transform="matrix(0.95788204,0,0,0.95788204,0.47894102,0.47894102)"
       clip-path="url(#clipPath23)" />
    <text
       id="text23"
       xml:space="preserve"
       transform="matrix(0.95789164,0,0,0.95789164,463.76922,168.58893)"
       clip-path="url(#clipPath24)"><tspan
         style="font-variant:normal;font-weight:normal;font-size:16px;font-family:Helvetica;writing-mode:lr-tb;fill:#333333;fill-opacity:1;fill-rule:nonzero;stroke:none"
         x="0 3.0546875 8.3828125 17.28125 26.179688 29.234375"
         y="0"
         sodipodi:role="line"
         id="tspan23">'red';</tspan></text>
    <path
       id="path25"
       d="m 231,86 h -5 c -3.33333,0 -5,3.333336 -5,10 v 30 c 0,6.66667 -1.66667,10 -5,10 h -2.5 c -1.66667,0 -0.83333,0 2.5,0 h 2.5 c 1.66667,0 2.5,3.33333 2.5,10 v 30 c 0,6.66667 1.66667,10 5,10 h 5"
       style="fill:none;stroke:#000000;stroke-width:1;stroke-linecap:butt;stroke-linejoin:miter;stroke-miterlimit:10;stroke-dasharray:none;stroke-opacity:1"
       transform="matrix(0,0.95788204,-0.95788204,0,342.44284,-80.94103)"
       clip-path="url(#clipPath26)" />
    <text
       id="text26"
       xml:space="preserve"
       transform="matrix(0.95789164,0,0,0.95789164,189.30334,104.41019)"
       clip-path="url(#clipPath27)"><tspan
         style="font-style:oblique;font-variant:normal;font-weight:normal;font-size:13px;font-family:Helvetica;writing-mode:lr-tb;fill:#000000;fill-opacity:1;fill-rule:nonzero;stroke:none"
         x="0 7.7124023 14.942383 19.271484 22.159668 29.389648 36.619629 39.507812"
         y="0"
         sodipodi:role="line"
         id="tspan26">Variable</tspan></text>
    <text
       id="text27"
       xml:space="preserve"
       transform="matrix(0.95789164,0,0,0.95789164,196.11335,119.73646)"
       clip-path="url(#clipPath28)"><tspan
         style="font-style:oblique;font-variant:normal;font-weight:normal;font-size:13px;font-family:Helvetica;writing-mode:lr-tb;fill:#000000;fill-opacity:1;fill-rule:nonzero;stroke:none"
         x="0 7.2299805 14.459961 25.289062"
         y="0"
         sodipodi:role="line"
         id="tspan27">name</tspan></text>
    <path
       id="path29"
       d="m 301,186 h -5 c -3.33334,0 -5,3.33333 -5,10 v 5 c 0,3.33333 -1.66666,5 -5,5 h -2.5 c -1.66666,0 -0.83334,0 2.5,0 h 2.5 c 1.66666,0 2.5,3.33333 2.5,10 v 5 c 0,3.33333 1.66666,5 5,5 h 5"
       style="fill:none;stroke:#000000;stroke-width:1;stroke-linecap:butt;stroke-linejoin:miter;stroke-miterlimit:10;stroke-dasharray:none;stroke-opacity:1"
       transform="matrix(0,-0.95788204,0.95788204,0,81.898912,476.54631)"
       clip-path="url(#clipPath30)" />
    <text
       id="text30"
       xml:space="preserve"
       transform="matrix(0.95789164,0,0,0.95789164,229.11571,219.35719)"
       clip-path="url(#clipPath31)"><tspan
         style="font-style:oblique;font-variant:normal;font-weight:normal;font-size:13px;font-family:Helvetica;writing-mode:lr-tb;fill:#000000;fill-opacity:1;fill-rule:nonzero;stroke:none"
         x="0 9.3881836 16.618164 19.506348 26.736328 33.966309 37.578125 41.189941 48.419922 52.031738 58.531738 65.761719 72.991699 80.22168 84.550781 91.780762 95.392578"
         y="0"
         sodipodi:role="line"
         id="tspan30">Colon to separate</tspan></text>
    <text
       id="text31"
       xml:space="preserve"
       transform="matrix(0.95789164,0,0,0.95789164,237.06322,234.68345)"
       clip-path="url(#clipPath32)"><tspan
         style="font-style:oblique;font-variant:normal;font-weight:normal;font-size:13px;font-family:Helvetica;writing-mode:lr-tb;fill:#000000;fill-opacity:1;fill-rule:nonzero;stroke:none"
         x="0 7.2299805 14.459961 25.289062 32.519043 36.130859 43.36084 50.59082 57.820801 61.432617 65.044434 71.544434 78.774414"
         y="0"
         sodipodi:role="line"
         id="tspan31">name and type</tspan></text>
    <path
       id="path33"
       d="m 371,86 h -5 c -3.33334,0 -5,3.333336 -5,10 v 30 c 0,6.66667 -1.66666,10 -5,10 h -2.5 c -1.66666,0 -0.83334,0 2.5,0 h 2.5 c 1.66666,0 2.5,3.33333 2.5,10 v 30 c 0,6.66667 1.66666,10 5,10 h 5"
       style="fill:none;stroke:#000000;stroke-width:1;stroke-linecap:butt;stroke-linejoin:miter;stroke-miterlimit:10;stroke-dasharray:none;stroke-opacity:1"
       transform="matrix(0,0.95788204,-0.95788204,0,476.54631,-215.04452)"
       clip-path="url(#clipPath34)" />
    <text
       id="text34"
       xml:space="preserve"
       transform="matrix(0.95789164,0,0,0.95789164,287.42736,104.41019)"
       clip-path="url(#clipPath35)"><tspan
         style="font-style:oblique;font-variant:normal;font-weight:normal;font-size:13px;font-family:Helvetica;writing-mode:lr-tb;fill:#000000;fill-opacity:1;fill-rule:nonzero;stroke:none"
         x="0 7.2299805 13.72998 20.959961 28.189941 31.801758 39.031738 42.643555 46.255371 52.755371 59.985352 62.873535 70.103516 77.333496 80.945312 84.557129 91.787109 99.01709 102.62891 106.24072 115.62891"
         y="0"
         sodipodi:role="line"
         id="tspan34">Type of value that we</tspan></text>
    <text
       id="text35"
       xml:space="preserve"
       transform="matrix(0.95789164,0,0,0.95789164,293.36929,119.73646)"
       clip-path="url(#clipPath36)"><tspan
         style="font-style:oblique;font-variant:normal;font-weight:normal;font-size:13px;font-family:Helvetica;writing-mode:lr-tb;fill:#000000;fill-opacity:1;fill-rule:nonzero;stroke:none"
         x="0 9.3881836 12.276367 15.164551 18.052734 21.664551 28.894531 35.394531 41.894531 44.782715 52.012695 59.242676 62.854492 66.466309 73.696289 77.308105 79.790039 86.290039 93.52002 96.408203 103.63818 107.96729"
         y="0"
         sodipodi:role="line"
         id="tspan35">will assign to 'color'</tspan></text>
  </g>
</svg>
