<?xml version="1.0" encoding="UTF-8" standalone="no"?>
<!-- Created with Inkscape (http://www.inkscape.org/) -->

<svg
   version="1.1"
   id="svg1"
   width="434.55997"
   height="117.44"
   viewBox="0 0 434.55997 117.44"
   sodipodi:docname="ts-4.pdf"
   xmlns:inkscape="http://www.inkscape.org/namespaces/inkscape"
   xmlns:sodipodi="http://sodipodi.sourceforge.net/DTD/sodipodi-0.dtd"
   xmlns="http://www.w3.org/2000/svg"
   xmlns:svg="http://www.w3.org/2000/svg">
  <defs
     id="defs1">
    <clipPath
       clipPathUnits="userSpaceOnUse"
       id="clipPath2">
      <path
         d="M 0,0 H 1358.3333 V 365.01468 H 0 Z"
         transform="scale(0.33423313)"
         clip-rule="evenodd"
         id="path2" />
    </clipPath>
    <clipPath
       clipPathUnits="userSpaceOnUse"
       id="clipPath4">
      <path
         d="M 0,0 H 1358.3333 V 365.01468 H 0 Z"
         transform="matrix(0.33423313,0,0,0.33423313,-0.49999999,-0.49999999)"
         clip-rule="evenodd"
         id="path4" />
    </clipPath>
    <clipPath
       clipPathUnits="userSpaceOnUse"
       id="clipPath6">
      <path
         d="M 0,0 H 1358.3333 V 365.01468 H 0 Z"
         transform="matrix(0.33423313,0,0,0.33423313,-0.49999999,-0.49999999)"
         clip-rule="evenodd"
         id="path6" />
    </clipPath>
    <clipPath
       clipPathUnits="userSpaceOnUse"
       id="clipPath8">
      <path
         d="M 0,0 H 1358.3333 V 365.01468 H 0 Z"
         transform="matrix(0.33423313,0,0,0.33423313,-0.49999999,-0.49999999)"
         clip-rule="evenodd"
         id="path8" />
    </clipPath>
    <clipPath
       clipPathUnits="userSpaceOnUse"
       id="clipPath10">
      <path
         d="M 0,0 H 1358.3333 V 365.01468 H 0 Z"
         transform="matrix(0.33423313,0,0,0.33423313,-0.49999999,-0.49999999)"
         clip-rule="evenodd"
         id="path10" />
    </clipPath>
    <clipPath
       clipPathUnits="userSpaceOnUse"
       id="clipPath11">
      <path
         d="M 0,0 H 1358.3333 V 365.01468 H 0 Z"
         transform="matrix(0.33422978,0,0,0.33422978,-13.953125,-48)"
         clip-rule="evenodd"
         id="path11" />
    </clipPath>
    <clipPath
       clipPathUnits="userSpaceOnUse"
       id="clipPath13">
      <path
         d="M 0,0 H 1358.3333 V 365.01468 H 0 Z"
         transform="matrix(0.33423313,0,0,0.33423313,-0.49999999,-0.49999999)"
         clip-rule="evenodd"
         id="path13" />
    </clipPath>
    <clipPath
       clipPathUnits="userSpaceOnUse"
       id="clipPath14">
      <path
         d="M 0,0 H 1358.3333 V 365.01468 H 0 Z"
         transform="matrix(0.33422978,0,0,0.33422978,-286.15625,-48)"
         clip-rule="evenodd"
         id="path14" />
    </clipPath>
    <clipPath
       clipPathUnits="userSpaceOnUse"
       id="clipPath15">
      <path
         d="M 0,0 H 1358.3333 V 365.01468 H 0 Z"
         transform="matrix(0.33422978,0,0,0.33422978,-25.5,-96)"
         clip-rule="evenodd"
         id="path15" />
    </clipPath>
    <clipPath
       clipPathUnits="userSpaceOnUse"
       id="clipPath16">
      <path
         d="M 0,0 H 1358.3333 V 365.01468 H 0 Z"
         transform="matrix(0.33422978,0,0,0.33422978,-29.34375,-116)"
         clip-rule="evenodd"
         id="path16" />
    </clipPath>
    <clipPath
       clipPathUnits="userSpaceOnUse"
       id="clipPath17">
      <path
         d="M 0,0 H 1358.3333 V 365.01468 H 0 Z"
         transform="matrix(0.33422978,0,0,0.33422978,-288.01563,-96)"
         clip-rule="evenodd"
         id="path17" />
    </clipPath>
    <clipPath
       clipPathUnits="userSpaceOnUse"
       id="clipPath18">
      <path
         d="M 0,0 H 1358.3333 V 365.01468 H 0 Z"
         transform="matrix(0.33422978,0,0,0.33422978,-328.03125,-116)"
         clip-rule="evenodd"
         id="path18" />
    </clipPath>
  </defs>
  <sodipodi:namedview
     id="namedview1"
     pagecolor="#ffffff"
     bordercolor="#000000"
     borderopacity="0.25"
     inkscape:showpageshadow="2"
     inkscape:pageopacity="0.0"
     inkscape:pagecheckerboard="0"
     inkscape:deskcolor="#d1d1d1">
    <inkscape:page
       x="0"
       y="0"
       inkscape:label="1"
       id="page1"
       width="434.55997"
       height="117.44"
       margin="0"
       bleed="0" />
  </sodipodi:namedview>
  <g
     id="g1"
     inkscape:groupmode="layer"
     inkscape:label="1">
    <path
       id="path1"
       d="M 0,0 H 454 V 122 H 0 Z"
       style="fill:#ffffff;fill-opacity:1;fill-rule:nonzero;stroke:none"
       transform="scale(0.95741551)"
       clip-path="url(#clipPath2)" />
    <path
       id="path3"
       d="m 197.37,41 h 57.26"
       style="fill:none;stroke:#000000;stroke-width:1;stroke-linecap:butt;stroke-linejoin:miter;stroke-miterlimit:10;stroke-dasharray:none;stroke-opacity:1"
       transform="matrix(0.95741551,0,0,0.95741551,0.47870775,0.47870775)"
       clip-path="url(#clipPath4)" />
    <path
       id="path5"
       d="m 192.12,41 7,-3.5 -1.75,3.5 1.75,3.5 z"
       style="fill:#000000;fill-opacity:1;fill-rule:nonzero;stroke:#000000;stroke-width:1;stroke-linecap:butt;stroke-linejoin:miter;stroke-miterlimit:10;stroke-dasharray:none;stroke-opacity:1"
       transform="matrix(0.95741551,0,0,0.95741551,0.47870775,0.47870775)"
       clip-path="url(#clipPath6)" />
    <path
       id="path7"
       d="m 259.88,41 -7,3.5 1.75,-3.5 -1.75,-3.5 z"
       style="fill:#000000;fill-opacity:1;fill-rule:nonzero;stroke:#000000;stroke-width:1;stroke-linecap:butt;stroke-linejoin:miter;stroke-miterlimit:10;stroke-dasharray:none;stroke-opacity:1"
       transform="matrix(0.95741551,0,0,0.95741551,0.47870775,0.47870775)"
       clip-path="url(#clipPath8)" />
    <path
       id="path9"
       d="M 1,1 H 191 V 81 H 1 Z"
       style="fill:#dae8fc;fill-opacity:1;fill-rule:nonzero;stroke:#6c8ebf;stroke-width:1;stroke-linecap:butt;stroke-linejoin:miter;stroke-miterlimit:10;stroke-dasharray:none;stroke-opacity:1"
       transform="matrix(0.95741551,0,0,0.95741551,0.47870775,0.47870775)"
       clip-path="url(#clipPath10)" />
    <text
       id="text10"
       xml:space="preserve"
       transform="matrix(0.95742511,0,0,0.95742511,13.359072,45.956405)"
       clip-path="url(#clipPath11)"><tspan
         style="font-variant:normal;font-weight:700;font-size:20px;font-family:Helvetica;writing-mode:lr-tb;fill:#000000;fill-opacity:1;fill-rule:nonzero;stroke:none"
         x="0 10.742188 21.865234 34.082031 45.205078 50.761719 61.884766 74.101562 86.318359 98.535156 105.19531 116.31836 122.97852 128.53516 140.75195 152.96875"
         y="0"
         sodipodi:role="line"
         id="tspan10">Type annotations</tspan></text>
    <path
       id="path12"
       d="M 261,1 H 451 V 81 H 261 Z"
       style="fill:#d5e8d4;fill-opacity:1;fill-rule:nonzero;stroke:#82b366;stroke-width:1;stroke-linecap:butt;stroke-linejoin:miter;stroke-miterlimit:10;stroke-dasharray:none;stroke-opacity:1"
       transform="matrix(0.95741551,0,0,0.95741551,0.47870775,0.47870775)"
       clip-path="url(#clipPath13)" />
    <text
       id="text13"
       xml:space="preserve"
       transform="matrix(0.95742511,0,0,0.95742511,273.97318,45.956405)"
       clip-path="url(#clipPath14)"><tspan
         style="font-variant:normal;font-weight:700;font-size:20px;font-family:Helvetica;writing-mode:lr-tb;fill:#000000;fill-opacity:1;fill-rule:nonzero;stroke:none"
         x="0 10.742188 21.865234 34.082031 45.205078 50.761719 56.318359 68.535156 75.195312 86.318359 94.101562 105.22461 117.44141 128.56445"
         y="0"
         sodipodi:role="line"
         id="tspan13">Type inference</tspan></text>
    <text
       id="text14"
       xml:space="preserve"
       transform="matrix(0.95742511,0,0,0.95742511,24.41434,91.912811)"
       clip-path="url(#clipPath15)"><tspan
         style="font-variant:normal;font-weight:normal;font-size:16px;font-family:Helvetica;writing-mode:lr-tb;fill:#000000;fill-opacity:1;fill-rule:nonzero;stroke:none"
         x="0 14.820312 23.71875 28.164062 33.492188 42.390625 51.289062 59.289062 68.1875 71.742188 80.640625 89.539062 98.4375 103.76562 111.76562 117.09375 121.53906 125.98438 134.88281 138.4375"
         y="0"
         sodipodi:role="line"
         id="tspan14">We (developers) tell</tspan></text>
    <text
       id="text15"
       xml:space="preserve"
       transform="matrix(0.95742511,0,0,0.95742511,28.094443,111.06131)"
       clip-path="url(#clipPath16)"><tspan
         style="font-variant:normal;font-weight:normal;font-size:16px;font-family:Helvetica;writing-mode:lr-tb;fill:#000000;fill-opacity:1;fill-rule:nonzero;stroke:none"
         x="0 8.8984375 16.898438 25.796875 34.695312 42.695312 50.695312 56.023438 59.578125 68.476562 72.921875 77.367188 81.8125 90.710938 99.609375 104.05469 108.5 116.5 125.39844"
         y="0"
         sodipodi:role="line"
         id="tspan15">Typescript the type</tspan></text>
    <text
       id="text16"
       xml:space="preserve"
       transform="matrix(0.95742511,0,0,0.95742511,275.7534,91.912811)"
       clip-path="url(#clipPath17)"><tspan
         style="font-variant:normal;font-weight:normal;font-size:16px;font-family:Helvetica;writing-mode:lr-tb;fill:#000000;fill-opacity:1;fill-rule:nonzero;stroke:none"
         x="0 8.8984375 16.898438 25.796875 34.695312 42.695312 50.695312 56.023438 59.578125 68.476562 72.921875 77.367188 86.265625 95.164062 104.0625 112.0625 120.0625 128.96094"
         y="0"
         sodipodi:role="line"
         id="tspan16">Typescript guesses</tspan></text>
    <text
       id="text17"
       xml:space="preserve"
       transform="matrix(0.95742511,0,0,0.95742511,314.06536,111.06131)"
       clip-path="url(#clipPath18)"><tspan
         style="font-variant:normal;font-weight:normal;font-size:16px;font-family:Helvetica;writing-mode:lr-tb;fill:#000000;fill-opacity:1;fill-rule:nonzero;stroke:none"
         x="0 4.4453125 13.34375 22.242188 26.6875 31.132812 39.132812 48.03125"
         y="0"
         sodipodi:role="line"
         id="tspan17">the type</tspan></text>
  </g>
</svg>
