<?xml version="1.0" encoding="UTF-8" standalone="no"?>
<!-- Created with Inkscape (http://www.inkscape.org/) -->

<svg
   version="1.1"
   id="svg1"
   width="489.28"
   height="216"
   viewBox="0 0 489.28 216"
   sodipodi:docname="ts-5.pdf"
   xmlns:inkscape="http://www.inkscape.org/namespaces/inkscape"
   xmlns:sodipodi="http://sodipodi.sourceforge.net/DTD/sodipodi-0.dtd"
   xmlns="http://www.w3.org/2000/svg"
   xmlns:svg="http://www.w3.org/2000/svg">
  <defs
     id="defs1">
    <clipPath
       clipPathUnits="userSpaceOnUse"
       id="clipPath2">
      <path
         d="M 0,0 H 1529.1666 V 674.9837 H 0 Z"
         transform="scale(0.33482289)"
         clip-rule="evenodd"
         id="path2" />
    </clipPath>
    <clipPath
       clipPathUnits="userSpaceOnUse"
       id="clipPath4">
      <path
         d="M 0,0 H 1529.1666 V 669.01038 H 0 Z"
         transform="matrix(0.33482289,0,0,0.33482289,-0.49999999,-0.49999999)"
         clip-rule="evenodd"
         id="path4" />
    </clipPath>
    <clipPath
       clipPathUnits="userSpaceOnUse"
       id="clipPath5">
      <path
         d="M 0,0 H 1529.1666 V 669.01038 H 0 Z"
         transform="matrix(0.33481955,0,0,0.33481955,-45.124999,-26)"
         clip-rule="evenodd"
         id="path5" />
    </clipPath>
    <clipPath
       clipPathUnits="userSpaceOnUse"
       id="clipPath7">
      <path
         d="M 0,0 H 1529.1666 V 669.01038 H 0 Z"
         transform="matrix(0.33482289,0,0,0.33482289,-0.49999999,-0.49999999)"
         clip-rule="evenodd"
         id="path7" />
    </clipPath>
    <clipPath
       clipPathUnits="userSpaceOnUse"
       id="clipPath8">
      <path
         d="M 0,0 H 1529.1666 V 669.01038 H 0 Z"
         transform="matrix(0.33481955,0,0,0.33481955,-181.875,-146)"
         clip-rule="evenodd"
         id="path8" />
    </clipPath>
    <clipPath
       clipPathUnits="userSpaceOnUse"
       id="clipPath10">
      <path
         d="M 0,0 H 1529.1666 V 669.01038 H 0 Z"
         transform="matrix(0.33482289,0,0,0.33482289,-0.49999999,-0.49999999)"
         clip-rule="evenodd"
         id="path10" />
    </clipPath>
    <clipPath
       clipPathUnits="userSpaceOnUse"
       id="clipPath11">
      <path
         d="M 0,0 H 1529.1666 V 669.01038 H 0 Z"
         transform="matrix(0.33481955,0,0,0.33481955,-283.65625,-146)"
         clip-rule="evenodd"
         id="path11" />
    </clipPath>
    <clipPath
       clipPathUnits="userSpaceOnUse"
       id="clipPath13">
      <path
         d="M 0,0 H 1529.1666 V 669.01038 H 0 Z"
         transform="matrix(0.33482289,0,0,0.33482289,-0.49999999,-0.49999999)"
         clip-rule="evenodd"
         id="path13" />
    </clipPath>
    <clipPath
       clipPathUnits="userSpaceOnUse"
       id="clipPath14">
      <path
         d="M 0,0 H 1529.1666 V 669.01038 H 0 Z"
         transform="matrix(0.33481955,0,0,0.33481955,-366.32813,-146)"
         clip-rule="evenodd"
         id="path14" />
    </clipPath>
    <clipPath
       clipPathUnits="userSpaceOnUse"
       id="clipPath16">
      <path
         d="M 0,0 H 1529.1666 V 669.01038 H 0 Z"
         transform="matrix(0.33482289,0,0,0.33482289,-0.49999999,-0.49999999)"
         clip-rule="evenodd"
         id="path16" />
    </clipPath>
    <clipPath
       clipPathUnits="userSpaceOnUse"
       id="clipPath17">
      <path
         d="M 0,0 H 1529.1666 V 669.01038 H 0 Z"
         transform="matrix(0.33481955,0,0,0.33481955,-424.15625,-146)"
         clip-rule="evenodd"
         id="path17" />
    </clipPath>
    <clipPath
       clipPathUnits="userSpaceOnUse"
       id="clipPath19">
      <path
         d="M 0,0 H 1529.1666 V 669.01038 H 0 Z"
         transform="matrix(0,-0.33482289,0.33482289,0,145,357.00001)"
         clip-rule="evenodd"
         id="path19" />
    </clipPath>
    <clipPath
       clipPathUnits="userSpaceOnUse"
       id="clipPath21">
      <path
         d="M 0,0 H 1529.1666 V 669.01038 H 0 Z"
         transform="matrix(0,-0.33482289,0.33482289,0,334.99999,546.99999)"
         clip-rule="evenodd"
         id="path21" />
    </clipPath>
    <clipPath
       clipPathUnits="userSpaceOnUse"
       id="clipPath22">
      <path
         d="M 0,0 H 1529.1666 V 669.01038 H 0 Z"
         transform="matrix(0.33481955,0,0,0.33481955,-193.43749,-91)"
         clip-rule="evenodd"
         id="path22" />
    </clipPath>
    <clipPath
       clipPathUnits="userSpaceOnUse"
       id="clipPath23">
      <path
         d="M 0,0 H 1529.1666 V 669.01038 H 0 Z"
         transform="matrix(0.33481955,0,0,0.33481955,-382.35938,-91)"
         clip-rule="evenodd"
         id="path23" />
    </clipPath>
    <clipPath
       clipPathUnits="userSpaceOnUse"
       id="clipPath24">
      <path
         d="M 0,0 H 1529.1666 V 669.01038 H 0 Z"
         transform="matrix(0.33481955,0,0,0.33481955,-178.20313,-203)"
         clip-rule="evenodd"
         id="path24" />
    </clipPath>
    <clipPath
       clipPathUnits="userSpaceOnUse"
       id="clipPath25">
      <path
         d="M 0,0 H 1529.1666 V 669.01038 H 0 Z"
         transform="matrix(0.33481955,0,0,0.33481955,-188.03125,-219)"
         clip-rule="evenodd"
         id="path25" />
    </clipPath>
  </defs>
  <sodipodi:namedview
     id="namedview1"
     pagecolor="#ffffff"
     bordercolor="#000000"
     borderopacity="0.25"
     inkscape:showpageshadow="2"
     inkscape:pageopacity="0.0"
     inkscape:pagecheckerboard="0"
     inkscape:deskcolor="#d1d1d1">
    <inkscape:page
       x="0"
       y="0"
       inkscape:label="1"
       id="page1"
       width="489.28"
       height="216"
       margin="0"
       bleed="0" />
  </sodipodi:namedview>
  <g
     id="g1"
     inkscape:groupmode="layer"
     inkscape:label="1">
    <path
       id="path1"
       d="M 0,0 H 512 V 226 H 0 Z"
       style="fill:#ffffff;fill-opacity:1;fill-rule:nonzero;stroke:none"
       transform="scale(0.95572911)"
       clip-path="url(#clipPath2)" />
    <path
       id="path3"
       d="M 1,1 H 201 V 41 H 1 Z"
       style="fill:#dae8fc;fill-opacity:1;fill-rule:nonzero;stroke:#6c8ebf;stroke-width:1;stroke-linecap:butt;stroke-linejoin:miter;stroke-miterlimit:10;stroke-dasharray:none;stroke-opacity:1"
       transform="matrix(0.95572911,0,0,0.95572911,0.47786455,0.47786455)"
       clip-path="url(#clipPath4)" />
    <text
       id="text4"
       xml:space="preserve"
       transform="matrix(0.95573865,0,0,0.95573865,43.127706,24.849205)"
       clip-path="url(#clipPath5)"><tspan
         style="font-variant:normal;font-weight:700;font-size:16px;font-family:Helvetica;writing-mode:lr-tb;fill:#000000;fill-opacity:1;fill-rule:nonzero;stroke:none"
         x="0 8.59375 17.492188 27.265625 36.164062 40.609375 45.054688 54.828125 60.15625 69.054688 75.28125 84.179688 93.953125 102.85156"
         y="0"
         sodipodi:role="line"
         id="tspan4">Type Inference</tspan></text>
    <path
       id="path6"
       d="m 151,120.5 h 100 v 40 H 151 Z"
       style="fill:#f5f5f5;fill-opacity:1;fill-rule:nonzero;stroke:#666666;stroke-width:1;stroke-linecap:butt;stroke-linejoin:miter;stroke-miterlimit:10;stroke-dasharray:none;stroke-opacity:1"
       transform="matrix(0.95572911,0,0,0.95572911,0.47786455,0.47786455)"
       clip-path="url(#clipPath7)" />
    <text
       id="text7"
       xml:space="preserve"
       transform="matrix(0.95573865,0,0,0.95573865,173.82497,139.53784)"
       clip-path="url(#clipPath8)"><tspan
         style="font-variant:normal;font-weight:normal;font-size:16px;font-family:Helvetica;writing-mode:lr-tb;fill:#333333;fill-opacity:1;fill-rule:nonzero;stroke:none"
         x="0 8 16.898438 25.796875 33.796875"
         y="0"
         sodipodi:role="line"
         id="tspan7">const</tspan></text>
    <path
       id="path9"
       d="m 251,120.5 h 100 v 40 H 251 Z"
       style="fill:#f5f5f5;fill-opacity:1;fill-rule:nonzero;stroke:#666666;stroke-width:1;stroke-linecap:butt;stroke-linejoin:miter;stroke-miterlimit:10;stroke-dasharray:none;stroke-opacity:1"
       transform="matrix(0.95572911,0,0,0.95572911,0.47786455,0.47786455)"
       clip-path="url(#clipPath10)" />
    <text
       id="text10"
       xml:space="preserve"
       transform="matrix(0.95573865,0,0,0.95573865,271.10124,139.53784)"
       clip-path="url(#clipPath11)"><tspan
         style="font-variant:normal;font-weight:normal;font-size:16px;font-family:Helvetica;writing-mode:lr-tb;fill:#333333;fill-opacity:1;fill-rule:nonzero;stroke:none"
         x="0 8 16.898438 20.453125 29.351562"
         y="0"
         sodipodi:role="line"
         id="tspan10">color</tspan></text>
    <path
       id="path12"
       d="m 351,120.5 h 40 v 40 h -40 z"
       style="fill:#f5f5f5;fill-opacity:1;fill-rule:nonzero;stroke:#666666;stroke-width:1;stroke-linecap:butt;stroke-linejoin:miter;stroke-miterlimit:10;stroke-dasharray:none;stroke-opacity:1"
       transform="matrix(0.95572911,0,0,0.95572911,0.47786455,0.47786455)"
       clip-path="url(#clipPath13)" />
    <text
       id="text13"
       xml:space="preserve"
       transform="matrix(0.95573865,0,0,0.95573865,350.11395,139.53784)"
       clip-path="url(#clipPath14)"><tspan
         style="font-variant:normal;font-weight:normal;font-size:16px;font-family:Helvetica;writing-mode:lr-tb;fill:#333333;fill-opacity:1;fill-rule:nonzero;stroke:none"
         x="0"
         y="0"
         id="tspan13">=</tspan></text>
    <path
       id="path15"
       d="m 391,120.5 h 100 v 40 H 391 Z"
       style="fill:#f5f5f5;fill-opacity:1;fill-rule:nonzero;stroke:#666666;stroke-width:1;stroke-linecap:butt;stroke-linejoin:miter;stroke-miterlimit:10;stroke-dasharray:none;stroke-opacity:1"
       transform="matrix(0.95572911,0,0,0.95572911,0.47786455,0.47786455)"
       clip-path="url(#clipPath16)" />
    <text
       id="text16"
       xml:space="preserve"
       transform="matrix(0.95573865,0,0,0.95573865,405.38252,139.53784)"
       clip-path="url(#clipPath17)"><tspan
         style="font-variant:normal;font-weight:normal;font-size:16px;font-family:Helvetica;writing-mode:lr-tb;fill:#333333;fill-opacity:1;fill-rule:nonzero;stroke:none"
         x="0 3.0546875 8.3828125 17.28125 26.179688 29.234375"
         y="0"
         sodipodi:role="line"
         id="tspan16">'red';</tspan></text>
    <path
       id="path18"
       d="m 261,5.5 h -5 c -3.33333,0 -5,3.333333 -5,10 v 80 c 0,6.66666 -1.66667,10 -5,10 h -2.5 c -1.66667,0 -0.83333,0 2.5,0 h 2.5 c 1.66667,0 2.5,3.33334 2.5,10 v 80 c 0,6.66667 1.66667,10 5,10 h 5"
       style="fill:none;stroke:#000000;stroke-width:1;stroke-linecap:butt;stroke-linejoin:miter;stroke-miterlimit:10;stroke-dasharray:none;stroke-opacity:1"
       transform="matrix(0,0.95572911,-0.95572911,0,341.1953,-138.58072)"
       clip-path="url(#clipPath19)" />
    <path
       id="path20"
       d="m 451,55.5 h -5 c -3.33334,0 -5,3.333332 -5,10 v 30 c 0,6.66666 -1.66666,10 -5,10 h -2.5 c -1.66666,0 -0.83334,0 2.5,0 h 2.5 c 1.66666,0 2.5,3.33334 2.5,10 v 30 c 0,6.66667 1.66666,10 5,10 h 5"
       style="fill:none;stroke:#000000;stroke-width:1;stroke-linecap:butt;stroke-linejoin:miter;stroke-miterlimit:10;stroke-dasharray:none;stroke-opacity:1"
       transform="matrix(0,0.95572911,-0.95572911,0,522.78381,-320.16924)"
       clip-path="url(#clipPath21)" />
    <text
       id="text21"
       xml:space="preserve"
       transform="matrix(0.95573865,0,0,0.95573865,184.87569,86.972217)"
       clip-path="url(#clipPath22)"><tspan
         style="font-style:oblique;font-variant:normal;font-weight:normal;font-size:13px;font-family:Helvetica;writing-mode:lr-tb;fill:#000000;fill-opacity:1;fill-rule:nonzero;stroke:none"
         x="0 7.7124023 14.942383 19.271484 22.159668 29.389648 36.619629 39.507812 46.737793 50.349609 59.737793 66.967773 73.467773 76.355957 83.585938 87.915039 95.14502 98.756836 101.64502 108.875"
         y="0"
         sodipodi:role="line"
         id="tspan21">Variable Declaration</tspan></text>
    <text
       id="text22"
       xml:space="preserve"
       transform="matrix(0.95573865,0,0,0.95573865,365.43564,86.972217)"
       clip-path="url(#clipPath23)"><tspan
         style="font-style:oblique;font-variant:normal;font-weight:normal;font-size:13px;font-family:Helvetica;writing-mode:lr-tb;fill:#000000;fill-opacity:1;fill-rule:nonzero;stroke:none"
         x="0 7.7124023 14.942383 19.271484 22.159668 29.389648 36.619629 39.507812 46.737793 50.349609 53.961426 61.191406 64.07959 67.691406 70.57959 77.80957 80.697754 83.585938 90.085938 97.315918 100.92773 103.81592 111.0459"
         y="0"
         sodipodi:role="line"
         id="tspan22">Variable Initialization</tspan></text>
    <text
       id="text23"
       xml:space="preserve"
       transform="matrix(0.95573865,0,0,0.95573865,170.31562,194.01495)"
       clip-path="url(#clipPath24)"><tspan
         style="font-style:oblique;font-variant:normal;font-weight:normal;font-size:13px;font-family:Helvetica;writing-mode:lr-tb;fill:#000000;fill-opacity:1;fill-rule:nonzero;stroke:none"
         x="0 3.6118164 7.2236328 10.835449 18.06543 25.29541 31.79541 34.683594 41.913574 46.242676 53.472656 57.084473 59.972656 67.202637 74.432617 78.044434 85.274414 92.504395 99.734375 103.34619 106.23438 113.46436 116.35254 119.96436 122.85254 130.08252 132.9707 135.85889 142.35889 149.58887 153.20068 156.08887 163.31885 170.54883 174.16064 181.39062 185.71973 192.94971 196.56152 203.7915 211.02148 214.6333 218.24512 225.4751 232.70508 236.31689 242.81689 250.04688 260.87598 268.10596 271.71777 274.60596 277.49414 284.72412 291.9541"
         y="0"
         sodipodi:role="line"
         id="tspan23">If declaration and initialization are on the same line,</tspan></text>
    <g
       id="g24" />
    <text
       id="text24"
       xml:space="preserve"
       transform="matrix(0.95573865,0,0,0.95573865,179.70873,209.30676)"
       clip-path="url(#clipPath25)"><tspan
         style="font-style:oblique;font-variant:normal;font-weight:normal;font-size:13px;font-family:Helvetica;writing-mode:lr-tb;fill:#000000;fill-opacity:1;fill-rule:nonzero;stroke:none"
         x="0 7.2299805 13.72998 20.959961 28.189941 34.689941 41.189941 45.519043 48.407227 55.637207 59.249023 62.86084 72.249023 75.137207 78.025391 80.913574 84.525391 91.025391 98.255371 105.48535 109.81445 117.04443 120.65625 127.88623 135.11621 138.72803 142.33984 145.95166 153.18164 160.41162 164.02344 167.63525 174.13525 181.36523 188.59521 192.20703 199.43701 203.04883 206.66064 209.14258 215.64258 222.87256 225.76074 232.99072 237.31982 239.80176 243.41357 247.02539 254.25537 258.58447 262.19629 269.42627"
         y="0"
         sodipodi:role="line"
         id="tspan24">Typescript will ﬁgure out the type of 'color' for us</tspan></text>
  </g>
</svg>
