<?xml version="1.0" encoding="UTF-8" standalone="no"?>
<!-- Created with Inkscape (http://www.inkscape.org/) -->

<svg
   version="1.1"
   id="svg1"
   width="515.84003"
   height="261.44"
   viewBox="0 0 515.84003 261.44"
   sodipodi:docname="ts-6.pdf"
   xmlns:inkscape="http://www.inkscape.org/namespaces/inkscape"
   xmlns:sodipodi="http://sodipodi.sourceforge.net/DTD/sodipodi-0.dtd"
   xmlns="http://www.w3.org/2000/svg"
   xmlns:svg="http://www.w3.org/2000/svg">
  <defs
     id="defs1">
    <clipPath
       clipPathUnits="userSpaceOnUse"
       id="clipPath2">
      <path
         d="M 0,0 H 1612.4999 V 813.72906 H 0 Z"
         transform="scale(0.33426358)"
         clip-rule="evenodd"
         id="path2" />
    </clipPath>
    <clipPath
       clipPathUnits="userSpaceOnUse"
       id="clipPath4">
      <path
         d="M 0,0 H 1612.4999 V 810.73743 H 0 Z"
         transform="matrix(0.33426358,0,0,0.33426358,-0.49999999,-0.49999999)"
         clip-rule="evenodd"
         id="path4" />
    </clipPath>
    <clipPath
       clipPathUnits="userSpaceOnUse"
       id="clipPath6">
      <path
         d="M 0,0 H 1612.4999 V 810.73743 H 0 Z"
         transform="matrix(0.33426358,0,0,0.33426358,-0.49999999,-0.49999999)"
         clip-rule="evenodd"
         id="path6" />
    </clipPath>
    <clipPath
       clipPathUnits="userSpaceOnUse"
       id="clipPath8">
      <path
         d="M 0,0 H 1612.4999 V 810.73743 H 0 Z"
         transform="matrix(0.33426358,0,0,0.33426358,-0.49999999,-0.49999999)"
         clip-rule="evenodd"
         id="path8" />
    </clipPath>
    <clipPath
       clipPathUnits="userSpaceOnUse"
       id="clipPath10">
      <path
         d="M 0,0 H 1612.4999 V 810.73743 H 0 Z"
         transform="matrix(0.33426358,0,0,0.33426358,-0.49999999,-0.49999999)"
         clip-rule="evenodd"
         id="path10" />
    </clipPath>
    <clipPath
       clipPathUnits="userSpaceOnUse"
       id="clipPath12">
      <path
         d="M 0,0 H 1612.4999 V 810.73743 H 0 Z"
         transform="matrix(0.33426358,0,0,0.33426358,-0.49999999,-0.49999999)"
         clip-rule="evenodd"
         id="path12" />
    </clipPath>
    <clipPath
       clipPathUnits="userSpaceOnUse"
       id="clipPath14">
      <path
         d="M 0,0 H 1612.4999 V 810.73743 H 0 Z"
         transform="matrix(0.33426358,0,0,0.33426358,-0.49999999,-0.49999999)"
         clip-rule="evenodd"
         id="path14" />
    </clipPath>
    <clipPath
       clipPathUnits="userSpaceOnUse"
       id="clipPath15">
      <path
         d="M 0,0 H 1612.4999 V 810.73743 H 0 Z"
         transform="matrix(0.33426023,0,0,0.33426023,-28.953125,-86)"
         clip-rule="evenodd"
         id="path15" />
    </clipPath>
    <clipPath
       clipPathUnits="userSpaceOnUse"
       id="clipPath17">
      <path
         d="M 0,0 H 1612.4999 V 810.73743 H 0 Z"
         transform="matrix(0.33426358,0,0,0.33426358,-0.49999999,-0.49999999)"
         clip-rule="evenodd"
         id="path17" />
    </clipPath>
    <clipPath
       clipPathUnits="userSpaceOnUse"
       id="clipPath18">
      <path
         d="M 0,0 H 1612.4999 V 810.73743 H 0 Z"
         transform="matrix(0.33426023,0,0,0.33426023,-351.15625,-86)"
         clip-rule="evenodd"
         id="path18" />
    </clipPath>
    <clipPath
       clipPathUnits="userSpaceOnUse"
       id="clipPath19">
      <path
         d="M 0,0 H 1612.4999 V 810.73743 H 0 Z"
         transform="matrix(0.33426023,0,0,0.33426023,-40.5,-14)"
         clip-rule="evenodd"
         id="path19" />
    </clipPath>
    <clipPath
       clipPathUnits="userSpaceOnUse"
       id="clipPath20">
      <path
         d="M 0,0 H 1612.4999 V 810.73743 H 0 Z"
         transform="matrix(0.33426023,0,0,0.33426023,-44.34375,-34)"
         clip-rule="evenodd"
         id="path20" />
    </clipPath>
    <clipPath
       clipPathUnits="userSpaceOnUse"
       id="clipPath21">
      <path
         d="M 0,0 H 1612.4999 V 810.73743 H 0 Z"
         transform="matrix(0.33426023,0,0,0.33426023,-353.01563,-14)"
         clip-rule="evenodd"
         id="path21" />
    </clipPath>
    <clipPath
       clipPathUnits="userSpaceOnUse"
       id="clipPath22">
      <path
         d="M 0,0 H 1612.4999 V 810.73743 H 0 Z"
         transform="matrix(0.33426023,0,0,0.33426023,-393.03125,-34)"
         clip-rule="evenodd"
         id="path22" />
    </clipPath>
    <clipPath
       clipPathUnits="userSpaceOnUse"
       id="clipPath24">
      <path
         d="M 0,0 H 1612.4999 V 810.73743 H 0 Z"
         transform="matrix(0.33426358,0,0,0.33426358,-0.49999999,-0.49999999)"
         clip-rule="evenodd"
         id="path24" />
    </clipPath>
    <clipPath
       clipPathUnits="userSpaceOnUse"
       id="clipPath25">
      <path
         d="M 0,0 H 1612.4999 V 810.73743 H 0 Z"
         transform="matrix(0.33426023,0,0,0.33426023,-9.09375,-206)"
         clip-rule="evenodd"
         id="path25" />
    </clipPath>
    <clipPath
       clipPathUnits="userSpaceOnUse"
       id="clipPath26">
      <path
         d="M 0,0 H 1612.4999 V 810.73743 H 0 Z"
         transform="matrix(0.33426023,0,0,0.33426023,-41.984375,-222)"
         clip-rule="evenodd"
         id="path26" />
    </clipPath>
    <clipPath
       clipPathUnits="userSpaceOnUse"
       id="clipPath28">
      <path
         d="M 0,0 H 1612.4999 V 810.73743 H 0 Z"
         transform="matrix(0.33426358,0,0,0.33426358,-0.49999999,-0.49999999)"
         clip-rule="evenodd"
         id="path28" />
    </clipPath>
    <clipPath
       clipPathUnits="userSpaceOnUse"
       id="clipPath30">
      <path
         d="M 0,0 H 1612.4999 V 810.73743 H 0 Z"
         transform="matrix(0.33426358,0,0,0.33426358,-0.49999999,-0.49999999)"
         clip-rule="evenodd"
         id="path30" />
    </clipPath>
    <clipPath
       clipPathUnits="userSpaceOnUse"
       id="clipPath32">
      <path
         d="M 0,0 H 1612.4999 V 810.73743 H 0 Z"
         transform="matrix(0.33426358,0,0,0.33426358,-0.49999999,-0.49999999)"
         clip-rule="evenodd"
         id="path32" />
    </clipPath>
    <clipPath
       clipPathUnits="userSpaceOnUse"
       id="clipPath33">
      <path
         d="M 0,0 H 1612.4999 V 810.73743 H 0 Z"
         transform="matrix(0.33426023,0,0,0.33426023,-398.59375,-174)"
         clip-rule="evenodd"
         id="path33" />
    </clipPath>
    <clipPath
       clipPathUnits="userSpaceOnUse"
       id="clipPath34">
      <path
         d="M 0,0 H 1612.4999 V 810.73743 H 0 Z"
         transform="matrix(0.33426023,0,0,0.33426023,-425.3125,-137)"
         clip-rule="evenodd"
         id="path34" />
    </clipPath>
    <clipPath
       clipPathUnits="userSpaceOnUse"
       id="clipPath35">
      <path
         d="M 0,0 H 1612.4999 V 810.73743 H 0 Z"
         transform="matrix(0.33426023,0,0,0.33426023,-115.3125,-137)"
         clip-rule="evenodd"
         id="path35" />
    </clipPath>
    <clipPath
       clipPathUnits="userSpaceOnUse"
       id="clipPath37">
      <path
         d="M 0,0 H 1612.4999 V 810.73743 H 0 Z"
         transform="matrix(0.33426358,0,0,0.33426358,-0.49999999,-0.49999999)"
         clip-rule="evenodd"
         id="path37" />
    </clipPath>
    <clipPath
       clipPathUnits="userSpaceOnUse"
       id="clipPath38">
      <path
         d="M 0,0 H 1612.4999 V 810.73743 H 0 Z"
         transform="matrix(0.33426023,0,0,0.33426023,-9.8281251,-246)"
         clip-rule="evenodd"
         id="path38" />
    </clipPath>
    <clipPath
       clipPathUnits="userSpaceOnUse"
       id="clipPath39">
      <path
         d="M 0,0 H 1612.4999 V 810.73743 H 0 Z"
         transform="matrix(0.33426023,0,0,0.33426023,-37.84375,-262)"
         clip-rule="evenodd"
         id="path39" />
    </clipPath>
    <clipPath
       clipPathUnits="userSpaceOnUse"
       id="clipPath41">
      <path
         d="M 0,0 H 1612.4999 V 810.73743 H 0 Z"
         transform="matrix(0.33426358,0,0,0.33426358,-0.49999999,-0.49999999)"
         clip-rule="evenodd"
         id="path41" />
    </clipPath>
    <clipPath
       clipPathUnits="userSpaceOnUse"
       id="clipPath42">
      <path
         d="M 0,0 H 1612.4999 V 810.73743 H 0 Z"
         transform="matrix(0.33426023,0,0,0.33426023,-2.28125,-166)"
         clip-rule="evenodd"
         id="path42" />
    </clipPath>
    <clipPath
       clipPathUnits="userSpaceOnUse"
       id="clipPath43">
      <path
         d="M 0,0 H 1612.4999 V 810.73743 H 0 Z"
         transform="matrix(0.33426023,0,0,0.33426023,-19.578125,-182)"
         clip-rule="evenodd"
         id="path43" />
    </clipPath>
  </defs>
  <sodipodi:namedview
     id="namedview1"
     pagecolor="#ffffff"
     bordercolor="#000000"
     borderopacity="0.25"
     inkscape:showpageshadow="2"
     inkscape:pageopacity="0.0"
     inkscape:pagecheckerboard="0"
     inkscape:deskcolor="#d1d1d1">
    <inkscape:page
       x="0"
       y="0"
       inkscape:label="1"
       id="page1"
       width="515.84003"
       height="261.44"
       margin="0"
       bleed="0" />
  </sodipodi:namedview>
  <g
     id="g1"
     inkscape:groupmode="layer"
     inkscape:label="1">
    <path
       id="path1"
       d="M 0,0 H 539 V 272 H 0 Z"
       style="fill:#ffffff;fill-opacity:1;fill-rule:nonzero;stroke:none"
       transform="scale(0.95732831)"
       clip-path="url(#clipPath2)" />
    <path
       id="path3"
       d="M 212.37,79 H 319.64001"
       style="fill:none;stroke:#000000;stroke-width:1;stroke-linecap:butt;stroke-linejoin:miter;stroke-miterlimit:10;stroke-dasharray:none;stroke-opacity:1"
       transform="matrix(0.95732831,0,0,0.95732831,0.47866415,0.47866415)"
       clip-path="url(#clipPath4)" />
    <path
       id="path5"
       d="m 207.12,79 7,-3.5 -1.75,3.5 1.75,3.5 z"
       style="fill:#000000;fill-opacity:1;fill-rule:nonzero;stroke:#000000;stroke-width:1;stroke-linecap:butt;stroke-linejoin:miter;stroke-miterlimit:10;stroke-dasharray:none;stroke-opacity:1"
       transform="matrix(0.95732831,0,0,0.95732831,0.47866415,0.47866415)"
       clip-path="url(#clipPath6)" />
    <path
       id="path7"
       d="m 324.89001,79 -7,3.5 1.75,-3.5 -1.75,-3.5 z"
       style="fill:#000000;fill-opacity:1;fill-rule:nonzero;stroke:#000000;stroke-width:1;stroke-linecap:butt;stroke-linejoin:miter;stroke-miterlimit:10;stroke-dasharray:none;stroke-opacity:1"
       transform="matrix(0.95732831,0,0,0.95732831,0.47866415,0.47866415)"
       clip-path="url(#clipPath8)" />
    <path
       id="path9"
       d="m 111,119 v 23.63"
       style="fill:none;stroke:#000000;stroke-width:1;stroke-linecap:butt;stroke-linejoin:miter;stroke-miterlimit:10;stroke-dasharray:none;stroke-opacity:1"
       transform="matrix(0.95732831,0,0,0.95732831,0.47866415,0.47866415)"
       clip-path="url(#clipPath10)" />
    <path
       id="path11"
       d="m 111,147.88 -3.5,-7 3.5,1.75 3.5,-1.75 z"
       style="fill:#000000;fill-opacity:1;fill-rule:nonzero;stroke:#000000;stroke-width:1;stroke-linecap:butt;stroke-linejoin:miter;stroke-miterlimit:10;stroke-dasharray:none;stroke-opacity:1"
       transform="matrix(0.95732831,0,0,0.95732831,0.47866415,0.47866415)"
       clip-path="url(#clipPath12)" />
    <path
       id="path13"
       d="m 16,39 h 190 v 80 H 16 Z"
       style="fill:#dae8fc;fill-opacity:1;fill-rule:nonzero;stroke:#6c8ebf;stroke-width:1;stroke-linecap:butt;stroke-linejoin:miter;stroke-miterlimit:10;stroke-dasharray:none;stroke-opacity:1"
       transform="matrix(0.95732831,0,0,0.95732831,0.47866415,0.47866415)"
       clip-path="url(#clipPath14)" />
    <text
       id="text14"
       xml:space="preserve"
       transform="matrix(0.95733791,0,0,0.95733791,27.717924,82.33106)"
       clip-path="url(#clipPath15)"><tspan
         style="font-variant:normal;font-weight:700;font-size:20px;font-family:Helvetica;writing-mode:lr-tb;fill:#000000;fill-opacity:1;fill-rule:nonzero;stroke:none"
         x="0 10.742188 21.865234 34.082031 45.205078 50.761719 61.884766 74.101562 86.318359 98.535156 105.19531 116.31836 122.97852 128.53516 140.75195 152.96875"
         y="0"
         sodipodi:role="line"
         id="tspan14">Type annotations</tspan></text>
    <path
       id="path16"
       d="m 326,39 h 190 v 80 H 326 Z"
       style="fill:#d5e8d4;fill-opacity:1;fill-rule:nonzero;stroke:#82b366;stroke-width:1;stroke-linecap:butt;stroke-linejoin:miter;stroke-miterlimit:10;stroke-dasharray:none;stroke-opacity:1"
       transform="matrix(0.95732831,0,0,0.95732831,0.47866415,0.47866415)"
       clip-path="url(#clipPath17)" />
    <text
       id="text17"
       xml:space="preserve"
       transform="matrix(0.95733791,0,0,0.95733791,336.17519,82.33106)"
       clip-path="url(#clipPath18)"><tspan
         style="font-variant:normal;font-weight:700;font-size:20px;font-family:Helvetica;writing-mode:lr-tb;fill:#000000;fill-opacity:1;fill-rule:nonzero;stroke:none"
         x="0 10.742188 21.865234 34.082031 45.205078 50.761719 56.318359 68.535156 75.195312 86.318359 94.101562 105.22461 117.44141 128.56445"
         y="0"
         sodipodi:role="line"
         id="tspan17">Type inference</tspan></text>
    <text
       id="text18"
       xml:space="preserve"
       transform="matrix(0.95733791,0,0,0.95733791,38.772185,13.402731)"
       clip-path="url(#clipPath19)"><tspan
         style="font-variant:normal;font-weight:normal;font-size:16px;font-family:Helvetica;writing-mode:lr-tb;fill:#000000;fill-opacity:1;fill-rule:nonzero;stroke:none"
         x="0 14.820312 23.71875 28.164062 33.492188 42.390625 51.289062 59.289062 68.1875 71.742188 80.640625 89.539062 98.4375 103.76562 111.76562 117.09375 121.53906 125.98438 134.88281 138.4375"
         y="0"
         sodipodi:role="line"
         id="tspan18">We (developers) tell</tspan></text>
    <text
       id="text19"
       xml:space="preserve"
       transform="matrix(0.95733791,0,0,0.95733791,42.451953,32.549489)"
       clip-path="url(#clipPath20)"><tspan
         style="font-variant:normal;font-weight:normal;font-size:16px;font-family:Helvetica;writing-mode:lr-tb;fill:#000000;fill-opacity:1;fill-rule:nonzero;stroke:none"
         x="0 8.8984375 16.898438 25.796875 34.695312 42.695312 50.695312 56.023438 59.578125 68.476562 72.921875 77.367188 81.8125 90.710938 99.609375 104.05469 108.5 116.5 125.39844"
         y="0"
         sodipodi:role="line"
         id="tspan19">Typescript the type</tspan></text>
    <text
       id="text20"
       xml:space="preserve"
       transform="matrix(0.95733791,0,0,0.95733791,337.95525,13.402731)"
       clip-path="url(#clipPath21)"><tspan
         style="font-variant:normal;font-weight:normal;font-size:16px;font-family:Helvetica;writing-mode:lr-tb;fill:#000000;fill-opacity:1;fill-rule:nonzero;stroke:none"
         x="0 8.8984375 16.898438 25.796875 34.695312 42.695312 50.695312 56.023438 59.578125 68.476562 72.921875 77.367188 86.265625 95.164062 104.0625 112.0625 120.0625 128.96094"
         y="0"
         sodipodi:role="line"
         id="tspan20">Typescript guesses</tspan></text>
    <text
       id="text21"
       xml:space="preserve"
       transform="matrix(0.95733791,0,0,0.95733791,376.26372,32.549489)"
       clip-path="url(#clipPath22)"><tspan
         style="font-variant:normal;font-weight:normal;font-size:16px;font-family:Helvetica;writing-mode:lr-tb;fill:#000000;fill-opacity:1;fill-rule:nonzero;stroke:none"
         x="0 4.4453125 13.34375 22.242188 26.6875 31.132812 39.132812 48.03125"
         y="0"
         sodipodi:role="line"
         id="tspan21">the type</tspan></text>
    <path
       id="path23"
       d="m 1,189 h 220 v 40 H 1 Z"
       style="fill:#ffffff;fill-opacity:1;fill-rule:nonzero;stroke:#000000;stroke-width:1;stroke-linecap:butt;stroke-linejoin:miter;stroke-miterlimit:10;stroke-dasharray:none;stroke-opacity:1"
       transform="matrix(0.95732831,0,0,0.95732831,0.47866415,0.47866415)"
       clip-path="url(#clipPath24)" />
    <text
       id="text24"
       xml:space="preserve"
       transform="matrix(0.95733791,0,0,0.95733791,8.7057916,197.21161)"
       clip-path="url(#clipPath25)"><tspan
         style="font-variant:normal;font-weight:normal;font-size:13px;font-family:Helvetica;writing-mode:lr-tb;fill:#000000;fill-opacity:1;fill-rule:nonzero;stroke:none"
         x="0 12.27002 19.5 26.72998 33.959961 37.571777 46.959961 54.189941 57.801758 65.031738 72.261719 78.761719 81.649902 88.879883 93.208984 100.43896 104.05078 111.28076 114.89258 121.39258 128.62256 132.95166 135.83984 143.06982 150.2998 153.18799 160.41797 164.02979 171.25977 178.48975 182.10156 189.33154 196.56152"
         y="0"
         sodipodi:role="line"
         id="tspan24">When we declare a variable on one</tspan></text>
    <text
       id="text25"
       xml:space="preserve"
       transform="matrix(0.95733791,0,0,0.95733791,40.193234,212.52902)"
       clip-path="url(#clipPath26)"><tspan
         style="font-variant:normal;font-weight:normal;font-size:13px;font-family:Helvetica;writing-mode:lr-tb;fill:#000000;fill-opacity:1;fill-rule:nonzero;stroke:none"
         x="0 2.8881836 5.7763672 13.006348 20.236328 23.848145 27.459961 34.689941 41.919922 49.149902 52.761719 55.649902 62.879883 65.768066 69.379883 72.268066 79.498047 82.38623 85.274414 91.774414 99.004395 102.61621 105.50439 109.11621 112.72803 115.61621 122.84619 126.45801 133.68799"
         y="0"
         sodipodi:role="line"
         id="tspan25">line then initialize it later</tspan></text>
    <path
       id="path27"
       d="m 421,119 0.5,21 -0.14999,2.64"
       style="fill:none;stroke:#000000;stroke-width:1;stroke-linecap:butt;stroke-linejoin:miter;stroke-miterlimit:10;stroke-dasharray:none;stroke-opacity:1"
       transform="matrix(0.95732831,0,0,0.95732831,0.47866415,0.47866415)"
       clip-path="url(#clipPath28)" />
    <path
       id="path29"
       d="m 421.06,147.89 -3.10001,-7.19 3.39002,1.94 3.58999,-1.55 z"
       style="fill:#000000;fill-opacity:1;fill-rule:nonzero;stroke:#000000;stroke-width:1;stroke-linecap:butt;stroke-linejoin:miter;stroke-miterlimit:10;stroke-dasharray:none;stroke-opacity:1"
       transform="matrix(0.95732831,0,0,0.95732831,0.47866415,0.47866415)"
       clip-path="url(#clipPath30)" />
    <path
       id="path31"
       d="m 346,149 h 150 v 40 H 346 Z"
       style="fill:#ffffff;fill-opacity:1;fill-rule:nonzero;stroke:#000000;stroke-width:1;stroke-linecap:butt;stroke-linejoin:miter;stroke-miterlimit:10;stroke-dasharray:none;stroke-opacity:1"
       transform="matrix(0.95732831,0,0,0.95732831,0.47866415,0.47866415)"
       clip-path="url(#clipPath32)" />
    <text
       id="text32"
       xml:space="preserve"
       transform="matrix(0.95733791,0,0,0.95733791,381.58891,166.5768)"
       clip-path="url(#clipPath33)"><tspan
         style="font-variant:normal;font-weight:normal;font-size:13px;font-family:Helvetica;writing-mode:lr-tb;fill:#000000;fill-opacity:1;fill-rule:nonzero;stroke:none"
         x="0 8.6708984 11.559082 20.947266 28.177246 34.677246 41.177246"
         y="0"
         sodipodi:role="line"
         id="tspan32">Always!</tspan></text>
    <text
       id="text33"
       xml:space="preserve"
       transform="matrix(0.95733791,0,0,0.95733791,407.16778,131.15529)"
       clip-path="url(#clipPath34)"><tspan
         style="font-style:oblique;font-variant:normal;font-weight:normal;font-size:12px;font-family:Helvetica;writing-mode:lr-tb;fill:#000000;fill-opacity:1;fill-rule:nonzero;stroke:none"
         x="0 11.326172 18 24.673828 31.347656 34.681641 38.015625 44.689453 48.023438 54.697266 60.697266 67.371094 70.705078 74.039062"
         y="0"
         sodipodi:role="line"
         id="tspan33">When to use...</tspan></text>
    <text
       id="text34"
       xml:space="preserve"
       transform="matrix(0.95733791,0,0,0.95733791,110.39303,131.15529)"
       clip-path="url(#clipPath35)"><tspan
         style="font-style:oblique;font-variant:normal;font-weight:normal;font-size:12px;font-family:Helvetica;writing-mode:lr-tb;fill:#000000;fill-opacity:1;fill-rule:nonzero;stroke:none"
         x="0 11.326172 18 24.673828 31.347656 34.681641 38.015625 44.689453 48.023438 54.697266 60.697266 67.371094 70.705078 74.039062"
         y="0"
         sodipodi:role="line"
         id="tspan34">When to use...</tspan></text>
    <path
       id="path36"
       d="m 1,229 h 220 v 40 H 1 Z"
       style="fill:#ffffff;fill-opacity:1;fill-rule:nonzero;stroke:#000000;stroke-width:1;stroke-linecap:butt;stroke-linejoin:miter;stroke-miterlimit:10;stroke-dasharray:none;stroke-opacity:1"
       transform="matrix(0.95732831,0,0,0.95732831,0.47866415,0.47866415)"
       clip-path="url(#clipPath37)" />
    <text
       id="text37"
       xml:space="preserve"
       transform="matrix(0.95733791,0,0,0.95733791,9.4088367,235.50513)"
       clip-path="url(#clipPath38)"><tspan
         style="font-variant:normal;font-weight:normal;font-size:13px;font-family:Helvetica;writing-mode:lr-tb;fill:#000000;fill-opacity:1;fill-rule:nonzero;stroke:none"
         x="0 12.27002 19.5 26.72998 33.959961 37.571777 46.959961 54.189941 57.801758 67.189941 74.419922 81.649902 85.261719 88.873535 96.103516 99.715332 106.21533 113.44531 117.77441 120.6626 127.89258 135.12256 138.01074 145.24072 148.85254 152.46436 159.69434 163.30615 170.53613 177.76611 184.26611 191.49609 195.10791"
         y="0"
         sodipodi:role="line"
         id="tspan37">When we want a variable to have a</tspan></text>
    <text
       id="text38"
       xml:space="preserve"
       transform="matrix(0.95733791,0,0,0.95733791,36.229257,250.82253)"
       clip-path="url(#clipPath39)"><tspan
         style="font-variant:normal;font-weight:normal;font-size:13px;font-family:Helvetica;writing-mode:lr-tb;fill:#000000;fill-opacity:1;fill-rule:nonzero;stroke:none"
         x="0 3.6118164 10.111816 17.341797 24.571777 28.183594 31.79541 39.025391 46.255371 49.867188 53.479004 59.979004 67.208984 74.438965 76.920898 80.532715 84.144531 91.374512 98.604492 102.21631 105.10449 112.33447 115.94629 123.17627 127.50537 131.83447 139.06445"
         y="0"
         sodipodi:role="line"
         id="tspan38">type that can't be inferred</tspan></text>
    <path
       id="path40"
       d="m 1,149 h 220 v 40 H 1 Z"
       style="fill:#ffffff;fill-opacity:1;fill-rule:nonzero;stroke:#000000;stroke-width:1;stroke-linecap:butt;stroke-linejoin:miter;stroke-miterlimit:10;stroke-dasharray:none;stroke-opacity:1"
       transform="matrix(0.95732831,0,0,0.95732831,0.47866415,0.47866415)"
       clip-path="url(#clipPath41)" />
    <text
       id="text41"
       xml:space="preserve"
       transform="matrix(0.95733791,0,0,0.95733791,2.1839271,158.91809)"
       clip-path="url(#clipPath42)"><tspan
         style="font-variant:normal;font-weight:normal;font-size:13px;font-family:Helvetica;writing-mode:lr-tb;fill:#000000;fill-opacity:1;fill-rule:nonzero;stroke:none"
         x="0 12.27002 19.5 26.72998 33.959961 37.571777 44.801758 48.413574 52.025391 59.255371 66.485352 72.985352 76.597168 79.485352 86.715332 93.945312 97.557129 101.88623 109.11621 112.72803 119.95801 124.28711 131.51709 138.01709 141.62891 145.24072 152.4707 159.70068 163.3125 165.79443 173.02441 180.25439 186.75439 189.23633 192.84814 196.45996 202.95996 210.18994"
         y="0"
         sodipodi:role="line"
         id="tspan41">When a function returns the 'any' type</tspan></text>
    <text
       id="text42"
       xml:space="preserve"
       transform="matrix(0.95733791,0,0,0.95733791,18.742881,174.2355)"
       clip-path="url(#clipPath43)"><tspan
         style="font-variant:normal;font-weight:normal;font-size:13px;font-family:Helvetica;writing-mode:lr-tb;fill:#000000;fill-opacity:1;fill-rule:nonzero;stroke:none"
         x="0 7.2299805 14.459961 21.689941 25.301758 34.689941 41.919922 45.531738 52.761719 59.991699 67.22168 74.45166 78.063477 81.675293 88.905273 92.51709 99.01709 101.90527 109.13525 113.46436 116.35254 119.96436 126.46436 130.07617 133.68799 140.91797 148.14795 151.75977 158.25977 165.48975 168.37793 175.60791"
         y="0"
         sodipodi:role="line"
         id="tspan42">and we need to clarify the value</tspan></text>
  </g>
</svg>
