<?xml version="1.0" encoding="UTF-8" standalone="no"?>
<!-- Created with Inkscape (http://www.inkscape.org/) -->

<svg
   version="1.1"
   id="svg1"
   width="472"
   height="176"
   viewBox="0 0 472 176"
   sodipodi:docname="ts-7.pdf"
   xmlns:inkscape="http://www.inkscape.org/namespaces/inkscape"
   xmlns:sodipodi="http://sodipodi.sourceforge.net/DTD/sodipodi-0.dtd"
   xmlns="http://www.w3.org/2000/svg"
   xmlns:svg="http://www.w3.org/2000/svg">
  <defs
     id="defs1">
    <clipPath
       clipPathUnits="userSpaceOnUse"
       id="clipPath2">
      <path
         d="M 0,0 H 1475 V 548.62805 H 0 Z"
         transform="scale(0.33355932)"
         clip-rule="evenodd"
         id="path2" />
    </clipPath>
    <clipPath
       clipPathUnits="userSpaceOnUse"
       id="clipPath4">
      <path
         d="M 0,0 H 1475 V 542.63214 H 0 Z"
         transform="matrix(0.33355932,0,0,0.33355932,-0.5,-0.5)"
         clip-rule="evenodd"
         id="path4" />
    </clipPath>
    <clipPath
       clipPathUnits="userSpaceOnUse"
       id="clipPath6">
      <path
         d="M 0,0 H 1475 V 542.63214 H 0 Z"
         transform="matrix(0.33355932,0,0,0.33355932,-0.5,-0.5)"
         clip-rule="evenodd"
         id="path6" />
    </clipPath>
    <clipPath
       clipPathUnits="userSpaceOnUse"
       id="clipPath8">
      <path
         d="M 0,0 H 1475 V 542.63214 H 0 Z"
         transform="matrix(0.33355932,0,0,0.33355932,-0.5,-0.5)"
         clip-rule="evenodd"
         id="path8" />
    </clipPath>
    <clipPath
       clipPathUnits="userSpaceOnUse"
       id="clipPath9">
      <path
         d="M 0,0 H 1475 V 542.63214 H 0 Z"
         transform="matrix(0.33355598,0,0,0.33355598,-171.54688,-34)"
         clip-rule="evenodd"
         id="path9" />
    </clipPath>
    <clipPath
       clipPathUnits="userSpaceOnUse"
       id="clipPath11">
      <path
         d="M 0,0 H 1475 V 542.63214 H 0 Z"
         transform="matrix(0.33355932,0,0,0.33355932,-0.5,-0.5)"
         clip-rule="evenodd"
         id="path11" />
    </clipPath>
    <clipPath
       clipPathUnits="userSpaceOnUse"
       id="clipPath12">
      <path
         d="M 0,0 H 1475 V 542.63214 H 0 Z"
         transform="matrix(0.33355598,0,0,0.33355598,-241,-34)"
         clip-rule="evenodd"
         id="path12" />
    </clipPath>
    <clipPath
       clipPathUnits="userSpaceOnUse"
       id="clipPath14">
      <path
         d="M 0,0 H 1475 V 542.63214 H 0 Z"
         transform="matrix(0.33355932,0,0,0.33355932,-0.5,-0.5)"
         clip-rule="evenodd"
         id="path14" />
    </clipPath>
    <clipPath
       clipPathUnits="userSpaceOnUse"
       id="clipPath15">
      <path
         d="M 0,0 H 1475 V 542.63214 H 0 Z"
         transform="matrix(0.33355598,0,0,0.33355598,-141,-164)"
         clip-rule="evenodd"
         id="path15" />
    </clipPath>
    <clipPath
       clipPathUnits="userSpaceOnUse"
       id="clipPath17">
      <path
         d="M 0,0 H 1475 V 542.63214 H 0 Z"
         transform="matrix(0.33355932,0,0,0.33355932,-0.5,-0.5)"
         clip-rule="evenodd"
         id="path17" />
    </clipPath>
    <clipPath
       clipPathUnits="userSpaceOnUse"
       id="clipPath18">
      <path
         d="M 0,0 H 1475 V 542.63214 H 0 Z"
         transform="matrix(0.33355598,0,0,0.33355598,-259.3125,-164)"
         clip-rule="evenodd"
         id="path18" />
    </clipPath>
    <clipPath
       clipPathUnits="userSpaceOnUse"
       id="clipPath19">
      <path
         d="M 0,0 H 1475 V 542.63214 H 0 Z"
         transform="matrix(0.33355598,0,0,0.33355598,-183.3125,-98)"
         clip-rule="evenodd"
         id="path19" />
    </clipPath>
    <clipPath
       clipPathUnits="userSpaceOnUse"
       id="clipPath21">
      <path
         d="M 0,0 H 1475 V 542.63214 H 0 Z"
         transform="matrix(0.33355932,0,0,0.33355932,-0.5,-0.5)"
         clip-rule="evenodd"
         id="path21" />
    </clipPath>
    <clipPath
       clipPathUnits="userSpaceOnUse"
       id="clipPath22">
      <path
         d="M 0,0 H 1475 V 542.63214 H 0 Z"
         transform="matrix(0.33355598,0,0,0.33355598,-37.296875,-33)"
         clip-rule="evenodd"
         id="path22" />
    </clipPath>
    <clipPath
       clipPathUnits="userSpaceOnUse"
       id="clipPath24">
      <path
         d="M 0,0 H 1475 V 542.63214 H 0 Z"
         transform="matrix(0.33355932,0,0,0.33355932,-0.5,-0.5)"
         clip-rule="evenodd"
         id="path24" />
    </clipPath>
    <clipPath
       clipPathUnits="userSpaceOnUse"
       id="clipPath25">
      <path
         d="M 0,0 H 1475 V 542.63214 H 0 Z"
         transform="matrix(0.33355598,0,0,0.33355598,-35.296875,-163)"
         clip-rule="evenodd"
         id="path25" />
    </clipPath>
    <clipPath
       clipPathUnits="userSpaceOnUse"
       id="clipPath26">
      <path
         d="M 0,0 H 1475 V 542.63214 H 0 Z"
         transform="matrix(0.33355598,0,0,0.33355598,-342,-12)"
         clip-rule="evenodd"
         id="path26" />
    </clipPath>
    <clipPath
       clipPathUnits="userSpaceOnUse"
       id="clipPath27">
      <path
         d="M 0,0 H 1475 V 542.63214 H 0 Z"
         transform="matrix(0.33355598,0,0,0.33355598,-342,-26)"
         clip-rule="evenodd"
         id="path27" />
    </clipPath>
    <clipPath
       clipPathUnits="userSpaceOnUse"
       id="clipPath28">
      <path
         d="M 0,0 H 1475 V 542.63214 H 0 Z"
         transform="matrix(0.33355598,0,0,0.33355598,-342,-41)"
         clip-rule="evenodd"
         id="path28" />
    </clipPath>
    <clipPath
       clipPathUnits="userSpaceOnUse"
       id="clipPath29">
      <path
         d="M 0,0 H 1475 V 542.63214 H 0 Z"
         transform="matrix(0.33355598,0,0,0.33355598,-342,-55)"
         clip-rule="evenodd"
         id="path29" />
    </clipPath>
  </defs>
  <sodipodi:namedview
     id="namedview1"
     pagecolor="#ffffff"
     bordercolor="#000000"
     borderopacity="0.25"
     inkscape:showpageshadow="2"
     inkscape:pageopacity="0.0"
     inkscape:pagecheckerboard="0"
     inkscape:deskcolor="#d1d1d1">
    <inkscape:page
       x="0"
       y="0"
       inkscape:label="1"
       id="page1"
       width="472"
       height="176"
       margin="0"
       bleed="0" />
  </sodipodi:namedview>
  <g
     id="g1"
     inkscape:groupmode="layer"
     inkscape:label="1">
    <path
       id="path1"
       d="M 0,0 H 492 V 183 H 0 Z"
       style="fill:#ffffff;fill-opacity:1;fill-rule:nonzero;stroke:none"
       transform="scale(0.95934956)"
       clip-path="url(#clipPath2)" />
    <path
       id="path3"
       d="m 180,49 v 83.63"
       style="fill:none;stroke:#000000;stroke-width:1;stroke-linecap:butt;stroke-linejoin:miter;stroke-miterlimit:10;stroke-dasharray:none;stroke-opacity:1"
       transform="matrix(0.95934956,0,0,0.95934956,0.47967478,0.47967478)"
       clip-path="url(#clipPath4)" />
    <path
       id="path5"
       d="m 180,137.88 -3.5,-7 3.5,1.75 3.5,-1.75 z"
       style="fill:#000000;fill-opacity:1;fill-rule:nonzero;stroke:#000000;stroke-width:1;stroke-linecap:butt;stroke-linejoin:miter;stroke-miterlimit:10;stroke-dasharray:none;stroke-opacity:1"
       transform="matrix(0.95934956,0,0,0.95934956,0.47967478,0.47967478)"
       clip-path="url(#clipPath6)" />
    <path
       id="path7"
       d="M 130,9 H 230 V 49 H 130 Z"
       style="fill:#dae8fc;fill-opacity:1;fill-rule:nonzero;stroke:#6c8ebf;stroke-width:1;stroke-linecap:butt;stroke-linejoin:miter;stroke-miterlimit:10;stroke-dasharray:none;stroke-opacity:1"
       transform="matrix(0.95934956,0,0,0.95934956,0.47967478,0.47967478)"
       clip-path="url(#clipPath8)" />
    <text
       id="text8"
       xml:space="preserve"
       transform="matrix(0.95935916,0,0,0.95935916,164.57507,32.618211)"
       clip-path="url(#clipPath9)"><tspan
         style="font-variant:normal;font-weight:normal;font-size:16px;font-family:Helvetica;writing-mode:lr-tb;fill:#000000;fill-opacity:1;fill-rule:nonzero;stroke:none"
         x="0 3.5546875 12.453125"
         y="0"
         sodipodi:role="line"
         id="tspan8">let</tspan></text>
    <path
       id="path10"
       d="M 230,9 H 330 V 49 H 230 Z"
       style="fill:#dae8fc;fill-opacity:1;fill-rule:nonzero;stroke:#6c8ebf;stroke-width:1;stroke-linecap:butt;stroke-linejoin:miter;stroke-miterlimit:10;stroke-dasharray:none;stroke-opacity:1"
       transform="matrix(0.95934956,0,0,0.95934956,0.47967478,0.47967478)"
       clip-path="url(#clipPath11)" />
    <text
       id="text11"
       xml:space="preserve"
       transform="matrix(0.95935916,0,0,0.95935916,231.20556,32.618211)"
       clip-path="url(#clipPath12)"><tspan
         style="font-variant:normal;font-weight:normal;font-size:16px;font-family:Helvetica;writing-mode:lr-tb;fill:#000000;fill-opacity:1;fill-rule:nonzero;stroke:none"
         x="0 4.4453125 13.34375 22.242188 31.140625 40.039062 54.859375 63.757812 69.085938"
         y="0"
         sodipodi:role="line"
         id="tspan11">foundWord</tspan></text>
    <path
       id="path13"
       d="m 130,139 h 100 v 40 H 130 Z"
       style="fill:#dae8fc;fill-opacity:1;fill-rule:nonzero;stroke:#6c8ebf;stroke-width:1;stroke-linecap:butt;stroke-linejoin:miter;stroke-miterlimit:10;stroke-dasharray:none;stroke-opacity:1"
       transform="matrix(0.95934956,0,0,0.95934956,0.47967478,0.47967478)"
       clip-path="url(#clipPath14)" />
    <text
       id="text14"
       xml:space="preserve"
       transform="matrix(0.95935916,0,0,0.95935916,135.26964,157.3349)"
       clip-path="url(#clipPath15)"><tspan
         style="font-variant:normal;font-weight:normal;font-size:16px;font-family:Helvetica;writing-mode:lr-tb;fill:#000000;fill-opacity:1;fill-rule:nonzero;stroke:none"
         x="0 4.4453125 13.34375 22.242188 31.140625 40.039062 54.859375 63.757812 69.085938"
         y="0"
         sodipodi:role="line"
         id="tspan14">foundWord</tspan></text>
    <path
       id="path16"
       d="m 230,139 h 100 v 40 H 230 Z"
       style="fill:#dae8fc;fill-opacity:1;fill-rule:nonzero;stroke:#6c8ebf;stroke-width:1;stroke-linecap:butt;stroke-linejoin:miter;stroke-miterlimit:10;stroke-dasharray:none;stroke-opacity:1"
       transform="matrix(0.95934956,0,0,0.95934956,0.47967478,0.47967478)"
       clip-path="url(#clipPath17)" />
    <text
       id="text17"
       xml:space="preserve"
       transform="matrix(0.95935916,0,0,0.95935916,248.77382,157.3349)"
       clip-path="url(#clipPath18)"><tspan
         style="font-variant:normal;font-weight:normal;font-size:16px;font-family:Helvetica;writing-mode:lr-tb;fill:#000000;fill-opacity:1;fill-rule:nonzero;stroke:none"
         x="0 9.34375 13.789062 18.234375 23.5625 32.460938"
         y="0"
         sodipodi:role="line"
         id="tspan17">= true</tspan></text>
    <text
       id="text18"
       xml:space="preserve"
       transform="matrix(0.95935916,0,0,0.95935916,175.86253,94.017198)"
       clip-path="url(#clipPath19)"><tspan
         style="font-variant:normal;font-weight:normal;font-size:12px;font-family:Helvetica;writing-mode:lr-tb;fill:#000000;fill-opacity:1;fill-rule:nonzero;stroke:none"
         x="0 8.0039062 14.677734 24.673828 31.347656 34.681641 38.015625 40.681641 50.677734 57.351562 60.685547 63.351562 70.025391 73.359375 80.033203 83.373047 86.707031 90.041016"
         y="0"
         sodipodi:role="line"
         id="tspan18">Some time later...</tspan></text>
    <path
       id="path20"
       d="m 120,9 h -5 c -3.33334,0 -5,3.333333 -5,10 v 5 c 0,3.333334 -1.66666,5 -5,5 h -2.5 c -1.66666,0 -0.83334,0 2.5,0 h 2.5 c 1.66666,0 2.5,3.333332 2.5,10 v 5 c 0,3.333332 1.66666,5 5,5 h 5"
       style="fill:none;stroke:#000000;stroke-width:1;stroke-linecap:butt;stroke-linejoin:miter;stroke-miterlimit:10;stroke-dasharray:none;stroke-opacity:1"
       transform="matrix(0.95934956,0,0,0.95934956,0.47967478,0.47967478)"
       clip-path="url(#clipPath21)" />
    <text
       id="text21"
       xml:space="preserve"
       transform="matrix(0.95935916,0,0,0.95935916,35.781099,31.658852)"
       clip-path="url(#clipPath22)"><tspan
         style="font-variant:normal;font-weight:normal;font-size:12px;font-family:Helvetica;writing-mode:lr-tb;fill:#000000;fill-opacity:1;fill-rule:nonzero;stroke:none"
         x="0 8.6660156 15.339844 21.339844 24.005859 30.679688 34.675781 41.349609 44.683594 47.349609 54.023438"
         y="0"
         sodipodi:role="line"
         id="tspan21">Declaration</tspan></text>
    <path
       id="path23"
       d="m 120,139 h -5 c -3.33334,0 -5,3.33333 -5,10 v 5 c 0,3.33333 -1.66666,5 -5,5 h -2.5 c -1.66666,0 -0.83334,0 2.5,0 h 2.5 c 1.66666,0 2.5,3.33333 2.5,10 v 5 c 0,3.33333 1.66666,5 5,5 h 5"
       style="fill:none;stroke:#000000;stroke-width:1;stroke-linecap:butt;stroke-linejoin:miter;stroke-miterlimit:10;stroke-dasharray:none;stroke-opacity:1"
       transform="matrix(0.95934956,0,0,0.95934956,0.47967478,0.47967478)"
       clip-path="url(#clipPath24)" />
    <text
       id="text24"
       xml:space="preserve"
       transform="matrix(0.95935916,0,0,0.95935916,33.86238,156.37554)"
       clip-path="url(#clipPath25)"><tspan
         style="font-variant:normal;font-weight:normal;font-size:12px;font-family:Helvetica;writing-mode:lr-tb;fill:#000000;fill-opacity:1;fill-rule:nonzero;stroke:none"
         x="0 3.3339844 10.007812 12.673828 16.007812 18.673828 25.347656 28.013672 30.679688 36.679688 43.353516 46.6875 49.353516 56.027344"
         y="0"
         sodipodi:role="line"
         id="tspan24">Initialization</tspan></text>
    <text
       id="text25"
       xml:space="preserve"
       transform="matrix(0.95935916,0,0,0.95935916,328.10083,11.51231)"
       clip-path="url(#clipPath26)"><tspan
         style="font-style:oblique;font-variant:normal;font-weight:normal;font-size:12px;font-family:Helvetica;writing-mode:lr-tb;fill:#000000;fill-opacity:1;fill-rule:nonzero;stroke:none"
         x="0 7.3300781 15.333984 18.667969 25.341797 32.015625 38.689453 44.689453 51.363281 53.654297 56.988281 60.322266 66.996094 73.669922 79.669922 86.34375 89.677734 96.351562 103.02539 109.69922 116.37305 123.04688"
         y="0"
         sodipodi:role="line"
         id="tspan25">TS doesn't have enough</tspan></text>
    <g
       id="g26" />
    <text
       id="text26"
       xml:space="preserve"
       transform="matrix(0.95935916,0,0,0.95935916,328.10083,24.943338)"
       clip-path="url(#clipPath27)"><tspan
         style="font-style:oblique;font-variant:normal;font-weight:normal;font-size:12px;font-family:Helvetica;writing-mode:lr-tb;fill:#000000;fill-opacity:1;fill-rule:nonzero;stroke:none"
         x="0 2.6660156 9.3398438 12.673828 19.347656 22.681641 26.015625 32.689453 36.023438 42.023438 48.697266 55.371094 59.367188 66.041016 69.375 76.048828 82.722656 86.056641 89.390625 98.056641 104.73047 111.4043 114.73828 118.07227 121.40625 127.40625 134.08008"
         y="0"
         sodipodi:role="line"
         id="tspan26">info to ﬁgure out what type</tspan></text>
    <text
       id="text27"
       xml:space="preserve"
       transform="matrix(0.95935916,0,0,0.95935916,328.10083,39.333726)"
       clip-path="url(#clipPath28)"><tspan
         style="font-style:oblique;font-variant:normal;font-weight:normal;font-size:12px;font-family:Helvetica;writing-mode:lr-tb;fill:#000000;fill-opacity:1;fill-rule:nonzero;stroke:none"
         x="0 2.2910156 5.625 12.298828 18.972656 25.646484 32.320312 43.435547 50.109375 54.105469 60.779297 63.070312 66.404297 75.070312 77.736328 80.402344 83.068359 86.402344 90.398438 97.072266 100.40625 107.08008 111.07617 114.41016 117.74414 124.41797 127.75195 131.08594 137.08594"
         y="0"
         sodipodi:role="line"
         id="tspan27">'foundWord' will refer to, so</tspan></text>
    <text
       id="text28"
       xml:space="preserve"
       transform="matrix(0.95935916,0,0,0.95935916,328.10083,52.764754)"
       clip-path="url(#clipPath29)"><tspan
         style="font-style:oblique;font-variant:normal;font-weight:normal;font-size:12px;font-family:Helvetica;writing-mode:lr-tb;fill:#000000;fill-opacity:1;fill-rule:nonzero;stroke:none"
         x="0 6.6738281 13.347656 16.681641 23.355469 30.029297 32.695312 36.029297 42.029297 45.363281 48.697266 55.371094 58.705078 60.996094 67.669922 74.34375 80.34375"
         y="0"
         sodipodi:role="line"
         id="tspan28">defaults to 'any'</tspan></text>
  </g>
</svg>
