<?xml version="1.0" encoding="UTF-8" standalone="no"?>
<!-- Created with Inkscape (http://www.inkscape.org/) -->

<svg
   version="1.1"
   id="svg1"
   width="597.44"
   height="225.27998"
   viewBox="0 0 597.44 225.27998"
   sodipodi:docname="ts-8.pdf"
   xmlns:inkscape="http://www.inkscape.org/namespaces/inkscape"
   xmlns:sodipodi="http://sodipodi.sourceforge.net/DTD/sodipodi-0.dtd"
   xmlns="http://www.w3.org/2000/svg"
   xmlns:svg="http://www.w3.org/2000/svg">
  <defs
     id="defs1">
    <clipPath
       clipPathUnits="userSpaceOnUse"
       id="clipPath2">
      <path
         d="M 0,0 H 1866.6666 V 702.99146 H 0 Z"
         transform="scale(0.33428572)"
         clip-rule="evenodd"
         id="path2" />
    </clipPath>
    <clipPath
       clipPathUnits="userSpaceOnUse"
       id="clipPath4">
      <path
         d="M 0,0 H 1866.6666 V 700 H 0 Z"
         transform="matrix(0.33428572,0,0,0.33428572,-0.50000001,-0.50000001)"
         clip-rule="evenodd"
         id="path4" />
    </clipPath>
    <clipPath
       clipPathUnits="userSpaceOnUse"
       id="clipPath6">
      <path
         d="M 0,0 H 1866.6666 V 700 H 0 Z"
         transform="matrix(0.33428572,0,0,0.33428572,-0.50000001,-0.50000001)"
         clip-rule="evenodd"
         id="path6" />
    </clipPath>
    <clipPath
       clipPathUnits="userSpaceOnUse"
       id="clipPath8">
      <path
         d="M 0,0 H 1866.6666 V 700 H 0 Z"
         transform="matrix(0.33428572,0,0,0.33428572,-0.50000001,-0.50000001)"
         clip-rule="evenodd"
         id="path8" />
    </clipPath>
    <clipPath
       clipPathUnits="userSpaceOnUse"
       id="clipPath9">
      <path
         d="M 0,0 H 1866.6666 V 700 H 0 Z"
         transform="matrix(0.33428236,0,0,0.33428236,-108.54688,-33)"
         clip-rule="evenodd"
         id="path9" />
    </clipPath>
    <clipPath
       clipPathUnits="userSpaceOnUse"
       id="clipPath11">
      <path
         d="M 0,0 H 1866.6666 V 700 H 0 Z"
         transform="matrix(0.33428572,0,0,0.33428572,-0.50000001,-0.50000001)"
         clip-rule="evenodd"
         id="path11" />
    </clipPath>
    <clipPath
       clipPathUnits="userSpaceOnUse"
       id="clipPath13">
      <path
         d="M 0,0 H 1866.6666 V 700 H 0 Z"
         transform="matrix(0.33428572,0,0,0.33428572,-0.50000001,-0.50000001)"
         clip-rule="evenodd"
         id="path13" />
    </clipPath>
    <clipPath
       clipPathUnits="userSpaceOnUse"
       id="clipPath15">
      <path
         d="M 0,0 H 1866.6666 V 700 H 0 Z"
         transform="matrix(0.33428572,0,0,0.33428572,-0.50000001,-0.50000001)"
         clip-rule="evenodd"
         id="path15" />
    </clipPath>
    <clipPath
       clipPathUnits="userSpaceOnUse"
       id="clipPath16">
      <path
         d="M 0,0 H 1866.6666 V 700 H 0 Z"
         transform="matrix(0.33428236,0,0,0.33428236,-297.09375,-31)"
         clip-rule="evenodd"
         id="path16" />
    </clipPath>
    <clipPath
       clipPathUnits="userSpaceOnUse"
       id="clipPath18">
      <path
         d="M 0,0 H 1866.6666 V 700 H 0 Z"
         transform="matrix(0.33428572,0,0,0.33428572,-0.50000001,-0.50000001)"
         clip-rule="evenodd"
         id="path18" />
    </clipPath>
    <clipPath
       clipPathUnits="userSpaceOnUse"
       id="clipPath19">
      <path
         d="M 0,0 H 1866.6666 V 700 H 0 Z"
         transform="matrix(0.33428236,0,0,0.33428236,-523.09375,-121)"
         clip-rule="evenodd"
         id="path19" />
    </clipPath>
    <clipPath
       clipPathUnits="userSpaceOnUse"
       id="clipPath21">
      <path
         d="M 0,0 H 1866.6666 V 700 H 0 Z"
         transform="matrix(0.33428572,0,0,0.33428572,-0.50000001,-0.50000001)"
         clip-rule="evenodd"
         id="path21" />
    </clipPath>
    <clipPath
       clipPathUnits="userSpaceOnUse"
       id="clipPath23">
      <path
         d="M 0,0 H 1866.6666 V 700 H 0 Z"
         transform="matrix(0.33428572,0,0,0.33428572,-0.50000001,-0.50000001)"
         clip-rule="evenodd"
         id="path23" />
    </clipPath>
    <clipPath
       clipPathUnits="userSpaceOnUse"
       id="clipPath25">
      <path
         d="M 0,0 H 1866.6666 V 700 H 0 Z"
         transform="matrix(0.33428572,0,0,0.33428572,-0.50000001,-0.50000001)"
         clip-rule="evenodd"
         id="path25" />
    </clipPath>
    <clipPath
       clipPathUnits="userSpaceOnUse"
       id="clipPath26">
      <path
         d="M 0,0 H 1866.6666 V 700 H 0 Z"
         transform="matrix(0.33428236,0,0,0.33428236,-122.54687,-93)"
         clip-rule="evenodd"
         id="path26" />
    </clipPath>
    <clipPath
       clipPathUnits="userSpaceOnUse"
       id="clipPath28">
      <path
         d="M 0,0 H 1866.6666 V 700 H 0 Z"
         transform="matrix(0.33428572,0,0,0.33428572,-0.50000001,-0.50000001)"
         clip-rule="evenodd"
         id="path28" />
    </clipPath>
    <clipPath
       clipPathUnits="userSpaceOnUse"
       id="clipPath30">
      <path
         d="M 0,0 H 1866.6666 V 700 H 0 Z"
         transform="matrix(0.33428572,0,0,0.33428572,-0.50000001,-0.50000001)"
         clip-rule="evenodd"
         id="path30" />
    </clipPath>
    <clipPath
       clipPathUnits="userSpaceOnUse"
       id="clipPath32">
      <path
         d="M 0,0 H 1866.6666 V 700 H 0 Z"
         transform="matrix(0.33428572,0,0,0.33428572,-0.50000001,-0.50000001)"
         clip-rule="evenodd"
         id="path32" />
    </clipPath>
    <clipPath
       clipPathUnits="userSpaceOnUse"
       id="clipPath34">
      <path
         d="M 0,0 H 1866.6666 V 700 H 0 Z"
         transform="matrix(0.33428572,0,0,0.33428572,-0.50000001,-0.50000001)"
         clip-rule="evenodd"
         id="path34" />
    </clipPath>
    <clipPath
       clipPathUnits="userSpaceOnUse"
       id="clipPath36">
      <path
         d="M 0,0 H 1866.6666 V 700 H 0 Z"
         transform="matrix(0.33428572,0,0,0.33428572,-0.50000001,-0.50000001)"
         clip-rule="evenodd"
         id="path36" />
    </clipPath>
    <clipPath
       clipPathUnits="userSpaceOnUse"
       id="clipPath37">
      <path
         d="M 0,0 H 1866.6666 V 700 H 0 Z"
         transform="matrix(0.33428236,0,0,0.33428236,-297.09375,-91)"
         clip-rule="evenodd"
         id="path37" />
    </clipPath>
    <clipPath
       clipPathUnits="userSpaceOnUse"
       id="clipPath39">
      <path
         d="M 0,0 H 1866.6666 V 700 H 0 Z"
         transform="matrix(0.33428572,0,0,0.33428572,-0.50000001,-0.50000001)"
         clip-rule="evenodd"
         id="path39" />
    </clipPath>
    <clipPath
       clipPathUnits="userSpaceOnUse"
       id="clipPath41">
      <path
         d="M 0,0 H 1866.6666 V 700 H 0 Z"
         transform="matrix(0.33428572,0,0,0.33428572,-0.50000001,-0.50000001)"
         clip-rule="evenodd"
         id="path41" />
    </clipPath>
    <clipPath
       clipPathUnits="userSpaceOnUse"
       id="clipPath43">
      <path
         d="M 0,0 H 1866.6666 V 700 H 0 Z"
         transform="matrix(0.33428572,0,0,0.33428572,-0.50000001,-0.50000001)"
         clip-rule="evenodd"
         id="path43" />
    </clipPath>
    <clipPath
       clipPathUnits="userSpaceOnUse"
       id="clipPath44">
      <path
         d="M 0,0 H 1866.6666 V 700 H 0 Z"
         transform="matrix(0.33428236,0,0,0.33428236,-83.625,-153)"
         clip-rule="evenodd"
         id="path44" />
    </clipPath>
    <clipPath
       clipPathUnits="userSpaceOnUse"
       id="clipPath46">
      <path
         d="M 0,0 H 1866.6666 V 700 H 0 Z"
         transform="matrix(0.33428572,0,0,0.33428572,-0.50000001,-0.50000001)"
         clip-rule="evenodd"
         id="path46" />
    </clipPath>
    <clipPath
       clipPathUnits="userSpaceOnUse"
       id="clipPath48">
      <path
         d="M 0,0 H 1866.6666 V 700 H 0 Z"
         transform="matrix(0.33428572,0,0,0.33428572,-0.50000001,-0.50000001)"
         clip-rule="evenodd"
         id="path48" />
    </clipPath>
    <clipPath
       clipPathUnits="userSpaceOnUse"
       id="clipPath50">
      <path
         d="M 0,0 H 1866.6666 V 700 H 0 Z"
         transform="matrix(0.33428572,0,0,0.33428572,-0.50000001,-0.50000001)"
         clip-rule="evenodd"
         id="path50" />
    </clipPath>
    <clipPath
       clipPathUnits="userSpaceOnUse"
       id="clipPath52">
      <path
         d="M 0,0 H 1866.6666 V 700 H 0 Z"
         transform="matrix(0.33428572,0,0,0.33428572,-0.50000001,-0.50000001)"
         clip-rule="evenodd"
         id="path52" />
    </clipPath>
    <clipPath
       clipPathUnits="userSpaceOnUse"
       id="clipPath54">
      <path
         d="M 0,0 H 1866.6666 V 700 H 0 Z"
         transform="matrix(0.33428572,0,0,0.33428572,-0.50000001,-0.50000001)"
         clip-rule="evenodd"
         id="path54" />
    </clipPath>
    <clipPath
       clipPathUnits="userSpaceOnUse"
       id="clipPath55">
      <path
         d="M 0,0 H 1866.6666 V 700 H 0 Z"
         transform="matrix(0.33428236,0,0,0.33428236,-297.09375,-151)"
         clip-rule="evenodd"
         id="path55" />
    </clipPath>
    <clipPath
       clipPathUnits="userSpaceOnUse"
       id="clipPath57">
      <path
         d="M 0,0 H 1866.6666 V 700 H 0 Z"
         transform="matrix(0.33428572,0,0,0.33428572,-0.50000001,-0.50000001)"
         clip-rule="evenodd"
         id="path57" />
    </clipPath>
    <clipPath
       clipPathUnits="userSpaceOnUse"
       id="clipPath59">
      <path
         d="M 0,0 H 1866.6666 V 700 H 0 Z"
         transform="matrix(0.33428572,0,0,0.33428572,-0.50000001,-0.50000001)"
         clip-rule="evenodd"
         id="path59" />
    </clipPath>
    <clipPath
       clipPathUnits="userSpaceOnUse"
       id="clipPath61">
      <path
         d="M 0,0 H 1866.6666 V 700 H 0 Z"
         transform="matrix(0.33428572,0,0,0.33428572,-0.50000001,-0.50000001)"
         clip-rule="evenodd"
         id="path61" />
    </clipPath>
    <clipPath
       clipPathUnits="userSpaceOnUse"
       id="clipPath62">
      <path
         d="M 0,0 H 1866.6666 V 700 H 0 Z"
         transform="matrix(0.33428236,0,0,0.33428236,-64.734375,-213)"
         clip-rule="evenodd"
         id="path62" />
    </clipPath>
    <clipPath
       clipPathUnits="userSpaceOnUse"
       id="clipPath64">
      <path
         d="M 0,0 H 1866.6666 V 700 H 0 Z"
         transform="matrix(0.33428572,0,0,0.33428572,-0.50000001,-0.50000001)"
         clip-rule="evenodd"
         id="path64" />
    </clipPath>
    <clipPath
       clipPathUnits="userSpaceOnUse"
       id="clipPath66">
      <path
         d="M 0,0 H 1866.6666 V 700 H 0 Z"
         transform="matrix(0.33428572,0,0,0.33428572,-0.50000001,-0.50000001)"
         clip-rule="evenodd"
         id="path66" />
    </clipPath>
    <clipPath
       clipPathUnits="userSpaceOnUse"
       id="clipPath68">
      <path
         d="M 0,0 H 1866.6666 V 700 H 0 Z"
         transform="matrix(0.33428572,0,0,0.33428572,-0.50000001,-0.50000001)"
         clip-rule="evenodd"
         id="path68" />
    </clipPath>
    <clipPath
       clipPathUnits="userSpaceOnUse"
       id="clipPath70">
      <path
         d="M 0,0 H 1866.6666 V 700 H 0 Z"
         transform="matrix(0.33428572,0,0,0.33428572,-0.50000001,-0.50000001)"
         clip-rule="evenodd"
         id="path70" />
    </clipPath>
    <clipPath
       clipPathUnits="userSpaceOnUse"
       id="clipPath72">
      <path
         d="M 0,0 H 1866.6666 V 700 H 0 Z"
         transform="matrix(0.33428572,0,0,0.33428572,-0.50000001,-0.50000001)"
         clip-rule="evenodd"
         id="path72" />
    </clipPath>
    <clipPath
       clipPathUnits="userSpaceOnUse"
       id="clipPath73">
      <path
         d="M 0,0 H 1866.6666 V 700 H 0 Z"
         transform="matrix(0.33428236,0,0,0.33428236,-297.09375,-211)"
         clip-rule="evenodd"
         id="path73" />
    </clipPath>
  </defs>
  <sodipodi:namedview
     id="namedview1"
     pagecolor="#ffffff"
     bordercolor="#000000"
     borderopacity="0.25"
     inkscape:showpageshadow="2"
     inkscape:pageopacity="0.0"
     inkscape:pagecheckerboard="0"
     inkscape:deskcolor="#d1d1d1">
    <inkscape:page
       x="0"
       y="0"
       inkscape:label="1"
       id="page1"
       width="597.44"
       height="225.27998"
       margin="0"
       bleed="0" />
  </sodipodi:namedview>
  <g
     id="g1"
     inkscape:groupmode="layer"
     inkscape:label="1">
    <path
       id="path1"
       d="M 0,0 H 624 V 235 H 0 Z"
       style="fill:#ffffff;fill-opacity:1;fill-rule:nonzero;stroke:none"
       transform="scale(0.95726489)"
       clip-path="url(#clipPath2)" />
    <path
       id="path3"
       d="m 261,26 h 20 -10 13.63"
       style="fill:none;stroke:#000000;stroke-width:1;stroke-linecap:butt;stroke-linejoin:miter;stroke-miterlimit:10;stroke-dasharray:none;stroke-opacity:1"
       transform="matrix(0.95726489,0,0,0.95726489,0.47863245,0.47863245)"
       clip-path="url(#clipPath4)" />
    <path
       id="path5"
       d="m 289.88,26 -7,3.5 1.75,-3.5 -1.75,-3.5 z"
       style="fill:#000000;fill-opacity:1;fill-rule:nonzero;stroke:#000000;stroke-width:1;stroke-linecap:butt;stroke-linejoin:miter;stroke-miterlimit:10;stroke-dasharray:none;stroke-opacity:1"
       transform="matrix(0.95726489,0,0,0.95726489,0.47863245,0.47863245)"
       clip-path="url(#clipPath6)" />
    <path
       id="path7"
       d="M 1,1 H 261 V 51 H 1 Z"
       style="fill:#ffffff;fill-opacity:1;fill-rule:nonzero;stroke:#000000;stroke-width:1;stroke-linecap:butt;stroke-linejoin:miter;stroke-miterlimit:10;stroke-dasharray:none;stroke-opacity:1"
       transform="matrix(0.95726489,0,0,0.95726489,0.47863245,0.47863245)"
       clip-path="url(#clipPath8)" />
    <text
       id="text8"
       xml:space="preserve"
       transform="matrix(0.95727452,0,0,0.95727452,103.90916,31.590059)"
       clip-path="url(#clipPath9)"><tspan
         style="font-variant:normal;font-weight:normal;font-size:18px;font-family:Helvetica;writing-mode:lr-tb;fill:#000000;fill-opacity:1;fill-rule:nonzero;stroke:none"
         x="0 3.4365234 8.4375 18.448242 22.447266 31.447266 41.458008"
         y="0"
         sodipodi:role="line"
         id="tspan8">'false'</tspan></text>
    <path
       id="path10"
       d="M 401,26 H 536 V 84.629997"
       style="fill:none;stroke:#000000;stroke-width:1;stroke-linecap:butt;stroke-linejoin:miter;stroke-miterlimit:10;stroke-dasharray:none;stroke-opacity:1"
       transform="matrix(0.95726489,0,0,0.95726489,0.47863245,0.47863245)"
       clip-path="url(#clipPath11)" />
    <path
       id="path12"
       d="m 536,89.879997 -3.5,-7 3.5,1.75 3.5,-1.75 z"
       style="fill:#000000;fill-opacity:1;fill-rule:nonzero;stroke:#000000;stroke-width:1;stroke-linecap:butt;stroke-linejoin:miter;stroke-miterlimit:10;stroke-dasharray:none;stroke-opacity:1"
       transform="matrix(0.95726489,0,0,0.95726489,0.47863245,0.47863245)"
       clip-path="url(#clipPath13)" />
    <path
       id="path14"
       d="M 291,1 H 401 V 51 H 291 Z"
       style="fill:#dae8fc;fill-opacity:1;fill-rule:nonzero;stroke:#6c8ebf;stroke-width:1;stroke-linecap:butt;stroke-linejoin:miter;stroke-miterlimit:10;stroke-dasharray:none;stroke-opacity:1"
       transform="matrix(0.95726489,0,0,0.95726489,0.47863245,0.47863245)"
       clip-path="url(#clipPath15)" />
    <text
       id="text15"
       xml:space="preserve"
       transform="matrix(0.95727452,0,0,0.95727452,284.40028,29.67551)"
       clip-path="url(#clipPath16)"><tspan
         style="font-variant:normal;font-weight:normal;font-size:16px;font-family:Helvetica;writing-mode:lr-tb;fill:#000000;fill-opacity:1;fill-rule:nonzero;stroke:none"
         x="0 8 18.671875 31.117188 42.671875 47.117188 56.015625 64.914062 70.242188 78.242188 87.140625 92.46875"
         y="0"
         sodipodi:role="line"
         id="tspan15">JSON.parse()</tspan></text>
    <path
       id="path17"
       d="m 451,91 h 170 v 50 H 451 Z"
       style="fill:#ffffff;fill-opacity:1;fill-rule:nonzero;stroke:#000000;stroke-width:1;stroke-linecap:butt;stroke-linejoin:miter;stroke-miterlimit:10;stroke-dasharray:none;stroke-opacity:1"
       transform="matrix(0.95726489,0,0,0.95726489,0.47863245,0.47863245)"
       clip-path="url(#clipPath18)" />
    <text
       id="text18"
       xml:space="preserve"
       transform="matrix(0.95727452,0,0,0.95727452,500.74432,115.83022)"
       clip-path="url(#clipPath19)"><tspan
         style="font-variant:normal;font-weight:normal;font-size:16px;font-family:Helvetica;writing-mode:lr-tb;fill:#000000;fill-opacity:1;fill-rule:nonzero;stroke:none"
         x="0 8.8984375 17.796875"
         y="0"
         sodipodi:role="line"
         id="tspan18">any</tspan></text>
    <path
       id="path20"
       d="m 261,86 h 20 -10 13.63"
       style="fill:none;stroke:#000000;stroke-width:1;stroke-linecap:butt;stroke-linejoin:miter;stroke-miterlimit:10;stroke-dasharray:none;stroke-opacity:1"
       transform="matrix(0.95726489,0,0,0.95726489,0.47863245,0.47863245)"
       clip-path="url(#clipPath21)" />
    <path
       id="path22"
       d="m 289.88,86 -7,3.5 1.75,-3.5 -1.75,-3.5 z"
       style="fill:#000000;fill-opacity:1;fill-rule:nonzero;stroke:#000000;stroke-width:1;stroke-linecap:butt;stroke-linejoin:miter;stroke-miterlimit:10;stroke-dasharray:none;stroke-opacity:1"
       transform="matrix(0.95726489,0,0,0.95726489,0.47863245,0.47863245)"
       clip-path="url(#clipPath23)" />
    <path
       id="path24"
       d="m 1,61 h 260 v 50 H 1 Z"
       style="fill:#ffffff;fill-opacity:1;fill-rule:nonzero;stroke:#000000;stroke-width:1;stroke-linecap:butt;stroke-linejoin:miter;stroke-miterlimit:10;stroke-dasharray:none;stroke-opacity:1"
       transform="matrix(0.95726489,0,0,0.95726489,0.47863245,0.47863245)"
       clip-path="url(#clipPath25)" />
    <text
       id="text25"
       xml:space="preserve"
       transform="matrix(0.95727452,0,0,0.95727452,117.311,89.02653)"
       clip-path="url(#clipPath26)"><tspan
         style="font-variant:normal;font-weight:normal;font-size:18px;font-family:Helvetica;writing-mode:lr-tb;fill:#000000;fill-opacity:1;fill-rule:nonzero;stroke:none"
         x="0 3.4365234 13.447266"
         y="0"
         sodipodi:role="line"
         id="tspan25">'4'</tspan></text>
    <path
       id="path27"
       d="m 401,86 h 23.64001"
       style="fill:none;stroke:#000000;stroke-width:1;stroke-linecap:butt;stroke-linejoin:miter;stroke-miterlimit:10;stroke-dasharray:none;stroke-opacity:1"
       transform="matrix(0.95726489,0,0,0.95726489,0.47863245,0.47863245)"
       clip-path="url(#clipPath28)" />
    <path
       id="path29"
       d="m 429.89001,86 -7,3.5 1.75,-3.5 -1.75,-3.5 z"
       style="fill:#000000;fill-opacity:1;fill-rule:nonzero;stroke:#000000;stroke-width:1;stroke-linecap:butt;stroke-linejoin:miter;stroke-miterlimit:10;stroke-dasharray:none;stroke-opacity:1"
       transform="matrix(0.95726489,0,0,0.95726489,0.47863245,0.47863245)"
       clip-path="url(#clipPath30)" />
    <path
       id="path31"
       d="m 401,86 h 25 v 30 h 18.64001"
       style="fill:none;stroke:#000000;stroke-width:1;stroke-linecap:butt;stroke-linejoin:miter;stroke-miterlimit:10;stroke-dasharray:none;stroke-opacity:1"
       transform="matrix(0.95726489,0,0,0.95726489,0.47863245,0.47863245)"
       clip-path="url(#clipPath32)" />
    <path
       id="path33"
       d="m 449.89001,116 -7,3.5 1.75,-3.5 -1.75,-3.5 z"
       style="fill:#000000;fill-opacity:1;fill-rule:nonzero;stroke:#000000;stroke-width:1;stroke-linecap:butt;stroke-linejoin:miter;stroke-miterlimit:10;stroke-dasharray:none;stroke-opacity:1"
       transform="matrix(0.95726489,0,0,0.95726489,0.47863245,0.47863245)"
       clip-path="url(#clipPath34)" />
    <path
       id="path35"
       d="m 291,61 h 110 v 50 H 291 Z"
       style="fill:#dae8fc;fill-opacity:1;fill-rule:nonzero;stroke:#6c8ebf;stroke-width:1;stroke-linecap:butt;stroke-linejoin:miter;stroke-miterlimit:10;stroke-dasharray:none;stroke-opacity:1"
       transform="matrix(0.95726489,0,0,0.95726489,0.47863245,0.47863245)"
       clip-path="url(#clipPath36)" />
    <text
       id="text36"
       xml:space="preserve"
       transform="matrix(0.95727452,0,0,0.95727452,284.40028,87.111981)"
       clip-path="url(#clipPath37)"><tspan
         style="font-variant:normal;font-weight:normal;font-size:16px;font-family:Helvetica;writing-mode:lr-tb;fill:#000000;fill-opacity:1;fill-rule:nonzero;stroke:none"
         x="0 8 18.671875 31.117188 42.671875 47.117188 56.015625 64.914062 70.242188 78.242188 87.140625 92.46875"
         y="0"
         sodipodi:role="line"
         id="tspan36">JSON.parse()</tspan></text>
    <path
       id="path38"
       d="m 261,146 h 20 -10 13.63"
       style="fill:none;stroke:#000000;stroke-width:1;stroke-linecap:butt;stroke-linejoin:miter;stroke-miterlimit:10;stroke-dasharray:none;stroke-opacity:1"
       transform="matrix(0.95726489,0,0,0.95726489,0.47863245,0.47863245)"
       clip-path="url(#clipPath39)" />
    <path
       id="path40"
       d="m 289.88,146 -7,3.5 1.75,-3.5 -1.75,-3.5 z"
       style="fill:#000000;fill-opacity:1;fill-rule:nonzero;stroke:#000000;stroke-width:1;stroke-linecap:butt;stroke-linejoin:miter;stroke-miterlimit:10;stroke-dasharray:none;stroke-opacity:1"
       transform="matrix(0.95726489,0,0,0.95726489,0.47863245,0.47863245)"
       clip-path="url(#clipPath41)" />
    <path
       id="path42"
       d="m 1,121 h 260 v 50 H 1 Z"
       style="fill:#ffffff;fill-opacity:1;fill-rule:nonzero;stroke:#000000;stroke-width:1;stroke-linecap:butt;stroke-linejoin:miter;stroke-miterlimit:10;stroke-dasharray:none;stroke-opacity:1"
       transform="matrix(0.95726489,0,0,0.95726489,0.47863245,0.47863245)"
       clip-path="url(#clipPath43)" />
    <text
       id="text43"
       xml:space="preserve"
       transform="matrix(0.95727452,0,0,0.95727452,80.052082,146.463)"
       clip-path="url(#clipPath44)"><tspan
         style="font-variant:normal;font-weight:normal;font-size:18px;font-family:Helvetica;writing-mode:lr-tb;fill:#000000;fill-opacity:1;fill-rule:nonzero;stroke:none"
         x="0 3.4365234 9.4482422 15.837891 24.837891 34.848633 38.847656 48.858398 58.869141 65.258789 70.259766 75.260742 85.271484 91.283203"
         y="0"
         sodipodi:role="line"
         id="tspan43">'{&quot;value&quot;: 5}'</tspan></text>
    <path
       id="path45"
       d="m 401,146 h 23.64001"
       style="fill:none;stroke:#000000;stroke-width:1;stroke-linecap:butt;stroke-linejoin:miter;stroke-miterlimit:10;stroke-dasharray:none;stroke-opacity:1"
       transform="matrix(0.95726489,0,0,0.95726489,0.47863245,0.47863245)"
       clip-path="url(#clipPath46)" />
    <path
       id="path47"
       d="m 429.89001,146 -7,3.5 1.75,-3.5 -1.75,-3.5 z"
       style="fill:#000000;fill-opacity:1;fill-rule:nonzero;stroke:#000000;stroke-width:1;stroke-linecap:butt;stroke-linejoin:miter;stroke-miterlimit:10;stroke-dasharray:none;stroke-opacity:1"
       transform="matrix(0.95726489,0,0,0.95726489,0.47863245,0.47863245)"
       clip-path="url(#clipPath48)" />
    <path
       id="path49"
       d="m 401,146 h 25 v -30 h 18.64001"
       style="fill:none;stroke:#000000;stroke-width:1;stroke-linecap:butt;stroke-linejoin:miter;stroke-miterlimit:10;stroke-dasharray:none;stroke-opacity:1"
       transform="matrix(0.95726489,0,0,0.95726489,0.47863245,0.47863245)"
       clip-path="url(#clipPath50)" />
    <path
       id="path51"
       d="m 449.89001,116 -7,3.5 1.75,-3.5 -1.75,-3.5 z"
       style="fill:#000000;fill-opacity:1;fill-rule:nonzero;stroke:#000000;stroke-width:1;stroke-linecap:butt;stroke-linejoin:miter;stroke-miterlimit:10;stroke-dasharray:none;stroke-opacity:1"
       transform="matrix(0.95726489,0,0,0.95726489,0.47863245,0.47863245)"
       clip-path="url(#clipPath52)" />
    <path
       id="path53"
       d="m 291,121 h 110 v 50 H 291 Z"
       style="fill:#dae8fc;fill-opacity:1;fill-rule:nonzero;stroke:#6c8ebf;stroke-width:1;stroke-linecap:butt;stroke-linejoin:miter;stroke-miterlimit:10;stroke-dasharray:none;stroke-opacity:1"
       transform="matrix(0.95726489,0,0,0.95726489,0.47863245,0.47863245)"
       clip-path="url(#clipPath54)" />
    <text
       id="text54"
       xml:space="preserve"
       transform="matrix(0.95727452,0,0,0.95727452,284.40028,144.54845)"
       clip-path="url(#clipPath55)"><tspan
         style="font-variant:normal;font-weight:normal;font-size:16px;font-family:Helvetica;writing-mode:lr-tb;fill:#000000;fill-opacity:1;fill-rule:nonzero;stroke:none"
         x="0 8 18.671875 31.117188 42.671875 47.117188 56.015625 64.914062 70.242188 78.242188 87.140625 92.46875"
         y="0"
         sodipodi:role="line"
         id="tspan54">JSON.parse()</tspan></text>
    <path
       id="path56"
       d="m 261,206 h 20 -10 13.63"
       style="fill:none;stroke:#000000;stroke-width:1;stroke-linecap:butt;stroke-linejoin:miter;stroke-miterlimit:10;stroke-dasharray:none;stroke-opacity:1"
       transform="matrix(0.95726489,0,0,0.95726489,0.47863245,0.47863245)"
       clip-path="url(#clipPath57)" />
    <path
       id="path58"
       d="m 289.88,206 -7,3.5 1.75,-3.5 -1.75,-3.5 z"
       style="fill:#000000;fill-opacity:1;fill-rule:nonzero;stroke:#000000;stroke-width:1;stroke-linecap:butt;stroke-linejoin:miter;stroke-miterlimit:10;stroke-dasharray:none;stroke-opacity:1"
       transform="matrix(0.95726489,0,0,0.95726489,0.47863245,0.47863245)"
       clip-path="url(#clipPath59)" />
    <path
       id="path60"
       d="m 1,181 h 260 v 50 H 1 Z"
       style="fill:#ffffff;fill-opacity:1;fill-rule:nonzero;stroke:#000000;stroke-width:1;stroke-linecap:butt;stroke-linejoin:miter;stroke-miterlimit:10;stroke-dasharray:none;stroke-opacity:1"
       transform="matrix(0.95726489,0,0,0.95726489,0.47863245,0.47863245)"
       clip-path="url(#clipPath61)" />
    <text
       id="text61"
       xml:space="preserve"
       transform="matrix(0.95727452,0,0,0.95727452,61.968568,203.89947)"
       clip-path="url(#clipPath62)"><tspan
         style="font-variant:normal;font-weight:normal;font-size:18px;font-family:Helvetica;writing-mode:lr-tb;fill:#000000;fill-opacity:1;fill-rule:nonzero;stroke:none"
         x="0 3.4365234 9.4482422 15.837891 25.848633 35.859375 50.853516 60.864258 67.253906 72.254883 77.255859 83.645508 93.65625 97.655273 107.66602 116.66602 123.05566 129.06738"
         y="0"
         sodipodi:role="line"
         id="tspan61">'{&quot;name&quot;: &quot;alex&quot;}'</tspan></text>
    <path
       id="path63"
       d="m 401,206 h 23.64001"
       style="fill:none;stroke:#000000;stroke-width:1;stroke-linecap:butt;stroke-linejoin:miter;stroke-miterlimit:10;stroke-dasharray:none;stroke-opacity:1"
       transform="matrix(0.95726489,0,0,0.95726489,0.47863245,0.47863245)"
       clip-path="url(#clipPath64)" />
    <path
       id="path65"
       d="m 429.89001,206 -7,3.5 1.75,-3.5 -1.75,-3.5 z"
       style="fill:#000000;fill-opacity:1;fill-rule:nonzero;stroke:#000000;stroke-width:1;stroke-linecap:butt;stroke-linejoin:miter;stroke-miterlimit:10;stroke-dasharray:none;stroke-opacity:1"
       transform="matrix(0.95726489,0,0,0.95726489,0.47863245,0.47863245)"
       clip-path="url(#clipPath66)" />
    <path
       id="path67"
       d="m 401,206 h 25 v -90 h 18.64001"
       style="fill:none;stroke:#000000;stroke-width:1;stroke-linecap:butt;stroke-linejoin:miter;stroke-miterlimit:10;stroke-dasharray:none;stroke-opacity:1"
       transform="matrix(0.95726489,0,0,0.95726489,0.47863245,0.47863245)"
       clip-path="url(#clipPath68)" />
    <path
       id="path69"
       d="m 449.89001,116 -7,3.5 1.75,-3.5 -1.75,-3.5 z"
       style="fill:#000000;fill-opacity:1;fill-rule:nonzero;stroke:#000000;stroke-width:1;stroke-linecap:butt;stroke-linejoin:miter;stroke-miterlimit:10;stroke-dasharray:none;stroke-opacity:1"
       transform="matrix(0.95726489,0,0,0.95726489,0.47863245,0.47863245)"
       clip-path="url(#clipPath70)" />
    <path
       id="path71"
       d="m 291,181 h 110 v 50 H 291 Z"
       style="fill:#dae8fc;fill-opacity:1;fill-rule:nonzero;stroke:#6c8ebf;stroke-width:1;stroke-linecap:butt;stroke-linejoin:miter;stroke-miterlimit:10;stroke-dasharray:none;stroke-opacity:1"
       transform="matrix(0.95726489,0,0,0.95726489,0.47863245,0.47863245)"
       clip-path="url(#clipPath72)" />
    <text
       id="text72"
       xml:space="preserve"
       transform="matrix(0.95727452,0,0,0.95727452,284.40028,201.98492)"
       clip-path="url(#clipPath73)"><tspan
         style="font-variant:normal;font-weight:normal;font-size:16px;font-family:Helvetica;writing-mode:lr-tb;fill:#000000;fill-opacity:1;fill-rule:nonzero;stroke:none"
         x="0 8 18.671875 31.117188 42.671875 47.117188 56.015625 64.914062 70.242188 78.242188 87.140625 92.46875"
         y="0"
         sodipodi:role="line"
         id="tspan72">JSON.parse()</tspan></text>
  </g>
</svg>
