<?xml version="1.0" encoding="UTF-8" standalone="no"?>
<!-- Created with Inkscape (http://www.inkscape.org/) -->

<svg
   version="1.1"
   id="svg1"
   width="348.16"
   height="120"
   viewBox="0 0 348.16 120"
   sodipodi:docname="ts-9.pdf"
   xmlns:inkscape="http://www.inkscape.org/namespaces/inkscape"
   xmlns:sodipodi="http://sodipodi.sourceforge.net/DTD/sodipodi-0.dtd"
   xmlns="http://www.w3.org/2000/svg"
   xmlns:svg="http://www.w3.org/2000/svg">
  <defs
     id="defs1">
    <clipPath
       clipPathUnits="userSpaceOnUse"
       id="clipPath2">
      <path
         d="M 0,0 H 1087.5 V 373.45465 H 0 Z"
         transform="scale(0.33471265)"
         clip-rule="evenodd"
         id="path2" />
    </clipPath>
    <clipPath
       clipPathUnits="userSpaceOnUse"
       id="clipPath4">
      <path
         d="M 0,0 H 1087.5 V 370.46701 H 0 Z"
         transform="matrix(0.33471265,0,0,0.33471265,-0.49999999,-0.49999999)"
         clip-rule="evenodd"
         id="path4" />
    </clipPath>
    <clipPath
       clipPathUnits="userSpaceOnUse"
       id="clipPath5">
      <path
         d="M 0,0 H 1087.5 V 370.46701 H 0 Z"
         transform="matrix(0.33470931,0,0,0.33470931,-38.09375,-66.000001)"
         clip-rule="evenodd"
         id="path5" />
    </clipPath>
    <clipPath
       clipPathUnits="userSpaceOnUse"
       id="clipPath7">
      <path
         d="M 0,0 H 1087.5 V 370.46701 H 0 Z"
         transform="matrix(0.33471265,0,0,-0.33471265,-0.49999999,32.5)"
         clip-rule="evenodd"
         id="path7" />
    </clipPath>
    <clipPath
       clipPathUnits="userSpaceOnUse"
       id="clipPath8">
      <path
         d="M 0,0 H 1087.5 V 370.46701 H 0 Z"
         transform="matrix(0.33470931,0,0,0.33470931,-133,-20)"
         clip-rule="evenodd"
         id="path8" />
    </clipPath>
    <clipPath
       clipPathUnits="userSpaceOnUse"
       id="clipPath10">
      <path
         d="M 0,0 H 1087.5 V 370.46701 H 0 Z"
         transform="matrix(0.33471265,0,0,0.33471265,-0.49999999,-0.49999999)"
         clip-rule="evenodd"
         id="path10" />
    </clipPath>
    <clipPath
       clipPathUnits="userSpaceOnUse"
       id="clipPath12">
      <path
         d="M 0,0 H 1087.5 V 370.46701 H 0 Z"
         transform="matrix(0.33471265,0,0,-0.33471265,-0.49999999,122.5)"
         clip-rule="evenodd"
         id="path12" />
    </clipPath>
    <clipPath
       clipPathUnits="userSpaceOnUse"
       id="clipPath13">
      <path
         d="M 0,0 H 1087.5 V 370.46701 H 0 Z"
         transform="matrix(0.33470931,0,0,0.33470931,-133,-58)"
         clip-rule="evenodd"
         id="path13" />
    </clipPath>
    <clipPath
       clipPathUnits="userSpaceOnUse"
       id="clipPath14">
      <path
         d="M 0,0 H 1087.5 V 370.46701 H 0 Z"
         transform="matrix(0.33470931,0,0,0.33470931,-133,-73.000001)"
         clip-rule="evenodd"
         id="path14" />
    </clipPath>
    <clipPath
       clipPathUnits="userSpaceOnUse"
       id="clipPath16">
      <path
         d="M 0,0 H 1087.5 V 370.46701 H 0 Z"
         transform="matrix(0.33471265,0,0,-0.33471265,-0.49999999,212.5)"
         clip-rule="evenodd"
         id="path16" />
    </clipPath>
    <clipPath
       clipPathUnits="userSpaceOnUse"
       id="clipPath17">
      <path
         d="M 0,0 H 1087.5 V 370.46701 H 0 Z"
         transform="matrix(0.33470931,0,0,0.33470931,-133,-110)"
         clip-rule="evenodd"
         id="path17" />
    </clipPath>
    <clipPath
       clipPathUnits="userSpaceOnUse"
       id="clipPath18">
      <path
         d="M 0,0 H 1087.5 V 370.46701 H 0 Z"
         transform="matrix(0.33470931,0,0,0.33470931,-37.984375,-95)"
         clip-rule="evenodd"
         id="path18" />
    </clipPath>
  </defs>
  <sodipodi:namedview
     id="namedview1"
     pagecolor="#ffffff"
     bordercolor="#000000"
     borderopacity="0.25"
     inkscape:showpageshadow="2"
     inkscape:pageopacity="0.0"
     inkscape:pagecheckerboard="0"
     inkscape:deskcolor="#d1d1d1">
    <inkscape:page
       x="0"
       y="0"
       inkscape:label="1"
       id="page1"
       width="348.16"
       height="120"
       margin="0"
       bleed="0" />
  </sodipodi:namedview>
  <g
     id="g1"
     inkscape:groupmode="layer"
     inkscape:label="1">
    <path
       id="path1"
       d="M 0,0 H 364 V 125 H 0 Z"
       style="fill:#ffffff;fill-opacity:1;fill-rule:nonzero;stroke:none"
       transform="scale(0.9560439)"
       clip-path="url(#clipPath2)" />
    <path
       id="path3"
       d="M 1,41 H 101 V 81 H 1 Z"
       style="fill:#dae8fc;fill-opacity:1;fill-rule:nonzero;stroke:#6c8ebf;stroke-width:1;stroke-linecap:butt;stroke-linejoin:miter;stroke-miterlimit:10;stroke-dasharray:none;stroke-opacity:1"
       transform="matrix(0.9560439,0,0,0.9560439,0.47802194,0.47802194)"
       clip-path="url(#clipPath4)" />
    <text
       id="text4"
       xml:space="preserve"
       transform="matrix(0.95605343,0,0,0.95605343,36.41966,63.099527)"
       clip-path="url(#clipPath5)"><tspan
         style="font-variant:normal;font-weight:normal;font-size:16px;font-family:Helvetica;writing-mode:lr-tb;fill:#000000;fill-opacity:1;fill-rule:nonzero;stroke:none"
         x="0 8.8984375 17.796875"
         y="0"
         sodipodi:role="line"
         id="tspan4">any</tspan></text>
    <path
       id="path6"
       d="M 131,1 H 361 V 31 H 131 Z"
       style="fill:#ffffff;fill-opacity:1;fill-rule:nonzero;stroke:#000000;stroke-width:1;stroke-linecap:butt;stroke-linejoin:miter;stroke-miterlimit:10;stroke-dasharray:none;stroke-opacity:1"
       transform="matrix(0.9560439,0,0,-0.9560439,0.47802194,31.071427)"
       clip-path="url(#clipPath7)" />
    <text
       id="text7"
       xml:space="preserve"
       transform="matrix(0.95605343,0,0,0.95605343,127.15511,19.121069)"
       clip-path="url(#clipPath8)"><tspan
         style="font-variant:normal;font-weight:normal;font-size:12px;font-family:Helvetica;writing-mode:lr-tb;fill:#000000;fill-opacity:1;fill-rule:nonzero;stroke:none"
         x="0 7.3476562 10.681641 14.015625 20.015625 26.689453 33.363281 36.697266 40.03125 42.697266 49.371094 55.371094 58.705078 62.039062 68.712891 74.712891 78.046875 80.337891 86.337891 89.671875 93.667969 96.333984 103.00781 109.68164 111.97266 115.30664 121.98047 125.97656 129.31055 131.60156 138.27539 144.94922 151.62305 154.28906 160.96289 167.63672 174.31055 176.60156 179.93555 186.60938 190.60547"
         y="0"
         sodipodi:role="line"
         id="tspan7">A type, just as 'string' or 'boolean' are</tspan></text>
    <path
       id="path9"
       d="m 121,1 h -5 c -3.33334,0 -5,3.333333 -5,10 v 40 c 0,6.666668 -1.66666,10 -5,10 h -2.5 c -1.66666,0 -0.83334,0 2.5,0 h 2.5 c 1.66666,0 2.5,3.333336 2.5,10 v 40 c 0,6.66666 1.66666,10 5,10 h 5"
       style="fill:none;stroke:#000000;stroke-width:1;stroke-linecap:butt;stroke-linejoin:miter;stroke-miterlimit:10;stroke-dasharray:none;stroke-opacity:1"
       transform="matrix(0.9560439,0,0,0.9560439,0.47802194,0.47802194)"
       clip-path="url(#clipPath10)" />
    <path
       id="path11"
       d="M 131,46 H 361 V 76 H 131 Z"
       style="fill:#ffffff;fill-opacity:1;fill-rule:nonzero;stroke:#000000;stroke-width:1;stroke-linecap:butt;stroke-linejoin:miter;stroke-miterlimit:10;stroke-dasharray:none;stroke-opacity:1"
       transform="matrix(0.9560439,0,0,-0.9560439,0.47802194,117.11538)"
       clip-path="url(#clipPath12)" />
    <text
       id="text12"
       xml:space="preserve"
       transform="matrix(0.95605343,0,0,0.95605343,127.15511,55.451099)"
       clip-path="url(#clipPath13)"><tspan
         style="font-variant:normal;font-weight:normal;font-size:12px;font-family:Helvetica;writing-mode:lr-tb;fill:#000000;fill-opacity:1;fill-rule:nonzero;stroke:none"
         x="0 9.9960938 16.669922 23.34375 30.017578 36.017578 39.140625 46.470703 54.474609 57.808594 64.482422 71.15625 77.15625 80.490234 87.164062 93.837891 97.171875 99.837891 106.51172 113.18555 119.85938 123.19336 131.85938 138.5332 145.20703 148.54102 151.875 155.20898 161.88281 164.54883 170.54883 173.88281 176.54883 182.54883 185.88281 189.87891 193.21289 199.21289 205.88672 212.56055 214.85156"
         y="0"
         sodipodi:role="line"
         id="tspan12">Means TS has no idea what this is - can't</tspan></text>
    <text
       id="text13"
       xml:space="preserve"
       transform="matrix(0.95605343,0,0,0.95605343,127.15511,69.791901)"
       clip-path="url(#clipPath14)"><tspan
         style="font-variant:normal;font-weight:normal;font-size:12px;font-family:Helvetica;writing-mode:lr-tb;fill:#000000;fill-opacity:1;fill-rule:nonzero;stroke:none"
         x="0 6 12.673828 19.347656 25.347656 31.347656 34.681641 38.015625 44.689453 48.685547 52.019531 58.019531 64.693359 68.689453 72.685547 79.359375 85.359375 88.693359 92.027344 98.701172 102.69727 109.37109 116.04492 122.71875 126.71484 130.04883 136.04883 139.38281 143.37891 150.05273 153.38672 160.06055 164.05664 170.73047 177.4043 183.4043 190.07812"
         y="0"
         sodipodi:role="line"
         id="tspan13">check for correct property references</tspan></text>
    <path
       id="path15"
       d="m 131,91 h 230 v 30 H 131 Z"
       style="fill:#ffffff;fill-opacity:1;fill-rule:nonzero;stroke:#000000;stroke-width:1;stroke-linecap:butt;stroke-linejoin:miter;stroke-miterlimit:10;stroke-dasharray:none;stroke-opacity:1"
       transform="matrix(0.9560439,0,0,-0.9560439,0.47802194,203.15933)"
       clip-path="url(#clipPath16)" />
    <text
       id="text16"
       xml:space="preserve"
       transform="matrix(0.95605343,0,0,0.95605343,127.15511,105.16588)"
       clip-path="url(#clipPath17)"><tspan
         style="font-variant:normal;font-weight:700;font-size:12px;font-family:Helvetica;writing-mode:lr-tb;fill:#000000;fill-opacity:1;fill-rule:nonzero;stroke:none"
         x="0 8.2265625 14.900391 22.230469 25.564453 32.894531 36.228516 42.902344 49.576172 54.246094 57.580078 64.253906 71.583984 74.917969 81.591797 88.265625 91.599609 100.93359 104.26758 108.26367 115.59375 118.92773 121.78125 128.45508 135.78516 142.45898 145.3125 148.64648 155.32031 159.31641 162.65039 169.32422 172.6582 175.99219 179.32617 186 193.33008 200.00391 204"
         y="0"
         sodipodi:role="line"
         id="tspan16">Avoid variables with 'any' at all costs</tspan></text>
    <text
       id="text17"
       xml:space="preserve"
       transform="matrix(0.95605343,0,0,0.95605343,36.315092,90.825076)"
       clip-path="url(#clipPath18)"><tspan
         style="font-style:oblique;font-variant:normal;font-weight:normal;font-size:12px;font-family:Helvetica;writing-mode:lr-tb;fill:#000000;fill-opacity:1;fill-rule:nonzero;stroke:none"
         x="0 6.6738281 12.673828 19.347656"
         y="0"
         sodipodi:role="line"
         id="tspan17">Type</tspan></text>
  </g>
</svg>
