<?xml version="1.0" encoding="UTF-8" standalone="no"?>
<!-- Created with Inkscape (http://www.inkscape.org/) -->

<svg
   version="1.1"
   id="svg1"
   width="1657.2799"
   height="244.16"
   viewBox="0 0 1657.2799 244.16"
   sodipodi:docname="ts-3.pdf"
   xmlns:inkscape="http://www.inkscape.org/namespaces/inkscape"
   xmlns:sodipodi="http://sodipodi.sourceforge.net/DTD/sodipodi-0.dtd"
   xmlns="http://www.w3.org/2000/svg"
   xmlns:svg="http://www.w3.org/2000/svg">
  <defs
     id="defs1">
    <clipPath
       clipPathUnits="userSpaceOnUse"
       id="clipPath2">
      <path
         d="M 0,0 H 5179.166 V 760.40936 H 0 Z"
         transform="scale(0.3340306)"
         clip-rule="evenodd"
         id="path2" />
    </clipPath>
    <clipPath
       clipPathUnits="userSpaceOnUse"
       id="clipPath4">
      <path
         d="M 0,0 H 5179.166 V 760.40936 H 0 Z"
         transform="matrix(0.3340306,0,0,0.3340306,-0.5,-0.5)"
         clip-rule="evenodd"
         id="path4" />
    </clipPath>
    <clipPath
       clipPathUnits="userSpaceOnUse"
       id="clipPath6">
      <path
         d="M 0,0 H 5179.166 V 760.40936 H 0 Z"
         transform="matrix(0.3340306,0,0,0.3340306,-0.5,-0.5)"
         clip-rule="evenodd"
         id="path6" />
    </clipPath>
    <clipPath
       clipPathUnits="userSpaceOnUse"
       id="clipPath8">
      <path
         d="M 0,0 H 5179.166 V 760.40936 H 0 Z"
         transform="matrix(0.3340306,0,0,0.3340306,-0.5,-0.5)"
         clip-rule="evenodd"
         id="path8" />
    </clipPath>
    <clipPath
       clipPathUnits="userSpaceOnUse"
       id="clipPath10">
      <path
         d="M 0,0 H 5179.166 V 760.40936 H 0 Z"
         transform="matrix(0.3340306,0,0,0.3340306,-0.5,-0.5)"
         clip-rule="evenodd"
         id="path10" />
    </clipPath>
    <clipPath
       clipPathUnits="userSpaceOnUse"
       id="clipPath12">
      <path
         d="M 0,0 H 5179.166 V 760.40936 H 0 Z"
         transform="matrix(0.3340306,0,0,0.3340306,-0.5,-0.5)"
         clip-rule="evenodd"
         id="path12" />
    </clipPath>
    <clipPath
       clipPathUnits="userSpaceOnUse"
       id="clipPath14">
      <path
         d="M 0,0 H 5179.166 V 760.40936 H 0 Z"
         transform="matrix(0.3340306,0,0,0.3340306,-0.5,-0.5)"
         clip-rule="evenodd"
         id="path14" />
    </clipPath>
    <clipPath
       clipPathUnits="userSpaceOnUse"
       id="clipPath16">
      <path
         d="M 0,0 H 5179.166 V 760.40936 H 0 Z"
         transform="matrix(0.3340306,0,0,0.3340306,-0.5,-0.5)"
         clip-rule="evenodd"
         id="path16" />
    </clipPath>
    <clipPath
       clipPathUnits="userSpaceOnUse"
       id="clipPath18">
      <path
         d="M 0,0 H 5179.166 V 760.40936 H 0 Z"
         transform="matrix(0.3340306,0,0,0.3340306,-0.5,-0.5)"
         clip-rule="evenodd"
         id="path18" />
    </clipPath>
    <clipPath
       clipPathUnits="userSpaceOnUse"
       id="clipPath20">
      <path
         d="M 0,0 H 5179.166 V 760.40936 H 0 Z"
         transform="matrix(0.3340306,0,0,0.3340306,-0.5,-0.5)"
         clip-rule="evenodd"
         id="path20" />
    </clipPath>
    <clipPath
       clipPathUnits="userSpaceOnUse"
       id="clipPath22">
      <path
         d="M 0,0 H 5179.166 V 760.40936 H 0 Z"
         transform="matrix(0.3340306,0,0,0.3340306,-0.5,-0.5)"
         clip-rule="evenodd"
         id="path22" />
    </clipPath>
    <clipPath
       clipPathUnits="userSpaceOnUse"
       id="clipPath24">
      <path
         d="M 0,0 H 5179.166 V 760.40936 H 0 Z"
         transform="matrix(0.3340306,0,0,0.3340306,-0.5,-0.5)"
         clip-rule="evenodd"
         id="path24" />
    </clipPath>
    <clipPath
       clipPathUnits="userSpaceOnUse"
       id="clipPath26">
      <path
         d="M 0,0 H 5179.166 V 760.40936 H 0 Z"
         transform="matrix(0.3340306,0,0,0.3340306,-0.5,-0.5)"
         clip-rule="evenodd"
         id="path26" />
    </clipPath>
    <clipPath
       clipPathUnits="userSpaceOnUse"
       id="clipPath28">
      <path
         d="M 0,0 H 5179.166 V 760.40936 H 0 Z"
         transform="matrix(0.3340306,0,0,0.3340306,-0.5,-0.5)"
         clip-rule="evenodd"
         id="path28" />
    </clipPath>
    <clipPath
       clipPathUnits="userSpaceOnUse"
       id="clipPath30">
      <path
         d="M 0,0 H 5179.166 V 760.40936 H 0 Z"
         transform="matrix(0.3340306,0,0,0.3340306,-0.5,-0.5)"
         clip-rule="evenodd"
         id="path30" />
    </clipPath>
    <clipPath
       clipPathUnits="userSpaceOnUse"
       id="clipPath31">
      <path
         d="M 0,0 H 5179.166 V 760.40936 H 0 Z"
         transform="matrix(0.33402725,0,0,0.33402725,-405,-32)"
         clip-rule="evenodd"
         id="path31" />
    </clipPath>
    <clipPath
       clipPathUnits="userSpaceOnUse"
       id="clipPath32">
      <path
         d="M 0,0 H 5179.166 V 760.40936 H 0 Z"
         transform="matrix(0.33402725,0,0,0.33402725,-475,-80)"
         clip-rule="evenodd"
         id="path32" />
    </clipPath>
    <clipPath
       clipPathUnits="userSpaceOnUse"
       id="clipPath33">
      <path
         d="M 0,0 H 5179.166 V 760.40936 H 0 Z"
         transform="matrix(0.33402725,0,0,0.33402725,-365.48438,-131)"
         clip-rule="evenodd"
         id="path33" />
    </clipPath>
    <clipPath
       clipPathUnits="userSpaceOnUse"
       id="clipPath34">
      <path
         d="M 0,0 H 5179.166 V 760.40936 H 0 Z"
         transform="matrix(0.33402725,0,0,0.33402725,-361.26564,-161.00001)"
         clip-rule="evenodd"
         id="path34" />
    </clipPath>
    <clipPath
       clipPathUnits="userSpaceOnUse"
       id="clipPath36">
      <path
         d="M 0,0 H 5179.166 V 760.40936 H 0 Z"
         transform="matrix(0.3340306,0,0,0.3340306,-0.5,-0.5)"
         clip-rule="evenodd"
         id="path36" />
    </clipPath>
    <clipPath
       clipPathUnits="userSpaceOnUse"
       id="clipPath38">
      <path
         d="M 0,0 H 5179.166 V 760.40936 H 0 Z"
         transform="matrix(0.3340306,0,0,0.3340306,-0.5,-0.5)"
         clip-rule="evenodd"
         id="path38" />
    </clipPath>
    <clipPath
       clipPathUnits="userSpaceOnUse"
       id="clipPath40">
      <path
         d="M 0,0 H 5179.166 V 760.40936 H 0 Z"
         transform="matrix(0.3340306,0,0,0.3340306,-0.5,-0.5)"
         clip-rule="evenodd"
         id="path40" />
    </clipPath>
    <clipPath
       clipPathUnits="userSpaceOnUse"
       id="clipPath41">
      <path
         d="M 0,0 H 5179.166 V 760.40936 H 0 Z"
         transform="matrix(0.33402725,0,0,0.33402725,-376.20313,-196)"
         clip-rule="evenodd"
         id="path41" />
    </clipPath>
    <clipPath
       clipPathUnits="userSpaceOnUse"
       id="clipPath43">
      <path
         d="M 0,0 H 5179.166 V 760.40936 H 0 Z"
         transform="matrix(0.3340306,0,0,0.3340306,-0.5,-0.5)"
         clip-rule="evenodd"
         id="path43" />
    </clipPath>
    <clipPath
       clipPathUnits="userSpaceOnUse"
       id="clipPath45">
      <path
         d="M 0,0 H 5179.166 V 760.40936 H 0 Z"
         transform="matrix(0.3340306,0,0,0.3340306,-0.5,-0.5)"
         clip-rule="evenodd"
         id="path45" />
    </clipPath>
    <clipPath
       clipPathUnits="userSpaceOnUse"
       id="clipPath47">
      <path
         d="M 0,0 H 5179.166 V 760.40936 H 0 Z"
         transform="matrix(0.3340306,0,0,0.3340306,-0.5,-0.5)"
         clip-rule="evenodd"
         id="path47" />
    </clipPath>
    <clipPath
       clipPathUnits="userSpaceOnUse"
       id="clipPath49">
      <path
         d="M 0,0 H 5179.166 V 760.40936 H 0 Z"
         transform="matrix(0.3340306,0,0,0.3340306,-0.5,-0.5)"
         clip-rule="evenodd"
         id="path49" />
    </clipPath>
    <clipPath
       clipPathUnits="userSpaceOnUse"
       id="clipPath51">
      <path
         d="M 0,0 H 5179.166 V 760.40936 H 0 Z"
         transform="matrix(0.3340306,0,0,0.3340306,-0.5,-0.5)"
         clip-rule="evenodd"
         id="path51" />
    </clipPath>
    <clipPath
       clipPathUnits="userSpaceOnUse"
       id="clipPath53">
      <path
         d="M 0,0 H 5179.166 V 760.40936 H 0 Z"
         transform="matrix(0.3340306,0,0,0.3340306,-0.5,-0.5)"
         clip-rule="evenodd"
         id="path53" />
    </clipPath>
    <clipPath
       clipPathUnits="userSpaceOnUse"
       id="clipPath55">
      <path
         d="M 0,0 H 5179.166 V 760.40936 H 0 Z"
         transform="matrix(0.3340306,0,0,0.3340306,-0.5,-0.5)"
         clip-rule="evenodd"
         id="path55" />
    </clipPath>
    <clipPath
       clipPathUnits="userSpaceOnUse"
       id="clipPath57">
      <path
         d="M 0,0 H 5179.166 V 760.40936 H 0 Z"
         transform="matrix(0.3340306,0,0,0.3340306,-0.5,-0.5)"
         clip-rule="evenodd"
         id="path57" />
    </clipPath>
    <clipPath
       clipPathUnits="userSpaceOnUse"
       id="clipPath59">
      <path
         d="M 0,0 H 5179.166 V 760.40936 H 0 Z"
         transform="matrix(0.3340306,0,0,0.3340306,-0.5,-0.5)"
         clip-rule="evenodd"
         id="path59" />
    </clipPath>
    <clipPath
       clipPathUnits="userSpaceOnUse"
       id="clipPath61">
      <path
         d="M 0,0 H 5179.166 V 760.40936 H 0 Z"
         transform="matrix(0.3340306,0,0,0.3340306,-0.5,-0.5)"
         clip-rule="evenodd"
         id="path61" />
    </clipPath>
    <clipPath
       clipPathUnits="userSpaceOnUse"
       id="clipPath63">
      <path
         d="M 0,0 H 5179.166 V 760.40936 H 0 Z"
         transform="matrix(0.3340306,0,0,0.3340306,-0.5,-0.5)"
         clip-rule="evenodd"
         id="path63" />
    </clipPath>
    <clipPath
       clipPathUnits="userSpaceOnUse"
       id="clipPath65">
      <path
         d="M 0,0 H 5179.166 V 760.40936 H 0 Z"
         transform="matrix(0.3340306,0,0,0.3340306,-0.5,-0.5)"
         clip-rule="evenodd"
         id="path65" />
    </clipPath>
    <clipPath
       clipPathUnits="userSpaceOnUse"
       id="clipPath67">
      <path
         d="M 0,0 H 5179.166 V 760.40936 H 0 Z"
         transform="matrix(0.3340306,0,0,0.3340306,-0.5,-0.5)"
         clip-rule="evenodd"
         id="path67" />
    </clipPath>
    <clipPath
       clipPathUnits="userSpaceOnUse"
       id="clipPath69">
      <path
         d="M 0,0 H 5179.166 V 760.40936 H 0 Z"
         transform="matrix(0.3340306,0,0,0.3340306,-0.5,-0.5)"
         clip-rule="evenodd"
         id="path69" />
    </clipPath>
    <clipPath
       clipPathUnits="userSpaceOnUse"
       id="clipPath70">
      <path
         d="M 0,0 H 5179.166 V 760.40936 H 0 Z"
         transform="matrix(0.33402725,0,0,0.33402725,-734.00001,-32)"
         clip-rule="evenodd"
         id="path70" />
    </clipPath>
    <clipPath
       clipPathUnits="userSpaceOnUse"
       id="clipPath71">
      <path
         d="M 0,0 H 5179.166 V 760.40936 H 0 Z"
         transform="matrix(0.33402725,0,0,0.33402725,-805.00001,-80)"
         clip-rule="evenodd"
         id="path71" />
    </clipPath>
    <clipPath
       clipPathUnits="userSpaceOnUse"
       id="clipPath72">
      <path
         d="M 0,0 H 5179.166 V 760.40936 H 0 Z"
         transform="matrix(0.33402725,0,0,0.33402725,-697.76564,-131)"
         clip-rule="evenodd"
         id="path72" />
    </clipPath>
    <clipPath
       clipPathUnits="userSpaceOnUse"
       id="clipPath73">
      <path
         d="M 5179.166,0 H 0 V 760.40936 H 5179.166 Z M 2170.4058,477.8334 h -25.2483 v 7.18503 h 25.2483 z"
         transform="scale(0.33402725)"
         clip-rule="evenodd"
         id="path73" />
    </clipPath>
    <clipPath
       clipPathUnits="userSpaceOnUse"
       id="clipPath74">
      <path
         d="M 0,0 H 5179.166 V 760.40936 H 0 Z"
         transform="scale(0.31999999)"
         id="path74" />
    </clipPath>
    <clipPath
       clipPathUnits="userSpaceOnUse"
       id="clipPath76">
      <path
         d="M 0,0 H 5179.166 V 760.40936 H 0 Z"
         transform="scale(0.31999999)"
         id="path76" />
    </clipPath>
    <clipPath
       clipPathUnits="userSpaceOnUse"
       id="clipPath77">
      <path
         d="M 0,0 H 5179.166 V 760.40936 H 0 Z"
         transform="matrix(0.33402725,0,0,0.33402725,-701.57813,-159)"
         clip-rule="evenodd"
         id="path77" />
    </clipPath>
    <clipPath
       clipPathUnits="userSpaceOnUse"
       id="clipPath79">
      <path
         d="M 0,0 H 5179.166 V 760.40936 H 0 Z"
         transform="matrix(0.3340306,0,0,0.3340306,-0.5,-0.5)"
         clip-rule="evenodd"
         id="path79" />
    </clipPath>
    <clipPath
       clipPathUnits="userSpaceOnUse"
       id="clipPath81">
      <path
         d="M 0,0 H 5179.166 V 760.40936 H 0 Z"
         transform="matrix(0.3340306,0,0,0.3340306,-0.5,-0.5)"
         clip-rule="evenodd"
         id="path81" />
    </clipPath>
    <clipPath
       clipPathUnits="userSpaceOnUse"
       id="clipPath83">
      <path
         d="M 0,0 H 5179.166 V 760.40936 H 0 Z"
         transform="matrix(0.3340306,0,0,0.3340306,-0.5,-0.5)"
         clip-rule="evenodd"
         id="path83" />
    </clipPath>
    <clipPath
       clipPathUnits="userSpaceOnUse"
       id="clipPath85">
      <path
         d="M 0,0 H 5179.166 V 760.40936 H 0 Z"
         transform="matrix(0.3340306,0,0,0.3340306,-0.5,-0.5)"
         clip-rule="evenodd"
         id="path85" />
    </clipPath>
    <clipPath
       clipPathUnits="userSpaceOnUse"
       id="clipPath87">
      <path
         d="M 0,0 H 5179.166 V 760.40936 H 0 Z"
         transform="matrix(0.3340306,0,0,0.3340306,-0.5,-0.5)"
         clip-rule="evenodd"
         id="path87" />
    </clipPath>
    <clipPath
       clipPathUnits="userSpaceOnUse"
       id="clipPath89">
      <path
         d="M 0,0 H 5179.166 V 760.40936 H 0 Z"
         transform="matrix(0.3340306,0,0,0.3340306,-0.5,-0.5)"
         clip-rule="evenodd"
         id="path89" />
    </clipPath>
    <clipPath
       clipPathUnits="userSpaceOnUse"
       id="clipPath91">
      <path
         d="M 0,0 H 5179.166 V 760.40936 H 0 Z"
         transform="matrix(0.3340306,0,0,0.3340306,-0.5,-0.5)"
         clip-rule="evenodd"
         id="path91" />
    </clipPath>
    <clipPath
       clipPathUnits="userSpaceOnUse"
       id="clipPath93">
      <path
         d="M 0,0 H 5179.166 V 760.40936 H 0 Z"
         transform="matrix(0.3340306,0,0,0.3340306,-0.5,-0.5)"
         clip-rule="evenodd"
         id="path93" />
    </clipPath>
    <clipPath
       clipPathUnits="userSpaceOnUse"
       id="clipPath95">
      <path
         d="M 0,0 H 5179.166 V 760.40936 H 0 Z"
         transform="matrix(0.3340306,0,0,0.3340306,-0.5,-0.5)"
         clip-rule="evenodd"
         id="path95" />
    </clipPath>
    <clipPath
       clipPathUnits="userSpaceOnUse"
       id="clipPath97">
      <path
         d="M 0,0 H 5179.166 V 760.40936 H 0 Z"
         transform="matrix(0.3340306,0,0,0.3340306,-0.5,-0.5)"
         clip-rule="evenodd"
         id="path97" />
    </clipPath>
    <clipPath
       clipPathUnits="userSpaceOnUse"
       id="clipPath99">
      <path
         d="M 0,0 H 5179.166 V 760.40936 H 0 Z"
         transform="matrix(0.3340306,0,0,0.3340306,-0.5,-0.5)"
         clip-rule="evenodd"
         id="path99" />
    </clipPath>
    <clipPath
       clipPathUnits="userSpaceOnUse"
       id="clipPath101">
      <path
         d="M 0,0 H 5179.166 V 760.40936 H 0 Z"
         transform="matrix(0.3340306,0,0,0.3340306,-0.5,-0.5)"
         clip-rule="evenodd"
         id="path101" />
    </clipPath>
    <clipPath
       clipPathUnits="userSpaceOnUse"
       id="clipPath103">
      <path
         d="M 0,0 H 5179.166 V 760.40936 H 0 Z"
         transform="matrix(0.3340306,0,0,0.3340306,-0.5,-0.5)"
         clip-rule="evenodd"
         id="path103" />
    </clipPath>
    <clipPath
       clipPathUnits="userSpaceOnUse"
       id="clipPath105">
      <path
         d="M 0,0 H 5179.166 V 760.40936 H 0 Z"
         transform="matrix(0.3340306,0,0,0.3340306,-0.5,-0.5)"
         clip-rule="evenodd"
         id="path105" />
    </clipPath>
    <clipPath
       clipPathUnits="userSpaceOnUse"
       id="clipPath106">
      <path
         d="M 0,0 H 5179.166 V 760.40936 H 0 Z"
         transform="matrix(0.33402725,0,0,0.33402725,-63,-32)"
         clip-rule="evenodd"
         id="path106" />
    </clipPath>
    <clipPath
       clipPathUnits="userSpaceOnUse"
       id="clipPath107">
      <path
         d="M 0,0 H 5179.166 V 760.40936 H 0 Z"
         transform="matrix(0.33402725,0,0,0.33402725,-133,-80)"
         clip-rule="evenodd"
         id="path107" />
    </clipPath>
    <clipPath
       clipPathUnits="userSpaceOnUse"
       id="clipPath108">
      <path
         d="M 0,0 H 5179.166 V 760.40936 H 0 Z"
         transform="matrix(0.33402725,0,0,0.33402725,-31.578125,-136)"
         clip-rule="evenodd"
         id="path108" />
    </clipPath>
    <clipPath
       clipPathUnits="userSpaceOnUse"
       id="clipPath109">
      <path
         d="M 5179.166,0 H 0 V 760.40936 H 5179.166 Z M 177.39844,492.80225 h -25.24816 v 7.18502 h 25.24816 z"
         transform="scale(0.33402725)"
         clip-rule="evenodd"
         id="path109" />
    </clipPath>
    <clipPath
       clipPathUnits="userSpaceOnUse"
       id="clipPath110">
      <path
         d="M 0,0 H 5179.166 V 760.40936 H 0 Z"
         transform="scale(0.31999999)"
         id="path110" />
    </clipPath>
    <clipPath
       clipPathUnits="userSpaceOnUse"
       id="clipPath112">
      <path
         d="M 0,0 H 5179.166 V 760.40936 H 0 Z"
         transform="scale(0.31999999)"
         id="path112" />
    </clipPath>
    <clipPath
       clipPathUnits="userSpaceOnUse"
       id="clipPath113">
      <path
         d="M 0,0 H 5179.166 V 760.40936 H 0 Z"
         transform="matrix(0.33402725,0,0,0.33402725,-35.859375,-164)"
         clip-rule="evenodd"
         id="path113" />
    </clipPath>
    <clipPath
       clipPathUnits="userSpaceOnUse"
       id="clipPath115">
      <path
         d="M 0,0 H 5179.166 V 760.40936 H 0 Z"
         transform="matrix(0.3340306,0,0,0.3340306,-0.5,-0.5)"
         clip-rule="evenodd"
         id="path115" />
    </clipPath>
    <clipPath
       clipPathUnits="userSpaceOnUse"
       id="clipPath117">
      <path
         d="M 0,0 H 5179.166 V 760.40936 H 0 Z"
         transform="matrix(0.3340306,0,0,0.3340306,-0.5,-0.5)"
         clip-rule="evenodd"
         id="path117" />
    </clipPath>
    <clipPath
       clipPathUnits="userSpaceOnUse"
       id="clipPath119">
      <path
         d="M 0,0 H 5179.166 V 760.40936 H 0 Z"
         transform="matrix(0.3340306,0,0,0.3340306,-0.5,-0.5)"
         clip-rule="evenodd"
         id="path119" />
    </clipPath>
    <clipPath
       clipPathUnits="userSpaceOnUse"
       id="clipPath121">
      <path
         d="M 0,0 H 5179.166 V 760.40936 H 0 Z"
         transform="matrix(0.3340306,0,0,0.3340306,-0.5,-0.5)"
         clip-rule="evenodd"
         id="path121" />
    </clipPath>
    <clipPath
       clipPathUnits="userSpaceOnUse"
       id="clipPath123">
      <path
         d="M 0,0 H 5179.166 V 760.40936 H 0 Z"
         transform="matrix(0.3340306,0,0,0.3340306,-0.5,-0.5)"
         clip-rule="evenodd"
         id="path123" />
    </clipPath>
    <clipPath
       clipPathUnits="userSpaceOnUse"
       id="clipPath125">
      <path
         d="M 0,0 H 5179.166 V 760.40936 H 0 Z"
         transform="matrix(0.3340306,0,0,0.3340306,-0.5,-0.5)"
         clip-rule="evenodd"
         id="path125" />
    </clipPath>
    <clipPath
       clipPathUnits="userSpaceOnUse"
       id="clipPath127">
      <path
         d="M 0,0 H 5179.166 V 760.40936 H 0 Z"
         transform="matrix(0.3340306,0,0,0.3340306,-0.5,-0.5)"
         clip-rule="evenodd"
         id="path127" />
    </clipPath>
    <clipPath
       clipPathUnits="userSpaceOnUse"
       id="clipPath129">
      <path
         d="M 0,0 H 5179.166 V 760.40936 H 0 Z"
         transform="matrix(0.3340306,0,0,0.3340306,-0.5,-0.5)"
         clip-rule="evenodd"
         id="path129" />
    </clipPath>
    <clipPath
       clipPathUnits="userSpaceOnUse"
       id="clipPath131">
      <path
         d="M 0,0 H 5179.166 V 760.40936 H 0 Z"
         transform="matrix(0.3340306,0,0,0.3340306,-0.5,-0.5)"
         clip-rule="evenodd"
         id="path131" />
    </clipPath>
    <clipPath
       clipPathUnits="userSpaceOnUse"
       id="clipPath133">
      <path
         d="M 0,0 H 5179.166 V 760.40936 H 0 Z"
         transform="matrix(0.3340306,0,0,0.3340306,-0.5,-0.5)"
         clip-rule="evenodd"
         id="path133" />
    </clipPath>
    <clipPath
       clipPathUnits="userSpaceOnUse"
       id="clipPath135">
      <path
         d="M 0,0 H 5179.166 V 760.40936 H 0 Z"
         transform="matrix(0.3340306,0,0,0.3340306,-0.5,-0.5)"
         clip-rule="evenodd"
         id="path135" />
    </clipPath>
    <clipPath
       clipPathUnits="userSpaceOnUse"
       id="clipPath137">
      <path
         d="M 0,0 H 5179.166 V 760.40936 H 0 Z"
         transform="matrix(0.3340306,0,0,0.3340306,-0.5,-0.5)"
         clip-rule="evenodd"
         id="path137" />
    </clipPath>
    <clipPath
       clipPathUnits="userSpaceOnUse"
       id="clipPath139">
      <path
         d="M 0,0 H 5179.166 V 760.40936 H 0 Z"
         transform="matrix(0.3340306,0,0,0.3340306,-0.5,-0.5)"
         clip-rule="evenodd"
         id="path139" />
    </clipPath>
    <clipPath
       clipPathUnits="userSpaceOnUse"
       id="clipPath141">
      <path
         d="M 0,0 H 5179.166 V 760.40936 H 0 Z"
         transform="matrix(0.3340306,0,0,0.3340306,-0.5,-0.5)"
         clip-rule="evenodd"
         id="path141" />
    </clipPath>
    <clipPath
       clipPathUnits="userSpaceOnUse"
       id="clipPath142">
      <path
         d="M 0,0 H 5179.166 V 760.40936 H 0 Z"
         transform="matrix(0.33402725,0,0,0.33402725,-1065,-32)"
         clip-rule="evenodd"
         id="path142" />
    </clipPath>
    <clipPath
       clipPathUnits="userSpaceOnUse"
       id="clipPath143">
      <path
         d="M 0,0 H 5179.166 V 760.40936 H 0 Z"
         transform="matrix(0.33402725,0,0,0.33402725,-1135,-80)"
         clip-rule="evenodd"
         id="path143" />
    </clipPath>
    <clipPath
       clipPathUnits="userSpaceOnUse"
       id="clipPath144">
      <path
         d="M 0,0 H 5179.166 V 760.40936 H 0 Z"
         transform="matrix(0.33402725,0,0,0.33402725,-1025.1875,-131)"
         clip-rule="evenodd"
         id="path144" />
    </clipPath>
    <clipPath
       clipPathUnits="userSpaceOnUse"
       id="clipPath145">
      <path
         d="M 0,0 H 5179.166 V 760.40936 H 0 Z"
         transform="matrix(0.33402725,0,0,0.33402725,-1067.0781,-148)"
         clip-rule="evenodd"
         id="path145" />
    </clipPath>
    <clipPath
       clipPathUnits="userSpaceOnUse"
       id="clipPath147">
      <path
         d="M 0,0 H 5179.166 V 760.40936 H 0 Z"
         transform="matrix(0.3340306,0,0,0.3340306,-0.5,-0.5)"
         clip-rule="evenodd"
         id="path147" />
    </clipPath>
    <clipPath
       clipPathUnits="userSpaceOnUse"
       id="clipPath149">
      <path
         d="M 0,0 H 5179.166 V 760.40936 H 0 Z"
         transform="matrix(0.3340306,0,0,0.3340306,-0.5,-0.5)"
         clip-rule="evenodd"
         id="path149" />
    </clipPath>
    <clipPath
       clipPathUnits="userSpaceOnUse"
       id="clipPath151">
      <path
         d="M 0,0 H 5179.166 V 760.40936 H 0 Z"
         transform="matrix(0.3340306,0,0,0.3340306,-0.5,-0.5)"
         clip-rule="evenodd"
         id="path151" />
    </clipPath>
    <clipPath
       clipPathUnits="userSpaceOnUse"
       id="clipPath153">
      <path
         d="M 0,0 H 5179.166 V 760.40936 H 0 Z"
         transform="matrix(0.3340306,0,0,0.3340306,-0.5,-0.5)"
         clip-rule="evenodd"
         id="path153" />
    </clipPath>
    <clipPath
       clipPathUnits="userSpaceOnUse"
       id="clipPath155">
      <path
         d="M 0,0 H 5179.166 V 760.40936 H 0 Z"
         transform="matrix(0.3340306,0,0,0.3340306,-0.5,-0.5)"
         clip-rule="evenodd"
         id="path155" />
    </clipPath>
    <clipPath
       clipPathUnits="userSpaceOnUse"
       id="clipPath157">
      <path
         d="M 0,0 H 5179.166 V 760.40936 H 0 Z"
         transform="matrix(0.3340306,0,0,0.3340306,-0.5,-0.5)"
         clip-rule="evenodd"
         id="path157" />
    </clipPath>
    <clipPath
       clipPathUnits="userSpaceOnUse"
       id="clipPath159">
      <path
         d="M 0,0 H 5179.166 V 760.40936 H 0 Z"
         transform="matrix(0.3340306,0,0,0.3340306,-0.5,-0.5)"
         clip-rule="evenodd"
         id="path159" />
    </clipPath>
    <clipPath
       clipPathUnits="userSpaceOnUse"
       id="clipPath161">
      <path
         d="M 0,0 H 5179.166 V 760.40936 H 0 Z"
         transform="matrix(0.3340306,0,0,0.3340306,-0.5,-0.5)"
         clip-rule="evenodd"
         id="path161" />
    </clipPath>
    <clipPath
       clipPathUnits="userSpaceOnUse"
       id="clipPath163">
      <path
         d="M 0,0 H 5179.166 V 760.40936 H 0 Z"
         transform="matrix(0.3340306,0,0,0.3340306,-0.5,-0.5)"
         clip-rule="evenodd"
         id="path163" />
    </clipPath>
    <clipPath
       clipPathUnits="userSpaceOnUse"
       id="clipPath165">
      <path
         d="M 0,0 H 5179.166 V 760.40936 H 0 Z"
         transform="matrix(0.3340306,0,0,0.3340306,-0.5,-0.5)"
         clip-rule="evenodd"
         id="path165" />
    </clipPath>
    <clipPath
       clipPathUnits="userSpaceOnUse"
       id="clipPath167">
      <path
         d="M 0,0 H 5179.166 V 760.40936 H 0 Z"
         transform="matrix(0.3340306,0,0,0.3340306,-0.5,-0.5)"
         clip-rule="evenodd"
         id="path167" />
    </clipPath>
    <clipPath
       clipPathUnits="userSpaceOnUse"
       id="clipPath169">
      <path
         d="M 0,0 H 5179.166 V 760.40936 H 0 Z"
         transform="matrix(0.3340306,0,0,0.3340306,-0.5,-0.5)"
         clip-rule="evenodd"
         id="path169" />
    </clipPath>
    <clipPath
       clipPathUnits="userSpaceOnUse"
       id="clipPath171">
      <path
         d="M 0,0 H 5179.166 V 760.40936 H 0 Z"
         transform="matrix(0.3340306,0,0,0.3340306,-0.5,-0.5)"
         clip-rule="evenodd"
         id="path171" />
    </clipPath>
    <clipPath
       clipPathUnits="userSpaceOnUse"
       id="clipPath173">
      <path
         d="M 0,0 H 5179.166 V 760.40936 H 0 Z"
         transform="matrix(0.3340306,0,0,0.3340306,-0.5,-0.5)"
         clip-rule="evenodd"
         id="path173" />
    </clipPath>
    <clipPath
       clipPathUnits="userSpaceOnUse"
       id="clipPath174">
      <path
         d="M 0,0 H 5179.166 V 760.40936 H 0 Z"
         transform="matrix(0.33402725,0,0,0.33402725,-1410,-32)"
         clip-rule="evenodd"
         id="path174" />
    </clipPath>
    <clipPath
       clipPathUnits="userSpaceOnUse"
       id="clipPath175">
      <path
         d="M 0,0 H 5179.166 V 760.40936 H 0 Z"
         transform="matrix(0.33402725,0,0,0.33402725,-1480,-80)"
         clip-rule="evenodd"
         id="path175" />
    </clipPath>
    <clipPath
       clipPathUnits="userSpaceOnUse"
       id="clipPath176">
      <path
         d="M 0,0 H 5179.166 V 760.40936 H 0 Z"
         transform="matrix(0.33402725,0,0,0.33402725,-1380.8125,-139)"
         clip-rule="evenodd"
         id="path176" />
    </clipPath>
  </defs>
  <sodipodi:namedview
     id="namedview1"
     pagecolor="#ffffff"
     bordercolor="#000000"
     borderopacity="0.25"
     inkscape:showpageshadow="2"
     inkscape:pageopacity="0.0"
     inkscape:pagecheckerboard="0"
     inkscape:deskcolor="#d1d1d1">
    <inkscape:page
       x="0"
       y="0"
       inkscape:label="1"
       id="page1"
       width="1657.2799"
       height="244.16"
       margin="0"
       bleed="0" />
  </sodipodi:namedview>
  <g
     id="g1"
     inkscape:groupmode="layer"
     inkscape:label="1">
    <path
       id="path1"
       d="M 0,0 H 1730 V 254 H 0 Z"
       style="fill:#ffffff;fill-opacity:1;fill-rule:nonzero;stroke:none"
       transform="scale(0.95799602)"
       clip-path="url(#clipPath2)" />
    <path
       id="path3"
       d="M 342.5,1 H 662.51001 V 251 H 342.5 Z"
       style="fill:#ffffff;fill-opacity:1;fill-rule:nonzero;stroke:#666666;stroke-width:1;stroke-linecap:butt;stroke-linejoin:miter;stroke-miterlimit:10;stroke-dasharray:none;stroke-opacity:1"
       transform="matrix(0.95799602,0,0,0.95799602,0.47899801,0.47899801)"
       clip-path="url(#clipPath4)" />
    <path
       id="path5"
       d="m 607.51007,16 c -6e-5,0.656614 -0.0641,1.306923 -0.1922,1.950922 -0.12811,0.643999 -0.31781,1.269314 -0.56909,1.875948 -0.25128,0.606634 -0.55933,1.182928 -0.92413,1.728886 -0.36475,0.545957 -0.7793,1.051084 -1.2436,1.51538 -0.46429,0.464297 -0.96942,0.878844 -1.51538,1.243639 -0.54596,0.364796 -1.12225,0.672833 -1.72888,0.924109 -0.60663,0.251276 -1.23193,0.440964 -1.87591,0.569063 -0.64399,0.1281 -1.29432,0.19215 -1.95087,0.192152 -0.65662,-2e-6 -1.30695,-0.06405 -1.95099,-0.192152 -0.64398,-0.128099 -1.26935,-0.317787 -1.87598,-0.569063 -0.60662,-0.251276 -1.18292,-0.559313 -1.72882,-0.924109 -0.54596,-0.364795 -1.05108,-0.779342 -1.51538,-1.243639 -0.46429,-0.464296 -0.87884,-0.969423 -1.24365,-1.515378 -0.36481,-0.545958 -0.67285,-1.122254 -0.92413,-1.728888 -0.25128,-0.606634 -0.44092,-1.231949 -0.56903,-1.875948 -0.12812,-0.643999 -0.19214,-1.294308 -0.19214,-1.950922 0,-0.656616 0.064,-1.306924 0.19214,-1.950923 0.12811,-0.644 0.31775,-1.269317 0.56903,-1.875951 0.25128,-0.606633 0.55926,-1.182928 0.92407,-1.728885 0.36481,-0.5459561 0.77936,-1.051083 1.24365,-1.5153803 0.4643,-0.4642973 0.96942,-0.8788443 1.51538,-1.2436409 0.54596,-0.3647962 1.12226,-0.6728325 1.72888,-0.9241085 0.60663,-0.2512756 1.232,-0.4409633 1.87598,-0.5690623 0.64404,-0.1280994 1.29437,-0.1921491 1.95099,-0.1921491 0.65655,0 1.30688,0.06405 1.95087,0.1921491 0.64398,0.128099 1.26928,0.3177867 1.87591,0.5690623 0.60663,0.251276 1.18292,0.5593123 1.72888,0.9241085 0.54596,0.3647966 1.05109,0.7793436 1.51538,1.2436409 0.4643,0.4642973 0.87885,0.9694242 1.2436,1.5153803 0.3648,0.545957 0.67285,1.122252 0.92413,1.728885 0.25128,0.606634 0.44098,1.231951 0.56909,1.875951 0.12811,0.643999 0.19214,1.294307 0.1922,1.950923 z"
       style="fill:none;stroke:#666666;stroke-width:1;stroke-linecap:butt;stroke-linejoin:miter;stroke-miterlimit:10;stroke-dasharray:none;stroke-opacity:1"
       transform="matrix(0.95799602,0,0,0.95799602,0.47899801,0.47899801)"
       clip-path="url(#clipPath6)" />
    <path
       id="path7"
       d="m 632.51007,16 c -6e-5,0.656614 -0.0641,1.306923 -0.1922,1.950922 -0.12811,0.643999 -0.31781,1.269314 -0.56909,1.875948 -0.25128,0.606634 -0.55927,1.182928 -0.92407,1.728886 -0.36475,0.545957 -0.7793,1.051084 -1.24359,1.51538 -0.4643,0.464297 -0.96943,0.878844 -1.51539,1.243639 -0.54595,0.364796 -1.12225,0.672833 -1.72888,0.924109 -0.60663,0.251276 -1.23199,0.440964 -1.87597,0.569063 -0.64399,0.1281 -1.29432,0.19215 -1.95087,0.192152 -0.65668,-2e-6 -1.30701,-0.06405 -1.95099,-0.192152 -0.64398,-0.128099 -1.26935,-0.317787 -1.87598,-0.569063 -0.60662,-0.251276 -1.18292,-0.559313 -1.72888,-0.924109 -0.54596,-0.364795 -1.05102,-0.779342 -1.51532,-1.243639 -0.46429,-0.464296 -0.8789,-0.969423 -1.24371,-1.515378 -0.36481,-0.545958 -0.67285,-1.122254 -0.92413,-1.728888 -0.25122,-0.606634 -0.44092,-1.231949 -0.56903,-1.875948 -0.12812,-0.643999 -0.19214,-1.294308 -0.19208,-1.950922 -6e-5,-0.656616 0.064,-1.306924 0.19208,-1.950923 0.12811,-0.644 0.31781,-1.269317 0.56903,-1.875951 0.25128,-0.606633 0.55932,-1.182928 0.92413,-1.728885 0.36481,-0.5459561 0.77942,-1.051083 1.24371,-1.5153803 0.4643,-0.4642973 0.96942,-0.8788443 1.51538,-1.2436409 0.54596,-0.3647962 1.1222,-0.6728325 1.72882,-0.9241085 0.60663,-0.2512756 1.232,-0.4409633 1.87598,-0.5690623 0.64398,-0.1280994 1.29431,-0.1921491 1.95099,-0.1921491 0.65655,0 1.30688,0.06405 1.95087,0.1921491 0.64398,0.128099 1.26934,0.3177867 1.87597,0.5690623 0.60663,0.251276 1.18293,0.5593123 1.72888,0.9241085 0.54596,0.3647966 1.05109,0.7793436 1.51539,1.2436409 0.46429,0.4642973 0.87884,0.9694242 1.24359,1.5153803 0.3648,0.545957 0.67279,1.122252 0.92407,1.728885 0.25128,0.606634 0.44098,1.231951 0.56909,1.875951 0.12811,0.643999 0.19214,1.294307 0.1922,1.950923 z"
       style="fill:none;stroke:#666666;stroke-width:1;stroke-linecap:butt;stroke-linejoin:miter;stroke-miterlimit:10;stroke-dasharray:none;stroke-opacity:1"
       transform="matrix(0.95799602,0,0,0.95799602,0.47899801,0.47899801)"
       clip-path="url(#clipPath8)" />
    <path
       id="path9"
       d="m 657.51007,16 c -6e-5,0.656614 -0.0641,1.306923 -0.1922,1.950922 -0.12811,0.643999 -0.31775,1.269314 -0.56903,1.875948 -0.25128,0.606634 -0.55933,1.182928 -0.92413,1.728886 -0.36481,0.545957 -0.77936,1.051084 -1.24366,1.51538 -0.46429,0.464297 -0.96942,0.878844 -1.51538,1.243639 -0.54596,0.364796 -1.12231,0.672833 -1.72894,0.924109 -0.60657,0.251276 -1.23187,0.440964 -1.87591,0.569063 -0.64399,0.1281 -1.29426,0.19215 -1.95081,0.192152 -0.65668,-2e-6 -1.30707,-0.06405 -1.95105,-0.192152 -0.64398,-0.128099 -1.26929,-0.317787 -1.87592,-0.569063 -0.60662,-0.251276 -1.18286,-0.559313 -1.72882,-0.924109 -0.54596,-0.364795 -1.05108,-0.779342 -1.51538,-1.243639 -0.46429,-0.464296 -0.87884,-0.969423 -1.24365,-1.515378 -0.36487,-0.545958 -0.67291,-1.122254 -0.92413,-1.728888 -0.25128,-0.606634 -0.44098,-1.231949 -0.56909,-1.875948 -0.12812,-0.643999 -0.19214,-1.294308 -0.19208,-1.950922 -6e-5,-0.656616 0.064,-1.306924 0.19208,-1.950923 0.12811,-0.644 0.31774,-1.269317 0.56903,-1.875951 0.25128,-0.606633 0.55932,-1.182928 0.92413,-1.728885 0.36481,-0.5459561 0.77936,-1.051083 1.24365,-1.5153803 0.4643,-0.4642973 0.96942,-0.8788443 1.51538,-1.2436409 0.54596,-0.3647962 1.12226,-0.6728325 1.72888,-0.9241085 0.60663,-0.2512756 1.23194,-0.4409633 1.87592,-0.5690623 0.64398,-0.1280994 1.29437,-0.1921491 1.95105,-0.1921491 0.65655,0 1.30682,0.06405 1.95081,0.1921491 0.64404,0.128099 1.26934,0.3177867 1.87591,0.5690623 0.60663,0.251276 1.18298,0.5593123 1.72894,0.9241085 0.54596,0.3647966 1.05109,0.7793436 1.51538,1.2436409 0.4643,0.4642973 0.87885,0.9694242 1.24366,1.5153803 0.3648,0.545957 0.67285,1.122252 0.92413,1.728885 0.25128,0.606634 0.44092,1.231951 0.56903,1.875951 0.12811,0.643999 0.19214,1.294307 0.1922,1.950923 z"
       style="fill:none;stroke:#008cff;stroke-width:1;stroke-linecap:butt;stroke-linejoin:miter;stroke-miterlimit:10;stroke-dasharray:none;stroke-opacity:1"
       transform="matrix(0.95799602,0,0,0.95799602,0.47899801,0.47899801)"
       clip-path="url(#clipPath10)" />
    <path
       id="path11"
       d="m 342.5,41 h 30 V 16 c 0,-2.76 2.23999,-5 5,-5 h 135.01001 c 2.76001,0 5,2.24 5,5 v 25 h 145"
       style="fill:none;stroke:#c4c4c4;stroke-width:1;stroke-linecap:butt;stroke-linejoin:miter;stroke-miterlimit:10;stroke-dasharray:none;stroke-opacity:1"
       transform="matrix(0.95799602,0,0,0.95799602,0.47899801,0.47899801)"
       clip-path="url(#clipPath12)" />
    <path
       id="path13"
       d="M 342.5,111 H 662.51001"
       style="fill:none;stroke:#c4c4c4;stroke-width:1;stroke-linecap:butt;stroke-linejoin:miter;stroke-miterlimit:10;stroke-dasharray:none;stroke-opacity:1"
       transform="matrix(0.95799602,0,0,0.95799602,0.47899801,0.47899801)"
       clip-path="url(#clipPath14)" />
    <path
       id="path15"
       d="m 442.5,61 c 0,-2.759998 2.23999,-5 5,-5 h 200.01001 c 2.76001,0 5,2.240002 5,5 v 25 c 0,2.760002 -2.23999,5 -5,5 H 447.5 c -2.76001,0 -5,-2.239998 -5,-5 z"
       style="fill:none;stroke:#c4c4c4;stroke-width:1;stroke-linecap:butt;stroke-linejoin:miter;stroke-miterlimit:10;stroke-dasharray:none;stroke-opacity:1"
       transform="matrix(0.95799602,0,0,0.95799602,0.47899801,0.47899801)"
       clip-path="url(#clipPath16)" />
    <path
       id="path17"
       d="m 379.5,18 h 11 l 4,4 v 14 h -15 z"
       style="fill:none;stroke:#c4c4c4;stroke-width:1;stroke-linecap:butt;stroke-linejoin:miter;stroke-miterlimit:10;stroke-dasharray:none;stroke-opacity:1"
       transform="matrix(0.95799602,0,0,0.95799602,0.47899801,0.47899801)"
       clip-path="url(#clipPath18)" />
    <path
       id="path19"
       d="m 390.5,18 v 4 l 4,1"
       style="fill:none;stroke:#c4c4c4;stroke-width:1;stroke-linecap:butt;stroke-linejoin:miter;stroke-miterlimit:10;stroke-dasharray:none;stroke-opacity:1"
       transform="matrix(0.95799602,0,0,0.95799602,0.47899801,0.47899801)"
       clip-path="url(#clipPath20)" />
    <path
       id="path21"
       d="m 449.5,65 h 11 l 4,4 v 14 h -15 z"
       style="fill:none;stroke:#c4c4c4;stroke-width:1;stroke-linecap:butt;stroke-linejoin:miter;stroke-miterlimit:10;stroke-dasharray:none;stroke-opacity:1"
       transform="matrix(0.95799602,0,0,0.95799602,0.47899801,0.47899801)"
       clip-path="url(#clipPath22)" />
    <path
       id="path23"
       d="m 460.5,65 v 4 l 4,1"
       style="fill:none;stroke:#c4c4c4;stroke-width:1;stroke-linecap:butt;stroke-linejoin:miter;stroke-miterlimit:10;stroke-dasharray:none;stroke-opacity:1"
       transform="matrix(0.95799602,0,0,0.95799602,0.47899801,0.47899801)"
       clip-path="url(#clipPath24)" />
    <path
       id="path25"
       d="m 354.5,75 10,-10 v 6 h 10 v 8 h -10 v 6 z"
       style="fill:#c4c4c4;fill-opacity:1;fill-rule:nonzero;stroke:#c4c4c4;stroke-width:1;stroke-linecap:butt;stroke-linejoin:miter;stroke-miterlimit:10;stroke-dasharray:none;stroke-opacity:1"
       transform="matrix(0.95799602,0,0,0.95799602,0.47899801,0.47899801)"
       clip-path="url(#clipPath26)" />
    <path
       id="path27"
       d="m 404.5,75 -10,-10 v 6 h -10 v 8 h 10 v 6 z"
       style="fill:#c4c4c4;fill-opacity:1;fill-rule:nonzero;stroke:#c4c4c4;stroke-width:1;stroke-linecap:butt;stroke-linejoin:miter;stroke-miterlimit:10;stroke-dasharray:none;stroke-opacity:1"
       transform="matrix(0.95799602,0,0,0.95799602,0.47899801,0.47899801)"
       clip-path="url(#clipPath28)" />
    <path
       id="path29"
       d="m 430.10001,78.300003 c -1.70002,2.839996 -5.37,3.759995 -8.21,2.059998 -2.84002,-1.690003 -3.78002,-5.360001 -2.09002,-8.209999 1.68002,-2.840004 5.35,-3.790001 8.20001,-2.110001 L 426.39999,71.5 l 7.9,1.800003 -1.79999,-7.5 -1.70001,1.599999 c -3.19,-2.370003 -7.5,-2.580002 -10.9,-0.529999 -3.41,2.049995 -5.22998,5.959999 -4.63,9.889999 0.61001,3.93 3.53,7.099999 7.40002,8.029999 3.85999,0.93 7.90998,-0.559998 10.22998,-3.790001 z"
       style="fill:#c4c4c4;fill-opacity:1;fill-rule:nonzero;stroke:#c4c4c4;stroke-width:1;stroke-linecap:butt;stroke-linejoin:miter;stroke-miterlimit:10;stroke-dasharray:none;stroke-opacity:1"
       transform="matrix(0.95799602,0,0,0.95799602,0.47899801,0.47899801)"
       clip-path="url(#clipPath30)" />
    <text
       id="text30"
       xml:space="preserve"
       transform="matrix(0.95800562,0,0,0.95800562,387.99228,30.65618)"
       clip-path="url(#clipPath31)"><tspan
         style="font-variant:normal;font-weight:normal;font-size:17px;font-family:Helvetica;writing-mode:lr-tb;fill:#666666;fill-opacity:1;fill-rule:nonzero;stroke:none"
         x="0 11.338867 20.793457 30.248047 39.702637 44.425781"
         y="0"
         sodipodi:role="line"
         id="tspan30">Page 1</tspan></text>
    <text
       id="text31"
       xml:space="preserve"
       transform="matrix(0.95800562,0,0,0.95800562,455.05267,76.64045)"
       clip-path="url(#clipPath32)"><tspan
         style="font-variant:normal;font-weight:normal;font-size:17px;font-family:Helvetica;writing-mode:lr-tb;fill:#666666;fill-opacity:1;fill-rule:nonzero;stroke:none"
         x="0 3.7768555 13.231445 21.731445 31.186035 34.962891 44.41748 53.87207 62.37207 67.095215 71.818359 81.272949 90.727539 100.18213 109.63672 114.35986 118.13672 127.59131 137.0459 140.82275"
         y="0"
         sodipodi:role="line"
         id="tspan31">localhost:3000/login</tspan></text>
    <text
       id="text32"
       xml:space="preserve"
       transform="matrix(0.95800562,0,0,0.95800562,350.13609,125.49874)"
       clip-path="url(#clipPath33)"><tspan
         style="font-variant:normal;font-weight:normal;font-size:14px;font-family:Helvetica;writing-mode:lr-tb;fill:#000000;fill-opacity:1;fill-rule:nonzero;stroke:none"
         x="0 9.3378906 21 28.786133 31.896484"
         y="0"
         sodipodi:role="line"
         id="tspan32">Email</tspan></text>
    <text
       id="text33"
       xml:space="preserve"
       transform="matrix(0.95800562,0,0,0.95800562,346.09451,154.23891)"
       clip-path="url(#clipPath34)"><tspan
         style="font-variant:normal;font-weight:normal;font-size:14px;font-family:Helvetica;writing-mode:lr-tb;fill:#000000;fill-opacity:1;fill-rule:nonzero;stroke:none"
         x="0 9.3378906 17.124023 24.124023 31.124023 41.234375 49.020508 53.682617"
         y="0"
         sodipodi:role="line"
         id="tspan33">Password</tspan></text>
    <path
       id="path35"
       d="m 432.5,116 h 100 v 25 h -100 z"
       style="fill:#ffffff;fill-opacity:1;fill-rule:nonzero;stroke:#000000;stroke-width:1;stroke-linecap:butt;stroke-linejoin:miter;stroke-miterlimit:10;stroke-dasharray:none;stroke-opacity:1"
       transform="matrix(0.95799602,0,0,0.95799602,0.47899801,0.47899801)"
       clip-path="url(#clipPath36)" />
    <path
       id="path37"
       d="m 432.5,143.5 h 100 v 25 h -100 z"
       style="fill:#ffffff;fill-opacity:1;fill-rule:nonzero;stroke:#000000;stroke-width:1;stroke-linecap:butt;stroke-linejoin:miter;stroke-miterlimit:10;stroke-dasharray:none;stroke-opacity:1"
       transform="matrix(0.95799602,0,0,0.95799602,0.47899801,0.47899801)"
       clip-path="url(#clipPath38)" />
    <path
       id="path39"
       d="m 362.5,181 h 70 v 20 h -70 z"
       style="fill:#ffffff;fill-opacity:1;fill-rule:nonzero;stroke:#000000;stroke-width:1;stroke-linecap:butt;stroke-linejoin:miter;stroke-miterlimit:10;stroke-dasharray:none;stroke-opacity:1"
       transform="matrix(0.95799602,0,0,0.95799602,0.47899801,0.47899801)"
       clip-path="url(#clipPath40)" />
    <text
       id="text40"
       xml:space="preserve"
       transform="matrix(0.95800562,0,0,0.95800562,360.40471,187.7691)"
       clip-path="url(#clipPath41)"><tspan
         style="font-variant:normal;font-weight:normal;font-size:14px;font-family:Helvetica;writing-mode:lr-tb;fill:#000000;fill-opacity:1;fill-rule:nonzero;stroke:none"
         x="0 9.3378906 17.124023 24.910156 36.572266 39.682617"
         y="0"
         sodipodi:role="line"
         id="tspan40">Submit</tspan></text>
    <path
       id="path42"
       d="m 672.51001,1 h 320 v 250 h -320 z"
       style="fill:#ffffff;fill-opacity:1;fill-rule:nonzero;stroke:#666666;stroke-width:1;stroke-linecap:butt;stroke-linejoin:miter;stroke-miterlimit:10;stroke-dasharray:none;stroke-opacity:1"
       transform="matrix(0.95799602,0,0,0.95799602,0.47899801,0.47899801)"
       clip-path="url(#clipPath43)" />
    <path
       id="path44"
       d="m 937.51007,16 c -6e-5,0.656614 -0.0641,1.306923 -0.1922,1.950922 -0.12811,0.643999 -0.31787,1.269314 -0.56915,1.875948 -0.25128,0.606634 -0.55927,1.182928 -0.92407,1.728886 -0.36475,0.545957 -0.77924,1.051084 -1.24353,1.51538 -0.4643,0.464297 -0.96943,0.878844 -1.51539,1.243639 -0.54602,0.364796 -1.12231,0.672833 -1.72894,0.924109 -0.60663,0.251276 -1.23199,0.440964 -1.87597,0.569063 -0.64399,0.1281 -1.29426,0.19215 -1.95081,0.192152 -0.65668,-2e-6 -1.30701,-0.06405 -1.95099,-0.192152 -0.64404,-0.128099 -1.26935,-0.317787 -1.87598,-0.569063 -0.60662,-0.251276 -1.18292,-0.559313 -1.72888,-0.924109 -0.54596,-0.364795 -1.05108,-0.779342 -1.51538,-1.243639 -0.46429,-0.464296 -0.8789,-0.969423 -1.24371,-1.515378 -0.36481,-0.545958 -0.67285,-1.122254 -0.92413,-1.728888 -0.25123,-0.606634 -0.44092,-1.231949 -0.56904,-1.875948 -0.12805,-0.643999 -0.19207,-1.294308 -0.19201,-1.950922 -6e-5,-0.656616 0.064,-1.306924 0.19201,-1.950923 0.12812,-0.644 0.31788,-1.269317 0.56916,-1.875951 0.25122,-0.606633 0.55926,-1.182928 0.92407,-1.728885 0.36481,-0.5459561 0.77942,-1.051083 1.24371,-1.5153803 0.4643,-0.4642973 0.96942,-0.8788443 1.51538,-1.2436409 0.54596,-0.3647962 1.1222,-0.6728325 1.72882,-0.9241085 0.60663,-0.2512756 1.23194,-0.4409633 1.87598,-0.5690623 0.64398,-0.1280994 1.29431,-0.1921491 1.95099,-0.1921491 0.65655,0 1.30682,0.06405 1.95081,0.1921491 0.64398,0.128099 1.26928,0.3177867 1.87591,0.5690623 0.60663,0.251276 1.18298,0.5593123 1.72894,0.9241085 0.54596,0.3647966 1.05115,0.7793436 1.51545,1.2436409 0.46429,0.4642973 0.87878,0.9694242 1.24359,1.5153803 0.36474,0.545957 0.67273,1.122252 0.92401,1.728885 0.25128,0.606634 0.44098,1.231951 0.56909,1.875951 0.12811,0.643999 0.1922,1.294307 0.19226,1.950923 z"
       style="fill:none;stroke:#666666;stroke-width:1;stroke-linecap:butt;stroke-linejoin:miter;stroke-miterlimit:10;stroke-dasharray:none;stroke-opacity:1"
       transform="matrix(0.95799602,0,0,0.95799602,0.47899801,0.47899801)"
       clip-path="url(#clipPath45)" />
    <path
       id="path46"
       d="m 962.51007,16 c -6e-5,0.656614 -0.0641,1.306923 -0.1922,1.950922 -0.12811,0.643999 -0.31781,1.269314 -0.56909,1.875948 -0.25128,0.606634 -0.55933,1.182928 -0.92413,1.728886 -0.36481,0.545957 -0.7793,1.051084 -1.2436,1.51538 -0.46429,0.464297 -0.96948,0.878844 -1.51544,1.243639 -0.54596,0.364796 -1.12225,0.672833 -1.72888,0.924109 -0.60663,0.251276 -1.23193,0.440964 -1.87591,0.569063 -0.64399,0.1281 -1.29426,0.19215 -1.95081,0.192152 -0.65668,-2e-6 -1.30707,-0.06405 -1.95105,-0.192152 -0.64404,-0.128099 -1.26935,-0.317787 -1.87598,-0.569063 -0.60663,-0.251276 -1.18292,-0.559313 -1.72888,-0.924109 -0.54596,-0.364795 -1.05108,-0.779342 -1.51532,-1.243639 -0.46429,-0.464296 -0.87884,-0.969423 -1.24365,-1.515378 -0.36481,-0.545958 -0.67285,-1.122254 -0.92407,-1.728888 -0.25128,-0.606634 -0.44092,-1.231949 -0.56903,-1.875948 -0.12812,-0.643999 -0.1922,-1.294308 -0.19214,-1.950922 -6e-5,-0.656616 0.064,-1.306924 0.19214,-1.950923 0.12805,-0.644 0.31768,-1.269317 0.56897,-1.875951 0.25122,-0.606633 0.55926,-1.182928 0.92407,-1.728885 0.36481,-0.5459561 0.77942,-1.051083 1.24371,-1.5153803 0.46424,-0.4642973 0.9693,-0.8788443 1.51526,-1.2436409 0.54596,-0.3647962 1.12231,-0.6728325 1.72894,-0.9241085 0.60663,-0.2512756 1.23194,-0.4409633 1.87592,-0.5690623 0.64404,-0.1280994 1.29443,-0.1921491 1.95111,-0.1921491 0.65655,0 1.30682,0.06405 1.95074,0.1921491 0.64405,0.128099 1.26935,0.3177867 1.87598,0.5690623 0.60663,0.251276 1.18292,0.5593123 1.72888,0.9241085 0.54596,0.3647966 1.05115,0.7793436 1.51544,1.2436409 0.4643,0.4642973 0.87879,0.9694242 1.2436,1.5153803 0.3648,0.545957 0.67285,1.122252 0.92413,1.728885 0.25128,0.606634 0.44098,1.231951 0.56909,1.875951 0.12811,0.643999 0.19214,1.294307 0.1922,1.950923 z"
       style="fill:none;stroke:#666666;stroke-width:1;stroke-linecap:butt;stroke-linejoin:miter;stroke-miterlimit:10;stroke-dasharray:none;stroke-opacity:1"
       transform="matrix(0.95799602,0,0,0.95799602,0.47899801,0.47899801)"
       clip-path="url(#clipPath47)" />
    <path
       id="path48"
       d="m 987.51007,16 c 0,0.656614 -0.0641,1.306923 -0.19226,1.950922 -0.12811,0.643999 -0.31781,1.269314 -0.56909,1.875948 -0.25128,0.606634 -0.55933,1.182928 -0.92407,1.728886 -0.36475,0.545957 -0.77924,1.051084 -1.24353,1.51538 -0.4643,0.464297 -0.96943,0.878844 -1.51539,1.243639 -0.54602,0.364796 -1.12231,0.672833 -1.72894,0.924109 -0.60663,0.251276 -1.23193,0.440964 -1.87591,0.569063 -0.64399,0.1281 -1.29432,0.19215 -1.95087,0.192152 -0.65662,-2e-6 -1.30695,-0.06405 -1.95099,-0.192152 -0.64404,-0.128099 -1.26935,-0.317787 -1.87598,-0.569063 -0.60662,-0.251276 -1.18298,-0.559313 -1.72894,-0.924109 -0.54596,-0.364795 -1.05102,-0.779342 -1.51526,-1.243639 -0.46429,-0.464296 -0.87884,-0.969423 -1.24365,-1.515378 -0.36481,-0.545958 -0.67291,-1.122254 -0.92419,-1.728888 -0.25129,-0.606634 -0.44092,-1.231949 -0.56903,-1.875948 -0.12812,-0.643999 -0.19214,-1.294308 -0.19208,-1.950922 -6e-5,-0.656616 0.064,-1.306924 0.19208,-1.950923 0.12805,-0.644 0.31768,-1.269317 0.56897,-1.875951 0.25128,-0.606633 0.55932,-1.182928 0.92413,-1.728885 0.36481,-0.5459561 0.77942,-1.051083 1.24371,-1.5153803 0.4643,-0.4642973 0.96942,-0.8788443 1.51538,-1.2436409 0.54596,-0.3647962 1.12226,-0.6728325 1.72888,-0.9241085 0.60663,-0.2512756 1.23194,-0.4409633 1.87598,-0.5690623 0.64404,-0.1280994 1.29437,-0.1921491 1.95099,-0.1921491 0.65655,0 1.30688,0.06405 1.95093,0.1921491 0.64398,0.128099 1.26922,0.3177867 1.87585,0.5690623 0.60657,0.251276 1.18286,0.5593123 1.72882,0.9241085 0.54596,0.3647966 1.05109,0.7793436 1.51538,1.2436409 0.4643,0.4642973 0.87885,0.9694242 1.24366,1.5153803 0.36474,0.545957 0.67279,1.122252 0.92407,1.728885 0.25128,0.606634 0.44098,1.231951 0.56909,1.875951 0.12817,0.643999 0.19226,1.294307 0.19226,1.950923 z"
       style="fill:none;stroke:#008cff;stroke-width:1;stroke-linecap:butt;stroke-linejoin:miter;stroke-miterlimit:10;stroke-dasharray:none;stroke-opacity:1"
       transform="matrix(0.95799602,0,0,0.95799602,0.47899801,0.47899801)"
       clip-path="url(#clipPath49)" />
    <path
       id="path50"
       d="m 672.51001,41 h 30 V 16 c 0,-2.76 2.23999,-5 5,-5 h 135 c 2.76001,0 5,2.24 5,5 v 25 h 145"
       style="fill:none;stroke:#c4c4c4;stroke-width:1;stroke-linecap:butt;stroke-linejoin:miter;stroke-miterlimit:10;stroke-dasharray:none;stroke-opacity:1"
       transform="matrix(0.95799602,0,0,0.95799602,0.47899801,0.47899801)"
       clip-path="url(#clipPath51)" />
    <path
       id="path52"
       d="m 672.51001,111 h 320"
       style="fill:none;stroke:#c4c4c4;stroke-width:1;stroke-linecap:butt;stroke-linejoin:miter;stroke-miterlimit:10;stroke-dasharray:none;stroke-opacity:1"
       transform="matrix(0.95799602,0,0,0.95799602,0.47899801,0.47899801)"
       clip-path="url(#clipPath53)" />
    <path
       id="path54"
       d="m 772.51001,61 c 0,-2.759998 2.23999,-5 5,-5 h 200 c 2.76001,0 5,2.240002 5,5 v 25 c 0,2.760002 -2.23999,5 -5,5 h -200 c -2.76001,0 -5,-2.239998 -5,-5 z"
       style="fill:none;stroke:#c4c4c4;stroke-width:1;stroke-linecap:butt;stroke-linejoin:miter;stroke-miterlimit:10;stroke-dasharray:none;stroke-opacity:1"
       transform="matrix(0.95799602,0,0,0.95799602,0.47899801,0.47899801)"
       clip-path="url(#clipPath55)" />
    <path
       id="path56"
       d="m 709.51001,18 h 11 l 4,4 v 14 h -15 z"
       style="fill:none;stroke:#c4c4c4;stroke-width:1;stroke-linecap:butt;stroke-linejoin:miter;stroke-miterlimit:10;stroke-dasharray:none;stroke-opacity:1"
       transform="matrix(0.95799602,0,0,0.95799602,0.47899801,0.47899801)"
       clip-path="url(#clipPath57)" />
    <path
       id="path58"
       d="m 720.51001,18 v 4 l 4,1"
       style="fill:none;stroke:#c4c4c4;stroke-width:1;stroke-linecap:butt;stroke-linejoin:miter;stroke-miterlimit:10;stroke-dasharray:none;stroke-opacity:1"
       transform="matrix(0.95799602,0,0,0.95799602,0.47899801,0.47899801)"
       clip-path="url(#clipPath59)" />
    <path
       id="path60"
       d="m 779.51001,65 h 11 l 4,4 v 14 h -15 z"
       style="fill:none;stroke:#c4c4c4;stroke-width:1;stroke-linecap:butt;stroke-linejoin:miter;stroke-miterlimit:10;stroke-dasharray:none;stroke-opacity:1"
       transform="matrix(0.95799602,0,0,0.95799602,0.47899801,0.47899801)"
       clip-path="url(#clipPath61)" />
    <path
       id="path62"
       d="m 790.51001,65 v 4 l 4,1"
       style="fill:none;stroke:#c4c4c4;stroke-width:1;stroke-linecap:butt;stroke-linejoin:miter;stroke-miterlimit:10;stroke-dasharray:none;stroke-opacity:1"
       transform="matrix(0.95799602,0,0,0.95799602,0.47899801,0.47899801)"
       clip-path="url(#clipPath63)" />
    <path
       id="path64"
       d="m 684.51001,75 10,-10 v 6 h 10 v 8 h -10 v 6 z"
       style="fill:#c4c4c4;fill-opacity:1;fill-rule:nonzero;stroke:#c4c4c4;stroke-width:1;stroke-linecap:butt;stroke-linejoin:miter;stroke-miterlimit:10;stroke-dasharray:none;stroke-opacity:1"
       transform="matrix(0.95799602,0,0,0.95799602,0.47899801,0.47899801)"
       clip-path="url(#clipPath65)" />
    <path
       id="path66"
       d="m 734.51001,75 -10,-10 v 6 h -10 v 8 h 10 v 6 z"
       style="fill:#c4c4c4;fill-opacity:1;fill-rule:nonzero;stroke:#c4c4c4;stroke-width:1;stroke-linecap:butt;stroke-linejoin:miter;stroke-miterlimit:10;stroke-dasharray:none;stroke-opacity:1"
       transform="matrix(0.95799602,0,0,0.95799602,0.47899801,0.47899801)"
       clip-path="url(#clipPath67)" />
    <path
       id="path68"
       d="m 760.10999,78.300003 c -1.70997,2.839996 -5.38001,3.759995 -8.21998,2.059998 C 749.04999,78.669998 748.12,75 749.79999,72.150002 c 1.69,-2.840004 5.35998,-3.790001 8.21002,-2.110001 L 756.40997,71.5 l 7.90003,1.800003 -1.79999,-7.5 -1.70001,1.599999 c -3.19,-2.370003 -7.5,-2.580002 -10.90998,-0.529999 -3.40002,2.049995 -5.23004,5.959999 -4.61999,9.889999 0.59997,3.93 3.51996,7.099999 7.38995,8.029999 3.87,0.93 7.91004,-0.559998 10.23999,-3.790001 z"
       style="fill:#c4c4c4;fill-opacity:1;fill-rule:nonzero;stroke:#c4c4c4;stroke-width:1;stroke-linecap:butt;stroke-linejoin:miter;stroke-miterlimit:10;stroke-dasharray:none;stroke-opacity:1"
       transform="matrix(0.95799602,0,0,0.95799602,0.47899801,0.47899801)"
       clip-path="url(#clipPath69)" />
    <text
       id="text69"
       xml:space="preserve"
       transform="matrix(0.95800562,0,0,0.95800562,703.17613,30.65618)"
       clip-path="url(#clipPath70)"><tspan
         style="font-variant:normal;font-weight:normal;font-size:17px;font-family:Helvetica;writing-mode:lr-tb;fill:#666666;fill-opacity:1;fill-rule:nonzero;stroke:none"
         x="0 11.338867 20.793457 30.248047 39.702637 44.425781"
         y="0"
         sodipodi:role="line"
         id="tspan69">Page 1</tspan></text>
    <text
       id="text70"
       xml:space="preserve"
       transform="matrix(0.95800562,0,0,0.95800562,771.19453,76.64045)"
       clip-path="url(#clipPath71)"><tspan
         style="font-variant:normal;font-weight:normal;font-size:17px;font-family:Helvetica;writing-mode:lr-tb;fill:#666666;fill-opacity:1;fill-rule:nonzero;stroke:none"
         x="0 3.7768555 13.231445 21.731445 31.186035 34.962891 44.41748 53.87207 62.37207 67.095215 71.818359 81.272949 90.727539 100.18213 109.63672"
         y="0"
         sodipodi:role="line"
         id="tspan70">localhost:3000/</tspan></text>
    <text
       id="text71"
       xml:space="preserve"
       transform="matrix(0.95800562,0,0,0.95800562,668.4634,125.49874)"
       clip-path="url(#clipPath72)"><tspan
         style="font-variant:normal;font-weight:normal;font-size:14px;font-family:Helvetica;writing-mode:lr-tb;fill:#000000;fill-opacity:1;fill-rule:nonzero;stroke:none"
         x="0 8.0527344 15.838867 23.625 27.514648 35.300781 39.962891 47.749023 51.638672 54.749023 62.535156 70.321289 78.107422 85.893555 93.679688 97.569336 100.67969"
         y="0"
         sodipodi:role="line"
         id="tspan71">You are logged in</tspan></text>
    <g
       id="g76"
       clip-path="url(#clipPath76)">
      <g
         clip-path="url(#clipPath74)"
         id="g75">
        <path
           d="m 701.57813,160 h 42.82813 v 1 h -42.82813 z"
           style="fill:#000000;fill-opacity:1;fill-rule:nonzero;stroke:none"
           transform="scale(0.95800562)"
           clip-path="url(#clipPath73)"
           id="path75" />
      </g>
    </g>
    <text
       id="text76"
       xml:space="preserve"
       transform="matrix(0.95800562,0,0,0.95800562,672.11579,152.32289)"
       clip-path="url(#clipPath77)"><tspan
         style="font-variant:normal;font-weight:normal;font-size:14px;font-family:Helvetica;writing-mode:lr-tb;fill:#000000;fill-opacity:1;fill-rule:nonzero;stroke:none"
         x="0 7.7861328 15.572266 23.358398 31.144531 38.930664"
         y="0"
         sodipodi:role="line"
         id="tspan76">Logout</tspan></text>
    <path
       id="path78"
       d="M 1,1 H 321 V 251 H 1 Z"
       style="fill:#ffffff;fill-opacity:1;fill-rule:nonzero;stroke:#666666;stroke-width:1;stroke-linecap:butt;stroke-linejoin:miter;stroke-miterlimit:10;stroke-dasharray:none;stroke-opacity:1"
       transform="matrix(0.95799602,0,0,0.95799602,0.47899801,0.47899801)"
       clip-path="url(#clipPath79)" />
    <path
       id="path80"
       d="m 266.00009,16 c -3e-5,0.656614 -0.0641,1.306923 -0.19217,1.950922 -0.12811,0.643999 -0.31781,1.269314 -0.56909,1.875948 -0.25125,0.606634 -0.5593,1.182928 -0.92407,1.728886 -0.36478,0.545957 -0.77933,1.051084 -1.24365,1.51538 -0.4643,0.464297 -0.96943,0.878844 -1.51542,1.243639 -0.54595,0.364796 -1.12225,0.672833 -1.72888,0.924109 -0.60663,0.251276 -1.23193,0.440964 -1.87594,0.569063 -0.64399,0.1281 -1.29428,0.19215 -1.95087,0.192152 -0.65663,-2e-6 -1.30695,-0.06405 -1.95094,-0.192152 -0.644,-0.128099 -1.26932,-0.317787 -1.87596,-0.569063 -0.60665,-0.251276 -1.18294,-0.559313 -1.7289,-0.924109 -0.54595,-0.364795 -1.05107,-0.779342 -1.51537,-1.243639 -0.46429,-0.464296 -0.87884,-0.969423 -1.24363,-1.515378 -0.36481,-0.545958 -0.67286,-1.122254 -0.92412,-1.728888 -0.25127,-0.606634 -0.44095,-1.231949 -0.56905,-1.875948 -0.1281,-0.643999 -0.19215,-1.294308 -0.19214,-1.950922 -1e-5,-0.656616 0.064,-1.306924 0.19214,-1.950923 0.1281,-0.644 0.31778,-1.269317 0.56905,-1.875951 0.25128,-0.606633 0.55932,-1.182928 0.92412,-1.728885 0.36479,-0.5459561 0.77934,-1.051083 1.24365,-1.5153803 0.46429,-0.4642973 0.9694,-0.8788443 1.51535,-1.2436409 0.54596,-0.3647962 1.12225,-0.6728325 1.7289,-0.9241085 0.60664,-0.2512756 1.23196,-0.4409633 1.87596,-0.5690623 0.64399,-0.1280994 1.29431,-0.1921491 1.95094,-0.1921491 0.65659,0 1.30688,0.06405 1.9509,0.1921491 0.64398,0.128099 1.26928,0.3177867 1.87594,0.5690623 0.60663,0.251276 1.18293,0.5593123 1.72885,0.9241085 0.54599,0.3647966 1.05112,0.7793436 1.51542,1.2436409 0.46432,0.4642973 0.87887,0.9694242 1.24365,1.5153803 0.36477,0.545957 0.67282,1.122252 0.9241,1.728885 0.25125,0.606634 0.44095,1.231951 0.56906,1.875951 0.12808,0.643999 0.19214,1.294307 0.19217,1.950923 z"
       style="fill:none;stroke:#666666;stroke-width:1;stroke-linecap:butt;stroke-linejoin:miter;stroke-miterlimit:10;stroke-dasharray:none;stroke-opacity:1"
       transform="matrix(0.95799602,0,0,0.95799602,0.47899801,0.47899801)"
       clip-path="url(#clipPath81)" />
    <path
       id="path82"
       d="m 291.00012,16 c -3e-5,0.656614 -0.0641,1.306923 -0.1922,1.950922 -0.12808,0.643999 -0.31778,1.269314 -0.56906,1.875948 -0.25128,0.606634 -0.55933,1.182928 -0.9241,1.728886 -0.36478,0.545957 -0.77933,1.051084 -1.24362,1.51538 -0.46433,0.464297 -0.96946,0.878844 -1.51541,1.243639 -0.54593,0.364796 -1.12223,0.672833 -1.72889,0.924109 -0.60663,0.251276 -1.23193,0.440964 -1.87594,0.569063 -0.64402,0.1281 -1.29431,0.19215 -1.9509,0.192152 -0.65665,-2e-6 -1.30695,-0.06405 -1.95096,-0.192152 -0.64401,-0.128099 -1.26932,-0.317787 -1.87594,-0.569063 -0.60666,-0.251276 -1.18296,-0.559313 -1.72889,-0.924109 -0.54596,-0.364795 -1.05108,-0.779342 -1.51538,-1.243639 -0.46429,-0.464296 -0.87884,-0.969423 -1.24362,-1.515378 -0.36478,-0.545958 -0.67282,-1.122254 -0.92413,-1.728888 -0.25125,-0.606634 -0.44095,-1.231949 -0.56903,-1.875948 -0.12812,-0.643999 -0.19217,-1.294308 -0.19214,-1.950922 -3e-5,-0.656616 0.064,-1.306924 0.19214,-1.950923 0.12808,-0.644 0.31778,-1.269317 0.56903,-1.875951 0.25131,-0.606633 0.55935,-1.182928 0.92413,-1.728885 0.36481,-0.5459561 0.77936,-1.051083 1.24365,-1.5153803 0.4643,-0.4642973 0.96942,-0.8788443 1.51535,-1.2436409 0.54593,-0.3647962 1.12223,-0.6728325 1.72889,-0.9241085 0.60662,-0.2512756 1.23193,-0.4409633 1.87594,-0.5690623 0.64401,-0.1280994 1.29431,-0.1921491 1.95096,-0.1921491 0.65659,0 1.30688,0.06405 1.9509,0.1921491 0.64401,0.128099 1.26931,0.3177867 1.87594,0.5690623 0.60666,0.251276 1.18296,0.5593123 1.72892,0.9241085 0.54592,0.3647966 1.05105,0.7793436 1.51538,1.2436409 0.46429,0.4642973 0.87884,0.9694242 1.24362,1.5153803 0.36477,0.545957 0.67282,1.122252 0.9241,1.728885 0.25128,0.606634 0.44098,1.231951 0.56906,1.875951 0.12812,0.643999 0.19217,1.294307 0.1922,1.950923 z"
       style="fill:none;stroke:#666666;stroke-width:1;stroke-linecap:butt;stroke-linejoin:miter;stroke-miterlimit:10;stroke-dasharray:none;stroke-opacity:1"
       transform="matrix(0.95799602,0,0,0.95799602,0.47899801,0.47899801)"
       clip-path="url(#clipPath83)" />
    <path
       id="path84"
       d="m 316.00012,16 c -3e-5,0.656614 -0.0641,1.306923 -0.19217,1.950922 -0.12811,0.643999 -0.31781,1.269314 -0.56906,1.875948 -0.25128,0.606634 -0.55932,1.182928 -0.92413,1.728886 -0.36478,0.545957 -0.77933,1.051084 -1.24359,1.51538 -0.46433,0.464297 -0.96945,0.878844 -1.51541,1.243639 -0.54596,0.364796 -1.12226,0.672833 -1.72892,0.924109 -0.60663,0.251276 -1.23193,0.440964 -1.87594,0.569063 -0.64402,0.1281 -1.29431,0.19215 -1.9509,0.192152 -0.65662,-2e-6 -1.30692,-0.06405 -1.95093,-0.192152 -0.64401,-0.128099 -1.26932,-0.317787 -1.87597,-0.569063 -0.60663,-0.251276 -1.18293,-0.559313 -1.72889,-0.924109 -0.54596,-0.364795 -1.05108,-0.779342 -1.51538,-1.243639 -0.46429,-0.464296 -0.87884,-0.969423 -1.24365,-1.515378 -0.36481,-0.545958 -0.67285,-1.122254 -0.9241,-1.728888 -0.25128,-0.606634 -0.44098,-1.231949 -0.56906,-1.875948 -0.12809,-0.643999 -0.19211,-1.294308 -0.19211,-1.950922 0,-0.656616 0.064,-1.306924 0.19211,-1.950923 0.12808,-0.644 0.31778,-1.269317 0.56906,-1.875951 0.25125,-0.606633 0.55929,-1.182928 0.9241,-1.728885 0.36484,-0.5459561 0.77939,-1.051083 1.24368,-1.5153803 0.4643,-0.4642973 0.96942,-0.8788443 1.51535,-1.2436409 0.54596,-0.3647962 1.12226,-0.6728325 1.72889,-0.9241085 0.60665,-0.2512756 1.23196,-0.4409633 1.87597,-0.5690623 0.64401,-0.1280994 1.29431,-0.1921491 1.95093,-0.1921491 0.65659,0 1.30688,0.06405 1.9509,0.1921491 0.64401,0.128099 1.26931,0.3177867 1.87594,0.5690623 0.60666,0.251276 1.18296,0.5593123 1.72892,0.9241085 0.54596,0.3647966 1.05108,0.7793436 1.51541,1.2436409 0.46426,0.4642973 0.87881,0.9694242 1.24359,1.5153803 0.36481,0.545957 0.67285,1.122252 0.92413,1.728885 0.25125,0.606634 0.44095,1.231951 0.56906,1.875951 0.12809,0.643999 0.19214,1.294307 0.19217,1.950923 z"
       style="fill:none;stroke:#008cff;stroke-width:1;stroke-linecap:butt;stroke-linejoin:miter;stroke-miterlimit:10;stroke-dasharray:none;stroke-opacity:1"
       transform="matrix(0.95799602,0,0,0.95799602,0.47899801,0.47899801)"
       clip-path="url(#clipPath85)" />
    <path
       id="path86"
       d="M 1,41 H 31 V 16 c 0,-2.76 2.240002,-5 5,-5 h 135 c 2.75999,0 5,2.24 5,5 v 25 h 145"
       style="fill:none;stroke:#c4c4c4;stroke-width:1;stroke-linecap:butt;stroke-linejoin:miter;stroke-miterlimit:10;stroke-dasharray:none;stroke-opacity:1"
       transform="matrix(0.95799602,0,0,0.95799602,0.47899801,0.47899801)"
       clip-path="url(#clipPath87)" />
    <path
       id="path88"
       d="M 1,111 H 321"
       style="fill:none;stroke:#c4c4c4;stroke-width:1;stroke-linecap:butt;stroke-linejoin:miter;stroke-miterlimit:10;stroke-dasharray:none;stroke-opacity:1"
       transform="matrix(0.95799602,0,0,0.95799602,0.47899801,0.47899801)"
       clip-path="url(#clipPath89)" />
    <path
       id="path90"
       d="m 101,61 c 0,-2.759998 2.24,-5 5,-5 h 200 c 2.76001,0 5,2.240002 5,5 v 25 c 0,2.760002 -2.23999,5 -5,5 H 106 c -2.76,0 -5,-2.239998 -5,-5 z"
       style="fill:none;stroke:#c4c4c4;stroke-width:1;stroke-linecap:butt;stroke-linejoin:miter;stroke-miterlimit:10;stroke-dasharray:none;stroke-opacity:1"
       transform="matrix(0.95799602,0,0,0.95799602,0.47899801,0.47899801)"
       clip-path="url(#clipPath91)" />
    <path
       id="path92"
       d="m 38,18 h 11 l 4,4 V 36 H 38 Z"
       style="fill:none;stroke:#c4c4c4;stroke-width:1;stroke-linecap:butt;stroke-linejoin:miter;stroke-miterlimit:10;stroke-dasharray:none;stroke-opacity:1"
       transform="matrix(0.95799602,0,0,0.95799602,0.47899801,0.47899801)"
       clip-path="url(#clipPath93)" />
    <path
       id="path94"
       d="m 49,18 v 4 l 4,1"
       style="fill:none;stroke:#c4c4c4;stroke-width:1;stroke-linecap:butt;stroke-linejoin:miter;stroke-miterlimit:10;stroke-dasharray:none;stroke-opacity:1"
       transform="matrix(0.95799602,0,0,0.95799602,0.47899801,0.47899801)"
       clip-path="url(#clipPath95)" />
    <path
       id="path96"
       d="m 108,65 h 11 l 4,4 v 14 h -15 z"
       style="fill:none;stroke:#c4c4c4;stroke-width:1;stroke-linecap:butt;stroke-linejoin:miter;stroke-miterlimit:10;stroke-dasharray:none;stroke-opacity:1"
       transform="matrix(0.95799602,0,0,0.95799602,0.47899801,0.47899801)"
       clip-path="url(#clipPath97)" />
    <path
       id="path98"
       d="m 119,65 v 4 l 4,1"
       style="fill:none;stroke:#c4c4c4;stroke-width:1;stroke-linecap:butt;stroke-linejoin:miter;stroke-miterlimit:10;stroke-dasharray:none;stroke-opacity:1"
       transform="matrix(0.95799602,0,0,0.95799602,0.47899801,0.47899801)"
       clip-path="url(#clipPath99)" />
    <path
       id="path100"
       d="M 13,75 23,65 v 6 h 10 v 8 H 23 v 6 z"
       style="fill:#c4c4c4;fill-opacity:1;fill-rule:nonzero;stroke:#c4c4c4;stroke-width:1;stroke-linecap:butt;stroke-linejoin:miter;stroke-miterlimit:10;stroke-dasharray:none;stroke-opacity:1"
       transform="matrix(0.95799602,0,0,0.95799602,0.47899801,0.47899801)"
       clip-path="url(#clipPath101)" />
    <path
       id="path102"
       d="M 63,75 53,65 v 6 H 43 v 8 h 10 v 6 z"
       style="fill:#c4c4c4;fill-opacity:1;fill-rule:nonzero;stroke:#c4c4c4;stroke-width:1;stroke-linecap:butt;stroke-linejoin:miter;stroke-miterlimit:10;stroke-dasharray:none;stroke-opacity:1"
       transform="matrix(0.95799602,0,0,0.95799602,0.47899801,0.47899801)"
       clip-path="url(#clipPath103)" />
    <path
       id="path104"
       d="m 88.599998,78.300003 c -1.699996,2.839996 -5.379997,3.759995 -8.220001,2.059998 C 77.540001,78.669998 76.610001,75 78.300003,72.150002 79.980003,69.309998 83.650002,68.360001 86.5,70.040001 L 84.900002,71.5 92.800003,73.300003 91,65.800003 89.300003,67.400002 c -3.190002,-2.370003 -7.5,-2.580002 -10.900001,-0.529999 -3.410004,2.049995 -5.239998,5.959999 -4.630005,9.889999 0.61,3.93 3.530006,7.099999 7.390007,8.029999 C 85.029999,85.720001 89.07,84.230003 91.400002,81 Z"
       style="fill:#c4c4c4;fill-opacity:1;fill-rule:nonzero;stroke:#c4c4c4;stroke-width:1;stroke-linecap:butt;stroke-linejoin:miter;stroke-miterlimit:10;stroke-dasharray:none;stroke-opacity:1"
       transform="matrix(0.95799602,0,0,0.95799602,0.47899801,0.47899801)"
       clip-path="url(#clipPath105)" />
    <text
       id="text105"
       xml:space="preserve"
       transform="matrix(0.95800562,0,0,0.95800562,60.354354,30.65618)"
       clip-path="url(#clipPath106)"><tspan
         style="font-variant:normal;font-weight:normal;font-size:17px;font-family:Helvetica;writing-mode:lr-tb;fill:#666666;fill-opacity:1;fill-rule:nonzero;stroke:none"
         x="0 11.338867 20.793457 30.248047 39.702637 44.425781"
         y="0"
         sodipodi:role="line"
         id="tspan105">Page 1</tspan></text>
    <text
       id="text106"
       xml:space="preserve"
       transform="matrix(0.95800562,0,0,0.95800562,127.41475,76.64045)"
       clip-path="url(#clipPath107)"><tspan
         style="font-variant:normal;font-weight:normal;font-size:17px;font-family:Helvetica;writing-mode:lr-tb;fill:#666666;fill-opacity:1;fill-rule:nonzero;stroke:none"
         x="0 3.7768555 13.231445 21.731445 31.186035 34.962891 44.41748 53.87207 62.37207 67.095215 71.818359 81.272949 90.727539 100.18213 109.63672"
         y="0"
         sodipodi:role="line"
         id="tspan106">localhost:3000/</tspan></text>
    <text
       id="text107"
       xml:space="preserve"
       transform="matrix(0.95800562,0,0,0.95800562,30.252021,130.28876)"
       clip-path="url(#clipPath108)"><tspan
         style="font-variant:normal;font-weight:normal;font-size:14px;font-family:Helvetica;writing-mode:lr-tb;fill:#000000;fill-opacity:1;fill-rule:nonzero;stroke:none"
         x="0 8.0527344 15.838867 23.625 27.514648 35.300781 39.962891 47.749023 51.638672 59.424805 67.210938 71.100586 74.990234 78.100586 85.886719 93.672852 101.45898 109.24512 117.03125 120.9209 124.03125"
         y="0"
         sodipodi:role="line"
         id="tspan107">You are not logged in</tspan></text>
    <g
       id="g112"
       clip-path="url(#clipPath112)">
      <g
         clip-path="url(#clipPath110)"
         id="g111">
        <path
           d="M 35.859375,165 H 70.125 v 1 H 35.859375 Z"
           style="fill:#000000;fill-opacity:1;fill-rule:nonzero;stroke:none"
           transform="scale(0.95800562)"
           clip-path="url(#clipPath109)"
           id="path111" />
      </g>
    </g>
    <text
       id="text112"
       xml:space="preserve"
       transform="matrix(0.95800562,0,0,0.95800562,34.353483,157.11292)"
       clip-path="url(#clipPath113)"><tspan
         style="font-variant:normal;font-weight:normal;font-size:14px;font-family:Helvetica;writing-mode:lr-tb;fill:#000000;fill-opacity:1;fill-rule:nonzero;stroke:none"
         x="0 7.7861328 15.572266 23.358398 26.46875"
         y="0"
         sodipodi:role="line"
         id="tspan112">Login</tspan></text>
    <path
       id="path114"
       d="m 1002.51,1 h 330 v 250 h -330 z"
       style="fill:#ffffff;fill-opacity:1;fill-rule:nonzero;stroke:#666666;stroke-width:1;stroke-linecap:butt;stroke-linejoin:miter;stroke-miterlimit:10;stroke-dasharray:none;stroke-opacity:1"
       transform="matrix(0.95799602,0,0,0.95799602,0.47899801,0.47899801)"
       clip-path="url(#clipPath115)" />
    <path
       id="path116"
       d="m 1277.5101,16 c -10e-5,0.656614 -0.064,1.306923 -0.1923,1.950922 -0.1281,0.643999 -0.3178,1.269314 -0.569,1.875948 -0.2512,0.606634 -0.5592,1.182928 -0.9241,1.728886 -0.3649,0.545957 -0.7794,1.051084 -1.2436,1.51538 -0.4643,0.464297 -0.9694,0.878844 -1.5154,1.243639 -0.546,0.364796 -1.1225,0.672833 -1.729,0.924109 -0.6066,0.251276 -1.2318,0.440964 -1.8759,0.569063 -0.6439,0.1281 -1.2942,0.19215 -1.9508,0.192152 -0.6566,-2e-6 -1.307,-0.06405 -1.951,-0.192152 -0.6441,-0.128099 -1.2694,-0.317787 -1.8761,-0.569063 -0.6067,-0.251276 -1.183,-0.559313 -1.7289,-0.924109 -0.5459,-0.364795 -1.051,-0.779342 -1.5153,-1.243639 -0.4643,-0.464296 -0.8789,-0.969423 -1.2436,-1.515378 -0.3648,-0.545958 -0.6728,-1.122254 -0.9241,-1.728888 -0.2513,-0.606634 -0.441,-1.231949 -0.5691,-1.875948 -0.128,-0.643999 -0.1921,-1.294308 -0.192,-1.950922 -10e-5,-0.656616 0.064,-1.306924 0.192,-1.950923 0.1281,-0.644 0.3176,-1.269317 0.569,-1.875951 0.2513,-0.606633 0.5593,-1.182928 0.924,-1.728885 0.3649,-0.5459561 0.7795,-1.051083 1.2438,-1.5153803 0.4643,-0.4642973 0.9694,-0.8788443 1.5153,-1.2436409 0.5459,-0.3647962 1.1222,-0.6728325 1.7289,-0.9241085 0.6067,-0.2512756 1.232,-0.4409633 1.8761,-0.5690623 0.644,-0.1280994 1.2944,-0.1921491 1.951,-0.1921491 0.6566,0 1.3069,0.06405 1.9508,0.1921491 0.6441,0.128099 1.2693,0.3177867 1.8759,0.5690623 0.6065,0.251276 1.183,0.5593123 1.729,0.9241085 0.546,0.3647966 1.0511,0.7793436 1.5154,1.2436409 0.4642,0.4642973 0.8787,0.9694242 1.2436,1.5153803 0.3649,0.545957 0.6729,1.122252 0.9241,1.728885 0.2512,0.606634 0.4409,1.231951 0.569,1.875951 0.1281,0.643999 0.1922,1.294307 0.1923,1.950923 z"
       style="fill:none;stroke:#666666;stroke-width:1;stroke-linecap:butt;stroke-linejoin:miter;stroke-miterlimit:10;stroke-dasharray:none;stroke-opacity:1"
       transform="matrix(0.95799602,0,0,0.95799602,0.47899801,0.47899801)"
       clip-path="url(#clipPath117)" />
    <path
       id="path118"
       d="m 1302.5101,16 c -10e-5,0.656614 -0.064,1.306923 -0.1921,1.950922 -0.1282,0.643999 -0.3179,1.269314 -0.5691,1.875948 -0.2513,0.606634 -0.5593,1.182928 -0.9242,1.728886 -0.3647,0.545957 -0.7793,1.051084 -1.2435,1.51538 -0.4644,0.464297 -0.9695,0.878844 -1.5155,1.243639 -0.5459,0.364796 -1.1222,0.672833 -1.7289,0.924109 -0.6067,0.251276 -1.2321,0.440964 -1.8761,0.569063 -0.6439,0.1281 -1.2941,0.19215 -1.9507,0.192152 -0.6566,-2e-6 -1.307,-0.06405 -1.951,-0.192152 -0.6441,-0.128099 -1.2694,-0.317787 -1.876,-0.569063 -0.6067,-0.251276 -1.183,-0.559313 -1.7289,-0.924109 -0.546,-0.364795 -1.0511,-0.779342 -1.5154,-1.243639 -0.4643,-0.464296 -0.8789,-0.969423 -1.2438,-1.515378 -0.3647,-0.545958 -0.6727,-1.122254 -0.924,-1.728888 -0.2512,-0.606634 -0.4409,-1.231949 -0.569,-1.875948 -0.128,-0.643999 -0.1921,-1.294308 -0.192,-1.950922 -10e-5,-0.656616 0.064,-1.306924 0.192,-1.950923 0.1281,-0.644 0.3178,-1.269317 0.569,-1.875951 0.2513,-0.606633 0.5593,-1.182928 0.9242,-1.728885 0.3647,-0.5459561 0.7793,-1.051083 1.2436,-1.5153803 0.4643,-0.4642973 0.9694,-0.8788443 1.5154,-1.2436409 0.5459,-0.3647962 1.1222,-0.6728325 1.7289,-0.9241085 0.6066,-0.2512756 1.2319,-0.4409633 1.876,-0.5690623 0.644,-0.1280994 1.2944,-0.1921491 1.951,-0.1921491 0.6566,0 1.3068,0.06405 1.9507,0.1921491 0.644,0.128099 1.2694,0.3177867 1.876,0.5690623 0.6067,0.251276 1.183,0.5593123 1.729,0.9241085 0.546,0.3647966 1.0511,0.7793436 1.5155,1.2436409 0.4642,0.4642973 0.8788,0.9694242 1.2436,1.5153803 0.3648,0.545957 0.6728,1.122252 0.9241,1.728885 0.2512,0.606634 0.4409,1.231951 0.5691,1.875951 0.128,0.643999 0.192,1.294307 0.1921,1.950923 z"
       style="fill:none;stroke:#666666;stroke-width:1;stroke-linecap:butt;stroke-linejoin:miter;stroke-miterlimit:10;stroke-dasharray:none;stroke-opacity:1"
       transform="matrix(0.95799602,0,0,0.95799602,0.47899801,0.47899801)"
       clip-path="url(#clipPath119)" />
    <path
       id="path120"
       d="m 1327.5101,16 c 0,0.656614 -0.064,1.306923 -0.1922,1.950922 -0.1281,0.643999 -0.3178,1.269314 -0.5691,1.875948 -0.2514,0.606634 -0.5594,1.182928 -0.9241,1.728886 -0.3647,0.545957 -0.7793,1.051084 -1.2435,1.51538 -0.4645,0.464297 -0.9696,0.878844 -1.5155,1.243639 -0.546,0.364796 -1.1225,0.672833 -1.729,0.924109 -0.6066,0.251276 -1.232,0.440964 -1.8759,0.569063 -0.6439,0.1281 -1.2942,0.19215 -1.9508,0.192152 -0.6566,-2e-6 -1.307,-0.06405 -1.951,-0.192152 -0.6441,-0.128099 -1.2694,-0.317787 -1.876,-0.569063 -0.6066,-0.251276 -1.1828,-0.559313 -1.7288,-0.924109 -0.5459,-0.364795 -1.051,-0.779342 -1.5154,-1.243639 -0.4643,-0.464296 -0.8789,-0.969423 -1.2436,-1.515378 -0.3649,-0.545958 -0.6729,-1.122254 -0.9242,-1.728888 -0.2512,-0.606634 -0.4409,-1.231949 -0.569,-1.875948 -0.128,-0.643999 -0.1921,-1.294308 -0.1921,-1.950922 0,-0.656616 0.064,-1.306924 0.1921,-1.950923 0.1281,-0.644 0.3178,-1.269317 0.569,-1.875951 0.2513,-0.606633 0.5593,-1.182928 0.9242,-1.728885 0.3647,-0.5459561 0.7793,-1.051083 1.2436,-1.5153803 0.4644,-0.4642973 0.9695,-0.8788443 1.5154,-1.2436409 0.546,-0.3647962 1.1223,-0.6728325 1.7289,-0.9241085 0.6066,-0.2512756 1.2319,-0.4409633 1.8759,-0.5690623 0.644,-0.1280994 1.2944,-0.1921491 1.951,-0.1921491 0.6566,0 1.3069,0.06405 1.9508,0.1921491 0.6439,0.128099 1.2693,0.3177867 1.8759,0.5690623 0.6065,0.251276 1.183,0.5593123 1.729,0.9241085 0.5459,0.3647966 1.051,0.7793436 1.5154,1.2436409 0.4643,0.4642973 0.8789,0.9694242 1.2436,1.5153803 0.3647,0.545957 0.6727,1.122252 0.9241,1.728885 0.2513,0.606634 0.441,1.231951 0.5691,1.875951 0.1281,0.643999 0.1922,1.294307 0.1922,1.950923 z"
       style="fill:none;stroke:#008cff;stroke-width:1;stroke-linecap:butt;stroke-linejoin:miter;stroke-miterlimit:10;stroke-dasharray:none;stroke-opacity:1"
       transform="matrix(0.95799602,0,0,0.95799602,0.47899801,0.47899801)"
       clip-path="url(#clipPath121)" />
    <path
       id="path122"
       d="m 1002.51,41 h 30 V 16 c 0,-2.76 2.24,-5 5,-5 h 135 c 2.76,0 5,2.24 5,5 v 25 h 155"
       style="fill:none;stroke:#c4c4c4;stroke-width:1;stroke-linecap:butt;stroke-linejoin:miter;stroke-miterlimit:10;stroke-dasharray:none;stroke-opacity:1"
       transform="matrix(0.95799602,0,0,0.95799602,0.47899801,0.47899801)"
       clip-path="url(#clipPath123)" />
    <path
       id="path124"
       d="m 1002.51,111 h 330"
       style="fill:none;stroke:#c4c4c4;stroke-width:1;stroke-linecap:butt;stroke-linejoin:miter;stroke-miterlimit:10;stroke-dasharray:none;stroke-opacity:1"
       transform="matrix(0.95799602,0,0,0.95799602,0.47899801,0.47899801)"
       clip-path="url(#clipPath125)" />
    <path
       id="path126"
       d="m 1102.51,61 c 0,-2.759998 2.24,-5 5,-5 h 210 c 2.76,0 5,2.240002 5,5 v 25 c 0,2.760002 -2.24,5 -5,5 h -210 c -2.76,0 -5,-2.239998 -5,-5 z"
       style="fill:none;stroke:#c4c4c4;stroke-width:1;stroke-linecap:butt;stroke-linejoin:miter;stroke-miterlimit:10;stroke-dasharray:none;stroke-opacity:1"
       transform="matrix(0.95799602,0,0,0.95799602,0.47899801,0.47899801)"
       clip-path="url(#clipPath127)" />
    <path
       id="path128"
       d="m 1039.51,18 h 11 l 4,4 v 14 h -15 z"
       style="fill:none;stroke:#c4c4c4;stroke-width:1;stroke-linecap:butt;stroke-linejoin:miter;stroke-miterlimit:10;stroke-dasharray:none;stroke-opacity:1"
       transform="matrix(0.95799602,0,0,0.95799602,0.47899801,0.47899801)"
       clip-path="url(#clipPath129)" />
    <path
       id="path130"
       d="m 1050.51,18 v 4 l 4,1"
       style="fill:none;stroke:#c4c4c4;stroke-width:1;stroke-linecap:butt;stroke-linejoin:miter;stroke-miterlimit:10;stroke-dasharray:none;stroke-opacity:1"
       transform="matrix(0.95799602,0,0,0.95799602,0.47899801,0.47899801)"
       clip-path="url(#clipPath131)" />
    <path
       id="path132"
       d="m 1109.51,65 h 11 l 4,4 v 14 h -15 z"
       style="fill:none;stroke:#c4c4c4;stroke-width:1;stroke-linecap:butt;stroke-linejoin:miter;stroke-miterlimit:10;stroke-dasharray:none;stroke-opacity:1"
       transform="matrix(0.95799602,0,0,0.95799602,0.47899801,0.47899801)"
       clip-path="url(#clipPath133)" />
    <path
       id="path134"
       d="m 1120.51,65 v 4 l 4,1"
       style="fill:none;stroke:#c4c4c4;stroke-width:1;stroke-linecap:butt;stroke-linejoin:miter;stroke-miterlimit:10;stroke-dasharray:none;stroke-opacity:1"
       transform="matrix(0.95799602,0,0,0.95799602,0.47899801,0.47899801)"
       clip-path="url(#clipPath135)" />
    <path
       id="path136"
       d="m 1014.51,75 10,-10 v 6 h 10 v 8 h -10 v 6 z"
       style="fill:#c4c4c4;fill-opacity:1;fill-rule:nonzero;stroke:#c4c4c4;stroke-width:1;stroke-linecap:butt;stroke-linejoin:miter;stroke-miterlimit:10;stroke-dasharray:none;stroke-opacity:1"
       transform="matrix(0.95799602,0,0,0.95799602,0.47899801,0.47899801)"
       clip-path="url(#clipPath137)" />
    <path
       id="path138"
       d="m 1064.51,75 -10,-10 v 6 h -10 v 8 h 10 v 6 z"
       style="fill:#c4c4c4;fill-opacity:1;fill-rule:nonzero;stroke:#c4c4c4;stroke-width:1;stroke-linecap:butt;stroke-linejoin:miter;stroke-miterlimit:10;stroke-dasharray:none;stroke-opacity:1"
       transform="matrix(0.95799602,0,0,0.95799602,0.47899801,0.47899801)"
       clip-path="url(#clipPath139)" />
    <path
       id="path140"
       d="m 1090.11,78.300003 c -1.7,2.839996 -5.38,3.759995 -8.22,2.059998 -2.8399,-1.690003 -3.77,-5.360001 -2.0799,-8.209999 1.6799,-2.840004 5.3499,-3.790001 8.1999,-2.110001 l -1.6,1.459999 7.9001,1.800003 -1.8001,-7.5 -1.6999,1.599999 c -3.1901,-2.370003 -7.5,-2.580002 -10.9001,-0.529999 -3.41,2.049995 -5.24,5.959999 -4.63,9.889999 0.61,3.93 3.5301,7.099999 7.39,8.029999 3.87,0.93 7.91,-0.559998 10.24,-3.790001 z"
       style="fill:#c4c4c4;fill-opacity:1;fill-rule:nonzero;stroke:#c4c4c4;stroke-width:1;stroke-linecap:butt;stroke-linejoin:miter;stroke-miterlimit:10;stroke-dasharray:none;stroke-opacity:1"
       transform="matrix(0.95799602,0,0,0.95799602,0.47899801,0.47899801)"
       clip-path="url(#clipPath141)" />
    <text
       id="text141"
       xml:space="preserve"
       transform="matrix(0.95800562,0,0,0.95800562,1020.276,30.65618)"
       clip-path="url(#clipPath142)"><tspan
         style="font-variant:normal;font-weight:normal;font-size:17px;font-family:Helvetica;writing-mode:lr-tb;fill:#666666;fill-opacity:1;fill-rule:nonzero;stroke:none"
         x="0 11.338867 20.793457 30.248047 39.702637 44.425781"
         y="0"
         sodipodi:role="line"
         id="tspan141">Page 1</tspan></text>
    <text
       id="text142"
       xml:space="preserve"
       transform="matrix(0.95800562,0,0,0.95800562,1087.3364,76.64045)"
       clip-path="url(#clipPath143)"><tspan
         style="font-variant:normal;font-weight:normal;font-size:17px;font-family:Helvetica;writing-mode:lr-tb;fill:#666666;fill-opacity:1;fill-rule:nonzero;stroke:none"
         x="0 3.7768555 13.231445 21.731445 31.186035 34.962891 44.41748 53.87207 62.37207 67.095215 71.818359 81.272949 90.727539 100.18213 109.63672 114.35986 123.81445 129.47559 138.93018 143.65332 153.10791 161.60791 166.33105 175.78564"
         y="0"
         sodipodi:role="line"
         id="tspan142">localhost:3000/protected</tspan></text>
    <text
       id="text143"
       xml:space="preserve"
       transform="matrix(0.95800562,0,0,0.95800562,982.13539,125.49874)"
       clip-path="url(#clipPath144)"><tspan
         style="font-variant:normal;font-weight:normal;font-size:14px;font-family:Helvetica;writing-mode:lr-tb;fill:#000000;fill-opacity:1;fill-rule:nonzero;stroke:none"
         x="0 12.967773 20.753906 23.864258 30.864258 38.650391 50.3125 58.098633 61.988281 65.87793 73.664062 77.553711 85.339844 90.001953 97.788086 101.67773 109.46387 116.46387 120.35352 128.13965 135.92578 139.81543 144.47754 152.26367 160.0498 163.93945 171.72559"
         y="0"
         sodipodi:role="line"
         id="tspan143">Welcome to protected route,</tspan></text>
    <text
       id="text144"
       xml:space="preserve"
       transform="matrix(0.95800562,0,0,0.95800562,1022.2668,141.78483)"
       clip-path="url(#clipPath145)"><tspan
         style="font-variant:normal;font-weight:normal;font-size:14px;font-family:Helvetica;writing-mode:lr-tb;fill:#000000;fill-opacity:1;fill-rule:nonzero;stroke:none"
         x="0 3.1103516 10.896484 18.682617 26.46875 34.254883 42.041016 45.930664 49.041016 56.827148 60.716797 68.50293 75.50293 83.289062 87.951172"
         y="0"
         sodipodi:role="line"
         id="tspan144">logged in user!</tspan></text>
    <path
       id="path146"
       d="m 1347.51,1 h 330.01 v 250 h -330.01 z"
       style="fill:#ffffff;fill-opacity:1;fill-rule:nonzero;stroke:#666666;stroke-width:1;stroke-linecap:butt;stroke-linejoin:miter;stroke-miterlimit:10;stroke-dasharray:none;stroke-opacity:1"
       transform="matrix(0.95799602,0,0,0.95799602,0.47899801,0.47899801)"
       clip-path="url(#clipPath147)" />
    <path
       id="path148"
       d="m 1622.5201,16 c -10e-5,0.656614 -0.064,1.306923 -0.1923,1.950922 -0.1283,0.643999 -0.318,1.269314 -0.5693,1.875948 -0.2513,0.606634 -0.5593,1.182928 -0.924,1.728886 -0.3648,0.545957 -0.7793,1.051084 -1.2436,1.51538 -0.4643,0.464297 -0.9694,0.878844 -1.5153,1.243639 -0.5461,0.364796 -1.1223,0.672833 -1.7289,0.924109 -0.6066,0.251276 -1.2319,0.440964 -1.8759,0.569063 -0.6439,0.1281 -1.2942,0.19215 -1.9508,0.192152 -0.6566,-2e-6 -1.307,-0.06405 -1.9511,-0.192152 -0.644,-0.128099 -1.2693,-0.317787 -1.8759,-0.569063 -0.6067,-0.251276 -1.183,-0.559313 -1.729,-0.924109 -0.5459,-0.364795 -1.051,-0.779342 -1.5153,-1.243639 -0.4644,-0.464296 -0.879,-0.969423 -1.2436,-1.515378 -0.3649,-0.545958 -0.6729,-1.122254 -0.9241,-1.728888 -0.2513,-0.606634 -0.4409,-1.231949 -0.569,-1.875948 -0.128,-0.643999 -0.1921,-1.294308 -0.1921,-1.950922 0,-0.656616 0.064,-1.306924 0.192,-1.950923 0.1281,-0.644 0.3178,-1.269317 0.569,-1.875951 0.2512,-0.606633 0.5592,-1.182928 0.9241,-1.728885 0.3647,-0.5459561 0.7793,-1.051083 1.2437,-1.5153803 0.4643,-0.4642973 0.9694,-0.8788443 1.5152,-1.2436409 0.546,-0.3647962 1.1224,-0.6728325 1.7291,-0.9241085 0.6066,-0.2512756 1.2319,-0.4409633 1.876,-0.5690623 0.644,-0.1280994 1.2944,-0.1921491 1.951,-0.1921491 0.6566,0 1.3068,0.06405 1.9507,0.1921491 0.6441,0.128099 1.2694,0.3177867 1.876,0.5690623 0.6066,0.251276 1.1827,0.5593123 1.7287,0.9241085 0.5461,0.3647966 1.0512,0.7793436 1.5155,1.2436409 0.4643,0.4642973 0.8788,0.9694242 1.2437,1.5153803 0.3646,0.545957 0.6726,1.122252 0.9239,1.728885 0.2513,0.606634 0.441,1.231951 0.5693,1.875951 0.1281,0.643999 0.1922,1.294307 0.1923,1.950923 z"
       style="fill:none;stroke:#666666;stroke-width:1;stroke-linecap:butt;stroke-linejoin:miter;stroke-miterlimit:10;stroke-dasharray:none;stroke-opacity:1"
       transform="matrix(0.95799602,0,0,0.95799602,0.47899801,0.47899801)"
       clip-path="url(#clipPath149)" />
    <path
       id="path150"
       d="m 1647.5201,16 c -10e-5,0.656614 -0.064,1.306923 -0.1922,1.950922 -0.1282,0.643999 -0.3179,1.269314 -0.5692,1.875948 -0.2512,0.606634 -0.5592,1.182928 -0.9241,1.728886 -0.3646,0.545957 -0.7792,1.051084 -1.2435,1.51538 -0.4644,0.464297 -0.9695,0.878844 -1.5154,1.243639 -0.546,0.364796 -1.1224,0.672833 -1.729,0.924109 -0.6066,0.251276 -1.2319,0.440964 -1.8759,0.569063 -0.6439,0.1281 -1.2942,0.19215 -1.9508,0.192152 -0.6566,-2e-6 -1.307,-0.06405 -1.951,-0.192152 -0.6441,-0.128099 -1.2694,-0.317787 -1.8761,-0.569063 -0.6067,-0.251276 -1.183,-0.559313 -1.7288,-0.924109 -0.546,-0.364795 -1.0511,-0.779342 -1.5154,-1.243639 -0.4642,-0.464296 -0.8789,-0.969423 -1.2437,-1.515378 -0.3648,-0.545958 -0.6728,-1.122254 -0.9241,-1.728888 -0.2514,-0.606634 -0.4411,-1.231949 -0.5691,-1.875948 -0.1281,-0.643999 -0.192,-1.294308 -0.1919,-1.950922 -10e-5,-0.656616 0.064,-1.306924 0.1919,-1.950923 0.128,-0.644 0.3177,-1.269317 0.5691,-1.875951 0.2513,-0.606633 0.5593,-1.182928 0.9242,-1.728885 0.3649,-0.5459561 0.7794,-1.051083 1.2436,-1.5153803 0.4643,-0.4642973 0.9694,-0.8788443 1.5154,-1.2436409 0.5458,-0.3647962 1.1221,-0.6728325 1.7288,-0.9241085 0.6067,-0.2512756 1.232,-0.4409633 1.8761,-0.5690623 0.644,-0.1280994 1.2944,-0.1921491 1.951,-0.1921491 0.6566,0 1.3069,0.06405 1.9508,0.1921491 0.644,0.128099 1.2692,0.3177867 1.8758,0.5690623 0.6065,0.251276 1.1829,0.5593123 1.7291,0.9241085 0.5459,0.3647966 1.051,0.7793436 1.5154,1.2436409 0.4643,0.4642973 0.8789,0.9694242 1.2436,1.5153803 0.3648,0.545957 0.6728,1.122252 0.9241,1.728885 0.2512,0.606634 0.4409,1.231951 0.569,1.875951 0.1281,0.643999 0.1922,1.294307 0.1923,1.950923 z"
       style="fill:none;stroke:#666666;stroke-width:1;stroke-linecap:butt;stroke-linejoin:miter;stroke-miterlimit:10;stroke-dasharray:none;stroke-opacity:1"
       transform="matrix(0.95799602,0,0,0.95799602,0.47899801,0.47899801)"
       clip-path="url(#clipPath151)" />
    <path
       id="path152"
       d="m 1672.5201,16 c -10e-5,0.656614 -0.064,1.306923 -0.1922,1.950922 -0.1282,0.643999 -0.3179,1.269314 -0.5691,1.875948 -0.2513,0.606634 -0.5595,1.182928 -0.9243,1.728886 -0.3646,0.545957 -0.7792,1.051084 -1.2434,1.51538 -0.4643,0.464297 -0.9695,0.878844 -1.5155,1.243639 -0.5459,0.364796 -1.1222,0.672833 -1.7289,0.924109 -0.6067,0.251276 -1.2321,0.440964 -1.876,0.569063 -0.6439,0.1281 -1.2942,0.19215 -1.9507,0.192152 -0.6567,-2e-6 -1.3071,-0.06405 -1.951,-0.192152 -0.6441,-0.128099 -1.2694,-0.317787 -1.876,-0.569063 -0.6066,-0.251276 -1.1829,-0.559313 -1.7288,-0.924109 -0.546,-0.364795 -1.0511,-0.779342 -1.5153,-1.243639 -0.4643,-0.464296 -0.8789,-0.969423 -1.2438,-1.515378 -0.3649,-0.545958 -0.6729,-1.122254 -0.9242,-1.728888 -0.2514,-0.606634 -0.4409,-1.231949 -0.569,-1.875948 -0.128,-0.643999 -0.1921,-1.294308 -0.192,-1.950922 -10e-5,-0.656616 0.064,-1.306924 0.1919,-1.950923 0.128,-0.644 0.3177,-1.269317 0.5691,-1.875951 0.2513,-0.606633 0.5593,-1.182928 0.9242,-1.728885 0.3649,-0.5459561 0.7795,-1.051083 1.2438,-1.5153803 0.4642,-0.4642973 0.9693,-0.8788443 1.5153,-1.2436409 0.5459,-0.3647962 1.1222,-0.6728325 1.7288,-0.9241085 0.6066,-0.2512756 1.2319,-0.4409633 1.876,-0.5690623 0.6439,-0.1280994 1.2943,-0.1921491 1.951,-0.1921491 0.6565,0 1.3068,0.06405 1.9507,0.1921491 0.6439,0.128099 1.2693,0.3177867 1.876,0.5690623 0.6067,0.251276 1.183,0.5593123 1.7289,0.9241085 0.546,0.3647966 1.0512,0.7793436 1.5155,1.2436409 0.4642,0.4642973 0.8788,0.9694242 1.2435,1.5153803 0.3647,0.545957 0.6727,1.122252 0.9241,1.728885 0.2513,0.606634 0.441,1.231951 0.5691,1.875951 0.1281,0.643999 0.1922,1.294307 0.1923,1.950923 z"
       style="fill:none;stroke:#008cff;stroke-width:1;stroke-linecap:butt;stroke-linejoin:miter;stroke-miterlimit:10;stroke-dasharray:none;stroke-opacity:1"
       transform="matrix(0.95799602,0,0,0.95799602,0.47899801,0.47899801)"
       clip-path="url(#clipPath153)" />
    <path
       id="path154"
       d="m 1347.51,41 h 30 V 16 c 0,-2.76 2.24,-5 5,-5 h 135.01 c 2.76,0 5,2.24 5,5 v 25 h 155"
       style="fill:none;stroke:#c4c4c4;stroke-width:1;stroke-linecap:butt;stroke-linejoin:miter;stroke-miterlimit:10;stroke-dasharray:none;stroke-opacity:1"
       transform="matrix(0.95799602,0,0,0.95799602,0.47899801,0.47899801)"
       clip-path="url(#clipPath155)" />
    <path
       id="path156"
       d="m 1347.51,111 h 330.01"
       style="fill:none;stroke:#c4c4c4;stroke-width:1;stroke-linecap:butt;stroke-linejoin:miter;stroke-miterlimit:10;stroke-dasharray:none;stroke-opacity:1"
       transform="matrix(0.95799602,0,0,0.95799602,0.47899801,0.47899801)"
       clip-path="url(#clipPath157)" />
    <path
       id="path158"
       d="m 1447.51,61 c 0,-2.759998 2.24,-5 5,-5 h 210.01 c 2.76,0 5,2.240002 5,5 v 25 c 0,2.760002 -2.24,5 -5,5 h -210.01 c -2.76,0 -5,-2.239998 -5,-5 z"
       style="fill:none;stroke:#c4c4c4;stroke-width:1;stroke-linecap:butt;stroke-linejoin:miter;stroke-miterlimit:10;stroke-dasharray:none;stroke-opacity:1"
       transform="matrix(0.95799602,0,0,0.95799602,0.47899801,0.47899801)"
       clip-path="url(#clipPath159)" />
    <path
       id="path160"
       d="m 1384.51,18 h 11 l 4,4 v 14 h -15 z"
       style="fill:none;stroke:#c4c4c4;stroke-width:1;stroke-linecap:butt;stroke-linejoin:miter;stroke-miterlimit:10;stroke-dasharray:none;stroke-opacity:1"
       transform="matrix(0.95799602,0,0,0.95799602,0.47899801,0.47899801)"
       clip-path="url(#clipPath161)" />
    <path
       id="path162"
       d="m 1395.51,18 v 4 l 4,1"
       style="fill:none;stroke:#c4c4c4;stroke-width:1;stroke-linecap:butt;stroke-linejoin:miter;stroke-miterlimit:10;stroke-dasharray:none;stroke-opacity:1"
       transform="matrix(0.95799602,0,0,0.95799602,0.47899801,0.47899801)"
       clip-path="url(#clipPath163)" />
    <path
       id="path164"
       d="m 1454.51,65 h 11 l 4,4 v 14 h -15 z"
       style="fill:none;stroke:#c4c4c4;stroke-width:1;stroke-linecap:butt;stroke-linejoin:miter;stroke-miterlimit:10;stroke-dasharray:none;stroke-opacity:1"
       transform="matrix(0.95799602,0,0,0.95799602,0.47899801,0.47899801)"
       clip-path="url(#clipPath165)" />
    <path
       id="path166"
       d="m 1465.51,65 v 4 l 4,1"
       style="fill:none;stroke:#c4c4c4;stroke-width:1;stroke-linecap:butt;stroke-linejoin:miter;stroke-miterlimit:10;stroke-dasharray:none;stroke-opacity:1"
       transform="matrix(0.95799602,0,0,0.95799602,0.47899801,0.47899801)"
       clip-path="url(#clipPath167)" />
    <path
       id="path168"
       d="m 1359.51,75 10,-10 v 6 h 10 v 8 h -10 v 6 z"
       style="fill:#c4c4c4;fill-opacity:1;fill-rule:nonzero;stroke:#c4c4c4;stroke-width:1;stroke-linecap:butt;stroke-linejoin:miter;stroke-miterlimit:10;stroke-dasharray:none;stroke-opacity:1"
       transform="matrix(0.95799602,0,0,0.95799602,0.47899801,0.47899801)"
       clip-path="url(#clipPath169)" />
    <path
       id="path170"
       d="m 1409.51,75 -10,-10 v 6 h -10 v 8 h 10 v 6 z"
       style="fill:#c4c4c4;fill-opacity:1;fill-rule:nonzero;stroke:#c4c4c4;stroke-width:1;stroke-linecap:butt;stroke-linejoin:miter;stroke-miterlimit:10;stroke-dasharray:none;stroke-opacity:1"
       transform="matrix(0.95799602,0,0,0.95799602,0.47899801,0.47899801)"
       clip-path="url(#clipPath171)" />
    <path
       id="path172"
       d="m 1435.11,78.300003 c -1.7,2.839996 -5.37,3.759995 -8.21,2.059998 -2.8399,-1.690003 -3.78,-5.360001 -2.0899,-8.209999 1.6799,-2.840004 5.3499,-3.790001 8.1999,-2.110001 l -1.6,1.459999 7.9001,1.800003 -1.8001,-7.5 -1.6999,1.599999 c -3.1901,-2.370003 -7.5,-2.580002 -10.9001,-0.529999 -3.41,2.049995 -5.2299,5.959999 -4.63,9.889999 0.61,3.93 3.5301,7.099999 7.4001,8.029999 3.8599,0.93 7.9099,-0.559998 10.2299,-3.790001 z"
       style="fill:#c4c4c4;fill-opacity:1;fill-rule:nonzero;stroke:#c4c4c4;stroke-width:1;stroke-linecap:butt;stroke-linejoin:miter;stroke-miterlimit:10;stroke-dasharray:none;stroke-opacity:1"
       transform="matrix(0.95799602,0,0,0.95799602,0.47899801,0.47899801)"
       clip-path="url(#clipPath173)" />
    <text
       id="text173"
       xml:space="preserve"
       transform="matrix(0.95800562,0,0,0.95800562,1350.7879,30.65618)"
       clip-path="url(#clipPath174)"><tspan
         style="font-variant:normal;font-weight:normal;font-size:17px;font-family:Helvetica;writing-mode:lr-tb;fill:#666666;fill-opacity:1;fill-rule:nonzero;stroke:none"
         x="0 11.338867 20.793457 30.248047 39.702637 44.425781"
         y="0"
         sodipodi:role="line"
         id="tspan173">Page 1</tspan></text>
    <text
       id="text174"
       xml:space="preserve"
       transform="matrix(0.95800562,0,0,0.95800562,1417.8483,76.64045)"
       clip-path="url(#clipPath175)"><tspan
         style="font-variant:normal;font-weight:normal;font-size:17px;font-family:Helvetica;writing-mode:lr-tb;fill:#666666;fill-opacity:1;fill-rule:nonzero;stroke:none"
         x="0 3.7768555 13.231445 21.731445 31.186035 34.962891 44.41748 53.87207 62.37207 67.095215 71.818359 81.272949 90.727539 100.18213 109.63672 114.35986 123.81445 129.47559 138.93018 143.65332 153.10791 161.60791 166.33105 175.78564"
         y="0"
         sodipodi:role="line"
         id="tspan174">localhost:3000/protected</tspan></text>
    <text
       id="text175"
       xml:space="preserve"
       transform="matrix(0.95800562,0,0,0.95800562,1322.8261,133.16278)"
       clip-path="url(#clipPath176)"><tspan
         style="font-variant:normal;font-weight:normal;font-size:14px;font-family:Helvetica;writing-mode:lr-tb;fill:#000000;fill-opacity:1;fill-rule:nonzero;stroke:none"
         x="0 10.110352 17.896484 25.682617 28.792969 36.579102"
         y="0"
         sodipodi:role="line"
         id="tspan175">Denied</tspan></text>
  </g>
</svg>
