<?xml version="1.0" encoding="UTF-8" standalone="no"?>
<!-- Created with Inkscape (http://www.inkscape.org/) -->

<svg
   version="1.1"
   id="svg1"
   width="1009.2799"
   height="249.27998"
   viewBox="0 0 1009.2799 249.27998"
   sodipodi:docname="ts-4.pdf"
   xmlns:inkscape="http://www.inkscape.org/namespaces/inkscape"
   xmlns:sodipodi="http://sodipodi.sourceforge.net/DTD/sodipodi-0.dtd"
   xmlns="http://www.w3.org/2000/svg"
   xmlns:svg="http://www.w3.org/2000/svg">
  <defs
     id="defs1">
    <clipPath
       clipPathUnits="userSpaceOnUse"
       id="clipPath2">
      <path
         d="M 0,0 H 3154.1665 V 778.06763 H 0 Z"
         transform="scale(0.33416118)"
         clip-rule="evenodd"
         id="path2" />
    </clipPath>
    <clipPath
       clipPathUnits="userSpaceOnUse"
       id="clipPath4">
      <path
         d="M 0,0 H 3154.1665 V 775.07507 H 0 Z"
         transform="matrix(0.33416118,0,0,0.33416118,-0.49999999,-0.49999999)"
         clip-rule="evenodd"
         id="path4" />
    </clipPath>
    <clipPath
       clipPathUnits="userSpaceOnUse"
       id="clipPath6">
      <path
         d="M 0,0 H 3154.1665 V 775.07507 H 0 Z"
         transform="matrix(0.33416118,0,0,0.33416118,-0.49999999,-0.49999999)"
         clip-rule="evenodd"
         id="path6" />
    </clipPath>
    <clipPath
       clipPathUnits="userSpaceOnUse"
       id="clipPath8">
      <path
         d="M 0,0 H 3154.1665 V 775.07507 H 0 Z"
         transform="matrix(0.33416118,0,0,0.33416118,-0.49999999,-0.49999999)"
         clip-rule="evenodd"
         id="path8" />
    </clipPath>
    <clipPath
       clipPathUnits="userSpaceOnUse"
       id="clipPath10">
      <path
         d="M 0,0 H 3154.1665 V 775.07507 H 0 Z"
         transform="matrix(0.33416118,0,0,0.33416118,-0.49999999,-0.49999999)"
         clip-rule="evenodd"
         id="path10" />
    </clipPath>
    <clipPath
       clipPathUnits="userSpaceOnUse"
       id="clipPath12">
      <path
         d="M 0,0 H 3154.1665 V 775.07507 H 0 Z"
         transform="matrix(0.33416118,0,0,0.33416118,-0.49999999,-0.49999999)"
         clip-rule="evenodd"
         id="path12" />
    </clipPath>
    <clipPath
       clipPathUnits="userSpaceOnUse"
       id="clipPath14">
      <path
         d="M 0,0 H 3154.1665 V 775.07507 H 0 Z"
         transform="matrix(0.33416118,0,0,0.33416118,-0.49999999,-0.49999999)"
         clip-rule="evenodd"
         id="path14" />
    </clipPath>
    <clipPath
       clipPathUnits="userSpaceOnUse"
       id="clipPath16">
      <path
         d="M 0,0 H 3154.1665 V 775.07507 H 0 Z"
         transform="matrix(0.33416118,0,0,0.33416118,-0.49999999,-0.49999999)"
         clip-rule="evenodd"
         id="path16" />
    </clipPath>
    <clipPath
       clipPathUnits="userSpaceOnUse"
       id="clipPath18">
      <path
         d="M 0,0 H 3154.1665 V 775.07507 H 0 Z"
         transform="matrix(0.33416118,0,0,0.33416118,-0.49999999,-0.49999999)"
         clip-rule="evenodd"
         id="path18" />
    </clipPath>
    <clipPath
       clipPathUnits="userSpaceOnUse"
       id="clipPath20">
      <path
         d="M 0,0 H 3154.1665 V 775.07507 H 0 Z"
         transform="matrix(0.33416118,0,0,0.33416118,-0.49999999,-0.49999999)"
         clip-rule="evenodd"
         id="path20" />
    </clipPath>
    <clipPath
       clipPathUnits="userSpaceOnUse"
       id="clipPath22">
      <path
         d="M 0,0 H 3154.1665 V 775.07507 H 0 Z"
         transform="matrix(0.33416118,0,0,0.33416118,-0.49999999,-0.49999999)"
         clip-rule="evenodd"
         id="path22" />
    </clipPath>
    <clipPath
       clipPathUnits="userSpaceOnUse"
       id="clipPath24">
      <path
         d="M 0,0 H 3154.1665 V 775.07507 H 0 Z"
         transform="matrix(0.33416118,0,0,0.33416118,-0.49999999,-0.49999999)"
         clip-rule="evenodd"
         id="path24" />
    </clipPath>
    <clipPath
       clipPathUnits="userSpaceOnUse"
       id="clipPath26">
      <path
         d="M 0,0 H 3154.1665 V 775.07507 H 0 Z"
         transform="matrix(0.33416118,0,0,0.33416118,-0.49999999,-0.49999999)"
         clip-rule="evenodd"
         id="path26" />
    </clipPath>
    <clipPath
       clipPathUnits="userSpaceOnUse"
       id="clipPath28">
      <path
         d="M 0,0 H 3154.1665 V 775.07507 H 0 Z"
         transform="matrix(0.33416118,0,0,0.33416118,-0.49999999,-0.49999999)"
         clip-rule="evenodd"
         id="path28" />
    </clipPath>
    <clipPath
       clipPathUnits="userSpaceOnUse"
       id="clipPath30">
      <path
         d="M 0,0 H 3154.1665 V 775.07507 H 0 Z"
         transform="matrix(0.33416118,0,0,0.33416118,-0.49999999,-0.49999999)"
         clip-rule="evenodd"
         id="path30" />
    </clipPath>
    <clipPath
       clipPathUnits="userSpaceOnUse"
       id="clipPath31">
      <path
         d="M 0,0 H 3154.1665 V 775.07507 H 0 Z"
         transform="matrix(0.33415783,0,0,0.33415783,-63,-32)"
         clip-rule="evenodd"
         id="path31" />
    </clipPath>
    <clipPath
       clipPathUnits="userSpaceOnUse"
       id="clipPath32">
      <path
         d="M 0,0 H 3154.1665 V 775.07507 H 0 Z"
         transform="matrix(0.33415783,0,0,0.33415783,-133,-79.999999)"
         clip-rule="evenodd"
         id="path32" />
    </clipPath>
    <clipPath
       clipPathUnits="userSpaceOnUse"
       id="clipPath33">
      <path
         d="M 0,0 H 3154.1665 V 775.07507 H 0 Z"
         transform="matrix(0.33415783,0,0,0.33415783,-23.484375,-130.99999)"
         clip-rule="evenodd"
         id="path33" />
    </clipPath>
    <clipPath
       clipPathUnits="userSpaceOnUse"
       id="clipPath34">
      <path
         d="M 0,0 H 3154.1665 V 775.07507 H 0 Z"
         transform="matrix(0.33415783,0,0,0.33415783,-20.265625,-161)"
         clip-rule="evenodd"
         id="path34" />
    </clipPath>
    <clipPath
       clipPathUnits="userSpaceOnUse"
       id="clipPath36">
      <path
         d="M 0,0 H 3154.1665 V 775.07507 H 0 Z"
         transform="matrix(0.33416118,0,0,0.33416118,-0.49999999,-0.49999999)"
         clip-rule="evenodd"
         id="path36" />
    </clipPath>
    <clipPath
       clipPathUnits="userSpaceOnUse"
       id="clipPath38">
      <path
         d="M 0,0 H 3154.1665 V 775.07507 H 0 Z"
         transform="matrix(0.33416118,0,0,0.33416118,-0.49999999,-0.49999999)"
         clip-rule="evenodd"
         id="path38" />
    </clipPath>
    <clipPath
       clipPathUnits="userSpaceOnUse"
       id="clipPath40">
      <path
         d="M 0,0 H 3154.1665 V 775.07507 H 0 Z"
         transform="matrix(0.33416118,0,0,0.33416118,-0.49999999,-0.49999999)"
         clip-rule="evenodd"
         id="path40" />
    </clipPath>
    <clipPath
       clipPathUnits="userSpaceOnUse"
       id="clipPath41">
      <path
         d="M 0,0 H 3154.1665 V 775.07507 H 0 Z"
         transform="matrix(0.33415783,0,0,0.33415783,-34.203125,-196)"
         clip-rule="evenodd"
         id="path41" />
    </clipPath>
    <clipPath
       clipPathUnits="userSpaceOnUse"
       id="clipPath43">
      <path
         d="M 0,0 H 3154.1665 V 775.07507 H 0 Z"
         transform="matrix(0.33416118,0,0,0.33416118,-0.49999999,-0.49999999)"
         clip-rule="evenodd"
         id="path43" />
    </clipPath>
    <clipPath
       clipPathUnits="userSpaceOnUse"
       id="clipPath45">
      <path
         d="M 0,0 H 3154.1665 V 775.07507 H 0 Z"
         transform="matrix(0.33416118,0,0,0.33416118,-0.49999999,-0.49999999)"
         clip-rule="evenodd"
         id="path45" />
    </clipPath>
    <clipPath
       clipPathUnits="userSpaceOnUse"
       id="clipPath47">
      <path
         d="M 0,0 H 3154.1665 V 775.07507 H 0 Z"
         transform="matrix(0.33416118,0,0,0.33416118,-0.49999999,-0.49999999)"
         clip-rule="evenodd"
         id="path47" />
    </clipPath>
    <clipPath
       clipPathUnits="userSpaceOnUse"
       id="clipPath48">
      <path
         d="M 0,0 H 3154.1665 V 775.07507 H 0 Z"
         transform="matrix(0.33415783,0,0,0.33415783,-337.35938,-156)"
         clip-rule="evenodd"
         id="path48" />
    </clipPath>
    <clipPath
       clipPathUnits="userSpaceOnUse"
       id="clipPath50">
      <path
         d="M 0,0 H 3154.1665 V 775.07507 H 0 Z"
         transform="matrix(0.33416118,0,0,0.33416118,-0.49999999,-0.49999999)"
         clip-rule="evenodd"
         id="path50" />
    </clipPath>
    <clipPath
       clipPathUnits="userSpaceOnUse"
       id="clipPath51">
      <path
         d="M 0,0 H 3154.1665 V 775.07507 H 0 Z"
         transform="matrix(0.33415783,0,0,0.33415783,-393.125,-96)"
         clip-rule="evenodd"
         id="path51" />
    </clipPath>
    <clipPath
       clipPathUnits="userSpaceOnUse"
       id="clipPath53">
      <path
         d="M 0,0 H 3154.1665 V 775.07507 H 0 Z"
         transform="matrix(0.33416118,0,0,0.33416118,-0.49999999,-0.49999999)"
         clip-rule="evenodd"
         id="path53" />
    </clipPath>
    <clipPath
       clipPathUnits="userSpaceOnUse"
       id="clipPath54">
      <path
         d="M 0,0 H 3154.1665 V 775.07507 H 0 Z"
         transform="matrix(0.33415783,0,0,0.33415783,-396.96875,-126)"
         clip-rule="evenodd"
         id="path54" />
    </clipPath>
    <clipPath
       clipPathUnits="userSpaceOnUse"
       id="clipPath56">
      <path
         d="M 0,0 H 3154.1665 V 775.07507 H 0 Z"
         transform="matrix(0.33416118,0,0,0.33416118,-0.49999999,-0.49999999)"
         clip-rule="evenodd"
         id="path56" />
    </clipPath>
    <clipPath
       clipPathUnits="userSpaceOnUse"
       id="clipPath57">
      <path
         d="M 0,0 H 3154.1665 V 775.07507 H 0 Z"
         transform="matrix(0.33415783,0,0,0.33415783,-773.1875,-106.99999)"
         clip-rule="evenodd"
         id="path57" />
    </clipPath>
    <clipPath
       clipPathUnits="userSpaceOnUse"
       id="clipPath59">
      <path
         d="M 0,0 H 3154.1665 V 775.07507 H 0 Z"
         transform="matrix(0.33416118,0,0,0.33416118,-0.49999999,-0.49999999)"
         clip-rule="evenodd"
         id="path59" />
    </clipPath>
    <clipPath
       clipPathUnits="userSpaceOnUse"
       id="clipPath60">
      <path
         d="M 0,0 H 3154.1665 V 775.07507 H 0 Z"
         transform="matrix(0.33415783,0,0,0.33415783,-616.1875,-149)"
         clip-rule="evenodd"
         id="path60" />
    </clipPath>
    <clipPath
       clipPathUnits="userSpaceOnUse"
       id="clipPath62">
      <path
         d="M 0,0 H 3154.1665 V 775.07507 H 0 Z"
         transform="matrix(0.33416118,0,0,0.33416118,-0.49999999,-0.49999999)"
         clip-rule="evenodd"
         id="path62" />
    </clipPath>
    <clipPath
       clipPathUnits="userSpaceOnUse"
       id="clipPath64">
      <path
         d="M 0,0 H 3154.1665 V 775.07507 H 0 Z"
         transform="matrix(0.33416118,0,0,0.33416118,-0.49999999,-0.49999999)"
         clip-rule="evenodd"
         id="path64" />
    </clipPath>
    <clipPath
       clipPathUnits="userSpaceOnUse"
       id="clipPath66">
      <path
         d="M 0,0 H 3154.1665 V 775.07507 H 0 Z"
         transform="matrix(0.33416118,0,0,0.33416118,-0.49999999,-0.49999999)"
         clip-rule="evenodd"
         id="path66" />
    </clipPath>
    <clipPath
       clipPathUnits="userSpaceOnUse"
       id="clipPath67">
      <path
         d="M 0,0 H 3154.1665 V 775.07507 H 0 Z"
         transform="matrix(0.33415783,0,0,0.33415783,-630.28125,-178.99999)"
         clip-rule="evenodd"
         id="path67" />
    </clipPath>
    <clipPath
       clipPathUnits="userSpaceOnUse"
       id="clipPath69">
      <path
         d="M 0,0 H 3154.1665 V 775.07507 H 0 Z"
         transform="matrix(0.33416118,0,0,0.33416118,-0.49999999,-0.49999999)"
         clip-rule="evenodd"
         id="path69" />
    </clipPath>
    <clipPath
       clipPathUnits="userSpaceOnUse"
       id="clipPath70">
      <path
         d="M 0,0 H 3154.1665 V 775.07507 H 0 Z"
         transform="matrix(0.33415783,0,0,0.33415783,-612.9375,-209)"
         clip-rule="evenodd"
         id="path70" />
    </clipPath>
    <clipPath
       clipPathUnits="userSpaceOnUse"
       id="clipPath72">
      <path
         d="M 0,0 H 3154.1665 V 775.07507 H 0 Z"
         transform="matrix(0.33416118,0,0,0.33416118,-0.49999999,-0.49999999)"
         clip-rule="evenodd"
         id="path72" />
    </clipPath>
    <clipPath
       clipPathUnits="userSpaceOnUse"
       id="clipPath73">
      <path
         d="M 0,0 H 3154.1665 V 775.07507 H 0 Z"
         transform="matrix(0.33415783,0,0,0.33415783,-782.03125,-170.99999)"
         clip-rule="evenodd"
         id="path73" />
    </clipPath>
    <clipPath
       clipPathUnits="userSpaceOnUse"
       id="clipPath74">
      <path
         d="M 0,0 H 3154.1665 V 775.07507 H 0 Z"
         transform="matrix(0.33415783,0,0,0.33415783,-782.75,-186.99999)"
         clip-rule="evenodd"
         id="path74" />
    </clipPath>
    <clipPath
       clipPathUnits="userSpaceOnUse"
       id="clipPath76">
      <path
         d="M 0,0 H 3154.1665 V 775.07507 H 0 Z"
         transform="matrix(0.33416118,0,0,0.33416118,-0.49999999,-0.49999999)"
         clip-rule="evenodd"
         id="path76" />
    </clipPath>
    <clipPath
       clipPathUnits="userSpaceOnUse"
       id="clipPath78">
      <path
         d="M 0,0 H 3154.1665 V 775.07507 H 0 Z"
         transform="matrix(0.33416118,0,0,0.33416118,-0.49999999,-0.49999999)"
         clip-rule="evenodd"
         id="path78" />
    </clipPath>
    <clipPath
       clipPathUnits="userSpaceOnUse"
       id="clipPath80">
      <path
         d="M 0,0 H 3154.1665 V 775.07507 H 0 Z"
         transform="matrix(0.33416118,0,0,0.33416118,-0.49999999,-0.49999999)"
         clip-rule="evenodd"
         id="path80" />
    </clipPath>
    <clipPath
       clipPathUnits="userSpaceOnUse"
       id="clipPath81">
      <path
         d="M 0,0 H 3154.1665 V 775.07507 H 0 Z"
         transform="matrix(0.33415783,0,0,0.33415783,-926.1875,-149)"
         clip-rule="evenodd"
         id="path81" />
    </clipPath>
    <clipPath
       clipPathUnits="userSpaceOnUse"
       id="clipPath83">
      <path
         d="M 0,0 H 3154.1665 V 775.07507 H 0 Z"
         transform="matrix(0.33416118,0,0,0.33416118,-0.49999999,-0.49999999)"
         clip-rule="evenodd"
         id="path83" />
    </clipPath>
    <clipPath
       clipPathUnits="userSpaceOnUse"
       id="clipPath84">
      <path
         d="M 0,0 H 3154.1665 V 775.07507 H 0 Z"
         transform="matrix(0.33415783,0,0,0.33415783,-940.28124,-178.99999)"
         clip-rule="evenodd"
         id="path84" />
    </clipPath>
    <clipPath
       clipPathUnits="userSpaceOnUse"
       id="clipPath86">
      <path
         d="M 0,0 H 3154.1665 V 775.07507 H 0 Z"
         transform="matrix(0.33416118,0,0,0.33416118,-0.49999999,-0.49999999)"
         clip-rule="evenodd"
         id="path86" />
    </clipPath>
    <clipPath
       clipPathUnits="userSpaceOnUse"
       id="clipPath87">
      <path
         d="M 0,0 H 3154.1665 V 775.07507 H 0 Z"
         transform="matrix(0.33415783,0,0,0.33415783,-922.9375,-209)"
         clip-rule="evenodd"
         id="path87" />
    </clipPath>
    <clipPath
       clipPathUnits="userSpaceOnUse"
       id="clipPath89">
      <path
         d="M 0,0 H 3154.1665 V 775.07507 H 0 Z"
         transform="matrix(0.33416118,0,0,0.33416118,-0.49999999,-0.49999999)"
         clip-rule="evenodd"
         id="path89" />
    </clipPath>
    <clipPath
       clipPathUnits="userSpaceOnUse"
       id="clipPath90">
      <path
         d="M 0,0 H 3154.1665 V 775.07507 H 0 Z"
         transform="matrix(0.33415783,0,0,0.33415783,-910.34375,-231)"
         clip-rule="evenodd"
         id="path90" />
    </clipPath>
    <clipPath
       clipPathUnits="userSpaceOnUse"
       id="clipPath91">
      <path
         d="M 0,0 H 3154.1665 V 775.07507 H 0 Z"
         transform="matrix(0.33415783,0,0,0.33415783,-905.28125,-247)"
         clip-rule="evenodd"
         id="path91" />
    </clipPath>
  </defs>
  <sodipodi:namedview
     id="namedview1"
     pagecolor="#ffffff"
     bordercolor="#000000"
     borderopacity="0.25"
     inkscape:showpageshadow="2"
     inkscape:pageopacity="0.0"
     inkscape:pagecheckerboard="0"
     inkscape:deskcolor="#d1d1d1">
    <inkscape:page
       x="0"
       y="0"
       inkscape:label="1"
       id="page1"
       width="1009.2799"
       height="249.27998"
       margin="0"
       bleed="0" />
  </sodipodi:namedview>
  <g
     id="g1"
     inkscape:groupmode="layer"
     inkscape:label="1">
    <path
       id="path1"
       d="M 0,0 H 1054 V 260 H 0 Z"
       style="fill:#ffffff;fill-opacity:1;fill-rule:nonzero;stroke:none"
       transform="scale(0.95762166)"
       clip-path="url(#clipPath2)" />
    <path
       id="path3"
       d="M 1,1 H 300 V 251 H 1 Z"
       style="fill:#ffffff;fill-opacity:1;fill-rule:nonzero;stroke:#666666;stroke-width:1;stroke-linecap:butt;stroke-linejoin:miter;stroke-miterlimit:10;stroke-dasharray:none;stroke-opacity:1"
       transform="matrix(0.95762166,0,0,0.95762166,0.47881082,0.47881082)"
       clip-path="url(#clipPath4)" />
    <path
       id="path5"
       d="m 245.00009,16 c -1e-5,0.656614 -0.0641,1.306923 -0.19217,1.950922 -0.1281,0.643999 -0.31779,1.269314 -0.56907,1.875948 -0.25127,0.606634 -0.55932,1.182928 -0.92411,1.728886 -0.36479,0.545957 -0.77932,1.051084 -1.24362,1.51538 -0.46431,0.464297 -0.96944,0.878844 -1.51539,1.243639 -0.54595,0.364796 -1.12224,0.672833 -1.72889,0.924109 -0.60664,0.251276 -1.23195,0.440964 -1.87593,0.569063 -0.64401,0.1281 -1.29431,0.19215 -1.95091,0.192152 -0.65663,-2e-6 -1.30696,-0.06405 -1.95096,-0.192152 -0.644,-0.128099 -1.26932,-0.317787 -1.87596,-0.569063 -0.60664,-0.251276 -1.18294,-0.559313 -1.72888,-0.924109 -0.54595,-0.364795 -1.05107,-0.779342 -1.51537,-1.243639 -0.46429,-0.464296 -0.87884,-0.969423 -1.24363,-1.515378 -0.3648,-0.545958 -0.67284,-1.122254 -0.92412,-1.728888 -0.25128,-0.606634 -0.44097,-1.231949 -0.56906,-1.875948 -0.1281,-0.643999 -0.19214,-1.294308 -0.19213,-1.950922 -1e-5,-0.656616 0.064,-1.306924 0.19214,-1.950923 0.12808,-0.644 0.31777,-1.269317 0.56905,-1.875951 0.25128,-0.606633 0.55932,-1.182928 0.92412,-1.728885 0.36479,-0.5459561 0.77934,-1.051083 1.24365,-1.5153803 0.46429,-0.4642973 0.96942,-0.8788443 1.51536,-1.2436409 0.54596,-0.3647962 1.12226,-0.6728325 1.72889,-0.9241085 0.60662,-0.2512756 1.23194,-0.4409633 1.87594,-0.5690623 0.644,-0.1280994 1.29433,-0.1921491 1.95096,-0.1921491 0.6566,0 1.3069,0.06405 1.9509,0.1921491 0.64399,0.128099 1.2693,0.3177867 1.87593,0.5690623 0.60664,0.251276 1.18294,0.5593123 1.72888,0.9241085 0.54597,0.3647966 1.0511,0.7793436 1.51541,1.2436409 0.4643,0.4642973 0.87883,0.9694242 1.24362,1.5153803 0.36479,0.545957 0.67284,1.122252 0.92411,1.728885 0.25128,0.606634 0.44097,1.231951 0.56907,1.875951 0.1281,0.643999 0.19216,1.294307 0.19217,1.950923 z"
       style="fill:none;stroke:#666666;stroke-width:1;stroke-linecap:butt;stroke-linejoin:miter;stroke-miterlimit:10;stroke-dasharray:none;stroke-opacity:1"
       transform="matrix(0.95762166,0,0,0.95762166,0.47881082,0.47881082)"
       clip-path="url(#clipPath6)" />
    <path
       id="path7"
       d="m 270.00009,16 c 0,0.656614 -0.0641,1.306923 -0.19217,1.950922 -0.12808,0.643999 -0.31778,1.269314 -0.56906,1.875948 -0.25131,0.606634 -0.55936,1.182928 -0.92413,1.728886 -0.36478,0.545957 -0.77933,1.051084 -1.24362,1.51538 -0.46433,0.464297 -0.96946,0.878844 -1.51542,1.243639 -0.54592,0.364796 -1.12222,0.672833 -1.72885,0.924109 -0.60663,0.251276 -1.23193,0.440964 -1.87591,0.569063 -0.64401,0.1281 -1.29431,0.19215 -1.95093,0.192152 -0.65665,-2e-6 -1.30695,-0.06405 -1.95096,-0.192152 -0.64401,-0.128099 -1.26932,-0.317787 -1.87594,-0.569063 -0.60665,-0.251276 -1.18296,-0.559313 -1.7289,-0.924109 -0.54596,-0.364795 -1.05109,-0.779342 -1.51537,-1.243639 -0.46431,-0.464296 -0.87886,-0.969423 -1.24365,-1.515378 -0.36479,-0.545958 -0.67284,-1.122254 -0.92412,-1.728888 -0.25126,-0.606634 -0.44095,-1.231949 -0.56904,-1.875948 -0.12809,-0.643999 -0.19213,-1.294308 -0.19213,-1.950922 0,-0.656616 0.064,-1.306924 0.19213,-1.950923 0.12809,-0.644 0.31778,-1.269317 0.56904,-1.875951 0.25128,-0.606633 0.55933,-1.182928 0.92412,-1.728885 0.36479,-0.5459561 0.77934,-1.051083 1.24365,-1.5153803 0.46428,-0.4642973 0.96941,-0.8788443 1.51537,-1.2436409 0.54594,-0.3647962 1.12225,-0.6728325 1.7289,-0.9241085 0.60662,-0.2512756 1.23193,-0.4409633 1.87594,-0.5690623 0.64401,-0.1280994 1.29431,-0.1921491 1.95096,-0.1921491 0.65662,0 1.30692,0.06405 1.9509,0.1921491 0.64398,0.128099 1.26928,0.3177867 1.87591,0.5690623 0.60666,0.251276 1.18293,0.5593123 1.72885,0.9241085 0.54599,0.3647966 1.05112,0.7793436 1.51545,1.2436409 0.46429,0.4642973 0.87884,0.9694242 1.24362,1.5153803 0.36477,0.545957 0.67282,1.122252 0.92413,1.728885 0.25128,0.606634 0.44098,1.231951 0.56906,1.875951 0.12812,0.643999 0.19217,1.294307 0.19217,1.950923 z"
       style="fill:none;stroke:#666666;stroke-width:1;stroke-linecap:butt;stroke-linejoin:miter;stroke-miterlimit:10;stroke-dasharray:none;stroke-opacity:1"
       transform="matrix(0.95762166,0,0,0.95762166,0.47881082,0.47881082)"
       clip-path="url(#clipPath8)" />
    <path
       id="path9"
       d="m 295.00012,16 c 0,0.656614 -0.0641,1.306923 -0.1922,1.950922 -0.12808,0.643999 -0.31778,1.269314 -0.56906,1.875948 -0.25125,0.606634 -0.55929,1.182928 -0.9241,1.728886 -0.36478,0.545957 -0.77933,1.051084 -1.24362,1.51538 -0.4643,0.464297 -0.96942,0.878844 -1.51538,1.243639 -0.54599,0.364796 -1.12229,0.672833 -1.72892,0.924109 -0.60663,0.251276 -1.23193,0.440964 -1.87591,0.569063 -0.64401,0.1281 -1.29431,0.19215 -1.95093,0.192152 -0.65662,-2e-6 -1.30695,-0.06405 -1.95096,-0.192152 -0.64401,-0.128099 -1.26935,-0.317787 -1.87597,-0.569063 -0.60663,-0.251276 -1.18293,-0.559313 -1.72889,-0.924109 -0.54593,-0.364795 -1.05105,-0.779342 -1.51535,-1.243639 -0.46432,-0.464296 -0.87887,-0.969423 -1.24365,-1.515378 -0.36478,-0.545958 -0.67282,-1.122254 -0.92407,-1.728888 -0.25128,-0.606634 -0.44098,-1.231949 -0.56906,-1.875948 -0.12809,-0.643999 -0.19214,-1.294308 -0.19214,-1.950922 0,-0.656616 0.0641,-1.306924 0.19214,-1.950923 0.12808,-0.644 0.31778,-1.269317 0.56906,-1.875951 0.25125,-0.606633 0.55929,-1.182928 0.9241,-1.728885 0.36478,-0.5459561 0.77933,-1.051083 1.24365,-1.5153803 0.46427,-0.4642973 0.96939,-0.8788443 1.51535,-1.2436409 0.54593,-0.3647962 1.12223,-0.6728325 1.72886,-0.9241085 0.60662,-0.2512756 1.23196,-0.4409633 1.87597,-0.5690623 0.64401,-0.1280994 1.29434,-0.1921491 1.95096,-0.1921491 0.65662,0 1.30692,0.06405 1.95093,0.1921491 0.64398,0.128099 1.26928,0.3177867 1.87591,0.5690623 0.60663,0.251276 1.18293,0.5593123 1.72892,0.9241085 0.54596,0.3647966 1.05108,0.7793436 1.51538,1.2436409 0.46429,0.4642973 0.87884,0.9694242 1.24362,1.5153803 0.36481,0.545957 0.67285,1.122252 0.9241,1.728885 0.25128,0.606634 0.44098,1.231951 0.56906,1.875951 0.12815,0.643999 0.1922,1.294307 0.1922,1.950923 z"
       style="fill:none;stroke:#008cff;stroke-width:1;stroke-linecap:butt;stroke-linejoin:miter;stroke-miterlimit:10;stroke-dasharray:none;stroke-opacity:1"
       transform="matrix(0.95762166,0,0,0.95762166,0.47881082,0.47881082)"
       clip-path="url(#clipPath10)" />
    <path
       id="path11"
       d="M 1,41 H 31 V 16 c 0,-2.76 2.240002,-5 5,-5 h 135 c 2.75999,0 5,2.24 5,5 v 25 h 124"
       style="fill:none;stroke:#c4c4c4;stroke-width:1;stroke-linecap:butt;stroke-linejoin:miter;stroke-miterlimit:10;stroke-dasharray:none;stroke-opacity:1"
       transform="matrix(0.95762166,0,0,0.95762166,0.47881082,0.47881082)"
       clip-path="url(#clipPath12)" />
    <path
       id="path13"
       d="M 1,111 H 300"
       style="fill:none;stroke:#c4c4c4;stroke-width:1;stroke-linecap:butt;stroke-linejoin:miter;stroke-miterlimit:10;stroke-dasharray:none;stroke-opacity:1"
       transform="matrix(0.95762166,0,0,0.95762166,0.47881082,0.47881082)"
       clip-path="url(#clipPath14)" />
    <path
       id="path15"
       d="m 101,61 c 0,-2.759998 2.24,-5 5,-5 h 179 c 2.76001,0 5,2.240002 5,5 v 25 c 0,2.760002 -2.23999,5 -5,5 H 106 c -2.76,0 -5,-2.239998 -5,-5 z"
       style="fill:none;stroke:#c4c4c4;stroke-width:1;stroke-linecap:butt;stroke-linejoin:miter;stroke-miterlimit:10;stroke-dasharray:none;stroke-opacity:1"
       transform="matrix(0.95762166,0,0,0.95762166,0.47881082,0.47881082)"
       clip-path="url(#clipPath16)" />
    <path
       id="path17"
       d="m 38,18 h 11 l 4,4 V 36 H 38 Z"
       style="fill:none;stroke:#c4c4c4;stroke-width:1;stroke-linecap:butt;stroke-linejoin:miter;stroke-miterlimit:10;stroke-dasharray:none;stroke-opacity:1"
       transform="matrix(0.95762166,0,0,0.95762166,0.47881082,0.47881082)"
       clip-path="url(#clipPath18)" />
    <path
       id="path19"
       d="m 49,18 v 4 l 4,1"
       style="fill:none;stroke:#c4c4c4;stroke-width:1;stroke-linecap:butt;stroke-linejoin:miter;stroke-miterlimit:10;stroke-dasharray:none;stroke-opacity:1"
       transform="matrix(0.95762166,0,0,0.95762166,0.47881082,0.47881082)"
       clip-path="url(#clipPath20)" />
    <path
       id="path21"
       d="m 108,65 h 11 l 4,4 v 14 h -15 z"
       style="fill:none;stroke:#c4c4c4;stroke-width:1;stroke-linecap:butt;stroke-linejoin:miter;stroke-miterlimit:10;stroke-dasharray:none;stroke-opacity:1"
       transform="matrix(0.95762166,0,0,0.95762166,0.47881082,0.47881082)"
       clip-path="url(#clipPath22)" />
    <path
       id="path23"
       d="m 119,65 v 4 l 4,1"
       style="fill:none;stroke:#c4c4c4;stroke-width:1;stroke-linecap:butt;stroke-linejoin:miter;stroke-miterlimit:10;stroke-dasharray:none;stroke-opacity:1"
       transform="matrix(0.95762166,0,0,0.95762166,0.47881082,0.47881082)"
       clip-path="url(#clipPath24)" />
    <path
       id="path25"
       d="M 13,75 23,65 v 6 h 10 v 8 H 23 v 6 z"
       style="fill:#c4c4c4;fill-opacity:1;fill-rule:nonzero;stroke:#c4c4c4;stroke-width:1;stroke-linecap:butt;stroke-linejoin:miter;stroke-miterlimit:10;stroke-dasharray:none;stroke-opacity:1"
       transform="matrix(0.95762166,0,0,0.95762166,0.47881082,0.47881082)"
       clip-path="url(#clipPath26)" />
    <path
       id="path27"
       d="M 63,75 53,65 v 6 H 43 v 8 h 10 v 6 z"
       style="fill:#c4c4c4;fill-opacity:1;fill-rule:nonzero;stroke:#c4c4c4;stroke-width:1;stroke-linecap:butt;stroke-linejoin:miter;stroke-miterlimit:10;stroke-dasharray:none;stroke-opacity:1"
       transform="matrix(0.95762166,0,0,0.95762166,0.47881082,0.47881082)"
       clip-path="url(#clipPath28)" />
    <path
       id="path29"
       d="m 88.599998,78.300003 c -1.699996,2.839996 -5.379997,3.759995 -8.220001,2.059998 C 77.540001,78.669998 76.610001,75 78.300003,72.150002 79.980003,69.309998 83.650002,68.360001 86.5,70.040001 L 84.900002,71.5 92.800003,73.300003 91,65.800003 89.300003,67.400002 c -3.190002,-2.370003 -7.5,-2.580002 -10.900001,-0.529999 -3.410004,2.049995 -5.239998,5.959999 -4.630005,9.889999 0.61,3.93 3.530006,7.099999 7.390007,8.029999 C 85.029999,85.720001 89.07,84.230003 91.400002,81 Z"
       style="fill:#c4c4c4;fill-opacity:1;fill-rule:nonzero;stroke:#c4c4c4;stroke-width:1;stroke-linecap:butt;stroke-linejoin:miter;stroke-miterlimit:10;stroke-dasharray:none;stroke-opacity:1"
       transform="matrix(0.95762166,0,0,0.95762166,0.47881082,0.47881082)"
       clip-path="url(#clipPath30)" />
    <text
       id="text30"
       xml:space="preserve"
       transform="matrix(0.95763126,0,0,0.95763126,60.330769,30.6442)"
       clip-path="url(#clipPath31)"><tspan
         style="font-variant:normal;font-weight:normal;font-size:17px;font-family:Helvetica;writing-mode:lr-tb;fill:#666666;fill-opacity:1;fill-rule:nonzero;stroke:none"
         x="0 11.338867 20.793457 30.248047 39.702637 44.425781"
         y="0"
         sodipodi:role="line"
         id="tspan30">Page 1</tspan></text>
    <text
       id="text31"
       xml:space="preserve"
       transform="matrix(0.95763126,0,0,0.95763126,127.36496,76.6105)"
       clip-path="url(#clipPath32)"><tspan
         style="font-variant:normal;font-weight:normal;font-size:17px;font-family:Helvetica;writing-mode:lr-tb;fill:#666666;fill-opacity:1;fill-rule:nonzero;stroke:none"
         x="0 3.7768555 13.231445 21.731445 31.186035 34.962891 44.41748 53.87207 62.37207 67.095215 71.818359 81.272949 90.727539 100.18213 109.63672 114.35986 118.13672 127.59131 137.0459 140.82275"
         y="0"
         sodipodi:role="line"
         id="tspan31">localhost:3000/login</tspan></text>
    <text
       id="text32"
       xml:space="preserve"
       transform="matrix(0.95763126,0,0,0.95763126,22.489372,125.44969)"
       clip-path="url(#clipPath33)"><tspan
         style="font-variant:normal;font-weight:normal;font-size:14px;font-family:Helvetica;writing-mode:lr-tb;fill:#000000;fill-opacity:1;fill-rule:nonzero;stroke:none"
         x="0 9.3378906 21 28.786133 31.896484"
         y="0"
         sodipodi:role="line"
         id="tspan32">Email</tspan></text>
    <text
       id="text33"
       xml:space="preserve"
       transform="matrix(0.95763126,0,0,0.95763126,19.406996,154.17863)"
       clip-path="url(#clipPath34)"><tspan
         style="font-variant:normal;font-weight:normal;font-size:14px;font-family:Helvetica;writing-mode:lr-tb;fill:#000000;fill-opacity:1;fill-rule:nonzero;stroke:none"
         x="0 9.3378906 17.124023 24.124023 31.124023 41.234375 49.020508 53.682617"
         y="0"
         sodipodi:role="line"
         id="tspan33">Password</tspan></text>
    <path
       id="path35"
       d="m 91,116 h 100 v 25 H 91 Z"
       style="fill:#ffffff;fill-opacity:1;fill-rule:nonzero;stroke:#000000;stroke-width:1;stroke-linecap:butt;stroke-linejoin:miter;stroke-miterlimit:10;stroke-dasharray:none;stroke-opacity:1"
       transform="matrix(0.95762166,0,0,0.95762166,0.47881082,0.47881082)"
       clip-path="url(#clipPath36)" />
    <path
       id="path37"
       d="m 91,143.5 h 100 v 25 H 91 Z"
       style="fill:#ffffff;fill-opacity:1;fill-rule:nonzero;stroke:#000000;stroke-width:1;stroke-linecap:butt;stroke-linejoin:miter;stroke-miterlimit:10;stroke-dasharray:none;stroke-opacity:1"
       transform="matrix(0.95762166,0,0,0.95762166,0.47881082,0.47881082)"
       clip-path="url(#clipPath38)" />
    <path
       id="path39"
       d="m 21,181 h 70 v 20 H 21 Z"
       style="fill:#ffffff;fill-opacity:1;fill-rule:nonzero;stroke:#000000;stroke-width:1;stroke-linecap:butt;stroke-linejoin:miter;stroke-miterlimit:10;stroke-dasharray:none;stroke-opacity:1"
       transform="matrix(0.95762166,0,0,0.95762166,0.47881082,0.47881082)"
       clip-path="url(#clipPath40)" />
    <text
       id="text40"
       xml:space="preserve"
       transform="matrix(0.95763126,0,0,0.95763126,32.753982,187.69573)"
       clip-path="url(#clipPath41)"><tspan
         style="font-variant:normal;font-weight:normal;font-size:14px;font-family:Helvetica;writing-mode:lr-tb;fill:#000000;fill-opacity:1;fill-rule:nonzero;stroke:none"
         x="0 9.3378906 17.124023 24.910156 36.572266 39.682617"
         y="0"
         sodipodi:role="line"
         id="tspan40">Submit</tspan></text>
    <path
       id="path42"
       d="M 301,166 H 574.64001"
       style="fill:none;stroke:#000000;stroke-width:1;stroke-linecap:butt;stroke-linejoin:miter;stroke-miterlimit:10;stroke-dasharray:none;stroke-opacity:1"
       transform="matrix(0.95762166,0,0,0.95762166,0.47881082,0.47881082)"
       clip-path="url(#clipPath43)" />
    <path
       id="path44"
       d="m 579.89001,166 -7,3.5 1.75,-3.5 -1.75,-3.5 z"
       style="fill:#000000;fill-opacity:1;fill-rule:nonzero;stroke:#000000;stroke-width:1;stroke-linecap:butt;stroke-linejoin:miter;stroke-miterlimit:10;stroke-dasharray:none;stroke-opacity:1"
       transform="matrix(0.95762166,0,0,0.95762166,0.47881082,0.47881082)"
       clip-path="url(#clipPath45)" />
    <path
       id="path46"
       d="m 321,136 h 230 v 30 H 321 Z"
       style="fill:#ffffff;fill-opacity:1;fill-rule:nonzero;stroke:#000000;stroke-width:1;stroke-linecap:butt;stroke-linejoin:miter;stroke-miterlimit:10;stroke-dasharray:none;stroke-opacity:1"
       transform="matrix(0.95762166,0,0,0.95762166,0.47881082,0.47881082)"
       clip-path="url(#clipPath47)" />
    <text
       id="text47"
       xml:space="preserve"
       transform="matrix(0.95763126,0,0,0.95763126,323.06589,149.39048)"
       clip-path="url(#clipPath48)"><tspan
         style="font-variant:normal;font-weight:normal;font-size:13px;font-family:Helvetica;writing-mode:lr-tb;fill:#000000;fill-opacity:1;fill-rule:nonzero;stroke:none"
         x="0 7.2299805 18.059082 25.289062 28.177246 31.06543 38.657227 45.887207 56.716309 63.946289 66.834473 69.722656 78.393555 85.623535 92.853516 99.353516 105.85352 115.2417 122.47168 126.80078 134.03076 141.62256 148.85254 156.08252 162.58252 169.08252 176.3125 185.70068 190.02979"
         y="0"
         sodipodi:role="line"
         id="tspan47">email=email&amp;password=passowrd</tspan></text>
    <path
       id="path49"
       d="m 321,76 h 230 v 30 H 321 Z"
       style="fill:#fff2cc;fill-opacity:1;fill-rule:nonzero;stroke:#d6b656;stroke-width:1;stroke-linecap:butt;stroke-linejoin:miter;stroke-miterlimit:10;stroke-dasharray:none;stroke-opacity:1"
       transform="matrix(0.95762166,0,0,0.95762166,0.47881082,0.47881082)"
       clip-path="url(#clipPath50)" />
    <text
       id="text50"
       xml:space="preserve"
       transform="matrix(0.95763126,0,0,0.95763126,376.46879,91.932601)"
       clip-path="url(#clipPath51)"><tspan
         style="font-variant:normal;font-weight:normal;font-size:13px;font-family:Helvetica;writing-mode:lr-tb;fill:#000000;fill-opacity:1;fill-rule:nonzero;stroke:none"
         x="0 9.3881836 17.329102 25.27002 33.712402 37.324219 46.712402 53.942383 61.172363 68.402344 75.632324 82.132324"
         y="0"
         sodipodi:role="line"
         id="tspan50">HTTP Request</tspan></text>
    <path
       id="path52"
       d="m 321,106 h 230 v 30 H 321 Z"
       style="fill:#ffffff;fill-opacity:1;fill-rule:nonzero;stroke:#000000;stroke-width:1;stroke-linecap:butt;stroke-linejoin:miter;stroke-miterlimit:10;stroke-dasharray:none;stroke-opacity:1"
       transform="matrix(0.95762166,0,0,0.95762166,0.47881082,0.47881082)"
       clip-path="url(#clipPath53)" />
    <text
       id="text53"
       xml:space="preserve"
       transform="matrix(0.95763126,0,0,0.95763126,380.14968,120.66154)"
       clip-path="url(#clipPath54)"><tspan
         style="font-variant:normal;font-weight:normal;font-size:13px;font-family:Helvetica;writing-mode:lr-tb;fill:#000000;fill-opacity:1;fill-rule:nonzero;stroke:none"
         x="0 9.3881836 16.618164 23.848145 31.078125 38.308105 42.637207 49.137207 52.749023 56.36084 59.972656 63.584473 67.196289 70.808105 74.419922"
         y="0"
         sodipodi:role="line"
         id="tspan53">Headers: ......</tspan></text>
    <path
       id="path55"
       d="M 581.01001,76 H 1051.01 V 256 H 581.01001 Z"
       style="fill:#dae8fc;fill-opacity:1;fill-rule:nonzero;stroke:#6c8ebf;stroke-width:1;stroke-linecap:butt;stroke-linejoin:miter;stroke-miterlimit:10;stroke-dasharray:none;stroke-opacity:1"
       transform="matrix(0.95762166,0,0,0.95762166,0.47881082,0.47881082)"
       clip-path="url(#clipPath56)" />
    <text
       id="text56"
       xml:space="preserve"
       transform="matrix(0.95763126,0,0,0.95763126,740.42852,102.46654)"
       clip-path="url(#clipPath57)"><tspan
         style="font-variant:normal;font-weight:700;font-size:22px;font-family:Helvetica;writing-mode:lr-tb;fill:#000000;fill-opacity:1;fill-rule:nonzero;stroke:none"
         x="0 14.673828 26.90918 40.347656 48.90918 61.144531 73.379883"
         y="0"
         sodipodi:role="line"
         id="tspan56">Express</tspan></text>
    <path
       id="path58"
       d="m 591.01001,129 h 140 v 30 h -140 z"
       style="fill:#e1d5e7;fill-opacity:1;fill-rule:nonzero;stroke:#9673a6;stroke-width:1;stroke-linecap:butt;stroke-linejoin:miter;stroke-miterlimit:10;stroke-dasharray:none;stroke-opacity:1"
       transform="matrix(0.95762166,0,0,0.95762166,0.47881082,0.47881082)"
       clip-path="url(#clipPath59)" />
    <text
       id="text59"
       xml:space="preserve"
       transform="matrix(0.95763126,0,0,0.95763126,590.08041,142.68706)"
       clip-path="url(#clipPath60)"><tspan
         style="font-variant:normal;font-weight:normal;font-size:13px;font-family:Helvetica;writing-mode:lr-tb;fill:#000000;fill-opacity:1;fill-rule:nonzero;stroke:none"
         x="0 9.3881836 16.618164 23.848145 31.078125 38.308105 44.808105 48.419922 52.031738 62.143555 69.373535 72.261719 79.491699 85.991699"
         y="0"
         sodipodi:role="line"
         id="tspan59">Request Object</tspan></text>
    <path
       id="path61"
       d="M 731.01001,174 H 751 741 754.64001"
       style="fill:none;stroke:#000000;stroke-width:1;stroke-linecap:butt;stroke-linejoin:miter;stroke-miterlimit:10;stroke-dasharray:none;stroke-opacity:1"
       transform="matrix(0.95762166,0,0,0.95762166,0.47881082,0.47881082)"
       clip-path="url(#clipPath62)" />
    <path
       id="path63"
       d="m 759.89001,174 -7,3.5 1.75,-3.5 -1.75,-3.5 z"
       style="fill:#000000;fill-opacity:1;fill-rule:nonzero;stroke:#000000;stroke-width:1;stroke-linecap:butt;stroke-linejoin:miter;stroke-miterlimit:10;stroke-dasharray:none;stroke-opacity:1"
       transform="matrix(0.95762166,0,0,0.95762166,0.47881082,0.47881082)"
       clip-path="url(#clipPath64)" />
    <path
       id="path65"
       d="m 591.01001,159 h 140 v 30 h -140 z"
       style="fill:#ffffff;fill-opacity:1;fill-rule:nonzero;stroke:#000000;stroke-width:1;stroke-linecap:butt;stroke-linejoin:miter;stroke-miterlimit:10;stroke-dasharray:none;stroke-opacity:1"
       transform="matrix(0.95762166,0,0,0.95762166,0.47881082,0.47881082)"
       clip-path="url(#clipPath66)" />
    <text
       id="text66"
       xml:space="preserve"
       transform="matrix(0.95763126,0,0,0.95763126,603.57703,171.41599)"
       clip-path="url(#clipPath67)"><tspan
         style="font-variant:normal;font-weight:normal;font-size:13px;font-family:Helvetica;writing-mode:lr-tb;fill:#000000;fill-opacity:1;fill-rule:nonzero;stroke:none"
         x="0 2.8881836 10.118164 13.72998 17.341797 24.571777 31.801758 42.630859 49.86084 57.09082"
         y="0"
         sodipodi:role="line"
         id="tspan66">ip: number</tspan></text>
    <path
       id="path68"
       d="m 591.01001,189 h 140 v 30 h -140 z"
       style="fill:#ffffff;fill-opacity:1;fill-rule:nonzero;stroke:#000000;stroke-width:1;stroke-linecap:butt;stroke-linejoin:miter;stroke-miterlimit:10;stroke-dasharray:none;stroke-opacity:1"
       transform="matrix(0.95762166,0,0,0.95762166,0.47881082,0.47881082)"
       clip-path="url(#clipPath69)" />
    <text
       id="text69"
       xml:space="preserve"
       transform="matrix(0.95763126,0,0,0.95763126,586.96811,200.14493)"
       clip-path="url(#clipPath70)"><tspan
         style="font-variant:normal;font-weight:normal;font-size:13px;font-family:Helvetica;writing-mode:lr-tb;fill:#000000;fill-opacity:1;fill-rule:nonzero;stroke:none"
         x="0 7.2299805 14.459961 20.959961 24.571777 31.801758 39.031738 49.86084 57.09082 60.702637 64.314453 70.814453 74.42627 78.755371 81.643555 88.873535"
         y="0"
         sodipodi:role="line"
         id="tspan69">hostname: string</tspan></text>
    <path
       id="path71"
       d="m 761.01001,131 h 110 v 86 h -110 z"
       style="fill:#ffe6cc;fill-opacity:1;fill-rule:nonzero;stroke:#d79b00;stroke-width:1;stroke-linecap:butt;stroke-linejoin:miter;stroke-miterlimit:10;stroke-dasharray:none;stroke-opacity:1"
       transform="matrix(0.95762166,0,0,0.95762166,0.47881082,0.47881082)"
       clip-path="url(#clipPath72)" />
    <text
       id="text72"
       xml:space="preserve"
       transform="matrix(0.95763126,0,0,0.95763126,748.89757,163.75494)"
       clip-path="url(#clipPath73)"><tspan
         style="font-variant:normal;font-weight:normal;font-size:13px;font-family:Helvetica;writing-mode:lr-tb;fill:#000000;fill-opacity:1;fill-rule:nonzero;stroke:none"
         x="0 8.6708984 15.900879 23.130859 29.630859 38.301758 45.531738 49.86084 56.36084 63.59082"
         y="0"
         sodipodi:role="line"
         id="tspan72">BodyParser</tspan></text>
    <text
       id="text73"
       xml:space="preserve"
       transform="matrix(0.95763126,0,0,0.95763126,749.58587,179.07704)"
       clip-path="url(#clipPath74)"><tspan
         style="font-variant:normal;font-weight:normal;font-size:13px;font-family:Helvetica;writing-mode:lr-tb;fill:#000000;fill-opacity:1;fill-rule:nonzero;stroke:none"
         x="0 10.829102 13.717285 20.947266 28.177246 31.06543 38.29541 47.683594 54.913574 59.242676"
         y="0"
         sodipodi:role="line"
         id="tspan73">Middleware</tspan></text>
    <path
       id="path75"
       d="m 871.01001,174 h 23.63"
       style="fill:none;stroke:#000000;stroke-width:1;stroke-linecap:butt;stroke-linejoin:miter;stroke-miterlimit:10;stroke-dasharray:none;stroke-opacity:1"
       transform="matrix(0.95762166,0,0,0.95762166,0.47881082,0.47881082)"
       clip-path="url(#clipPath76)" />
    <path
       id="path77"
       d="m 899.89001,174 -7,3.5 1.75,-3.5 -1.75,-3.5 z"
       style="fill:#000000;fill-opacity:1;fill-rule:nonzero;stroke:#000000;stroke-width:1;stroke-linecap:butt;stroke-linejoin:miter;stroke-miterlimit:10;stroke-dasharray:none;stroke-opacity:1"
       transform="matrix(0.95762166,0,0,0.95762166,0.47881082,0.47881082)"
       clip-path="url(#clipPath78)" />
    <path
       id="path79"
       d="M 901.01001,129 H 1041.01 v 30 H 901.01001 Z"
       style="fill:#e1d5e7;fill-opacity:1;fill-rule:nonzero;stroke:#9673a6;stroke-width:1;stroke-linecap:butt;stroke-linejoin:miter;stroke-miterlimit:10;stroke-dasharray:none;stroke-opacity:1"
       transform="matrix(0.95762166,0,0,0.95762166,0.47881082,0.47881082)"
       clip-path="url(#clipPath80)" />
    <text
       id="text80"
       xml:space="preserve"
       transform="matrix(0.95763126,0,0,0.95763126,886.9461,142.68706)"
       clip-path="url(#clipPath81)"><tspan
         style="font-variant:normal;font-weight:normal;font-size:13px;font-family:Helvetica;writing-mode:lr-tb;fill:#000000;fill-opacity:1;fill-rule:nonzero;stroke:none"
         x="0 9.3881836 16.618164 23.848145 31.078125 38.308105 44.808105 48.419922 52.031738 62.143555 69.373535 72.261719 79.491699 85.991699"
         y="0"
         sodipodi:role="line"
         id="tspan80">Request Object</tspan></text>
    <path
       id="path82"
       d="M 901.01001,159 H 1041.01 v 30 H 901.01001 Z"
       style="fill:#ffffff;fill-opacity:1;fill-rule:nonzero;stroke:#000000;stroke-width:1;stroke-linecap:butt;stroke-linejoin:miter;stroke-miterlimit:10;stroke-dasharray:none;stroke-opacity:1"
       transform="matrix(0.95762166,0,0,0.95762166,0.47881082,0.47881082)"
       clip-path="url(#clipPath83)" />
    <text
       id="text83"
       xml:space="preserve"
       transform="matrix(0.95763126,0,0,0.95763126,900.44271,171.41599)"
       clip-path="url(#clipPath84)"><tspan
         style="font-variant:normal;font-weight:normal;font-size:13px;font-family:Helvetica;writing-mode:lr-tb;fill:#000000;fill-opacity:1;fill-rule:nonzero;stroke:none"
         x="0 2.8881836 10.118164 13.72998 17.341797 24.571777 31.801758 42.630859 49.86084 57.09082"
         y="0"
         sodipodi:role="line"
         id="tspan83">ip: number</tspan></text>
    <path
       id="path85"
       d="M 901.01001,189 H 1041.01 v 30 H 901.01001 Z"
       style="fill:#ffffff;fill-opacity:1;fill-rule:nonzero;stroke:#000000;stroke-width:1;stroke-linecap:butt;stroke-linejoin:miter;stroke-miterlimit:10;stroke-dasharray:none;stroke-opacity:1"
       transform="matrix(0.95762166,0,0,0.95762166,0.47881082,0.47881082)"
       clip-path="url(#clipPath86)" />
    <text
       id="text86"
       xml:space="preserve"
       transform="matrix(0.95763126,0,0,0.95763126,883.8338,200.14493)"
       clip-path="url(#clipPath87)"><tspan
         style="font-variant:normal;font-weight:normal;font-size:13px;font-family:Helvetica;writing-mode:lr-tb;fill:#000000;fill-opacity:1;fill-rule:nonzero;stroke:none"
         x="0 7.2299805 14.459961 20.959961 24.571777 31.801758 39.031738 49.86084 57.09082 60.702637 64.314453 70.814453 74.42627 78.755371 81.643555 88.873535"
         y="0"
         sodipodi:role="line"
         id="tspan86">hostname: string</tspan></text>
    <path
       id="path88"
       d="M 901.01001,219 H 1041.01 v 30 H 901.01001 Z"
       style="fill:#ffffff;fill-opacity:1;fill-rule:nonzero;stroke:#000000;stroke-width:1;stroke-linecap:butt;stroke-linejoin:miter;stroke-miterlimit:10;stroke-dasharray:none;stroke-opacity:1"
       transform="matrix(0.95762166,0,0,0.95762166,0.47881082,0.47881082)"
       clip-path="url(#clipPath89)" />
    <text
       id="text89"
       xml:space="preserve"
       transform="matrix(0.95763126,0,0,0.95763126,871.77363,221.21282)"
       clip-path="url(#clipPath90)"><tspan
         style="font-variant:normal;font-weight:normal;font-size:13px;font-family:Helvetica;writing-mode:lr-tb;fill:#000000;fill-opacity:1;fill-rule:nonzero;stroke:none"
         x="0 7.2299805 14.459961 21.689941 28.189941 31.801758 35.413574 39.755371 43.367188 50.597168 61.42627 68.65625 71.544434 74.432617 78.044434 81.65625 84.138184 91.368164 102.19727 109.42725 112.31543 115.20361 117.68555"
         y="0"
         sodipodi:role="line"
         id="tspan89">body: { email: 'email',</tspan></text>
    <text
       id="text90"
       xml:space="preserve"
       transform="matrix(0.95763126,0,0,0.95763126,866.92562,236.53492)"
       clip-path="url(#clipPath91)"><tspan
         style="font-variant:normal;font-weight:normal;font-size:13px;font-family:Helvetica;writing-mode:lr-tb;fill:#000000;fill-opacity:1;fill-rule:nonzero;stroke:none"
         x="0 7.2299805 14.459961 20.959961 27.459961 36.848145 44.078125 48.407227 55.637207 59.249023 62.86084 65.342773 72.572754 79.802734 86.302734 92.802734 102.19092 109.4209 113.75 120.97998 123.46191 127.07373"
         y="0"
         sodipodi:role="line"
         id="tspan90">password: 'password' }</tspan></text>
  </g>
</svg>
