<?xml version="1.0" encoding="UTF-8" standalone="no"?>
<!-- Created with Inkscape (http://www.inkscape.org/) -->

<svg
   version="1.1"
   id="svg1"
   width="366.72"
   height="291.84"
   viewBox="0 0 366.72 291.84"
   sodipodi:docname="ts-5.pdf"
   xmlns:inkscape="http://www.inkscape.org/namespaces/inkscape"
   xmlns:sodipodi="http://sodipodi.sourceforge.net/DTD/sodipodi-0.dtd"
   xmlns="http://www.w3.org/2000/svg"
   xmlns:svg="http://www.w3.org/2000/svg">
  <defs
     id="defs1">
    <clipPath
       clipPathUnits="userSpaceOnUse"
       id="clipPath2">
      <path
         d="M 0,0 H 1145.8333 V 910.10193 H 0 Z"
         transform="scale(0.33512729)"
         clip-rule="evenodd"
         id="path2" />
    </clipPath>
    <clipPath
       clipPathUnits="userSpaceOnUse"
       id="clipPath4">
      <path
         d="M 0,0 H 1145.8333 V 904.13409 H 0 Z"
         transform="matrix(0.33512729,0,0,0.33512729,-0.5,-0.5)"
         clip-rule="evenodd"
         id="path4" />
    </clipPath>
    <clipPath
       clipPathUnits="userSpaceOnUse"
       id="clipPath6">
      <path
         d="M 0,0 H 1145.8333 V 904.13409 H 0 Z"
         transform="matrix(0.33512729,0,0,0.33512729,-0.5,-0.5)"
         clip-rule="evenodd"
         id="path6" />
    </clipPath>
    <clipPath
       clipPathUnits="userSpaceOnUse"
       id="clipPath8">
      <path
         d="M 0,0 H 1145.8333 V 904.13409 H 0 Z"
         transform="matrix(0.33512729,0,0,0.33512729,-0.5,-0.5)"
         clip-rule="evenodd"
         id="path8" />
    </clipPath>
    <clipPath
       clipPathUnits="userSpaceOnUse"
       id="clipPath9">
      <path
         d="M 0,0 H 1145.8333 V 904.13409 H 0 Z"
         transform="matrix(0.33512395,0,0,0.33512395,-150.09375,-116)"
         clip-rule="evenodd"
         id="path9" />
    </clipPath>
    <clipPath
       clipPathUnits="userSpaceOnUse"
       id="clipPath11">
      <path
         d="M 0,0 H 1145.8333 V 904.13409 H 0 Z"
         transform="matrix(0.33512729,0,0,0.33512729,-0.5,-0.5)"
         clip-rule="evenodd"
         id="path11" />
    </clipPath>
    <clipPath
       clipPathUnits="userSpaceOnUse"
       id="clipPath13">
      <path
         d="M 0,0 H 1145.8333 V 904.13409 H 0 Z"
         transform="matrix(0.33512729,0,0,0.33512729,-0.5,-0.5)"
         clip-rule="evenodd"
         id="path13" />
    </clipPath>
    <clipPath
       clipPathUnits="userSpaceOnUse"
       id="clipPath15">
      <path
         d="M 0,0 H 1145.8333 V 904.13409 H 0 Z"
         transform="matrix(0.33512729,0,0,0.33512729,-0.5,-0.5)"
         clip-rule="evenodd"
         id="path15" />
    </clipPath>
    <clipPath
       clipPathUnits="userSpaceOnUse"
       id="clipPath16">
      <path
         d="M 0,0 H 1145.8333 V 904.13409 H 0 Z"
         transform="matrix(0.33512395,0,0,0.33512395,-31.203125,-26)"
         clip-rule="evenodd"
         id="path16" />
    </clipPath>
    <clipPath
       clipPathUnits="userSpaceOnUse"
       id="clipPath18">
      <path
         d="M 0,0 H 1145.8333 V 904.13409 H 0 Z"
         transform="matrix(0.33512729,0,0,0.33512729,-0.5,-0.5)"
         clip-rule="evenodd"
         id="path18" />
    </clipPath>
    <clipPath
       clipPathUnits="userSpaceOnUse"
       id="clipPath19">
      <path
         d="M 0,0 H 1145.8333 V 904.13409 H 0 Z"
         transform="matrix(0.33512395,0,0,0.33512395,-154.96875,-26)"
         clip-rule="evenodd"
         id="path19" />
    </clipPath>
    <clipPath
       clipPathUnits="userSpaceOnUse"
       id="clipPath21">
      <path
         d="M 0,0 H 1145.8333 V 904.13409 H 0 Z"
         transform="matrix(0.33512729,0,0,0.33512729,-0.5,-0.5)"
         clip-rule="evenodd"
         id="path21" />
    </clipPath>
    <clipPath
       clipPathUnits="userSpaceOnUse"
       id="clipPath22">
      <path
         d="M 0,0 H 1145.8333 V 904.13409 H 0 Z"
         transform="matrix(0.33512395,0,0,0.33512395,-273.85938,-26)"
         clip-rule="evenodd"
         id="path22" />
    </clipPath>
    <clipPath
       clipPathUnits="userSpaceOnUse"
       id="clipPath24">
      <path
         d="M 0,0 H 1145.8333 V 904.13409 H 0 Z"
         transform="matrix(0.33512729,0,0,0.33512729,-0.5,-0.5)"
         clip-rule="evenodd"
         id="path24" />
    </clipPath>
    <clipPath
       clipPathUnits="userSpaceOnUse"
       id="clipPath26">
      <path
         d="M 0,0 H 1145.8333 V 904.13409 H 0 Z"
         transform="matrix(0.33512729,0,0,0.33512729,-0.5,-0.5)"
         clip-rule="evenodd"
         id="path26" />
    </clipPath>
    <clipPath
       clipPathUnits="userSpaceOnUse"
       id="clipPath28">
      <path
         d="M 0,0 H 1145.8333 V 904.13409 H 0 Z"
         transform="matrix(0.33512729,0,0,0.33512729,-0.5,-0.5)"
         clip-rule="evenodd"
         id="path28" />
    </clipPath>
    <clipPath
       clipPathUnits="userSpaceOnUse"
       id="clipPath30">
      <path
         d="M 0,0 H 1145.8333 V 904.13409 H 0 Z"
         transform="matrix(0.33512729,0,0,0.33512729,-0.5,-0.5)"
         clip-rule="evenodd"
         id="path30" />
    </clipPath>
    <clipPath
       clipPathUnits="userSpaceOnUse"
       id="clipPath31">
      <path
         d="M 0,0 H 1145.8333 V 904.13409 H 0 Z"
         transform="matrix(0.33512395,0,0,0.33512395,-108.73437,-184)"
         clip-rule="evenodd"
         id="path31" />
    </clipPath>
    <clipPath
       clipPathUnits="userSpaceOnUse"
       id="clipPath32">
      <path
         d="M 0,0 H 1145.8333 V 904.13409 H 0 Z"
         transform="matrix(0.33512395,0,0,0.33512395,-108.34375,-203)"
         clip-rule="evenodd"
         id="path32" />
    </clipPath>
    <clipPath
       clipPathUnits="userSpaceOnUse"
       id="clipPath33">
      <path
         d="M 0,0 H 1145.8333 V 904.13409 H 0 Z"
         transform="matrix(0.33512395,0,0,0.33512395,-136.34375,-222)"
         clip-rule="evenodd"
         id="path33" />
    </clipPath>
    <clipPath
       clipPathUnits="userSpaceOnUse"
       id="clipPath35">
      <path
         d="M 0,0 H 1145.8333 V 904.13409 H 0 Z"
         transform="matrix(0.33512729,0,0,0.33512729,-0.5,-0.5)"
         clip-rule="evenodd"
         id="path35" />
    </clipPath>
    <clipPath
       clipPathUnits="userSpaceOnUse"
       id="clipPath37">
      <path
         d="M 0,0 H 1145.8333 V 904.13409 H 0 Z"
         transform="matrix(0.33512729,0,0,0.33512729,-0.5,-0.5)"
         clip-rule="evenodd"
         id="path37" />
    </clipPath>
    <clipPath
       clipPathUnits="userSpaceOnUse"
       id="clipPath38">
      <path
         d="M 0,0 H 1145.8333 V 904.13409 H 0 Z"
         transform="matrix(0.33512395,0,0,0.33512395,-99.453125,-276)"
         clip-rule="evenodd"
         id="path38" />
    </clipPath>
    <clipPath
       clipPathUnits="userSpaceOnUse"
       id="clipPath39">
      <path
         d="M 0,0 H 1145.8333 V 904.13409 H 0 Z"
         transform="matrix(0.33512395,0,0,0.33512395,-158.53125,-296)"
         clip-rule="evenodd"
         id="path39" />
    </clipPath>
  </defs>
  <sodipodi:namedview
     id="namedview1"
     pagecolor="#ffffff"
     bordercolor="#000000"
     borderopacity="0.25"
     inkscape:showpageshadow="2"
     inkscape:pageopacity="0.0"
     inkscape:pagecheckerboard="0"
     inkscape:deskcolor="#d1d1d1">
    <inkscape:page
       x="0"
       y="0"
       inkscape:label="1"
       id="page1"
       width="366.72"
       height="291.84"
       margin="0"
       bleed="0" />
  </sodipodi:namedview>
  <g
     id="g1"
     inkscape:groupmode="layer"
     inkscape:label="1">
    <path
       id="path1"
       d="M 0,0 H 384 V 305 H 0 Z"
       style="fill:#ffffff;fill-opacity:1;fill-rule:nonzero;stroke:none"
       transform="scale(0.95486102)"
       clip-path="url(#clipPath2)" />
    <path
       id="path3"
       d="m 191,141 v 23.63"
       style="fill:none;stroke:#000000;stroke-width:1;stroke-linecap:butt;stroke-linejoin:miter;stroke-miterlimit:10;stroke-dasharray:none;stroke-opacity:1"
       transform="matrix(0.95486102,0,0,0.95486102,0.47743051,0.47743051)"
       clip-path="url(#clipPath4)" />
    <path
       id="path5"
       d="m 191,169.88 -3.5,-7 3.5,1.75 3.5,-1.75 z"
       style="fill:#000000;fill-opacity:1;fill-rule:nonzero;stroke:#000000;stroke-width:1;stroke-linecap:butt;stroke-linejoin:miter;stroke-miterlimit:10;stroke-dasharray:none;stroke-opacity:1"
       transform="matrix(0.95486102,0,0,0.95486102,0.47743051,0.47743051)"
       clip-path="url(#clipPath6)" />
    <path
       id="path7"
       d="m 1,81 h 380 v 60 H 1 Z"
       style="fill:#dae8fc;fill-opacity:1;fill-rule:nonzero;stroke:#6c8ebf;stroke-width:1;stroke-linecap:butt;stroke-linejoin:miter;stroke-miterlimit:10;stroke-dasharray:none;stroke-opacity:1"
       transform="matrix(0.95486102,0,0,0.95486102,0.47743051,0.47743051)"
       clip-path="url(#clipPath8)" />
    <text
       id="text8"
       xml:space="preserve"
       transform="matrix(0.95487055,0,0,0.95487055,143.3201,110.76498)"
       clip-path="url(#clipPath9)"><tspan
         style="font-variant:normal;font-weight:normal;font-size:16px;font-family:Helvetica;writing-mode:lr-tb;fill:#000000;fill-opacity:1;fill-rule:nonzero;stroke:none"
         x="0 13.328125 16.882812 25.78125 34.679688 38.234375 47.132812 58.6875 67.585938 72.914062"
         y="0"
         sodipodi:role="line"
         id="tspan8">Middleware</tspan></text>
    <path
       id="path10"
       d="M 61,41 V 61 74.629997"
       style="fill:none;stroke:#000000;stroke-width:1;stroke-linecap:butt;stroke-linejoin:miter;stroke-miterlimit:10;stroke-dasharray:none;stroke-opacity:1"
       transform="matrix(0.95486102,0,0,0.95486102,0.47743051,0.47743051)"
       clip-path="url(#clipPath11)" />
    <path
       id="path12"
       d="m 61,79.879997 -3.5,-7 3.5,1.75 3.5,-1.75 z"
       style="fill:#000000;fill-opacity:1;fill-rule:nonzero;stroke:#000000;stroke-width:1;stroke-linecap:butt;stroke-linejoin:miter;stroke-miterlimit:10;stroke-dasharray:none;stroke-opacity:1"
       transform="matrix(0.95486102,0,0,0.95486102,0.47743051,0.47743051)"
       clip-path="url(#clipPath13)" />
    <path
       id="path14"
       d="M 1,1 H 121 V 41 H 1 Z"
       style="fill:#ffffff;fill-opacity:1;fill-rule:nonzero;stroke:#000000;stroke-width:1;stroke-linecap:butt;stroke-linejoin:miter;stroke-miterlimit:10;stroke-dasharray:none;stroke-opacity:1"
       transform="matrix(0.95486102,0,0,0.95486102,0.47743051,0.47743051)"
       clip-path="url(#clipPath15)" />
    <text
       id="text15"
       xml:space="preserve"
       transform="matrix(0.95487055,0,0,0.95487055,29.794945,24.826634)"
       clip-path="url(#clipPath16)"><tspan
         style="font-variant:normal;font-weight:normal;font-size:16px;font-family:Helvetica;writing-mode:lr-tb;fill:#000000;fill-opacity:1;fill-rule:nonzero;stroke:none"
         x="0 11.554688 20.453125 29.351562 38.25 47.148438 55.148438"
         y="0"
         sodipodi:role="line"
         id="tspan15">Request</tspan></text>
    <path
       id="path17"
       d="M 131,1 H 251 V 41 H 131 Z"
       style="fill:#ffffff;fill-opacity:1;fill-rule:nonzero;stroke:#000000;stroke-width:1;stroke-linecap:butt;stroke-linejoin:miter;stroke-miterlimit:10;stroke-dasharray:none;stroke-opacity:1"
       transform="matrix(0.95486102,0,0,0.95486102,0.47743051,0.47743051)"
       clip-path="url(#clipPath18)" />
    <text
       id="text18"
       xml:space="preserve"
       transform="matrix(0.95487055,0,0,0.95487055,147.9751,24.826634)"
       clip-path="url(#clipPath19)"><tspan
         style="font-variant:normal;font-weight:normal;font-size:16px;font-family:Helvetica;writing-mode:lr-tb;fill:#000000;fill-opacity:1;fill-rule:nonzero;stroke:none"
         x="0 11.554688 20.453125 28.453125 37.351562 46.25 55.148438 63.148438"
         y="0"
         sodipodi:role="line"
         id="tspan18">Response</tspan></text>
    <path
       id="path20"
       d="M 261,1 H 381 V 41 H 261 Z"
       style="fill:#ffffff;fill-opacity:1;fill-rule:nonzero;stroke:#000000;stroke-width:1;stroke-linecap:butt;stroke-linejoin:miter;stroke-miterlimit:10;stroke-dasharray:none;stroke-opacity:1"
       transform="matrix(0.95486102,0,0,0.95486102,0.47743051,0.47743051)"
       clip-path="url(#clipPath21)" />
    <text
       id="text21"
       xml:space="preserve"
       transform="matrix(0.95487055,0,0,0.95487055,261.50026,24.826634)"
       clip-path="url(#clipPath22)"><tspan
         style="font-variant:normal;font-weight:normal;font-size:16px;font-family:Helvetica;writing-mode:lr-tb;fill:#000000;fill-opacity:1;fill-rule:nonzero;stroke:none"
         x="0 11.554688 20.453125 28.453125 32.898438 42.671875 51.570312 60.46875 68.46875 72.914062 76.46875 85.367188"
         y="0"
         sodipodi:role="line"
         id="tspan21">NextFunction</tspan></text>
    <path
       id="path23"
       d="m 190.5,41 0.5,21 -0.33,12.629997"
       style="fill:none;stroke:#000000;stroke-width:1;stroke-linecap:butt;stroke-linejoin:miter;stroke-miterlimit:10;stroke-dasharray:none;stroke-opacity:1"
       transform="matrix(0.95486102,0,0,0.95486102,0.47743051,0.47743051)"
       clip-path="url(#clipPath24)" />
    <path
       id="path25"
       d="m 190.53,79.879997 -3.31,-7.089996 3.45,1.839996 3.54001,-1.649994 z"
       style="fill:#000000;fill-opacity:1;fill-rule:nonzero;stroke:#000000;stroke-width:1;stroke-linecap:butt;stroke-linejoin:miter;stroke-miterlimit:10;stroke-dasharray:none;stroke-opacity:1"
       transform="matrix(0.95486102,0,0,0.95486102,0.47743051,0.47743051)"
       clip-path="url(#clipPath26)" />
    <path
       id="path27"
       d="m 320.5,41 0.5,21 -0.32999,12.629997"
       style="fill:none;stroke:#000000;stroke-width:1;stroke-linecap:butt;stroke-linejoin:miter;stroke-miterlimit:10;stroke-dasharray:none;stroke-opacity:1"
       transform="matrix(0.95486102,0,0,0.95486102,0.47743051,0.47743051)"
       clip-path="url(#clipPath28)" />
    <path
       id="path29"
       d="m 320.53,79.879997 -3.31,-7.089996 3.45001,1.839996 3.53998,-1.649994 z"
       style="fill:#000000;fill-opacity:1;fill-rule:nonzero;stroke:#000000;stroke-width:1;stroke-linecap:butt;stroke-linejoin:miter;stroke-miterlimit:10;stroke-dasharray:none;stroke-opacity:1"
       transform="matrix(0.95486102,0,0,0.95486102,0.47743051,0.47743051)"
       clip-path="url(#clipPath30)" />
    <text
       id="text30"
       xml:space="preserve"
       transform="matrix(0.95487055,0,0,0.95487055,103.82725,175.69618)"
       clip-path="url(#clipPath31)"><tspan
         style="font-variant:normal;font-weight:normal;font-size:16px;font-family:Helvetica;writing-mode:lr-tb;fill:#000000;fill-opacity:1;fill-rule:nonzero;stroke:none"
         x="0 13.328125 16.882812 25.78125 34.679688 38.234375 47.132812 58.6875 67.585938 72.914062 81.8125 86.257812 95.15625 104.05469 112.95312 120.95312 125.39844 133.39844 142.29688 155.625"
         y="0"
         sodipodi:role="line"
         id="tspan30">Middleware does some</tspan></text>
    <text
       id="text31"
       xml:space="preserve"
       transform="matrix(0.95487055,0,0,0.95487055,103.45426,193.83872)"
       clip-path="url(#clipPath32)"><tspan
         style="font-variant:normal;font-weight:normal;font-size:16px;font-family:Helvetica;writing-mode:lr-tb;fill:#000000;fill-opacity:1;fill-rule:nonzero;stroke:none"
         x="0 8.8984375 14.226562 23.125 31.125 40.023438 48.023438 56.023438 59.578125 68.476562 77.375 81.820312 90.71875 95.164062 99.609375 102.66406 114.21875 123.11719 132.01562 140.91406 149.8125 157.8125 162.25781"
         y="0"
         sodipodi:role="line"
         id="tspan31">processing of 'Request'</tspan></text>
    <text
       id="text32"
       xml:space="preserve"
       transform="matrix(0.95487055,0,0,0.95487055,130.19063,211.98126)"
       clip-path="url(#clipPath33)"><tspan
         style="font-variant:normal;font-weight:normal;font-size:16px;font-family:Helvetica;writing-mode:lr-tb;fill:#000000;fill-opacity:1;fill-rule:nonzero;stroke:none"
         x="0 8.8984375 17.796875 26.695312 31.140625 34.195312 45.75 54.648438 62.648438 71.546875 80.445312 89.34375 97.34375 106.24219"
         y="0"
         sodipodi:role="line"
         id="tspan32">and 'Response'</tspan></text>
    <path
       id="path34"
       d="m 190.5,231 v 23.63"
       style="fill:none;stroke:#000000;stroke-width:1;stroke-linecap:butt;stroke-linejoin:miter;stroke-miterlimit:10;stroke-dasharray:none;stroke-opacity:1"
       transform="matrix(0.95486102,0,0,0.95486102,0.47743051,0.47743051)"
       clip-path="url(#clipPath35)" />
    <path
       id="path36"
       d="m 190.5,259.88 -3.5,-7 3.5,1.75 3.5,-1.75 z"
       style="fill:#000000;fill-opacity:1;fill-rule:nonzero;stroke:#000000;stroke-width:1;stroke-linecap:butt;stroke-linejoin:miter;stroke-miterlimit:10;stroke-dasharray:none;stroke-opacity:1"
       transform="matrix(0.95486102,0,0,0.95486102,0.47743051,0.47743051)"
       clip-path="url(#clipPath37)" />
    <text
       id="text37"
       xml:space="preserve"
       transform="matrix(0.95487055,0,0,0.95487055,94.96486,263.54427)"
       clip-path="url(#clipPath38)"><tspan
         style="font-variant:normal;font-weight:normal;font-size:16px;font-family:Helvetica;writing-mode:lr-tb;fill:#000000;fill-opacity:1;fill-rule:nonzero;stroke:none"
         x="0 11.554688 20.453125 24.007812 27.5625 35.5625 40.007812 43.0625 54.617188 63.515625 71.515625 75.960938 85.734375 94.632812 103.53125 111.53125 115.97656 119.53125 128.42969 137.32812 140.38281 144.82812 156.38281 165.28125 174.17969"
         y="0"
         sodipodi:role="line"
         id="tspan37">Calls 'NextFunction' when</tspan></text>
    <text
       id="text38"
       xml:space="preserve"
       transform="matrix(0.95487055,0,0,0.95487055,151.37682,282.64168)"
       clip-path="url(#clipPath39)"><tspan
         style="font-variant:normal;font-weight:normal;font-size:16px;font-family:Helvetica;writing-mode:lr-tb;fill:#000000;fill-opacity:1;fill-rule:nonzero;stroke:none"
         x="0 8 16.898438 30.226562 39.125 42.679688 51.578125 56.023438"
         y="0"
         sodipodi:role="line"
         id="tspan38">complete</tspan></text>
  </g>
</svg>
