<?xml version="1.0" encoding="UTF-8" standalone="no"?>
<!-- Created with Inkscape (http://www.inkscape.org/) -->

<svg
   version="1.1"
   id="svg1"
   width="539.84003"
   height="262.72"
   viewBox="0 0 539.84003 262.72"
   sodipodi:docname="ts-8.pdf"
   xmlns:inkscape="http://www.inkscape.org/namespaces/inkscape"
   xmlns:sodipodi="http://sodipodi.sourceforge.net/DTD/sodipodi-0.dtd"
   xmlns="http://www.w3.org/2000/svg"
   xmlns:svg="http://www.w3.org/2000/svg">
  <defs
     id="defs1">
    <clipPath
       clipPathUnits="userSpaceOnUse"
       id="clipPath2">
      <path
         d="M 0,0 H 1687.4999 V 819.81378 H 0 Z"
         transform="scale(0.33422224)"
         clip-rule="evenodd"
         id="path2" />
    </clipPath>
    <clipPath
       clipPathUnits="userSpaceOnUse"
       id="clipPath4">
      <path
         d="M 0,0 H 1687.4999 V 813.82971 H 0 Z"
         transform="matrix(0.33422224,0,0,0.33422224,-0.49999999,-0.49999999)"
         clip-rule="evenodd"
         id="path4" />
    </clipPath>
    <clipPath
       clipPathUnits="userSpaceOnUse"
       id="clipPath5">
      <path
         d="M 0,0 H 1687.4999 V 813.82971 H 0 Z"
         transform="matrix(0.33421889,0,0,0.33421889,-104.5625,-150)"
         clip-rule="evenodd"
         id="path5" />
    </clipPath>
    <clipPath
       clipPathUnits="userSpaceOnUse"
       id="clipPath6">
      <path
         d="M 0,0 H 1687.4999 V 813.82971 H 0 Z"
         transform="matrix(0.33421889,0,0,0.33421889,-169.01563,-170)"
         clip-rule="evenodd"
         id="path6" />
    </clipPath>
    <clipPath
       clipPathUnits="userSpaceOnUse"
       id="clipPath8">
      <path
         d="M 0,0 H 1687.4999 V 813.82971 H 0 Z"
         transform="matrix(0.33422224,0,0,0.33422224,-0.49999999,-0.49999999)"
         clip-rule="evenodd"
         id="path8" />
    </clipPath>
    <clipPath
       clipPathUnits="userSpaceOnUse"
       id="clipPath9">
      <path
         d="M 0,0 H 1687.4999 V 813.82971 H 0 Z"
         transform="matrix(0.33421889,0,0,0.33421889,-123.90625,-110)"
         clip-rule="evenodd"
         id="path9" />
    </clipPath>
    <clipPath
       clipPathUnits="userSpaceOnUse"
       id="clipPath10">
      <path
         d="M 0,0 H 1687.4999 V 813.82971 H 0 Z"
         transform="matrix(0.33421889,0,0,0.33421889,-258.03125,-15)"
         clip-rule="evenodd"
         id="path10" />
    </clipPath>
    <clipPath
       clipPathUnits="userSpaceOnUse"
       id="clipPath12">
      <path
         d="M 0,0 H 1687.4999 V 813.82971 H 0 Z"
         transform="matrix(0.33422224,0,0,0.33422224,-0.49999999,-0.49999999)"
         clip-rule="evenodd"
         id="path12" />
    </clipPath>
    <clipPath
       clipPathUnits="userSpaceOnUse"
       id="clipPath13">
      <path
         d="M 0,0 H 1687.4999 V 813.82971 H 0 Z"
         transform="matrix(0.33421889,0,0,0.33421889,-22.875,-110)"
         clip-rule="evenodd"
         id="path13" />
    </clipPath>
    <clipPath
       clipPathUnits="userSpaceOnUse"
       id="clipPath15">
      <path
         d="M 0,0 H 1687.4999 V 813.82971 H 0 Z"
         transform="matrix(0.33422224,0,0,0.33422224,-0.49999999,-0.49999999)"
         clip-rule="evenodd"
         id="path15" />
    </clipPath>
    <clipPath
       clipPathUnits="userSpaceOnUse"
       id="clipPath16">
      <path
         d="M 0,0 H 1687.4999 V 813.82971 H 0 Z"
         transform="matrix(0.33421889,0,0,0.33421889,-23.328126,-250)"
         clip-rule="evenodd"
         id="path16" />
    </clipPath>
    <clipPath
       clipPathUnits="userSpaceOnUse"
       id="clipPath18">
      <path
         d="M 0,0 H 1687.4999 V 813.82971 H 0 Z"
         transform="matrix(0.33422224,0,0,0.33422224,-0.49999999,-0.49999999)"
         clip-rule="evenodd"
         id="path18" />
    </clipPath>
    <clipPath
       clipPathUnits="userSpaceOnUse"
       id="clipPath19">
      <path
         d="M 0,0 H 1687.4999 V 813.82971 H 0 Z"
         transform="matrix(0.33421889,0,0,0.33421889,-93.125,-240)"
         clip-rule="evenodd"
         id="path19" />
    </clipPath>
    <clipPath
       clipPathUnits="userSpaceOnUse"
       id="clipPath20">
      <path
         d="M 0,0 H 1687.4999 V 813.82971 H 0 Z"
         transform="matrix(0.33421889,0,0,0.33421889,-445.92188,-240)"
         clip-rule="evenodd"
         id="path20" />
    </clipPath>
    <clipPath
       clipPathUnits="userSpaceOnUse"
       id="clipPath21">
      <path
         d="M 0,0 H 1687.4999 V 813.82971 H 0 Z"
         transform="matrix(0.33421889,0,0,0.33421889,-481.5,-240)"
         clip-rule="evenodd"
         id="path21" />
    </clipPath>
    <clipPath
       clipPathUnits="userSpaceOnUse"
       id="clipPath22">
      <path
         d="M 0,0 H 1687.4999 V 813.82971 H 0 Z"
         transform="matrix(0.33421889,0,0,0.33421889,-285.96875,-260)"
         clip-rule="evenodd"
         id="path22" />
    </clipPath>
    <clipPath
       clipPathUnits="userSpaceOnUse"
       id="clipPath24">
      <path
         d="M 0,0 H 1687.4999 V 813.82971 H 0 Z"
         transform="matrix(0.33422224,0,0,0.33422224,-0.49999999,-0.49999999)"
         clip-rule="evenodd"
         id="path24" />
    </clipPath>
    <clipPath
       clipPathUnits="userSpaceOnUse"
       id="clipPath25">
      <path
         d="M 0,0 H 1687.4999 V 813.82971 H 0 Z"
         transform="matrix(0.33421889,0,0,0.33421889,-93.65625,-50.000001)"
         clip-rule="evenodd"
         id="path25" />
    </clipPath>
    <clipPath
       clipPathUnits="userSpaceOnUse"
       id="clipPath26">
      <path
         d="M 0,0 H 1687.4999 V 813.82971 H 0 Z"
         transform="matrix(0.33421889,0,0,0.33421889,-185.04688,-70)"
         clip-rule="evenodd"
         id="path26" />
    </clipPath>
  </defs>
  <sodipodi:namedview
     id="namedview1"
     pagecolor="#ffffff"
     bordercolor="#000000"
     borderopacity="0.25"
     inkscape:showpageshadow="2"
     inkscape:pageopacity="0.0"
     inkscape:pagecheckerboard="0"
     inkscape:deskcolor="#d1d1d1">
    <inkscape:page
       x="0"
       y="0"
       inkscape:label="1"
       id="page1"
       width="539.84003"
       height="262.72"
       margin="0"
       bleed="0" />
  </sodipodi:namedview>
  <g
     id="g1"
     inkscape:groupmode="layer"
     inkscape:label="1">
    <path
       id="path1"
       d="M 0,0 H 564 V 274 H 0 Z"
       style="fill:#ffffff;fill-opacity:1;fill-rule:nonzero;stroke:none"
       transform="scale(0.95744671)"
       clip-path="url(#clipPath2)" />
    <path
       id="path3"
       d="m 91,130 h 470 v 50 H 91 Z"
       style="fill:#ffffff;fill-opacity:1;fill-rule:nonzero;stroke:#000000;stroke-width:1;stroke-linecap:butt;stroke-linejoin:miter;stroke-miterlimit:10;stroke-dasharray:none;stroke-opacity:1"
       transform="matrix(0.95744671,0,0,0.95744671,0.47872335,0.47872335)"
       clip-path="url(#clipPath4)" />
    <text
       id="text4"
       xml:space="preserve"
       transform="matrix(0.95745631,0,0,0.95745631,100.11403,143.61845)"
       clip-path="url(#clipPath5)"><tspan
         style="font-variant:normal;font-weight:normal;font-size:16px;font-family:Helvetica;writing-mode:lr-tb;fill:#000000;fill-opacity:1;fill-rule:nonzero;stroke:none"
         x="0 4.4453125 13.34375 22.242188 31.140625 35.585938 43.585938 48.03125 52.476562 61.375 65.820312 74.71875 79.164062 87.164062 96.0625 101.39062 109.39062 118.28906 123.61719 128.0625 133.39062 142.28906 147.61719 152.0625 160.96094 169.85938 177.85938 182.30469 191.20312 196.53125 205.42969 214.32812 219.65625 228.55469 241.88281 246.32812 257.88281 261.4375 265.88281 274.78125 279.22656 288.125 296.125 300.57031 309.46875 314.79688 323.69531 332.59375 336.14844 340.59375 344.14844 353.04688 361.94531 370.84375 375.28906 383.28906 388.61719 393.0625 401.96094 407.28906 416.1875 420.63281 429.53125 438.42969"
         y="0"
         sodipodi:role="line"
         id="tspan4">Inputs to a server (or any program with external inputs) are not</tspan></text>
    <text
       id="text5"
       xml:space="preserve"
       transform="matrix(0.95745631,0,0,0.95745631,161.82508,162.76757)"
       clip-path="url(#clipPath6)"><tspan
         style="font-variant:normal;font-weight:normal;font-size:16px;font-family:Helvetica;writing-mode:lr-tb;fill:#000000;fill-opacity:1;fill-rule:nonzero;stroke:none"
         x="0 8.8984375 17.796875 26.695312 32.023438 40.921875 49.820312 54.265625 63.164062 72.0625 80.960938 85.40625 89.851562 98.75 103.19531 112.09375 120.09375 123.64844 131.64844 136.09375 140.53906 144.98438 153.88281 159.21094 163.65625 172.55469 181.45312 185.89844 194.79688 199.24219 203.6875 208.13281 217.03125 225.92969 230.375 238.375 247.27344 252.60156 257.92969 266.82812 274.82812 279.27344 283.71875 288.16406 296.16406 305.0625"
         y="0"
         sodipodi:role="line"
         id="tspan5">guaranteed to exist, or be of the correct type</tspan></text>
    <path
       id="path7"
       d="m 91,80 h 470 v 50 H 91 Z"
       style="fill:#ffffff;fill-opacity:1;fill-rule:nonzero;stroke:#000000;stroke-width:1;stroke-linecap:butt;stroke-linejoin:miter;stroke-miterlimit:10;stroke-dasharray:none;stroke-opacity:1"
       transform="matrix(0.95744671,0,0,0.95744671,0.47872335,0.47872335)"
       clip-path="url(#clipPath8)" />
    <g
       id="g8" />
    <g
       id="g9" />
    <text
       id="text9"
       xml:space="preserve"
       transform="matrix(0.95745631,0,0,0.95745631,118.63482,105.32019)"
       clip-path="url(#clipPath9)"><tspan
         style="font-variant:normal;font-weight:normal;font-size:16px;font-family:Helvetica;writing-mode:lr-tb;fill:#000000;fill-opacity:1;fill-rule:nonzero;stroke:none"
         x="0 8.8984375 16.898438 25.796875 34.695312 39.140625 48.039062 56.9375 64.9375 73.835938 77.390625 81.835938 85.390625 94.289062 103.1875 107.63281 115.63281 119.1875 128.08594 136.08594 140.53125 149.42969 154.75781 163.65625 171.65625 175.21094 184.10938 193.00781 201.90625 206.35156 210.79688 219.69531 224.14062 233.03906 241.03906 245.48438 254.38281 259.71094 268.60938 277.50781 280.5625 285.00781 289.45312 298.35156 301.90625 313.46094 322.35938 330.35938 338.35938 342.80469 351.70312 359.70312 367.70312 376.60156 381.92969 390.82812 395.27344"
         y="0"
         sodipodi:role="line"
         id="tspan9">Type deﬁnition ﬁles provided to us aren't always accurate</tspan></text>
    <text
       id="text10"
       xml:space="preserve"
       transform="matrix(0.95745631,0,0,0.95745631,247.05365,14.361845)"
       clip-path="url(#clipPath10)"><tspan
         style="font-variant:normal;font-weight:700;font-size:16px;font-family:Helvetica;writing-mode:lr-tb;fill:#000000;fill-opacity:1;fill-rule:nonzero;stroke:none"
         x="0 4.4453125 14.21875 19.546875 28.445312 38.21875 44.445312 53.34375 58.671875 63.117188 72.890625 82.664062 87.109375 91.554688 100.45312 109.35156 119.125 128.02344"
         y="0"
         sodipodi:role="line"
         id="tspan10">Integration Issues</tspan></text>
    <path
       id="path11"
       d="M 1,30 H 91 V 180 H 1 Z"
       style="fill:#f8cecc;fill-opacity:1;fill-rule:nonzero;stroke:#b85450;stroke-width:1;stroke-linecap:butt;stroke-linejoin:miter;stroke-miterlimit:10;stroke-dasharray:none;stroke-opacity:1"
       transform="matrix(0.95744671,0,0,0.95744671,0.47872335,0.47872335)"
       clip-path="url(#clipPath12)" />
    <text
       id="text12"
       xml:space="preserve"
       transform="matrix(0.95745631,0,0,0.95745631,21.901813,105.32019)"
       clip-path="url(#clipPath13)"><tspan
         style="font-variant:normal;font-weight:normal;font-size:16px;font-family:Helvetica;writing-mode:lr-tb;fill:#000000;fill-opacity:1;fill-rule:nonzero;stroke:none"
         x="0 11.554688 24 35.554688"
         y="0"
         sodipodi:role="line"
         id="tspan12">CONS</tspan></text>
    <path
       id="path14"
       d="m 1,220 h 90 v 50 H 1 Z"
       style="fill:#d5e8d4;fill-opacity:1;fill-rule:nonzero;stroke:#82b366;stroke-width:1;stroke-linecap:butt;stroke-linejoin:miter;stroke-miterlimit:10;stroke-dasharray:none;stroke-opacity:1"
       transform="matrix(0.95744671,0,0,0.95744671,0.47872335,0.47872335)"
       clip-path="url(#clipPath15)" />
    <text
       id="text15"
       xml:space="preserve"
       transform="matrix(0.95745631,0,0,0.95745631,22.335661,239.36408)"
       clip-path="url(#clipPath16)"><tspan
         style="font-variant:normal;font-weight:normal;font-size:16px;font-family:Helvetica;writing-mode:lr-tb;fill:#000000;fill-opacity:1;fill-rule:nonzero;stroke:none"
         x="0 10.671875 22.226562 34.671875"
         y="0"
         sodipodi:role="line"
         id="tspan15">PROS</tspan></text>
    <path
       id="path17"
       d="m 91,220 h 470 v 50 H 91 Z"
       style="fill:#ffffff;fill-opacity:1;fill-rule:nonzero;stroke:#000000;stroke-width:1;stroke-linecap:butt;stroke-linejoin:miter;stroke-miterlimit:10;stroke-dasharray:none;stroke-opacity:1"
       transform="matrix(0.95744671,0,0,0.95744671,0.47872335,0.47872335)"
       clip-path="url(#clipPath18)" />
    <text
       id="text18"
       xml:space="preserve"
       transform="matrix(0.95745631,0,0,0.95745631,89.163119,229.78951)"
       clip-path="url(#clipPath19)"><tspan
         style="font-variant:normal;font-weight:normal;font-size:16px;font-family:Helvetica;writing-mode:lr-tb;fill:#000000;fill-opacity:1;fill-rule:nonzero;stroke:none"
         x="0 10.671875 19.570312 28.46875 33.796875 42.695312 50.695312 58.695312 62.25 71.148438 80.046875 84.492188 88.9375 97.835938 106.73438 114.73438 123.63281 128.07812 132.52344 140.52344 149.42188 158.32031 162.76562 166.32031 174.32031 182.32031 191.21875 200.11719 208.11719 212.5625 224.11719 227.67188 232.11719 241.01562 245.17969 254.07812 262.07812 270.97656 279.875 287.875 295.875 301.20312 304.75781 313.65625 318.10156 322.54688 330.54688 339.44531 348.34375"
         y="0"
         sodipodi:role="line"
         id="tspan18">Addressing these type issues with Typescript can </tspan></text>
    <text
       id="text19"
       xml:space="preserve"
       transform="matrix(0.95745631,0,0,0.95745631,426.95072,229.78951)"
       clip-path="url(#clipPath20)"><tspan
         style="font-style:oblique;font-variant:normal;font-weight:normal;font-size:16px;font-family:Helvetica;writing-mode:lr-tb;fill:#000000;fill-opacity:1;fill-rule:nonzero;stroke:none"
         x="0 4.4453125 13.34375 18.671875 26.671875"
         y="0"
         sodipodi:role="line"
         id="tspan19">force</tspan></text>
    <text
       id="text20"
       xml:space="preserve"
       transform="matrix(0.95745631,0,0,0.95745631,461.01521,229.78951)"
       clip-path="url(#clipPath21)"><tspan
         style="font-variant:normal;font-weight:normal;font-size:16px;font-family:Helvetica;writing-mode:lr-tb;fill:#000000;fill-opacity:1;fill-rule:nonzero;stroke:none"
         x="0 4.4453125 13.34375 21.34375 25.789062 30.234375 39.132812 43.578125 55.132812 60.460938 64.015625 68.460938"
         y="0"
         sodipodi:role="line"
         id="tspan20"> us to write</tspan></text>
    <text
       id="text21"
       xml:space="preserve"
       transform="matrix(0.95745631,0,0,0.95745631,273.80258,248.93864)"
       clip-path="url(#clipPath22)"><tspan
         style="font-variant:normal;font-weight:normal;font-size:16px;font-family:Helvetica;writing-mode:lr-tb;fill:#000000;fill-opacity:1;fill-rule:nonzero;stroke:none"
         x="0 8.8984375 17.796875 22.242188 26.6875 35.585938 40.914062 45.359375 53.359375 62.257812 71.15625"
         y="0"
         sodipodi:role="line"
         id="tspan21">better code</tspan></text>
    <path
       id="path23"
       d="M 91,30 H 561 V 80 H 91 Z"
       style="fill:#ffffff;fill-opacity:1;fill-rule:nonzero;stroke:#000000;stroke-width:1;stroke-linecap:butt;stroke-linejoin:miter;stroke-miterlimit:10;stroke-dasharray:none;stroke-opacity:1"
       transform="matrix(0.95744671,0,0,0.95744671,0.47872335,0.47872335)"
       clip-path="url(#clipPath24)" />
    <g
       id="g24" />
    <g
       id="g25" />
    <text
       id="text25"
       xml:space="preserve"
       transform="matrix(0.95745631,0,0,0.95745631,89.671768,47.872816)"
       clip-path="url(#clipPath25)"><tspan
         style="font-variant:normal;font-weight:normal;font-size:16px;font-family:Helvetica;writing-mode:lr-tb;fill:#000000;fill-opacity:1;fill-rule:nonzero;stroke:none"
         x="0 8.8984375 16.898438 25.796875 34.695312 39.140625 48.039062 56.9375 64.9375 73.835938 77.390625 81.835938 85.390625 94.289062 103.1875 107.63281 115.63281 119.1875 128.08594 136.08594 140.53125 149.42969 152.98438 161.88281 170.78125 179.67969 184.125 192.125 201.02344 209.92188 212.97656 217.42188 221.86719 230.76562 238.76562 247.66406 252.99219 261.89062 269.89062 277.89062 282.33594 293.89062 302.78906 311.6875 316.13281 320.57812 324.13281 332.13281 336.57812 345.47656 354.375 357.92969 366.82812 375.72656 380.17188 389.07031 397.96875 402.41406 405.96875 414.86719 419.3125 423.75781 432.65625 441.55469 446 454"
         y="0"
         sodipodi:role="line"
         id="tspan25">Type deﬁnition ﬁles alone can't express what is going on in the JS</tspan></text>
    <text
       id="text26"
       xml:space="preserve"
       transform="matrix(0.95745631,0,0,0.95745631,177.1743,67.021942)"
       clip-path="url(#clipPath26)"><tspan
         style="font-variant:normal;font-weight:normal;font-size:16px;font-family:Helvetica;writing-mode:lr-tb;fill:#000000;fill-opacity:1;fill-rule:nonzero;stroke:none"
         x="0 11.554688 20.453125 25.78125 29.335938 38.234375 42.679688 51.578125 59.578125 67.578125 76.476562 81.804688 90.703125 95.148438 104.04688 107.60156 115.60156 120.04688 125.375 134.27344 142.27344 151.17188 164.5 173.39844 176.95312 185.85156 190.29688 194.74219 208.07031 211.625 220.52344 229.42188 232.97656 241.875 253.42969 262.32812 267.65625 276.55469"
         y="0"
         sodipodi:role="line"
         id="tspan26">world accurately (example: middleware)</tspan></text>
  </g>
</svg>
