<?xml version="1.0" encoding="UTF-8" standalone="no"?>
<!-- Created with Inkscape (http://www.inkscape.org/) -->

<svg
   version="1.1"
   id="svg1"
   width="587.84003"
   height="138.56"
   viewBox="0 0 587.84003 138.56"
   sodipodi:docname="ts-9.pdf"
   xmlns:inkscape="http://www.inkscape.org/namespaces/inkscape"
   xmlns:sodipodi="http://sodipodi.sourceforge.net/DTD/sodipodi-0.dtd"
   xmlns="http://www.w3.org/2000/svg"
   xmlns:svg="http://www.w3.org/2000/svg">
  <defs
     id="defs1">
    <clipPath
       clipPathUnits="userSpaceOnUse"
       id="clipPath2">
      <path
         d="M 0,0 H 1837.4999 V 430.94458 H 0 Z"
         transform="scale(0.33414968)"
         clip-rule="evenodd"
         id="path2" />
    </clipPath>
    <clipPath
       clipPathUnits="userSpaceOnUse"
       id="clipPath4">
      <path
         d="M 0,0 H 1837.4999 V 430.94458 H 0 Z"
         transform="matrix(0.33414968,0,0,0.33414968,-0.49999999,-0.49999999)"
         clip-rule="evenodd"
         id="path4" />
    </clipPath>
    <clipPath
       clipPathUnits="userSpaceOnUse"
       id="clipPath5">
      <path
         d="M 0,0 H 1837.4999 V 430.94458 H 0 Z"
         transform="matrix(0.33414633,0,0,0.33414633,-17.078125,-78)"
         clip-rule="evenodd"
         id="path5" />
    </clipPath>
    <clipPath
       clipPathUnits="userSpaceOnUse"
       id="clipPath7">
      <path
         d="M 0,0 H 1837.4999 V 430.94458 H 0 Z"
         transform="matrix(0.33414968,0,0,0.33414968,-0.49999999,-0.49999999)"
         clip-rule="evenodd"
         id="path7" />
    </clipPath>
    <clipPath
       clipPathUnits="userSpaceOnUse"
       id="clipPath9">
      <path
         d="M 0,0 H 1837.4999 V 430.94458 H 0 Z"
         transform="matrix(0.33414968,0,0,0.33414968,-0.49999999,-0.49999999)"
         clip-rule="evenodd"
         id="path9" />
    </clipPath>
    <clipPath
       clipPathUnits="userSpaceOnUse"
       id="clipPath10">
      <path
         d="M 0,0 H 1837.4999 V 430.94458 H 0 Z"
         transform="matrix(0.33414633,0,0,0.33414633,-225.125,-18)"
         clip-rule="evenodd"
         id="path10" />
    </clipPath>
    <clipPath
       clipPathUnits="userSpaceOnUse"
       id="clipPath11">
      <path
         d="M 0,0 H 1837.4999 V 430.94458 H 0 Z"
         transform="matrix(0.33414633,0,0,0.33414633,-385.3125,-35)"
         clip-rule="evenodd"
         id="path11" />
    </clipPath>
    <clipPath
       clipPathUnits="userSpaceOnUse"
       id="clipPath13">
      <path
         d="M 0,0 H 1837.4999 V 430.94458 H 0 Z"
         transform="matrix(0.33414968,0,0,0.33414968,-0.49999999,-0.49999999)"
         clip-rule="evenodd"
         id="path13" />
    </clipPath>
    <clipPath
       clipPathUnits="userSpaceOnUse"
       id="clipPath14">
      <path
         d="M 0,0 H 1837.4999 V 430.94458 H 0 Z"
         transform="matrix(0.33414633,0,0,0.33414633,-215.79688,-68)"
         clip-rule="evenodd"
         id="path14" />
    </clipPath>
    <clipPath
       clipPathUnits="userSpaceOnUse"
       id="clipPath15">
      <path
         d="M 0,0 H 1837.4999 V 430.94458 H 0 Z"
         transform="matrix(0.33414633,0,0,0.33414633,-402.04688,-84.999999)"
         clip-rule="evenodd"
         id="path15" />
    </clipPath>
    <clipPath
       clipPathUnits="userSpaceOnUse"
       id="clipPath17">
      <path
         d="M 0,0 H 1837.4999 V 430.94458 H 0 Z"
         transform="matrix(0.33414968,0,0,0.33414968,-0.49999999,-0.49999999)"
         clip-rule="evenodd"
         id="path17" />
    </clipPath>
    <clipPath
       clipPathUnits="userSpaceOnUse"
       id="clipPath18">
      <path
         d="M 0,0 H 1837.4999 V 430.94458 H 0 Z"
         transform="matrix(0.33414633,0,0,0.33414633,-295.57813,-126)"
         clip-rule="evenodd"
         id="path18" />
    </clipPath>
  </defs>
  <sodipodi:namedview
     id="namedview1"
     pagecolor="#ffffff"
     bordercolor="#000000"
     borderopacity="0.25"
     inkscape:showpageshadow="2"
     inkscape:pageopacity="0.0"
     inkscape:pagecheckerboard="0"
     inkscape:deskcolor="#d1d1d1">
    <inkscape:page
       x="0"
       y="0"
       inkscape:label="1"
       id="page1"
       width="587.84003"
       height="138.56"
       margin="0"
       bleed="0" />
  </sodipodi:namedview>
  <g
     id="g1"
     inkscape:groupmode="layer"
     inkscape:label="1">
    <path
       id="path1"
       d="M 0,0 H 614 V 144 H 0 Z"
       style="fill:#ffffff;fill-opacity:1;fill-rule:nonzero;stroke:none"
       transform="scale(0.95765462)"
       clip-path="url(#clipPath2)" />
    <path
       id="path3"
       d="m 1,36 h 170 v 70 H 1 Z"
       style="fill:#dae8fc;fill-opacity:1;fill-rule:nonzero;stroke:#6c8ebf;stroke-width:1;stroke-linecap:butt;stroke-linejoin:miter;stroke-miterlimit:10;stroke-dasharray:none;stroke-opacity:1"
       transform="matrix(0.95765462,0,0,0.95765462,0.4788273,0.4788273)"
       clip-path="url(#clipPath4)" />
    <text
       id="text4"
       xml:space="preserve"
       transform="matrix(0.95766422,0,0,0.95766422,16.355109,74.697809)"
       clip-path="url(#clipPath5)"><tspan
         style="font-variant:normal;font-weight:normal;font-size:20px;font-family:Helvetica;writing-mode:lr-tb;fill:#000000;fill-opacity:1;fill-rule:nonzero;stroke:none"
         x="0 12.216797 25.556641 31.113281 45.556641 50 55.556641 66.679688 72.236328 82.236328 95.576172 101.13281 112.25586 116.69922 127.82227"
         y="0"
         sodipodi:role="line"
         id="tspan4">TS with JS Libs</tspan></text>
    <path
       id="path6"
       d="m 201,1 h -7.5 c -5,0 -7.5,3.333333 -7.5,10 v 50 c 0,6.666664 -2.5,10 -7.5,10 h -3.75 c -2.5,0 -1.25,0 3.75,0 h 3.75 c 2.5,0 3.75,3.333336 3.75,10 v 50 c 0,6.66667 2.5,10 7.5,10 h 7.5"
       style="fill:none;stroke:#000000;stroke-width:1;stroke-linecap:butt;stroke-linejoin:miter;stroke-miterlimit:10;stroke-dasharray:none;stroke-opacity:1"
       transform="matrix(0.95765462,0,0,0.95765462,0.4788273,0.4788273)"
       clip-path="url(#clipPath7)" />
    <path
       id="path8"
       d="M 211,1 H 611 V 41 H 211 Z"
       style="fill:#ffffff;fill-opacity:1;fill-rule:nonzero;stroke:#000000;stroke-width:1;stroke-linecap:butt;stroke-linejoin:miter;stroke-miterlimit:10;stroke-dasharray:none;stroke-opacity:1"
       transform="matrix(0.95765462,0,0,0.95765462,0.4788273,0.4788273)"
       clip-path="url(#clipPath9)" />
    <text
       id="text9"
       xml:space="preserve"
       transform="matrix(0.95766422,0,0,0.95766422,215.59416,17.237956)"
       clip-path="url(#clipPath10)"><tspan
         style="font-variant:normal;font-weight:normal;font-size:14px;font-family:Helvetica;writing-mode:lr-tb;fill:#000000;fill-opacity:1;fill-rule:nonzero;stroke:none"
         x="0 10.110352 17.110352 24.896484 28.786133 32.675781 40.461914 48.248047 52.137695 55.248047 58.358398 66.144531 70.03418 77.820312 85.606445 90.268555 101.93066 109.7168 112.82715 115.9375 121.90527 125.79492 129.68457 137.4707 145.25684 153.04297 156.15332 163.93945 171.72559 175.61523 178.72559 186.51172 190.40137 198.1875 205.97363 212.97363 216.08398 223.08398 226.97363 230.86328 237.86328 245.64941 253.43555 257.3252 265.11133 272.89746 280.68359 288.46973 292.35938 300.14551 304.03516 307.14551 314.93164 322.71777 329.71777 333.60742 343.71777 351.50391 359.29004 363.95215"
         y="0"
         sodipodi:role="line"
         id="tspan9">Use the lib normally, adding in basic type annotations where</tspan></text>
    <text
       id="text10"
       xml:space="preserve"
       transform="matrix(0.95766422,0,0,0.95766422,368.99999,33.518248)"
       clip-path="url(#clipPath11)"><tspan
         style="font-variant:normal;font-weight:normal;font-size:14px;font-family:Helvetica;writing-mode:lr-tb;fill:#000000;fill-opacity:1;fill-rule:nonzero;stroke:none"
         x="0 7.7861328 15.572266 22.572266 29.572266 32.682617 40.46875 43.579102"
         y="0"
         sodipodi:role="line"
         id="tspan10">possible</tspan></text>
    <path
       id="path12"
       d="M 211,51 H 611 V 91 H 211 Z"
       style="fill:#ffffff;fill-opacity:1;fill-rule:nonzero;stroke:#000000;stroke-width:1;stroke-linecap:butt;stroke-linejoin:miter;stroke-miterlimit:10;stroke-dasharray:none;stroke-opacity:1"
       transform="matrix(0.95765462,0,0,0.95765462,0.4788273,0.4788273)"
       clip-path="url(#clipPath13)" />
    <text
       id="text13"
       xml:space="preserve"
       transform="matrix(0.95766422,0,0,0.95766422,206.66095,65.121167)"
       clip-path="url(#clipPath14)"><tspan
         style="font-variant:normal;font-weight:normal;font-size:14px;font-family:Helvetica;writing-mode:lr-tb;fill:#000000;fill-opacity:1;fill-rule:nonzero;stroke:none"
         x="0 10.110352 17.110352 24.896484 28.786133 36.572266 40.21582 48.767578 58.105469 61.995117 69.78125 77.567383 85.353516 93.139648 97.029297 104.81543 109.47754 113.36719 116.47754 119.58789 127.37402 132.03613 139.82227 144.48438 151.48438 155.37402 159.26367 167.0498 174.83594 178.72559 182.61523 190.40137 198.1875 205.1875 209.07715 216.86328 224.64941 227.75977 235.5459 243.33203 247.99414 254.99414 258.88379 262.77344 270.55957 275.22168 279.11133 286.89746 293.89746 297.00781 304.79395 312.58008 316.46973 323.46973 331.25586 339.04199 343.7041 347.59375 350.7041 353.81445 361.60059 365.49023 375.60059 378.71094 382.60059"
         y="0"
         sodipodi:role="line"
         id="tspan13">Use a TS adapter library that has helpers for using your lib with</tspan></text>
    <text
       id="text14"
       xml:space="preserve"
       transform="matrix(0.95766422,0,0,0.95766422,385.02591,81.401458)"
       clip-path="url(#clipPath15)"><tspan
         style="font-variant:normal;font-weight:normal;font-size:14px;font-family:Helvetica;writing-mode:lr-tb;fill:#000000;fill-opacity:1;fill-rule:nonzero;stroke:none"
         x="0 8.5517578"
         y="0"
         sodipodi:role="line"
         id="tspan14">TS</tspan></text>
    <path
       id="path16"
       d="m 211,101 h 400 v 40 H 211 Z"
       style="fill:#ffffff;fill-opacity:1;fill-rule:nonzero;stroke:#000000;stroke-width:1;stroke-linecap:butt;stroke-linejoin:miter;stroke-miterlimit:10;stroke-dasharray:none;stroke-opacity:1"
       transform="matrix(0.95765462,0,0,0.95765462,0.4788273,0.4788273)"
       clip-path="url(#clipPath17)" />
    <text
       id="text17"
       xml:space="preserve"
       transform="matrix(0.95766422,0,0,0.95766422,283.0646,120.66569)"
       clip-path="url(#clipPath18)"><tspan
         style="font-variant:normal;font-weight:normal;font-size:14px;font-family:Helvetica;writing-mode:lr-tb;fill:#000000;fill-opacity:1;fill-rule:nonzero;stroke:none"
         x="0 7.7861328 17.896484 21.006836 28.006836 31.896484 35.786133 42.786133 50.572266 58.358398 63.020508 66.910156 70.020508 73.130859 80.916992 84.806641 88.696289 96.482422 100.37207 110.48242 118.26855 122.93066 129.93066 133.82031 143.93066 147.04102 150.93066 158.7168 162.36035 170.91211 180.25 184.13965 191.13965 194.25 202.03613 209.03613 216.03613 223.82227"
         y="0"
         sodipodi:role="line"
         id="tspan17">Twist your lib to work with TS classes</tspan></text>
  </g>
</svg>
