<?xml version="1.0" encoding="UTF-8" standalone="no"?>
<!-- Created with Inkscape (http://www.inkscape.org/) -->

<svg
   version="1.1"
   id="svg1"
   width="441.28"
   height="298.56"
   viewBox="0 0 441.28 298.56"
   sodipodi:docname="ts-14.pdf"
   xmlns:inkscape="http://www.inkscape.org/namespaces/inkscape"
   xmlns:sodipodi="http://sodipodi.sourceforge.net/DTD/sodipodi-0.dtd"
   xmlns="http://www.w3.org/2000/svg"
   xmlns:svg="http://www.w3.org/2000/svg">
  <defs
     id="defs1">
    <clipPath
       clipPathUnits="userSpaceOnUse"
       id="clipPath2">
      <path
         d="M 0,0 H 1379.1666 V 930.41394 H 0 Z"
         transform="scale(0.33425983)"
         clip-rule="evenodd"
         id="path2" />
    </clipPath>
    <clipPath
       clipPathUnits="userSpaceOnUse"
       id="clipPath4">
      <path
         d="M 0,0 H 1379.1666 V 927.42224 H 0 Z"
         transform="matrix(0.33425983,0,0,0.33425983,-0.5,-0.5)"
         clip-rule="evenodd"
         id="path4" />
    </clipPath>
    <clipPath
       clipPathUnits="userSpaceOnUse"
       id="clipPath5">
      <path
         d="M 0,0 H 1379.1666 V 927.42224 H 0 Z"
         transform="matrix(0.33425647,0,0,0.33425647,-145.84375,-34.000001)"
         clip-rule="evenodd"
         id="path5" />
    </clipPath>
    <clipPath
       clipPathUnits="userSpaceOnUse"
       id="clipPath7">
      <path
         d="M 0,0 H 1379.1666 V 927.42224 H 0 Z"
         transform="matrix(0.33425983,0,0,0.33425983,-0.5,-0.5)"
         clip-rule="evenodd"
         id="path7" />
    </clipPath>
    <clipPath
       clipPathUnits="userSpaceOnUse"
       id="clipPath8">
      <path
         d="M 0,0 H 1379.1666 V 927.42224 H 0 Z"
         transform="matrix(0.33425647,0,0,0.33425647,-52.78125,-84.000001)"
         clip-rule="evenodd"
         id="path8" />
    </clipPath>
    <clipPath
       clipPathUnits="userSpaceOnUse"
       id="clipPath10">
      <path
         d="M 0,0 H 1379.1666 V 927.42224 H 0 Z"
         transform="matrix(0.33425983,0,0,0.33425983,-0.5,-0.5)"
         clip-rule="evenodd"
         id="path10" />
    </clipPath>
    <clipPath
       clipPathUnits="userSpaceOnUse"
       id="clipPath11">
      <path
         d="M 0,0 H 1379.1666 V 927.42224 H 0 Z"
         transform="matrix(0.33425647,0,0,0.33425647,-37.656251,-124)"
         clip-rule="evenodd"
         id="path11" />
    </clipPath>
    <clipPath
       clipPathUnits="userSpaceOnUse"
       id="clipPath12">
      <path
         d="M 0,0 H 1379.1666 V 927.42224 H 0 Z"
         transform="matrix(0.33425647,0,0,0.33425647,-137.8125,-145)"
         clip-rule="evenodd"
         id="path12" />
    </clipPath>
    <clipPath
       clipPathUnits="userSpaceOnUse"
       id="clipPath13">
      <path
         d="M 0,0 H 1379.1666 V 927.42224 H 0 Z"
         transform="matrix(0.33425647,0,0,0.33425647,-267.28125,-145)"
         clip-rule="evenodd"
         id="path13" />
    </clipPath>
    <clipPath
       clipPathUnits="userSpaceOnUse"
       id="clipPath15">
      <path
         d="M 0,0 H 1379.1666 V 927.42224 H 0 Z"
         transform="matrix(0.33425983,0,0,0.33425983,-0.5,-0.5)"
         clip-rule="evenodd"
         id="path15" />
    </clipPath>
    <clipPath
       clipPathUnits="userSpaceOnUse"
       id="clipPath16">
      <path
         d="M 0,0 H 1379.1666 V 927.42224 H 0 Z"
         transform="matrix(0.33425647,0,0,0.33425647,-140.65625,-184)"
         clip-rule="evenodd"
         id="path16" />
    </clipPath>
    <clipPath
       clipPathUnits="userSpaceOnUse"
       id="clipPath17">
      <path
         d="M 0,0 H 1379.1666 V 927.42224 H 0 Z"
         transform="matrix(0.33425647,0,0,0.33425647,-164.28126,-184)"
         clip-rule="evenodd"
         id="path17" />
    </clipPath>
    <clipPath
       clipPathUnits="userSpaceOnUse"
       id="clipPath18">
      <path
         d="M 0,0 H 1379.1666 V 927.42224 H 0 Z"
         transform="matrix(0.33425647,0,0,0.33425647,-225.71875,-184)"
         clip-rule="evenodd"
         id="path18" />
    </clipPath>
    <clipPath
       clipPathUnits="userSpaceOnUse"
       id="clipPath20">
      <path
         d="M 0,0 H 1379.1666 V 927.42224 H 0 Z"
         transform="matrix(0.33425983,0,0,0.33425983,-0.5,-0.5)"
         clip-rule="evenodd"
         id="path20" />
    </clipPath>
    <clipPath
       clipPathUnits="userSpaceOnUse"
       id="clipPath21">
      <path
         d="M 0,0 H 1379.1666 V 927.42224 H 0 Z"
         transform="matrix(0.33425647,0,0,0.33425647,-85.34375,-234)"
         clip-rule="evenodd"
         id="path21" />
    </clipPath>
    <clipPath
       clipPathUnits="userSpaceOnUse"
       id="clipPath23">
      <path
         d="M 0,0 H 1379.1666 V 927.42224 H 0 Z"
         transform="matrix(0.33425983,0,0,0.33425983,-0.5,-0.5)"
         clip-rule="evenodd"
         id="path23" />
    </clipPath>
    <clipPath
       clipPathUnits="userSpaceOnUse"
       id="clipPath24">
      <path
         d="M 0,0 H 1379.1666 V 927.42224 H 0 Z"
         transform="matrix(0.33425647,0,0,0.33425647,-23.015625,-274)"
         clip-rule="evenodd"
         id="path24" />
    </clipPath>
    <clipPath
       clipPathUnits="userSpaceOnUse"
       id="clipPath25">
      <path
         d="M 0,0 H 1379.1666 V 927.42224 H 0 Z"
         transform="matrix(0.33425647,0,0,0.33425647,-107.10938,-295.00001)"
         clip-rule="evenodd"
         id="path25" />
    </clipPath>
    <clipPath
       clipPathUnits="userSpaceOnUse"
       id="clipPath27">
      <path
         d="M 0,0 H 1379.1666 V 927.42224 H 0 Z"
         transform="matrix(0.33425983,0,0,0.33425983,-0.5,-0.5)"
         clip-rule="evenodd"
         id="path27" />
    </clipPath>
    <clipPath
       clipPathUnits="userSpaceOnUse"
       id="clipPath29">
      <path
         d="M 0,0 H 1379.1666 V 927.42224 H 0 Z"
         transform="matrix(0.33425983,0,0,0.33425983,-0.5,-0.5)"
         clip-rule="evenodd"
         id="path29" />
    </clipPath>
  </defs>
  <sodipodi:namedview
     id="namedview1"
     pagecolor="#ffffff"
     bordercolor="#000000"
     borderopacity="0.25"
     inkscape:showpageshadow="2"
     inkscape:pageopacity="0.0"
     inkscape:pagecheckerboard="0"
     inkscape:deskcolor="#d1d1d1">
    <inkscape:page
       x="0"
       y="0"
       inkscape:label="1"
       id="page1"
       width="441.28"
       height="298.56"
       margin="0"
       bleed="0" />
  </sodipodi:namedview>
  <g
     id="g1"
     inkscape:groupmode="layer"
     inkscape:label="1">
    <path
       id="path1"
       d="M 0,0 H 461 V 311 H 0 Z"
       style="fill:#ffffff;fill-opacity:1;fill-rule:nonzero;stroke:none"
       transform="scale(0.95733906)"
       clip-path="url(#clipPath2)" />
    <path
       id="path3"
       d="M 18,8 H 458 V 48 H 18 Z"
       style="fill:#ffffff;fill-opacity:1;fill-rule:nonzero;stroke:#000000;stroke-width:1;stroke-linecap:butt;stroke-linejoin:miter;stroke-miterlimit:10;stroke-dasharray:none;stroke-opacity:1"
       transform="matrix(0.95733906,0,0,0.95733906,0.47866953,0.47866953)"
       clip-path="url(#clipPath4)" />
    <text
       id="text4"
       xml:space="preserve"
       transform="matrix(0.95734866,0,0,0.95734866,139.62332,32.549855)"
       clip-path="url(#clipPath5)"><tspan
         style="font-variant:normal;font-weight:normal;font-size:17px;font-family:Helvetica;writing-mode:lr-tb;fill:#000000;fill-opacity:1;fill-rule:nonzero;stroke:none"
         x="0 12.276855 21.731445 31.186035 40.640625 45.36377 54.818359 63.318359 72.772949 81.272949 90.727539 95.450684 104.90527 113.40527 118.12842 127.58301 137.0376 142.69873 147.42188 155.92188 165.37646 174.83105"
         y="0"
         sodipodi:role="line"
         id="tspan4">Node executes our code</tspan></text>
    <path
       id="path6"
       d="M 18,58 H 458 V 98 H 18 Z"
       style="fill:#ffffff;fill-opacity:1;fill-rule:nonzero;stroke:#000000;stroke-width:1;stroke-linecap:butt;stroke-linejoin:miter;stroke-miterlimit:10;stroke-dasharray:none;stroke-opacity:1"
       transform="matrix(0.95733906,0,0,0.95733906,0.47866953,0.47866953)"
       clip-path="url(#clipPath7)" />
    <g
       id="g7" />
    <text
       id="text7"
       xml:space="preserve"
       transform="matrix(0.95734866,0,0,0.95734866,50.530059,80.417288)"
       clip-path="url(#clipPath8)"><tspan
         style="font-variant:normal;font-weight:normal;font-size:17px;font-family:Helvetica;writing-mode:lr-tb;fill:#000000;fill-opacity:1;fill-rule:nonzero;stroke:none"
         x="0 12.276855 16.053711 25.508301 34.008301 42.508301 47.231445 56.686035 66.140625 74.640625 84.095215 87.87207 92.595215 96.37207 105.82666 115.28125 120.00439 125.66553 135.12012 144.57471 154.0293 158.75244 162.5293 171.98389 176.70703 182.36816 187.09131 196.5459 206.00049 214.50049 223.95508 229.61621 239.0708 243.79395 253.24854 258.90967 267.40967 272.13281 281.5874 287.24854 296.70312 301.42627 310.88086 319.38086 328.83545 337.33545 346.79004 351.51318 360.96777"
         y="0"
         sodipodi:role="line"
         id="tspan7">Class deﬁnition read in - decorators are executed</tspan></text>
    <path
       id="path9"
       d="m 18,108 h 440 v 40 H 18 Z"
       style="fill:#ffffff;fill-opacity:1;fill-rule:nonzero;stroke:#000000;stroke-width:1;stroke-linecap:butt;stroke-linejoin:miter;stroke-miterlimit:10;stroke-dasharray:none;stroke-opacity:1"
       transform="matrix(0.95733906,0,0,0.95733906,0.47866953,0.47866953)"
       clip-path="url(#clipPath10)" />
    <g
       id="g10" />
    <text
       id="text10"
       xml:space="preserve"
       transform="matrix(0.95734866,0,0,0.95734866,36.050161,118.71123)"
       clip-path="url(#clipPath11)"><tspan
         style="font-variant:normal;font-weight:normal;font-size:17px;font-family:Helvetica;writing-mode:lr-tb;fill:#000000;fill-opacity:1;fill-rule:nonzero;stroke:none"
         x="0 12.276855 21.731445 30.231445 39.686035 45.347168 54.801758 59.524902 68.979492 74.640625 83.140625 87.86377 97.318359 105.81836 114.31836 123.77295 132.27295 136.0498 145.50439 150.22754 159.68213 164.40527 170.06641 179.521 188.97559 193.69873 203.15332 207.87646 216.37646 225.83105 235.28564 243.78564 253.24023 262.69482 268.35596 277.81055 282.53369 286.31055 295.76514 305.21973 309.94287 313.71973 323.17432 327.89746 337.35205 342.0752 354.35205 358.12891 362.85205 372.30664 377.02979 381.75293 391.20752"
         y="0"
         sodipodi:role="line"
         id="tspan10">Decorators associate route conﬁguration info with the</tspan></text>
    <text
       id="text11"
       xml:space="preserve"
       transform="matrix(0.95734866,0,0,0.95734866,131.93461,138.81556)"
       clip-path="url(#clipPath12)"><tspan
         style="font-variant:normal;font-weight:normal;font-size:17px;font-family:Helvetica;writing-mode:lr-tb;fill:#000000;fill-opacity:1;fill-rule:nonzero;stroke:none"
         x="0 14.161133 23.615723 28.338867 37.793457 47.248047 56.702637 61.425781 70.880371 79.380371 84.103516 93.558105 102.05811 105.83496 115.28955 124.74414"
         y="0"
         sodipodi:role="line"
         id="tspan11">method by using </tspan></text>
    <text
       id="text12"
       xml:space="preserve"
       transform="matrix(0.95734866,0,0,0.95734866,255.88135,138.81556)"
       clip-path="url(#clipPath13)"><tspan
         style="font-style:oblique;font-variant:normal;font-weight:normal;font-size:17px;font-family:Helvetica;writing-mode:lr-tb;fill:#000000;fill-opacity:1;fill-rule:nonzero;stroke:none"
         x="0 14.161133 23.615723 28.338867 37.793457 47.248047 56.702637 61.425781"
         y="0"
         sodipodi:role="line"
         id="tspan12">metadata</tspan></text>
    <path
       id="path14"
       d="m 18,158 h 440 v 40 H 18 Z"
       style="fill:#ffffff;fill-opacity:1;fill-rule:nonzero;stroke:#000000;stroke-width:1;stroke-linecap:butt;stroke-linejoin:miter;stroke-miterlimit:10;stroke-dasharray:none;stroke-opacity:1"
       transform="matrix(0.95733906,0,0,0.95733906,0.47866953,0.47866953)"
       clip-path="url(#clipPath15)" />
    <text
       id="text15"
       xml:space="preserve"
       transform="matrix(0.95734866,0,0,0.95734866,134.65707,176.15215)"
       clip-path="url(#clipPath16)"><tspan
         style="font-variant:normal;font-weight:normal;font-size:17px;font-family:Helvetica;writing-mode:lr-tb;fill:#000000;fill-opacity:1;fill-rule:nonzero;stroke:none"
         x="0 11.338867 15.115723 18.892578"
         y="0"
         sodipodi:role="line"
         id="tspan15">All </tspan></text>
    <text
       id="text16"
       xml:space="preserve"
       transform="matrix(0.95734866,0,0,0.95734866,157.27444,176.15215)"
       clip-path="url(#clipPath17)"><tspan
         style="font-style:oblique;font-variant:normal;font-weight:normal;font-size:17px;font-family:Helvetica;writing-mode:lr-tb;fill:#000000;fill-opacity:1;fill-rule:nonzero;stroke:none"
         x="0 14.161133 23.615723 28.338867 37.793457 47.248047 56.702637"
         y="0"
         sodipodi:role="line"
         id="tspan16">method </tspan></text>
    <text
       id="text17"
       xml:space="preserve"
       transform="matrix(0.95734866,0,0,0.95734866,216.09154,176.15215)"
       clip-path="url(#clipPath18)"><tspan
         style="font-variant:normal;font-weight:normal;font-size:17px;font-family:Helvetica;writing-mode:lr-tb;fill:#000000;fill-opacity:1;fill-rule:nonzero;stroke:none"
         x="0 9.4545898 18.90918 27.40918 36.86377 42.524902 51.979492 56.702637 66.157227 71.818359 80.318359 85.041504 90.702637 100.15723"
         y="0"
         sodipodi:role="line"
         id="tspan17">decorators run</tspan></text>
    <path
       id="path19"
       d="m 18,208 h 440 v 40 H 18 Z"
       style="fill:#ffffff;fill-opacity:1;fill-rule:nonzero;stroke:#000000;stroke-width:1;stroke-linecap:butt;stroke-linejoin:miter;stroke-miterlimit:10;stroke-dasharray:none;stroke-opacity:1"
       transform="matrix(0.95733906,0,0,0.95733906,0.47866953,0.47866953)"
       clip-path="url(#clipPath20)" />
    <text
       id="text20"
       xml:space="preserve"
       transform="matrix(0.95734866,0,0,0.95734866,81.703725,224.01959)"
       clip-path="url(#clipPath21)"><tspan
         style="font-variant:normal;font-weight:normal;font-size:17px;font-family:Helvetica;writing-mode:lr-tb;fill:#000000;fill-opacity:1;fill-rule:nonzero;stroke:none"
         x="0 12.276855 16.053711 25.508301 34.008301 42.508301 47.231445 56.686035 66.140625 74.640625 84.095215 89.756348 99.210938 103.93408 113.38867 119.0498 123.77295 133.22754 137.95068 142.67383 145.91943 163.17676 171.67676 181.13135 190.58594 195.30908 200.97021 210.4248 214.20166 217.97852 227.43311 233.09424 236.33984 241.06299 246.72412 256.17871 265.6333 274.1333 278.85645 282.6333 292.08789 300.58789"
         y="0"
         sodipodi:role="line"
         id="tspan20">Class decorator of '@controller' runs last</tspan></text>
    <path
       id="path22"
       d="m 18,258 h 440 v 40 H 18 Z"
       style="fill:#ffffff;fill-opacity:1;fill-rule:nonzero;stroke:#000000;stroke-width:1;stroke-linecap:butt;stroke-linejoin:miter;stroke-miterlimit:10;stroke-dasharray:none;stroke-opacity:1"
       transform="matrix(0.95733906,0,0,0.95733906,0.47866953,0.47866953)"
       clip-path="url(#clipPath23)" />
    <text
       id="text23"
       xml:space="preserve"
       transform="matrix(0.95734866,0,0,0.95734866,22.033978,262.31353)"
       clip-path="url(#clipPath24)"><tspan
         style="font-variant:normal;font-weight:normal;font-size:17px;font-family:Helvetica;writing-mode:lr-tb;fill:#000000;fill-opacity:1;fill-rule:nonzero;stroke:none"
         x="0 12.276855 16.053711 25.508301 34.008301 42.508301 47.231445 56.686035 66.140625 74.640625 84.095215 89.756348 99.210938 103.93408 113.38867 119.0498 123.77295 129.43408 138.88867 148.34326 157.79785 166.29785 171.021 185.18213 194.63672 199.35986 208.81445 218.26904 227.72363 232.44678 241.90137 246.62451 251.34766 257.00879 266.46338 280.62451 285.34766 294.80225 304.25684 312.75684 322.21143 326.93457 341.0957 350.55029 355.27344 364.72803 374.18262 383.63721 388.36035 393.0835 402.53809 411.99268 421.44727"
         y="0"
         sodipodi:role="line"
         id="tspan23">Class decorator reads metadata from each method, adds</tspan></text>
    <g
       id="g24" />
    <text
       id="text24"
       xml:space="preserve"
       transform="matrix(0.95734866,0,0,0.95734866,102.54102,282.41786)"
       clip-path="url(#clipPath25)"><tspan
         style="font-variant:normal;font-weight:normal;font-size:17px;font-family:Helvetica;writing-mode:lr-tb;fill:#000000;fill-opacity:1;fill-rule:nonzero;stroke:none"
         x="0 8.5 17.95459 32.115723 41.570312 45.347168 54.801758 59.524902 68.979492 73.702637 79.36377 88.818359 98.272949 102.99609 112.45068 117.17383 126.62842 136.08301 144.58301 154.0376 157.81445 162.5376 166.31445 175.76904 185.22363 193.72363 198.44678 203.16992 212.62451 217.34766 223.00879 232.46338 241.91797 246.64111 256.0957"
         y="0"
         sodipodi:role="line"
         id="tspan24">complete route deﬁnitions to router</tspan></text>
    <path
       id="path26"
       d="M 8,8 V 292.63"
       style="fill:none;stroke:#000000;stroke-width:1;stroke-linecap:butt;stroke-linejoin:miter;stroke-miterlimit:10;stroke-dasharray:none;stroke-opacity:1"
       transform="matrix(0.95733906,0,0,0.95733906,0.47866953,0.47866953)"
       clip-path="url(#clipPath27)" />
    <path
       id="path28"
       d="m 8,297.88 -3.5,-7 3.5,1.75 3.5,-1.75 z"
       style="fill:#000000;fill-opacity:1;fill-rule:nonzero;stroke:#000000;stroke-width:1;stroke-linecap:butt;stroke-linejoin:miter;stroke-miterlimit:10;stroke-dasharray:none;stroke-opacity:1"
       transform="matrix(0.95733906,0,0,0.95733906,0.47866953,0.47866953)"
       clip-path="url(#clipPath29)" />
  </g>
</svg>
