<?xml version="1.0" encoding="UTF-8" standalone="no"?>
<!-- Created with Inkscape (http://www.inkscape.org/) -->

<svg
   version="1.1"
   id="svg1"
   width="462.71997"
   height="196.15999"
   viewBox="0 0 462.71997 196.15999"
   sodipodi:docname="ts-11.pdf"
   xmlns:inkscape="http://www.inkscape.org/namespaces/inkscape"
   xmlns:sodipodi="http://sodipodi.sourceforge.net/DTD/sodipodi-0.dtd"
   xmlns="http://www.w3.org/2000/svg"
   xmlns:svg="http://www.w3.org/2000/svg">
  <defs
     id="defs1">
    <clipPath
       clipPathUnits="userSpaceOnUse"
       id="clipPath2">
      <path
         d="M 0,0 H 1445.8333 V 612.388 H 0 Z"
         transform="scale(0.33475507)"
         clip-rule="evenodd"
         id="path2" />
    </clipPath>
    <clipPath
       clipPathUnits="userSpaceOnUse"
       id="clipPath4">
      <path
         d="M 0,0 H 1445.8333 V 609.40076 H 0 Z"
         transform="matrix(0.33475507,0,0,0.33475507,-0.5,-0.5)"
         clip-rule="evenodd"
         id="path4" />
    </clipPath>
    <clipPath
       clipPathUnits="userSpaceOnUse"
       id="clipPath5">
      <path
         d="M 0,0 H 1445.8333 V 609.40076 H 0 Z"
         transform="matrix(0.33475173,0,0,0.33475173,-56.765625,-30)"
         clip-rule="evenodd"
         id="path5" />
    </clipPath>
    <clipPath
       clipPathUnits="userSpaceOnUse"
       id="clipPath7">
      <path
         d="M 0,0 H 1445.8333 V 609.40076 H 0 Z"
         transform="matrix(0.33475507,0,0,0.33475507,-0.5,-0.5)"
         clip-rule="evenodd"
         id="path7" />
    </clipPath>
    <clipPath
       clipPathUnits="userSpaceOnUse"
       id="clipPath8">
      <path
         d="M 0,0 H 1445.8333 V 609.40076 H 0 Z"
         transform="matrix(0.33475173,0,0,0.33475173,-91.703125,-67)"
         clip-rule="evenodd"
         id="path8" />
    </clipPath>
    <clipPath
       clipPathUnits="userSpaceOnUse"
       id="clipPath10">
      <path
         d="M 0,0 H 1445.8333 V 609.40076 H 0 Z"
         transform="matrix(0.33475507,0,0,0.33475507,-0.5,-0.5)"
         clip-rule="evenodd"
         id="path10" />
    </clipPath>
    <clipPath
       clipPathUnits="userSpaceOnUse"
       id="clipPath11">
      <path
         d="M 0,0 H 1445.8333 V 609.40076 H 0 Z"
         transform="matrix(0.33475173,0,0,0.33475173,-259.10938,-58)"
         clip-rule="evenodd"
         id="path11" />
    </clipPath>
    <clipPath
       clipPathUnits="userSpaceOnUse"
       id="clipPath12">
      <path
         d="M 0,0 H 1445.8333 V 609.40076 H 0 Z"
         transform="matrix(0.33475173,0,0,0.33475173,-336.04688,-74)"
         clip-rule="evenodd"
         id="path12" />
    </clipPath>
    <clipPath
       clipPathUnits="userSpaceOnUse"
       id="clipPath14">
      <path
         d="M 0,0 H 1445.8333 V 609.40076 H 0 Z"
         transform="matrix(0.33475507,0,0,0.33475507,-0.5,-0.5)"
         clip-rule="evenodd"
         id="path14" />
    </clipPath>
    <clipPath
       clipPathUnits="userSpaceOnUse"
       id="clipPath15">
      <path
         d="M 0,0 H 1445.8333 V 609.40076 H 0 Z"
         transform="matrix(0.33475173,0,0,0.33475173,-76.109375,-107)"
         clip-rule="evenodd"
         id="path15" />
    </clipPath>
    <clipPath
       clipPathUnits="userSpaceOnUse"
       id="clipPath17">
      <path
         d="M 0,0 H 1445.8333 V 609.40076 H 0 Z"
         transform="matrix(0.33475507,0,0,0.33475507,-0.5,-0.5)"
         clip-rule="evenodd"
         id="path17" />
    </clipPath>
    <clipPath
       clipPathUnits="userSpaceOnUse"
       id="clipPath18">
      <path
         d="M 0,0 H 1445.8333 V 609.40076 H 0 Z"
         transform="matrix(0.33475173,0,0,0.33475173,-248.26563,-98)"
         clip-rule="evenodd"
         id="path18" />
    </clipPath>
    <clipPath
       clipPathUnits="userSpaceOnUse"
       id="clipPath19">
      <path
         d="M 0,0 H 1445.8333 V 609.40076 H 0 Z"
         transform="matrix(0.33475173,0,0,0.33475173,-312.26563,-114)"
         clip-rule="evenodd"
         id="path19" />
    </clipPath>
    <clipPath
       clipPathUnits="userSpaceOnUse"
       id="clipPath21">
      <path
         d="M 0,0 H 1445.8333 V 609.40076 H 0 Z"
         transform="matrix(0.33475507,0,0,0.33475507,-0.5,-0.5)"
         clip-rule="evenodd"
         id="path21" />
    </clipPath>
    <clipPath
       clipPathUnits="userSpaceOnUse"
       id="clipPath22">
      <path
         d="M 0,0 H 1445.8333 V 609.40076 H 0 Z"
         transform="matrix(0.33475173,0,0,0.33475173,-100.67187,-147.00001)"
         clip-rule="evenodd"
         id="path22" />
    </clipPath>
    <clipPath
       clipPathUnits="userSpaceOnUse"
       id="clipPath24">
      <path
         d="M 0,0 H 1445.8333 V 609.40076 H 0 Z"
         transform="matrix(0.33475507,0,0,0.33475507,-0.5,-0.5)"
         clip-rule="evenodd"
         id="path24" />
    </clipPath>
    <clipPath
       clipPathUnits="userSpaceOnUse"
       id="clipPath25">
      <path
         d="M 0,0 H 1445.8333 V 609.40076 H 0 Z"
         transform="matrix(0.33475173,0,0,0.33475173,-321.96875,-146)"
         clip-rule="evenodd"
         id="path25" />
    </clipPath>
    <clipPath
       clipPathUnits="userSpaceOnUse"
       id="clipPath27">
      <path
         d="M 0,0 H 1445.8333 V 609.40076 H 0 Z"
         transform="matrix(0.33475507,0,0,0.33475507,-0.5,-0.5)"
         clip-rule="evenodd"
         id="path27" />
    </clipPath>
    <clipPath
       clipPathUnits="userSpaceOnUse"
       id="clipPath28">
      <path
         d="M 0,0 H 1445.8333 V 609.40076 H 0 Z"
         transform="matrix(0.33475173,0,0,0.33475173,-74.6875,-187)"
         clip-rule="evenodd"
         id="path28" />
    </clipPath>
    <clipPath
       clipPathUnits="userSpaceOnUse"
       id="clipPath30">
      <path
         d="M 0,0 H 1445.8333 V 609.40076 H 0 Z"
         transform="matrix(0.33475507,0,0,0.33475507,-0.5,-0.5)"
         clip-rule="evenodd"
         id="path30" />
    </clipPath>
    <clipPath
       clipPathUnits="userSpaceOnUse"
       id="clipPath31">
      <path
         d="M 0,0 H 1445.8333 V 609.40076 H 0 Z"
         transform="matrix(0.33475173,0,0,0.33475173,-247.89064,-178)"
         clip-rule="evenodd"
         id="path31" />
    </clipPath>
    <clipPath
       clipPathUnits="userSpaceOnUse"
       id="clipPath32">
      <path
         d="M 0,0 H 1445.8333 V 609.40076 H 0 Z"
         transform="matrix(0.33475173,0,0,0.33475173,-292.6875,-194)"
         clip-rule="evenodd"
         id="path32" />
    </clipPath>
  </defs>
  <sodipodi:namedview
     id="namedview1"
     pagecolor="#ffffff"
     bordercolor="#000000"
     borderopacity="0.25"
     inkscape:showpageshadow="2"
     inkscape:pageopacity="0.0"
     inkscape:pagecheckerboard="0"
     inkscape:deskcolor="#d1d1d1">
    <inkscape:page
       x="0"
       y="0"
       inkscape:label="1"
       id="page1"
       width="462.71997"
       height="196.15999"
       margin="0"
       bleed="0" />
  </sodipodi:namedview>
  <g
     id="g1"
     inkscape:groupmode="layer"
     inkscape:label="1">
    <path
       id="path1"
       d="M 0,0 H 484 V 205 H 0 Z"
       style="fill:#ffffff;fill-opacity:1;fill-rule:nonzero;stroke:none"
       transform="scale(0.95592274)"
       clip-path="url(#clipPath2)" />
    <path
       id="path3"
       d="M 1,1 H 481 V 41 H 1 Z"
       style="fill:#dae8fc;fill-opacity:1;fill-rule:nonzero;stroke:#6c8ebf;stroke-width:1;stroke-linecap:butt;stroke-linejoin:miter;stroke-miterlimit:10;stroke-dasharray:none;stroke-opacity:1"
       transform="matrix(0.95592274,0,0,0.95592274,0.47796137,0.47796137)"
       clip-path="url(#clipPath4)" />
    <text
       id="text4"
       xml:space="preserve"
       transform="matrix(0.95593228,0,0,0.95593228,54.264093,28.677968)"
       clip-path="url(#clipPath5)"><tspan
         style="font-variant:normal;font-weight:normal;font-size:26px;font-family:Helvetica;writing-mode:lr-tb;fill:#000000;fill-opacity:1;fill-rule:nonzero;stroke:none"
         x="0 17.341797 26 40.459961 54.919922 69.379883 78.038086 85.261719 98.261719 105.48535 124.26172 138.72168 151.72168 164.72168 173.37988 179.15625 193.61621 200.83984 215.2998 223.95801 231.18164 238.40527 252.86523 261.52344 268.74707 290.40527 304.86523 312.08887 326.54883 341.00879 355.46875"
         y="0"
         sodipodi:role="line"
         id="tspan4">Property Descriptor for Methods</tspan></text>
    <path
       id="path6"
       d="M 1,41 H 241 V 81 H 1 Z"
       style="fill:#ffffff;fill-opacity:1;fill-rule:nonzero;stroke:#000000;stroke-width:1;stroke-linecap:butt;stroke-linejoin:miter;stroke-miterlimit:10;stroke-dasharray:none;stroke-opacity:1"
       transform="matrix(0.95592274,0,0,0.95592274,0.47796137,0.47796137)"
       clip-path="url(#clipPath7)" />
    <text
       id="text7"
       xml:space="preserve"
       transform="matrix(0.95593228,0,0,0.95593228,87.661977,64.047463)"
       clip-path="url(#clipPath8)"><tspan
         style="font-variant:normal;font-weight:normal;font-size:17px;font-family:Helvetica;writing-mode:lr-tb;fill:#000000;fill-opacity:1;fill-rule:nonzero;stroke:none"
         x="0 12.276855 17.937988 21.714844 26.437988 35.892578 45.347168 49.124023"
         y="0"
         sodipodi:role="line"
         id="tspan7">writable</tspan></text>
    <path
       id="path9"
       d="M 241,41 H 481 V 81 H 241 Z"
       style="fill:#ffffff;fill-opacity:1;fill-rule:nonzero;stroke:#000000;stroke-width:1;stroke-linecap:butt;stroke-linejoin:miter;stroke-miterlimit:10;stroke-dasharray:none;stroke-opacity:1"
       transform="matrix(0.95592274,0,0,0.95592274,0.47796137,0.47796137)"
       clip-path="url(#clipPath10)" />
    <text
       id="text10"
       xml:space="preserve"
       transform="matrix(0.95593228,0,0,0.95593228,247.69102,55.444072)"
       clip-path="url(#clipPath11)"><tspan
         style="font-variant:normal;font-weight:normal;font-size:13px;font-family:Helvetica;writing-mode:lr-tb;fill:#000000;fill-opacity:1;fill-rule:nonzero;stroke:none"
         x="0 12.27002 19.5 26.72998 30.341797 37.571777 44.801758 49.130859 52.742676 59.972656 64.301758 67.913574 75.143555 82.373535 85.985352 89.597168 93.208984 100.43896 103.32715 109.82715 113.43896 120.66895 124.99805 132.22803 139.45801 146.68799 151.01709 154.62891 161.12891 164.74072 171.24072 178.4707 185.70068 189.3125 196.54248"
         y="0"
         sodipodi:role="line"
         id="tspan10">Whether or not this property can be</tspan></text>
    <text
       id="text11"
       xml:space="preserve"
       transform="matrix(0.95593228,0,0,0.95593228,321.23806,70.738989)"
       clip-path="url(#clipPath12)"><tspan
         style="font-variant:normal;font-weight:normal;font-size:13px;font-family:Helvetica;writing-mode:lr-tb;fill:#000000;fill-opacity:1;fill-rule:nonzero;stroke:none"
         x="0 6.5 13.72998 20.959961 28.189941 35.419922 42.649902"
         y="0"
         sodipodi:role="line"
         id="tspan11">changed</tspan></text>
    <path
       id="path13"
       d="m 1,81 h 240 v 40 H 1 Z"
       style="fill:#ffffff;fill-opacity:1;fill-rule:nonzero;stroke:#000000;stroke-width:1;stroke-linecap:butt;stroke-linejoin:miter;stroke-miterlimit:10;stroke-dasharray:none;stroke-opacity:1"
       transform="matrix(0.95592274,0,0,0.95592274,0.47796137,0.47796137)"
       clip-path="url(#clipPath14)" />
    <text
       id="text14"
       xml:space="preserve"
       transform="matrix(0.95593228,0,0,0.95593228,72.755408,102.28475)"
       clip-path="url(#clipPath15)"><tspan
         style="font-variant:normal;font-weight:normal;font-size:17px;font-family:Helvetica;writing-mode:lr-tb;fill:#000000;fill-opacity:1;fill-rule:nonzero;stroke:none"
         x="0 9.4545898 18.90918 28.36377 42.524902 51.979492 57.640625 67.095215 76.549805 80.32666"
         y="0"
         sodipodi:role="line"
         id="tspan14">enumerable</tspan></text>
    <path
       id="path16"
       d="m 241,81 h 240 v 40 H 241 Z"
       style="fill:#ffffff;fill-opacity:1;fill-rule:nonzero;stroke:#000000;stroke-width:1;stroke-linecap:butt;stroke-linejoin:miter;stroke-miterlimit:10;stroke-dasharray:none;stroke-opacity:1"
       transform="matrix(0.95592274,0,0,0.95592274,0.47796137,0.47796137)"
       clip-path="url(#clipPath17)" />
    <text
       id="text17"
       xml:space="preserve"
       transform="matrix(0.95593228,0,0,0.95593228,237.32513,93.681363)"
       clip-path="url(#clipPath18)"><tspan
         style="font-variant:normal;font-weight:normal;font-size:13px;font-family:Helvetica;writing-mode:lr-tb;fill:#000000;fill-opacity:1;fill-rule:nonzero;stroke:none"
         x="0 12.27002 19.5 26.72998 30.341797 37.571777 44.801758 49.130859 52.742676 59.972656 64.301758 67.913574 75.143555 82.373535 85.985352 89.597168 93.208984 100.43896 103.32715 109.82715 113.43896 120.66895 124.99805 132.22803 139.45801 146.68799 151.01709 154.62891 161.12891 164.74072 171.9707 179.20068 182.8125 186.42432 189.3125 196.54248 203.77246 211.00244 218.23242"
         y="0"
         sodipodi:role="line"
         id="tspan17">Whether or not this property get looped</tspan></text>
    <text
       id="text18"
       xml:space="preserve"
       transform="matrix(0.95593228,0,0,0.95593228,298.5048,108.97628)"
       clip-path="url(#clipPath19)"><tspan
         style="font-variant:normal;font-weight:normal;font-size:13px;font-family:Helvetica;writing-mode:lr-tb;fill:#000000;fill-opacity:1;fill-rule:nonzero;stroke:none"
         x="0 7.2299805 13.72998 20.959961 25.289062 28.900879 36.130859 42.630859 46.242676 53.472656 57.084473 59.566406 63.178223 70.408203 74.026367 77.638184 81.25 84.861816 87.75 94.97998"
         y="0"
         sodipodi:role="line"
         id="tspan18">over by a 'for...in'</tspan></text>
    <path
       id="path20"
       d="m 1,121 h 240 v 40 H 1 Z"
       style="fill:#ffffff;fill-opacity:1;fill-rule:nonzero;stroke:#000000;stroke-width:1;stroke-linecap:butt;stroke-linejoin:miter;stroke-miterlimit:10;stroke-dasharray:none;stroke-opacity:1"
       transform="matrix(0.95592274,0,0,0.95592274,0.47796137,0.47796137)"
       clip-path="url(#clipPath21)" />
    <text
       id="text21"
       xml:space="preserve"
       transform="matrix(0.95593228,0,0,0.95593228,96.235495,140.52205)"
       clip-path="url(#clipPath22)"><tspan
         style="font-variant:normal;font-weight:normal;font-size:17px;font-family:Helvetica;writing-mode:lr-tb;fill:#000000;fill-opacity:1;fill-rule:nonzero;stroke:none"
         x="0 8.5 17.95459 21.731445 31.186035"
         y="0"
         sodipodi:role="line"
         id="tspan21">value</tspan></text>
    <path
       id="path23"
       d="m 241,121 h 240 v 40 H 241 Z"
       style="fill:#ffffff;fill-opacity:1;fill-rule:nonzero;stroke:#000000;stroke-width:1;stroke-linecap:butt;stroke-linejoin:miter;stroke-miterlimit:10;stroke-dasharray:none;stroke-opacity:1"
       transform="matrix(0.95592274,0,0,0.95592274,0.47796137,0.47796137)"
       clip-path="url(#clipPath24)" />
    <text
       id="text24"
       xml:space="preserve"
       transform="matrix(0.95593228,0,0,0.95593228,307.78032,139.56611)"
       clip-path="url(#clipPath25)"><tspan
         style="font-variant:normal;font-weight:normal;font-size:13px;font-family:Helvetica;writing-mode:lr-tb;fill:#000000;fill-opacity:1;fill-rule:nonzero;stroke:none"
         x="0 9.3881836 16.618164 20.947266 25.276367 32.506348 39.736328 43.348145 46.959961 53.459961 60.689941 63.578125 70.808105"
         y="0"
         sodipodi:role="line"
         id="tspan24">Current value</tspan></text>
    <path
       id="path26"
       d="m 1,161 h 240 v 40 H 1 Z"
       style="fill:#ffffff;fill-opacity:1;fill-rule:nonzero;stroke:#000000;stroke-width:1;stroke-linecap:butt;stroke-linejoin:miter;stroke-miterlimit:10;stroke-dasharray:none;stroke-opacity:1"
       transform="matrix(0.95592274,0,0,0.95592274,0.47796137,0.47796137)"
       clip-path="url(#clipPath27)" />
    <g
       id="g27" />
    <text
       id="text27"
       xml:space="preserve"
       transform="matrix(0.95593228,0,0,0.95593228,71.396192,178.75934)"
       clip-path="url(#clipPath28)"><tspan
         style="font-variant:normal;font-weight:normal;font-size:17px;font-family:Helvetica;writing-mode:lr-tb;fill:#000000;fill-opacity:1;fill-rule:nonzero;stroke:none"
         x="0 8.5 17.95459 27.40918 35.90918 45.36377 54.818359 60.479492 69.934082 79.388672 83.165527"
         y="0"
         sodipodi:role="line"
         id="tspan27">conﬁgurable</tspan></text>
    <path
       id="path29"
       d="m 241,161 h 240 v 40 H 241 Z"
       style="fill:#ffffff;fill-opacity:1;fill-rule:nonzero;stroke:#000000;stroke-width:1;stroke-linecap:butt;stroke-linejoin:miter;stroke-miterlimit:10;stroke-dasharray:none;stroke-opacity:1"
       transform="matrix(0.95592274,0,0,0.95592274,0.47796137,0.47796137)"
       clip-path="url(#clipPath30)" />
    <g
       id="g30" />
    <text
       id="text30"
       xml:space="preserve"
       transform="matrix(0.95593228,0,0,0.95593228,236.96666,170.15595)"
       clip-path="url(#clipPath31)"><tspan
         style="font-variant:normal;font-weight:normal;font-size:13px;font-family:Helvetica;writing-mode:lr-tb;fill:#000000;fill-opacity:1;fill-rule:nonzero;stroke:none"
         x="0 8.6708984 13 20.22998 27.459961 34.689941 39.019043 42.630859 49.130859 52.742676 59.972656 67.202637 73.702637 80.932617 83.820801 87.432617 90.320801 97.550781 104.78076 108.39258 114.89258 122.12256 129.35254 132.96436 140.19434 147.42432 151.03613 157.53613 164.76611 171.99609 179.22607 186.45605 193.68604 200.91602 204.52783 211.75781 218.98779"
         y="0"
         sodipodi:role="line"
         id="tspan30">Property deﬁnition can be changed and</tspan></text>
    <text
       id="text31"
       xml:space="preserve"
       transform="matrix(0.95593228,0,0,0.95593228,279.78943,185.45086)"
       clip-path="url(#clipPath32)"><tspan
         style="font-variant:normal;font-weight:normal;font-size:13px;font-family:Helvetica;writing-mode:lr-tb;fill:#000000;fill-opacity:1;fill-rule:nonzero;stroke:none"
         x="0 7.2299805 11.559082 18.789062 26.019043 33.249023 37.578125 41.189941 47.689941 51.301758 57.801758 65.031738 72.261719 75.873535 83.103516 90.333496 93.945312 101.17529 108.40527 111.29346 118.52344 122.13525 129.36523"
         y="0"
         sodipodi:role="line"
         id="tspan31">property can be deleted</tspan></text>
  </g>
</svg>
