<?xml version="1.0" encoding="UTF-8" standalone="no"?>
<!-- Created with Inkscape (http://www.inkscape.org/) -->

<svg
   version="1.1"
   id="svg1"
   width="272"
   height="234.56"
   viewBox="0 0 272 234.56"
   sodipodi:docname="ts-13.pdf"
   xmlns:inkscape="http://www.inkscape.org/namespaces/inkscape"
   xmlns:sodipodi="http://sodipodi.sourceforge.net/DTD/sodipodi-0.dtd"
   xmlns="http://www.w3.org/2000/svg"
   xmlns:svg="http://www.w3.org/2000/svg">
  <defs
     id="defs1">
    <clipPath
       clipPathUnits="userSpaceOnUse"
       id="clipPath2">
      <path
         d="M 0,0 H 850 V 733.27466 H 0 Z"
         transform="scale(0.33411764)"
         clip-rule="evenodd"
         id="path2" />
    </clipPath>
    <clipPath
       clipPathUnits="userSpaceOnUse"
       id="clipPath4">
      <path
         d="M 0,0 H 850 V 730.28174 H 0 Z"
         transform="matrix(0.33411764,0,0,0.33411764,-0.5,-0.5)"
         clip-rule="evenodd"
         id="path4" />
    </clipPath>
    <clipPath
       clipPathUnits="userSpaceOnUse"
       id="clipPath6">
      <path
         d="M 0,0 H 850 V 730.28174 H 0 Z"
         transform="matrix(0.33411764,0,0,0.33411764,-0.5,-0.5)"
         clip-rule="evenodd"
         id="path6" />
    </clipPath>
    <clipPath
       clipPathUnits="userSpaceOnUse"
       id="clipPath8">
      <path
         d="M 0,0 H 850 V 730.28174 H 0 Z"
         transform="matrix(0.33411764,0,0,0.33411764,-0.5,-0.5)"
         clip-rule="evenodd"
         id="path8" />
    </clipPath>
    <clipPath
       clipPathUnits="userSpaceOnUse"
       id="clipPath9">
      <path
         d="M 0,0 H 850 V 730.28174 H 0 Z"
         transform="matrix(0.33411428,0,0,0.33411428,-36.234375,-40)"
         clip-rule="evenodd"
         id="path9" />
    </clipPath>
    <clipPath
       clipPathUnits="userSpaceOnUse"
       id="clipPath10">
      <path
         d="M 0,0 H 850 V 730.28174 H 0 Z"
         transform="matrix(0.33411428,0,0,0.33411428,-46.828125,-67)"
         clip-rule="evenodd"
         id="path10" />
    </clipPath>
    <clipPath
       clipPathUnits="userSpaceOnUse"
       id="clipPath12">
      <path
         d="M 0,0 H 850 V 730.28174 H 0 Z"
         transform="matrix(0.33411764,0,0,0.33411764,-0.5,-0.5)"
         clip-rule="evenodd"
         id="path12" />
    </clipPath>
    <clipPath
       clipPathUnits="userSpaceOnUse"
       id="clipPath13">
      <path
         d="M 0,0 H 850 V 730.28174 H 0 Z"
         transform="matrix(0.33411428,0,0,0.33411428,-18.421875,-172)"
         clip-rule="evenodd"
         id="path13" />
    </clipPath>
    <clipPath
       clipPathUnits="userSpaceOnUse"
       id="clipPath14">
      <path
         d="M 0,0 H 850 V 730.28174 H 0 Z"
         transform="matrix(0.33411428,0,0,0.33411428,-125.60937,-172)"
         clip-rule="evenodd"
         id="path14" />
    </clipPath>
    <clipPath
       clipPathUnits="userSpaceOnUse"
       id="clipPath15">
      <path
         d="M 0,0 H 850 V 730.28174 H 0 Z"
         transform="matrix(0.33411428,0,0,0.33411428,-166.23437,-172)"
         clip-rule="evenodd"
         id="path15" />
    </clipPath>
    <clipPath
       clipPathUnits="userSpaceOnUse"
       id="clipPath16">
      <path
         d="M 0,0 H 850 V 730.28174 H 0 Z"
         transform="matrix(0.33411428,0,0,0.33411428,-24.90625,-192)"
         clip-rule="evenodd"
         id="path16" />
    </clipPath>
    <clipPath
       clipPathUnits="userSpaceOnUse"
       id="clipPath17">
      <path
         d="M 0,0 H 850 V 730.28174 H 0 Z"
         transform="matrix(0.33411428,0,0,0.33411428,-8.3749999,-213)"
         clip-rule="evenodd"
         id="path17" />
    </clipPath>
    <clipPath
       clipPathUnits="userSpaceOnUse"
       id="clipPath18">
      <path
         d="M 0,0 H 850 V 730.28174 H 0 Z"
         transform="matrix(0.33411428,0,0,0.33411428,-81.453124,-233)"
         clip-rule="evenodd"
         id="path18" />
    </clipPath>
  </defs>
  <sodipodi:namedview
     id="namedview1"
     pagecolor="#ffffff"
     bordercolor="#000000"
     borderopacity="0.25"
     inkscape:showpageshadow="2"
     inkscape:pageopacity="0.0"
     inkscape:pagecheckerboard="0"
     inkscape:deskcolor="#d1d1d1">
    <inkscape:page
       x="0"
       y="0"
       inkscape:label="1"
       id="page1"
       width="272"
       height="234.56"
       margin="0"
       bleed="0" />
  </sodipodi:namedview>
  <g
     id="g1"
     inkscape:groupmode="layer"
     inkscape:label="1">
    <path
       id="path1"
       d="M 0,0 H 284 V 245 H 0 Z"
       style="fill:#ffffff;fill-opacity:1;fill-rule:nonzero;stroke:none"
       transform="scale(0.95774646)"
       clip-path="url(#clipPath2)" />
    <path
       id="path3"
       d="m 141,91 v 53.63"
       style="fill:none;stroke:#000000;stroke-width:1;stroke-linecap:butt;stroke-linejoin:miter;stroke-miterlimit:10;stroke-dasharray:none;stroke-opacity:1"
       transform="matrix(0.95774646,0,0,0.95774646,0.47887323,0.47887323)"
       clip-path="url(#clipPath4)" />
    <path
       id="path5"
       d="m 141,149.88 -3.5,-7 3.5,1.75 3.5,-1.75 z"
       style="fill:#000000;fill-opacity:1;fill-rule:nonzero;stroke:#000000;stroke-width:1;stroke-linecap:butt;stroke-linejoin:miter;stroke-miterlimit:10;stroke-dasharray:none;stroke-opacity:1"
       transform="matrix(0.95774646,0,0,0.95774646,0.47887323,0.47887323)"
       clip-path="url(#clipPath6)" />
    <path
       id="path7"
       d="M 1,1 H 281 V 91 H 1 Z"
       style="fill:#dae8fc;fill-opacity:1;fill-rule:nonzero;stroke:#6c8ebf;stroke-width:1;stroke-linecap:butt;stroke-linejoin:miter;stroke-miterlimit:10;stroke-dasharray:none;stroke-opacity:1"
       transform="matrix(0.95774646,0,0,0.95774646,0.47887323,0.47887323)"
       clip-path="url(#clipPath8)" />
    <text
       id="text8"
       xml:space="preserve"
       transform="matrix(0.95775609,0,0,0.95775609,34.703693,38.310244)"
       clip-path="url(#clipPath9)"><tspan
         style="font-variant:normal;font-weight:normal;font-size:22px;font-family:Helvetica;writing-mode:lr-tb;fill:#000000;fill-opacity:1;fill-rule:nonzero;stroke:none"
         x="0 19.958984 32.194336 39.520508 51.755859 56.643555 68.878906 81.114258 87.226562 93.338867 105.57422 112.90039 125.13574 131.24805 137.36035 148.36035 154.47266 160.58496 172.82031 185.05566 197.29102"
         y="0"
         sodipodi:role="line"
         id="tspan8">Warning: pretty tough</tspan></text>
    <text
       id="text9"
       xml:space="preserve"
       transform="matrix(0.95775609,0,0,0.95775609,44.849922,64.169658)"
       clip-path="url(#clipPath10)"><tspan
         style="font-variant:normal;font-weight:normal;font-size:22px;font-family:Helvetica;writing-mode:lr-tb;fill:#000000;fill-opacity:1;fill-rule:nonzero;stroke:none"
         x="0 11 23.235352 35.470703 41.583008 53.818359 66.053711 72.166016 78.27832 89.27832 95.390625 107.62598 114.95215 121.06445 132.06445 138.17676 150.41211 162.64746 169.97363 182.20898"
         y="0"
         sodipodi:role="line"
         id="tspan9">content starts here.</tspan></text>
    <path
       id="path11"
       d="m 1,151 h 280 v 90 H 1 Z"
       style="fill:#dae8fc;fill-opacity:1;fill-rule:nonzero;stroke:#6c8ebf;stroke-width:1;stroke-linecap:butt;stroke-linejoin:miter;stroke-miterlimit:10;stroke-dasharray:none;stroke-opacity:1"
       transform="matrix(0.95774646,0,0,0.95774646,0.47887323,0.47887323)"
       clip-path="url(#clipPath12)" />
    <text
       id="text12"
       xml:space="preserve"
       transform="matrix(0.95775609,0,0,0.95775609,17.643663,164.73405)"
       clip-path="url(#clipPath13)"><tspan
         style="font-variant:normal;font-weight:normal;font-size:17px;font-family:Helvetica;writing-mode:lr-tb;fill:#000000;fill-opacity:1;fill-rule:nonzero;stroke:none"
         x="0 12.276855 21.731445 25.508301 34.962891 43.462891 51.962891 56.686035 65.186035 74.640625 84.095215 87.34082 93.001953 102.45654"
         y="0"
         sodipodi:role="line"
         id="tspan12">Unless you're </tspan></text>
    <text
       id="text13"
       xml:space="preserve"
       transform="matrix(0.95775609,0,0,0.95775609,120.30314,164.73405)"
       clip-path="url(#clipPath14)"><tspan
         style="font-style:oblique;font-variant:normal;font-weight:normal;font-size:17px;font-family:Helvetica;writing-mode:lr-tb;fill:#000000;fill-opacity:1;fill-rule:nonzero;stroke:none"
         x="0 5.6611328 15.115723 24.570312 28.347168 32.124023"
         y="0"
         sodipodi:role="line"
         id="tspan13">really</tspan></text>
    <text
       id="text14"
       xml:space="preserve"
       transform="matrix(0.95775609,0,0,0.95775609,159.21198,164.73405)"
       clip-path="url(#clipPath15)"><tspan
         style="font-variant:normal;font-weight:normal;font-size:17px;font-family:Helvetica;writing-mode:lr-tb;fill:#000000;fill-opacity:1;fill-rule:nonzero;stroke:none"
         x="0 4.7231445 8.5 17.95459 22.677734 32.132324 37.793457 47.248047 55.748047 60.471191 69.925781 79.380371 84.103516 87.880371"
         y="0"
         sodipodi:role="line"
         id="tspan14"> interested in</tspan></text>
    <text
       id="text15"
       xml:space="preserve"
       transform="matrix(0.95775609,0,0,0.95775609,23.854113,183.88917)"
       clip-path="url(#clipPath16)"><tspan
         style="font-variant:normal;font-weight:normal;font-size:17px;font-family:Helvetica;writing-mode:lr-tb;fill:#000000;fill-opacity:1;fill-rule:nonzero;stroke:none"
         x="0 9.4545898 18.90918 23.632324 28.355469 32.132324 41.586914 51.041504 55.46582 64.92041 73.42041 82.875 92.32959 100.82959 109.32959 114.99072 118.76758 128.22217 132.94531 137.66846 147.12305 156.57764 166.03223 170.75537 182.09424 190.59424 200.04883 205.70996 215.16455 223.66455"
         y="0"
         sodipodi:role="line"
         id="tspan15">getting Typescript and Express</tspan></text>
    <text
       id="text16"
       xml:space="preserve"
       transform="matrix(0.95775609,0,0,0.95775609,8.0212072,204.00205)"
       clip-path="url(#clipPath17)"><tspan
         style="font-variant:normal;font-weight:normal;font-size:17px;font-family:Helvetica;writing-mode:lr-tb;fill:#000000;fill-opacity:1;fill-rule:nonzero;stroke:none"
         x="0 12.276855 21.731445 27.392578 35.892578 39.669434 49.124023 58.578613 63.301758 68.024902 77.479492 86.934082 96.388672 101.11182 110.56641 120.021 125.68213 130.40527 139.85986 143.63672 152.13672 161.59131 165.36816 172.61475 177.33789 182.06104 190.56104 200.01562 209.47021 214.19336 217.97021 227.4248 236.87939 246.33398 251.05713 255.78027"
         y="0"
         sodipodi:role="line"
         id="tspan16">working together nicely, continue to</tspan></text>
    <text
       id="text17"
       xml:space="preserve"
       transform="matrix(0.95775609,0,0,0.95775609,78.012226,223.15717)"
       clip-path="url(#clipPath18)"><tspan
         style="font-variant:normal;font-weight:normal;font-size:17px;font-family:Helvetica;writing-mode:lr-tb;fill:#000000;fill-opacity:1;fill-rule:nonzero;stroke:none"
         x="0 4.7231445 14.177734 23.632324 28.355469 37.810059 47.264648 55.764648 60.487793 65.210938 73.710938 83.165527 91.665527 96.388672 100.16553 109.62012"
         y="0"
         sodipodi:role="line"
         id="tspan17">the next section</tspan></text>
  </g>
</svg>
