<?xml version="1.0" encoding="UTF-8" standalone="no"?>
<!-- Created with Inkscape (http://www.inkscape.org/) -->

<svg
   version="1.1"
   id="svg1"
   width="645.44"
   height="197.44"
   viewBox="0 0 645.44 197.44"
   sodipodi:docname="ts-10.pdf"
   xmlns:inkscape="http://www.inkscape.org/namespaces/inkscape"
   xmlns:sodipodi="http://sodipodi.sourceforge.net/DTD/sodipodi-0.dtd"
   xmlns="http://www.w3.org/2000/svg"
   xmlns:svg="http://www.w3.org/2000/svg">
  <defs
     id="defs1">
    <clipPath
       clipPathUnits="userSpaceOnUse"
       id="clipPath2">
      <path
         d="M 0,0 H 2016.6665 V 616.36987 H 0 Z"
         transform="scale(0.33421489)"
         clip-rule="evenodd"
         id="path2" />
    </clipPath>
    <clipPath
       clipPathUnits="userSpaceOnUse"
       id="clipPath4">
      <path
         d="M 0,0 H 2016.6665 V 613.37781 H 0 Z"
         transform="matrix(0.33421489,0,0,0.33421489,-0.49999999,-0.49999999)"
         clip-rule="evenodd"
         id="path4" />
    </clipPath>
    <clipPath
       clipPathUnits="userSpaceOnUse"
       id="clipPath5">
      <path
         d="M 0,0 H 2016.6665 V 613.37781 H 0 Z"
         transform="matrix(0.33421154,0,0,0.33421154,-17.734375,-81)"
         clip-rule="evenodd"
         id="path5" />
    </clipPath>
    <clipPath
       clipPathUnits="userSpaceOnUse"
       id="clipPath6">
      <path
         d="M 0,0 H 2016.6665 V 613.37781 H 0 Z"
         transform="matrix(0.33421154,0,0,0.33421154,-10.59375,-107)"
         clip-rule="evenodd"
         id="path6" />
    </clipPath>
    <clipPath
       clipPathUnits="userSpaceOnUse"
       id="clipPath7">
      <path
         d="M 0,0 H 2016.6665 V 613.37781 H 0 Z"
         transform="matrix(0.33421154,0,0,0.33421154,-51.96875,-134)"
         clip-rule="evenodd"
         id="path7" />
    </clipPath>
    <clipPath
       clipPathUnits="userSpaceOnUse"
       id="clipPath9">
      <path
         d="M 0,0 H 2016.6665 V 613.37781 H 0 Z"
         transform="matrix(0.33421489,0,0,0.33421489,-0.49999999,-0.49999999)"
         clip-rule="evenodd"
         id="path9" />
    </clipPath>
    <clipPath
       clipPathUnits="userSpaceOnUse"
       id="clipPath11">
      <path
         d="M 0,0 H 2016.6665 V 613.37781 H 0 Z"
         transform="matrix(0.33421489,0,0,0.33421489,-0.49999999,-0.49999999)"
         clip-rule="evenodd"
         id="path11" />
    </clipPath>
    <clipPath
       clipPathUnits="userSpaceOnUse"
       id="clipPath12">
      <path
         d="M 0,0 H 2016.6665 V 613.37781 H 0 Z"
         transform="matrix(0.33421154,0,0,0.33421154,-303.15625,-29)"
         clip-rule="evenodd"
         id="path12" />
    </clipPath>
    <clipPath
       clipPathUnits="userSpaceOnUse"
       id="clipPath13">
      <path
         d="M 0,0 H 2016.6665 V 613.37781 H 0 Z"
         transform="matrix(0.33421154,0,0,0.33421154,-453.43749,-29)"
         clip-rule="evenodd"
         id="path13" />
    </clipPath>
    <clipPath
       clipPathUnits="userSpaceOnUse"
       id="clipPath14">
      <path
         d="M 0,0 H 2016.6665 V 613.37781 H 0 Z"
         transform="matrix(0.33421154,0,0,0.33421154,-531.65625,-29)"
         clip-rule="evenodd"
         id="path14" />
    </clipPath>
    <clipPath
       clipPathUnits="userSpaceOnUse"
       id="clipPath16">
      <path
         d="M 0,0 H 2016.6665 V 613.37781 H 0 Z"
         transform="matrix(0.33421489,0,0,0.33421489,-0.49999999,-0.49999999)"
         clip-rule="evenodd"
         id="path16" />
    </clipPath>
    <clipPath
       clipPathUnits="userSpaceOnUse"
       id="clipPath17">
      <path
         d="M 0,0 H 2016.6665 V 613.37781 H 0 Z"
         transform="matrix(0.33421154,0,0,0.33421154,-339.59375,-71)"
         clip-rule="evenodd"
         id="path17" />
    </clipPath>
    <clipPath
       clipPathUnits="userSpaceOnUse"
       id="clipPath18">
      <path
         d="M 0,0 H 2016.6665 V 613.37781 H 0 Z"
         transform="matrix(0.33421154,0,0,0.33421154,-320.46875,-90.999999)"
         clip-rule="evenodd"
         id="path18" />
    </clipPath>
    <clipPath
       clipPathUnits="userSpaceOnUse"
       id="clipPath20">
      <path
         d="M 0,0 H 2016.6665 V 613.37781 H 0 Z"
         transform="matrix(0.33421489,0,0,0.33421489,-0.49999999,-0.49999999)"
         clip-rule="evenodd"
         id="path20" />
    </clipPath>
    <clipPath
       clipPathUnits="userSpaceOnUse"
       id="clipPath21">
      <path
         d="M 0,0 H 2016.6665 V 613.37781 H 0 Z"
         transform="matrix(0.33421154,0,0,0.33421154,-252.45313,-122)"
         clip-rule="evenodd"
         id="path21" />
    </clipPath>
    <clipPath
       clipPathUnits="userSpaceOnUse"
       id="clipPath22">
      <path
         d="M 0,0 H 2016.6665 V 613.37781 H 0 Z"
         transform="matrix(0.33421154,0,0,0.33421154,-432.53125,-142)"
         clip-rule="evenodd"
         id="path22" />
    </clipPath>
    <clipPath
       clipPathUnits="userSpaceOnUse"
       id="clipPath24">
      <path
         d="M 0,0 H 2016.6665 V 613.37781 H 0 Z"
         transform="matrix(0.33421489,0,0,0.33421489,-0.49999999,-0.49999999)"
         clip-rule="evenodd"
         id="path24" />
    </clipPath>
    <clipPath
       clipPathUnits="userSpaceOnUse"
       id="clipPath25">
      <path
         d="M 0,0 H 2016.6665 V 613.37781 H 0 Z"
         transform="matrix(0.33421154,0,0,0.33421154,-257.32813,-174)"
         clip-rule="evenodd"
         id="path25" />
    </clipPath>
    <clipPath
       clipPathUnits="userSpaceOnUse"
       id="clipPath26">
      <path
         d="M 0,0 H 2016.6665 V 613.37781 H 0 Z"
         transform="matrix(0.33421154,0,0,0.33421154,-334.75,-194)"
         clip-rule="evenodd"
         id="path26" />
    </clipPath>
    <clipPath
       clipPathUnits="userSpaceOnUse"
       id="clipPath27">
      <path
         d="M 0,0 H 2016.6665 V 613.37781 H 0 Z"
         transform="matrix(0.33421154,0,0,0.33421154,-340.07813,-194)"
         clip-rule="evenodd"
         id="path27" />
    </clipPath>
    <clipPath
       clipPathUnits="userSpaceOnUse"
       id="clipPath28">
      <path
         d="M 0,0 H 2016.6665 V 613.37781 H 0 Z"
         transform="matrix(0.33421154,0,0,0.33421154,-581.92188,-194)"
         clip-rule="evenodd"
         id="path28" />
    </clipPath>
  </defs>
  <sodipodi:namedview
     id="namedview1"
     pagecolor="#ffffff"
     bordercolor="#000000"
     borderopacity="0.25"
     inkscape:showpageshadow="2"
     inkscape:pageopacity="0.0"
     inkscape:pagecheckerboard="0"
     inkscape:deskcolor="#d1d1d1">
    <inkscape:page
       x="0"
       y="0"
       inkscape:label="1"
       id="page1"
       width="645.44"
       height="197.44"
       margin="0"
       bleed="0" />
  </sodipodi:namedview>
  <g
     id="g1"
     inkscape:groupmode="layer"
     inkscape:label="1">
    <path
       id="path1"
       d="M 0,0 H 674 V 206 H 0 Z"
       style="fill:#ffffff;fill-opacity:1;fill-rule:nonzero;stroke:none"
       transform="scale(0.95746777)"
       clip-path="url(#clipPath2)" />
    <path
       id="path3"
       d="m 1,51 h 190 v 98 H 1 Z"
       style="fill:#dae8fc;fill-opacity:1;fill-rule:nonzero;stroke:#6c8ebf;stroke-width:1;stroke-linecap:butt;stroke-linejoin:miter;stroke-miterlimit:10;stroke-dasharray:none;stroke-opacity:1"
       transform="matrix(0.95746777,0,0,0.95746777,0.47873388,0.47873388)"
       clip-path="url(#clipPath4)" />
    <text
       id="text4"
       xml:space="preserve"
       transform="matrix(0.95747737,0,0,0.95747737,16.980263,77.555667)"
       clip-path="url(#clipPath5)"><tspan
         style="font-variant:normal;font-weight:normal;font-size:22px;font-family:Helvetica;writing-mode:lr-tb;fill:#000000;fill-opacity:1;fill-rule:nonzero;stroke:none"
         x="0 15.887695 28.123047 39.123047 51.358398 58.68457 70.919922 77.032227 89.267578 96.59375 107.59375 113.70605 125.94141 138.17676 144.28906"
         y="0"
         sodipodi:role="line"
         id="tspan4">Decorators on a</tspan></text>
    <text
       id="text5"
       xml:space="preserve"
       transform="matrix(0.95747737,0,0,0.95747737,10.143276,102.45008)"
       clip-path="url(#clipPath6)"><tspan
         style="font-variant:normal;font-weight:normal;font-size:22px;font-family:Helvetica;writing-mode:lr-tb;fill:#000000;fill-opacity:1;fill-rule:nonzero;stroke:none"
         x="0 12.235352 19.561523 31.796875 44.032227 56.267578 63.59375 69.706055 79.083984 85.196289 91.308594 109.63477 121.87012 127.98242 140.21777 152.45312 164.68848"
         y="0"
         sodipodi:role="line"
         id="tspan5">property, method,</tspan></text>
    <text
       id="text6"
       xml:space="preserve"
       transform="matrix(0.95747737,0,0,0.95747737,49.758902,128.30197)"
       clip-path="url(#clipPath7)"><tspan
         style="font-variant:normal;font-weight:normal;font-size:22px;font-family:Helvetica;writing-mode:lr-tb;fill:#000000;fill-opacity:1;fill-rule:nonzero;stroke:none"
         x="0 12.235352 23.235352 34.235352 46.470703 57.470703 68.470703 80.706055"
         y="0"
         sodipodi:role="line"
         id="tspan6">accessor</tspan></text>
    <path
       id="path8"
       d="m 241,2 h -15 c -6.66667,0 -10,3.333333 -10,10 v 80 c 0,6.666664 -3.33333,10 -10,10 h -7.5 c -5,0 -4.16667,0 2.5,0 h 7.5 c 5,0 7.5,3.33334 7.5,10 v 80 c 0,6.66667 3.33333,10 10,10 h 15"
       style="fill:none;stroke:#000000;stroke-width:1;stroke-linecap:butt;stroke-linejoin:miter;stroke-miterlimit:10;stroke-dasharray:none;stroke-opacity:1"
       transform="matrix(0.95746777,0,0,0.95746777,0.47873388,0.47873388)"
       clip-path="url(#clipPath9)" />
    <path
       id="path10"
       d="M 251,1 H 671 V 46 H 251 Z"
       style="fill:#ffffff;fill-opacity:1;fill-rule:nonzero;stroke:#000000;stroke-width:1;stroke-linecap:butt;stroke-linejoin:miter;stroke-miterlimit:10;stroke-dasharray:none;stroke-opacity:1"
       transform="matrix(0.95746777,0,0,0.95746777,0.47873388,0.47873388)"
       clip-path="url(#clipPath11)" />
    <text
       id="text11"
       xml:space="preserve"
       transform="matrix(0.95747737,0,0,0.95747737,290.26525,27.766844)"
       clip-path="url(#clipPath12)"><tspan
         style="font-variant:normal;font-weight:normal;font-size:16px;font-family:Helvetica;writing-mode:lr-tb;fill:#000000;fill-opacity:1;fill-rule:nonzero;stroke:none"
         x="0 9.7734375 13.328125 18.65625 26.65625 31.101562 35.546875 44.445312 49.773438 58.671875 67.570312 80.898438 89.796875 98.695312 103.14062 107.58594 111.14062 119.14062 123.58594 128.03125 136.92969 145.82812"
         y="0"
         sodipodi:role="line"
         id="tspan11">First argument is the </tspan></text>
    <text
       id="text12"
       xml:space="preserve"
       transform="matrix(0.95747737,0,0,0.95747737,434.15614,27.766844)"
       clip-path="url(#clipPath13)"><tspan
         style="font-style:oblique;font-variant:normal;font-weight:700;font-size:16px;font-family:Helvetica;writing-mode:lr-tb;fill:#000000;fill-opacity:1;fill-rule:nonzero;stroke:none"
         x="0 9.7734375 16 25.773438 31.101562 40.875 46.203125 55.101562 64.875 73.773438"
         y="0"
         sodipodi:role="line"
         id="tspan12">prototype </tspan></text>
    <text
       id="text13"
       xml:space="preserve"
       transform="matrix(0.95747737,0,0,0.95747737,509.04883,27.766844)"
       clip-path="url(#clipPath14)"><tspan
         style="font-variant:normal;font-weight:normal;font-size:16px;font-family:Helvetica;writing-mode:lr-tb;fill:#000000;fill-opacity:1;fill-rule:nonzero;stroke:none"
         x="0 8.8984375 13.34375 17.789062 22.234375 31.132812 40.03125 44.476562 53.375 62.273438 65.828125 74.726562 82.726562"
         y="0"
         sodipodi:role="line"
         id="tspan13">of the object</tspan></text>
    <path
       id="path15"
       d="M 251,53 H 671 V 98 H 251 Z"
       style="fill:#ffffff;fill-opacity:1;fill-rule:nonzero;stroke:#000000;stroke-width:1;stroke-linecap:butt;stroke-linejoin:miter;stroke-miterlimit:10;stroke-dasharray:none;stroke-opacity:1"
       transform="matrix(0.95746777,0,0,0.95746777,0.47873388,0.47873388)"
       clip-path="url(#clipPath16)" />
    <text
       id="text16"
       xml:space="preserve"
       transform="matrix(0.95747737,0,0,0.95747737,325.15333,67.980893)"
       clip-path="url(#clipPath17)"><tspan
         style="font-variant:normal;font-weight:normal;font-size:16px;font-family:Helvetica;writing-mode:lr-tb;fill:#000000;fill-opacity:1;fill-rule:nonzero;stroke:none"
         x="0 10.671875 19.570312 27.570312 36.46875 45.367188 54.265625 58.710938 67.609375 72.9375 81.835938 90.734375 104.0625 112.96094 121.85938 126.30469 130.75 134.30469 142.30469 146.75 151.19531 160.09375 168.99219 173.4375 181.4375 190.33594 198.33594 202.78125 211.67969 216.125 220.57031 225.01562 233.91406"
         y="0"
         sodipodi:role="line"
         id="tspan16">Second argument is the key of the</tspan></text>
    <text
       id="text17"
       xml:space="preserve"
       transform="matrix(0.95747737,0,0,0.95747737,306.84158,87.13044)"
       clip-path="url(#clipPath18)"><tspan
         style="font-variant:normal;font-weight:normal;font-size:16px;font-family:Helvetica;writing-mode:lr-tb;fill:#000000;fill-opacity:1;fill-rule:nonzero;stroke:none"
         x="0 8.8984375 14.226562 23.125 32.023438 40.921875 46.25 50.695312 58.695312 63.140625 76.46875 85.367188 89.8125 98.710938 107.60938 116.50781 120.95312 129.85156 137.85156 145.85156 154.75 162.75 170.75 179.64844 184.97656 189.42188 198.32031 207.21875 211.66406 216.10938 225.00781 233.90625 238.35156 247.25 256.14844 259.70312 268.60156 276.60156"
         y="0"
         sodipodi:role="line"
         id="tspan17">property/method/accessor on the object</tspan></text>
    <path
       id="path19"
       d="m 251,104 h 420 v 45 H 251 Z"
       style="fill:#ffffff;fill-opacity:1;fill-rule:nonzero;stroke:#000000;stroke-width:1;stroke-linecap:butt;stroke-linejoin:miter;stroke-miterlimit:10;stroke-dasharray:none;stroke-opacity:1"
       transform="matrix(0.95746777,0,0,0.95746777,0.47873388,0.47873388)"
       clip-path="url(#clipPath20)" />
    <text
       id="text20"
       xml:space="preserve"
       transform="matrix(0.95747737,0,0,0.95747737,241.71816,116.81224)"
       clip-path="url(#clipPath21)"><tspan
         style="font-variant:normal;font-weight:normal;font-size:16px;font-family:Helvetica;writing-mode:lr-tb;fill:#000000;fill-opacity:1;fill-rule:nonzero;stroke:none"
         x="0 9.7734375 18.671875 22.226562 27.554688 36.453125 40.898438 49.796875 55.125 64.023438 72.921875 86.25 95.148438 104.04688 108.49219 112.9375 116.49219 124.49219 128.9375 133.38281 142.28125 151.17969 155.625 164.52344 169.85156 178.75 187.64844 196.54688 201.875 206.32031 214.32031 218.76562 227.66406 236.5625 244.5625 252.5625 257.89062 261.44531 270.34375 274.78906 283.6875 289.01562 293.46094 298.78906 312.11719 321.01562 326.34375 335.24219 339.6875 348.58594 357.48438 361.92969 366.375 375.27344 378.82812 386.82812 391.27344 394.82812 403.72656 408.17188"
         y="0"
         sodipodi:role="line"
         id="tspan20">Third argument is the property descriptor (more on this in a</tspan></text>
    <text
       id="text21"
       xml:space="preserve"
       transform="matrix(0.95747737,0,0,0.95747737,414.13888,135.96179)"
       clip-path="url(#clipPath22)"><tspan
         style="font-variant:normal;font-weight:normal;font-size:16px;font-family:Helvetica;writing-mode:lr-tb;fill:#000000;fill-opacity:1;fill-rule:nonzero;stroke:none"
         x="0 8 16.898438 24.898438 33.796875 42.695312 51.59375"
         y="0"
         sodipodi:role="line"
         id="tspan21">second)</tspan></text>
    <path
       id="path23"
       d="m 251,156 h 420 v 45 H 251 Z"
       style="fill:#ffffff;fill-opacity:1;fill-rule:nonzero;stroke:#000000;stroke-width:1;stroke-linecap:butt;stroke-linejoin:miter;stroke-miterlimit:10;stroke-dasharray:none;stroke-opacity:1"
       transform="matrix(0.95746777,0,0,0.95746777,0.47873388,0.47873388)"
       clip-path="url(#clipPath24)" />
    <text
       id="text24"
       xml:space="preserve"
       transform="matrix(0.95747737,0,0,0.95747737,246.38586,166.60106)"
       clip-path="url(#clipPath25)"><tspan
         style="font-variant:normal;font-weight:normal;font-size:16px;font-family:Helvetica;writing-mode:lr-tb;fill:#000000;fill-opacity:1;fill-rule:nonzero;stroke:none"
         x="0 11.554688 20.453125 28.453125 37.351562 42.679688 51.578125 56.023438 64.921875 70.25 78.25 82.695312 91.59375 96.921875 105.82031 110.26562 119.16406 128.0625 136.96094 140.51562 144.07031 152.96875 161.86719 166.3125 177.86719 186.76562 195.66406 204.5625 209.00781 213.45312 222.35156 231.25 235.69531 243.69531 252.59375 261.49219 270.39062 274.83594 279.28125 288.17969 293.50781 297.95312 302.39844 311.29688 314.85156 322.85156 327.29688 335.29688 338.85156 347.75 355.75 363.75 368.19531 371.75 379.75 384.19531 389.52344 398.42188"
         y="0"
         sodipodi:role="line"
         id="tspan24">Decorators are applied when the code for this class is ran</tspan></text>
    <text
       id="text25"
       xml:space="preserve"
       transform="matrix(0.95747737,0,0,0.95747737,320.51555,185.75061)"
       clip-path="url(#clipPath26)"><tspan
         style="font-variant:normal;font-weight:normal;font-size:16px;font-family:Helvetica;writing-mode:lr-tb;fill:#000000;fill-opacity:1;fill-rule:nonzero;stroke:none"
         x="0"
         y="0"
         id="tspan25">(</tspan></text>
    <text
       id="text26"
       xml:space="preserve"
       transform="matrix(0.95747737,0,0,0.95747737,325.61711,185.75061)"
       clip-path="url(#clipPath27)"><tspan
         style="font-variant:normal;font-weight:700;font-size:16px;font-family:Helvetica;writing-mode:lr-tb;fill:#000000;fill-opacity:1;fill-rule:nonzero;stroke:none"
         x="0 9.7734375 19.546875 24.875 29.320312 41.765625 51.539062 60.4375 70.210938 74.65625 83.554688 93.328125 97.773438 102.21875 111.99219 120.89062 126.21875 135.11719 144.89062 153.78906 162.6875 167.13281 171.57812 180.47656 184.92188 193.82031 200.04688 208.94531 217.84375 223.17188 232.07031"
         y="0"
         sodipodi:role="line"
         id="tspan26">not when an instance is created</tspan></text>
    <text
       id="text27"
       xml:space="preserve"
       transform="matrix(0.95747737,0,0,0.95747737,557.17703,185.75061)"
       clip-path="url(#clipPath28)"><tspan
         style="font-variant:normal;font-weight:normal;font-size:16px;font-family:Helvetica;writing-mode:lr-tb;fill:#000000;fill-opacity:1;fill-rule:nonzero;stroke:none"
         x="0"
         y="0"
         id="tspan27">)</tspan></text>
  </g>
</svg>
