<?xml version="1.0" encoding="UTF-8" standalone="no"?>
<!-- Created with Inkscape (http://www.inkscape.org/) -->

<svg
   version="1.1"
   id="svg1"
   width="462.71997"
   height="196.15999"
   viewBox="0 0 462.71997 196.15999"
   sodipodi:docname="ts-15.pdf"
   xmlns:inkscape="http://www.inkscape.org/namespaces/inkscape"
   xmlns:sodipodi="http://sodipodi.sourceforge.net/DTD/sodipodi-0.dtd"
   xmlns="http://www.w3.org/2000/svg"
   xmlns:svg="http://www.w3.org/2000/svg">
  <defs
     id="defs1">
    <clipPath
       clipPathUnits="userSpaceOnUse"
       id="clipPath2">
      <path
         d="M 0,0 H 1445.8333 V 612.388 H 0 Z"
         transform="scale(0.33475507)"
         clip-rule="evenodd"
         id="path2" />
    </clipPath>
    <clipPath
       clipPathUnits="userSpaceOnUse"
       id="clipPath4">
      <path
         d="M 0,0 H 1445.8333 V 609.40076 H 0 Z"
         transform="matrix(0.33475507,0,0,0.33475507,-0.5,-0.5)"
         clip-rule="evenodd"
         id="path4" />
    </clipPath>
    <clipPath
       clipPathUnits="userSpaceOnUse"
       id="clipPath5">
      <path
         d="M 0,0 H 1445.8333 V 609.40076 H 0 Z"
         transform="matrix(0.33475173,0,0,0.33475173,-24.15625,-107)"
         clip-rule="evenodd"
         id="path5" />
    </clipPath>
    <clipPath
       clipPathUnits="userSpaceOnUse"
       id="clipPath7">
      <path
         d="M 0,0 H 1445.8333 V 609.40076 H 0 Z"
         transform="matrix(0.33475507,0,0,0.33475507,-0.5,-0.5)"
         clip-rule="evenodd"
         id="path7" />
    </clipPath>
    <clipPath
       clipPathUnits="userSpaceOnUse"
       id="clipPath9">
      <path
         d="M 0,0 H 1445.8333 V 609.40076 H 0 Z"
         transform="matrix(0.33475507,0,0,0.33475507,-0.5,-0.5)"
         clip-rule="evenodd"
         id="path9" />
    </clipPath>
    <clipPath
       clipPathUnits="userSpaceOnUse"
       id="clipPath10">
      <path
         d="M 0,0 H 1445.8333 V 609.40076 H 0 Z"
         transform="matrix(0.33475173,0,0,0.33475173,-175.01563,-57)"
         clip-rule="evenodd"
         id="path10" />
    </clipPath>
    <clipPath
       clipPathUnits="userSpaceOnUse"
       id="clipPath11">
      <path
         d="M 0,0 H 1445.8333 V 609.40076 H 0 Z"
         transform="matrix(0.33475173,0,0,0.33475173,-286.64063,-72)"
         clip-rule="evenodd"
         id="path11" />
    </clipPath>
    <clipPath
       clipPathUnits="userSpaceOnUse"
       id="clipPath13">
      <path
         d="M 0,0 H 1445.8333 V 609.40076 H 0 Z"
         transform="matrix(0.33475507,0,0,0.33475507,-0.5,-0.5)"
         clip-rule="evenodd"
         id="path13" />
    </clipPath>
    <clipPath
       clipPathUnits="userSpaceOnUse"
       id="clipPath14">
      <path
         d="M 0,0 H 1445.8333 V 609.40076 H 0 Z"
         transform="matrix(0.33475173,0,0,0.33475173,-232.71875,-106)"
         clip-rule="evenodd"
         id="path14" />
    </clipPath>
    <clipPath
       clipPathUnits="userSpaceOnUse"
       id="clipPath16">
      <path
         d="M 0,0 H 1445.8333 V 609.40076 H 0 Z"
         transform="matrix(0.33475507,0,0,0.33475507,-0.5,-0.5)"
         clip-rule="evenodd"
         id="path16" />
    </clipPath>
    <clipPath
       clipPathUnits="userSpaceOnUse"
       id="clipPath17">
      <path
         d="M 0,0 H 1445.8333 V 609.40076 H 0 Z"
         transform="matrix(0.33475173,0,0,0.33475173,-183.92188,-140)"
         clip-rule="evenodd"
         id="path17" />
    </clipPath>
    <clipPath
       clipPathUnits="userSpaceOnUse"
       id="clipPath18">
      <path
         d="M 0,0 H 1445.8333 V 609.40076 H 0 Z"
         transform="matrix(0.33475173,0,0,0.33475173,-300.96875,-155)"
         clip-rule="evenodd"
         id="path18" />
    </clipPath>
    <clipPath
       clipPathUnits="userSpaceOnUse"
       id="clipPath20">
      <path
         d="M 0,0 H 1445.8333 V 609.40076 H 0 Z"
         transform="matrix(0.33475507,0,0,0.33475507,-0.5,-0.5)"
         clip-rule="evenodd"
         id="path20" />
    </clipPath>
    <clipPath
       clipPathUnits="userSpaceOnUse"
       id="clipPath21">
      <path
         d="M 0,0 H 1445.8333 V 609.40076 H 0 Z"
         transform="matrix(0.33475173,0,0,0.33475173,-185.23438,-188)"
         clip-rule="evenodd"
         id="path21" />
    </clipPath>
    <clipPath
       clipPathUnits="userSpaceOnUse"
       id="clipPath23">
      <path
         d="M 0,0 H 1445.8333 V 609.40076 H 0 Z"
         transform="matrix(0.33475507,0,0,0.33475507,-0.5,-0.5)"
         clip-rule="evenodd"
         id="path23" />
    </clipPath>
    <clipPath
       clipPathUnits="userSpaceOnUse"
       id="clipPath24">
      <path
         d="M 0,0 H 1445.8333 V 609.40076 H 0 Z"
         transform="matrix(0.33475173,0,0,0.33475173,-182.90625,-15.999999)"
         clip-rule="evenodd"
         id="path24" />
    </clipPath>
    <clipPath
       clipPathUnits="userSpaceOnUse"
       id="clipPath25">
      <path
         d="M 0,0 H 1445.8333 V 609.40076 H 0 Z"
         transform="matrix(0.33475173,0,0,0.33475173,-316.32813,-31)"
         clip-rule="evenodd"
         id="path25" />
    </clipPath>
  </defs>
  <sodipodi:namedview
     id="namedview1"
     pagecolor="#ffffff"
     bordercolor="#000000"
     borderopacity="0.25"
     inkscape:showpageshadow="2"
     inkscape:pageopacity="0.0"
     inkscape:pagecheckerboard="0"
     inkscape:deskcolor="#d1d1d1">
    <inkscape:page
       x="0"
       y="0"
       inkscape:label="1"
       id="page1"
       width="462.71997"
       height="196.15999"
       margin="0"
       bleed="0" />
  </sodipodi:namedview>
  <g
     id="g1"
     inkscape:groupmode="layer"
     inkscape:label="1">
    <path
       id="path1"
       d="M 0,0 H 484 V 205 H 0 Z"
       style="fill:#ffffff;fill-opacity:1;fill-rule:nonzero;stroke:none"
       transform="scale(0.95592274)"
       clip-path="url(#clipPath2)" />
    <path
       id="path3"
       d="m 1,71 h 120 v 60 H 1 Z"
       style="fill:#dae8fc;fill-opacity:1;fill-rule:nonzero;stroke:#6c8ebf;stroke-width:1;stroke-linecap:butt;stroke-linejoin:miter;stroke-miterlimit:10;stroke-dasharray:none;stroke-opacity:1"
       transform="matrix(0.95592274,0,0,0.95592274,0.47796137,0.47796137)"
       clip-path="url(#clipPath4)" />
    <text
       id="text4"
       xml:space="preserve"
       transform="matrix(0.95593228,0,0,0.95593228,23.091739,102.28475)"
       clip-path="url(#clipPath5)"><tspan
         style="font-variant:normal;font-weight:700;font-size:17px;font-family:Helvetica;writing-mode:lr-tb;fill:#000000;fill-opacity:1;fill-rule:nonzero;stroke:none"
         x="0 14.161133 23.615723 29.276855 38.731445 49.115723 58.570312 64.231445"
         y="0"
         sodipodi:role="line"
         id="tspan4">Metadata</tspan></text>
    <path
       id="path6"
       d="m 161,1 h -10 c -6.66667,0 -10,3.333333 -10,10 v 80 c 0,6.666664 -3.33333,10 -10,10 h -5 c -3.33334,0 -1.66666,0 5,0 h 5 c 3.33333,0 5,3.33334 5,10 v 80 c 0,6.66667 3.33333,10 10,10 h 10"
       style="fill:none;stroke:#000000;stroke-width:1;stroke-linecap:butt;stroke-linejoin:miter;stroke-miterlimit:10;stroke-dasharray:none;stroke-opacity:1"
       transform="matrix(0.95592274,0,0,0.95592274,0.47796137,0.47796137)"
       clip-path="url(#clipPath7)" />
    <path
       id="path8"
       d="M 171,42 H 481 V 77 H 171 Z"
       style="fill:#ffffff;fill-opacity:1;fill-rule:nonzero;stroke:#000000;stroke-width:1;stroke-linecap:butt;stroke-linejoin:miter;stroke-miterlimit:10;stroke-dasharray:none;stroke-opacity:1"
       transform="matrix(0.95592274,0,0,0.95592274,0.47796137,0.47796137)"
       clip-path="url(#clipPath9)" />
    <text
       id="text9"
       xml:space="preserve"
       transform="matrix(0.95593228,0,0,0.95593228,167.30309,54.48814)"
       clip-path="url(#clipPath10)"><tspan
         style="font-variant:normal;font-weight:normal;font-size:12px;font-family:Helvetica;writing-mode:lr-tb;fill:#000000;fill-opacity:1;fill-rule:nonzero;stroke:none"
         x="0 8.0039062 14.677734 17.34375 24.017578 30.691406 37.365234 40.699219 46.699219 50.033203 56.707031 60.041016 63.375 66.041016 72.714844 76.048828 82.722656 86.056641 89.390625 96.064453 102.73828 106.07227 109.40625 115.40625 122.08008 128.75391 132.08789 138.76172 145.43555 148.76953 152.10352 154.76953 161.44336 168.11719 171.45117 174.78516 181.45898 184.79297 191.4668 194.80078 204.79688 211.4707 214.80469 221.47852 228.15234 234.82617 238.16016 241.49414 248.16797 252.16406 258.83789 265.51172 272.18555 276.18164 279.51562 284.63086 287.96484 291.29883 297.97266"
         y="0"
         sodipodi:role="line"
         id="tspan9">Snippets of info that can be tied to a method, property, or</tspan></text>
    <g
       id="g10" />
    <text
       id="text10"
       xml:space="preserve"
       transform="matrix(0.95593228,0,0,0.95593228,274.00903,68.827124)"
       clip-path="url(#clipPath11)"><tspan
         style="font-variant:normal;font-weight:normal;font-size:12px;font-family:Helvetica;writing-mode:lr-tb;fill:#000000;fill-opacity:1;fill-rule:nonzero;stroke:none"
         x="0 6 8.6660156 15.339844 21.339844 27.339844 30.673828 37.347656 44.021484 50.021484 56.695312 59.361328 62.695312 65.361328 72.035156"
         y="0"
         sodipodi:role="line"
         id="tspan10">class deﬁnition</tspan></text>
    <path
       id="path12"
       d="m 171,84 h 310 v 35 H 171 Z"
       style="fill:#ffffff;fill-opacity:1;fill-rule:nonzero;stroke:#000000;stroke-width:1;stroke-linecap:butt;stroke-linejoin:miter;stroke-miterlimit:10;stroke-dasharray:none;stroke-opacity:1"
       transform="matrix(0.95592274,0,0,0.95592274,0.47796137,0.47796137)"
       clip-path="url(#clipPath13)" />
    <text
       id="text13"
       xml:space="preserve"
       transform="matrix(0.95593228,0,0,0.95593228,222.46337,101.32882)"
       clip-path="url(#clipPath14)"><tspan
         style="font-variant:normal;font-weight:normal;font-size:12px;font-family:Helvetica;writing-mode:lr-tb;fill:#000000;fill-opacity:1;fill-rule:nonzero;stroke:none"
         x="0 8.6660156 15.339844 22.013672 25.347656 32.021484 38.695312 42.029297 48.703125 54.703125 61.376953 68.050781 71.384766 74.71875 81.392578 85.388672 88.722656 94.722656 101.39648 108.07031 114.74414 118.74023 122.07422 128.07422 134.74805 140.74805 144.08203 150.75586 160.75195 164.08594 170.08594 173.41992 180.09375 183.2168"
         y="0"
         sodipodi:role="line"
         id="tspan13">Can be used for super custom stuff</tspan></text>
    <path
       id="path15"
       d="m 171,125 h 310 v 35 H 171 Z"
       style="fill:#ffffff;fill-opacity:1;fill-rule:nonzero;stroke:#000000;stroke-width:1;stroke-linecap:butt;stroke-linejoin:miter;stroke-miterlimit:10;stroke-dasharray:none;stroke-opacity:1"
       transform="matrix(0.95592274,0,0,0.95592274,0.47796137,0.47796137)"
       clip-path="url(#clipPath16)" />
    <text
       id="text16"
       xml:space="preserve"
       transform="matrix(0.95593228,0,0,0.95593228,175.81686,133.83052)"
       clip-path="url(#clipPath17)"><tspan
         style="font-variant:normal;font-weight:normal;font-size:12px;font-family:Helvetica;writing-mode:lr-tb;fill:#000000;fill-opacity:1;fill-rule:nonzero;stroke:none"
         x="0 6.6738281 12.673828 19.347656 26.021484 32.021484 38.021484 42.017578 44.683594 51.357422 54.691406 58.025391 66.691406 69.357422 72.023438 74.689453 78.023438 82.019531 88.693359 95.367188 98.701172 101.36719 108.04102 114.71484 121.38867 124.05469 126.7207 132.7207 136.7168 140.05078 146.72461 150.7207 157.39453 163.39453 166.06055 172.73438 179.4082 182.74219 186.07617 192.07617 198.75 205.42383 208.75781 211.42383 218.09766 221.43164 228.10547 232.10156 242.09766 248.77148 252.10547 254.77148 261.44531 268.11914 271.45312 278.12695"
         y="0"
         sodipodi:role="line"
         id="tspan16">Typescript will (optionally) provide type information as</tspan></text>
    <text
       id="text17"
       xml:space="preserve"
       transform="matrix(0.95593228,0,0,0.95593228,287.70574,148.1695)"
       clip-path="url(#clipPath18)"><tspan
         style="font-variant:normal;font-weight:normal;font-size:12px;font-family:Helvetica;writing-mode:lr-tb;fill:#000000;fill-opacity:1;fill-rule:nonzero;stroke:none"
         x="0 9.9960938 16.669922 20.003906 26.677734 33.351562 40.025391 43.359375"
         y="0"
         sodipodi:role="line"
         id="tspan17">metadata</tspan></text>
    <path
       id="path19"
       d="m 171,166 h 310 v 35 H 171 Z"
       style="fill:#ffffff;fill-opacity:1;fill-rule:nonzero;stroke:#000000;stroke-width:1;stroke-linecap:butt;stroke-linejoin:miter;stroke-miterlimit:10;stroke-dasharray:none;stroke-opacity:1"
       transform="matrix(0.95592274,0,0,0.95592274,0.47796137,0.47796137)"
       clip-path="url(#clipPath20)" />
    <g
       id="g20" />
    <text
       id="text20"
       xml:space="preserve"
       transform="matrix(0.95593228,0,0,0.95593228,177.07152,179.71527)"
       clip-path="url(#clipPath21)"><tspan
         style="font-variant:normal;font-weight:normal;font-size:12px;font-family:Helvetica;writing-mode:lr-tb;fill:#000000;fill-opacity:1;fill-rule:nonzero;stroke:none"
         x="0 8.6660156 15.339844 22.013672 28.6875 32.021484 38.695312 45.369141 52.042969 55.376953 64.042969 68.039062 70.705078 74.039062 77.373047 84.046875 90.720703 94.054688 100.72852 106.72852 109.39453 116.06836 122.74219 126.07617 129.41016 136.08398 142.75781 146.0918 150.08789 156.76172 162.76172 169.43555 175.43555 178.76953 182.76562 192.76172 199.43555 202.76953 209.44336 216.11719 222.79102 226.125 232.79883 236.13281 242.80664 249.48047 255.48047 261.48047 268.1543 274.82812"
         y="0"
         sodipodi:role="line"
         id="tspan20">Read and written using the reﬂect-metadata package</tspan></text>
    <path
       id="path22"
       d="M 171,1 H 481 V 36 H 171 Z"
       style="fill:#ffffff;fill-opacity:1;fill-rule:nonzero;stroke:#000000;stroke-width:1;stroke-linecap:butt;stroke-linejoin:miter;stroke-miterlimit:10;stroke-dasharray:none;stroke-opacity:1"
       transform="matrix(0.95592274,0,0,0.95592274,0.47796137,0.47796137)"
       clip-path="url(#clipPath23)" />
    <text
       id="text23"
       xml:space="preserve"
       transform="matrix(0.95593228,0,0,0.95593228,174.84599,15.294916)"
       clip-path="url(#clipPath24)"><tspan
         style="font-variant:normal;font-weight:normal;font-size:12px;font-family:Helvetica;writing-mode:lr-tb;fill:#000000;fill-opacity:1;fill-rule:nonzero;stroke:none"
         x="0 8.0039062 12 18.673828 25.347656 32.021484 38.021484 44.695312 51.369141 54.703125 58.037109 64.710938 71.384766 74.71875 81.392578 85.388672 92.0625 95.396484 98.730469 105.4043 108.73828 115.41211 122.08594 125.41992 132.09375 138.76758 145.44141 152.11523 158.78906 162.12305 165.45703 172.13086 175.46484 181.46484 188.13867 194.13867 200.8125 206.8125 212.8125 216.80859 219.47461 226.14844 229.48242 232.81641 236.8125 243.48633 250.16016 256.83398 260.16797 263.50195 270.17578 276.84961 282.84961"
         y="0"
         sodipodi:role="line"
         id="tspan23">Proposed feature to be added to Javascript (and thus,</tspan></text>
    <text
       id="text24"
       xml:space="preserve"
       transform="matrix(0.95593228,0,0,0.95593228,302.38827,29.633901)"
       clip-path="url(#clipPath25)"><tspan
         style="font-variant:normal;font-weight:normal;font-size:12px;font-family:Helvetica;writing-mode:lr-tb;fill:#000000;fill-opacity:1;fill-rule:nonzero;stroke:none"
         x="0 7.3300781 15.333984"
         y="0"
         sodipodi:role="line"
         id="tspan24">TS)</tspan></text>
  </g>
</svg>
