<?xml version="1.0" encoding="UTF-8" standalone="no"?>
<!-- Created with Inkscape (http://www.inkscape.org/) -->

<svg
   version="1.1"
   id="svg1"
   width="404.16"
   height="326.72"
   viewBox="0 0 404.16 326.72"
   sodipodi:docname="ts-12.pdf"
   xmlns:inkscape="http://www.inkscape.org/namespaces/inkscape"
   xmlns:sodipodi="http://sodipodi.sourceforge.net/DTD/sodipodi-0.dtd"
   xmlns="http://www.w3.org/2000/svg"
   xmlns:svg="http://www.w3.org/2000/svg">
  <defs
     id="defs1">
    <clipPath
       clipPathUnits="userSpaceOnUse"
       id="clipPath2">
      <path
         d="M 0,0 H 1262.5 V 1020.1718 H 0 Z"
         transform="scale(0.33425743)"
         clip-rule="evenodd"
         id="path2" />
    </clipPath>
    <clipPath
       clipPathUnits="userSpaceOnUse"
       id="clipPath4">
      <path
         d="M 0,0 H 1262.5 V 1014.1884 H 0 Z"
         transform="matrix(0.33425743,0,0,0.33425743,-0.50000001,-0.50000001)"
         clip-rule="evenodd"
         id="path4" />
    </clipPath>
    <clipPath
       clipPathUnits="userSpaceOnUse"
       id="clipPath5">
      <path
         d="M 0,0 H 1262.5 V 1014.1884 H 0 Z"
         transform="matrix(0.33425407,0,0,0.33425407,-116.84375,-29)"
         clip-rule="evenodd"
         id="path5" />
    </clipPath>
    <clipPath
       clipPathUnits="userSpaceOnUse"
       id="clipPath7">
      <path
         d="M 0,0 H 1262.5 V 1014.1884 H 0 Z"
         transform="matrix(0.33425743,0,0,0.33425743,-0.50000001,-0.50000001)"
         clip-rule="evenodd"
         id="path7" />
    </clipPath>
    <clipPath
       clipPathUnits="userSpaceOnUse"
       id="clipPath8">
      <path
         d="M 0,0 H 1262.5 V 1014.1884 H 0 Z"
         transform="matrix(0.33425407,0,0,0.33425407,-171.64063,-59)"
         clip-rule="evenodd"
         id="path8" />
    </clipPath>
    <clipPath
       clipPathUnits="userSpaceOnUse"
       id="clipPath10">
      <path
         d="M 0,0 H 1262.5 V 1014.1884 H 0 Z"
         transform="matrix(0.33425743,0,0,0.33425743,-0.50000001,-0.50000001)"
         clip-rule="evenodd"
         id="path10" />
    </clipPath>
    <clipPath
       clipPathUnits="userSpaceOnUse"
       id="clipPath11">
      <path
         d="M 0,0 H 1262.5 V 1014.1884 H 0 Z"
         transform="matrix(0.33425407,0,0,0.33425407,-165.03125,-89)"
         clip-rule="evenodd"
         id="path11" />
    </clipPath>
    <clipPath
       clipPathUnits="userSpaceOnUse"
       id="clipPath13">
      <path
         d="M 0,0 H 1262.5 V 1014.1884 H 0 Z"
         transform="matrix(0.33425743,0,0,0.33425743,-0.50000001,-0.50000001)"
         clip-rule="evenodd"
         id="path13" />
    </clipPath>
    <clipPath
       clipPathUnits="userSpaceOnUse"
       id="clipPath14">
      <path
         d="M 0,0 H 1262.5 V 1014.1884 H 0 Z"
         transform="matrix(0.33425407,0,0,0.33425407,-167.875,-119)"
         clip-rule="evenodd"
         id="path14" />
    </clipPath>
    <clipPath
       clipPathUnits="userSpaceOnUse"
       id="clipPath16">
      <path
         d="M 0,0 H 1262.5 V 1014.1884 H 0 Z"
         transform="matrix(0.33425743,0,0,0.33425743,-0.50000001,-0.50000001)"
         clip-rule="evenodd"
         id="path16" />
    </clipPath>
    <clipPath
       clipPathUnits="userSpaceOnUse"
       id="clipPath17">
      <path
         d="M 0,0 H 1262.5 V 1014.1884 H 0 Z"
         transform="matrix(0.33425407,0,0,0.33425407,-160.3125,-159)"
         clip-rule="evenodd"
         id="path17" />
    </clipPath>
    <clipPath
       clipPathUnits="userSpaceOnUse"
       id="clipPath19">
      <path
         d="M 0,0 H 1262.5 V 1014.1884 H 0 Z"
         transform="matrix(0.33425743,0,0,0.33425743,-0.50000001,-0.50000001)"
         clip-rule="evenodd"
         id="path19" />
    </clipPath>
    <clipPath
       clipPathUnits="userSpaceOnUse"
       id="clipPath20">
      <path
         d="M 0,0 H 1262.5 V 1014.1884 H 0 Z"
         transform="matrix(0.33425407,0,0,0.33425407,-171.64063,-189)"
         clip-rule="evenodd"
         id="path20" />
    </clipPath>
    <clipPath
       clipPathUnits="userSpaceOnUse"
       id="clipPath22">
      <path
         d="M 0,0 H 1262.5 V 1014.1884 H 0 Z"
         transform="matrix(0.33425743,0,0,0.33425743,-0.50000001,-0.50000001)"
         clip-rule="evenodd"
         id="path22" />
    </clipPath>
    <clipPath
       clipPathUnits="userSpaceOnUse"
       id="clipPath23">
      <path
         d="M 0,0 H 1262.5 V 1014.1884 H 0 Z"
         transform="matrix(0.33425407,0,0,0.33425407,-165.03125,-219)"
         clip-rule="evenodd"
         id="path23" />
    </clipPath>
    <clipPath
       clipPathUnits="userSpaceOnUse"
       id="clipPath25">
      <path
         d="M 0,0 H 1262.5 V 1014.1884 H 0 Z"
         transform="matrix(0.33425743,0,0,0.33425743,-0.50000001,-0.50000001)"
         clip-rule="evenodd"
         id="path25" />
    </clipPath>
    <clipPath
       clipPathUnits="userSpaceOnUse"
       id="clipPath26">
      <path
         d="M 0,0 H 1262.5 V 1014.1884 H 0 Z"
         transform="matrix(0.33425407,0,0,0.33425407,-167.875,-249)"
         clip-rule="evenodd"
         id="path26" />
    </clipPath>
    <clipPath
       clipPathUnits="userSpaceOnUse"
       id="clipPath28">
      <path
         d="M 0,0 H 1262.5 V 1014.1884 H 0 Z"
         transform="matrix(-0.33425743,0,0,-0.33425743,660.50001,136.5)"
         clip-rule="evenodd"
         id="path28" />
    </clipPath>
    <clipPath
       clipPathUnits="userSpaceOnUse"
       id="clipPath29">
      <path
         d="M 0,0 H 1262.5 V 1014.1884 H 0 Z"
         transform="matrix(0.33425407,0,0,0.33425407,-352.85938,-74)"
         clip-rule="evenodd"
         id="path29" />
    </clipPath>
    <clipPath
       clipPathUnits="userSpaceOnUse"
       id="clipPath31">
      <path
         d="M 0,0 H 1262.5 V 1014.1884 H 0 Z"
         transform="matrix(-0.33425743,0,0,-0.33425743,660.50001,396.49999)"
         clip-rule="evenodd"
         id="path31" />
    </clipPath>
    <clipPath
       clipPathUnits="userSpaceOnUse"
       id="clipPath32">
      <path
         d="M 0,0 H 1262.5 V 1014.1884 H 0 Z"
         transform="matrix(0.33425407,0,0,0.33425407,-353.73438,-204)"
         clip-rule="evenodd"
         id="path32" />
    </clipPath>
    <clipPath
       clipPathUnits="userSpaceOnUse"
       id="clipPath34">
      <path
         d="M 0,0 H 1262.5 V 1014.1884 H 0 Z"
         transform="matrix(0.33425743,0,0,0.33425743,-0.50000001,-0.50000001)"
         clip-rule="evenodd"
         id="path34" />
    </clipPath>
    <clipPath
       clipPathUnits="userSpaceOnUse"
       id="clipPath35">
      <path
         d="M 0,0 H 1262.5 V 1014.1884 H 0 Z"
         transform="matrix(0.33425407,0,0,0.33425407,-102.20313,-289)"
         clip-rule="evenodd"
         id="path35" />
    </clipPath>
    <clipPath
       clipPathUnits="userSpaceOnUse"
       id="clipPath37">
      <path
         d="M 0,0 H 1262.5 V 1014.1884 H 0 Z"
         transform="matrix(0.33425743,0,0,0.33425743,-0.50000001,-0.50000001)"
         clip-rule="evenodd"
         id="path37" />
    </clipPath>
    <clipPath
       clipPathUnits="userSpaceOnUse"
       id="clipPath38">
      <path
         d="M 0,0 H 1262.5 V 1014.1884 H 0 Z"
         transform="matrix(0.33425407,0,0,0.33425407,-178.73438,-319)"
         clip-rule="evenodd"
         id="path38" />
    </clipPath>
    <clipPath
       clipPathUnits="userSpaceOnUse"
       id="clipPath40">
      <path
         d="M 0,0 H 1262.5 V 1014.1884 H 0 Z"
         transform="matrix(0.33425743,0,0,0.33425743,-0.50000001,-0.50000001)"
         clip-rule="evenodd"
         id="path40" />
    </clipPath>
    <clipPath
       clipPathUnits="userSpaceOnUse"
       id="clipPath42">
      <path
         d="M 0,0 H 1262.5 V 1014.1884 H 0 Z"
         transform="matrix(0.33425743,0,0,0.33425743,-0.50000001,-0.50000001)"
         clip-rule="evenodd"
         id="path42" />
    </clipPath>
    <clipPath
       clipPathUnits="userSpaceOnUse"
       id="clipPath43">
      <path
         d="M 0,0 H 1262.5 V 1014.1884 H 0 Z"
         transform="matrix(0.33425407,0,0,0.33425407,-15.640625,-24)"
         clip-rule="evenodd"
         id="path43" />
    </clipPath>
    <clipPath
       clipPathUnits="userSpaceOnUse"
       id="clipPath44">
      <path
         d="M 0,0 H 1262.5 V 1014.1884 H 0 Z"
         transform="matrix(0.33425407,0,0,0.33425407,-3.328125,-45)"
         clip-rule="evenodd"
         id="path44" />
    </clipPath>
  </defs>
  <sodipodi:namedview
     id="namedview1"
     pagecolor="#ffffff"
     bordercolor="#000000"
     borderopacity="0.25"
     inkscape:showpageshadow="2"
     inkscape:pageopacity="0.0"
     inkscape:pagecheckerboard="0"
     inkscape:deskcolor="#d1d1d1">
    <inkscape:page
       x="0"
       y="0"
       inkscape:label="1"
       id="page1"
       width="404.16"
       height="326.72"
       margin="0"
       bleed="0" />
  </sodipodi:namedview>
  <g
     id="g1"
     inkscape:groupmode="layer"
     inkscape:label="1">
    <path
       id="path1"
       d="M 0,0 H 422 V 341 H 0 Z"
       style="fill:#ffffff;fill-opacity:1;fill-rule:nonzero;stroke:none"
       transform="scale(0.95734591)"
       clip-path="url(#clipPath2)" />
    <path
       id="path3"
       d="M 100,8 H 300 V 38 H 100 Z"
       style="fill:#ffffff;fill-opacity:1;fill-rule:nonzero;stroke:#000000;stroke-width:1;stroke-linecap:butt;stroke-linejoin:miter;stroke-miterlimit:10;stroke-dasharray:none;stroke-opacity:1"
       transform="matrix(0.95734591,0,0,0.95734591,0.47867296,0.47867296)"
       clip-path="url(#clipPath4)" />
    <text
       id="text4"
       xml:space="preserve"
       transform="matrix(0.95735554,0,0,0.95735554,111.86101,27.763311)"
       clip-path="url(#clipPath5)"><tspan
         style="font-variant:normal;font-weight:normal;font-size:17px;font-family:Helvetica;writing-mode:lr-tb;fill:#000000;fill-opacity:1;fill-rule:nonzero;stroke:none"
         x="0 11.338867 20.793457 26.45459 35.90918 50.070312 59.524902 64.248047 73.702637 79.36377 84.086914 95.425781 101.08691 110.5415 119.99609 134.15723 143.61182 153.06641 157.78955"
         y="0"
         sodipodi:role="line"
         id="tspan4">Parameter/Arguments</tspan></text>
    <path
       id="path6"
       d="M 100,38 H 300 V 68 H 100 Z"
       style="fill:#ffffff;fill-opacity:1;fill-rule:nonzero;stroke:#000000;stroke-width:1;stroke-linecap:butt;stroke-linejoin:miter;stroke-miterlimit:10;stroke-dasharray:none;stroke-opacity:1"
       transform="matrix(0.95734591,0,0,0.95734591,0.47867296,0.47867296)"
       clip-path="url(#clipPath7)" />
    <text
       id="text7"
       xml:space="preserve"
       transform="matrix(0.95735554,0,0,0.95735554,164.32111,56.483977)"
       clip-path="url(#clipPath8)"><tspan
         style="font-variant:normal;font-weight:normal;font-size:17px;font-family:Helvetica;writing-mode:lr-tb;fill:#000000;fill-opacity:1;fill-rule:nonzero;stroke:none"
         x="0 14.161133 23.615723 28.338867 37.793457 47.248047"
         y="0"
         sodipodi:role="line"
         id="tspan7">Method</tspan></text>
    <path
       id="path9"
       d="M 100,68 H 300 V 98 H 100 Z"
       style="fill:#ffffff;fill-opacity:1;fill-rule:nonzero;stroke:#000000;stroke-width:1;stroke-linecap:butt;stroke-linejoin:miter;stroke-miterlimit:10;stroke-dasharray:none;stroke-opacity:1"
       transform="matrix(0.95734591,0,0,0.95734591,0.47867296,0.47867296)"
       clip-path="url(#clipPath10)" />
    <text
       id="text10"
       xml:space="preserve"
       transform="matrix(0.95735554,0,0,0.95735554,157.99358,85.204643)"
       clip-path="url(#clipPath11)"><tspan
         style="font-variant:normal;font-weight:normal;font-size:17px;font-family:Helvetica;writing-mode:lr-tb;fill:#000000;fill-opacity:1;fill-rule:nonzero;stroke:none"
         x="0 11.338867 19.838867 28.338867 37.793457 46.293457 54.793457 64.248047"
         y="0"
         sodipodi:role="line"
         id="tspan10">Accessor</tspan></text>
    <path
       id="path12"
       d="m 100,98 h 200 v 30 H 100 Z"
       style="fill:#ffffff;fill-opacity:1;fill-rule:nonzero;stroke:#000000;stroke-width:1;stroke-linecap:butt;stroke-linejoin:miter;stroke-miterlimit:10;stroke-dasharray:none;stroke-opacity:1"
       transform="matrix(0.95734591,0,0,0.95734591,0.47867296,0.47867296)"
       clip-path="url(#clipPath13)" />
    <text
       id="text13"
       xml:space="preserve"
       transform="matrix(0.95735554,0,0,0.95735554,160.71606,113.92531)"
       clip-path="url(#clipPath14)"><tspan
         style="font-variant:normal;font-weight:normal;font-size:17px;font-family:Helvetica;writing-mode:lr-tb;fill:#000000;fill-opacity:1;fill-rule:nonzero;stroke:none"
         x="0 11.338867 17 26.45459 35.90918 45.36377 51.024902 55.748047"
         y="0"
         sodipodi:role="line"
         id="tspan13">Property</tspan></text>
    <path
       id="path15"
       d="m 100,138 h 200 v 30 H 100 Z"
       style="fill:#ffffff;fill-opacity:1;fill-rule:nonzero;stroke:#000000;stroke-width:1;stroke-linecap:butt;stroke-linejoin:miter;stroke-miterlimit:10;stroke-dasharray:none;stroke-opacity:1"
       transform="matrix(0.95734591,0,0,0.95734591,0.47867296,0.47867296)"
       clip-path="url(#clipPath16)" />
    <text
       id="text16"
       xml:space="preserve"
       transform="matrix(0.95735554,0,0,0.95735554,153.47606,152.21953)"
       clip-path="url(#clipPath17)"><tspan
         style="font-variant:normal;font-weight:normal;font-size:17px;font-family:Helvetica;writing-mode:lr-tb;fill:#000000;fill-opacity:1;fill-rule:nonzero;stroke:none"
         x="0 11.338867 20.793457 26.45459 35.90918 50.070312 59.524902 64.248047 73.702637"
         y="0"
         sodipodi:role="line"
         id="tspan16">Parameter</tspan></text>
    <path
       id="path18"
       d="m 100,168 h 200 v 30 H 100 Z"
       style="fill:#ffffff;fill-opacity:1;fill-rule:nonzero;stroke:#000000;stroke-width:1;stroke-linecap:butt;stroke-linejoin:miter;stroke-miterlimit:10;stroke-dasharray:none;stroke-opacity:1"
       transform="matrix(0.95734591,0,0,0.95734591,0.47867296,0.47867296)"
       clip-path="url(#clipPath19)" />
    <text
       id="text19"
       xml:space="preserve"
       transform="matrix(0.95735554,0,0,0.95735554,164.32111,180.9402)"
       clip-path="url(#clipPath20)"><tspan
         style="font-variant:normal;font-weight:normal;font-size:17px;font-family:Helvetica;writing-mode:lr-tb;fill:#000000;fill-opacity:1;fill-rule:nonzero;stroke:none"
         x="0 14.161133 23.615723 28.338867 37.793457 47.248047"
         y="0"
         sodipodi:role="line"
         id="tspan19">Method</tspan></text>
    <path
       id="path21"
       d="m 100,198 h 200 v 30 H 100 Z"
       style="fill:#ffffff;fill-opacity:1;fill-rule:nonzero;stroke:#000000;stroke-width:1;stroke-linecap:butt;stroke-linejoin:miter;stroke-miterlimit:10;stroke-dasharray:none;stroke-opacity:1"
       transform="matrix(0.95734591,0,0,0.95734591,0.47867296,0.47867296)"
       clip-path="url(#clipPath22)" />
    <text
       id="text22"
       xml:space="preserve"
       transform="matrix(0.95735554,0,0,0.95735554,157.99358,209.66086)"
       clip-path="url(#clipPath23)"><tspan
         style="font-variant:normal;font-weight:normal;font-size:17px;font-family:Helvetica;writing-mode:lr-tb;fill:#000000;fill-opacity:1;fill-rule:nonzero;stroke:none"
         x="0 11.338867 19.838867 28.338867 37.793457 46.293457 54.793457 64.248047"
         y="0"
         sodipodi:role="line"
         id="tspan22">Accessor</tspan></text>
    <path
       id="path24"
       d="m 100,228 h 200 v 30 H 100 Z"
       style="fill:#ffffff;fill-opacity:1;fill-rule:nonzero;stroke:#000000;stroke-width:1;stroke-linecap:butt;stroke-linejoin:miter;stroke-miterlimit:10;stroke-dasharray:none;stroke-opacity:1"
       transform="matrix(0.95734591,0,0,0.95734591,0.47867296,0.47867296)"
       clip-path="url(#clipPath25)" />
    <text
       id="text25"
       xml:space="preserve"
       transform="matrix(0.95735554,0,0,0.95735554,160.71606,238.38153)"
       clip-path="url(#clipPath26)"><tspan
         style="font-variant:normal;font-weight:normal;font-size:17px;font-family:Helvetica;writing-mode:lr-tb;fill:#000000;fill-opacity:1;fill-rule:nonzero;stroke:none"
         x="0 11.338867 17 26.45459 35.90918 45.36377 51.024902 55.748047"
         y="0"
         sodipodi:role="line"
         id="tspan25">Property</tspan></text>
    <path
       id="path27"
       d="m 350,8 h -10 c -6.66666,0 -10,3.333333 -10,10 v 40 c 0,6.666664 -3.33334,10 -10,10 h -5 c -3.33334,0 -1.66666,0 5,0 h 5 c 3.33334,0 5,3.333336 5,10 v 40 c 0,6.66666 3.33334,10 10,10 h 10"
       style="fill:none;stroke:#000000;stroke-width:1;stroke-linecap:butt;stroke-linejoin:miter;stroke-miterlimit:10;stroke-dasharray:none;stroke-opacity:1"
       transform="matrix(-0.95734591,0,0,-0.95734591,632.32698,130.67772)"
       clip-path="url(#clipPath28)" />
    <text
       id="text28"
       xml:space="preserve"
       transform="matrix(0.95735554,0,0,0.95735554,337.81188,70.84431)"
       clip-path="url(#clipPath29)"><tspan
         style="font-variant:normal;font-weight:normal;font-size:17px;font-family:Helvetica;writing-mode:lr-tb;fill:#000000;fill-opacity:1;fill-rule:nonzero;stroke:none"
         x="0 4.7231445 14.177734 22.677734 27.400879 36.855469 46.310059 54.810059"
         y="0"
         sodipodi:role="line"
         id="tspan28">Instance</tspan></text>
    <path
       id="path30"
       d="m 350,138 h -10 c -6.66666,0 -10,3.33333 -10,10 v 40 c 0,6.66667 -3.33334,10 -10,10 h -5 c -3.33334,0 -1.66666,0 5,0 h 5 c 3.33334,0 5,3.33333 5,10 v 40 c 0,6.66667 3.33334,10 10,10 h 10"
       style="fill:none;stroke:#000000;stroke-width:1;stroke-linecap:butt;stroke-linejoin:miter;stroke-miterlimit:10;stroke-dasharray:none;stroke-opacity:1"
       transform="matrix(-0.95734591,0,0,-0.95734591,632.32698,379.58764)"
       clip-path="url(#clipPath31)" />
    <text
       id="text31"
       xml:space="preserve"
       transform="matrix(0.95735554,0,0,0.95735554,338.64957,195.30053)"
       clip-path="url(#clipPath32)"><tspan
         style="font-variant:normal;font-weight:normal;font-size:17px;font-family:Helvetica;writing-mode:lr-tb;fill:#000000;fill-opacity:1;fill-rule:nonzero;stroke:none"
         x="0 11.338867 16.062012 25.516602 30.239746 34.016602"
         y="0"
         sodipodi:role="line"
         id="tspan31">Static</tspan></text>
    <path
       id="path33"
       d="m 100,268 h 200 v 30 H 100 Z"
       style="fill:#ffffff;fill-opacity:1;fill-rule:nonzero;stroke:#000000;stroke-width:1;stroke-linecap:butt;stroke-linejoin:miter;stroke-miterlimit:10;stroke-dasharray:none;stroke-opacity:1"
       transform="matrix(0.95734591,0,0,0.95734591,0.47867296,0.47867296)"
       clip-path="url(#clipPath34)" />
    <text
       id="text34"
       xml:space="preserve"
       transform="matrix(0.95735554,0,0,0.95735554,97.844728,276.67575)"
       clip-path="url(#clipPath35)"><tspan
         style="font-variant:normal;font-weight:normal;font-size:17px;font-family:Helvetica;writing-mode:lr-tb;fill:#000000;fill-opacity:1;fill-rule:nonzero;stroke:none"
         x="0 11.338867 20.793457 26.45459 35.90918 50.070312 59.524902 64.248047 73.702637 79.36377 84.086914 93.541504 102.99609 107.71924 119.99609 129.45068 138.90527 147.40527 152.12842 157.78955 167.24414 175.74414 180.46729 189.92188"
         y="0"
         sodipodi:role="line"
         id="tspan34">Parameter on Constructor</tspan></text>
    <path
       id="path36"
       d="m 100,298 h 200 v 30 H 100 Z"
       style="fill:#ffffff;fill-opacity:1;fill-rule:nonzero;stroke:#000000;stroke-width:1;stroke-linecap:butt;stroke-linejoin:miter;stroke-miterlimit:10;stroke-dasharray:none;stroke-opacity:1"
       transform="matrix(0.95734591,0,0,0.95734591,0.47867296,0.47867296)"
       clip-path="url(#clipPath37)" />
    <text
       id="text37"
       xml:space="preserve"
       transform="matrix(0.95735554,0,0,0.95735554,171.11235,305.39642)"
       clip-path="url(#clipPath38)"><tspan
         style="font-variant:normal;font-weight:normal;font-size:17px;font-family:Helvetica;writing-mode:lr-tb;fill:#000000;fill-opacity:1;fill-rule:nonzero;stroke:none"
         x="0 12.276855 16.053711 25.508301 34.008301"
         y="0"
         sodipodi:role="line"
         id="tspan37">Class</tspan></text>
    <path
       id="path39"
       d="M 90,8 V 321.64001"
       style="fill:none;stroke:#000000;stroke-width:1;stroke-linecap:butt;stroke-linejoin:miter;stroke-miterlimit:10;stroke-dasharray:none;stroke-opacity:1"
       transform="matrix(0.95734591,0,0,0.95734591,0.47867296,0.47867296)"
       clip-path="url(#clipPath40)" />
    <path
       id="path41"
       d="m 90,326.89001 -3.5,-7 3.5,1.75 3.5,-1.75 z"
       style="fill:#000000;fill-opacity:1;fill-rule:nonzero;stroke:#000000;stroke-width:1;stroke-linecap:butt;stroke-linejoin:miter;stroke-miterlimit:10;stroke-dasharray:none;stroke-opacity:1"
       transform="matrix(0.95734591,0,0,0.95734591,0.47867296,0.47867296)"
       clip-path="url(#clipPath42)" />
    <text
       id="text42"
       xml:space="preserve"
       transform="matrix(0.95735554,0,0,0.95735554,14.973639,22.976533)"
       clip-path="url(#clipPath43)"><tspan
         style="font-variant:normal;font-weight:normal;font-size:17px;font-family:Helvetica;writing-mode:lr-tb;fill:#000000;fill-opacity:1;fill-rule:nonzero;stroke:none"
         x="0 13.223145 18.884277 28.338867 37.793457 43.45459 48.177734 57.632324"
         y="0"
         sodipodi:role="line"
         id="tspan42">Order of</tspan></text>
    <text
       id="text43"
       xml:space="preserve"
       transform="matrix(0.95735554,0,0,0.95735554,3.1861989,43.080999)"
       clip-path="url(#clipPath44)"><tspan
         style="font-variant:normal;font-weight:normal;font-size:17px;font-family:Helvetica;writing-mode:lr-tb;fill:#000000;fill-opacity:1;fill-rule:nonzero;stroke:none"
         x="0 11.338867 19.838867 29.293457 37.793457 47.248047 51.971191 55.748047 65.202637"
         y="0"
         sodipodi:role="line"
         id="tspan43">Execution</tspan></text>
  </g>
</svg>
