<?xml version="1.0" encoding="UTF-8" standalone="no"?>
<!-- Created with Inkscape (http://www.inkscape.org/) -->

<svg
   version="1.1"
   id="svg1"
   width="462.71997"
   height="273.28"
   viewBox="0 0 462.71997 273.28"
   sodipodi:docname="ts-2.pdf"
   xmlns:inkscape="http://www.inkscape.org/namespaces/inkscape"
   xmlns:sodipodi="http://sodipodi.sourceforge.net/DTD/sodipodi-0.dtd"
   xmlns="http://www.w3.org/2000/svg"
   xmlns:svg="http://www.w3.org/2000/svg">
  <defs
     id="defs1">
    <clipPath
       clipPathUnits="userSpaceOnUse"
       id="clipPath2">
      <path
         d="M 0,0 H 1445.8333 V 851.36871 H 0 Z"
         transform="scale(0.33475507)"
         clip-rule="evenodd"
         id="path2" />
    </clipPath>
    <clipPath
       clipPathUnits="userSpaceOnUse"
       id="clipPath4">
      <path
         d="M 0,0 H 1445.8333 V 848.38147 H 0 Z"
         transform="matrix(0.33475507,0,0,0.33475507,-0.5,-0.5)"
         clip-rule="evenodd"
         id="path4" />
    </clipPath>
    <clipPath
       clipPathUnits="userSpaceOnUse"
       id="clipPath6">
      <path
         d="M 0,0 H 1445.8333 V 848.38147 H 0 Z"
         transform="matrix(0.33475507,0,0,0.33475507,-0.5,-0.5)"
         clip-rule="evenodd"
         id="path6" />
    </clipPath>
    <clipPath
       clipPathUnits="userSpaceOnUse"
       id="clipPath8">
      <path
         d="M 0,0 H 1445.8333 V 848.38147 H 0 Z"
         transform="matrix(0.33475507,0,0,0.33475507,-0.5,-0.5)"
         clip-rule="evenodd"
         id="path8" />
    </clipPath>
    <clipPath
       clipPathUnits="userSpaceOnUse"
       id="clipPath9">
      <path
         d="M 0,0 H 1445.8333 V 848.38147 H 0 Z"
         transform="matrix(0.33475173,0,0,0.33475173,-94.28125,-27)"
         clip-rule="evenodd"
         id="path9" />
    </clipPath>
    <clipPath
       clipPathUnits="userSpaceOnUse"
       id="clipPath10">
      <path
         d="M 0,0 H 1445.8333 V 848.38147 H 0 Z"
         transform="matrix(0.33475173,0,0,0.33475173,-89.28125,-51)"
         clip-rule="evenodd"
         id="path10" />
    </clipPath>
    <clipPath
       clipPathUnits="userSpaceOnUse"
       id="clipPath11">
      <path
         d="M 0,0 H 1445.8333 V 848.38147 H 0 Z"
         transform="matrix(0.33475173,0,0,0.33475173,-151.26562,-75)"
         clip-rule="evenodd"
         id="path11" />
    </clipPath>
    <clipPath
       clipPathUnits="userSpaceOnUse"
       id="clipPath13">
      <path
         d="M 0,0 H 1445.8333 V 848.38147 H 0 Z"
         transform="matrix(0.33475507,0,0,0.33475507,-0.5,-0.5)"
         clip-rule="evenodd"
         id="path13" />
    </clipPath>
    <clipPath
       clipPathUnits="userSpaceOnUse"
       id="clipPath14">
      <path
         d="M 0,0 H 1445.8333 V 848.38147 H 0 Z"
         transform="matrix(0.33475173,0,0,0.33475173,-5.21875,-238)"
         clip-rule="evenodd"
         id="path14" />
    </clipPath>
    <clipPath
       clipPathUnits="userSpaceOnUse"
       id="clipPath15">
      <path
         d="M 0,0 H 1445.8333 V 848.38147 H 0 Z"
         transform="matrix(0.33475173,0,0,0.33475173,-28.453125,-255)"
         clip-rule="evenodd"
         id="path15" />
    </clipPath>
    <clipPath
       clipPathUnits="userSpaceOnUse"
       id="clipPath17">
      <path
         d="M 0,0 H 1445.8333 V 848.38147 H 0 Z"
         transform="matrix(0.33475507,0,0,0.33475507,-0.5,-0.5)"
         clip-rule="evenodd"
         id="path17" />
    </clipPath>
    <clipPath
       clipPathUnits="userSpaceOnUse"
       id="clipPath18">
      <path
         d="M 0,0 H 1445.8333 V 848.38147 H 0 Z"
         transform="matrix(0.33475173,0,0,0.33475173,-255.46875,-238)"
         clip-rule="evenodd"
         id="path18" />
    </clipPath>
    <clipPath
       clipPathUnits="userSpaceOnUse"
       id="clipPath19">
      <path
         d="M 0,0 H 1445.8333 V 848.38147 H 0 Z"
         transform="matrix(0.33475173,0,0,0.33475173,-331.75,-255)"
         clip-rule="evenodd"
         id="path19" />
    </clipPath>
    <clipPath
       clipPathUnits="userSpaceOnUse"
       id="clipPath21">
      <path
         d="M 0,0 H 1445.8333 V 848.38147 H 0 Z"
         transform="matrix(0.33475507,0,0,0.33475507,-0.5,-0.5)"
         clip-rule="evenodd"
         id="path21" />
    </clipPath>
    <clipPath
       clipPathUnits="userSpaceOnUse"
       id="clipPath23">
      <path
         d="M 0,0 H 1445.8333 V 848.38147 H 0 Z"
         transform="matrix(0.33475507,0,0,0.33475507,-0.5,-0.5)"
         clip-rule="evenodd"
         id="path23" />
    </clipPath>
    <clipPath
       clipPathUnits="userSpaceOnUse"
       id="clipPath25">
      <path
         d="M 0,0 H 1445.8333 V 848.38147 H 0 Z"
         transform="matrix(0.33475507,0,0,0.33475507,-0.5,-0.5)"
         clip-rule="evenodd"
         id="path25" />
    </clipPath>
    <clipPath
       clipPathUnits="userSpaceOnUse"
       id="clipPath27">
      <path
         d="M 0,0 H 1445.8333 V 848.38147 H 0 Z"
         transform="matrix(0.33475507,0,0,0.33475507,-0.5,-0.5)"
         clip-rule="evenodd"
         id="path27" />
    </clipPath>
    <clipPath
       clipPathUnits="userSpaceOnUse"
       id="clipPath28">
      <path
         d="M 0,0 H 1445.8333 V 848.38147 H 0 Z"
         transform="matrix(0.33475173,0,0,0.33475173,-183.62499,-128)"
         clip-rule="evenodd"
         id="path28" />
    </clipPath>
    <clipPath
       clipPathUnits="userSpaceOnUse"
       id="clipPath29">
      <path
         d="M 0,0 H 1445.8333 V 848.38147 H 0 Z"
         transform="matrix(0.33475173,0,0,0.33475173,-209.98438,-143)"
         clip-rule="evenodd"
         id="path29" />
    </clipPath>
  </defs>
  <sodipodi:namedview
     id="namedview1"
     pagecolor="#ffffff"
     bordercolor="#000000"
     borderopacity="0.25"
     inkscape:showpageshadow="2"
     inkscape:pageopacity="0.0"
     inkscape:pagecheckerboard="0"
     inkscape:deskcolor="#d1d1d1">
    <inkscape:page
       x="0"
       y="0"
       inkscape:label="1"
       id="page1"
       width="462.71997"
       height="273.28"
       margin="0"
       bleed="0" />
  </sodipodi:namedview>
  <g
     id="g1"
     inkscape:groupmode="layer"
     inkscape:label="1">
    <path
       id="path1"
       d="M 0,0 H 484 V 285 H 0 Z"
       style="fill:#ffffff;fill-opacity:1;fill-rule:nonzero;stroke:none"
       transform="scale(0.95592274)"
       clip-path="url(#clipPath2)" />
    <path
       id="path3"
       d="m 236,86 v 18.63"
       style="fill:none;stroke:#000000;stroke-width:1;stroke-linecap:butt;stroke-linejoin:miter;stroke-miterlimit:10;stroke-dasharray:none;stroke-opacity:1"
       transform="matrix(0.95592274,0,0,0.95592274,0.47796137,0.47796137)"
       clip-path="url(#clipPath4)" />
    <path
       id="path5"
       d="m 236,109.88 -3.5,-7 3.5,1.75 3.5,-1.75 z"
       style="fill:#000000;fill-opacity:1;fill-rule:nonzero;stroke:#000000;stroke-width:1;stroke-linecap:butt;stroke-linejoin:miter;stroke-miterlimit:10;stroke-dasharray:none;stroke-opacity:1"
       transform="matrix(0.95592274,0,0,0.95592274,0.47796137,0.47796137)"
       clip-path="url(#clipPath6)" />
    <path
       id="path7"
       d="M 76,1 H 396 V 86 H 76 Z"
       style="fill:#dae8fc;fill-opacity:1;fill-rule:nonzero;stroke:#6c8ebf;stroke-width:1;stroke-linecap:butt;stroke-linejoin:miter;stroke-miterlimit:10;stroke-dasharray:none;stroke-opacity:1"
       transform="matrix(0.95592274,0,0,0.95592274,0.47796137,0.47796137)"
       clip-path="url(#clipPath8)" />
    <text
       id="text8"
       xml:space="preserve"
       transform="matrix(0.95593228,0,0,0.95593228,90.12649,25.810172)"
       clip-path="url(#clipPath9)"><tspan
         style="font-variant:normal;font-weight:700;font-size:20px;font-family:Helvetica;writing-mode:lr-tb;fill:#000000;fill-opacity:1;fill-rule:nonzero;stroke:none"
         x="0 16.660156 27.783203 38.90625 50.029297 61.152344 73.369141 78.925781 91.142578 103.35938 108.91602 121.13281 134.47266 140.0293 151.15234 163.36914 175.58594 181.14258 194.48242 205.60547 217.82227 225.60547 236.72852 247.85156 258.97461 264.53125 271.19141"
         y="0"
         sodipodi:role="line"
         id="tspan8">Massaging TS and Express to</tspan></text>
    <text
       id="text9"
       xml:space="preserve"
       transform="matrix(0.95593228,0,0,0.95593228,85.346829,48.752546)"
       clip-path="url(#clipPath10)"><tspan
         style="font-variant:normal;font-weight:700;font-size:20px;font-family:Helvetica;writing-mode:lr-tb;fill:#000000;fill-opacity:1;fill-rule:nonzero;stroke:none"
         x="0 15.556641 27.773438 35.556641 46.679688 52.236328 64.453125 75.576172 82.236328 88.896484 100.01953 107.80273 113.35938 120.01953 132.23633 144.45312 155.57617 162.23633 174.45312 185.57617 193.35938 198.91602 214.47266 220.0293 225.58594 231.14258 236.69922 243.35938 254.48242 265.60547 276.72852 282.28516"
         y="0"
         sodipodi:role="line"
         id="tspan9">work better together will take a</tspan></text>
    <text
       id="text10"
       xml:space="preserve"
       transform="matrix(0.95593228,0,0,0.95593228,144.59969,71.694921)"
       clip-path="url(#clipPath11)"><tspan
         style="font-variant:normal;font-weight:700;font-size:20px;font-family:Helvetica;writing-mode:lr-tb;fill:#000000;fill-opacity:1;fill-rule:nonzero;stroke:none"
         x="0 5.5566406 17.773438 24.433594 29.990234 42.207031 48.867188 54.423828 61.083984 66.640625 84.423828 95.546875 101.10352 112.7832 118.33984 129.46289 136.12305 142.7832 155 162.7832"
         y="0"
         sodipodi:role="line"
         id="tspan10">lot of time + effort</tspan></text>
    <path
       id="path12"
       d="m 1,201 h 230 v 80 H 1 Z"
       style="fill:#ffffff;fill-opacity:1;fill-rule:nonzero;stroke:#000000;stroke-width:1;stroke-linecap:butt;stroke-linejoin:miter;stroke-miterlimit:10;stroke-dasharray:none;stroke-opacity:1"
       transform="matrix(0.95592274,0,0,0.95592274,0.47796137,0.47796137)"
       clip-path="url(#clipPath13)" />
    <text
       id="text13"
       xml:space="preserve"
       transform="matrix(0.95593228,0,0,0.95593228,4.9887716,227.51188)"
       clip-path="url(#clipPath14)"><tspan
         style="font-variant:normal;font-weight:normal;font-size:14px;font-family:Helvetica;writing-mode:lr-tb;fill:#000000;fill-opacity:1;fill-rule:nonzero;stroke:none"
         x="0 10.889648 18.675781 22.56543 26.455078 34.241211 42.027344 45.916992 49.806641 57.592773 62.254883 66.144531 70.03418 77.03418 84.820312 92.606445 96.496094 103.49609 111.28223 115.17188 122.95801 126.84766 133.84766 137.7373 142.39941 150.18555 157.97168 161.08203 168.86816 172.51172 181.06348 190.40137 194.29102 202.07715 209.86328 213.75293"
         y="0"
         sodipodi:role="line"
         id="tspan13">Get better type safety (help TS do a</tspan></text>
    <text
       id="text14"
       xml:space="preserve"
       transform="matrix(0.95593228,0,0,0.95593228,27.199261,243.76273)"
       clip-path="url(#clipPath15)"><tspan
         style="font-variant:normal;font-weight:normal;font-size:14px;font-family:Helvetica;writing-mode:lr-tb;fill:#000000;fill-opacity:1;fill-rule:nonzero;stroke:none"
         x="0 7.7861328 15.572266 19.461914 23.351562 31.137695 35.799805 39.689453 42.799805 50.585938 58.37207 62.261719 70.047852 73.9375 77.827148 84.827148 92.613281 96.50293 103.50293 111.28906 114.39941 122.18555 129.97168 133.86133 141.64746 146.30957 150.97168 158.75781 163.41992 170.41992"
         y="0"
         sodipodi:role="line"
         id="tspan14">better job of catching errors)</tspan></text>
    <path
       id="path16"
       d="m 251,201 h 230 v 80 H 251 Z"
       style="fill:#ffffff;fill-opacity:1;fill-rule:nonzero;stroke:#000000;stroke-width:1;stroke-linecap:butt;stroke-linejoin:miter;stroke-miterlimit:10;stroke-dasharray:none;stroke-opacity:1"
       transform="matrix(0.95592274,0,0,0.95592274,0.47796137,0.47796137)"
       clip-path="url(#clipPath17)" />
    <g
       id="g17" />
    <text
       id="text17"
       xml:space="preserve"
       transform="matrix(0.95593228,0,0,0.95593228,244.21082,227.51188)"
       clip-path="url(#clipPath18)"><tspan
         style="font-variant:normal;font-weight:normal;font-size:14px;font-family:Helvetica;writing-mode:lr-tb;fill:#000000;fill-opacity:1;fill-rule:nonzero;stroke:none"
         x="0 9.3378906 12.448242 20.234375 28.020508 31.130859 38.130859 45.130859 52.916992 60.703125 64.592773 67.703125 74.703125 78.592773 86.378906 94.165039 101.95117 109.7373 117.52344 124.52344 132.30957 136.19922 140.08887 147.875 155.66113 159.55078 167.33691 175.12305 182.12305 189.90918 193.01953 200.80566 208.5918 216.37793"
         y="0"
         sodipodi:role="line"
         id="tspan17">Signiﬁcantly enhance the developer</tspan></text>
    <text
       id="text18"
       xml:space="preserve"
       transform="matrix(0.95593228,0,0,0.95593228,317.13053,243.76273)"
       clip-path="url(#clipPath19)"><tspan
         style="font-variant:normal;font-weight:normal;font-size:14px;font-family:Helvetica;writing-mode:lr-tb;fill:#000000;fill-opacity:1;fill-rule:nonzero;stroke:none"
         x="0 7.7861328 14.786133 22.572266 30.358398 35.020508 38.130859 45.916992 53.703125 60.703125"
         y="0"
         sodipodi:role="line"
         id="tspan18">experience</tspan></text>
    <path
       id="path20"
       d="m 236,151 v 25 H 116 v 18.63"
       style="fill:none;stroke:#000000;stroke-width:1;stroke-linecap:butt;stroke-linejoin:miter;stroke-miterlimit:10;stroke-dasharray:none;stroke-opacity:1"
       transform="matrix(0.95592274,0,0,0.95592274,0.47796137,0.47796137)"
       clip-path="url(#clipPath21)" />
    <path
       id="path22"
       d="m 116,199.88 -3.5,-7 3.5,1.75 3.5,-1.75 z"
       style="fill:#000000;fill-opacity:1;fill-rule:nonzero;stroke:#000000;stroke-width:1;stroke-linecap:butt;stroke-linejoin:miter;stroke-miterlimit:10;stroke-dasharray:none;stroke-opacity:1"
       transform="matrix(0.95592274,0,0,0.95592274,0.47796137,0.47796137)"
       clip-path="url(#clipPath23)" />
    <path
       id="path24"
       d="m 236,151 v 25 h 130 v 18.63"
       style="fill:none;stroke:#000000;stroke-width:1;stroke-linecap:butt;stroke-linejoin:miter;stroke-miterlimit:10;stroke-dasharray:none;stroke-opacity:1"
       transform="matrix(0.95592274,0,0,0.95592274,0.47796137,0.47796137)"
       clip-path="url(#clipPath25)" />
    <path
       id="path26"
       d="m 366,199.88 -3.5,-7 3.5,1.75 3.5,-1.75 z"
       style="fill:#000000;fill-opacity:1;fill-rule:nonzero;stroke:#000000;stroke-width:1;stroke-linecap:butt;stroke-linejoin:miter;stroke-miterlimit:10;stroke-dasharray:none;stroke-opacity:1"
       transform="matrix(0.95592274,0,0,0.95592274,0.47796137,0.47796137)"
       clip-path="url(#clipPath27)" />
    <text
       id="text27"
       xml:space="preserve"
       transform="matrix(0.95593228,0,0,0.95593228,175.53306,122.35933)"
       clip-path="url(#clipPath28)"><tspan
         style="font-variant:normal;font-weight:normal;font-size:12px;font-family:Helvetica;writing-mode:lr-tb;fill:#000000;fill-opacity:1;fill-rule:nonzero;stroke:none"
         x="0 9.9960938 16.669922 22.669922 26.003906 29.337891 36.011719 42.685547 46.019531 49.353516 56.027344 62.701172 69.375 72.708984 79.382812 82.716797 86.050781 89.384766 98.050781"
         y="0"
         sodipodi:role="line"
         id="tspan27">Must get one of two</tspan></text>
    <text
       id="text28"
       xml:space="preserve"
       transform="matrix(0.95593228,0,0,0.95593228,200.73085,136.69832)"
       clip-path="url(#clipPath29)"><tspan
         style="font-variant:normal;font-weight:normal;font-size:12px;font-family:Helvetica;writing-mode:lr-tb;fill:#000000;fill-opacity:1;fill-rule:nonzero;stroke:none"
         x="0 6.6738281 13.347656 16.681641 22.681641 29.355469 39.351562 46.025391"
         y="0"
         sodipodi:role="line"
         id="tspan28">outcomes</tspan></text>
  </g>
</svg>
