<?xml version="1.0" encoding="UTF-8" standalone="no"?>
<!-- Created with Inkscape (http://www.inkscape.org/) -->

<svg
   version="1.1"
   id="svg1"
   width="432"
   height="228.16"
   viewBox="0 0 432 228.16"
   sodipodi:docname="ts-3.pdf"
   xmlns:inkscape="http://www.inkscape.org/namespaces/inkscape"
   xmlns:sodipodi="http://sodipodi.sourceforge.net/DTD/sodipodi-0.dtd"
   xmlns="http://www.w3.org/2000/svg"
   xmlns:svg="http://www.w3.org/2000/svg">
  <defs
     id="defs1">
    <clipPath
       clipPathUnits="userSpaceOnUse"
       id="clipPath2">
      <path
         d="M 0,0 H 1349.9999 V 712.41681 H 0 Z"
         transform="scale(0.3340741)"
         clip-rule="evenodd"
         id="path2" />
    </clipPath>
    <clipPath
       clipPathUnits="userSpaceOnUse"
       id="clipPath4">
      <path
         d="M 0,0 H 1349.9999 V 709.42346 H 0 Z"
         transform="matrix(0.3340741,0,0,0.3340741,-0.49999999,-0.49999999)"
         clip-rule="evenodd"
         id="path4" />
    </clipPath>
    <clipPath
       clipPathUnits="userSpaceOnUse"
       id="clipPath5">
      <path
         d="M 0,0 H 1349.9999 V 709.42346 H 0 Z"
         transform="matrix(0.33407075,0,0,0.33407075,-22.453125,-66)"
         clip-rule="evenodd"
         id="path5" />
    </clipPath>
    <clipPath
       clipPathUnits="userSpaceOnUse"
       id="clipPath6">
      <path
         d="M 0,0 H 1349.9999 V 709.42346 H 0 Z"
         transform="matrix(0.33407075,0,0,0.33407075,-161.85937,-85.999999)"
         clip-rule="evenodd"
         id="path6" />
    </clipPath>
    <clipPath
       clipPathUnits="userSpaceOnUse"
       id="clipPath8">
      <path
         d="M 0,0 H 1349.9999 V 709.42346 H 0 Z"
         transform="matrix(0.3340741,0,0,0.3340741,-0.49999999,-0.49999999)"
         clip-rule="evenodd"
         id="path8" />
    </clipPath>
    <clipPath
       clipPathUnits="userSpaceOnUse"
       id="clipPath9">
      <path
         d="M 0,0 H 1349.9999 V 709.42346 H 0 Z"
         transform="matrix(0.33407075,0,0,0.33407075,-75.718749,-136)"
         clip-rule="evenodd"
         id="path9" />
    </clipPath>
    <clipPath
       clipPathUnits="userSpaceOnUse"
       id="clipPath11">
      <path
         d="M 0,0 H 1349.9999 V 709.42346 H 0 Z"
         transform="matrix(0.3340741,0,0,0.3340741,-0.49999999,-0.49999999)"
         clip-rule="evenodd"
         id="path11" />
    </clipPath>
    <clipPath
       clipPathUnits="userSpaceOnUse"
       id="clipPath12">
      <path
         d="M 0,0 H 1349.9999 V 709.42346 H 0 Z"
         transform="matrix(0.33407075,0,0,0.33407075,-43.34375,-196)"
         clip-rule="evenodd"
         id="path12" />
    </clipPath>
    <clipPath
       clipPathUnits="userSpaceOnUse"
       id="clipPath14">
      <path
         d="M 0,0 H 1349.9999 V 709.42346 H 0 Z"
         transform="matrix(0.3340741,0,0,0.3340741,-0.49999999,-0.49999999)"
         clip-rule="evenodd"
         id="path14" />
    </clipPath>
    <clipPath
       clipPathUnits="userSpaceOnUse"
       id="clipPath16">
      <path
         d="M 0,0 H 1349.9999 V 709.42346 H 0 Z"
         transform="matrix(0.3340741,0,0,0.3340741,-0.49999999,-0.49999999)"
         clip-rule="evenodd"
         id="path16" />
    </clipPath>
    <clipPath
       clipPathUnits="userSpaceOnUse"
       id="clipPath17">
      <path
         d="M 0,0 H 1349.9999 V 709.42346 H 0 Z"
         transform="matrix(0.33407075,0,0,0.33407075,-162.99999,-18)"
         clip-rule="evenodd"
         id="path17" />
    </clipPath>
    <clipPath
       clipPathUnits="userSpaceOnUse"
       id="clipPath18">
      <path
         d="M 0,0 H 1349.9999 V 709.42346 H 0 Z"
         transform="matrix(0.33407075,0,0,0.33407075,-195.98438,-40)"
         clip-rule="evenodd"
         id="path18" />
    </clipPath>
  </defs>
  <sodipodi:namedview
     id="namedview1"
     pagecolor="#ffffff"
     bordercolor="#000000"
     borderopacity="0.25"
     inkscape:showpageshadow="2"
     inkscape:pageopacity="0.0"
     inkscape:pagecheckerboard="0"
     inkscape:deskcolor="#d1d1d1">
    <inkscape:page
       x="0"
       y="0"
       inkscape:label="1"
       id="page1"
       width="432"
       height="228.16"
       margin="0"
       bleed="0" />
  </sodipodi:namedview>
  <g
     id="g1"
     inkscape:groupmode="layer"
     inkscape:label="1">
    <path
       id="path1"
       d="M 0,0 H 451 V 238 H 0 Z"
       style="fill:#ffffff;fill-opacity:1;fill-rule:nonzero;stroke:none"
       transform="scale(0.95787129)"
       clip-path="url(#clipPath2)" />
    <path
       id="path3"
       d="M 18,46 H 448 V 96 H 18 Z"
       style="fill:#ffffff;fill-opacity:1;fill-rule:nonzero;stroke:#000000;stroke-width:1;stroke-linecap:butt;stroke-linejoin:miter;stroke-miterlimit:10;stroke-dasharray:none;stroke-opacity:1"
       transform="matrix(0.95787129,0,0,0.95787129,0.47893564,0.47893564)"
       clip-path="url(#clipPath4)" />
    <text
       id="text4"
       xml:space="preserve"
       transform="matrix(0.95788089,0,0,0.95788089,21.507419,63.220139)"
       clip-path="url(#clipPath5)"><tspan
         style="font-variant:normal;font-weight:normal;font-size:16px;font-family:Helvetica;writing-mode:lr-tb;fill:#000000;fill-opacity:1;fill-rule:nonzero;stroke:none"
         x="0 12.445312 21.34375 25.789062 30.234375 39.132812 43.578125 52.476562 61.375 64.929688 72.929688 80.929688 85.375 90.703125 99.601562 112.92969 116.48438 125.38281 134.28125 143.17969 148.50781 152.95312 161.85156 170.75 175.19531 186.75 195.64844 204.54688 208.99219 213.4375 221.4375 230.33594 239.23438 247.23438 251.67969 257.00781 265.90625 273.90625 278.35156 287.25 292.57812 300.57812 305.02344 314.36719 318.8125 327.71094 333.03906 341.9375 346.38281 355.28125 359.72656 367.72656 376.625 385.52344 393.52344 397.96875 406.86719 412.19531"
         y="0"
         sodipodi:role="line"
         id="tspan4">Get a quick reminder on what constructors + prototypes are</tspan></text>
    <text
       id="text5"
       xml:space="preserve"
       transform="matrix(0.95788089,0,0,0.95788089,155.042,82.377756)"
       clip-path="url(#clipPath6)"><tspan
         style="font-variant:normal;font-weight:normal;font-size:16px;font-family:Helvetica;writing-mode:lr-tb;fill:#000000;fill-opacity:1;fill-rule:nonzero;stroke:none"
         x="0 3.5546875 12.453125 16.898438 25.796875 34.695312 40.023438 53.351562 62.25 65.804688 70.25 78.25 87.148438 95.148438 104.04688 112.04688 120.04688 125.375 128.92969 137.82812"
         y="0"
         sodipodi:role="line"
         id="tspan5">in normal Javascript</tspan></text>
    <path
       id="path7"
       d="m 18,106 h 430 v 50 H 18 Z"
       style="fill:#ffffff;fill-opacity:1;fill-rule:nonzero;stroke:#000000;stroke-width:1;stroke-linecap:butt;stroke-linejoin:miter;stroke-miterlimit:10;stroke-dasharray:none;stroke-opacity:1"
       transform="matrix(0.95787129,0,0,0.95787129,0.47893564,0.47893564)"
       clip-path="url(#clipPath8)" />
    <text
       id="text8"
       xml:space="preserve"
       transform="matrix(0.95788089,0,0,0.95788089,72.529543,130.2718)"
       clip-path="url(#clipPath9)"><tspan
         style="font-variant:normal;font-weight:normal;font-size:16px;font-family:Helvetica;writing-mode:lr-tb;fill:#000000;fill-opacity:1;fill-rule:nonzero;stroke:none"
         x="0 11.554688 20.453125 24.898438 33.796875 38.242188 47.140625 56.039062 59.59375 67.59375 75.59375 80.039062 88.9375 96.9375 100.49219 109.39062 118.28906 122.73438 131.63281 140.53125 144.97656 153.875 162.77344 170.77344 179.67188 185 193.89844 198.34375 207.24219 212.57031 220.57031 225.01562 228.57031 237.46875 241.63281 250.53125 258.53125 267.42969 276.32812 284.32812 292.32812 297.65625 301.21094 310.10938"
         y="0"
         sodipodi:role="line"
         id="tspan8">Do a quick aside on decorators in Typescript</tspan></text>
    <path
       id="path10"
       d="m 18,166 h 430 v 50 H 18 Z"
       style="fill:#ffffff;fill-opacity:1;fill-rule:nonzero;stroke:#000000;stroke-width:1;stroke-linecap:butt;stroke-linejoin:miter;stroke-miterlimit:10;stroke-dasharray:none;stroke-opacity:1"
       transform="matrix(0.95787129,0,0,0.95787129,0.47893564,0.47893564)"
       clip-path="url(#clipPath11)" />
    <text
       id="text11"
       xml:space="preserve"
       transform="matrix(0.95788089,0,0,0.95788089,41.51815,187.74465)"
       clip-path="url(#clipPath12)"><tspan
         style="font-variant:normal;font-weight:normal;font-size:16px;font-family:Helvetica;writing-mode:lr-tb;fill:#000000;fill-opacity:1;fill-rule:nonzero;stroke:none"
         x="0 11.554688 20.453125 24.898438 33.796875 41.796875 46.242188 55.140625 60.46875 64.914062 73.8125 82.710938 88.039062 92.484375 101.38281 109.38281 118.28125 123.60938 132.50781 140.50781 148.50781 152.95312 161.85156 170.75 179.64844 184.09375 188.53906 197.4375 201.88281 210.78125 218.78125 227.67969 232.125 240.125 243.67969 252.57812 260.57812 268.57812 277.47656 285.47656 289.92188 299.26562 303.71094 312.60938 321.50781 329.50781 338.40625 343.73438 352.63281 357.07812 365.97656 371.30469"
         y="0"
         sodipodi:role="line"
         id="tspan11">Refactor our express app to use classes + decorators</tspan></text>
    <path
       id="path13"
       d="M 8,46 V 219.63"
       style="fill:none;stroke:#000000;stroke-width:1;stroke-linecap:butt;stroke-linejoin:miter;stroke-miterlimit:10;stroke-dasharray:none;stroke-opacity:1"
       transform="matrix(0.95787129,0,0,0.95787129,0.47893564,0.47893564)"
       clip-path="url(#clipPath14)" />
    <path
       id="path15"
       d="m 8,224.88 -3.5,-7 3.5,1.75 3.5,-1.75 z"
       style="fill:#000000;fill-opacity:1;fill-rule:nonzero;stroke:#000000;stroke-width:1;stroke-linecap:butt;stroke-linejoin:miter;stroke-miterlimit:10;stroke-dasharray:none;stroke-opacity:1"
       transform="matrix(0.95787129,0,0,0.95787129,0.47893564,0.47893564)"
       clip-path="url(#clipPath16)" />
    <text
       id="text16"
       xml:space="preserve"
       transform="matrix(0.95788089,0,0,0.95788089,156.13458,17.241856)"
       clip-path="url(#clipPath17)"><tspan
         style="font-variant:normal;font-weight:700;font-size:18px;font-family:Helvetica;writing-mode:lr-tb;fill:#000000;fill-opacity:1;fill-rule:nonzero;stroke:none"
         x="0 14.000977 24.996094 35.006836 40.007812 45.008789 51.00293 61.998047 69.00293 74.003906 87.00293 97.998047 114.00293 119.00391 129.99902"
         y="0"
         sodipodi:role="line"
         id="tspan16">Goal for Coming</tspan></text>
    <text
       id="text17"
       xml:space="preserve"
       transform="matrix(0.95788089,0,0,0.95788089,187.72969,38.315236)"
       clip-path="url(#clipPath18)"><tspan
         style="font-variant:normal;font-weight:700;font-size:18px;font-family:Helvetica;writing-mode:lr-tb;fill:#000000;fill-opacity:1;fill-rule:nonzero;stroke:none"
         x="0 12.005859 22.016602 32.027344 38.021484 43.022461 54.017578 65.012695"
         y="0"
         sodipodi:role="line"
         id="tspan17">Sections</tspan></text>
  </g>
</svg>
