<?xml version="1.0" encoding="UTF-8" standalone="no"?>
<!-- Created with Inkscape (http://www.inkscape.org/) -->

<svg
   version="1.1"
   id="svg1"
   width="272"
   height="244.16"
   viewBox="0 0 272 244.16"
   sodipodi:docname="ts-5.pdf"
   xmlns:inkscape="http://www.inkscape.org/namespaces/inkscape"
   xmlns:sodipodi="http://sodipodi.sourceforge.net/DTD/sodipodi-0.dtd"
   xmlns="http://www.w3.org/2000/svg"
   xmlns:svg="http://www.w3.org/2000/svg">
  <defs
     id="defs1">
    <clipPath
       clipPathUnits="userSpaceOnUse"
       id="clipPath2">
      <path
         d="M 0,0 H 850 V 760.2113 H 0 Z"
         transform="scale(0.33411764)"
         clip-rule="evenodd"
         id="path2" />
    </clipPath>
    <clipPath
       clipPathUnits="userSpaceOnUse"
       id="clipPath4">
      <path
         d="M 0,0 H 850 V 760.2113 H 0 Z"
         transform="matrix(0.33411764,0,0,0.33411764,-0.5,-0.5)"
         clip-rule="evenodd"
         id="path4" />
    </clipPath>
    <clipPath
       clipPathUnits="userSpaceOnUse"
       id="clipPath5">
      <path
         d="M 0,0 H 850 V 760.2113 H 0 Z"
         transform="matrix(0.33411428,0,0,0.33411428,-26.468749,-27)"
         clip-rule="evenodd"
         id="path5" />
    </clipPath>
    <clipPath
       clipPathUnits="userSpaceOnUse"
       id="clipPath6">
      <path
         d="M 0,0 H 850 V 760.2113 H 0 Z"
         transform="matrix(0.33411428,0,0,0.33411428,-26.96875,-49)"
         clip-rule="evenodd"
         id="path6" />
    </clipPath>
    <clipPath
       clipPathUnits="userSpaceOnUse"
       id="clipPath8">
      <path
         d="M 0,0 H 850 V 760.2113 H 0 Z"
         transform="matrix(0.33411764,0,0,0.33411764,-0.5,-0.5)"
         clip-rule="evenodd"
         id="path8" />
    </clipPath>
    <clipPath
       clipPathUnits="userSpaceOnUse"
       id="clipPath9">
      <path
         d="M 0,0 H 850 V 760.2113 H 0 Z"
         transform="matrix(0.33411428,0,0,0.33411428,-176.14063,-27)"
         clip-rule="evenodd"
         id="path9" />
    </clipPath>
    <clipPath
       clipPathUnits="userSpaceOnUse"
       id="clipPath10">
      <path
         d="M 0,0 H 850 V 760.2113 H 0 Z"
         transform="matrix(0.33411428,0,0,0.33411428,-186.96875,-49)"
         clip-rule="evenodd"
         id="path10" />
    </clipPath>
    <clipPath
       clipPathUnits="userSpaceOnUse"
       id="clipPath12">
      <path
         d="M 0,0 H 850 V 760.2113 H 0 Z"
         transform="matrix(0,0.33411764,-0.33411764,0,222.5,-60.499997)"
         clip-rule="evenodd"
         id="path12" />
    </clipPath>
    <clipPath
       clipPathUnits="userSpaceOnUse"
       id="clipPath13">
      <path
         d="M 0,0 H 850 V 760.2113 H 0 Z"
         transform="matrix(0.33411428,0,0,0.33411428,-75.25,-112)"
         clip-rule="evenodd"
         id="path13" />
    </clipPath>
    <clipPath
       clipPathUnits="userSpaceOnUse"
       id="clipPath14">
      <path
         d="M 0,0 H 850 V 760.2113 H 0 Z"
         transform="matrix(0.33411428,0,0,0.33411428,-121.71875,-112)"
         clip-rule="evenodd"
         id="path14" />
    </clipPath>
    <clipPath
       clipPathUnits="userSpaceOnUse"
       id="clipPath15">
      <path
         d="M 0,0 H 850 V 760.2113 H 0 Z"
         transform="matrix(0.33411428,0,0,0.33411428,-169.73536,-112)"
         clip-rule="evenodd"
         id="path15" />
    </clipPath>
    <clipPath
       clipPathUnits="userSpaceOnUse"
       id="clipPath16">
      <path
         d="M 0,0 H 850 V 760.2113 H 0 Z"
         transform="matrix(0.33411428,0,0,0.33411428,-90.96875,-134)"
         clip-rule="evenodd"
         id="path16" />
    </clipPath>
    <clipPath
       clipPathUnits="userSpaceOnUse"
       id="clipPath18">
      <path
         d="M 0,0 H 850 V 760.2113 H 0 Z"
         transform="matrix(0.33411764,0,0,0.33411764,-0.5,-0.5)"
         clip-rule="evenodd"
         id="path18" />
    </clipPath>
    <clipPath
       clipPathUnits="userSpaceOnUse"
       id="clipPath19">
      <path
         d="M 0,0 H 850 V 760.2113 H 0 Z"
         transform="matrix(0.33411428,0,0,0.33411428,-40.953125,-201)"
         clip-rule="evenodd"
         id="path19" />
    </clipPath>
    <clipPath
       clipPathUnits="userSpaceOnUse"
       id="clipPath20">
      <path
         d="M 0,0 H 850 V 760.2113 H 0 Z"
         transform="matrix(0.33411428,0,0,0.33411428,-15.5,-223)"
         clip-rule="evenodd"
         id="path20" />
    </clipPath>
    <clipPath
       clipPathUnits="userSpaceOnUse"
       id="clipPath21">
      <path
         d="M 0,0 H 850 V 760.2113 H 0 Z"
         transform="matrix(0.33411428,0,0,0.33411428,-96.96875,-244)"
         clip-rule="evenodd"
         id="path21" />
    </clipPath>
  </defs>
  <sodipodi:namedview
     id="namedview1"
     pagecolor="#ffffff"
     bordercolor="#000000"
     borderopacity="0.25"
     inkscape:showpageshadow="2"
     inkscape:pageopacity="0.0"
     inkscape:pagecheckerboard="0"
     inkscape:deskcolor="#d1d1d1">
    <inkscape:page
       x="0"
       y="0"
       inkscape:label="1"
       id="page1"
       width="272"
       height="244.16"
       margin="0"
       bleed="0" />
  </sodipodi:namedview>
  <g
     id="g1"
     inkscape:groupmode="layer"
     inkscape:label="1">
    <path
       id="path1"
       d="M 0,0 H 284 V 254 H 0 Z"
       style="fill:#ffffff;fill-opacity:1;fill-rule:nonzero;stroke:none"
       transform="scale(0.95774646)"
       clip-path="url(#clipPath2)" />
    <path
       id="path3"
       d="M 1,1 H 121 V 61 H 1 Z"
       style="fill:#dae8fc;fill-opacity:1;fill-rule:nonzero;stroke:#6c8ebf;stroke-width:1;stroke-linecap:butt;stroke-linejoin:miter;stroke-miterlimit:10;stroke-dasharray:none;stroke-opacity:1"
       transform="matrix(0.95774646,0,0,0.95774646,0.47887323,0.47887323)"
       clip-path="url(#clipPath4)" />
    <text
       id="text4"
       xml:space="preserve"
       transform="matrix(0.95775609,0,0,0.95775609,25.350606,25.859414)"
       clip-path="url(#clipPath5)"><tspan
         style="font-variant:normal;font-weight:700;font-size:18px;font-family:Helvetica;writing-mode:lr-tb;fill:#000000;fill-opacity:1;fill-rule:nonzero;stroke:none"
         x="0 12.005859 24.011719 29.012695 39.023438 49.03418 59.044922"
         y="0"
         sodipodi:role="line"
         id="tspan4">ES 2015</tspan></text>
    <text
       id="text5"
       xml:space="preserve"
       transform="matrix(0.95775609,0,0,0.95775609,25.829485,46.930048)"
       clip-path="url(#clipPath6)"><tspan
         style="font-variant:normal;font-weight:700;font-size:18px;font-family:Helvetica;writing-mode:lr-tb;fill:#000000;fill-opacity:1;fill-rule:nonzero;stroke:none"
         x="0 12.999023 18 28.010742 38.021484 48.032227 58.042969"
         y="0"
         sodipodi:role="line"
         id="tspan5">Classes</tspan></text>
    <path
       id="path7"
       d="M 161,1 H 281 V 61 H 161 Z"
       style="fill:#dae8fc;fill-opacity:1;fill-rule:nonzero;stroke:#6c8ebf;stroke-width:1;stroke-linecap:butt;stroke-linejoin:miter;stroke-miterlimit:10;stroke-dasharray:none;stroke-opacity:1"
       transform="matrix(0.95774646,0,0,0.95774646,0.47887323,0.47887323)"
       clip-path="url(#clipPath8)" />
    <text
       id="text8"
       xml:space="preserve"
       transform="matrix(0.95775609,0,0,0.95775609,168.69976,25.859414)"
       clip-path="url(#clipPath9)"><tspan
         style="font-variant:normal;font-weight:700;font-size:18px;font-family:Helvetica;writing-mode:lr-tb;fill:#000000;fill-opacity:1;fill-rule:nonzero;stroke:none"
         x="0 9.6679688 19.678711 30.673828 40.68457 50.695312 60.706055 67.710938 72.711914 83.707031"
         y="0"
         sodipodi:role="line"
         id="tspan8">Typescript</tspan></text>
    <text
       id="text9"
       xml:space="preserve"
       transform="matrix(0.95775609,0,0,0.95775609,179.07046,46.930048)"
       clip-path="url(#clipPath10)"><tspan
         style="font-variant:normal;font-weight:700;font-size:18px;font-family:Helvetica;writing-mode:lr-tb;fill:#000000;fill-opacity:1;fill-rule:nonzero;stroke:none"
         x="0 12.999023 18 28.010742 38.021484 48.032227 58.042969"
         y="0"
         sodipodi:role="line"
         id="tspan9">Classes</tspan></text>
    <path
       id="path11"
       d="m 151,-59 h -5 c -3.33333,0 -5,3.333332 -5,10 V 71 c 0,6.666664 -1.66667,10 -5,10 h -2.5 c -1.66667,0 -0.83333,0 2.5,0 h 2.5 c 1.66667,0 2.5,3.333336 2.5,10 v 120 c 0,6.66667 1.66667,10 5,10 h 5"
       style="fill:none;stroke:#000000;stroke-width:1;stroke-linecap:butt;stroke-linejoin:miter;stroke-miterlimit:10;stroke-dasharray:none;stroke-opacity:1"
       transform="matrix(0,-0.95774646,0.95774646,0,57.943658,213.09859)"
       clip-path="url(#clipPath12)" />
    <text
       id="text12"
       xml:space="preserve"
       transform="matrix(0.95775609,0,0,0.95775609,72.071146,107.26868)"
       clip-path="url(#clipPath13)"><tspan
         style="font-variant:normal;font-weight:normal;font-size:18px;font-family:Helvetica;writing-mode:lr-tb;fill:#000000;fill-opacity:1;fill-rule:nonzero;stroke:none"
         x="0 12.999023 23.009766 33.020508 36.457031 41.458008"
         y="0"
         sodipodi:role="line"
         id="tspan12">Don't </tspan></text>
    <text
       id="text13"
       xml:space="preserve"
       transform="matrix(0.95775609,0,0,0.95775609,116.57687,107.26868)"
       clip-path="url(#clipPath14)"><tspan
         style="font-style:oblique;font-variant:normal;font-weight:normal;font-size:18px;font-family:Helvetica;writing-mode:lr-tb;fill:#000000;fill-opacity:1;fill-rule:nonzero;stroke:none"
         x="0 5.9941406 16.004883 26.015625 30.014648 34.013672"
         y="0"
         sodipodi:role="line"
         id="tspan13">really</tspan></text>
    <text
       id="text14"
       xml:space="preserve"
       transform="matrix(0.95775609,0,0,0.95775609,162.56507,107.26868)"
       clip-path="url(#clipPath15)"><tspan
         style="font-variant:normal;font-weight:normal;font-size:18px;font-family:Helvetica;writing-mode:lr-tb;fill:#000000;fill-opacity:1;fill-rule:nonzero;stroke:none"
         x="0 10.010742 19.010742 23.009766 32.009766"
         y="0"
         sodipodi:role="line"
         id="tspan14">exist</tspan></text>
    <text
       id="text15"
       xml:space="preserve"
       transform="matrix(0.95775609,0,0,0.95775609,87.125874,128.33932)"
       clip-path="url(#clipPath16)"><tspan
         style="font-variant:normal;font-weight:normal;font-size:18px;font-family:Helvetica;writing-mode:lr-tb;fill:#000000;fill-opacity:1;fill-rule:nonzero;stroke:none"
         x="0 3.9990234 14.009766 19.010742 28.010742 38.021484 47.021484 57.032227 66.032227 75.032227 81.026367 85.025391 95.036133"
         y="0"
         sodipodi:role="line"
         id="tspan15">in Javascript</tspan></text>
    <path
       id="path17"
       d="m 1,181 h 280 v 70 H 1 Z"
       style="fill:#d5e8d4;fill-opacity:1;fill-rule:nonzero;stroke:#82b366;stroke-width:1;stroke-linecap:butt;stroke-linejoin:miter;stroke-miterlimit:10;stroke-dasharray:none;stroke-opacity:1"
       transform="matrix(0.95774646,0,0,0.95774646,0.47887323,0.47887323)"
       clip-path="url(#clipPath18)" />
    <text
       id="text18"
       xml:space="preserve"
       transform="matrix(0.95775609,0,0,0.95775609,39.223105,192.50897)"
       clip-path="url(#clipPath19)"><tspan
         style="font-variant:normal;font-weight:normal;font-size:18px;font-family:Helvetica;writing-mode:lr-tb;fill:#000000;fill-opacity:1;fill-rule:nonzero;stroke:none"
         x="0 12.999023 16.998047 27.008789 36.008789 45.008789 55.019531 64.019531 69.020508 73.019531 83.030273 88.03125 97.03125 107.04199 116.04199 126.05273 135.05273 144.05273 150.04688 154.0459 164.05664 169.05762 174.05859 184.06934 190.06348"
         y="0"
         sodipodi:role="line"
         id="tspan18">Classes in Javascript are</tspan></text>
    <text
       id="text19"
       xml:space="preserve"
       transform="matrix(0.95775609,0,0,0.95775609,14.845219,213.57961)"
       clip-path="url(#clipPath20)"><tspan
         style="font-variant:normal;font-weight:normal;font-size:18px;font-family:Helvetica;writing-mode:lr-tb;fill:#000000;fill-opacity:1;fill-rule:nonzero;stroke:none"
         x="0 3.4365234 12.436523 21.436523 31.447266 36.448242 46.458984 55.458984 60.459961 64.458984 73.458984 78.459961 87.459961 97.470703 107.48145 117.49219 123.48633 126.92285 131.92383 141.93457 150.93457 160.94531 166.93945 171.94043 181.95117 187.94531 197.95605 202.95703 212.96777 217.96875 226.96875 236.97949 246.99023"
         y="0"
         sodipodi:role="line"
         id="tspan19">'syntactic sugar' over prototypal</tspan></text>
    <text
       id="text20"
       xml:space="preserve"
       transform="matrix(0.95775609,0,0,0.95775609,92.872411,233.69249)"
       clip-path="url(#clipPath21)"><tspan
         style="font-variant:normal;font-weight:normal;font-size:18px;font-family:Helvetica;writing-mode:lr-tb;fill:#000000;fill-opacity:1;fill-rule:nonzero;stroke:none"
         x="0 3.9990234 14.009766 24.020508 34.03125 40.025391 44.024414 49.025391 59.036133 69.046875 78.046875"
         y="0"
         sodipodi:role="line"
         id="tspan20">inheritance</tspan></text>
  </g>
</svg>
