<?xml version="1.0" encoding="UTF-8" standalone="no"?>
<!-- Created with Inkscape (http://www.inkscape.org/) -->

<svg
   version="1.1"
   id="svg1"
   width="635.83997"
   height="192"
   viewBox="0 0 635.83997 192"
   sodipodi:docname="ts-8.pdf"
   xmlns:inkscape="http://www.inkscape.org/namespaces/inkscape"
   xmlns:sodipodi="http://sodipodi.sourceforge.net/DTD/sodipodi-0.dtd"
   xmlns="http://www.w3.org/2000/svg"
   xmlns:svg="http://www.w3.org/2000/svg">
  <defs
     id="defs1">
    <clipPath
       clipPathUnits="userSpaceOnUse"
       id="clipPath2">
      <path
         d="M 0,0 H 1987.4999 V 598.64453 H 0 Z"
         transform="scale(0.33408807)"
         clip-rule="evenodd"
         id="path2" />
    </clipPath>
    <clipPath
       clipPathUnits="userSpaceOnUse"
       id="clipPath4">
      <path
         d="M 0,0 H 1987.4999 V 595.65131 H 0 Z"
         transform="matrix(0.33408807,0,0,0.33408807,-0.50000001,-0.50000001)"
         clip-rule="evenodd"
         id="path4" />
    </clipPath>
    <clipPath
       clipPathUnits="userSpaceOnUse"
       id="clipPath5">
      <path
         d="M 0,0 H 1987.4999 V 595.65131 H 0 Z"
         transform="matrix(0.33408471,0,0,0.33408471,-31.468749,-93)"
         clip-rule="evenodd"
         id="path5" />
    </clipPath>
    <clipPath
       clipPathUnits="userSpaceOnUse"
       id="clipPath6">
      <path
         d="M 0,0 H 1987.4999 V 595.65131 H 0 Z"
         transform="matrix(0.33408471,0,0,0.33408471,-28.40625,-120)"
         clip-rule="evenodd"
         id="path6" />
    </clipPath>
    <clipPath
       clipPathUnits="userSpaceOnUse"
       id="clipPath8">
      <path
         d="M 0,0 H 1987.4999 V 595.65131 H 0 Z"
         transform="matrix(0.33408807,0,0,0.33408807,-0.50000001,-0.50000001)"
         clip-rule="evenodd"
         id="path8" />
    </clipPath>
    <clipPath
       clipPathUnits="userSpaceOnUse"
       id="clipPath10">
      <path
         d="M 0,0 H 1987.4999 V 595.65131 H 0 Z"
         transform="matrix(0.33408807,0,0,0.33408807,-0.50000001,-0.50000001)"
         clip-rule="evenodd"
         id="path10" />
    </clipPath>
    <clipPath
       clipPathUnits="userSpaceOnUse"
       id="clipPath11">
      <path
         d="M 0,0 H 1987.4999 V 595.65131 H 0 Z"
         transform="matrix(0.33408471,0,0,0.33408471,-285.79688,-129)"
         clip-rule="evenodd"
         id="path11" />
    </clipPath>
    <clipPath
       clipPathUnits="userSpaceOnUse"
       id="clipPath13">
      <path
         d="M 0,0 H 1987.4999 V 595.65131 H 0 Z"
         transform="matrix(0.33408807,0,0,0.33408807,-0.50000001,-0.50000001)"
         clip-rule="evenodd"
         id="path13" />
    </clipPath>
    <clipPath
       clipPathUnits="userSpaceOnUse"
       id="clipPath14">
      <path
         d="M 0,0 H 1987.4999 V 595.65131 H 0 Z"
         transform="matrix(0.33408471,0,0,0.33408471,-258.29687,-19)"
         clip-rule="evenodd"
         id="path14" />
    </clipPath>
    <clipPath
       clipPathUnits="userSpaceOnUse"
       id="clipPath15">
      <path
         d="M 0,0 H 1987.4999 V 595.65131 H 0 Z"
         transform="matrix(0.33408471,0,0,0.33408471,-400.53125,-38.999999)"
         clip-rule="evenodd"
         id="path15" />
    </clipPath>
    <clipPath
       clipPathUnits="userSpaceOnUse"
       id="clipPath17">
      <path
         d="M 0,0 H 1987.4999 V 595.65131 H 0 Z"
         transform="matrix(0.33408807,0,0,0.33408807,-0.50000001,-0.50000001)"
         clip-rule="evenodd"
         id="path17" />
    </clipPath>
    <clipPath
       clipPathUnits="userSpaceOnUse"
       id="clipPath18">
      <path
         d="M 0,0 H 1987.4999 V 595.65131 H 0 Z"
         transform="matrix(0.33408471,0,0,0.33408471,-241.25,-168)"
         clip-rule="evenodd"
         id="path18" />
    </clipPath>
    <clipPath
       clipPathUnits="userSpaceOnUse"
       id="clipPath19">
      <path
         d="M 0,0 H 1987.4999 V 595.65131 H 0 Z"
         transform="matrix(0.33408471,0,0,0.33408471,-406.75,-188)"
         clip-rule="evenodd"
         id="path19" />
    </clipPath>
    <clipPath
       clipPathUnits="userSpaceOnUse"
       id="clipPath21">
      <path
         d="M 0,0 H 1987.4999 V 595.65131 H 0 Z"
         transform="matrix(0.33408807,0,0,0.33408807,-0.50000001,-0.50000001)"
         clip-rule="evenodd"
         id="path21" />
    </clipPath>
    <clipPath
       clipPathUnits="userSpaceOnUse"
       id="clipPath22">
      <path
         d="M 0,0 H 1987.4999 V 595.65131 H 0 Z"
         transform="matrix(0.33408471,0,0,0.33408471,-231.09375,-69)"
         clip-rule="evenodd"
         id="path22" />
    </clipPath>
    <clipPath
       clipPathUnits="userSpaceOnUse"
       id="clipPath23">
      <path
         d="M 0,0 H 1987.4999 V 595.65131 H 0 Z"
         transform="matrix(0.33408471,0,0,0.33408471,-326.76563,-88.999999)"
         clip-rule="evenodd"
         id="path23" />
    </clipPath>
  </defs>
  <sodipodi:namedview
     id="namedview1"
     pagecolor="#ffffff"
     bordercolor="#000000"
     borderopacity="0.25"
     inkscape:showpageshadow="2"
     inkscape:pageopacity="0.0"
     inkscape:pagecheckerboard="0"
     inkscape:deskcolor="#d1d1d1">
    <inkscape:page
       x="0"
       y="0"
       inkscape:label="1"
       id="page1"
       width="635.83997"
       height="192"
       margin="0"
       bleed="0" />
  </sodipodi:namedview>
  <g
     id="g1"
     inkscape:groupmode="layer"
     inkscape:label="1">
    <path
       id="path1"
       d="M 0,0 H 664 V 200 H 0 Z"
       style="fill:#ffffff;fill-opacity:1;fill-rule:nonzero;stroke:none"
       transform="scale(0.95783122)"
       clip-path="url(#clipPath2)" />
    <path
       id="path3"
       d="m 1,68.5 h 160 v 60 H 1 Z"
       style="fill:#dae8fc;fill-opacity:1;fill-rule:nonzero;stroke:#6c8ebf;stroke-width:1;stroke-linecap:butt;stroke-linejoin:miter;stroke-miterlimit:10;stroke-dasharray:none;stroke-opacity:1"
       transform="matrix(0.95783122,0,0,0.95783122,0.47891562,0.47891562)"
       clip-path="url(#clipPath4)" />
    <text
       id="text4"
       xml:space="preserve"
       transform="matrix(0.95784086,0,0,0.95784086,30.142054,89.0792)"
       clip-path="url(#clipPath5)"><tspan
         style="font-variant:normal;font-weight:normal;font-size:22px;font-family:Helvetica;writing-mode:lr-tb;fill:#000000;fill-opacity:1;fill-rule:nonzero;stroke:none"
         x="0 11 23.235352 34.235352 46.470703 57.470703 68.470703 75.796875 80.68457 92.919922"
         y="0"
         sodipodi:role="line"
         id="tspan4">Javascript</tspan></text>
    <text
       id="text5"
       xml:space="preserve"
       transform="matrix(0.95784086,0,0,0.95784086,27.208667,114.9409)"
       clip-path="url(#clipPath6)"><tspan
         style="font-variant:normal;font-weight:normal;font-size:22px;font-family:Helvetica;writing-mode:lr-tb;fill:#000000;fill-opacity:1;fill-rule:nonzero;stroke:none"
         x="0 14.673828 22 34.235352 40.347656 52.583008 58.695312 69.695312 81.930664 94.166016"
         y="0"
         sodipodi:role="line"
         id="tspan5">Prototypes</tspan></text>
    <path
       id="path7"
       d="m 211,1 h -15 c -6.66667,0 -10,3.333333 -10,10 v 77.5 c 0,6.666664 -3.33333,10 -10,10 h -7.5 c -5,0 -4.16667,0 2.5,0 h 7.5 c 5,0 7.5,3.33334 7.5,10 V 186 c 0,6.66667 3.33333,10 10,10 h 15"
       style="fill:none;stroke:#000000;stroke-width:1;stroke-linecap:butt;stroke-linejoin:miter;stroke-miterlimit:10;stroke-dasharray:none;stroke-opacity:1"
       transform="matrix(0.95783122,0,0,0.95783122,0.47891562,0.47891562)"
       clip-path="url(#clipPath8)" />
    <path
       id="path9"
       d="m 221,101 h 440 v 45 H 221 Z"
       style="fill:#ffffff;fill-opacity:1;fill-rule:nonzero;stroke:#000000;stroke-width:1;stroke-linecap:butt;stroke-linejoin:miter;stroke-miterlimit:10;stroke-dasharray:none;stroke-opacity:1"
       transform="matrix(0.95783122,0,0,0.95783122,0.47891562,0.47891562)"
       clip-path="url(#clipPath10)" />
    <text
       id="text10"
       xml:space="preserve"
       transform="matrix(0.95784086,0,0,0.95784086,273.74793,123.56147)"
       clip-path="url(#clipPath11)"><tspan
         style="font-variant:normal;font-weight:normal;font-size:16px;font-family:Helvetica;writing-mode:lr-tb;fill:#000000;fill-opacity:1;fill-rule:nonzero;stroke:none"
         x="0 11.554688 20.453125 32.007812 36.453125 44.453125 53.351562 62.25 66.695312 78.25 87.148438 91.59375 104.92188 113.82031 121.82031 129.82031 134.26562 143.16406 148.49219 157.39062 166.28906 175.1875 184.08594 188.53125 200.08594 203.64062 208.08594 216.98438 221.42969 230.32812 234.77344 243.67188 249 257.89844 262.34375 271.24219 275.6875 283.6875 292.58594 301.48438"
         y="0"
         sodipodi:role="line"
         id="tspan10">How can we mess around with a prototype?</tspan></text>
    <path
       id="path12"
       d="M 221,1 H 661 V 46 H 221 Z"
       style="fill:#ffffff;fill-opacity:1;fill-rule:nonzero;stroke:#000000;stroke-width:1;stroke-linecap:butt;stroke-linejoin:miter;stroke-miterlimit:10;stroke-dasharray:none;stroke-opacity:1"
       transform="matrix(0.95783122,0,0,0.95783122,0.47891562,0.47891562)"
       clip-path="url(#clipPath13)" />
    <text
       id="text13"
       xml:space="preserve"
       transform="matrix(0.95784086,0,0,0.95784086,247.4073,18.198976)"
       clip-path="url(#clipPath14)"><tspan
         style="font-variant:normal;font-weight:normal;font-size:16px;font-family:Helvetica;writing-mode:lr-tb;fill:#000000;fill-opacity:1;fill-rule:nonzero;stroke:none"
         x="0 11.554688 20.453125 32.007812 36.453125 45.351562 54.25 58.695312 70.25 79.148438 83.59375 91.59375 96.921875 105.82031 114.71875 119.16406 128.0625 132.50781 140.50781 149.40625 162.73438 171.63281 176.07812 184.97656 188.53125 197.42969 206.32812 210.77344 214.32812 217.88281 225.88281 234.78125 239.22656 248.125 252.57031 255.625 263.625 267.17969 276.07812 284.07812 292.07812 295.13281 299.57812 303.13281 312.03125 316.47656 325.375 334.27344 339.60156 352.92969 361.82812"
         y="0"
         sodipodi:role="line"
         id="tspan13">How do we create something like a 'class' in normal</tspan></text>
    <text
       id="text14"
       xml:space="preserve"
       transform="matrix(0.95784086,0,0,0.95784086,383.6452,37.355793)"
       clip-path="url(#clipPath15)"><tspan
         style="font-variant:normal;font-weight:normal;font-size:16px;font-family:Helvetica;writing-mode:lr-tb;fill:#000000;fill-opacity:1;fill-rule:nonzero;stroke:none"
         x="0 8 16.898438 24.898438 33.796875 41.796875 49.796875 55.125 58.679688 67.578125 72.023438"
         y="0"
         sodipodi:role="line"
         id="tspan14">Javascript?</tspan></text>
    <path
       id="path16"
       d="m 221,151 h 440 v 45 H 221 Z"
       style="fill:#ffffff;fill-opacity:1;fill-rule:nonzero;stroke:#000000;stroke-width:1;stroke-linecap:butt;stroke-linejoin:miter;stroke-miterlimit:10;stroke-dasharray:none;stroke-opacity:1"
       transform="matrix(0.95783122,0,0,0.95783122,0.47891562,0.47891562)"
       clip-path="url(#clipPath17)" />
    <text
       id="text17"
       xml:space="preserve"
       transform="matrix(0.95784086,0,0,0.95784086,231.07911,160.91726)"
       clip-path="url(#clipPath18)"><tspan
         style="font-variant:normal;font-weight:normal;font-size:16px;font-family:Helvetica;writing-mode:lr-tb;fill:#000000;fill-opacity:1;fill-rule:nonzero;stroke:none"
         x="0 15.101562 24 32.898438 37.34375 40.398438 48.398438 52.84375 57.289062 66.1875 75.085938 79.53125 88.429688 91.984375 96.148438 100.59375 109.49219 114.82031 123.71875 132.61719 140.61719 149.51562 153.96094 162.85938 171.75781 176.20312 187.75781 196.65625 205.55469 214.45312 218.89844 227.79688 232.24219 241.14062 246.46875 255.36719 259.8125 268.71094 273.15625 281.15625 290.05469 298.95312 303.39844 312.29688 321.19531 330.09375 334.53906 343.4375 352.33594 356.78125 365.67969 374.57812 378.13281 387.03125 395.03125"
         y="0"
         sodipodi:role="line"
         id="tspan17">What's the difference between a prototype and an object</tspan></text>
    <text
       id="text18"
       xml:space="preserve"
       transform="matrix(0.95784086,0,0,0.95784086,389.60177,180.07408)"
       clip-path="url(#clipPath19)"><tspan
         style="font-variant:normal;font-weight:normal;font-size:16px;font-family:Helvetica;writing-mode:lr-tb;fill:#000000;fill-opacity:1;fill-rule:nonzero;stroke:none"
         x="0 3.5546875 12.453125 20.453125 24.898438 33.796875 42.695312 50.695312 59.59375"
         y="0"
         sodipodi:role="line"
         id="tspan18">instance?</tspan></text>
    <path
       id="path20"
       d="M 221,51 H 661 V 96 H 221 Z"
       style="fill:#ffffff;fill-opacity:1;fill-rule:nonzero;stroke:#000000;stroke-width:1;stroke-linecap:butt;stroke-linejoin:miter;stroke-miterlimit:10;stroke-dasharray:none;stroke-opacity:1"
       transform="matrix(0.95783122,0,0,0.95783122,0.47891562,0.47891562)"
       clip-path="url(#clipPath21)" />
    <text
       id="text21"
       xml:space="preserve"
       transform="matrix(0.95784086,0,0,0.95784086,221.35104,66.091019)"
       clip-path="url(#clipPath22)"><tspan
         style="font-variant:normal;font-weight:normal;font-size:16px;font-family:Helvetica;writing-mode:lr-tb;fill:#000000;fill-opacity:1;fill-rule:nonzero;stroke:none"
         x="0 15.101562 24 32.898438 37.34375 41.789062 45.34375 53.34375 57.789062 62.234375 71.132812 80.03125 84.476562 89.804688 98.703125 102.25781 111.15625 115.60156 119.15625 128.05469 136.95312 144.95312 153.85156 157.40625 166.30469 170.75 179.64844 188.54688 192.99219 204.54688 213.44531 222.34375 231.24219 235.6875 244.58594 249.03125 257.03125 265.92969 274.82812 282.82812 287.27344 292.60156 301.5 309.5 313.94531 322.84375 328.17188 332.61719 337.0625 345.96094 354.85938 362.85938 367.30469 370.85938 379.75781 388.65625 393.10156 397.54688 401.99219 410.89062"
         y="0"
         sodipodi:role="line"
         id="tspan21">What is the relationship between a constructor function, the</tspan></text>
    <text
       id="text22"
       xml:space="preserve"
       transform="matrix(0.95784086,0,0,0.95784086,312.98947,85.247836)"
       clip-path="url(#clipPath23)"><tspan
         style="font-variant:normal;font-weight:normal;font-size:16px;font-family:Helvetica;writing-mode:lr-tb;fill:#000000;fill-opacity:1;fill-rule:nonzero;stroke:none"
         x="0 3.0546875 11.953125 20.851562 32.40625 35.460938 39.90625 47.90625 56.804688 64.804688 76.359375 85.257812 90.585938 99.484375 103.92969 108.375 117.27344 126.17188 135.07031 139.51562 148.41406 152.85938 161.75781 167.08594 175.98438 180.42969 189.32812 193.77344 201.77344 210.67188 219.57031"
         y="0"
         sodipodi:role="line"
         id="tspan22">'new' keyword, and a prototype?</tspan></text>
  </g>
</svg>
