<?xml version="1.0" encoding="UTF-8" standalone="no"?>
<!-- Created with Inkscape (http://www.inkscape.org/) -->

<svg
   version="1.1"
   id="svg1"
   width="635.83997"
   height="240"
   viewBox="0 0 635.83997 240"
   sodipodi:docname="ts-9.pdf"
   xmlns:inkscape="http://www.inkscape.org/namespaces/inkscape"
   xmlns:sodipodi="http://sodipodi.sourceforge.net/DTD/sodipodi-0.dtd"
   xmlns="http://www.w3.org/2000/svg"
   xmlns:svg="http://www.w3.org/2000/svg">
  <defs
     id="defs1">
    <clipPath
       clipPathUnits="userSpaceOnUse"
       id="clipPath2">
      <path
         d="M 0,0 H 1987.4999 V 748.30566 H 0 Z"
         transform="scale(0.33408807)"
         clip-rule="evenodd"
         id="path2" />
    </clipPath>
    <clipPath
       clipPathUnits="userSpaceOnUse"
       id="clipPath4">
      <path
         d="M 0,0 H 1987.4999 V 745.31244 H 0 Z"
         transform="matrix(0.33408807,0,0,0.33408807,-0.50000001,-0.50000001)"
         clip-rule="evenodd"
         id="path4" />
    </clipPath>
    <clipPath
       clipPathUnits="userSpaceOnUse"
       id="clipPath5">
      <path
         d="M 0,0 H 1987.4999 V 745.31244 H 0 Z"
         transform="matrix(0.33408471,0,0,0.33408471,-27.203125,-131)"
         clip-rule="evenodd"
         id="path5" />
    </clipPath>
    <clipPath
       clipPathUnits="userSpaceOnUse"
       id="clipPath7">
      <path
         d="M 0,0 H 1987.4999 V 745.31244 H 0 Z"
         transform="matrix(0.33408807,0,0,0.33408807,-0.50000001,-0.50000001)"
         clip-rule="evenodd"
         id="path7" />
    </clipPath>
    <clipPath
       clipPathUnits="userSpaceOnUse"
       id="clipPath9">
      <path
         d="M 0,0 H 1987.4999 V 745.31244 H 0 Z"
         transform="matrix(0.33408807,0,0,0.33408807,-0.50000001,-0.50000001)"
         clip-rule="evenodd"
         id="path9" />
    </clipPath>
    <clipPath
       clipPathUnits="userSpaceOnUse"
       id="clipPath10">
      <path
         d="M 0,0 H 1987.4999 V 745.31244 H 0 Z"
         transform="matrix(0.33408471,0,0,0.33408471,-342.28125,-129)"
         clip-rule="evenodd"
         id="path10" />
    </clipPath>
    <clipPath
       clipPathUnits="userSpaceOnUse"
       id="clipPath12">
      <path
         d="M 0,0 H 1987.4999 V 745.31244 H 0 Z"
         transform="matrix(0.33408807,0,0,0.33408807,-0.50000001,-0.50000001)"
         clip-rule="evenodd"
         id="path12" />
    </clipPath>
    <clipPath
       clipPathUnits="userSpaceOnUse"
       id="clipPath13">
      <path
         d="M 0,0 H 1987.4999 V 745.31244 H 0 Z"
         transform="matrix(0.33408471,0,0,0.33408471,-249.3125,-19)"
         clip-rule="evenodd"
         id="path13" />
    </clipPath>
    <clipPath
       clipPathUnits="userSpaceOnUse"
       id="clipPath14">
      <path
         d="M 0,0 H 1987.4999 V 745.31244 H 0 Z"
         transform="matrix(0.33408471,0,0,0.33408471,-299.28125,-38.999999)"
         clip-rule="evenodd"
         id="path14" />
    </clipPath>
    <clipPath
       clipPathUnits="userSpaceOnUse"
       id="clipPath16">
      <path
         d="M 0,0 H 1987.4999 V 745.31244 H 0 Z"
         transform="matrix(0.33408807,0,0,0.33408807,-0.50000001,-0.50000001)"
         clip-rule="evenodd"
         id="path16" />
    </clipPath>
    <clipPath
       clipPathUnits="userSpaceOnUse"
       id="clipPath17">
      <path
         d="M 0,0 H 1987.4999 V 745.31244 H 0 Z"
         transform="matrix(0.33408471,0,0,0.33408471,-228.875,-168)"
         clip-rule="evenodd"
         id="path17" />
    </clipPath>
    <clipPath
       clipPathUnits="userSpaceOnUse"
       id="clipPath18">
      <path
         d="M 0,0 H 1987.4999 V 745.31244 H 0 Z"
         transform="matrix(0.33408471,0,0,0.33408471,-346.71874,-188)"
         clip-rule="evenodd"
         id="path18" />
    </clipPath>
    <clipPath
       clipPathUnits="userSpaceOnUse"
       id="clipPath20">
      <path
         d="M 0,0 H 1987.4999 V 745.31244 H 0 Z"
         transform="matrix(0.33408807,0,0,0.33408807,-0.50000001,-0.50000001)"
         clip-rule="evenodd"
         id="path20" />
    </clipPath>
    <clipPath
       clipPathUnits="userSpaceOnUse"
       id="clipPath21">
      <path
         d="M 0,0 H 1987.4999 V 745.31244 H 0 Z"
         transform="matrix(0.33408471,0,0,0.33408471,-392.07813,-229)"
         clip-rule="evenodd"
         id="path21" />
    </clipPath>
    <clipPath
       clipPathUnits="userSpaceOnUse"
       id="clipPath23">
      <path
         d="M 0,0 H 1987.4999 V 745.31244 H 0 Z"
         transform="matrix(0.33408807,0,0,0.33408807,-0.50000001,-0.50000001)"
         clip-rule="evenodd"
         id="path23" />
    </clipPath>
    <clipPath
       clipPathUnits="userSpaceOnUse"
       id="clipPath24">
      <path
         d="M 0,0 H 1987.4999 V 745.31244 H 0 Z"
         transform="matrix(0.33408471,0,0,0.33408471,-304.48438,-79)"
         clip-rule="evenodd"
         id="path24" />
    </clipPath>
  </defs>
  <sodipodi:namedview
     id="namedview1"
     pagecolor="#ffffff"
     bordercolor="#000000"
     borderopacity="0.25"
     inkscape:showpageshadow="2"
     inkscape:pageopacity="0.0"
     inkscape:pagecheckerboard="0"
     inkscape:deskcolor="#d1d1d1">
    <inkscape:page
       x="0"
       y="0"
       inkscape:label="1"
       id="page1"
       width="635.83997"
       height="240"
       margin="0"
       bleed="0" />
  </sodipodi:namedview>
  <g
     id="g1"
     inkscape:groupmode="layer"
     inkscape:label="1">
    <path
       id="path1"
       d="M 0,0 H 664 V 250 H 0 Z"
       style="fill:#ffffff;fill-opacity:1;fill-rule:nonzero;stroke:none"
       transform="scale(0.95783122)"
       clip-path="url(#clipPath2)" />
    <path
       id="path3"
       d="m 1,93.5 h 160 v 60 H 1 Z"
       style="fill:#dae8fc;fill-opacity:1;fill-rule:nonzero;stroke:#6c8ebf;stroke-width:1;stroke-linecap:butt;stroke-linejoin:miter;stroke-miterlimit:10;stroke-dasharray:none;stroke-opacity:1"
       transform="matrix(0.95783122,0,0,0.95783122,0.47891562,0.47891562)"
       clip-path="url(#clipPath4)" />
    <text
       id="text4"
       xml:space="preserve"
       transform="matrix(0.95784086,0,0,0.95784086,26.056265,125.47715)"
       clip-path="url(#clipPath5)"><tspan
         style="font-variant:normal;font-weight:normal;font-size:22px;font-family:Helvetica;writing-mode:lr-tb;fill:#000000;fill-opacity:1;fill-rule:nonzero;stroke:none"
         x="0 15.887695 28.123047 39.123047 51.358398 58.68457 70.919922 77.032227 89.267578 96.59375"
         y="0"
         sodipodi:role="line"
         id="tspan4">Decorators</tspan></text>
    <path
       id="path6"
       d="m 211,1 h -15 c -6.66667,0 -10,3.333333 -10,10 v 102.5 c 0,6.66666 -3.33333,10 -10,10 h -7.5 c -5,0 -4.16667,0 2.5,0 h 7.5 c 5,0 7.5,3.33334 7.5,10 V 236 c 0,6.66667 3.33333,10 10,10 h 15"
       style="fill:none;stroke:#000000;stroke-width:1;stroke-linecap:butt;stroke-linejoin:miter;stroke-miterlimit:10;stroke-dasharray:none;stroke-opacity:1"
       transform="matrix(0.95783122,0,0,0.95783122,0.47891562,0.47891562)"
       clip-path="url(#clipPath7)" />
    <path
       id="path8"
       d="m 221,101 h 440 v 45 H 221 Z"
       style="fill:#ffffff;fill-opacity:1;fill-rule:nonzero;stroke:#000000;stroke-width:1;stroke-linecap:butt;stroke-linejoin:miter;stroke-miterlimit:10;stroke-dasharray:none;stroke-opacity:1"
       transform="matrix(0.95783122,0,0,0.95783122,0.47891562,0.47891562)"
       clip-path="url(#clipPath9)" />
    <text
       id="text9"
       xml:space="preserve"
       transform="matrix(0.95784086,0,0,0.95784086,327.85097,123.56147)"
       clip-path="url(#clipPath10)"><tspan
         style="font-variant:normal;font-weight:normal;font-size:16px;font-family:Helvetica;writing-mode:lr-tb;fill:#000000;fill-opacity:1;fill-rule:nonzero;stroke:none"
         x="0 11.554688 19.554688 28.453125 37.351562 41.796875 45.351562 54.25 62.25 65.804688 74.703125 83.601562 88.046875 96.945312 105.84375 110.28906 118.28906 121.84375 130.74219 138.74219 146.74219 155.64062 163.64062 168.08594 176.98438 185.88281 189.4375"
         y="0"
         sodipodi:role="line"
         id="tspan9">Used inside/on classes only</tspan></text>
    <path
       id="path11"
       d="M 221,1 H 661 V 46 H 221 Z"
       style="fill:#ffffff;fill-opacity:1;fill-rule:nonzero;stroke:#000000;stroke-width:1;stroke-linecap:butt;stroke-linejoin:miter;stroke-miterlimit:10;stroke-dasharray:none;stroke-opacity:1"
       transform="matrix(0.95783122,0,0,0.95783122,0.47891562,0.47891562)"
       clip-path="url(#clipPath12)" />
    <text
       id="text12"
       xml:space="preserve"
       transform="matrix(0.95784086,0,0,0.95784086,238.8017,18.198976)"
       clip-path="url(#clipPath13)"><tspan
         style="font-variant:normal;font-weight:normal;font-size:16px;font-family:Helvetica;writing-mode:lr-tb;fill:#000000;fill-opacity:1;fill-rule:nonzero;stroke:none"
         x="0 9.7734375 18.671875 27.570312 35.570312 40.015625 43.570312 52.46875 61.367188 69.367188 73.8125 78.257812 87.15625 96.054688 100.5 104.94531 112.94531 121.84375 130.74219 135.1875 144.08594 152.98438 157.42969 166.32812 174.32812 183.22656 192.125 196.57031 201.01562 209.91406 214.35938 227.6875 236.58594 245.48438 249.03906 253.48438 261.48438 265.92969 273.92969 282.82812 291.72656 300.625 309.52344 318.42188 322.86719 331.76562 340.66406 348.66406 353.10938 362.00781 365.5625 374.46094"
         y="0"
         sodipodi:role="line"
         id="tspan12">Functions that can be used to modify/change/anything</tspan></text>
    <text
       id="text13"
       xml:space="preserve"
       transform="matrix(0.95784086,0,0,0.95784086,286.66381,37.355793)"
       clip-path="url(#clipPath14)"><tspan
         style="font-variant:normal;font-weight:normal;font-size:16px;font-family:Helvetica;writing-mode:lr-tb;fill:#000000;fill-opacity:1;fill-rule:nonzero;stroke:none"
         x="0 8.8984375 12.453125 16.617188 21.0625 29.960938 35.289062 44.1875 53.085938 57.53125 61.976562 70.875 76.203125 85.101562 94 102.89844 108.22656 112.67188 116.22656 125.125 133.125 137.57031 150.89844 159.79688 164.24219 173.14062 182.03906 190.9375 198.9375 203.38281 206.9375 215.83594 220.28125 224.72656 233.625 242.52344 246.96875 254.96875 258.52344 267.42188 275.42188"
         y="0"
         sodipodi:role="line"
         id="tspan13">different properties/methods in the class</tspan></text>
    <path
       id="path15"
       d="m 221,151 h 440 v 45 H 221 Z"
       style="fill:#ffffff;fill-opacity:1;fill-rule:nonzero;stroke:#000000;stroke-width:1;stroke-linecap:butt;stroke-linejoin:miter;stroke-miterlimit:10;stroke-dasharray:none;stroke-opacity:1"
       transform="matrix(0.95783122,0,0,0.95783122,0.47891562,0.47891562)"
       clip-path="url(#clipPath16)" />
    <text
       id="text16"
       xml:space="preserve"
       transform="matrix(0.95784086,0,0,0.95784086,219.22583,160.91726)"
       clip-path="url(#clipPath17)"><tspan
         style="font-variant:normal;font-weight:normal;font-size:16px;font-family:Helvetica;writing-mode:lr-tb;fill:#000000;fill-opacity:1;fill-rule:nonzero;stroke:none"
         x="0 11.554688 20.453125 29.351562 38.25 43.578125 51.578125 56.023438 64.921875 73.820312 82.71875 86.273438 95.171875 104.07031 108.51562 112.96094 121.85938 130.75781 135.20312 144.10156 149.42969 158.32812 167.22656 172.55469 177 180.55469 189.45312 193.89844 205.45312 214.35156 217.90625 225.90625 234.80469 239.25 248.14844 257.04688 265.04688 273.94531 279.27344 288.17188 292.61719 301.51562 306.84375 314.84375 319.28906 328.1875 333.51562 342.41406 346.85938 352.1875 361.08594 369.98438 374.42969 383.32812 388.65625 397.55469 402 406.44531 415.34375"
         y="0"
         sodipodi:role="line"
         id="tspan16">Understanding the order in which decorators are ran are the</tspan></text>
    <text
       id="text17"
       xml:space="preserve"
       transform="matrix(0.95784086,0,0,0.95784086,332.10138,180.07408)"
       clip-path="url(#clipPath18)"><tspan
         style="font-variant:normal;font-weight:normal;font-size:16px;font-family:Helvetica;writing-mode:lr-tb;fill:#000000;fill-opacity:1;fill-rule:nonzero;stroke:none"
         x="0 8 16.898438 24.898438 29.34375 33.789062 42.6875 47.132812 56.03125 64.929688 73.828125 82.726562 88.054688 96.054688 100.5 109.39844 118.29688 127.19531 130.75 139.64844 148.54688 152.99219 157.4375 166.33594 175.23438"
         y="0"
         sodipodi:role="line"
         id="tspan17">key to understanding them</tspan></text>
    <path
       id="path19"
       d="m 221,201 h 440 v 45 H 221 Z"
       style="fill:#ffffff;fill-opacity:1;fill-rule:nonzero;stroke:#000000;stroke-width:1;stroke-linecap:butt;stroke-linejoin:miter;stroke-miterlimit:10;stroke-dasharray:none;stroke-opacity:1"
       transform="matrix(0.95783122,0,0,0.95783122,0.47891562,0.47891562)"
       clip-path="url(#clipPath20)" />
    <text
       id="text20"
       xml:space="preserve"
       transform="matrix(0.95784086,0,0,0.95784086,375.54845,219.34556)"
       clip-path="url(#clipPath21)"><tspan
         style="font-variant:normal;font-weight:normal;font-size:16px;font-family:Helvetica;writing-mode:lr-tb;fill:#000000;fill-opacity:1;fill-rule:nonzero;stroke:none"
         x="0 10.671875 18.671875 27.570312 36.46875 41.796875 45.351562 58.679688 67.578125 76.476562 80.921875 89.820312 93.375"
         y="0"
         sodipodi:role="line"
         id="tspan20">Experimental!</tspan></text>
    <path
       id="path22"
       d="M 221,51 H 661 V 96 H 221 Z"
       style="fill:#ffffff;fill-opacity:1;fill-rule:nonzero;stroke:#000000;stroke-width:1;stroke-linecap:butt;stroke-linejoin:miter;stroke-miterlimit:10;stroke-dasharray:none;stroke-opacity:1"
       transform="matrix(0.95783122,0,0,0.95783122,0.47891562,0.47891562)"
       clip-path="url(#clipPath23)" />
    <text
       id="text23"
       xml:space="preserve"
       transform="matrix(0.95784086,0,0,0.95784086,291.64758,75.669428)"
       clip-path="url(#clipPath24)"><tspan
         style="font-variant:normal;font-weight:normal;font-size:16px;font-family:Helvetica;writing-mode:lr-tb;fill:#000000;fill-opacity:1;fill-rule:nonzero;stroke:none"
         x="0 11.554688 20.453125 24.898438 29.34375 33.789062 42.6875 51.585938 56.03125 64.03125 72.929688 86.257812 95.15625 99.601562 108.5 116.5 120.94531 128.94531 137.84375 145.84375 154.74219 162.74219 170.74219 176.07031 179.625 188.52344 192.96875 197.41406 206.3125 215.21094 223.21094 232.10938 237.4375 246.33594 250.78125 259.67969 265.00781"
         y="0"
         sodipodi:role="line"
         id="tspan23">Not the same as Javascript decorators</tspan></text>
  </g>
</svg>
