<?xml version="1.0" encoding="UTF-8" standalone="no"?>
<!-- Created with Inkscape (http://www.inkscape.org/) -->

<svg
   version="1.1"
   id="svg1"
   width="702.71997"
   height="394.55997"
   viewBox="0 0 702.71997 394.55997"
   sodipodi:docname="ts-10.pdf"
   xmlns:inkscape="http://www.inkscape.org/namespaces/inkscape"
   xmlns:sodipodi="http://sodipodi.sourceforge.net/DTD/sodipodi-0.dtd"
   xmlns="http://www.w3.org/2000/svg"
   xmlns:svg="http://www.w3.org/2000/svg">
  <defs
     id="defs1">
    <clipPath
       clipPathUnits="userSpaceOnUse"
       id="clipPath2">
      <path
         d="M 0,0 H 2195.8333 V 1232.5386 H 0 Z"
         transform="scale(0.33426947)"
         clip-rule="evenodd"
         id="path2" />
    </clipPath>
    <clipPath
       clipPathUnits="userSpaceOnUse"
       id="clipPath4">
      <path
         d="M 0,0 H 2195.8333 V 1226.5553 H 0 Z"
         transform="matrix(0.33426947,0,0,0.33426947,-0.49999999,-0.49999999)"
         clip-rule="evenodd"
         id="path4" />
    </clipPath>
    <clipPath
       clipPathUnits="userSpaceOnUse"
       id="clipPath5">
      <path
         d="M 0,0 H 2195.8333 V 1226.5553 H 0 Z"
         transform="matrix(0.33426611,0,0,0.33426611,-270.95312,-22)"
         clip-rule="evenodd"
         id="path5" />
    </clipPath>
    <clipPath
       clipPathUnits="userSpaceOnUse"
       id="clipPath7">
      <path
         d="M 0,0 H 2195.8333 V 1226.5553 H 0 Z"
         transform="matrix(0.33426947,0,0,0.33426947,-0.49999999,-0.49999999)"
         clip-rule="evenodd"
         id="path7" />
    </clipPath>
    <clipPath
       clipPathUnits="userSpaceOnUse"
       id="clipPath9">
      <path
         d="M 0,0 H 2195.8333 V 1226.5553 H 0 Z"
         transform="matrix(0.33426947,0,0,0.33426947,-0.49999999,-0.49999999)"
         clip-rule="evenodd"
         id="path9" />
    </clipPath>
    <clipPath
       clipPathUnits="userSpaceOnUse"
       id="clipPath11">
      <path
         d="M 0,0 H 2195.8333 V 1226.5553 H 0 Z"
         transform="matrix(0.33426947,0,0,0.33426947,-0.49999999,-0.49999999)"
         clip-rule="evenodd"
         id="path11" />
    </clipPath>
    <clipPath
       clipPathUnits="userSpaceOnUse"
       id="clipPath12">
      <path
         d="M 0,0 H 2195.8333 V 1226.5553 H 0 Z"
         transform="matrix(0.33426611,0,0,0.33426611,-261.96875,-57)"
         clip-rule="evenodd"
         id="path12" />
    </clipPath>
    <clipPath
       clipPathUnits="userSpaceOnUse"
       id="clipPath14">
      <path
         d="M 0,0 H 2195.8333 V 1226.5553 H 0 Z"
         transform="matrix(0.33426947,0,0,0.33426947,-0.49999999,-0.49999999)"
         clip-rule="evenodd"
         id="path14" />
    </clipPath>
    <clipPath
       clipPathUnits="userSpaceOnUse"
       id="clipPath15">
      <path
         d="M 0,0 H 2195.8333 V 1226.5553 H 0 Z"
         transform="matrix(0.33426611,0,0,0.33426611,-584.96875,-22)"
         clip-rule="evenodd"
         id="path15" />
    </clipPath>
    <clipPath
       clipPathUnits="userSpaceOnUse"
       id="clipPath17">
      <path
         d="M 0,0 H 2195.8333 V 1226.5553 H 0 Z"
         transform="matrix(0.33426947,0,0,0.33426947,-0.49999999,-0.49999999)"
         clip-rule="evenodd"
         id="path17" />
    </clipPath>
    <clipPath
       clipPathUnits="userSpaceOnUse"
       id="clipPath18">
      <path
         d="M 0,0 H 2195.8333 V 1226.5553 H 0 Z"
         transform="matrix(0.33426611,0,0,0.33426611,-617.48437,-57)"
         clip-rule="evenodd"
         id="path18" />
    </clipPath>
    <clipPath
       clipPathUnits="userSpaceOnUse"
       id="clipPath20">
      <path
         d="M 0,0 H 2195.8333 V 1226.5553 H 0 Z"
         transform="matrix(0.33426947,0,0,0.33426947,-0.49999999,-0.49999999)"
         clip-rule="evenodd"
         id="path20" />
    </clipPath>
    <clipPath
       clipPathUnits="userSpaceOnUse"
       id="clipPath21">
      <path
         d="M 0,0 H 2195.8333 V 1226.5553 H 0 Z"
         transform="matrix(0.33426611,0,0,0.33426611,-618,-99)"
         clip-rule="evenodd"
         id="path21" />
    </clipPath>
    <clipPath
       clipPathUnits="userSpaceOnUse"
       id="clipPath23">
      <path
         d="M 0,0 H 2195.8333 V 1226.5553 H 0 Z"
         transform="matrix(0.33426947,0,0,0.33426947,-0.49999999,-0.49999999)"
         clip-rule="evenodd"
         id="path23" />
    </clipPath>
    <clipPath
       clipPathUnits="userSpaceOnUse"
       id="clipPath24">
      <path
         d="M 0,0 H 2195.8333 V 1226.5553 H 0 Z"
         transform="matrix(0.33426611,0,0,0.33426611,-619.98438,-141)"
         clip-rule="evenodd"
         id="path24" />
    </clipPath>
    <clipPath
       clipPathUnits="userSpaceOnUse"
       id="clipPath26">
      <path
         d="M 0,0 H 2195.8333 V 1226.5553 H 0 Z"
         transform="matrix(0.33426947,0,0,0.33426947,-0.49999999,-0.49999999)"
         clip-rule="evenodd"
         id="path26" />
    </clipPath>
    <clipPath
       clipPathUnits="userSpaceOnUse"
       id="clipPath27">
      <path
         d="M 0,0 H 2195.8333 V 1226.5553 H 0 Z"
         transform="matrix(0.33426611,0,0,0.33426611,-604.48438,-183)"
         clip-rule="evenodd"
         id="path27" />
    </clipPath>
    <clipPath
       clipPathUnits="userSpaceOnUse"
       id="clipPath29">
      <path
         d="M 0,0 H 2195.8333 V 1226.5553 H 0 Z"
         transform="matrix(0.33426947,0,0,0.33426947,-0.49999999,-0.49999999)"
         clip-rule="evenodd"
         id="path29" />
    </clipPath>
    <clipPath
       clipPathUnits="userSpaceOnUse"
       id="clipPath30">
      <path
         d="M 0,0 H 2195.8333 V 1226.5553 H 0 Z"
         transform="matrix(0.33426611,0,0,0.33426611,-610.48438,-225)"
         clip-rule="evenodd"
         id="path30" />
    </clipPath>
    <clipPath
       clipPathUnits="userSpaceOnUse"
       id="clipPath32">
      <path
         d="M 0,0 H 2195.8333 V 1226.5553 H 0 Z"
         transform="matrix(0.33426947,0,0,0.33426947,-0.49999999,-0.49999999)"
         clip-rule="evenodd"
         id="path32" />
    </clipPath>
    <clipPath
       clipPathUnits="userSpaceOnUse"
       id="clipPath33">
      <path
         d="M 0,0 H 2195.8333 V 1226.5553 H 0 Z"
         transform="matrix(0.33426611,0,0,0.33426611,-610.98438,-267)"
         clip-rule="evenodd"
         id="path33" />
    </clipPath>
    <clipPath
       clipPathUnits="userSpaceOnUse"
       id="clipPath35">
      <path
         d="M 0,0 H 2195.8333 V 1226.5553 H 0 Z"
         transform="matrix(0.33426947,0,0,0.33426947,-0.49999999,-0.49999999)"
         clip-rule="evenodd"
         id="path35" />
    </clipPath>
    <clipPath
       clipPathUnits="userSpaceOnUse"
       id="clipPath36">
      <path
         d="M 0,0 H 2195.8333 V 1226.5553 H 0 Z"
         transform="matrix(0.33426611,0,0,0.33426611,-274.48437,-99)"
         clip-rule="evenodd"
         id="path36" />
    </clipPath>
    <clipPath
       clipPathUnits="userSpaceOnUse"
       id="clipPath38">
      <path
         d="M 0,0 H 2195.8333 V 1226.5553 H 0 Z"
         transform="matrix(0.33426947,0,0,0.33426947,-0.49999999,-0.49999999)"
         clip-rule="evenodd"
         id="path38" />
    </clipPath>
    <clipPath
       clipPathUnits="userSpaceOnUse"
       id="clipPath39">
      <path
         d="M 0,0 H 2195.8333 V 1226.5553 H 0 Z"
         transform="matrix(0.33426611,0,0,0.33426611,-258.98438,-141)"
         clip-rule="evenodd"
         id="path39" />
    </clipPath>
    <clipPath
       clipPathUnits="userSpaceOnUse"
       id="clipPath41">
      <path
         d="M 0,0 H 2195.8333 V 1226.5553 H 0 Z"
         transform="matrix(0.33426947,0,0,0.33426947,-0.49999999,-0.49999999)"
         clip-rule="evenodd"
         id="path41" />
    </clipPath>
    <clipPath
       clipPathUnits="userSpaceOnUse"
       id="clipPath42">
      <path
         d="M 0,0 H 2195.8333 V 1226.5553 H 0 Z"
         transform="matrix(0.33426611,0,0,0.33426611,-297.48438,-183)"
         clip-rule="evenodd"
         id="path42" />
    </clipPath>
    <clipPath
       clipPathUnits="userSpaceOnUse"
       id="clipPath44">
      <path
         d="M 0,0 H 2195.8333 V 1226.5553 H 0 Z"
         transform="matrix(0.33426947,0,0,0.33426947,-0.49999999,-0.49999999)"
         clip-rule="evenodd"
         id="path44" />
    </clipPath>
    <clipPath
       clipPathUnits="userSpaceOnUse"
       id="clipPath45">
      <path
         d="M 0,0 H 2195.8333 V 1226.5553 H 0 Z"
         transform="matrix(0.33426611,0,0,0.33426611,-298,-225)"
         clip-rule="evenodd"
         id="path45" />
    </clipPath>
    <clipPath
       clipPathUnits="userSpaceOnUse"
       id="clipPath47">
      <path
         d="M 0,0 H 2195.8333 V 1226.5553 H 0 Z"
         transform="matrix(0.33426947,0,0,0.33426947,-0.49999999,-0.49999999)"
         clip-rule="evenodd"
         id="path47" />
    </clipPath>
    <clipPath
       clipPathUnits="userSpaceOnUse"
       id="clipPath48">
      <path
         d="M 0,0 H 2195.8333 V 1226.5553 H 0 Z"
         transform="matrix(0.33426611,0,0,0.33426611,-299.98438,-267)"
         clip-rule="evenodd"
         id="path48" />
    </clipPath>
    <clipPath
       clipPathUnits="userSpaceOnUse"
       id="clipPath50">
      <path
         d="M 0,0 H 2195.8333 V 1226.5553 H 0 Z"
         transform="matrix(0.33426947,0,0,0.33426947,-0.49999999,-0.49999999)"
         clip-rule="evenodd"
         id="path50" />
    </clipPath>
    <clipPath
       clipPathUnits="userSpaceOnUse"
       id="clipPath51">
      <path
         d="M 0,0 H 2195.8333 V 1226.5553 H 0 Z"
         transform="matrix(0.33426611,0,0,0.33426611,-284.48437,-309)"
         clip-rule="evenodd"
         id="path51" />
    </clipPath>
    <clipPath
       clipPathUnits="userSpaceOnUse"
       id="clipPath53">
      <path
         d="M 0,0 H 2195.8333 V 1226.5553 H 0 Z"
         transform="matrix(0.33426947,0,0,0.33426947,-0.49999999,-0.49999999)"
         clip-rule="evenodd"
         id="path53" />
    </clipPath>
    <clipPath
       clipPathUnits="userSpaceOnUse"
       id="clipPath54">
      <path
         d="M 0,0 H 2195.8333 V 1226.5553 H 0 Z"
         transform="matrix(0.33426611,0,0,0.33426611,-290.48438,-351)"
         clip-rule="evenodd"
         id="path54" />
    </clipPath>
    <clipPath
       clipPathUnits="userSpaceOnUse"
       id="clipPath56">
      <path
         d="M 0,0 H 2195.8333 V 1226.5553 H 0 Z"
         transform="matrix(0.33426947,0,0,0.33426947,-0.49999999,-0.49999999)"
         clip-rule="evenodd"
         id="path56" />
    </clipPath>
    <clipPath
       clipPathUnits="userSpaceOnUse"
       id="clipPath57">
      <path
         d="M 0,0 H 2195.8333 V 1226.5553 H 0 Z"
         transform="matrix(0.33426611,0,0,0.33426611,-290.98438,-393)"
         clip-rule="evenodd"
         id="path57" />
    </clipPath>
    <clipPath
       clipPathUnits="userSpaceOnUse"
       id="clipPath59">
      <path
         d="M 0,0 H 2195.8333 V 1226.5553 H 0 Z"
         transform="matrix(0.33426947,0,0,0.33426947,-0.49999999,-0.49999999)"
         clip-rule="evenodd"
         id="path59" />
    </clipPath>
    <clipPath
       clipPathUnits="userSpaceOnUse"
       id="clipPath60">
      <path
         d="M 0,0 H 2195.8333 V 1226.5553 H 0 Z"
         transform="matrix(0.33426611,0,0,0.33426611,-11.828125,-253)"
         clip-rule="evenodd"
         id="path60" />
    </clipPath>
    <clipPath
       clipPathUnits="userSpaceOnUse"
       id="clipPath61">
      <path
         d="M 0,0 H 2195.8333 V 1226.5553 H 0 Z"
         transform="matrix(0.33426611,0,0,0.33426611,-3.46875,-271)"
         clip-rule="evenodd"
         id="path61" />
    </clipPath>
    <clipPath
       clipPathUnits="userSpaceOnUse"
       id="clipPath62">
      <path
         d="M 0,0 H 2195.8333 V 1226.5553 H 0 Z"
         transform="matrix(0.33426611,0,0,0.33426611,-20.140625,-289)"
         clip-rule="evenodd"
         id="path62" />
    </clipPath>
    <clipPath
       clipPathUnits="userSpaceOnUse"
       id="clipPath63">
      <path
         d="M 0,0 H 2195.8333 V 1226.5553 H 0 Z"
         transform="matrix(0.33426611,0,0,0.33426611,-72.25,-307)"
         clip-rule="evenodd"
         id="path63" />
    </clipPath>
  </defs>
  <sodipodi:namedview
     id="namedview1"
     pagecolor="#ffffff"
     bordercolor="#000000"
     borderopacity="0.25"
     inkscape:showpageshadow="2"
     inkscape:pageopacity="0.0"
     inkscape:pagecheckerboard="0"
     inkscape:deskcolor="#d1d1d1">
    <inkscape:page
       x="0"
       y="0"
       inkscape:label="1"
       id="page1"
       width="702.71997"
       height="394.55997"
       margin="0"
       bleed="0" />
  </sodipodi:namedview>
  <g
     id="g1"
     inkscape:groupmode="layer"
     inkscape:label="1">
    <path
       id="path1"
       d="M 0,0 H 734 V 412 H 0 Z"
       style="fill:#ffffff;fill-opacity:1;fill-rule:nonzero;stroke:none"
       transform="scale(0.95731145)"
       clip-path="url(#clipPath2)" />
    <path
       id="path3"
       d="M 221,1 H 411 V 29 H 221 Z"
       style="fill:#dae8fc;fill-opacity:1;fill-rule:nonzero;stroke:#6c8ebf;stroke-width:1;stroke-linecap:butt;stroke-linejoin:miter;stroke-miterlimit:10;stroke-dasharray:none;stroke-opacity:1"
       transform="matrix(0.95731145,0,0,0.95731145,0.47865572,0.47865572)"
       clip-path="url(#clipPath4)" />
    <text
       id="text4"
       xml:space="preserve"
       transform="matrix(0.95732105,0,0,0.95732105,259.38913,21.061063)"
       clip-path="url(#clipPath5)"><tspan
         style="font-variant:normal;font-weight:700;font-size:18px;font-family:Helvetica;writing-mode:lr-tb;fill:#000000;fill-opacity:1;fill-rule:nonzero;stroke:none"
         x="0 10.010742 15.011719 25.022461 35.033203 45.043945 50.044922 63.043945 73.054688 83.06543"
         y="0"
         sodipodi:role="line"
         id="tspan4">class User</tspan></text>
    <path
       id="path6"
       d="m 411,50 h 65 V 15 h 58.64001"
       style="fill:none;stroke:#000000;stroke-width:1;stroke-linecap:butt;stroke-linejoin:miter;stroke-miterlimit:10;stroke-dasharray:none;stroke-opacity:1"
       transform="matrix(0.95731145,0,0,0.95731145,0.47865572,0.47865572)"
       clip-path="url(#clipPath7)" />
    <path
       id="path8"
       d="m 539.89001,15 -7,3.5 1.75,-3.5 -1.75,-3.5 z"
       style="fill:#000000;fill-opacity:1;fill-rule:nonzero;stroke:#000000;stroke-width:1;stroke-linecap:butt;stroke-linejoin:miter;stroke-miterlimit:10;stroke-dasharray:none;stroke-opacity:1"
       transform="matrix(0.95731145,0,0,0.95731145,0.47865572,0.47865572)"
       clip-path="url(#clipPath9)" />
    <path
       id="path10"
       d="M 221,29 H 411 V 71 H 221 Z"
       style="fill:#ffffff;fill-opacity:1;fill-rule:nonzero;stroke:#000000;stroke-width:1;stroke-linecap:butt;stroke-linejoin:miter;stroke-miterlimit:10;stroke-dasharray:none;stroke-opacity:1"
       transform="matrix(0.95731145,0,0,0.95731145,0.47865572,0.47865572)"
       clip-path="url(#clipPath11)" />
    <text
       id="text11"
       xml:space="preserve"
       transform="matrix(0.95732105,0,0,0.95732105,250.7882,54.5673)"
       clip-path="url(#clipPath12)"><tspan
         style="font-variant:normal;font-weight:normal;font-size:18px;font-family:Helvetica;writing-mode:lr-tb;fill:#000000;fill-opacity:1;fill-rule:nonzero;stroke:none"
         x="0 14.994141 25.004883 35.015625 45.026367 49.025391 54.026367 59.027344 74.021484 84.032227 94.042969 104.05371"
         y="0"
         sodipodi:role="line"
         id="tspan11">model: Model</tspan></text>
    <path
       id="path13"
       d="m 541.01001,1 h 190 v 28 h -190 z"
       style="fill:#dae8fc;fill-opacity:1;fill-rule:nonzero;stroke:#6c8ebf;stroke-width:1;stroke-linecap:butt;stroke-linejoin:miter;stroke-miterlimit:10;stroke-dasharray:none;stroke-opacity:1"
       transform="matrix(0.95731145,0,0,0.95731145,0.47865572,0.47865572)"
       clip-path="url(#clipPath14)" />
    <text
       id="text14"
       xml:space="preserve"
       transform="matrix(0.95732105,0,0,0.95732105,560.0029,21.061063)"
       clip-path="url(#clipPath15)"><tspan
         style="font-variant:normal;font-weight:700;font-size:18px;font-family:Helvetica;writing-mode:lr-tb;fill:#000000;fill-opacity:1;fill-rule:nonzero;stroke:none"
         x="0 10.010742 15.011719 25.022461 35.033203 45.043945 50.044922 65.039062 76.03418 87.029297 97.040039"
         y="0"
         sodipodi:role="line"
         id="tspan14">class Model</tspan></text>
    <path
       id="path16"
       d="m 541.01001,29 h 190 v 42 h -190 z"
       style="fill:#ffffff;fill-opacity:1;fill-rule:nonzero;stroke:#000000;stroke-width:1;stroke-linecap:butt;stroke-linejoin:miter;stroke-miterlimit:10;stroke-dasharray:none;stroke-opacity:1"
       transform="matrix(0.95731145,0,0,0.95731145,0.47865572,0.47865572)"
       clip-path="url(#clipPath17)" />
    <text
       id="text17"
       xml:space="preserve"
       transform="matrix(0.95732105,0,0,0.95732105,591.13079,54.5673)"
       clip-path="url(#clipPath18)"><tspan
         style="font-variant:normal;font-weight:normal;font-size:18px;font-family:Helvetica;writing-mode:lr-tb;fill:#000000;fill-opacity:1;fill-rule:nonzero;stroke:none"
         x="0 10.010742 20.021484 25.022461 31.016602"
         y="0"
         sodipodi:role="line"
         id="tspan17">get()</tspan></text>
    <path
       id="path19"
       d="m 541.01001,71 h 190 v 42 h -190 z"
       style="fill:#ffffff;fill-opacity:1;fill-rule:nonzero;stroke:#000000;stroke-width:1;stroke-linecap:butt;stroke-linejoin:miter;stroke-miterlimit:10;stroke-dasharray:none;stroke-opacity:1"
       transform="matrix(0.95731145,0,0,0.95731145,0.47865572,0.47865572)"
       clip-path="url(#clipPath20)" />
    <text
       id="text20"
       xml:space="preserve"
       transform="matrix(0.95732105,0,0,0.95732105,591.62441,94.774784)"
       clip-path="url(#clipPath21)"><tspan
         style="font-variant:normal;font-weight:normal;font-size:18px;font-family:Helvetica;writing-mode:lr-tb;fill:#000000;fill-opacity:1;fill-rule:nonzero;stroke:none"
         x="0 9 19.010742 24.011719 30.005859"
         y="0"
         sodipodi:role="line"
         id="tspan20">set()</tspan></text>
    <path
       id="path22"
       d="m 541.01001,113 h 190 v 42 h -190 z"
       style="fill:#ffffff;fill-opacity:1;fill-rule:nonzero;stroke:#000000;stroke-width:1;stroke-linecap:butt;stroke-linejoin:miter;stroke-miterlimit:10;stroke-dasharray:none;stroke-opacity:1"
       transform="matrix(0.95731145,0,0,0.95731145,0.47865572,0.47865572)"
       clip-path="url(#clipPath23)" />
    <text
       id="text23"
       xml:space="preserve"
       transform="matrix(0.95732105,0,0,0.95732105,593.5241,134.98227)"
       clip-path="url(#clipPath24)"><tspan
         style="font-variant:normal;font-weight:normal;font-size:18px;font-family:Helvetica;writing-mode:lr-tb;fill:#000000;fill-opacity:1;fill-rule:nonzero;stroke:none"
         x="0 10.010742 20.021484 26.015625"
         y="0"
         sodipodi:role="line"
         id="tspan23">on()</tspan></text>
    <path
       id="path25"
       d="m 541.01001,155 h 190 v 42 h -190 z"
       style="fill:#ffffff;fill-opacity:1;fill-rule:nonzero;stroke:#000000;stroke-width:1;stroke-linecap:butt;stroke-linejoin:miter;stroke-miterlimit:10;stroke-dasharray:none;stroke-opacity:1"
       transform="matrix(0.95731145,0,0,0.95731145,0.47865572,0.47865572)"
       clip-path="url(#clipPath26)" />
    <text
       id="text26"
       xml:space="preserve"
       transform="matrix(0.95732105,0,0,0.95732105,578.68562,175.18975)"
       clip-path="url(#clipPath27)"><tspan
         style="font-variant:normal;font-weight:normal;font-size:18px;font-family:Helvetica;writing-mode:lr-tb;fill:#000000;fill-opacity:1;fill-rule:nonzero;stroke:none"
         x="0 5.0009766 10.995117 14.994141 25.004883 35.015625 45.026367 51.020508 57.014648"
         y="0"
         sodipodi:role="line"
         id="tspan26">trigger()</tspan></text>
    <path
       id="path28"
       d="m 541.01001,197 h 190 v 42 h -190 z"
       style="fill:#ffffff;fill-opacity:1;fill-rule:nonzero;stroke:#000000;stroke-width:1;stroke-linecap:butt;stroke-linejoin:miter;stroke-miterlimit:10;stroke-dasharray:none;stroke-opacity:1"
       transform="matrix(0.95731145,0,0,0.95731145,0.47865572,0.47865572)"
       clip-path="url(#clipPath29)" />
    <text
       id="text29"
       xml:space="preserve"
       transform="matrix(0.95732105,0,0,0.95732105,584.42955,215.39724)"
       clip-path="url(#clipPath30)"><tspan
         style="font-variant:normal;font-weight:normal;font-size:18px;font-family:Helvetica;writing-mode:lr-tb;fill:#000000;fill-opacity:1;fill-rule:nonzero;stroke:none"
         x="0 5.0009766 15.011719 20.012695 29.012695 39.023438 45.017578"
         y="0"
         sodipodi:role="line"
         id="tspan29">fetch()</tspan></text>
    <path
       id="path31"
       d="m 541.01001,239 h 190 v 42 h -190 z"
       style="fill:#ffffff;fill-opacity:1;fill-rule:nonzero;stroke:#000000;stroke-width:1;stroke-linecap:butt;stroke-linejoin:miter;stroke-miterlimit:10;stroke-dasharray:none;stroke-opacity:1"
       transform="matrix(0.95731145,0,0,0.95731145,0.47865572,0.47865572)"
       clip-path="url(#clipPath32)" />
    <text
       id="text32"
       xml:space="preserve"
       transform="matrix(0.95732105,0,0,0.95732105,584.90821,255.60472)"
       clip-path="url(#clipPath33)"><tspan
         style="font-variant:normal;font-weight:normal;font-size:18px;font-family:Helvetica;writing-mode:lr-tb;fill:#000000;fill-opacity:1;fill-rule:nonzero;stroke:none"
         x="0 9 19.010742 28.010742 38.021484 44.015625"
         y="0"
         sodipodi:role="line"
         id="tspan32">save()</tspan></text>
    <path
       id="path34"
       d="m 221,71 h 190 v 42 H 221 Z"
       style="fill:#ffffff;fill-opacity:1;fill-rule:nonzero;stroke:#000000;stroke-width:1;stroke-linecap:butt;stroke-linejoin:miter;stroke-miterlimit:10;stroke-dasharray:none;stroke-opacity:1"
       transform="matrix(0.95731145,0,0,0.95731145,0.47865572,0.47865572)"
       clip-path="url(#clipPath35)" />
    <text
       id="text35"
       xml:space="preserve"
       transform="matrix(0.95732105,0,0,0.95732105,262.76967,94.774784)"
       clip-path="url(#clipPath36)"><tspan
         style="font-variant:normal;font-weight:normal;font-size:18px;font-family:Helvetica;writing-mode:lr-tb;fill:#000000;fill-opacity:1;fill-rule:nonzero;stroke:none"
         x="0 5.0009766 15.011719 19.010742 23.009766 36.008789 46.019531 61.013672 71.024414 77.018555"
         y="0"
         sodipodi:role="line"
         id="tspan35">fullName()</tspan></text>
    <path
       id="path37"
       d="m 221,113 h 190 v 42 H 221 Z"
       style="fill:#ffffff;fill-opacity:1;fill-rule:nonzero;stroke:#000000;stroke-width:1;stroke-linecap:butt;stroke-linejoin:miter;stroke-miterlimit:10;stroke-dasharray:none;stroke-opacity:1"
       transform="matrix(0.95731145,0,0,0.95731145,0.47865572,0.47865572)"
       clip-path="url(#clipPath38)" />
    <text
       id="text38"
       xml:space="preserve"
       transform="matrix(0.95732105,0,0,0.95732105,247.9312,134.98227)"
       clip-path="url(#clipPath39)"><tspan
         style="font-variant:normal;font-weight:normal;font-size:18px;font-family:Helvetica;writing-mode:lr-tb;fill:#000000;fill-opacity:1;fill-rule:nonzero;stroke:none"
         x="0 3.9990234 12.999023 25.004883 35.015625 50.009766 54.008789 64.019531 77.018555 86.018555 96.029297 102.02344 108.01758"
         y="0"
         sodipodi:role="line"
         id="tspan38">isAdminUser()</tspan></text>
    <path
       id="path40"
       d="m 221,155 h 190 v 42 H 221 Z"
       style="fill:#fff2cc;fill-opacity:1;fill-rule:nonzero;stroke:#d6b656;stroke-width:1;stroke-linecap:butt;stroke-linejoin:miter;stroke-miterlimit:10;stroke-dasharray:none;stroke-opacity:1"
       transform="matrix(0.95731145,0,0,0.95731145,0.47865572,0.47865572)"
       clip-path="url(#clipPath41)" />
    <text
       id="text41"
       xml:space="preserve"
       transform="matrix(0.95732105,0,0,0.95732105,284.78806,175.18975)"
       clip-path="url(#clipPath42)"><tspan
         style="font-variant:normal;font-weight:normal;font-size:18px;font-family:Helvetica;writing-mode:lr-tb;fill:#000000;fill-opacity:1;fill-rule:nonzero;stroke:none"
         x="0 10.010742 20.021484 25.022461 31.016602"
         y="0"
         sodipodi:role="line"
         id="tspan41">get()</tspan></text>
    <path
       id="path43"
       d="m 221,197 h 190 v 42 H 221 Z"
       style="fill:#fff2cc;fill-opacity:1;fill-rule:nonzero;stroke:#d6b656;stroke-width:1;stroke-linecap:butt;stroke-linejoin:miter;stroke-miterlimit:10;stroke-dasharray:none;stroke-opacity:1"
       transform="matrix(0.95731145,0,0,0.95731145,0.47865572,0.47865572)"
       clip-path="url(#clipPath44)" />
    <text
       id="text44"
       xml:space="preserve"
       transform="matrix(0.95732105,0,0,0.95732105,285.28167,215.39724)"
       clip-path="url(#clipPath45)"><tspan
         style="font-variant:normal;font-weight:normal;font-size:18px;font-family:Helvetica;writing-mode:lr-tb;fill:#000000;fill-opacity:1;fill-rule:nonzero;stroke:none"
         x="0 9 19.010742 24.011719 30.005859"
         y="0"
         sodipodi:role="line"
         id="tspan44">set()</tspan></text>
    <path
       id="path46"
       d="m 221,239 h 190 v 42 H 221 Z"
       style="fill:#fff2cc;fill-opacity:1;fill-rule:nonzero;stroke:#d6b656;stroke-width:1;stroke-linecap:butt;stroke-linejoin:miter;stroke-miterlimit:10;stroke-dasharray:none;stroke-opacity:1"
       transform="matrix(0.95731145,0,0,0.95731145,0.47865572,0.47865572)"
       clip-path="url(#clipPath47)" />
    <text
       id="text47"
       xml:space="preserve"
       transform="matrix(0.95732105,0,0,0.95732105,287.18136,255.60472)"
       clip-path="url(#clipPath48)"><tspan
         style="font-variant:normal;font-weight:normal;font-size:18px;font-family:Helvetica;writing-mode:lr-tb;fill:#000000;fill-opacity:1;fill-rule:nonzero;stroke:none"
         x="0 10.010742 20.021484 26.015625"
         y="0"
         sodipodi:role="line"
         id="tspan47">on()</tspan></text>
    <path
       id="path49"
       d="m 221,281 h 190 v 42 H 221 Z"
       style="fill:#fff2cc;fill-opacity:1;fill-rule:nonzero;stroke:#d6b656;stroke-width:1;stroke-linecap:butt;stroke-linejoin:miter;stroke-miterlimit:10;stroke-dasharray:none;stroke-opacity:1"
       transform="matrix(0.95731145,0,0,0.95731145,0.47865572,0.47865572)"
       clip-path="url(#clipPath50)" />
    <text
       id="text50"
       xml:space="preserve"
       transform="matrix(0.95732105,0,0,0.95732105,272.34288,295.8122)"
       clip-path="url(#clipPath51)"><tspan
         style="font-variant:normal;font-weight:normal;font-size:18px;font-family:Helvetica;writing-mode:lr-tb;fill:#000000;fill-opacity:1;fill-rule:nonzero;stroke:none"
         x="0 5.0009766 10.995117 14.994141 25.004883 35.015625 45.026367 51.020508 57.014648"
         y="0"
         sodipodi:role="line"
         id="tspan50">trigger()</tspan></text>
    <path
       id="path52"
       d="m 221,323 h 190 v 42 H 221 Z"
       style="fill:#fff2cc;fill-opacity:1;fill-rule:nonzero;stroke:#d6b656;stroke-width:1;stroke-linecap:butt;stroke-linejoin:miter;stroke-miterlimit:10;stroke-dasharray:none;stroke-opacity:1"
       transform="matrix(0.95731145,0,0,0.95731145,0.47865572,0.47865572)"
       clip-path="url(#clipPath53)" />
    <text
       id="text53"
       xml:space="preserve"
       transform="matrix(0.95732105,0,0,0.95732105,278.08681,336.01969)"
       clip-path="url(#clipPath54)"><tspan
         style="font-variant:normal;font-weight:normal;font-size:18px;font-family:Helvetica;writing-mode:lr-tb;fill:#000000;fill-opacity:1;fill-rule:nonzero;stroke:none"
         x="0 5.0009766 15.011719 20.012695 29.012695 39.023438 45.017578"
         y="0"
         sodipodi:role="line"
         id="tspan53">fetch()</tspan></text>
    <path
       id="path55"
       d="m 221,365 h 190 v 42 H 221 Z"
       style="fill:#fff2cc;fill-opacity:1;fill-rule:nonzero;stroke:#d6b656;stroke-width:1;stroke-linecap:butt;stroke-linejoin:miter;stroke-miterlimit:10;stroke-dasharray:none;stroke-opacity:1"
       transform="matrix(0.95731145,0,0,0.95731145,0.47865572,0.47865572)"
       clip-path="url(#clipPath56)" />
    <text
       id="text56"
       xml:space="preserve"
       transform="matrix(0.95732105,0,0,0.95732105,278.56547,376.22717)"
       clip-path="url(#clipPath57)"><tspan
         style="font-variant:normal;font-weight:normal;font-size:18px;font-family:Helvetica;writing-mode:lr-tb;fill:#000000;fill-opacity:1;fill-rule:nonzero;stroke:none"
         x="0 9 19.010742 28.010742 38.021484 44.015625"
         y="0"
         sodipodi:role="line"
         id="tspan56">save()</tspan></text>
    <path
       id="path58"
       d="m 1,227 h 210 v 94 H 1 Z"
       style="fill:#f8cecc;fill-opacity:1;fill-rule:nonzero;stroke:#b85450;stroke-width:1;stroke-linecap:butt;stroke-linejoin:miter;stroke-miterlimit:10;stroke-dasharray:none;stroke-opacity:1"
       transform="matrix(0.95731145,0,0,0.95731145,0.47865572,0.47865572)"
       clip-path="url(#clipPath59)" />
    <text
       id="text59"
       xml:space="preserve"
       transform="matrix(0.95732105,0,0,0.95732105,11.323313,242.20223)"
       clip-path="url(#clipPath60)"><tspan
         style="font-variant:normal;font-weight:700;font-size:15px;font-family:Helvetica;writing-mode:lr-tb;fill:#000000;fill-opacity:1;fill-rule:nonzero;stroke:none"
         x="0 13.894043 22.236328 26.403809 35.566406 44.729004 53.891602 57.458496 62.453613 66.621094 78.288574 86.630859 95.793457 100.78857 104.95605 113.29834 117.46582 126.62842 134.9707 143.31299 151.65527 155.82275 164.98535 174.14795 182.49023"
         y="0"
         sodipodi:role="line"
         id="tspan59">We don't want a developer</tspan></text>
    <text
       id="text60"
       xml:space="preserve"
       transform="matrix(0.95732105,0,0,0.95732105,3.3207074,259.434)"
       clip-path="url(#clipPath61)"><tspan
         style="font-variant:normal;font-weight:700;font-size:15px;font-family:Helvetica;writing-mode:lr-tb;fill:#000000;fill-opacity:1;fill-rule:nonzero;stroke:none"
         x="0 9.1625977 17.504883 21.672363 30.834961 39.997559 44.165039 53.327637 62.490234 68.327637 72.495117 77.490234 83.327637 91.669922 105.00732 113.34961 125.01709 134.17969 140.01709 148.35938 152.52686 157.52197 166.68457 170.85205 180.01465 188.35693 196.69922"
         y="0"
         sodipodi:role="line"
         id="tspan60">using our framework to have</tspan></text>
    <text
       id="text61"
       xml:space="preserve"
       transform="matrix(0.95732105,0,0,0.95732105,19.281044,276.66578)"
       clip-path="url(#clipPath62)"><tspan
         style="font-variant:normal;font-weight:700;font-size:15px;font-family:Helvetica;writing-mode:lr-tb;fill:#000000;fill-opacity:1;fill-rule:nonzero;stroke:none"
         x="0 4.9951172 14.157715 18.325195 24.162598 32.504883 36.672363 50.009766 59.172363 63.339844 71.682129 85.019531 93.361816 102.52441 107.51953 111.68701 120.0293 124.19678 128.36426 132.53174 137.52686 146.68945 155.03174 163.37402"
         y="0"
         sodipodi:role="line"
         id="tspan61">to reimplement all these</tspan></text>
    <text
       id="text62"
       xml:space="preserve"
       transform="matrix(0.95732105,0,0,0.95732105,69.166446,293.89756)"
       clip-path="url(#clipPath63)"><tspan
         style="font-variant:normal;font-weight:700;font-size:15px;font-family:Helvetica;writing-mode:lr-tb;fill:#000000;fill-opacity:1;fill-rule:nonzero;stroke:none"
         x="0 13.337402 21.679688 26.674805 35.837402 45 54.162598 62.504883"
         y="0"
         sodipodi:role="line"
         id="tspan62">methods!</tspan></text>
  </g>
</svg>
