<?xml version="1.0" encoding="UTF-8" standalone="no"?>
<!-- Created with Inkscape (http://www.inkscape.org/) -->

<svg
   version="1.1"
   id="svg1"
   width="760"
   height="381.44"
   viewBox="0 0 760 381.44"
   sodipodi:docname="ts-2.pdf"
   xmlns:inkscape="http://www.inkscape.org/namespaces/inkscape"
   xmlns:sodipodi="http://sodipodi.sourceforge.net/DTD/sodipodi-0.dtd"
   xmlns="http://www.w3.org/2000/svg"
   xmlns:svg="http://www.w3.org/2000/svg">
  <defs
     id="defs1">
    <clipPath
       clipPathUnits="userSpaceOnUse"
       id="clipPath2">
      <path
         d="M 0,0 H 2375 V 1190.4911 H 0 Z"
         transform="scale(0.3343158)"
         clip-rule="evenodd"
         id="path2" />
    </clipPath>
    <clipPath
       clipPathUnits="userSpaceOnUse"
       id="clipPath4">
      <path
         d="M 0,0 H 2375 V 1184.5088 H 0 Z"
         transform="matrix(0.3343158,0,0,0.3343158,-0.49999999,-0.49999999)"
         clip-rule="evenodd"
         id="path4" />
    </clipPath>
    <clipPath
       clipPathUnits="userSpaceOnUse"
       id="clipPath5">
      <path
         d="M 0,0 H 2375 V 1184.5088 H 0 Z"
         transform="matrix(0.33431244,0,0,0.33431244,-240.95313,-61.999999)"
         clip-rule="evenodd"
         id="path5" />
    </clipPath>
    <clipPath
       clipPathUnits="userSpaceOnUse"
       id="clipPath7">
      <path
         d="M 0,0 H 2375 V 1184.5088 H 0 Z"
         transform="matrix(0.3343158,0,0,0.3343158,-0.49999999,-0.49999999)"
         clip-rule="evenodd"
         id="path7" />
    </clipPath>
    <clipPath
       clipPathUnits="userSpaceOnUse"
       id="clipPath9">
      <path
         d="M 0,0 H 2375 V 1184.5088 H 0 Z"
         transform="matrix(0.3343158,0,0,0.3343158,-0.49999999,-0.49999999)"
         clip-rule="evenodd"
         id="path9" />
    </clipPath>
    <clipPath
       clipPathUnits="userSpaceOnUse"
       id="clipPath11">
      <path
         d="M 0,0 H 2375 V 1184.5088 H 0 Z"
         transform="matrix(0.3343158,0,0,0.3343158,-0.49999999,-0.49999999)"
         clip-rule="evenodd"
         id="path11" />
    </clipPath>
    <clipPath
       clipPathUnits="userSpaceOnUse"
       id="clipPath12">
      <path
         d="M 0,0 H 2375 V 1184.5088 H 0 Z"
         transform="matrix(0.33431244,0,0,0.33431244,-267.48438,-96.999999)"
         clip-rule="evenodd"
         id="path12" />
    </clipPath>
    <clipPath
       clipPathUnits="userSpaceOnUse"
       id="clipPath14">
      <path
         d="M 0,0 H 2375 V 1184.5088 H 0 Z"
         transform="matrix(0.3343158,0,0,0.3343158,-0.49999999,-0.49999999)"
         clip-rule="evenodd"
         id="path14" />
    </clipPath>
    <clipPath
       clipPathUnits="userSpaceOnUse"
       id="clipPath15">
      <path
         d="M 0,0 H 2375 V 1184.5088 H 0 Z"
         transform="matrix(0.33431244,0,0,0.33431244,-267.99999,-138.99999)"
         clip-rule="evenodd"
         id="path15" />
    </clipPath>
    <clipPath
       clipPathUnits="userSpaceOnUse"
       id="clipPath17">
      <path
         d="M 0,0 H 2375 V 1184.5088 H 0 Z"
         transform="matrix(0.3343158,0,0,0.3343158,-0.49999999,-0.49999999)"
         clip-rule="evenodd"
         id="path17" />
    </clipPath>
    <clipPath
       clipPathUnits="userSpaceOnUse"
       id="clipPath19">
      <path
         d="M 0,0 H 2375 V 1184.5088 H 0 Z"
         transform="matrix(0.3343158,0,0,0.3343158,-0.49999999,-0.49999999)"
         clip-rule="evenodd"
         id="path19" />
    </clipPath>
    <clipPath
       clipPathUnits="userSpaceOnUse"
       id="clipPath21">
      <path
         d="M 0,0 H 2375 V 1184.5088 H 0 Z"
         transform="matrix(0.3343158,0,0,0.3343158,-0.49999999,-0.49999999)"
         clip-rule="evenodd"
         id="path21" />
    </clipPath>
    <clipPath
       clipPathUnits="userSpaceOnUse"
       id="clipPath22">
      <path
         d="M 0,0 H 2375 V 1184.5088 H 0 Z"
         transform="matrix(0.33431244,0,0,0.33431244,-269.98438,-181)"
         clip-rule="evenodd"
         id="path22" />
    </clipPath>
    <clipPath
       clipPathUnits="userSpaceOnUse"
       id="clipPath24">
      <path
         d="M 0,0 H 2375 V 1184.5088 H 0 Z"
         transform="matrix(0.3343158,0,0,0.3343158,-0.49999999,-0.49999999)"
         clip-rule="evenodd"
         id="path24" />
    </clipPath>
    <clipPath
       clipPathUnits="userSpaceOnUse"
       id="clipPath26">
      <path
         d="M 0,0 H 2375 V 1184.5088 H 0 Z"
         transform="matrix(0.3343158,0,0,0.3343158,-0.49999999,-0.49999999)"
         clip-rule="evenodd"
         id="path26" />
    </clipPath>
    <clipPath
       clipPathUnits="userSpaceOnUse"
       id="clipPath28">
      <path
         d="M 0,0 H 2375 V 1184.5088 H 0 Z"
         transform="matrix(0.3343158,0,0,0.3343158,-0.49999999,-0.49999999)"
         clip-rule="evenodd"
         id="path28" />
    </clipPath>
    <clipPath
       clipPathUnits="userSpaceOnUse"
       id="clipPath29">
      <path
         d="M 0,0 H 2375 V 1184.5088 H 0 Z"
         transform="matrix(0.33431244,0,0,0.33431244,-254.48438,-223)"
         clip-rule="evenodd"
         id="path29" />
    </clipPath>
    <clipPath
       clipPathUnits="userSpaceOnUse"
       id="clipPath31">
      <path
         d="M 0,0 H 2375 V 1184.5088 H 0 Z"
         transform="matrix(0.3343158,0,0,0.3343158,-0.49999999,-0.49999999)"
         clip-rule="evenodd"
         id="path31" />
    </clipPath>
    <clipPath
       clipPathUnits="userSpaceOnUse"
       id="clipPath32">
      <path
         d="M 0,0 H 2375 V 1184.5088 H 0 Z"
         transform="matrix(0.33431244,0,0,0.33431244,-260.48438,-265)"
         clip-rule="evenodd"
         id="path32" />
    </clipPath>
    <clipPath
       clipPathUnits="userSpaceOnUse"
       id="clipPath34">
      <path
         d="M 0,0 H 2375 V 1184.5088 H 0 Z"
         transform="matrix(0.3343158,0,0,0.3343158,-0.49999999,-0.49999999)"
         clip-rule="evenodd"
         id="path34" />
    </clipPath>
    <clipPath
       clipPathUnits="userSpaceOnUse"
       id="clipPath35">
      <path
         d="M 0,0 H 2375 V 1184.5088 H 0 Z"
         transform="matrix(0.33431244,0,0,0.33431244,-260.98437,-307)"
         clip-rule="evenodd"
         id="path35" />
    </clipPath>
    <clipPath
       clipPathUnits="userSpaceOnUse"
       id="clipPath37">
      <path
         d="M 0,0 H 2375 V 1184.5088 H 0 Z"
         transform="matrix(0.3343158,0,0,0.3343158,-0.49999999,-0.49999999)"
         clip-rule="evenodd"
         id="path37" />
    </clipPath>
    <clipPath
       clipPathUnits="userSpaceOnUse"
       id="clipPath38">
      <path
         d="M 0,0 H 2375 V 1184.5088 H 0 Z"
         transform="matrix(0.33431244,0,0,0.33431244,-542.79687,-22)"
         clip-rule="evenodd"
         id="path38" />
    </clipPath>
    <clipPath
       clipPathUnits="userSpaceOnUse"
       id="clipPath40">
      <path
         d="M 0,0 H 2375 V 1184.5088 H 0 Z"
         transform="matrix(0.3343158,0,0,0.3343158,-0.49999999,-0.49999999)"
         clip-rule="evenodd"
         id="path40" />
    </clipPath>
    <clipPath
       clipPathUnits="userSpaceOnUse"
       id="clipPath41">
      <path
         d="M 0,0 H 2375 V 1184.5088 H 0 Z"
         transform="matrix(0.33431244,0,0,0.33431244,-561.14063,-56.999999)"
         clip-rule="evenodd"
         id="path41" />
    </clipPath>
    <clipPath
       clipPathUnits="userSpaceOnUse"
       id="clipPath43">
      <path
         d="M 0,0 H 2375 V 1184.5088 H 0 Z"
         transform="matrix(0.3343158,0,0,0.3343158,-0.49999999,-0.49999999)"
         clip-rule="evenodd"
         id="path43" />
    </clipPath>
    <clipPath
       clipPathUnits="userSpaceOnUse"
       id="clipPath44">
      <path
         d="M 0,0 H 2375 V 1184.5088 H 0 Z"
         transform="matrix(0.33431244,0,0,0.33431244,-548.60938,-98.999999)"
         clip-rule="evenodd"
         id="path44" />
    </clipPath>
    <clipPath
       clipPathUnits="userSpaceOnUse"
       id="clipPath46">
      <path
         d="M 0,0 H 2375 V 1184.5088 H 0 Z"
         transform="matrix(0.3343158,0,0,0.3343158,-0.49999999,-0.49999999)"
         clip-rule="evenodd"
         id="path46" />
    </clipPath>
    <clipPath
       clipPathUnits="userSpaceOnUse"
       id="clipPath47">
      <path
         d="M 0,0 H 2375 V 1184.5088 H 0 Z"
         transform="matrix(0.33431244,0,0,0.33431244,-562.96874,-160)"
         clip-rule="evenodd"
         id="path47" />
    </clipPath>
    <clipPath
       clipPathUnits="userSpaceOnUse"
       id="clipPath49">
      <path
         d="M 0,0 H 2375 V 1184.5088 H 0 Z"
         transform="matrix(0.3343158,0,0,0.3343158,-0.49999999,-0.49999999)"
         clip-rule="evenodd"
         id="path49" />
    </clipPath>
    <clipPath
       clipPathUnits="userSpaceOnUse"
       id="clipPath50">
      <path
         d="M 0,0 H 2375 V 1184.5088 H 0 Z"
         transform="matrix(0.33431244,0,0,0.33431244,-466.92188,-195)"
         clip-rule="evenodd"
         id="path50" />
    </clipPath>
    <clipPath
       clipPathUnits="userSpaceOnUse"
       id="clipPath52">
      <path
         d="M 0,0 H 2375 V 1184.5088 H 0 Z"
         transform="matrix(0.3343158,0,0,0.3343158,-0.49999999,-0.49999999)"
         clip-rule="evenodd"
         id="path52" />
    </clipPath>
    <clipPath
       clipPathUnits="userSpaceOnUse"
       id="clipPath53">
      <path
         d="M 0,0 H 2375 V 1184.5088 H 0 Z"
         transform="matrix(0.33431244,0,0,0.33431244,-499.93749,-237)"
         clip-rule="evenodd"
         id="path53" />
    </clipPath>
    <clipPath
       clipPathUnits="userSpaceOnUse"
       id="clipPath55">
      <path
         d="M 0,0 H 2375 V 1184.5088 H 0 Z"
         transform="matrix(0.3343158,0,0,0.3343158,-0.49999999,-0.49999999)"
         clip-rule="evenodd"
         id="path55" />
    </clipPath>
    <clipPath
       clipPathUnits="userSpaceOnUse"
       id="clipPath56">
      <path
         d="M 0,0 H 2375 V 1184.5088 H 0 Z"
         transform="matrix(0.33431244,0,0,0.33431244,-563.45313,-302)"
         clip-rule="evenodd"
         id="path56" />
    </clipPath>
    <clipPath
       clipPathUnits="userSpaceOnUse"
       id="clipPath58">
      <path
         d="M 0,0 H 2375 V 1184.5088 H 0 Z"
         transform="matrix(0.3343158,0,0,0.3343158,-0.49999999,-0.49999999)"
         clip-rule="evenodd"
         id="path58" />
    </clipPath>
    <clipPath
       clipPathUnits="userSpaceOnUse"
       id="clipPath59">
      <path
         d="M 0,0 H 2375 V 1184.5088 H 0 Z"
         transform="matrix(0.33431244,0,0,0.33431244,-519.95313,-337)"
         clip-rule="evenodd"
         id="path59" />
    </clipPath>
    <clipPath
       clipPathUnits="userSpaceOnUse"
       id="clipPath61">
      <path
         d="M 0,0 H 2375 V 1184.5088 H 0 Z"
         transform="matrix(0.3343158,0,0,0.3343158,-0.49999999,-0.49999999)"
         clip-rule="evenodd"
         id="path61" />
    </clipPath>
    <clipPath
       clipPathUnits="userSpaceOnUse"
       id="clipPath62">
      <path
         d="M 0,0 H 2375 V 1184.5088 H 0 Z"
         transform="matrix(0.33431244,0,0,0.33431244,-535.125,-378.99999)"
         clip-rule="evenodd"
         id="path62" />
    </clipPath>
    <clipPath
       clipPathUnits="userSpaceOnUse"
       id="clipPath64">
      <path
         d="M 0,0 H 2375 V 1184.5088 H 0 Z"
         transform="matrix(0.3343158,0,0,0.3343158,-0.49999999,-0.49999999)"
         clip-rule="evenodd"
         id="path64" />
    </clipPath>
    <clipPath
       clipPathUnits="userSpaceOnUse"
       id="clipPath65">
      <path
         d="M 0,0 H 2375 V 1184.5088 H 0 Z"
         transform="matrix(0.33431244,0,0,0.33431244,-50.484375,-173)"
         clip-rule="evenodd"
         id="path65" />
    </clipPath>
    <clipPath
       clipPathUnits="userSpaceOnUse"
       id="clipPath66">
      <path
         d="M 0,0 H 2375 V 1184.5088 H 0 Z"
         transform="matrix(0.33431244,0,0,0.33431244,-10.5,-195)"
         clip-rule="evenodd"
         id="path66" />
    </clipPath>
    <clipPath
       clipPathUnits="userSpaceOnUse"
       id="clipPath67">
      <path
         d="M 0,0 H 2375 V 1184.5088 H 0 Z"
         transform="matrix(0.33431244,0,0,0.33431244,-29.984375,-216)"
         clip-rule="evenodd"
         id="path67" />
    </clipPath>
  </defs>
  <sodipodi:namedview
     id="namedview1"
     pagecolor="#ffffff"
     bordercolor="#000000"
     borderopacity="0.25"
     inkscape:showpageshadow="2"
     inkscape:pageopacity="0.0"
     inkscape:pagecheckerboard="0"
     inkscape:deskcolor="#d1d1d1">
    <inkscape:page
       x="0"
       y="0"
       inkscape:label="1"
       id="page1"
       width="760"
       height="381.44"
       margin="0"
       bleed="0" />
  </sodipodi:namedview>
  <g
     id="g1"
     inkscape:groupmode="layer"
     inkscape:label="1">
    <path
       id="path1"
       d="M 0,0 H 794 V 398 H 0 Z"
       style="fill:#ffffff;fill-opacity:1;fill-rule:nonzero;stroke:none"
       transform="scale(0.95717878)"
       clip-path="url(#clipPath2)" />
    <path
       id="path3"
       d="M 191,41 H 381 V 69 H 191 Z"
       style="fill:#dae8fc;fill-opacity:1;fill-rule:nonzero;stroke:#6c8ebf;stroke-width:1;stroke-linecap:butt;stroke-linejoin:miter;stroke-miterlimit:10;stroke-dasharray:none;stroke-opacity:1"
       transform="matrix(0.95717878,0,0,0.95717878,0.47858938,0.47858938)"
       clip-path="url(#clipPath4)" />
    <text
       id="text4"
       xml:space="preserve"
       transform="matrix(0.95718838,0,0,0.95718838,230.63754,59.345679)"
       clip-path="url(#clipPath5)"><tspan
         style="font-variant:normal;font-weight:700;font-size:18px;font-family:Helvetica;writing-mode:lr-tb;fill:#000000;fill-opacity:1;fill-rule:nonzero;stroke:none"
         x="0 10.010742 15.011719 25.022461 35.033203 45.043945 50.044922 63.043945 73.054688 83.06543"
         y="0"
         sodipodi:role="line"
         id="tspan4">class User</tspan></text>
    <path
       id="path6"
       d="m 381,90 h 40 V 50 h 33.64001"
       style="fill:none;stroke:#000000;stroke-width:1;stroke-linecap:butt;stroke-linejoin:miter;stroke-miterlimit:10;stroke-dasharray:none;stroke-opacity:1"
       transform="matrix(0.95717878,0,0,0.95717878,0.47858938,0.47858938)"
       clip-path="url(#clipPath7)" />
    <path
       id="path8"
       d="m 459.89001,50 -7,3.5 1.75,-3.5 -1.75,-3.5 z"
       style="fill:#000000;fill-opacity:1;fill-rule:nonzero;stroke:#000000;stroke-width:1;stroke-linecap:butt;stroke-linejoin:miter;stroke-miterlimit:10;stroke-dasharray:none;stroke-opacity:1"
       transform="matrix(0.95717878,0,0,0.95717878,0.47858938,0.47858938)"
       clip-path="url(#clipPath9)" />
    <path
       id="path10"
       d="m 191,69 h 190 v 42 H 191 Z"
       style="fill:#e1d5e7;fill-opacity:1;fill-rule:nonzero;stroke:#9673a6;stroke-width:1;stroke-linecap:butt;stroke-linejoin:miter;stroke-miterlimit:10;stroke-dasharray:none;stroke-opacity:1"
       transform="matrix(0.95717878,0,0,0.95717878,0.47858938,0.47858938)"
       clip-path="url(#clipPath11)" />
    <text
       id="text11"
       xml:space="preserve"
       transform="matrix(0.95718838,0,0,0.95718838,256.03294,92.847272)"
       clip-path="url(#clipPath12)"><tspan
         style="font-variant:normal;font-weight:normal;font-size:18px;font-family:Helvetica;writing-mode:lr-tb;fill:#000000;fill-opacity:1;fill-rule:nonzero;stroke:none"
         x="0 10.010742 20.021484 25.022461 31.016602"
         y="0"
         sodipodi:role="line"
         id="tspan11">get()</tspan></text>
    <path
       id="path13"
       d="m 191,111 h 190 v 42 H 191 Z"
       style="fill:#ffffff;fill-opacity:1;fill-rule:nonzero;stroke:#000000;stroke-width:1;stroke-linecap:butt;stroke-linejoin:miter;stroke-miterlimit:10;stroke-dasharray:none;stroke-opacity:1"
       transform="matrix(0.95717878,0,0,0.95717878,0.47858938,0.47858938)"
       clip-path="url(#clipPath14)" />
    <text
       id="text14"
       xml:space="preserve"
       transform="matrix(0.95718838,0,0,0.95718838,256.52648,133.04918)"
       clip-path="url(#clipPath15)"><tspan
         style="font-variant:normal;font-weight:normal;font-size:18px;font-family:Helvetica;writing-mode:lr-tb;fill:#000000;fill-opacity:1;fill-rule:nonzero;stroke:none"
         x="0 9 19.010742 24.011719 30.005859"
         y="0"
         sodipodi:role="line"
         id="tspan14">set()</tspan></text>
    <path
       id="path16"
       d="m 381,174 h 40 v 14 h 33.64001"
       style="fill:none;stroke:#000000;stroke-width:1;stroke-linecap:butt;stroke-linejoin:miter;stroke-miterlimit:10;stroke-dasharray:none;stroke-opacity:1"
       transform="matrix(0.95717878,0,0,0.95717878,0.47858938,0.47858938)"
       clip-path="url(#clipPath17)" />
    <path
       id="path18"
       d="m 459.89001,188 -7,3.5 1.75,-3.5 -1.75,-3.5 z"
       style="fill:#000000;fill-opacity:1;fill-rule:nonzero;stroke:#000000;stroke-width:1;stroke-linecap:butt;stroke-linejoin:miter;stroke-miterlimit:10;stroke-dasharray:none;stroke-opacity:1"
       transform="matrix(0.95717878,0,0,0.95717878,0.47858938,0.47858938)"
       clip-path="url(#clipPath19)" />
    <path
       id="path20"
       d="m 191,153 h 190 v 42 H 191 Z"
       style="fill:#e1d5e7;fill-opacity:1;fill-rule:nonzero;stroke:#9673a6;stroke-width:1;stroke-linecap:butt;stroke-linejoin:miter;stroke-miterlimit:10;stroke-dasharray:none;stroke-opacity:1"
       transform="matrix(0.95717878,0,0,0.95717878,0.47858938,0.47858938)"
       clip-path="url(#clipPath21)" />
    <text
       id="text21"
       xml:space="preserve"
       transform="matrix(0.95718838,0,0,0.95718838,258.42591,173.2511)"
       clip-path="url(#clipPath22)"><tspan
         style="font-variant:normal;font-weight:normal;font-size:18px;font-family:Helvetica;writing-mode:lr-tb;fill:#000000;fill-opacity:1;fill-rule:nonzero;stroke:none"
         x="0 10.010742 20.021484 26.015625"
         y="0"
         sodipodi:role="line"
         id="tspan21">on()</tspan></text>
    <path
       id="path23"
       d="m 381,216 h 40 v 14 h 33.64001"
       style="fill:none;stroke:#000000;stroke-width:1;stroke-linecap:butt;stroke-linejoin:miter;stroke-miterlimit:10;stroke-dasharray:none;stroke-opacity:1"
       transform="matrix(0.95717878,0,0,0.95717878,0.47858938,0.47858938)"
       clip-path="url(#clipPath24)" />
    <path
       id="path25"
       d="m 459.89001,230 -7,3.5 1.75,-3.5 -1.75,-3.5 z"
       style="fill:#000000;fill-opacity:1;fill-rule:nonzero;stroke:#000000;stroke-width:1;stroke-linecap:butt;stroke-linejoin:miter;stroke-miterlimit:10;stroke-dasharray:none;stroke-opacity:1"
       transform="matrix(0.95717878,0,0,0.95717878,0.47858938,0.47858938)"
       clip-path="url(#clipPath26)" />
    <path
       id="path27"
       d="m 191,195 h 190 v 42 H 191 Z"
       style="fill:#e1d5e7;fill-opacity:1;fill-rule:nonzero;stroke:#9673a6;stroke-width:1;stroke-linecap:butt;stroke-linejoin:miter;stroke-miterlimit:10;stroke-dasharray:none;stroke-opacity:1"
       transform="matrix(0.95717878,0,0,0.95717878,0.47858938,0.47858938)"
       clip-path="url(#clipPath28)" />
    <text
       id="text28"
       xml:space="preserve"
       transform="matrix(0.95718838,0,0,0.95718838,243.58949,213.45301)"
       clip-path="url(#clipPath29)"><tspan
         style="font-variant:normal;font-weight:normal;font-size:18px;font-family:Helvetica;writing-mode:lr-tb;fill:#000000;fill-opacity:1;fill-rule:nonzero;stroke:none"
         x="0 5.0009766 10.995117 14.994141 25.004883 35.015625 45.026367 51.020508 57.014648"
         y="0"
         sodipodi:role="line"
         id="tspan28">trigger()</tspan></text>
    <path
       id="path30"
       d="m 191,237 h 190 v 42 H 191 Z"
       style="fill:#ffffff;fill-opacity:1;fill-rule:nonzero;stroke:#000000;stroke-width:1;stroke-linecap:butt;stroke-linejoin:miter;stroke-miterlimit:10;stroke-dasharray:none;stroke-opacity:1"
       transform="matrix(0.95717878,0,0,0.95717878,0.47858938,0.47858938)"
       clip-path="url(#clipPath31)" />
    <text
       id="text31"
       xml:space="preserve"
       transform="matrix(0.95718838,0,0,0.95718838,249.33262,253.65492)"
       clip-path="url(#clipPath32)"><tspan
         style="font-variant:normal;font-weight:normal;font-size:18px;font-family:Helvetica;writing-mode:lr-tb;fill:#000000;fill-opacity:1;fill-rule:nonzero;stroke:none"
         x="0 5.0009766 15.011719 20.012695 29.012695 39.023438 45.017578"
         y="0"
         sodipodi:role="line"
         id="tspan31">fetch()</tspan></text>
    <path
       id="path33"
       d="m 191,279 h 190 v 42 H 191 Z"
       style="fill:#ffffff;fill-opacity:1;fill-rule:nonzero;stroke:#000000;stroke-width:1;stroke-linecap:butt;stroke-linejoin:miter;stroke-miterlimit:10;stroke-dasharray:none;stroke-opacity:1"
       transform="matrix(0.95717878,0,0,0.95717878,0.47858938,0.47858938)"
       clip-path="url(#clipPath34)" />
    <text
       id="text34"
       xml:space="preserve"
       transform="matrix(0.95718838,0,0,0.95718838,249.81121,293.85683)"
       clip-path="url(#clipPath35)"><tspan
         style="font-variant:normal;font-weight:normal;font-size:18px;font-family:Helvetica;writing-mode:lr-tb;fill:#000000;fill-opacity:1;fill-rule:nonzero;stroke:none"
         x="0 9 19.010742 28.010742 38.021484 44.015625"
         y="0"
         sodipodi:role="line"
         id="tspan34">save()</tspan></text>
    <path
       id="path36"
       d="M 461,1 H 791 V 29 H 461 Z"
       style="fill:#dae8fc;fill-opacity:1;fill-rule:nonzero;stroke:#6c8ebf;stroke-width:1;stroke-linecap:butt;stroke-linejoin:miter;stroke-miterlimit:10;stroke-dasharray:none;stroke-opacity:1"
       transform="matrix(0.95717878,0,0,0.95717878,0.47858938,0.47858938)"
       clip-path="url(#clipPath37)" />
    <text
       id="text37"
       xml:space="preserve"
       transform="matrix(0.95718838,0,0,0.95718838,519.55886,21.058144)"
       clip-path="url(#clipPath38)"><tspan
         style="font-variant:normal;font-weight:700;font-size:18px;font-family:Helvetica;writing-mode:lr-tb;fill:#000000;fill-opacity:1;fill-rule:nonzero;stroke:none"
         x="0 10.010742 15.011719 25.022461 35.033203 45.043945 49.385742 62.384766 68.378906 74.373047 81.37793 86.378906 97.374023 108.36914 114.36328 124.37402 134.38477 144.89648 155.8916"
         y="0"
         sodipodi:role="line"
         id="tspan37">class Attributes&lt;T&gt;</tspan></text>
    <path
       id="path39"
       d="M 461,29 H 791 V 71 H 461 Z"
       style="fill:#ffffff;fill-opacity:1;fill-rule:nonzero;stroke:#000000;stroke-width:1;stroke-linecap:butt;stroke-linejoin:miter;stroke-miterlimit:10;stroke-dasharray:none;stroke-opacity:1"
       transform="matrix(0.95717878,0,0,0.95717878,0.47858938,0.47858938)"
       clip-path="url(#clipPath40)" />
    <text
       id="text40"
       xml:space="preserve"
       transform="matrix(0.95718838,0,0,0.95718838,537.11729,54.559737)"
       clip-path="url(#clipPath41)"><tspan
         style="font-variant:normal;font-weight:normal;font-size:18px;font-family:Helvetica;writing-mode:lr-tb;fill:#000000;fill-opacity:1;fill-rule:nonzero;stroke:none"
         x="0 10.010742 20.021484 25.022461 31.016602 40.016602 50.027344 59.027344 64.02832 69.029297 81.035156 87.029297 92.030273 96.714844 107.70996 112.71094 124.7168"
         y="0"
         sodipodi:role="line"
         id="tspan40">get(key: K): T[K]</tspan></text>
    <path
       id="path42"
       d="m 461,71 h 330 v 42 H 461 Z"
       style="fill:#ffffff;fill-opacity:1;fill-rule:nonzero;stroke:#000000;stroke-width:1;stroke-linecap:butt;stroke-linejoin:miter;stroke-miterlimit:10;stroke-dasharray:none;stroke-opacity:1"
       transform="matrix(0.95717878,0,0,0.95717878,0.47858938,0.47858938)"
       clip-path="url(#clipPath43)" />
    <text
       id="text43"
       xml:space="preserve"
       transform="matrix(0.95718838,0,0,0.95718838,525.12252,94.761649)"
       clip-path="url(#clipPath44)"><tspan
         style="font-variant:normal;font-weight:normal;font-size:18px;font-family:Helvetica;writing-mode:lr-tb;fill:#000000;fill-opacity:1;fill-rule:nonzero;stroke:none"
         x="0 9 19.010742 24.011719 30.005859 40.016602 50.027344 60.038086 70.048828 75.049805 85.060547 90.061523 94.746094 105.74121 111.73535 116.73633 121.7373 130.7373 140.74805 144.74707"
         y="0"
         sodipodi:role="line"
         id="tspan43">set(update: T): void</tspan></text>
    <path
       id="path45"
       d="m 461,139 h 330 v 28 H 461 Z"
       style="fill:#dae8fc;fill-opacity:1;fill-rule:nonzero;stroke:#6c8ebf;stroke-width:1;stroke-linecap:butt;stroke-linejoin:miter;stroke-miterlimit:10;stroke-dasharray:none;stroke-opacity:1"
       transform="matrix(0.95717878,0,0,0.95717878,0.47858938,0.47858938)"
       clip-path="url(#clipPath46)" />
    <text
       id="text46"
       xml:space="preserve"
       transform="matrix(0.95718838,0,0,0.95718838,538.86714,153.15014)"
       clip-path="url(#clipPath47)"><tspan
         style="font-variant:normal;font-weight:700;font-size:18px;font-family:Helvetica;writing-mode:lr-tb;fill:#000000;fill-opacity:1;fill-rule:nonzero;stroke:none"
         x="0 10.010742 15.011719 25.022461 35.033203 45.043945 50.044922 62.050781 72.061523 82.072266 93.067383 99.061523 104.0625 115.05762"
         y="0"
         sodipodi:role="line"
         id="tspan46">class Eventing</tspan></text>
    <path
       id="path48"
       d="m 461,167 h 330 v 42 H 461 Z"
       style="fill:#ffffff;fill-opacity:1;fill-rule:nonzero;stroke:#000000;stroke-width:1;stroke-linecap:butt;stroke-linejoin:miter;stroke-miterlimit:10;stroke-dasharray:none;stroke-opacity:1"
       transform="matrix(0.95717878,0,0,0.95717878,0.47858938,0.47858938)"
       clip-path="url(#clipPath49)" />
    <text
       id="text49"
       xml:space="preserve"
       transform="matrix(0.95718838,0,0,0.95718838,446.9322,186.65173)"
       clip-path="url(#clipPath50)"><tspan
         style="font-variant:normal;font-weight:normal;font-size:18px;font-family:Helvetica;writing-mode:lr-tb;fill:#000000;fill-opacity:1;fill-rule:nonzero;stroke:none"
         x="0 10.010742 20.021484 26.015625 36.026367 45.026367 55.037109 65.047852 70.048828 83.047852 93.058594 108.05273 118.06348 123.06445 128.06543 137.06543 142.06641 148.06055 152.05957 162.07031 172.08105 177.08203 182.08301 191.08301 201.09375 205.09277 209.0918 219.10254 229.11328 238.11328 247.11328 252.11426 257.11523 263.10938 269.10352 274.10449 284.61621 295.12793 300.12891 306.14062 312.15234"
         y="0"
         sodipodi:role="line"
         id="tspan49">on(eventName: string, callback: () =&gt; {})</tspan></text>
    <path
       id="path51"
       d="m 461,209 h 330 v 42 H 461 Z"
       style="fill:#ffffff;fill-opacity:1;fill-rule:nonzero;stroke:#000000;stroke-width:1;stroke-linecap:butt;stroke-linejoin:miter;stroke-miterlimit:10;stroke-dasharray:none;stroke-opacity:1"
       transform="matrix(0.95717878,0,0,0.95717878,0.47858938,0.47858938)"
       clip-path="url(#clipPath52)" />
    <text
       id="text52"
       xml:space="preserve"
       transform="matrix(0.95718838,0,0,0.95718838,478.53436,226.85365)"
       clip-path="url(#clipPath53)"><tspan
         style="font-variant:normal;font-weight:normal;font-size:18px;font-family:Helvetica;writing-mode:lr-tb;fill:#000000;fill-opacity:1;fill-rule:nonzero;stroke:none"
         x="0 5.0009766 10.995117 14.994141 25.004883 35.015625 45.026367 51.020508 57.014648 67.025391 76.025391 86.036133 96.046875 101.04785 114.04688 124.05762 139.05176 149.0625 154.06348 159.06445 168.06445 173.06543 179.05957 183.05859 193.06934 203.08008 209.07422 214.0752 219.07617 228.07617 238.08691 242.08594"
         y="0"
         sodipodi:role="line"
         id="tspan52">trigger(eventName: string): void</tspan></text>
    <path
       id="path54"
       d="m 461,281 h 330 v 28 H 461 Z"
       style="fill:#dae8fc;fill-opacity:1;fill-rule:nonzero;stroke:#6c8ebf;stroke-width:1;stroke-linecap:butt;stroke-linejoin:miter;stroke-miterlimit:10;stroke-dasharray:none;stroke-opacity:1"
       transform="matrix(0.95717878,0,0,0.95717878,0.47858938,0.47858938)"
       clip-path="url(#clipPath55)" />
    <text
       id="text55"
       xml:space="preserve"
       transform="matrix(0.95718838,0,0,0.95718838,539.33079,289.07089)"
       clip-path="url(#clipPath56)"><tspan
         style="font-variant:normal;font-weight:700;font-size:18px;font-family:Helvetica;writing-mode:lr-tb;fill:#000000;fill-opacity:1;fill-rule:nonzero;stroke:none"
         x="0 10.010742 15.011719 25.022461 35.033203 45.043945 50.044922 62.050781 72.061523 83.056641 93.067383 103.5791 114.57422"
         y="0"
         sodipodi:role="line"
         id="tspan55">class Sync&lt;T&gt;</tspan></text>
    <path
       id="path57"
       d="m 461,309 h 330 v 42 H 461 Z"
       style="fill:#ffffff;fill-opacity:1;fill-rule:nonzero;stroke:#000000;stroke-width:1;stroke-linecap:butt;stroke-linejoin:miter;stroke-miterlimit:10;stroke-dasharray:none;stroke-opacity:1"
       transform="matrix(0.95717878,0,0,0.95717878,0.47858938,0.47858938)"
       clip-path="url(#clipPath58)" />
    <text
       id="text58"
       xml:space="preserve"
       transform="matrix(0.95718838,0,0,0.95718838,497.69309,322.57248)"
       clip-path="url(#clipPath59)"><tspan
         style="font-variant:normal;font-weight:normal;font-size:18px;font-family:Helvetica;writing-mode:lr-tb;fill:#000000;fill-opacity:1;fill-rule:nonzero;stroke:none"
         x="0 5.0009766 15.011719 20.012695 29.012695 39.023438 45.017578 49.016602 59.027344 64.02832 69.029297 79.040039 89.050781 104.04492 114.05566 124.06641 130.06055 136.05469 141.05566 146.05664 158.0625 164.05664 174.06738 189.06152 193.06055 202.06055"
         y="0"
         sodipodi:role="line"
         id="tspan58">fetch(id: number): Promise</tspan></text>
    <path
       id="path60"
       d="m 461,351 h 330 v 42 H 461 Z"
       style="fill:#ffffff;fill-opacity:1;fill-rule:nonzero;stroke:#000000;stroke-width:1;stroke-linecap:butt;stroke-linejoin:miter;stroke-miterlimit:10;stroke-dasharray:none;stroke-opacity:1"
       transform="matrix(0.95717878,0,0,0.95717878,0.47858938,0.47858938)"
       clip-path="url(#clipPath61)" />
    <text
       id="text61"
       xml:space="preserve"
       transform="matrix(0.95718838,0,0,0.95718838,512.21543,362.77439)"
       clip-path="url(#clipPath62)"><tspan
         style="font-variant:normal;font-weight:normal;font-size:18px;font-family:Helvetica;writing-mode:lr-tb;fill:#000000;fill-opacity:1;fill-rule:nonzero;stroke:none"
         x="0 9 19.010742 28.010742 38.021484 44.015625 54.026367 64.037109 69.038086 79.048828 84.049805 88.734375 99.729492 105.72363 110.72461 115.72559 127.73145 133.72559 143.73633 158.73047 162.72949 171.72949"
         y="0"
         sodipodi:role="line"
         id="tspan61">save(data: T): Promise</tspan></text>
    <path
       id="path63"
       d="m 1,147 h 150 v 82 H 1 Z"
       style="fill:#e1d5e7;fill-opacity:1;fill-rule:nonzero;stroke:#9673a6;stroke-width:1;stroke-linecap:butt;stroke-linejoin:miter;stroke-miterlimit:10;stroke-dasharray:none;stroke-opacity:1"
       transform="matrix(0.95717878,0,0,0.95717878,0.47858938,0.47858938)"
       clip-path="url(#clipPath64)" />
    <text
       id="text64"
       xml:space="preserve"
       transform="matrix(0.95718838,0,0,0.95718838,48.323057,165.59359)"
       clip-path="url(#clipPath65)"><tspan
         style="font-variant:normal;font-weight:700;font-size:18px;font-family:Helvetica;writing-mode:lr-tb;fill:#000000;fill-opacity:1;fill-rule:nonzero;stroke:none"
         x="0 12.999023 18 25.004883 35.015625 45.026367"
         y="0"
         sodipodi:role="line"
         id="tspan64">Direct</tspan></text>
    <text
       id="text65"
       xml:space="preserve"
       transform="matrix(0.95718838,0,0,0.95718838,10.050478,186.65173)"
       clip-path="url(#clipPath66)"><tspan
         style="font-variant:normal;font-weight:700;font-size:18px;font-family:Helvetica;writing-mode:lr-tb;fill:#000000;fill-opacity:1;fill-rule:nonzero;stroke:none"
         x="0 10.995117 21.005859 31.016602 41.027344 47.021484 58.016602 65.021484 76.016602 87.011719 98.006836 109.00195 114.00293 124.99805"
         y="0"
         sodipodi:role="line"
         id="tspan65">passthrough of</tspan></text>
    <text
       id="text66"
       xml:space="preserve"
       transform="matrix(0.95718838,0,0,0.95718838,28.700695,206.75269)"
       clip-path="url(#clipPath67)"><tspan
         style="font-variant:normal;font-weight:700;font-size:18px;font-family:Helvetica;writing-mode:lr-tb;fill:#000000;fill-opacity:1;fill-rule:nonzero;stroke:none"
         x="0 10.010742 17.015625 28.010742 39.005859 55.010742 65.021484 76.016602 82.010742"
         y="0"
         sodipodi:role="line"
         id="tspan66">arguments</tspan></text>
  </g>
</svg>
