<?xml version="1.0" encoding="UTF-8" standalone="no"?>
<!-- Created with Inkscape (http://www.inkscape.org/) -->

<svg
   version="1.1"
   id="svg1"
   width="425.28"
   height="394.55997"
   viewBox="0 0 425.28 394.55997"
   sodipodi:docname="ts-4.pdf"
   xmlns:inkscape="http://www.inkscape.org/namespaces/inkscape"
   xmlns:sodipodi="http://sodipodi.sourceforge.net/DTD/sodipodi-0.dtd"
   xmlns="http://www.w3.org/2000/svg"
   xmlns:svg="http://www.w3.org/2000/svg">
  <defs
     id="defs1">
    <clipPath
       clipPathUnits="userSpaceOnUse"
       id="clipPath2">
      <path
         d="M 0,0 H 1329.1666 V 1230.5992 H 0 Z"
         transform="scale(0.33479625)"
         clip-rule="evenodd"
         id="path2" />
    </clipPath>
    <clipPath
       clipPathUnits="userSpaceOnUse"
       id="clipPath4">
      <path
         d="M 0,0 H 1329.1666 V 1224.6254 H 0 Z"
         transform="matrix(0.33479625,0,0,0.33479625,-0.49999999,-0.49999999)"
         clip-rule="evenodd"
         id="path4" />
    </clipPath>
    <clipPath
       clipPathUnits="userSpaceOnUse"
       id="clipPath5">
      <path
         d="M 0,0 H 1329.1666 V 1224.6254 H 0 Z"
         transform="matrix(0.33479291,0,0,0.33479291,-50.953126,-22)"
         clip-rule="evenodd"
         id="path5" />
    </clipPath>
    <clipPath
       clipPathUnits="userSpaceOnUse"
       id="clipPath7">
      <path
         d="M 0,0 H 1329.1666 V 1224.6254 H 0 Z"
         transform="matrix(0.33479625,0,0,0.33479625,-0.49999999,-0.49999999)"
         clip-rule="evenodd"
         id="path7" />
    </clipPath>
    <clipPath
       clipPathUnits="userSpaceOnUse"
       id="clipPath8">
      <path
         d="M 0,0 H 1329.1666 V 1224.6254 H 0 Z"
         transform="matrix(0.33479291,0,0,0.33479291,-77.484376,-183)"
         clip-rule="evenodd"
         id="path8" />
    </clipPath>
    <clipPath
       clipPathUnits="userSpaceOnUse"
       id="clipPath10">
      <path
         d="M 0,0 H 1329.1666 V 1224.6254 H 0 Z"
         transform="matrix(0.33479625,0,0,0.33479625,-0.49999999,-0.49999999)"
         clip-rule="evenodd"
         id="path10" />
    </clipPath>
    <clipPath
       clipPathUnits="userSpaceOnUse"
       id="clipPath11">
      <path
         d="M 0,0 H 1329.1666 V 1224.6254 H 0 Z"
         transform="matrix(0.33479291,0,0,0.33479291,-78.000001,-225)"
         clip-rule="evenodd"
         id="path11" />
    </clipPath>
    <clipPath
       clipPathUnits="userSpaceOnUse"
       id="clipPath13">
      <path
         d="M 0,0 H 1329.1666 V 1224.6254 H 0 Z"
         transform="matrix(0.33479625,0,0,0.33479625,-0.49999999,-0.49999999)"
         clip-rule="evenodd"
         id="path13" />
    </clipPath>
    <clipPath
       clipPathUnits="userSpaceOnUse"
       id="clipPath14">
      <path
         d="M 0,0 H 1329.1666 V 1224.6254 H 0 Z"
         transform="matrix(0.33479291,0,0,0.33479291,-79.984375,-267)"
         clip-rule="evenodd"
         id="path14" />
    </clipPath>
    <clipPath
       clipPathUnits="userSpaceOnUse"
       id="clipPath16">
      <path
         d="M 0,0 H 1329.1666 V 1224.6254 H 0 Z"
         transform="matrix(0.33479625,0,0,0.33479625,-0.49999999,-0.49999999)"
         clip-rule="evenodd"
         id="path16" />
    </clipPath>
    <clipPath
       clipPathUnits="userSpaceOnUse"
       id="clipPath17">
      <path
         d="M 0,0 H 1329.1666 V 1224.6254 H 0 Z"
         transform="matrix(0.33479291,0,0,0.33479291,-64.484375,-309)"
         clip-rule="evenodd"
         id="path17" />
    </clipPath>
    <clipPath
       clipPathUnits="userSpaceOnUse"
       id="clipPath19">
      <path
         d="M 0,0 H 1329.1666 V 1224.6254 H 0 Z"
         transform="matrix(0.33479625,0,0,0.33479625,-0.49999999,-0.49999999)"
         clip-rule="evenodd"
         id="path19" />
    </clipPath>
    <clipPath
       clipPathUnits="userSpaceOnUse"
       id="clipPath20">
      <path
         d="M 0,0 H 1329.1666 V 1224.6254 H 0 Z"
         transform="matrix(0.33479291,0,0,0.33479291,-70.484376,-351)"
         clip-rule="evenodd"
         id="path20" />
    </clipPath>
    <clipPath
       clipPathUnits="userSpaceOnUse"
       id="clipPath22">
      <path
         d="M 0,0 H 1329.1666 V 1224.6254 H 0 Z"
         transform="matrix(0.33479625,0,0,0.33479625,-0.49999999,-0.49999999)"
         clip-rule="evenodd"
         id="path22" />
    </clipPath>
    <clipPath
       clipPathUnits="userSpaceOnUse"
       id="clipPath23">
      <path
         d="M 0,0 H 1329.1666 V 1224.6254 H 0 Z"
         transform="matrix(0.33479291,0,0,0.33479291,-70.984375,-393)"
         clip-rule="evenodd"
         id="path23" />
    </clipPath>
    <clipPath
       clipPathUnits="userSpaceOnUse"
       id="clipPath25">
      <path
         d="M 0,0 H 1329.1666 V 1224.6254 H 0 Z"
         transform="matrix(0.33479625,0,0,0.33479625,-0.49999999,-0.49999999)"
         clip-rule="evenodd"
         id="path25" />
    </clipPath>
    <clipPath
       clipPathUnits="userSpaceOnUse"
       id="clipPath26">
      <path
         d="M 0,0 H 1329.1666 V 1224.6254 H 0 Z"
         transform="matrix(0.33479291,0,0,0.33479291,-3.4375,-57.000001)"
         clip-rule="evenodd"
         id="path26" />
    </clipPath>
    <clipPath
       clipPathUnits="userSpaceOnUse"
       id="clipPath28">
      <path
         d="M 0,0 H 1329.1666 V 1224.6254 H 0 Z"
         transform="matrix(0.33479625,0,0,0.33479625,-0.49999999,-0.49999999)"
         clip-rule="evenodd"
         id="path28" />
    </clipPath>
    <clipPath
       clipPathUnits="userSpaceOnUse"
       id="clipPath29">
      <path
         d="M 0,0 H 1329.1666 V 1224.6254 H 0 Z"
         transform="matrix(0.33479291,0,0,0.33479291,-26.46875,-99.000001)"
         clip-rule="evenodd"
         id="path29" />
    </clipPath>
    <clipPath
       clipPathUnits="userSpaceOnUse"
       id="clipPath31">
      <path
         d="M 0,0 H 1329.1666 V 1224.6254 H 0 Z"
         transform="matrix(0.33479625,0,0,0.33479625,-0.49999999,-0.49999999)"
         clip-rule="evenodd"
         id="path31" />
    </clipPath>
    <clipPath
       clipPathUnits="userSpaceOnUse"
       id="clipPath32">
      <path
         d="M 0,0 H 1329.1666 V 1224.6254 H 0 Z"
         transform="matrix(0.33479291,0,0,0.33479291,-13.953125,-141)"
         clip-rule="evenodd"
         id="path32" />
    </clipPath>
    <clipPath
       clipPathUnits="userSpaceOnUse"
       id="clipPath34">
      <path
         d="M 0,0 H 1329.1666 V 1224.6254 H 0 Z"
         transform="matrix(0.33479625,0,0,0.33479625,-0.49999999,-0.49999999)"
         clip-rule="evenodd"
         id="path34" />
    </clipPath>
    <clipPath
       clipPathUnits="userSpaceOnUse"
       id="clipPath35">
      <path
         d="M 0,0 H 1329.1666 V 1224.6254 H 0 Z"
         transform="matrix(0.33479291,0,0,0.33479291,-223.78125,-78.000001)"
         clip-rule="evenodd"
         id="path35" />
    </clipPath>
    <clipPath
       clipPathUnits="userSpaceOnUse"
       id="clipPath36">
      <path
         d="M 0,0 H 1329.1666 V 1224.6254 H 0 Z"
         transform="matrix(0.33479291,0,0,0.33479291,-247.375,-97)"
         clip-rule="evenodd"
         id="path36" />
    </clipPath>
    <clipPath
       clipPathUnits="userSpaceOnUse"
       id="clipPath37">
      <path
         d="M 0,0 H 1329.1666 V 1224.6254 H 0 Z"
         transform="matrix(0.33479291,0,0,0.33479291,-283.26563,-116)"
         clip-rule="evenodd"
         id="path37" />
    </clipPath>
  </defs>
  <sodipodi:namedview
     id="namedview1"
     pagecolor="#ffffff"
     bordercolor="#000000"
     borderopacity="0.25"
     inkscape:showpageshadow="2"
     inkscape:pageopacity="0.0"
     inkscape:pagecheckerboard="0"
     inkscape:deskcolor="#d1d1d1">
    <inkscape:page
       x="0"
       y="0"
       inkscape:label="1"
       id="page1"
       width="425.28"
       height="394.55997"
       margin="0"
       bleed="0" />
  </sodipodi:namedview>
  <g
     id="g1"
     inkscape:groupmode="layer"
     inkscape:label="1">
    <path
       id="path1"
       d="M 0,0 H 445 V 412 H 0 Z"
       style="fill:#ffffff;fill-opacity:1;fill-rule:nonzero;stroke:none"
       transform="scale(0.95580518)"
       clip-path="url(#clipPath2)" />
    <path
       id="path3"
       d="M 1,1 H 191 V 29 H 1 Z"
       style="fill:#dae8fc;fill-opacity:1;fill-rule:nonzero;stroke:#6c8ebf;stroke-width:1;stroke-linecap:butt;stroke-linejoin:miter;stroke-miterlimit:10;stroke-dasharray:none;stroke-opacity:1"
       transform="matrix(0.95580518,0,0,0.95580518,0.47790258,0.47790258)"
       clip-path="url(#clipPath4)" />
    <text
       id="text4"
       xml:space="preserve"
       transform="matrix(0.95581471,0,0,0.95581471,48.701747,21.027924)"
       clip-path="url(#clipPath5)"><tspan
         style="font-variant:normal;font-weight:700;font-size:18px;font-family:Helvetica;writing-mode:lr-tb;fill:#000000;fill-opacity:1;fill-rule:nonzero;stroke:none"
         x="0 10.010742 15.011719 25.022461 35.033203 45.043945 50.044922 63.043945 73.054688 83.06543"
         y="0"
         sodipodi:role="line"
         id="tspan4">class User</tspan></text>
    <path
       id="path6"
       d="m 1,155 h 190 v 42 H 1 Z"
       style="fill:#ffffff;fill-opacity:1;fill-rule:nonzero;stroke:#000000;stroke-width:1;stroke-linecap:butt;stroke-linejoin:miter;stroke-miterlimit:10;stroke-dasharray:none;stroke-opacity:1"
       transform="matrix(0.95580518,0,0,0.95580518,0.47790258,0.47790258)"
       clip-path="url(#clipPath7)" />
    <text
       id="text7"
       xml:space="preserve"
       transform="matrix(0.95581471,0,0,0.95581471,74.060706,174.91409)"
       clip-path="url(#clipPath8)"><tspan
         style="font-variant:normal;font-weight:normal;font-size:18px;font-family:Helvetica;writing-mode:lr-tb;fill:#000000;fill-opacity:1;fill-rule:nonzero;stroke:none"
         x="0 10.010742 20.021484 25.022461 31.016602"
         y="0"
         sodipodi:role="line"
         id="tspan7">get()</tspan></text>
    <path
       id="path9"
       d="m 1,197 h 190 v 42 H 1 Z"
       style="fill:#ffffff;fill-opacity:1;fill-rule:nonzero;stroke:#000000;stroke-width:1;stroke-linecap:butt;stroke-linejoin:miter;stroke-miterlimit:10;stroke-dasharray:none;stroke-opacity:1"
       transform="matrix(0.95580518,0,0,0.95580518,0.47790258,0.47790258)"
       clip-path="url(#clipPath10)" />
    <text
       id="text10"
       xml:space="preserve"
       transform="matrix(0.95581471,0,0,0.95581471,74.553548,215.05831)"
       clip-path="url(#clipPath11)"><tspan
         style="font-variant:normal;font-weight:normal;font-size:18px;font-family:Helvetica;writing-mode:lr-tb;fill:#000000;fill-opacity:1;fill-rule:nonzero;stroke:none"
         x="0 9 19.010742 24.011719 30.005859"
         y="0"
         sodipodi:role="line"
         id="tspan10">set()</tspan></text>
    <path
       id="path12"
       d="m 1,239 h 190 v 42 H 1 Z"
       style="fill:#ffffff;fill-opacity:1;fill-rule:nonzero;stroke:#000000;stroke-width:1;stroke-linecap:butt;stroke-linejoin:miter;stroke-miterlimit:10;stroke-dasharray:none;stroke-opacity:1"
       transform="matrix(0.95580518,0,0,0.95580518,0.47790258,0.47790258)"
       clip-path="url(#clipPath13)" />
    <text
       id="text13"
       xml:space="preserve"
       transform="matrix(0.95581471,0,0,0.95581471,76.450242,255.20253)"
       clip-path="url(#clipPath14)"><tspan
         style="font-variant:normal;font-weight:normal;font-size:18px;font-family:Helvetica;writing-mode:lr-tb;fill:#000000;fill-opacity:1;fill-rule:nonzero;stroke:none"
         x="0 10.010742 20.021484 26.015625"
         y="0"
         sodipodi:role="line"
         id="tspan13">on()</tspan></text>
    <path
       id="path15"
       d="m 1,281 h 190 v 42 H 1 Z"
       style="fill:#ffffff;fill-opacity:1;fill-rule:nonzero;stroke:#000000;stroke-width:1;stroke-linecap:butt;stroke-linejoin:miter;stroke-miterlimit:10;stroke-dasharray:none;stroke-opacity:1"
       transform="matrix(0.95580518,0,0,0.95580518,0.47790258,0.47790258)"
       clip-path="url(#clipPath16)" />
    <text
       id="text16"
       xml:space="preserve"
       transform="matrix(0.95581471,0,0,0.95581471,61.635114,295.34675)"
       clip-path="url(#clipPath17)"><tspan
         style="font-variant:normal;font-weight:normal;font-size:18px;font-family:Helvetica;writing-mode:lr-tb;fill:#000000;fill-opacity:1;fill-rule:nonzero;stroke:none"
         x="0 5.0009766 10.995117 14.994141 25.004883 35.015625 45.026367 51.020508 57.014648"
         y="0"
         sodipodi:role="line"
         id="tspan16">trigger()</tspan></text>
    <path
       id="path18"
       d="m 1,323 h 190 v 42 H 1 Z"
       style="fill:#ffffff;fill-opacity:1;fill-rule:nonzero;stroke:#000000;stroke-width:1;stroke-linecap:butt;stroke-linejoin:miter;stroke-miterlimit:10;stroke-dasharray:none;stroke-opacity:1"
       transform="matrix(0.95580518,0,0,0.95580518,0.47790258,0.47790258)"
       clip-path="url(#clipPath19)" />
    <text
       id="text19"
       xml:space="preserve"
       transform="matrix(0.95581471,0,0,0.95581471,67.370003,335.49096)"
       clip-path="url(#clipPath20)"><tspan
         style="font-variant:normal;font-weight:normal;font-size:18px;font-family:Helvetica;writing-mode:lr-tb;fill:#000000;fill-opacity:1;fill-rule:nonzero;stroke:none"
         x="0 5.0009766 15.011719 20.012695 29.012695 39.023438 45.017578"
         y="0"
         sodipodi:role="line"
         id="tspan19">fetch()</tspan></text>
    <path
       id="path21"
       d="m 1,365 h 190 v 42 H 1 Z"
       style="fill:#ffffff;fill-opacity:1;fill-rule:nonzero;stroke:#000000;stroke-width:1;stroke-linecap:butt;stroke-linejoin:miter;stroke-miterlimit:10;stroke-dasharray:none;stroke-opacity:1"
       transform="matrix(0.95580518,0,0,0.95580518,0.47790258,0.47790258)"
       clip-path="url(#clipPath22)" />
    <text
       id="text22"
       xml:space="preserve"
       transform="matrix(0.95581471,0,0,0.95581471,67.84791,375.63518)"
       clip-path="url(#clipPath23)"><tspan
         style="font-variant:normal;font-weight:normal;font-size:18px;font-family:Helvetica;writing-mode:lr-tb;fill:#000000;fill-opacity:1;fill-rule:nonzero;stroke:none"
         x="0 9 19.010742 28.010742 38.021484 44.015625"
         y="0"
         sodipodi:role="line"
         id="tspan22">save()</tspan></text>
    <path
       id="path24"
       d="M 1,29 H 191 V 71 H 1 Z"
       style="fill:#ffffff;fill-opacity:1;fill-rule:nonzero;stroke:#000000;stroke-width:1;stroke-linecap:butt;stroke-linejoin:miter;stroke-miterlimit:10;stroke-dasharray:none;stroke-opacity:1"
       transform="matrix(0.95580518,0,0,0.95580518,0.47790258,0.47790258)"
       clip-path="url(#clipPath25)" />
    <text
       id="text25"
       xml:space="preserve"
       transform="matrix(0.95581471,0,0,0.95581471,3.2856131,54.481439)"
       clip-path="url(#clipPath26)"><tspan
         style="font-variant:normal;font-weight:normal;font-size:18px;font-family:Helvetica;writing-mode:lr-tb;fill:#000000;fill-opacity:1;fill-rule:nonzero;stroke:none"
         x="0 10.010742 20.021484 30.032227 34.03125 38.030273 47.030273 52.03125 62.041992 71.041992 81.052734 91.063477 96.064453 105.06445 110.06543 115.06641 127.07227 136.07227 146.08301 156.09375 161.09473 165.09375 175.10449"
         y="0"
         sodipodi:role="line"
         id="tspan25">public events: Eventing</tspan></text>
    <path
       id="path27"
       d="m 1,71 h 190 v 42 H 1 Z"
       style="fill:#ffffff;fill-opacity:1;fill-rule:nonzero;stroke:#000000;stroke-width:1;stroke-linecap:butt;stroke-linejoin:miter;stroke-miterlimit:10;stroke-dasharray:none;stroke-opacity:1"
       transform="matrix(0.95580518,0,0,0.95580518,0.47790258,0.47790258)"
       clip-path="url(#clipPath28)" />
    <text
       id="text28"
       xml:space="preserve"
       transform="matrix(0.95581471,0,0,0.95581471,25.299221,94.625657)"
       clip-path="url(#clipPath29)"><tspan
         style="font-variant:normal;font-weight:normal;font-size:18px;font-family:Helvetica;writing-mode:lr-tb;fill:#000000;fill-opacity:1;fill-rule:nonzero;stroke:none"
         x="0 10.010742 20.021484 30.032227 34.03125 38.030273 47.030273 52.03125 61.03125 70.03125 80.041992 89.041992 94.042969 99.043945 111.0498 120.0498 130.06055"
         y="0"
         sodipodi:role="line"
         id="tspan28">public sync: Sync</tspan></text>
    <path
       id="path30"
       d="m 1,113 h 190 v 42 H 1 Z"
       style="fill:#ffffff;fill-opacity:1;fill-rule:nonzero;stroke:#000000;stroke-width:1;stroke-linecap:butt;stroke-linejoin:miter;stroke-miterlimit:10;stroke-dasharray:none;stroke-opacity:1"
       transform="matrix(0.95580518,0,0,0.95580518,0.47790258,0.47790258)"
       clip-path="url(#clipPath31)" />
    <text
       id="text31"
       xml:space="preserve"
       transform="matrix(0.95581471,0,0,0.95581471,13.336602,134.76987)"
       clip-path="url(#clipPath32)"><tspan
         style="font-variant:normal;font-weight:normal;font-size:18px;font-family:Helvetica;writing-mode:lr-tb;fill:#000000;fill-opacity:1;fill-rule:nonzero;stroke:none"
         x="0 10.010742 20.021484 30.032227 34.03125 38.030273 47.030273 52.03125 62.041992 67.042969 72.043945 78.038086 82.037109 92.047852 102.05859 107.05957 117.07031 126.07031 131.07129 135.08789 147.09375 152.09473 158.08887"
         y="0"
         sodipodi:role="line"
         id="tspan31">public attributes: Atrr</tspan></text>
    <path
       id="path33"
       d="m 219,51.5 h 223 v 81 H 219 Z"
       style="fill:#f8cecc;fill-opacity:1;fill-rule:nonzero;stroke:#b85450;stroke-width:1;stroke-linecap:butt;stroke-linejoin:miter;stroke-miterlimit:10;stroke-dasharray:none;stroke-opacity:1"
       transform="matrix(0.95580518,0,0,0.95580518,0.47790258,0.47790258)"
       clip-path="url(#clipPath34)" />
    <text
       id="text34"
       xml:space="preserve"
       transform="matrix(0.95581471,0,0,0.95581471,213.89341,74.553548)"
       clip-path="url(#clipPath35)"><tspan
         style="font-variant:normal;font-weight:700;font-size:16px;font-family:Helvetica;writing-mode:lr-tb;fill:#000000;fill-opacity:1;fill-rule:nonzero;stroke:none"
         x="0 9.7734375 19.546875 28.445312 37.34375 46.242188 50.6875 60.460938 69.359375 78.257812 83.585938 92.484375 102.25781 106.70312 116.47656 126.25 130.69531 139.59375 148.49219 153.82031 162.71875 167.16406 176.0625 182.28906 191.1875 195.63281 204.53125 208.97656"
         y="0"
         sodipodi:role="line"
         id="tspan34">These nested objects are all</tspan></text>
    <text
       id="text35"
       xml:space="preserve"
       transform="matrix(0.95581471,0,0,0.95581471,236.44466,92.714027)"
       clip-path="url(#clipPath36)"><tspan
         style="font-variant:normal;font-weight:700;font-size:16px;font-family:Helvetica;writing-mode:lr-tb;fill:#000000;fill-opacity:1;fill-rule:nonzero;stroke:none"
         x="0 9.7734375 19.546875 29.320312 33.765625 38.210938 47.109375 51.554688 56.882812 61.328125 66.65625 76.429688 85.328125 94.226562 98.671875 108.44531 114.67188 124.44531 134.21875 143.11719 152.89062 157.33594"
         y="0"
         sodipodi:role="line"
         id="tspan35">public - they probably</tspan></text>
    <text
       id="text36"
       xml:space="preserve"
       transform="matrix(0.95581471,0,0,0.95581471,270.74946,110.87451)"
       clip-path="url(#clipPath37)"><tspan
         style="font-variant:normal;font-weight:700;font-size:16px;font-family:Helvetica;writing-mode:lr-tb;fill:#000000;fill-opacity:1;fill-rule:nonzero;stroke:none"
         x="0 8.8984375 18.671875 28.445312 38.21875 42.664062 52.4375 62.210938 66.015625 71.34375 75.789062 85.5625"
         y="0"
         sodipodi:role="line"
         id="tspan36">shouldn't be</tspan></text>
  </g>
</svg>
