<?xml version="1.0" encoding="UTF-8" standalone="no"?>
<!-- Created with Inkscape (http://www.inkscape.org/) -->

<svg
   version="1.1"
   id="svg1"
   width="492.16"
   height="274.56"
   viewBox="0 0 492.16 274.56"
   sodipodi:docname="ts-9.pdf"
   xmlns:inkscape="http://www.inkscape.org/namespaces/inkscape"
   xmlns:sodipodi="http://sodipodi.sourceforge.net/DTD/sodipodi-0.dtd"
   xmlns="http://www.w3.org/2000/svg"
   xmlns:svg="http://www.w3.org/2000/svg">
  <defs
     id="defs1">
    <clipPath
       clipPathUnits="userSpaceOnUse"
       id="clipPath2">
      <path
         d="M 0,0 H 1537.5 V 855.49609 H 0 Z"
         transform="scale(0.33430896)"
         clip-rule="evenodd"
         id="path2" />
    </clipPath>
    <clipPath
       clipPathUnits="userSpaceOnUse"
       id="clipPath4">
      <path
         d="M 0,0 H 1537.5 V 855.49609 H 0 Z"
         transform="matrix(0.33430896,0,0,0.33430896,-0.50000001,-0.50000001)"
         clip-rule="evenodd"
         id="path4" />
    </clipPath>
    <clipPath
       clipPathUnits="userSpaceOnUse"
       id="clipPath5">
      <path
         d="M 0,0 H 1537.5 V 855.49609 H 0 Z"
         transform="matrix(0.3343056,0,0,0.3343056,-50.953125,-22)"
         clip-rule="evenodd"
         id="path5" />
    </clipPath>
    <clipPath
       clipPathUnits="userSpaceOnUse"
       id="clipPath7">
      <path
         d="M 0,0 H 1537.5 V 855.49609 H 0 Z"
         transform="matrix(0.33430896,0,0,0.33430896,-0.50000001,-0.50000001)"
         clip-rule="evenodd"
         id="path7" />
    </clipPath>
    <clipPath
       clipPathUnits="userSpaceOnUse"
       id="clipPath9">
      <path
         d="M 0,0 H 1537.5 V 855.49609 H 0 Z"
         transform="matrix(0.33430896,0,0,0.33430896,-0.50000001,-0.50000001)"
         clip-rule="evenodd"
         id="path9" />
    </clipPath>
    <clipPath
       clipPathUnits="userSpaceOnUse"
       id="clipPath11">
      <path
         d="M 0,0 H 1537.5 V 855.49609 H 0 Z"
         transform="matrix(0.33430896,0,0,0.33430896,-0.50000001,-0.50000001)"
         clip-rule="evenodd"
         id="path11" />
    </clipPath>
    <clipPath
       clipPathUnits="userSpaceOnUse"
       id="clipPath12">
      <path
         d="M 0,0 H 1537.5 V 855.49609 H 0 Z"
         transform="matrix(0.3343056,0,0,0.3343056,-41.96875,-57.000001)"
         clip-rule="evenodd"
         id="path12" />
    </clipPath>
    <clipPath
       clipPathUnits="userSpaceOnUse"
       id="clipPath14">
      <path
         d="M 0,0 H 1537.5 V 855.49609 H 0 Z"
         transform="matrix(0.33430896,0,0,0.33430896,-0.50000001,-0.50000001)"
         clip-rule="evenodd"
         id="path14" />
    </clipPath>
    <clipPath
       clipPathUnits="userSpaceOnUse"
       id="clipPath15">
      <path
         d="M 0,0 H 1537.5 V 855.49609 H 0 Z"
         transform="matrix(0.3343056,0,0,0.3343056,-364.96875,-22)"
         clip-rule="evenodd"
         id="path15" />
    </clipPath>
    <clipPath
       clipPathUnits="userSpaceOnUse"
       id="clipPath17">
      <path
         d="M 0,0 H 1537.5 V 855.49609 H 0 Z"
         transform="matrix(0.33430896,0,0,0.33430896,-0.50000001,-0.50000001)"
         clip-rule="evenodd"
         id="path17" />
    </clipPath>
    <clipPath
       clipPathUnits="userSpaceOnUse"
       id="clipPath18">
      <path
         d="M 0,0 H 1537.5 V 855.49609 H 0 Z"
         transform="matrix(0.3343056,0,0,0.3343056,-397.48439,-57.000001)"
         clip-rule="evenodd"
         id="path18" />
    </clipPath>
    <clipPath
       clipPathUnits="userSpaceOnUse"
       id="clipPath20">
      <path
         d="M 0,0 H 1537.5 V 855.49609 H 0 Z"
         transform="matrix(0.33430896,0,0,0.33430896,-0.50000001,-0.50000001)"
         clip-rule="evenodd"
         id="path20" />
    </clipPath>
    <clipPath
       clipPathUnits="userSpaceOnUse"
       id="clipPath21">
      <path
         d="M 0,0 H 1537.5 V 855.49609 H 0 Z"
         transform="matrix(0.3343056,0,0,0.3343056,-398,-99)"
         clip-rule="evenodd"
         id="path21" />
    </clipPath>
    <clipPath
       clipPathUnits="userSpaceOnUse"
       id="clipPath23">
      <path
         d="M 0,0 H 1537.5 V 855.49609 H 0 Z"
         transform="matrix(0.33430896,0,0,0.33430896,-0.50000001,-0.50000001)"
         clip-rule="evenodd"
         id="path23" />
    </clipPath>
    <clipPath
       clipPathUnits="userSpaceOnUse"
       id="clipPath24">
      <path
         d="M 0,0 H 1537.5 V 855.49609 H 0 Z"
         transform="matrix(0.3343056,0,0,0.3343056,-399.98439,-141)"
         clip-rule="evenodd"
         id="path24" />
    </clipPath>
    <clipPath
       clipPathUnits="userSpaceOnUse"
       id="clipPath26">
      <path
         d="M 0,0 H 1537.5 V 855.49609 H 0 Z"
         transform="matrix(0.33430896,0,0,0.33430896,-0.50000001,-0.50000001)"
         clip-rule="evenodd"
         id="path26" />
    </clipPath>
    <clipPath
       clipPathUnits="userSpaceOnUse"
       id="clipPath27">
      <path
         d="M 0,0 H 1537.5 V 855.49609 H 0 Z"
         transform="matrix(0.3343056,0,0,0.3343056,-384.48438,-183)"
         clip-rule="evenodd"
         id="path27" />
    </clipPath>
    <clipPath
       clipPathUnits="userSpaceOnUse"
       id="clipPath29">
      <path
         d="M 0,0 H 1537.5 V 855.49609 H 0 Z"
         transform="matrix(0.33430896,0,0,0.33430896,-0.50000001,-0.50000001)"
         clip-rule="evenodd"
         id="path29" />
    </clipPath>
    <clipPath
       clipPathUnits="userSpaceOnUse"
       id="clipPath30">
      <path
         d="M 0,0 H 1537.5 V 855.49609 H 0 Z"
         transform="matrix(0.3343056,0,0,0.3343056,-390.48438,-225)"
         clip-rule="evenodd"
         id="path30" />
    </clipPath>
    <clipPath
       clipPathUnits="userSpaceOnUse"
       id="clipPath32">
      <path
         d="M 0,0 H 1537.5 V 855.49609 H 0 Z"
         transform="matrix(0.33430896,0,0,0.33430896,-0.50000001,-0.50000001)"
         clip-rule="evenodd"
         id="path32" />
    </clipPath>
    <clipPath
       clipPathUnits="userSpaceOnUse"
       id="clipPath33">
      <path
         d="M 0,0 H 1537.5 V 855.49609 H 0 Z"
         transform="matrix(0.3343056,0,0,0.3343056,-390.98438,-267)"
         clip-rule="evenodd"
         id="path33" />
    </clipPath>
    <clipPath
       clipPathUnits="userSpaceOnUse"
       id="clipPath35">
      <path
         d="M 0,0 H 1537.5 V 855.49609 H 0 Z"
         transform="matrix(0.33430896,0,0,0.33430896,-0.50000001,-0.50000001)"
         clip-rule="evenodd"
         id="path35" />
    </clipPath>
    <clipPath
       clipPathUnits="userSpaceOnUse"
       id="clipPath36">
      <path
         d="M 0,0 H 1537.5 V 855.49609 H 0 Z"
         transform="matrix(0.3343056,0,0,0.3343056,-54.484375,-99)"
         clip-rule="evenodd"
         id="path36" />
    </clipPath>
    <clipPath
       clipPathUnits="userSpaceOnUse"
       id="clipPath38">
      <path
         d="M 0,0 H 1537.5 V 855.49609 H 0 Z"
         transform="matrix(0.33430896,0,0,0.33430896,-0.50000001,-0.50000001)"
         clip-rule="evenodd"
         id="path38" />
    </clipPath>
    <clipPath
       clipPathUnits="userSpaceOnUse"
       id="clipPath39">
      <path
         d="M 0,0 H 1537.5 V 855.49609 H 0 Z"
         transform="matrix(0.3343056,0,0,0.3343056,-38.984375,-141)"
         clip-rule="evenodd"
         id="path39" />
    </clipPath>
    <clipPath
       clipPathUnits="userSpaceOnUse"
       id="clipPath41">
      <path
         d="M 0,0 H 1537.5 V 855.49609 H 0 Z"
         transform="matrix(0.33430896,0,0,0.33430896,-0.50000001,-0.50000001)"
         clip-rule="evenodd"
         id="path41" />
    </clipPath>
    <clipPath
       clipPathUnits="userSpaceOnUse"
       id="clipPath42">
      <path
         d="M 0,0 H 1537.5 V 855.49609 H 0 Z"
         transform="matrix(0.3343056,0,0,0.3343056,-44.953126,-192)"
         clip-rule="evenodd"
         id="path42" />
    </clipPath>
    <clipPath
       clipPathUnits="userSpaceOnUse"
       id="clipPath44">
      <path
         d="M 0,0 H 1537.5 V 855.49609 H 0 Z"
         transform="matrix(0.33430896,0,0,0.33430896,-0.50000001,-0.50000001)"
         clip-rule="evenodd"
         id="path44" />
    </clipPath>
    <clipPath
       clipPathUnits="userSpaceOnUse"
       id="clipPath46">
      <path
         d="M 0,0 H 1537.5 V 855.49609 H 0 Z"
         transform="matrix(0.33430896,0,0,0.33430896,-0.50000001,-0.50000001)"
         clip-rule="evenodd"
         id="path46" />
    </clipPath>
    <clipPath
       clipPathUnits="userSpaceOnUse"
       id="clipPath48">
      <path
         d="M 0,0 H 1537.5 V 855.49609 H 0 Z"
         transform="matrix(0.33430896,0,0,0.33430896,-0.50000001,-0.50000001)"
         clip-rule="evenodd"
         id="path48" />
    </clipPath>
    <clipPath
       clipPathUnits="userSpaceOnUse"
       id="clipPath49">
      <path
         d="M 0,0 H 1537.5 V 855.49609 H 0 Z"
         transform="matrix(0.3343056,0,0,0.3343056,-41.96875,-227)"
         clip-rule="evenodd"
         id="path49" />
    </clipPath>
    <clipPath
       clipPathUnits="userSpaceOnUse"
       id="clipPath51">
      <path
         d="M 0,0 H 1537.5 V 855.49609 H 0 Z"
         transform="matrix(0.33430896,0,0,0.33430896,-0.50000001,-0.50000001)"
         clip-rule="evenodd"
         id="path51" />
    </clipPath>
    <clipPath
       clipPathUnits="userSpaceOnUse"
       id="clipPath52">
      <path
         d="M 0,0 H 1537.5 V 855.49609 H 0 Z"
         transform="matrix(0.3343056,0,0,0.3343056,-65.984375,-269)"
         clip-rule="evenodd"
         id="path52" />
    </clipPath>
  </defs>
  <sodipodi:namedview
     id="namedview1"
     pagecolor="#ffffff"
     bordercolor="#000000"
     borderopacity="0.25"
     inkscape:showpageshadow="2"
     inkscape:pageopacity="0.0"
     inkscape:pagecheckerboard="0"
     inkscape:deskcolor="#d1d1d1">
    <inkscape:page
       x="0"
       y="0"
       inkscape:label="1"
       id="page1"
       width="492.16"
       height="274.56"
       margin="0"
       bleed="0" />
  </sodipodi:namedview>
  <g
     id="g1"
     inkscape:groupmode="layer"
     inkscape:label="1">
    <path
       id="path1"
       d="M 0,0 H 514 V 286 H 0 Z"
       style="fill:#ffffff;fill-opacity:1;fill-rule:nonzero;stroke:none"
       transform="scale(0.95719836)"
       clip-path="url(#clipPath2)" />
    <path
       id="path3"
       d="M 1,1 H 191 V 29 H 1 Z"
       style="fill:#dae8fc;fill-opacity:1;fill-rule:nonzero;stroke:#6c8ebf;stroke-width:1;stroke-linecap:butt;stroke-linejoin:miter;stroke-miterlimit:10;stroke-dasharray:none;stroke-opacity:1"
       transform="matrix(0.95719836,0,0,0.95719836,0.47859919,0.47859919)"
       clip-path="url(#clipPath4)" />
    <text
       id="text4"
       xml:space="preserve"
       transform="matrix(0.95720799,0,0,0.95720799,48.772738,21.058576)"
       clip-path="url(#clipPath5)"><tspan
         style="font-variant:normal;font-weight:700;font-size:18px;font-family:Helvetica;writing-mode:lr-tb;fill:#000000;fill-opacity:1;fill-rule:nonzero;stroke:none"
         x="0 10.010742 15.011719 25.022461 35.033203 45.043945 50.044922 63.043945 73.054688 83.06543"
         y="0"
         sodipodi:role="line"
         id="tspan4">class User</tspan></text>
    <path
       id="path6"
       d="m 191,50 h 65 V 15 h 58.64001"
       style="fill:none;stroke:#000000;stroke-width:1;stroke-linecap:butt;stroke-linejoin:miter;stroke-miterlimit:10;stroke-dasharray:none;stroke-opacity:1"
       transform="matrix(0.95719836,0,0,0.95719836,0.47859919,0.47859919)"
       clip-path="url(#clipPath7)" />
    <path
       id="path8"
       d="m 319.89001,15 -7,3.5 1.75,-3.5 -1.75,-3.5 z"
       style="fill:#000000;fill-opacity:1;fill-rule:nonzero;stroke:#000000;stroke-width:1;stroke-linecap:butt;stroke-linejoin:miter;stroke-miterlimit:10;stroke-dasharray:none;stroke-opacity:1"
       transform="matrix(0.95719836,0,0,0.95719836,0.47859919,0.47859919)"
       clip-path="url(#clipPath9)" />
    <path
       id="path10"
       d="M 1,29 H 191 V 71 H 1 Z"
       style="fill:#ffffff;fill-opacity:1;fill-rule:nonzero;stroke:#000000;stroke-width:1;stroke-linecap:butt;stroke-linejoin:miter;stroke-miterlimit:10;stroke-dasharray:none;stroke-opacity:1"
       transform="matrix(0.95719836,0,0,0.95719836,0.47859919,0.47859919)"
       clip-path="url(#clipPath11)" />
    <text
       id="text11"
       xml:space="preserve"
       transform="matrix(0.95720799,0,0,0.95720799,40.172823,54.560856)"
       clip-path="url(#clipPath12)"><tspan
         style="font-variant:normal;font-weight:normal;font-size:18px;font-family:Helvetica;writing-mode:lr-tb;fill:#000000;fill-opacity:1;fill-rule:nonzero;stroke:none"
         x="0 14.994141 25.004883 35.015625 45.026367 49.025391 54.026367 59.027344 74.021484 84.032227 94.042969 104.05371"
         y="0"
         sodipodi:role="line"
         id="tspan11">model: Model</tspan></text>
    <path
       id="path13"
       d="M 321,1 H 511 V 29 H 321 Z"
       style="fill:#dae8fc;fill-opacity:1;fill-rule:nonzero;stroke:#6c8ebf;stroke-width:1;stroke-linecap:butt;stroke-linejoin:miter;stroke-miterlimit:10;stroke-dasharray:none;stroke-opacity:1"
       transform="matrix(0.95719836,0,0,0.95719836,0.47859919,0.47859919)"
       clip-path="url(#clipPath14)" />
    <text
       id="text14"
       xml:space="preserve"
       transform="matrix(0.95720799,0,0,0.95720799,349.351,21.058576)"
       clip-path="url(#clipPath15)"><tspan
         style="font-variant:normal;font-weight:700;font-size:18px;font-family:Helvetica;writing-mode:lr-tb;fill:#000000;fill-opacity:1;fill-rule:nonzero;stroke:none"
         x="0 10.010742 15.011719 25.022461 35.033203 45.043945 50.044922 65.039062 76.03418 87.029297 97.040039"
         y="0"
         sodipodi:role="line"
         id="tspan14">class Model</tspan></text>
    <path
       id="path16"
       d="M 321,29 H 511 V 71 H 321 Z"
       style="fill:#ffffff;fill-opacity:1;fill-rule:nonzero;stroke:#000000;stroke-width:1;stroke-linecap:butt;stroke-linejoin:miter;stroke-miterlimit:10;stroke-dasharray:none;stroke-opacity:1"
       transform="matrix(0.95719836,0,0,0.95719836,0.47859919,0.47859919)"
       clip-path="url(#clipPath17)" />
    <text
       id="text17"
       xml:space="preserve"
       transform="matrix(0.95720799,0,0,0.95720799,380.47523,54.560856)"
       clip-path="url(#clipPath18)"><tspan
         style="font-variant:normal;font-weight:normal;font-size:18px;font-family:Helvetica;writing-mode:lr-tb;fill:#000000;fill-opacity:1;fill-rule:nonzero;stroke:none"
         x="0 10.010742 20.021484 25.022461 31.016602"
         y="0"
         sodipodi:role="line"
         id="tspan17">get()</tspan></text>
    <path
       id="path19"
       d="m 321,71 h 190 v 42 H 321 Z"
       style="fill:#ffffff;fill-opacity:1;fill-rule:nonzero;stroke:#000000;stroke-width:1;stroke-linecap:butt;stroke-linejoin:miter;stroke-miterlimit:10;stroke-dasharray:none;stroke-opacity:1"
       transform="matrix(0.95719836,0,0,0.95719836,0.47859919,0.47859919)"
       clip-path="url(#clipPath20)" />
    <text
       id="text20"
       xml:space="preserve"
       transform="matrix(0.95720799,0,0,0.95720799,380.96878,94.763591)"
       clip-path="url(#clipPath21)"><tspan
         style="font-variant:normal;font-weight:normal;font-size:18px;font-family:Helvetica;writing-mode:lr-tb;fill:#000000;fill-opacity:1;fill-rule:nonzero;stroke:none"
         x="0 9 19.010742 24.011719 30.005859"
         y="0"
         sodipodi:role="line"
         id="tspan20">set()</tspan></text>
    <path
       id="path22"
       d="m 321,113 h 190 v 42 H 321 Z"
       style="fill:#ffffff;fill-opacity:1;fill-rule:nonzero;stroke:#000000;stroke-width:1;stroke-linecap:butt;stroke-linejoin:miter;stroke-miterlimit:10;stroke-dasharray:none;stroke-opacity:1"
       transform="matrix(0.95719836,0,0,0.95719836,0.47859919,0.47859919)"
       clip-path="url(#clipPath23)" />
    <text
       id="text23"
       xml:space="preserve"
       transform="matrix(0.95720799,0,0,0.95720799,382.86825,134.96633)"
       clip-path="url(#clipPath24)"><tspan
         style="font-variant:normal;font-weight:normal;font-size:18px;font-family:Helvetica;writing-mode:lr-tb;fill:#000000;fill-opacity:1;fill-rule:nonzero;stroke:none"
         x="0 10.010742 20.021484 26.015625"
         y="0"
         sodipodi:role="line"
         id="tspan23">on()</tspan></text>
    <path
       id="path25"
       d="m 321,155 h 190 v 42 H 321 Z"
       style="fill:#ffffff;fill-opacity:1;fill-rule:nonzero;stroke:#000000;stroke-width:1;stroke-linecap:butt;stroke-linejoin:miter;stroke-miterlimit:10;stroke-dasharray:none;stroke-opacity:1"
       transform="matrix(0.95719836,0,0,0.95719836,0.47859919,0.47859919)"
       clip-path="url(#clipPath26)" />
    <text
       id="text26"
       xml:space="preserve"
       transform="matrix(0.95720799,0,0,0.95720799,368.03152,175.16906)"
       clip-path="url(#clipPath27)"><tspan
         style="font-variant:normal;font-weight:normal;font-size:18px;font-family:Helvetica;writing-mode:lr-tb;fill:#000000;fill-opacity:1;fill-rule:nonzero;stroke:none"
         x="0 5.0009766 10.995117 14.994141 25.004883 35.015625 45.026367 51.020508 57.014648"
         y="0"
         sodipodi:role="line"
         id="tspan26">trigger()</tspan></text>
    <path
       id="path28"
       d="m 321,197 h 190 v 42 H 321 Z"
       style="fill:#ffffff;fill-opacity:1;fill-rule:nonzero;stroke:#000000;stroke-width:1;stroke-linecap:butt;stroke-linejoin:miter;stroke-miterlimit:10;stroke-dasharray:none;stroke-opacity:1"
       transform="matrix(0.95719836,0,0,0.95719836,0.47859919,0.47859919)"
       clip-path="url(#clipPath29)" />
    <text
       id="text29"
       xml:space="preserve"
       transform="matrix(0.95720799,0,0,0.95720799,373.77477,215.3718)"
       clip-path="url(#clipPath30)"><tspan
         style="font-variant:normal;font-weight:normal;font-size:18px;font-family:Helvetica;writing-mode:lr-tb;fill:#000000;fill-opacity:1;fill-rule:nonzero;stroke:none"
         x="0 5.0009766 15.011719 20.012695 29.012695 39.023438 45.017578"
         y="0"
         sodipodi:role="line"
         id="tspan29">fetch()</tspan></text>
    <path
       id="path31"
       d="m 321,239 h 190 v 42 H 321 Z"
       style="fill:#ffffff;fill-opacity:1;fill-rule:nonzero;stroke:#000000;stroke-width:1;stroke-linecap:butt;stroke-linejoin:miter;stroke-miterlimit:10;stroke-dasharray:none;stroke-opacity:1"
       transform="matrix(0.95719836,0,0,0.95719836,0.47859919,0.47859919)"
       clip-path="url(#clipPath32)" />
    <text
       id="text32"
       xml:space="preserve"
       transform="matrix(0.95720799,0,0,0.95720799,374.25337,255.57453)"
       clip-path="url(#clipPath33)"><tspan
         style="font-variant:normal;font-weight:normal;font-size:18px;font-family:Helvetica;writing-mode:lr-tb;fill:#000000;fill-opacity:1;fill-rule:nonzero;stroke:none"
         x="0 9 19.010742 28.010742 38.021484 44.015625"
         y="0"
         sodipodi:role="line"
         id="tspan32">save()</tspan></text>
    <path
       id="path34"
       d="m 1,71 h 190 v 42 H 1 Z"
       style="fill:#ffffff;fill-opacity:1;fill-rule:nonzero;stroke:#000000;stroke-width:1;stroke-linecap:butt;stroke-linejoin:miter;stroke-miterlimit:10;stroke-dasharray:none;stroke-opacity:1"
       transform="matrix(0.95719836,0,0,0.95719836,0.47859919,0.47859919)"
       clip-path="url(#clipPath35)" />
    <text
       id="text35"
       xml:space="preserve"
       transform="matrix(0.95720799,0,0,0.95720799,52.152879,94.763591)"
       clip-path="url(#clipPath36)"><tspan
         style="font-variant:normal;font-weight:normal;font-size:18px;font-family:Helvetica;writing-mode:lr-tb;fill:#000000;fill-opacity:1;fill-rule:nonzero;stroke:none"
         x="0 5.0009766 15.011719 19.010742 23.009766 36.008789 46.019531 61.013672 71.024414 77.018555"
         y="0"
         sodipodi:role="line"
         id="tspan35">fullName()</tspan></text>
    <path
       id="path37"
       d="m 1,113 h 190 v 42 H 1 Z"
       style="fill:#ffffff;fill-opacity:1;fill-rule:nonzero;stroke:#000000;stroke-width:1;stroke-linecap:butt;stroke-linejoin:miter;stroke-miterlimit:10;stroke-dasharray:none;stroke-opacity:1"
       transform="matrix(0.95719836,0,0,0.95719836,0.47859919,0.47859919)"
       clip-path="url(#clipPath38)" />
    <text
       id="text38"
       xml:space="preserve"
       transform="matrix(0.95720799,0,0,0.95720799,37.316155,134.96633)"
       clip-path="url(#clipPath39)"><tspan
         style="font-variant:normal;font-weight:normal;font-size:18px;font-family:Helvetica;writing-mode:lr-tb;fill:#000000;fill-opacity:1;fill-rule:nonzero;stroke:none"
         x="0 3.9990234 12.999023 25.004883 35.015625 50.009766 54.008789 64.019531 77.018555 86.018555 96.029297 102.02344 108.01758"
         y="0"
         sodipodi:role="line"
         id="tspan38">isAdminUser()</tspan></text>
    <path
       id="path40"
       d="m 1,171 h 190 v 28 H 1 Z"
       style="fill:#dae8fc;fill-opacity:1;fill-rule:nonzero;stroke:#6c8ebf;stroke-width:1;stroke-linecap:butt;stroke-linejoin:miter;stroke-miterlimit:10;stroke-dasharray:none;stroke-opacity:1"
       transform="matrix(0.95719836,0,0,0.95719836,0.47859919,0.47859919)"
       clip-path="url(#clipPath41)" />
    <text
       id="text41"
       xml:space="preserve"
       transform="matrix(0.95720799,0,0,0.95720799,43.029491,183.78393)"
       clip-path="url(#clipPath42)"><tspan
         style="font-variant:normal;font-weight:700;font-size:18px;font-family:Helvetica;writing-mode:lr-tb;fill:#000000;fill-opacity:1;fill-rule:nonzero;stroke:none"
         x="0 10.010742 15.011719 25.022461 35.033203 45.043945 50.044922 55.045898 71.050781 81.061523 92.056641"
         y="0"
         sodipodi:role="line"
         id="tspan41">class Image</tspan></text>
    <path
       id="path43"
       d="m 191,220 h 65 V 15 h 58.64001"
       style="fill:none;stroke:#000000;stroke-width:1;stroke-linecap:butt;stroke-linejoin:miter;stroke-miterlimit:10;stroke-dasharray:none;stroke-opacity:1"
       transform="matrix(0.95719836,0,0,0.95719836,0.47859919,0.47859919)"
       clip-path="url(#clipPath44)" />
    <path
       id="path45"
       d="m 319.89001,15 -7,3.5 1.75,-3.5 -1.75,-3.5 z"
       style="fill:#000000;fill-opacity:1;fill-rule:nonzero;stroke:#000000;stroke-width:1;stroke-linecap:butt;stroke-linejoin:miter;stroke-miterlimit:10;stroke-dasharray:none;stroke-opacity:1"
       transform="matrix(0.95719836,0,0,0.95719836,0.47859919,0.47859919)"
       clip-path="url(#clipPath46)" />
    <path
       id="path47"
       d="m 1,199 h 190 v 42 H 1 Z"
       style="fill:#ffffff;fill-opacity:1;fill-rule:nonzero;stroke:#000000;stroke-width:1;stroke-linecap:butt;stroke-linejoin:miter;stroke-miterlimit:10;stroke-dasharray:none;stroke-opacity:1"
       transform="matrix(0.95719836,0,0,0.95719836,0.47859919,0.47859919)"
       clip-path="url(#clipPath48)" />
    <text
       id="text48"
       xml:space="preserve"
       transform="matrix(0.95720799,0,0,0.95720799,40.172823,217.28621)"
       clip-path="url(#clipPath49)"><tspan
         style="font-variant:normal;font-weight:normal;font-size:18px;font-family:Helvetica;writing-mode:lr-tb;fill:#000000;fill-opacity:1;fill-rule:nonzero;stroke:none"
         x="0 14.994141 25.004883 35.015625 45.026367 49.025391 54.026367 59.027344 74.021484 84.032227 94.042969 104.05371"
         y="0"
         sodipodi:role="line"
         id="tspan48">model: Model</tspan></text>
    <path
       id="path50"
       d="m 1,241 h 190 v 42 H 1 Z"
       style="fill:#ffffff;fill-opacity:1;fill-rule:nonzero;stroke:#000000;stroke-width:1;stroke-linecap:butt;stroke-linejoin:miter;stroke-miterlimit:10;stroke-dasharray:none;stroke-opacity:1"
       transform="matrix(0.95719836,0,0,0.95719836,0.47859919,0.47859919)"
       clip-path="url(#clipPath51)" />
    <text
       id="text51"
       xml:space="preserve"
       transform="matrix(0.95720799,0,0,0.95720799,63.160771,257.48895)"
       clip-path="url(#clipPath52)"><tspan
         style="font-variant:normal;font-weight:normal;font-size:18px;font-family:Helvetica;writing-mode:lr-tb;fill:#000000;fill-opacity:1;fill-rule:nonzero;stroke:none"
         x="0 5.9941406 16.004883 25.004883 29.003906 38.003906 48.014648 54.008789"
         y="0"
         sodipodi:role="line"
         id="tspan51">resize()</tspan></text>
  </g>
</svg>
