<?xml version="1.0" encoding="UTF-8" standalone="no"?>
<!-- Created with Inkscape (http://www.inkscape.org/) -->

<svg
   version="1.1"
   id="svg1"
   width="681.27997"
   height="492.16"
   viewBox="0 0 681.27997 492.16"
   sodipodi:docname="ts-19.pdf"
   xmlns:inkscape="http://www.inkscape.org/namespaces/inkscape"
   xmlns:sodipodi="http://sodipodi.sourceforge.net/DTD/sodipodi-0.dtd"
   xmlns="http://www.w3.org/2000/svg"
   xmlns:svg="http://www.w3.org/2000/svg">
  <defs
     id="defs1">
    <clipPath
       clipPathUnits="userSpaceOnUse"
       id="clipPath2">
      <path
         d="M 0,0 H 2129.1665 V 1537.0669 H 0 Z"
         transform="scale(0.33440314)"
         clip-rule="evenodd"
         id="path2" />
    </clipPath>
    <clipPath
       clipPathUnits="userSpaceOnUse"
       id="clipPath4">
      <path
         d="M 0,0 H 2129.1665 V 1531.0861 H 0 Z"
         transform="matrix(0.33440314,0,0,0.33440314,-0.49999999,-0.49999999)"
         clip-rule="evenodd"
         id="path4" />
    </clipPath>
    <clipPath
       clipPathUnits="userSpaceOnUse"
       id="clipPath5">
      <path
         d="M 0,0 H 2129.1665 V 1531.0861 H 0 Z"
         transform="matrix(0.33439979,0,0,0.33439979,-502.65625,-22)"
         clip-rule="evenodd"
         id="path5" />
    </clipPath>
    <clipPath
       clipPathUnits="userSpaceOnUse"
       id="clipPath7">
      <path
         d="M 0,0 H 2129.1665 V 1531.0861 H 0 Z"
         transform="matrix(0.33440314,0,0,0.33440314,-0.49999999,-0.49999999)"
         clip-rule="evenodd"
         id="path7" />
    </clipPath>
    <clipPath
       clipPathUnits="userSpaceOnUse"
       id="clipPath8">
      <path
         d="M 0,0 H 2129.1665 V 1531.0861 H 0 Z"
         transform="matrix(0.33439979,0,0,0.33439979,-548.875,-54)"
         clip-rule="evenodd"
         id="path8" />
    </clipPath>
    <clipPath
       clipPathUnits="userSpaceOnUse"
       id="clipPath10">
      <path
         d="M 0,0 H 2129.1665 V 1531.0861 H 0 Z"
         transform="matrix(0.33440314,0,0,0.33440314,-0.49999999,-0.49999999)"
         clip-rule="evenodd"
         id="path10" />
    </clipPath>
    <clipPath
       clipPathUnits="userSpaceOnUse"
       id="clipPath11">
      <path
         d="M 0,0 H 2129.1665 V 1531.0861 H 0 Z"
         transform="matrix(0.33439979,0,0,0.33439979,-539.54688,-86)"
         clip-rule="evenodd"
         id="path11" />
    </clipPath>
    <clipPath
       clipPathUnits="userSpaceOnUse"
       id="clipPath13">
      <path
         d="M 0,0 H 2129.1665 V 1531.0861 H 0 Z"
         transform="matrix(0.33440314,0,0,0.33440314,-0.49999999,-0.49999999)"
         clip-rule="evenodd"
         id="path13" />
    </clipPath>
    <clipPath
       clipPathUnits="userSpaceOnUse"
       id="clipPath14">
      <path
         d="M 0,0 H 2129.1665 V 1531.0861 H 0 Z"
         transform="matrix(0.33439979,0,0,0.33439979,-551.98438,-118)"
         clip-rule="evenodd"
         id="path14" />
    </clipPath>
    <clipPath
       clipPathUnits="userSpaceOnUse"
       id="clipPath16">
      <path
         d="M 0,0 H 2129.1665 V 1531.0861 H 0 Z"
         transform="matrix(0.33440314,0,0,0.33440314,-0.49999999,-0.49999999)"
         clip-rule="evenodd"
         id="path16" />
    </clipPath>
    <clipPath
       clipPathUnits="userSpaceOnUse"
       id="clipPath17">
      <path
         d="M 0,0 H 2129.1665 V 1531.0861 H 0 Z"
         transform="matrix(0.33439979,0,0,0.33439979,-495.53125,-196)"
         clip-rule="evenodd"
         id="path17" />
    </clipPath>
    <clipPath
       clipPathUnits="userSpaceOnUse"
       id="clipPath19">
      <path
         d="M 0,0 H 2129.1665 V 1531.0861 H 0 Z"
         transform="matrix(0.33440314,0,0,0.33440314,-0.49999999,-0.49999999)"
         clip-rule="evenodd"
         id="path19" />
    </clipPath>
    <clipPath
       clipPathUnits="userSpaceOnUse"
       id="clipPath20">
      <path
         d="M 0,0 H 2129.1665 V 1531.0861 H 0 Z"
         transform="matrix(0.33439979,0,0,0.33439979,-548.875,-228)"
         clip-rule="evenodd"
         id="path20" />
    </clipPath>
    <clipPath
       clipPathUnits="userSpaceOnUse"
       id="clipPath22">
      <path
         d="M 0,0 H 2129.1665 V 1531.0861 H 0 Z"
         transform="matrix(0.33440314,0,0,0.33440314,-0.49999999,-0.49999999)"
         clip-rule="evenodd"
         id="path22" />
    </clipPath>
    <clipPath
       clipPathUnits="userSpaceOnUse"
       id="clipPath23">
      <path
         d="M 0,0 H 2129.1665 V 1531.0861 H 0 Z"
         transform="matrix(0.33439979,0,0,0.33439979,-539.54688,-260)"
         clip-rule="evenodd"
         id="path23" />
    </clipPath>
    <clipPath
       clipPathUnits="userSpaceOnUse"
       id="clipPath25">
      <path
         d="M 0,0 H 2129.1665 V 1531.0861 H 0 Z"
         transform="matrix(0.33440314,0,0,0.33440314,-0.49999999,-0.49999999)"
         clip-rule="evenodd"
         id="path25" />
    </clipPath>
    <clipPath
       clipPathUnits="userSpaceOnUse"
       id="clipPath26">
      <path
         d="M 0,0 H 2129.1665 V 1531.0861 H 0 Z"
         transform="matrix(0.33439979,0,0,0.33439979,-551.98438,-292)"
         clip-rule="evenodd"
         id="path26" />
    </clipPath>
    <clipPath
       clipPathUnits="userSpaceOnUse"
       id="clipPath28">
      <path
         d="M 0,0 H 2129.1665 V 1531.0861 H 0 Z"
         transform="matrix(0.33440314,0,0,0.33440314,-0.49999999,-0.49999999)"
         clip-rule="evenodd"
         id="path28" />
    </clipPath>
    <clipPath
       clipPathUnits="userSpaceOnUse"
       id="clipPath29">
      <path
         d="M 0,0 H 2129.1665 V 1531.0861 H 0 Z"
         transform="matrix(0.33439979,0,0,0.33439979,-535.98438,-370)"
         clip-rule="evenodd"
         id="path29" />
    </clipPath>
    <clipPath
       clipPathUnits="userSpaceOnUse"
       id="clipPath31">
      <path
         d="M 0,0 H 2129.1665 V 1531.0861 H 0 Z"
         transform="matrix(0.33440314,0,0,0.33440314,-0.49999999,-0.49999999)"
         clip-rule="evenodd"
         id="path31" />
    </clipPath>
    <clipPath
       clipPathUnits="userSpaceOnUse"
       id="clipPath32">
      <path
         d="M 0,0 H 2129.1665 V 1531.0861 H 0 Z"
         transform="matrix(0.33439979,0,0,0.33439979,-548.875,-402)"
         clip-rule="evenodd"
         id="path32" />
    </clipPath>
    <clipPath
       clipPathUnits="userSpaceOnUse"
       id="clipPath34">
      <path
         d="M 0,0 H 2129.1665 V 1531.0861 H 0 Z"
         transform="matrix(0.33440314,0,0,0.33440314,-0.49999999,-0.49999999)"
         clip-rule="evenodd"
         id="path34" />
    </clipPath>
    <clipPath
       clipPathUnits="userSpaceOnUse"
       id="clipPath35">
      <path
         d="M 0,0 H 2129.1665 V 1531.0861 H 0 Z"
         transform="matrix(0.33439979,0,0,0.33439979,-539.54688,-434)"
         clip-rule="evenodd"
         id="path35" />
    </clipPath>
    <clipPath
       clipPathUnits="userSpaceOnUse"
       id="clipPath37">
      <path
         d="M 0,0 H 2129.1665 V 1531.0861 H 0 Z"
         transform="matrix(0.33440314,0,0,0.33440314,-0.49999999,-0.49999999)"
         clip-rule="evenodd"
         id="path37" />
    </clipPath>
    <clipPath
       clipPathUnits="userSpaceOnUse"
       id="clipPath38">
      <path
         d="M 0,0 H 2129.1665 V 1531.0861 H 0 Z"
         transform="matrix(0.33439979,0,0,0.33439979,-551.98438,-466)"
         clip-rule="evenodd"
         id="path38" />
    </clipPath>
    <clipPath
       clipPathUnits="userSpaceOnUse"
       id="clipPath40">
      <path
         d="M 0,0 H 2129.1665 V 1531.0861 H 0 Z"
         transform="matrix(0.33440314,0,0,0.33440314,-0.49999999,-0.49999999)"
         clip-rule="evenodd"
         id="path40" />
    </clipPath>
    <clipPath
       clipPathUnits="userSpaceOnUse"
       id="clipPath42">
      <path
         d="M 0,0 H 2129.1665 V 1531.0861 H 0 Z"
         transform="matrix(0.33440314,0,0,0.33440314,-0.49999999,-0.49999999)"
         clip-rule="evenodd"
         id="path42" />
    </clipPath>
    <clipPath
       clipPathUnits="userSpaceOnUse"
       id="clipPath44">
      <path
         d="M 0,0 H 2129.1665 V 1531.0861 H 0 Z"
         transform="matrix(0.33440314,0,0,0.33440314,-0.49999999,-0.49999999)"
         clip-rule="evenodd"
         id="path44" />
    </clipPath>
    <clipPath
       clipPathUnits="userSpaceOnUse"
       id="clipPath46">
      <path
         d="M 0,0 H 2129.1665 V 1531.0861 H 0 Z"
         transform="matrix(0.33440314,0,0,0.33440314,-0.49999999,-0.49999999)"
         clip-rule="evenodd"
         id="path46" />
    </clipPath>
    <clipPath
       clipPathUnits="userSpaceOnUse"
       id="clipPath48">
      <path
         d="M 0,0 H 2129.1665 V 1531.0861 H 0 Z"
         transform="matrix(0.33440314,0,0,0.33440314,-0.49999999,-0.49999999)"
         clip-rule="evenodd"
         id="path48" />
    </clipPath>
    <clipPath
       clipPathUnits="userSpaceOnUse"
       id="clipPath50">
      <path
         d="M 0,0 H 2129.1665 V 1531.0861 H 0 Z"
         transform="matrix(0.33440314,0,0,0.33440314,-0.49999999,-0.49999999)"
         clip-rule="evenodd"
         id="path50" />
    </clipPath>
    <clipPath
       clipPathUnits="userSpaceOnUse"
       id="clipPath52">
      <path
         d="M 0,0 H 2129.1665 V 1531.0861 H 0 Z"
         transform="matrix(0.33440314,0,0,0.33440314,-0.49999999,-0.49999999)"
         clip-rule="evenodd"
         id="path52" />
    </clipPath>
    <clipPath
       clipPathUnits="userSpaceOnUse"
       id="clipPath53">
      <path
         d="M 0,0 H 2129.1665 V 1531.0861 H 0 Z"
         transform="matrix(0.33439979,0,0,0.33439979,-222.4375,-196)"
         clip-rule="evenodd"
         id="path53" />
    </clipPath>
    <clipPath
       clipPathUnits="userSpaceOnUse"
       id="clipPath55">
      <path
         d="M 0,0 H 2129.1665 V 1531.0861 H 0 Z"
         transform="matrix(0.33440314,0,0,0.33440314,-0.49999999,-0.49999999)"
         clip-rule="evenodd"
         id="path55" />
    </clipPath>
    <clipPath
       clipPathUnits="userSpaceOnUse"
       id="clipPath56">
      <path
         d="M 0,0 H 2129.1665 V 1531.0861 H 0 Z"
         transform="matrix(0.33439979,0,0,0.33439979,-227.32813,-228)"
         clip-rule="evenodd"
         id="path56" />
    </clipPath>
    <clipPath
       clipPathUnits="userSpaceOnUse"
       id="clipPath58">
      <path
         d="M 0,0 H 2129.1665 V 1531.0861 H 0 Z"
         transform="matrix(0.33440314,0,0,0.33440314,-0.49999999,-0.49999999)"
         clip-rule="evenodd"
         id="path58" />
    </clipPath>
    <clipPath
       clipPathUnits="userSpaceOnUse"
       id="clipPath59">
      <path
         d="M 0,0 H 2129.1665 V 1531.0861 H 0 Z"
         transform="matrix(0.33439979,0,0,0.33439979,-20.421875,-411)"
         clip-rule="evenodd"
         id="path59" />
    </clipPath>
    <clipPath
       clipPathUnits="userSpaceOnUse"
       id="clipPath60">
      <path
         d="M 0,0 H 2129.1665 V 1531.0861 H 0 Z"
         transform="matrix(0.33439979,0,0,0.33439979,-33.875,-439)"
         clip-rule="evenodd"
         id="path60" />
    </clipPath>
    <clipPath
       clipPathUnits="userSpaceOnUse"
       id="clipPath61">
      <path
         d="M 0,0 H 2129.1665 V 1531.0861 H 0 Z"
         transform="matrix(0.33439979,0,0,0.33439979,-14.96875,-467)"
         clip-rule="evenodd"
         id="path61" />
    </clipPath>
    <clipPath
       clipPathUnits="userSpaceOnUse"
       id="clipPath62">
      <path
         d="M 0,0 H 2129.1665 V 1531.0861 H 0 Z"
         transform="matrix(0.33439979,0,0,0.33439979,-32.578126,-494)"
         clip-rule="evenodd"
         id="path62" />
    </clipPath>
    <clipPath
       clipPathUnits="userSpaceOnUse"
       id="clipPath64">
      <path
         d="M 0,0 H 2129.1665 V 1531.0861 H 0 Z"
         transform="matrix(0.33440314,0,0,0.33440314,-0.49999999,-0.49999999)"
         clip-rule="evenodd"
         id="path64" />
    </clipPath>
    <clipPath
       clipPathUnits="userSpaceOnUse"
       id="clipPath66">
      <path
         d="M 0,0 H 2129.1665 V 1531.0861 H 0 Z"
         transform="matrix(0.33440314,0,0,0.33440314,-0.49999999,-0.49999999)"
         clip-rule="evenodd"
         id="path66" />
    </clipPath>
    <clipPath
       clipPathUnits="userSpaceOnUse"
       id="clipPath68">
      <path
         d="M 0,0 H 2129.1665 V 1531.0861 H 0 Z"
         transform="matrix(0.33440314,0,0,0.33440314,-0.49999999,-0.49999999)"
         clip-rule="evenodd"
         id="path68" />
    </clipPath>
    <clipPath
       clipPathUnits="userSpaceOnUse"
       id="clipPath70">
      <path
         d="M 0,0 H 2129.1665 V 1531.0861 H 0 Z"
         transform="matrix(0.33440314,0,0,0.33440314,-0.49999999,-0.49999999)"
         clip-rule="evenodd"
         id="path70" />
    </clipPath>
    <clipPath
       clipPathUnits="userSpaceOnUse"
       id="clipPath72">
      <path
         d="M 0,0 H 2129.1665 V 1531.0861 H 0 Z"
         transform="matrix(0.33440314,0,0,0.33440314,-0.49999999,-0.49999999)"
         clip-rule="evenodd"
         id="path72" />
    </clipPath>
    <clipPath
       clipPathUnits="userSpaceOnUse"
       id="clipPath74">
      <path
         d="M 0,0 H 2129.1665 V 1531.0861 H 0 Z"
         transform="matrix(0.33440314,0,0,0.33440314,-0.49999999,-0.49999999)"
         clip-rule="evenodd"
         id="path74" />
    </clipPath>
    <clipPath
       clipPathUnits="userSpaceOnUse"
       id="clipPath76">
      <path
         d="M 0,0 H 2129.1665 V 1531.0861 H 0 Z"
         transform="matrix(0.33440314,0,0,0.33440314,-0.49999999,-0.49999999)"
         clip-rule="evenodd"
         id="path76" />
    </clipPath>
    <clipPath
       clipPathUnits="userSpaceOnUse"
       id="clipPath77">
      <path
         d="M 0,0 H 2129.1665 V 1531.0861 H 0 Z"
         transform="matrix(0.33439979,0,0,0.33439979,-557.32813,-150)"
         clip-rule="evenodd"
         id="path77" />
    </clipPath>
    <clipPath
       clipPathUnits="userSpaceOnUse"
       id="clipPath79">
      <path
         d="M 0,0 H 2129.1665 V 1531.0861 H 0 Z"
         transform="matrix(0.33440314,0,0,0.33440314,-0.49999999,-0.49999999)"
         clip-rule="evenodd"
         id="path79" />
    </clipPath>
    <clipPath
       clipPathUnits="userSpaceOnUse"
       id="clipPath80">
      <path
         d="M 0,0 H 2129.1665 V 1531.0861 H 0 Z"
         transform="matrix(0.33439979,0,0,0.33439979,-557.32813,-324)"
         clip-rule="evenodd"
         id="path80" />
    </clipPath>
    <clipPath
       clipPathUnits="userSpaceOnUse"
       id="clipPath82">
      <path
         d="M 0,0 H 2129.1665 V 1531.0861 H 0 Z"
         transform="matrix(0.33440314,0,0,0.33440314,-0.49999999,-0.49999999)"
         clip-rule="evenodd"
         id="path82" />
    </clipPath>
    <clipPath
       clipPathUnits="userSpaceOnUse"
       id="clipPath83">
      <path
         d="M 0,0 H 2129.1665 V 1531.0861 H 0 Z"
         transform="matrix(0.33439979,0,0,0.33439979,-557.32813,-498)"
         clip-rule="evenodd"
         id="path83" />
    </clipPath>
  </defs>
  <sodipodi:namedview
     id="namedview1"
     pagecolor="#ffffff"
     bordercolor="#000000"
     borderopacity="0.25"
     inkscape:showpageshadow="2"
     inkscape:pageopacity="0.0"
     inkscape:pagecheckerboard="0"
     inkscape:deskcolor="#d1d1d1">
    <inkscape:page
       x="0"
       y="0"
       inkscape:label="1"
       id="page1"
       width="681.27997"
       height="492.16"
       margin="0"
       bleed="0" />
  </sodipodi:namedview>
  <g
     id="g1"
     inkscape:groupmode="layer"
     inkscape:label="1">
    <path
       id="path1"
       d="M 0,0 H 712 V 514 H 0 Z"
       style="fill:#ffffff;fill-opacity:1;fill-rule:nonzero;stroke:none"
       transform="scale(0.95692876)"
       clip-path="url(#clipPath2)" />
    <path
       id="path3"
       d="M 471,1 H 681 V 33 H 471 Z"
       style="fill:#dae8fc;fill-opacity:1;fill-rule:nonzero;stroke:#6c8ebf;stroke-width:1;stroke-linecap:butt;stroke-linejoin:miter;stroke-miterlimit:10;stroke-dasharray:none;stroke-opacity:1"
       transform="matrix(0.95692876,0,0,0.95692876,0.47846437,0.47846437)"
       clip-path="url(#clipPath4)" />
    <text
       id="text4"
       xml:space="preserve"
       transform="matrix(0.95693836,0,0,0.95693836,481.01105,21.052644)"
       clip-path="url(#clipPath5)"><tspan
         style="font-variant:normal;font-weight:700;font-size:16px;font-family:Helvetica;writing-mode:lr-tb;fill:#000000;fill-opacity:1;fill-rule:nonzero;stroke:none"
         x="0 11.554688 21.328125 35.554688 45.328125 54.226562 60.453125 69.351562 80.90625 90.679688 95.125 99.570312 108.46875 117.36719 122.69531 127.14062 136.91406"
         y="0"
         sodipodi:role="line"
         id="tspan4">NumbersCollection</tspan></text>
    <path
       id="path6"
       d="M 471,33 H 681 V 65 H 471 Z"
       style="fill:#d5e8d4;fill-opacity:1;fill-rule:nonzero;stroke:#82b366;stroke-width:1;stroke-linecap:butt;stroke-linejoin:miter;stroke-miterlimit:10;stroke-dasharray:none;stroke-opacity:1"
       transform="matrix(0.95692876,0,0,0.95692876,0.47846437,0.47846437)"
       clip-path="url(#clipPath7)" />
    <text
       id="text7"
       xml:space="preserve"
       transform="matrix(0.95693836,0,0,0.95693836,525.23954,51.674671)"
       clip-path="url(#clipPath8)"><tspan
         style="font-variant:normal;font-weight:normal;font-size:16px;font-family:Helvetica;writing-mode:lr-tb;fill:#000000;fill-opacity:1;fill-rule:nonzero;stroke:none"
         x="0 3.5546875 12.453125 21.351562 30.25 34.695312 43.59375 48.921875"
         y="0"
         sodipodi:role="line"
         id="tspan7">length()</tspan></text>
    <path
       id="path9"
       d="M 471,65 H 681 V 97 H 471 Z"
       style="fill:#d5e8d4;fill-opacity:1;fill-rule:nonzero;stroke:#82b366;stroke-width:1;stroke-linecap:butt;stroke-linejoin:miter;stroke-miterlimit:10;stroke-dasharray:none;stroke-opacity:1"
       transform="matrix(0.95692876,0,0,0.95692876,0.47846437,0.47846437)"
       clip-path="url(#clipPath10)" />
    <text
       id="text10"
       xml:space="preserve"
       transform="matrix(0.95693836,0,0,0.95693836,516.31311,82.296699)"
       clip-path="url(#clipPath11)"><tspan
         style="font-variant:normal;font-weight:normal;font-size:16px;font-family:Helvetica;writing-mode:lr-tb;fill:#000000;fill-opacity:1;fill-rule:nonzero;stroke:none"
         x="0 8 16.898438 30.226562 39.125 48.023438 53.351562 62.25 67.578125"
         y="0"
         sodipodi:role="line"
         id="tspan10">compare()</tspan></text>
    <path
       id="path12"
       d="m 471,97 h 210 v 32 H 471 Z"
       style="fill:#d5e8d4;fill-opacity:1;fill-rule:nonzero;stroke:#82b366;stroke-width:1;stroke-linecap:butt;stroke-linejoin:miter;stroke-miterlimit:10;stroke-dasharray:none;stroke-opacity:1"
       transform="matrix(0.95692876,0,0,0.95692876,0.47846437,0.47846437)"
       clip-path="url(#clipPath13)" />
    <text
       id="text13"
       xml:space="preserve"
       transform="matrix(0.95693836,0,0,0.95693836,528.21503,112.91873)"
       clip-path="url(#clipPath14)"><tspan
         style="font-variant:normal;font-weight:normal;font-size:16px;font-family:Helvetica;writing-mode:lr-tb;fill:#000000;fill-opacity:1;fill-rule:nonzero;stroke:none"
         x="0 8 19.554688 28.453125 37.351562 42.679688"
         y="0"
         sodipodi:role="line"
         id="tspan13">swap()</tspan></text>
    <path
       id="path15"
       d="m 471,175 h 210 v 32 H 471 Z"
       style="fill:#dae8fc;fill-opacity:1;fill-rule:nonzero;stroke:#6c8ebf;stroke-width:1;stroke-linecap:butt;stroke-linejoin:miter;stroke-miterlimit:10;stroke-dasharray:none;stroke-opacity:1"
       transform="matrix(0.95692876,0,0,0.95692876,0.47846437,0.47846437)"
       clip-path="url(#clipPath16)" />
    <text
       id="text16"
       xml:space="preserve"
       transform="matrix(0.95693836,0,0,0.95693836,474.19286,187.55992)"
       clip-path="url(#clipPath17)"><tspan
         style="font-variant:normal;font-weight:700;font-size:16px;font-family:Helvetica;writing-mode:lr-tb;fill:#000000;fill-opacity:1;fill-rule:nonzero;stroke:none"
         x="0 11.554688 21.328125 30.226562 36.453125 45.351562 54.25 59.578125 68.476562 74.703125 83.601562 95.15625 104.92969 109.375 113.82031 122.71875 131.61719 136.94531 141.39062 151.16406"
         y="0"
         sodipodi:role="line"
         id="tspan16">CharactersCollection</tspan></text>
    <path
       id="path18"
       d="m 471,207 h 210 v 32 H 471 Z"
       style="fill:#d5e8d4;fill-opacity:1;fill-rule:nonzero;stroke:#82b366;stroke-width:1;stroke-linecap:butt;stroke-linejoin:miter;stroke-miterlimit:10;stroke-dasharray:none;stroke-opacity:1"
       transform="matrix(0.95692876,0,0,0.95692876,0.47846437,0.47846437)"
       clip-path="url(#clipPath19)" />
    <text
       id="text19"
       xml:space="preserve"
       transform="matrix(0.95693836,0,0,0.95693836,525.23954,218.18195)"
       clip-path="url(#clipPath20)"><tspan
         style="font-variant:normal;font-weight:normal;font-size:16px;font-family:Helvetica;writing-mode:lr-tb;fill:#000000;fill-opacity:1;fill-rule:nonzero;stroke:none"
         x="0 3.5546875 12.453125 21.351562 30.25 34.695312 43.59375 48.921875"
         y="0"
         sodipodi:role="line"
         id="tspan19">length()</tspan></text>
    <path
       id="path21"
       d="m 471,239 h 210 v 32 H 471 Z"
       style="fill:#d5e8d4;fill-opacity:1;fill-rule:nonzero;stroke:#82b366;stroke-width:1;stroke-linecap:butt;stroke-linejoin:miter;stroke-miterlimit:10;stroke-dasharray:none;stroke-opacity:1"
       transform="matrix(0.95692876,0,0,0.95692876,0.47846437,0.47846437)"
       clip-path="url(#clipPath22)" />
    <text
       id="text22"
       xml:space="preserve"
       transform="matrix(0.95693836,0,0,0.95693836,516.31311,248.80397)"
       clip-path="url(#clipPath23)"><tspan
         style="font-variant:normal;font-weight:normal;font-size:16px;font-family:Helvetica;writing-mode:lr-tb;fill:#000000;fill-opacity:1;fill-rule:nonzero;stroke:none"
         x="0 8 16.898438 30.226562 39.125 48.023438 53.351562 62.25 67.578125"
         y="0"
         sodipodi:role="line"
         id="tspan22">compare()</tspan></text>
    <path
       id="path24"
       d="m 471,271 h 210 v 32 H 471 Z"
       style="fill:#d5e8d4;fill-opacity:1;fill-rule:nonzero;stroke:#82b366;stroke-width:1;stroke-linecap:butt;stroke-linejoin:miter;stroke-miterlimit:10;stroke-dasharray:none;stroke-opacity:1"
       transform="matrix(0.95692876,0,0,0.95692876,0.47846437,0.47846437)"
       clip-path="url(#clipPath25)" />
    <text
       id="text25"
       xml:space="preserve"
       transform="matrix(0.95693836,0,0,0.95693836,528.21503,279.426)"
       clip-path="url(#clipPath26)"><tspan
         style="font-variant:normal;font-weight:normal;font-size:16px;font-family:Helvetica;writing-mode:lr-tb;fill:#000000;fill-opacity:1;fill-rule:nonzero;stroke:none"
         x="0 8 19.554688 28.453125 37.351562 42.679688"
         y="0"
         sodipodi:role="line"
         id="tspan25">swap()</tspan></text>
    <path
       id="path27"
       d="m 471,349 h 210 v 32 H 471 Z"
       style="fill:#dae8fc;fill-opacity:1;fill-rule:nonzero;stroke:#6c8ebf;stroke-width:1;stroke-linecap:butt;stroke-linejoin:miter;stroke-miterlimit:10;stroke-dasharray:none;stroke-opacity:1"
       transform="matrix(0.95692876,0,0,0.95692876,0.47846437,0.47846437)"
       clip-path="url(#clipPath28)" />
    <text
       id="text28"
       xml:space="preserve"
       transform="matrix(0.95693836,0,0,0.95693836,512.90401,354.06719)"
       clip-path="url(#clipPath29)"><tspan
         style="font-variant:normal;font-weight:700;font-size:16px;font-family:Helvetica;writing-mode:lr-tb;fill:#000000;fill-opacity:1;fill-rule:nonzero;stroke:none"
         x="0 9.7734375 14.21875 23.992188 32.890625 41.789062 51.5625 61.335938 65.78125 74.679688"
         y="0"
         sodipodi:role="line"
         id="tspan28">LinkedList</tspan></text>
    <path
       id="path30"
       d="m 471,381 h 210 v 32 H 471 Z"
       style="fill:#d5e8d4;fill-opacity:1;fill-rule:nonzero;stroke:#82b366;stroke-width:1;stroke-linecap:butt;stroke-linejoin:miter;stroke-miterlimit:10;stroke-dasharray:none;stroke-opacity:1"
       transform="matrix(0.95692876,0,0,0.95692876,0.47846437,0.47846437)"
       clip-path="url(#clipPath31)" />
    <text
       id="text31"
       xml:space="preserve"
       transform="matrix(0.95693836,0,0,0.95693836,525.23954,384.68922)"
       clip-path="url(#clipPath32)"><tspan
         style="font-variant:normal;font-weight:normal;font-size:16px;font-family:Helvetica;writing-mode:lr-tb;fill:#000000;fill-opacity:1;fill-rule:nonzero;stroke:none"
         x="0 3.5546875 12.453125 21.351562 30.25 34.695312 43.59375 48.921875"
         y="0"
         sodipodi:role="line"
         id="tspan31">length()</tspan></text>
    <path
       id="path33"
       d="m 471,413 h 210 v 32 H 471 Z"
       style="fill:#d5e8d4;fill-opacity:1;fill-rule:nonzero;stroke:#82b366;stroke-width:1;stroke-linecap:butt;stroke-linejoin:miter;stroke-miterlimit:10;stroke-dasharray:none;stroke-opacity:1"
       transform="matrix(0.95692876,0,0,0.95692876,0.47846437,0.47846437)"
       clip-path="url(#clipPath34)" />
    <text
       id="text34"
       xml:space="preserve"
       transform="matrix(0.95693836,0,0,0.95693836,516.31311,415.31125)"
       clip-path="url(#clipPath35)"><tspan
         style="font-variant:normal;font-weight:normal;font-size:16px;font-family:Helvetica;writing-mode:lr-tb;fill:#000000;fill-opacity:1;fill-rule:nonzero;stroke:none"
         x="0 8 16.898438 30.226562 39.125 48.023438 53.351562 62.25 67.578125"
         y="0"
         sodipodi:role="line"
         id="tspan34">compare()</tspan></text>
    <path
       id="path36"
       d="m 471,445 h 210 v 32 H 471 Z"
       style="fill:#d5e8d4;fill-opacity:1;fill-rule:nonzero;stroke:#82b366;stroke-width:1;stroke-linecap:butt;stroke-linejoin:miter;stroke-miterlimit:10;stroke-dasharray:none;stroke-opacity:1"
       transform="matrix(0.95692876,0,0,0.95692876,0.47846437,0.47846437)"
       clip-path="url(#clipPath37)" />
    <text
       id="text37"
       xml:space="preserve"
       transform="matrix(0.95693836,0,0,0.95693836,528.21503,445.93328)"
       clip-path="url(#clipPath38)"><tspan
         style="font-variant:normal;font-weight:normal;font-size:16px;font-family:Helvetica;writing-mode:lr-tb;fill:#000000;fill-opacity:1;fill-rule:nonzero;stroke:none"
         x="0 8 19.554688 28.453125 37.351562 42.679688"
         y="0"
         sodipodi:role="line"
         id="tspan37">swap()</tspan></text>
    <path
       id="path39"
       d="m 351,191 h 60 V 17 h 53.64001"
       style="fill:none;stroke:#000000;stroke-width:1;stroke-linecap:butt;stroke-linejoin:miter;stroke-miterlimit:10;stroke-dasharray:none;stroke-opacity:1"
       transform="matrix(0.95692876,0,0,0.95692876,0.47846437,0.47846437)"
       clip-path="url(#clipPath40)" />
    <path
       id="path41"
       d="m 469.89001,17 -7,3.5 1.75,-3.5 -1.75,-3.5 z"
       style="fill:#000000;fill-opacity:1;fill-rule:nonzero;stroke:#000000;stroke-width:1;stroke-linecap:butt;stroke-linejoin:miter;stroke-miterlimit:10;stroke-dasharray:none;stroke-opacity:1"
       transform="matrix(0.95692876,0,0,0.95692876,0.47846437,0.47846437)"
       clip-path="url(#clipPath42)" />
    <path
       id="path43"
       d="M 351,191 H 464.64001"
       style="fill:none;stroke:#000000;stroke-width:1;stroke-linecap:butt;stroke-linejoin:miter;stroke-miterlimit:10;stroke-dasharray:none;stroke-opacity:1"
       transform="matrix(0.95692876,0,0,0.95692876,0.47846437,0.47846437)"
       clip-path="url(#clipPath44)" />
    <path
       id="path45"
       d="m 469.89001,191 -7,3.5 1.75,-3.5 -1.75,-3.5 z"
       style="fill:#000000;fill-opacity:1;fill-rule:nonzero;stroke:#000000;stroke-width:1;stroke-linecap:butt;stroke-linejoin:miter;stroke-miterlimit:10;stroke-dasharray:none;stroke-opacity:1"
       transform="matrix(0.95692876,0,0,0.95692876,0.47846437,0.47846437)"
       clip-path="url(#clipPath46)" />
    <path
       id="path47"
       d="m 351,191 h 60 v 174 h 53.64001"
       style="fill:none;stroke:#000000;stroke-width:1;stroke-linecap:butt;stroke-linejoin:miter;stroke-miterlimit:10;stroke-dasharray:none;stroke-opacity:1"
       transform="matrix(0.95692876,0,0,0.95692876,0.47846437,0.47846437)"
       clip-path="url(#clipPath48)" />
    <path
       id="path49"
       d="m 469.89001,365 -7,3.5 1.75,-3.5 -1.75,-3.5 z"
       style="fill:#000000;fill-opacity:1;fill-rule:nonzero;stroke:#000000;stroke-width:1;stroke-linecap:butt;stroke-linejoin:miter;stroke-miterlimit:10;stroke-dasharray:none;stroke-opacity:1"
       transform="matrix(0.95692876,0,0,0.95692876,0.47846437,0.47846437)"
       clip-path="url(#clipPath50)" />
    <path
       id="path51"
       d="m 141,175 h 210 v 32 H 141 Z"
       style="fill:#dae8fc;fill-opacity:1;fill-rule:nonzero;stroke:#6c8ebf;stroke-width:1;stroke-linecap:butt;stroke-linejoin:miter;stroke-miterlimit:10;stroke-dasharray:none;stroke-opacity:1"
       transform="matrix(0.95692876,0,0,0.95692876,0.47846437,0.47846437)"
       clip-path="url(#clipPath52)" />
    <text
       id="text52"
       xml:space="preserve"
       transform="matrix(0.95693836,0,0,0.95693836,212.85898,187.55992)"
       clip-path="url(#clipPath53)"><tspan
         style="font-variant:normal;font-weight:700;font-size:16px;font-family:Helvetica;writing-mode:lr-tb;fill:#000000;fill-opacity:1;fill-rule:nonzero;stroke:none"
         x="0 10.671875 20.445312 26.671875 32 40.898438"
         y="0"
         sodipodi:role="line"
         id="tspan52">Sorter</tspan></text>
    <path
       id="path54"
       d="m 141,207 h 210 v 32 H 141 Z"
       style="fill:#fff2cc;fill-opacity:1;fill-rule:nonzero;stroke:#d6b656;stroke-width:1;stroke-linecap:butt;stroke-linejoin:miter;stroke-miterlimit:10;stroke-dasharray:none;stroke-opacity:1"
       transform="matrix(0.95692876,0,0,0.95692876,0.47846437,0.47846437)"
       clip-path="url(#clipPath55)" />
    <text
       id="text55"
       xml:space="preserve"
       transform="matrix(0.95693836,0,0,0.95693836,217.53901,218.18195)"
       clip-path="url(#clipPath56)"><tspan
         style="font-variant:normal;font-weight:normal;font-size:16px;font-family:Helvetica;writing-mode:lr-tb;fill:#000000;fill-opacity:1;fill-rule:nonzero;stroke:none"
         x="0 8 16.898438 22.226562 26.671875 32"
         y="0"
         sodipodi:role="line"
         id="tspan55">sort()</tspan></text>
    <path
       id="path57"
       d="M 1,385 H 261 V 505 H 1 Z"
       style="fill:#f8cecc;fill-opacity:1;fill-rule:nonzero;stroke:#b85450;stroke-width:1;stroke-linecap:butt;stroke-linejoin:miter;stroke-miterlimit:10;stroke-dasharray:none;stroke-opacity:1"
       transform="matrix(0.95692876,0,0,0.95692876,0.47846437,0.47846437)"
       clip-path="url(#clipPath58)" />
    <text
       id="text58"
       xml:space="preserve"
       transform="matrix(0.95693836,0,0,0.95693836,19.542476,393.30167)"
       clip-path="url(#clipPath59)"><tspan
         style="font-variant:normal;font-weight:700;font-size:23px;font-family:Helvetica;writing-mode:lr-tb;fill:#000000;fill-opacity:1;fill-rule:nonzero;stroke:none"
         x="0 6.3901367 20.439453 34.48877 47.280273 56.230957 62.621094 70.280273 83.071777 97.121094 109.9126 122.7041 129.09424 136.75342 143.14355 150.80273 163.59424 176.38574 189.17725 195.56738 208.35889 214.74902"
         y="0"
         sodipodi:role="line"
         id="tspan58">Inheritance - take all</tspan></text>
    <text
       id="text59"
       xml:space="preserve"
       transform="matrix(0.95693836,0,0,0.95693836,32.416287,420.09594)"
       clip-path="url(#clipPath60)"><tspan
         style="font-variant:normal;font-weight:700;font-size:23px;font-family:Helvetica;writing-mode:lr-tb;fill:#000000;fill-opacity:1;fill-rule:nonzero;stroke:none"
         x="0 7.6591797 21.708496 34.5 40.890137 61.34082 74.132324 81.791504 95.84082 109.89014 123.93945 136.73096 143.12109 150.78027 159.73096 173.78027"
         y="0"
         sodipodi:role="line"
         id="tspan59">the methods from</tspan></text>
    <text
       id="text60"
       xml:space="preserve"
       transform="matrix(0.95693836,0,0,0.95693836,14.324171,446.89021)"
       clip-path="url(#clipPath61)"><tspan
         style="font-variant:normal;font-weight:700;font-size:23px;font-family:Helvetica;writing-mode:lr-tb;fill:#000000;fill-opacity:1;fill-rule:nonzero;stroke:none"
         x="0 5.4692383 18.260742 32.310059 41.260742 48.919922 61.711426 70.662109 76.131348 82.521484 95.312988 109.3623 123.41162 129.80176 142.59326 156.64258 170.69189 177.08203 184.74121 198.79053 211.58203"
         y="0"
         sodipodi:role="line"
         id="tspan60">'sorter' and add them</tspan></text>
    <text
       id="text61"
       xml:space="preserve"
       transform="matrix(0.95693836,0,0,0.95693836,31.175258,472.72755)"
       clip-path="url(#clipPath62)"><tspan
         style="font-variant:normal;font-weight:700;font-size:23px;font-family:Helvetica;writing-mode:lr-tb;fill:#000000;fill-opacity:1;fill-rule:nonzero;stroke:none"
         x="0 7.6591797 21.708496 28.098633 35.757812 49.807129 62.598633 68.98877 76.647949 89.439453 98.390137 112.43945 125.23096 132.89014 139.28027 152.07178 158.46191 171.25342 184.04492"
         y="0"
         sodipodi:role="line"
         id="tspan61">to the target class</tspan></text>
    <path
       id="path63"
       d="m 681.01001,145 0.31,-23.23"
       style="fill:none;stroke:#000000;stroke-width:1;stroke-linecap:butt;stroke-linejoin:miter;stroke-miterlimit:10;stroke-dasharray:none;stroke-opacity:1"
       transform="matrix(0.95692876,0,0,0.95692876,0.47846437,0.47846437)"
       clip-path="url(#clipPath64)" />
    <path
       id="path65"
       d="m 681.39001,116.52 3.40998,7.05 -3.47998,-1.8 -3.52002,1.7 z"
       style="fill:#000000;fill-opacity:1;fill-rule:nonzero;stroke:#000000;stroke-width:1;stroke-linecap:butt;stroke-linejoin:miter;stroke-miterlimit:10;stroke-dasharray:none;stroke-opacity:1"
       transform="matrix(0.95692876,0,0,0.95692876,0.47846437,0.47846437)"
       clip-path="url(#clipPath66)" />
    <path
       id="path67"
       d="M 681.01001,145 H 701 V 81 h -13.63"
       style="fill:none;stroke:#000000;stroke-width:1;stroke-linecap:butt;stroke-linejoin:miter;stroke-miterlimit:10;stroke-dasharray:none;stroke-opacity:1"
       transform="matrix(0.95692876,0,0,0.95692876,0.47846437,0.47846437)"
       clip-path="url(#clipPath68)" />
    <path
       id="path69"
       d="m 682.12,81 7,-3.5 -1.75,3.5 1.76,3.5 z"
       style="fill:#000000;fill-opacity:1;fill-rule:nonzero;stroke:#000000;stroke-width:1;stroke-linecap:butt;stroke-linejoin:miter;stroke-miterlimit:10;stroke-dasharray:none;stroke-opacity:1"
       transform="matrix(0.95692876,0,0,0.95692876,0.47846437,0.47846437)"
       clip-path="url(#clipPath70)" />
    <path
       id="path71"
       d="M 681.01001,145 H 701 V 49 h -13.63"
       style="fill:none;stroke:#000000;stroke-width:1;stroke-linecap:butt;stroke-linejoin:miter;stroke-miterlimit:10;stroke-dasharray:none;stroke-opacity:1"
       transform="matrix(0.95692876,0,0,0.95692876,0.47846437,0.47846437)"
       clip-path="url(#clipPath72)" />
    <path
       id="path73"
       d="m 682.12,49 7,-3.5 -1.75,3.5 1.75,3.5 z"
       style="fill:#000000;fill-opacity:1;fill-rule:nonzero;stroke:#000000;stroke-width:1;stroke-linecap:butt;stroke-linejoin:miter;stroke-miterlimit:10;stroke-dasharray:none;stroke-opacity:1"
       transform="matrix(0.95692876,0,0,0.95692876,0.47846437,0.47846437)"
       clip-path="url(#clipPath74)" />
    <path
       id="path75"
       d="m 471,129 h 210 v 32 H 471 Z"
       style="fill:#fff2cc;fill-opacity:1;fill-rule:nonzero;stroke:#d6b656;stroke-width:1;stroke-linecap:butt;stroke-linejoin:miter;stroke-miterlimit:10;stroke-dasharray:none;stroke-opacity:1"
       transform="matrix(0.95692876,0,0,0.95692876,0.47846437,0.47846437)"
       clip-path="url(#clipPath76)" />
    <text
       id="text76"
       xml:space="preserve"
       transform="matrix(0.95693836,0,0,0.95693836,533.32867,143.54075)"
       clip-path="url(#clipPath77)"><tspan
         style="font-variant:normal;font-weight:normal;font-size:16px;font-family:Helvetica;writing-mode:lr-tb;fill:#000000;fill-opacity:1;fill-rule:nonzero;stroke:none"
         x="0 8 16.898438 22.226562 26.671875 32"
         y="0"
         sodipodi:role="line"
         id="tspan76">sort()</tspan></text>
    <path
       id="path78"
       d="m 471,303 h 210 v 32 H 471 Z"
       style="fill:#fff2cc;fill-opacity:1;fill-rule:nonzero;stroke:#d6b656;stroke-width:1;stroke-linecap:butt;stroke-linejoin:miter;stroke-miterlimit:10;stroke-dasharray:none;stroke-opacity:1"
       transform="matrix(0.95692876,0,0,0.95692876,0.47846437,0.47846437)"
       clip-path="url(#clipPath79)" />
    <text
       id="text79"
       xml:space="preserve"
       transform="matrix(0.95693836,0,0,0.95693836,533.32867,310.04803)"
       clip-path="url(#clipPath80)"><tspan
         style="font-variant:normal;font-weight:normal;font-size:16px;font-family:Helvetica;writing-mode:lr-tb;fill:#000000;fill-opacity:1;fill-rule:nonzero;stroke:none"
         x="0 8 16.898438 22.226562 26.671875 32"
         y="0"
         sodipodi:role="line"
         id="tspan79">sort()</tspan></text>
    <path
       id="path81"
       d="m 471,477 h 210 v 32 H 471 Z"
       style="fill:#fff2cc;fill-opacity:1;fill-rule:nonzero;stroke:#d6b656;stroke-width:1;stroke-linecap:butt;stroke-linejoin:miter;stroke-miterlimit:10;stroke-dasharray:none;stroke-opacity:1"
       transform="matrix(0.95692876,0,0,0.95692876,0.47846437,0.47846437)"
       clip-path="url(#clipPath82)" />
    <text
       id="text82"
       xml:space="preserve"
       transform="matrix(0.95693836,0,0,0.95693836,533.32867,476.5553)"
       clip-path="url(#clipPath83)"><tspan
         style="font-variant:normal;font-weight:normal;font-size:16px;font-family:Helvetica;writing-mode:lr-tb;fill:#000000;fill-opacity:1;fill-rule:nonzero;stroke:none"
         x="0 8 16.898438 22.226562 26.671875 32"
         y="0"
         sodipodi:role="line"
         id="tspan82">sort()</tspan></text>
  </g>
</svg>
