<?xml version="1.0" encoding="UTF-8" standalone="no"?>
<!-- Created with Inkscape (http://www.inkscape.org/) -->

<svg
   version="1.1"
   id="svg1"
   width="654.71997"
   height="158.72"
   viewBox="0 0 654.71997 158.72"
   sodipodi:docname="ts-18.pdf"
   xmlns:inkscape="http://www.inkscape.org/namespaces/inkscape"
   xmlns:sodipodi="http://sodipodi.sourceforge.net/DTD/sodipodi-0.dtd"
   xmlns="http://www.w3.org/2000/svg"
   xmlns:svg="http://www.w3.org/2000/svg">
  <defs
     id="defs1">
    <clipPath
       clipPathUnits="userSpaceOnUse"
       id="clipPath2">
      <path
         d="M 0,0 H 2045.8333 V 493.51239 H 0 Z"
         transform="scale(0.33433811)"
         clip-rule="evenodd"
         id="path2" />
    </clipPath>
    <clipPath
       clipPathUnits="userSpaceOnUse"
       id="clipPath4">
      <path
         d="M 0,0 H 2045.8333 V 490.52142 H 0 Z"
         transform="matrix(0.33433811,0,0,0.33433811,-0.5,-0.5)"
         clip-rule="evenodd"
         id="path4" />
    </clipPath>
    <clipPath
       clipPathUnits="userSpaceOnUse"
       id="clipPath5">
      <path
         d="M 0,0 H 2045.8333 V 490.52142 H 0 Z"
         transform="matrix(0.33433476,0,0,0.33433476,-32.65625,-22)"
         clip-rule="evenodd"
         id="path5" />
    </clipPath>
    <clipPath
       clipPathUnits="userSpaceOnUse"
       id="clipPath7">
      <path
         d="M 0,0 H 2045.8333 V 490.52142 H 0 Z"
         transform="matrix(0.33433811,0,0,0.33433811,-0.5,-0.5)"
         clip-rule="evenodd"
         id="path7" />
    </clipPath>
    <clipPath
       clipPathUnits="userSpaceOnUse"
       id="clipPath8">
      <path
         d="M 0,0 H 2045.8333 V 490.52142 H 0 Z"
         transform="matrix(0.33433476,0,0,0.33433476,-78.875,-54)"
         clip-rule="evenodd"
         id="path8" />
    </clipPath>
    <clipPath
       clipPathUnits="userSpaceOnUse"
       id="clipPath10">
      <path
         d="M 0,0 H 2045.8333 V 490.52142 H 0 Z"
         transform="matrix(0.33433811,0,0,0.33433811,-0.5,-0.5)"
         clip-rule="evenodd"
         id="path10" />
    </clipPath>
    <clipPath
       clipPathUnits="userSpaceOnUse"
       id="clipPath11">
      <path
         d="M 0,0 H 2045.8333 V 490.52142 H 0 Z"
         transform="matrix(0.33433476,0,0,0.33433476,-69.546875,-86)"
         clip-rule="evenodd"
         id="path11" />
    </clipPath>
    <clipPath
       clipPathUnits="userSpaceOnUse"
       id="clipPath13">
      <path
         d="M 0,0 H 2045.8333 V 490.52142 H 0 Z"
         transform="matrix(0.33433811,0,0,0.33433811,-0.5,-0.5)"
         clip-rule="evenodd"
         id="path13" />
    </clipPath>
    <clipPath
       clipPathUnits="userSpaceOnUse"
       id="clipPath14">
      <path
         d="M 0,0 H 2045.8333 V 490.52142 H 0 Z"
         transform="matrix(0.33433476,0,0,0.33433476,-81.984375,-118)"
         clip-rule="evenodd"
         id="path14" />
    </clipPath>
    <clipPath
       clipPathUnits="userSpaceOnUse"
       id="clipPath16">
      <path
         d="M 0,0 H 2045.8333 V 490.52142 H 0 Z"
         transform="matrix(0.33433811,0,0,0.33433811,-0.5,-0.5)"
         clip-rule="evenodd"
         id="path16" />
    </clipPath>
    <clipPath
       clipPathUnits="userSpaceOnUse"
       id="clipPath17">
      <path
         d="M 0,0 H 2045.8333 V 490.52142 H 0 Z"
         transform="matrix(0.33433476,0,0,0.33433476,-265.53126,-22)"
         clip-rule="evenodd"
         id="path17" />
    </clipPath>
    <clipPath
       clipPathUnits="userSpaceOnUse"
       id="clipPath19">
      <path
         d="M 0,0 H 2045.8333 V 490.52142 H 0 Z"
         transform="matrix(0.33433811,0,0,0.33433811,-0.5,-0.5)"
         clip-rule="evenodd"
         id="path19" />
    </clipPath>
    <clipPath
       clipPathUnits="userSpaceOnUse"
       id="clipPath20">
      <path
         d="M 0,0 H 2045.8333 V 490.52142 H 0 Z"
         transform="matrix(0.33433476,0,0,0.33433476,-318.87501,-54)"
         clip-rule="evenodd"
         id="path20" />
    </clipPath>
    <clipPath
       clipPathUnits="userSpaceOnUse"
       id="clipPath22">
      <path
         d="M 0,0 H 2045.8333 V 490.52142 H 0 Z"
         transform="matrix(0.33433811,0,0,0.33433811,-0.5,-0.5)"
         clip-rule="evenodd"
         id="path22" />
    </clipPath>
    <clipPath
       clipPathUnits="userSpaceOnUse"
       id="clipPath23">
      <path
         d="M 0,0 H 2045.8333 V 490.52142 H 0 Z"
         transform="matrix(0.33433476,0,0,0.33433476,-309.54688,-86)"
         clip-rule="evenodd"
         id="path23" />
    </clipPath>
    <clipPath
       clipPathUnits="userSpaceOnUse"
       id="clipPath25">
      <path
         d="M 0,0 H 2045.8333 V 490.52142 H 0 Z"
         transform="matrix(0.33433811,0,0,0.33433811,-0.5,-0.5)"
         clip-rule="evenodd"
         id="path25" />
    </clipPath>
    <clipPath
       clipPathUnits="userSpaceOnUse"
       id="clipPath26">
      <path
         d="M 0,0 H 2045.8333 V 490.52142 H 0 Z"
         transform="matrix(0.33433476,0,0,0.33433476,-321.98438,-118)"
         clip-rule="evenodd"
         id="path26" />
    </clipPath>
    <clipPath
       clipPathUnits="userSpaceOnUse"
       id="clipPath28">
      <path
         d="M 0,0 H 2045.8333 V 490.52142 H 0 Z"
         transform="matrix(0.33433811,0,0,0.33433811,-0.5,-0.5)"
         clip-rule="evenodd"
         id="path28" />
    </clipPath>
    <clipPath
       clipPathUnits="userSpaceOnUse"
       id="clipPath29">
      <path
         d="M 0,0 H 2045.8333 V 490.52142 H 0 Z"
         transform="matrix(0.33433476,0,0,0.33433476,-535.98438,-22)"
         clip-rule="evenodd"
         id="path29" />
    </clipPath>
    <clipPath
       clipPathUnits="userSpaceOnUse"
       id="clipPath31">
      <path
         d="M 0,0 H 2045.8333 V 490.52142 H 0 Z"
         transform="matrix(0.33433811,0,0,0.33433811,-0.5,-0.5)"
         clip-rule="evenodd"
         id="path31" />
    </clipPath>
    <clipPath
       clipPathUnits="userSpaceOnUse"
       id="clipPath32">
      <path
         d="M 0,0 H 2045.8333 V 490.52142 H 0 Z"
         transform="matrix(0.33433476,0,0,0.33433476,-548.875,-54)"
         clip-rule="evenodd"
         id="path32" />
    </clipPath>
    <clipPath
       clipPathUnits="userSpaceOnUse"
       id="clipPath34">
      <path
         d="M 0,0 H 2045.8333 V 490.52142 H 0 Z"
         transform="matrix(0.33433811,0,0,0.33433811,-0.5,-0.5)"
         clip-rule="evenodd"
         id="path34" />
    </clipPath>
    <clipPath
       clipPathUnits="userSpaceOnUse"
       id="clipPath35">
      <path
         d="M 0,0 H 2045.8333 V 490.52142 H 0 Z"
         transform="matrix(0.33433476,0,0,0.33433476,-539.54688,-86)"
         clip-rule="evenodd"
         id="path35" />
    </clipPath>
    <clipPath
       clipPathUnits="userSpaceOnUse"
       id="clipPath37">
      <path
         d="M 0,0 H 2045.8333 V 490.52142 H 0 Z"
         transform="matrix(0.33433811,0,0,0.33433811,-0.5,-0.5)"
         clip-rule="evenodd"
         id="path37" />
    </clipPath>
    <clipPath
       clipPathUnits="userSpaceOnUse"
       id="clipPath38">
      <path
         d="M 0,0 H 2045.8333 V 490.52142 H 0 Z"
         transform="matrix(0.33433476,0,0,0.33433476,-551.98439,-118)"
         clip-rule="evenodd"
         id="path38" />
    </clipPath>
    <clipPath
       clipPathUnits="userSpaceOnUse"
       id="clipPath40">
      <path
         d="M 0,0 H 2045.8333 V 490.52142 H 0 Z"
         transform="matrix(0.33433811,0,0,0.33433811,-0.5,-0.5)"
         clip-rule="evenodd"
         id="path40" />
    </clipPath>
    <clipPath
       clipPathUnits="userSpaceOnUse"
       id="clipPath41">
      <path
         d="M 0,0 H 2045.8333 V 490.52142 H 0 Z"
         transform="matrix(0.33433476,0,0,0.33433476,-87.328125,-150.00001)"
         clip-rule="evenodd"
         id="path41" />
    </clipPath>
    <clipPath
       clipPathUnits="userSpaceOnUse"
       id="clipPath43">
      <path
         d="M 0,0 H 2045.8333 V 490.52142 H 0 Z"
         transform="matrix(0.33433811,0,0,0.33433811,-0.5,-0.5)"
         clip-rule="evenodd"
         id="path43" />
    </clipPath>
    <clipPath
       clipPathUnits="userSpaceOnUse"
       id="clipPath45">
      <path
         d="M 0,0 H 2045.8333 V 490.52142 H 0 Z"
         transform="matrix(0.33433811,0,0,0.33433811,-0.5,-0.5)"
         clip-rule="evenodd"
         id="path45" />
    </clipPath>
    <clipPath
       clipPathUnits="userSpaceOnUse"
       id="clipPath47">
      <path
         d="M 0,0 H 2045.8333 V 490.52142 H 0 Z"
         transform="matrix(0.33433811,0,0,0.33433811,-0.5,-0.5)"
         clip-rule="evenodd"
         id="path47" />
    </clipPath>
    <clipPath
       clipPathUnits="userSpaceOnUse"
       id="clipPath48">
      <path
         d="M 0,0 H 2045.8333 V 490.52142 H 0 Z"
         transform="matrix(0.33433476,0,0,0.33433476,-327.32813,-150.00001)"
         clip-rule="evenodd"
         id="path48" />
    </clipPath>
    <clipPath
       clipPathUnits="userSpaceOnUse"
       id="clipPath50">
      <path
         d="M 0,0 H 2045.8333 V 490.52142 H 0 Z"
         transform="matrix(0.33433811,0,0,0.33433811,-0.5,-0.5)"
         clip-rule="evenodd"
         id="path50" />
    </clipPath>
    <clipPath
       clipPathUnits="userSpaceOnUse"
       id="clipPath51">
      <path
         d="M 0,0 H 2045.8333 V 490.52142 H 0 Z"
         transform="matrix(0.33433476,0,0,0.33433476,-557.32813,-150.00001)"
         clip-rule="evenodd"
         id="path51" />
    </clipPath>
  </defs>
  <sodipodi:namedview
     id="namedview1"
     pagecolor="#ffffff"
     bordercolor="#000000"
     borderopacity="0.25"
     inkscape:showpageshadow="2"
     inkscape:pageopacity="0.0"
     inkscape:pagecheckerboard="0"
     inkscape:deskcolor="#d1d1d1">
    <inkscape:page
       x="0"
       y="0"
       inkscape:label="1"
       id="page1"
       width="654.71997"
       height="158.72"
       margin="0"
       bleed="0" />
  </sodipodi:namedview>
  <g
     id="g1"
     inkscape:groupmode="layer"
     inkscape:label="1">
    <path
       id="path1"
       d="M 0,0 H 684 V 165 H 0 Z"
       style="fill:#ffffff;fill-opacity:1;fill-rule:nonzero;stroke:none"
       transform="scale(0.9571149)"
       clip-path="url(#clipPath2)" />
    <path
       id="path3"
       d="M 1,1 H 211 V 33 H 1 Z"
       style="fill:#dae8fc;fill-opacity:1;fill-rule:nonzero;stroke:#6c8ebf;stroke-width:1;stroke-linecap:butt;stroke-linejoin:miter;stroke-miterlimit:10;stroke-dasharray:none;stroke-opacity:1"
       transform="matrix(0.9571149,0,0,0.9571149,0.47855745,0.47855745)"
       clip-path="url(#clipPath4)" />
    <text
       id="text4"
       xml:space="preserve"
       transform="matrix(0.9571245,0,0,0.9571245,31.256097,21.056739)"
       clip-path="url(#clipPath5)"><tspan
         style="font-variant:normal;font-weight:700;font-size:16px;font-family:Helvetica;writing-mode:lr-tb;fill:#000000;fill-opacity:1;fill-rule:nonzero;stroke:none"
         x="0 11.554688 21.328125 35.554688 45.328125 54.226562 60.453125 69.351562 80.90625 90.679688 95.125 99.570312 108.46875 117.36719 122.69531 127.14062 136.91406"
         y="0"
         sodipodi:role="line"
         id="tspan4">NumbersCollection</tspan></text>
    <path
       id="path6"
       d="M 1,33 H 211 V 65 H 1 Z"
       style="fill:#d5e8d4;fill-opacity:1;fill-rule:nonzero;stroke:#82b366;stroke-width:1;stroke-linecap:butt;stroke-linejoin:miter;stroke-miterlimit:10;stroke-dasharray:none;stroke-opacity:1"
       transform="matrix(0.9571149,0,0,0.9571149,0.47855745,0.47855745)"
       clip-path="url(#clipPath7)" />
    <text
       id="text7"
       xml:space="preserve"
       transform="matrix(0.9571245,0,0,0.9571245,75.493195,51.684723)"
       clip-path="url(#clipPath8)"><tspan
         style="font-variant:normal;font-weight:normal;font-size:16px;font-family:Helvetica;writing-mode:lr-tb;fill:#000000;fill-opacity:1;fill-rule:nonzero;stroke:none"
         x="0 3.5546875 12.453125 21.351562 30.25 34.695312 43.59375 48.921875"
         y="0"
         sodipodi:role="line"
         id="tspan7">length()</tspan></text>
    <path
       id="path9"
       d="M 1,65 H 211 V 97 H 1 Z"
       style="fill:#d5e8d4;fill-opacity:1;fill-rule:nonzero;stroke:#82b366;stroke-width:1;stroke-linecap:butt;stroke-linejoin:miter;stroke-miterlimit:10;stroke-dasharray:none;stroke-opacity:1"
       transform="matrix(0.9571149,0,0,0.9571149,0.47855745,0.47855745)"
       clip-path="url(#clipPath10)" />
    <text
       id="text10"
       xml:space="preserve"
       transform="matrix(0.9571245,0,0,0.9571245,66.565018,82.312707)"
       clip-path="url(#clipPath11)"><tspan
         style="font-variant:normal;font-weight:normal;font-size:16px;font-family:Helvetica;writing-mode:lr-tb;fill:#000000;fill-opacity:1;fill-rule:nonzero;stroke:none"
         x="0 8 16.898438 30.226562 39.125 48.023438 53.351562 62.25 67.578125"
         y="0"
         sodipodi:role="line"
         id="tspan10">compare()</tspan></text>
    <path
       id="path12"
       d="m 1,97 h 210 v 32 H 1 Z"
       style="fill:#d5e8d4;fill-opacity:1;fill-rule:nonzero;stroke:#82b366;stroke-width:1;stroke-linecap:butt;stroke-linejoin:miter;stroke-miterlimit:10;stroke-dasharray:none;stroke-opacity:1"
       transform="matrix(0.9571149,0,0,0.9571149,0.47855745,0.47855745)"
       clip-path="url(#clipPath13)" />
    <text
       id="text13"
       xml:space="preserve"
       transform="matrix(0.9571245,0,0,0.9571245,78.469254,112.94069)"
       clip-path="url(#clipPath14)"><tspan
         style="font-variant:normal;font-weight:normal;font-size:16px;font-family:Helvetica;writing-mode:lr-tb;fill:#000000;fill-opacity:1;fill-rule:nonzero;stroke:none"
         x="0 8 19.554688 28.453125 37.351562 42.679688"
         y="0"
         sodipodi:role="line"
         id="tspan13">swap()</tspan></text>
    <path
       id="path15"
       d="M 241,1 H 451 V 33 H 241 Z"
       style="fill:#dae8fc;fill-opacity:1;fill-rule:nonzero;stroke:#6c8ebf;stroke-width:1;stroke-linecap:butt;stroke-linejoin:miter;stroke-miterlimit:10;stroke-dasharray:none;stroke-opacity:1"
       transform="matrix(0.9571149,0,0,0.9571149,0.47855745,0.47855745)"
       clip-path="url(#clipPath16)" />
    <text
       id="text16"
       xml:space="preserve"
       transform="matrix(0.9571245,0,0,0.9571245,254.14647,21.056739)"
       clip-path="url(#clipPath17)"><tspan
         style="font-variant:normal;font-weight:700;font-size:16px;font-family:Helvetica;writing-mode:lr-tb;fill:#000000;fill-opacity:1;fill-rule:nonzero;stroke:none"
         x="0 11.554688 21.328125 30.226562 36.453125 45.351562 54.25 59.578125 68.476562 74.703125 83.601562 95.15625 104.92969 109.375 113.82031 122.71875 131.61719 136.94531 141.39062 151.16406"
         y="0"
         sodipodi:role="line"
         id="tspan16">CharactersCollection</tspan></text>
    <path
       id="path18"
       d="M 241,33 H 451 V 65 H 241 Z"
       style="fill:#d5e8d4;fill-opacity:1;fill-rule:nonzero;stroke:#82b366;stroke-width:1;stroke-linecap:butt;stroke-linejoin:miter;stroke-miterlimit:10;stroke-dasharray:none;stroke-opacity:1"
       transform="matrix(0.9571149,0,0,0.9571149,0.47855745,0.47855745)"
       clip-path="url(#clipPath19)" />
    <text
       id="text19"
       xml:space="preserve"
       transform="matrix(0.9571245,0,0,0.9571245,305.20308,51.684723)"
       clip-path="url(#clipPath20)"><tspan
         style="font-variant:normal;font-weight:normal;font-size:16px;font-family:Helvetica;writing-mode:lr-tb;fill:#000000;fill-opacity:1;fill-rule:nonzero;stroke:none"
         x="0 3.5546875 12.453125 21.351562 30.25 34.695312 43.59375 48.921875"
         y="0"
         sodipodi:role="line"
         id="tspan19">length()</tspan></text>
    <path
       id="path21"
       d="M 241,65 H 451 V 97 H 241 Z"
       style="fill:#d5e8d4;fill-opacity:1;fill-rule:nonzero;stroke:#82b366;stroke-width:1;stroke-linecap:butt;stroke-linejoin:miter;stroke-miterlimit:10;stroke-dasharray:none;stroke-opacity:1"
       transform="matrix(0.9571149,0,0,0.9571149,0.47855745,0.47855745)"
       clip-path="url(#clipPath22)" />
    <text
       id="text22"
       xml:space="preserve"
       transform="matrix(0.9571245,0,0,0.9571245,296.2749,82.312707)"
       clip-path="url(#clipPath23)"><tspan
         style="font-variant:normal;font-weight:normal;font-size:16px;font-family:Helvetica;writing-mode:lr-tb;fill:#000000;fill-opacity:1;fill-rule:nonzero;stroke:none"
         x="0 8 16.898438 30.226562 39.125 48.023438 53.351562 62.25 67.578125"
         y="0"
         sodipodi:role="line"
         id="tspan22">compare()</tspan></text>
    <path
       id="path24"
       d="m 241,97 h 210 v 32 H 241 Z"
       style="fill:#d5e8d4;fill-opacity:1;fill-rule:nonzero;stroke:#82b366;stroke-width:1;stroke-linecap:butt;stroke-linejoin:miter;stroke-miterlimit:10;stroke-dasharray:none;stroke-opacity:1"
       transform="matrix(0.9571149,0,0,0.9571149,0.47855745,0.47855745)"
       clip-path="url(#clipPath25)" />
    <text
       id="text25"
       xml:space="preserve"
       transform="matrix(0.9571245,0,0,0.9571245,308.17914,112.94069)"
       clip-path="url(#clipPath26)"><tspan
         style="font-variant:normal;font-weight:normal;font-size:16px;font-family:Helvetica;writing-mode:lr-tb;fill:#000000;fill-opacity:1;fill-rule:nonzero;stroke:none"
         x="0 8 19.554688 28.453125 37.351562 42.679688"
         y="0"
         sodipodi:role="line"
         id="tspan25">swap()</tspan></text>
    <path
       id="path27"
       d="M 471,1 H 681 V 33 H 471 Z"
       style="fill:#dae8fc;fill-opacity:1;fill-rule:nonzero;stroke:#6c8ebf;stroke-width:1;stroke-linecap:butt;stroke-linejoin:miter;stroke-miterlimit:10;stroke-dasharray:none;stroke-opacity:1"
       transform="matrix(0.9571149,0,0,0.9571149,0.47855745,0.47855745)"
       clip-path="url(#clipPath28)" />
    <text
       id="text28"
       xml:space="preserve"
       transform="matrix(0.9571245,0,0,0.9571245,513.00378,21.056739)"
       clip-path="url(#clipPath29)"><tspan
         style="font-variant:normal;font-weight:700;font-size:16px;font-family:Helvetica;writing-mode:lr-tb;fill:#000000;fill-opacity:1;fill-rule:nonzero;stroke:none"
         x="0 9.7734375 14.21875 23.992188 32.890625 41.789062 51.5625 61.335938 65.78125 74.679688"
         y="0"
         sodipodi:role="line"
         id="tspan28">LinkedList</tspan></text>
    <path
       id="path30"
       d="M 471,33 H 681 V 65 H 471 Z"
       style="fill:#d5e8d4;fill-opacity:1;fill-rule:nonzero;stroke:#82b366;stroke-width:1;stroke-linecap:butt;stroke-linejoin:miter;stroke-miterlimit:10;stroke-dasharray:none;stroke-opacity:1"
       transform="matrix(0.9571149,0,0,0.9571149,0.47855745,0.47855745)"
       clip-path="url(#clipPath31)" />
    <text
       id="text31"
       xml:space="preserve"
       transform="matrix(0.9571245,0,0,0.9571245,525.34171,51.684723)"
       clip-path="url(#clipPath32)"><tspan
         style="font-variant:normal;font-weight:normal;font-size:16px;font-family:Helvetica;writing-mode:lr-tb;fill:#000000;fill-opacity:1;fill-rule:nonzero;stroke:none"
         x="0 3.5546875 12.453125 21.351562 30.25 34.695312 43.59375 48.921875"
         y="0"
         sodipodi:role="line"
         id="tspan31">length()</tspan></text>
    <path
       id="path33"
       d="M 471,65 H 681 V 97 H 471 Z"
       style="fill:#d5e8d4;fill-opacity:1;fill-rule:nonzero;stroke:#82b366;stroke-width:1;stroke-linecap:butt;stroke-linejoin:miter;stroke-miterlimit:10;stroke-dasharray:none;stroke-opacity:1"
       transform="matrix(0.9571149,0,0,0.9571149,0.47855745,0.47855745)"
       clip-path="url(#clipPath34)" />
    <text
       id="text34"
       xml:space="preserve"
       transform="matrix(0.9571245,0,0,0.9571245,516.41354,82.312707)"
       clip-path="url(#clipPath35)"><tspan
         style="font-variant:normal;font-weight:normal;font-size:16px;font-family:Helvetica;writing-mode:lr-tb;fill:#000000;fill-opacity:1;fill-rule:nonzero;stroke:none"
         x="0 8 16.898438 30.226562 39.125 48.023438 53.351562 62.25 67.578125"
         y="0"
         sodipodi:role="line"
         id="tspan34">compare()</tspan></text>
    <path
       id="path36"
       d="m 471,97 h 210 v 32 H 471 Z"
       style="fill:#d5e8d4;fill-opacity:1;fill-rule:nonzero;stroke:#82b366;stroke-width:1;stroke-linecap:butt;stroke-linejoin:miter;stroke-miterlimit:10;stroke-dasharray:none;stroke-opacity:1"
       transform="matrix(0.9571149,0,0,0.9571149,0.47855745,0.47855745)"
       clip-path="url(#clipPath37)" />
    <text
       id="text37"
       xml:space="preserve"
       transform="matrix(0.9571245,0,0,0.9571245,528.31778,112.94069)"
       clip-path="url(#clipPath38)"><tspan
         style="font-variant:normal;font-weight:normal;font-size:16px;font-family:Helvetica;writing-mode:lr-tb;fill:#000000;fill-opacity:1;fill-rule:nonzero;stroke:none"
         x="0 8 19.554688 28.453125 37.351562 42.679688"
         y="0"
         sodipodi:role="line"
         id="tspan37">swap()</tspan></text>
    <path
       id="path39"
       d="m 1,129 h 210 v 32 H 1 Z"
       style="fill:#fff2cc;fill-opacity:1;fill-rule:nonzero;stroke:#d6b656;stroke-width:1;stroke-linecap:butt;stroke-linejoin:miter;stroke-miterlimit:10;stroke-dasharray:none;stroke-opacity:1"
       transform="matrix(0.9571149,0,0,0.9571149,0.47855745,0.47855745)"
       clip-path="url(#clipPath40)" />
    <text
       id="text40"
       xml:space="preserve"
       transform="matrix(0.9571245,0,0,0.9571245,83.583888,143.56868)"
       clip-path="url(#clipPath41)"><tspan
         style="font-variant:normal;font-weight:normal;font-size:16px;font-family:Helvetica;writing-mode:lr-tb;fill:#000000;fill-opacity:1;fill-rule:nonzero;stroke:none"
         x="0 8 16.898438 22.226562 26.671875 32"
         y="0"
         sodipodi:role="line"
         id="tspan40">sort()</tspan></text>
    <path
       id="path42"
       d="m 451,145 h 20 -20 13.64001"
       style="fill:none;stroke:#000000;stroke-width:1;stroke-linecap:butt;stroke-linejoin:miter;stroke-miterlimit:10;stroke-dasharray:none;stroke-opacity:1"
       transform="matrix(0.9571149,0,0,0.9571149,0.47855745,0.47855745)"
       clip-path="url(#clipPath43)" />
    <path
       id="path44"
       d="m 469.89001,145 -7,3.5 1.75,-3.5 -1.75,-3.5 z"
       style="fill:#000000;fill-opacity:1;fill-rule:nonzero;stroke:#000000;stroke-width:1;stroke-linecap:butt;stroke-linejoin:miter;stroke-miterlimit:10;stroke-dasharray:none;stroke-opacity:1"
       transform="matrix(0.9571149,0,0,0.9571149,0.47855745,0.47855745)"
       clip-path="url(#clipPath45)" />
    <path
       id="path46"
       d="m 241,129 h 210 v 32 H 241 Z"
       style="fill:#fff2cc;fill-opacity:1;fill-rule:nonzero;stroke:#d6b656;stroke-width:1;stroke-linecap:butt;stroke-linejoin:miter;stroke-miterlimit:10;stroke-dasharray:none;stroke-opacity:1"
       transform="matrix(0.9571149,0,0,0.9571149,0.47855745,0.47855745)"
       clip-path="url(#clipPath47)" />
    <text
       id="text47"
       xml:space="preserve"
       transform="matrix(0.9571245,0,0,0.9571245,313.29377,143.56868)"
       clip-path="url(#clipPath48)"><tspan
         style="font-variant:normal;font-weight:normal;font-size:16px;font-family:Helvetica;writing-mode:lr-tb;fill:#000000;fill-opacity:1;fill-rule:nonzero;stroke:none"
         x="0 8 16.898438 22.226562 26.671875 32"
         y="0"
         sodipodi:role="line"
         id="tspan47">sort()</tspan></text>
    <path
       id="path49"
       d="m 471,129 h 210 v 32 H 471 Z"
       style="fill:#fff2cc;fill-opacity:1;fill-rule:nonzero;stroke:#d6b656;stroke-width:1;stroke-linecap:butt;stroke-linejoin:miter;stroke-miterlimit:10;stroke-dasharray:none;stroke-opacity:1"
       transform="matrix(0.9571149,0,0,0.9571149,0.47855745,0.47855745)"
       clip-path="url(#clipPath50)" />
    <text
       id="text50"
       xml:space="preserve"
       transform="matrix(0.9571245,0,0,0.9571245,533.43241,143.56868)"
       clip-path="url(#clipPath51)"><tspan
         style="font-variant:normal;font-weight:normal;font-size:16px;font-family:Helvetica;writing-mode:lr-tb;fill:#000000;fill-opacity:1;fill-rule:nonzero;stroke:none"
         x="0 8 16.898438 22.226562 26.671875 32"
         y="0"
         sodipodi:role="line"
         id="tspan50">sort()</tspan></text>
  </g>
</svg>
