<?xml version="1.0" encoding="UTF-8" standalone="no"?>
<!-- Created with Inkscape (http://www.inkscape.org/) -->

<svg
   version="1.1"
   id="svg1"
   width="712"
   height="249.27998"
   viewBox="0 0 712 249.27998"
   sodipodi:docname="ts-1.pdf"
   xmlns:inkscape="http://www.inkscape.org/namespaces/inkscape"
   xmlns:sodipodi="http://sodipodi.sourceforge.net/DTD/sodipodi-0.dtd"
   xmlns="http://www.w3.org/2000/svg"
   xmlns:svg="http://www.w3.org/2000/svg">
  <defs
     id="defs1">
    <clipPath
       clipPathUnits="userSpaceOnUse"
       id="clipPath2">
      <path
         d="M 0,0 H 2225 V 776.65094 H 0 Z"
         transform="scale(0.33348316)"
         clip-rule="evenodd"
         id="path2" />
    </clipPath>
    <clipPath
       clipPathUnits="userSpaceOnUse"
       id="clipPath4">
      <path
         d="M 0,0 H 2225 V 776.65094 H 0 Z"
         transform="matrix(0.33348316,0,0,0.33348316,-0.50000001,-0.50000001)"
         clip-rule="evenodd"
         id="path4" />
    </clipPath>
    <clipPath
       clipPathUnits="userSpaceOnUse"
       id="clipPath6">
      <path
         d="M 0,0 H 2225 V 776.65094 H 0 Z"
         transform="matrix(0.33348316,0,0,0.33348316,-0.50000001,-0.50000001)"
         clip-rule="evenodd"
         id="path6" />
    </clipPath>
    <clipPath
       clipPathUnits="userSpaceOnUse"
       id="clipPath8">
      <path
         d="M 0,0 H 2225 V 776.65094 H 0 Z"
         transform="matrix(0.33348316,0,0,0.33348316,-0.50000001,-0.50000001)"
         clip-rule="evenodd"
         id="path8" />
    </clipPath>
    <clipPath
       clipPathUnits="userSpaceOnUse"
       id="clipPath9">
      <path
         d="M 0,0 H 2225 V 776.65094 H 0 Z"
         transform="matrix(0.33347981,0,0,0.33347981,-229.28125,-44)"
         clip-rule="evenodd"
         id="path9" />
    </clipPath>
    <clipPath
       clipPathUnits="userSpaceOnUse"
       id="clipPath11">
      <path
         d="M 0,0 H 2225 V 776.65094 H 0 Z"
         transform="matrix(0.33348316,0,0,0.33348316,-0.50000001,-0.50000001)"
         clip-rule="evenodd"
         id="path11" />
    </clipPath>
    <clipPath
       clipPathUnits="userSpaceOnUse"
       id="clipPath12">
      <path
         d="M 0,0 H 2225 V 776.65094 H 0 Z"
         transform="matrix(0.33347981,0,0,0.33347981,-489.28125,-44)"
         clip-rule="evenodd"
         id="path12" />
    </clipPath>
    <clipPath
       clipPathUnits="userSpaceOnUse"
       id="clipPath14">
      <path
         d="M 0,0 H 2225 V 776.65094 H 0 Z"
         transform="matrix(0.33348316,0,0,0.33348316,-0.50000001,-0.50000001)"
         clip-rule="evenodd"
         id="path14" />
    </clipPath>
    <clipPath
       clipPathUnits="userSpaceOnUse"
       id="clipPath16">
      <path
         d="M 0,0 H 2225 V 776.65094 H 0 Z"
         transform="matrix(0.33348316,0,0,0.33348316,-0.50000001,-0.50000001)"
         clip-rule="evenodd"
         id="path16" />
    </clipPath>
    <clipPath
       clipPathUnits="userSpaceOnUse"
       id="clipPath18">
      <path
         d="M 0,0 H 2225 V 776.65094 H 0 Z"
         transform="matrix(0.33348316,0,0,0.33348316,-0.50000001,-0.50000001)"
         clip-rule="evenodd"
         id="path18" />
    </clipPath>
    <clipPath
       clipPathUnits="userSpaceOnUse"
       id="clipPath19">
      <path
         d="M 0,0 H 2225 V 776.65094 H 0 Z"
         transform="matrix(0.33347981,0,0,0.33347981,-260.0625,-134)"
         clip-rule="evenodd"
         id="path19" />
    </clipPath>
    <clipPath
       clipPathUnits="userSpaceOnUse"
       id="clipPath21">
      <path
         d="M 0,0 H 2225 V 776.65094 H 0 Z"
         transform="matrix(0.33348316,0,0,0.33348316,-0.50000001,-0.50000001)"
         clip-rule="evenodd"
         id="path21" />
    </clipPath>
    <clipPath
       clipPathUnits="userSpaceOnUse"
       id="clipPath22">
      <path
         d="M 0,0 H 2225 V 776.65094 H 0 Z"
         transform="matrix(0.33347981,0,0,0.33347981,-520.0625,-134)"
         clip-rule="evenodd"
         id="path22" />
    </clipPath>
    <clipPath
       clipPathUnits="userSpaceOnUse"
       id="clipPath23">
      <path
         d="M 0,0 H 2225 V 776.65094 H 0 Z"
         transform="matrix(0.33347981,0,0,0.33347981,-113.96875,-30)"
         clip-rule="evenodd"
         id="path23" />
    </clipPath>
    <clipPath
       clipPathUnits="userSpaceOnUse"
       id="clipPath24">
      <path
         d="M 0,0 H 2225 V 776.65094 H 0 Z"
         transform="matrix(0.33347981,0,0,0.33347981,-104.625,-58.999999)"
         clip-rule="evenodd"
         id="path24" />
    </clipPath>
    <clipPath
       clipPathUnits="userSpaceOnUse"
       id="clipPath25">
      <path
         d="M 0,0 H 2225 V 776.65094 H 0 Z"
         transform="matrix(0.33347981,0,0,0.33347981,-135.29687,-134)"
         clip-rule="evenodd"
         id="path25" />
    </clipPath>
    <clipPath
       clipPathUnits="userSpaceOnUse"
       id="clipPath27">
      <path
         d="M 0,0 H 2225 V 776.65094 H 0 Z"
         transform="matrix(0.33348316,0,0,0.33348316,-0.50000001,-0.50000001)"
         clip-rule="evenodd"
         id="path27" />
    </clipPath>
    <clipPath
       clipPathUnits="userSpaceOnUse"
       id="clipPath29">
      <path
         d="M 0,0 H 2225 V 776.65094 H 0 Z"
         transform="matrix(0.33348316,0,0,0.33348316,-0.50000001,-0.50000001)"
         clip-rule="evenodd"
         id="path29" />
    </clipPath>
    <clipPath
       clipPathUnits="userSpaceOnUse"
       id="clipPath31">
      <path
         d="M 0,0 H 2225 V 776.65094 H 0 Z"
         transform="matrix(0.33348316,0,0,0.33348316,-0.50000001,-0.50000001)"
         clip-rule="evenodd"
         id="path31" />
    </clipPath>
    <clipPath
       clipPathUnits="userSpaceOnUse"
       id="clipPath33">
      <path
         d="M 0,0 H 2225 V 776.65094 H 0 Z"
         transform="matrix(0.33348316,0,0,0.33348316,-0.50000001,-0.50000001)"
         clip-rule="evenodd"
         id="path33" />
    </clipPath>
    <clipPath
       clipPathUnits="userSpaceOnUse"
       id="clipPath35">
      <path
         d="M 0,0 H 2225 V 776.65094 H 0 Z"
         transform="matrix(0.33348316,0,0,0.33348316,-0.50000001,-0.50000001)"
         clip-rule="evenodd"
         id="path35" />
    </clipPath>
    <clipPath
       clipPathUnits="userSpaceOnUse"
       id="clipPath37">
      <path
         d="M 0,0 H 2225 V 776.65094 H 0 Z"
         transform="matrix(0.33348316,0,0,0.33348316,-0.50000001,-0.50000001)"
         clip-rule="evenodd"
         id="path37" />
    </clipPath>
    <clipPath
       clipPathUnits="userSpaceOnUse"
       id="clipPath38">
      <path
         d="M 0,0 H 2225 V 776.65094 H 0 Z"
         transform="matrix(0.33347981,0,0,0.33347981,-141.64062,-229)"
         clip-rule="evenodd"
         id="path38" />
    </clipPath>
    <clipPath
       clipPathUnits="userSpaceOnUse"
       id="clipPath40">
      <path
         d="M 0,0 H 2225 V 776.65094 H 0 Z"
         transform="matrix(0.33348316,0,0,0.33348316,-0.50000001,-0.50000001)"
         clip-rule="evenodd"
         id="path40" />
    </clipPath>
    <clipPath
       clipPathUnits="userSpaceOnUse"
       id="clipPath42">
      <path
         d="M 0,0 H 2225 V 776.65094 H 0 Z"
         transform="matrix(0.33348316,0,0,0.33348316,-0.50000001,-0.50000001)"
         clip-rule="evenodd"
         id="path42" />
    </clipPath>
    <clipPath
       clipPathUnits="userSpaceOnUse"
       id="clipPath44">
      <path
         d="M 0,0 H 2225 V 776.65094 H 0 Z"
         transform="matrix(0.33348316,0,0,0.33348316,-0.50000001,-0.50000001)"
         clip-rule="evenodd"
         id="path44" />
    </clipPath>
    <clipPath
       clipPathUnits="userSpaceOnUse"
       id="clipPath45">
      <path
         d="M 0,0 H 2225 V 776.65094 H 0 Z"
         transform="matrix(0.33347981,0,0,0.33347981,-209.32813,-229)"
         clip-rule="evenodd"
         id="path45" />
    </clipPath>
    <clipPath
       clipPathUnits="userSpaceOnUse"
       id="clipPath47">
      <path
         d="M 0,0 H 2225 V 776.65094 H 0 Z"
         transform="matrix(0.33348316,0,0,0.33348316,-0.50000001,-0.50000001)"
         clip-rule="evenodd"
         id="path47" />
    </clipPath>
    <clipPath
       clipPathUnits="userSpaceOnUse"
       id="clipPath49">
      <path
         d="M 0,0 H 2225 V 776.65094 H 0 Z"
         transform="matrix(0.33348316,0,0,0.33348316,-0.50000001,-0.50000001)"
         clip-rule="evenodd"
         id="path49" />
    </clipPath>
    <clipPath
       clipPathUnits="userSpaceOnUse"
       id="clipPath51">
      <path
         d="M 0,0 H 2225 V 776.65094 H 0 Z"
         transform="matrix(0.33348316,0,0,0.33348316,-0.50000001,-0.50000001)"
         clip-rule="evenodd"
         id="path51" />
    </clipPath>
    <clipPath
       clipPathUnits="userSpaceOnUse"
       id="clipPath52">
      <path
         d="M 0,0 H 2225 V 776.65094 H 0 Z"
         transform="matrix(0.33347981,0,0,0.33347981,-271.64063,-229)"
         clip-rule="evenodd"
         id="path52" />
    </clipPath>
    <clipPath
       clipPathUnits="userSpaceOnUse"
       id="clipPath54">
      <path
         d="M 0,0 H 2225 V 776.65094 H 0 Z"
         transform="matrix(0.33348316,0,0,0.33348316,-0.50000001,-0.50000001)"
         clip-rule="evenodd"
         id="path54" />
    </clipPath>
    <clipPath
       clipPathUnits="userSpaceOnUse"
       id="clipPath55">
      <path
         d="M 0,0 H 2225 V 776.65094 H 0 Z"
         transform="matrix(0.33347981,0,0,0.33347981,-343.31249,-229)"
         clip-rule="evenodd"
         id="path55" />
    </clipPath>
    <clipPath
       clipPathUnits="userSpaceOnUse"
       id="clipPath57">
      <path
         d="M 0,0 H 2225 V 776.65094 H 0 Z"
         transform="matrix(0.33348316,0,0,0.33348316,-0.50000001,-0.50000001)"
         clip-rule="evenodd"
         id="path57" />
    </clipPath>
    <clipPath
       clipPathUnits="userSpaceOnUse"
       id="clipPath59">
      <path
         d="M 0,0 H 2225 V 776.65094 H 0 Z"
         transform="matrix(0.33348316,0,0,0.33348316,-0.50000001,-0.50000001)"
         clip-rule="evenodd"
         id="path59" />
    </clipPath>
    <clipPath
       clipPathUnits="userSpaceOnUse"
       id="clipPath61">
      <path
         d="M 0,0 H 2225 V 776.65094 H 0 Z"
         transform="matrix(0.33348316,0,0,0.33348316,-0.50000001,-0.50000001)"
         clip-rule="evenodd"
         id="path61" />
    </clipPath>
    <clipPath
       clipPathUnits="userSpaceOnUse"
       id="clipPath63">
      <path
         d="M 0,0 H 2225 V 776.65094 H 0 Z"
         transform="matrix(0.33348316,0,0,0.33348316,-0.50000001,-0.50000001)"
         clip-rule="evenodd"
         id="path63" />
    </clipPath>
    <clipPath
       clipPathUnits="userSpaceOnUse"
       id="clipPath64">
      <path
         d="M 0,0 H 2225 V 776.65094 H 0 Z"
         transform="matrix(0.33347981,0,0,0.33347981,-494.32812,-229)"
         clip-rule="evenodd"
         id="path64" />
    </clipPath>
    <clipPath
       clipPathUnits="userSpaceOnUse"
       id="clipPath66">
      <path
         d="M 0,0 H 2225 V 776.65094 H 0 Z"
         transform="matrix(0.33348316,0,0,0.33348316,-0.50000001,-0.50000001)"
         clip-rule="evenodd"
         id="path66" />
    </clipPath>
    <clipPath
       clipPathUnits="userSpaceOnUse"
       id="clipPath68">
      <path
         d="M 0,0 H 2225 V 776.65094 H 0 Z"
         transform="matrix(0.33348316,0,0,0.33348316,-0.50000001,-0.50000001)"
         clip-rule="evenodd"
         id="path68" />
    </clipPath>
    <clipPath
       clipPathUnits="userSpaceOnUse"
       id="clipPath70">
      <path
         d="M 0,0 H 2225 V 776.65094 H 0 Z"
         transform="matrix(0.33348316,0,0,0.33348316,-0.50000001,-0.50000001)"
         clip-rule="evenodd"
         id="path70" />
    </clipPath>
    <clipPath
       clipPathUnits="userSpaceOnUse"
       id="clipPath71">
      <path
         d="M 0,0 H 2225 V 776.65094 H 0 Z"
         transform="matrix(0.33347981,0,0,0.33347981,-563.3125,-229)"
         clip-rule="evenodd"
         id="path71" />
    </clipPath>
    <clipPath
       clipPathUnits="userSpaceOnUse"
       id="clipPath73">
      <path
         d="M 0,0 H 2225 V 776.65094 H 0 Z"
         transform="matrix(0.33348316,0,0,0.33348316,-0.50000001,-0.50000001)"
         clip-rule="evenodd"
         id="path73" />
    </clipPath>
    <clipPath
       clipPathUnits="userSpaceOnUse"
       id="clipPath75">
      <path
         d="M 0,0 H 2225 V 776.65094 H 0 Z"
         transform="matrix(0.33348316,0,0,0.33348316,-0.50000001,-0.50000001)"
         clip-rule="evenodd"
         id="path75" />
    </clipPath>
    <clipPath
       clipPathUnits="userSpaceOnUse"
       id="clipPath77">
      <path
         d="M 0,0 H 2225 V 776.65094 H 0 Z"
         transform="matrix(0.33348316,0,0,0.33348316,-0.50000001,-0.50000001)"
         clip-rule="evenodd"
         id="path77" />
    </clipPath>
    <clipPath
       clipPathUnits="userSpaceOnUse"
       id="clipPath78">
      <path
         d="M 0,0 H 2225 V 776.65094 H 0 Z"
         transform="matrix(0.33347981,0,0,0.33347981,-621.64063,-229)"
         clip-rule="evenodd"
         id="path78" />
    </clipPath>
    <clipPath
       clipPathUnits="userSpaceOnUse"
       id="clipPath80">
      <path
         d="M 0,0 H 2225 V 776.65094 H 0 Z"
         transform="matrix(0.33348316,0,0,0.33348316,-0.50000001,-0.50000001)"
         clip-rule="evenodd"
         id="path80" />
    </clipPath>
    <clipPath
       clipPathUnits="userSpaceOnUse"
       id="clipPath81">
      <path
         d="M 0,0 H 2225 V 776.65094 H 0 Z"
         transform="matrix(0.33347981,0,0,0.33347981,-686.64063,-229)"
         clip-rule="evenodd"
         id="path81" />
    </clipPath>
    <clipPath
       clipPathUnits="userSpaceOnUse"
       id="clipPath82">
      <path
         d="M 0,0 H 2225 V 776.65094 H 0 Z"
         transform="matrix(0.33347981,0,0,0.33347981,-37.265625,-215)"
         clip-rule="evenodd"
         id="path82" />
    </clipPath>
    <clipPath
       clipPathUnits="userSpaceOnUse"
       id="clipPath83">
      <path
         d="M 0,0 H 2225 V 776.65094 H 0 Z"
         transform="matrix(0.33347981,0,0,0.33347981,-70.640625,-243.99999)"
         clip-rule="evenodd"
         id="path83" />
    </clipPath>
  </defs>
  <sodipodi:namedview
     id="namedview1"
     pagecolor="#ffffff"
     bordercolor="#000000"
     borderopacity="0.25"
     inkscape:showpageshadow="2"
     inkscape:pageopacity="0.0"
     inkscape:pagecheckerboard="0"
     inkscape:deskcolor="#d1d1d1">
    <inkscape:page
       x="0"
       y="0"
       inkscape:label="1"
       id="page1"
       width="712"
       height="249.27998"
       margin="0"
       bleed="0" />
  </sodipodi:namedview>
  <g
     id="g1"
     inkscape:groupmode="layer"
     inkscape:label="1">
    <path
       id="path1"
       d="M 0,0 H 742 V 259 H 0 Z"
       style="fill:#ffffff;fill-opacity:1;fill-rule:nonzero;stroke:none"
       transform="scale(0.95956866)"
       clip-path="url(#clipPath2)" />
    <path
       id="path3"
       d="m 390,36 h 73.64001"
       style="fill:none;stroke:#000000;stroke-width:1;stroke-linecap:butt;stroke-linejoin:miter;stroke-miterlimit:10;stroke-dasharray:none;stroke-opacity:1"
       transform="matrix(0.95956866,0,0,0.95956866,0.47978434,0.47978434)"
       clip-path="url(#clipPath4)" />
    <path
       id="path5"
       d="m 468.89001,36 -7,3.5 1.75,-3.5 -1.75,-3.5 z"
       style="fill:#000000;fill-opacity:1;fill-rule:nonzero;stroke:#000000;stroke-width:1;stroke-linecap:butt;stroke-linejoin:miter;stroke-miterlimit:10;stroke-dasharray:none;stroke-opacity:1"
       transform="matrix(0.95956866,0,0,0.95956866,0.47978434,0.47978434)"
       clip-path="url(#clipPath6)" />
    <path
       id="path7"
       d="M 210,1 H 390 V 71 H 210 Z"
       style="fill:#ffffff;fill-opacity:1;fill-rule:nonzero;stroke:#000000;stroke-width:1;stroke-linecap:butt;stroke-linejoin:miter;stroke-miterlimit:10;stroke-dasharray:none;stroke-opacity:1"
       transform="matrix(0.95956866,0,0,0.95956866,0.47978434,0.47978434)"
       clip-path="url(#clipPath8)" />
    <text
       id="text8"
       xml:space="preserve"
       transform="matrix(0.9595783,0,0,0.9595783,220.01331,42.221445)"
       clip-path="url(#clipPath9)"><tspan
         style="font-variant:normal;font-weight:normal;font-size:24px;font-family:Helvetica;writing-mode:lr-tb;fill:#000000;fill-opacity:1;fill-rule:nonzero;stroke:none"
         x="0 6.6679688 20.015625 33.363281 40.03125 46.699219 60.046875 66.714844 73.382812 86.730469 100.07812 106.74609 113.41406 121.40625 134.75391"
         y="0"
         sodipodi:role="line"
         id="tspan8">[10, 5, 18, -3]</tspan></text>
    <path
       id="path10"
       d="M 470,1 H 650 V 71 H 470 Z"
       style="fill:#ffffff;fill-opacity:1;fill-rule:nonzero;stroke:#000000;stroke-width:1;stroke-linecap:butt;stroke-linejoin:miter;stroke-miterlimit:10;stroke-dasharray:none;stroke-opacity:1"
       transform="matrix(0.95956866,0,0,0.95956866,0.47978434,0.47978434)"
       clip-path="url(#clipPath11)" />
    <text
       id="text11"
       xml:space="preserve"
       transform="matrix(0.9595783,0,0,0.9595783,469.50367,42.221445)"
       clip-path="url(#clipPath12)"><tspan
         style="font-variant:normal;font-weight:normal;font-size:24px;font-family:Helvetica;writing-mode:lr-tb;fill:#000000;fill-opacity:1;fill-rule:nonzero;stroke:none"
         x="0 6.6679688 14.660156 28.007812 34.675781 41.34375 54.691406 61.359375 68.027344 81.375 94.722656 101.39062 108.05859 121.40625 134.75391"
         y="0"
         sodipodi:role="line"
         id="tspan11">[-3, 5, 10, 18]</tspan></text>
    <path
       id="path13"
       d="m 390,126 h 73.64001"
       style="fill:none;stroke:#000000;stroke-width:1;stroke-linecap:butt;stroke-linejoin:miter;stroke-miterlimit:10;stroke-dasharray:none;stroke-opacity:1"
       transform="matrix(0.95956866,0,0,0.95956866,0.47978434,0.47978434)"
       clip-path="url(#clipPath14)" />
    <path
       id="path15"
       d="m 468.89001,126 -7,3.5 1.75,-3.5 -1.75,-3.5 z"
       style="fill:#000000;fill-opacity:1;fill-rule:nonzero;stroke:#000000;stroke-width:1;stroke-linecap:butt;stroke-linejoin:miter;stroke-miterlimit:10;stroke-dasharray:none;stroke-opacity:1"
       transform="matrix(0.95956866,0,0,0.95956866,0.47978434,0.47978434)"
       clip-path="url(#clipPath16)" />
    <path
       id="path17"
       d="m 210,91 h 180 v 70 H 210 Z"
       style="fill:#ffffff;fill-opacity:1;fill-rule:nonzero;stroke:#000000;stroke-width:1;stroke-linecap:butt;stroke-linejoin:miter;stroke-miterlimit:10;stroke-dasharray:none;stroke-opacity:1"
       transform="matrix(0.95956866,0,0,0.95956866,0.47978434,0.47978434)"
       clip-path="url(#clipPath18)" />
    <text
       id="text18"
       xml:space="preserve"
       transform="matrix(0.9595783,0,0,0.9595783,249.55033,128.58349)"
       clip-path="url(#clipPath19)"><tspan
         style="font-variant:normal;font-weight:normal;font-size:24px;font-family:Helvetica;writing-mode:lr-tb;fill:#000000;fill-opacity:1;fill-rule:nonzero;stroke:none"
         x="0 4.5820312 20.589844 33.9375 47.285156 59.285156 75.292969"
         y="0"
         sodipodi:role="line"
         id="tspan18">'PoaJB'</tspan></text>
    <path
       id="path20"
       d="m 470,91 h 180 v 70 H 470 Z"
       style="fill:#ffffff;fill-opacity:1;fill-rule:nonzero;stroke:#000000;stroke-width:1;stroke-linecap:butt;stroke-linejoin:miter;stroke-miterlimit:10;stroke-dasharray:none;stroke-opacity:1"
       transform="matrix(0.95956866,0,0,0.95956866,0.47978434,0.47978434)"
       clip-path="url(#clipPath21)" />
    <text
       id="text21"
       xml:space="preserve"
       transform="matrix(0.9595783,0,0,0.9595783,499.04069,128.58349)"
       clip-path="url(#clipPath22)"><tspan
         style="font-variant:normal;font-weight:normal;font-size:24px;font-family:Helvetica;writing-mode:lr-tb;fill:#000000;fill-opacity:1;fill-rule:nonzero;stroke:none"
         x="0 4.5820312 17.929688 33.9375 45.9375 59.285156 75.292969"
         y="0"
         sodipodi:role="line"
         id="tspan21">'aBJoP'</tspan></text>
    <text
       id="text22"
       xml:space="preserve"
       transform="matrix(0.9595783,0,0,0.9595783,109.36194,28.787349)"
       clip-path="url(#clipPath23)"><tspan
         style="font-variant:normal;font-weight:normal;font-size:24px;font-family:Helvetica;writing-mode:lr-tb;fill:#000000;fill-opacity:1;fill-rule:nonzero;stroke:none"
         x="0 16.007812 24 31.992188 45.339844 57.339844 64.007812 77.355469"
         y="0"
         sodipodi:role="line"
         id="tspan22">Array of</tspan></text>
    <text
       id="text23"
       xml:space="preserve"
       transform="matrix(0.9595783,0,0,0.9595783,100.39588,56.615119)"
       clip-path="url(#clipPath24)"><tspan
         style="font-variant:normal;font-weight:normal;font-size:24px;font-family:Helvetica;writing-mode:lr-tb;fill:#000000;fill-opacity:1;fill-rule:nonzero;stroke:none"
         x="0 13.347656 26.695312 46.6875 60.035156 73.382812 81.375"
         y="0"
         sodipodi:role="line"
         id="tspan23">numbers</tspan></text>
    <text
       id="text24"
       xml:space="preserve"
       transform="matrix(0.9595783,0,0,0.9595783,129.82794,128.58349)"
       clip-path="url(#clipPath25)"><tspan
         style="font-variant:normal;font-weight:normal;font-size:24px;font-family:Helvetica;writing-mode:lr-tb;fill:#000000;fill-opacity:1;fill-rule:nonzero;stroke:none"
         x="0 16.007812 22.675781 30.667969 36 49.347656"
         y="0"
         sodipodi:role="line"
         id="tspan24">String</tspan></text>
    <path
       id="path26"
       d="m 390,221 h 73.64001"
       style="fill:none;stroke:#000000;stroke-width:1;stroke-linecap:butt;stroke-linejoin:miter;stroke-miterlimit:10;stroke-dasharray:none;stroke-opacity:1"
       transform="matrix(0.95956866,0,0,0.95956866,0.47978434,0.47978434)"
       clip-path="url(#clipPath27)" />
    <path
       id="path28"
       d="m 468.89001,221 -7,3.5 1.75,-3.5 -1.75,-3.5 z"
       style="fill:#000000;fill-opacity:1;fill-rule:nonzero;stroke:#000000;stroke-width:1;stroke-linecap:butt;stroke-linejoin:miter;stroke-miterlimit:10;stroke-dasharray:none;stroke-opacity:1"
       transform="matrix(0.95956866,0,0,0.95956866,0.47978434,0.47978434)"
       clip-path="url(#clipPath29)" />
    <path
       id="path30"
       d="m 120,186 h 270 v 70 H 120 Z"
       style="fill:#ffffff;fill-opacity:1;fill-rule:nonzero;stroke:#000000;stroke-width:1;stroke-linecap:butt;stroke-linejoin:miter;stroke-miterlimit:10;stroke-dasharray:none;stroke-opacity:1"
       transform="matrix(0.95956866,0,0,0.95956866,0.47978434,0.47978434)"
       clip-path="url(#clipPath31)" />
    <path
       id="path32"
       d="m 175,221 h 18.63"
       style="fill:none;stroke:#000000;stroke-width:1;stroke-linecap:butt;stroke-linejoin:miter;stroke-miterlimit:10;stroke-dasharray:none;stroke-opacity:1"
       transform="matrix(0.95956866,0,0,0.95956866,0.47978434,0.47978434)"
       clip-path="url(#clipPath33)" />
    <path
       id="path34"
       d="m 198.88,221 -7,3.5 1.75,-3.5 -1.75,-3.5 z"
       style="fill:#000000;fill-opacity:1;fill-rule:nonzero;stroke:#000000;stroke-width:1;stroke-linecap:butt;stroke-linejoin:miter;stroke-miterlimit:10;stroke-dasharray:none;stroke-opacity:1"
       transform="matrix(0.95956866,0,0,0.95956866,0.47978434,0.47978434)"
       clip-path="url(#clipPath35)" />
    <path
       id="path36"
       d="m 135,201 h 40 v 40 h -40 z"
       style="fill:#ffffff;fill-opacity:1;fill-rule:nonzero;stroke:#000000;stroke-width:1;stroke-linecap:butt;stroke-linejoin:miter;stroke-miterlimit:10;stroke-dasharray:none;stroke-opacity:1"
       transform="matrix(0.95956866,0,0,0.95956866,0.47978434,0.47978434)"
       clip-path="url(#clipPath37)" />
    <text
       id="text37"
       xml:space="preserve"
       transform="matrix(0.9595783,0,0,0.9595783,135.91527,219.74343)"
       clip-path="url(#clipPath38)"><tspan
         style="font-variant:normal;font-weight:normal;font-size:24px;font-family:Helvetica;writing-mode:lr-tb;fill:#000000;fill-opacity:1;fill-rule:nonzero;stroke:none"
         x="0 13.347656"
         y="0"
         sodipodi:role="line"
         id="tspan37">10</tspan></text>
    <path
       id="path39"
       d="m 240,221 h 18.63"
       style="fill:none;stroke:#000000;stroke-width:1;stroke-linecap:butt;stroke-linejoin:miter;stroke-miterlimit:10;stroke-dasharray:none;stroke-opacity:1"
       transform="matrix(0.95956866,0,0,0.95956866,0.47978434,0.47978434)"
       clip-path="url(#clipPath40)" />
    <path
       id="path41"
       d="m 263.88,221 -7,3.5 1.75,-3.5 -1.75,-3.5 z"
       style="fill:#000000;fill-opacity:1;fill-rule:nonzero;stroke:#000000;stroke-width:1;stroke-linecap:butt;stroke-linejoin:miter;stroke-miterlimit:10;stroke-dasharray:none;stroke-opacity:1"
       transform="matrix(0.95956866,0,0,0.95956866,0.47978434,0.47978434)"
       clip-path="url(#clipPath42)" />
    <path
       id="path43"
       d="m 200,201 h 40 v 40 h -40 z"
       style="fill:#ffffff;fill-opacity:1;fill-rule:nonzero;stroke:#000000;stroke-width:1;stroke-linecap:butt;stroke-linejoin:miter;stroke-miterlimit:10;stroke-dasharray:none;stroke-opacity:1"
       transform="matrix(0.95956866,0,0,0.95956866,0.47978434,0.47978434)"
       clip-path="url(#clipPath44)" />
    <text
       id="text44"
       xml:space="preserve"
       transform="matrix(0.9595783,0,0,0.9595783,200.86673,219.74343)"
       clip-path="url(#clipPath45)"><tspan
         style="font-variant:normal;font-weight:normal;font-size:24px;font-family:Helvetica;writing-mode:lr-tb;fill:#000000;fill-opacity:1;fill-rule:nonzero;stroke:none"
         x="0 7.9921875"
         y="0"
         sodipodi:role="line"
         id="tspan44">-3</tspan></text>
    <path
       id="path46"
       d="m 305,221 h 18.64001"
       style="fill:none;stroke:#000000;stroke-width:1;stroke-linecap:butt;stroke-linejoin:miter;stroke-miterlimit:10;stroke-dasharray:none;stroke-opacity:1"
       transform="matrix(0.95956866,0,0,0.95956866,0.47978434,0.47978434)"
       clip-path="url(#clipPath47)" />
    <path
       id="path48"
       d="m 328.89001,221 -7,3.5 1.75,-3.5 -1.75,-3.5 z"
       style="fill:#000000;fill-opacity:1;fill-rule:nonzero;stroke:#000000;stroke-width:1;stroke-linecap:butt;stroke-linejoin:miter;stroke-miterlimit:10;stroke-dasharray:none;stroke-opacity:1"
       transform="matrix(0.95956866,0,0,0.95956866,0.47978434,0.47978434)"
       clip-path="url(#clipPath49)" />
    <path
       id="path50"
       d="m 265,201 h 40 v 40 h -40 z"
       style="fill:#ffffff;fill-opacity:1;fill-rule:nonzero;stroke:#000000;stroke-width:1;stroke-linecap:butt;stroke-linejoin:miter;stroke-miterlimit:10;stroke-dasharray:none;stroke-opacity:1"
       transform="matrix(0.95956866,0,0,0.95956866,0.47978434,0.47978434)"
       clip-path="url(#clipPath51)" />
    <text
       id="text51"
       xml:space="preserve"
       transform="matrix(0.9595783,0,0,0.9595783,260.66045,219.74343)"
       clip-path="url(#clipPath52)"><tspan
         style="font-variant:normal;font-weight:normal;font-size:24px;font-family:Helvetica;writing-mode:lr-tb;fill:#000000;fill-opacity:1;fill-rule:nonzero;stroke:none"
         x="0 13.347656"
         y="0"
         sodipodi:role="line"
         id="tspan51">27</tspan></text>
    <path
       id="path53"
       d="m 330,201 h 40 v 40 h -40 z"
       style="fill:#ffffff;fill-opacity:1;fill-rule:nonzero;stroke:#000000;stroke-width:1;stroke-linecap:butt;stroke-linejoin:miter;stroke-miterlimit:10;stroke-dasharray:none;stroke-opacity:1"
       transform="matrix(0.95956866,0,0,0.95956866,0.47978434,0.47978434)"
       clip-path="url(#clipPath54)" />
    <text
       id="text54"
       xml:space="preserve"
       transform="matrix(0.9595783,0,0,0.9595783,329.43522,219.74343)"
       clip-path="url(#clipPath55)"><tspan
         style="font-variant:normal;font-weight:normal;font-size:24px;font-family:Helvetica;writing-mode:lr-tb;fill:#000000;fill-opacity:1;fill-rule:nonzero;stroke:none"
         x="0"
         y="0"
         id="tspan54">5</tspan></text>
    <path
       id="path56"
       d="m 470,186 h 270 v 70 H 470 Z"
       style="fill:#ffffff;fill-opacity:1;fill-rule:nonzero;stroke:#000000;stroke-width:1;stroke-linecap:butt;stroke-linejoin:miter;stroke-miterlimit:10;stroke-dasharray:none;stroke-opacity:1"
       transform="matrix(0.95956866,0,0,0.95956866,0.47978434,0.47978434)"
       clip-path="url(#clipPath57)" />
    <path
       id="path58"
       d="m 525.01001,221 h 18.63"
       style="fill:none;stroke:#000000;stroke-width:1;stroke-linecap:butt;stroke-linejoin:miter;stroke-miterlimit:10;stroke-dasharray:none;stroke-opacity:1"
       transform="matrix(0.95956866,0,0,0.95956866,0.47978434,0.47978434)"
       clip-path="url(#clipPath59)" />
    <path
       id="path60"
       d="m 548.89001,221 -7,3.5 1.75,-3.5 -1.75,-3.5 z"
       style="fill:#000000;fill-opacity:1;fill-rule:nonzero;stroke:#000000;stroke-width:1;stroke-linecap:butt;stroke-linejoin:miter;stroke-miterlimit:10;stroke-dasharray:none;stroke-opacity:1"
       transform="matrix(0.95956866,0,0,0.95956866,0.47978434,0.47978434)"
       clip-path="url(#clipPath61)" />
    <path
       id="path62"
       d="m 485,201 h 40 v 40 h -40 z"
       style="fill:#ffffff;fill-opacity:1;fill-rule:nonzero;stroke:#000000;stroke-width:1;stroke-linecap:butt;stroke-linejoin:miter;stroke-miterlimit:10;stroke-dasharray:none;stroke-opacity:1"
       transform="matrix(0.95956866,0,0,0.95956866,0.47978434,0.47978434)"
       clip-path="url(#clipPath63)" />
    <text
       id="text63"
       xml:space="preserve"
       transform="matrix(0.9595783,0,0,0.9595783,474.34654,219.74343)"
       clip-path="url(#clipPath64)"><tspan
         style="font-variant:normal;font-weight:normal;font-size:24px;font-family:Helvetica;writing-mode:lr-tb;fill:#000000;fill-opacity:1;fill-rule:nonzero;stroke:none"
         x="0 7.9921875"
         y="0"
         sodipodi:role="line"
         id="tspan63">-3</tspan></text>
    <path
       id="path65"
       d="m 590.01001,221 h 18.63"
       style="fill:none;stroke:#000000;stroke-width:1;stroke-linecap:butt;stroke-linejoin:miter;stroke-miterlimit:10;stroke-dasharray:none;stroke-opacity:1"
       transform="matrix(0.95956866,0,0,0.95956866,0.47978434,0.47978434)"
       clip-path="url(#clipPath66)" />
    <path
       id="path67"
       d="m 613.89001,221 -7,3.5 1.75,-3.5 -1.75,-3.5 z"
       style="fill:#000000;fill-opacity:1;fill-rule:nonzero;stroke:#000000;stroke-width:1;stroke-linecap:butt;stroke-linejoin:miter;stroke-miterlimit:10;stroke-dasharray:none;stroke-opacity:1"
       transform="matrix(0.95956866,0,0,0.95956866,0.47978434,0.47978434)"
       clip-path="url(#clipPath68)" />
    <path
       id="path69"
       d="m 550.01001,201 h 40 v 40 h -40 z"
       style="fill:#ffffff;fill-opacity:1;fill-rule:nonzero;stroke:#000000;stroke-width:1;stroke-linecap:butt;stroke-linejoin:miter;stroke-miterlimit:10;stroke-dasharray:none;stroke-opacity:1"
       transform="matrix(0.95956866,0,0,0.95956866,0.47978434,0.47978434)"
       clip-path="url(#clipPath70)" />
    <text
       id="text70"
       xml:space="preserve"
       transform="matrix(0.9595783,0,0,0.9595783,540.54245,219.74343)"
       clip-path="url(#clipPath71)"><tspan
         style="font-variant:normal;font-weight:normal;font-size:24px;font-family:Helvetica;writing-mode:lr-tb;fill:#000000;fill-opacity:1;fill-rule:nonzero;stroke:none"
         x="0"
         y="0"
         id="tspan70">5</tspan></text>
    <path
       id="path72"
       d="m 655.01001,221 h 18.63"
       style="fill:none;stroke:#000000;stroke-width:1;stroke-linecap:butt;stroke-linejoin:miter;stroke-miterlimit:10;stroke-dasharray:none;stroke-opacity:1"
       transform="matrix(0.95956866,0,0,0.95956866,0.47978434,0.47978434)"
       clip-path="url(#clipPath73)" />
    <path
       id="path74"
       d="m 678.89001,221 -7,3.5 1.75,-3.5 -1.75,-3.5 z"
       style="fill:#000000;fill-opacity:1;fill-rule:nonzero;stroke:#000000;stroke-width:1;stroke-linecap:butt;stroke-linejoin:miter;stroke-miterlimit:10;stroke-dasharray:none;stroke-opacity:1"
       transform="matrix(0.95956866,0,0,0.95956866,0.47978434,0.47978434)"
       clip-path="url(#clipPath75)" />
    <path
       id="path76"
       d="m 615.01001,201 h 40 v 40 h -40 z"
       style="fill:#ffffff;fill-opacity:1;fill-rule:nonzero;stroke:#000000;stroke-width:1;stroke-linecap:butt;stroke-linejoin:miter;stroke-miterlimit:10;stroke-dasharray:none;stroke-opacity:1"
       transform="matrix(0.95956866,0,0,0.95956866,0.47978434,0.47978434)"
       clip-path="url(#clipPath77)" />
    <text
       id="text77"
       xml:space="preserve"
       transform="matrix(0.9595783,0,0,0.9595783,596.51286,219.74343)"
       clip-path="url(#clipPath78)"><tspan
         style="font-variant:normal;font-weight:normal;font-size:24px;font-family:Helvetica;writing-mode:lr-tb;fill:#000000;fill-opacity:1;fill-rule:nonzero;stroke:none"
         x="0 13.347656"
         y="0"
         sodipodi:role="line"
         id="tspan77">10</tspan></text>
    <path
       id="path79"
       d="m 680.01001,201 h 40 v 40 h -40 z"
       style="fill:#ffffff;fill-opacity:1;fill-rule:nonzero;stroke:#000000;stroke-width:1;stroke-linecap:butt;stroke-linejoin:miter;stroke-miterlimit:10;stroke-dasharray:none;stroke-opacity:1"
       transform="matrix(0.95956866,0,0,0.95956866,0.47978434,0.47978434)"
       clip-path="url(#clipPath80)" />
    <text
       id="text80"
       xml:space="preserve"
       transform="matrix(0.9595783,0,0,0.9595783,658.88545,219.74343)"
       clip-path="url(#clipPath81)"><tspan
         style="font-variant:normal;font-weight:normal;font-size:24px;font-family:Helvetica;writing-mode:lr-tb;fill:#000000;fill-opacity:1;fill-rule:nonzero;stroke:none"
         x="0 13.347656"
         y="0"
         sodipodi:role="line"
         id="tspan80">27</tspan></text>
    <text
       id="text81"
       xml:space="preserve"
       transform="matrix(0.9595783,0,0,0.9595783,35.759285,206.30933)"
       clip-path="url(#clipPath82)"><tspan
         style="font-variant:normal;font-weight:normal;font-size:24px;font-family:Helvetica;writing-mode:lr-tb;fill:#000000;fill-opacity:1;fill-rule:nonzero;stroke:none"
         x="0 13.347656 18.679688 32.027344 44.027344 57.375"
         y="0"
         sodipodi:role="line"
         id="tspan81">Linked</tspan></text>
    <text
       id="text82"
       xml:space="preserve"
       transform="matrix(0.9595783,0,0,0.9595783,67.785211,234.1371)"
       clip-path="url(#clipPath83)"><tspan
         style="font-variant:normal;font-weight:normal;font-size:24px;font-family:Helvetica;writing-mode:lr-tb;fill:#000000;fill-opacity:1;fill-rule:nonzero;stroke:none"
         x="0 13.347656 18.679688 30.679688"
         y="0"
         sodipodi:role="line"
         id="tspan82">List</tspan></text>
  </g>
</svg>
