<?xml version="1.0" encoding="UTF-8" standalone="no"?>
<!-- Created with Inkscape (http://www.inkscape.org/) -->

<svg
   version="1.1"
   id="svg1"
   width="473.28"
   height="302.72"
   viewBox="0 0 473.28 302.72"
   sodipodi:docname="ts-16.pdf"
   xmlns:inkscape="http://www.inkscape.org/namespaces/inkscape"
   xmlns:sodipodi="http://sodipodi.sourceforge.net/DTD/sodipodi-0.dtd"
   xmlns="http://www.w3.org/2000/svg"
   xmlns:svg="http://www.w3.org/2000/svg">
  <defs
     id="defs1">
    <clipPath
       clipPathUnits="userSpaceOnUse"
       id="clipPath2">
      <path
         d="M 0,0 H 1479.1666 V 943.1933 H 0 Z"
         transform="scale(0.33397184)"
         clip-rule="evenodd"
         id="path2" />
    </clipPath>
    <clipPath
       clipPathUnits="userSpaceOnUse"
       id="clipPath4">
      <path
         d="M 0,0 H 1479.1666 V 940.19904 H 0 Z"
         transform="matrix(0.33397184,0,0,0.33397184,-0.49999999,-0.49999999)"
         clip-rule="evenodd"
         id="path4" />
    </clipPath>
    <clipPath
       clipPathUnits="userSpaceOnUse"
       id="clipPath6">
      <path
         d="M 0,0 H 1479.1666 V 940.19904 H 0 Z"
         transform="matrix(0.33397184,0,0,0.33397184,-0.49999999,-0.49999999)"
         clip-rule="evenodd"
         id="path6" />
    </clipPath>
    <clipPath
       clipPathUnits="userSpaceOnUse"
       id="clipPath8">
      <path
         d="M 0,0 H 1479.1666 V 940.19904 H 0 Z"
         transform="matrix(0.33397184,0,0,-0.33397184,-0.49999999,72.500001)"
         clip-rule="evenodd"
         id="path8" />
    </clipPath>
    <clipPath
       clipPathUnits="userSpaceOnUse"
       id="clipPath9">
      <path
         d="M 0,0 H 1479.1666 V 940.19904 H 0 Z"
         transform="matrix(0.3339685,0,0,0.3339685,-32.890625,-43)"
         clip-rule="evenodd"
         id="path9" />
    </clipPath>
    <clipPath
       clipPathUnits="userSpaceOnUse"
       id="clipPath11">
      <path
         d="M 0,0 H 1479.1666 V 940.19904 H 0 Z"
         transform="matrix(0.33397184,0,0,0.33397184,-0.49999999,-0.49999999)"
         clip-rule="evenodd"
         id="path11" />
    </clipPath>
    <clipPath
       clipPathUnits="userSpaceOnUse"
       id="clipPath13">
      <path
         d="M 0,0 H 1479.1666 V 940.19904 H 0 Z"
         transform="matrix(0.33397184,0,0,0.33397184,-0.49999999,-0.49999999)"
         clip-rule="evenodd"
         id="path13" />
    </clipPath>
    <clipPath
       clipPathUnits="userSpaceOnUse"
       id="clipPath15">
      <path
         d="M 0,0 H 1479.1666 V 940.19904 H 0 Z"
         transform="matrix(0.33397184,0,0,-0.33397184,-0.49999999,312.5)"
         clip-rule="evenodd"
         id="path15" />
    </clipPath>
    <clipPath
       clipPathUnits="userSpaceOnUse"
       id="clipPath16">
      <path
         d="M 0,0 H 1479.1666 V 940.19904 H 0 Z"
         transform="matrix(0.3339685,0,0,0.3339685,-103.51562,-163)"
         clip-rule="evenodd"
         id="path16" />
    </clipPath>
    <clipPath
       clipPathUnits="userSpaceOnUse"
       id="clipPath18">
      <path
         d="M 0,0 H 1479.1666 V 940.19904 H 0 Z"
         transform="matrix(0.33397184,0,0,-0.33397184,-0.49999999,552.49998)"
         clip-rule="evenodd"
         id="path18" />
    </clipPath>
    <clipPath
       clipPathUnits="userSpaceOnUse"
       id="clipPath19">
      <path
         d="M 0,0 H 1479.1666 V 940.19904 H 0 Z"
         transform="matrix(0.3339685,0,0,0.3339685,-13.515625,-272)"
         clip-rule="evenodd"
         id="path19" />
    </clipPath>
    <clipPath
       clipPathUnits="userSpaceOnUse"
       id="clipPath20">
      <path
         d="M 0,0 H 1479.1666 V 940.19904 H 0 Z"
         transform="matrix(0.3339685,0,0,0.3339685,-89.390625,-294)"
         clip-rule="evenodd"
         id="path20" />
    </clipPath>
  </defs>
  <sodipodi:namedview
     id="namedview1"
     pagecolor="#ffffff"
     bordercolor="#000000"
     borderopacity="0.25"
     inkscape:showpageshadow="2"
     inkscape:pageopacity="0.0"
     inkscape:pagecheckerboard="0"
     inkscape:deskcolor="#d1d1d1">
    <inkscape:page
       x="0"
       y="0"
       inkscape:label="1"
       id="page1"
       width="473.28"
       height="302.72"
       margin="0"
       bleed="0" />
  </sodipodi:namedview>
  <g
     id="g1"
     inkscape:groupmode="layer"
     inkscape:label="1">
    <path
       id="path1"
       d="M 0,0 H 494 V 315 H 0 Z"
       style="fill:#ffffff;fill-opacity:1;fill-rule:nonzero;stroke:none"
       transform="scale(0.95816457)"
       clip-path="url(#clipPath2)" />
    <path
       id="path3"
       d="m 246,71 v 43.63"
       style="fill:none;stroke:#000000;stroke-width:1;stroke-linecap:butt;stroke-linejoin:miter;stroke-miterlimit:10;stroke-dasharray:none;stroke-opacity:1"
       transform="matrix(0.95816457,0,0,0.95816457,0.47908228,0.47908228)"
       clip-path="url(#clipPath4)" />
    <path
       id="path5"
       d="m 246,119.88 -3.5,-7 3.5,1.75 3.5,-1.75 z"
       style="fill:#000000;fill-opacity:1;fill-rule:nonzero;stroke:#000000;stroke-width:1;stroke-linecap:butt;stroke-linejoin:miter;stroke-miterlimit:10;stroke-dasharray:none;stroke-opacity:1"
       transform="matrix(0.95816457,0,0,0.95816457,0.47908228,0.47908228)"
       clip-path="url(#clipPath6)" />
    <path
       id="path7"
       d="M 1,1 H 491 V 71 H 1 Z"
       style="fill:#ffffff;fill-opacity:1;fill-rule:nonzero;stroke:#000000;stroke-width:1;stroke-linecap:butt;stroke-linejoin:miter;stroke-miterlimit:10;stroke-dasharray:none;stroke-opacity:1"
       transform="matrix(0.95816457,0,0,-0.95816457,0.47908228,69.466932)"
       clip-path="url(#clipPath8)" />
    <text
       id="text8"
       xml:space="preserve"
       transform="matrix(0.95817417,0,0,0.95817417,31.514947,41.201489)"
       clip-path="url(#clipPath9)"><tspan
         style="font-variant:normal;font-weight:normal;font-size:18px;font-family:Helvetica;writing-mode:lr-tb;fill:#000000;fill-opacity:1;fill-rule:nonzero;stroke:none"
         x="0 10.995117 21.005859 25.004883 34.004883 39.005859 48.005859 52.004883 62.015625 72.026367 82.037109 87.038086 100.03711 104.03613 108.03516 112.03418 117.03516 122.03613 132.04688 141.04688 151.05762 160.05762 165.05859 175.06934 185.08008 190.08105 195.08203 205.09277 215.10352 220.10449 224.10352 228.10254 238.11328 247.11328 257.12402 267.13477 272.13574 276.13477 280.13379 289.13379 294.13477 299.13574 303.13477 318.12891 328.13965 332.13867 342.14941 357.14355 367.1543 377.16504 382.16602 392.17676 397.17773 401.17676 411.1875 421.19824"
         y="0"
         sodipodi:role="line"
         id="tspan8">This video will focus on the linked list implementation.</tspan></text>
    <path
       id="path10"
       d="m 246,191 v 43.63"
       style="fill:none;stroke:#000000;stroke-width:1;stroke-linecap:butt;stroke-linejoin:miter;stroke-miterlimit:10;stroke-dasharray:none;stroke-opacity:1"
       transform="matrix(0.95816457,0,0,0.95816457,0.47908228,0.47908228)"
       clip-path="url(#clipPath11)" />
    <path
       id="path12"
       d="m 246,239.88 -3.5,-7 3.5,1.75 3.5,-1.75 z"
       style="fill:#000000;fill-opacity:1;fill-rule:nonzero;stroke:#000000;stroke-width:1;stroke-linecap:butt;stroke-linejoin:miter;stroke-miterlimit:10;stroke-dasharray:none;stroke-opacity:1"
       transform="matrix(0.95816457,0,0,0.95816457,0.47908228,0.47908228)"
       clip-path="url(#clipPath13)" />
    <path
       id="path14"
       d="m 1,121 h 490 v 70 H 1 Z"
       style="fill:#ffffff;fill-opacity:1;fill-rule:nonzero;stroke:#000000;stroke-width:1;stroke-linecap:butt;stroke-linejoin:miter;stroke-miterlimit:10;stroke-dasharray:none;stroke-opacity:1"
       transform="matrix(0.95816457,0,0,-0.95816457,0.47908228,299.42643)"
       clip-path="url(#clipPath15)" />
    <text
       id="text15"
       xml:space="preserve"
       transform="matrix(0.95817417,0,0,0.95817417,99.185998,156.18239)"
       clip-path="url(#clipPath16)"><tspan
         style="font-variant:normal;font-weight:normal;font-size:18px;font-family:Helvetica;writing-mode:lr-tb;fill:#000000;fill-opacity:1;fill-rule:nonzero;stroke:none"
         x="0 5.0009766 10.001953 15.00293 28.001953 38.012695 48.023438 51.459961 56.460938 61.461914 71.472656 81.483398 90.483398 100.49414 105.49512 115.50586 120.50684 124.50586 134.5166 139.51758 144.51855 154.5293 159.53027 164.21484 174.22559 183.22559 193.23633 203.24707 212.24707 221.24707 227.24121 231.24023 241.25098 246.25195 251.25293 260.25293 265.25391 275.26465 279.94922"
         y="0"
         sodipodi:role="line"
         id="tspan15">It won't have a lot of Typescript stuff</tspan></text>
    <path
       id="path17"
       d="m 1,241 h 490 v 70 H 1 Z"
       style="fill:#ffffff;fill-opacity:1;fill-rule:nonzero;stroke:#000000;stroke-width:1;stroke-linecap:butt;stroke-linejoin:miter;stroke-miterlimit:10;stroke-dasharray:none;stroke-opacity:1"
       transform="matrix(0.95816457,0,0,-0.95816457,0.47908228,529.38591)"
       clip-path="url(#clipPath18)" />
    <text
       id="text18"
       xml:space="preserve"
       transform="matrix(0.95817417,0,0,0.95817417,12.950323,260.62337)"
       clip-path="url(#clipPath19)"><tspan
         style="font-variant:normal;font-weight:normal;font-size:18px;font-family:Helvetica;writing-mode:lr-tb;fill:#000000;fill-opacity:1;fill-rule:nonzero;stroke:none"
         x="0 5.0009766 10.001953 15.00293 24.00293 34.013672 44.024414 49.025391 62.024414 72.035156 82.045898 87.046875 92.047852 97.048828 107.05957 112.06055 117.06152 127.07227 136.07227 146.08301 155.08301 160.08398 170.09473 180.10547 184.79004 194.80078 203.80078 213.81152 223.82227 232.82227 241.82227 247.81641 251.81543 261.82617 266.82715 271.82812 276.8291 281.83008 291.84082 301.85156 311.8623 316.86328 325.86328 334.86328 338.8623 348.87305 353.87402 358.875 368.88574 372.88477 381.88477 386.88574 395.88574 399.88477 409.89551 419.90625 429.91699 434.91797 444.92871 454.93945"
         y="0"
         sodipodi:role="line"
         id="tspan18">If you want to focus on Typescript, then skip this video and</tspan></text>
    <text
       id="text19"
       xml:space="preserve"
       transform="matrix(0.95817417,0,0,0.95817417,85.651788,281.70321)"
       clip-path="url(#clipPath20)"><tspan
         style="font-variant:normal;font-weight:normal;font-size:18px;font-family:Helvetica;writing-mode:lr-tb;fill:#000000;fill-opacity:1;fill-rule:nonzero;stroke:none"
         x="0 9 19.010742 29.021484 38.021484 43.022461 53.033203 63.043945 72.043945 77.044922 87.055664 92.056641 97.057617 107.06836 117.0791 122.08008 131.08008 141.09082 151.10156 161.1123 166.11328 170.1123 180.12305 185.12402 190.125 200.13574 210.14648 215.14746 225.1582 235.16895 244.16895 249.16992 254.1709 258.16992 268.18066 277.18066 282.18164 292.19238 298.18652 308.19727"
         y="0"
         sodipodi:role="line"
         id="tspan19">copy paste the code in the next lecture!</tspan></text>
  </g>
</svg>
