<?xml version="1.0" encoding="UTF-8" standalone="no"?>
<!-- Created with Inkscape (http://www.inkscape.org/) -->

<svg
   version="1.1"
   id="svg1"
   width="898.56"
   height="350.72"
   viewBox="0 0 898.56 350.72"
   sodipodi:docname="ts-12.pdf"
   xmlns:inkscape="http://www.inkscape.org/namespaces/inkscape"
   xmlns:sodipodi="http://sodipodi.sourceforge.net/DTD/sodipodi-0.dtd"
   xmlns="http://www.w3.org/2000/svg"
   xmlns:svg="http://www.w3.org/2000/svg">
  <defs
     id="defs1">
    <clipPath
       clipPathUnits="userSpaceOnUse"
       id="clipPath2">
      <path
         d="M 0,0 H 2808.3333 V 1093.9612 H 0 Z"
         transform="scale(0.33364986)"
         clip-rule="evenodd"
         id="path2" />
    </clipPath>
    <clipPath
       clipPathUnits="userSpaceOnUse"
       id="clipPath4">
      <path
         d="M 0,0 H 2808.3333 V 1093.9612 H 0 Z"
         transform="matrix(0.33364986,0,0,0.33364986,-0.5,-0.5)"
         clip-rule="evenodd"
         id="path4" />
    </clipPath>
    <clipPath
       clipPathUnits="userSpaceOnUse"
       id="clipPath6">
      <path
         d="M 0,0 H 2808.3333 V 1093.9612 H 0 Z"
         transform="matrix(0.33364986,0,0,0.33364986,-0.5,-0.5)"
         clip-rule="evenodd"
         id="path6" />
    </clipPath>
    <clipPath
       clipPathUnits="userSpaceOnUse"
       id="clipPath8">
      <path
         d="M 0,0 H 2808.3333 V 1093.9612 H 0 Z"
         transform="matrix(0.33364986,0,0,0.33364986,-0.5,-0.5)"
         clip-rule="evenodd"
         id="path8" />
    </clipPath>
    <clipPath
       clipPathUnits="userSpaceOnUse"
       id="clipPath9">
      <path
         d="M 0,0 H 2808.3333 V 1093.9612 H 0 Z"
         transform="matrix(0.33364652,0,0,0.33364652,-37.984375,-125.00001)"
         clip-rule="evenodd"
         id="path9" />
    </clipPath>
    <clipPath
       clipPathUnits="userSpaceOnUse"
       id="clipPath10">
      <path
         d="M 0,0 H 2808.3333 V 1093.9612 H 0 Z"
         transform="matrix(0.33364652,0,0,0.33364652,-31.328125,-154)"
         clip-rule="evenodd"
         id="path10" />
    </clipPath>
    <clipPath
       clipPathUnits="userSpaceOnUse"
       id="clipPath11">
      <path
         d="M 0,0 H 2808.3333 V 1093.9612 H 0 Z"
         transform="matrix(0.33364652,0,0,0.33364652,-35.296875,-219.99999)"
         clip-rule="evenodd"
         id="path11" />
    </clipPath>
    <clipPath
       clipPathUnits="userSpaceOnUse"
       id="clipPath12">
      <path
         d="M 0,0 H 2808.3333 V 1093.9612 H 0 Z"
         transform="matrix(0.33364652,0,0,0.33364652,-21.3125,-249)"
         clip-rule="evenodd"
         id="path12" />
    </clipPath>
    <clipPath
       clipPathUnits="userSpaceOnUse"
       id="clipPath13">
      <path
         d="M 0,0 H 2808.3333 V 1093.9612 H 0 Z"
         transform="matrix(0.33364652,0,0,0.33364652,-12.609375,-315)"
         clip-rule="evenodd"
         id="path13" />
    </clipPath>
    <clipPath
       clipPathUnits="userSpaceOnUse"
       id="clipPath14">
      <path
         d="M 0,0 H 2808.3333 V 1093.9612 H 0 Z"
         transform="matrix(0.33364652,0,0,0.33364652,-31.3125,-344)"
         clip-rule="evenodd"
         id="path14" />
    </clipPath>
    <clipPath
       clipPathUnits="userSpaceOnUse"
       id="clipPath16">
      <path
         d="M 0,0 H 2808.3333 V 1093.9612 H 0 Z"
         transform="matrix(0.33364986,0,0,0.33364986,-0.5,-0.5)"
         clip-rule="evenodd"
         id="path16" />
    </clipPath>
    <clipPath
       clipPathUnits="userSpaceOnUse"
       id="clipPath18">
      <path
         d="M 0,0 H 2808.3333 V 1093.9612 H 0 Z"
         transform="matrix(0.33364986,0,0,0.33364986,-0.5,-0.5)"
         clip-rule="evenodd"
         id="path18" />
    </clipPath>
    <clipPath
       clipPathUnits="userSpaceOnUse"
       id="clipPath19">
      <path
         d="M 0,0 H 2808.3333 V 1093.9612 H 0 Z"
         transform="matrix(0.33364652,0,0,0.33364652,-233.29688,-49)"
         clip-rule="evenodd"
         id="path19" />
    </clipPath>
    <clipPath
       clipPathUnits="userSpaceOnUse"
       id="clipPath21">
      <path
         d="M 0,0 H 2808.3333 V 1093.9612 H 0 Z"
         transform="matrix(0.33364986,0,0,0.33364986,-0.5,-0.5)"
         clip-rule="evenodd"
         id="path21" />
    </clipPath>
    <clipPath
       clipPathUnits="userSpaceOnUse"
       id="clipPath22">
      <path
         d="M 0,0 H 2808.3333 V 1093.9612 H 0 Z"
         transform="matrix(0.33364652,0,0,0.33364652,-460.29688,-49)"
         clip-rule="evenodd"
         id="path22" />
    </clipPath>
    <clipPath
       clipPathUnits="userSpaceOnUse"
       id="clipPath24">
      <path
         d="M 0,0 H 2808.3333 V 1093.9612 H 0 Z"
         transform="matrix(0.33364986,0,0,0.33364986,-0.5,-0.5)"
         clip-rule="evenodd"
         id="path24" />
    </clipPath>
    <clipPath
       clipPathUnits="userSpaceOnUse"
       id="clipPath25">
      <path
         d="M 0,0 H 2808.3333 V 1093.9612 H 0 Z"
         transform="matrix(0.33364652,0,0,0.33364652,-737.28125,-49)"
         clip-rule="evenodd"
         id="path25" />
    </clipPath>
    <clipPath
       clipPathUnits="userSpaceOnUse"
       id="clipPath27">
      <path
         d="M 0,0 H 2808.3333 V 1093.9612 H 0 Z"
         transform="matrix(0.33364986,0,0,0.33364986,-0.5,-0.5)"
         clip-rule="evenodd"
         id="path27" />
    </clipPath>
    <clipPath
       clipPathUnits="userSpaceOnUse"
       id="clipPath29">
      <path
         d="M 0,0 H 2808.3333 V 1093.9612 H 0 Z"
         transform="matrix(0.33364986,0,0,0.33364986,-0.5,-0.5)"
         clip-rule="evenodd"
         id="path29" />
    </clipPath>
    <clipPath
       clipPathUnits="userSpaceOnUse"
       id="clipPath30">
      <path
         d="M 0,0 H 2808.3333 V 1093.9612 H 0 Z"
         transform="matrix(0.33364652,0,0,0.33364652,-205.5625,-138)"
         clip-rule="evenodd"
         id="path30" />
    </clipPath>
    <clipPath
       clipPathUnits="userSpaceOnUse"
       id="clipPath31">
      <path
         d="M 0,0 H 2808.3333 V 1093.9612 H 0 Z"
         transform="matrix(0.33364652,0,0,0.33364652,-205.5625,-233)"
         clip-rule="evenodd"
         id="path31" />
    </clipPath>
    <clipPath
       clipPathUnits="userSpaceOnUse"
       id="clipPath32">
      <path
         d="M 0,0 H 2808.3333 V 1093.9612 H 0 Z"
         transform="matrix(0.33364652,0,0,0.33364652,-254.14063,-328)"
         clip-rule="evenodd"
         id="path32" />
    </clipPath>
    <clipPath
       clipPathUnits="userSpaceOnUse"
       id="clipPath33">
      <path
         d="M 0,0 H 2808.3333 V 1093.9612 H 0 Z"
         transform="matrix(0.33364652,0,0,0.33364652,-427.5625,-138)"
         clip-rule="evenodd"
         id="path33" />
    </clipPath>
    <clipPath
       clipPathUnits="userSpaceOnUse"
       id="clipPath34">
      <path
         d="M 0,0 H 2808.3333 V 1093.9612 H 0 Z"
         transform="matrix(0.33364652,0,0,0.33364652,-408.5625,-222)"
         clip-rule="evenodd"
         id="path34" />
    </clipPath>
    <clipPath
       clipPathUnits="userSpaceOnUse"
       id="clipPath35">
      <path
         d="M 0,0 H 2808.3333 V 1093.9612 H 0 Z"
         transform="matrix(0.33364652,0,0,0.33364652,-416.75,-245)"
         clip-rule="evenodd"
         id="path35" />
    </clipPath>
    <clipPath
       clipPathUnits="userSpaceOnUse"
       id="clipPath36">
      <path
         d="M 0,0 H 2808.3333 V 1093.9612 H 0 Z"
         transform="matrix(0.33364652,0,0,0.33364652,-509.14063,-328)"
         clip-rule="evenodd"
         id="path36" />
    </clipPath>
    <clipPath
       clipPathUnits="userSpaceOnUse"
       id="clipPath37">
      <path
         d="M 0,0 H 2808.3333 V 1093.9612 H 0 Z"
         transform="matrix(0.33364652,0,0,0.33364652,-701.29688,-138)"
         clip-rule="evenodd"
         id="path37" />
    </clipPath>
    <clipPath
       clipPathUnits="userSpaceOnUse"
       id="clipPath38">
      <path
         d="M 0,0 H 2808.3333 V 1093.9612 H 0 Z"
         transform="matrix(0.33364652,0,0,0.33364652,-699.70313,-233)"
         clip-rule="evenodd"
         id="path38" />
    </clipPath>
    <clipPath
       clipPathUnits="userSpaceOnUse"
       id="clipPath39">
      <path
         d="M 0,0 H 2808.3333 V 1093.9612 H 0 Z"
         transform="matrix(0.33364652,0,0,0.33364652,-784.14063,-328)"
         clip-rule="evenodd"
         id="path39" />
    </clipPath>
  </defs>
  <sodipodi:namedview
     id="namedview1"
     pagecolor="#ffffff"
     bordercolor="#000000"
     borderopacity="0.25"
     inkscape:showpageshadow="2"
     inkscape:pageopacity="0.0"
     inkscape:pagecheckerboard="0"
     inkscape:deskcolor="#d1d1d1">
    <inkscape:page
       x="0"
       y="0"
       inkscape:label="1"
       id="page1"
       width="898.56"
       height="350.72"
       margin="0"
       bleed="0" />
  </sodipodi:namedview>
  <g
     id="g1"
     inkscape:groupmode="layer"
     inkscape:label="1">
    <path
       id="path1"
       d="M 0,0 H 937 V 365 H 0 Z"
       style="fill:#ffffff;fill-opacity:1;fill-rule:nonzero;stroke:none"
       transform="scale(0.95908924)"
       clip-path="url(#clipPath2)" />
    <path
       id="path3"
       d="M 20,175.5 930.01001,176"
       style="fill:none;stroke:#000000;stroke-width:1;stroke-linecap:butt;stroke-linejoin:miter;stroke-miterlimit:10;stroke-dasharray:none;stroke-opacity:1"
       transform="matrix(0.95908924,0,0,0.95908924,0.47954462,0.47954462)"
       clip-path="url(#clipPath4)" />
    <path
       id="path5"
       d="M 20,275.5 930.01001,276"
       style="fill:none;stroke:#000000;stroke-width:1;stroke-linecap:butt;stroke-linejoin:miter;stroke-miterlimit:10;stroke-dasharray:none;stroke-opacity:1"
       transform="matrix(0.95908924,0,0,0.95908924,0.47954462,0.47954462)"
       clip-path="url(#clipPath6)" />
    <path
       id="path7"
       d="M 20,81 H 930.01001"
       style="fill:none;stroke:#000000;stroke-width:1;stroke-linecap:butt;stroke-linejoin:miter;stroke-miterlimit:10;stroke-dasharray:none;stroke-opacity:1"
       transform="matrix(0.95908924,0,0,0.95908924,0.47954462,0.47954462)"
       clip-path="url(#clipPath8)" />
    <text
       id="text8"
       xml:space="preserve"
       transform="matrix(0.95909884,0,0,0.95909884,36.43077,119.88736)"
       clip-path="url(#clipPath9)"><tspan
         style="font-variant:normal;font-weight:normal;font-size:24px;font-family:Helvetica;writing-mode:lr-tb;fill:#000000;fill-opacity:1;fill-rule:nonzero;stroke:none"
         x="0 16.007812 24 31.992188 45.339844 57.339844 64.007812 77.355469"
         y="0"
         sodipodi:role="line"
         id="tspan8">Array of</tspan></text>
    <text
       id="text9"
       xml:space="preserve"
       transform="matrix(0.95909884,0,0,0.95909884,30.046768,147.70122)"
       clip-path="url(#clipPath10)"><tspan
         style="font-variant:normal;font-weight:normal;font-size:24px;font-family:Helvetica;writing-mode:lr-tb;fill:#000000;fill-opacity:1;fill-rule:nonzero;stroke:none"
         x="0 17.332031 30.679688 50.671875 64.019531 77.367188 85.359375"
         y="0"
         sodipodi:role="line"
         id="tspan9">Numbers</tspan></text>
    <text
       id="text10"
       xml:space="preserve"
       transform="matrix(0.95909884,0,0,0.95909884,33.853192,211.00174)"
       clip-path="url(#clipPath11)"><tspan
         style="font-variant:normal;font-weight:normal;font-size:24px;font-family:Helvetica;writing-mode:lr-tb;fill:#000000;fill-opacity:1;fill-rule:nonzero;stroke:none"
         x="0 16.007812 22.675781 30.667969 36 49.347656 62.695312 69.363281 82.710938"
         y="0"
         sodipodi:role="line"
         id="tspan10">String of</tspan></text>
    <text
       id="text11"
       xml:space="preserve"
       transform="matrix(0.95909884,0,0,0.95909884,20.440794,238.81561)"
       clip-path="url(#clipPath12)"><tspan
         style="font-variant:normal;font-weight:normal;font-size:24px;font-family:Helvetica;writing-mode:lr-tb;fill:#000000;fill-opacity:1;fill-rule:nonzero;stroke:none"
         x="0 17.332031 30.679688 44.027344 52.019531 65.367188 77.367188 84.035156 97.382812 105.375"
         y="0"
         sodipodi:role="line"
         id="tspan11">Characters</tspan></text>
    <text
       id="text12"
       xml:space="preserve"
       transform="matrix(0.95909884,0,0,0.95909884,12.093637,302.11613)"
       clip-path="url(#clipPath13)"><tspan
         style="font-variant:normal;font-weight:normal;font-size:24px;font-family:Helvetica;writing-mode:lr-tb;fill:#000000;fill-opacity:1;fill-rule:nonzero;stroke:none"
         x="0 13.347656 18.679688 32.027344 44.027344 57.375 70.722656 84.070312 89.402344 101.40234 108.07031 114.73828 128.08594"
         y="0"
         sodipodi:role="line"
         id="tspan12">LinkedList of</tspan></text>
    <text
       id="text13"
       xml:space="preserve"
       transform="matrix(0.95909884,0,0,0.95909884,30.031782,329.93)"
       clip-path="url(#clipPath14)"><tspan
         style="font-variant:normal;font-weight:normal;font-size:24px;font-family:Helvetica;writing-mode:lr-tb;fill:#000000;fill-opacity:1;fill-rule:nonzero;stroke:none"
         x="0 17.332031 30.679688 50.671875 64.019531 77.367188 85.359375"
         y="0"
         sodipodi:role="line"
         id="tspan13">Numbers</tspan></text>
    <path
       id="path15"
       d="M 170,361 V 1"
       style="fill:none;stroke:#000000;stroke-width:1;stroke-linecap:butt;stroke-linejoin:miter;stroke-miterlimit:10;stroke-dasharray:none;stroke-opacity:1"
       transform="matrix(0.95908924,0,0,0.95908924,0.47954462,0.47954462)"
       clip-path="url(#clipPath16)" />
    <path
       id="path17"
       d="M 190,11 H 350 V 71 H 190 Z"
       style="fill:#ffffff;fill-opacity:1;fill-rule:nonzero;stroke:#000000;stroke-width:1;stroke-linecap:butt;stroke-linejoin:miter;stroke-miterlimit:10;stroke-dasharray:none;stroke-opacity:1"
       transform="matrix(0.95908924,0,0,0.95908924,0.47954462,0.47954462)"
       clip-path="url(#clipPath18)" />
    <text
       id="text18"
       xml:space="preserve"
       transform="matrix(0.95909884,0,0,0.95909884,223.75477,46.995843)"
       clip-path="url(#clipPath19)"><tspan
         style="font-variant:normal;font-weight:normal;font-size:24px;font-family:Helvetica;writing-mode:lr-tb;fill:#000000;fill-opacity:1;fill-rule:nonzero;stroke:none"
         x="0 13.347656 26.695312 40.042969 53.390625 60.058594"
         y="0"
         sodipodi:role="line"
         id="tspan18">Length</tspan></text>
    <path
       id="path20"
       d="M 445,11 H 605 V 71 H 445 Z"
       style="fill:#ffffff;fill-opacity:1;fill-rule:nonzero;stroke:#000000;stroke-width:1;stroke-linecap:butt;stroke-linejoin:miter;stroke-miterlimit:10;stroke-dasharray:none;stroke-opacity:1"
       transform="matrix(0.95908924,0,0,0.95908924,0.47954462,0.47954462)"
       clip-path="url(#clipPath21)" />
    <text
       id="text21"
       xml:space="preserve"
       transform="matrix(0.95909884,0,0,0.95909884,441.4702,46.995843)"
       clip-path="url(#clipPath22)"><tspan
         style="font-variant:normal;font-weight:normal;font-size:24px;font-family:Helvetica;writing-mode:lr-tb;fill:#000000;fill-opacity:1;fill-rule:nonzero;stroke:none"
         x="0 17.332031 30.679688 50.671875 64.019531 77.367188 85.359375 90.691406 102.69141 116.03906"
         y="0"
         sodipodi:role="line"
         id="tspan21">Comparison</tspan></text>
    <path
       id="path23"
       d="m 710.01001,11 h 160 v 60 h -160 z"
       style="fill:#ffffff;fill-opacity:1;fill-rule:nonzero;stroke:#000000;stroke-width:1;stroke-linecap:butt;stroke-linejoin:miter;stroke-miterlimit:10;stroke-dasharray:none;stroke-opacity:1"
       transform="matrix(0.95908924,0,0,0.95908924,0.47954462,0.47954462)"
       clip-path="url(#clipPath24)" />
    <text
       id="text24"
       xml:space="preserve"
       transform="matrix(0.95909884,0,0,0.95909884,707.12559,46.995843)"
       clip-path="url(#clipPath25)"><tspan
         style="font-variant:normal;font-weight:normal;font-size:24px;font-family:Helvetica;writing-mode:lr-tb;fill:#000000;fill-opacity:1;fill-rule:nonzero;stroke:none"
         x="0 16.007812 33.339844 46.6875 60.035156 73.382812 78.714844 92.0625"
         y="0"
         sodipodi:role="line"
         id="tspan24">Swapping</tspan></text>
    <path
       id="path26"
       d="M 379.5,361 V 1"
       style="fill:none;stroke:#000000;stroke-width:1;stroke-linecap:butt;stroke-linejoin:miter;stroke-miterlimit:10;stroke-dasharray:none;stroke-opacity:1"
       transform="matrix(0.95908924,0,0,0.95908924,0.47954462,0.47954462)"
       clip-path="url(#clipPath27)" />
    <path
       id="path28"
       d="M 670.01001,361 V 1"
       style="fill:none;stroke:#000000;stroke-width:1;stroke-linecap:butt;stroke-linejoin:miter;stroke-miterlimit:10;stroke-dasharray:none;stroke-opacity:1"
       transform="matrix(0.95908924,0,0,0.95908924,0.47954462,0.47954462)"
       clip-path="url(#clipPath29)" />
    <text
       id="text29"
       xml:space="preserve"
       transform="matrix(0.95909884,0,0,0.95909884,197.15476,132.35564)"
       clip-path="url(#clipPath30)"><tspan
         style="font-style:oblique;font-variant:normal;font-weight:normal;font-size:19px;font-family:Helvetica;writing-mode:lr-tb;fill:#000000;fill-opacity:1;fill-rule:nonzero;stroke:none"
         x="0 5.2788086 15.845703 20.066895 29.566895 34.845703 45.412598 55.979492 61.258301 71.825195 77.104004 81.325195 91.89209 102.45898 113.02588 118.30469"
         y="0"
         sodipodi:role="line"
         id="tspan29">this.data.length</tspan></text>
    <text
       id="text30"
       xml:space="preserve"
       transform="matrix(0.95909884,0,0,0.95909884,197.15476,223.47003)"
       clip-path="url(#clipPath31)"><tspan
         style="font-style:oblique;font-variant:normal;font-weight:normal;font-size:19px;font-family:Helvetica;writing-mode:lr-tb;fill:#000000;fill-opacity:1;fill-rule:nonzero;stroke:none"
         x="0 5.2788086 15.845703 20.066895 29.566895 34.845703 45.412598 55.979492 61.258301 71.825195 77.104004 81.325195 91.89209 102.45898 113.02588 118.30469"
         y="0"
         sodipodi:role="line"
         id="tspan30">this.data.length</tspan></text>
    <text
       id="text31"
       xml:space="preserve"
       transform="matrix(0.95909884,0,0,0.95909884,243.74598,314.58442)"
       clip-path="url(#clipPath32)"><tspan
         style="font-style:oblique;font-variant:normal;font-weight:normal;font-size:19px;font-family:Helvetica;writing-mode:lr-tb;fill:#000000;fill-opacity:1;fill-rule:nonzero;stroke:none"
         x="0 10.566895 21.133789"
         y="0"
         sodipodi:role="line"
         id="tspan31">???</tspan></text>
    <text
       id="text32"
       xml:space="preserve"
       transform="matrix(0.95909884,0,0,0.95909884,410.0747,132.35564)"
       clip-path="url(#clipPath33)"><tspan
         style="font-style:oblique;font-variant:normal;font-weight:normal;font-size:19px;font-family:Helvetica;writing-mode:lr-tb;fill:#000000;fill-opacity:1;fill-rule:nonzero;stroke:none"
         x="0 5.2788086 15.845703 20.066895 29.566895 34.845703 45.412598 55.979492 61.258301 71.825195 77.104004 81.325195 86.604004 91.882812 102.97852 108.25732 113.53613 124.10303 128.32422 137.82422 143.10303 153.66992 164.23682 169.51562 180.08252 185.36133 189.58252"
         y="0"
         sodipodi:role="line"
         id="tspan32">this.data[i] &gt; this.data[j]</tspan></text>
    <text
       id="text33"
       xml:space="preserve"
       transform="matrix(0.95909884,0,0,0.95909884,391.85182,212.91994)"
       clip-path="url(#clipPath34)"><tspan
         style="font-style:oblique;font-variant:normal;font-weight:normal;font-size:19px;font-family:Helvetica;writing-mode:lr-tb;fill:#000000;fill-opacity:1;fill-rule:nonzero;stroke:none"
         x="0 5.2788086 15.845703 20.066895 29.566895 34.845703 45.412598 55.979492 61.258301 71.825195 77.104004 81.325195 86.604004 91.882812 97.161621 107.72852 118.29541 128.8623 142.5835 153.15039 159.47754 173.19873 183.76562 193.26562 203.83252 210.15967 216.48682 221.76562"
         y="0"
         sodipodi:role="line"
         id="tspan33">this.data[i].toLowerCase() &gt;</tspan></text>
    <text
       id="text34"
       xml:space="preserve"
       transform="matrix(0.95909884,0,0,0.95909884,399.70444,234.97922)"
       clip-path="url(#clipPath35)"><tspan
         style="font-style:oblique;font-variant:normal;font-weight:normal;font-size:19px;font-family:Helvetica;writing-mode:lr-tb;fill:#000000;fill-opacity:1;fill-rule:nonzero;stroke:none"
         x="0 5.2788086 15.845703 20.066895 29.566895 34.845703 45.412598 55.979492 61.258301 71.825195 77.104004 81.325195 86.604004 91.882812 97.161621 107.72852 118.29541 128.8623 142.5835 153.15039 159.47754 173.19873 183.76562 193.26562 203.83252 210.15967"
         y="0"
         sodipodi:role="line"
         id="tspan34">this.data[j].toLowerCase()</tspan></text>
    <text
       id="text35"
       xml:space="preserve"
       transform="matrix(0.95909884,0,0,0.95909884,488.31619,314.58442)"
       clip-path="url(#clipPath36)"><tspan
         style="font-style:oblique;font-variant:normal;font-weight:normal;font-size:19px;font-family:Helvetica;writing-mode:lr-tb;fill:#000000;fill-opacity:1;fill-rule:nonzero;stroke:none"
         x="0 10.566895 21.133789"
         y="0"
         sodipodi:role="line"
         id="tspan35">???</tspan></text>
    <text
       id="text36"
       xml:space="preserve"
       transform="matrix(0.95909884,0,0,0.95909884,672.61302,132.35564)"
       clip-path="url(#clipPath37)"><tspan
         style="font-style:oblique;font-variant:normal;font-weight:normal;font-size:19px;font-family:Helvetica;writing-mode:lr-tb;fill:#000000;fill-opacity:1;fill-rule:nonzero;stroke:none"
         x="0 12.672852 26.394043 36.960938 47.527832 52.806641 57.027832 67.594727 78.161621 82.382812 91.882812 97.161621 102.44043 113.00732 119.33447 124.61328 135.18018 141.50732 147.83447 158.40137 167.90137"
         y="0"
         sodipodi:role="line"
         id="tspan36">Swap logic for arrays</tspan></text>
    <text
       id="text37"
       xml:space="preserve"
       transform="matrix(0.95909884,0,0,0.95909884,671.08446,223.47003)"
       clip-path="url(#clipPath38)"><tspan
         style="font-style:oblique;font-variant:normal;font-weight:normal;font-size:19px;font-family:Helvetica;writing-mode:lr-tb;fill:#000000;fill-opacity:1;fill-rule:nonzero;stroke:none"
         x="0 12.672852 26.394043 36.960938 47.527832 52.806641 57.027832 67.594727 78.161621 82.382812 91.882812 97.161621 102.44043 113.00732 119.33447 124.61328 134.11328 139.39209 145.71924 149.94043 160.50732 171.07422"
         y="0"
         sodipodi:role="line"
         id="tspan37">Swap logic for strings</tspan></text>
    <text
       id="text38"
       xml:space="preserve"
       transform="matrix(0.95909884,0,0,0.95909884,752.06837,314.58442)"
       clip-path="url(#clipPath39)"><tspan
         style="font-style:oblique;font-variant:normal;font-weight:normal;font-size:19px;font-family:Helvetica;writing-mode:lr-tb;fill:#000000;fill-opacity:1;fill-rule:nonzero;stroke:none"
         x="0 10.566895 21.133789"
         y="0"
         sodipodi:role="line"
         id="tspan38">???</tspan></text>
  </g>
</svg>
