<?xml version="1.0" encoding="UTF-8" standalone="no"?>
<!-- Created with Inkscape (http://www.inkscape.org/) -->

<svg
   version="1.1"
   id="svg1"
   width="470.71997"
   height="312"
   viewBox="0 0 470.71997 312"
   sodipodi:docname="ts-22.pdf"
   xmlns:inkscape="http://www.inkscape.org/namespaces/inkscape"
   xmlns:sodipodi="http://sodipodi.sourceforge.net/DTD/sodipodi-0.dtd"
   xmlns="http://www.w3.org/2000/svg"
   xmlns:svg="http://www.w3.org/2000/svg">
  <defs
     id="defs1">
    <clipPath
       clipPathUnits="userSpaceOnUse"
       id="clipPath2">
      <path
         d="M 0,0 H 1470.8333 V 974.57648 H 0 Z"
         transform="scale(0.33450428)"
         clip-rule="evenodd"
         id="path2" />
    </clipPath>
    <clipPath
       clipPathUnits="userSpaceOnUse"
       id="clipPath4">
      <path
         d="M 0,0 H 1470.8333 V 968.59747 H 0 Z"
         transform="matrix(0.33450428,0,0,0.33450428,-0.49999999,-0.49999999)"
         clip-rule="evenodd"
         id="path4" />
    </clipPath>
    <clipPath
       clipPathUnits="userSpaceOnUse"
       id="clipPath5">
      <path
         d="M 0,0 H 1470.8333 V 968.59747 H 0 Z"
         transform="matrix(0.33450092,0,0,0.33450092,-129.84375,-28)"
         clip-rule="evenodd"
         id="path5" />
    </clipPath>
    <clipPath
       clipPathUnits="userSpaceOnUse"
       id="clipPath7">
      <path
         d="M 0,0 H 1470.8333 V 968.59747 H 0 Z"
         transform="matrix(0.33450428,0,0,0.33450428,-0.49999999,-0.49999999)"
         clip-rule="evenodd"
         id="path7" />
    </clipPath>
    <clipPath
       clipPathUnits="userSpaceOnUse"
       id="clipPath8">
      <path
         d="M 0,0 H 1470.8333 V 968.59747 H 0 Z"
         transform="matrix(0.33450092,0,0,0.33450092,-84.359375,-86)"
         clip-rule="evenodd"
         id="path8" />
    </clipPath>
    <clipPath
       clipPathUnits="userSpaceOnUse"
       id="clipPath10">
      <path
         d="M 0,0 H 1470.8333 V 968.59747 H 0 Z"
         transform="matrix(0.33450428,0,0,0.33450428,-0.49999999,-0.49999999)"
         clip-rule="evenodd"
         id="path10" />
    </clipPath>
    <clipPath
       clipPathUnits="userSpaceOnUse"
       id="clipPath11">
      <path
         d="M 0,0 H 1470.8333 V 968.59747 H 0 Z"
         transform="matrix(0.33450092,0,0,0.33450092,-52.640625,-186)"
         clip-rule="evenodd"
         id="path11" />
    </clipPath>
    <clipPath
       clipPathUnits="userSpaceOnUse"
       id="clipPath13">
      <path
         d="M 0,0 H 1470.8333 V 968.59747 H 0 Z"
         transform="matrix(0.33450428,0,0,0.33450428,-0.49999999,-0.49999999)"
         clip-rule="evenodd"
         id="path13" />
    </clipPath>
    <clipPath
       clipPathUnits="userSpaceOnUse"
       id="clipPath15">
      <path
         d="M 0,0 H 1470.8333 V 968.59747 H 0 Z"
         transform="matrix(0.33450428,0,0,0.33450428,-0.49999999,-0.49999999)"
         clip-rule="evenodd"
         id="path15" />
    </clipPath>
    <clipPath
       clipPathUnits="userSpaceOnUse"
       id="clipPath17">
      <path
         d="M 0,0 H 1470.8333 V 968.59747 H 0 Z"
         transform="matrix(0.33450428,0,0,0.33450428,-0.49999999,-0.49999999)"
         clip-rule="evenodd"
         id="path17" />
    </clipPath>
    <clipPath
       clipPathUnits="userSpaceOnUse"
       id="clipPath18">
      <path
         d="M 0,0 H 1470.8333 V 968.59747 H 0 Z"
         transform="matrix(0.33450092,0,0,0.33450092,-6.34375,-306)"
         clip-rule="evenodd"
         id="path18" />
    </clipPath>
    <clipPath
       clipPathUnits="userSpaceOnUse"
       id="clipPath20">
      <path
         d="M 0,0 H 1470.8333 V 968.59747 H 0 Z"
         transform="matrix(0.33450428,0,0,0.33450428,-0.49999999,-0.49999999)"
         clip-rule="evenodd"
         id="path20" />
    </clipPath>
    <clipPath
       clipPathUnits="userSpaceOnUse"
       id="clipPath21">
      <path
         d="M 0,0 H 1470.8333 V 968.59747 H 0 Z"
         transform="matrix(0.33450092,0,0,0.33450092,-124.60937,-136)"
         clip-rule="evenodd"
         id="path21" />
    </clipPath>
    <clipPath
       clipPathUnits="userSpaceOnUse"
       id="clipPath23">
      <path
         d="M 0,0 H 1470.8333 V 968.59747 H 0 Z"
         transform="matrix(0.33450428,0,0,0.33450428,-0.49999999,-0.49999999)"
         clip-rule="evenodd"
         id="path23" />
    </clipPath>
    <clipPath
       clipPathUnits="userSpaceOnUse"
       id="clipPath24">
      <path
         d="M 0,0 H 1470.8333 V 968.59747 H 0 Z"
         transform="matrix(0.33450092,0,0,0.33450092,-13.546875,-229)"
         clip-rule="evenodd"
         id="path24" />
    </clipPath>
    <clipPath
       clipPathUnits="userSpaceOnUse"
       id="clipPath25">
      <path
         d="M 0,0 H 1470.8333 V 968.59747 H 0 Z"
         transform="matrix(0.33450092,0,0,0.33450092,-7.5,-246)"
         clip-rule="evenodd"
         id="path25" />
    </clipPath>
    <clipPath
       clipPathUnits="userSpaceOnUse"
       id="clipPath26">
      <path
         d="M 0,0 H 1470.8333 V 968.59747 H 0 Z"
         transform="matrix(0.33450092,0,0,0.33450092,-129.67188,-263)"
         clip-rule="evenodd"
         id="path26" />
    </clipPath>
  </defs>
  <sodipodi:namedview
     id="namedview1"
     pagecolor="#ffffff"
     bordercolor="#000000"
     borderopacity="0.25"
     inkscape:showpageshadow="2"
     inkscape:pageopacity="0.0"
     inkscape:pagecheckerboard="0"
     inkscape:deskcolor="#d1d1d1">
    <inkscape:page
       x="0"
       y="0"
       inkscape:label="1"
       id="page1"
       width="470.71997"
       height="312"
       margin="0"
       bleed="0" />
  </sodipodi:namedview>
  <g
     id="g1"
     inkscape:groupmode="layer"
     inkscape:label="1">
    <path
       id="path1"
       d="M 0,0 H 492 V 326 H 0 Z"
       style="fill:#ffffff;fill-opacity:1;fill-rule:nonzero;stroke:none"
       transform="scale(0.95663945)"
       clip-path="url(#clipPath2)" />
    <path
       id="path3"
       d="M 51,1 H 371 V 41 H 51 Z"
       style="fill:#dae8fc;fill-opacity:1;fill-rule:nonzero;stroke:#6c8ebf;stroke-width:1;stroke-linecap:butt;stroke-linejoin:miter;stroke-miterlimit:10;stroke-dasharray:none;stroke-opacity:1"
       transform="matrix(0.95663945,0,0,0.95663945,0.47831972,0.47831972)"
       clip-path="url(#clipPath4)" />
    <text
       id="text4"
       xml:space="preserve"
       transform="matrix(0.95664905,0,0,0.95664905,124.2149,26.786173)"
       clip-path="url(#clipPath5)"><tspan
         style="font-variant:normal;font-weight:700;font-size:20px;font-family:Helvetica;writing-mode:lr-tb;fill:#000000;fill-opacity:1;fill-rule:nonzero;stroke:none"
         x="0 14.443359 26.660156 37.783203 44.443359 52.226562 63.349609 74.472656 81.132812 86.689453 101.13281 106.68945 117.8125 128.93555 140.05859 151.18164"
         y="0"
         sodipodi:role="line"
         id="tspan4">Abstract Classes</tspan></text>
    <path
       id="path6"
       d="m 1,61 h 420 v 40 H 1 Z"
       style="fill:#ffffff;fill-opacity:1;fill-rule:nonzero;stroke:#000000;stroke-width:1;stroke-linecap:butt;stroke-linejoin:miter;stroke-miterlimit:10;stroke-dasharray:none;stroke-opacity:1"
       transform="matrix(0.95663945,0,0,0.95663945,0.47831972,0.47831972)"
       clip-path="url(#clipPath7)" />
    <text
       id="text7"
       xml:space="preserve"
       transform="matrix(0.95664905,0,0,0.95664905,80.702316,82.271818)"
       clip-path="url(#clipPath8)"><tspan
         style="font-variant:normal;font-weight:normal;font-size:14px;font-family:Helvetica;writing-mode:lr-tb;fill:#000000;fill-opacity:1;fill-rule:nonzero;stroke:none"
         x="0 10.110352 17.896484 25.682617 28.355469 32.245117 36.134766 43.920898 51.707031 55.59668 63.382812 70.382812 78.168945 85.955078 89.844727 93.734375 101.52051 105.41016 112.41016 117.07227 124.8584 132.64453 136.53418 144.32031 148.20996 155.99609 163.78223 167.67188 175.45801 183.24414 186.35449 194.14062 201.14062 205.03027 208.91992 216.70605 219.81641 224.47852 232.26465 239.26465 243.1543 246.26465"
         y="0"
         sodipodi:role="line"
         id="tspan7">Can't be used to create an object directly</tspan></text>
    <path
       id="path9"
       d="m 1,161 h 420 v 40 H 1 Z"
       style="fill:#ffffff;fill-opacity:1;fill-rule:nonzero;stroke:#000000;stroke-width:1;stroke-linecap:butt;stroke-linejoin:miter;stroke-miterlimit:10;stroke-dasharray:none;stroke-opacity:1"
       transform="matrix(0.95663945,0,0,0.95663945,0.47831972,0.47831972)"
       clip-path="url(#clipPath10)" />
    <text
       id="text10"
       xml:space="preserve"
       transform="matrix(0.95664905,0,0,0.95664905,50.358604,177.93672)"
       clip-path="url(#clipPath11)"><tspan
         style="font-variant:normal;font-weight:normal;font-size:14px;font-family:Helvetica;writing-mode:lr-tb;fill:#000000;fill-opacity:1;fill-rule:nonzero;stroke:none"
         x="0 10.110352 17.896484 25.682617 29.572266 36.572266 44.358398 52.144531 56.03418 63.820312 66.930664 74.716797 78.606445 83.268555 91.054688 98.84082 101.95117 105.84082 108.95117 120.61328 128.39941 131.50977 139.2959 150.95801 158.74414 166.53027 170.41992 178.20605 182.0957 185.20605 192.99219 200.77832 204.66797 208.55762 216.34375 221.00586 224.89551 231.89551 239.68164 251.34375 259.12988 263.01953 274.68164 282.46777 286.35742 294.14355 301.92969 309.71582"
         y="0"
         sodipodi:role="line"
         id="tspan10">Can contain real implementation for some methods</tspan></text>
    <path
       id="path12"
       d="m 421,301 h 60 v -64 l -53.20999,-0.02"
       style="fill:none;stroke:#000000;stroke-width:1;stroke-linecap:butt;stroke-linejoin:miter;stroke-miterlimit:10;stroke-dasharray:none;stroke-opacity:1"
       transform="matrix(0.95663945,0,0,0.95663945,0.47831972,0.47831972)"
       clip-path="url(#clipPath13)" />
    <path
       id="path14"
       d="m 422.54001,236.98 7,-3.5 -1.75,3.5 1.75,3.5 z"
       style="fill:#000000;fill-opacity:1;fill-rule:nonzero;stroke:#000000;stroke-width:1;stroke-linecap:butt;stroke-linejoin:miter;stroke-miterlimit:10;stroke-dasharray:none;stroke-opacity:1"
       transform="matrix(0.95663945,0,0,0.95663945,0.47831972,0.47831972)"
       clip-path="url(#clipPath15)" />
    <path
       id="path16"
       d="m 1,281 h 420 v 40 H 1 Z"
       style="fill:#ffffff;fill-opacity:1;fill-rule:nonzero;stroke:#000000;stroke-width:1;stroke-linecap:butt;stroke-linejoin:miter;stroke-miterlimit:10;stroke-dasharray:none;stroke-opacity:1"
       transform="matrix(0.95663945,0,0,0.95663945,0.47831972,0.47831972)"
       clip-path="url(#clipPath17)" />
    <text
       id="text17"
       xml:space="preserve"
       transform="matrix(0.95664905,0,0,0.95664905,6.0687424,292.73461)"
       clip-path="url(#clipPath18)"><tspan
         style="font-variant:normal;font-weight:normal;font-size:14px;font-family:Helvetica;writing-mode:lr-tb;fill:#000000;fill-opacity:1;fill-rule:nonzero;stroke:none"
         x="0 10.110352 17.896484 25.682617 29.572266 41.234375 49.020508 56.020508 63.806641 67.696289 74.696289 82.482422 85.592773 88.703125 96.489258 100.37891 107.37891 110.48926 118.27539 125.27539 132.27539 140.06152 147.06152 150.95117 158.7373 163.39941 171.18555 182.84766 185.95801 192.95801 200.74414 204.63379 208.52344 216.30957 220.19922 223.30957 234.97168 242.75781 245.86816 253.6543 265.31641 273.10254 280.88867 284.77832 288.66797 295.66797 303.4541 315.11621 322.90234 326.79199 334.57812 338.46777 346.25391 354.04004 358.70215 362.5918 374.25391 382.04004 385.92969 393.71582 401.50195"
         y="0"
         sodipodi:role="line"
         id="tspan17">Can make child classes promise to implement some other method</tspan></text>
    <path
       id="path19"
       d="m 1,111 h 420 v 40 H 1 Z"
       style="fill:#ffffff;fill-opacity:1;fill-rule:nonzero;stroke:#000000;stroke-width:1;stroke-linecap:butt;stroke-linejoin:miter;stroke-miterlimit:10;stroke-dasharray:none;stroke-opacity:1"
       transform="matrix(0.95663945,0,0,0.95663945,0.47831972,0.47831972)"
       clip-path="url(#clipPath20)" />
    <text
       id="text20"
       xml:space="preserve"
       transform="matrix(0.95664905,0,0,0.95664905,119.20744,130.10427)"
       clip-path="url(#clipPath21)"><tspan
         style="font-variant:normal;font-weight:normal;font-size:14px;font-family:Helvetica;writing-mode:lr-tb;fill:#000000;fill-opacity:1;fill-rule:nonzero;stroke:none"
         x="0 10.889648 18.675781 21.786133 28.786133 32.675781 40.461914 47.461914 55.248047 63.03418 66.923828 74.709961 81.709961 85.599609 93.385742 97.275391 105.06152 112.84766 117.50977 125.2959 133.08203 136.97168 140.86133 147.86133 150.97168 158.75781 165.75781"
         y="0"
         sodipodi:role="line"
         id="tspan20">Only used as a parent class</tspan></text>
    <path
       id="path22"
       d="m 1,211 h 420 v 60 H 1 Z"
       style="fill:#ffffff;fill-opacity:1;fill-rule:nonzero;stroke:#000000;stroke-width:1;stroke-linecap:butt;stroke-linejoin:miter;stroke-miterlimit:10;stroke-dasharray:none;stroke-opacity:1"
       transform="matrix(0.95663945,0,0,0.95663945,0.47831972,0.47831972)"
       clip-path="url(#clipPath23)" />
    <text
       id="text23"
       xml:space="preserve"
       transform="matrix(0.95664905,0,0,0.95664905,12.959605,219.07263)"
       clip-path="url(#clipPath24)"><tspan
         style="font-variant:normal;font-weight:normal;font-size:14px;font-family:Helvetica;writing-mode:lr-tb;fill:#000000;fill-opacity:1;fill-rule:nonzero;stroke:none"
         x="0 8.5517578 16.337891 24.124023 28.013672 31.124023 42.786133 50.572266 53.682617 61.46875 73.130859 80.916992 88.703125 92.592773 100.37891 108.16504 112.05469 123.7168 131.50293 135.39258 143.17871 150.96484 158.75098 165.75098 169.64062 176.64062 184.42676 192.21289 196.10254 200.76465 208.55078 212.44043 220.22656 224.88867 228.77832 232.66797 240.4541 244.34375 252.12988 256.01953 263.80566 271.5918 276.25391 280.14355 291.80566 299.5918 303.48145 311.26758 319.05371 326.83984 333.83984 337.72949 341.61914 349.40527 357.19141 361.08105 364.9707 372.75684 380.54297 388.3291 391.00195"
         y="0"
         sodipodi:role="line"
         id="tspan23">The implemented methods can refer to other methods that don't</tspan></text>
    <text
       id="text24"
       xml:space="preserve"
       transform="matrix(0.95664905,0,0,0.95664905,7.1748679,235.33567)"
       clip-path="url(#clipPath25)"><tspan
         style="font-variant:normal;font-weight:normal;font-size:14px;font-family:Helvetica;writing-mode:lr-tb;fill:#000000;fill-opacity:1;fill-rule:nonzero;stroke:none"
         x="0 7.7861328 14.786133 18.675781 26.461914 34.248047 37.358398 40.46875 47.46875 51.358398 59.144531 66.144531 69.254883 76.254883 80.144531 84.03418 91.03418 98.820312 102.70996 106.59961 111.26172 121.37207 129.1582 133.04785 140.04785 143.9375 147.04785 150.1582 153.26855 157.1582 164.94434 172.73047 179.73047 187.5166 191.40625 195.2959 203.08203 206.97168 214.75781 219.41992 227.20605 234.20605 237.31641 245.10254 252.88867 256.77832 264.56445 272.35059 284.0127 291.79883 298.79883 302.68848 310.47461 318.26074 326.04688 329.93652 333.82617 340.82617 348.6123 356.39844 363.39844 367.28809 371.17773 378.96387 383.62598 387.51562 391.40527 399.19141"
         y="0"
         sodipodi:role="line"
         id="tspan24">actually exist yet (we still have to provide names and types for the</tspan></text>
    <text
       id="text25"
       xml:space="preserve"
       transform="matrix(0.95664905,0,0,0.95664905,124.05048,251.5987)"
       clip-path="url(#clipPath26)"><tspan
         style="font-variant:normal;font-weight:normal;font-size:14px;font-family:Helvetica;writing-mode:lr-tb;fill:#000000;fill-opacity:1;fill-rule:nonzero;stroke:none"
         x="0 7.7861328 15.572266 20.234375 23.344727 35.006836 42.792969 45.90332 53.689453 65.351562 73.137695 80.923828 84.813477 92.599609 100.38574 104.27539 115.9375 123.72363 127.61328 135.39941 143.18555 150.97168 157.97168"
         y="0"
         sodipodi:role="line"
         id="tspan25">un-implemented methods)</tspan></text>
  </g>
</svg>
