<?xml version="1.0" encoding="UTF-8" standalone="no"?>
<!-- Created with Inkscape (http://www.inkscape.org/) -->

<svg
   version="1.1"
   id="svg1"
   width="547.84003"
   height="158.72"
   viewBox="0 0 547.84003 158.72"
   sodipodi:docname="ts-20.pdf"
   xmlns:inkscape="http://www.inkscape.org/namespaces/inkscape"
   xmlns:sodipodi="http://sodipodi.sourceforge.net/DTD/sodipodi-0.dtd"
   xmlns="http://www.w3.org/2000/svg"
   xmlns:svg="http://www.w3.org/2000/svg">
  <defs
     id="defs1">
    <clipPath
       clipPathUnits="userSpaceOnUse"
       id="clipPath2">
      <path
         d="M 0,0 H 1712.4999 V 493.99036 H 0 Z"
         transform="scale(0.33401461)"
         clip-rule="evenodd"
         id="path2" />
    </clipPath>
    <clipPath
       clipPathUnits="userSpaceOnUse"
       id="clipPath4">
      <path
         d="M 0,0 H 1712.4999 V 490.99649 H 0 Z"
         transform="matrix(0.33401461,0,0,0.33401461,-0.5,-0.5)"
         clip-rule="evenodd"
         id="path4" />
    </clipPath>
    <clipPath
       clipPathUnits="userSpaceOnUse"
       id="clipPath5">
      <path
         d="M 0,0 H 1712.4999 V 490.99649 H 0 Z"
         transform="matrix(0.33401126,0,0,0.33401126,-355.53125,-22)"
         clip-rule="evenodd"
         id="path5" />
    </clipPath>
    <clipPath
       clipPathUnits="userSpaceOnUse"
       id="clipPath7">
      <path
         d="M 0,0 H 1712.4999 V 490.99649 H 0 Z"
         transform="matrix(0.33401461,0,0,0.33401461,-0.5,-0.5)"
         clip-rule="evenodd"
         id="path7" />
    </clipPath>
    <clipPath
       clipPathUnits="userSpaceOnUse"
       id="clipPath8">
      <path
         d="M 0,0 H 1712.4999 V 490.99649 H 0 Z"
         transform="matrix(0.33401126,0,0,0.33401126,-408.875,-54)"
         clip-rule="evenodd"
         id="path8" />
    </clipPath>
    <clipPath
       clipPathUnits="userSpaceOnUse"
       id="clipPath10">
      <path
         d="M 0,0 H 1712.4999 V 490.99649 H 0 Z"
         transform="matrix(0.33401461,0,0,0.33401461,-0.5,-0.5)"
         clip-rule="evenodd"
         id="path10" />
    </clipPath>
    <clipPath
       clipPathUnits="userSpaceOnUse"
       id="clipPath11">
      <path
         d="M 0,0 H 1712.4999 V 490.99649 H 0 Z"
         transform="matrix(0.33401126,0,0,0.33401126,-399.54688,-86)"
         clip-rule="evenodd"
         id="path11" />
    </clipPath>
    <clipPath
       clipPathUnits="userSpaceOnUse"
       id="clipPath13">
      <path
         d="M 0,0 H 1712.4999 V 490.99649 H 0 Z"
         transform="matrix(0.33401461,0,0,0.33401461,-0.5,-0.5)"
         clip-rule="evenodd"
         id="path13" />
    </clipPath>
    <clipPath
       clipPathUnits="userSpaceOnUse"
       id="clipPath14">
      <path
         d="M 0,0 H 1712.4999 V 490.99649 H 0 Z"
         transform="matrix(0.33401126,0,0,0.33401126,-411.98439,-118)"
         clip-rule="evenodd"
         id="path14" />
    </clipPath>
    <clipPath
       clipPathUnits="userSpaceOnUse"
       id="clipPath16">
      <path
         d="M 0,0 H 1712.4999 V 490.99649 H 0 Z"
         transform="matrix(0.33401461,0,0,0.33401461,-0.5,-0.5)"
         clip-rule="evenodd"
         id="path16" />
    </clipPath>
    <clipPath
       clipPathUnits="userSpaceOnUse"
       id="clipPath18">
      <path
         d="M 0,0 H 1712.4999 V 490.99649 H 0 Z"
         transform="matrix(0.33401461,0,0,0.33401461,-0.5,-0.5)"
         clip-rule="evenodd"
         id="path18" />
    </clipPath>
    <clipPath
       clipPathUnits="userSpaceOnUse"
       id="clipPath20">
      <path
         d="M 0,0 H 1712.4999 V 490.99649 H 0 Z"
         transform="matrix(0.33401461,0,0,0.33401461,-0.5,-0.5)"
         clip-rule="evenodd"
         id="path20" />
    </clipPath>
    <clipPath
       clipPathUnits="userSpaceOnUse"
       id="clipPath21">
      <path
         d="M 0,0 H 1712.4999 V 490.99649 H 0 Z"
         transform="matrix(0.33401126,0,0,0.33401126,-82.4375,-22)"
         clip-rule="evenodd"
         id="path21" />
    </clipPath>
    <clipPath
       clipPathUnits="userSpaceOnUse"
       id="clipPath23">
      <path
         d="M 0,0 H 1712.4999 V 490.99649 H 0 Z"
         transform="matrix(0.33401461,0,0,0.33401461,-0.5,-0.5)"
         clip-rule="evenodd"
         id="path23" />
    </clipPath>
    <clipPath
       clipPathUnits="userSpaceOnUse"
       id="clipPath24">
      <path
         d="M 0,0 H 1712.4999 V 490.99649 H 0 Z"
         transform="matrix(0.33401126,0,0,0.33401126,-87.328125,-54)"
         clip-rule="evenodd"
         id="path24" />
    </clipPath>
    <clipPath
       clipPathUnits="userSpaceOnUse"
       id="clipPath26">
      <path
         d="M 0,0 H 1712.4999 V 490.99649 H 0 Z"
         transform="matrix(0.33401461,0,0,0.33401461,-0.5,-0.5)"
         clip-rule="evenodd"
         id="path26" />
    </clipPath>
    <clipPath
       clipPathUnits="userSpaceOnUse"
       id="clipPath28">
      <path
         d="M 0,0 H 1712.4999 V 490.99649 H 0 Z"
         transform="matrix(0.33401461,0,0,0.33401461,-0.5,-0.5)"
         clip-rule="evenodd"
         id="path28" />
    </clipPath>
    <clipPath
       clipPathUnits="userSpaceOnUse"
       id="clipPath30">
      <path
         d="M 0,0 H 1712.4999 V 490.99649 H 0 Z"
         transform="matrix(0.33401461,0,0,0.33401461,-0.5,-0.5)"
         clip-rule="evenodd"
         id="path30" />
    </clipPath>
    <clipPath
       clipPathUnits="userSpaceOnUse"
       id="clipPath32">
      <path
         d="M 0,0 H 1712.4999 V 490.99649 H 0 Z"
         transform="matrix(0.33401461,0,0,0.33401461,-0.5,-0.5)"
         clip-rule="evenodd"
         id="path32" />
    </clipPath>
    <clipPath
       clipPathUnits="userSpaceOnUse"
       id="clipPath34">
      <path
         d="M 0,0 H 1712.4999 V 490.99649 H 0 Z"
         transform="matrix(0.33401461,0,0,0.33401461,-0.5,-0.5)"
         clip-rule="evenodd"
         id="path34" />
    </clipPath>
    <clipPath
       clipPathUnits="userSpaceOnUse"
       id="clipPath36">
      <path
         d="M 0,0 H 1712.4999 V 490.99649 H 0 Z"
         transform="matrix(0.33401461,0,0,0.33401461,-0.5,-0.5)"
         clip-rule="evenodd"
         id="path36" />
    </clipPath>
    <clipPath
       clipPathUnits="userSpaceOnUse"
       id="clipPath38">
      <path
         d="M 0,0 H 1712.4999 V 490.99649 H 0 Z"
         transform="matrix(0.33401461,0,0,0.33401461,-0.5,-0.5)"
         clip-rule="evenodd"
         id="path38" />
    </clipPath>
    <clipPath
       clipPathUnits="userSpaceOnUse"
       id="clipPath39">
      <path
         d="M 0,0 H 1712.4999 V 490.99649 H 0 Z"
         transform="matrix(0.33401126,0,0,0.33401126,-417.32813,-150)"
         clip-rule="evenodd"
         id="path39" />
    </clipPath>
  </defs>
  <sodipodi:namedview
     id="namedview1"
     pagecolor="#ffffff"
     bordercolor="#000000"
     borderopacity="0.25"
     inkscape:showpageshadow="2"
     inkscape:pageopacity="0.0"
     inkscape:pagecheckerboard="0"
     inkscape:deskcolor="#d1d1d1">
    <inkscape:page
       x="0"
       y="0"
       inkscape:label="1"
       id="page1"
       width="547.84003"
       height="158.72"
       margin="0"
       bleed="0" />
  </sodipodi:namedview>
  <g
     id="g1"
     inkscape:groupmode="layer"
     inkscape:label="1">
    <path
       id="path1"
       d="M 0,0 H 572 V 165 H 0 Z"
       style="fill:#ffffff;fill-opacity:1;fill-rule:nonzero;stroke:none"
       transform="scale(0.95804188)"
       clip-path="url(#clipPath2)" />
    <path
       id="path3"
       d="M 331,1 H 541 V 33 H 331 Z"
       style="fill:#dae8fc;fill-opacity:1;fill-rule:nonzero;stroke:#6c8ebf;stroke-width:1;stroke-linecap:butt;stroke-linejoin:miter;stroke-miterlimit:10;stroke-dasharray:none;stroke-opacity:1"
       transform="matrix(0.95804188,0,0,0.95804188,0.47902094,0.47902094)"
       clip-path="url(#clipPath4)" />
    <text
       id="text4"
       xml:space="preserve"
       transform="matrix(0.95805148,0,0,0.95805148,340.61724,21.077133)"
       clip-path="url(#clipPath5)"><tspan
         style="font-variant:normal;font-weight:700;font-size:16px;font-family:Helvetica;writing-mode:lr-tb;fill:#000000;fill-opacity:1;fill-rule:nonzero;stroke:none"
         x="0 11.554688 21.328125 30.226562 36.453125 45.351562 54.25 59.578125 68.476562 74.703125 83.601562 95.15625 104.92969 109.375 113.82031 122.71875 131.61719 136.94531 141.39062 151.16406"
         y="0"
         sodipodi:role="line"
         id="tspan4">CharactersCollection</tspan></text>
    <path
       id="path6"
       d="M 331,33 H 541 V 65 H 331 Z"
       style="fill:#d5e8d4;fill-opacity:1;fill-rule:nonzero;stroke:#82b366;stroke-width:1;stroke-linecap:butt;stroke-linejoin:miter;stroke-miterlimit:10;stroke-dasharray:none;stroke-opacity:1"
       transform="matrix(0.95804188,0,0,0.95804188,0.47902094,0.47902094)"
       clip-path="url(#clipPath7)" />
    <text
       id="text7"
       xml:space="preserve"
       transform="matrix(0.95805148,0,0,0.95805148,391.7233,51.73478)"
       clip-path="url(#clipPath8)"><tspan
         style="font-variant:normal;font-weight:normal;font-size:16px;font-family:Helvetica;writing-mode:lr-tb;fill:#000000;fill-opacity:1;fill-rule:nonzero;stroke:none"
         x="0 3.5546875 12.453125 21.351562 30.25 34.695312 43.59375 48.921875"
         y="0"
         sodipodi:role="line"
         id="tspan7">length()</tspan></text>
    <path
       id="path9"
       d="M 331,65 H 541 V 97 H 331 Z"
       style="fill:#d5e8d4;fill-opacity:1;fill-rule:nonzero;stroke:#82b366;stroke-width:1;stroke-linecap:butt;stroke-linejoin:miter;stroke-miterlimit:10;stroke-dasharray:none;stroke-opacity:1"
       transform="matrix(0.95804188,0,0,0.95804188,0.47902094,0.47902094)"
       clip-path="url(#clipPath10)" />
    <text
       id="text10"
       xml:space="preserve"
       transform="matrix(0.95805148,0,0,0.95805148,382.78648,82.392427)"
       clip-path="url(#clipPath11)"><tspan
         style="font-variant:normal;font-weight:normal;font-size:16px;font-family:Helvetica;writing-mode:lr-tb;fill:#000000;fill-opacity:1;fill-rule:nonzero;stroke:none"
         x="0 8 16.898438 30.226562 39.125 48.023438 53.351562 62.25 67.578125"
         y="0"
         sodipodi:role="line"
         id="tspan10">compare()</tspan></text>
    <path
       id="path12"
       d="m 331,97 h 210 v 32 H 331 Z"
       style="fill:#d5e8d4;fill-opacity:1;fill-rule:nonzero;stroke:#82b366;stroke-width:1;stroke-linecap:butt;stroke-linejoin:miter;stroke-miterlimit:10;stroke-dasharray:none;stroke-opacity:1"
       transform="matrix(0.95804188,0,0,0.95804188,0.47902094,0.47902094)"
       clip-path="url(#clipPath13)" />
    <text
       id="text13"
       xml:space="preserve"
       transform="matrix(0.95805148,0,0,0.95805148,394.70225,113.05007)"
       clip-path="url(#clipPath14)"><tspan
         style="font-variant:normal;font-weight:normal;font-size:16px;font-family:Helvetica;writing-mode:lr-tb;fill:#000000;fill-opacity:1;fill-rule:nonzero;stroke:none"
         x="0 8 19.554688 28.453125 37.351562 42.679688"
         y="0"
         sodipodi:role="line"
         id="tspan13">swap()</tspan></text>
    <path
       id="path15"
       d="M 211,17 H 324.64001"
       style="fill:none;stroke:#000000;stroke-width:1;stroke-linecap:butt;stroke-linejoin:miter;stroke-miterlimit:10;stroke-dasharray:none;stroke-opacity:1"
       transform="matrix(0.95804188,0,0,0.95804188,0.47902094,0.47902094)"
       clip-path="url(#clipPath16)" />
    <path
       id="path17"
       d="m 329.89001,17 -7,3.5 1.75,-3.5 -1.75,-3.5 z"
       style="fill:#000000;fill-opacity:1;fill-rule:nonzero;stroke:#000000;stroke-width:1;stroke-linecap:butt;stroke-linejoin:miter;stroke-miterlimit:10;stroke-dasharray:none;stroke-opacity:1"
       transform="matrix(0.95804188,0,0,0.95804188,0.47902094,0.47902094)"
       clip-path="url(#clipPath18)" />
    <path
       id="path19"
       d="M 1,1 H 211 V 33 H 1 Z"
       style="fill:#dae8fc;fill-opacity:1;fill-rule:nonzero;stroke:#6c8ebf;stroke-width:1;stroke-linecap:butt;stroke-linejoin:miter;stroke-miterlimit:10;stroke-dasharray:none;stroke-opacity:1"
       transform="matrix(0.95804188,0,0,0.95804188,0.47902094,0.47902094)"
       clip-path="url(#clipPath20)" />
    <text
       id="text20"
       xml:space="preserve"
       transform="matrix(0.95805148,0,0,0.95805148,78.979369,21.077133)"
       clip-path="url(#clipPath21)"><tspan
         style="font-variant:normal;font-weight:700;font-size:16px;font-family:Helvetica;writing-mode:lr-tb;fill:#000000;fill-opacity:1;fill-rule:nonzero;stroke:none"
         x="0 10.671875 20.445312 26.671875 32 40.898438"
         y="0"
         sodipodi:role="line"
         id="tspan20">Sorter</tspan></text>
    <path
       id="path22"
       d="M 1,33 H 211 V 65 H 1 Z"
       style="fill:#fff2cc;fill-opacity:1;fill-rule:nonzero;stroke:#d6b656;stroke-width:1;stroke-linecap:butt;stroke-linejoin:miter;stroke-miterlimit:10;stroke-dasharray:none;stroke-opacity:1"
       transform="matrix(0.95804188,0,0,0.95804188,0.47902094,0.47902094)"
       clip-path="url(#clipPath23)" />
    <text
       id="text23"
       xml:space="preserve"
       transform="matrix(0.95805148,0,0,0.95805148,83.664839,51.73478)"
       clip-path="url(#clipPath24)"><tspan
         style="font-variant:normal;font-weight:normal;font-size:16px;font-family:Helvetica;writing-mode:lr-tb;fill:#000000;fill-opacity:1;fill-rule:nonzero;stroke:none"
         x="0 8 16.898438 22.226562 26.671875 32"
         y="0"
         sodipodi:role="line"
         id="tspan23">sort()</tspan></text>
    <path
       id="path25"
       d="M 541.01001,145 H 561 v -32 h -13.63"
       style="fill:none;stroke:#000000;stroke-width:1;stroke-linecap:butt;stroke-linejoin:miter;stroke-miterlimit:10;stroke-dasharray:none;stroke-opacity:1"
       transform="matrix(0.95804188,0,0,0.95804188,0.47902094,0.47902094)"
       clip-path="url(#clipPath26)" />
    <path
       id="path27"
       d="m 542.12,113 7,-3.5 -1.75,3.5 1.75,3.5 z"
       style="fill:#000000;fill-opacity:1;fill-rule:nonzero;stroke:#000000;stroke-width:1;stroke-linecap:butt;stroke-linejoin:miter;stroke-miterlimit:10;stroke-dasharray:none;stroke-opacity:1"
       transform="matrix(0.95804188,0,0,0.95804188,0.47902094,0.47902094)"
       clip-path="url(#clipPath28)" />
    <path
       id="path29"
       d="M 541.01001,145 H 561 V 81 h -13.63"
       style="fill:none;stroke:#000000;stroke-width:1;stroke-linecap:butt;stroke-linejoin:miter;stroke-miterlimit:10;stroke-dasharray:none;stroke-opacity:1"
       transform="matrix(0.95804188,0,0,0.95804188,0.47902094,0.47902094)"
       clip-path="url(#clipPath30)" />
    <path
       id="path31"
       d="m 542.12,81 7,-3.5 -1.75,3.5 1.75,3.5 z"
       style="fill:#000000;fill-opacity:1;fill-rule:nonzero;stroke:#000000;stroke-width:1;stroke-linecap:butt;stroke-linejoin:miter;stroke-miterlimit:10;stroke-dasharray:none;stroke-opacity:1"
       transform="matrix(0.95804188,0,0,0.95804188,0.47902094,0.47902094)"
       clip-path="url(#clipPath32)" />
    <path
       id="path33"
       d="M 541.01001,145 H 561 V 49 h -13.63"
       style="fill:none;stroke:#000000;stroke-width:1;stroke-linecap:butt;stroke-linejoin:miter;stroke-miterlimit:10;stroke-dasharray:none;stroke-opacity:1"
       transform="matrix(0.95804188,0,0,0.95804188,0.47902094,0.47902094)"
       clip-path="url(#clipPath34)" />
    <path
       id="path35"
       d="m 542.12,49 7,-3.5 -1.75,3.5 1.75,3.5 z"
       style="fill:#000000;fill-opacity:1;fill-rule:nonzero;stroke:#000000;stroke-width:1;stroke-linecap:butt;stroke-linejoin:miter;stroke-miterlimit:10;stroke-dasharray:none;stroke-opacity:1"
       transform="matrix(0.95804188,0,0,0.95804188,0.47902094,0.47902094)"
       clip-path="url(#clipPath36)" />
    <path
       id="path37"
       d="m 331,129 h 210 v 32 H 331 Z"
       style="fill:#fff2cc;fill-opacity:1;fill-rule:nonzero;stroke:#d6b656;stroke-width:1;stroke-linecap:butt;stroke-linejoin:miter;stroke-miterlimit:10;stroke-dasharray:none;stroke-opacity:1"
       transform="matrix(0.95804188,0,0,0.95804188,0.47902094,0.47902094)"
       clip-path="url(#clipPath38)" />
    <text
       id="text38"
       xml:space="preserve"
       transform="matrix(0.95805148,0,0,0.95805148,399.82183,143.70772)"
       clip-path="url(#clipPath39)"><tspan
         style="font-variant:normal;font-weight:normal;font-size:16px;font-family:Helvetica;writing-mode:lr-tb;fill:#000000;fill-opacity:1;fill-rule:nonzero;stroke:none"
         x="0 8 16.898438 22.226562 26.671875 32"
         y="0"
         sodipodi:role="line"
         id="tspan38">sort()</tspan></text>
  </g>
</svg>
