<?xml version="1.0" encoding="UTF-8" standalone="no"?>
<!-- Created with Inkscape (http://www.inkscape.org/) -->

<svg
   version="1.1"
   id="svg1"
   width="722.56"
   height="536"
   viewBox="0 0 722.56 536"
   sodipodi:docname="ts-24.pdf"
   xmlns:inkscape="http://www.inkscape.org/namespaces/inkscape"
   xmlns:sodipodi="http://sodipodi.sourceforge.net/DTD/sodipodi-0.dtd"
   xmlns="http://www.w3.org/2000/svg"
   xmlns:svg="http://www.w3.org/2000/svg">
  <defs
     id="defs1">
    <clipPath
       clipPathUnits="userSpaceOnUse"
       id="clipPath2">
      <path
         d="M 0,0 H 2258.3333 V 1674.2816 H 0 Z"
         transform="scale(0.33387454)"
         clip-rule="evenodd"
         id="path2" />
    </clipPath>
    <clipPath
       clipPathUnits="userSpaceOnUse"
       id="clipPath4">
      <path
         d="M 0,0 H 2258.3333 V 1668.2913 H 0 Z"
         transform="matrix(0.33387454,0,0,0.33387454,-0.5,-0.5)"
         clip-rule="evenodd"
         id="path4" />
    </clipPath>
    <clipPath
       clipPathUnits="userSpaceOnUse"
       id="clipPath6">
      <path
         d="M 0,0 H 2258.3333 V 1668.2913 H 0 Z"
         transform="matrix(0.33387454,0,0,0.33387454,-0.5,-0.5)"
         clip-rule="evenodd"
         id="path6" />
    </clipPath>
    <clipPath
       clipPathUnits="userSpaceOnUse"
       id="clipPath8">
      <path
         d="M 0,0 H 2258.3333 V 1668.2913 H 0 Z"
         transform="matrix(0.33387454,0,0,0.33387454,-0.5,-0.5)"
         clip-rule="evenodd"
         id="path8" />
    </clipPath>
    <clipPath
       clipPathUnits="userSpaceOnUse"
       id="clipPath10">
      <path
         d="M 0,0 H 2258.3333 V 1668.2913 H 0 Z"
         transform="matrix(0.33387454,0,0,0.33387454,-0.5,-0.5)"
         clip-rule="evenodd"
         id="path10" />
    </clipPath>
    <clipPath
       clipPathUnits="userSpaceOnUse"
       id="clipPath12">
      <path
         d="M 0,0 H 2258.3333 V 1668.2913 H 0 Z"
         transform="matrix(0.33387454,0,0,0.33387454,-0.5,-0.5)"
         clip-rule="evenodd"
         id="path12" />
    </clipPath>
    <clipPath
       clipPathUnits="userSpaceOnUse"
       id="clipPath14">
      <path
         d="M 0,0 H 2258.3333 V 1668.2913 H 0 Z"
         transform="matrix(0.33387454,0,0,0.33387454,-0.5,-0.5)"
         clip-rule="evenodd"
         id="path14" />
    </clipPath>
    <clipPath
       clipPathUnits="userSpaceOnUse"
       id="clipPath16">
      <path
         d="M 0,0 H 2258.3333 V 1668.2913 H 0 Z"
         transform="matrix(0.33387454,0,0,0.33387454,-0.5,-0.5)"
         clip-rule="evenodd"
         id="path16" />
    </clipPath>
    <clipPath
       clipPathUnits="userSpaceOnUse"
       id="clipPath18">
      <path
         d="M 0,0 H 2258.3333 V 1668.2913 H 0 Z"
         transform="matrix(0.33387454,0,0,0.33387454,-0.5,-0.5)"
         clip-rule="evenodd"
         id="path18" />
    </clipPath>
    <clipPath
       clipPathUnits="userSpaceOnUse"
       id="clipPath19">
      <path
         d="M 0,0 H 2258.3333 V 1668.2913 H 0 Z"
         transform="matrix(0.3338712,0,0,0.3338712,-115.28125,-164)"
         clip-rule="evenodd"
         id="path19" />
    </clipPath>
    <clipPath
       clipPathUnits="userSpaceOnUse"
       id="clipPath20">
      <path
         d="M 0,0 H 2258.3333 V 1668.2913 H 0 Z"
         transform="matrix(0.3338712,0,0,0.3338712,-23,-287)"
         clip-rule="evenodd"
         id="path20" />
    </clipPath>
    <clipPath
       clipPathUnits="userSpaceOnUse"
       id="clipPath21">
      <path
         d="M 0,0 H 2258.3333 V 1668.2913 H 0 Z"
         transform="matrix(0.3338712,0,0,0.3338712,-23,-309)"
         clip-rule="evenodd"
         id="path21" />
    </clipPath>
    <clipPath
       clipPathUnits="userSpaceOnUse"
       id="clipPath22">
      <path
         d="M 0,0 H 2258.3333 V 1668.2913 H 0 Z"
         transform="matrix(0.3338712,0,0,0.3338712,-23,-355)"
         clip-rule="evenodd"
         id="path22" />
    </clipPath>
    <clipPath
       clipPathUnits="userSpaceOnUse"
       id="clipPath23">
      <path
         d="M 0,0 H 2258.3333 V 1668.2913 H 0 Z"
         transform="matrix(0.3338712,0,0,0.3338712,-23,-378.00001)"
         clip-rule="evenodd"
         id="path23" />
    </clipPath>
    <clipPath
       clipPathUnits="userSpaceOnUse"
       id="clipPath24">
      <path
         d="M 0,0 H 2258.3333 V 1668.2913 H 0 Z"
         transform="matrix(0.3338712,0,0,0.3338712,-23,-205)"
         clip-rule="evenodd"
         id="path24" />
    </clipPath>
    <clipPath
       clipPathUnits="userSpaceOnUse"
       id="clipPath25">
      <path
         d="M 0,0 H 2258.3333 V 1668.2913 H 0 Z"
         transform="matrix(0.3338712,0,0,0.3338712,-23,-228.00001)"
         clip-rule="evenodd"
         id="path25" />
    </clipPath>
    <clipPath
       clipPathUnits="userSpaceOnUse"
       id="clipPath27">
      <path
         d="M 0,0 H 2258.3333 V 1668.2913 H 0 Z"
         transform="matrix(0.33387454,0,0,0.33387454,-0.5,-0.5)"
         clip-rule="evenodd"
         id="path27" />
    </clipPath>
    <clipPath
       clipPathUnits="userSpaceOnUse"
       id="clipPath28">
      <path
         d="M 0,0 H 2258.3333 V 1668.2913 H 0 Z"
         transform="matrix(0.3338712,0,0,0.3338712,-482.3125,-24)"
         clip-rule="evenodd"
         id="path28" />
    </clipPath>
    <clipPath
       clipPathUnits="userSpaceOnUse"
       id="clipPath29">
      <path
         d="M 0,0 H 2258.3333 V 1668.2913 H 0 Z"
         transform="matrix(0.3338712,0,0,0.3338712,-503,-57)"
         clip-rule="evenodd"
         id="path29" />
    </clipPath>
    <clipPath
       clipPathUnits="userSpaceOnUse"
       id="clipPath30">
      <path
         d="M 0,0 H 2258.3333 V 1668.2913 H 0 Z"
         transform="matrix(0.3338712,0,0,0.3338712,-503,-79)"
         clip-rule="evenodd"
         id="path30" />
    </clipPath>
    <clipPath
       clipPathUnits="userSpaceOnUse"
       id="clipPath31">
      <path
         d="M 0,0 H 2258.3333 V 1668.2913 H 0 Z"
         transform="matrix(0.3338712,0,0,0.3338712,-503,-102)"
         clip-rule="evenodd"
         id="path31" />
    </clipPath>
    <clipPath
       clipPathUnits="userSpaceOnUse"
       id="clipPath32">
      <path
         d="M 0,0 H 2258.3333 V 1668.2913 H 0 Z"
         transform="matrix(0.3338712,0,0,0.3338712,-503,-125.00001)"
         clip-rule="evenodd"
         id="path32" />
    </clipPath>
    <clipPath
       clipPathUnits="userSpaceOnUse"
       id="clipPath33">
      <path
         d="M 0,0 H 2258.3333 V 1668.2913 H 0 Z"
         transform="matrix(0.3338712,0,0,0.3338712,-503,-148)"
         clip-rule="evenodd"
         id="path33" />
    </clipPath>
    <clipPath
       clipPathUnits="userSpaceOnUse"
       id="clipPath35">
      <path
         d="M 0,0 H 2258.3333 V 1668.2913 H 0 Z"
         transform="matrix(0.33387454,0,0,0.33387454,-0.5,-0.5)"
         clip-rule="evenodd"
         id="path35" />
    </clipPath>
    <clipPath
       clipPathUnits="userSpaceOnUse"
       id="clipPath36">
      <path
         d="M 0,0 H 2258.3333 V 1668.2913 H 0 Z"
         transform="matrix(0.3338712,0,0,0.3338712,-471.1875,-224)"
         clip-rule="evenodd"
         id="path36" />
    </clipPath>
    <clipPath
       clipPathUnits="userSpaceOnUse"
       id="clipPath37">
      <path
         d="M 0,0 H 2258.3333 V 1668.2913 H 0 Z"
         transform="matrix(0.3338712,0,0,0.3338712,-503,-257)"
         clip-rule="evenodd"
         id="path37" />
    </clipPath>
    <clipPath
       clipPathUnits="userSpaceOnUse"
       id="clipPath38">
      <path
         d="M 0,0 H 2258.3333 V 1668.2913 H 0 Z"
         transform="matrix(0.3338712,0,0,0.3338712,-503,-279)"
         clip-rule="evenodd"
         id="path38" />
    </clipPath>
    <clipPath
       clipPathUnits="userSpaceOnUse"
       id="clipPath39">
      <path
         d="M 0,0 H 2258.3333 V 1668.2913 H 0 Z"
         transform="matrix(0.3338712,0,0,0.3338712,-503,-302)"
         clip-rule="evenodd"
         id="path39" />
    </clipPath>
    <clipPath
       clipPathUnits="userSpaceOnUse"
       id="clipPath40">
      <path
         d="M 0,0 H 2258.3333 V 1668.2913 H 0 Z"
         transform="matrix(0.3338712,0,0,0.3338712,-503,-325.00001)"
         clip-rule="evenodd"
         id="path40" />
    </clipPath>
    <clipPath
       clipPathUnits="userSpaceOnUse"
       id="clipPath41">
      <path
         d="M 0,0 H 2258.3333 V 1668.2913 H 0 Z"
         transform="matrix(0.3338712,0,0,0.3338712,-503,-348)"
         clip-rule="evenodd"
         id="path41" />
    </clipPath>
    <clipPath
       clipPathUnits="userSpaceOnUse"
       id="clipPath43">
      <path
         d="M 0,0 H 2258.3333 V 1668.2913 H 0 Z"
         transform="matrix(0.33387454,0,0,0.33387454,-0.5,-0.5)"
         clip-rule="evenodd"
         id="path43" />
    </clipPath>
    <clipPath
       clipPathUnits="userSpaceOnUse"
       id="clipPath44">
      <path
         d="M 0,0 H 2258.3333 V 1668.2913 H 0 Z"
         transform="matrix(0.3338712,0,0,0.3338712,-534.40625,-414)"
         clip-rule="evenodd"
         id="path44" />
    </clipPath>
    <clipPath
       clipPathUnits="userSpaceOnUse"
       id="clipPath45">
      <path
         d="M 0,0 H 2258.3333 V 1668.2913 H 0 Z"
         transform="matrix(0.3338712,0,0,0.3338712,-503,-447)"
         clip-rule="evenodd"
         id="path45" />
    </clipPath>
    <clipPath
       clipPathUnits="userSpaceOnUse"
       id="clipPath46">
      <path
         d="M 0,0 H 2258.3333 V 1668.2913 H 0 Z"
         transform="matrix(0.3338712,0,0,0.3338712,-503,-469)"
         clip-rule="evenodd"
         id="path46" />
    </clipPath>
    <clipPath
       clipPathUnits="userSpaceOnUse"
       id="clipPath47">
      <path
         d="M 0,0 H 2258.3333 V 1668.2913 H 0 Z"
         transform="matrix(0.3338712,0,0,0.3338712,-503,-492)"
         clip-rule="evenodd"
         id="path47" />
    </clipPath>
    <clipPath
       clipPathUnits="userSpaceOnUse"
       id="clipPath48">
      <path
         d="M 0,0 H 2258.3333 V 1668.2913 H 0 Z"
         transform="matrix(0.3338712,0,0,0.3338712,-503,-515)"
         clip-rule="evenodd"
         id="path48" />
    </clipPath>
    <clipPath
       clipPathUnits="userSpaceOnUse"
       id="clipPath49">
      <path
         d="M 0,0 H 2258.3333 V 1668.2913 H 0 Z"
         transform="matrix(0.3338712,0,0,0.3338712,-503,-538)"
         clip-rule="evenodd"
         id="path49" />
    </clipPath>
  </defs>
  <sodipodi:namedview
     id="namedview1"
     pagecolor="#ffffff"
     bordercolor="#000000"
     borderopacity="0.25"
     inkscape:showpageshadow="2"
     inkscape:pageopacity="0.0"
     inkscape:pagecheckerboard="0"
     inkscape:deskcolor="#d1d1d1">
    <inkscape:page
       x="0"
       y="0"
       inkscape:label="1"
       id="page1"
       width="722.56"
       height="536"
       margin="0"
       bleed="0" />
  </sodipodi:namedview>
  <g
     id="g1"
     inkscape:groupmode="layer"
     inkscape:label="1">
    <path
       id="path1"
       d="M 0,0 H 754 V 559 H 0 Z"
       style="fill:#ffffff;fill-opacity:1;fill-rule:nonzero;stroke:none"
       transform="scale(0.9584438)"
       clip-path="url(#clipPath2)" />
    <path
       id="path3"
       d="M 1,175 H 331 V 445 H 1 Z"
       style="fill:#d5e8d4;fill-opacity:1;fill-rule:nonzero;stroke:#82b366;stroke-width:1;stroke-linecap:butt;stroke-linejoin:miter;stroke-miterlimit:10;stroke-dasharray:none;stroke-opacity:1"
       transform="matrix(0.9584438,0,0,0.9584438,0.4792219,0.4792219)"
       clip-path="url(#clipPath4)" />
    <path
       id="path5"
       d="m 331,210 h 75 V 100 h 68.64001"
       style="fill:none;stroke:#000000;stroke-width:1;stroke-linecap:butt;stroke-linejoin:miter;stroke-miterlimit:10;stroke-dasharray:none;stroke-opacity:1"
       transform="matrix(0.9584438,0,0,0.9584438,0.4792219,0.4792219)"
       clip-path="url(#clipPath6)" />
    <path
       id="path7"
       d="m 479.89001,100 -7,3.5 1.75,-3.5 -1.75,-3.5 z"
       style="fill:#000000;fill-opacity:1;fill-rule:nonzero;stroke:#000000;stroke-width:1;stroke-linecap:butt;stroke-linejoin:miter;stroke-miterlimit:10;stroke-dasharray:none;stroke-opacity:1"
       transform="matrix(0.9584438,0,0,0.9584438,0.4792219,0.4792219)"
       clip-path="url(#clipPath8)" />
    <path
       id="path9"
       d="m 331,210 h 75 v 90 h 68.64001"
       style="fill:none;stroke:#000000;stroke-width:1;stroke-linecap:butt;stroke-linejoin:miter;stroke-miterlimit:10;stroke-dasharray:none;stroke-opacity:1"
       transform="matrix(0.9584438,0,0,0.9584438,0.4792219,0.4792219)"
       clip-path="url(#clipPath10)" />
    <path
       id="path11"
       d="m 479.89001,300 -7,3.5 1.75,-3.5 -1.75,-3.5 z"
       style="fill:#000000;fill-opacity:1;fill-rule:nonzero;stroke:#000000;stroke-width:1;stroke-linecap:butt;stroke-linejoin:miter;stroke-miterlimit:10;stroke-dasharray:none;stroke-opacity:1"
       transform="matrix(0.9584438,0,0,0.9584438,0.4792219,0.4792219)"
       clip-path="url(#clipPath12)" />
    <path
       id="path13"
       d="m 331,210 h 75 v 280 h 68.64001"
       style="fill:none;stroke:#000000;stroke-width:1;stroke-linecap:butt;stroke-linejoin:miter;stroke-miterlimit:10;stroke-dasharray:none;stroke-opacity:1"
       transform="matrix(0.9584438,0,0,0.9584438,0.4792219,0.4792219)"
       clip-path="url(#clipPath14)" />
    <path
       id="path15"
       d="m 479.89001,490 -7,3.5 1.75,-3.5 -1.75,-3.5 z"
       style="fill:#000000;fill-opacity:1;fill-rule:nonzero;stroke:#000000;stroke-width:1;stroke-linecap:butt;stroke-linejoin:miter;stroke-miterlimit:10;stroke-dasharray:none;stroke-opacity:1"
       transform="matrix(0.9584438,0,0,0.9584438,0.4792219,0.4792219)"
       clip-path="url(#clipPath16)" />
    <path
       id="path17"
       d="m 1,175 h 330 v 70 H 1 Z"
       style="fill:#dae8fc;fill-opacity:1;fill-rule:nonzero;stroke:#6c8ebf;stroke-width:1;stroke-linecap:butt;stroke-linejoin:miter;stroke-miterlimit:10;stroke-dasharray:none;stroke-opacity:1"
       transform="matrix(0.9584438,0,0,0.9584438,0.4792219,0.4792219)"
       clip-path="url(#clipPath18)" />
    <text
       id="text18"
       xml:space="preserve"
       transform="matrix(0.9584534,0,0,0.9584534,110.49171,157.18636)"
       clip-path="url(#clipPath19)"><tspan
         style="font-variant:normal;font-weight:700;font-size:25px;font-family:Helvetica;writing-mode:lr-tb;fill:#000000;fill-opacity:1;fill-rule:nonzero;stroke:none"
         x="0 16.674805 31.945801 41.674805 50 63.903809 72.265625 79.211426 87.536621"
         y="0"
         sodipodi:role="line"
         id="tspan18">Sorter.ts</tspan></text>
    <text
       id="text19"
       xml:space="preserve"
       transform="matrix(0.9584534,0,0,0.9584534,22.044428,275.07613)"
       clip-path="url(#clipPath20)"><tspan
         style="font-variant:normal;font-weight:normal;font-size:19px;font-family:Helvetica;writing-mode:lr-tb;fill:#000000;fill-opacity:1;fill-rule:nonzero;stroke:none"
         x="0 9.5 13.721191 24.288086 33.788086 43.288086 48.566895 61.239746 71.806641 78.133789 83.412598 93.979492 100.30664 105.58545"
         y="0"
         sodipodi:role="line"
         id="tspan19">class Sorter {</tspan></text>
    <text
       id="text20"
       xml:space="preserve"
       transform="matrix(0.9584534,0,0,0.9584534,22.044428,296.1621)"
       clip-path="url(#clipPath21)"><tspan
         style="font-variant:normal;font-weight:normal;font-size:19px;font-family:Helvetica;writing-mode:lr-tb;fill:#000000;fill-opacity:1;fill-rule:nonzero;stroke:none"
         x="0 5.2788086 10.557617 20.057617 30.624512 36.95166 42.230469 48.557617 54.884766 60.163574"
         y="0"
         sodipodi:role="line"
         id="tspan20">  sort() {</tspan></text>
    <text
       id="text21"
       xml:space="preserve"
       transform="matrix(0.9584534,0,0,0.9584534,22.044428,340.25096)"
       clip-path="url(#clipPath22)"><tspan
         style="font-variant:normal;font-weight:normal;font-size:19px;font-family:Helvetica;writing-mode:lr-tb;fill:#000000;fill-opacity:1;fill-rule:nonzero;stroke:none"
         x="0 5.2788086 10.557617"
         y="0"
         sodipodi:role="line"
         id="tspan21">  }</tspan></text>
    <text
       id="text22"
       xml:space="preserve"
       transform="matrix(0.9584534,0,0,0.9584534,22.044428,362.29539)"
       clip-path="url(#clipPath23)"><tspan
         style="font-variant:normal;font-weight:normal;font-size:19px;font-family:Helvetica;writing-mode:lr-tb;fill:#000000;fill-opacity:1;fill-rule:nonzero;stroke:none"
         x="0"
         y="0"
         id="tspan22">}</tspan></text>
    <text
       id="text23"
       xml:space="preserve"
       transform="matrix(0.9584534,0,0,0.9584534,22.044428,196.48295)"
       clip-path="url(#clipPath24)"><tspan
         style="font-style:oblique;font-variant:normal;font-weight:normal;font-size:19px;font-family:Helvetica;writing-mode:lr-tb;fill:#000000;fill-opacity:1;fill-rule:nonzero;stroke:none"
         x="0 5.2788086 15.845703 25.345703 30.624512 36.95166 47.518555 57.018555 62.297363 66.518555 77.085449 87.652344 97.152344 102.43115 112.99805 123.56494 128.84375 139.41064 149.97754 163.69873 168.97754 174.25635"
         y="0"
         sodipodi:role="line"
         id="tspan23">Instructions on how to</tspan></text>
    <text
       id="text24"
       xml:space="preserve"
       transform="matrix(0.9584534,0,0,0.9584534,22.044428,218.52738)"
       clip-path="url(#clipPath25)"><tspan
         style="font-style:oblique;font-variant:normal;font-weight:normal;font-size:19px;font-family:Helvetica;writing-mode:lr-tb;fill:#000000;fill-opacity:1;fill-rule:nonzero;stroke:none"
         x="0 10.566895 21.133789 26.412598 30.040039 42.712891 53.279785 59.606934 64.885742 75.452637 86.019531 90.240723 100.80762"
         y="0"
         sodipodi:role="line"
         id="tspan24">be 'Sortable'</tspan></text>
    <path
       id="path26"
       d="M 481,35 H 741 V 165 H 481 Z"
       style="fill:#d5e8d4;fill-opacity:1;fill-rule:nonzero;stroke:#82b366;stroke-width:1;stroke-linecap:butt;stroke-linejoin:miter;stroke-miterlimit:10;stroke-dasharray:none;stroke-opacity:1"
       transform="matrix(0.9584438,0,0,0.9584438,0.4792219,0.4792219)"
       clip-path="url(#clipPath27)" />
    <text
       id="text27"
       xml:space="preserve"
       transform="matrix(0.9584534,0,0,0.9584534,462.27406,23.002882)"
       clip-path="url(#clipPath28)"><tspan
         style="font-variant:normal;font-weight:700;font-size:25px;font-family:Helvetica;writing-mode:lr-tb;fill:#000000;fill-opacity:1;fill-rule:nonzero;stroke:none"
         x="0 18.054199 33.325195 55.554199 70.825195 84.729004 94.458008 108.36182 126.41602 141.68701 148.63281 155.57861 169.48242 183.38623 191.71143 198.65723 213.92822 229.19922 236.14502 244.47021"
         y="0"
         sodipodi:role="line"
         id="tspan27">NumbersCollection.ts</tspan></text>
    <text
       id="text28"
       xml:space="preserve"
       transform="matrix(0.9584534,0,0,0.9584534,482.10206,54.631844)"
       clip-path="url(#clipPath29)"><tspan
         style="font-variant:normal;font-weight:normal;font-size:19px;font-family:Helvetica;writing-mode:lr-tb;fill:#000000;fill-opacity:1;fill-rule:nonzero;stroke:none"
         x="0 9.5 13.721191 24.288086 33.788086 43.288086 48.566895 62.288086 72.85498 88.682129 99.249023 109.81592 116.14307 125.64307 139.36426 149.93115 154.15234 158.37354 168.94043 178.44043 183.71924 187.94043 198.50732 209.07422 214.35303"
         y="0"
         sodipodi:role="line"
         id="tspan28">class NumbersCollection {</tspan></text>
    <text
       id="text29"
       xml:space="preserve"
       transform="matrix(0.9584534,0,0,0.9584534,482.10206,75.717819)"
       clip-path="url(#clipPath30)"><tspan
         style="font-variant:normal;font-weight:normal;font-size:19px;font-family:Helvetica;writing-mode:lr-tb;fill:#000000;fill-opacity:1;fill-rule:nonzero;stroke:none"
         x="0 5.2788086 10.557617 20.057617 33.778809 44.345703 54.912598 61.239746 65.460938 70.739746 76.018555 80.239746"
         y="0"
         sodipodi:role="line"
         id="tspan29">  swap(i, j)</tspan></text>
    <text
       id="text30"
       xml:space="preserve"
       transform="matrix(0.9584534,0,0,0.9584534,482.10206,97.762247)"
       clip-path="url(#clipPath31)"><tspan
         style="font-variant:normal;font-weight:normal;font-size:19px;font-family:Helvetica;writing-mode:lr-tb;fill:#000000;fill-opacity:1;fill-rule:nonzero;stroke:none"
         x="0 5.2788086 10.557617 20.057617 30.624512 46.45166 57.018555 67.585449 73.912598 84.479492 90.806641 95.027832 100.30664 105.58545 109.80664"
         y="0"
         sodipodi:role="line"
         id="tspan30">  compare(i, j)</tspan></text>
    <text
       id="text31"
       xml:space="preserve"
       transform="matrix(0.9584534,0,0,0.9584534,482.10206,119.80668)"
       clip-path="url(#clipPath32)"><tspan
         style="font-variant:normal;font-weight:normal;font-size:19px;font-family:Helvetica;writing-mode:lr-tb;fill:#000000;fill-opacity:1;fill-rule:nonzero;stroke:none"
         x="0 5.2788086 10.557617 14.778809 25.345703 35.912598 46.479492 51.758301 62.325195 68.652344"
         y="0"
         sodipodi:role="line"
         id="tspan31">  length()</tspan></text>
    <text
       id="text32"
       xml:space="preserve"
       transform="matrix(0.9584534,0,0,0.9584534,482.10206,141.8511)"
       clip-path="url(#clipPath33)"><tspan
         style="font-variant:normal;font-weight:normal;font-size:19px;font-family:Helvetica;writing-mode:lr-tb;fill:#000000;fill-opacity:1;fill-rule:nonzero;stroke:none"
         x="0"
         y="0"
         id="tspan32">}</tspan></text>
    <path
       id="path34"
       d="M 481,235 H 741 V 365 H 481 Z"
       style="fill:#d5e8d4;fill-opacity:1;fill-rule:nonzero;stroke:#82b366;stroke-width:1;stroke-linecap:butt;stroke-linejoin:miter;stroke-miterlimit:10;stroke-dasharray:none;stroke-opacity:1"
       transform="matrix(0.9584438,0,0,0.9584438,0.4792219,0.4792219)"
       clip-path="url(#clipPath35)" />
    <text
       id="text35"
       xml:space="preserve"
       transform="matrix(0.9584534,0,0,0.9584534,451.61126,214.69356)"
       clip-path="url(#clipPath36)"><tspan
         style="font-variant:normal;font-weight:700;font-size:25px;font-family:Helvetica;writing-mode:lr-tb;fill:#000000;fill-opacity:1;fill-rule:nonzero;stroke:none"
         x="0 18.054199 33.325195 47.229004 56.958008 70.861816 84.765625 93.09082 106.99463 116.72363 130.62744 148.68164 163.95264 170.89844 177.84424 191.74805 205.65186 213.97705 220.92285 236.19385 251.46484 258.41064 266.73584"
         y="0"
         sodipodi:role="line"
         id="tspan35">CharactersCollection.ts</tspan></text>
    <text
       id="text36"
       xml:space="preserve"
       transform="matrix(0.9584534,0,0,0.9584534,482.10206,246.32252)"
       clip-path="url(#clipPath37)"><tspan
         style="font-variant:normal;font-weight:normal;font-size:19px;font-family:Helvetica;writing-mode:lr-tb;fill:#000000;fill-opacity:1;fill-rule:nonzero;stroke:none"
         x="0 9.5 13.721191 24.288086 33.788086 43.288086 48.566895 62.288086 72.85498 83.421875 89.749023 100.31592 109.81592 115.09473 125.66162 131.98877 141.48877 155.20996 165.77686 169.99805 174.21924 184.78613 194.28613 199.56494 203.78613 214.35303 224.91992 230.19873"
         y="0"
         sodipodi:role="line"
         id="tspan36">class CharactersCollection {</tspan></text>
    <text
       id="text37"
       xml:space="preserve"
       transform="matrix(0.9584534,0,0,0.9584534,482.10206,267.4085)"
       clip-path="url(#clipPath38)"><tspan
         style="font-variant:normal;font-weight:normal;font-size:19px;font-family:Helvetica;writing-mode:lr-tb;fill:#000000;fill-opacity:1;fill-rule:nonzero;stroke:none"
         x="0 5.2788086 10.557617 20.057617 33.778809 44.345703 54.912598 61.239746 65.460938 70.739746 76.018555 80.239746"
         y="0"
         sodipodi:role="line"
         id="tspan37">  swap(i, j)</tspan></text>
    <text
       id="text38"
       xml:space="preserve"
       transform="matrix(0.9584534,0,0,0.9584534,482.10206,289.45293)"
       clip-path="url(#clipPath39)"><tspan
         style="font-variant:normal;font-weight:normal;font-size:19px;font-family:Helvetica;writing-mode:lr-tb;fill:#000000;fill-opacity:1;fill-rule:nonzero;stroke:none"
         x="0 5.2788086 10.557617 20.057617 30.624512 46.45166 57.018555 67.585449 73.912598 84.479492 90.806641 95.027832 100.30664 105.58545 109.80664"
         y="0"
         sodipodi:role="line"
         id="tspan38">  compare(i, j)</tspan></text>
    <text
       id="text39"
       xml:space="preserve"
       transform="matrix(0.9584534,0,0,0.9584534,482.10206,311.49736)"
       clip-path="url(#clipPath40)"><tspan
         style="font-variant:normal;font-weight:normal;font-size:19px;font-family:Helvetica;writing-mode:lr-tb;fill:#000000;fill-opacity:1;fill-rule:nonzero;stroke:none"
         x="0 5.2788086 10.557617 14.778809 25.345703 35.912598 46.479492 51.758301 62.325195 68.652344"
         y="0"
         sodipodi:role="line"
         id="tspan39">  length()</tspan></text>
    <text
       id="text40"
       xml:space="preserve"
       transform="matrix(0.9584534,0,0,0.9584534,482.10206,333.54178)"
       clip-path="url(#clipPath41)"><tspan
         style="font-variant:normal;font-weight:normal;font-size:19px;font-family:Helvetica;writing-mode:lr-tb;fill:#000000;fill-opacity:1;fill-rule:nonzero;stroke:none"
         x="0"
         y="0"
         id="tspan40">}</tspan></text>
    <path
       id="path42"
       d="M 481,425 H 741 V 555 H 481 Z"
       style="fill:#d5e8d4;fill-opacity:1;fill-rule:nonzero;stroke:#82b366;stroke-width:1;stroke-linecap:butt;stroke-linejoin:miter;stroke-miterlimit:10;stroke-dasharray:none;stroke-opacity:1"
       transform="matrix(0.9584438,0,0,0.9584438,0.4792219,0.4792219)"
       clip-path="url(#clipPath43)" />
    <text
       id="text43"
       xml:space="preserve"
       transform="matrix(0.9584534,0,0,0.9584534,512.20349,396.79971)"
       clip-path="url(#clipPath44)"><tspan
         style="font-variant:normal;font-weight:700;font-size:25px;font-family:Helvetica;writing-mode:lr-tb;fill:#000000;fill-opacity:1;fill-rule:nonzero;stroke:none"
         x="0 15.270996 22.216797 37.487793 51.391602 65.29541 80.566406 95.837402 102.7832 116.68701 125.01221 131.95801 140.2832"
         y="0"
         sodipodi:role="line"
         id="tspan43">LinkedList.ts</tspan></text>
    <text
       id="text44"
       xml:space="preserve"
       transform="matrix(0.9584534,0,0,0.9584534,482.10206,428.42867)"
       clip-path="url(#clipPath45)"><tspan
         style="font-variant:normal;font-weight:normal;font-size:19px;font-family:Helvetica;writing-mode:lr-tb;fill:#000000;fill-opacity:1;fill-rule:nonzero;stroke:none"
         x="0 9.5 13.721191 24.288086 33.788086 43.288086 48.566895 59.133789 63.35498 73.921875 83.421875 93.98877 104.55566 115.12256 119.34375 128.84375 134.12256 139.40137"
         y="0"
         sodipodi:role="line"
         id="tspan44">class LinkedList {</tspan></text>
    <text
       id="text45"
       xml:space="preserve"
       transform="matrix(0.9584534,0,0,0.9584534,482.10206,449.51464)"
       clip-path="url(#clipPath46)"><tspan
         style="font-variant:normal;font-weight:normal;font-size:19px;font-family:Helvetica;writing-mode:lr-tb;fill:#000000;fill-opacity:1;fill-rule:nonzero;stroke:none"
         x="0 5.2788086 10.557617 20.057617 33.778809 44.345703 54.912598 61.239746 65.460938 70.739746 76.018555 80.239746"
         y="0"
         sodipodi:role="line"
         id="tspan45">  swap(i, j)</tspan></text>
    <text
       id="text46"
       xml:space="preserve"
       transform="matrix(0.9584534,0,0,0.9584534,482.10206,471.55907)"
       clip-path="url(#clipPath47)"><tspan
         style="font-variant:normal;font-weight:normal;font-size:19px;font-family:Helvetica;writing-mode:lr-tb;fill:#000000;fill-opacity:1;fill-rule:nonzero;stroke:none"
         x="0 5.2788086 10.557617 20.057617 30.624512 46.45166 57.018555 67.585449 73.912598 84.479492 90.806641 95.027832 100.30664 105.58545 109.80664"
         y="0"
         sodipodi:role="line"
         id="tspan46">  compare(i, j)</tspan></text>
    <text
       id="text47"
       xml:space="preserve"
       transform="matrix(0.9584534,0,0,0.9584534,482.10206,493.6035)"
       clip-path="url(#clipPath48)"><tspan
         style="font-variant:normal;font-weight:normal;font-size:19px;font-family:Helvetica;writing-mode:lr-tb;fill:#000000;fill-opacity:1;fill-rule:nonzero;stroke:none"
         x="0 5.2788086 10.557617 14.778809 25.345703 35.912598 46.479492 51.758301 62.325195 68.652344"
         y="0"
         sodipodi:role="line"
         id="tspan47">  length()</tspan></text>
    <text
       id="text48"
       xml:space="preserve"
       transform="matrix(0.9584534,0,0,0.9584534,482.10206,515.64793)"
       clip-path="url(#clipPath49)"><tspan
         style="font-variant:normal;font-weight:normal;font-size:19px;font-family:Helvetica;writing-mode:lr-tb;fill:#000000;fill-opacity:1;fill-rule:nonzero;stroke:none"
         x="0"
         y="0"
         id="tspan48">}</tspan></text>
  </g>
</svg>
