<?xml version="1.0" encoding="UTF-8" standalone="no"?>
<!-- Created with Inkscape (http://www.inkscape.org/) -->

<svg
   version="1.1"
   id="svg1"
   width="633.27997"
   height="234.56"
   viewBox="0 0 633.27997 234.56"
   sodipodi:docname="ts-21.pdf"
   xmlns:inkscape="http://www.inkscape.org/namespaces/inkscape"
   xmlns:sodipodi="http://sodipodi.sourceforge.net/DTD/sodipodi-0.dtd"
   xmlns="http://www.w3.org/2000/svg"
   xmlns:svg="http://www.w3.org/2000/svg">
  <defs
     id="defs1">
    <clipPath
       clipPathUnits="userSpaceOnUse"
       id="clipPath2">
      <path
         d="M 0,0 H 1979.1666 V 732.47101 H 0 Z"
         transform="scale(0.33448422)"
         clip-rule="evenodd"
         id="path2" />
    </clipPath>
    <clipPath
       clipPathUnits="userSpaceOnUse"
       id="clipPath4">
      <path
         d="M 0,0 H 1979.1666 V 729.48132 H 0 Z"
         transform="matrix(0.33448422,0,0,0.33448422,-0.5,-0.5)"
         clip-rule="evenodd"
         id="path4" />
    </clipPath>
    <clipPath
       clipPathUnits="userSpaceOnUse"
       id="clipPath5">
      <path
         d="M 0,0 H 1979.1666 V 729.48132 H 0 Z"
         transform="matrix(0.33448086,0,0,0.33448086,-82.437501,-102)"
         clip-rule="evenodd"
         id="path5" />
    </clipPath>
    <clipPath
       clipPathUnits="userSpaceOnUse"
       id="clipPath7">
      <path
         d="M 0,0 H 1979.1666 V 729.48132 H 0 Z"
         transform="matrix(0.33448422,0,0,0.33448422,-0.5,-0.5)"
         clip-rule="evenodd"
         id="path7" />
    </clipPath>
    <clipPath
       clipPathUnits="userSpaceOnUse"
       id="clipPath9">
      <path
         d="M 0,0 H 1979.1666 V 729.48132 H 0 Z"
         transform="matrix(0.33448422,0,0,0.33448422,-0.5,-0.5)"
         clip-rule="evenodd"
         id="path9" />
    </clipPath>
    <clipPath
       clipPathUnits="userSpaceOnUse"
       id="clipPath11">
      <path
         d="M 0,0 H 1979.1666 V 729.48132 H 0 Z"
         transform="matrix(0.33448422,0,0,0.33448422,-0.5,-0.5)"
         clip-rule="evenodd"
         id="path11" />
    </clipPath>
    <clipPath
       clipPathUnits="userSpaceOnUse"
       id="clipPath13">
      <path
         d="M 0,0 H 1979.1666 V 729.48132 H 0 Z"
         transform="matrix(0.33448422,0,0,0.33448422,-0.5,-0.5)"
         clip-rule="evenodd"
         id="path13" />
    </clipPath>
    <clipPath
       clipPathUnits="userSpaceOnUse"
       id="clipPath15">
      <path
         d="M 0,0 H 1979.1666 V 729.48132 H 0 Z"
         transform="matrix(0.33448422,0,0,0.33448422,-0.5,-0.5)"
         clip-rule="evenodd"
         id="path15" />
    </clipPath>
    <clipPath
       clipPathUnits="userSpaceOnUse"
       id="clipPath17">
      <path
         d="M 0,0 H 1979.1666 V 729.48132 H 0 Z"
         transform="matrix(0.33448422,0,0,0.33448422,-0.5,-0.5)"
         clip-rule="evenodd"
         id="path17" />
    </clipPath>
    <clipPath
       clipPathUnits="userSpaceOnUse"
       id="clipPath19">
      <path
         d="M 0,0 H 1979.1666 V 729.48132 H 0 Z"
         transform="matrix(0.33448422,0,0,0.33448422,-0.5,-0.5)"
         clip-rule="evenodd"
         id="path19" />
    </clipPath>
    <clipPath
       clipPathUnits="userSpaceOnUse"
       id="clipPath20">
      <path
         d="M 0,0 H 1979.1666 V 729.48132 H 0 Z"
         transform="matrix(0.33448086,0,0,0.33448086,-87.328125,-134)"
         clip-rule="evenodd"
         id="path20" />
    </clipPath>
    <clipPath
       clipPathUnits="userSpaceOnUse"
       id="clipPath22">
      <path
         d="M 0,0 H 1979.1666 V 729.48132 H 0 Z"
         transform="matrix(0.33448422,0,0,0.33448422,-0.5,-0.5)"
         clip-rule="evenodd"
         id="path22" />
    </clipPath>
    <clipPath
       clipPathUnits="userSpaceOnUse"
       id="clipPath23">
      <path
         d="M 0,0 H 1979.1666 V 729.48132 H 0 Z"
         transform="matrix(0.33448086,0,0,0.33448086,-442.65625,-102)"
         clip-rule="evenodd"
         id="path23" />
    </clipPath>
    <clipPath
       clipPathUnits="userSpaceOnUse"
       id="clipPath25">
      <path
         d="M 0,0 H 1979.1666 V 729.48132 H 0 Z"
         transform="matrix(0.33448422,0,0,0.33448422,-0.5,-0.5)"
         clip-rule="evenodd"
         id="path25" />
    </clipPath>
    <clipPath
       clipPathUnits="userSpaceOnUse"
       id="clipPath26">
      <path
         d="M 0,0 H 1979.1666 V 729.48132 H 0 Z"
         transform="matrix(0.33448086,0,0,0.33448086,-488.875,-134)"
         clip-rule="evenodd"
         id="path26" />
    </clipPath>
    <clipPath
       clipPathUnits="userSpaceOnUse"
       id="clipPath28">
      <path
         d="M 0,0 H 1979.1666 V 729.48132 H 0 Z"
         transform="matrix(0.33448422,0,0,0.33448422,-0.5,-0.5)"
         clip-rule="evenodd"
         id="path28" />
    </clipPath>
    <clipPath
       clipPathUnits="userSpaceOnUse"
       id="clipPath29">
      <path
         d="M 0,0 H 1979.1666 V 729.48132 H 0 Z"
         transform="matrix(0.33448086,0,0,0.33448086,-479.54688,-166)"
         clip-rule="evenodd"
         id="path29" />
    </clipPath>
    <clipPath
       clipPathUnits="userSpaceOnUse"
       id="clipPath31">
      <path
         d="M 0,0 H 1979.1666 V 729.48132 H 0 Z"
         transform="matrix(0.33448422,0,0,0.33448422,-0.5,-0.5)"
         clip-rule="evenodd"
         id="path31" />
    </clipPath>
    <clipPath
       clipPathUnits="userSpaceOnUse"
       id="clipPath32">
      <path
         d="M 0,0 H 1979.1666 V 729.48132 H 0 Z"
         transform="matrix(0.33448086,0,0,0.33448086,-491.98439,-198)"
         clip-rule="evenodd"
         id="path32" />
    </clipPath>
    <clipPath
       clipPathUnits="userSpaceOnUse"
       id="clipPath34">
      <path
         d="M 0,0 H 1979.1666 V 729.48132 H 0 Z"
         transform="matrix(0.33448422,0,0,0.33448422,-0.5,-0.5)"
         clip-rule="evenodd"
         id="path34" />
    </clipPath>
    <clipPath
       clipPathUnits="userSpaceOnUse"
       id="clipPath36">
      <path
         d="M 0,0 H 1979.1666 V 729.48132 H 0 Z"
         transform="matrix(0.33448422,0,0,0.33448422,-0.5,-0.5)"
         clip-rule="evenodd"
         id="path36" />
    </clipPath>
    <clipPath
       clipPathUnits="userSpaceOnUse"
       id="clipPath38">
      <path
         d="M 0,0 H 1979.1666 V 729.48132 H 0 Z"
         transform="matrix(0.33448422,0,0,0.33448422,-0.5,-0.5)"
         clip-rule="evenodd"
         id="path38" />
    </clipPath>
    <clipPath
       clipPathUnits="userSpaceOnUse"
       id="clipPath40">
      <path
         d="M 0,0 H 1979.1666 V 729.48132 H 0 Z"
         transform="matrix(0.33448422,0,0,0.33448422,-0.5,-0.5)"
         clip-rule="evenodd"
         id="path40" />
    </clipPath>
    <clipPath
       clipPathUnits="userSpaceOnUse"
       id="clipPath42">
      <path
         d="M 0,0 H 1979.1666 V 729.48132 H 0 Z"
         transform="matrix(0.33448422,0,0,0.33448422,-0.5,-0.5)"
         clip-rule="evenodd"
         id="path42" />
    </clipPath>
    <clipPath
       clipPathUnits="userSpaceOnUse"
       id="clipPath44">
      <path
         d="M 0,0 H 1979.1666 V 729.48132 H 0 Z"
         transform="matrix(0.33448422,0,0,0.33448422,-0.5,-0.5)"
         clip-rule="evenodd"
         id="path44" />
    </clipPath>
    <clipPath
       clipPathUnits="userSpaceOnUse"
       id="clipPath46">
      <path
         d="M 0,0 H 1979.1666 V 729.48132 H 0 Z"
         transform="matrix(0.33448422,0,0,0.33448422,-0.5,-0.5)"
         clip-rule="evenodd"
         id="path46" />
    </clipPath>
    <clipPath
       clipPathUnits="userSpaceOnUse"
       id="clipPath47">
      <path
         d="M 0,0 H 1979.1666 V 729.48132 H 0 Z"
         transform="matrix(0.33448086,0,0,0.33448086,-497.32814,-230)"
         clip-rule="evenodd"
         id="path47" />
    </clipPath>
    <clipPath
       clipPathUnits="userSpaceOnUse"
       id="clipPath49">
      <path
         d="M 0,0 H 1979.1666 V 729.48132 H 0 Z"
         transform="matrix(0.33448422,0,0,0.33448422,-0.5,-0.5)"
         clip-rule="evenodd"
         id="path49" />
    </clipPath>
    <clipPath
       clipPathUnits="userSpaceOnUse"
       id="clipPath50">
      <path
         d="M 0,0 H 1979.1666 V 729.48132 H 0 Z"
         transform="matrix(0.33448086,0,0,0.33448086,-59.78125,-26)"
         clip-rule="evenodd"
         id="path50" />
    </clipPath>
    <clipPath
       clipPathUnits="userSpaceOnUse"
       id="clipPath51">
      <path
         d="M 0,0 H 1979.1666 V 729.48132 H 0 Z"
         transform="matrix(0.33448086,0,0,0.33448086,-60.65625,-46.000001)"
         clip-rule="evenodd"
         id="path51" />
    </clipPath>
    <clipPath
       clipPathUnits="userSpaceOnUse"
       id="clipPath53">
      <path
         d="M 0,0 H 1979.1666 V 729.48132 H 0 Z"
         transform="matrix(0.33448422,0,0,0.33448422,-0.5,-0.5)"
         clip-rule="evenodd"
         id="path53" />
    </clipPath>
    <clipPath
       clipPathUnits="userSpaceOnUse"
       id="clipPath54">
      <path
         d="M 0,0 H 1979.1666 V 729.48132 H 0 Z"
         transform="matrix(0.33448086,0,0,0.33448086,-487.09375,-36)"
         clip-rule="evenodd"
         id="path54" />
    </clipPath>
    <clipPath
       clipPathUnits="userSpaceOnUse"
       id="clipPath56">
      <path
         d="M 0,0 H 1979.1666 V 729.48132 H 0 Z"
         transform="matrix(0.33448422,0,0,0.33448422,-0.5,-0.5)"
         clip-rule="evenodd"
         id="path56" />
    </clipPath>
    <clipPath
       clipPathUnits="userSpaceOnUse"
       id="clipPath57">
      <path
         d="M 0,0 H 1979.1666 V 729.48132 H 0 Z"
         transform="matrix(0.33448086,0,0,0.33448086,-81.984375,-166)"
         clip-rule="evenodd"
         id="path57" />
    </clipPath>
    <clipPath
       clipPathUnits="userSpaceOnUse"
       id="clipPath59">
      <path
         d="M 0,0 H 1979.1666 V 729.48132 H 0 Z"
         transform="matrix(0.33448422,0,0,0.33448422,-0.5,-0.5)"
         clip-rule="evenodd"
         id="path59" />
    </clipPath>
    <clipPath
       clipPathUnits="userSpaceOnUse"
       id="clipPath60">
      <path
         d="M 0,0 H 1979.1666 V 729.48132 H 0 Z"
         transform="matrix(0.33448086,0,0,0.33448086,-69.546875,-198)"
         clip-rule="evenodd"
         id="path60" />
    </clipPath>
    <clipPath
       clipPathUnits="userSpaceOnUse"
       id="clipPath62">
      <path
         d="M 0,0 H 1979.1666 V 729.48132 H 0 Z"
         transform="matrix(0.33448422,0,0,0.33448422,-0.5,-0.5)"
         clip-rule="evenodd"
         id="path62" />
    </clipPath>
    <clipPath
       clipPathUnits="userSpaceOnUse"
       id="clipPath63">
      <path
         d="M 0,0 H 1979.1666 V 729.48132 H 0 Z"
         transform="matrix(0.33448086,0,0,0.33448086,-84.203126,-230)"
         clip-rule="evenodd"
         id="path63" />
    </clipPath>
  </defs>
  <sodipodi:namedview
     id="namedview1"
     pagecolor="#ffffff"
     bordercolor="#000000"
     borderopacity="0.25"
     inkscape:showpageshadow="2"
     inkscape:pageopacity="0.0"
     inkscape:pagecheckerboard="0"
     inkscape:deskcolor="#d1d1d1">
    <inkscape:page
       x="0"
       y="0"
       inkscape:label="1"
       id="page1"
       width="633.27997"
       height="234.56"
       margin="0"
       bleed="0" />
  </sodipodi:namedview>
  <g
     id="g1"
     inkscape:groupmode="layer"
     inkscape:label="1">
    <path
       id="path1"
       d="M 0,0 H 662 V 245 H 0 Z"
       style="fill:#ffffff;fill-opacity:1;fill-rule:nonzero;stroke:none"
       transform="scale(0.95669682)"
       clip-path="url(#clipPath2)" />
    <path
       id="path3"
       d="m 1,81 h 210 v 32 H 1 Z"
       style="fill:#dae8fc;fill-opacity:1;fill-rule:nonzero;stroke:#6c8ebf;stroke-width:1;stroke-linecap:butt;stroke-linejoin:miter;stroke-miterlimit:10;stroke-dasharray:none;stroke-opacity:1"
       transform="matrix(0.95669682,0,0,0.95669682,0.47834841,0.47834841)"
       clip-path="url(#clipPath4)" />
    <text
       id="text4"
       xml:space="preserve"
       transform="matrix(0.95670642,0,0,0.95670642,78.868486,97.584055)"
       clip-path="url(#clipPath5)"><tspan
         style="font-variant:normal;font-weight:700;font-size:16px;font-family:Helvetica;writing-mode:lr-tb;fill:#000000;fill-opacity:1;fill-rule:nonzero;stroke:none"
         x="0 10.671875 20.445312 26.671875 32 40.898438"
         y="0"
         sodipodi:role="line"
         id="tspan4">Sorter</tspan></text>
    <path
       id="path6"
       d="m 211,129 h 30 v 32 h -23.63"
       style="fill:none;stroke:#000000;stroke-width:1;stroke-linecap:butt;stroke-linejoin:miter;stroke-miterlimit:10;stroke-dasharray:none;stroke-opacity:1"
       transform="matrix(0.95669682,0,0,0.95669682,0.47834841,0.47834841)"
       clip-path="url(#clipPath7)" />
    <path
       id="path8"
       d="m 212.12,161 7,-3.5 -1.75,3.5 1.75,3.5 z"
       style="fill:#000000;fill-opacity:1;fill-rule:nonzero;stroke:#000000;stroke-width:1;stroke-linecap:butt;stroke-linejoin:miter;stroke-miterlimit:10;stroke-dasharray:none;stroke-opacity:1"
       transform="matrix(0.95669682,0,0,0.95669682,0.47834841,0.47834841)"
       clip-path="url(#clipPath9)" />
    <path
       id="path10"
       d="m 211,129 h 30 v 64 h -23.63"
       style="fill:none;stroke:#000000;stroke-width:1;stroke-linecap:butt;stroke-linejoin:miter;stroke-miterlimit:10;stroke-dasharray:none;stroke-opacity:1"
       transform="matrix(0.95669682,0,0,0.95669682,0.47834841,0.47834841)"
       clip-path="url(#clipPath11)" />
    <path
       id="path12"
       d="m 212.12,193 7,-3.5 -1.75,3.5 1.75,3.5 z"
       style="fill:#000000;fill-opacity:1;fill-rule:nonzero;stroke:#000000;stroke-width:1;stroke-linecap:butt;stroke-linejoin:miter;stroke-miterlimit:10;stroke-dasharray:none;stroke-opacity:1"
       transform="matrix(0.95669682,0,0,0.95669682,0.47834841,0.47834841)"
       clip-path="url(#clipPath13)" />
    <path
       id="path14"
       d="m 211,129 h 30 v 96 h -23.63"
       style="fill:none;stroke:#000000;stroke-width:1;stroke-linecap:butt;stroke-linejoin:miter;stroke-miterlimit:10;stroke-dasharray:none;stroke-opacity:1"
       transform="matrix(0.95669682,0,0,0.95669682,0.47834841,0.47834841)"
       clip-path="url(#clipPath15)" />
    <path
       id="path16"
       d="m 212.12,225 7,-3.5 -1.75,3.5 1.75,3.5 z"
       style="fill:#000000;fill-opacity:1;fill-rule:nonzero;stroke:#000000;stroke-width:1;stroke-linecap:butt;stroke-linejoin:miter;stroke-miterlimit:10;stroke-dasharray:none;stroke-opacity:1"
       transform="matrix(0.95669682,0,0,0.95669682,0.47834841,0.47834841)"
       clip-path="url(#clipPath17)" />
    <path
       id="path18"
       d="m 1,113 h 210 v 32 H 1 Z"
       style="fill:#fff2cc;fill-opacity:1;fill-rule:nonzero;stroke:#d6b656;stroke-width:1;stroke-linecap:butt;stroke-linejoin:miter;stroke-miterlimit:10;stroke-dasharray:none;stroke-opacity:1"
       transform="matrix(0.95669682,0,0,0.95669682,0.47834841,0.47834841)"
       clip-path="url(#clipPath19)" />
    <text
       id="text19"
       xml:space="preserve"
       transform="matrix(0.95670642,0,0,0.95670642,83.547378,128.19866)"
       clip-path="url(#clipPath20)"><tspan
         style="font-variant:normal;font-weight:normal;font-size:16px;font-family:Helvetica;writing-mode:lr-tb;fill:#000000;fill-opacity:1;fill-rule:nonzero;stroke:none"
         x="0 8 16.898438 22.226562 26.671875 32"
         y="0"
         sodipodi:role="line"
         id="tspan19">sort()</tspan></text>
    <path
       id="path21"
       d="m 411,81 h 210 v 32 H 411 Z"
       style="fill:#dae8fc;fill-opacity:1;fill-rule:nonzero;stroke:#6c8ebf;stroke-width:1;stroke-linecap:butt;stroke-linejoin:miter;stroke-miterlimit:10;stroke-dasharray:none;stroke-opacity:1"
       transform="matrix(0.95669682,0,0,0.95669682,0.47834841,0.47834841)"
       clip-path="url(#clipPath22)" />
    <text
       id="text22"
       xml:space="preserve"
       transform="matrix(0.95670642,0,0,0.95670642,423.49208,97.584055)"
       clip-path="url(#clipPath23)"><tspan
         style="font-variant:normal;font-weight:700;font-size:16px;font-family:Helvetica;writing-mode:lr-tb;fill:#000000;fill-opacity:1;fill-rule:nonzero;stroke:none"
         x="0 11.554688 21.328125 35.554688 45.328125 54.226562 60.453125 69.351562 80.90625 90.679688 95.125 99.570312 108.46875 117.36719 122.69531 127.14062 136.91406"
         y="0"
         sodipodi:role="line"
         id="tspan22">NumbersCollection</tspan></text>
    <path
       id="path24"
       d="m 411,113 h 210 v 32 H 411 Z"
       style="fill:#d5e8d4;fill-opacity:1;fill-rule:nonzero;stroke:#82b366;stroke-width:1;stroke-linecap:butt;stroke-linejoin:miter;stroke-miterlimit:10;stroke-dasharray:none;stroke-opacity:1"
       transform="matrix(0.95669682,0,0,0.95669682,0.47834841,0.47834841)"
       clip-path="url(#clipPath25)" />
    <text
       id="text25"
       xml:space="preserve"
       transform="matrix(0.95670642,0,0,0.95670642,467.70985,128.19866)"
       clip-path="url(#clipPath26)"><tspan
         style="font-variant:normal;font-weight:normal;font-size:16px;font-family:Helvetica;writing-mode:lr-tb;fill:#000000;fill-opacity:1;fill-rule:nonzero;stroke:none"
         x="0 3.5546875 12.453125 21.351562 30.25 34.695312 43.59375 48.921875"
         y="0"
         sodipodi:role="line"
         id="tspan25">length()</tspan></text>
    <path
       id="path27"
       d="m 411,145 h 210 v 32 H 411 Z"
       style="fill:#d5e8d4;fill-opacity:1;fill-rule:nonzero;stroke:#82b366;stroke-width:1;stroke-linecap:butt;stroke-linejoin:miter;stroke-miterlimit:10;stroke-dasharray:none;stroke-opacity:1"
       transform="matrix(0.95669682,0,0,0.95669682,0.47834841,0.47834841)"
       clip-path="url(#clipPath28)" />
    <text
       id="text28"
       xml:space="preserve"
       transform="matrix(0.95670642,0,0,0.95670642,458.78558,158.81327)"
       clip-path="url(#clipPath29)"><tspan
         style="font-variant:normal;font-weight:normal;font-size:16px;font-family:Helvetica;writing-mode:lr-tb;fill:#000000;fill-opacity:1;fill-rule:nonzero;stroke:none"
         x="0 8 16.898438 30.226562 39.125 48.023438 53.351562 62.25 67.578125"
         y="0"
         sodipodi:role="line"
         id="tspan28">compare()</tspan></text>
    <path
       id="path30"
       d="m 411,177 h 210 v 32 H 411 Z"
       style="fill:#d5e8d4;fill-opacity:1;fill-rule:nonzero;stroke:#82b366;stroke-width:1;stroke-linecap:butt;stroke-linejoin:miter;stroke-miterlimit:10;stroke-dasharray:none;stroke-opacity:1"
       transform="matrix(0.95669682,0,0,0.95669682,0.47834841,0.47834841)"
       clip-path="url(#clipPath31)" />
    <text
       id="text31"
       xml:space="preserve"
       transform="matrix(0.95670642,0,0,0.95670642,470.68462,189.42787)"
       clip-path="url(#clipPath32)"><tspan
         style="font-variant:normal;font-weight:normal;font-size:16px;font-family:Helvetica;writing-mode:lr-tb;fill:#000000;fill-opacity:1;fill-rule:nonzero;stroke:none"
         x="0 8 19.554688 28.453125 37.351562 42.679688"
         y="0"
         sodipodi:role="line"
         id="tspan31">swap()</tspan></text>
    <path
       id="path33"
       d="M 621.01001,225 H 651 v -32 h -23.63"
       style="fill:none;stroke:#000000;stroke-width:1;stroke-linecap:butt;stroke-linejoin:miter;stroke-miterlimit:10;stroke-dasharray:none;stroke-opacity:1"
       transform="matrix(0.95669682,0,0,0.95669682,0.47834841,0.47834841)"
       clip-path="url(#clipPath34)" />
    <path
       id="path35"
       d="m 622.12,193 7,-3.5 -1.75,3.5 1.75,3.5 z"
       style="fill:#000000;fill-opacity:1;fill-rule:nonzero;stroke:#000000;stroke-width:1;stroke-linecap:butt;stroke-linejoin:miter;stroke-miterlimit:10;stroke-dasharray:none;stroke-opacity:1"
       transform="matrix(0.95669682,0,0,0.95669682,0.47834841,0.47834841)"
       clip-path="url(#clipPath36)" />
    <path
       id="path37"
       d="M 621.01001,225 H 651 v -64 h -23.63"
       style="fill:none;stroke:#000000;stroke-width:1;stroke-linecap:butt;stroke-linejoin:miter;stroke-miterlimit:10;stroke-dasharray:none;stroke-opacity:1"
       transform="matrix(0.95669682,0,0,0.95669682,0.47834841,0.47834841)"
       clip-path="url(#clipPath38)" />
    <path
       id="path39"
       d="m 622.12,161 7,-3.5 -1.75,3.5 1.75,3.5 z"
       style="fill:#000000;fill-opacity:1;fill-rule:nonzero;stroke:#000000;stroke-width:1;stroke-linecap:butt;stroke-linejoin:miter;stroke-miterlimit:10;stroke-dasharray:none;stroke-opacity:1"
       transform="matrix(0.95669682,0,0,0.95669682,0.47834841,0.47834841)"
       clip-path="url(#clipPath40)" />
    <path
       id="path41"
       d="M 621.01001,225 H 651 v -96 h -23.63"
       style="fill:none;stroke:#000000;stroke-width:1;stroke-linecap:butt;stroke-linejoin:miter;stroke-miterlimit:10;stroke-dasharray:none;stroke-opacity:1"
       transform="matrix(0.95669682,0,0,0.95669682,0.47834841,0.47834841)"
       clip-path="url(#clipPath42)" />
    <path
       id="path43"
       d="m 622.12,129 7,-3.5 -1.75,3.5 1.75,3.5 z"
       style="fill:#000000;fill-opacity:1;fill-rule:nonzero;stroke:#000000;stroke-width:1;stroke-linecap:butt;stroke-linejoin:miter;stroke-miterlimit:10;stroke-dasharray:none;stroke-opacity:1"
       transform="matrix(0.95669682,0,0,0.95669682,0.47834841,0.47834841)"
       clip-path="url(#clipPath44)" />
    <path
       id="path45"
       d="m 411,209 h 210 v 32 H 411 Z"
       style="fill:#fff2cc;fill-opacity:1;fill-rule:nonzero;stroke:#d6b656;stroke-width:1;stroke-linecap:butt;stroke-linejoin:miter;stroke-miterlimit:10;stroke-dasharray:none;stroke-opacity:1"
       transform="matrix(0.95669682,0,0,0.95669682,0.47834841,0.47834841)"
       clip-path="url(#clipPath46)" />
    <text
       id="text46"
       xml:space="preserve"
       transform="matrix(0.95670642,0,0,0.95670642,475.79702,220.04248)"
       clip-path="url(#clipPath47)"><tspan
         style="font-variant:normal;font-weight:normal;font-size:16px;font-family:Helvetica;writing-mode:lr-tb;fill:#000000;fill-opacity:1;fill-rule:nonzero;stroke:none"
         x="0 8 16.898438 22.226562 26.671875 32"
         y="0"
         sodipodi:role="line"
         id="tspan46">sort()</tspan></text>
    <path
       id="path48"
       d="M 46,1 H 166 V 61 H 46 Z"
       style="fill:#f8cecc;fill-opacity:1;fill-rule:nonzero;stroke:#b85450;stroke-width:1;stroke-linecap:butt;stroke-linejoin:miter;stroke-miterlimit:10;stroke-dasharray:none;stroke-opacity:1"
       transform="matrix(0.95669682,0,0,0.95669682,0.47834841,0.47834841)"
       clip-path="url(#clipPath49)" />
    <text
       id="text49"
       xml:space="preserve"
       transform="matrix(0.95670642,0,0,0.95670642,57.193106,24.874367)"
       clip-path="url(#clipPath50)"><tspan
         style="font-variant:normal;font-weight:700;font-size:16px;font-family:Helvetica;writing-mode:lr-tb;fill:#000000;fill-opacity:1;fill-rule:nonzero;stroke:none"
         x="0 8.59375 17.492188 27.265625 36.164062 45.0625 53.960938 60.1875 64.632812 74.40625 79.734375 83.539062"
         y="0"
         sodipodi:role="line"
         id="tspan49">Typescript's</tspan></text>
    <text
       id="text50"
       xml:space="preserve"
       transform="matrix(0.95670642,0,0,0.95670642,58.030224,44.008496)"
       clip-path="url(#clipPath51)"><tspan
         style="font-variant:normal;font-weight:700;font-size:16px;font-family:Helvetica;writing-mode:lr-tb;fill:#000000;fill-opacity:1;fill-rule:nonzero;stroke:none"
         x="0 10.671875 19.570312 29.34375 38.242188 47.140625 52.46875 61.367188 66.695312 71.140625 80.914062"
         y="0"
         sodipodi:role="line"
         id="tspan50">Expectation</tspan></text>
    <path
       id="path52"
       d="M 456,1 H 576 V 61 H 456 Z"
       style="fill:#f8cecc;fill-opacity:1;fill-rule:nonzero;stroke:#b85450;stroke-width:1;stroke-linecap:butt;stroke-linejoin:miter;stroke-miterlimit:10;stroke-dasharray:none;stroke-opacity:1"
       transform="matrix(0.95669682,0,0,0.95669682,0.47834841,0.47834841)"
       clip-path="url(#clipPath53)" />
    <text
       id="text53"
       xml:space="preserve"
       transform="matrix(0.95670642,0,0,0.95670642,466.00572,34.441431)"
       clip-path="url(#clipPath54)"><tspan
         style="font-variant:normal;font-weight:700;font-size:16px;font-family:Helvetica;writing-mode:lr-tb;fill:#000000;fill-opacity:1;fill-rule:nonzero;stroke:none"
         x="0 11.554688 20.453125 29.351562 33.796875 38.242188 43.570312 52.46875"
         y="0"
         sodipodi:role="line"
         id="tspan53">Reality!</tspan></text>
    <path
       id="path55"
       d="m 1,145 h 210 v 32 H 1 Z"
       style="fill:#f8cecc;fill-opacity:1;fill-rule:nonzero;stroke:#b85450;stroke-width:1;stroke-linecap:butt;stroke-linejoin:miter;stroke-miterlimit:10;stroke-dasharray:none;stroke-opacity:1"
       transform="matrix(0.95669682,0,0,0.95669682,0.47834841,0.47834841)"
       clip-path="url(#clipPath56)" />
    <text
       id="text56"
       xml:space="preserve"
       transform="matrix(0.95670642,0,0,0.95670642,78.434978,158.81327)"
       clip-path="url(#clipPath57)"><tspan
         style="font-variant:normal;font-weight:normal;font-size:16px;font-family:Helvetica;writing-mode:lr-tb;fill:#000000;fill-opacity:1;fill-rule:nonzero;stroke:none"
         x="0 8 19.554688 28.453125 37.351562 42.679688"
         y="0"
         sodipodi:role="line"
         id="tspan56">swap()</tspan></text>
    <path
       id="path58"
       d="m 1,177 h 210 v 32 H 1 Z"
       style="fill:#f8cecc;fill-opacity:1;fill-rule:nonzero;stroke:#b85450;stroke-width:1;stroke-linecap:butt;stroke-linejoin:miter;stroke-miterlimit:10;stroke-dasharray:none;stroke-opacity:1"
       transform="matrix(0.95669682,0,0,0.95669682,0.47834841,0.47834841)"
       clip-path="url(#clipPath59)" />
    <text
       id="text59"
       xml:space="preserve"
       transform="matrix(0.95670642,0,0,0.95670642,66.535942,189.42787)"
       clip-path="url(#clipPath60)"><tspan
         style="font-variant:normal;font-weight:normal;font-size:16px;font-family:Helvetica;writing-mode:lr-tb;fill:#000000;fill-opacity:1;fill-rule:nonzero;stroke:none"
         x="0 8 16.898438 30.226562 39.125 48.023438 53.351562 62.25 67.578125"
         y="0"
         sodipodi:role="line"
         id="tspan59">compare()</tspan></text>
    <path
       id="path61"
       d="m 1,209 h 210 v 32 H 1 Z"
       style="fill:#f8cecc;fill-opacity:1;fill-rule:nonzero;stroke:#b85450;stroke-width:1;stroke-linecap:butt;stroke-linejoin:miter;stroke-miterlimit:10;stroke-dasharray:none;stroke-opacity:1"
       transform="matrix(0.95669682,0,0,0.95669682,0.47834841,0.47834841)"
       clip-path="url(#clipPath62)" />
    <text
       id="text62"
       xml:space="preserve"
       transform="matrix(0.95670642,0,0,0.95670642,80.557671,220.04248)"
       clip-path="url(#clipPath63)"><tspan
         style="font-variant:normal;font-weight:normal;font-size:16px;font-family:Helvetica;writing-mode:lr-tb;fill:#000000;fill-opacity:1;fill-rule:nonzero;stroke:none"
         x="0 3.5546875 12.453125 21.351562 30.25 34.695312"
         y="0"
         sodipodi:role="line"
         id="tspan62">length</tspan></text>
  </g>
</svg>
