<?xml version="1.0" encoding="UTF-8" standalone="no"?>
<!-- Created with Inkscape (http://www.inkscape.org/) -->

<svg
   version="1.1"
   id="svg1"
   width="261.44"
   height="237.44"
   viewBox="0 0 261.44 237.44"
   sodipodi:docname="ts-3.pdf"
   xmlns:inkscape="http://www.inkscape.org/namespaces/inkscape"
   xmlns:sodipodi="http://sodipodi.sourceforge.net/DTD/sodipodi-0.dtd"
   xmlns="http://www.w3.org/2000/svg"
   xmlns:svg="http://www.w3.org/2000/svg">
  <defs
     id="defs1">
    <clipPath
       clipPathUnits="userSpaceOnUse"
       id="clipPath2">
      <path
         d="M 0,0 H 816.66656 V 741.60535 H 0 Z"
         transform="scale(0.33306126)"
         clip-rule="evenodd"
         id="path2" />
    </clipPath>
    <clipPath
       clipPathUnits="userSpaceOnUse"
       id="clipPath4">
      <path
         d="M 0,0 H 816.66656 V 738.60284 H 0 Z"
         transform="matrix(0.33306126,0,0,0.33306126,-0.5,-0.5)"
         clip-rule="evenodd"
         id="path4" />
    </clipPath>
    <clipPath
       clipPathUnits="userSpaceOnUse"
       id="clipPath5">
      <path
         d="M 0,0 H 816.66656 V 738.60284 H 0 Z"
         transform="matrix(0.33305793,0,0,0.33305793,-138.3125,-99.000001)"
         clip-rule="evenodd"
         id="path5" />
    </clipPath>
    <clipPath
       clipPathUnits="userSpaceOnUse"
       id="clipPath7">
      <path
         d="M 0,0 H 816.66656 V 738.60284 H 0 Z"
         transform="matrix(0.33306126,0,0,0.33306126,-0.5,-0.5)"
         clip-rule="evenodd"
         id="path7" />
    </clipPath>
    <clipPath
       clipPathUnits="userSpaceOnUse"
       id="clipPath8">
      <path
         d="M 0,0 H 816.66656 V 738.60284 H 0 Z"
         transform="matrix(0.33305793,0,0,0.33305793,-88.3125,-99.000001)"
         clip-rule="evenodd"
         id="path8" />
    </clipPath>
    <clipPath
       clipPathUnits="userSpaceOnUse"
       id="clipPath10">
      <path
         d="M 0,0 H 816.66656 V 738.60284 H 0 Z"
         transform="matrix(0.33306126,0,0,0.33306126,-0.5,-0.5)"
         clip-rule="evenodd"
         id="path10" />
    </clipPath>
    <clipPath
       clipPathUnits="userSpaceOnUse"
       id="clipPath11">
      <path
         d="M 0,0 H 816.66656 V 738.60284 H 0 Z"
         transform="matrix(0.33305793,0,0,0.33305793,-24.328125,-99.000001)"
         clip-rule="evenodd"
         id="path11" />
    </clipPath>
    <clipPath
       clipPathUnits="userSpaceOnUse"
       id="clipPath13">
      <path
         d="M 0,0 H 816.66656 V 738.60284 H 0 Z"
         transform="matrix(0.33306126,0,0,0.33306126,-0.5,-0.5)"
         clip-rule="evenodd"
         id="path13" />
    </clipPath>
    <clipPath
       clipPathUnits="userSpaceOnUse"
       id="clipPath14">
      <path
         d="M 0,0 H 816.66656 V 738.60284 H 0 Z"
         transform="matrix(0.33305793,0,0,0.33305793,-201.64063,-109)"
         clip-rule="evenodd"
         id="path14" />
    </clipPath>
    <clipPath
       clipPathUnits="userSpaceOnUse"
       id="clipPath16">
      <path
         d="M 0,0 H 816.66656 V 738.60284 H 0 Z"
         transform="matrix(0.33306126,0,0,0.33306126,-0.5,-0.5)"
         clip-rule="evenodd"
         id="path16" />
    </clipPath>
    <clipPath
       clipPathUnits="userSpaceOnUse"
       id="clipPath17">
      <path
         d="M 0,0 H 816.66656 V 738.60284 H 0 Z"
         transform="matrix(0.33305793,0,0,0.33305793,-72,-29)"
         clip-rule="evenodd"
         id="path17" />
    </clipPath>
    <clipPath
       clipPathUnits="userSpaceOnUse"
       id="clipPath19">
      <path
         d="M 0,0 H 816.66656 V 738.60284 H 0 Z"
         transform="matrix(0,0.33306126,-0.33306126,0,216.50001,85.499999)"
         clip-rule="evenodd"
         id="path19" />
    </clipPath>
    <clipPath
       clipPathUnits="userSpaceOnUse"
       id="clipPath20">
      <path
         d="M 0,0 H 816.66656 V 738.60284 H 0 Z"
         transform="matrix(0.33305793,0,0,0.33305793,-1.296875,-180)"
         clip-rule="evenodd"
         id="path20" />
    </clipPath>
    <clipPath
       clipPathUnits="userSpaceOnUse"
       id="clipPath21">
      <path
         d="M 0,0 H 816.66656 V 738.60284 H 0 Z"
         transform="matrix(0.33305793,0,0,0.33305793,-17.640625,-209)"
         clip-rule="evenodd"
         id="path21" />
    </clipPath>
    <clipPath
       clipPathUnits="userSpaceOnUse"
       id="clipPath22">
      <path
         d="M 0,0 H 816.66656 V 738.60284 H 0 Z"
         transform="matrix(0.33305793,0,0,0.33305793,-48.328125,-238)"
         clip-rule="evenodd"
         id="path22" />
    </clipPath>
  </defs>
  <sodipodi:namedview
     id="namedview1"
     pagecolor="#ffffff"
     bordercolor="#000000"
     borderopacity="0.25"
     inkscape:showpageshadow="2"
     inkscape:pageopacity="0.0"
     inkscape:pagecheckerboard="0"
     inkscape:deskcolor="#d1d1d1">
    <inkscape:page
       x="0"
       y="0"
       inkscape:label="1"
       id="page1"
       width="261.44"
       height="237.44"
       margin="0"
       bleed="0" />
  </sodipodi:namedview>
  <g
     id="g1"
     inkscape:groupmode="layer"
     inkscape:label="1">
    <path
       id="path1"
       d="M 0,0 H 272 V 247 H 0 Z"
       style="fill:#ffffff;fill-opacity:1;fill-rule:nonzero;stroke:none"
       transform="scale(0.96078418)"
       clip-path="url(#clipPath2)" />
    <path
       id="path3"
       d="m 120,66 h 50 v 50 h -50 z"
       style="fill:#ffffff;fill-opacity:1;fill-rule:nonzero;stroke:#000000;stroke-width:1;stroke-linecap:butt;stroke-linejoin:miter;stroke-miterlimit:10;stroke-dasharray:none;stroke-opacity:1"
       transform="matrix(0.96078418,0,0,0.96078418,0.48039209,0.48039209)"
       clip-path="url(#clipPath4)" />
    <text
       id="text4"
       xml:space="preserve"
       transform="matrix(0.96079378,0,0,0.96079378,132.88979,95.118585)"
       clip-path="url(#clipPath5)"><tspan
         style="font-variant:normal;font-weight:normal;font-size:24px;font-family:Helvetica;writing-mode:lr-tb;fill:#000000;fill-opacity:1;fill-rule:nonzero;stroke:none"
         x="0"
         y="0"
         id="tspan4">5</tspan></text>
    <path
       id="path6"
       d="m 70,66 h 50 v 50 H 70 Z"
       style="fill:#ffffff;fill-opacity:1;fill-rule:nonzero;stroke:#000000;stroke-width:1;stroke-linecap:butt;stroke-linejoin:miter;stroke-miterlimit:10;stroke-dasharray:none;stroke-opacity:1"
       transform="matrix(0.96078418,0,0,0.96078418,0.48039209,0.48039209)"
       clip-path="url(#clipPath7)" />
    <text
       id="text7"
       xml:space="preserve"
       transform="matrix(0.96079378,0,0,0.96079378,84.850101,95.118585)"
       clip-path="url(#clipPath8)"><tspan
         style="font-variant:normal;font-weight:normal;font-size:24px;font-family:Helvetica;writing-mode:lr-tb;fill:#000000;fill-opacity:1;fill-rule:nonzero;stroke:none"
         x="0"
         y="0"
         id="tspan7">0</tspan></text>
    <path
       id="path9"
       d="m 10,66 h 50 v 50 H 10 Z"
       style="fill:#ffffff;fill-opacity:1;fill-rule:nonzero;stroke:#000000;stroke-width:1;stroke-linecap:butt;stroke-linejoin:miter;stroke-miterlimit:10;stroke-dasharray:none;stroke-opacity:1"
       transform="matrix(0.96078418,0,0,0.96078418,0.48039209,0.48039209)"
       clip-path="url(#clipPath10)" />
    <text
       id="text10"
       xml:space="preserve"
       transform="matrix(0.96079378,0,0,0.96079378,23.374311,95.118585)"
       clip-path="url(#clipPath11)"><tspan
         style="font-variant:normal;font-weight:normal;font-size:24px;font-family:Helvetica;writing-mode:lr-tb;fill:#000000;fill-opacity:1;fill-rule:nonzero;stroke:none"
         x="0 7.9921875"
         y="0"
         sodipodi:role="line"
         id="tspan10">-1</tspan></text>
    <path
       id="path12"
       d="m 190,76 h 50 v 50 h -50 z"
       style="fill:#ffffff;fill-opacity:1;fill-rule:nonzero;stroke:#000000;stroke-width:1;stroke-linecap:butt;stroke-linejoin:miter;stroke-miterlimit:10;stroke-dasharray:none;stroke-opacity:1"
       transform="matrix(0.96078418,0,0,0.96078418,0.48039209,0.48039209)"
       clip-path="url(#clipPath13)" />
    <text
       id="text13"
       xml:space="preserve"
       transform="matrix(0.96079378,0,0,0.96079378,193.73506,104.72652)"
       clip-path="url(#clipPath14)"><tspan
         style="font-variant:normal;font-weight:normal;font-size:24px;font-family:Helvetica;writing-mode:lr-tb;fill:#000000;fill-opacity:1;fill-rule:nonzero;stroke:none"
         x="0 13.347656"
         y="0"
         sodipodi:role="line"
         id="tspan13">10</tspan></text>
    <path
       id="path15"
       d="M 10,1 H 270 V 41 H 10 Z"
       style="fill:#dae8fc;fill-opacity:1;fill-rule:nonzero;stroke:#6c8ebf;stroke-width:1;stroke-linecap:butt;stroke-linejoin:miter;stroke-miterlimit:10;stroke-dasharray:none;stroke-opacity:1"
       transform="matrix(0.96078418,0,0,0.96078418,0.48039209,0.48039209)"
       clip-path="url(#clipPath16)" />
    <text
       id="text16"
       xml:space="preserve"
       transform="matrix(0.96079378,0,0,0.96079378,69.177152,27.86302)"
       clip-path="url(#clipPath17)"><tspan
         style="font-variant:normal;font-weight:700;font-size:24px;font-family:Helvetica;writing-mode:lr-tb;fill:#000000;fill-opacity:1;fill-rule:nonzero;stroke:none"
         x="0 17.332031 31.992188 46.652344 61.3125 67.980469 81.328125 87.996094 104.00391 118.66406 128.00391"
         y="0"
         sodipodi:role="line"
         id="tspan16">Bubble Sort</tspan></text>
    <path
       id="path18"
       d="m 80,91 h -7.5 c -5,0 -7.5,3.333336 -7.5,10 v 40 c 0,6.66667 -2.5,10 -7.5,10 h -3.75 c -2.5,0 -1.25,0 3.75,0 h 3.75 c 2.5,0 3.75,3.33333 3.75,10 v 40 c 0,6.66667 2.5,10 7.5,10 H 80"
       style="fill:none;stroke:#000000;stroke-width:1;stroke-linecap:butt;stroke-linejoin:miter;stroke-miterlimit:10;stroke-dasharray:none;stroke-opacity:1"
       transform="matrix(0,-0.96078418,0.96078418,0,-82.147046,208.00978)"
       clip-path="url(#clipPath19)" />
    <text
       id="text19"
       xml:space="preserve"
       transform="matrix(0.96079378,0,0,0.96079378,1.2460294,172.94288)"
       clip-path="url(#clipPath20)"><tspan
         style="font-variant:normal;font-weight:normal;font-size:24px;font-family:Helvetica;writing-mode:lr-tb;fill:#000000;fill-opacity:1;fill-rule:nonzero;stroke:none"
         x="0 6.6679688 18.667969 25.335938 38.683594 45.351562 59.367188 66.035156 74.027344 87.375 100.72266 107.39062 114.05859 120.72656"
         y="0"
         sodipodi:role="line"
         id="tspan19">Is 0 &gt; -1?  If</tspan></text>
    <text
       id="text20"
       xml:space="preserve"
       transform="matrix(0.96079378,0,0,0.96079378,16.949003,200.8059)"
       clip-path="url(#clipPath21)"><tspan
         style="font-variant:normal;font-weight:normal;font-size:24px;font-family:Helvetica;writing-mode:lr-tb;fill:#000000;fill-opacity:1;fill-rule:nonzero;stroke:none"
         x="0 12 25.347656 32.015625 38.683594 50.683594 68.015625 81.363281"
         y="0"
         sodipodi:role="line"
         id="tspan20">so, swap</tspan></text>
    <text
       id="text21"
       xml:space="preserve"
       transform="matrix(0.96079378,0,0,0.96079378,46.433362,228.66892)"
       clip-path="url(#clipPath22)"><tspan
         style="font-variant:normal;font-weight:normal;font-size:24px;font-family:Helvetica;writing-mode:lr-tb;fill:#000000;fill-opacity:1;fill-rule:nonzero;stroke:none"
         x="0 13.347656"
         y="0"
         sodipodi:role="line"
         id="tspan21">em</tspan></text>
  </g>
</svg>
