<?xml version="1.0" encoding="UTF-8" standalone="no"?>
<!-- Created with Inkscape (http://www.inkscape.org/) -->

<svg
   version="1.1"
   id="svg1"
   width="286.72"
   height="224"
   viewBox="0 0 286.72 224"
   sodipodi:docname="ts-5.pdf"
   xmlns:inkscape="http://www.inkscape.org/namespaces/inkscape"
   xmlns:sodipodi="http://sodipodi.sourceforge.net/DTD/sodipodi-0.dtd"
   xmlns="http://www.w3.org/2000/svg"
   xmlns:svg="http://www.w3.org/2000/svg">
  <defs
     id="defs1">
    <clipPath
       clipPathUnits="userSpaceOnUse"
       id="clipPath2">
      <path
         d="M 0,0 H 895.83325 V 698.09076 H 0 Z"
         transform="scale(0.33376747)"
         clip-rule="evenodd"
         id="path2" />
    </clipPath>
    <clipPath
       clipPathUnits="userSpaceOnUse"
       id="clipPath4">
      <path
         d="M 0,0 H 895.83325 V 698.09076 H 0 Z"
         transform="matrix(0.33376747,0,0,0.33376747,-0.5,-0.5)"
         clip-rule="evenodd"
         id="path4" />
    </clipPath>
    <clipPath
       clipPathUnits="userSpaceOnUse"
       id="clipPath6">
      <path
         d="M 0,0 H 895.83325 V 698.09076 H 0 Z"
         transform="matrix(0.33376747,0,0,0.33376747,-0.5,-0.5)"
         clip-rule="evenodd"
         id="path6" />
    </clipPath>
    <clipPath
       clipPathUnits="userSpaceOnUse"
       id="clipPath8">
      <path
         d="M 0,0 H 895.83325 V 698.09076 H 0 Z"
         transform="matrix(0.33376747,0,0,0.33376747,-0.5,-0.5)"
         clip-rule="evenodd"
         id="path8" />
    </clipPath>
    <clipPath
       clipPathUnits="userSpaceOnUse"
       id="clipPath9">
      <path
         d="M 0,0 H 895.83325 V 698.09076 H 0 Z"
         transform="matrix(0.33376413,0,0,0.33376413,-48.640625,-119)"
         clip-rule="evenodd"
         id="path9" />
    </clipPath>
    <clipPath
       clipPathUnits="userSpaceOnUse"
       id="clipPath11">
      <path
         d="M 0,0 H 895.83325 V 698.09076 H 0 Z"
         transform="matrix(0.33376747,0,0,0.33376747,-0.5,-0.5)"
         clip-rule="evenodd"
         id="path11" />
    </clipPath>
    <clipPath
       clipPathUnits="userSpaceOnUse"
       id="clipPath13">
      <path
         d="M 0,0 H 895.83325 V 698.09076 H 0 Z"
         transform="matrix(0.33376747,0,0,0.33376747,-0.5,-0.5)"
         clip-rule="evenodd"
         id="path13" />
    </clipPath>
    <clipPath
       clipPathUnits="userSpaceOnUse"
       id="clipPath15">
      <path
         d="M 0,0 H 895.83325 V 698.09076 H 0 Z"
         transform="matrix(0.33376747,0,0,0.33376747,-0.5,-0.5)"
         clip-rule="evenodd"
         id="path15" />
    </clipPath>
    <clipPath
       clipPathUnits="userSpaceOnUse"
       id="clipPath16">
      <path
         d="M 0,0 H 895.83325 V 698.09076 H 0 Z"
         transform="matrix(0.33376413,0,0,0.33376413,-121.32813,-119)"
         clip-rule="evenodd"
         id="path16" />
    </clipPath>
    <clipPath
       clipPathUnits="userSpaceOnUse"
       id="clipPath18">
      <path
         d="M 0,0 H 895.83325 V 698.09076 H 0 Z"
         transform="matrix(0.33376747,0,0,0.33376747,-0.5,-0.5)"
         clip-rule="evenodd"
         id="path18" />
    </clipPath>
    <clipPath
       clipPathUnits="userSpaceOnUse"
       id="clipPath19">
      <path
         d="M 0,0 H 895.83325 V 698.09076 H 0 Z"
         transform="matrix(0.33376413,0,0,0.33376413,-265.3125,-119)"
         clip-rule="evenodd"
         id="path19" />
    </clipPath>
    <clipPath
       clipPathUnits="userSpaceOnUse"
       id="clipPath21">
      <path
         d="M 0,0 H 895.83325 V 698.09076 H 0 Z"
         transform="matrix(0.33376747,0,0,0.33376747,-0.5,-0.5)"
         clip-rule="evenodd"
         id="path21" />
    </clipPath>
    <clipPath
       clipPathUnits="userSpaceOnUse"
       id="clipPath23">
      <path
         d="M 0,0 H 895.83325 V 698.09076 H 0 Z"
         transform="matrix(0.33376747,0,0,0.33376747,-0.5,-0.5)"
         clip-rule="evenodd"
         id="path23" />
    </clipPath>
    <clipPath
       clipPathUnits="userSpaceOnUse"
       id="clipPath25">
      <path
         d="M 0,0 H 895.83325 V 698.09076 H 0 Z"
         transform="matrix(0.33376747,0,0,0.33376747,-0.5,-0.5)"
         clip-rule="evenodd"
         id="path25" />
    </clipPath>
    <clipPath
       clipPathUnits="userSpaceOnUse"
       id="clipPath26">
      <path
         d="M 0,0 H 895.83325 V 698.09076 H 0 Z"
         transform="matrix(0.33376413,0,0,0.33376413,-188.64063,-119)"
         clip-rule="evenodd"
         id="path26" />
    </clipPath>
    <clipPath
       clipPathUnits="userSpaceOnUse"
       id="clipPath28">
      <path
         d="M 0,0 H 895.83325 V 698.09076 H 0 Z"
         transform="matrix(0.33376747,0,0,0.33376747,-0.5,-0.5)"
         clip-rule="evenodd"
         id="path28" />
    </clipPath>
    <clipPath
       clipPathUnits="userSpaceOnUse"
       id="clipPath29">
      <path
         d="M 0,0 H 895.83325 V 698.09076 H 0 Z"
         transform="matrix(0.33376413,0,0,0.33376413,-99,-29)"
         clip-rule="evenodd"
         id="path29" />
    </clipPath>
    <clipPath
       clipPathUnits="userSpaceOnUse"
       id="clipPath31">
      <path
         d="M 0,0 H 895.83325 V 698.09076 H 0 Z"
         transform="matrix(0,0.33376747,-0.33376747,0,253.50001,58.500002)"
         clip-rule="evenodd"
         id="path31" />
    </clipPath>
    <clipPath
       clipPathUnits="userSpaceOnUse"
       id="clipPath32">
      <path
         d="M 0,0 H 895.83325 V 698.09076 H 0 Z"
         transform="matrix(0.33376413,0,0,0.33376413,-7.78125,-195)"
         clip-rule="evenodd"
         id="path32" />
    </clipPath>
    <clipPath
       clipPathUnits="userSpaceOnUse"
       id="clipPath33">
      <path
         d="M 0,0 H 895.83325 V 698.09076 H 0 Z"
         transform="matrix(0.33376413,0,0,0.33376413,-49.46875,-224)"
         clip-rule="evenodd"
         id="path33" />
    </clipPath>
  </defs>
  <sodipodi:namedview
     id="namedview1"
     pagecolor="#ffffff"
     bordercolor="#000000"
     borderopacity="0.25"
     inkscape:showpageshadow="2"
     inkscape:pageopacity="0.0"
     inkscape:pagecheckerboard="0"
     inkscape:deskcolor="#d1d1d1">
    <inkscape:page
       x="0"
       y="0"
       inkscape:label="1"
       id="page1"
       width="286.72"
       height="224"
       margin="0"
       bleed="0" />
  </sodipodi:namedview>
  <g
     id="g1"
     inkscape:groupmode="layer"
     inkscape:label="1">
    <path
       id="path1"
       d="M 0,0 H 299 V 233 H 0 Z"
       style="fill:#ffffff;fill-opacity:1;fill-rule:nonzero;stroke:none"
       transform="scale(0.95875126)"
       clip-path="url(#clipPath2)" />
    <path
       id="path3"
       d="m 87,111 h 20 -20 13.63"
       style="fill:none;stroke:#000000;stroke-width:1;stroke-linecap:butt;stroke-linejoin:miter;stroke-miterlimit:10;stroke-dasharray:none;stroke-opacity:1"
       transform="matrix(0.95875126,0,0,0.95875126,0.47937563,0.47937563)"
       clip-path="url(#clipPath4)" />
    <path
       id="path5"
       d="M 105.88,111 98.879997,114.5 100.63,111 98.879997,107.5 Z"
       style="fill:#000000;fill-opacity:1;fill-rule:nonzero;stroke:#000000;stroke-width:1;stroke-linecap:butt;stroke-linejoin:miter;stroke-miterlimit:10;stroke-dasharray:none;stroke-opacity:1"
       transform="matrix(0.95875126,0,0,0.95875126,0.47937563,0.47937563)"
       clip-path="url(#clipPath6)" />
    <path
       id="path7"
       d="m 37,86 h 50 v 50 H 37 Z"
       style="fill:#ffffff;fill-opacity:1;fill-rule:nonzero;stroke:#000000;stroke-width:1;stroke-linecap:butt;stroke-linejoin:miter;stroke-miterlimit:10;stroke-dasharray:none;stroke-opacity:1"
       transform="matrix(0.95875126,0,0,0.95875126,0.47937563,0.47937563)"
       clip-path="url(#clipPath8)" />
    <text
       id="text8"
       xml:space="preserve"
       transform="matrix(0.95876086,0,0,0.95876086,46.634727,114.09254)"
       clip-path="url(#clipPath9)"><tspan
         style="font-variant:normal;font-weight:normal;font-size:24px;font-family:Helvetica;writing-mode:lr-tb;fill:#000000;fill-opacity:1;fill-rule:nonzero;stroke:none"
         x="0 13.347656"
         y="0"
         sodipodi:role="line"
         id="tspan8">10</tspan></text>
    <path
       id="path10"
       d="m 157,111 h 20 -20 13.63"
       style="fill:none;stroke:#000000;stroke-width:1;stroke-linecap:butt;stroke-linejoin:miter;stroke-miterlimit:10;stroke-dasharray:none;stroke-opacity:1"
       transform="matrix(0.95875126,0,0,0.95875126,0.47937563,0.47937563)"
       clip-path="url(#clipPath11)" />
    <path
       id="path12"
       d="m 175.88,111 -7,3.5 1.75,-3.5 -1.75,-3.5 z"
       style="fill:#000000;fill-opacity:1;fill-rule:nonzero;stroke:#000000;stroke-width:1;stroke-linecap:butt;stroke-linejoin:miter;stroke-miterlimit:10;stroke-dasharray:none;stroke-opacity:1"
       transform="matrix(0.95875126,0,0,0.95875126,0.47937563,0.47937563)"
       clip-path="url(#clipPath13)" />
    <path
       id="path14"
       d="m 107,86 h 50 v 50 h -50 z"
       style="fill:#ffffff;fill-opacity:1;fill-rule:nonzero;stroke:#000000;stroke-width:1;stroke-linecap:butt;stroke-linejoin:miter;stroke-miterlimit:10;stroke-dasharray:none;stroke-opacity:1"
       transform="matrix(0.95875126,0,0,0.95875126,0.47937563,0.47937563)"
       clip-path="url(#clipPath15)" />
    <text
       id="text15"
       xml:space="preserve"
       transform="matrix(0.95876086,0,0,0.95876086,116.32466,114.09254)"
       clip-path="url(#clipPath16)"><tspan
         style="font-variant:normal;font-weight:normal;font-size:24px;font-family:Helvetica;writing-mode:lr-tb;fill:#000000;fill-opacity:1;fill-rule:nonzero;stroke:none"
         x="0 7.9921875"
         y="0"
         sodipodi:role="line"
         id="tspan15">-3</tspan></text>
    <path
       id="path17"
       d="m 247,86 h 50 v 50 h -50 z"
       style="fill:#ffffff;fill-opacity:1;fill-rule:nonzero;stroke:#000000;stroke-width:1;stroke-linecap:butt;stroke-linejoin:miter;stroke-miterlimit:10;stroke-dasharray:none;stroke-opacity:1"
       transform="matrix(0.95875126,0,0,0.95875126,0.47937563,0.47937563)"
       clip-path="url(#clipPath18)" />
    <text
       id="text18"
       xml:space="preserve"
       transform="matrix(0.95876086,0,0,0.95876086,254.37124,114.09254)"
       clip-path="url(#clipPath19)"><tspan
         style="font-variant:normal;font-weight:normal;font-size:24px;font-family:Helvetica;writing-mode:lr-tb;fill:#000000;fill-opacity:1;fill-rule:nonzero;stroke:none"
         x="0"
         y="0"
         id="tspan18">5</tspan></text>
    <path
       id="path20"
       d="m 227,111 h 13.63"
       style="fill:none;stroke:#000000;stroke-width:1;stroke-linecap:butt;stroke-linejoin:miter;stroke-miterlimit:10;stroke-dasharray:none;stroke-opacity:1"
       transform="matrix(0.95875126,0,0,0.95875126,0.47937563,0.47937563)"
       clip-path="url(#clipPath21)" />
    <path
       id="path22"
       d="m 245.88,111 -7,3.5 1.75,-3.5 -1.75,-3.5 z"
       style="fill:#000000;fill-opacity:1;fill-rule:nonzero;stroke:#000000;stroke-width:1;stroke-linecap:butt;stroke-linejoin:miter;stroke-miterlimit:10;stroke-dasharray:none;stroke-opacity:1"
       transform="matrix(0.95875126,0,0,0.95875126,0.47937563,0.47937563)"
       clip-path="url(#clipPath23)" />
    <path
       id="path24"
       d="m 177,86 h 50 v 50 h -50 z"
       style="fill:#ffffff;fill-opacity:1;fill-rule:nonzero;stroke:#000000;stroke-width:1;stroke-linecap:butt;stroke-linejoin:miter;stroke-miterlimit:10;stroke-dasharray:none;stroke-opacity:1"
       transform="matrix(0.95875126,0,0,0.95875126,0.47937563,0.47937563)"
       clip-path="url(#clipPath25)" />
    <text
       id="text25"
       xml:space="preserve"
       transform="matrix(0.95876086,0,0,0.95876086,180.86125,114.09254)"
       clip-path="url(#clipPath26)"><tspan
         style="font-variant:normal;font-weight:normal;font-size:24px;font-family:Helvetica;writing-mode:lr-tb;fill:#000000;fill-opacity:1;fill-rule:nonzero;stroke:none"
         x="0 13.347656"
         y="0"
         sodipodi:role="line"
         id="tspan25">27</tspan></text>
    <path
       id="path27"
       d="M 37,1 H 297 V 41 H 37 Z"
       style="fill:#dae8fc;fill-opacity:1;fill-rule:nonzero;stroke:#6c8ebf;stroke-width:1;stroke-linecap:butt;stroke-linejoin:miter;stroke-miterlimit:10;stroke-dasharray:none;stroke-opacity:1"
       transform="matrix(0.95875126,0,0,0.95875126,0.47937563,0.47937563)"
       clip-path="url(#clipPath28)" />
    <text
       id="text28"
       xml:space="preserve"
       transform="matrix(0.95876086,0,0,0.95876086,94.917325,27.804065)"
       clip-path="url(#clipPath29)"><tspan
         style="font-variant:normal;font-weight:700;font-size:24px;font-family:Helvetica;writing-mode:lr-tb;fill:#000000;fill-opacity:1;fill-rule:nonzero;stroke:none"
         x="0 17.332031 31.992188 46.652344 61.3125 67.980469 81.328125 87.996094 104.00391 118.66406 128.00391"
         y="0"
         sodipodi:role="line"
         id="tspan28">Bubble Sort</tspan></text>
    <path
       id="path30"
       d="m 112,96 h -7.5 c -5,0 -7.5,3.333336 -7.5,10 v 40 c 0,6.66667 -2.5,10 -7.5,10 h -3.75 c -2.5,0 -1.25,0 3.75,0 h 3.75 c 2.5,0 3.75,3.33333 3.75,10 v 40 c 0,6.66667 2.5,10 7.5,10 h 7.5"
       style="fill:none;stroke:#000000;stroke-width:1;stroke-linecap:butt;stroke-linejoin:miter;stroke-miterlimit:10;stroke-dasharray:none;stroke-opacity:1"
       transform="matrix(0,-0.95875126,0.95875126,0,-56.086951,243.04345)"
       clip-path="url(#clipPath31)" />
    <text
       id="text31"
       xml:space="preserve"
       transform="matrix(0.95876086,0,0,0.95876086,7.4603579,186.95837)"
       clip-path="url(#clipPath32)"><tspan
         style="font-variant:normal;font-weight:normal;font-size:24px;font-family:Helvetica;writing-mode:lr-tb;fill:#000000;fill-opacity:1;fill-rule:nonzero;stroke:none"
         x="0 6.6679688 18.667969 25.335938 38.683594 52.03125 58.699219 72.714844 79.382812 87.375 100.72266 114.07031 120.73828 127.40625 134.07422 140.74219 147.41016 159.41016 172.75781"
         y="0"
         sodipodi:role="line"
         id="tspan31">Is 10 &gt; -3?  If so,</tspan></text>
    <text
       id="text32"
       xml:space="preserve"
       transform="matrix(0.95876086,0,0,0.95876086,47.428701,214.76243)"
       clip-path="url(#clipPath33)"><tspan
         style="font-variant:normal;font-weight:normal;font-size:24px;font-family:Helvetica;writing-mode:lr-tb;fill:#000000;fill-opacity:1;fill-rule:nonzero;stroke:none"
         x="0 12 29.332031 42.679688 56.027344 62.695312 76.042969"
         y="0"
         sodipodi:role="line"
         id="tspan32">swap em</tspan></text>
  </g>
</svg>
