<?xml version="1.0" encoding="UTF-8" standalone="no"?>
<!-- Created with Inkscape (http://www.inkscape.org/) -->

<svg
   version="1.1"
   id="svg1"
   width="549.44"
   height="177.27998"
   viewBox="0 0 549.44 177.27998"
   sodipodi:docname="ts-6.pdf"
   xmlns:inkscape="http://www.inkscape.org/namespaces/inkscape"
   xmlns:sodipodi="http://sodipodi.sourceforge.net/DTD/sodipodi-0.dtd"
   xmlns="http://www.w3.org/2000/svg"
   xmlns:svg="http://www.w3.org/2000/svg">
  <defs
     id="defs1">
    <clipPath
       clipPathUnits="userSpaceOnUse"
       id="clipPath2">
      <path
         d="M 0,0 H 1716.6666 V 553.28107 H 0 Z"
         transform="scale(0.33436894)"
         clip-rule="evenodd"
         id="path2" />
    </clipPath>
    <clipPath
       clipPathUnits="userSpaceOnUse"
       id="clipPath4">
      <path
         d="M 0,0 H 1716.6666 V 550.29034 H 0 Z"
         transform="matrix(0.33436894,0,0,0.33436894,-0.49999999,-0.49999999)"
         clip-rule="evenodd"
         id="path4" />
    </clipPath>
    <clipPath
       clipPathUnits="userSpaceOnUse"
       id="clipPath5">
      <path
         d="M 0,0 H 1716.6666 V 550.29034 H 0 Z"
         transform="matrix(0.33436559,0,0,0.33436559,-7.515625,-75)"
         clip-rule="evenodd"
         id="path5" />
    </clipPath>
    <clipPath
       clipPathUnits="userSpaceOnUse"
       id="clipPath6">
      <path
         d="M 0,0 H 1716.6666 V 550.29034 H 0 Z"
         transform="matrix(0.33436559,0,0,0.33436559,-216.64063,-75)"
         clip-rule="evenodd"
         id="path6" />
    </clipPath>
    <clipPath
       clipPathUnits="userSpaceOnUse"
       id="clipPath7">
      <path
         d="M 0,0 H 1716.6666 V 550.29034 H 0 Z"
         transform="matrix(0.33436559,0,0,0.33436559,-247.28125,-75)"
         clip-rule="evenodd"
         id="path7" />
    </clipPath>
    <clipPath
       clipPathUnits="userSpaceOnUse"
       id="clipPath8">
      <path
         d="M 0,0 H 1716.6666 V 550.29034 H 0 Z"
         transform="matrix(0.33436559,0,0,0.33436559,-27.59375,-97.999999)"
         clip-rule="evenodd"
         id="path8" />
    </clipPath>
    <clipPath
       clipPathUnits="userSpaceOnUse"
       id="clipPath9">
      <path
         d="M 0,0 H 1716.6666 V 550.29034 H 0 Z"
         transform="matrix(0.33436559,0,0,0.33436559,-37.125,-121)"
         clip-rule="evenodd"
         id="path9" />
    </clipPath>
    <clipPath
       clipPathUnits="userSpaceOnUse"
       id="clipPath11">
      <path
         d="M 0,0 H 1716.6666 V 550.29034 H 0 Z"
         transform="matrix(0.33436894,0,0,0.33436894,-0.49999999,-0.49999999)"
         clip-rule="evenodd"
         id="path11" />
    </clipPath>
    <clipPath
       clipPathUnits="userSpaceOnUse"
       id="clipPath13">
      <path
         d="M 0,0 H 1716.6666 V 550.29034 H 0 Z"
         transform="matrix(0.33436894,0,0,0.33436894,-0.49999999,-0.49999999)"
         clip-rule="evenodd"
         id="path13" />
    </clipPath>
    <clipPath
       clipPathUnits="userSpaceOnUse"
       id="clipPath14">
      <path
         d="M 0,0 H 1716.6666 V 550.29034 H 0 Z"
         transform="matrix(0.33436559,0,0,0.33436559,-465.10938,-33)"
         clip-rule="evenodd"
         id="path14" />
    </clipPath>
    <clipPath
       clipPathUnits="userSpaceOnUse"
       id="clipPath16">
      <path
         d="M 0,0 H 1716.6666 V 550.29034 H 0 Z"
         transform="matrix(0.33436894,0,0,0.33436894,-0.49999999,-0.49999999)"
         clip-rule="evenodd"
         id="path16" />
    </clipPath>
    <clipPath
       clipPathUnits="userSpaceOnUse"
       id="clipPath17">
      <path
         d="M 0,0 H 1716.6666 V 550.29034 H 0 Z"
         transform="matrix(0.33436559,0,0,0.33436559,-438.20313,-97.999999)"
         clip-rule="evenodd"
         id="path17" />
    </clipPath>
    <clipPath
       clipPathUnits="userSpaceOnUse"
       id="clipPath19">
      <path
         d="M 0,0 H 1716.6666 V 550.29034 H 0 Z"
         transform="matrix(0.33436894,0,0,0.33436894,-0.49999999,-0.49999999)"
         clip-rule="evenodd"
         id="path19" />
    </clipPath>
    <clipPath
       clipPathUnits="userSpaceOnUse"
       id="clipPath20">
      <path
         d="M 0,0 H 1716.6666 V 550.29034 H 0 Z"
         transform="matrix(0.33436559,0,0,0.33436559,-452.98438,-163)"
         clip-rule="evenodd"
         id="path20" />
    </clipPath>
  </defs>
  <sodipodi:namedview
     id="namedview1"
     pagecolor="#ffffff"
     bordercolor="#000000"
     borderopacity="0.25"
     inkscape:showpageshadow="2"
     inkscape:pageopacity="0.0"
     inkscape:pagecheckerboard="0"
     inkscape:deskcolor="#d1d1d1">
    <inkscape:page
       x="0"
       y="0"
       inkscape:label="1"
       id="page1"
       width="549.44"
       height="177.27998"
       margin="0"
       bleed="0" />
  </sodipodi:namedview>
  <g
     id="g1"
     inkscape:groupmode="layer"
     inkscape:label="1">
    <path
       id="path1"
       d="M 0,0 H 574 V 185 H 0 Z"
       style="fill:#ffffff;fill-opacity:1;fill-rule:nonzero;stroke:none"
       transform="scale(0.95702665)"
       clip-path="url(#clipPath2)" />
    <path
       id="path3"
       d="M 1,21 H 351 V 161 H 1 Z"
       style="fill:#dae8fc;fill-opacity:1;fill-rule:nonzero;stroke:#6c8ebf;stroke-width:1;stroke-linecap:butt;stroke-linejoin:miter;stroke-miterlimit:10;stroke-dasharray:none;stroke-opacity:1"
       transform="matrix(0.95702665,0,0,0.95702665,0.47851332,0.47851332)"
       clip-path="url(#clipPath4)" />
    <text
       id="text4"
       xml:space="preserve"
       transform="matrix(0.95703625,0,0,0.95703625,7.1927256,71.777719)"
       clip-path="url(#clipPath5)"><tspan
         style="font-variant:normal;font-weight:normal;font-size:19px;font-family:Helvetica;writing-mode:lr-tb;fill:#000000;fill-opacity:1;fill-rule:nonzero;stroke:none"
         x="0 12.672852 23.239746 33.806641 44.373535 48.594727 59.161621 64.44043 73.94043 84.507324 90.834473 96.113281 101.39209 110.89209 121.45898 132.02588 137.30469 151.02588 161.59277 167.91992 177.41992 182.69873 193.26562 203.83252"
         y="0"
         sodipodi:role="line"
         id="tspan4">Bubble sort can work on </tspan></text>
    <text
       id="text5"
       xml:space="preserve"
       transform="matrix(0.95703625,0,0,0.95703625,207.33294,71.777719)"
       clip-path="url(#clipPath6)"><tspan
         style="font-style:oblique;font-variant:normal;font-weight:normal;font-size:19px;font-family:Helvetica;writing-mode:lr-tb;fill:#000000;fill-opacity:1;fill-rule:nonzero;stroke:none"
         x="0 10.566895 21.133789"
         y="0"
         sodipodi:role="line"
         id="tspan5">any</tspan></text>
    <text
       id="text6"
       xml:space="preserve"
       transform="matrix(0.95703625,0,0,0.95703625,236.65712,71.777719)"
       clip-path="url(#clipPath7)"><tspan
         style="font-variant:normal;font-weight:normal;font-size:19px;font-family:Helvetica;writing-mode:lr-tb;fill:#000000;fill-opacity:1;fill-rule:nonzero;stroke:none"
         x="0 5.2788086 14.778809 25.345703 35.912598 46.479492 57.046387 67.613281 72.89209 77.113281 87.680176 91.901367"
         y="0"
         sodipodi:role="line"
         id="tspan6"> sequential,</tspan></text>
    <text
       id="text7"
       xml:space="preserve"
       transform="matrix(0.95703625,0,0,0.95703625,26.408219,93.789552)"
       clip-path="url(#clipPath8)"><tspan
         style="font-variant:normal;font-weight:normal;font-size:19px;font-family:Helvetica;writing-mode:lr-tb;fill:#000000;fill-opacity:1;fill-rule:nonzero;stroke:none"
         x="0 4.2211914 14.788086 25.35498 35.921875 45.421875 55.98877 66.555664 70.776855 81.34375 86.622559 97.189453 107.75635 113.03516 123.60205 128.88086 138.38086 143.65967 149.98682 160.55371 170.05371 175.33252 185.89941 192.22656 202.79346 208.07227 212.29346 217.57227 222.85107 228.12988 238.69678 249.26367 254.54248 259.82129 270.38818 280.95508 286.23389"
         y="0"
         sodipodi:role="line"
         id="tspan7">indexable data structure if that data</tspan></text>
    <text
       id="text8"
       xml:space="preserve"
       transform="matrix(0.95703625,0,0,0.95703625,35.529971,115.80139)"
       clip-path="url(#clipPath9)"><tspan
         style="font-variant:normal;font-weight:normal;font-size:19px;font-family:Helvetica;writing-mode:lr-tb;fill:#000000;fill-opacity:1;fill-rule:nonzero;stroke:none"
         x="0 9.5 14.778809 21.105957 31.672852 41.172852 46.45166 57.018555 63.345703 73.912598 79.191406 89.758301 100.3252 109.8252 114.04639 124.61328 130.94043 141.50732 151.00732 156.28613 161.56494 172.13184 178.45898 189.02588 199.59277 204.87158 220.69873 231.26562 236.54443 247.11133 257.67822 268.24512"
         y="0"
         sodipodi:role="line"
         id="tspan8">structure declares three methods</tspan></text>
    <path
       id="path10"
       d="m 401,1 h -15 c -6.66666,0 -10,3.333333 -10,10 v 70 c 0,6.666664 -3.33334,10 -10,10 h -7.5 c -5,0 -4.16666,0 2.5,0 h 7.5 c 5,0 7.5,3.333336 7.5,10 v 70 c 0,6.66667 3.33334,10 10,10 h 15"
       style="fill:none;stroke:#000000;stroke-width:1;stroke-linecap:butt;stroke-linejoin:miter;stroke-miterlimit:10;stroke-dasharray:none;stroke-opacity:1"
       transform="matrix(0.95702665,0,0,0.95702665,0.47851332,0.47851332)"
       clip-path="url(#clipPath11)" />
    <path
       id="path12"
       d="M 411,1 H 571 V 51 H 411 Z"
       style="fill:#ffffff;fill-opacity:1;fill-rule:nonzero;stroke:#000000;stroke-width:1;stroke-linecap:butt;stroke-linejoin:miter;stroke-miterlimit:10;stroke-dasharray:none;stroke-opacity:1"
       transform="matrix(0.95702665,0,0,0.95702665,0.47851332,0.47851332)"
       clip-path="url(#clipPath13)" />
    <text
       id="text13"
       xml:space="preserve"
       transform="matrix(0.95703625,0,0,0.95703625,445.12654,31.582196)"
       clip-path="url(#clipPath14)"><tspan
         style="font-variant:normal;font-weight:normal;font-size:19px;font-family:Helvetica;writing-mode:lr-tb;fill:#000000;fill-opacity:1;fill-rule:nonzero;stroke:none"
         x="0 4.2211914 14.788086 25.35498 35.921875 41.200684"
         y="0"
         sodipodi:role="line"
         id="tspan13">length</tspan></text>
    <path
       id="path15"
       d="m 411,66 h 160 v 50 H 411 Z"
       style="fill:#ffffff;fill-opacity:1;fill-rule:nonzero;stroke:#000000;stroke-width:1;stroke-linecap:butt;stroke-linejoin:miter;stroke-miterlimit:10;stroke-dasharray:none;stroke-opacity:1"
       transform="matrix(0.95702665,0,0,0.95702665,0.47851332,0.47851332)"
       clip-path="url(#clipPath16)" />
    <text
       id="text16"
       xml:space="preserve"
       transform="matrix(0.95703625,0,0,0.95703625,419.37628,93.789552)"
       clip-path="url(#clipPath17)"><tspan
         style="font-variant:normal;font-weight:normal;font-size:19px;font-family:Helvetica;writing-mode:lr-tb;fill:#000000;fill-opacity:1;fill-rule:nonzero;stroke:none"
         x="0 9.5 20.066895 35.894043 46.460938 57.027832 63.35498 73.921875 80.249023 84.470215 89.749023 95.027832 99.249023"
         y="0"
         sodipodi:role="line"
         id="tspan16">compare(i, j)</tspan></text>
    <path
       id="path18"
       d="m 411,131 h 160 v 50 H 411 Z"
       style="fill:#ffffff;fill-opacity:1;fill-rule:nonzero;stroke:#000000;stroke-width:1;stroke-linecap:butt;stroke-linejoin:miter;stroke-miterlimit:10;stroke-dasharray:none;stroke-opacity:1"
       transform="matrix(0.95702665,0,0,0.95702665,0.47851332,0.47851332)"
       clip-path="url(#clipPath19)" />
    <text
       id="text19"
       xml:space="preserve"
       transform="matrix(0.95703625,0,0,0.95703625,433.52247,155.99691)"
       clip-path="url(#clipPath20)"><tspan
         style="font-variant:normal;font-weight:normal;font-size:19px;font-family:Helvetica;writing-mode:lr-tb;fill:#000000;fill-opacity:1;fill-rule:nonzero;stroke:none"
         x="0 9.5 23.221191 33.788086 44.35498 50.682129 54.90332 60.182129 65.460938 69.682129"
         y="0"
         sodipodi:role="line"
         id="tspan19">swap(i, j)</tspan></text>
  </g>
</svg>
