<?xml version="1.0" encoding="UTF-8" standalone="no"?>
<!-- Created with Inkscape (http://www.inkscape.org/) -->

<svg
   version="1.1"
   id="svg1"
   width="562.56"
   height="242.56"
   viewBox="0 0 562.56 242.56"
   sodipodi:docname="ts-8.pdf"
   xmlns:inkscape="http://www.inkscape.org/namespaces/inkscape"
   xmlns:sodipodi="http://sodipodi.sourceforge.net/DTD/sodipodi-0.dtd"
   xmlns="http://www.w3.org/2000/svg"
   xmlns:svg="http://www.w3.org/2000/svg">
  <defs
     id="defs1">
    <clipPath
       clipPathUnits="userSpaceOnUse"
       id="clipPath2">
      <path
         d="M 0,0 H 1758.3333 V 757.85059 H 0 Z"
         transform="scale(0.33383889)"
         clip-rule="evenodd"
         id="path2" />
    </clipPath>
    <clipPath
       clipPathUnits="userSpaceOnUse"
       id="clipPath4">
      <path
         d="M 0,0 H 1758.3333 V 751.85968 H 0 Z"
         transform="matrix(0.33383889,0,0,0.33383889,-0.50000001,-0.50000001)"
         clip-rule="evenodd"
         id="path4" />
    </clipPath>
    <clipPath
       clipPathUnits="userSpaceOnUse"
       id="clipPath6">
      <path
         d="M 0,0 H 1758.3333 V 751.85968 H 0 Z"
         transform="matrix(0.33383889,0,0,0.33383889,-0.50000001,-0.50000001)"
         clip-rule="evenodd"
         id="path6" />
    </clipPath>
    <clipPath
       clipPathUnits="userSpaceOnUse"
       id="clipPath8">
      <path
         d="M 0,0 H 1758.3333 V 751.85968 H 0 Z"
         transform="matrix(0.33383889,0,0,0.33383889,-0.50000001,-0.50000001)"
         clip-rule="evenodd"
         id="path8" />
    </clipPath>
    <clipPath
       clipPathUnits="userSpaceOnUse"
       id="clipPath9">
      <path
         d="M 0,0 H 1758.3333 V 751.85968 H 0 Z"
         transform="matrix(0.33383553,0,0,0.33383553,-57.75,-76)"
         clip-rule="evenodd"
         id="path9" />
    </clipPath>
    <clipPath
       clipPathUnits="userSpaceOnUse"
       id="clipPath11">
      <path
         d="M 0,0 H 1758.3333 V 751.85968 H 0 Z"
         transform="matrix(0.33383889,0,0,0.33383889,-0.50000001,-0.50000001)"
         clip-rule="evenodd"
         id="path11" />
    </clipPath>
    <clipPath
       clipPathUnits="userSpaceOnUse"
       id="clipPath12">
      <path
         d="M 0,0 H 1758.3333 V 751.85968 H 0 Z"
         transform="matrix(0.33383553,0,0,0.33383553,-207.875,-74)"
         clip-rule="evenodd"
         id="path12" />
    </clipPath>
    <clipPath
       clipPathUnits="userSpaceOnUse"
       id="clipPath14">
      <path
         d="M 0,0 H 1758.3333 V 751.85968 H 0 Z"
         transform="matrix(0.33383889,0,0,0.33383889,-0.50000001,-0.50000001)"
         clip-rule="evenodd"
         id="path14" />
    </clipPath>
    <clipPath
       clipPathUnits="userSpaceOnUse"
       id="clipPath15">
      <path
         d="M 0,0 H 1758.3333 V 751.85968 H 0 Z"
         transform="matrix(0.33383553,0,0,0.33383553,-315.43751,-74)"
         clip-rule="evenodd"
         id="path15" />
    </clipPath>
    <clipPath
       clipPathUnits="userSpaceOnUse"
       id="clipPath17">
      <path
         d="M 0,0 H 1758.3333 V 751.85968 H 0 Z"
         transform="matrix(0.33383889,0,0,0.33383889,-0.50000001,-0.50000001)"
         clip-rule="evenodd"
         id="path17" />
    </clipPath>
    <clipPath
       clipPathUnits="userSpaceOnUse"
       id="clipPath18">
      <path
         d="M 0,0 H 1758.3333 V 751.85968 H 0 Z"
         transform="matrix(0.33383553,0,0,0.33383553,-406.51562,-74)"
         clip-rule="evenodd"
         id="path18" />
    </clipPath>
    <clipPath
       clipPathUnits="userSpaceOnUse"
       id="clipPath20">
      <path
         d="M 0,0 H 1758.3333 V 751.85968 H 0 Z"
         transform="matrix(0.33383889,0,0,0.33383889,-0.50000001,-0.50000001)"
         clip-rule="evenodd"
         id="path20" />
    </clipPath>
    <clipPath
       clipPathUnits="userSpaceOnUse"
       id="clipPath21">
      <path
         d="M 0,0 H 1758.3333 V 751.85968 H 0 Z"
         transform="matrix(0.33383553,0,0,0.33383553,-509.65625,-74)"
         clip-rule="evenodd"
         id="path21" />
    </clipPath>
    <clipPath
       clipPathUnits="userSpaceOnUse"
       id="clipPath23">
      <path
         d="M 0,0 H 1758.3333 V 751.85968 H 0 Z"
         transform="matrix(0.33383889,0,0,0.33383889,-0.50000001,-0.50000001)"
         clip-rule="evenodd"
         id="path23" />
    </clipPath>
    <clipPath
       clipPathUnits="userSpaceOnUse"
       id="clipPath25">
      <path
         d="M 0,0 H 1758.3333 V 751.85968 H 0 Z"
         transform="matrix(0.33383889,0,0,0.33383889,-0.50000001,-0.50000001)"
         clip-rule="evenodd"
         id="path25" />
    </clipPath>
    <clipPath
       clipPathUnits="userSpaceOnUse"
       id="clipPath27">
      <path
         d="M 0,0 H 1758.3333 V 751.85968 H 0 Z"
         transform="matrix(0.33383889,0,0,0.33383889,-0.50000001,-0.50000001)"
         clip-rule="evenodd"
         id="path27" />
    </clipPath>
    <clipPath
       clipPathUnits="userSpaceOnUse"
       id="clipPath28">
      <path
         d="M 0,0 H 1758.3333 V 751.85968 H 0 Z"
         transform="matrix(0.33383553,0,0,0.33383553,-39.406249,-226)"
         clip-rule="evenodd"
         id="path28" />
    </clipPath>
    <clipPath
       clipPathUnits="userSpaceOnUse"
       id="clipPath30">
      <path
         d="M 0,0 H 1758.3333 V 751.85968 H 0 Z"
         transform="matrix(0.33383889,0,0,0.33383889,-0.50000001,-0.50000001)"
         clip-rule="evenodd"
         id="path30" />
    </clipPath>
    <clipPath
       clipPathUnits="userSpaceOnUse"
       id="clipPath31">
      <path
         d="M 0,0 H 1758.3333 V 751.85968 H 0 Z"
         transform="matrix(0.33383553,0,0,0.33383553,-197.14063,-214)"
         clip-rule="evenodd"
         id="path31" />
    </clipPath>
    <clipPath
       clipPathUnits="userSpaceOnUse"
       id="clipPath32">
      <path
         d="M 0,0 H 1758.3333 V 751.85968 H 0 Z"
         transform="matrix(0.33383553,0,0,0.33383553,-265.1875,-234)"
         clip-rule="evenodd"
         id="path32" />
    </clipPath>
    <clipPath
       clipPathUnits="userSpaceOnUse"
       id="clipPath33">
      <path
         d="M 0,0 H 1758.3333 V 751.85968 H 0 Z"
         transform="matrix(0.33383553,0,0,0.33383553,-4.953125,-14)"
         clip-rule="evenodd"
         id="path33" />
    </clipPath>
    <clipPath
       clipPathUnits="userSpaceOnUse"
       id="clipPath34">
      <path
         d="M 0,0 H 1758.3333 V 751.85968 H 0 Z"
         transform="matrix(0.33383553,0,0,0.33383553,-22.296875,-34)"
         clip-rule="evenodd"
         id="path34" />
    </clipPath>
    <clipPath
       clipPathUnits="userSpaceOnUse"
       id="clipPath35">
      <path
         d="M 0,0 H 1758.3333 V 751.85968 H 0 Z"
         transform="matrix(0.33383553,0,0,0.33383553,-16.078125,-164)"
         clip-rule="evenodd"
         id="path35" />
    </clipPath>
    <clipPath
       clipPathUnits="userSpaceOnUse"
       id="clipPath36">
      <path
         d="M 0,0 H 1758.3333 V 751.85968 H 0 Z"
         transform="matrix(0.33383553,0,0,0.33383553,-19.171875,-184)"
         clip-rule="evenodd"
         id="path36" />
    </clipPath>
  </defs>
  <sodipodi:namedview
     id="namedview1"
     pagecolor="#ffffff"
     bordercolor="#000000"
     borderopacity="0.25"
     inkscape:showpageshadow="2"
     inkscape:pageopacity="0.0"
     inkscape:pagecheckerboard="0"
     inkscape:deskcolor="#d1d1d1">
    <inkscape:page
       x="0"
       y="0"
       inkscape:label="1"
       id="page1"
       width="562.56"
       height="242.56"
       margin="0"
       bleed="0" />
  </sodipodi:namedview>
  <g
     id="g1"
     inkscape:groupmode="layer"
     inkscape:label="1">
    <path
       id="path1"
       d="M 0,0 H 587 V 253 H 0 Z"
       style="fill:#ffffff;fill-opacity:1;fill-rule:nonzero;stroke:none"
       transform="scale(0.95854617)"
       clip-path="url(#clipPath2)" />
    <path
       id="path3"
       d="m 145,69 h 20 13.63"
       style="fill:none;stroke:#000000;stroke-width:1;stroke-linecap:butt;stroke-linejoin:miter;stroke-miterlimit:10;stroke-dasharray:none;stroke-opacity:1"
       transform="matrix(0.95854617,0,0,0.95854617,0.47927309,0.47927309)"
       clip-path="url(#clipPath4)" />
    <path
       id="path5"
       d="m 183.88,69 -7,3.5 1.75,-3.5 -1.75,-3.5 z"
       style="fill:#000000;fill-opacity:1;fill-rule:nonzero;stroke:#000000;stroke-width:1;stroke-linecap:butt;stroke-linejoin:miter;stroke-miterlimit:10;stroke-dasharray:none;stroke-opacity:1"
       transform="matrix(0.95854617,0,0,0.95854617,0.47927309,0.47927309)"
       clip-path="url(#clipPath6)" />
    <path
       id="path7"
       d="M 25,39 H 145 V 99 H 25 Z"
       style="fill:#dae8fc;fill-opacity:1;fill-rule:nonzero;stroke:#6c8ebf;stroke-width:1;stroke-linecap:butt;stroke-linejoin:miter;stroke-miterlimit:10;stroke-dasharray:none;stroke-opacity:1"
       transform="matrix(0.95854617,0,0,0.95854617,0.47927309,0.47927309)"
       clip-path="url(#clipPath8)" />
    <text
       id="text8"
       xml:space="preserve"
       transform="matrix(0.9585558,0,0,0.9585558,55.356597,72.850241)"
       clip-path="url(#clipPath9)"><tspan
         style="font-variant:normal;font-weight:normal;font-size:20px;font-family:Helvetica;writing-mode:lr-tb;fill:#000000;fill-opacity:1;fill-rule:nonzero;stroke:none"
         x="0 5.5566406 15.556641 26.679688 37.802734 48.925781"
         y="0"
         sodipodi:role="line"
         id="tspan8">typeof</tspan></text>
    <path
       id="path10"
       d="M 185,49 H 285 V 89 H 185 Z"
       style="fill:#ffffff;fill-opacity:1;fill-rule:nonzero;stroke:#000000;stroke-width:1;stroke-linecap:butt;stroke-linejoin:miter;stroke-miterlimit:10;stroke-dasharray:none;stroke-opacity:1"
       transform="matrix(0.95854617,0,0,0.95854617,0.47927309,0.47927309)"
       clip-path="url(#clipPath11)" />
    <text
       id="text11"
       xml:space="preserve"
       transform="matrix(0.9585558,0,0,0.9585558,199.25979,70.933129)"
       clip-path="url(#clipPath12)"><tspan
         style="font-variant:normal;font-weight:normal;font-size:16px;font-family:Helvetica;writing-mode:lr-tb;fill:#000000;fill-opacity:1;fill-rule:nonzero;stroke:none"
         x="0 8.8984375 17.796875 31.125 40.023438 48.921875"
         y="0"
         sodipodi:role="line"
         id="tspan11">number</tspan></text>
    <path
       id="path13"
       d="M 285,49 H 385 V 89 H 285 Z"
       style="fill:#ffffff;fill-opacity:1;fill-rule:nonzero;stroke:#000000;stroke-width:1;stroke-linecap:butt;stroke-linejoin:miter;stroke-miterlimit:10;stroke-dasharray:none;stroke-opacity:1"
       transform="matrix(0.95854617,0,0,0.95854617,0.47927309,0.47927309)"
       clip-path="url(#clipPath14)" />
    <text
       id="text14"
       xml:space="preserve"
       transform="matrix(0.9585558,0,0,0.9585558,302.36445,70.933129)"
       clip-path="url(#clipPath15)"><tspan
         style="font-variant:normal;font-weight:normal;font-size:16px;font-family:Helvetica;writing-mode:lr-tb;fill:#000000;fill-opacity:1;fill-rule:nonzero;stroke:none"
         x="0 8 12.445312 17.773438 21.328125 30.226562"
         y="0"
         sodipodi:role="line"
         id="tspan14">string</tspan></text>
    <path
       id="path16"
       d="M 385,49 H 485 V 89 H 385 Z"
       style="fill:#ffffff;fill-opacity:1;fill-rule:nonzero;stroke:#000000;stroke-width:1;stroke-linecap:butt;stroke-linejoin:miter;stroke-miterlimit:10;stroke-dasharray:none;stroke-opacity:1"
       transform="matrix(0.95854617,0,0,0.95854617,0.47927309,0.47927309)"
       clip-path="url(#clipPath17)" />
    <text
       id="text17"
       xml:space="preserve"
       transform="matrix(0.9585558,0,0,0.9585558,389.66791,70.933129)"
       clip-path="url(#clipPath18)"><tspan
         style="font-variant:normal;font-weight:normal;font-size:16px;font-family:Helvetica;writing-mode:lr-tb;fill:#000000;fill-opacity:1;fill-rule:nonzero;stroke:none"
         x="0 8.8984375 17.796875 26.695312 30.25 39.148438 48.046875"
         y="0"
         sodipodi:role="line"
         id="tspan17">boolean</tspan></text>
    <path
       id="path19"
       d="M 485,49 H 585 V 89 H 485 Z"
       style="fill:#ffffff;fill-opacity:1;fill-rule:nonzero;stroke:#000000;stroke-width:1;stroke-linecap:butt;stroke-linejoin:miter;stroke-miterlimit:10;stroke-dasharray:none;stroke-opacity:1"
       transform="matrix(0.95854617,0,0,0.95854617,0.47927309,0.47927309)"
       clip-path="url(#clipPath20)" />
    <text
       id="text20"
       xml:space="preserve"
       transform="matrix(0.9585558,0,0,0.9585558,488.53395,70.933129)"
       clip-path="url(#clipPath21)"><tspan
         style="font-variant:normal;font-weight:normal;font-size:16px;font-family:Helvetica;writing-mode:lr-tb;fill:#000000;fill-opacity:1;fill-rule:nonzero;stroke:none"
         x="0 8 16 29.328125 38.226562 47.125"
         y="0"
         sodipodi:role="line"
         id="tspan20">symbol</tspan></text>
    <path
       id="path22"
       d="m 145,219 h 20 13.63"
       style="fill:none;stroke:#000000;stroke-width:1;stroke-linecap:butt;stroke-linejoin:miter;stroke-miterlimit:10;stroke-dasharray:none;stroke-opacity:1"
       transform="matrix(0.95854617,0,0,0.95854617,0.47927309,0.47927309)"
       clip-path="url(#clipPath23)" />
    <path
       id="path24"
       d="m 183.88,219 -7,3.5 1.75,-3.5 -1.75,-3.5 z"
       style="fill:#000000;fill-opacity:1;fill-rule:nonzero;stroke:#000000;stroke-width:1;stroke-linecap:butt;stroke-linejoin:miter;stroke-miterlimit:10;stroke-dasharray:none;stroke-opacity:1"
       transform="matrix(0.95854617,0,0,0.95854617,0.47927309,0.47927309)"
       clip-path="url(#clipPath25)" />
    <path
       id="path26"
       d="m 25,189 h 120 v 60 H 25 Z"
       style="fill:#dae8fc;fill-opacity:1;fill-rule:nonzero;stroke:#6c8ebf;stroke-width:1;stroke-linecap:butt;stroke-linejoin:miter;stroke-miterlimit:10;stroke-dasharray:none;stroke-opacity:1"
       transform="matrix(0.95854617,0,0,0.95854617,0.47927309,0.47927309)"
       clip-path="url(#clipPath27)" />
    <text
       id="text27"
       xml:space="preserve"
       transform="matrix(0.9585558,0,0,0.9585558,37.773089,216.63361)"
       clip-path="url(#clipPath28)"><tspan
         style="font-variant:normal;font-weight:normal;font-size:20px;font-family:Helvetica;writing-mode:lr-tb;fill:#000000;fill-opacity:1;fill-rule:nonzero;stroke:none"
         x="0 4.4433594 15.566406 25.566406 31.123047 42.246094 53.369141 63.369141 74.492188 85.615234"
         y="0"
         sodipodi:role="line"
         id="tspan27">instanceof</tspan></text>
    <path
       id="path29"
       d="m 185,199 h 300 v 40 H 185 Z"
       style="fill:#ffffff;fill-opacity:1;fill-rule:nonzero;stroke:#000000;stroke-width:1;stroke-linecap:butt;stroke-linejoin:miter;stroke-miterlimit:10;stroke-dasharray:none;stroke-opacity:1"
       transform="matrix(0.95854617,0,0,0.95854617,0.47927309,0.47927309)"
       clip-path="url(#clipPath30)" />
    <text
       id="text30"
       xml:space="preserve"
       transform="matrix(0.9585558,0,0,0.9585558,188.97029,205.13094)"
       clip-path="url(#clipPath31)"><tspan
         style="font-style:oblique;font-variant:normal;font-weight:normal;font-size:16px;font-family:Helvetica;writing-mode:lr-tb;fill:#000000;fill-opacity:1;fill-rule:nonzero;stroke:none"
         x="0 10.671875 18.671875 27.570312 32.898438 40.898438 45.34375 54.242188 58.6875 67.585938 76.484375 81.8125 86.257812 94.257812 103.15625 106.71094 115.60938 124.50781 128.95312 133.39844 142.29688 151.19531 155.64062 160.08594 163.64062 171.64062 176.08594 184.08594 189.41406 198.3125 207.21094 211.65625 220.55469 229.45312 233.89844 245.45312 249.00781 253.45312 262.35156 266.79688"
         y="0"
         sodipodi:role="line"
         id="tspan30">Every other value that is created with a</tspan></text>
    <text
       id="text31"
       xml:space="preserve"
       transform="matrix(0.9585558,0,0,0.9585558,254.19702,224.30206)"
       clip-path="url(#clipPath32)"><tspan
         style="font-style:oblique;font-variant:normal;font-weight:normal;font-size:16px;font-family:Helvetica;writing-mode:lr-tb;fill:#000000;fill-opacity:1;fill-rule:nonzero;stroke:none"
         x="0 8 16.898438 25.796875 33.796875 38.242188 43.570312 52.46875 60.46875 64.914062 73.8125 79.140625 83.585938 88.03125 96.929688 105.82812 113.82812 118.27344 121.82812 130.72656"
         y="0"
         sodipodi:role="line"
         id="tspan31">constructor function</tspan></text>
    <text
       id="text32"
       xml:space="preserve"
       transform="matrix(0.9585558,0,0,0.9585558,4.7478467,13.419781)"
       clip-path="url(#clipPath33)"><tspan
         style="font-style:oblique;font-variant:normal;font-weight:normal;font-size:16px;font-family:Helvetica;writing-mode:lr-tb;fill:#000000;fill-opacity:1;fill-rule:nonzero;stroke:none"
         x="0 11.554688 20.453125 25.78125 31.109375 40.007812 51.5625 56.007812 60.453125 68.453125 77.351562 86.25 90.695312 99.59375 104.03906 108.48438 117.38281 121.82812 129.82812 138.72656 142.28125 151.17969"
         y="0"
         sodipodi:role="line"
         id="tspan32">Narrow type of a value</tspan></text>
    <text
       id="text33"
       xml:space="preserve"
       transform="matrix(0.9585558,0,0,0.9585558,21.372799,32.590897)"
       clip-path="url(#clipPath34)"><tspan
         style="font-style:oblique;font-variant:normal;font-weight:normal;font-size:16px;font-family:Helvetica;writing-mode:lr-tb;fill:#000000;fill-opacity:1;fill-rule:nonzero;stroke:none"
         x="0 4.4453125 13.34375 17.789062 26.6875 31.132812 40.03125 45.359375 48.914062 62.242188 65.796875 70.242188 73.796875 81.796875 90.695312 95.140625 99.585938 107.58594 116.48438"
         y="0"
         sodipodi:role="line"
         id="tspan33">to a primitive type</tspan></text>
    <text
       id="text34"
       xml:space="preserve"
       transform="matrix(0.9585558,0,0,0.9585558,15.41178,157.20315)"
       clip-path="url(#clipPath35)"><tspan
         style="font-style:oblique;font-variant:normal;font-weight:normal;font-size:16px;font-family:Helvetica;writing-mode:lr-tb;fill:#000000;fill-opacity:1;fill-rule:nonzero;stroke:none"
         x="0 11.554688 20.453125 25.78125 31.109375 40.007812 51.5625 56.007812 64.90625 73.804688 85.359375 94.257812 98.703125 107.60156 115.60156 124.5 129.82812"
         y="0"
         sodipodi:role="line"
         id="tspan34">Narrow down every</tspan></text>
    <text
       id="text35"
       xml:space="preserve"
       transform="matrix(0.9585558,0,0,0.9585558,18.377312,176.37427)"
       clip-path="url(#clipPath36)"><tspan
         style="font-style:oblique;font-variant:normal;font-weight:normal;font-size:16px;font-family:Helvetica;writing-mode:lr-tb;fill:#000000;fill-opacity:1;fill-rule:nonzero;stroke:none"
         x="0 8.8984375 13.34375 22.242188 31.140625 36.46875 40.914062 45.359375 53.359375 62.257812 71.15625 75.601562 84.5 88.945312 93.390625 101.39062 110.28906 113.84375 122.74219"
         y="0"
         sodipodi:role="line"
         id="tspan35">other type of value</tspan></text>
  </g>
</svg>
