<?xml version="1.0" encoding="UTF-8" standalone="no"?>
<!-- Created with Inkscape (http://www.inkscape.org/) -->

<svg
   version="1.1"
   id="svg1"
   width="649.27997"
   height="202.56"
   viewBox="0 0 649.27997 202.56"
   sodipodi:docname="ts-9.pdf"
   xmlns:inkscape="http://www.inkscape.org/namespaces/inkscape"
   xmlns:sodipodi="http://sodipodi.sourceforge.net/DTD/sodipodi-0.dtd"
   xmlns="http://www.w3.org/2000/svg"
   xmlns:svg="http://www.w3.org/2000/svg">
  <defs
     id="defs1">
    <clipPath
       clipPathUnits="userSpaceOnUse"
       id="clipPath2">
      <path
         d="M 0,0 H 2029.1666 V 631.49579 H 0 Z"
         transform="scale(0.33412733)"
         clip-rule="evenodd"
         id="path2" />
    </clipPath>
    <clipPath
       clipPathUnits="userSpaceOnUse"
       id="clipPath4">
      <path
         d="M 0,0 H 2029.1666 V 625.51007 H 0 Z"
         transform="matrix(0.33412733,0,0,0.33412733,-0.50000001,-0.50000001)"
         clip-rule="evenodd"
         id="path4" />
    </clipPath>
    <clipPath
       clipPathUnits="userSpaceOnUse"
       id="clipPath6">
      <path
         d="M 0,0 H 2029.1666 V 625.51007 H 0 Z"
         transform="matrix(0.33412733,0,0,0.33412733,-0.50000001,-0.50000001)"
         clip-rule="evenodd"
         id="path6" />
    </clipPath>
    <clipPath
       clipPathUnits="userSpaceOnUse"
       id="clipPath8">
      <path
         d="M 0,0 H 2029.1666 V 625.51007 H 0 Z"
         transform="matrix(0.33412733,0,0,0.33412733,-0.50000001,-0.50000001)"
         clip-rule="evenodd"
         id="path8" />
    </clipPath>
    <clipPath
       clipPathUnits="userSpaceOnUse"
       id="clipPath9">
      <path
         d="M 0,0 H 2029.1666 V 625.51007 H 0 Z"
         transform="matrix(0.33412397,0,0,0.33412397,-115.28125,-24)"
         clip-rule="evenodd"
         id="path9" />
    </clipPath>
    <clipPath
       clipPathUnits="userSpaceOnUse"
       id="clipPath10">
      <path
         d="M 0,0 H 2029.1666 V 625.51007 H 0 Z"
         transform="matrix(0.33412397,0,0,0.33412397,-23,-39)"
         clip-rule="evenodd"
         id="path10" />
    </clipPath>
    <clipPath
       clipPathUnits="userSpaceOnUse"
       id="clipPath11">
      <path
         d="M 0,0 H 2029.1666 V 625.51007 H 0 Z"
         transform="matrix(0.33412397,0,0,0.33412397,-23,-62)"
         clip-rule="evenodd"
         id="path11" />
    </clipPath>
    <clipPath
       clipPathUnits="userSpaceOnUse"
       id="clipPath12">
      <path
         d="M 0,0 H 2029.1666 V 625.51007 H 0 Z"
         transform="matrix(0.33412397,0,0,0.33412397,-23,-85.000001)"
         clip-rule="evenodd"
         id="path12" />
    </clipPath>
    <clipPath
       clipPathUnits="userSpaceOnUse"
       id="clipPath13">
      <path
         d="M 0,0 H 2029.1666 V 625.51007 H 0 Z"
         transform="matrix(0.33412397,0,0,0.33412397,-23,-108)"
         clip-rule="evenodd"
         id="path13" />
    </clipPath>
    <clipPath
       clipPathUnits="userSpaceOnUse"
       id="clipPath14">
      <path
         d="M 0,0 H 2029.1666 V 625.51007 H 0 Z"
         transform="matrix(0.33412397,0,0,0.33412397,-184.5625,-108)"
         clip-rule="evenodd"
         id="path14" />
    </clipPath>
    <clipPath
       clipPathUnits="userSpaceOnUse"
       id="clipPath15">
      <path
         d="M 0,0 H 2029.1666 V 625.51007 H 0 Z"
         transform="matrix(0.33412397,0,0,0.33412397,-263.76563,-108)"
         clip-rule="evenodd"
         id="path15" />
    </clipPath>
    <clipPath
       clipPathUnits="userSpaceOnUse"
       id="clipPath16">
      <path
         d="M 0,0 H 2029.1666 V 625.51007 H 0 Z"
         transform="matrix(0.33412397,0,0,0.33412397,-23,-131)"
         clip-rule="evenodd"
         id="path16" />
    </clipPath>
    <clipPath
       clipPathUnits="userSpaceOnUse"
       id="clipPath17">
      <path
         d="M 0,0 H 2029.1666 V 625.51007 H 0 Z"
         transform="matrix(0.33412397,0,0,0.33412397,-174.01563,-131)"
         clip-rule="evenodd"
         id="path17" />
    </clipPath>
    <clipPath
       clipPathUnits="userSpaceOnUse"
       id="clipPath18">
      <path
         d="M 0,0 H 2029.1666 V 625.51007 H 0 Z"
         transform="matrix(0.33412397,0,0,0.33412397,-221.54688,-131)"
         clip-rule="evenodd"
         id="path18" />
    </clipPath>
    <clipPath
       clipPathUnits="userSpaceOnUse"
       id="clipPath19">
      <path
         d="M 0,0 H 2029.1666 V 625.51007 H 0 Z"
         transform="matrix(0.33412397,0,0,0.33412397,-23,-153)"
         clip-rule="evenodd"
         id="path19" />
    </clipPath>
    <clipPath
       clipPathUnits="userSpaceOnUse"
       id="clipPath20">
      <path
         d="M 0,0 H 2029.1666 V 625.51007 H 0 Z"
         transform="matrix(0.33412397,0,0,0.33412397,-23,-176)"
         clip-rule="evenodd"
         id="path20" />
    </clipPath>
    <clipPath
       clipPathUnits="userSpaceOnUse"
       id="clipPath21">
      <path
         d="M 0,0 H 2029.1666 V 625.51007 H 0 Z"
         transform="matrix(0.33412397,0,0,0.33412397,-23,-199)"
         clip-rule="evenodd"
         id="path21" />
    </clipPath>
    <clipPath
       clipPathUnits="userSpaceOnUse"
       id="clipPath23">
      <path
         d="M 0,0 H 2029.1666 V 625.51007 H 0 Z"
         transform="matrix(0.33412733,0,0,0.33412733,-0.50000001,-0.50000001)"
         clip-rule="evenodd"
         id="path23" />
    </clipPath>
    <clipPath
       clipPathUnits="userSpaceOnUse"
       id="clipPath24">
      <path
         d="M 0,0 H 2029.1666 V 625.51007 H 0 Z"
         transform="matrix(0.33412397,0,0,0.33412397,-409.3125,-24)"
         clip-rule="evenodd"
         id="path24" />
    </clipPath>
    <clipPath
       clipPathUnits="userSpaceOnUse"
       id="clipPath25">
      <path
         d="M 0,0 H 2029.1666 V 625.51007 H 0 Z"
         transform="matrix(0.33412397,0,0,0.33412397,-431,-45)"
         clip-rule="evenodd"
         id="path25" />
    </clipPath>
    <clipPath
       clipPathUnits="userSpaceOnUse"
       id="clipPath26">
      <path
         d="M 0,0 H 2029.1666 V 625.51007 H 0 Z"
         transform="matrix(0.33412397,0,0,0.33412397,-431,-68)"
         clip-rule="evenodd"
         id="path26" />
    </clipPath>
    <clipPath
       clipPathUnits="userSpaceOnUse"
       id="clipPath27">
      <path
         d="M 0,0 H 2029.1666 V 625.51007 H 0 Z"
         transform="matrix(0.33412397,0,0,0.33412397,-441.5625,-68)"
         clip-rule="evenodd"
         id="path27" />
    </clipPath>
    <clipPath
       clipPathUnits="userSpaceOnUse"
       id="clipPath28">
      <path
         d="M 0,0 H 2029.1666 V 625.51007 H 0 Z"
         transform="matrix(0.33412397,0,0,0.33412397,-480.64063,-68)"
         clip-rule="evenodd"
         id="path28" />
    </clipPath>
    <clipPath
       clipPathUnits="userSpaceOnUse"
       id="clipPath29">
      <path
         d="M 0,0 H 2029.1666 V 625.51007 H 0 Z"
         transform="matrix(0.33412397,0,0,0.33412397,-431,-91)"
         clip-rule="evenodd"
         id="path29" />
    </clipPath>
    <clipPath
       clipPathUnits="userSpaceOnUse"
       id="clipPath30">
      <path
         d="M 0,0 H 2029.1666 V 625.51007 H 0 Z"
         transform="matrix(0.33412397,0,0,0.33412397,-489.07813,-91)"
         clip-rule="evenodd"
         id="path30" />
    </clipPath>
    <clipPath
       clipPathUnits="userSpaceOnUse"
       id="clipPath31">
      <path
         d="M 0,0 H 2029.1666 V 625.51007 H 0 Z"
         transform="matrix(0.33412397,0,0,0.33412397,-431,-114)"
         clip-rule="evenodd"
         id="path31" />
    </clipPath>
    <clipPath
       clipPathUnits="userSpaceOnUse"
       id="clipPath32">
      <path
         d="M 0,0 H 2029.1666 V 625.51007 H 0 Z"
         transform="matrix(0.33412397,0,0,0.33412397,-520.76563,-114)"
         clip-rule="evenodd"
         id="path32" />
    </clipPath>
    <clipPath
       clipPathUnits="userSpaceOnUse"
       id="clipPath33">
      <path
         d="M 0,0 H 2029.1666 V 625.51007 H 0 Z"
         transform="matrix(0.33412397,0,0,0.33412397,-431,-136)"
         clip-rule="evenodd"
         id="path33" />
    </clipPath>
    <clipPath
       clipPathUnits="userSpaceOnUse"
       id="clipPath34">
      <path
         d="M 0,0 H 2029.1666 V 625.51007 H 0 Z"
         transform="matrix(0.33412397,0,0,0.33412397,-441.5625,-136)"
         clip-rule="evenodd"
         id="path34" />
    </clipPath>
    <clipPath
       clipPathUnits="userSpaceOnUse"
       id="clipPath35">
      <path
         d="M 0,0 H 2029.1666 V 625.51007 H 0 Z"
         transform="matrix(0.33412397,0,0,0.33412397,-510.17188,-136)"
         clip-rule="evenodd"
         id="path35" />
    </clipPath>
    <clipPath
       clipPathUnits="userSpaceOnUse"
       id="clipPath36">
      <path
         d="M 0,0 H 2029.1666 V 625.51007 H 0 Z"
         transform="matrix(0.33412397,0,0,0.33412397,-431,-159)"
         clip-rule="evenodd"
         id="path36" />
    </clipPath>
  </defs>
  <sodipodi:namedview
     id="namedview1"
     pagecolor="#ffffff"
     bordercolor="#000000"
     borderopacity="0.25"
     inkscape:showpageshadow="2"
     inkscape:pageopacity="0.0"
     inkscape:pagecheckerboard="0"
     inkscape:deskcolor="#d1d1d1">
    <inkscape:page
       x="0"
       y="0"
       inkscape:label="1"
       id="page1"
       width="649.27997"
       height="202.56"
       margin="0"
       bleed="0" />
  </sodipodi:namedview>
  <g
     id="g1"
     inkscape:groupmode="layer"
     inkscape:label="1">
    <path
       id="path1"
       d="M 0,0 H 678 V 211 H 0 Z"
       style="fill:#ffffff;fill-opacity:1;fill-rule:nonzero;stroke:none"
       transform="scale(0.95771868)"
       clip-path="url(#clipPath2)" />
    <path
       id="path3"
       d="M 1,27 H 331 V 207 H 1 Z"
       style="fill:#d5e8d4;fill-opacity:1;fill-rule:nonzero;stroke:#82b366;stroke-width:1;stroke-linecap:butt;stroke-linejoin:miter;stroke-miterlimit:10;stroke-dasharray:none;stroke-opacity:1"
       transform="matrix(0.95771868,0,0,0.95771868,0.47885935,0.47885935)"
       clip-path="url(#clipPath4)" />
    <path
       id="path5"
       d="m 331,62 39.29999,0.5 V 100 h 31.84002"
       style="fill:none;stroke:#000000;stroke-width:1;stroke-linecap:butt;stroke-linejoin:miter;stroke-miterlimit:10;stroke-dasharray:none;stroke-opacity:1"
       transform="matrix(0.95771868,0,0,0.95771868,0.47885935,0.47885935)"
       clip-path="url(#clipPath6)" />
    <path
       id="path7"
       d="m 407.39001,100 -7,3.5 1.75,-3.5 -1.75,-3.5 z"
       style="fill:#000000;fill-opacity:1;fill-rule:nonzero;stroke:#000000;stroke-width:1;stroke-linecap:butt;stroke-linejoin:miter;stroke-miterlimit:10;stroke-dasharray:none;stroke-opacity:1"
       transform="matrix(0.95771868,0,0,0.95771868,0.47885935,0.47885935)"
       clip-path="url(#clipPath8)" />
    <text
       id="text8"
       xml:space="preserve"
       transform="matrix(0.95772831,0,0,0.95772831,110.40812,22.985479)"
       clip-path="url(#clipPath9)"><tspan
         style="font-variant:normal;font-weight:700;font-size:25px;font-family:Helvetica;writing-mode:lr-tb;fill:#000000;fill-opacity:1;fill-rule:nonzero;stroke:none"
         x="0 16.674805 31.945801 41.674805 50 63.903809 72.265625 79.211426 87.536621"
         y="0"
         sodipodi:role="line"
         id="tspan8">Sorter.ts</tspan></text>
    <text
       id="text9"
       xml:space="preserve"
       transform="matrix(0.95772831,0,0,0.95772831,22.027751,37.351404)"
       clip-path="url(#clipPath10)"><tspan
         style="font-variant:normal;font-weight:normal;font-size:19px;font-family:Helvetica;writing-mode:lr-tb;fill:#000000;fill-opacity:1;fill-rule:nonzero;stroke:none"
         x="0 9.5 13.721191 24.288086 33.788086 43.288086 48.566895 61.239746 71.806641 78.133789 83.412598 93.979492 100.30664 105.58545"
         y="0"
         sodipodi:role="line"
         id="tspan9">class Sorter {</tspan></text>
    <text
       id="text10"
       xml:space="preserve"
       transform="matrix(0.95772831,0,0,0.95772831,22.027751,59.379155)"
       clip-path="url(#clipPath11)"><tspan
         style="font-variant:normal;font-weight:normal;font-size:19px;font-family:Helvetica;writing-mode:lr-tb;fill:#000000;fill-opacity:1;fill-rule:nonzero;stroke:none"
         x="0 5.2788086 10.557617 20.057617 30.624512 36.95166 42.230469 48.557617 54.884766 60.163574"
         y="0"
         sodipodi:role="line"
         id="tspan10">  sort() {</tspan></text>
    <text
       id="text11"
       xml:space="preserve"
       transform="matrix(0.95772831,0,0,0.95772831,22.027751,81.406907)"
       clip-path="url(#clipPath12)"><tspan
         style="font-variant:normal;font-weight:normal;font-size:19px;font-family:Helvetica;writing-mode:lr-tb;fill:#000000;fill-opacity:1;fill-rule:nonzero;stroke:none"
         x="0 5.2788086 10.557617 15.836426 21.115234 26.394043 36.960938 43.288086 49.615234 55.942383 61.221191 66.5 77.066895 83.394043 89.721191"
         y="0"
         sodipodi:role="line"
         id="tspan11">    for() for()</tspan></text>
    <text
       id="text12"
       xml:space="preserve"
       transform="matrix(0.95772831,0,0,0.95772831,22.027751,103.43466)"
       clip-path="url(#clipPath13)"><tspan
         style="font-variant:normal;font-weight:normal;font-size:19px;font-family:Helvetica;writing-mode:lr-tb;fill:#000000;fill-opacity:1;fill-rule:nonzero;stroke:none"
         x="0 5.2788086 10.557617 15.836426 21.115234 25.336426 30.615234 35.894043 42.221191 47.5 58.066895 62.288086 71.788086 77.066895 86.566895 97.133789 101.35498 105.57617 116.14307 125.64307 130.92188 135.14307 145.70996 156.27686"
         y="0"
         sodipodi:role="line"
         id="tspan12">    if (this.collection.</tspan></text>
    <text
       id="text13"
       xml:space="preserve"
       transform="matrix(0.95772831,0,0,0.95772831,176.76073,103.43466)"
       clip-path="url(#clipPath14)"><tspan
         style="font-variant:normal;font-weight:700;font-size:19px;font-family:Helvetica;writing-mode:lr-tb;fill:#000000;fill-opacity:1;fill-rule:nonzero;stroke:none"
         x="0 10.566895 22.172852 39.066895 50.672852 61.239746 68.633789"
         y="0"
         sodipodi:role="line"
         id="tspan13">compare</tspan></text>
    <text
       id="text14"
       xml:space="preserve"
       transform="matrix(0.95772831,0,0,0.95772831,252.61581,103.43466)"
       clip-path="url(#clipPath15)"><tspan
         style="font-variant:normal;font-weight:normal;font-size:19px;font-family:Helvetica;writing-mode:lr-tb;fill:#000000;fill-opacity:1;fill-rule:nonzero;stroke:none"
         x="0 6.3271484 12.654297 18.981445 24.260254"
         y="0"
         sodipodi:role="line"
         id="tspan14">()) {</tspan></text>
    <text
       id="text15"
       xml:space="preserve"
       transform="matrix(0.95772831,0,0,0.95772831,22.027751,125.46241)"
       clip-path="url(#clipPath16)"><tspan
         style="font-variant:normal;font-weight:normal;font-size:19px;font-family:Helvetica;writing-mode:lr-tb;fill:#000000;fill-opacity:1;fill-rule:nonzero;stroke:none"
         x="0 5.2788086 10.557617 15.836426 21.115234 26.394043 31.672852 36.95166 47.518555 51.739746 61.239746 66.518555 76.018555 86.585449 90.806641 95.027832 105.59473 115.09473 120.37354 124.59473 135.16162 145.72852"
         y="0"
         sodipodi:role="line"
         id="tspan15">      this.collection.</tspan></text>
    <text
       id="text16"
       xml:space="preserve"
       transform="matrix(0.95772831,0,0,0.95772831,166.6597,125.46241)"
       clip-path="url(#clipPath17)"><tspan
         style="font-variant:normal;font-weight:700;font-size:19px;font-family:Helvetica;writing-mode:lr-tb;fill:#000000;fill-opacity:1;fill-rule:nonzero;stroke:none"
         x="0 10.566895 25.345703 35.912598"
         y="0"
         sodipodi:role="line"
         id="tspan16">swap</tspan></text>
    <text
       id="text17"
       xml:space="preserve"
       transform="matrix(0.95772831,0,0,0.95772831,212.18172,125.46241)"
       clip-path="url(#clipPath18)"><tspan
         style="font-variant:normal;font-weight:normal;font-size:19px;font-family:Helvetica;writing-mode:lr-tb;fill:#000000;fill-opacity:1;fill-rule:nonzero;stroke:none"
         x="0 6.3271484"
         y="0"
         sodipodi:role="line"
         id="tspan17">()</tspan></text>
    <text
       id="text18"
       xml:space="preserve"
       transform="matrix(0.95772831,0,0,0.95772831,22.027751,146.53243)"
       clip-path="url(#clipPath19)"><tspan
         style="font-variant:normal;font-weight:normal;font-size:19px;font-family:Helvetica;writing-mode:lr-tb;fill:#000000;fill-opacity:1;fill-rule:nonzero;stroke:none"
         x="0 5.2788086 10.557617 15.836426 21.115234"
         y="0"
         sodipodi:role="line"
         id="tspan18">    }</tspan></text>
    <text
       id="text19"
       xml:space="preserve"
       transform="matrix(0.95772831,0,0,0.95772831,22.027751,168.56018)"
       clip-path="url(#clipPath20)"><tspan
         style="font-variant:normal;font-weight:normal;font-size:19px;font-family:Helvetica;writing-mode:lr-tb;fill:#000000;fill-opacity:1;fill-rule:nonzero;stroke:none"
         x="0 5.2788086 10.557617"
         y="0"
         sodipodi:role="line"
         id="tspan19">  }</tspan></text>
    <text
       id="text20"
       xml:space="preserve"
       transform="matrix(0.95772831,0,0,0.95772831,22.027751,190.58793)"
       clip-path="url(#clipPath21)"><tspan
         style="font-variant:normal;font-weight:normal;font-size:19px;font-family:Helvetica;writing-mode:lr-tb;fill:#000000;fill-opacity:1;fill-rule:nonzero;stroke:none"
         x="0"
         y="0"
         id="tspan20">}</tspan></text>
    <path
       id="path22"
       d="m 408.5,35 h 260 v 130 h -260 z"
       style="fill:#d5e8d4;fill-opacity:1;fill-rule:nonzero;stroke:#82b366;stroke-width:1;stroke-linecap:butt;stroke-linejoin:miter;stroke-miterlimit:10;stroke-dasharray:none;stroke-opacity:1"
       transform="matrix(0.95771868,0,0,0.95771868,0.47885935,0.47885935)"
       clip-path="url(#clipPath23)" />
    <text
       id="text23"
       xml:space="preserve"
       transform="matrix(0.95772831,0,0,0.95772831,392.01017,22.985479)"
       clip-path="url(#clipPath24)"><tspan
         style="font-variant:normal;font-weight:700;font-size:25px;font-family:Helvetica;writing-mode:lr-tb;fill:#000000;fill-opacity:1;fill-rule:nonzero;stroke:none"
         x="0 18.054199 33.325195 55.554199 70.825195 84.729004 94.458008 108.36182 126.41602 141.68701 148.63281 155.57861 169.48242 183.38623 191.71143 198.65723 213.92822 229.19922 236.14502 244.47021"
         y="0"
         sodipodi:role="line"
         id="tspan23">NumbersCollection.ts</tspan></text>
    <text
       id="text24"
       xml:space="preserve"
       transform="matrix(0.95772831,0,0,0.95772831,412.7809,43.097774)"
       clip-path="url(#clipPath25)"><tspan
         style="font-variant:normal;font-weight:normal;font-size:19px;font-family:Helvetica;writing-mode:lr-tb;fill:#000000;fill-opacity:1;fill-rule:nonzero;stroke:none"
         x="0 9.5 13.721191 24.288086 33.788086 43.288086 48.566895 62.288086 72.85498 88.682129 99.249023 109.81592 116.14307 125.64307 139.36426 149.93115 154.15234 158.37354 168.94043 178.44043 183.71924 187.94043 198.50732 209.07422 214.35303"
         y="0"
         sodipodi:role="line"
         id="tspan24">class NumbersCollection {</tspan></text>
    <text
       id="text25"
       xml:space="preserve"
       transform="matrix(0.95772831,0,0,0.95772831,412.7809,65.125525)"
       clip-path="url(#clipPath26)"><tspan
         style="font-variant:normal;font-weight:normal;font-size:19px;font-family:Helvetica;writing-mode:lr-tb;fill:#000000;fill-opacity:1;fill-rule:nonzero;stroke:none"
         x="0 5.2788086"
         y="0"
         sodipodi:role="line"
         id="tspan25">  </tspan></text>
    <text
       id="text26"
       xml:space="preserve"
       transform="matrix(0.95772831,0,0,0.95772831,422.89691,65.125525)"
       clip-path="url(#clipPath27)"><tspan
         style="font-variant:normal;font-weight:700;font-size:19px;font-family:Helvetica;writing-mode:lr-tb;fill:#000000;fill-opacity:1;fill-rule:nonzero;stroke:none"
         x="0 11.605957 22.172852 28.5"
         y="0"
         sodipodi:role="line"
         id="tspan26">data</tspan></text>
    <text
       id="text27"
       xml:space="preserve"
       transform="matrix(0.95772831,0,0,0.95772831,460.32314,65.125525)"
       clip-path="url(#clipPath28)"><tspan
         style="font-variant:normal;font-weight:normal;font-size:19px;font-family:Helvetica;writing-mode:lr-tb;fill:#000000;fill-opacity:1;fill-rule:nonzero;stroke:none"
         x="0 5.2788086 10.557617 21.124512 31.691406 47.518555 58.085449 68.652344 74.979492 80.258301 85.537109"
         y="0"
         sodipodi:role="line"
         id="tspan27">: number[];</tspan></text>
    <text
       id="text28"
       xml:space="preserve"
       transform="matrix(0.95772831,0,0,0.95772831,412.7809,87.153276)"
       clip-path="url(#clipPath29)"><tspan
         style="font-variant:normal;font-weight:700;font-size:19px;font-family:Helvetica;writing-mode:lr-tb;fill:#000000;fill-opacity:1;fill-rule:nonzero;stroke:none"
         x="0 5.2788086 10.557617 21.124512 35.90332 46.470215"
         y="0"
         sodipodi:role="line"
         id="tspan28">  swap</tspan></text>
    <text
       id="text29"
       xml:space="preserve"
       transform="matrix(0.95772831,0,0,0.95772831,468.40397,87.153276)"
       clip-path="url(#clipPath30)"><tspan
         style="font-variant:normal;font-weight:normal;font-size:19px;font-family:Helvetica;writing-mode:lr-tb;fill:#000000;fill-opacity:1;fill-rule:nonzero;stroke:none"
         x="0 6.3271484 10.54834 15.827148 21.105957 25.327148"
         y="0"
         sodipodi:role="line"
         id="tspan29">(i, j)</tspan></text>
    <text
       id="text30"
       xml:space="preserve"
       transform="matrix(0.95772831,0,0,0.95772831,412.7809,109.18103)"
       clip-path="url(#clipPath31)"><tspan
         style="font-variant:normal;font-weight:700;font-size:19px;font-family:Helvetica;writing-mode:lr-tb;fill:#000000;fill-opacity:1;fill-rule:nonzero;stroke:none"
         x="0 5.2788086 10.557617 21.124512 32.730469 49.624512 61.230469 71.797363 79.191406"
         y="0"
         sodipodi:role="line"
         id="tspan30">  compare</tspan></text>
    <text
       id="text31"
       xml:space="preserve"
       transform="matrix(0.95772831,0,0,0.95772831,498.75199,109.18103)"
       clip-path="url(#clipPath32)"><tspan
         style="font-variant:normal;font-weight:normal;font-size:19px;font-family:Helvetica;writing-mode:lr-tb;fill:#000000;fill-opacity:1;fill-rule:nonzero;stroke:none"
         x="0 6.3271484 10.54834 15.827148 21.105957 25.327148"
         y="0"
         sodipodi:role="line"
         id="tspan31">(i, j)</tspan></text>
    <text
       id="text32"
       xml:space="preserve"
       transform="matrix(0.95772831,0,0,0.95772831,412.7809,130.25105)"
       clip-path="url(#clipPath33)"><tspan
         style="font-variant:normal;font-weight:normal;font-size:19px;font-family:Helvetica;writing-mode:lr-tb;fill:#000000;fill-opacity:1;fill-rule:nonzero;stroke:none"
         x="0 5.2788086"
         y="0"
         sodipodi:role="line"
         id="tspan32">  </tspan></text>
    <text
       id="text33"
       xml:space="preserve"
       transform="matrix(0.95772831,0,0,0.95772831,422.89691,130.25105)"
       clip-path="url(#clipPath34)"><tspan
         style="font-variant:normal;font-weight:700;font-size:19px;font-family:Helvetica;writing-mode:lr-tb;fill:#000000;fill-opacity:1;fill-rule:nonzero;stroke:none"
         x="0 5.2788086 15.845703 27.45166 39.057617 45.384766 56.990723 63.317871"
         y="0"
         sodipodi:role="line"
         id="tspan33">length: </tspan></text>
    <text
       id="text34"
       xml:space="preserve"
       transform="matrix(0.95772831,0,0,0.95772831,488.60605,130.25105)"
       clip-path="url(#clipPath35)"><tspan
         style="font-variant:normal;font-weight:normal;font-size:19px;font-family:Helvetica;writing-mode:lr-tb;fill:#000000;fill-opacity:1;fill-rule:nonzero;stroke:none"
         x="0 10.566895 21.133789 36.960938 47.527832 58.094727"
         y="0"
         sodipodi:role="line"
         id="tspan34">number</tspan></text>
    <text
       id="text35"
       xml:space="preserve"
       transform="matrix(0.95772831,0,0,0.95772831,412.7809,152.2788)"
       clip-path="url(#clipPath36)"><tspan
         style="font-variant:normal;font-weight:normal;font-size:19px;font-family:Helvetica;writing-mode:lr-tb;fill:#000000;fill-opacity:1;fill-rule:nonzero;stroke:none"
         x="0"
         y="0"
         id="tspan35">}</tspan></text>
  </g>
</svg>
